<?xml version="1.0" encoding="UTF-8" standalone="no"?>
<!DOCTYPE svg PUBLIC "-//W3C//DTD SVG 1.1//EN"
 "http://www.w3.org/Graphics/SVG/1.1/DTD/svg11.dtd">
<!-- Generated by graphviz version 2.43.0 (0)
 -->
<!-- Title: qpalm::Solver::update_settings Pages: 1 -->
<svg width="558pt" height="212pt"
 viewBox="0.00 0.00 558.00 212.00" xmlns="http://www.w3.org/2000/svg" xmlns:xlink="http://www.w3.org/1999/xlink">
<g id="graph0" class="graph" transform="scale(1 1) rotate(0) translate(4 208)">
<title>qpalm::Solver::update_settings</title>
<!-- Node1 -->
<g id="node1" class="node">
<title>Node1</title>
<g id="a_node1"><a xlink:title=" ">
<polygon fill="#999999" stroke="#666666" points="124,-116.5 0,-116.5 0,-86.5 124,-86.5 124,-116.5"/>
<text text-anchor="start" x="8" y="-104.5" font-family="Helvetica,sans-Serif" font-size="10.00">qpalm::Solver::update</text>
<text text-anchor="middle" x="62" y="-93.5" font-family="Helvetica,sans-Serif" font-size="10.00">_settings</text>
</a>
</g>
</g>
<!-- Node2 -->
<g id="node2" class="node">
<title>Node2</title>
<g id="a_node2"><a xlink:href="group__solver-grp.html#ga581cf986cb484ec5721f76b025eda704" target="_top" xlink:title="Update the settings to the new settings.">
<polygon fill="white" stroke="#666666" points="291,-111 160,-111 160,-92 291,-92 291,-111"/>
<text text-anchor="middle" x="225.5" y="-99" font-family="Helvetica,sans-Serif" font-size="10.00">qpalm_update_settings</text>
</a>
</g>
</g>
<!-- Node1&#45;&gt;Node2 -->
<g id="edge1" class="edge">
<title>Node1&#45;&gt;Node2</title>
<path fill="none" stroke="#63b8ff" d="M124.06,-101.5C132.47,-101.5 141.18,-101.5 149.8,-101.5"/>
<polygon fill="#63b8ff" stroke="#63b8ff" points="149.86,-105 159.86,-101.5 149.86,-98 149.86,-105"/>
</g>
<!-- Node3 -->
<g id="node3" class="node">
<title>Node3</title>
<g id="a_node3"><a xlink:href="util_8c.html#a14436938f89e6b14f819c58af7d9f0fe" target="_top" xlink:title="Copy settings creating a new settings structure.">
<polygon fill="white" stroke="#666666" points="419.5,-204 335.5,-204 335.5,-185 419.5,-185 419.5,-204"/>
<text text-anchor="middle" x="377.5" y="-192" font-family="Helvetica,sans-Serif" font-size="10.00">copy_settings</text>
</a>
</g>
</g>
<!-- Node2&#45;&gt;Node3 -->
<g id="edge2" class="edge">
<title>Node2&#45;&gt;Node3</title>
<path fill="none" stroke="#63b8ff" d="M237.22,-111.19C254.86,-126.72 291.56,-157.37 327,-176.5 330.03,-178.13 333.24,-179.68 336.51,-181.12"/>
<polygon fill="#63b8ff" stroke="#63b8ff" points="335.2,-184.37 345.78,-184.92 337.85,-177.89 335.2,-184.37"/>
</g>
<!-- Node5 -->
<g id="node5" class="node">
<title>Node5</title>
<g id="a_node5"><a xlink:href="global__opts_8c.html#a057129daf1349d96b074b9dca1994d09" target="_top" xlink:title=" ">
<polygon fill="white" stroke="#666666" points="413.5,-167 341.5,-167 341.5,-148 413.5,-148 413.5,-167"/>
<text text-anchor="middle" x="377.5" y="-155" font-family="Helvetica,sans-Serif" font-size="10.00">qpalm_free</text>
</a>
</g>
</g>
<!-- Node2&#45;&gt;Node5 -->
<g id="edge4" class="edge">
<title>Node2&#45;&gt;Node5</title>
<path fill="none" stroke="#63b8ff" d="M251.66,-111.12C271.97,-118.85 301.29,-129.97 327,-139.5 331.31,-141.1 335.84,-142.76 340.33,-144.41"/>
<polygon fill="#63b8ff" stroke="#63b8ff" points="339.42,-147.8 350.02,-147.94 341.82,-141.23 339.42,-147.8"/>
</g>
<!-- Node6 -->
<g id="node6" class="node">
<title>Node6</title>
<g id="a_node6"><a xlink:href="util_8h.html#aae57226ec767e15f27d88e97df093b41" target="_top" xlink:title="Start timer.">
<polygon fill="white" stroke="#666666" points="410,-130 345,-130 345,-111 410,-111 410,-130"/>
<text text-anchor="middle" x="377.5" y="-118" font-family="Helvetica,sans-Serif" font-size="10.00">qpalm_tic</text>
</a>
</g>
</g>
<!-- Node2&#45;&gt;Node6 -->
<g id="edge5" class="edge">
<title>Node2&#45;&gt;Node6</title>
<path fill="none" stroke="#63b8ff" d="M291.42,-109.72C306.04,-111.57 321.18,-113.49 334.56,-115.19"/>
<polygon fill="#63b8ff" stroke="#63b8ff" points="334.52,-118.71 344.88,-116.49 335.4,-111.77 334.52,-118.71"/>
</g>
<!-- Node7 -->
<g id="node7" class="node">
<title>Node7</title>
<g id="a_node7"><a xlink:href="util_8h.html#a6eecdaf6f3f1c4bf0ab1067a5e7e69da" target="_top" xlink:title="Report time in seconds since last call to qpalm_tic.">
<polygon fill="white" stroke="#666666" points="411.5,-93 343.5,-93 343.5,-74 411.5,-74 411.5,-93"/>
<text text-anchor="middle" x="377.5" y="-81" font-family="Helvetica,sans-Serif" font-size="10.00">qpalm_toc</text>
</a>
</g>
</g>
<!-- Node2&#45;&gt;Node7 -->
<g id="edge6" class="edge">
<title>Node2&#45;&gt;Node7</title>
<path fill="none" stroke="#63b8ff" d="M291.42,-93.71C305.54,-92.02 320.14,-90.26 333.18,-88.7"/>
<polygon fill="#63b8ff" stroke="#63b8ff" points="333.76,-92.15 343.27,-87.49 332.92,-85.2 333.76,-92.15"/>
</g>
<!-- Node8 -->
<g id="node8" class="node">
<title>Node8</title>
<g id="a_node8"><a xlink:href="util_8c.html#a14fe651105f1f38b2a3a49614f4b8ae2" target="_top" xlink:title="Update solver status (value and string).">
<polygon fill="white" stroke="#666666" points="420.5,-56 334.5,-56 334.5,-37 420.5,-37 420.5,-56"/>
<text text-anchor="middle" x="377.5" y="-44" font-family="Helvetica,sans-Serif" font-size="10.00">update_status</text>
</a>
</g>
</g>
<!-- Node2&#45;&gt;Node8 -->
<g id="edge7" class="edge">
<title>Node2&#45;&gt;Node8</title>
<path fill="none" stroke="#63b8ff" d="M252.63,-91.92C277.07,-82.96 313.79,-69.49 340.9,-59.55"/>
<polygon fill="#63b8ff" stroke="#63b8ff" points="342.24,-62.79 350.42,-56.06 339.83,-56.22 342.24,-62.79"/>
</g>
<!-- Node10 -->
<g id="node10" class="node">
<title>Node10</title>
<g id="a_node10"><a xlink:href="validate_8c.html#aa3fa0338cebc63078430fed1211df147" target="_top" xlink:title="Validate problem settings.">
<polygon fill="white" stroke="#666666" points="428,-19 327,-19 327,0 428,0 428,-19"/>
<text text-anchor="middle" x="377.5" y="-7" font-family="Helvetica,sans-Serif" font-size="10.00">validate_settings</text>
</a>
</g>
</g>
<!-- Node2&#45;&gt;Node10 -->
<g id="edge9" class="edge">
<title>Node2&#45;&gt;Node10</title>
<path fill="none" stroke="#63b8ff" d="M237.6,-91.92C255.47,-76.86 292.13,-47.43 327,-28.5 330.69,-26.5 334.63,-24.61 338.62,-22.85"/>
<polygon fill="#63b8ff" stroke="#63b8ff" points="340.01,-26.06 347.92,-19.01 337.34,-19.59 340.01,-26.06"/>
</g>
<!-- Node4 -->
<g id="node4" class="node">
<title>Node4</title>
<g id="a_node4"><a xlink:href="global__opts_8c.html#a9a15c13f16dd6467bcee00e8bf62666a" target="_top" xlink:title=" ">
<polygon fill="white" stroke="#666666" points="550,-204 464,-204 464,-185 550,-185 550,-204"/>
<text text-anchor="middle" x="507" y="-192" font-family="Helvetica,sans-Serif" font-size="10.00">qpalm_malloc</text>
</a>
</g>
</g>
<!-- Node3&#45;&gt;Node4 -->
<g id="edge3" class="edge">
<title>Node3&#45;&gt;Node4</title>
<path fill="none" stroke="#63b8ff" d="M419.54,-194.5C430.36,-194.5 442.17,-194.5 453.5,-194.5"/>
<polygon fill="#63b8ff" stroke="#63b8ff" points="453.72,-198 463.72,-194.5 453.72,-191 453.72,-198"/>
</g>
<!-- Node9 -->
<g id="node9" class="node">
<title>Node9</title>
<g id="a_node9"><a xlink:href="util_8c.html#a7645b56a91479fac2285909a25875b91" target="_top" xlink:title="Custom string copy to avoid string.h library.">
<polygon fill="white" stroke="#666666" points="535.5,-56 478.5,-56 478.5,-37 535.5,-37 535.5,-56"/>
<text text-anchor="middle" x="507" y="-44" font-family="Helvetica,sans-Serif" font-size="10.00">c_strcpy</text>
</a>
</g>
</g>
<!-- Node8&#45;&gt;Node9 -->
<g id="edge8" class="edge">
<title>Node8&#45;&gt;Node9</title>
<path fill="none" stroke="#63b8ff" d="M420.6,-46.5C435.89,-46.5 453.07,-46.5 467.99,-46.5"/>
<polygon fill="#63b8ff" stroke="#63b8ff" points="468.39,-50 478.39,-46.5 468.39,-43 468.39,-50"/>
</g>
</g>
</svg>
