<?xml version="1.0" encoding="UTF-8" standalone="no"?>
<!DOCTYPE svg PUBLIC "-//W3C//DTD SVG 1.1//EN"
 "http://www.w3.org/Graphics/SVG/1.1/DTD/svg11.dtd">
<!-- Generated by graphviz version 2.43.0 (0)
 -->
<!-- Title: QPALM/include/global_opts.h Pages: 1 -->
<!--zoomable 467 -->
<svg id="main" version="1.1" xmlns="http://www.w3.org/2000/svg" xmlns:xlink="http://www.w3.org/1999/xlink" xml:space="preserve" onload="init(evt)">
<style type="text/css"><![CDATA[
.edge:hover path { stroke: red; }
.edge:hover polygon { stroke: red; fill: red; }
]]></style>
<script type="text/javascript"><![CDATA[
var edges = document.getElementsByTagName('g');
if (edges && edges.length) {
  for (var i=0;i<edges.length;i++) {
    if (edges[i].id.substr(0,4)=='edge') {
      edges[i].setAttribute('class','edge');
    }
  }
}
]]></script>
        <defs>
                <circle id="rim" cx="0" cy="0" r="7"/>
                <circle id="rim2" cx="0" cy="0" r="3.5"/>
                <g id="zoomPlus">
                        <use xlink:href="#rim" fill="#404040">
                                <set attributeName="fill" to="#808080" begin="zoomplus.mouseover" end="zoomplus.mouseout"/>
                        </use>
                        <path d="M-4,0h8M0,-4v8" fill="none" stroke="white" stroke-width="1.5" pointer-events="none"/>
                </g>
                <g id="zoomMin">
                        <use xlink:href="#rim" fill="#404040">
                                <set attributeName="fill" to="#808080" begin="zoomminus.mouseover" end="zoomminus.mouseout"/>
                        </use>
                        <path d="M-4,0h8" fill="none" stroke="white" stroke-width="1.5" pointer-events="none"/>
                </g>
                <g id="dirArrow">
                        <path fill="none" stroke="white" stroke-width="1.5" d="M0,-3.0v7 M-2.5,-0.5L0,-3.0L2.5,-0.5"/>
                </g>
               <g id="resetDef">
                       <use xlink:href="#rim2" fill="#404040">
                               <set attributeName="fill" to="#808080" begin="reset.mouseover" end="reset.mouseout"/>
                       </use>
               </g>
        </defs>

<script type="text/javascript">
var viewWidth = 2525;
var viewHeight = 467;
var sectionId = 'dynsection-1';
</script>
<script xlink:href="svgpan.js"/>
<svg id="graph" class="graph">
<g id="viewport">
<title>QPALM/include/global_opts.h</title>
<!-- Node1 -->
<g id="node1" class="node">
<title>Node1</title>
<g id="a_node1"><a xlink:title="Custom memory allocation, print and utility functions, and data types for floats and ints.">
<polygon fill="#999999" stroke="#666666" points="754,-459 632,-459 632,-429 754,-429 754,-459"/>
<text text-anchor="start" x="640" y="-447" font-family="Helvetica,sans-Serif" font-size="10.00">QPALM/include/global</text>
<text text-anchor="middle" x="693" y="-436" font-family="Helvetica,sans-Serif" font-size="10.00">_opts.h</text>
</a>
</g>
</g>
<!-- Node2 -->
<g id="node2" class="node">
<title>Node2</title>
<g id="a_node2"><a xlink:href="iteration_8h.html" target="_top" xlink:title="QPALM main solver routines.">
<polygon fill="white" stroke="#666666" points="384,-261 242,-261 242,-242 384,-242 384,-261"/>
<text text-anchor="middle" x="313" y="-249" font-family="Helvetica,sans-Serif" font-size="10.00">QPALM/include/iteration.h</text>
</a>
</g>
</g>
<!-- Node1&#45;&gt;Node2 -->
<g id="edge1" class="edge">
<title>Node1&#45;&gt;Node2</title>
<path fill="none" stroke="#63b8ff" d="M621.42,-437.7C546.05,-430.94 433.48,-417.14 398,-393 348.5,-359.33 323.01,-286.36 315.45,-261.22"/>
<polygon fill="#63b8ff" stroke="#63b8ff" points="621.53,-441.23 631.79,-438.61 622.14,-434.25 621.53,-441.23"/>
</g>
<!-- Node3 -->
<g id="node3" class="node">
<title>Node3</title>
<g id="a_node3"><a xlink:href="qpalm_8h.html" target="_top" xlink:title="QPALM main solver API.">
<polygon fill="white" stroke="#666666" points="958.5,-151 827.5,-151 827.5,-132 958.5,-132 958.5,-151"/>
<text text-anchor="middle" x="893" y="-139" font-family="Helvetica,sans-Serif" font-size="10.00">QPALM/include/qpalm.h</text>
</a>
</g>
</g>
<!-- Node1&#45;&gt;Node3 -->
<g id="edge10" class="edge">
<title>Node1&#45;&gt;Node3</title>
<path fill="none" stroke="#63b8ff" d="M621.82,-437.08C445.01,-421.42 0,-375.78 0,-313 0,-313 0,-313 0,-250.5 0,-184.19 70.74,-203.35 135,-187 265.15,-153.89 668.29,-145.29 827.43,-143.17"/>
<polygon fill="#63b8ff" stroke="#63b8ff" points="621.54,-440.57 631.8,-437.96 622.15,-433.6 621.54,-440.57"/>
</g>
<!-- Node7 -->
<g id="node7" class="node">
<title>Node7</title>
<g id="a_node7"><a xlink:href="qpalm_8c.html" target="_top" xlink:title="QPALM main solver API.">
<polygon fill="white" stroke="#666666" points="1224,-90.5 1114,-90.5 1114,-71.5 1224,-71.5 1224,-90.5"/>
<text text-anchor="middle" x="1169" y="-78.5" font-family="Helvetica,sans-Serif" font-size="10.00">QPALM/src/qpalm.c</text>
</a>
</g>
</g>
<!-- Node1&#45;&gt;Node7 -->
<g id="edge78" class="edge">
<title>Node1&#45;&gt;Node7</title>
<path fill="none" stroke="#63b8ff" d="M764.14,-434.4C922.08,-415.29 1314,-367.74 1642,-327 1885.65,-296.74 2146.36,-449.06 2181,-206 2188.95,-150.2 2132.28,-147.18 2078,-132 1996.04,-109.08 1408.6,-89.34 1224.22,-83.65"/>
<polygon fill="#63b8ff" stroke="#63b8ff" points="763.58,-430.94 754.07,-435.62 764.42,-437.89 763.58,-430.94"/>
</g>
<!-- Node9 -->
<g id="node9" class="node">
<title>Node9</title>
<g id="a_node9"><a xlink:href="termination_8c.html" target="_top" xlink:title="Routines to check the termination and infeasibility criteria.">
<polygon fill="white" stroke="#666666" points="309,-206 173,-206 173,-187 309,-187 309,-206"/>
<text text-anchor="middle" x="241" y="-194" font-family="Helvetica,sans-Serif" font-size="10.00">QPALM/src/termination.c</text>
</a>
</g>
</g>
<!-- Node1&#45;&gt;Node9 -->
<g id="edge79" class="edge">
<title>Node1&#45;&gt;Node9</title>
<path fill="none" stroke="#63b8ff" d="M621.61,-437.41C538.73,-430.02 407.82,-415.26 364,-393 290.31,-355.57 264.48,-337.42 233,-261 225.38,-242.51 232.43,-218.63 237.29,-206.08"/>
<polygon fill="#63b8ff" stroke="#63b8ff" points="621.45,-440.91 631.72,-438.3 622.06,-433.94 621.45,-440.91"/>
</g>
<!-- Node10 -->
<g id="node10" class="node">
<title>Node10</title>
<g id="a_node10"><a xlink:href="solver__interface_8h.html" target="_top" xlink:title="Interface and wrapper to matrix/factorization (ladel) functions.">
<polygon fill="white" stroke="#666666" points="1499,-327 1377,-327 1377,-297 1499,-297 1499,-327"/>
<text text-anchor="start" x="1385" y="-315" font-family="Helvetica,sans-Serif" font-size="10.00">QPALM/include/solver</text>
<text text-anchor="middle" x="1438" y="-304" font-family="Helvetica,sans-Serif" font-size="10.00">_interface.h</text>
</a>
</g>
</g>
<!-- Node1&#45;&gt;Node10 -->
<g id="edge11" class="edge">
<title>Node1&#45;&gt;Node10</title>
<path fill="none" stroke="#63b8ff" d="M764.01,-431.02C886.39,-410.3 1144.89,-366.24 1363,-327 1367.43,-326.2 1372.01,-325.37 1376.62,-324.53"/>
<polygon fill="#63b8ff" stroke="#63b8ff" points="763.29,-427.59 754.02,-432.71 764.46,-434.49 763.29,-427.59"/>
</g>
<!-- Node17 -->
<g id="node17" class="node">
<title>Node17</title>
<g id="a_node17"><a xlink:href="nonconvex_8c.html" target="_top" xlink:title="Routines to deal with nonconvex QPs.">
<polygon fill="white" stroke="#666666" points="725,-206 593,-206 593,-187 725,-187 725,-206"/>
<text text-anchor="middle" x="659" y="-194" font-family="Helvetica,sans-Serif" font-size="10.00">QPALM/src/nonconvex.c</text>
</a>
</g>
</g>
<!-- Node1&#45;&gt;Node17 -->
<g id="edge77" class="edge">
<title>Node1&#45;&gt;Node17</title>
<path fill="none" stroke="#63b8ff" d="M689.65,-418.82C682.28,-365.62 664.94,-240.42 660.21,-206.25"/>
<polygon fill="#63b8ff" stroke="#63b8ff" points="686.19,-419.31 691.03,-428.74 693.12,-418.35 686.19,-419.31"/>
</g>
<!-- Node19 -->
<g id="node19" class="node">
<title>Node19</title>
<g id="a_node19"><a xlink:href="util_8c.html" target="_top" xlink:title="Utility functions.">
<polygon fill="white" stroke="#666666" points="460.5,-206 365.5,-206 365.5,-187 460.5,-187 460.5,-206"/>
<text text-anchor="middle" x="413" y="-194" font-family="Helvetica,sans-Serif" font-size="10.00">QPALM/src/util.c</text>
</a>
</g>
</g>
<!-- Node1&#45;&gt;Node19 -->
<g id="edge80" class="edge">
<title>Node1&#45;&gt;Node19</title>
<path fill="none" stroke="#63b8ff" d="M655.4,-424.05C601.97,-395.41 504.03,-336.36 445,-261 431.3,-243.51 421.04,-219.22 416.16,-206.34"/>
<polygon fill="#63b8ff" stroke="#63b8ff" points="654.05,-427.29 664.52,-428.87 657.32,-421.11 654.05,-427.29"/>
</g>
<!-- Node21 -->
<g id="node21" class="node">
<title>Node21</title>
<g id="a_node21"><a xlink:href="types_8h.html" target="_top" xlink:title="Internal data structures used in QPALM.">
<polygon fill="white" stroke="#666666" points="867,-387.5 739,-387.5 739,-368.5 867,-368.5 867,-387.5"/>
<text text-anchor="middle" x="803" y="-375.5" font-family="Helvetica,sans-Serif" font-size="10.00">QPALM/include/types.h</text>
</a>
</g>
</g>
<!-- Node1&#45;&gt;Node21 -->
<g id="edge33" class="edge">
<title>Node1&#45;&gt;Node21</title>
<path fill="none" stroke="#63b8ff" d="M725.98,-423.81C746.74,-411.73 772.52,-396.73 788.36,-387.52"/>
<polygon fill="#63b8ff" stroke="#63b8ff" points="724.02,-420.9 717.14,-428.95 727.54,-426.95 724.02,-420.9"/>
</g>
<!-- Node29 -->
<g id="node29" class="node">
<title>Node29</title>
<g id="a_node29"><a xlink:href="sparse_8hpp.html" target="_top" xlink:title=" ">
<polygon fill="white" stroke="#666666" points="2363,-393 2241,-393 2241,-363 2363,-363 2363,-393"/>
<text text-anchor="start" x="2249" y="-381" font-family="Helvetica,sans-Serif" font-size="10.00">QPALM/interfaces/cxx</text>
<text text-anchor="middle" x="2302" y="-370" font-family="Helvetica,sans-Serif" font-size="10.00">/include/sparse.hpp</text>
</a>
</g>
</g>
<!-- Node1&#45;&gt;Node29 -->
<g id="edge73" class="edge">
<title>Node1&#45;&gt;Node29</title>
<path fill="none" stroke="#63b8ff" d="M764.52,-442.11C1027.14,-438.63 1937.99,-424.5 2227,-393 2231.48,-392.51 2236.09,-391.91 2240.72,-391.22"/>
<polygon fill="#63b8ff" stroke="#63b8ff" points="764.3,-438.61 754.34,-442.25 764.39,-445.61 764.3,-438.61"/>
</g>
<!-- Node31 -->
<g id="node31" class="node">
<title>Node31</title>
<g id="a_node31"><a xlink:href="global__opts_8c.html" target="_top" xlink:title=" ">
<polygon fill="white" stroke="#666666" points="2516.5,-387.5 2381.5,-387.5 2381.5,-368.5 2516.5,-368.5 2516.5,-387.5"/>
<text text-anchor="middle" x="2449" y="-375.5" font-family="Helvetica,sans-Serif" font-size="10.00">QPALM/src/global_opts.c</text>
</a>
</g>
</g>
<!-- Node1&#45;&gt;Node31 -->
<g id="edge76" class="edge">
<title>Node1&#45;&gt;Node31</title>
<path fill="none" stroke="#63b8ff" d="M764.64,-442.3C1043.01,-439.36 2053.09,-426.55 2372,-393 2383.89,-391.75 2396.71,-389.7 2408.4,-387.56"/>
<polygon fill="#63b8ff" stroke="#63b8ff" points="764.23,-438.8 754.27,-442.41 764.3,-445.8 764.23,-438.8"/>
</g>
<!-- Node2&#45;&gt;Node3 -->
<g id="edge2" class="edge">
<title>Node2&#45;&gt;Node3</title>
<path fill="none" stroke="#63b8ff" d="M320.27,-232.37C327.29,-217.44 339.45,-197.14 357,-187 396.85,-163.98 693.14,-150.03 827.31,-144.83"/>
<polygon fill="#63b8ff" stroke="#63b8ff" points="317.01,-231.09 316.22,-241.65 323.42,-233.88 317.01,-231.09"/>
</g>
<!-- Node2&#45;&gt;Node7 -->
<g id="edge8" class="edge">
<title>Node2&#45;&gt;Node7</title>
<path fill="none" stroke="#63b8ff" d="M231.67,-241.11C184.1,-232.38 138.05,-216.18 164,-187 179.98,-169.04 905.75,-104.83 1113.8,-86.76"/>
<polygon fill="#63b8ff" stroke="#63b8ff" points="231.37,-244.61 241.82,-242.86 232.56,-237.71 231.37,-244.61"/>
</g>
<!-- Node8 -->
<g id="node8" class="node">
<title>Node8</title>
<g id="a_node8"><a xlink:href="iteration_8c.html" target="_top" xlink:title="QPALM main solver routines.">
<polygon fill="white" stroke="#666666" points="977,-206 857,-206 857,-187 977,-187 977,-206"/>
<text text-anchor="middle" x="917" y="-194" font-family="Helvetica,sans-Serif" font-size="10.00">QPALM/src/iteration.c</text>
</a>
</g>
</g>
<!-- Node2&#45;&gt;Node8 -->
<g id="edge7" class="edge">
<title>Node2&#45;&gt;Node8</title>
<path fill="none" stroke="#63b8ff" d="M394.16,-243.38C517.02,-232.6 747.41,-212.38 856.62,-202.8"/>
<polygon fill="#63b8ff" stroke="#63b8ff" points="393.72,-239.9 384.06,-244.26 394.33,-246.88 393.72,-239.9"/>
</g>
<!-- Node2&#45;&gt;Node9 -->
<g id="edge9" class="edge">
<title>Node2&#45;&gt;Node9</title>
<path fill="none" stroke="#63b8ff" d="M293.13,-235.88C280.18,-226.34 263.7,-214.21 252.78,-206.17"/>
<polygon fill="#63b8ff" stroke="#63b8ff" points="291.3,-238.88 301.43,-241.98 295.45,-233.24 291.3,-238.88"/>
</g>
<!-- Node4 -->
<g id="node4" class="node">
<title>Node4</title>
<g id="a_node4"><a xlink:href="qpalm_8cpp.html" target="_top" xlink:title=" ">
<polygon fill="white" stroke="#666666" points="1907,-96 1785,-96 1785,-66 1907,-66 1907,-96"/>
<text text-anchor="start" x="1793" y="-84" font-family="Helvetica,sans-Serif" font-size="10.00">QPALM/interfaces/cxx</text>
<text text-anchor="middle" x="1846" y="-73" font-family="Helvetica,sans-Serif" font-size="10.00">/src/qpalm.cpp</text>
</a>
</g>
</g>
<!-- Node3&#45;&gt;Node4 -->
<g id="edge3" class="edge">
<title>Node3&#45;&gt;Node4</title>
<path fill="none" stroke="#63b8ff" d="M968.59,-135.86C1151.88,-124.61 1617.17,-96.05 1784.71,-85.76"/>
<polygon fill="#63b8ff" stroke="#63b8ff" points="968.27,-132.37 958.5,-136.48 968.7,-139.36 968.27,-132.37"/>
</g>
<!-- Node5 -->
<g id="node5" class="node">
<title>Node5</title>
<g id="a_node5"><a xlink:href="qpalm__fortran_8h.html" target="_top" xlink:title=" ">
<polygon fill="white" stroke="#666666" points="962,-96 824,-96 824,-66 962,-66 962,-96"/>
<text text-anchor="start" x="832" y="-84" font-family="Helvetica,sans-Serif" font-size="10.00">QPALM/interfaces/fortran</text>
<text text-anchor="middle" x="893" y="-73" font-family="Helvetica,sans-Serif" font-size="10.00">/qpalm_fortran.h</text>
</a>
</g>
</g>
<!-- Node3&#45;&gt;Node5 -->
<g id="edge4" class="edge">
<title>Node3&#45;&gt;Node5</title>
<path fill="none" stroke="#63b8ff" d="M893,-121.65C893,-113.36 893,-103.78 893,-96.11"/>
<polygon fill="#63b8ff" stroke="#63b8ff" points="889.5,-121.87 893,-131.87 896.5,-121.87 889.5,-121.87"/>
</g>
<!-- Node3&#45;&gt;Node7 -->
<g id="edge6" class="edge">
<title>Node3&#45;&gt;Node7</title>
<path fill="none" stroke="#63b8ff" d="M943.05,-129.89C996.34,-118.6 1079.64,-100.94 1128.82,-90.52"/>
<polygon fill="#63b8ff" stroke="#63b8ff" points="942.19,-126.5 933.13,-131.99 943.64,-133.34 942.19,-126.5"/>
</g>
<!-- Node6 -->
<g id="node6" class="node">
<title>Node6</title>
<g id="a_node6"><a xlink:href="qpalm__fortran_8c.html" target="_top" xlink:title=" ">
<polygon fill="white" stroke="#666666" points="962,-30 824,-30 824,0 962,0 962,-30"/>
<text text-anchor="start" x="832" y="-18" font-family="Helvetica,sans-Serif" font-size="10.00">QPALM/interfaces/fortran</text>
<text text-anchor="middle" x="893" y="-7" font-family="Helvetica,sans-Serif" font-size="10.00">/qpalm_fortran.c</text>
</a>
</g>
</g>
<!-- Node5&#45;&gt;Node6 -->
<g id="edge5" class="edge">
<title>Node5&#45;&gt;Node6</title>
<path fill="none" stroke="#63b8ff" d="M893,-55.54C893,-46.96 893,-37.61 893,-30.16"/>
<polygon fill="#63b8ff" stroke="#63b8ff" points="889.5,-55.8 893,-65.8 896.5,-55.8 889.5,-55.8"/>
</g>
<!-- Node10&#45;&gt;Node3 -->
<g id="edge29" class="edge">
<title>Node10&#45;&gt;Node3</title>
<path fill="none" stroke="#63b8ff" d="M1366.63,-307.72C1248.21,-301.64 1016.45,-286.82 939,-261 916.58,-253.53 859.61,-226.58 848,-206 836.32,-185.29 861.97,-163.04 879.14,-151.16"/>
<polygon fill="#63b8ff" stroke="#63b8ff" points="1366.53,-311.22 1376.69,-308.23 1366.88,-304.23 1366.53,-311.22"/>
</g>
<!-- Node10&#45;&gt;Node7 -->
<g id="edge31" class="edge">
<title>Node10&#45;&gt;Node7</title>
<path fill="none" stroke="#63b8ff" d="M1509.05,-310.23C1677.74,-307.81 2092.01,-298.1 2142,-261 2169.45,-240.62 2182.78,-214.89 2163,-187 2120.23,-126.69 2078.49,-146.57 2006,-132 1855.61,-101.78 1385.58,-87.43 1224.11,-83.3"/>
<polygon fill="#63b8ff" stroke="#63b8ff" points="1508.98,-306.73 1499.03,-310.37 1509.07,-313.73 1508.98,-306.73"/>
</g>
<!-- Node10&#45;&gt;Node8 -->
<g id="edge30" class="edge">
<title>Node10&#45;&gt;Node8</title>
<path fill="none" stroke="#63b8ff" d="M1366.49,-310.31C1251.57,-308.07 1031.9,-298.81 965,-261 942.62,-248.35 927.42,-220.56 920.78,-206.31"/>
<polygon fill="#63b8ff" stroke="#63b8ff" points="1366.54,-313.81 1376.6,-310.49 1366.66,-306.81 1366.54,-313.81"/>
</g>
<!-- Node11 -->
<g id="node11" class="node">
<title>Node11</title>
<g id="a_node11"><a xlink:href="lin__alg_8h.html" target="_top" xlink:title="Linear algebra with vectors.">
<polygon fill="white" stroke="#666666" points="1420.5,-261 1287.5,-261 1287.5,-242 1420.5,-242 1420.5,-261"/>
<text text-anchor="middle" x="1354" y="-249" font-family="Helvetica,sans-Serif" font-size="10.00">QPALM/include/lin_alg.h</text>
</a>
</g>
</g>
<!-- Node10&#45;&gt;Node11 -->
<g id="edge12" class="edge">
<title>Node10&#45;&gt;Node11</title>
<path fill="none" stroke="#63b8ff" d="M1409.43,-291.1C1394.86,-280.95 1377.88,-269.13 1366.59,-261.27"/>
<polygon fill="#63b8ff" stroke="#63b8ff" points="1407.46,-294 1417.67,-296.84 1411.46,-288.25 1407.46,-294"/>
</g>
<!-- Node18 -->
<g id="node18" class="node">
<title>Node18</title>
<g id="a_node18"><a xlink:href="solver__interface_8c.html" target="_top" xlink:title="Interface and wrapper to matrix/factorization (ladel) functions.">
<polygon fill="white" stroke="#666666" points="1974,-206 1816,-206 1816,-187 1974,-187 1974,-206"/>
<text text-anchor="middle" x="1895" y="-194" font-family="Helvetica,sans-Serif" font-size="10.00">QPALM/src/solver_interface.c</text>
</a>
</g>
</g>
<!-- Node10&#45;&gt;Node18 -->
<g id="edge32" class="edge">
<title>Node10&#45;&gt;Node18</title>
<path fill="none" stroke="#63b8ff" d="M1504.36,-294.52C1602.99,-270.02 1784.77,-224.88 1860.49,-206.07"/>
<polygon fill="#63b8ff" stroke="#63b8ff" points="1503.36,-291.16 1494.5,-296.97 1505.04,-297.96 1503.36,-291.16"/>
</g>
<!-- Node11&#45;&gt;Node3 -->
<g id="edge13" class="edge">
<title>Node11&#45;&gt;Node3</title>
<path fill="none" stroke="#63b8ff" d="M1379.8,-236.89C1401.12,-223.94 1425.57,-203.96 1410,-187 1380.06,-154.37 1091.12,-145.61 958.7,-143.31"/>
<polygon fill="#63b8ff" stroke="#63b8ff" points="1377.89,-233.95 1370.98,-241.98 1381.39,-240.01 1377.89,-233.95"/>
</g>
<!-- Node11&#45;&gt;Node7 -->
<g id="edge23" class="edge">
<title>Node11&#45;&gt;Node7</title>
<path fill="none" stroke="#63b8ff" d="M1431.13,-247.2C1539.6,-241.74 1726.37,-229.1 1747,-206 1757.78,-193.93 1770.79,-159.66 1744,-132 1708.28,-95.11 1361.05,-85.24 1224.12,-82.77"/>
<polygon fill="#63b8ff" stroke="#63b8ff" points="1430.7,-243.71 1420.88,-247.7 1431.04,-250.7 1430.7,-243.71"/>
</g>
<!-- Node11&#45;&gt;Node8 -->
<g id="edge18" class="edge">
<title>Node11&#45;&gt;Node8</title>
<path fill="none" stroke="#63b8ff" d="M1276.98,-241.16C1191.46,-230.79 1055.2,-214.26 977.16,-204.8"/>
<polygon fill="#63b8ff" stroke="#63b8ff" points="1276.8,-244.66 1287.15,-242.39 1277.65,-237.71 1276.8,-244.66"/>
</g>
<!-- Node11&#45;&gt;Node9 -->
<g id="edge26" class="edge">
<title>Node11&#45;&gt;Node9</title>
<path fill="none" stroke="#63b8ff" d="M1277.34,-241.93C868.4,-211.18 763.15,-228.8 357,-206 341.48,-205.13 324.8,-204.01 309.06,-202.88"/>
<polygon fill="#63b8ff" stroke="#63b8ff" points="1277.13,-245.42 1287.37,-242.69 1277.66,-238.44 1277.13,-245.42"/>
</g>
<!-- Node12 -->
<g id="node12" class="node">
<title>Node12</title>
<g id="a_node12"><a xlink:href="scaling_8h.html" target="_top" xlink:title="Problem data scaling during setup.">
<polygon fill="white" stroke="#666666" points="1721.5,-206 1586.5,-206 1586.5,-187 1721.5,-187 1721.5,-206"/>
<text text-anchor="middle" x="1654" y="-194" font-family="Helvetica,sans-Serif" font-size="10.00">QPALM/include/scaling.h</text>
</a>
</g>
</g>
<!-- Node11&#45;&gt;Node12 -->
<g id="edge14" class="edge">
<title>Node11&#45;&gt;Node12</title>
<path fill="none" stroke="#63b8ff" d="M1412.36,-240.19C1468.61,-230.25 1552.72,-215.39 1605.42,-206.08"/>
<polygon fill="#63b8ff" stroke="#63b8ff" points="1411.44,-236.8 1402.2,-241.98 1412.66,-243.69 1411.44,-236.8"/>
</g>
<!-- Node13 -->
<g id="node13" class="node">
<title>Node13</title>
<g id="a_node13"><a xlink:href="scaling_8c.html" target="_top" xlink:title="Problem data scaling during setup.">
<polygon fill="white" stroke="#666666" points="1734.5,-151 1621.5,-151 1621.5,-132 1734.5,-132 1734.5,-151"/>
<text text-anchor="middle" x="1678" y="-139" font-family="Helvetica,sans-Serif" font-size="10.00">QPALM/src/scaling.c</text>
</a>
</g>
</g>
<!-- Node11&#45;&gt;Node13 -->
<g id="edge24" class="edge">
<title>Node11&#45;&gt;Node13</title>
<path fill="none" stroke="#63b8ff" d="M1430.84,-246.81C1535.3,-240.99 1711.43,-228.02 1731,-206 1748.08,-186.79 1715.36,-163.4 1694.14,-151.06"/>
<polygon fill="#63b8ff" stroke="#63b8ff" points="1430.45,-243.32 1420.65,-247.36 1430.83,-250.31 1430.45,-243.32"/>
</g>
<!-- Node14 -->
<g id="node14" class="node">
<title>Node14</title>
<g id="a_node14"><a xlink:href="lin__alg_8c.html" target="_top" xlink:title="Linear algebra with vectors.">
<polygon fill="white" stroke="#666666" points="1568.5,-206 1457.5,-206 1457.5,-187 1568.5,-187 1568.5,-206"/>
<text text-anchor="middle" x="1513" y="-194" font-family="Helvetica,sans-Serif" font-size="10.00">QPALM/src/lin_alg.c</text>
</a>
</g>
</g>
<!-- Node11&#45;&gt;Node14 -->
<g id="edge19" class="edge">
<title>Node11&#45;&gt;Node14</title>
<path fill="none" stroke="#63b8ff" d="M1389.1,-238.8C1418.78,-228.91 1460.6,-214.97 1487.25,-206.08"/>
<polygon fill="#63b8ff" stroke="#63b8ff" points="1387.93,-235.5 1379.55,-241.98 1390.14,-242.14 1387.93,-235.5"/>
</g>
<!-- Node15 -->
<g id="node15" class="node">
<title>Node15</title>
<g id="a_node15"><a xlink:href="linesearch_8c.html" target="_top" xlink:title="Routines to perform exact or backtracking linesearch.">
<polygon fill="white" stroke="#666666" points="2121.5,-206 1992.5,-206 1992.5,-187 2121.5,-187 2121.5,-206"/>
<text text-anchor="middle" x="2057" y="-194" font-family="Helvetica,sans-Serif" font-size="10.00">QPALM/src/linesearch.c</text>
</a>
</g>
</g>
<!-- Node11&#45;&gt;Node15 -->
<g id="edge20" class="edge">
<title>Node11&#45;&gt;Node15</title>
<path fill="none" stroke="#63b8ff" d="M1430.71,-246.16C1549.27,-239.2 1784.14,-224.45 1983,-206 1986.09,-205.71 1989.25,-205.41 1992.44,-205.08"/>
<polygon fill="#63b8ff" stroke="#63b8ff" points="1430.42,-242.67 1420.64,-246.75 1430.83,-249.66 1430.42,-242.67"/>
</g>
<!-- Node16 -->
<g id="node16" class="node">
<title>Node16</title>
<g id="a_node16"><a xlink:href="newton_8c.html" target="_top" xlink:title="Functions to calculate the semismooth Newton direction.">
<polygon fill="white" stroke="#666666" points="1400.5,-206 1285.5,-206 1285.5,-187 1400.5,-187 1400.5,-206"/>
<text text-anchor="middle" x="1343" y="-194" font-family="Helvetica,sans-Serif" font-size="10.00">QPALM/src/newton.c</text>
</a>
</g>
</g>
<!-- Node11&#45;&gt;Node16 -->
<g id="edge21" class="edge">
<title>Node11&#45;&gt;Node16</title>
<path fill="none" stroke="#63b8ff" d="M1350.15,-231.95C1348.32,-223.15 1346.23,-213.06 1344.78,-206.09"/>
<polygon fill="#63b8ff" stroke="#63b8ff" points="1346.72,-232.67 1352.18,-241.75 1353.58,-231.25 1346.72,-232.67"/>
</g>
<!-- Node11&#45;&gt;Node17 -->
<g id="edge22" class="edge">
<title>Node11&#45;&gt;Node17</title>
<path fill="none" stroke="#63b8ff" d="M1277.19,-241.87C1069.85,-222.87 836.75,-208.04 725.14,-201.35"/>
<polygon fill="#63b8ff" stroke="#63b8ff" points="1277.08,-245.37 1287.36,-242.8 1277.72,-238.4 1277.08,-245.37"/>
</g>
<!-- Node11&#45;&gt;Node18 -->
<g id="edge25" class="edge">
<title>Node11&#45;&gt;Node18</title>
<path fill="none" stroke="#63b8ff" d="M1430.85,-242.97C1533.02,-232.96 1712.64,-215.37 1815.92,-205.25"/>
<polygon fill="#63b8ff" stroke="#63b8ff" points="1430.22,-239.52 1420.61,-243.97 1430.9,-246.48 1430.22,-239.52"/>
</g>
<!-- Node11&#45;&gt;Node19 -->
<g id="edge27" class="edge">
<title>Node11&#45;&gt;Node19</title>
<path fill="none" stroke="#63b8ff" d="M1277.17,-242.01C1183.67,-235.92 628.07,-208.19 460.67,-199.87"/>
<polygon fill="#63b8ff" stroke="#63b8ff" points="1277.14,-245.51 1287.36,-242.73 1277.64,-238.53 1277.14,-245.51"/>
</g>
<!-- Node20 -->
<g id="node20" class="node">
<title>Node20</title>
<g id="a_node20"><a xlink:href="validate_8c.html" target="_top" xlink:title="Validation of the user provided settings and data.">
<polygon fill="white" stroke="#666666" points="1228.5,-206 1109.5,-206 1109.5,-187 1228.5,-187 1228.5,-206"/>
<text text-anchor="middle" x="1169" y="-194" font-family="Helvetica,sans-Serif" font-size="10.00">QPALM/src/validate.c</text>
</a>
</g>
</g>
<!-- Node11&#45;&gt;Node20 -->
<g id="edge28" class="edge">
<title>Node11&#45;&gt;Node20</title>
<path fill="none" stroke="#63b8ff" d="M1314.5,-239.18C1279.9,-229.27 1230.37,-215.08 1198.96,-206.08"/>
<polygon fill="#63b8ff" stroke="#63b8ff" points="1313.7,-242.6 1324.28,-241.98 1315.63,-235.87 1313.7,-242.6"/>
</g>
<!-- Node12&#45;&gt;Node3 -->
<g id="edge15" class="edge">
<title>Node12&#45;&gt;Node3</title>
<path fill="none" stroke="#63b8ff" d="M1576.45,-186.9C1343.34,-166.52 1079.11,-151.93 958.72,-145.75"/>
<polygon fill="#63b8ff" stroke="#63b8ff" points="1576.2,-190.39 1586.47,-187.78 1576.82,-183.42 1576.2,-190.39"/>
</g>
<!-- Node12&#45;&gt;Node7 -->
<g id="edge16" class="edge">
<title>Node12&#45;&gt;Node7</title>
<path fill="none" stroke="#63b8ff" d="M1607.54,-184.63C1511.42,-162.13 1292.47,-110.89 1205.55,-90.55"/>
<polygon fill="#63b8ff" stroke="#63b8ff" points="1607.01,-188.1 1617.55,-186.97 1608.61,-181.28 1607.01,-188.1"/>
</g>
<!-- Node12&#45;&gt;Node13 -->
<g id="edge17" class="edge">
<title>Node12&#45;&gt;Node13</title>
<path fill="none" stroke="#63b8ff" d="M1662.14,-177.53C1666.18,-168.6 1670.88,-158.22 1674.11,-151.09"/>
<polygon fill="#63b8ff" stroke="#63b8ff" points="1658.9,-176.19 1657.96,-186.75 1665.28,-179.08 1658.9,-176.19"/>
</g>
<!-- Node21&#45;&gt;Node2 -->
<g id="edge34" class="edge">
<title>Node21&#45;&gt;Node2</title>
<path fill="none" stroke="#63b8ff" d="M728.44,-375.68C652.78,-372.33 533.27,-361.41 436,-327 390.81,-311.01 344.22,-277.1 323.75,-261.14"/>
<polygon fill="#63b8ff" stroke="#63b8ff" points="728.68,-379.2 738.82,-376.11 728.97,-372.2 728.68,-379.2"/>
</g>
<!-- Node21&#45;&gt;Node3 -->
<g id="edge51" class="edge">
<title>Node21&#45;&gt;Node3</title>
<path fill="none" stroke="#63b8ff" d="M778.58,-363.3C714.69,-326.64 549.83,-226.44 584,-187 599.7,-168.87 741.41,-154.54 827.37,-147.42"/>
<polygon fill="#63b8ff" stroke="#63b8ff" points="777.16,-366.52 787.58,-368.42 780.62,-360.43 777.16,-366.52"/>
</g>
<!-- Node21&#45;&gt;Node10 -->
<g id="edge53" class="edge">
<title>Node21&#45;&gt;Node10</title>
<path fill="none" stroke="#63b8ff" d="M877.14,-372.64C984.59,-365.82 1189.7,-350.86 1363,-327 1367.46,-326.39 1372.06,-325.69 1376.68,-324.94"/>
<polygon fill="#63b8ff" stroke="#63b8ff" points="876.81,-369.16 867.05,-373.28 877.25,-376.14 876.81,-369.16"/>
</g>
<!-- Node21&#45;&gt;Node11 -->
<g id="edge35" class="edge">
<title>Node21&#45;&gt;Node11</title>
<path fill="none" stroke="#63b8ff" d="M850.82,-366.2C958.6,-341.84 1218.71,-283.07 1316.23,-261.03"/>
<polygon fill="#63b8ff" stroke="#63b8ff" points="849.86,-362.82 840.87,-368.44 851.4,-369.65 849.86,-362.82"/>
</g>
<!-- Node21&#45;&gt;Node12 -->
<g id="edge52" class="edge">
<title>Node21&#45;&gt;Node12</title>
<path fill="none" stroke="#63b8ff" d="M870.6,-366.94C986.07,-349.22 1228.39,-309.66 1430,-261 1501.51,-243.74 1584.56,-218.93 1626.6,-206.02"/>
<polygon fill="#63b8ff" stroke="#63b8ff" points="869.85,-363.52 860.49,-368.49 870.91,-370.44 869.85,-363.52"/>
</g>
<!-- Node21&#45;&gt;Node17 -->
<g id="edge71" class="edge">
<title>Node21&#45;&gt;Node17</title>
<path fill="none" stroke="#63b8ff" d="M789.73,-360.46C759.89,-323.26 688.35,-234.08 665.88,-206.07"/>
<polygon fill="#63b8ff" stroke="#63b8ff" points="787.07,-362.73 796.05,-368.34 792.53,-358.35 787.07,-362.73"/>
</g>
<!-- Node21&#45;&gt;Node19 -->
<g id="edge72" class="edge">
<title>Node21&#45;&gt;Node19</title>
<path fill="none" stroke="#63b8ff" d="M732.62,-366.64C660.08,-352.96 546.88,-322.95 469,-261 448.06,-244.35 428.59,-219.28 419.08,-206.18"/>
<polygon fill="#63b8ff" stroke="#63b8ff" points="732.11,-370.1 742.58,-368.46 733.37,-363.22 732.11,-370.1"/>
</g>
<!-- Node22 -->
<g id="node22" class="node">
<title>Node22</title>
<g id="a_node22"><a xlink:href="linesearch_8h.html" target="_top" xlink:title="Routines to perform exact linesearch.">
<polygon fill="white" stroke="#666666" points="2132.5,-261 1981.5,-261 1981.5,-242 2132.5,-242 2132.5,-261"/>
<text text-anchor="middle" x="2057" y="-249" font-family="Helvetica,sans-Serif" font-size="10.00">QPALM/include/linesearch.h</text>
</a>
</g>
</g>
<!-- Node21&#45;&gt;Node22 -->
<g id="edge36" class="edge">
<title>Node21&#45;&gt;Node22</title>
<path fill="none" stroke="#63b8ff" d="M877.41,-373.29C1006.14,-366.53 1278.65,-350.67 1508,-327 1690.03,-308.21 1904.71,-276.2 2002.98,-261"/>
<polygon fill="#63b8ff" stroke="#63b8ff" points="877.08,-369.81 867.28,-373.82 877.44,-376.8 877.08,-369.81"/>
</g>
<!-- Node23 -->
<g id="node23" class="node">
<title>Node23</title>
<g id="a_node23"><a xlink:href="newton_8h.html" target="_top" xlink:title="Functions to calculate the semismooth Newton direction.">
<polygon fill="white" stroke="#666666" points="1269.5,-261 1132.5,-261 1132.5,-242 1269.5,-242 1269.5,-261"/>
<text text-anchor="middle" x="1201" y="-249" font-family="Helvetica,sans-Serif" font-size="10.00">QPALM/include/newton.h</text>
</a>
</g>
</g>
<!-- Node21&#45;&gt;Node23 -->
<g id="edge41" class="edge">
<title>Node21&#45;&gt;Node23</title>
<path fill="none" stroke="#63b8ff" d="M839.93,-365.45C919.17,-340.66 1103.99,-282.85 1173.72,-261.03"/>
<polygon fill="#63b8ff" stroke="#63b8ff" points="838.86,-362.12 830.36,-368.44 840.95,-368.8 838.86,-362.12"/>
</g>
<!-- Node24 -->
<g id="node24" class="node">
<title>Node24</title>
<g id="a_node24"><a xlink:href="nonconvex_8h.html" target="_top" xlink:title="Routines to deal with nonconvex QPs.">
<polygon fill="white" stroke="#666666" points="880,-261 726,-261 726,-242 880,-242 880,-261"/>
<text text-anchor="middle" x="803" y="-249" font-family="Helvetica,sans-Serif" font-size="10.00">QPALM/include/nonconvex.h</text>
</a>
</g>
</g>
<!-- Node21&#45;&gt;Node24 -->
<g id="edge46" class="edge">
<title>Node21&#45;&gt;Node24</title>
<path fill="none" stroke="#63b8ff" d="M803,-358.24C803,-330.86 803,-281.08 803,-261.12"/>
<polygon fill="#63b8ff" stroke="#63b8ff" points="799.5,-358.44 803,-368.44 806.5,-358.44 799.5,-358.44"/>
</g>
<!-- Node25 -->
<g id="node25" class="node">
<title>Node25</title>
<g id="a_node25"><a xlink:href="termination_8h.html" target="_top" xlink:title="Routines to check the termination and infeasibility criteria.">
<polygon fill="white" stroke="#666666" points="186,-261 28,-261 28,-242 186,-242 186,-261"/>
<text text-anchor="middle" x="107" y="-249" font-family="Helvetica,sans-Serif" font-size="10.00">QPALM/include/termination.h</text>
</a>
</g>
</g>
<!-- Node21&#45;&gt;Node25 -->
<g id="edge54" class="edge">
<title>Node21&#45;&gt;Node25</title>
<path fill="none" stroke="#63b8ff" d="M728.75,-371.98C642.42,-365.32 495.92,-351.45 372,-327 282.45,-309.33 179.01,-276.56 132.26,-261.05"/>
<polygon fill="#63b8ff" stroke="#63b8ff" points="728.74,-375.49 738.98,-372.76 729.27,-368.51 728.74,-375.49"/>
</g>
<!-- Node26 -->
<g id="node26" class="node">
<title>Node26</title>
<g id="a_node26"><a xlink:href="util_8h.html" target="_top" xlink:title="Utility functions.">
<polygon fill="white" stroke="#666666" points="594,-261 478,-261 478,-242 594,-242 594,-261"/>
<text text-anchor="middle" x="536" y="-249" font-family="Helvetica,sans-Serif" font-size="10.00">QPALM/include/util.h</text>
</a>
</g>
</g>
<!-- Node21&#45;&gt;Node26 -->
<g id="edge58" class="edge">
<title>Node21&#45;&gt;Node26</title>
<path fill="none" stroke="#63b8ff" d="M756.04,-365.84C724.12,-357.34 681.41,-344.19 646,-327 606.78,-307.97 565.52,-276.43 546.6,-261.23"/>
<polygon fill="#63b8ff" stroke="#63b8ff" points="755.45,-369.3 766.01,-368.43 757.21,-362.52 755.45,-369.3"/>
</g>
<!-- Node27 -->
<g id="node27" class="node">
<title>Node27</title>
<g id="a_node27"><a xlink:href="validate_8h.html" target="_top" xlink:title="Validation of the user provided settings and data.">
<polygon fill="white" stroke="#666666" points="1114,-261 974,-261 974,-242 1114,-242 1114,-261"/>
<text text-anchor="middle" x="1044" y="-249" font-family="Helvetica,sans-Serif" font-size="10.00">QPALM/include/validate.h</text>
</a>
</g>
</g>
<!-- Node21&#45;&gt;Node27 -->
<g id="edge65" class="edge">
<title>Node21&#45;&gt;Node27</title>
<path fill="none" stroke="#63b8ff" d="M828.67,-363.74C878.24,-338.13 985.92,-282.5 1027.32,-261.12"/>
<polygon fill="#63b8ff" stroke="#63b8ff" points="826.84,-360.74 819.56,-368.44 830.06,-366.96 826.84,-360.74"/>
</g>
<!-- Node28 -->
<g id="node28" class="node">
<title>Node28</title>
<g id="a_node28"><a xlink:href="qpalm_8hpp.html" target="_top" xlink:title=" ">
<polygon fill="white" stroke="#666666" points="2363,-327 2241,-327 2241,-297 2363,-297 2363,-327"/>
<text text-anchor="start" x="2249" y="-315" font-family="Helvetica,sans-Serif" font-size="10.00">QPALM/interfaces/cxx</text>
<text text-anchor="middle" x="2302" y="-304" font-family="Helvetica,sans-Serif" font-size="10.00">/include/qpalm.hpp</text>
</a>
</g>
</g>
<!-- Node21&#45;&gt;Node28 -->
<g id="edge69" class="edge">
<title>Node21&#45;&gt;Node28</title>
<path fill="none" stroke="#63b8ff" d="M877.51,-373.82C1137.62,-362.71 2002.43,-325.79 2240.74,-315.62"/>
<polygon fill="#63b8ff" stroke="#63b8ff" points="877.25,-370.33 867.41,-374.25 877.55,-377.32 877.25,-370.33"/>
</g>
<!-- Node22&#45;&gt;Node3 -->
<g id="edge37" class="edge">
<title>Node22&#45;&gt;Node3</title>
<path fill="none" stroke="#63b8ff" d="M2090.16,-237.83C2117.63,-225.56 2149.4,-206.07 2131,-187 2110.48,-165.73 1211.95,-148.17 958.77,-143.64"/>
<polygon fill="#63b8ff" stroke="#63b8ff" points="2088.54,-234.72 2080.71,-241.86 2091.29,-241.15 2088.54,-234.72"/>
</g>
<!-- Node22&#45;&gt;Node7 -->
<g id="edge40" class="edge">
<title>Node22&#45;&gt;Node7</title>
<path fill="none" stroke="#63b8ff" d="M2098.19,-238.71C2130.2,-227.51 2166.18,-209.13 2147,-187 2086.15,-116.79 1421.99,-90.07 1224.24,-83.64"/>
<polygon fill="#63b8ff" stroke="#63b8ff" points="2096.84,-235.47 2088.45,-241.94 2099.05,-242.11 2096.84,-235.47"/>
</g>
<!-- Node22&#45;&gt;Node8 -->
<g id="edge38" class="edge">
<title>Node22&#45;&gt;Node8</title>
<path fill="none" stroke="#63b8ff" d="M1971.07,-246.51C1750.09,-236.23 1166.14,-209.08 977.03,-200.29"/>
<polygon fill="#63b8ff" stroke="#63b8ff" points="1971.17,-250.01 1981.32,-246.98 1971.49,-243.02 1971.17,-250.01"/>
</g>
<!-- Node22&#45;&gt;Node15 -->
<g id="edge39" class="edge">
<title>Node22&#45;&gt;Node15</title>
<path fill="none" stroke="#63b8ff" d="M2057,-231.66C2057,-222.93 2057,-212.99 2057,-206.09"/>
<polygon fill="#63b8ff" stroke="#63b8ff" points="2053.5,-231.75 2057,-241.75 2060.5,-231.75 2053.5,-231.75"/>
</g>
<!-- Node23&#45;&gt;Node3 -->
<g id="edge42" class="edge">
<title>Node23&#45;&gt;Node3</title>
<path fill="none" stroke="#63b8ff" d="M1166.76,-238.5C1104.01,-216.49 972.02,-170.21 917.43,-151.07"/>
<polygon fill="#63b8ff" stroke="#63b8ff" points="1165.98,-241.93 1176.57,-241.94 1168.3,-235.32 1165.98,-241.93"/>
</g>
<!-- Node23&#45;&gt;Node7 -->
<g id="edge45" class="edge">
<title>Node23&#45;&gt;Node7</title>
<path fill="none" stroke="#63b8ff" d="M1218.64,-234.86C1226.14,-227.04 1234.06,-216.91 1238,-206 1240.87,-198.06 1240.42,-195.09 1238,-187 1225.93,-146.67 1192.84,-107.47 1177.29,-90.62"/>
<polygon fill="#63b8ff" stroke="#63b8ff" points="1216.16,-232.39 1211.44,-241.87 1221.05,-237.4 1216.16,-232.39"/>
</g>
<!-- Node23&#45;&gt;Node8 -->
<g id="edge43" class="edge">
<title>Node23&#45;&gt;Node8</title>
<path fill="none" stroke="#63b8ff" d="M1145.42,-240.13C1092.17,-230.19 1012.77,-215.37 962.99,-206.08"/>
<polygon fill="#63b8ff" stroke="#63b8ff" points="1144.9,-243.59 1155.37,-241.98 1146.18,-236.71 1144.9,-243.59"/>
</g>
<!-- Node23&#45;&gt;Node16 -->
<g id="edge44" class="edge">
<title>Node23&#45;&gt;Node16</title>
<path fill="none" stroke="#63b8ff" d="M1233.36,-238.42C1259.71,-228.59 1296.26,-214.95 1319.77,-206.17"/>
<polygon fill="#63b8ff" stroke="#63b8ff" points="1231.96,-235.21 1223.81,-241.98 1234.41,-241.77 1231.96,-235.21"/>
</g>
<!-- Node24&#45;&gt;Node3 -->
<g id="edge47" class="edge">
<title>Node24&#45;&gt;Node3</title>
<path fill="none" stroke="#63b8ff" d="M802.51,-231.71C803.06,-218.14 805.74,-199.99 815,-187 827.4,-169.61 848.87,-158.09 866.15,-151.13"/>
<polygon fill="#63b8ff" stroke="#63b8ff" points="799.01,-231.8 802.46,-241.82 806.01,-231.84 799.01,-231.8"/>
</g>
<!-- Node24&#45;&gt;Node7 -->
<g id="edge50" class="edge">
<title>Node24&#45;&gt;Node7</title>
<path fill="none" stroke="#63b8ff" d="M798.9,-231.89C794.22,-205.12 790.54,-156.29 819,-132 841.03,-113.2 1020.84,-94.94 1113.79,-86.65"/>
<polygon fill="#63b8ff" stroke="#63b8ff" points="795.5,-232.75 800.87,-241.88 802.37,-231.39 795.5,-232.75"/>
</g>
<!-- Node24&#45;&gt;Node8 -->
<g id="edge48" class="edge">
<title>Node24&#45;&gt;Node8</title>
<path fill="none" stroke="#63b8ff" d="M830.39,-237.77C851.42,-227.99 879.89,-214.75 898.35,-206.17"/>
<polygon fill="#63b8ff" stroke="#63b8ff" points="828.91,-234.6 821.32,-241.98 831.86,-240.94 828.91,-234.6"/>
</g>
<!-- Node24&#45;&gt;Node17 -->
<g id="edge49" class="edge">
<title>Node24&#45;&gt;Node17</title>
<path fill="none" stroke="#63b8ff" d="M770.18,-238.42C743.47,-228.59 706.4,-214.95 682.56,-206.17"/>
<polygon fill="#63b8ff" stroke="#63b8ff" points="769.27,-241.82 779.86,-241.98 771.69,-235.25 769.27,-241.82"/>
</g>
<!-- Node25&#45;&gt;Node3 -->
<g id="edge55" class="edge">
<title>Node25&#45;&gt;Node3</title>
<path fill="none" stroke="#63b8ff" d="M117.15,-233.03C127,-217.9 143.45,-196.93 164,-187 222.83,-158.57 659.54,-147.07 827.47,-143.67"/>
<polygon fill="#63b8ff" stroke="#63b8ff" points="114.17,-231.19 111.89,-241.54 120.12,-234.87 114.17,-231.19"/>
</g>
<!-- Node25&#45;&gt;Node7 -->
<g id="edge56" class="edge">
<title>Node25&#45;&gt;Node7</title>
<path fill="none" stroke="#63b8ff" d="M110.25,-232.08C113.8,-217.58 120.97,-198.04 135,-187 243.59,-101.55 303.86,-148.93 441,-132 675.32,-103.07 735.47,-112.33 971,-96 1019.3,-92.65 1074.22,-88.76 1113.95,-85.93"/>
<polygon fill="#63b8ff" stroke="#63b8ff" points="106.8,-231.46 108.19,-241.96 113.65,-232.89 106.8,-231.46"/>
</g>
<!-- Node25&#45;&gt;Node9 -->
<g id="edge57" class="edge">
<title>Node25&#45;&gt;Node9</title>
<path fill="none" stroke="#63b8ff" d="M137.87,-238.29C162.7,-228.47 196.99,-214.91 219.08,-206.17"/>
<polygon fill="#63b8ff" stroke="#63b8ff" points="136.54,-235.05 128.53,-241.98 139.12,-241.56 136.54,-235.05"/>
</g>
<!-- Node26&#45;&gt;Node3 -->
<g id="edge59" class="edge">
<title>Node26&#45;&gt;Node3</title>
<path fill="none" stroke="#63b8ff" d="M535.13,-231.3C535.6,-216.96 538.79,-198.02 551,-187 590.45,-151.4 739.61,-143.77 827.38,-142.44"/>
<polygon fill="#63b8ff" stroke="#63b8ff" points="531.64,-231.6 535.22,-241.57 538.64,-231.54 531.64,-231.6"/>
</g>
<!-- Node26&#45;&gt;Node7 -->
<g id="edge62" class="edge">
<title>Node26&#45;&gt;Node7</title>
<path fill="none" stroke="#63b8ff" d="M529.92,-232.08C526.57,-218.17 524.89,-199.41 535,-187 571.59,-142.07 966.33,-100.91 1113.82,-87"/>
<polygon fill="#63b8ff" stroke="#63b8ff" points="526.64,-233.35 532.77,-241.99 533.37,-231.41 526.64,-233.35"/>
</g>
<!-- Node26&#45;&gt;Node8 -->
<g id="edge60" class="edge">
<title>Node26&#45;&gt;Node8</title>
<path fill="none" stroke="#63b8ff" d="M604.59,-240.96C676.47,-230.96 788.28,-215.41 856.84,-205.87"/>
<polygon fill="#63b8ff" stroke="#63b8ff" points="603.7,-237.55 594.28,-242.39 604.67,-244.48 603.7,-237.55"/>
</g>
<!-- Node26&#45;&gt;Node9 -->
<g id="edge63" class="edge">
<title>Node26&#45;&gt;Node9</title>
<path fill="none" stroke="#63b8ff" d="M478.61,-240.19C423.3,-230.25 340.59,-215.39 288.77,-206.08"/>
<polygon fill="#63b8ff" stroke="#63b8ff" points="478.14,-243.66 488.6,-241.98 479.38,-236.77 478.14,-243.66"/>
</g>
<!-- Node26&#45;&gt;Node17 -->
<g id="edge61" class="edge">
<title>Node26&#45;&gt;Node17</title>
<path fill="none" stroke="#63b8ff" d="M565.25,-237.9C587.97,-228.11 618.87,-214.79 638.88,-206.17"/>
<polygon fill="#63b8ff" stroke="#63b8ff" points="563.56,-234.81 555.76,-241.98 566.33,-241.24 563.56,-234.81"/>
</g>
<!-- Node26&#45;&gt;Node19 -->
<g id="edge64" class="edge">
<title>Node26&#45;&gt;Node19</title>
<path fill="none" stroke="#63b8ff" d="M506.75,-237.9C484.03,-228.11 453.13,-214.79 433.12,-206.17"/>
<polygon fill="#63b8ff" stroke="#63b8ff" points="505.67,-241.24 516.24,-241.98 508.44,-234.81 505.67,-241.24"/>
</g>
<!-- Node27&#45;&gt;Node3 -->
<g id="edge66" class="edge">
<title>Node27&#45;&gt;Node3</title>
<path fill="none" stroke="#63b8ff" d="M1031.5,-233.52C1020.65,-219.67 1003.9,-200.28 986,-187 964.73,-171.21 936.97,-158.81 917.33,-151.15"/>
<polygon fill="#63b8ff" stroke="#63b8ff" points="1028.89,-235.87 1037.73,-241.71 1034.46,-231.63 1028.89,-235.87"/>
</g>
<!-- Node27&#45;&gt;Node7 -->
<g id="edge67" class="edge">
<title>Node27&#45;&gt;Node7</title>
<path fill="none" stroke="#63b8ff" d="M1056.55,-233.59C1082.79,-198.22 1142.67,-117.5 1162.49,-90.77"/>
<polygon fill="#63b8ff" stroke="#63b8ff" points="1053.52,-231.8 1050.37,-241.91 1059.14,-235.97 1053.52,-231.8"/>
</g>
<!-- Node27&#45;&gt;Node20 -->
<g id="edge68" class="edge">
<title>Node27&#45;&gt;Node20</title>
<path fill="none" stroke="#63b8ff" d="M1073.41,-238.03C1096.53,-228.23 1128.13,-214.83 1148.55,-206.17"/>
<polygon fill="#63b8ff" stroke="#63b8ff" points="1071.92,-234.86 1064.08,-241.98 1074.66,-241.3 1071.92,-234.86"/>
</g>
<!-- Node28&#45;&gt;Node4 -->
<g id="edge70" class="edge">
<title>Node28&#45;&gt;Node4</title>
<path fill="none" stroke="#63b8ff" d="M2306.98,-287.06C2313.45,-248.48 2319.51,-172.77 2278,-132 2252.04,-106.51 2020.27,-91.06 1907.33,-84.98"/>
<polygon fill="#63b8ff" stroke="#63b8ff" points="2303.53,-286.43 2305.18,-296.89 2310.42,-287.69 2303.53,-286.43"/>
</g>
<!-- Node29&#45;&gt;Node28 -->
<g id="edge74" class="edge">
<title>Node29&#45;&gt;Node28</title>
<path fill="none" stroke="#63b8ff" d="M2302,-352.54C2302,-343.96 2302,-334.61 2302,-327.16"/>
<polygon fill="#63b8ff" stroke="#63b8ff" points="2298.5,-352.8 2302,-362.8 2305.5,-352.8 2298.5,-352.8"/>
</g>
<!-- Node30 -->
<g id="node30" class="node">
<title>Node30</title>
<g id="a_node30"><a xlink:href="sparse_8cpp.html" target="_top" xlink:title=" ">
<polygon fill="white" stroke="#666666" points="2503,-327 2381,-327 2381,-297 2503,-297 2503,-327"/>
<text text-anchor="start" x="2389" y="-315" font-family="Helvetica,sans-Serif" font-size="10.00">QPALM/interfaces/cxx</text>
<text text-anchor="middle" x="2442" y="-304" font-family="Helvetica,sans-Serif" font-size="10.00">/src/sparse.cpp</text>
</a>
</g>
</g>
<!-- Node29&#45;&gt;Node30 -->
<g id="edge75" class="edge">
<title>Node29&#45;&gt;Node30</title>
<path fill="none" stroke="#63b8ff" d="M2341.85,-358.78C2363.92,-348.69 2390.94,-336.34 2411.35,-327.01"/>
<polygon fill="#63b8ff" stroke="#63b8ff" points="2340.36,-355.61 2332.72,-362.95 2343.27,-361.98 2340.36,-355.61"/>
</g>
</g>
</svg>
        <g id="navigator" transform="translate(0 0)" fill="#404254">
                <rect fill="#f2f5e9" fill-opacity="0.5" stroke="#606060" stroke-width=".5" x="0" y="0" width="60" height="60"/>
                <use id="zoomplus" xlink:href="#zoomPlus" x="17" y="9" onmousedown="handleZoom(evt,'in')"/>
                <use id="zoomminus" xlink:href="#zoomMin" x="42" y="9" onmousedown="handleZoom(evt,'out')"/>
                <use id="reset" xlink:href="#resetDef" x="30" y="36" onmousedown="handleReset()"/>
                <g id="arrowUp" xlink:href="#dirArrow" transform="translate(30 24)" onmousedown="handlePan(0,-1)">
                  <use xlink:href="#rim" fill="#404040">
                        <set attributeName="fill" to="#808080" begin="arrowUp.mouseover" end="arrowUp.mouseout"/>
                  </use>
                  <path fill="none" stroke="white" stroke-width="1.5" d="M0,-3.0v7 M-2.5,-0.5L0,-3.0L2.5,-0.5"/>
                </g>
                <g id="arrowRight" xlink:href="#dirArrow" transform="rotate(90) translate(36 -43)" onmousedown="handlePan(1,0)">
                  <use xlink:href="#rim" fill="#404040">
                        <set attributeName="fill" to="#808080" begin="arrowRight.mouseover" end="arrowRight.mouseout"/>
                  </use>
                  <path fill="none" stroke="white" stroke-width="1.5" d="M0,-3.0v7 M-2.5,-0.5L0,-3.0L2.5,-0.5"/>
                </g>
                <g id="arrowDown" xlink:href="#dirArrow" transform="rotate(180) translate(-30 -48)" onmousedown="handlePan(0,1)">
                  <use xlink:href="#rim" fill="#404040">
                        <set attributeName="fill" to="#808080" begin="arrowDown.mouseover" end="arrowDown.mouseout"/>
                  </use>
                  <path fill="none" stroke="white" stroke-width="1.5" d="M0,-3.0v7 M-2.5,-0.5L0,-3.0L2.5,-0.5"/>
                </g>
                <g id="arrowLeft" xlink:href="#dirArrow" transform="rotate(270) translate(-36 17)" onmousedown="handlePan(-1,0)">
                  <use xlink:href="#rim" fill="#404040">
                        <set attributeName="fill" to="#808080" begin="arrowLeft.mouseover" end="arrowLeft.mouseout"/>
                  </use>
                  <path fill="none" stroke="white" stroke-width="1.5" d="M0,-3.0v7 M-2.5,-0.5L0,-3.0L2.5,-0.5"/>
                </g>
        </g>
        <svg viewBox="0 0 15 15" width="100%" height="30px" preserveAspectRatio="xMaxYMin meet">
         <g id="arrow_out" transform="scale(0.3 0.3)">
          <a xlink:href="global__opts_8h__dep__incl_org.svg" target="_base">
           <rect id="button" ry="5" rx="5" y="6" x="6" height="38" width="38"
                fill="#f2f5e9" fill-opacity="0.5" stroke="#606060" stroke-width="1.0"/>
           <path id="arrow"
             d="M 11.500037,31.436501 C 11.940474,20.09759 22.043105,11.32322 32.158766,21.979434 L 37.068811,17.246167 C 37.068811,17.246167 37.088388,32 37.088388,32 L 22.160133,31.978069 C 22.160133,31.978069 26.997745,27.140456 26.997745,27.140456 C 18.528582,18.264221 13.291696,25.230495 11.500037,31.436501 z"
             style="fill:#404040;"/>
          </a>
         </g>
        </svg>
</svg>
