<?xml version="1.0" encoding="UTF-8" standalone="no"?>
<!DOCTYPE svg PUBLIC "-//W3C//DTD SVG 1.1//EN"
 "http://www.w3.org/Graphics/SVG/1.1/DTD/svg11.dtd">
<!-- Generated by graphviz version 2.43.0 (0)
 -->
<!-- Title: qpalm_update_Q_A Pages: 1 -->
<svg width="244pt" height="101pt"
 viewBox="0.00 0.00 244.00 101.00" xmlns="http://www.w3.org/2000/svg" xmlns:xlink="http://www.w3.org/1999/xlink">
<g id="graph0" class="graph" transform="scale(1 1) rotate(0) translate(4 97)">
<title>qpalm_update_Q_A</title>
<!-- Node1 -->
<g id="node1" class="node">
<title>Node1</title>
<g id="a_node1"><a xlink:title="Update the matrix entries of Q and A.">
<polygon fill="#999999" stroke="#666666" points="111,-56 0,-56 0,-37 111,-37 111,-56"/>
<text text-anchor="middle" x="55.5" y="-44" font-family="Helvetica,sans-Serif" font-size="10.00">qpalm_update_Q_A</text>
</a>
</g>
</g>
<!-- Node2 -->
<g id="node2" class="node">
<title>Node2</title>
<g id="a_node2"><a xlink:href="lin__alg_8c.html#acf468a60c38fbc58b6de539acb6f0a3b" target="_top" xlink:title="Copy vector a into preallocated vector b.">
<polygon fill="white" stroke="#666666" points="236,-93 147,-93 147,-74 236,-74 236,-93"/>
<text text-anchor="middle" x="191.5" y="-81" font-family="Helvetica,sans-Serif" font-size="10.00">prea_vec_copy</text>
</a>
</g>
</g>
<!-- Node1&#45;&gt;Node2 -->
<g id="edge1" class="edge">
<title>Node1&#45;&gt;Node2</title>
<path fill="none" stroke="#63b8ff" d="M91.01,-56.03C107.76,-60.65 128.08,-66.27 145.98,-71.21"/>
<polygon fill="#63b8ff" stroke="#63b8ff" points="145.07,-74.59 155.64,-73.88 146.94,-67.84 145.07,-74.59"/>
</g>
<!-- Node3 -->
<g id="node3" class="node">
<title>Node3</title>
<g id="a_node3"><a xlink:href="util_8h.html#aae57226ec767e15f27d88e97df093b41" target="_top" xlink:title="Start timer.">
<polygon fill="white" stroke="#666666" points="224,-56 159,-56 159,-37 224,-37 224,-56"/>
<text text-anchor="middle" x="191.5" y="-44" font-family="Helvetica,sans-Serif" font-size="10.00">qpalm_tic</text>
</a>
</g>
</g>
<!-- Node1&#45;&gt;Node3 -->
<g id="edge2" class="edge">
<title>Node1&#45;&gt;Node3</title>
<path fill="none" stroke="#63b8ff" d="M111,-46.5C123.56,-46.5 136.72,-46.5 148.64,-46.5"/>
<polygon fill="#63b8ff" stroke="#63b8ff" points="148.74,-50 158.74,-46.5 148.74,-43 148.74,-50"/>
</g>
<!-- Node4 -->
<g id="node4" class="node">
<title>Node4</title>
<g id="a_node4"><a xlink:href="util_8h.html#a6eecdaf6f3f1c4bf0ab1067a5e7e69da" target="_top" xlink:title="Report time in seconds since last call to qpalm_tic.">
<polygon fill="white" stroke="#666666" points="225.5,-19 157.5,-19 157.5,0 225.5,0 225.5,-19"/>
<text text-anchor="middle" x="191.5" y="-7" font-family="Helvetica,sans-Serif" font-size="10.00">qpalm_toc</text>
</a>
</g>
</g>
<!-- Node1&#45;&gt;Node4 -->
<g id="edge3" class="edge">
<title>Node1&#45;&gt;Node4</title>
<path fill="none" stroke="#63b8ff" d="M91.01,-36.97C108.28,-32.2 129.36,-26.38 147.66,-21.33"/>
<polygon fill="#63b8ff" stroke="#63b8ff" points="148.79,-24.65 157.49,-18.61 146.92,-17.9 148.79,-24.65"/>
</g>
</g>
</svg>
