<?xml version="1.0" encoding="UTF-8" standalone="no"?>
<!DOCTYPE svg PUBLIC "-//W3C//DTD SVG 1.1//EN"
 "http://www.w3.org/Graphics/SVG/1.1/DTD/svg11.dtd">
<!-- Generated by graphviz version 2.43.0 (0)
 -->
<!-- Title: update_or_boost_gamma Pages: 1 -->
<svg width="441pt" height="226pt"
 viewBox="0.00 0.00 441.00 226.00" xmlns="http://www.w3.org/2000/svg" xmlns:xlink="http://www.w3.org/1999/xlink">
<g id="graph0" class="graph" transform="scale(1 1) rotate(0) translate(4 222)">
<title>update_or_boost_gamma</title>
<!-- Node1 -->
<g id="node1" class="node">
<title>Node1</title>
<g id="a_node1"><a xlink:title=" ">
<polygon fill="#999999" stroke="#666666" points="140,-120 0,-120 0,-101 140,-101 140,-120"/>
<text text-anchor="middle" x="70" y="-108" font-family="Helvetica,sans-Serif" font-size="10.00">update_or_boost_gamma</text>
</a>
</g>
</g>
<!-- Node2 -->
<g id="node2" class="node">
<title>Node2</title>
<g id="a_node2"><a xlink:href="iteration_8c.html#addf0e547cbd4fd4b3bda2c1adccf22c8" target="_top" xlink:title="Maximize the proximal penalty.">
<polygon fill="white" stroke="#666666" points="282,-218 196,-218 196,-199 282,-199 282,-218"/>
<text text-anchor="middle" x="239" y="-206" font-family="Helvetica,sans-Serif" font-size="10.00">boost_gamma</text>
</a>
</g>
</g>
<!-- Node1&#45;&gt;Node2 -->
<g id="edge1" class="edge">
<title>Node1&#45;&gt;Node2</title>
<path fill="none" stroke="#63b8ff" d="M82.66,-120.17C101.41,-135.38 139.83,-165.13 176,-184.5 183.38,-188.45 191.55,-192.09 199.48,-195.28"/>
<polygon fill="#63b8ff" stroke="#63b8ff" points="198.36,-198.6 208.95,-198.93 200.88,-192.06 198.36,-198.6"/>
</g>
<!-- Node4 -->
<g id="node4" class="node">
<title>Node4</title>
<g id="a_node4"><a xlink:href="lin__alg_8c.html#a0fde1aeeea954e43db160ec6e3697cd5" target="_top" xlink:title="Scaled addition of one vector to another vector, .">
<polygon fill="white" stroke="#666666" points="432.5,-180 338.5,-180 338.5,-161 432.5,-161 432.5,-180"/>
<text text-anchor="middle" x="385.5" y="-168" font-family="Helvetica,sans-Serif" font-size="10.00">vec_add_scaled</text>
</a>
</g>
</g>
<!-- Node1&#45;&gt;Node4 -->
<g id="edge8" class="edge">
<title>Node1&#45;&gt;Node4</title>
<path fill="none" stroke="#63b8ff" d="M90.59,-120.08C111.29,-129.74 145.14,-144.22 176,-151.5 226.66,-163.45 285.88,-167.97 328.23,-169.64"/>
<polygon fill="#63b8ff" stroke="#63b8ff" points="328.23,-173.14 338.35,-170 328.48,-166.15 328.23,-173.14"/>
</g>
<!-- Node5 -->
<g id="node5" class="node">
<title>Node5</title>
<g id="a_node5"><a xlink:href="newton_8c.html#ae27a99e2b3249e8455b72c2e2a977dd8" target="_top" xlink:title="Computes the set of active constraints and stores it in work&#45;&gt;solver&#45;&gt;active_constraints.">
<polygon fill="white" stroke="#666666" points="302,-142 176,-142 176,-123 302,-123 302,-142"/>
<text text-anchor="middle" x="239" y="-130" font-family="Helvetica,sans-Serif" font-size="10.00">set_active_constraints</text>
</a>
</g>
</g>
<!-- Node1&#45;&gt;Node5 -->
<g id="edge4" class="edge">
<title>Node1&#45;&gt;Node5</title>
<path fill="none" stroke="#63b8ff" d="M140.37,-119.64C148.72,-120.74 157.26,-121.86 165.65,-122.97"/>
<polygon fill="#63b8ff" stroke="#63b8ff" points="165.41,-126.47 175.78,-124.3 166.32,-119.53 165.41,-126.47"/>
</g>
<!-- Node6 -->
<g id="node6" class="node">
<title>Node6</title>
<g id="a_node6"><a xlink:href="newton_8c.html#a43d518127e8561034e35ba18d0e15b31" target="_top" xlink:title="Determines the entering and leaving constraints and stores them in work&#45;&gt;solver&#45;&gt;enter and work&#45;&gt;solv...">
<polygon fill="white" stroke="#666666" points="298.5,-104.5 179.5,-104.5 179.5,-74.5 298.5,-74.5 298.5,-104.5"/>
<text text-anchor="start" x="187.5" y="-92.5" font-family="Helvetica,sans-Serif" font-size="10.00">set_entering_leaving</text>
<text text-anchor="middle" x="239" y="-81.5" font-family="Helvetica,sans-Serif" font-size="10.00">_constraints</text>
</a>
</g>
</g>
<!-- Node1&#45;&gt;Node6 -->
<g id="edge5" class="edge">
<title>Node1&#45;&gt;Node6</title>
<path fill="none" stroke="#63b8ff" d="M140.37,-101.78C149.91,-100.58 159.71,-99.34 169.24,-98.15"/>
<polygon fill="#63b8ff" stroke="#63b8ff" points="169.97,-101.58 179.46,-96.86 169.1,-94.64 169.97,-101.58"/>
</g>
<!-- Node7 -->
<g id="node7" class="node">
<title>Node7</title>
<g id="a_node7"><a xlink:href="iteration_8c.html#a2493eaf6f46fae7e188477e427acfece" target="_top" xlink:title="Update the proximal penalty.">
<polygon fill="white" stroke="#666666" points="285.5,-56 192.5,-56 192.5,-37 285.5,-37 285.5,-56"/>
<text text-anchor="middle" x="239" y="-44" font-family="Helvetica,sans-Serif" font-size="10.00">update_gamma</text>
</a>
</g>
</g>
<!-- Node1&#45;&gt;Node7 -->
<g id="edge6" class="edge">
<title>Node1&#45;&gt;Node7</title>
<path fill="none" stroke="#63b8ff" d="M91.65,-100.87C112.64,-91.26 146.2,-76.41 176,-65.5 182.04,-63.29 188.46,-61.12 194.81,-59.08"/>
<polygon fill="#63b8ff" stroke="#63b8ff" points="196.14,-62.33 204.64,-56 194.05,-55.65 196.14,-62.33"/>
</g>
<!-- Node8 -->
<g id="node8" class="node">
<title>Node8</title>
<g id="a_node8"><a xlink:href="lin__alg_8c.html#a7b3d3b23f9254b8dc1bf53823ef42b42" target="_top" xlink:title="Elementwise division, .">
<polygon fill="white" stroke="#666666" points="276,-19 202,-19 202,0 276,0 276,-19"/>
<text text-anchor="middle" x="239" y="-7" font-family="Helvetica,sans-Serif" font-size="10.00">vec_ew_div</text>
</a>
</g>
</g>
<!-- Node1&#45;&gt;Node8 -->
<g id="edge9" class="edge">
<title>Node1&#45;&gt;Node8</title>
<path fill="none" stroke="#63b8ff" d="M80.51,-100.83C97.92,-83.65 136.75,-47.72 176,-27.5 180.98,-24.93 186.38,-22.68 191.85,-20.72"/>
<polygon fill="#63b8ff" stroke="#63b8ff" points="193.27,-23.94 201.68,-17.5 191.09,-17.29 193.27,-23.94"/>
</g>
<!-- Node3 -->
<g id="node3" class="node">
<title>Node3</title>
<g id="a_node3"><a xlink:href="nonconvex_8c.html#ab2a80b1d0a937afe2f6731b182ed63ac" target="_top" xlink:title="Calculate the Gershgorin upper bound for the eigenvalues of a symmetric matrix.">
<polygon fill="white" stroke="#666666" points="433,-218 338,-218 338,-199 433,-199 433,-218"/>
<text text-anchor="middle" x="385.5" y="-206" font-family="Helvetica,sans-Serif" font-size="10.00">gershgorin_max</text>
</a>
</g>
</g>
<!-- Node2&#45;&gt;Node3 -->
<g id="edge2" class="edge">
<title>Node2&#45;&gt;Node3</title>
<path fill="none" stroke="#63b8ff" d="M282.18,-208.5C296.4,-208.5 312.5,-208.5 327.66,-208.5"/>
<polygon fill="#63b8ff" stroke="#63b8ff" points="327.96,-212 337.96,-208.5 327.96,-205 327.96,-212"/>
</g>
<!-- Node2&#45;&gt;Node4 -->
<g id="edge3" class="edge">
<title>Node2&#45;&gt;Node4</title>
<path fill="none" stroke="#63b8ff" d="M276.46,-198.91C295.27,-193.96 318.41,-187.88 338.45,-182.61"/>
<polygon fill="#63b8ff" stroke="#63b8ff" points="339.52,-185.95 348.3,-180.02 337.74,-179.18 339.52,-185.95"/>
</g>
<!-- Node7&#45;&gt;Node4 -->
<g id="edge7" class="edge">
<title>Node7&#45;&gt;Node4</title>
<path fill="none" stroke="#63b8ff" d="M283.26,-56.02C289.85,-58.5 296.34,-61.62 302,-65.5 335.12,-88.21 361.2,-128.27 374.6,-151.8"/>
<polygon fill="#63b8ff" stroke="#63b8ff" points="371.65,-153.71 379.54,-160.77 377.78,-150.32 371.65,-153.71"/>
</g>
</g>
</svg>
