<?xml version="1.0" encoding="UTF-8" standalone="no"?>
<!DOCTYPE svg PUBLIC "-//W3C//DTD SVG 1.1//EN"
 "http://www.w3.org/Graphics/SVG/1.1/DTD/svg11.dtd">
<!-- Generated by graphviz version 2.43.0 (0)
 -->
<!-- Title: QPALM/include/iteration.h Pages: 1 -->
<svg width="150pt" height="192pt"
 viewBox="0.00 0.00 150.00 192.00" xmlns="http://www.w3.org/2000/svg" xmlns:xlink="http://www.w3.org/1999/xlink">
<g id="graph0" class="graph" transform="scale(1 1) rotate(0) translate(4 188)">
<title>QPALM/include/iteration.h</title>
<!-- Node1 -->
<g id="node1" class="node">
<title>Node1</title>
<g id="a_node1"><a xlink:title="QPALM main solver routines.">
<polygon fill="#999999" stroke="#666666" points="142,-184 0,-184 0,-165 142,-165 142,-184"/>
<text text-anchor="middle" x="71" y="-172" font-family="Helvetica,sans-Serif" font-size="10.00">QPALM/include/iteration.h</text>
</a>
</g>
</g>
<!-- Node2 -->
<g id="node2" class="node">
<title>Node2</title>
<g id="a_node2"><a xlink:href="types_8h.html" target="_top" xlink:title="Internal data structures used in QPALM.">
<polygon fill="white" stroke="#666666" points="125.5,-129 72.5,-129 72.5,-110 125.5,-110 125.5,-129"/>
<text text-anchor="middle" x="99" y="-117" font-family="Helvetica,sans-Serif" font-size="10.00">types.h</text>
</a>
</g>
</g>
<!-- Node1&#45;&gt;Node2 -->
<g id="edge1" class="edge">
<title>Node1&#45;&gt;Node2</title>
<path fill="none" stroke="#63b8ff" d="M75.62,-164.75C79.46,-157.49 85.02,-146.95 89.76,-137.98"/>
<polygon fill="#63b8ff" stroke="#63b8ff" points="92.89,-139.57 94.46,-129.09 86.7,-136.3 92.89,-139.57"/>
</g>
<!-- Node3 -->
<g id="node3" class="node">
<title>Node3</title>
<g id="a_node3"><a xlink:href="global__opts_8h.html" target="_top" xlink:title="Custom memory allocation, print and utility functions, and data types for floats and ints.">
<polygon fill="white" stroke="#666666" points="85,-74 3,-74 3,-55 85,-55 85,-74"/>
<text text-anchor="middle" x="44" y="-62" font-family="Helvetica,sans-Serif" font-size="10.00">global_opts.h</text>
</a>
</g>
</g>
<!-- Node1&#45;&gt;Node3 -->
<g id="edge6" class="edge">
<title>Node1&#45;&gt;Node3</title>
<path fill="none" stroke="#63b8ff" d="M68.79,-164.66C64.4,-147.09 54.49,-107.45 48.61,-83.95"/>
<polygon fill="#63b8ff" stroke="#63b8ff" points="51.99,-83.01 46.16,-74.16 45.19,-84.71 51.99,-83.01"/>
</g>
<!-- Node2&#45;&gt;Node3 -->
<g id="edge2" class="edge">
<title>Node2&#45;&gt;Node3</title>
<path fill="none" stroke="#63b8ff" d="M89.92,-109.75C81.91,-102.03 70.04,-90.6 60.38,-81.28"/>
<polygon fill="#63b8ff" stroke="#63b8ff" points="62.54,-78.51 52.91,-74.09 57.69,-83.55 62.54,-78.51"/>
</g>
<!-- Node4 -->
<g id="node4" class="node">
<title>Node4</title>
<g id="a_node4"><a xlink:title=" ">
<polygon fill="#e0e0e0" stroke="#999999" points="138,-19 88,-19 88,0 138,0 138,-19"/>
<text text-anchor="middle" x="113" y="-7" font-family="Helvetica,sans-Serif" font-size="10.00">ladel.h</text>
</a>
</g>
</g>
<!-- Node2&#45;&gt;Node4 -->
<g id="edge5" class="edge">
<title>Node2&#45;&gt;Node4</title>
<path fill="none" stroke="#63b8ff" d="M100.15,-109.66C102.41,-92.17 107.52,-52.8 110.57,-29.27"/>
<polygon fill="#63b8ff" stroke="#63b8ff" points="114.06,-29.53 111.88,-19.16 107.12,-28.63 114.06,-29.53"/>
</g>
<!-- Node3&#45;&gt;Node4 -->
<g id="edge3" class="edge">
<title>Node3&#45;&gt;Node4</title>
<path fill="none" stroke="#63b8ff" d="M55.09,-54.98C65.49,-47 81.26,-34.88 93.72,-25.31"/>
<polygon fill="#63b8ff" stroke="#63b8ff" points="95.91,-28.04 101.71,-19.17 91.65,-22.49 95.91,-28.04"/>
</g>
<!-- Node5 -->
<g id="node5" class="node">
<title>Node5</title>
<g id="a_node5"><a xlink:title=" ">
<polygon fill="#e0e0e0" stroke="#999999" points="69.5,-19 18.5,-19 18.5,0 69.5,0 69.5,-19"/>
<text text-anchor="middle" x="44" y="-7" font-family="Helvetica,sans-Serif" font-size="10.00">math.h</text>
</a>
</g>
</g>
<!-- Node3&#45;&gt;Node5 -->
<g id="edge4" class="edge">
<title>Node3&#45;&gt;Node5</title>
<path fill="none" stroke="#63b8ff" d="M44,-54.75C44,-47.8 44,-37.85 44,-29.13"/>
<polygon fill="#63b8ff" stroke="#63b8ff" points="47.5,-29.09 44,-19.09 40.5,-29.09 47.5,-29.09"/>
</g>
</g>
</svg>
