<?xml version="1.0" encoding="UTF-8" standalone="no"?>
<!DOCTYPE svg PUBLIC "-//W3C//DTD SVG 1.1//EN"
 "http://www.w3.org/Graphics/SVG/1.1/DTD/svg11.dtd">
<!-- Generated by graphviz version 2.43.0 (0)
 -->
<!-- Title: vec_add_scaled Pages: 1 -->
<!--zoomable 479 -->
<svg id="main" version="1.1" xmlns="http://www.w3.org/2000/svg" xmlns:xlink="http://www.w3.org/1999/xlink" xml:space="preserve" onload="init(evt)">
<style type="text/css"><![CDATA[
.edge:hover path { stroke: red; }
.edge:hover polygon { stroke: red; fill: red; }
]]></style>
<script type="text/javascript"><![CDATA[
var edges = document.getElementsByTagName('g');
if (edges && edges.length) {
  for (var i=0;i<edges.length;i++) {
    if (edges[i].id.substr(0,4)=='edge') {
      edges[i].setAttribute('class','edge');
    }
  }
}
]]></script>
        <defs>
                <circle id="rim" cx="0" cy="0" r="7"/>
                <circle id="rim2" cx="0" cy="0" r="3.5"/>
                <g id="zoomPlus">
                        <use xlink:href="#rim" fill="#404040">
                                <set attributeName="fill" to="#808080" begin="zoomplus.mouseover" end="zoomplus.mouseout"/>
                        </use>
                        <path d="M-4,0h8M0,-4v8" fill="none" stroke="white" stroke-width="1.5" pointer-events="none"/>
                </g>
                <g id="zoomMin">
                        <use xlink:href="#rim" fill="#404040">
                                <set attributeName="fill" to="#808080" begin="zoomminus.mouseover" end="zoomminus.mouseout"/>
                        </use>
                        <path d="M-4,0h8" fill="none" stroke="white" stroke-width="1.5" pointer-events="none"/>
                </g>
                <g id="dirArrow">
                        <path fill="none" stroke="white" stroke-width="1.5" d="M0,-3.0v7 M-2.5,-0.5L0,-3.0L2.5,-0.5"/>
                </g>
               <g id="resetDef">
                       <use xlink:href="#rim2" fill="#404040">
                               <set attributeName="fill" to="#808080" begin="reset.mouseover" end="reset.mouseout"/>
                       </use>
               </g>
        </defs>

<script type="text/javascript">
var viewWidth = 1041;
var viewHeight = 479;
var sectionId = 'dynsection-4';
</script>
<script xlink:href="svgpan.js"/>
<svg id="graph" class="graph">
<g id="viewport">
<title>vec_add_scaled</title>
<!-- Node1 -->
<g id="node1" class="node">
<title>Node1</title>
<g id="a_node1"><a xlink:title="Scaled addition of one vector to another vector, .">
<polygon fill="#999999" stroke="#666666" points="1033,-263.37 939,-263.37 939,-244.37 1033,-244.37 1033,-263.37"/>
<text text-anchor="middle" x="986" y="-251.37" font-family="Helvetica,sans-Serif" font-size="10.00">vec_add_scaled</text>
</a>
</g>
</g>
<!-- Node2 -->
<g id="node2" class="node">
<title>Node2</title>
<g id="a_node2"><a xlink:href="iteration_8c.html#addf0e547cbd4fd4b3bda2c1adccf22c8" target="_top" xlink:title="Maximize the proximal penalty.">
<polygon fill="white" stroke="#666666" points="877.5,-471.37 791.5,-471.37 791.5,-452.37 877.5,-452.37 877.5,-471.37"/>
<text text-anchor="middle" x="834.5" y="-459.37" font-family="Helvetica,sans-Serif" font-size="10.00">boost_gamma</text>
</a>
</g>
</g>
<!-- Node1&#45;&gt;Node2 -->
<g id="edge1" class="edge">
<title>Node1&#45;&gt;Node2</title>
<path fill="none" stroke="#63b8ff" d="M981.55,-273.47C974,-310.7 952.55,-392.02 903,-437.87 895.88,-444.46 886.83,-449.26 877.69,-452.75"/>
<polygon fill="#63b8ff" stroke="#63b8ff" points="985.03,-273.9 983.46,-263.42 978.16,-272.59 985.03,-273.9"/>
</g>
<!-- Node3 -->
<g id="node3" class="node">
<title>Node3</title>
<g id="a_node3"><a xlink:href="iteration_8c.html#a95e8560aaf51a2c4f68de9b65b0c6a15" target="_top" xlink:title=" ">
<polygon fill="white" stroke="#666666" points="730,-447.37 590,-447.37 590,-428.37 730,-428.37 730,-447.37"/>
<text text-anchor="middle" x="660" y="-435.37" font-family="Helvetica,sans-Serif" font-size="10.00">update_or_boost_gamma</text>
</a>
</g>
</g>
<!-- Node1&#45;&gt;Node3 -->
<g id="edge28" class="edge">
<title>Node1&#45;&gt;Node3</title>
<path fill="none" stroke="#63b8ff" d="M980.45,-273.55C971.68,-306.66 949.09,-373.04 903,-404.87 875.74,-423.7 791.61,-431.83 730.18,-435.32"/>
<polygon fill="#63b8ff" stroke="#63b8ff" points="983.89,-274.24 982.91,-263.69 977.1,-272.54 983.89,-274.24"/>
</g>
<!-- Node9 -->
<g id="node9" class="node">
<title>Node9</title>
<g id="a_node9"><a xlink:href="termination_8c.html#af1889ad003b14a004d4560bedde40ce9" target="_top" xlink:title="Calculates the infinity norm of the dual residual and the residual of the subproblem and stores them ...">
<polygon fill="white" stroke="#666666" points="903,-358.37 766,-358.37 766,-339.37 903,-339.37 903,-358.37"/>
<text text-anchor="middle" x="834.5" y="-346.37" font-family="Helvetica,sans-Serif" font-size="10.00">calculate_dual_residuals</text>
</a>
</g>
</g>
<!-- Node1&#45;&gt;Node9 -->
<g id="edge8" class="edge">
<title>Node1&#45;&gt;Node9</title>
<path fill="none" stroke="#63b8ff" d="M969.06,-270.93C953.5,-286.75 928.49,-310.01 903,-324.87 892.9,-330.76 881.11,-335.56 870.25,-339.27"/>
<polygon fill="#63b8ff" stroke="#63b8ff" points="971.88,-273.05 976.29,-263.42 966.84,-268.19 971.88,-273.05"/>
</g>
<!-- Node11 -->
<g id="node11" class="node">
<title>Node11</title>
<g id="a_node11"><a xlink:href="iteration_8c.html#a1a0ad2638fa3206a6f671619f689364f" target="_top" xlink:title="Compute the (unscaled) dual objective value at the current iterate.">
<polygon fill="white" stroke="#666666" points="554,-320.37 418,-320.37 418,-301.37 554,-301.37 554,-320.37"/>
<text text-anchor="middle" x="486" y="-308.37" font-family="Helvetica,sans-Serif" font-size="10.00">compute_dual_objective</text>
</a>
</g>
</g>
<!-- Node1&#45;&gt;Node11 -->
<g id="edge11" class="edge">
<title>Node1&#45;&gt;Node11</title>
<path fill="none" stroke="#63b8ff" d="M957.28,-267.65C941.72,-274.71 921.73,-282.68 903,-286.87 782.28,-313.88 637.22,-315.51 554.2,-313.62"/>
<polygon fill="#63b8ff" stroke="#63b8ff" points="958.77,-270.82 966.34,-263.42 955.8,-264.48 958.77,-270.82"/>
</g>
<!-- Node12 -->
<g id="node12" class="node">
<title>Node12</title>
<g id="a_node12"><a xlink:href="iteration_8c.html#ae21af0f956f1ccf8ee41c4cf68698279" target="_top" xlink:title="Compute the residuals (in vector form)">
<polygon fill="white" stroke="#666666" points="379,-282.37 270,-282.37 270,-263.37 379,-263.37 379,-282.37"/>
<text text-anchor="middle" x="324.5" y="-270.37" font-family="Helvetica,sans-Serif" font-size="10.00">compute_residuals</text>
</a>
</g>
</g>
<!-- Node1&#45;&gt;Node12 -->
<g id="edge13" class="edge">
<title>Node1&#45;&gt;Node12</title>
<path fill="none" stroke="#63b8ff" d="M928.73,-255.49C803.29,-259.1 502.09,-267.78 379.14,-271.32"/>
<polygon fill="#63b8ff" stroke="#63b8ff" points="928.99,-258.98 938.89,-255.2 928.79,-251.99 928.99,-258.98"/>
</g>
<!-- Node13 -->
<g id="node13" class="node">
<title>Node13</title>
<g id="a_node13"><a xlink:href="linesearch_8c.html#a647cabae1574f21e412110765ea1e70d" target="_top" xlink:title="Execute exact linesearch (using qsort)">
<polygon fill="white" stroke="#666666" points="884,-132.37 785,-132.37 785,-113.37 884,-113.37 884,-132.37"/>
<text text-anchor="middle" x="834.5" y="-120.37" font-family="Helvetica,sans-Serif" font-size="10.00">exact_linesearch</text>
</a>
</g>
</g>
<!-- Node1&#45;&gt;Node13 -->
<g id="edge15" class="edge">
<title>Node1&#45;&gt;Node13</title>
<path fill="none" stroke="#63b8ff" d="M976.42,-235.02C963.93,-209.71 938.3,-165.11 903,-140.87 897.3,-136.96 890.79,-133.89 884.12,-131.49"/>
<polygon fill="#63b8ff" stroke="#63b8ff" points="973.37,-236.76 980.83,-244.28 979.7,-233.75 973.37,-236.76"/>
</g>
<!-- Node14 -->
<g id="node14" class="node">
<title>Node14</title>
<g id="a_node14"><a xlink:href="iteration_8c.html#a9c9fafac9ce099122c5a594762e5a052" target="_top" xlink:title="Update the primal iterate.">
<polygon fill="white" stroke="#666666" points="722.5,-192.37 597.5,-192.37 597.5,-173.37 722.5,-173.37 722.5,-192.37"/>
<text text-anchor="middle" x="660" y="-180.37" font-family="Helvetica,sans-Serif" font-size="10.00">update_primal_iterate</text>
</a>
</g>
</g>
<!-- Node1&#45;&gt;Node14 -->
<g id="edge29" class="edge">
<title>Node1&#45;&gt;Node14</title>
<path fill="none" stroke="#63b8ff" d="M928.92,-245.78C884.45,-238.9 820.86,-228.07 766,-214.87 739.69,-208.54 710.26,-199.39 689.27,-192.49"/>
<polygon fill="#63b8ff" stroke="#63b8ff" points="928.54,-249.26 938.95,-247.31 929.59,-242.34 928.54,-249.26"/>
</g>
<!-- Node15 -->
<g id="node15" class="node">
<title>Node15</title>
<g id="a_node15"><a xlink:href="iteration_8c.html#a155f5c99c7a442c554cca914de34eba7" target="_top" xlink:title="Initialize penalty factors from initial x.">
<polygon fill="white" stroke="#666666" points="881.5,-206.37 787.5,-206.37 787.5,-187.37 881.5,-187.37 881.5,-206.37"/>
<text text-anchor="middle" x="834.5" y="-194.37" font-family="Helvetica,sans-Serif" font-size="10.00">initialize_sigma</text>
</a>
</g>
</g>
<!-- Node1&#45;&gt;Node15 -->
<g id="edge18" class="edge">
<title>Node1&#45;&gt;Node15</title>
<path fill="none" stroke="#63b8ff" d="M952.41,-240.4C937.42,-234.29 919.36,-227.07 903,-220.87 889.97,-215.93 875.43,-210.72 863.18,-206.42"/>
<polygon fill="#63b8ff" stroke="#63b8ff" points="951.19,-243.68 961.77,-244.23 953.84,-237.2 951.19,-243.68"/>
</g>
<!-- Node16 -->
<g id="node16" class="node">
<title>Node16</title>
<g id="a_node16"><a xlink:href="termination_8c.html#a8cf01c07469436e7c562c9f3e162fd2b" target="_top" xlink:title="Check whether the problem is dual infeasible.">
<polygon fill="white" stroke="#666666" points="538,-122.37 434,-122.37 434,-103.37 538,-103.37 538,-122.37"/>
<text text-anchor="middle" x="486" y="-110.37" font-family="Helvetica,sans-Serif" font-size="10.00">is_dual_infeasible</text>
</a>
</g>
</g>
<!-- Node1&#45;&gt;Node16 -->
<g id="edge19" class="edge">
<title>Node1&#45;&gt;Node16</title>
<path fill="none" stroke="#63b8ff" d="M980.96,-234.13C972.87,-200.37 951.16,-132.43 903,-103.87 775,-27.97 583.63,-80.05 513.76,-103.29"/>
<polygon fill="#63b8ff" stroke="#63b8ff" points="977.61,-235.16 983.2,-244.16 984.44,-233.64 977.61,-235.16"/>
</g>
<!-- Node17 -->
<g id="node17" class="node">
<title>Node17</title>
<g id="a_node17"><a xlink:href="termination_8c.html#a4df388b37067a843cbb2c6b244496d9c" target="_top" xlink:title="Check whether the problem is primal infeasible.">
<polygon fill="white" stroke="#666666" points="382,-77.37 267,-77.37 267,-58.37 382,-58.37 382,-77.37"/>
<text text-anchor="middle" x="324.5" y="-65.37" font-family="Helvetica,sans-Serif" font-size="10.00">is_primal_infeasible</text>
</a>
</g>
</g>
<!-- Node1&#45;&gt;Node17 -->
<g id="edge21" class="edge">
<title>Node1&#45;&gt;Node17</title>
<path fill="none" stroke="#63b8ff" d="M983.39,-233.98C978.89,-193.34 962.33,-101.29 903,-61.87 723.45,57.43 438.16,-27.89 351.38,-58.28"/>
<polygon fill="#63b8ff" stroke="#63b8ff" points="979.91,-234.38 984.36,-243.99 986.87,-233.7 979.91,-234.38"/>
</g>
<!-- Node18 -->
<g id="node18" class="node">
<title>Node18</title>
<g id="a_node18"><a xlink:href="newton_8c.html#af1654e5597faac8b0ade25acf1fc1bc9" target="_top" xlink:title="Sets work&#45;&gt;d to the direction calculated by the semismooth Newton method.">
<polygon fill="white" stroke="#666666" points="895,-169.37 774,-169.37 774,-150.37 895,-150.37 895,-169.37"/>
<text text-anchor="middle" x="834.5" y="-157.37" font-family="Helvetica,sans-Serif" font-size="10.00">newton_set_direction</text>
</a>
</g>
</g>
<!-- Node1&#45;&gt;Node18 -->
<g id="edge23" class="edge">
<title>Node1&#45;&gt;Node18</title>
<path fill="none" stroke="#63b8ff" d="M970.97,-236.66C955.92,-219.31 930.46,-193.01 903,-177.87 896.84,-174.47 890.01,-171.69 883.12,-169.42"/>
<polygon fill="#63b8ff" stroke="#63b8ff" points="968.35,-238.98 977.48,-244.36 973.7,-234.46 968.35,-238.98"/>
</g>
<!-- Node19 -->
<g id="node19" class="node">
<title>Node19</title>
<g id="a_node19"><a xlink:href="iteration_8c.html#a2493eaf6f46fae7e188477e427acfece" target="_top" xlink:title="Update the proximal penalty.">
<polygon fill="white" stroke="#666666" points="881,-395.37 788,-395.37 788,-376.37 881,-376.37 881,-395.37"/>
<text text-anchor="middle" x="834.5" y="-383.37" font-family="Helvetica,sans-Serif" font-size="10.00">update_gamma</text>
</a>
</g>
</g>
<!-- Node1&#45;&gt;Node19 -->
<g id="edge25" class="edge">
<title>Node1&#45;&gt;Node19</title>
<path fill="none" stroke="#63b8ff" d="M976.38,-272.65C963.82,-297.88 938.13,-342.38 903,-366.87 896.51,-371.39 888.96,-374.85 881.31,-377.48"/>
<polygon fill="#63b8ff" stroke="#63b8ff" points="979.63,-273.95 980.81,-263.42 973.32,-270.92 979.63,-273.95"/>
</g>
<!-- Node2&#45;&gt;Node3 -->
<g id="edge2" class="edge">
<title>Node2&#45;&gt;Node3</title>
<path fill="none" stroke="#63b8ff" d="M781.38,-454.62C764.99,-452.34 746.64,-449.78 729.31,-447.37"/>
<polygon fill="#63b8ff" stroke="#63b8ff" points="780.91,-458.09 791.3,-456 781.88,-451.15 780.91,-458.09"/>
</g>
<!-- Node4 -->
<g id="node4" class="node">
<title>Node4</title>
<g id="a_node4"><a xlink:href="iteration_8c.html#a786f2d2af82a141fe3825a3964659d50" target="_top" xlink:title=" ">
<polygon fill="white" stroke="#666666" points="550.5,-454.87 421.5,-454.87 421.5,-424.87 550.5,-424.87 550.5,-454.87"/>
<text text-anchor="start" x="429.5" y="-442.87" font-family="Helvetica,sans-Serif" font-size="10.00">update_proximal_point</text>
<text text-anchor="middle" x="486" y="-431.87" font-family="Helvetica,sans-Serif" font-size="10.00">_and_penalty</text>
</a>
</g>
</g>
<!-- Node3&#45;&gt;Node4 -->
<g id="edge3" class="edge">
<title>Node3&#45;&gt;Node4</title>
<path fill="none" stroke="#63b8ff" d="M579.5,-438.79C569.82,-438.91 560.02,-439.02 550.61,-439.13"/>
<polygon fill="#63b8ff" stroke="#63b8ff" points="579.58,-442.29 589.54,-438.68 579.5,-435.29 579.58,-442.29"/>
</g>
<!-- Node5 -->
<g id="node5" class="node">
<title>Node5</title>
<g id="a_node5"><a xlink:href="iteration_8c.html#a1ad7b6cb4924a8de3378ed35890b02e7" target="_top" xlink:title=" ">
<polygon fill="white" stroke="#666666" points="381.5,-454.87 267.5,-454.87 267.5,-424.87 381.5,-424.87 381.5,-454.87"/>
<text text-anchor="start" x="275.5" y="-442.87" font-family="Helvetica,sans-Serif" font-size="10.00">update_dual_iterate</text>
<text text-anchor="middle" x="324.5" y="-431.87" font-family="Helvetica,sans-Serif" font-size="10.00">_and_parameters</text>
</a>
</g>
</g>
<!-- Node4&#45;&gt;Node5 -->
<g id="edge4" class="edge">
<title>Node4&#45;&gt;Node5</title>
<path fill="none" stroke="#63b8ff" d="M410.9,-439.87C401.1,-439.87 391.18,-439.87 381.75,-439.87"/>
<polygon fill="#63b8ff" stroke="#63b8ff" points="411.04,-443.37 421.04,-439.87 411.04,-436.37 411.04,-443.37"/>
</g>
<!-- Node6 -->
<g id="node6" class="node">
<title>Node6</title>
<g id="a_node6"><a xlink:href="group__solver-grp.html#ga9bbc8b47dfd2e86a81dd77feb4077bde" target="_top" xlink:title="Solve the quadratic program.">
<polygon fill="white" stroke="#666666" points="231,-301.37 152,-301.37 152,-282.37 231,-282.37 231,-301.37"/>
<text text-anchor="middle" x="191.5" y="-289.37" font-family="Helvetica,sans-Serif" font-size="10.00">qpalm_solve</text>
</a>
</g>
</g>
<!-- Node5&#45;&gt;Node6 -->
<g id="edge5" class="edge">
<title>Node5&#45;&gt;Node6</title>
<path fill="none" stroke="#63b8ff" d="M278.11,-419.45C274.16,-416.84 270.38,-413.97 267,-410.87 230.91,-377.73 205.57,-323.27 196.34,-301.4"/>
<polygon fill="#63b8ff" stroke="#63b8ff" points="276.58,-422.62 286.96,-424.78 280.2,-416.62 276.58,-422.62"/>
</g>
<!-- Node7 -->
<g id="node7" class="node">
<title>Node7</title>
<g id="a_node7"><a xlink:href="qpalm__fortran_8c.html#abec01161fcee665e126347b862c404c4" target="_top" xlink:title=" ">
<polygon fill="white" stroke="#666666" points="106,-320.37 10,-320.37 10,-301.37 106,-301.37 106,-320.37"/>
<text text-anchor="middle" x="58" y="-308.37" font-family="Helvetica,sans-Serif" font-size="10.00">qpalm_fortran_c</text>
</a>
</g>
</g>
<!-- Node6&#45;&gt;Node7 -->
<g id="edge6" class="edge">
<title>Node6&#45;&gt;Node7</title>
<path fill="none" stroke="#63b8ff" d="M141.8,-298.91C130.2,-300.58 117.85,-302.37 106.31,-304.03"/>
<polygon fill="#63b8ff" stroke="#63b8ff" points="142.36,-302.36 151.76,-297.47 141.36,-295.43 142.36,-302.36"/>
</g>
<!-- Node8 -->
<g id="node8" class="node">
<title>Node8</title>
<g id="a_node8"><a xlink:href="classqpalm_1_1Solver.html#a7d723d189a812ffa19d688b7aa38ccca" target="_top" xlink:title="Solve the problem.">
<polygon fill="white" stroke="#666666" points="116,-283.37 0,-283.37 0,-264.37 116,-264.37 116,-283.37"/>
<text text-anchor="middle" x="58" y="-271.37" font-family="Helvetica,sans-Serif" font-size="10.00">qpalm::Solver::solve</text>
</a>
</g>
</g>
<!-- Node6&#45;&gt;Node8 -->
<g id="edge7" class="edge">
<title>Node6&#45;&gt;Node8</title>
<path fill="none" stroke="#63b8ff" d="M141.62,-285.18C133.43,-284.06 124.86,-282.88 116.47,-281.74"/>
<polygon fill="#63b8ff" stroke="#63b8ff" points="141.37,-288.68 151.76,-286.57 142.32,-281.74 141.37,-288.68"/>
</g>
<!-- Node10 -->
<g id="node10" class="node">
<title>Node10</title>
<g id="a_node10"><a xlink:href="termination_8c.html#a50775fd01103420a3cfe7452a8be3874" target="_top" xlink:title="Calls the routines that compute the norm of the residuals and the tolerances.">
<polygon fill="white" stroke="#666666" points="726,-368.87 594,-368.87 594,-338.87 726,-338.87 726,-368.87"/>
<text text-anchor="start" x="602" y="-356.87" font-family="Helvetica,sans-Serif" font-size="10.00">calculate_residual</text>
<text text-anchor="middle" x="660" y="-345.87" font-family="Helvetica,sans-Serif" font-size="10.00">_norms_and_tolerances</text>
</a>
</g>
</g>
<!-- Node9&#45;&gt;Node10 -->
<g id="edge9" class="edge">
<title>Node9&#45;&gt;Node10</title>
<path fill="none" stroke="#63b8ff" d="M755.65,-351.13C745.82,-351.41 735.84,-351.7 726.23,-351.98"/>
<polygon fill="#63b8ff" stroke="#63b8ff" points="755.92,-354.62 765.82,-350.83 755.72,-347.62 755.92,-354.62"/>
</g>
<!-- Node10&#45;&gt;Node6 -->
<g id="edge10" class="edge">
<title>Node10&#45;&gt;Node6</title>
<path fill="none" stroke="#63b8ff" d="M583.5,-350.85C504.07,-346.62 375.75,-336.83 267,-314.87 250.68,-311.57 232.84,-306.13 218.72,-301.37"/>
<polygon fill="#63b8ff" stroke="#63b8ff" points="583.73,-354.36 593.9,-351.38 584.09,-347.37 583.73,-354.36"/>
</g>
<!-- Node11&#45;&gt;Node6 -->
<g id="edge12" class="edge">
<title>Node11&#45;&gt;Node6</title>
<path fill="none" stroke="#63b8ff" d="M407.85,-305.86C350.92,-302.16 275.86,-297.28 231.05,-294.37"/>
<polygon fill="#63b8ff" stroke="#63b8ff" points="407.69,-309.35 417.89,-306.51 408.14,-302.37 407.69,-309.35"/>
</g>
<!-- Node12&#45;&gt;Node6 -->
<g id="edge14" class="edge">
<title>Node12&#45;&gt;Node6</title>
<path fill="none" stroke="#63b8ff" d="M259.69,-282.12C249.9,-283.54 240.06,-284.97 231.05,-286.28"/>
<polygon fill="#63b8ff" stroke="#63b8ff" points="260.45,-285.55 269.84,-280.65 259.44,-278.62 260.45,-285.55"/>
</g>
<!-- Node13&#45;&gt;Node14 -->
<g id="edge16" class="edge">
<title>Node13&#45;&gt;Node14</title>
<path fill="none" stroke="#63b8ff" d="M784.57,-135.17C778.29,-136.97 771.97,-138.89 766,-140.87 736.75,-150.58 703.88,-164.18 682.84,-173.24"/>
<polygon fill="#63b8ff" stroke="#63b8ff" points="785.66,-138.5 794.36,-132.46 783.79,-131.76 785.66,-138.5"/>
</g>
<!-- Node14&#45;&gt;Node6 -->
<g id="edge17" class="edge">
<title>Node14&#45;&gt;Node6</title>
<path fill="none" stroke="#63b8ff" d="M587.22,-189.51C507.4,-198.34 375.41,-217.29 267,-253.87 245.54,-261.11 222.57,-273.64 207.9,-282.32"/>
<polygon fill="#63b8ff" stroke="#63b8ff" points="587.61,-192.99 597.17,-188.43 586.85,-186.03 587.61,-192.99"/>
</g>
<!-- Node16&#45;&gt;Node6 -->
<g id="edge20" class="edge">
<title>Node16&#45;&gt;Node6</title>
<path fill="none" stroke="#63b8ff" d="M426.16,-124.77C379.57,-136.35 314.65,-157.49 267,-192.87 233.15,-218 207.46,-262.68 197.28,-282.25"/>
<polygon fill="#63b8ff" stroke="#63b8ff" points="427.2,-128.12 436.1,-122.37 425.56,-121.31 427.2,-128.12"/>
</g>
<!-- Node17&#45;&gt;Node6 -->
<g id="edge22" class="edge">
<title>Node17&#45;&gt;Node6</title>
<path fill="none" stroke="#63b8ff" d="M306.56,-85.02C294.54,-97.78 278.56,-116 267,-133.87 233.06,-186.32 205.5,-256.67 196.03,-282.14"/>
<polygon fill="#63b8ff" stroke="#63b8ff" points="309.39,-87.13 313.79,-77.49 304.34,-82.28 309.39,-87.13"/>
</g>
<!-- Node18&#45;&gt;Node14 -->
<g id="edge24" class="edge">
<title>Node18&#45;&gt;Node14</title>
<path fill="none" stroke="#63b8ff" d="M763.48,-169.21C750,-171 735.98,-172.87 722.79,-174.63"/>
<polygon fill="#63b8ff" stroke="#63b8ff" points="764.2,-172.64 773.65,-167.85 763.28,-165.7 764.2,-172.64"/>
</g>
<!-- Node19&#45;&gt;Node3 -->
<g id="edge27" class="edge">
<title>Node19&#45;&gt;Node3</title>
<path fill="none" stroke="#63b8ff" d="M791.95,-398.4C761.44,-407.59 720.63,-419.89 692.73,-428.3"/>
<polygon fill="#63b8ff" stroke="#63b8ff" points="793.3,-401.64 801.86,-395.41 791.28,-394.94 793.3,-401.64"/>
</g>
<!-- Node19&#45;&gt;Node6 -->
<g id="edge26" class="edge">
<title>Node19&#45;&gt;Node6</title>
<path fill="none" stroke="#63b8ff" d="M777.5,-390.57C673.47,-397.29 444.85,-402.58 267,-338.87 242.81,-330.2 218.29,-312.67 204.28,-301.64"/>
<polygon fill="#63b8ff" stroke="#63b8ff" points="778.03,-394.04 787.77,-389.87 777.55,-387.06 778.03,-394.04"/>
</g>
</g>
</svg>
        <g id="navigator" transform="translate(0 0)" fill="#404254">
                <rect fill="#f2f5e9" fill-opacity="0.5" stroke="#606060" stroke-width=".5" x="0" y="0" width="60" height="60"/>
                <use id="zoomplus" xlink:href="#zoomPlus" x="17" y="9" onmousedown="handleZoom(evt,'in')"/>
                <use id="zoomminus" xlink:href="#zoomMin" x="42" y="9" onmousedown="handleZoom(evt,'out')"/>
                <use id="reset" xlink:href="#resetDef" x="30" y="36" onmousedown="handleReset()"/>
                <g id="arrowUp" xlink:href="#dirArrow" transform="translate(30 24)" onmousedown="handlePan(0,-1)">
                  <use xlink:href="#rim" fill="#404040">
                        <set attributeName="fill" to="#808080" begin="arrowUp.mouseover" end="arrowUp.mouseout"/>
                  </use>
                  <path fill="none" stroke="white" stroke-width="1.5" d="M0,-3.0v7 M-2.5,-0.5L0,-3.0L2.5,-0.5"/>
                </g>
                <g id="arrowRight" xlink:href="#dirArrow" transform="rotate(90) translate(36 -43)" onmousedown="handlePan(1,0)">
                  <use xlink:href="#rim" fill="#404040">
                        <set attributeName="fill" to="#808080" begin="arrowRight.mouseover" end="arrowRight.mouseout"/>
                  </use>
                  <path fill="none" stroke="white" stroke-width="1.5" d="M0,-3.0v7 M-2.5,-0.5L0,-3.0L2.5,-0.5"/>
                </g>
                <g id="arrowDown" xlink:href="#dirArrow" transform="rotate(180) translate(-30 -48)" onmousedown="handlePan(0,1)">
                  <use xlink:href="#rim" fill="#404040">
                        <set attributeName="fill" to="#808080" begin="arrowDown.mouseover" end="arrowDown.mouseout"/>
                  </use>
                  <path fill="none" stroke="white" stroke-width="1.5" d="M0,-3.0v7 M-2.5,-0.5L0,-3.0L2.5,-0.5"/>
                </g>
                <g id="arrowLeft" xlink:href="#dirArrow" transform="rotate(270) translate(-36 17)" onmousedown="handlePan(-1,0)">
                  <use xlink:href="#rim" fill="#404040">
                        <set attributeName="fill" to="#808080" begin="arrowLeft.mouseover" end="arrowLeft.mouseout"/>
                  </use>
                  <path fill="none" stroke="white" stroke-width="1.5" d="M0,-3.0v7 M-2.5,-0.5L0,-3.0L2.5,-0.5"/>
                </g>
        </g>
        <svg viewBox="0 0 15 15" width="100%" height="30px" preserveAspectRatio="xMaxYMin meet">
         <g id="arrow_out" transform="scale(0.3 0.3)">
          <a xlink:href="lin__alg_8h_a0fde1aeeea954e43db160ec6e3697cd5_icgraph_org.svg" target="_base">
           <rect id="button" ry="5" rx="5" y="6" x="6" height="38" width="38"
                fill="#f2f5e9" fill-opacity="0.5" stroke="#606060" stroke-width="1.0"/>
           <path id="arrow"
             d="M 11.500037,31.436501 C 11.940474,20.09759 22.043105,11.32322 32.158766,21.979434 L 37.068811,17.246167 C 37.068811,17.246167 37.088388,32 37.088388,32 L 22.160133,31.978069 C 22.160133,31.978069 26.997745,27.140456 26.997745,27.140456 C 18.528582,18.264221 13.291696,25.230495 11.500037,31.436501 z"
             style="fill:#404040;"/>
          </a>
         </g>
        </svg>
</svg>
