<?xml version="1.0" encoding="UTF-8" standalone="no"?>
<!DOCTYPE svg PUBLIC "-//W3C//DTD SVG 1.1//EN"
 "http://www.w3.org/Graphics/SVG/1.1/DTD/svg11.dtd">
<!-- Generated by graphviz version 2.43.0 (0)
 -->
<!-- Title: QPALM/include/nonconvex.h Pages: 1 -->
<svg width="162pt" height="192pt"
 viewBox="0.00 0.00 162.00 192.00" xmlns="http://www.w3.org/2000/svg" xmlns:xlink="http://www.w3.org/1999/xlink">
<g id="graph0" class="graph" transform="scale(1 1) rotate(0) translate(4 188)">
<title>QPALM/include/nonconvex.h</title>
<!-- Node1 -->
<g id="node1" class="node">
<title>Node1</title>
<g id="a_node1"><a xlink:title="Routines to deal with nonconvex QPs.">
<polygon fill="#999999" stroke="#666666" points="154,-184 0,-184 0,-165 154,-165 154,-184"/>
<text text-anchor="middle" x="77" y="-172" font-family="Helvetica,sans-Serif" font-size="10.00">QPALM/include/nonconvex.h</text>
</a>
</g>
</g>
<!-- Node2 -->
<g id="node2" class="node">
<title>Node2</title>
<g id="a_node2"><a xlink:href="types_8h.html" target="_top" xlink:title="Internal data structures used in QPALM.">
<polygon fill="white" stroke="#666666" points="103.5,-129 50.5,-129 50.5,-110 103.5,-110 103.5,-129"/>
<text text-anchor="middle" x="77" y="-117" font-family="Helvetica,sans-Serif" font-size="10.00">types.h</text>
</a>
</g>
</g>
<!-- Node1&#45;&gt;Node2 -->
<g id="edge1" class="edge">
<title>Node1&#45;&gt;Node2</title>
<path fill="none" stroke="#63b8ff" d="M77,-164.75C77,-157.8 77,-147.85 77,-139.13"/>
<polygon fill="#63b8ff" stroke="#63b8ff" points="80.5,-139.09 77,-129.09 73.5,-139.09 80.5,-139.09"/>
</g>
<!-- Node3 -->
<g id="node3" class="node">
<title>Node3</title>
<g id="a_node3"><a xlink:href="global__opts_8h.html" target="_top" xlink:title="Custom memory allocation, print and utility functions, and data types for floats and ints.">
<polygon fill="white" stroke="#666666" points="153,-74 71,-74 71,-55 153,-55 153,-74"/>
<text text-anchor="middle" x="112" y="-62" font-family="Helvetica,sans-Serif" font-size="10.00">global_opts.h</text>
</a>
</g>
</g>
<!-- Node2&#45;&gt;Node3 -->
<g id="edge2" class="edge">
<title>Node2&#45;&gt;Node3</title>
<path fill="none" stroke="#63b8ff" d="M82.78,-109.75C87.62,-102.42 94.68,-91.73 100.64,-82.7"/>
<polygon fill="#63b8ff" stroke="#63b8ff" points="103.74,-84.36 106.33,-74.09 97.9,-80.5 103.74,-84.36"/>
</g>
<!-- Node4 -->
<g id="node4" class="node">
<title>Node4</title>
<g id="a_node4"><a xlink:title=" ">
<polygon fill="#e0e0e0" stroke="#999999" points="68,-19 18,-19 18,0 68,0 68,-19"/>
<text text-anchor="middle" x="43" y="-7" font-family="Helvetica,sans-Serif" font-size="10.00">ladel.h</text>
</a>
</g>
</g>
<!-- Node2&#45;&gt;Node4 -->
<g id="edge5" class="edge">
<title>Node2&#45;&gt;Node4</title>
<path fill="none" stroke="#63b8ff" d="M74.04,-110C70.95,-101.06 66,-86.59 62,-74 57.2,-58.9 52.07,-41.68 48.35,-28.98"/>
<polygon fill="#63b8ff" stroke="#63b8ff" points="51.64,-27.78 45.49,-19.16 44.92,-29.74 51.64,-27.78"/>
</g>
<!-- Node3&#45;&gt;Node4 -->
<g id="edge3" class="edge">
<title>Node3&#45;&gt;Node4</title>
<path fill="none" stroke="#63b8ff" d="M100.91,-54.98C90.51,-47 74.74,-34.88 62.28,-25.31"/>
<polygon fill="#63b8ff" stroke="#63b8ff" points="64.35,-22.49 54.29,-19.17 60.09,-28.04 64.35,-22.49"/>
</g>
<!-- Node5 -->
<g id="node5" class="node">
<title>Node5</title>
<g id="a_node5"><a xlink:title=" ">
<polygon fill="#e0e0e0" stroke="#999999" points="137.5,-19 86.5,-19 86.5,0 137.5,0 137.5,-19"/>
<text text-anchor="middle" x="112" y="-7" font-family="Helvetica,sans-Serif" font-size="10.00">math.h</text>
</a>
</g>
</g>
<!-- Node3&#45;&gt;Node5 -->
<g id="edge4" class="edge">
<title>Node3&#45;&gt;Node5</title>
<path fill="none" stroke="#63b8ff" d="M112,-54.75C112,-47.8 112,-37.85 112,-29.13"/>
<polygon fill="#63b8ff" stroke="#63b8ff" points="115.5,-29.09 112,-19.09 108.5,-29.09 115.5,-29.09"/>
</g>
</g>
</svg>
