<?xml version="1.0" encoding="UTF-8" standalone="no"?>
<!DOCTYPE svg PUBLIC "-//W3C//DTD SVG 1.1//EN"
 "http://www.w3.org/Graphics/SVG/1.1/DTD/svg11.dtd">
<!-- Generated by graphviz version 2.43.0 (0)
 -->
<!-- Title: QPALM/interfaces/cxx/src/qpalm.cpp Pages: 1 -->
<svg width="1286pt" height="423pt"
 viewBox="0.00 0.00 1285.90 423.00" xmlns="http://www.w3.org/2000/svg" xmlns:xlink="http://www.w3.org/1999/xlink">
<g id="graph0" class="graph" transform="scale(1 1) rotate(0) translate(4 419)">
<title>QPALM/interfaces/cxx/src/qpalm.cpp</title>
<!-- Node1 -->
<g id="node1" class="node">
<title>Node1</title>
<g id="a_node1"><a xlink:title=" ">
<polygon fill="#999999" stroke="#666666" points="743,-415 621,-415 621,-385 743,-385 743,-415"/>
<text text-anchor="start" x="629" y="-403" font-family="Helvetica,sans-Serif" font-size="10.00">QPALM/interfaces/cxx</text>
<text text-anchor="middle" x="682" y="-392" font-family="Helvetica,sans-Serif" font-size="10.00">/src/qpalm.cpp</text>
</a>
</g>
</g>
<!-- Node2 -->
<g id="node2" class="node">
<title>Node2</title>
<g id="a_node2"><a xlink:href="qpalm_8hpp.html" target="_top" xlink:title=" ">
<polygon fill="white" stroke="#666666" points="517,-184 449,-184 449,-165 517,-165 517,-184"/>
<text text-anchor="middle" x="483" y="-172" font-family="Helvetica,sans-Serif" font-size="10.00">qpalm.hpp</text>
</a>
</g>
</g>
<!-- Node1&#45;&gt;Node2 -->
<g id="edge1" class="edge">
<title>Node1&#45;&gt;Node2</title>
<path fill="none" stroke="#63b8ff" d="M652.01,-384.86C618.4,-367.65 564.28,-335.66 531,-294 506.61,-263.47 493.07,-218.89 486.99,-194.03"/>
<polygon fill="#63b8ff" stroke="#63b8ff" points="490.36,-193.07 484.7,-184.11 483.53,-194.64 490.36,-193.07"/>
</g>
<!-- Node16 -->
<g id="node16" class="node">
<title>Node16</title>
<g id="a_node16"><a xlink:href="qpalm_8h.html" target="_top" xlink:title="QPALM main solver API.">
<polygon fill="white" stroke="#666666" points="929,-349 873,-349 873,-330 929,-330 929,-349"/>
<text text-anchor="middle" x="901" y="-337" font-family="Helvetica,sans-Serif" font-size="10.00">qpalm.h</text>
</a>
</g>
</g>
<!-- Node1&#45;&gt;Node16 -->
<g id="edge17" class="edge">
<title>Node1&#45;&gt;Node16</title>
<path fill="none" stroke="#63b8ff" d="M734.46,-384.99C773.96,-374.44 827.21,-360.21 862.75,-350.72"/>
<polygon fill="#63b8ff" stroke="#63b8ff" points="863.97,-354.01 872.73,-348.05 862.17,-347.25 863.97,-354.01"/>
</g>
<!-- Node3 -->
<g id="node3" class="node">
<title>Node3</title>
<g id="a_node3"><a xlink:href="sparse_8hpp.html" target="_top" xlink:title=" ">
<polygon fill="white" stroke="#666666" points="440,-129 370,-129 370,-110 440,-110 440,-129"/>
<text text-anchor="middle" x="405" y="-117" font-family="Helvetica,sans-Serif" font-size="10.00">sparse.hpp</text>
</a>
</g>
</g>
<!-- Node2&#45;&gt;Node3 -->
<g id="edge2" class="edge">
<title>Node2&#45;&gt;Node3</title>
<path fill="none" stroke="#63b8ff" d="M470.47,-164.98C458.6,-156.92 440.54,-144.65 426.39,-135.03"/>
<polygon fill="#63b8ff" stroke="#63b8ff" points="428,-131.9 417.76,-129.17 424.06,-137.69 428,-131.9"/>
</g>
<!-- Node14 -->
<g id="node14" class="node">
<title>Node14</title>
<g id="a_node14"><a xlink:href="types_8h.html" target="_top" xlink:title="Internal data structures used in QPALM.">
<polygon fill="white" stroke="#666666" points="891.5,-129 838.5,-129 838.5,-110 891.5,-110 891.5,-129"/>
<text text-anchor="middle" x="865" y="-117" font-family="Helvetica,sans-Serif" font-size="10.00">types.h</text>
</a>
</g>
</g>
<!-- Node2&#45;&gt;Node14 -->
<g id="edge13" class="edge">
<title>Node2&#45;&gt;Node14</title>
<path fill="none" stroke="#63b8ff" d="M517.24,-168.75C588.8,-158.82 753.71,-135.94 827.78,-125.66"/>
<polygon fill="#63b8ff" stroke="#63b8ff" points="828.61,-129.08 838.03,-124.24 827.65,-122.15 828.61,-129.08"/>
</g>
<!-- Node15 -->
<g id="node15" class="node">
<title>Node15</title>
<g id="a_node15"><a xlink:title=" ">
<polygon fill="#e0e0e0" stroke="#999999" points="514,-129 458,-129 458,-110 514,-110 514,-129"/>
<text text-anchor="middle" x="486" y="-117" font-family="Helvetica,sans-Serif" font-size="10.00">optional</text>
</a>
</g>
</g>
<!-- Node2&#45;&gt;Node15 -->
<g id="edge16" class="edge">
<title>Node2&#45;&gt;Node15</title>
<path fill="none" stroke="#63b8ff" d="M483.5,-164.75C483.89,-157.8 484.45,-147.85 484.95,-139.13"/>
<polygon fill="#63b8ff" stroke="#63b8ff" points="488.44,-139.27 485.51,-129.09 481.45,-138.88 488.44,-139.27"/>
</g>
<!-- Node4 -->
<g id="node4" class="node">
<title>Node4</title>
<g id="a_node4"><a xlink:title=" ">
<polygon fill="#e0e0e0" stroke="#999999" points="400,-74 320,-74 320,-55 400,-55 400,-74"/>
<text text-anchor="middle" x="360" y="-62" font-family="Helvetica,sans-Serif" font-size="10.00">Eigen/Sparse</text>
</a>
</g>
</g>
<!-- Node3&#45;&gt;Node4 -->
<g id="edge3" class="edge">
<title>Node3&#45;&gt;Node4</title>
<path fill="none" stroke="#63b8ff" d="M397.57,-109.75C391.15,-102.18 381.69,-91.05 373.88,-81.84"/>
<polygon fill="#63b8ff" stroke="#63b8ff" points="376.43,-79.45 367.29,-74.09 371.1,-83.98 376.43,-79.45"/>
</g>
<!-- Node5 -->
<g id="node5" class="node">
<title>Node5</title>
<g id="a_node5"><a xlink:title=" ">
<polygon fill="#e0e0e0" stroke="#999999" points="537.5,-74 418.5,-74 418.5,-55 537.5,-55 537.5,-74"/>
<text text-anchor="middle" x="478" y="-62" font-family="Helvetica,sans-Serif" font-size="10.00">Eigen/src/Core/Map.h</text>
</a>
</g>
</g>
<!-- Node3&#45;&gt;Node5 -->
<g id="edge4" class="edge">
<title>Node3&#45;&gt;Node5</title>
<path fill="none" stroke="#63b8ff" d="M416.73,-109.98C427.73,-102 444.42,-89.88 457.6,-80.31"/>
<polygon fill="#63b8ff" stroke="#63b8ff" points="460.02,-82.88 466.06,-74.17 455.91,-77.21 460.02,-82.88"/>
</g>
<!-- Node6 -->
<g id="node6" class="node">
<title>Node6</title>
<g id="a_node6"><a xlink:title=" ">
<polygon fill="#e0e0e0" stroke="#999999" points="686,-74 556,-74 556,-55 686,-55 686,-74"/>
<text text-anchor="middle" x="621" y="-62" font-family="Helvetica,sans-Serif" font-size="10.00">Eigen/src/Core/Matrix.h</text>
</a>
</g>
</g>
<!-- Node3&#45;&gt;Node6 -->
<g id="edge5" class="edge">
<title>Node3&#45;&gt;Node6</title>
<path fill="none" stroke="#63b8ff" d="M439.7,-109.98C476.75,-100.89 535.59,-86.46 576.13,-76.51"/>
<polygon fill="#63b8ff" stroke="#63b8ff" points="577.15,-79.86 586.02,-74.08 575.48,-73.07 577.15,-79.86"/>
</g>
<!-- Node7 -->
<g id="node7" class="node">
<title>Node7</title>
<g id="a_node7"><a xlink:href="global__opts_8h.html" target="_top" xlink:title="Custom memory allocation, print and utility functions, and data types for floats and ints.">
<polygon fill="white" stroke="#666666" points="906,-74 824,-74 824,-55 906,-55 906,-74"/>
<text text-anchor="middle" x="865" y="-62" font-family="Helvetica,sans-Serif" font-size="10.00">global_opts.h</text>
</a>
</g>
</g>
<!-- Node3&#45;&gt;Node7 -->
<g id="edge6" class="edge">
<title>Node3&#45;&gt;Node7</title>
<path fill="none" stroke="#63b8ff" d="M440.01,-111.43C443.05,-110.91 446.07,-110.43 449,-110 607.43,-86.96 651.21,-95.35 813.48,-74.11"/>
<polygon fill="#63b8ff" stroke="#63b8ff" points="814.38,-77.52 823.83,-72.73 813.46,-70.58 814.38,-77.52"/>
</g>
<!-- Node10 -->
<g id="node10" class="node">
<title>Node10</title>
<g id="a_node10"><a xlink:title=" ">
<polygon fill="#e0e0e0" stroke="#999999" points="806,-74 704,-74 704,-55 806,-55 806,-74"/>
<text text-anchor="middle" x="755" y="-62" font-family="Helvetica,sans-Serif" font-size="10.00">ladel_constants.h</text>
</a>
</g>
</g>
<!-- Node3&#45;&gt;Node10 -->
<g id="edge9" class="edge">
<title>Node3&#45;&gt;Node10</title>
<path fill="none" stroke="#63b8ff" d="M440.04,-111.58C443.07,-111.03 446.08,-110.49 449,-110 472.56,-106.01 611.41,-86.04 693.75,-74.25"/>
<polygon fill="#63b8ff" stroke="#63b8ff" points="694.34,-77.7 703.75,-72.82 693.35,-70.77 694.34,-77.7"/>
</g>
<!-- Node11 -->
<g id="node11" class="node">
<title>Node11</title>
<g id="a_node11"><a xlink:title=" ">
<polygon fill="#e0e0e0" stroke="#999999" points="82,-74 0,-74 0,-55 82,-55 82,-74"/>
<text text-anchor="middle" x="41" y="-62" font-family="Helvetica,sans-Serif" font-size="10.00">ladel_types.h</text>
</a>
</g>
</g>
<!-- Node3&#45;&gt;Node11 -->
<g id="edge10" class="edge">
<title>Node3&#45;&gt;Node11</title>
<path fill="none" stroke="#63b8ff" d="M369.64,-113.81C313.21,-106.26 199.1,-90.7 92.18,-74.15"/>
<polygon fill="#63b8ff" stroke="#63b8ff" points="92.61,-70.67 82.19,-72.59 91.53,-77.59 92.61,-70.67"/>
</g>
<!-- Node12 -->
<g id="node12" class="node">
<title>Node12</title>
<g id="a_node12"><a xlink:title=" ">
<polygon fill="#e0e0e0" stroke="#999999" points="158,-74 100,-74 100,-55 158,-55 158,-74"/>
<text text-anchor="middle" x="129" y="-62" font-family="Helvetica,sans-Serif" font-size="10.00">memory</text>
</a>
</g>
</g>
<!-- Node3&#45;&gt;Node12 -->
<g id="edge11" class="edge">
<title>Node3&#45;&gt;Node12</title>
<path fill="none" stroke="#63b8ff" d="M369.84,-112.33C325.24,-104.41 245.72,-89.99 167.98,-74.14"/>
<polygon fill="#63b8ff" stroke="#63b8ff" points="168.52,-70.68 158.02,-72.1 167.12,-77.54 168.52,-70.68"/>
</g>
<!-- Node13 -->
<g id="node13" class="node">
<title>Node13</title>
<g id="a_node13"><a xlink:href="qpalm__cxx-export_8hpp.html" target="_top" xlink:title=" ">
<polygon fill="white" stroke="#666666" points="302,-74 176,-74 176,-55 302,-55 302,-74"/>
<text text-anchor="middle" x="239" y="-62" font-family="Helvetica,sans-Serif" font-size="10.00">qpalm_cxx&#45;export.hpp</text>
</a>
</g>
</g>
<!-- Node3&#45;&gt;Node13 -->
<g id="edge12" class="edge">
<title>Node3&#45;&gt;Node13</title>
<path fill="none" stroke="#63b8ff" d="M378.33,-109.98C350.46,-101.09 306.55,-87.07 275.48,-77.15"/>
<polygon fill="#63b8ff" stroke="#63b8ff" points="276.47,-73.79 265.88,-74.08 274.34,-80.46 276.47,-73.79"/>
</g>
<!-- Node8 -->
<g id="node8" class="node">
<title>Node8</title>
<g id="a_node8"><a xlink:title=" ">
<polygon fill="#e0e0e0" stroke="#999999" points="1003,-19 953,-19 953,0 1003,0 1003,-19"/>
<text text-anchor="middle" x="978" y="-7" font-family="Helvetica,sans-Serif" font-size="10.00">ladel.h</text>
</a>
</g>
</g>
<!-- Node7&#45;&gt;Node8 -->
<g id="edge7" class="edge">
<title>Node7&#45;&gt;Node8</title>
<path fill="none" stroke="#63b8ff" d="M883.16,-54.98C901.25,-46.5 929.28,-33.35 950.19,-23.54"/>
<polygon fill="#63b8ff" stroke="#63b8ff" points="951.95,-26.59 959.51,-19.17 948.97,-20.25 951.95,-26.59"/>
</g>
<!-- Node9 -->
<g id="node9" class="node">
<title>Node9</title>
<g id="a_node9"><a xlink:title=" ">
<polygon fill="#e0e0e0" stroke="#999999" points="890.5,-19 839.5,-19 839.5,0 890.5,0 890.5,-19"/>
<text text-anchor="middle" x="865" y="-7" font-family="Helvetica,sans-Serif" font-size="10.00">math.h</text>
</a>
</g>
</g>
<!-- Node7&#45;&gt;Node9 -->
<g id="edge8" class="edge">
<title>Node7&#45;&gt;Node9</title>
<path fill="none" stroke="#63b8ff" d="M865,-54.75C865,-47.8 865,-37.85 865,-29.13"/>
<polygon fill="#63b8ff" stroke="#63b8ff" points="868.5,-29.09 865,-19.09 861.5,-29.09 868.5,-29.09"/>
</g>
<!-- Node14&#45;&gt;Node7 -->
<g id="edge14" class="edge">
<title>Node14&#45;&gt;Node7</title>
<path fill="none" stroke="#63b8ff" d="M865,-109.75C865,-102.8 865,-92.85 865,-84.13"/>
<polygon fill="#63b8ff" stroke="#63b8ff" points="868.5,-84.09 865,-74.09 861.5,-84.09 868.5,-84.09"/>
</g>
<!-- Node14&#45;&gt;Node8 -->
<g id="edge15" class="edge">
<title>Node14&#45;&gt;Node8</title>
<path fill="none" stroke="#63b8ff" d="M875.13,-109.81C885.34,-100.97 901.5,-86.79 915,-74 931.62,-58.26 949.99,-39.59 962.58,-26.59"/>
<polygon fill="#63b8ff" stroke="#63b8ff" points="965.19,-28.93 969.61,-19.3 960.15,-24.07 965.19,-28.93"/>
</g>
<!-- Node16&#45;&gt;Node7 -->
<g id="edge20" class="edge">
<title>Node16&#45;&gt;Node7</title>
<path fill="none" stroke="#63b8ff" d="M872.78,-338.51C821.47,-337.55 710.4,-330.95 626,-294 584.1,-275.65 545,-276.24 545,-230.5 545,-230.5 545,-230.5 545,-173.5 545,-145.02 729.27,-97.57 818.14,-76.35"/>
<polygon fill="#63b8ff" stroke="#63b8ff" points="819.06,-79.73 827.98,-74.01 817.44,-72.92 819.06,-79.73"/>
</g>
<!-- Node16&#45;&gt;Node14 -->
<g id="edge45" class="edge">
<title>Node16&#45;&gt;Node14</title>
<path fill="none" stroke="#63b8ff" d="M872.79,-337.17C818.42,-333.95 702.35,-323.69 678,-294 622.46,-226.28 764.34,-159.64 831.76,-132.83"/>
<polygon fill="#63b8ff" stroke="#63b8ff" points="833.09,-136.07 841.13,-129.17 830.54,-129.55 833.09,-136.07"/>
</g>
<!-- Node17 -->
<g id="node17" class="node">
<title>Node17</title>
<g id="a_node17"><a xlink:href="constants_8h.html" target="_top" xlink:title="Constants used in QPALM.">
<polygon fill="white" stroke="#666666" points="1161.5,-129 1088.5,-129 1088.5,-110 1161.5,-110 1161.5,-129"/>
<text text-anchor="middle" x="1125" y="-117" font-family="Helvetica,sans-Serif" font-size="10.00">constants.h</text>
</a>
</g>
</g>
<!-- Node16&#45;&gt;Node17 -->
<g id="edge18" class="edge">
<title>Node16&#45;&gt;Node17</title>
<path fill="none" stroke="#63b8ff" d="M929.03,-337.95C1004.11,-334.7 1208.47,-313.84 1274,-184 1295.46,-141.49 1223.33,-127.44 1172.04,-122.79"/>
<polygon fill="#63b8ff" stroke="#63b8ff" points="1172.03,-119.28 1161.78,-121.96 1171.46,-126.25 1172.03,-119.28"/>
</g>
<!-- Node18 -->
<g id="node18" class="node">
<title>Node18</title>
<g id="a_node18"><a xlink:href="iteration_8h.html" target="_top" xlink:title="QPALM main solver routines.">
<polygon fill="white" stroke="#666666" points="640.5,-184 573.5,-184 573.5,-165 640.5,-165 640.5,-184"/>
<text text-anchor="middle" x="607" y="-172" font-family="Helvetica,sans-Serif" font-size="10.00">iteration.h</text>
</a>
</g>
</g>
<!-- Node16&#45;&gt;Node18 -->
<g id="edge21" class="edge">
<title>Node16&#45;&gt;Node18</title>
<path fill="none" stroke="#63b8ff" d="M872.72,-337.2C813.4,-333.91 678.68,-323.32 645,-294 615.9,-268.67 608.91,-221.02 607.34,-194.51"/>
<polygon fill="#63b8ff" stroke="#63b8ff" points="610.83,-194.13 606.95,-184.27 603.83,-194.4 610.83,-194.13"/>
</g>
<!-- Node19 -->
<g id="node19" class="node">
<title>Node19</title>
<g id="a_node19"><a xlink:href="lin__alg_8h.html" target="_top" xlink:title="Linear algebra with vectors.">
<polygon fill="white" stroke="#666666" points="1008,-239 950,-239 950,-220 1008,-220 1008,-239"/>
<text text-anchor="middle" x="979" y="-227" font-family="Helvetica,sans-Serif" font-size="10.00">lin_alg.h</text>
</a>
</g>
</g>
<!-- Node16&#45;&gt;Node19 -->
<g id="edge24" class="edge">
<title>Node16&#45;&gt;Node19</title>
<path fill="none" stroke="#63b8ff" d="M907.38,-329.66C920.36,-311.69 950.01,-270.64 966.81,-247.38"/>
<polygon fill="#63b8ff" stroke="#63b8ff" points="969.73,-249.31 972.75,-239.16 964.05,-245.22 969.73,-249.31"/>
</g>
<!-- Node20 -->
<g id="node20" class="node">
<title>Node20</title>
<g id="a_node20"><a xlink:href="solver__interface_8h.html" target="_top" xlink:title="Interface and wrapper to matrix/factorization (ladel) functions.">
<polygon fill="white" stroke="#666666" points="1073,-184 969,-184 969,-165 1073,-165 1073,-184"/>
<text text-anchor="middle" x="1021" y="-172" font-family="Helvetica,sans-Serif" font-size="10.00">solver_interface.h</text>
</a>
</g>
</g>
<!-- Node16&#45;&gt;Node20 -->
<g id="edge42" class="edge">
<title>Node16&#45;&gt;Node20</title>
<path fill="none" stroke="#63b8ff" d="M929.01,-334.46C969.15,-328.04 1039.86,-314.13 1055,-294 1078.15,-263.21 1051.94,-217.13 1034.33,-192.49"/>
<polygon fill="#63b8ff" stroke="#63b8ff" points="1036.91,-190.09 1028.13,-184.17 1031.3,-194.28 1036.91,-190.09"/>
</g>
<!-- Node21 -->
<g id="node21" class="node">
<title>Node21</title>
<g id="a_node21"><a xlink:href="linesearch_8h.html" target="_top" xlink:title="Routines to perform exact linesearch.">
<polygon fill="white" stroke="#666666" points="1265,-184 1189,-184 1189,-165 1265,-165 1265,-184"/>
<text text-anchor="middle" x="1227" y="-172" font-family="Helvetica,sans-Serif" font-size="10.00">linesearch.h</text>
</a>
</g>
</g>
<!-- Node16&#45;&gt;Node21 -->
<g id="edge31" class="edge">
<title>Node16&#45;&gt;Node21</title>
<path fill="none" stroke="#63b8ff" d="M929.17,-336.63C968.69,-333.03 1041.94,-322.75 1097,-294 1146.86,-267.97 1192.27,-218.06 1213.82,-192.1"/>
<polygon fill="#63b8ff" stroke="#63b8ff" points="1216.58,-194.25 1220.18,-184.29 1211.16,-189.83 1216.58,-194.25"/>
</g>
<!-- Node22 -->
<g id="node22" class="node">
<title>Node22</title>
<g id="a_node22"><a xlink:href="newton_8h.html" target="_top" xlink:title="Functions to calculate the semismooth Newton direction.">
<polygon fill="white" stroke="#666666" points="835,-239 773,-239 773,-220 835,-220 835,-239"/>
<text text-anchor="middle" x="804" y="-227" font-family="Helvetica,sans-Serif" font-size="10.00">newton.h</text>
</a>
</g>
</g>
<!-- Node16&#45;&gt;Node22 -->
<g id="edge34" class="edge">
<title>Node16&#45;&gt;Node22</title>
<path fill="none" stroke="#63b8ff" d="M897.03,-329.58C890.96,-316.61 878.45,-292.2 863,-275 852.48,-263.29 838.49,-252.58 826.77,-244.6"/>
<polygon fill="#63b8ff" stroke="#63b8ff" points="828.63,-241.63 818.35,-239.06 824.78,-247.48 828.63,-241.63"/>
</g>
<!-- Node23 -->
<g id="node23" class="node">
<title>Node23</title>
<g id="a_node23"><a xlink:href="nonconvex_8h.html" target="_top" xlink:title="Routines to deal with nonconvex QPs.">
<polygon fill="white" stroke="#666666" points="932.5,-239 853.5,-239 853.5,-220 932.5,-220 932.5,-239"/>
<text text-anchor="middle" x="893" y="-227" font-family="Helvetica,sans-Serif" font-size="10.00">nonconvex.h</text>
</a>
</g>
</g>
<!-- Node16&#45;&gt;Node23 -->
<g id="edge36" class="edge">
<title>Node16&#45;&gt;Node23</title>
<path fill="none" stroke="#63b8ff" d="M900.35,-329.66C899.05,-312.17 896.13,-272.8 894.39,-249.27"/>
<polygon fill="#63b8ff" stroke="#63b8ff" points="897.87,-248.87 893.64,-239.16 890.89,-249.39 897.87,-248.87"/>
</g>
<!-- Node24 -->
<g id="node24" class="node">
<title>Node24</title>
<g id="a_node24"><a xlink:href="scaling_8h.html" target="_top" xlink:title="Problem data scaling during setup.">
<polygon fill="white" stroke="#666666" points="1046,-294 986,-294 986,-275 1046,-275 1046,-294"/>
<text text-anchor="middle" x="1016" y="-282" font-family="Helvetica,sans-Serif" font-size="10.00">scaling.h</text>
</a>
</g>
</g>
<!-- Node16&#45;&gt;Node24 -->
<g id="edge38" class="edge">
<title>Node16&#45;&gt;Node24</title>
<path fill="none" stroke="#63b8ff" d="M919.48,-329.98C937.98,-321.46 966.68,-308.23 987.98,-298.41"/>
<polygon fill="#63b8ff" stroke="#63b8ff" points="989.57,-301.53 997.19,-294.17 986.64,-295.18 989.57,-301.53"/>
</g>
<!-- Node25 -->
<g id="node25" class="node">
<title>Node25</title>
<g id="a_node25"><a xlink:href="termination_8h.html" target="_top" xlink:title="Routines to check the termination and infeasibility criteria.">
<polygon fill="white" stroke="#666666" points="770.5,-294 687.5,-294 687.5,-275 770.5,-275 770.5,-294"/>
<text text-anchor="middle" x="729" y="-282" font-family="Helvetica,sans-Serif" font-size="10.00">termination.h</text>
</a>
</g>
</g>
<!-- Node16&#45;&gt;Node25 -->
<g id="edge43" class="edge">
<title>Node16&#45;&gt;Node25</title>
<path fill="none" stroke="#63b8ff" d="M873.37,-329.98C844.49,-321.09 798.99,-307.07 766.8,-297.15"/>
<polygon fill="#63b8ff" stroke="#63b8ff" points="767.44,-293.68 756.85,-294.08 765.38,-300.37 767.44,-293.68"/>
</g>
<!-- Node26 -->
<g id="node26" class="node">
<title>Node26</title>
<g id="a_node26"><a xlink:href="util_8h.html" target="_top" xlink:title="Utility functions.">
<polygon fill="white" stroke="#666666" points="1170.5,-184 1129.5,-184 1129.5,-165 1170.5,-165 1170.5,-184"/>
<text text-anchor="middle" x="1150" y="-172" font-family="Helvetica,sans-Serif" font-size="10.00">util.h</text>
</a>
</g>
</g>
<!-- Node16&#45;&gt;Node26 -->
<g id="edge46" class="edge">
<title>Node16&#45;&gt;Node26</title>
<path fill="none" stroke="#63b8ff" d="M929.23,-337.38C965.64,-334.64 1029.44,-325.35 1073,-294 1108.88,-268.18 1132.4,-220 1143.18,-193.73"/>
<polygon fill="#63b8ff" stroke="#63b8ff" points="1146.51,-194.82 1146.91,-184.24 1140,-192.26 1146.51,-194.82"/>
</g>
<!-- Node27 -->
<g id="node27" class="node">
<title>Node27</title>
<g id="a_node27"><a xlink:href="validate_8h.html" target="_top" xlink:title="Validation of the user provided settings and data.">
<polygon fill="white" stroke="#666666" points="853.5,-294 788.5,-294 788.5,-275 853.5,-275 853.5,-294"/>
<text text-anchor="middle" x="821" y="-282" font-family="Helvetica,sans-Serif" font-size="10.00">validate.h</text>
</a>
</g>
</g>
<!-- Node16&#45;&gt;Node27 -->
<g id="edge49" class="edge">
<title>Node16&#45;&gt;Node27</title>
<path fill="none" stroke="#63b8ff" d="M888.15,-329.98C875.86,-321.84 857.09,-309.41 842.52,-299.76"/>
<polygon fill="#63b8ff" stroke="#63b8ff" points="844.36,-296.78 834.09,-294.17 840.49,-302.61 844.36,-296.78"/>
</g>
<!-- Node17&#45;&gt;Node8 -->
<g id="edge19" class="edge">
<title>Node17&#45;&gt;Node8</title>
<path fill="none" stroke="#63b8ff" d="M1113.22,-109.84C1088.17,-91.44 1029.36,-48.23 998.2,-25.34"/>
<polygon fill="#63b8ff" stroke="#63b8ff" points="999.97,-22.3 989.84,-19.2 995.82,-27.94 999.97,-22.3"/>
</g>
<!-- Node18&#45;&gt;Node7 -->
<g id="edge23" class="edge">
<title>Node18&#45;&gt;Node7</title>
<path fill="none" stroke="#63b8ff" d="M627.68,-164.84C673.17,-145.8 782.11,-100.2 835.07,-78.03"/>
<polygon fill="#63b8ff" stroke="#63b8ff" points="836.71,-81.14 844.58,-74.05 834.01,-74.68 836.71,-81.14"/>
</g>
<!-- Node18&#45;&gt;Node14 -->
<g id="edge22" class="edge">
<title>Node18&#45;&gt;Node14</title>
<path fill="none" stroke="#63b8ff" d="M640.73,-166.57C689.19,-156.62 778.17,-138.34 828.25,-128.05"/>
<polygon fill="#63b8ff" stroke="#63b8ff" points="829.22,-131.42 838.32,-125.98 827.82,-124.57 829.22,-131.42"/>
</g>
<!-- Node19&#45;&gt;Node14 -->
<g id="edge25" class="edge">
<title>Node19&#45;&gt;Node14</title>
<path fill="none" stroke="#63b8ff" d="M968.4,-219.9C957.72,-211.13 940.88,-197 927,-184 910.42,-168.48 892.38,-149.78 880.05,-136.7"/>
<polygon fill="#63b8ff" stroke="#63b8ff" points="882.58,-134.28 873.18,-129.37 877.47,-139.06 882.58,-134.28"/>
</g>
<!-- Node19&#45;&gt;Node20 -->
<g id="edge26" class="edge">
<title>Node19&#45;&gt;Node20</title>
<path fill="none" stroke="#63b8ff" d="M985.94,-219.75C991.87,-212.26 1000.57,-201.28 1007.82,-192.13"/>
<polygon fill="#63b8ff" stroke="#63b8ff" points="1010.73,-194.1 1014.19,-184.09 1005.24,-189.75 1010.73,-194.1"/>
</g>
<!-- Node20&#45;&gt;Node7 -->
<g id="edge27" class="edge">
<title>Node20&#45;&gt;Node7</title>
<path fill="none" stroke="#63b8ff" d="M1008.5,-164.84C981.8,-146.36 918.96,-102.86 886.01,-80.05"/>
<polygon fill="#63b8ff" stroke="#63b8ff" points="887.78,-77.01 877.56,-74.2 883.79,-82.77 887.78,-77.01"/>
</g>
<!-- Node20&#45;&gt;Node8 -->
<g id="edge30" class="edge">
<title>Node20&#45;&gt;Node8</title>
<path fill="none" stroke="#63b8ff" d="M1018.69,-164.74C1011.95,-139.2 992.23,-64.43 982.94,-29.23"/>
<polygon fill="#63b8ff" stroke="#63b8ff" points="986.26,-28.08 980.32,-19.31 979.49,-29.87 986.26,-28.08"/>
</g>
<!-- Node20&#45;&gt;Node14 -->
<g id="edge29" class="edge">
<title>Node20&#45;&gt;Node14</title>
<path fill="none" stroke="#63b8ff" d="M995.94,-164.98C969.97,-156.16 929.19,-142.31 900.04,-132.41"/>
<polygon fill="#63b8ff" stroke="#63b8ff" points="900.85,-128.99 890.26,-129.08 898.6,-135.61 900.85,-128.99"/>
</g>
<!-- Node20&#45;&gt;Node17 -->
<g id="edge28" class="edge">
<title>Node20&#45;&gt;Node17</title>
<path fill="none" stroke="#63b8ff" d="M1037.71,-164.98C1054.21,-156.57 1079.7,-143.59 1098.88,-133.81"/>
<polygon fill="#63b8ff" stroke="#63b8ff" points="1100.67,-136.83 1107.99,-129.17 1097.49,-130.59 1100.67,-136.83"/>
</g>
<!-- Node21&#45;&gt;Node14 -->
<g id="edge32" class="edge">
<title>Node21&#45;&gt;Node14</title>
<path fill="none" stroke="#63b8ff" d="M1188.8,-166.46C1185.83,-165.96 1182.87,-165.46 1180,-165 1079.64,-148.84 960.78,-132.92 901.88,-125.24"/>
<polygon fill="#63b8ff" stroke="#63b8ff" points="901.97,-121.72 891.6,-123.91 901.07,-128.66 901.97,-121.72"/>
</g>
<!-- Node21&#45;&gt;Node17 -->
<g id="edge33" class="edge">
<title>Node21&#45;&gt;Node17</title>
<path fill="none" stroke="#63b8ff" d="M1210.61,-164.98C1194.43,-156.57 1169.43,-143.59 1150.62,-133.81"/>
<polygon fill="#63b8ff" stroke="#63b8ff" points="1152.17,-130.68 1141.69,-129.17 1148.95,-136.89 1152.17,-130.68"/>
</g>
<!-- Node22&#45;&gt;Node14 -->
<g id="edge35" class="edge">
<title>Node22&#45;&gt;Node14</title>
<path fill="none" stroke="#63b8ff" d="M808.99,-219.66C819.05,-201.85 841.92,-161.37 855.11,-138.01"/>
<polygon fill="#63b8ff" stroke="#63b8ff" points="858.24,-139.59 860.11,-129.16 852.14,-136.14 858.24,-139.59"/>
</g>
<!-- Node23&#45;&gt;Node14 -->
<g id="edge37" class="edge">
<title>Node23&#45;&gt;Node14</title>
<path fill="none" stroke="#63b8ff" d="M890.71,-219.66C886.15,-202.09 875.88,-162.45 869.78,-138.95"/>
<polygon fill="#63b8ff" stroke="#63b8ff" points="873.14,-137.96 867.24,-129.16 866.37,-139.72 873.14,-137.96"/>
</g>
<!-- Node24&#45;&gt;Node14 -->
<g id="edge39" class="edge">
<title>Node24&#45;&gt;Node14</title>
<path fill="none" stroke="#63b8ff" d="M1018.75,-274.63C1022.19,-261.71 1026.58,-237.38 1017,-220 1002.54,-193.76 985.12,-200.33 960,-184 934.3,-167.3 905.01,-147.62 885.83,-134.65"/>
<polygon fill="#63b8ff" stroke="#63b8ff" points="887.77,-131.74 877.53,-129.03 883.85,-137.53 887.77,-131.74"/>
</g>
<!-- Node24&#45;&gt;Node17 -->
<g id="edge41" class="edge">
<title>Node24&#45;&gt;Node17</title>
<path fill="none" stroke="#63b8ff" d="M1023.01,-274.81C1030.05,-265.96 1041.11,-251.77 1050,-239 1074.35,-204.04 1100.46,-161.5 1114.54,-138.08"/>
<polygon fill="#63b8ff" stroke="#63b8ff" points="1117.67,-139.67 1119.8,-129.29 1111.66,-136.08 1117.67,-139.67"/>
</g>
<!-- Node24&#45;&gt;Node19 -->
<g id="edge40" class="edge">
<title>Node24&#45;&gt;Node19</title>
<path fill="none" stroke="#63b8ff" d="M1009.89,-274.75C1004.72,-267.34 997.15,-256.5 990.81,-247.41"/>
<polygon fill="#63b8ff" stroke="#63b8ff" points="993.59,-245.29 985,-239.09 987.85,-249.29 993.59,-245.29"/>
</g>
<!-- Node25&#45;&gt;Node14 -->
<g id="edge44" class="edge">
<title>Node25&#45;&gt;Node14</title>
<path fill="none" stroke="#63b8ff" d="M730.89,-274.99C735.93,-253.95 751.54,-198.73 783,-165 795.99,-151.07 814.35,-140.55 830.4,-133.24"/>
<polygon fill="#63b8ff" stroke="#63b8ff" points="832.23,-136.27 840.03,-129.11 829.46,-129.84 832.23,-136.27"/>
</g>
<!-- Node26&#45;&gt;Node14 -->
<g id="edge47" class="edge">
<title>Node26&#45;&gt;Node14</title>
<path fill="none" stroke="#63b8ff" d="M1129.04,-169.6C1080.92,-160.65 962.02,-138.54 901.56,-127.3"/>
<polygon fill="#63b8ff" stroke="#63b8ff" points="902.15,-123.85 891.68,-125.46 900.87,-130.73 902.15,-123.85"/>
</g>
<!-- Node26&#45;&gt;Node17 -->
<g id="edge48" class="edge">
<title>Node26&#45;&gt;Node17</title>
<path fill="none" stroke="#63b8ff" d="M1145.87,-164.75C1142.49,-157.57 1137.58,-147.18 1133.38,-138.27"/>
<polygon fill="#63b8ff" stroke="#63b8ff" points="1136.48,-136.64 1129.05,-129.09 1130.15,-139.63 1136.48,-136.64"/>
</g>
<!-- Node27&#45;&gt;Node14 -->
<g id="edge50" class="edge">
<title>Node27&#45;&gt;Node14</title>
<path fill="none" stroke="#63b8ff" d="M803.09,-274.88C782.94,-263.85 754.22,-243.37 764,-220 779.83,-182.18 817.81,-151.46 842.42,-134.6"/>
<polygon fill="#63b8ff" stroke="#63b8ff" points="844.42,-137.48 850.82,-129.04 840.55,-131.65 844.42,-137.48"/>
</g>
</g>
</svg>
