<?xml version="1.0" encoding="UTF-8" standalone="no"?>
<!DOCTYPE svg PUBLIC "-//W3C//DTD SVG 1.1//EN"
 "http://www.w3.org/Graphics/SVG/1.1/DTD/svg11.dtd">
<!-- Generated by graphviz version 2.43.0 (0)
 -->
<!-- Title: QPALMSettings Pages: 1 -->
<svg width="109pt" height="270pt"
 viewBox="0.00 0.00 109.00 270.00" xmlns="http://www.w3.org/2000/svg" xmlns:xlink="http://www.w3.org/1999/xlink">
<g id="graph0" class="graph" transform="scale(1 1) rotate(0) translate(4 266)">
<title>QPALMSettings</title>
<!-- Node1 -->
<g id="node1" class="node">
<title>Node1</title>
<g id="a_node1"><a xlink:title="Settings struct.">
<polygon fill="#999999" stroke="#666666" points="0,-94.5 0,-261.5 101,-261.5 101,-94.5 0,-94.5"/>
<text text-anchor="middle" x="50.5" y="-249.5" font-family="Helvetica,sans-Serif" font-size="10.00">QPALMSettings</text>
<polyline fill="none" stroke="#666666" points="0,-242.5 101,-242.5 "/>
<text text-anchor="start" x="8" y="-230.5" font-family="Helvetica,sans-Serif" font-size="10.00">+ max_iter</text>
<text text-anchor="start" x="8" y="-219.5" font-family="Helvetica,sans-Serif" font-size="10.00">+ inner_max_iter</text>
<text text-anchor="start" x="8" y="-208.5" font-family="Helvetica,sans-Serif" font-size="10.00">+ eps_abs</text>
<text text-anchor="start" x="8" y="-197.5" font-family="Helvetica,sans-Serif" font-size="10.00">+ eps_rel</text>
<text text-anchor="start" x="8" y="-186.5" font-family="Helvetica,sans-Serif" font-size="10.00">+ eps_abs_in</text>
<text text-anchor="start" x="8" y="-175.5" font-family="Helvetica,sans-Serif" font-size="10.00">+ eps_rel_in</text>
<text text-anchor="start" x="8" y="-164.5" font-family="Helvetica,sans-Serif" font-size="10.00">+ rho</text>
<text text-anchor="start" x="8" y="-153.5" font-family="Helvetica,sans-Serif" font-size="10.00">+ eps_prim_inf</text>
<text text-anchor="start" x="8" y="-142.5" font-family="Helvetica,sans-Serif" font-size="10.00">+ eps_dual_inf</text>
<text text-anchor="start" x="8" y="-131.5" font-family="Helvetica,sans-Serif" font-size="10.00">+ theta</text>
<text text-anchor="start" x="8" y="-120.5" font-family="Helvetica,sans-Serif" font-size="10.00">and 20 more...</text>
<polyline fill="none" stroke="#666666" points="0,-113.5 101,-113.5 "/>
<text text-anchor="middle" x="50.5" y="-101.5" font-family="Helvetica,sans-Serif" font-size="10.00"> </text>
</a>
</g>
</g>
<!-- Node2 -->
<g id="node2" class="node">
<title>Node2</title>
<g id="a_node2"><a xlink:href="structqpalm_1_1Settings.html" target="_top" xlink:title="Settings and parameters for the QPALM solver.">
<polygon fill="white" stroke="#666666" points="4,-0.5 4,-57.5 97,-57.5 97,-0.5 4,-0.5"/>
<text text-anchor="middle" x="50.5" y="-45.5" font-family="Helvetica,sans-Serif" font-size="10.00">qpalm::Settings</text>
<polyline fill="none" stroke="#666666" points="4,-38.5 97,-38.5 "/>
<text text-anchor="middle" x="50.5" y="-26.5" font-family="Helvetica,sans-Serif" font-size="10.00"> </text>
<polyline fill="none" stroke="#666666" points="4,-19.5 97,-19.5 "/>
<text text-anchor="start" x="12" y="-7.5" font-family="Helvetica,sans-Serif" font-size="10.00">+ Settings()</text>
</a>
</g>
</g>
<!-- Node1&#45;&gt;Node2 -->
<g id="edge1" class="edge">
<title>Node1&#45;&gt;Node2</title>
<path fill="none" stroke="#63b8ff" d="M50.5,-84.36C50.5,-74.79 50.5,-65.68 50.5,-57.75"/>
<polygon fill="none" stroke="#63b8ff" points="47,-84.48 50.5,-94.48 54,-84.48 47,-84.48"/>
</g>
</g>
</svg>
