<?xml version="1.0" encoding="UTF-8" standalone="no"?>
<!DOCTYPE svg PUBLIC "-//W3C//DTD SVG 1.1//EN"
 "http://www.w3.org/Graphics/SVG/1.1/DTD/svg11.dtd">
<!-- Generated by graphviz version 2.43.0 (0)
 -->
<!-- Title: store_solution Pages: 1 -->
<svg width="249pt" height="138pt"
 viewBox="0.00 0.00 249.00 138.00" xmlns="http://www.w3.org/2000/svg" xmlns:xlink="http://www.w3.org/1999/xlink">
<g id="graph0" class="graph" transform="scale(1 1) rotate(0) translate(4 134)">
<title>store_solution</title>
<!-- Node1 -->
<g id="node1" class="node">
<title>Node1</title>
<g id="a_node1"><a xlink:title="Helper function to store the (unscaled) solution in the solution struct.">
<polygon fill="#999999" stroke="#666666" points="86,-74 0,-74 0,-55 86,-55 86,-74"/>
<text text-anchor="middle" x="43" y="-62" font-family="Helvetica,sans-Serif" font-size="10.00">store_solution</text>
</a>
</g>
</g>
<!-- Node2 -->
<g id="node2" class="node">
<title>Node2</title>
<g id="a_node2"><a xlink:href="iteration_8c.html#ad071efc96075a8506c9c45448b9d48e6" target="_top" xlink:title="Compute the (unscaled) primal objective value at the current iterate.">
<polygon fill="white" stroke="#666666" points="236.5,-130 126.5,-130 126.5,-111 236.5,-111 236.5,-130"/>
<text text-anchor="middle" x="181.5" y="-118" font-family="Helvetica,sans-Serif" font-size="10.00">compute_objective</text>
</a>
</g>
</g>
<!-- Node1&#45;&gt;Node2 -->
<g id="edge1" class="edge">
<title>Node1&#45;&gt;Node2</title>
<path fill="none" stroke="#63b8ff" d="M61.62,-74.06C77.2,-82.27 100.7,-94.09 122,-102.5 126.7,-104.35 131.67,-106.14 136.65,-107.82"/>
<polygon fill="#63b8ff" stroke="#63b8ff" points="135.57,-111.15 146.16,-110.91 137.73,-104.49 135.57,-111.15"/>
</g>
<!-- Node3 -->
<g id="node3" class="node">
<title>Node3</title>
<g id="a_node3"><a xlink:href="lin__alg_8c.html#acf468a60c38fbc58b6de539acb6f0a3b" target="_top" xlink:title="Copy vector a into preallocated vector b.">
<polygon fill="white" stroke="#666666" points="226,-93 137,-93 137,-74 226,-74 226,-93"/>
<text text-anchor="middle" x="181.5" y="-81" font-family="Helvetica,sans-Serif" font-size="10.00">prea_vec_copy</text>
</a>
</g>
</g>
<!-- Node1&#45;&gt;Node3 -->
<g id="edge2" class="edge">
<title>Node1&#45;&gt;Node3</title>
<path fill="none" stroke="#63b8ff" d="M86.07,-70.36C98.93,-72.15 113.25,-74.14 126.77,-76.02"/>
<polygon fill="#63b8ff" stroke="#63b8ff" points="126.53,-79.52 136.92,-77.43 127.5,-72.59 126.53,-79.52"/>
</g>
<!-- Node4 -->
<g id="node4" class="node">
<title>Node4</title>
<g id="a_node4"><a xlink:href="lin__alg_8c.html#ab48ddb2d35dd1a04bd27f06cb49400cb" target="_top" xlink:title="Elementwise product, .">
<polygon fill="white" stroke="#666666" points="221.5,-56 141.5,-56 141.5,-37 221.5,-37 221.5,-56"/>
<text text-anchor="middle" x="181.5" y="-44" font-family="Helvetica,sans-Serif" font-size="10.00">vec_ew_prod</text>
</a>
</g>
</g>
<!-- Node1&#45;&gt;Node4 -->
<g id="edge3" class="edge">
<title>Node1&#45;&gt;Node4</title>
<path fill="none" stroke="#63b8ff" d="M86.07,-58.95C100.33,-57.07 116.38,-54.96 131.15,-53.01"/>
<polygon fill="#63b8ff" stroke="#63b8ff" points="131.68,-56.47 141.13,-51.69 130.76,-49.53 131.68,-56.47"/>
</g>
<!-- Node5 -->
<g id="node5" class="node">
<title>Node5</title>
<g id="a_node5"><a xlink:href="lin__alg_8c.html#a932b289ad07aea70e64b417ef9160674" target="_top" xlink:title="Mulitply vector with a constant scale factor.">
<polygon fill="white" stroke="#666666" points="241,-19 122,-19 122,0 241,0 241,-19"/>
<text text-anchor="middle" x="181.5" y="-7" font-family="Helvetica,sans-Serif" font-size="10.00">vec_self_mult_scalar</text>
</a>
</g>
</g>
<!-- Node1&#45;&gt;Node5 -->
<g id="edge4" class="edge">
<title>Node1&#45;&gt;Node5</title>
<path fill="none" stroke="#63b8ff" d="M62.96,-54.98C78.59,-47.32 101.45,-36.55 122,-28.5 127.48,-26.35 133.31,-24.25 139.08,-22.28"/>
<polygon fill="#63b8ff" stroke="#63b8ff" points="140.3,-25.56 148.68,-19.08 138.09,-18.92 140.3,-25.56"/>
</g>
</g>
</svg>
