<?xml version="1.0" encoding="UTF-8" standalone="no"?>
<!DOCTYPE svg PUBLIC "-//W3C//DTD SVG 1.1//EN"
 "http://www.w3.org/Graphics/SVG/1.1/DTD/svg11.dtd">
<!-- Generated by graphviz version 2.43.0 (0)
 -->
<!-- Title: newton_set_direction Pages: 1 -->
<!--zoomable 753 -->

<svg id="main" version="1.1" xmlns="http://www.w3.org/2000/svg" xmlns:xlink="http://www.w3.org/1999/xlink" xml:space="preserve" onload="init(evt)">
<style type="text/css"><![CDATA[
.node, .edge {opacity: 0.7;}
.node.selected, .edge.selected {opacity: 1;}
.edge:hover path { stroke: red; }
.edge:hover polygon { stroke: red; fill: red; }
]]></style>

<defs>
  <circle id="rim" cx="0" cy="0" r="7"/>
  <circle id="rim2" cx="0" cy="0" r="3.5"/>
  <g id="zoomPlus">
    <use xlink:href="#rim" fill="#404040"><set attributeName="fill" to="#808080" begin="zoomplus.mouseover" end="zoomplus.mouseout"/></use>
    <path d="M-4,0h8M0,-4v8" fill="none" stroke="white" stroke-width="1.5" pointer-events="none"/>
  </g>
  <g id="zoomMin">
    <use xlink:href="#rim" fill="#404040"><set attributeName="fill" to="#808080" begin="zoomminus.mouseover" end="zoomminus.mouseout"/></use>
    <path d="M-4,0h8" fill="none" stroke="white" stroke-width="1.5" pointer-events="none"/>
  </g>
  <g id="arrowUp" transform="translate(30 24)">
    <use xlink:href="#rim"/>
    <path pointer-events="none" fill="none" stroke="white" stroke-width="1.5" d="M0,-3.0v7 M-2.5,-0.5L0,-3.0L2.5,-0.5"/>
  </g>
  <g id="arrowRight" transform="rotate(90) translate(36 -43)">
    <use xlink:href="#rim"/>
    <path pointer-events="none" fill="none" stroke="white" stroke-width="1.5" d="M0,-3.0v7 M-2.5,-0.5L0,-3.0L2.5,-0.5"/>
  </g>
  <g id="arrowDown" transform="rotate(180) translate(-30 -48)">
    <use xlink:href="#rim"/>
    <path pointer-events="none" fill="none" stroke="white" stroke-width="1.5" d="M0,-3.0v7 M-2.5,-0.5L0,-3.0L2.5,-0.5"/>
  </g>
  <g id="arrowLeft" transform="rotate(270) translate(-36 17)">
    <use xlink:href="#rim"/>
    <path pointer-events="none" fill="none" stroke="white" stroke-width="1.5" d="M0,-3.0v7 M-2.5,-0.5L0,-3.0L2.5,-0.5"/>
  </g>
  <g id="resetDef">
    <use xlink:href="#rim2" fill="#404040"><set attributeName="fill" to="#808080" begin="reset.mouseover" end="reset.mouseout"/></use>
  </g>
</defs>
<script type="application/ecmascript">
var viewWidth = 446;
var viewHeight = 753;
var sectionId = 'dynsection-1';
</script>
<script type="application/ecmascript" xlink:href="svg.min.js"/>
<svg id="graph" class="graph">
<g id="viewport">
<title>newton_set_direction</title>
<!-- Node1 -->
<g id="Node000001" class="node">
<title>Node1</title>
<g id="a_Node000001"><a xlink:title="Sets work&#45;&gt;d to the direction calculated by the semismooth Newton method.">
<polygon fill="#999999" stroke="#666666" points="121,-370 0,-370 0,-351 121,-351 121,-370"/>
<text text-anchor="middle" x="60.5" y="-358" font-family="Helvetica,sans-Serif" font-size="10.00">newton_set_direction</text>
</a>
</g>
</g>
<!-- Node2 -->
<g id="Node000002" class="node">
<title>Node2</title>
<g id="a_Node000002"><a xlink:href="solver__interface_8c.html#aca80eaf7b897030273f1a6820b7e6d38" target="_top" xlink:title="Solve the KKT system &#160;.">
<polygon fill="white" stroke="#666666" points="252,-708 188,-708 188,-689 252,-689 252,-708"/>
<text text-anchor="middle" x="220" y="-696" font-family="Helvetica,sans-Serif" font-size="10.00">kkt_solve</text>
</a>
</g>
</g>
<!-- Node1&#45;&gt;Node2 -->
<g id="edge1_Node000001_Node000002" class="edge">
<title>Node1&#45;&gt;Node2</title>
<g id="a_edge1_Node000001_Node000002"><a xlink:title=" ">
<path fill="none" stroke="#63b8ff" d="M61.28,-370.25C60.86,-413.42 65.03,-589.22 157,-680.5 162.76,-686.22 170.22,-690.14 177.97,-692.83"/>
<polygon fill="#63b8ff" stroke="#63b8ff" points="177.24,-696.26 187.81,-695.61 179.14,-689.52 177.24,-696.26"/>
</a>
</g>
</g>
<!-- Node3 -->
<g id="Node000003" class="node">
<title>Node3</title>
<g id="a_Node000003"><a xlink:href="lin__alg_8c.html#acf468a60c38fbc58b6de539acb6f0a3b" target="_top" xlink:title="Copy vector a into preallocated vector b.">
<polygon fill="white" stroke="#666666" points="423,-708 334,-708 334,-689 423,-689 423,-708"/>
<text text-anchor="middle" x="378.5" y="-696" font-family="Helvetica,sans-Serif" font-size="10.00">prea_vec_copy</text>
</a>
</g>
</g>
<!-- Node1&#45;&gt;Node3 -->
<g id="edge17_Node000001_Node000003" class="edge">
<title>Node1&#45;&gt;Node3</title>
<g id="a_edge17_Node000001_Node000003"><a xlink:title=" ">
<path fill="none" stroke="#63b8ff" d="M62.52,-370.08C68.29,-422.4 98.73,-672.77 157,-717.5 182.88,-737.36 271.44,-722.52 328.14,-710.27"/>
<polygon fill="#63b8ff" stroke="#63b8ff" points="328.98,-713.67 337.99,-708.1 327.47,-706.83 328.98,-713.67"/>
</a>
</g>
</g>
<!-- Node4 -->
<g id="Node000004" class="node">
<title>Node4</title>
<g id="a_Node000004"><a xlink:href="lin__alg_8c.html#a932b289ad07aea70e64b417ef9160674" target="_top" xlink:title="Mulitply vector with a constant scale factor.">
<polygon fill="white" stroke="#666666" points="438,-671 319,-671 319,-652 438,-652 438,-671"/>
<text text-anchor="middle" x="378.5" y="-659" font-family="Helvetica,sans-Serif" font-size="10.00">vec_self_mult_scalar</text>
</a>
</g>
</g>
<!-- Node1&#45;&gt;Node4 -->
<g id="edge25_Node000001_Node000004" class="edge">
<title>Node1&#45;&gt;Node4</title>
<g id="a_edge25_Node000001_Node000004"><a xlink:title=" ">
<path fill="none" stroke="#63b8ff" d="M62.24,-370.18C65.56,-406.83 82.45,-538.41 157,-604.5 169.44,-615.53 260.66,-636.66 321.8,-649.86"/>
<polygon fill="#63b8ff" stroke="#63b8ff" points="321.21,-653.31 331.72,-651.99 322.68,-646.47 321.21,-653.31"/>
</a>
</g>
</g>
<!-- Node6 -->
<g id="Node000006" class="node">
<title>Node6</title>
<g id="a_Node000006"><a xlink:href="solver__interface_8c.html#a7ab6022f2624a8f13bf8f54067c9f2cd" target="_top" xlink:title="Perform a factorization update for the entering constraints.">
<polygon fill="white" stroke="#666666" points="278.5,-595.5 161.5,-595.5 161.5,-565.5 278.5,-565.5 278.5,-595.5"/>
<text text-anchor="start" x="169.5" y="-583.5" font-family="Helvetica,sans-Serif" font-size="10.00">kkt_update_entering</text>
<text text-anchor="middle" x="220" y="-572.5" font-family="Helvetica,sans-Serif" font-size="10.00">_constraints</text>
</a>
</g>
</g>
<!-- Node1&#45;&gt;Node6 -->
<g id="edge5_Node000001_Node000006" class="edge">
<title>Node1&#45;&gt;Node6</title>
<g id="a_edge5_Node000001_Node000006"><a xlink:title=" ">
<path fill="none" stroke="#63b8ff" d="M63.55,-370.17C70.7,-401.55 97.37,-501.68 157,-556.5 158.29,-557.68 159.63,-558.81 161.04,-559.88"/>
<polygon fill="#63b8ff" stroke="#63b8ff" points="159.27,-562.91 169.56,-565.45 163.11,-557.05 159.27,-562.91"/>
</a>
</g>
</g>
<!-- Node7 -->
<g id="Node000007" class="node">
<title>Node7</title>
<g id="a_Node000007"><a xlink:href="solver__interface_8c.html#a172614d18d4dd82e001245d7ceea389f" target="_top" xlink:title="Perform a factorization update for the leaving constraints.">
<polygon fill="white" stroke="#666666" points="276.5,-547.5 163.5,-547.5 163.5,-517.5 276.5,-517.5 276.5,-547.5"/>
<text text-anchor="start" x="171.5" y="-535.5" font-family="Helvetica,sans-Serif" font-size="10.00">kkt_update_leaving</text>
<text text-anchor="middle" x="220" y="-524.5" font-family="Helvetica,sans-Serif" font-size="10.00">_constraints</text>
</a>
</g>
</g>
<!-- Node1&#45;&gt;Node7 -->
<g id="edge6_Node000001_Node000007" class="edge">
<title>Node1&#45;&gt;Node7</title>
<g id="a_edge6_Node000001_Node000007"><a xlink:title=" ">
<path fill="none" stroke="#63b8ff" d="M65.26,-370.3C75.77,-396.43 107.92,-468.52 157,-508.5 158.58,-509.78 160.23,-511.01 161.94,-512.17"/>
<polygon fill="#63b8ff" stroke="#63b8ff" points="160.52,-515.39 170.91,-517.48 164.09,-509.37 160.52,-515.39"/>
</a>
</g>
</g>
<!-- Node8 -->
<g id="Node000008" class="node">
<title>Node8</title>
<g id="a_Node000008"><a xlink:href="solver__interface_8c.html#ab4921dab7206bd333c9e7dc679dce0b1" target="_top" xlink:title="Calculate &#160;factorization of a matrix .">
<polygon fill="white" stroke="#666666" points="403,-480 354,-480 354,-461 403,-461 403,-480"/>
<text text-anchor="middle" x="378.5" y="-468" font-family="Helvetica,sans-Serif" font-size="10.00">ldlchol</text>
</a>
</g>
</g>
<!-- Node1&#45;&gt;Node8 -->
<g id="edge7_Node000001_Node000008" class="edge">
<title>Node1&#45;&gt;Node8</title>
<g id="a_edge7_Node000001_Node000008"><a xlink:title=" ">
<path fill="none" stroke="#63b8ff" d="M70.81,-370.01C86.83,-385.77 121.36,-417.08 157,-432.5 219.25,-459.43 299.16,-467.3 343.68,-469.59"/>
<polygon fill="#63b8ff" stroke="#63b8ff" points="343.8,-473.09 353.94,-470.04 344.11,-466.1 343.8,-473.09"/>
</a>
</g>
</g>
<!-- Node9 -->
<g id="Node000009" class="node">
<title>Node9</title>
<g id="a_Node000009"><a xlink:href="solver__interface_8c.html#a972c4868a7391f4b18d836f1ca0810d9" target="_top" xlink:title="Calculate &#160;factorization of , with &#160;and &#160;the set of active constraints.">
<polygon fill="white" stroke="#666666" points="272,-499 168,-499 168,-480 272,-480 272,-499"/>
<text text-anchor="middle" x="220" y="-487" font-family="Helvetica,sans-Serif" font-size="10.00">ldlcholQAtsigmaA</text>
</a>
</g>
</g>
<!-- Node1&#45;&gt;Node9 -->
<g id="edge8_Node000001_Node000009" class="edge">
<title>Node1&#45;&gt;Node9</title>
<g id="a_edge8_Node000001_Node000009"><a xlink:title=" ">
<path fill="none" stroke="#63b8ff" d="M68,-370.29C81.99,-390.67 116.96,-438.05 157,-465.5 163.02,-469.63 169.85,-473.18 176.72,-476.19"/>
<polygon fill="#63b8ff" stroke="#63b8ff" points="175.47,-479.46 186.05,-479.96 178.09,-472.97 175.47,-479.46"/>
</a>
</g>
</g>
<!-- Node10 -->
<g id="Node000010" class="node">
<title>Node10</title>
<g id="a_Node000010"><a xlink:href="solver__interface_8c.html#a6892fee611934ae5337f1be0235bfc80" target="_top" xlink:title="Downdate the &#160;factorization given a set of leaving constraints.">
<polygon fill="white" stroke="#666666" points="279,-423.5 161,-423.5 161,-393.5 279,-393.5 279,-423.5"/>
<text text-anchor="start" x="169" y="-411.5" font-family="Helvetica,sans-Serif" font-size="10.00">ldldowndate_leaving</text>
<text text-anchor="middle" x="220" y="-400.5" font-family="Helvetica,sans-Serif" font-size="10.00">_constraints</text>
</a>
</g>
</g>
<!-- Node1&#45;&gt;Node10 -->
<g id="edge10_Node000001_Node000010" class="edge">
<title>Node1&#45;&gt;Node10</title>
<g id="a_edge10_Node000001_Node000010"><a xlink:title=" ">
<path fill="none" stroke="#63b8ff" d="M92.99,-370.1C112.16,-375.94 137.25,-383.59 160,-390.52"/>
<polygon fill="#63b8ff" stroke="#63b8ff" points="158.99,-393.87 169.57,-393.44 161.03,-387.17 158.99,-393.87"/>
</a>
</g>
</g>
<!-- Node11 -->
<g id="Node000011" class="node">
<title>Node11</title>
<g id="a_Node000011"><a xlink:href="solver__interface_8c.html#a03ad73d0e41054e90232d141e73474ab" target="_top" xlink:title="Solve the linear system .">
<polygon fill="white" stroke="#666666" points="278.5,-671 161.5,-671 161.5,-652 278.5,-652 278.5,-671"/>
<text text-anchor="middle" x="220" y="-659" font-family="Helvetica,sans-Serif" font-size="10.00">ldlsolveLD_neg_dphi</text>
</a>
</g>
</g>
<!-- Node1&#45;&gt;Node11 -->
<g id="edge11_Node000001_Node000011" class="edge">
<title>Node1&#45;&gt;Node11</title>
<g id="a_edge11_Node000001_Node000011"><a xlink:title=" ">
<path fill="none" stroke="#63b8ff" d="M61.99,-370.08C64.5,-408.93 79.01,-556.54 157,-637.5 160.8,-641.45 165.33,-644.76 170.18,-647.53"/>
<polygon fill="#63b8ff" stroke="#63b8ff" points="168.66,-650.68 179.17,-651.96 171.75,-644.4 168.66,-650.68"/>
</a>
</g>
</g>
<!-- Node12 -->
<g id="Node000012" class="node">
<title>Node12</title>
<g id="a_Node000012"><a xlink:href="solver__interface_8c.html#adee67b7c00941da3be82394e4f58c47e" target="_top" xlink:title="Update the &#160;factorization given a set of entering constraints.">
<polygon fill="white" stroke="#666666" points="274,-375.5 166,-375.5 166,-345.5 274,-345.5 274,-375.5"/>
<text text-anchor="start" x="174" y="-363.5" font-family="Helvetica,sans-Serif" font-size="10.00">ldlupdate_entering</text>
<text text-anchor="middle" x="220" y="-352.5" font-family="Helvetica,sans-Serif" font-size="10.00">_constraints</text>
</a>
</g>
</g>
<!-- Node1&#45;&gt;Node12 -->
<g id="edge14_Node000001_Node000012" class="edge">
<title>Node1&#45;&gt;Node12</title>
<g id="a_edge14_Node000001_Node000012"><a xlink:title=" ">
<path fill="none" stroke="#63b8ff" d="M121.04,-360.5C132.32,-360.5 144.15,-360.5 155.53,-360.5"/>
<polygon fill="#63b8ff" stroke="#63b8ff" points="155.84,-364 165.84,-360.5 155.84,-357 155.84,-364"/>
</a>
</g>
</g>
<!-- Node13 -->
<g id="Node000013" class="node">
<title>Node13</title>
<g id="a_Node000013"><a xlink:href="solver__interface_8c.html#a4824fb035d8cdb8ba46e4ac5c4049d5d" target="_top" xlink:title="Matrix&#45;vector multiplication.">
<polygon fill="white" stroke="#666666" points="249.5,-327 190.5,-327 190.5,-308 249.5,-308 249.5,-327"/>
<text text-anchor="middle" x="220" y="-315" font-family="Helvetica,sans-Serif" font-size="10.00">mat_vec</text>
</a>
</g>
</g>
<!-- Node1&#45;&gt;Node13 -->
<g id="edge15_Node000001_Node000013" class="edge">
<title>Node1&#45;&gt;Node13</title>
<g id="a_edge15_Node000001_Node000013"><a xlink:title=" ">
<path fill="none" stroke="#63b8ff" d="M96.45,-350.96C121.42,-344.14 154.99,-334.98 180.68,-327.96"/>
<polygon fill="#63b8ff" stroke="#63b8ff" points="181.73,-331.3 190.46,-325.29 179.89,-324.55 181.73,-331.3"/>
</a>
</g>
</g>
<!-- Node14 -->
<g id="Node000014" class="node">
<title>Node14</title>
<g id="a_Node000014"><a xlink:href="lin__alg_8c.html#ade8612cfab1bef397f1ff7a36f202e73" target="_top" xlink:title="Copy integer vector a into preallocated vector b.">
<polygon fill="white" stroke="#666666" points="273.5,-290 166.5,-290 166.5,-271 273.5,-271 273.5,-290"/>
<text text-anchor="middle" x="220" y="-278" font-family="Helvetica,sans-Serif" font-size="10.00">prea_int_vec_copy</text>
</a>
</g>
</g>
<!-- Node1&#45;&gt;Node14 -->
<g id="edge16_Node000001_Node000014" class="edge">
<title>Node1&#45;&gt;Node14</title>
<g id="a_edge16_Node000001_Node000014"><a xlink:title=" ">
<path fill="none" stroke="#63b8ff" d="M73.78,-350.82C91.33,-337.4 125.01,-313.14 157,-298.5 161.12,-296.61 165.49,-294.87 169.93,-293.28"/>
<polygon fill="#63b8ff" stroke="#63b8ff" points="171.29,-296.51 179.67,-290.03 169.08,-289.87 171.29,-296.51"/>
</a>
</g>
</g>
<!-- Node15 -->
<g id="Node000015" class="node">
<title>Node15</title>
<g id="a_Node000015"><a xlink:href="solver__interface_8c.html#a1d321f8b340db936d2f62a9abb350600" target="_top" xlink:title="Form the KKT system &#160;.">
<polygon fill="white" stroke="#666666" points="268.5,-253 171.5,-253 171.5,-234 268.5,-234 268.5,-253"/>
<text text-anchor="middle" x="220" y="-241" font-family="Helvetica,sans-Serif" font-size="10.00">qpalm_form_kkt</text>
</a>
</g>
</g>
<!-- Node1&#45;&gt;Node15 -->
<g id="edge18_Node000001_Node000015" class="edge">
<title>Node1&#45;&gt;Node15</title>
<g id="a_edge18_Node000001_Node000015"><a xlink:title=" ">
<path fill="none" stroke="#63b8ff" d="M68.17,-350.72C82.23,-330.87 116.93,-285.68 157,-261.5 159.83,-259.79 162.83,-258.24 165.93,-256.83"/>
<polygon fill="#63b8ff" stroke="#63b8ff" points="167.45,-259.99 175.42,-253 164.84,-253.49 167.45,-259.99"/>
</a>
</g>
</g>
<!-- Node16 -->
<g id="Node000016" class="node">
<title>Node16</title>
<g id="a_Node000016"><a xlink:href="solver__interface_8c.html#ad0f4712f4b0ab25ecca938a1f4b1e0a1" target="_top" xlink:title="Reform the KKT system (i.e.">
<polygon fill="white" stroke="#666666" points="273.5,-216 166.5,-216 166.5,-197 273.5,-197 273.5,-216"/>
<text text-anchor="middle" x="220" y="-204" font-family="Helvetica,sans-Serif" font-size="10.00">qpalm_reform_kkt</text>
</a>
</g>
</g>
<!-- Node1&#45;&gt;Node16 -->
<g id="edge19_Node000001_Node000016" class="edge">
<title>Node1&#45;&gt;Node16</title>
<g id="a_edge19_Node000001_Node000016"><a xlink:title=" ">
<path fill="none" stroke="#63b8ff" d="M65.47,-350.92C76.27,-326.06 108.65,-259.06 157,-224.5 159.07,-223.02 161.27,-221.66 163.55,-220.41"/>
<polygon fill="#63b8ff" stroke="#63b8ff" points="165.11,-223.54 172.67,-216.12 162.13,-217.21 165.11,-223.54"/>
</a>
</g>
</g>
<!-- Node17 -->
<g id="Node000017" class="node">
<title>Node17</title>
<g id="a_Node000017"><a xlink:href="newton_8c.html#ae27a99e2b3249e8455b72c2e2a977dd8" target="_top" xlink:title="Computes the set of active constraints and stores it in work&#45;&gt;solver&#45;&gt;active_constraints.">
<polygon fill="white" stroke="#666666" points="283,-179 157,-179 157,-160 283,-160 283,-179"/>
<text text-anchor="middle" x="220" y="-167" font-family="Helvetica,sans-Serif" font-size="10.00">set_active_constraints</text>
</a>
</g>
</g>
<!-- Node1&#45;&gt;Node17 -->
<g id="edge20_Node000001_Node000017" class="edge">
<title>Node1&#45;&gt;Node17</title>
<g id="a_edge20_Node000001_Node000017"><a xlink:title=" ">
<path fill="none" stroke="#63b8ff" d="M63.96,-350.95C71.98,-321.75 100.19,-232.92 157,-187.5 158.61,-186.21 160.31,-185.02 162.07,-183.91"/>
<polygon fill="#63b8ff" stroke="#63b8ff" points="164.12,-186.79 171.36,-179.05 160.88,-180.59 164.12,-186.79"/>
</a>
</g>
</g>
<!-- Node18 -->
<g id="Node000018" class="node">
<title>Node18</title>
<g id="a_Node000018"><a xlink:href="newton_8c.html#a43d518127e8561034e35ba18d0e15b31" target="_top" xlink:title="Determines the entering and leaving constraints and stores them in work&#45;&gt;solver&#45;&gt;enter and work&#45;&gt;solv...">
<polygon fill="white" stroke="#666666" points="279.5,-141.5 160.5,-141.5 160.5,-111.5 279.5,-111.5 279.5,-141.5"/>
<text text-anchor="start" x="168.5" y="-129.5" font-family="Helvetica,sans-Serif" font-size="10.00">set_entering_leaving</text>
<text text-anchor="middle" x="220" y="-118.5" font-family="Helvetica,sans-Serif" font-size="10.00">_constraints</text>
</a>
</g>
</g>
<!-- Node1&#45;&gt;Node18 -->
<g id="edge21_Node000001_Node000018" class="edge">
<title>Node1&#45;&gt;Node18</title>
<g id="a_edge21_Node000001_Node000018"><a xlink:title=" ">
<path fill="none" stroke="#63b8ff" d="M63.25,-350.61C69.58,-317.56 94.39,-209.61 157,-150.5 158.13,-149.44 159.31,-148.42 160.53,-147.44"/>
<polygon fill="#63b8ff" stroke="#63b8ff" points="162.82,-150.12 169.16,-141.62 158.91,-144.31 162.82,-150.12"/>
</a>
</g>
</g>
<!-- Node19 -->
<g id="Node000019" class="node">
<title>Node19</title>
<g id="a_Node000019"><a xlink:href="lin__alg_8c.html#a0fde1aeeea954e43db160ec6e3697cd5" target="_top" xlink:title="Scaled addition of one vector to another vector, .">
<polygon fill="white" stroke="#666666" points="267,-93 173,-93 173,-74 267,-74 267,-93"/>
<text text-anchor="middle" x="220" y="-81" font-family="Helvetica,sans-Serif" font-size="10.00">vec_add_scaled</text>
</a>
</g>
</g>
<!-- Node1&#45;&gt;Node19 -->
<g id="edge22_Node000001_Node000019" class="edge">
<title>Node1&#45;&gt;Node19</title>
<g id="a_edge22_Node000001_Node000019"><a xlink:title=" ">
<path fill="none" stroke="#63b8ff" d="M62.1,-350.91C64.99,-313.33 80.61,-174.65 157,-102.5 159.15,-100.47 161.51,-98.66 164.01,-97.04"/>
<polygon fill="#63b8ff" stroke="#63b8ff" points="165.82,-100.04 173,-92.24 162.53,-93.87 165.82,-100.04"/>
</a>
</g>
</g>
<!-- Node20 -->
<g id="Node000020" class="node">
<title>Node20</title>
<g id="a_Node000020"><a xlink:href="lin__alg_8c.html#a863f6634d67489350855e97c36c8c59c" target="_top" xlink:title="Scaled addition of one vector to another vector, both being scaled, .">
<polygon fill="white" stroke="#666666" points="281,-56 159,-56 159,-37 281,-37 281,-56"/>
<text text-anchor="middle" x="220" y="-44" font-family="Helvetica,sans-Serif" font-size="10.00">vec_mult_add_scaled</text>
</a>
</g>
</g>
<!-- Node1&#45;&gt;Node20 -->
<g id="edge23_Node000001_Node000020" class="edge">
<title>Node1&#45;&gt;Node20</title>
<g id="a_edge23_Node000001_Node000020"><a xlink:title=" ">
<path fill="none" stroke="#63b8ff" d="M61.55,-350.92C62.3,-310 70.8,-148.19 157,-64.5 158.11,-63.43 159.27,-62.42 160.49,-61.47"/>
<polygon fill="#63b8ff" stroke="#63b8ff" points="162.54,-64.31 169.14,-56.02 158.82,-58.38 162.54,-64.31"/>
</a>
</g>
</g>
<!-- Node21 -->
<g id="Node000021" class="node">
<title>Node21</title>
<g id="a_Node000021"><a xlink:href="lin__alg_8c.html#ad69e3ef3b7360cd1d6262ee2f32fce83" target="_top" xlink:title="Infinity norm of a vector, .">
<polygon fill="white" stroke="#666666" points="261.5,-19 178.5,-19 178.5,0 261.5,0 261.5,-19"/>
<text text-anchor="middle" x="220" y="-7" font-family="Helvetica,sans-Serif" font-size="10.00">vec_norm_inf</text>
</a>
</g>
</g>
<!-- Node1&#45;&gt;Node21 -->
<g id="edge24_Node000001_Node000021" class="edge">
<title>Node1&#45;&gt;Node21</title>
<g id="a_edge24_Node000001_Node000021"><a xlink:title=" ">
<path fill="none" stroke="#63b8ff" d="M61.15,-350.96C60.1,-307.13 61.68,-123.13 157,-27.5 160.48,-24.01 164.59,-21.19 169.01,-18.91"/>
<polygon fill="#63b8ff" stroke="#63b8ff" points="170.56,-22.05 178.42,-14.95 167.85,-15.6 170.56,-22.05"/>
</a>
</g>
</g>
<!-- Node2&#45;&gt;Node3 -->
<g id="edge2_Node000002_Node000003" class="edge">
<title>Node2&#45;&gt;Node3</title>
<g id="a_edge2_Node000002_Node000003"><a xlink:title=" ">
<path fill="none" stroke="#63b8ff" d="M252.29,-698.5C272.65,-698.5 299.74,-698.5 323.51,-698.5"/>
<polygon fill="#63b8ff" stroke="#63b8ff" points="323.81,-702 333.81,-698.5 323.81,-695 323.81,-702"/>
</a>
</g>
</g>
<!-- Node2&#45;&gt;Node4 -->
<g id="edge3_Node000002_Node000004" class="edge">
<title>Node2&#45;&gt;Node4</title>
<g id="a_edge3_Node000002_Node000004"><a xlink:title=" ">
<path fill="none" stroke="#63b8ff" d="M252.29,-691.1C273.7,-686.04 302.54,-679.22 327.14,-673.41"/>
<polygon fill="#63b8ff" stroke="#63b8ff" points="328.12,-676.77 337.04,-671.07 326.51,-669.96 328.12,-676.77"/>
</a>
</g>
</g>
<!-- Node5 -->
<g id="Node000005" class="node">
<title>Node5</title>
<g id="a_Node000005"><a xlink:href="lin__alg_8c.html#a67ead739705f515285526db604c5bb7d" target="_top" xlink:title="Fill float vector with a scalar value.">
<polygon fill="white" stroke="#666666" points="423,-745 334,-745 334,-726 423,-726 423,-745"/>
<text text-anchor="middle" x="378.5" y="-733" font-family="Helvetica,sans-Serif" font-size="10.00">vec_set_scalar</text>
</a>
</g>
</g>
<!-- Node2&#45;&gt;Node5 -->
<g id="edge4_Node000002_Node000005" class="edge">
<title>Node2&#45;&gt;Node5</title>
<g id="a_edge4_Node000002_Node000005"><a xlink:title=" ">
<path fill="none" stroke="#63b8ff" d="M252.29,-705.9C273.7,-710.96 302.54,-717.78 327.14,-723.59"/>
<polygon fill="#63b8ff" stroke="#63b8ff" points="326.51,-727.04 337.04,-725.93 328.12,-720.23 326.51,-727.04"/>
</a>
</g>
</g>
<!-- Node9&#45;&gt;Node8 -->
<g id="edge9_Node000009_Node000008" class="edge">
<title>Node9&#45;&gt;Node8</title>
<g id="a_edge9_Node000009_Node000008"><a xlink:title=" ">
<path fill="none" stroke="#63b8ff" d="M272.24,-483.28C295.73,-480.43 322.92,-477.13 343.78,-474.59"/>
<polygon fill="#63b8ff" stroke="#63b8ff" points="344.26,-478.06 353.76,-473.38 343.41,-471.11 344.26,-478.06"/>
</a>
</g>
</g>
<!-- Node11&#45;&gt;Node3 -->
<g id="edge12_Node000011_Node000003" class="edge">
<title>Node11&#45;&gt;Node3</title>
<g id="a_edge12_Node000011_Node000003"><a xlink:title=" ">
<path fill="none" stroke="#63b8ff" d="M261.3,-671.03C281.4,-675.78 305.89,-681.57 327.21,-686.61"/>
<polygon fill="#63b8ff" stroke="#63b8ff" points="326.53,-690.04 337.06,-688.94 328.14,-683.23 326.53,-690.04"/>
</a>
</g>
</g>
<!-- Node11&#45;&gt;Node4 -->
<g id="edge13_Node000011_Node000004" class="edge">
<title>Node11&#45;&gt;Node4</title>
<g id="a_edge13_Node000011_Node000004"><a xlink:title=" ">
<path fill="none" stroke="#63b8ff" d="M278.83,-661.5C288.52,-661.5 298.67,-661.5 308.61,-661.5"/>
<polygon fill="#63b8ff" stroke="#63b8ff" points="308.86,-665 318.86,-661.5 308.86,-658 308.86,-665"/>
</a>
</g>
</g>
</g>
</svg>

<g id="navigator" transform="translate(0 0)" fill="#404254">
  <rect fill="#f2f5e9" fill-opacity="0.5" stroke="#606060" stroke-width=".5" x="0" y="0" width="60" height="60"/>
  <use id="zoomplus" xlink:href="#zoomPlus" x="17" y="9" onmousedown="handleZoom(evt,'in')"/>
  <use id="zoomminus" xlink:href="#zoomMin" x="42" y="9" onmousedown="handleZoom(evt,'out')"/>
  <use id="reset" xlink:href="#resetDef" x="30" y="36" onmousedown="handleReset()"/>
   <use id="arrowup" xlink:href="#arrowUp" x="0" y="0" onmousedown="handlePan(0,-1)"/>
  <use id="arrowright" xlink:href="#arrowRight" x="0" y="0" onmousedown="handlePan(1,0)"/>
  <use id="arrowdown" xlink:href="#arrowDown" x="0" y="0" onmousedown="handlePan(0,1)"/>
  <use id="arrowleft" xlink:href="#arrowLeft" x="0" y="0" onmousedown="handlePan(-1,0)"/>
</g>
<svg viewBox="0 0 15 15" width="100%" height="30px" preserveAspectRatio="xMaxYMin meet">
 <g id="arrow_out" transform="scale(0.3 0.3)">
  <a xlink:href="newton_8c_af1654e5597faac8b0ade25acf1fc1bc9_cgraph_org.svg" target="_base">
   <rect id="button" ry="5" rx="5" y="6" x="6" height="38" width="38"
        fill="#f2f5e9" fill-opacity="0.5" stroke="#606060" stroke-width="1.0"/>
   <path id="arrow"
     d="M 11.500037,31.436501 C 11.940474,20.09759 22.043105,11.32322 32.158766,21.979434 L 37.068811,17.246167 C 37.068811,17.246167 37.088388,32 37.088388,32 L 22.160133,31.978069 C 22.160133,31.978069 26.997745,27.140456 26.997745,27.140456 C 18.528582,18.264221 13.291696,25.230495 11.500037,31.436501 z"
     style="fill:#404040;"/>
  </a>
 </g>
</svg>

<style type='text/css'>
<![CDATA[
[data-mouse-over-selected='false'] { opacity: 0.7; }
[data-mouse-over-selected='true']  { opacity: 1.0; }
]]>
</style>
<script type="application/ecmascript"><![CDATA[
document.addEventListener('DOMContentLoaded', (event) => {
  highlightEdges();
  highlightAdjacentNodes();
});
]]></script>
</svg>
