<?xml version="1.0" encoding="UTF-8" standalone="no"?>
<!DOCTYPE svg PUBLIC "-//W3C//DTD SVG 1.1//EN"
 "http://www.w3.org/Graphics/SVG/1.1/DTD/svg11.dtd">
<!-- Generated by graphviz version 2.43.0 (0)
 -->
<!-- Title: QPALM/include/qpalm.h Pages: 1 -->
<svg width="920pt" height="357pt"
 viewBox="0.00 0.00 919.62 357.00" xmlns="http://www.w3.org/2000/svg" xmlns:xlink="http://www.w3.org/1999/xlink">
<g id="graph0" class="graph" transform="scale(1 1) rotate(0) translate(4 353)">
<title>QPALM/include/qpalm.h</title>
<!-- Node1 -->
<g id="Node000001" class="node">
<title>Node1</title>
<g id="a_Node000001"><a xlink:title="QPALM main solver API.">
<polygon fill="#999999" stroke="#666666" points="500.12,-349 369.12,-349 369.12,-330 500.12,-330 500.12,-349"/>
<text text-anchor="middle" x="434.62" y="-337" font-family="Helvetica,sans-Serif" font-size="10.00">QPALM/include/qpalm.h</text>
</a>
</g>
</g>
<!-- Node2 -->
<g id="Node000002" class="node">
<title>Node2</title>
<g id="a_Node000002"><a xlink:href="constants_8h.html" target="_top" xlink:title="Constants used in QPALM.">
<polygon fill="white" stroke="#666666" points="265.12,-129 158.12,-129 158.12,-110 265.12,-110 265.12,-129"/>
<text text-anchor="middle" x="211.62" y="-117" font-family="Helvetica,sans-Serif" font-size="10.00">qpalm/constants.h</text>
</a>
</g>
</g>
<!-- Node1&#45;&gt;Node2 -->
<g id="edge1_Node000001_Node000002" class="edge">
<title>Node1&#45;&gt;Node2</title>
<g id="a_edge1_Node000001_Node000002"><a xlink:title=" ">
<path fill="none" stroke="#63b8ff" d="M369.09,-336.4C311.47,-332.61 226.33,-322.22 157.62,-294 79.82,-262.04 42.11,-258.79 3.62,-184 -0.24,-176.49 -1.69,-171.57 3.62,-165 21.54,-142.85 93.42,-131.23 147.71,-125.5"/>
<polygon fill="#63b8ff" stroke="#63b8ff" points="148.37,-128.95 157.97,-124.46 147.67,-121.99 148.37,-128.95"/>
</a>
</g>
</g>
<!-- Node4 -->
<g id="Node000004" class="node">
<title>Node4</title>
<g id="a_Node000004"><a xlink:href="global__opts_8h.html" target="_top" xlink:title="Custom memory allocation, print and utility functions, and data types for floats and ints.">
<polygon fill="white" stroke="#666666" points="637.62,-74 521.62,-74 521.62,-55 637.62,-55 637.62,-74"/>
<text text-anchor="middle" x="579.62" y="-62" font-family="Helvetica,sans-Serif" font-size="10.00">qpalm/global_opts.h</text>
</a>
</g>
</g>
<!-- Node1&#45;&gt;Node4 -->
<g id="edge3_Node000001_Node000004" class="edge">
<title>Node1&#45;&gt;Node4</title>
<g id="a_edge3_Node000001_Node000004"><a xlink:title=" ">
<path fill="none" stroke="#63b8ff" d="M500.44,-337.21C631.3,-332.86 911.62,-313.82 911.62,-230.5 911.62,-230.5 911.62,-230.5 911.62,-173.5 911.62,-118.55 745.05,-87.26 647.88,-73.68"/>
<polygon fill="#63b8ff" stroke="#63b8ff" points="648.21,-70.19 637.83,-72.3 647.26,-77.13 648.21,-70.19"/>
</a>
</g>
</g>
<!-- Node6 -->
<g id="Node000006" class="node">
<title>Node6</title>
<g id="a_Node000006"><a xlink:href="iteration_8h.html" target="_top" xlink:title="QPALM main solver routines.">
<polygon fill="white" stroke="#666666" points="796.12,-184 695.12,-184 695.12,-165 796.12,-165 796.12,-184"/>
<text text-anchor="middle" x="745.62" y="-172" font-family="Helvetica,sans-Serif" font-size="10.00">qpalm/iteration.h</text>
</a>
</g>
</g>
<!-- Node1&#45;&gt;Node6 -->
<g id="edge6_Node000001_Node000006" class="edge">
<title>Node1&#45;&gt;Node6</title>
<g id="a_edge6_Node000001_Node000006"><a xlink:title=" ">
<path fill="none" stroke="#63b8ff" d="M500.42,-333.27C608.02,-323.13 813.73,-296.52 853.62,-239 871.41,-213.35 835.32,-196.5 800.16,-186.65"/>
<polygon fill="#63b8ff" stroke="#63b8ff" points="800.88,-183.22 790.31,-184.06 799.09,-189.99 800.88,-183.22"/>
</a>
</g>
</g>
<!-- Node7 -->
<g id="Node000007" class="node">
<title>Node7</title>
<g id="a_Node000007"><a xlink:href="types_8h.html" target="_top" xlink:title="Internal data structures used in QPALM.">
<polygon fill="white" stroke="#666666" points="538.62,-129 452.62,-129 452.62,-110 538.62,-110 538.62,-129"/>
<text text-anchor="middle" x="495.62" y="-117" font-family="Helvetica,sans-Serif" font-size="10.00">qpalm/types.h</text>
</a>
</g>
</g>
<!-- Node1&#45;&gt;Node7 -->
<g id="edge33_Node000001_Node000007" class="edge">
<title>Node1&#45;&gt;Node7</title>
<g id="a_edge33_Node000001_Node000007"><a xlink:title=" ">
<path fill="none" stroke="#63b8ff" d="M500.57,-331.15C547.21,-324.43 603.94,-312.66 618.62,-294 641.75,-264.61 551.24,-173.08 512.47,-136.17"/>
<polygon fill="#63b8ff" stroke="#63b8ff" points="514.72,-133.48 505.04,-129.16 509.91,-138.57 514.72,-133.48"/>
</a>
</g>
</g>
<!-- Node9 -->
<g id="Node000009" class="node">
<title>Node9</title>
<g id="a_Node000009"><a xlink:href="lin__alg_8h.html" target="_top" xlink:title="Linear algebra with vectors.">
<polygon fill="white" stroke="#666666" points="486.62,-239 394.62,-239 394.62,-220 486.62,-220 486.62,-239"/>
<text text-anchor="middle" x="440.62" y="-227" font-family="Helvetica,sans-Serif" font-size="10.00">qpalm/lin_alg.h</text>
</a>
</g>
</g>
<!-- Node1&#45;&gt;Node9 -->
<g id="edge12_Node000001_Node000009" class="edge">
<title>Node1&#45;&gt;Node9</title>
<g id="a_edge12_Node000001_Node000009"><a xlink:title=" ">
<path fill="none" stroke="#63b8ff" d="M412.5,-329.86C388.2,-318.96 354.28,-298.76 367.62,-275 375.73,-260.56 390.63,-250.26 404.87,-243.22"/>
<polygon fill="#63b8ff" stroke="#63b8ff" points="406.39,-246.38 414.05,-239.06 403.5,-240 406.39,-246.38"/>
</a>
</g>
</g>
<!-- Node10 -->
<g id="Node000010" class="node">
<title>Node10</title>
<g id="a_Node000010"><a xlink:href="solver__interface_8h.html" target="_top" xlink:title="Interface and wrapper to matrix/factorization (ladel) functions.">
<polygon fill="white" stroke="#666666" points="410.62,-184 272.62,-184 272.62,-165 410.62,-165 410.62,-184"/>
<text text-anchor="middle" x="341.62" y="-172" font-family="Helvetica,sans-Serif" font-size="10.00">qpalm/solver_interface.h</text>
</a>
</g>
</g>
<!-- Node1&#45;&gt;Node10 -->
<g id="edge30_Node000001_Node000010" class="edge">
<title>Node1&#45;&gt;Node10</title>
<g id="a_edge30_Node000001_Node000010"><a xlink:title=" ">
<path fill="none" stroke="#63b8ff" d="M369.01,-334C312.28,-328.57 236.49,-317.13 217.62,-294 182.84,-251.37 262.86,-208.54 310.09,-188.01"/>
<polygon fill="#63b8ff" stroke="#63b8ff" points="311.49,-191.22 319.33,-184.1 308.76,-184.78 311.49,-191.22"/>
</a>
</g>
</g>
<!-- Node11 -->
<g id="Node000011" class="node">
<title>Node11</title>
<g id="a_Node000011"><a xlink:href="linesearch_8h.html" target="_top" xlink:title="Routines to perform exact linesearch.">
<polygon fill="white" stroke="#666666" points="122.62,-184 12.62,-184 12.62,-165 122.62,-165 122.62,-184"/>
<text text-anchor="middle" x="67.62" y="-172" font-family="Helvetica,sans-Serif" font-size="10.00">qpalm/linesearch.h</text>
</a>
</g>
</g>
<!-- Node1&#45;&gt;Node11 -->
<g id="edge19_Node000001_Node000011" class="edge">
<title>Node1&#45;&gt;Node11</title>
<g id="a_edge19_Node000001_Node000011"><a xlink:title=" ">
<path fill="none" stroke="#63b8ff" d="M369.11,-337.06C317.51,-333.54 245.11,-323.19 188.62,-294 140.49,-269.13 98.95,-218.66 79.46,-192.34"/>
<polygon fill="#63b8ff" stroke="#63b8ff" points="82.21,-190.16 73.51,-184.11 76.53,-194.27 82.21,-190.16"/>
</a>
</g>
</g>
<!-- Node12 -->
<g id="Node000012" class="node">
<title>Node12</title>
<g id="a_Node000012"><a xlink:href="newton_8h.html" target="_top" xlink:title="Functions to calculate the semismooth Newton direction.">
<polygon fill="white" stroke="#666666" points="714.12,-239 619.12,-239 619.12,-220 714.12,-220 714.12,-239"/>
<text text-anchor="middle" x="666.62" y="-227" font-family="Helvetica,sans-Serif" font-size="10.00">qpalm/newton.h</text>
</a>
</g>
</g>
<!-- Node1&#45;&gt;Node12 -->
<g id="edge22_Node000001_Node000012" class="edge">
<title>Node1&#45;&gt;Node12</title>
<g id="a_edge22_Node000001_Node000012"><a xlink:title=" ">
<path fill="none" stroke="#63b8ff" d="M500.23,-332.93C556.36,-326.81 631.36,-314.93 652.62,-294 664.3,-282.5 667.24,-263.62 667.59,-249.43"/>
<polygon fill="#63b8ff" stroke="#63b8ff" points="671.09,-249.23 667.43,-239.29 664.09,-249.34 671.09,-249.23"/>
</a>
</g>
</g>
<!-- Node13 -->
<g id="Node000013" class="node">
<title>Node13</title>
<g id="a_Node000013"><a xlink:href="nonconvex_8h.html" target="_top" xlink:title="Routines to deal with nonconvex QPs.">
<polygon fill="white" stroke="#666666" points="845.12,-239 732.12,-239 732.12,-220 845.12,-220 845.12,-239"/>
<text text-anchor="middle" x="788.62" y="-227" font-family="Helvetica,sans-Serif" font-size="10.00">qpalm/nonconvex.h</text>
</a>
</g>
</g>
<!-- Node1&#45;&gt;Node13 -->
<g id="edge24_Node000001_Node000013" class="edge">
<title>Node1&#45;&gt;Node13</title>
<g id="a_edge24_Node000001_Node000013"><a xlink:title=" ">
<path fill="none" stroke="#63b8ff" d="M500.22,-331.89C548.85,-325.64 616.21,-314.14 672.62,-294 707.78,-281.45 745.07,-259.23 767.6,-244.68"/>
<polygon fill="#63b8ff" stroke="#63b8ff" points="769.59,-247.56 776.03,-239.15 765.75,-241.71 769.59,-247.56"/>
</a>
</g>
</g>
<!-- Node14 -->
<g id="Node000014" class="node">
<title>Node14</title>
<g id="a_Node000014"><a xlink:href="scaling_8h.html" target="_top" xlink:title="Problem data scaling during setup.">
<polygon fill="white" stroke="#666666" points="320.62,-294 226.62,-294 226.62,-275 320.62,-275 320.62,-294"/>
<text text-anchor="middle" x="273.62" y="-282" font-family="Helvetica,sans-Serif" font-size="10.00">qpalm/scaling.h</text>
</a>
</g>
</g>
<!-- Node1&#45;&gt;Node14 -->
<g id="edge26_Node000001_Node000014" class="edge">
<title>Node1&#45;&gt;Node14</title>
<g id="a_edge26_Node000001_Node000014"><a xlink:title=" ">
<path fill="none" stroke="#63b8ff" d="M408.75,-329.98C381.84,-321.13 339.5,-307.19 309.39,-297.28"/>
<polygon fill="#63b8ff" stroke="#63b8ff" points="310.28,-293.88 299.69,-294.08 308.1,-300.53 310.28,-293.88"/>
</a>
</g>
</g>
<!-- Node15 -->
<g id="Node000015" class="node">
<title>Node15</title>
<g id="a_Node000015"><a xlink:href="termination_8h.html" target="_top" xlink:title="Routines to check the termination and infeasibility criteria.">
<polygon fill="white" stroke="#666666" points="492.62,-294 376.62,-294 376.62,-275 492.62,-275 492.62,-294"/>
<text text-anchor="middle" x="434.62" y="-282" font-family="Helvetica,sans-Serif" font-size="10.00">qpalm/termination.h</text>
</a>
</g>
</g>
<!-- Node1&#45;&gt;Node15 -->
<g id="edge31_Node000001_Node000015" class="edge">
<title>Node1&#45;&gt;Node15</title>
<g id="a_edge31_Node000001_Node000015"><a xlink:title=" ">
<path fill="none" stroke="#63b8ff" d="M434.62,-329.75C434.62,-322.8 434.62,-312.85 434.62,-304.13"/>
<polygon fill="#63b8ff" stroke="#63b8ff" points="438.12,-304.09 434.62,-294.09 431.12,-304.09 438.12,-304.09"/>
</a>
</g>
</g>
<!-- Node16 -->
<g id="Node000016" class="node">
<title>Node16</title>
<g id="a_Node000016"><a xlink:href="util_8h.html" target="_top" xlink:title="Utility functions.">
<polygon fill="white" stroke="#666666" points="216.12,-184 141.12,-184 141.12,-165 216.12,-165 216.12,-184"/>
<text text-anchor="middle" x="178.62" y="-172" font-family="Helvetica,sans-Serif" font-size="10.00">qpalm/util.h</text>
</a>
</g>
</g>
<!-- Node1&#45;&gt;Node16 -->
<g id="edge34_Node000001_Node000016" class="edge">
<title>Node1&#45;&gt;Node16</title>
<g id="a_edge34_Node000001_Node000016"><a xlink:title=" ">
<path fill="none" stroke="#63b8ff" d="M368.9,-333.63C309.67,-327.88 228.5,-316.15 205.62,-294 178.55,-267.79 176.11,-220.48 177.11,-194.27"/>
<polygon fill="#63b8ff" stroke="#63b8ff" points="180.61,-194.34 177.71,-184.15 173.62,-193.93 180.61,-194.34"/>
</a>
</g>
</g>
<!-- Node17 -->
<g id="Node000017" class="node">
<title>Node17</title>
<g id="a_Node000017"><a xlink:href="validate_8h.html" target="_top" xlink:title="Validation of the user provided settings and data.">
<polygon fill="white" stroke="#666666" points="610.12,-294 511.12,-294 511.12,-275 610.12,-275 610.12,-294"/>
<text text-anchor="middle" x="560.62" y="-282" font-family="Helvetica,sans-Serif" font-size="10.00">qpalm/validate.h</text>
</a>
</g>
</g>
<!-- Node1&#45;&gt;Node17 -->
<g id="edge37_Node000001_Node000017" class="edge">
<title>Node1&#45;&gt;Node17</title>
<g id="a_edge37_Node000001_Node000017"><a xlink:title=" ">
<path fill="none" stroke="#63b8ff" d="M454.87,-329.98C475.32,-321.38 507.15,-307.99 530.55,-298.15"/>
<polygon fill="#63b8ff" stroke="#63b8ff" points="532.15,-301.27 540.01,-294.17 529.43,-294.82 532.15,-301.27"/>
</a>
</g>
</g>
<!-- Node3 -->
<g id="Node000003" class="node">
<title>Node3</title>
<g id="a_Node000003"><a xlink:title=" ">
<polygon fill="#e0e0e0" stroke="#999999" points="451.62,-19 401.62,-19 401.62,0 451.62,0 451.62,-19"/>
<text text-anchor="middle" x="426.62" y="-7" font-family="Helvetica,sans-Serif" font-size="10.00">ladel.h</text>
</a>
</g>
</g>
<!-- Node2&#45;&gt;Node3 -->
<g id="edge2_Node000002_Node000003" class="edge">
<title>Node2&#45;&gt;Node3</title>
<g id="a_edge2_Node000002_Node000003"><a xlink:title=" ">
<path fill="none" stroke="#63b8ff" d="M228.85,-109.84C266.45,-90.96 356.04,-45.96 400.57,-23.59"/>
<polygon fill="#63b8ff" stroke="#63b8ff" points="402.24,-26.66 409.61,-19.05 399.1,-20.41 402.24,-26.66"/>
</a>
</g>
</g>
<!-- Node4&#45;&gt;Node3 -->
<g id="edge4_Node000004_Node000003" class="edge">
<title>Node4&#45;&gt;Node3</title>
<g id="a_edge4_Node000004_Node000003"><a xlink:title=" ">
<path fill="none" stroke="#63b8ff" d="M555.04,-54.98C529.57,-46.16 489.58,-32.31 460.99,-22.41"/>
<polygon fill="#63b8ff" stroke="#63b8ff" points="461.99,-19.05 451.4,-19.08 459.7,-25.66 461.99,-19.05"/>
</a>
</g>
</g>
<!-- Node5 -->
<g id="Node000005" class="node">
<title>Node5</title>
<g id="a_Node000005"><a xlink:title=" ">
<polygon fill="#e0e0e0" stroke="#999999" points="605.12,-19 554.12,-19 554.12,0 605.12,0 605.12,-19"/>
<text text-anchor="middle" x="579.62" y="-7" font-family="Helvetica,sans-Serif" font-size="10.00">math.h</text>
</a>
</g>
</g>
<!-- Node4&#45;&gt;Node5 -->
<g id="edge5_Node000004_Node000005" class="edge">
<title>Node4&#45;&gt;Node5</title>
<g id="a_edge5_Node000004_Node000005"><a xlink:title=" ">
<path fill="none" stroke="#63b8ff" d="M579.62,-54.75C579.62,-47.8 579.62,-37.85 579.62,-29.13"/>
<polygon fill="#63b8ff" stroke="#63b8ff" points="583.12,-29.09 579.62,-19.09 576.12,-29.09 583.12,-29.09"/>
</a>
</g>
</g>
<!-- Node6&#45;&gt;Node4 -->
<g id="edge11_Node000006_Node000004" class="edge">
<title>Node6&#45;&gt;Node4</title>
<g id="a_edge11_Node000006_Node000004"><a xlink:title=" ">
<path fill="none" stroke="#63b8ff" d="M732.32,-164.84C703.78,-146.28 636.47,-102.49 601.53,-79.75"/>
<polygon fill="#63b8ff" stroke="#63b8ff" points="603.28,-76.72 592.99,-74.2 599.46,-82.58 603.28,-76.72"/>
</a>
</g>
</g>
<!-- Node6&#45;&gt;Node7 -->
<g id="edge7_Node000006_Node000007" class="edge">
<title>Node6&#45;&gt;Node7</title>
<g id="a_edge7_Node000006_Node000007"><a xlink:title=" ">
<path fill="none" stroke="#63b8ff" d="M705.45,-164.98C662.12,-155.8 593.03,-141.15 546.06,-131.19"/>
<polygon fill="#63b8ff" stroke="#63b8ff" points="546.61,-127.73 536.1,-129.08 545.16,-134.58 546.61,-127.73"/>
</a>
</g>
</g>
<!-- Node7&#45;&gt;Node3 -->
<g id="edge10_Node000007_Node000003" class="edge">
<title>Node7&#45;&gt;Node3</title>
<g id="a_edge10_Node000007_Node000003"><a xlink:title=" ">
<path fill="none" stroke="#63b8ff" d="M494.16,-109.68C491.71,-96.83 485.92,-72.58 474.62,-55 467.3,-43.61 456.4,-33.19 446.84,-25.3"/>
<polygon fill="#63b8ff" stroke="#63b8ff" points="448.93,-22.49 438.9,-19.05 444.6,-27.99 448.93,-22.49"/>
</a>
</g>
</g>
<!-- Node7&#45;&gt;Node4 -->
<g id="edge9_Node000007_Node000004" class="edge">
<title>Node7&#45;&gt;Node4</title>
<g id="a_edge9_Node000007_Node000004"><a xlink:title=" ">
<path fill="none" stroke="#63b8ff" d="M509.12,-109.98C522.02,-101.84 541.72,-89.41 557.02,-79.76"/>
<polygon fill="#63b8ff" stroke="#63b8ff" points="559.29,-82.47 565.88,-74.17 555.55,-76.55 559.29,-82.47"/>
</a>
</g>
</g>
<!-- Node8 -->
<g id="Node000008" class="node">
<title>Node8</title>
<g id="a_Node000008"><a xlink:title=" ">
<polygon fill="#e0e0e0" stroke="#999999" points="465.62,-74 391.62,-74 391.62,-55 465.62,-55 465.62,-74"/>
<text text-anchor="middle" x="428.62" y="-62" font-family="Helvetica,sans-Serif" font-size="10.00">stdatomic.h</text>
</a>
</g>
</g>
<!-- Node7&#45;&gt;Node8 -->
<g id="edge8_Node000007_Node000008" class="edge">
<title>Node7&#45;&gt;Node8</title>
<g id="a_edge8_Node000007_Node000008"><a xlink:title=" ">
<path fill="none" stroke="#63b8ff" d="M484.86,-109.98C474.85,-102.07 459.73,-90.11 447.69,-80.58"/>
<polygon fill="#63b8ff" stroke="#63b8ff" points="449.6,-77.63 439.58,-74.17 445.25,-83.12 449.6,-77.63"/>
</a>
</g>
</g>
<!-- Node9&#45;&gt;Node7 -->
<g id="edge13_Node000009_Node000007" class="edge">
<title>Node9&#45;&gt;Node7</title>
<g id="a_edge13_Node000009_Node000007"><a xlink:title=" ">
<path fill="none" stroke="#63b8ff" d="M445.12,-219.66C454.15,-201.93 474.63,-161.73 486.55,-138.32"/>
<polygon fill="#63b8ff" stroke="#63b8ff" points="489.79,-139.66 491.21,-129.16 483.55,-136.48 489.79,-139.66"/>
</a>
</g>
</g>
<!-- Node9&#45;&gt;Node10 -->
<g id="edge14_Node000009_Node000010" class="edge">
<title>Node9&#45;&gt;Node10</title>
<g id="a_edge14_Node000009_Node000010"><a xlink:title=" ">
<path fill="none" stroke="#63b8ff" d="M424.71,-219.98C409.08,-211.61 384.97,-198.7 366.74,-188.95"/>
<polygon fill="#63b8ff" stroke="#63b8ff" points="368.28,-185.8 357.82,-184.17 364.98,-191.98 368.28,-185.8"/>
</a>
</g>
</g>
<!-- Node10&#45;&gt;Node2 -->
<g id="edge16_Node000010_Node000002" class="edge">
<title>Node10&#45;&gt;Node2</title>
<g id="a_edge16_Node000010_Node000002"><a xlink:title=" ">
<path fill="none" stroke="#63b8ff" d="M320.73,-164.98C299.54,-156.34 266.49,-142.87 242.32,-133.02"/>
<polygon fill="#63b8ff" stroke="#63b8ff" points="243.47,-129.7 232.89,-129.17 240.83,-136.19 243.47,-129.7"/>
</a>
</g>
</g>
<!-- Node10&#45;&gt;Node3 -->
<g id="edge18_Node000010_Node000003" class="edge">
<title>Node10&#45;&gt;Node3</title>
<g id="a_edge18_Node000010_Node000003"><a xlink:title=" ">
<path fill="none" stroke="#63b8ff" d="M343.22,-164.89C347.3,-144.53 359.4,-92.34 382.62,-55 389.32,-44.23 399.05,-34.04 407.66,-26.12"/>
<polygon fill="#63b8ff" stroke="#63b8ff" points="410.23,-28.53 415.44,-19.3 405.62,-23.26 410.23,-28.53"/>
</a>
</g>
</g>
<!-- Node10&#45;&gt;Node4 -->
<g id="edge15_Node000010_Node000004" class="edge">
<title>Node10&#45;&gt;Node4</title>
<g id="a_edge15_Node000010_Node000004"><a xlink:title=" ">
<path fill="none" stroke="#63b8ff" d="M353.33,-164.89C371.77,-151.65 409.03,-126.14 443.62,-110 473.6,-96.01 509.18,-84.54 536.43,-76.75"/>
<polygon fill="#63b8ff" stroke="#63b8ff" points="537.38,-80.11 546.07,-74.04 535.49,-73.37 537.38,-80.11"/>
</a>
</g>
</g>
<!-- Node10&#45;&gt;Node7 -->
<g id="edge17_Node000010_Node000007" class="edge">
<title>Node10&#45;&gt;Node7</title>
<g id="a_edge17_Node000010_Node000007"><a xlink:title=" ">
<path fill="none" stroke="#63b8ff" d="M366.36,-164.98C391.99,-156.16 432.25,-142.31 461.03,-132.41"/>
<polygon fill="#63b8ff" stroke="#63b8ff" points="462.37,-135.65 470.68,-129.08 460.09,-129.03 462.37,-135.65"/>
</a>
</g>
</g>
<!-- Node11&#45;&gt;Node2 -->
<g id="edge21_Node000011_Node000002" class="edge">
<title>Node11&#45;&gt;Node2</title>
<g id="a_edge21_Node000011_Node000002"><a xlink:title=" ">
<path fill="none" stroke="#63b8ff" d="M90.76,-164.98C114.44,-156.27 151.49,-142.63 178.33,-132.75"/>
<polygon fill="#63b8ff" stroke="#63b8ff" points="179.89,-135.91 188.06,-129.17 177.47,-129.34 179.89,-135.91"/>
</a>
</g>
</g>
<!-- Node11&#45;&gt;Node7 -->
<g id="edge20_Node000011_Node000007" class="edge">
<title>Node11&#45;&gt;Node7</title>
<g id="a_edge20_Node000011_Node000007"><a xlink:title=" ">
<path fill="none" stroke="#63b8ff" d="M122.77,-166.14C125.77,-165.75 128.73,-165.37 131.62,-165 242.08,-150.91 371.51,-135.3 442.43,-126.83"/>
<polygon fill="#63b8ff" stroke="#63b8ff" points="442.94,-130.29 452.46,-125.63 442.11,-123.34 442.94,-130.29"/>
</a>
</g>
</g>
<!-- Node12&#45;&gt;Node7 -->
<g id="edge23_Node000012_Node000007" class="edge">
<title>Node12&#45;&gt;Node7</title>
<g id="a_edge23_Node000012_Node000007"><a xlink:title=" ">
<path fill="none" stroke="#63b8ff" d="M659.91,-219.58C649.41,-206.15 627.88,-180.66 604.62,-165 583.3,-150.65 556.63,-139.66 535,-132.19"/>
<polygon fill="#63b8ff" stroke="#63b8ff" points="536.05,-128.85 525.46,-129.01 533.84,-135.49 536.05,-128.85"/>
</a>
</g>
</g>
<!-- Node13&#45;&gt;Node7 -->
<g id="edge25_Node000013_Node000007" class="edge">
<title>Node13&#45;&gt;Node7</title>
<g id="a_edge25_Node000013_Node000007"><a xlink:title=" ">
<path fill="none" stroke="#63b8ff" d="M768.33,-219.86C738.41,-207.24 680.6,-183.26 630.62,-165 597.94,-153.06 560.31,-140.77 533.09,-132.15"/>
<polygon fill="#63b8ff" stroke="#63b8ff" points="533.79,-128.7 523.2,-129.03 531.69,-135.37 533.79,-128.7"/>
</a>
</g>
</g>
<!-- Node14&#45;&gt;Node2 -->
<g id="edge29_Node000014_Node000002" class="edge">
<title>Node14&#45;&gt;Node2</title>
<g id="a_edge29_Node000014_Node000002"><a xlink:title=" ">
<path fill="none" stroke="#63b8ff" d="M270.29,-274.74C260.53,-249.09 231.89,-173.78 218.57,-138.78"/>
<polygon fill="#63b8ff" stroke="#63b8ff" points="221.8,-137.41 214.97,-129.31 215.25,-139.9 221.8,-137.41"/>
</a>
</g>
</g>
<!-- Node14&#45;&gt;Node7 -->
<g id="edge27_Node000014_Node000007" class="edge">
<title>Node14&#45;&gt;Node7</title>
<g id="a_edge27_Node000014_Node000007"><a xlink:title=" ">
<path fill="none" stroke="#63b8ff" d="M287.21,-274.87C313.39,-258.12 372.39,-219.69 419.62,-184 440.45,-168.26 463.32,-148.84 478.47,-135.66"/>
<polygon fill="#63b8ff" stroke="#63b8ff" points="480.81,-138.25 486.03,-129.03 476.2,-132.99 480.81,-138.25"/>
</a>
</g>
</g>
<!-- Node14&#45;&gt;Node9 -->
<g id="edge28_Node000014_Node000009" class="edge">
<title>Node14&#45;&gt;Node9</title>
<g id="a_edge28_Node000014_Node000009"><a xlink:title=" ">
<path fill="none" stroke="#63b8ff" d="M300.45,-274.98C328.49,-266.09 372.67,-252.07 403.92,-242.15"/>
<polygon fill="#63b8ff" stroke="#63b8ff" points="405.11,-245.44 413.58,-239.08 402.99,-238.77 405.11,-245.44"/>
</a>
</g>
</g>
<!-- Node15&#45;&gt;Node7 -->
<g id="edge32_Node000015_Node000007" class="edge">
<title>Node15&#45;&gt;Node7</title>
<g id="a_edge32_Node000015_Node000007"><a xlink:title=" ">
<path fill="none" stroke="#63b8ff" d="M454.82,-274.91C469.09,-267.64 487.13,-255.71 495.62,-239 511.95,-206.87 505.93,-163.23 500.5,-138.87"/>
<polygon fill="#63b8ff" stroke="#63b8ff" points="503.9,-138.04 498.13,-129.15 497.1,-139.69 503.9,-138.04"/>
</a>
</g>
</g>
<!-- Node16&#45;&gt;Node2 -->
<g id="edge36_Node000016_Node000002" class="edge">
<title>Node16&#45;&gt;Node2</title>
<g id="a_edge36_Node000016_Node000002"><a xlink:title=" ">
<path fill="none" stroke="#63b8ff" d="M184.07,-164.75C188.64,-157.42 195.29,-146.73 200.91,-137.7"/>
<polygon fill="#63b8ff" stroke="#63b8ff" points="203.96,-139.43 206.27,-129.09 198.02,-135.73 203.96,-139.43"/>
</a>
</g>
</g>
<!-- Node16&#45;&gt;Node7 -->
<g id="edge35_Node000016_Node000007" class="edge">
<title>Node16&#45;&gt;Node7</title>
<g id="a_edge35_Node000016_Node000007"><a xlink:title=" ">
<path fill="none" stroke="#63b8ff" d="M216.23,-167.21C272.43,-157.82 378.55,-140.07 442.6,-129.37"/>
<polygon fill="#63b8ff" stroke="#63b8ff" points="443.21,-132.81 452.5,-127.71 442.06,-125.91 443.21,-132.81"/>
</a>
</g>
</g>
<!-- Node17&#45;&gt;Node7 -->
<g id="edge38_Node000017_Node000007" class="edge">
<title>Node17&#45;&gt;Node7</title>
<g id="a_edge38_Node000017_Node000007"><a xlink:title=" ">
<path fill="none" stroke="#63b8ff" d="M558.19,-274.99C552.46,-255.27 537.22,-205.06 519.62,-165 515.61,-155.86 510.42,-146.05 505.9,-137.98"/>
<polygon fill="#63b8ff" stroke="#63b8ff" points="508.84,-136.09 500.83,-129.16 502.77,-139.57 508.84,-136.09"/>
</a>
</g>
</g>
</g>
</svg>
