<?xml version="1.0" encoding="UTF-8" standalone="no"?>
<!DOCTYPE svg PUBLIC "-//W3C//DTD SVG 1.1//EN"
 "http://www.w3.org/Graphics/SVG/1.1/DTD/svg11.dtd">
<!-- Generated by graphviz version 2.43.0 (0)
 -->
<!-- Title: QPALM/include/qpalm/solver_interface.h Pages: 1 -->
<!--zoomable 357 -->

<svg id="main" version="1.1" xmlns="http://www.w3.org/2000/svg" xmlns:xlink="http://www.w3.org/1999/xlink" xml:space="preserve" onload="init(evt)">
<style type="text/css"><![CDATA[
.node, .edge {opacity: 0.7;}
.node.selected, .edge.selected {opacity: 1;}
.edge:hover path { stroke: red; }
.edge:hover polygon { stroke: red; fill: red; }
]]></style>

<defs>
  <circle id="rim" cx="0" cy="0" r="7"/>
  <circle id="rim2" cx="0" cy="0" r="3.5"/>
  <g id="zoomPlus">
    <use xlink:href="#rim" fill="#404040"><set attributeName="fill" to="#808080" begin="zoomplus.mouseover" end="zoomplus.mouseout"/></use>
    <path d="M-4,0h8M0,-4v8" fill="none" stroke="white" stroke-width="1.5" pointer-events="none"/>
  </g>
  <g id="zoomMin">
    <use xlink:href="#rim" fill="#404040"><set attributeName="fill" to="#808080" begin="zoomminus.mouseover" end="zoomminus.mouseout"/></use>
    <path d="M-4,0h8" fill="none" stroke="white" stroke-width="1.5" pointer-events="none"/>
  </g>
  <g id="arrowUp" transform="translate(30 24)">
    <use xlink:href="#rim"/>
    <path pointer-events="none" fill="none" stroke="white" stroke-width="1.5" d="M0,-3.0v7 M-2.5,-0.5L0,-3.0L2.5,-0.5"/>
  </g>
  <g id="arrowRight" transform="rotate(90) translate(36 -43)">
    <use xlink:href="#rim"/>
    <path pointer-events="none" fill="none" stroke="white" stroke-width="1.5" d="M0,-3.0v7 M-2.5,-0.5L0,-3.0L2.5,-0.5"/>
  </g>
  <g id="arrowDown" transform="rotate(180) translate(-30 -48)">
    <use xlink:href="#rim"/>
    <path pointer-events="none" fill="none" stroke="white" stroke-width="1.5" d="M0,-3.0v7 M-2.5,-0.5L0,-3.0L2.5,-0.5"/>
  </g>
  <g id="arrowLeft" transform="rotate(270) translate(-36 17)">
    <use xlink:href="#rim"/>
    <path pointer-events="none" fill="none" stroke="white" stroke-width="1.5" d="M0,-3.0v7 M-2.5,-0.5L0,-3.0L2.5,-0.5"/>
  </g>
  <g id="resetDef">
    <use xlink:href="#rim2" fill="#404040"><set attributeName="fill" to="#808080" begin="reset.mouseover" end="reset.mouseout"/></use>
  </g>
</defs>
<script type="application/ecmascript">
var viewWidth = 1562;
var viewHeight = 357;
var sectionId = 'dynsection-1';
</script>
<script type="application/ecmascript" xlink:href="svg.min.js"/>
<svg id="graph" class="graph">
<g id="viewport">
<title>QPALM/include/qpalm/solver_interface.h</title>
<!-- Node1 -->
<g id="Node000001" class="node">
<title>Node1</title>
<g id="a_Node000001"><a xlink:title="Interface and wrapper to matrix/factorization (ladel) functions.">
<polygon fill="#999999" stroke="#666666" points="880.65,-349 758.65,-349 758.65,-319 880.65,-319 880.65,-349"/>
<text text-anchor="start" x="766.65" y="-337" font-family="Helvetica,sans-Serif" font-size="10.00">QPALM/include/qpalm</text>
<text text-anchor="middle" x="819.65" y="-326" font-family="Helvetica,sans-Serif" font-size="10.00">/solver_interface.h</text>
</a>
</g>
</g>
<!-- Node2 -->
<g id="Node000002" class="node">
<title>Node2</title>
<g id="a_Node000002"><a xlink:href="qpalm_8h.html" target="_top" xlink:title="QPALM main solver API.">
<polygon fill="white" stroke="#666666" points="687.15,-151 556.15,-151 556.15,-132 687.15,-132 687.15,-151"/>
<text text-anchor="middle" x="621.65" y="-139" font-family="Helvetica,sans-Serif" font-size="10.00">QPALM/include/qpalm.h</text>
</a>
</g>
</g>
<!-- Node1&#45;&gt;Node2 -->
<g id="edge1_Node000001_Node000002" class="edge">
<title>Node1&#45;&gt;Node2</title>
<g id="a_edge1_Node000001_Node000002"><a xlink:title=" ">
<path fill="none" stroke="#63b8ff" d="M748.43,-328.2C559.05,-314.71 54.16,-273.71 6.65,-217 -1.91,-206.78 -2.43,-196.76 6.65,-187 43.47,-147.42 405.09,-142.59 556.02,-142.32"/>
<polygon fill="#63b8ff" stroke="#63b8ff" points="748.34,-331.7 758.56,-328.92 748.83,-324.72 748.34,-331.7"/>
</a>
</g>
</g>
<!-- Node6 -->
<g id="Node000006" class="node">
<title>Node6</title>
<g id="a_Node000006"><a xlink:href="qpalm_8c.html" target="_top" xlink:title="QPALM main solver API.">
<polygon fill="white" stroke="#666666" points="1314.65,-90.5 1204.65,-90.5 1204.65,-71.5 1314.65,-71.5 1314.65,-90.5"/>
<text text-anchor="middle" x="1259.65" y="-78.5" font-family="Helvetica,sans-Serif" font-size="10.00">QPALM/src/qpalm.c</text>
</a>
</g>
</g>
<!-- Node1&#45;&gt;Node6 -->
<g id="edge24_Node000001_Node000006" class="edge">
<title>Node1&#45;&gt;Node6</title>
<g id="a_edge24_Node000001_Node000006"><a xlink:title=" ">
<path fill="none" stroke="#63b8ff" d="M890.88,-332.74C1055.98,-330.45 1457.06,-314.75 1539.65,-217 1606.79,-137.55 1414.09,-101.21 1314.77,-88.1"/>
<polygon fill="#63b8ff" stroke="#63b8ff" points="890.78,-329.24 880.82,-332.86 890.86,-336.24 890.78,-329.24"/>
</a>
</g>
</g>
<!-- Node7 -->
<g id="Node000007" class="node">
<title>Node7</title>
<g id="a_Node000007"><a xlink:href="lin__alg_8h.html" target="_top" xlink:title="Linear algebra with vectors.">
<polygon fill="white" stroke="#666666" points="880.65,-283 758.65,-283 758.65,-253 880.65,-253 880.65,-283"/>
<text text-anchor="start" x="766.65" y="-271" font-family="Helvetica,sans-Serif" font-size="10.00">QPALM/include/qpalm</text>
<text text-anchor="middle" x="819.65" y="-260" font-family="Helvetica,sans-Serif" font-size="10.00">/lin_alg.h</text>
</a>
</g>
</g>
<!-- Node1&#45;&gt;Node7 -->
<g id="edge6_Node000001_Node000007" class="edge">
<title>Node1&#45;&gt;Node7</title>
<g id="a_edge6_Node000001_Node000007"><a xlink:title=" ">
<path fill="none" stroke="#63b8ff" d="M819.65,-308.54C819.65,-299.96 819.65,-290.61 819.65,-283.16"/>
<polygon fill="#63b8ff" stroke="#63b8ff" points="816.15,-308.8 819.65,-318.8 823.15,-308.8 816.15,-308.8"/>
</a>
</g>
</g>
<!-- Node10 -->
<g id="Node000010" class="node">
<title>Node10</title>
<g id="a_Node000010"><a xlink:href="iteration_8c.html" target="_top" xlink:title="QPALM main solver routines.">
<polygon fill="white" stroke="#666666" points="135.65,-211.5 15.65,-211.5 15.65,-192.5 135.65,-192.5 135.65,-211.5"/>
<text text-anchor="middle" x="75.65" y="-199.5" font-family="Helvetica,sans-Serif" font-size="10.00">QPALM/src/iteration.c</text>
</a>
</g>
</g>
<!-- Node1&#45;&gt;Node10 -->
<g id="edge23_Node000001_Node000010" class="edge">
<title>Node1&#45;&gt;Node10</title>
<g id="a_edge23_Node000001_Node000010"><a xlink:title=" ">
<path fill="none" stroke="#63b8ff" d="M748.41,-320.55C598.18,-294.3 252.26,-233.86 124.35,-211.51"/>
<polygon fill="#63b8ff" stroke="#63b8ff" points="748,-324.03 758.45,-322.31 749.2,-317.14 748,-324.03"/>
</a>
</g>
</g>
<!-- Node15 -->
<g id="Node000015" class="node">
<title>Node15</title>
<g id="a_Node000015"><a xlink:href="solver__interface_8c.html" target="_top" xlink:title="Interface and wrapper to matrix/factorization (ladel) functions.">
<polygon fill="white" stroke="#666666" points="1530.65,-211.5 1372.65,-211.5 1372.65,-192.5 1530.65,-192.5 1530.65,-211.5"/>
<text text-anchor="middle" x="1451.65" y="-199.5" font-family="Helvetica,sans-Serif" font-size="10.00">QPALM/src/solver_interface.c</text>
</a>
</g>
</g>
<!-- Node1&#45;&gt;Node15 -->
<g id="edge25_Node000001_Node000015" class="edge">
<title>Node1&#45;&gt;Node15</title>
<g id="a_edge25_Node000001_Node000015"><a xlink:title=" ">
<path fill="none" stroke="#63b8ff" d="M890.88,-318.35C1023.52,-291.06 1304.47,-233.27 1410.23,-211.52"/>
<polygon fill="#63b8ff" stroke="#63b8ff" points="889.91,-314.97 880.82,-320.42 891.32,-321.83 889.91,-314.97"/>
</a>
</g>
</g>
<!-- Node3 -->
<g id="Node000003" class="node">
<title>Node3</title>
<g id="a_Node000003"><a xlink:href="qpalm_8cpp.html" target="_top" xlink:title=" ">
<polygon fill="white" stroke="#666666" points="756.65,-96 634.65,-96 634.65,-66 756.65,-66 756.65,-96"/>
<text text-anchor="start" x="642.65" y="-84" font-family="Helvetica,sans-Serif" font-size="10.00">QPALM/interfaces/cxx</text>
<text text-anchor="middle" x="695.65" y="-73" font-family="Helvetica,sans-Serif" font-size="10.00">/src/qpalm.cpp</text>
</a>
</g>
</g>
<!-- Node2&#45;&gt;Node3 -->
<g id="edge2_Node000002_Node000003" class="edge">
<title>Node2&#45;&gt;Node3</title>
<g id="a_edge2_Node000002_Node000003"><a xlink:title=" ">
<path fill="none" stroke="#63b8ff" d="M640.62,-125.5C652.07,-116.45 666.56,-105 677.79,-96.11"/>
<polygon fill="#63b8ff" stroke="#63b8ff" points="638.24,-122.92 632.57,-131.87 642.58,-128.41 638.24,-122.92"/>
</a>
</g>
</g>
<!-- Node4 -->
<g id="Node000004" class="node">
<title>Node4</title>
<g id="a_Node000004"><a xlink:href="qpalm__fortran_8h.html" target="_top" xlink:title=" ">
<polygon fill="white" stroke="#666666" points="616.65,-96 478.65,-96 478.65,-66 616.65,-66 616.65,-96"/>
<text text-anchor="start" x="486.65" y="-84" font-family="Helvetica,sans-Serif" font-size="10.00">QPALM/interfaces/fortran</text>
<text text-anchor="middle" x="547.65" y="-73" font-family="Helvetica,sans-Serif" font-size="10.00">/qpalm_fortran.h</text>
</a>
</g>
</g>
<!-- Node2&#45;&gt;Node4 -->
<g id="edge3_Node000002_Node000004" class="edge">
<title>Node2&#45;&gt;Node4</title>
<g id="a_edge3_Node000002_Node000004"><a xlink:title=" ">
<path fill="none" stroke="#63b8ff" d="M602.68,-125.5C591.23,-116.45 576.74,-105 565.5,-96.11"/>
<polygon fill="#63b8ff" stroke="#63b8ff" points="600.71,-128.41 610.73,-131.87 605.06,-122.92 600.71,-128.41"/>
</a>
</g>
</g>
<!-- Node2&#45;&gt;Node6 -->
<g id="edge5_Node000002_Node000006" class="edge">
<title>Node2&#45;&gt;Node6</title>
<g id="a_edge5_Node000002_Node000006"><a xlink:title=" ">
<path fill="none" stroke="#63b8ff" d="M697.49,-133.55C827.46,-121.63 1089.81,-97.57 1204.21,-87.08"/>
<polygon fill="#63b8ff" stroke="#63b8ff" points="696.86,-130.09 687.23,-134.49 697.5,-137.06 696.86,-130.09"/>
</a>
</g>
</g>
<!-- Node5 -->
<g id="Node000005" class="node">
<title>Node5</title>
<g id="a_Node000005"><a xlink:href="qpalm__fortran_8c.html" target="_top" xlink:title=" ">
<polygon fill="white" stroke="#666666" points="616.65,-30 478.65,-30 478.65,0 616.65,0 616.65,-30"/>
<text text-anchor="start" x="486.65" y="-18" font-family="Helvetica,sans-Serif" font-size="10.00">QPALM/interfaces/fortran</text>
<text text-anchor="middle" x="547.65" y="-7" font-family="Helvetica,sans-Serif" font-size="10.00">/qpalm_fortran.c</text>
</a>
</g>
</g>
<!-- Node4&#45;&gt;Node5 -->
<g id="edge4_Node000004_Node000005" class="edge">
<title>Node4&#45;&gt;Node5</title>
<g id="a_edge4_Node000004_Node000005"><a xlink:title=" ">
<path fill="none" stroke="#63b8ff" d="M547.65,-55.54C547.65,-46.96 547.65,-37.61 547.65,-30.16"/>
<polygon fill="#63b8ff" stroke="#63b8ff" points="544.15,-55.8 547.65,-65.8 551.15,-55.8 544.15,-55.8"/>
</a>
</g>
</g>
<!-- Node7&#45;&gt;Node2 -->
<g id="edge7_Node000007_Node000002" class="edge">
<title>Node7&#45;&gt;Node2</title>
<g id="a_edge7_Node000007_Node000002"><a xlink:title=" ">
<path fill="none" stroke="#63b8ff" d="M748.09,-263.96C585.66,-256.73 201.62,-237.52 182.65,-217 173.6,-207.21 173.71,-196.89 182.65,-187 207.18,-159.86 439.48,-148.45 555.86,-144.4"/>
<polygon fill="#63b8ff" stroke="#63b8ff" points="748.32,-267.48 758.46,-264.42 748.63,-260.48 748.32,-267.48"/>
</a>
</g>
</g>
<!-- Node7&#45;&gt;Node6 -->
<g id="edge17_Node000007_Node000006" class="edge">
<title>Node7&#45;&gt;Node6</title>
<g id="a_edge17_Node000007_Node000006"><a xlink:title=" ">
<path fill="none" stroke="#63b8ff" d="M890.87,-263.93C1017.9,-257.83 1273.24,-242.54 1304.65,-217 1334.84,-192.45 1342.97,-166.85 1325.65,-132 1315.99,-112.56 1294.76,-98.66 1278.97,-90.52"/>
<polygon fill="#63b8ff" stroke="#63b8ff" points="890.66,-260.44 880.84,-264.4 891,-267.43 890.66,-260.44"/>
</a>
</g>
</g>
<!-- Node8 -->
<g id="Node000008" class="node">
<title>Node8</title>
<g id="a_Node000008"><a xlink:href="scaling_8h.html" target="_top" xlink:title="Problem data scaling during setup.">
<polygon fill="white" stroke="#666666" points="1278.65,-217 1156.65,-217 1156.65,-187 1278.65,-187 1278.65,-217"/>
<text text-anchor="start" x="1164.65" y="-205" font-family="Helvetica,sans-Serif" font-size="10.00">QPALM/include/qpalm</text>
<text text-anchor="middle" x="1217.65" y="-194" font-family="Helvetica,sans-Serif" font-size="10.00">/scaling.h</text>
</a>
</g>
</g>
<!-- Node7&#45;&gt;Node8 -->
<g id="edge8_Node000007_Node000008" class="edge">
<title>Node7&#45;&gt;Node8</title>
<g id="a_edge8_Node000007_Node000008"><a xlink:title=" ">
<path fill="none" stroke="#63b8ff" d="M890.8,-257.12C957.35,-247.65 1059.43,-232.54 1147.65,-217 1150.58,-216.48 1153.57,-215.94 1156.6,-215.38"/>
<polygon fill="#63b8ff" stroke="#63b8ff" points="890.25,-253.66 880.84,-258.53 891.24,-260.59 890.25,-253.66"/>
</a>
</g>
</g>
<!-- Node9 -->
<g id="Node000009" class="node">
<title>Node9</title>
<g id="a_Node000009"><a xlink:href="scaling_8c.html" target="_top" xlink:title="Problem data scaling during setup.">
<polygon fill="white" stroke="#666666" points="1316.15,-151 1203.15,-151 1203.15,-132 1316.15,-132 1316.15,-151"/>
<text text-anchor="middle" x="1259.65" y="-139" font-family="Helvetica,sans-Serif" font-size="10.00">QPALM/src/scaling.c</text>
</a>
</g>
</g>
<!-- Node7&#45;&gt;Node9 -->
<g id="edge18_Node000007_Node000009" class="edge">
<title>Node7&#45;&gt;Node9</title>
<g id="a_edge18_Node000007_Node000009"><a xlink:title=" ">
<path fill="none" stroke="#63b8ff" d="M890.97,-264.53C1015.45,-259.48 1261.65,-245.93 1287.65,-217 1305.01,-197.68 1281.77,-166.56 1268.2,-151.39"/>
<polygon fill="#63b8ff" stroke="#63b8ff" points="890.63,-261.04 880.77,-264.94 890.9,-268.04 890.63,-261.04"/>
</a>
</g>
</g>
<!-- Node7&#45;&gt;Node10 -->
<g id="edge12_Node000007_Node000010" class="edge">
<title>Node7&#45;&gt;Node10</title>
<g id="a_edge12_Node000007_Node000010"><a xlink:title=" ">
<path fill="none" stroke="#63b8ff" d="M748.42,-264.32C625.72,-259.11 366.75,-245.54 149.65,-217 138.76,-215.57 127.05,-213.57 116.23,-211.53"/>
<polygon fill="#63b8ff" stroke="#63b8ff" points="748.31,-267.82 758.44,-264.74 748.6,-260.82 748.31,-267.82"/>
</a>
</g>
</g>
<!-- Node11 -->
<g id="Node000011" class="node">
<title>Node11</title>
<g id="a_Node000011"><a xlink:href="lin__alg_8c.html" target="_top" xlink:title="Linear algebra with vectors.">
<polygon fill="white" stroke="#666666" points="303.15,-211.5 192.15,-211.5 192.15,-192.5 303.15,-192.5 303.15,-211.5"/>
<text text-anchor="middle" x="247.65" y="-199.5" font-family="Helvetica,sans-Serif" font-size="10.00">QPALM/src/lin_alg.c</text>
</a>
</g>
</g>
<!-- Node7&#45;&gt;Node11 -->
<g id="edge13_Node000007_Node000011" class="edge">
<title>Node7&#45;&gt;Node11</title>
<g id="a_edge13_Node000007_Node000011"><a xlink:title=" ">
<path fill="none" stroke="#63b8ff" d="M748.21,-262.62C649.59,-255.97 466.36,-241.45 311.65,-217 302.32,-215.53 292.32,-213.54 283.05,-211.52"/>
<polygon fill="#63b8ff" stroke="#63b8ff" points="748.15,-266.12 758.36,-263.3 748.62,-259.14 748.15,-266.12"/>
</a>
</g>
</g>
<!-- Node12 -->
<g id="Node000012" class="node">
<title>Node12</title>
<g id="a_Node000012"><a xlink:href="linesearch_8c.html" target="_top" xlink:title="Routines to perform exact or backtracking linesearch.">
<polygon fill="white" stroke="#666666" points="450.15,-211.5 321.15,-211.5 321.15,-192.5 450.15,-192.5 450.15,-211.5"/>
<text text-anchor="middle" x="385.65" y="-199.5" font-family="Helvetica,sans-Serif" font-size="10.00">QPALM/src/linesearch.c</text>
</a>
</g>
</g>
<!-- Node7&#45;&gt;Node12 -->
<g id="edge14_Node000007_Node000012" class="edge">
<title>Node7&#45;&gt;Node12</title>
<g id="a_edge14_Node000007_Node000012"><a xlink:title=" ">
<path fill="none" stroke="#63b8ff" d="M748.51,-258.25C675.58,-249.03 558.96,-233.55 458.65,-217 448.72,-215.36 438.06,-213.42 428.04,-211.52"/>
<polygon fill="#63b8ff" stroke="#63b8ff" points="748.14,-261.73 758.5,-259.51 749.02,-254.79 748.14,-261.73"/>
</a>
</g>
</g>
<!-- Node13 -->
<g id="Node000013" class="node">
<title>Node13</title>
<g id="a_Node000013"><a xlink:href="newton_8c.html" target="_top" xlink:title="Functions to calculate the semismooth Newton direction.">
<polygon fill="white" stroke="#666666" points="583.15,-211.5 468.15,-211.5 468.15,-192.5 583.15,-192.5 583.15,-211.5"/>
<text text-anchor="middle" x="525.65" y="-199.5" font-family="Helvetica,sans-Serif" font-size="10.00">QPALM/src/newton.c</text>
</a>
</g>
</g>
<!-- Node7&#45;&gt;Node13 -->
<g id="edge15_Node000007_Node000013" class="edge">
<title>Node7&#45;&gt;Node13</title>
<g id="a_edge15_Node000007_Node000013"><a xlink:title=" ">
<path fill="none" stroke="#63b8ff" d="M748.58,-251.53C690.87,-238.97 611.63,-221.72 564.81,-211.53"/>
<polygon fill="#63b8ff" stroke="#63b8ff" points="747.86,-254.95 758.37,-253.66 749.35,-248.11 747.86,-254.95"/>
</a>
</g>
</g>
<!-- Node14 -->
<g id="Node000014" class="node">
<title>Node14</title>
<g id="a_Node000014"><a xlink:href="nonconvex_8c.html" target="_top" xlink:title="Routines to deal with nonconvex QPs.">
<polygon fill="white" stroke="#666666" points="733.65,-211.5 601.65,-211.5 601.65,-192.5 733.65,-192.5 733.65,-211.5"/>
<text text-anchor="middle" x="667.65" y="-199.5" font-family="Helvetica,sans-Serif" font-size="10.00">QPALM/src/nonconvex.c</text>
</a>
</g>
</g>
<!-- Node7&#45;&gt;Node14 -->
<g id="edge16_Node000007_Node000014" class="edge">
<title>Node7&#45;&gt;Node14</title>
<g id="a_edge16_Node000007_Node000014"><a xlink:title=" ">
<path fill="none" stroke="#63b8ff" d="M776.76,-248.94C747.64,-236.68 710.45,-221.02 687.88,-211.52"/>
<polygon fill="#63b8ff" stroke="#63b8ff" points="775.72,-252.3 786.29,-252.95 778.43,-245.85 775.72,-252.3"/>
</a>
</g>
</g>
<!-- Node7&#45;&gt;Node15 -->
<g id="edge19_Node000007_Node000015" class="edge">
<title>Node7&#45;&gt;Node15</title>
<g id="a_edge19_Node000007_Node000015"><a xlink:title=" ">
<path fill="none" stroke="#63b8ff" d="M890.8,-261.7C994.06,-253.71 1191.4,-237.33 1358.65,-217 1371.62,-215.42 1385.56,-213.47 1398.61,-211.52"/>
<polygon fill="#63b8ff" stroke="#63b8ff" points="890.5,-258.21 880.8,-262.47 891.04,-265.19 890.5,-258.21"/>
</a>
</g>
</g>
<!-- Node16 -->
<g id="Node000016" class="node">
<title>Node16</title>
<g id="a_Node000016"><a xlink:href="termination_8c.html" target="_top" xlink:title="Routines to check the termination and infeasibility criteria.">
<polygon fill="white" stroke="#666666" points="887.65,-211.5 751.65,-211.5 751.65,-192.5 887.65,-192.5 887.65,-211.5"/>
<text text-anchor="middle" x="819.65" y="-199.5" font-family="Helvetica,sans-Serif" font-size="10.00">QPALM/src/termination.c</text>
</a>
</g>
</g>
<!-- Node7&#45;&gt;Node16 -->
<g id="edge20_Node000007_Node000016" class="edge">
<title>Node7&#45;&gt;Node16</title>
<g id="a_edge20_Node000007_Node000016"><a xlink:title=" ">
<path fill="none" stroke="#63b8ff" d="M819.65,-242.6C819.65,-231.8 819.65,-219.78 819.65,-211.84"/>
<polygon fill="#63b8ff" stroke="#63b8ff" points="816.15,-242.8 819.65,-252.8 823.15,-242.8 816.15,-242.8"/>
</a>
</g>
</g>
<!-- Node17 -->
<g id="Node000017" class="node">
<title>Node17</title>
<g id="a_Node000017"><a xlink:href="util_8c.html" target="_top" xlink:title="Utility functions.">
<polygon fill="white" stroke="#666666" points="1001.15,-211.5 906.15,-211.5 906.15,-192.5 1001.15,-192.5 1001.15,-211.5"/>
<text text-anchor="middle" x="953.65" y="-199.5" font-family="Helvetica,sans-Serif" font-size="10.00">QPALM/src/util.c</text>
</a>
</g>
</g>
<!-- Node7&#45;&gt;Node17 -->
<g id="edge21_Node000007_Node000017" class="edge">
<title>Node7&#45;&gt;Node17</title>
<g id="a_edge21_Node000007_Node000017"><a xlink:title=" ">
<path fill="none" stroke="#63b8ff" d="M858.13,-248.62C883.7,-236.41 916.09,-220.94 935.82,-211.52"/>
<polygon fill="#63b8ff" stroke="#63b8ff" points="856.57,-245.49 849.06,-252.95 859.59,-251.8 856.57,-245.49"/>
</a>
</g>
</g>
<!-- Node18 -->
<g id="Node000018" class="node">
<title>Node18</title>
<g id="a_Node000018"><a xlink:href="validate_8c.html" target="_top" xlink:title="Validation of the user provided settings and data.">
<polygon fill="white" stroke="#666666" points="1138.15,-211.5 1019.15,-211.5 1019.15,-192.5 1138.15,-192.5 1138.15,-211.5"/>
<text text-anchor="middle" x="1078.65" y="-199.5" font-family="Helvetica,sans-Serif" font-size="10.00">QPALM/src/validate.c</text>
</a>
</g>
</g>
<!-- Node7&#45;&gt;Node18 -->
<g id="edge22_Node000007_Node000018" class="edge">
<title>Node7&#45;&gt;Node18</title>
<g id="a_edge22_Node000007_Node000018"><a xlink:title=" ">
<path fill="none" stroke="#63b8ff" d="M886.34,-250.52C936.8,-238.05 1004.04,-221.44 1044.18,-211.52"/>
<polygon fill="#63b8ff" stroke="#63b8ff" points="885.36,-247.16 876.49,-252.95 887.04,-253.95 885.36,-247.16"/>
</a>
</g>
</g>
<!-- Node8&#45;&gt;Node2 -->
<g id="edge9_Node000008_Node000002" class="edge">
<title>Node8&#45;&gt;Node2</title>
<g id="a_edge9_Node000008_Node000002"><a xlink:title=" ">
<path fill="none" stroke="#63b8ff" d="M1146.69,-186.98C975.55,-163.16 785.49,-150.93 687.52,-145.68"/>
<polygon fill="#63b8ff" stroke="#63b8ff" points="1146.25,-190.45 1156.64,-188.38 1147.22,-183.52 1146.25,-190.45"/>
</a>
</g>
</g>
<!-- Node8&#45;&gt;Node6 -->
<g id="edge10_Node000008_Node000006" class="edge">
<title>Node8&#45;&gt;Node6</title>
<g id="a_edge10_Node000008_Node000006"><a xlink:title=" ">
<path fill="none" stroke="#63b8ff" d="M1201.15,-178.01C1193.44,-164.29 1187.4,-146.73 1194.65,-132 1204.15,-112.71 1225.05,-98.78 1240.61,-90.6"/>
<polygon fill="#63b8ff" stroke="#63b8ff" points="1198.36,-180.16 1206.61,-186.81 1204.31,-176.47 1198.36,-180.16"/>
</a>
</g>
</g>
<!-- Node8&#45;&gt;Node9 -->
<g id="edge11_Node000008_Node000009" class="edge">
<title>Node8&#45;&gt;Node9</title>
<g id="a_edge11_Node000008_Node000009"><a xlink:title=" ">
<path fill="none" stroke="#63b8ff" d="M1233.8,-178.51C1240.63,-168.99 1248.19,-158.47 1253.36,-151.27"/>
<polygon fill="#63b8ff" stroke="#63b8ff" points="1230.81,-176.67 1227.82,-186.84 1236.49,-180.76 1230.81,-176.67"/>
</a>
</g>
</g>
</g>
</svg>

<g id="navigator" transform="translate(0 0)" fill="#404254">
  <rect fill="#f2f5e9" fill-opacity="0.5" stroke="#606060" stroke-width=".5" x="0" y="0" width="60" height="60"/>
  <use id="zoomplus" xlink:href="#zoomPlus" x="17" y="9" onmousedown="handleZoom(evt,'in')"/>
  <use id="zoomminus" xlink:href="#zoomMin" x="42" y="9" onmousedown="handleZoom(evt,'out')"/>
  <use id="reset" xlink:href="#resetDef" x="30" y="36" onmousedown="handleReset()"/>
   <use id="arrowup" xlink:href="#arrowUp" x="0" y="0" onmousedown="handlePan(0,-1)"/>
  <use id="arrowright" xlink:href="#arrowRight" x="0" y="0" onmousedown="handlePan(1,0)"/>
  <use id="arrowdown" xlink:href="#arrowDown" x="0" y="0" onmousedown="handlePan(0,1)"/>
  <use id="arrowleft" xlink:href="#arrowLeft" x="0" y="0" onmousedown="handlePan(-1,0)"/>
</g>
<svg viewBox="0 0 15 15" width="100%" height="30px" preserveAspectRatio="xMaxYMin meet">
 <g id="arrow_out" transform="scale(0.3 0.3)">
  <a xlink:href="solver__interface_8h__dep__incl_org.svg" target="_base">
   <rect id="button" ry="5" rx="5" y="6" x="6" height="38" width="38"
        fill="#f2f5e9" fill-opacity="0.5" stroke="#606060" stroke-width="1.0"/>
   <path id="arrow"
     d="M 11.500037,31.436501 C 11.940474,20.09759 22.043105,11.32322 32.158766,21.979434 L 37.068811,17.246167 C 37.068811,17.246167 37.088388,32 37.088388,32 L 22.160133,31.978069 C 22.160133,31.978069 26.997745,27.140456 26.997745,27.140456 C 18.528582,18.264221 13.291696,25.230495 11.500037,31.436501 z"
     style="fill:#404040;"/>
  </a>
 </g>
</svg>

<style type='text/css'>
<![CDATA[
[data-mouse-over-selected='false'] { opacity: 0.7; }
[data-mouse-over-selected='true']  { opacity: 1.0; }
]]>
</style>
<script type="application/ecmascript"><![CDATA[
document.addEventListener('DOMContentLoaded', (event) => {
  highlightEdges();
  highlightAdjacentNodes();
});
]]></script>
</svg>
