<?xml version="1.0" encoding="UTF-8" standalone="no"?>
<!DOCTYPE svg PUBLIC "-//W3C//DTD SVG 1.1//EN"
 "http://www.w3.org/Graphics/SVG/1.1/DTD/svg11.dtd">
<!-- Generated by graphviz version 2.43.0 (0)
 -->
<!-- Title: qpalm_fiface::qpalm_info Pages: 1 -->
<svg width="142pt" height="222pt"
 viewBox="0.00 0.00 142.00 222.00" xmlns="http://www.w3.org/2000/svg" xmlns:xlink="http://www.w3.org/1999/xlink">
<g id="graph0" class="graph" transform="scale(1 1) rotate(0) translate(4 218)">
<title>qpalm_fiface::qpalm_info</title>
<!-- Node1 -->
<g id="Node000001" class="node">
<title>Node1</title>
<g id="a_Node000001"><a xlink:title="info derived type with component defaults bound to C’s QPALMInfo">
<polygon fill="#999999" stroke="transparent" points="134,-214 0,-214 0,0 134,0 134,-214"/>
<text text-anchor="start" x="5" y="-202" font-family="Helvetica,sans-Serif" font-size="10.00">qpalm_fiface::qpalm_info</text>
<text text-anchor="start" x="13" y="-187" font-family="Helvetica,sans-Serif" font-size="10.00">+</text>
<text text-anchor="start" x="35" y="-187" font-family="Helvetica,sans-Serif" font-size="10.00">iter</text>
<text text-anchor="start" x="13" y="-172" font-family="Helvetica,sans-Serif" font-size="10.00">+</text>
<text text-anchor="start" x="35" y="-172" font-family="Helvetica,sans-Serif" font-size="10.00">iter_out</text>
<text text-anchor="start" x="13" y="-157" font-family="Helvetica,sans-Serif" font-size="10.00">+</text>
<text text-anchor="start" x="35" y="-157" font-family="Helvetica,sans-Serif" font-size="10.00">status</text>
<text text-anchor="start" x="13" y="-142" font-family="Helvetica,sans-Serif" font-size="10.00">+</text>
<text text-anchor="start" x="35" y="-142" font-family="Helvetica,sans-Serif" font-size="10.00">status_val</text>
<text text-anchor="start" x="13" y="-127" font-family="Helvetica,sans-Serif" font-size="10.00">+</text>
<text text-anchor="start" x="35" y="-127" font-family="Helvetica,sans-Serif" font-size="10.00">pri_res_norm</text>
<text text-anchor="start" x="13" y="-112" font-family="Helvetica,sans-Serif" font-size="10.00">+</text>
<text text-anchor="start" x="35" y="-112" font-family="Helvetica,sans-Serif" font-size="10.00">dua_res_norm</text>
<text text-anchor="start" x="13" y="-97" font-family="Helvetica,sans-Serif" font-size="10.00">+</text>
<text text-anchor="start" x="35" y="-97" font-family="Helvetica,sans-Serif" font-size="10.00">dua2_res_norm</text>
<text text-anchor="start" x="13" y="-82" font-family="Helvetica,sans-Serif" font-size="10.00">+</text>
<text text-anchor="start" x="35" y="-82" font-family="Helvetica,sans-Serif" font-size="10.00">objective</text>
<text text-anchor="start" x="13" y="-67" font-family="Helvetica,sans-Serif" font-size="10.00">+</text>
<text text-anchor="start" x="35" y="-67" font-family="Helvetica,sans-Serif" font-size="10.00">dual_objective</text>
<text text-anchor="start" x="13" y="-52" font-family="Helvetica,sans-Serif" font-size="10.00">+</text>
<text text-anchor="start" x="35" y="-52" font-family="Helvetica,sans-Serif" font-size="10.00">setup_time</text>
<text text-anchor="start" x="13" y="-37" font-family="Helvetica,sans-Serif" font-size="10.00">+</text>
<text text-anchor="start" x="35" y="-37" font-family="Helvetica,sans-Serif" font-size="10.00">solve_time</text>
<text text-anchor="start" x="13" y="-22" font-family="Helvetica,sans-Serif" font-size="10.00">+</text>
<text text-anchor="start" x="35" y="-22" font-family="Helvetica,sans-Serif" font-size="10.00">run_time</text>
<text text-anchor="start" x="65" y="-7" font-family="Helvetica,sans-Serif" font-size="10.00"> </text>
<polygon fill="#666666" stroke="#666666" points="0,-197 0,-197 134,-197 134,-197 0,-197"/>
<polygon fill="#666666" stroke="#666666" points="0,-17 0,-17 33,-17 33,-17 0,-17"/>
<polygon fill="#666666" stroke="#666666" points="33,-17 33,-17 134,-17 134,-17 33,-17"/>
<polygon fill="none" stroke="#666666" points="0,0 0,-214 134,-214 134,0 0,0"/>
</a>
</g>
</g>
</g>
</svg>
