<?xml version="1.0" encoding="UTF-8" standalone="no"?>
<!DOCTYPE svg PUBLIC "-//W3C//DTD SVG 1.1//EN"
 "http://www.w3.org/Graphics/SVG/1.1/DTD/svg11.dtd">
<!-- Generated by graphviz version 2.43.0 (0)
 -->
<!-- Title: is_dual_infeasible Pages: 1 -->
<svg width="242pt" height="138pt"
 viewBox="0.00 0.00 242.00 138.00" xmlns="http://www.w3.org/2000/svg" xmlns:xlink="http://www.w3.org/1999/xlink">

<svg id="main" version="1.1" xmlns="http://www.w3.org/2000/svg" xmlns:xlink="http://www.w3.org/1999/xlink" xml:space="preserve" onload="init(evt)">
<style type="text/css"><![CDATA[
.node, .edge {opacity: 0.7;}
.node.selected, .edge.selected {opacity: 1;}
.edge:hover path { stroke: red; }
.edge:hover polygon { stroke: red; fill: red; }
]]></style>
<script type="application/ecmascript" xlink:href="svg.min.js"/>
<svg id="graph" class="graph">
<g id="graph0" class="graph" transform="scale(1 1) rotate(0) translate(4 134)">
<title>is_dual_infeasible</title>
<!-- Node1 -->
<g id="Node000001" class="node">
<title>Node1</title>
<g id="a_Node000001"><a xlink:title="Check whether the problem is dual infeasible.">
<polygon fill="#999999" stroke="#666666" points="104,-74 0,-74 0,-55 104,-55 104,-74"/>
<text text-anchor="middle" x="52" y="-62" font-family="Helvetica,sans-Serif" font-size="10.00">is_dual_infeasible</text>
</a>
</g>
</g>
<!-- Node2 -->
<g id="Node000002" class="node">
<title>Node2</title>
<g id="a_Node000002"><a xlink:href="lin__alg_8c.html#a0fde1aeeea954e43db160ec6e3697cd5" target="_top" xlink:title="Scaled addition of one vector to another vector, .">
<polygon fill="white" stroke="#666666" points="234,-130 140,-130 140,-111 234,-111 234,-130"/>
<text text-anchor="middle" x="187" y="-118" font-family="Helvetica,sans-Serif" font-size="10.00">vec_add_scaled</text>
</a>
</g>
</g>
<!-- Node1&#45;&gt;Node2 -->
<g id="edge1_Node000001_Node000002" class="edge">
<title>Node1&#45;&gt;Node2</title>
<g id="a_edge1_Node000001_Node000002"><a xlink:title=" ">
<path fill="none" stroke="#63b8ff" d="M74.35,-74.1C91.9,-81.93 117.46,-93.17 140,-102.5 143.73,-104.04 147.64,-105.63 151.54,-107.18"/>
<polygon fill="#63b8ff" stroke="#63b8ff" points="150.51,-110.54 161.1,-110.96 153.09,-104.03 150.51,-110.54"/>
</a>
</g>
</g>
<!-- Node3 -->
<g id="Node000003" class="node">
<title>Node3</title>
<g id="a_Node000003"><a xlink:href="lin__alg_8c.html#ab48ddb2d35dd1a04bd27f06cb49400cb" target="_top" xlink:title="Elementwise product, .">
<polygon fill="white" stroke="#666666" points="227,-93 147,-93 147,-74 227,-74 227,-93"/>
<text text-anchor="middle" x="187" y="-81" font-family="Helvetica,sans-Serif" font-size="10.00">vec_ew_prod</text>
</a>
</g>
</g>
<!-- Node1&#45;&gt;Node3 -->
<g id="edge2_Node000001_Node000003" class="edge">
<title>Node1&#45;&gt;Node3</title>
<g id="a_edge2_Node000001_Node000003"><a xlink:title=" ">
<path fill="none" stroke="#63b8ff" d="M104.04,-71.79C114.81,-73.33 126.15,-74.95 136.85,-76.48"/>
<polygon fill="#63b8ff" stroke="#63b8ff" points="136.48,-79.96 146.87,-77.91 137.47,-73.03 136.48,-79.96"/>
</a>
</g>
</g>
<!-- Node4 -->
<g id="Node000004" class="node">
<title>Node4</title>
<g id="a_Node000004"><a xlink:href="lin__alg_8c.html#ad69e3ef3b7360cd1d6262ee2f32fce83" target="_top" xlink:title="Infinity norm of a vector, .">
<polygon fill="white" stroke="#666666" points="228.5,-56 145.5,-56 145.5,-37 228.5,-37 228.5,-56"/>
<text text-anchor="middle" x="187" y="-44" font-family="Helvetica,sans-Serif" font-size="10.00">vec_norm_inf</text>
</a>
</g>
</g>
<!-- Node1&#45;&gt;Node4 -->
<g id="edge3_Node000001_Node000004" class="edge">
<title>Node1&#45;&gt;Node4</title>
<g id="a_edge3_Node000001_Node000004"><a xlink:title=" ">
<path fill="none" stroke="#63b8ff" d="M104.04,-57.59C114.26,-56.21 124.99,-54.76 135.21,-53.37"/>
<polygon fill="#63b8ff" stroke="#63b8ff" points="135.76,-56.83 145.2,-52.02 134.82,-49.89 135.76,-56.83"/>
</a>
</g>
</g>
<!-- Node5 -->
<g id="Node000005" class="node">
<title>Node5</title>
<g id="a_Node000005"><a xlink:href="lin__alg_8c.html#ab83e787c2e0edb5803a860b1c894f53d" target="_top" xlink:title="Inner product between two vectors, .">
<polygon fill="white" stroke="#666666" points="217.5,-19 156.5,-19 156.5,0 217.5,0 217.5,-19"/>
<text text-anchor="middle" x="187" y="-7" font-family="Helvetica,sans-Serif" font-size="10.00">vec_prod</text>
</a>
</g>
</g>
<!-- Node1&#45;&gt;Node5 -->
<g id="edge4_Node000001_Node000005" class="edge">
<title>Node1&#45;&gt;Node5</title>
<g id="a_edge4_Node000001_Node000005"><a xlink:title=" ">
<path fill="none" stroke="#63b8ff" d="M76.26,-54.87C93.78,-47.62 118.4,-37.43 140,-28.5 144.25,-26.74 148.71,-24.9 153.13,-23.07"/>
<polygon fill="#63b8ff" stroke="#63b8ff" points="154.69,-26.22 162.6,-19.16 152.02,-19.75 154.69,-26.22"/>
</a>
</g>
</g>
</g>
</svg>
</svg>

<style type='text/css'>
<![CDATA[
[data-mouse-over-selected='false'] { opacity: 0.7; }
[data-mouse-over-selected='true']  { opacity: 1.0; }
]]>
</style>
<script type="application/ecmascript"><![CDATA[
document.addEventListener('DOMContentLoaded', (event) => {
  highlightEdges();
  highlightAdjacentNodes();
});
]]></script>
</svg>
