<?xml version="1.0" encoding="UTF-8" standalone="no"?>
<!DOCTYPE svg PUBLIC "-//W3C//DTD SVG 1.1//EN"
 "http://www.w3.org/Graphics/SVG/1.1/DTD/svg11.dtd">
<!-- Generated by graphviz version 2.43.0 (0)
 -->
<!-- Title: qpalm_toc Pages: 1 -->
<svg width="428pt" height="284pt"
 viewBox="0.00 0.00 428.00 283.50" xmlns="http://www.w3.org/2000/svg" xmlns:xlink="http://www.w3.org/1999/xlink">

<svg id="main" version="1.1" xmlns="http://www.w3.org/2000/svg" xmlns:xlink="http://www.w3.org/1999/xlink" xml:space="preserve" onload="init(evt)">
<style type="text/css"><![CDATA[
.node, .edge {opacity: 0.7;}
.node.selected, .edge.selected {opacity: 1;}
.edge:hover path { stroke: red; }
.edge:hover polygon { stroke: red; fill: red; }
]]></style>
<script type="application/ecmascript" xlink:href="svg.min.js"/>
<svg id="graph" class="graph">
<g id="graph0" class="graph" transform="scale(1 1) rotate(0) translate(4 279.5)">
<title>qpalm_toc</title>
<!-- Node1 -->
<g id="Node000001" class="node">
<title>Node1</title>
<g id="a_Node000001"><a xlink:title="Report time in seconds since last call to qpalm_tic.">
<polygon fill="#999999" stroke="#666666" points="420,-152.5 352,-152.5 352,-133.5 420,-133.5 420,-152.5"/>
<text text-anchor="middle" x="386" y="-140.5" font-family="Helvetica,sans-Serif" font-size="10.00">qpalm_toc</text>
</a>
</g>
</g>
<!-- Node2 -->
<g id="Node000002" class="node">
<title>Node2</title>
<g id="a_Node000002"><a xlink:href="group__solver-grp.html#ga2496e6b7b64f611e920c3c4a740d9ecd" target="_top" xlink:title="Initialize QPALM solver allocating memory.">
<polygon fill="white" stroke="#666666" points="290.5,-275.5 210.5,-275.5 210.5,-256.5 290.5,-256.5 290.5,-275.5"/>
<text text-anchor="middle" x="250.5" y="-263.5" font-family="Helvetica,sans-Serif" font-size="10.00">qpalm_setup</text>
</a>
</g>
</g>
<!-- Node1&#45;&gt;Node2 -->
<g id="edge1_Node000001_Node000002" class="edge">
<title>Node1&#45;&gt;Node2</title>
<g id="a_edge1_Node000001_Node000002"><a xlink:title=" ">
<path fill="none" stroke="#63b8ff" d="M377.46,-162.15C367.15,-185.86 346.38,-225.81 316,-248 308.58,-253.42 299.6,-257.2 290.73,-259.85"/>
<polygon fill="#63b8ff" stroke="#63b8ff" points="380.74,-163.38 381.35,-152.8 374.28,-160.69 380.74,-163.38"/>
</a>
</g>
</g>
<!-- Node4 -->
<g id="Node000004" class="node">
<title>Node4</title>
<g id="a_Node000004"><a xlink:href="group__solver-grp.html#ga17fcba910c32b8518df93617591b1cf1" target="_top" xlink:title="Solve the quadratic program.">
<polygon fill="white" stroke="#666666" points="290,-238.5 211,-238.5 211,-219.5 290,-219.5 290,-238.5"/>
<text text-anchor="middle" x="250.5" y="-226.5" font-family="Helvetica,sans-Serif" font-size="10.00">qpalm_solve</text>
</a>
</g>
</g>
<!-- Node1&#45;&gt;Node4 -->
<g id="edge3_Node000001_Node000004" class="edge">
<title>Node1&#45;&gt;Node4</title>
<g id="a_edge3_Node000001_Node000004"><a xlink:title=" ">
<path fill="none" stroke="#63b8ff" d="M368.06,-160.14C354.77,-172.9 335.34,-190.09 316,-202 304.73,-208.94 291.37,-214.86 279.73,-219.38"/>
<polygon fill="#63b8ff" stroke="#63b8ff" points="370.8,-162.36 375.48,-152.86 365.89,-157.36 370.8,-162.36"/>
</a>
</g>
</g>
<!-- Node6 -->
<g id="Node000006" class="node">
<title>Node6</title>
<g id="a_Node000006"><a xlink:href="group__solver-grp.html#ga586e7a22d9ed41fb2d477490fdabc875" target="_top" xlink:title="Update the lower and upper bounds.">
<polygon fill="white" stroke="#666666" points="314,-192.5 187,-192.5 187,-173.5 314,-173.5 314,-192.5"/>
<text text-anchor="middle" x="250.5" y="-180.5" font-family="Helvetica,sans-Serif" font-size="10.00">qpalm_update_bounds</text>
</a>
</g>
</g>
<!-- Node1&#45;&gt;Node6 -->
<g id="edge6_Node000001_Node000006" class="edge">
<title>Node1&#45;&gt;Node6</title>
<g id="a_edge6_Node000001_Node000006"><a xlink:title=" ">
<path fill="none" stroke="#63b8ff" d="M343.23,-155.52C323.84,-161.33 301.17,-168.12 283.22,-173.5"/>
<polygon fill="#63b8ff" stroke="#63b8ff" points="344.45,-158.8 353.02,-152.58 342.44,-152.1 344.45,-158.8"/>
</a>
</g>
</g>
<!-- Node8 -->
<g id="Node000008" class="node">
<title>Node8</title>
<g id="a_Node000008"><a xlink:href="group__solver-grp.html#gac6fc63096cd84c85c7e4a31ab950a00b" target="_top" xlink:title="Update the linear part of the cost.">
<polygon fill="white" stroke="#666666" points="299.5,-152.5 201.5,-152.5 201.5,-133.5 299.5,-133.5 299.5,-152.5"/>
<text text-anchor="middle" x="250.5" y="-140.5" font-family="Helvetica,sans-Serif" font-size="10.00">qpalm_update_q</text>
</a>
</g>
</g>
<!-- Node1&#45;&gt;Node8 -->
<g id="edge8_Node000001_Node000008" class="edge">
<title>Node1&#45;&gt;Node8</title>
<g id="a_edge8_Node000001_Node000008"><a xlink:title=" ">
<path fill="none" stroke="#63b8ff" d="M341.63,-143C328.25,-143 313.44,-143 299.75,-143"/>
<polygon fill="#63b8ff" stroke="#63b8ff" points="342,-146.5 352,-143 342,-139.5 342,-146.5"/>
</a>
</g>
</g>
<!-- Node10 -->
<g id="Node000010" class="node">
<title>Node10</title>
<g id="a_Node000010"><a xlink:href="group__solver-grp.html#ga5c65cd8a7357df09df6d20f7173feb6f" target="_top" xlink:title="Update the matrix entries of Q and A.">
<polygon fill="white" stroke="#666666" points="306,-115.5 195,-115.5 195,-96.5 306,-96.5 306,-115.5"/>
<text text-anchor="middle" x="250.5" y="-103.5" font-family="Helvetica,sans-Serif" font-size="10.00">qpalm_update_Q_A</text>
</a>
</g>
</g>
<!-- Node1&#45;&gt;Node10 -->
<g id="edge10_Node000001_Node000010" class="edge">
<title>Node1&#45;&gt;Node10</title>
<g id="a_edge10_Node000001_Node000010"><a xlink:title=" ">
<path fill="none" stroke="#63b8ff" d="M342.23,-131.15C324.05,-126.11 303.14,-120.31 285.98,-115.56"/>
<polygon fill="#63b8ff" stroke="#63b8ff" points="341.43,-134.56 352,-133.85 343.3,-127.81 341.43,-134.56"/>
</a>
</g>
</g>
<!-- Node12 -->
<g id="Node000012" class="node">
<title>Node12</title>
<g id="a_Node000012"><a xlink:href="group__solver-grp.html#ga349f4343b96fb674a823ae6e03634ff7" target="_top" xlink:title="Update the settings to the new settings.">
<polygon fill="white" stroke="#666666" points="316,-75.5 185,-75.5 185,-56.5 316,-56.5 316,-75.5"/>
<text text-anchor="middle" x="250.5" y="-63.5" font-family="Helvetica,sans-Serif" font-size="10.00">qpalm_update_settings</text>
</a>
</g>
</g>
<!-- Node1&#45;&gt;Node12 -->
<g id="edge12_Node000001_Node000012" class="edge">
<title>Node1&#45;&gt;Node12</title>
<g id="a_edge12_Node000001_Node000012"><a xlink:title=" ">
<path fill="none" stroke="#63b8ff" d="M367.61,-126.32C354.34,-114.32 335.14,-98.48 316,-88 306.87,-83 296.39,-78.84 286.58,-75.53"/>
<polygon fill="#63b8ff" stroke="#63b8ff" points="365.34,-128.98 375.05,-133.21 370.09,-123.85 365.34,-128.98"/>
</a>
</g>
</g>
<!-- Node14 -->
<g id="Node000014" class="node">
<title>Node14</title>
<g id="a_Node000014"><a xlink:href="group__solver-grp.html#ga647edc4e31481ccafe1813205a87ecbd" target="_top" xlink:title="Warm start workspace variables x, x_0, x_prev, Ax, Qx, y and sigma.">
<polygon fill="white" stroke="#666666" points="304.5,-30.5 196.5,-30.5 196.5,-11.5 304.5,-11.5 304.5,-30.5"/>
<text text-anchor="middle" x="250.5" y="-18.5" font-family="Helvetica,sans-Serif" font-size="10.00">qpalm_warm_start</text>
</a>
</g>
</g>
<!-- Node1&#45;&gt;Node14 -->
<g id="edge14_Node000001_Node000014" class="edge">
<title>Node1&#45;&gt;Node14</title>
<g id="a_edge14_Node000001_Node000014"><a xlink:title=" ">
<path fill="none" stroke="#63b8ff" d="M375.83,-124.44C364.45,-103.12 343.18,-68.33 316,-47 306.98,-39.92 295.77,-34.51 285.24,-30.51"/>
<polygon fill="#63b8ff" stroke="#63b8ff" points="372.78,-126.17 380.48,-133.45 379,-122.96 372.78,-126.17"/>
</a>
</g>
</g>
<!-- Node3 -->
<g id="Node000003" class="node">
<title>Node3</title>
<g id="a_Node000003"><a xlink:href="qpalm__fortran_8c.html#abec01161fcee665e126347b862c404c4" target="_top" xlink:title=" ">
<polygon fill="white" stroke="#666666" points="122.5,-275.5 26.5,-275.5 26.5,-256.5 122.5,-256.5 122.5,-275.5"/>
<text text-anchor="middle" x="74.5" y="-263.5" font-family="Helvetica,sans-Serif" font-size="10.00">qpalm_fortran_c</text>
</a>
</g>
</g>
<!-- Node2&#45;&gt;Node3 -->
<g id="edge2_Node000002_Node000003" class="edge">
<title>Node2&#45;&gt;Node3</title>
<g id="a_edge2_Node000002_Node000003"><a xlink:title=" ">
<path fill="none" stroke="#63b8ff" d="M200.36,-266C176.05,-266 146.83,-266 122.78,-266"/>
<polygon fill="#63b8ff" stroke="#63b8ff" points="200.45,-269.5 210.45,-266 200.45,-262.5 200.45,-269.5"/>
</a>
</g>
</g>
<!-- Node4&#45;&gt;Node3 -->
<g id="edge4_Node000004_Node000003" class="edge">
<title>Node4&#45;&gt;Node3</title>
<g id="a_edge4_Node000004_Node000003"><a xlink:title=" ">
<path fill="none" stroke="#63b8ff" d="M200.81,-239.35C175.63,-244.71 145.09,-251.2 120.47,-256.44"/>
<polygon fill="#63b8ff" stroke="#63b8ff" points="201.83,-242.71 210.88,-237.21 200.37,-235.87 201.83,-242.71"/>
</a>
</g>
</g>
<!-- Node5 -->
<g id="Node000005" class="node">
<title>Node5</title>
<g id="a_Node000005"><a xlink:href="classqpalm_1_1Solver.html#a7d723d189a812ffa19d688b7aa38ccca" target="_top" xlink:title="Solve the problem.">
<polygon fill="white" stroke="#666666" points="132.5,-238.5 16.5,-238.5 16.5,-219.5 132.5,-219.5 132.5,-238.5"/>
<text text-anchor="middle" x="74.5" y="-226.5" font-family="Helvetica,sans-Serif" font-size="10.00">qpalm::Solver::solve</text>
</a>
</g>
</g>
<!-- Node4&#45;&gt;Node5 -->
<g id="edge5_Node000004_Node000005" class="edge">
<title>Node4&#45;&gt;Node5</title>
<g id="a_edge5_Node000004_Node000005"><a xlink:title=" ">
<path fill="none" stroke="#63b8ff" d="M200.81,-229C179.59,-229 154.59,-229 132.51,-229"/>
<polygon fill="#63b8ff" stroke="#63b8ff" points="200.88,-232.5 210.88,-229 200.88,-225.5 200.88,-232.5"/>
</a>
</g>
</g>
<!-- Node7 -->
<g id="Node000007" class="node">
<title>Node7</title>
<g id="a_Node000007"><a xlink:href="classqpalm_1_1Solver.html#a6df33bfd68c5b8caaaa6f726f1a9f517" target="_top" xlink:title=" ">
<polygon fill="white" stroke="#666666" points="136.5,-201 12.5,-201 12.5,-171 136.5,-171 136.5,-201"/>
<text text-anchor="start" x="20.5" y="-189" font-family="Helvetica,sans-Serif" font-size="10.00">qpalm::Solver::update</text>
<text text-anchor="middle" x="74.5" y="-178" font-family="Helvetica,sans-Serif" font-size="10.00">_bounds</text>
</a>
</g>
</g>
<!-- Node6&#45;&gt;Node7 -->
<g id="edge7_Node000006_Node000007" class="edge">
<title>Node6&#45;&gt;Node7</title>
<g id="a_edge7_Node000006_Node000007"><a xlink:title=" ">
<path fill="none" stroke="#63b8ff" d="M176.65,-184.26C163.38,-184.48 149.66,-184.72 136.77,-184.94"/>
<polygon fill="#63b8ff" stroke="#63b8ff" points="176.74,-187.76 186.68,-184.08 176.62,-180.76 176.74,-187.76"/>
</a>
</g>
</g>
<!-- Node9 -->
<g id="Node000009" class="node">
<title>Node9</title>
<g id="a_Node000009"><a xlink:href="classqpalm_1_1Solver.html#a43cbe4e495be0898c733d9589531e63c" target="_top" xlink:title=" ">
<polygon fill="white" stroke="#666666" points="142,-152.5 7,-152.5 7,-133.5 142,-133.5 142,-152.5"/>
<text text-anchor="middle" x="74.5" y="-140.5" font-family="Helvetica,sans-Serif" font-size="10.00">qpalm::Solver::update_q</text>
</a>
</g>
</g>
<!-- Node8&#45;&gt;Node9 -->
<g id="edge9_Node000008_Node000009" class="edge">
<title>Node8&#45;&gt;Node9</title>
<g id="a_edge9_Node000008_Node000009"><a xlink:title=" ">
<path fill="none" stroke="#63b8ff" d="M191.37,-143C175.61,-143 158.43,-143 142.23,-143"/>
<polygon fill="#63b8ff" stroke="#63b8ff" points="191.49,-146.5 201.49,-143 191.49,-139.5 191.49,-146.5"/>
</a>
</g>
</g>
<!-- Node11 -->
<g id="Node000011" class="node">
<title>Node11</title>
<g id="a_Node000011"><a xlink:href="classqpalm_1_1Solver.html#a11e9742322ad77345b32d806b8b3b81c" target="_top" xlink:title=" ">
<polygon fill="white" stroke="#666666" points="149,-115.5 0,-115.5 0,-96.5 149,-96.5 149,-115.5"/>
<text text-anchor="middle" x="74.5" y="-103.5" font-family="Helvetica,sans-Serif" font-size="10.00">qpalm::Solver::update_Q_A</text>
</a>
</g>
</g>
<!-- Node10&#45;&gt;Node11 -->
<g id="edge11_Node000010_Node000011" class="edge">
<title>Node10&#45;&gt;Node11</title>
<g id="a_edge11_Node000010_Node000011"><a xlink:title=" ">
<path fill="none" stroke="#63b8ff" d="M184.84,-106C173.17,-106 160.92,-106 149.02,-106"/>
<polygon fill="#63b8ff" stroke="#63b8ff" points="184.92,-109.5 194.92,-106 184.92,-102.5 184.92,-109.5"/>
</a>
</g>
</g>
<!-- Node13 -->
<g id="Node000013" class="node">
<title>Node13</title>
<g id="a_Node000013"><a xlink:href="classqpalm_1_1Solver.html#a895c0635d6fdd0a3026894697ea6903b" target="_top" xlink:title=" ">
<polygon fill="white" stroke="#666666" points="136.5,-78 12.5,-78 12.5,-48 136.5,-48 136.5,-78"/>
<text text-anchor="start" x="20.5" y="-66" font-family="Helvetica,sans-Serif" font-size="10.00">qpalm::Solver::update</text>
<text text-anchor="middle" x="74.5" y="-55" font-family="Helvetica,sans-Serif" font-size="10.00">_settings</text>
</a>
</g>
</g>
<!-- Node12&#45;&gt;Node13 -->
<g id="edge13_Node000012_Node000013" class="edge">
<title>Node12&#45;&gt;Node13</title>
<g id="a_edge13_Node000012_Node000013"><a xlink:title=" ">
<path fill="none" stroke="#63b8ff" d="M174.62,-64.71C161.93,-64.49 148.88,-64.27 136.6,-64.05"/>
<polygon fill="#63b8ff" stroke="#63b8ff" points="174.65,-68.21 184.71,-64.88 174.77,-61.21 174.65,-68.21"/>
</a>
</g>
</g>
<!-- Node15 -->
<g id="Node000015" class="node">
<title>Node15</title>
<g id="a_Node000015"><a xlink:href="classqpalm_1_1Solver.html#a693af99e39a9035bbbc4fb61fcb427d1" target="_top" xlink:title=" ">
<polygon fill="white" stroke="#666666" points="133.5,-30 15.5,-30 15.5,0 133.5,0 133.5,-30"/>
<text text-anchor="start" x="23.5" y="-18" font-family="Helvetica,sans-Serif" font-size="10.00">qpalm::Solver::warm</text>
<text text-anchor="middle" x="74.5" y="-7" font-family="Helvetica,sans-Serif" font-size="10.00">_start</text>
</a>
</g>
</g>
<!-- Node14&#45;&gt;Node15 -->
<g id="edge15_Node000014_Node000015" class="edge">
<title>Node14&#45;&gt;Node15</title>
<g id="a_edge15_Node000014_Node000015"><a xlink:title=" ">
<path fill="none" stroke="#63b8ff" d="M185.93,-18.81C168.88,-18.22 150.53,-17.59 133.78,-17.01"/>
<polygon fill="#63b8ff" stroke="#63b8ff" points="186.23,-22.32 196.35,-19.17 186.48,-15.32 186.23,-22.32"/>
</a>
</g>
</g>
</g>
</svg>
</svg>

<style type='text/css'>
<![CDATA[
[data-mouse-over-selected='false'] { opacity: 0.7; }
[data-mouse-over-selected='true']  { opacity: 1.0; }
]]>
</style>
<script type="application/ecmascript"><![CDATA[
document.addEventListener('DOMContentLoaded', (event) => {
  highlightEdges();
  highlightAdjacentNodes();
});
]]></script>
</svg>
