<?xml version="1.0" encoding="UTF-8" standalone="no"?>
<!DOCTYPE svg PUBLIC "-//W3C//DTD SVG 1.1//EN"
 "http://www.w3.org/Graphics/SVG/1.1/DTD/svg11.dtd">
<!-- Generated by graphviz version 2.43.0 (0)
 -->
<!-- Title: constants.h Pages: 1 -->
<svg width="2150pt" height="434pt"
 viewBox="0.00 0.00 2150.00 434.00" xmlns="http://www.w3.org/2000/svg" xmlns:xlink="http://www.w3.org/1999/xlink">
<g id="graph0" class="graph" transform="scale(1 1) rotate(0) translate(4 430)">
<title>constants.h</title>
<!-- Node1 -->
<g id="Node000001" class="node">
<title>Node1</title>
<g id="a_Node000001"><a xlink:title="Constants used in QPALM.">
<polygon fill="#999999" stroke="#666666" points="1063.5,-426 990.5,-426 990.5,-407 1063.5,-407 1063.5,-426"/>
<text text-anchor="middle" x="1027" y="-414" font-family="Helvetica,sans-Serif" font-size="10.00">constants.h</text>
</a>
</g>
</g>
<!-- Node2 -->
<g id="Node000002" class="node">
<title>Node2</title>
<g id="a_Node000002"><a xlink:href="nonconvex_8c.html" target="_top" xlink:title="Routines to deal with nonconvex QPs.">
<polygon fill="white" stroke="#666666" points="1113,-255.5 941,-255.5 941,-225.5 1113,-225.5 1113,-255.5"/>
<text text-anchor="start" x="949" y="-243.5" font-family="Helvetica,sans-Serif" font-size="10.00">/home/runner/work/QPALM</text>
<text text-anchor="middle" x="1027" y="-232.5" font-family="Helvetica,sans-Serif" font-size="10.00">/QPALM/QPALM/src/nonconvex.c</text>
</a>
</g>
</g>
<!-- Node1&#45;&gt;Node2 -->
<g id="edge1_Node000001_Node000002" class="edge">
<title>Node1&#45;&gt;Node2</title>
<g id="a_edge1_Node000001_Node000002"><a xlink:title=" ">
<path fill="none" stroke="#63b8ff" d="M1027,-396.29C1027,-361.04 1027,-286.78 1027,-255.67"/>
<polygon fill="#63b8ff" stroke="#63b8ff" points="1023.5,-396.63 1027,-406.63 1030.5,-396.63 1023.5,-396.63"/>
</a>
</g>
</g>
<!-- Node3 -->
<g id="Node000003" class="node">
<title>Node3</title>
<g id="a_Node000003"><a xlink:href="qpalm_8c.html" target="_top" xlink:title="QPALM main solver API.">
<polygon fill="white" stroke="#666666" points="384.5,-112.5 235.5,-112.5 235.5,-82.5 384.5,-82.5 384.5,-112.5"/>
<text text-anchor="start" x="243.5" y="-100.5" font-family="Helvetica,sans-Serif" font-size="10.00">/home/runner/work/QPALM</text>
<text text-anchor="middle" x="310" y="-89.5" font-family="Helvetica,sans-Serif" font-size="10.00">/QPALM/QPALM/src/qpalm.c</text>
</a>
</g>
</g>
<!-- Node1&#45;&gt;Node3 -->
<g id="edge2_Node000001_Node000003" class="edge">
<title>Node1&#45;&gt;Node3</title>
<g id="a_edge2_Node000001_Node000003"><a xlink:title=" ">
<path fill="none" stroke="#63b8ff" d="M980.23,-415.56C779.36,-415.22 0,-407.45 0,-307.5 0,-307.5 0,-307.5 0,-239.5 0,-136.47 143.62,-108.37 235.35,-100.93"/>
<polygon fill="#63b8ff" stroke="#63b8ff" points="980.44,-419.06 990.45,-415.57 980.45,-412.06 980.44,-419.06"/>
</a>
</g>
</g>
<!-- Node4 -->
<g id="Node000004" class="node">
<title>Node4</title>
<g id="a_Node000004"><a xlink:href="termination_8c.html" target="_top" xlink:title="Routines to check the termination and infeasibility criteria.">
<polygon fill="white" stroke="#666666" points="1471,-255.5 1295,-255.5 1295,-225.5 1471,-225.5 1471,-255.5"/>
<text text-anchor="start" x="1303" y="-243.5" font-family="Helvetica,sans-Serif" font-size="10.00">/home/runner/work/QPALM</text>
<text text-anchor="middle" x="1383" y="-232.5" font-family="Helvetica,sans-Serif" font-size="10.00">/QPALM/QPALM/src/termination.c</text>
</a>
</g>
</g>
<!-- Node1&#45;&gt;Node4 -->
<g id="edge3_Node000001_Node000004" class="edge">
<title>Node1&#45;&gt;Node4</title>
<g id="a_edge3_Node000001_Node000004"><a xlink:title=" ">
<path fill="none" stroke="#63b8ff" d="M1053.91,-402.35C1119.4,-370.34 1286.67,-288.58 1354.14,-255.61"/>
<polygon fill="#63b8ff" stroke="#63b8ff" points="1052.1,-399.34 1044.65,-406.87 1055.18,-405.62 1052.1,-399.34"/>
</a>
</g>
</g>
<!-- Node5 -->
<g id="Node000005" class="node">
<title>Node5</title>
<g id="a_Node000005"><a xlink:href="validate_8c.html" target="_top" xlink:title="Validation of the user provided settings and data.">
<polygon fill="white" stroke="#666666" points="186,-255.5 28,-255.5 28,-225.5 186,-225.5 186,-255.5"/>
<text text-anchor="start" x="36" y="-243.5" font-family="Helvetica,sans-Serif" font-size="10.00">/home/runner/work/QPALM</text>
<text text-anchor="middle" x="107" y="-232.5" font-family="Helvetica,sans-Serif" font-size="10.00">/QPALM/QPALM/src/validate.c</text>
</a>
</g>
</g>
<!-- Node1&#45;&gt;Node5 -->
<g id="edge4_Node000001_Node000005" class="edge">
<title>Node1&#45;&gt;Node5</title>
<g id="a_edge4_Node000001_Node000005"><a xlink:title=" ">
<path fill="none" stroke="#63b8ff" d="M980.27,-413.25C827.28,-405.34 343.05,-376.07 200,-316 167,-302.14 136.13,-272.99 119.58,-255.55"/>
<polygon fill="#63b8ff" stroke="#63b8ff" points="980.12,-416.74 990.28,-413.76 980.47,-409.75 980.12,-416.74"/>
</a>
</g>
</g>
<!-- Node6 -->
<g id="Node000006" class="node">
<title>Node6</title>
<g id="a_Node000006"><a xlink:href="linesearch_8h.html" target="_top" xlink:title="Routines to perform exact linesearch.">
<polygon fill="white" stroke="#666666" points="1866,-316 1790,-316 1790,-297 1866,-297 1866,-316"/>
<text text-anchor="middle" x="1828" y="-304" font-family="Helvetica,sans-Serif" font-size="10.00">linesearch.h</text>
</a>
</g>
</g>
<!-- Node1&#45;&gt;Node6 -->
<g id="edge5_Node000001_Node000006" class="edge">
<title>Node1&#45;&gt;Node6</title>
<g id="a_edge5_Node000001_Node000006"><a xlink:title=" ">
<path fill="none" stroke="#63b8ff" d="M1074.1,-409.15C1219.24,-389.58 1657.82,-330.45 1789.94,-312.63"/>
<polygon fill="#63b8ff" stroke="#63b8ff" points="1073.21,-405.74 1063.76,-410.54 1074.14,-412.68 1073.21,-405.74"/>
</a>
</g>
</g>
<!-- Node9 -->
<g id="Node000009" class="node">
<title>Node9</title>
<g id="a_Node000009"><a xlink:href="qpalm_8h.html" target="_top" xlink:title="QPALM main solver API.">
<polygon fill="white" stroke="#666666" points="2015,-178.5 1959,-178.5 1959,-159.5 2015,-159.5 2015,-178.5"/>
<text text-anchor="middle" x="1987" y="-166.5" font-family="Helvetica,sans-Serif" font-size="10.00">qpalm.h</text>
</a>
</g>
</g>
<!-- Node1&#45;&gt;Node9 -->
<g id="edge14_Node000001_Node000009" class="edge">
<title>Node1&#45;&gt;Node9</title>
<g id="a_edge14_Node000001_Node000009"><a xlink:title=" ">
<path fill="none" stroke="#63b8ff" d="M1073.55,-413.4C1234.07,-405.67 1763.21,-376.13 1921,-316 1960.64,-300.89 1979.48,-298.66 1999,-261 2013.23,-233.55 1999,-195.45 1991.27,-178.6"/>
<polygon fill="#63b8ff" stroke="#63b8ff" points="1073.34,-409.9 1063.52,-413.88 1073.68,-416.9 1073.34,-409.9"/>
</a>
</g>
</g>
<!-- Node13 -->
<g id="Node000013" class="node">
<title>Node13</title>
<g id="a_Node000013"><a xlink:href="scaling_8h.html" target="_top" xlink:title="Problem data scaling during setup.">
<polygon fill="white" stroke="#666666" points="340,-250 280,-250 280,-231 340,-231 340,-250"/>
<text text-anchor="middle" x="310" y="-238" font-family="Helvetica,sans-Serif" font-size="10.00">scaling.h</text>
</a>
</g>
</g>
<!-- Node1&#45;&gt;Node13 -->
<g id="edge15_Node000001_Node000013" class="edge">
<title>Node1&#45;&gt;Node13</title>
<g id="a_edge15_Node000001_Node000013"><a xlink:title=" ">
<path fill="none" stroke="#63b8ff" d="M980.58,-408.86C869.23,-392.08 579.08,-343.39 349,-261 340.88,-258.09 332.25,-253.91 325.19,-250.16"/>
<polygon fill="#63b8ff" stroke="#63b8ff" points="980.08,-412.32 990.48,-410.34 981.11,-405.4 980.08,-412.32"/>
</a>
</g>
</g>
<!-- Node15 -->
<g id="Node000015" class="node">
<title>Node15</title>
<g id="a_Node000015"><a xlink:href="solver__interface_8h.html" target="_top" xlink:title="Interface and wrapper to matrix/factorization (ladel) functions.">
<polygon fill="white" stroke="#666666" points="956,-371 852,-371 852,-352 956,-352 956,-371"/>
<text text-anchor="middle" x="904" y="-359" font-family="Helvetica,sans-Serif" font-size="10.00">solver_interface.h</text>
</a>
</g>
</g>
<!-- Node1&#45;&gt;Node15 -->
<g id="edge19_Node000001_Node000015" class="edge">
<title>Node1&#45;&gt;Node15</title>
<g id="a_edge19_Node000001_Node000015"><a xlink:title=" ">
<path fill="none" stroke="#63b8ff" d="M997.75,-402.9C975.03,-393.11 944.13,-379.79 924.12,-371.17"/>
<polygon fill="#63b8ff" stroke="#63b8ff" points="996.67,-406.24 1007.24,-406.98 999.44,-399.81 996.67,-406.24"/>
</a>
</g>
</g>
<!-- Node21 -->
<g id="Node000021" class="node">
<title>Node21</title>
<g id="a_Node000021"><a xlink:href="util_8h.html" target="_top" xlink:title="Utility functions.">
<polygon fill="white" stroke="#666666" points="1403.5,-316 1362.5,-316 1362.5,-297 1403.5,-297 1403.5,-316"/>
<text text-anchor="middle" x="1383" y="-304" font-family="Helvetica,sans-Serif" font-size="10.00">util.h</text>
</a>
</g>
</g>
<!-- Node1&#45;&gt;Node21 -->
<g id="edge38_Node000001_Node000021" class="edge">
<title>Node1&#45;&gt;Node21</title>
<g id="a_edge38_Node000001_Node000021"><a xlink:title=" ">
<path fill="none" stroke="#63b8ff" d="M1073.35,-406.17C1111.46,-398.09 1166.68,-385.46 1214,-371 1268.7,-354.29 1331.3,-329.13 1362.73,-316.06"/>
<polygon fill="#63b8ff" stroke="#63b8ff" points="1072.63,-402.74 1063.56,-408.22 1074.07,-409.59 1072.63,-402.74"/>
</a>
</g>
</g>
<!-- Node6&#45;&gt;Node3 -->
<g id="edge8_Node000006_Node000003" class="edge">
<title>Node6&#45;&gt;Node3</title>
<g id="a_edge8_Node000006_Node000003"><a xlink:title=" ">
<path fill="none" stroke="#63b8ff" d="M1875.88,-294.44C1893.5,-287.81 1911.65,-277.35 1922,-261 1931.75,-245.6 1934.16,-233.57 1922,-220 1818.33,-104.28 687.9,-97.85 384.55,-98.22"/>
<polygon fill="#63b8ff" stroke="#63b8ff" points="1874.54,-291.2 1866.21,-297.75 1876.8,-297.83 1874.54,-291.2"/>
</a>
</g>
</g>
<!-- Node7 -->
<g id="Node000007" class="node">
<title>Node7</title>
<g id="a_Node000007"><a xlink:href="iteration_8c.html" target="_top" xlink:title="QPALM main solver routines.">
<polygon fill="white" stroke="#666666" points="1725,-255.5 1565,-255.5 1565,-225.5 1725,-225.5 1725,-255.5"/>
<text text-anchor="start" x="1573" y="-243.5" font-family="Helvetica,sans-Serif" font-size="10.00">/home/runner/work/QPALM</text>
<text text-anchor="middle" x="1645" y="-232.5" font-family="Helvetica,sans-Serif" font-size="10.00">/QPALM/QPALM/src/iteration.c</text>
</a>
</g>
</g>
<!-- Node6&#45;&gt;Node7 -->
<g id="edge6_Node000006_Node000007" class="edge">
<title>Node6&#45;&gt;Node7</title>
<g id="a_edge6_Node000006_Node000007"><a xlink:title=" ">
<path fill="none" stroke="#63b8ff" d="M1793.48,-293.43C1762.74,-282.68 1717.75,-266.94 1685.36,-255.62"/>
<polygon fill="#63b8ff" stroke="#63b8ff" points="1792.72,-296.87 1803.32,-296.87 1795.04,-290.26 1792.72,-296.87"/>
</a>
</g>
</g>
<!-- Node8 -->
<g id="Node000008" class="node">
<title>Node8</title>
<g id="a_Node000008"><a xlink:href="linesearch_8c.html" target="_top" xlink:title="Routines to perform exact or backtracking linesearch.">
<polygon fill="white" stroke="#666666" points="1912.5,-255.5 1743.5,-255.5 1743.5,-225.5 1912.5,-225.5 1912.5,-255.5"/>
<text text-anchor="start" x="1751.5" y="-243.5" font-family="Helvetica,sans-Serif" font-size="10.00">/home/runner/work/QPALM</text>
<text text-anchor="middle" x="1828" y="-232.5" font-family="Helvetica,sans-Serif" font-size="10.00">/QPALM/QPALM/src/linesearch.c</text>
</a>
</g>
</g>
<!-- Node6&#45;&gt;Node8 -->
<g id="edge7_Node000006_Node000008" class="edge">
<title>Node6&#45;&gt;Node8</title>
<g id="a_edge7_Node000006_Node000008"><a xlink:title=" ">
<path fill="none" stroke="#63b8ff" d="M1828,-286.85C1828,-276.97 1828,-265.01 1828,-255.86"/>
<polygon fill="#63b8ff" stroke="#63b8ff" points="1824.5,-286.87 1828,-296.87 1831.5,-286.87 1824.5,-286.87"/>
</a>
</g>
</g>
<!-- Node6&#45;&gt;Node9 -->
<g id="edge9_Node000006_Node000009" class="edge">
<title>Node6&#45;&gt;Node9</title>
<g id="a_edge9_Node000006_Node000009"><a xlink:title=" ">
<path fill="none" stroke="#63b8ff" d="M1876.27,-298.69C1902.28,-292.73 1933.2,-281.62 1954,-261 1977.51,-237.69 1984.38,-196.37 1986.3,-178.56"/>
<polygon fill="#63b8ff" stroke="#63b8ff" points="1875.28,-295.32 1866.21,-300.8 1876.71,-302.17 1875.28,-295.32"/>
</a>
</g>
</g>
<!-- Node9&#45;&gt;Node3 -->
<g id="edge13_Node000009_Node000003" class="edge">
<title>Node9&#45;&gt;Node3</title>
<g id="a_edge13_Node000009_Node000003"><a xlink:title=" ">
<path fill="none" stroke="#63b8ff" d="M1955.46,-156.42C1951.97,-155.46 1948.43,-154.62 1945,-154 1639.43,-99.08 663.33,-97.49 384.83,-98.19"/>
<polygon fill="#63b8ff" stroke="#63b8ff" points="1954.49,-159.78 1965.08,-159.37 1956.55,-153.09 1954.49,-159.78"/>
</a>
</g>
</g>
<!-- Node10 -->
<g id="Node000010" class="node">
<title>Node10</title>
<g id="a_Node000010"><a xlink:href="qpalm_8cpp.html" target="_top" xlink:title=" ">
<polygon fill="white" stroke="#666666" points="2142,-118 1996,-118 1996,-77 2142,-77 2142,-118"/>
<text text-anchor="start" x="2004" y="-106" font-family="Helvetica,sans-Serif" font-size="10.00">/home/runner/work/QPALM</text>
<text text-anchor="start" x="2004" y="-95" font-family="Helvetica,sans-Serif" font-size="10.00">/QPALM/QPALM/interfaces</text>
<text text-anchor="middle" x="2069" y="-84" font-family="Helvetica,sans-Serif" font-size="10.00">/cxx/src/qpalm.cpp</text>
</a>
</g>
</g>
<!-- Node9&#45;&gt;Node10 -->
<g id="edge10_Node000009_Node000010" class="edge">
<title>Node9&#45;&gt;Node10</title>
<g id="a_edge10_Node000009_Node000010"><a xlink:title=" ">
<path fill="none" stroke="#63b8ff" d="M2005,-152.74C2016.99,-142.58 2032.85,-129.14 2045.79,-118.17"/>
<polygon fill="#63b8ff" stroke="#63b8ff" points="2002.42,-150.34 1997.05,-159.48 2006.95,-155.68 2002.42,-150.34"/>
</a>
</g>
</g>
<!-- Node11 -->
<g id="Node000011" class="node">
<title>Node11</title>
<g id="a_Node000011"><a xlink:href="qpalm__fortran_8h.html" target="_top" xlink:title=" ">
<polygon fill="white" stroke="#666666" points="1978,-118 1832,-118 1832,-77 1978,-77 1978,-118"/>
<text text-anchor="start" x="1840" y="-106" font-family="Helvetica,sans-Serif" font-size="10.00">/home/runner/work/QPALM</text>
<text text-anchor="start" x="1840" y="-95" font-family="Helvetica,sans-Serif" font-size="10.00">/QPALM/QPALM/interfaces</text>
<text text-anchor="middle" x="1905" y="-84" font-family="Helvetica,sans-Serif" font-size="10.00">/fortran/qpalm_fortran.h</text>
</a>
</g>
</g>
<!-- Node9&#45;&gt;Node11 -->
<g id="edge11_Node000009_Node000011" class="edge">
<title>Node9&#45;&gt;Node11</title>
<g id="a_edge11_Node000009_Node000011"><a xlink:title=" ">
<path fill="none" stroke="#63b8ff" d="M1969,-152.74C1957.01,-142.58 1941.15,-129.14 1928.21,-118.17"/>
<polygon fill="#63b8ff" stroke="#63b8ff" points="1967.05,-155.68 1976.95,-159.48 1971.58,-150.34 1967.05,-155.68"/>
</a>
</g>
</g>
<!-- Node12 -->
<g id="Node000012" class="node">
<title>Node12</title>
<g id="a_Node000012"><a xlink:href="qpalm__fortran_8c.html" target="_top" xlink:title=" ">
<polygon fill="white" stroke="#666666" points="1978,-41 1832,-41 1832,0 1978,0 1978,-41"/>
<text text-anchor="start" x="1840" y="-29" font-family="Helvetica,sans-Serif" font-size="10.00">/home/runner/work/QPALM</text>
<text text-anchor="start" x="1840" y="-18" font-family="Helvetica,sans-Serif" font-size="10.00">/QPALM/QPALM/interfaces</text>
<text text-anchor="middle" x="1905" y="-7" font-family="Helvetica,sans-Serif" font-size="10.00">/fortran/qpalm_fortran.c</text>
</a>
</g>
</g>
<!-- Node11&#45;&gt;Node12 -->
<g id="edge12_Node000011_Node000012" class="edge">
<title>Node11&#45;&gt;Node12</title>
<g id="a_edge12_Node000011_Node000012"><a xlink:title=" ">
<path fill="none" stroke="#63b8ff" d="M1905,-66.69C1905,-58.08 1905,-48.9 1905,-41.07"/>
<polygon fill="#63b8ff" stroke="#63b8ff" points="1901.5,-66.79 1905,-76.79 1908.5,-66.79 1901.5,-66.79"/>
</a>
</g>
</g>
<!-- Node13&#45;&gt;Node3 -->
<g id="edge16_Node000013_Node000003" class="edge">
<title>Node13&#45;&gt;Node3</title>
<g id="a_edge16_Node000013_Node000003"><a xlink:title=" ">
<path fill="none" stroke="#63b8ff" d="M310,-220.35C310,-191.61 310,-137.96 310,-112.54"/>
<polygon fill="#63b8ff" stroke="#63b8ff" points="306.5,-220.68 310,-230.68 313.5,-220.68 306.5,-220.68"/>
</a>
</g>
</g>
<!-- Node13&#45;&gt;Node9 -->
<g id="edge18_Node000013_Node000009" class="edge">
<title>Node13&#45;&gt;Node9</title>
<g id="a_edge18_Node000013_Node000009"><a xlink:title=" ">
<path fill="none" stroke="#63b8ff" d="M332.4,-226.25C337.68,-223.71 343.4,-221.41 349,-220 510.99,-179.14 1754.55,-171.17 1958.69,-170.13"/>
<polygon fill="#63b8ff" stroke="#63b8ff" points="330.73,-223.17 323.51,-230.92 333.99,-229.37 330.73,-223.17"/>
</a>
</g>
</g>
<!-- Node14 -->
<g id="Node000014" class="node">
<title>Node14</title>
<g id="a_Node000014"><a xlink:href="scaling_8c.html" target="_top" xlink:title="Problem data scaling during setup.">
<polygon fill="white" stroke="#666666" points="550.5,-184 397.5,-184 397.5,-154 550.5,-154 550.5,-184"/>
<text text-anchor="start" x="405.5" y="-172" font-family="Helvetica,sans-Serif" font-size="10.00">/home/runner/work/QPALM</text>
<text text-anchor="middle" x="474" y="-161" font-family="Helvetica,sans-Serif" font-size="10.00">/QPALM/QPALM/src/scaling.c</text>
</a>
</g>
</g>
<!-- Node13&#45;&gt;Node14 -->
<g id="edge17_Node000013_Node000014" class="edge">
<title>Node13&#45;&gt;Node14</title>
<g id="a_edge17_Node000013_Node000014"><a xlink:title=" ">
<path fill="none" stroke="#63b8ff" d="M335.78,-226.23C340.16,-224.09 344.69,-221.94 349,-220 378,-206.98 411.46,-193.68 436.47,-184.08"/>
<polygon fill="#63b8ff" stroke="#63b8ff" points="333.94,-223.24 326.55,-230.84 337.06,-229.5 333.94,-223.24"/>
</a>
</g>
</g>
<!-- Node15&#45;&gt;Node3 -->
<g id="edge21_Node000015_Node000003" class="edge">
<title>Node15&#45;&gt;Node3</title>
<g id="a_edge21_Node000015_Node000003"><a xlink:title=" ">
<path fill="none" stroke="#63b8ff" d="M841.65,-360.83C693.46,-360.14 326.9,-349.34 251,-261 241.61,-250.07 251.47,-166.16 257,-154 264.55,-137.38 279.2,-122.66 291.19,-112.56"/>
<polygon fill="#63b8ff" stroke="#63b8ff" points="841.92,-364.33 851.93,-360.86 841.95,-357.33 841.92,-364.33"/>
</a>
</g>
</g>
<!-- Node15&#45;&gt;Node7 -->
<g id="edge20_Node000015_Node000007" class="edge">
<title>Node15&#45;&gt;Node7</title>
<g id="a_edge20_Node000015_Node000007"><a xlink:title=" ">
<path fill="none" stroke="#63b8ff" d="M966.38,-359.52C1062.99,-357 1254.22,-348.01 1413,-316 1484.53,-301.58 1565,-272.76 1609.89,-255.5"/>
<polygon fill="#63b8ff" stroke="#63b8ff" points="966.12,-356.02 956.21,-359.77 966.29,-363.02 966.12,-356.02"/>
</a>
</g>
</g>
<!-- Node15&#45;&gt;Node9 -->
<g id="edge37_Node000015_Node000009" class="edge">
<title>Node15&#45;&gt;Node9</title>
<g id="a_edge37_Node000015_Node000009"><a xlink:title=" ">
<path fill="none" stroke="#63b8ff" d="M966.37,-359.23C1167.01,-354.91 1787.83,-339.76 1875,-316 1925.45,-302.25 1950.08,-304.56 1979,-261 1996.1,-235.23 1991.79,-195.92 1988.77,-178.65"/>
<polygon fill="#63b8ff" stroke="#63b8ff" points="966.21,-355.73 956.29,-359.44 966.36,-362.73 966.21,-355.73"/>
</a>
</g>
</g>
<!-- Node16 -->
<g id="Node000016" class="node">
<title>Node16</title>
<g id="a_Node000016"><a xlink:href="solver__interface_8c.html" target="_top" xlink:title="Interface and wrapper to matrix/factorization (ladel) functions.">
<polygon fill="white" stroke="#666666" points="504,-261 358,-261 358,-220 504,-220 504,-261"/>
<text text-anchor="start" x="366" y="-249" font-family="Helvetica,sans-Serif" font-size="10.00">/home/runner/work/QPALM</text>
<text text-anchor="start" x="366" y="-238" font-family="Helvetica,sans-Serif" font-size="10.00">/QPALM/QPALM/src/solver</text>
<text text-anchor="middle" x="431" y="-227" font-family="Helvetica,sans-Serif" font-size="10.00">_interface.c</text>
</a>
</g>
</g>
<!-- Node15&#45;&gt;Node16 -->
<g id="edge22_Node000015_Node000016" class="edge">
<title>Node15&#45;&gt;Node16</title>
<g id="a_edge22_Node000015_Node000016"><a xlink:title=" ">
<path fill="none" stroke="#63b8ff" d="M860.07,-349.45C778.74,-328.99 603.94,-285.01 504.37,-259.96"/>
<polygon fill="#63b8ff" stroke="#63b8ff" points="859.43,-352.9 869.98,-351.94 861.14,-346.11 859.43,-352.9"/>
</a>
</g>
</g>
<!-- Node17 -->
<g id="Node000017" class="node">
<title>Node17</title>
<g id="a_Node000017"><a xlink:href="lin__alg_8h.html" target="_top" xlink:title="Linear algebra with vectors.">
<polygon fill="white" stroke="#666666" points="889,-316 831,-316 831,-297 889,-297 889,-316"/>
<text text-anchor="middle" x="860" y="-304" font-family="Helvetica,sans-Serif" font-size="10.00">lin_alg.h</text>
</a>
</g>
</g>
<!-- Node15&#45;&gt;Node17 -->
<g id="edge23_Node000015_Node000017" class="edge">
<title>Node15&#45;&gt;Node17</title>
<g id="a_edge23_Node000015_Node000017"><a xlink:title=" ">
<path fill="none" stroke="#63b8ff" d="M890.27,-343.96C882.6,-334.72 873.37,-323.6 867.13,-316.09"/>
<polygon fill="#63b8ff" stroke="#63b8ff" points="887.65,-346.29 896.73,-351.75 893.04,-341.82 887.65,-346.29"/>
</a>
</g>
</g>
<!-- Node17&#45;&gt;Node2 -->
<g id="edge28_Node000017_Node000002" class="edge">
<title>Node17&#45;&gt;Node2</title>
<g id="a_edge28_Node000017_Node000002"><a xlink:title=" ">
<path fill="none" stroke="#63b8ff" d="M891.87,-293.29C919.91,-282.54 960.73,-266.9 990.17,-255.62"/>
<polygon fill="#63b8ff" stroke="#63b8ff" points="890.61,-290.02 882.52,-296.87 893.11,-296.56 890.61,-290.02"/>
</a>
</g>
</g>
<!-- Node17&#45;&gt;Node3 -->
<g id="edge29_Node000017_Node000003" class="edge">
<title>Node17&#45;&gt;Node3</title>
<g id="a_edge29_Node000017_Node000003"><a xlink:title=" ">
<path fill="none" stroke="#63b8ff" d="M820.67,-305.55C694.87,-305.3 308.31,-301.23 271,-261 231.74,-218.66 277.08,-143.95 299.22,-112.78"/>
<polygon fill="#63b8ff" stroke="#63b8ff" points="820.99,-309.05 830.99,-305.56 821,-302.05 820.99,-309.05"/>
</a>
</g>
</g>
<!-- Node17&#45;&gt;Node4 -->
<g id="edge32_Node000017_Node000004" class="edge">
<title>Node17&#45;&gt;Node4</title>
<g id="a_edge32_Node000017_Node000004"><a xlink:title=" ">
<path fill="none" stroke="#63b8ff" d="M899.47,-302.63C974.87,-296.87 1144.47,-282.57 1286,-261 1296.27,-259.43 1307.11,-257.52 1317.67,-255.51"/>
<polygon fill="#63b8ff" stroke="#63b8ff" points="898.75,-299.17 889.05,-303.42 899.28,-306.15 898.75,-299.17"/>
</a>
</g>
</g>
<!-- Node17&#45;&gt;Node5 -->
<g id="edge34_Node000017_Node000005" class="edge">
<title>Node17&#45;&gt;Node5</title>
<g id="a_edge34_Node000017_Node000005"><a xlink:title=" ">
<path fill="none" stroke="#63b8ff" d="M820.7,-303.73C722.33,-299.08 457.6,-285.16 238,-261 221.2,-259.15 203.25,-256.76 186.19,-254.28"/>
<polygon fill="#63b8ff" stroke="#63b8ff" points="820.63,-307.23 830.78,-304.2 820.96,-300.24 820.63,-307.23"/>
</a>
</g>
</g>
<!-- Node17&#45;&gt;Node7 -->
<g id="edge24_Node000017_Node000007" class="edge">
<title>Node17&#45;&gt;Node7</title>
<g id="a_edge24_Node000017_Node000007"><a xlink:title=" ">
<path fill="none" stroke="#63b8ff" d="M899.13,-303.32C997.09,-297.72 1260.77,-281.81 1480,-261 1507.71,-258.37 1537.98,-254.95 1564.93,-251.71"/>
<polygon fill="#63b8ff" stroke="#63b8ff" points="898.88,-299.83 889.09,-303.89 899.27,-306.82 898.88,-299.83"/>
</a>
</g>
</g>
<!-- Node17&#45;&gt;Node8 -->
<g id="edge26_Node000017_Node000008" class="edge">
<title>Node17&#45;&gt;Node8</title>
<g id="a_edge26_Node000017_Node000008"><a xlink:title=" ">
<path fill="none" stroke="#63b8ff" d="M899.3,-305.64C1022.76,-305.64 1413.69,-302.13 1734,-261 1744.83,-259.61 1756.27,-257.65 1767.3,-255.51"/>
<polygon fill="#63b8ff" stroke="#63b8ff" points="899.19,-302.14 889.19,-305.64 899.19,-309.14 899.19,-302.14"/>
</a>
</g>
</g>
<!-- Node17&#45;&gt;Node9 -->
<g id="edge35_Node000017_Node000009" class="edge">
<title>Node17&#45;&gt;Node9</title>
<g id="a_edge35_Node000017_Node000009"><a xlink:title=" ">
<path fill="none" stroke="#63b8ff" d="M872.93,-288.74C891.43,-264.97 924.13,-223.89 932,-220 1026.41,-173.33 1801.1,-170.16 1958.98,-170"/>
<polygon fill="#63b8ff" stroke="#63b8ff" points="869.97,-286.85 866.61,-296.89 875.5,-291.13 869.97,-286.85"/>
</a>
</g>
</g>
<!-- Node17&#45;&gt;Node13 -->
<g id="edge36_Node000017_Node000013" class="edge">
<title>Node17&#45;&gt;Node13</title>
<g id="a_edge36_Node000017_Node000013"><a xlink:title=" ">
<path fill="none" stroke="#63b8ff" d="M820.96,-303.99C717.43,-299.7 437.76,-286.07 349,-261 340.26,-258.53 331.14,-254.09 323.92,-250.07"/>
<polygon fill="#63b8ff" stroke="#63b8ff" points="820.85,-307.49 830.98,-304.4 821.14,-300.5 820.85,-307.49"/>
</a>
</g>
</g>
<!-- Node17&#45;&gt;Node14 -->
<g id="edge30_Node000017_Node000014" class="edge">
<title>Node17&#45;&gt;Node14</title>
<g id="a_edge30_Node000017_Node000014"><a xlink:title=" ">
<path fill="none" stroke="#63b8ff" d="M820.73,-303.25C748.43,-298.57 597.52,-286.03 552,-261 543.34,-256.24 504.57,-208.42 485.15,-184.08"/>
<polygon fill="#63b8ff" stroke="#63b8ff" points="820.6,-306.75 830.8,-303.89 821.04,-299.77 820.6,-306.75"/>
</a>
</g>
</g>
<!-- Node17&#45;&gt;Node16 -->
<g id="edge31_Node000017_Node000016" class="edge">
<title>Node17&#45;&gt;Node16</title>
<g id="a_edge31_Node000017_Node000016"><a xlink:title=" ">
<path fill="none" stroke="#63b8ff" d="M820.55,-301.55C756.71,-294.89 626.91,-280.25 518,-261 513.43,-260.19 508.73,-259.31 504,-258.37"/>
<polygon fill="#63b8ff" stroke="#63b8ff" points="820.28,-305.04 830.58,-302.59 821,-298.08 820.28,-305.04"/>
</a>
</g>
</g>
<!-- Node18 -->
<g id="Node000018" class="node">
<title>Node18</title>
<g id="a_Node000018"><a xlink:href="lin__alg_8c.html" target="_top" xlink:title="Linear algebra with vectors.">
<polygon fill="white" stroke="#666666" points="711.5,-255.5 560.5,-255.5 560.5,-225.5 711.5,-225.5 711.5,-255.5"/>
<text text-anchor="start" x="568.5" y="-243.5" font-family="Helvetica,sans-Serif" font-size="10.00">/home/runner/work/QPALM</text>
<text text-anchor="middle" x="636" y="-232.5" font-family="Helvetica,sans-Serif" font-size="10.00">/QPALM/QPALM/src/lin_alg.c</text>
</a>
</g>
</g>
<!-- Node17&#45;&gt;Node18 -->
<g id="edge25_Node000017_Node000018" class="edge">
<title>Node17&#45;&gt;Node18</title>
<g id="a_edge25_Node000017_Node000018"><a xlink:title=" ">
<path fill="none" stroke="#63b8ff" d="M820.64,-294.25C782.99,-283.5 726.09,-267.24 685.41,-255.62"/>
<polygon fill="#63b8ff" stroke="#63b8ff" points="820.14,-297.75 830.72,-297.13 822.06,-291.02 820.14,-297.75"/>
</a>
</g>
</g>
<!-- Node19 -->
<g id="Node000019" class="node">
<title>Node19</title>
<g id="a_Node000019"><a xlink:href="newton_8c.html" target="_top" xlink:title="Functions to calculate the semismooth Newton direction.">
<polygon fill="white" stroke="#666666" points="884.5,-255.5 729.5,-255.5 729.5,-225.5 884.5,-225.5 884.5,-255.5"/>
<text text-anchor="start" x="737.5" y="-243.5" font-family="Helvetica,sans-Serif" font-size="10.00">/home/runner/work/QPALM</text>
<text text-anchor="middle" x="807" y="-232.5" font-family="Helvetica,sans-Serif" font-size="10.00">/QPALM/QPALM/src/newton.c</text>
</a>
</g>
</g>
<!-- Node17&#45;&gt;Node19 -->
<g id="edge27_Node000017_Node000019" class="edge">
<title>Node17&#45;&gt;Node19</title>
<g id="a_edge27_Node000017_Node000019"><a xlink:title=" ">
<path fill="none" stroke="#63b8ff" d="M846.37,-289.04C837.87,-278.78 827.04,-265.7 818.89,-255.86"/>
<polygon fill="#63b8ff" stroke="#63b8ff" points="843.78,-291.4 852.85,-296.87 849.17,-286.93 843.78,-291.4"/>
</a>
</g>
</g>
<!-- Node20 -->
<g id="Node000020" class="node">
<title>Node20</title>
<g id="a_Node000020"><a xlink:href="util_8c.html" target="_top" xlink:title="Utility functions.">
<polygon fill="white" stroke="#666666" points="1277,-255.5 1131,-255.5 1131,-225.5 1277,-225.5 1277,-255.5"/>
<text text-anchor="start" x="1139" y="-243.5" font-family="Helvetica,sans-Serif" font-size="10.00">/home/runner/work/QPALM</text>
<text text-anchor="middle" x="1204" y="-232.5" font-family="Helvetica,sans-Serif" font-size="10.00">/QPALM/QPALM/src/util.c</text>
</a>
</g>
</g>
<!-- Node17&#45;&gt;Node20 -->
<g id="edge33_Node000017_Node000020" class="edge">
<title>Node17&#45;&gt;Node20</title>
<g id="a_edge33_Node000017_Node000020"><a xlink:title=" ">
<path fill="none" stroke="#63b8ff" d="M899.2,-299.66C950.55,-291.82 1043.33,-277.02 1122,-261 1130.17,-259.34 1138.77,-257.45 1147.2,-255.51"/>
<polygon fill="#63b8ff" stroke="#63b8ff" points="898.55,-296.22 889.19,-301.18 899.61,-303.14 898.55,-296.22"/>
</a>
</g>
</g>
<!-- Node21&#45;&gt;Node2 -->
<g id="edge40_Node000021_Node000002" class="edge">
<title>Node21&#45;&gt;Node2</title>
<g id="a_edge40_Node000021_Node000002"><a xlink:title=" ">
<path fill="none" stroke="#63b8ff" d="M1352.4,-300.62C1303.59,-292.77 1205.12,-276.61 1122,-261 1112.9,-259.29 1103.32,-257.42 1093.9,-255.53"/>
<polygon fill="#63b8ff" stroke="#63b8ff" points="1351.89,-304.09 1362.32,-302.22 1353,-297.18 1351.89,-304.09"/>
</a>
</g>
</g>
<!-- Node21&#45;&gt;Node3 -->
<g id="edge41_Node000021_Node000003" class="edge">
<title>Node21&#45;&gt;Node3</title>
<g id="a_edge41_Node000021_Node000003"><a xlink:title=" ">
<path fill="none" stroke="#63b8ff" d="M1413.21,-293.56C1440.19,-282.6 1476.06,-267.15 1480,-261 1489.84,-245.66 1492.2,-233.53 1480,-220 1406.5,-138.47 631.21,-108.19 384.76,-100.58"/>
<polygon fill="#63b8ff" stroke="#63b8ff" points="1411.71,-290.39 1403.75,-297.37 1414.33,-296.88 1411.71,-290.39"/>
</a>
</g>
</g>
<!-- Node21&#45;&gt;Node4 -->
<g id="edge42_Node000021_Node000004" class="edge">
<title>Node21&#45;&gt;Node4</title>
<g id="a_edge42_Node000021_Node000004"><a xlink:title=" ">
<path fill="none" stroke="#63b8ff" d="M1383,-286.85C1383,-276.97 1383,-265.01 1383,-255.86"/>
<polygon fill="#63b8ff" stroke="#63b8ff" points="1379.5,-286.87 1383,-296.87 1386.5,-286.87 1379.5,-286.87"/>
</a>
</g>
</g>
<!-- Node21&#45;&gt;Node7 -->
<g id="edge39_Node000021_Node000007" class="edge">
<title>Node21&#45;&gt;Node7</title>
<g id="a_edge39_Node000021_Node000007"><a xlink:title=" ">
<path fill="none" stroke="#63b8ff" d="M1413.31,-298.1C1455.81,-287.71 1533.91,-268.64 1587.59,-255.52"/>
<polygon fill="#63b8ff" stroke="#63b8ff" points="1412.44,-294.7 1403.56,-300.48 1414.1,-301.51 1412.44,-294.7"/>
</a>
</g>
</g>
<!-- Node21&#45;&gt;Node9 -->
<g id="edge44_Node000021_Node000009" class="edge">
<title>Node21&#45;&gt;Node9</title>
<g id="a_edge44_Node000021_Node000009"><a xlink:title=" ">
<path fill="none" stroke="#63b8ff" d="M1413.36,-299.05C1440.78,-292.34 1481.54,-280.1 1513,-261 1535.57,-247.29 1532.09,-231.21 1556,-220 1628.12,-186.17 1875.26,-174.11 1959,-170.94"/>
<polygon fill="#63b8ff" stroke="#63b8ff" points="1412.48,-295.66 1403.55,-301.36 1414.08,-302.48 1412.48,-295.66"/>
</a>
</g>
</g>
<!-- Node21&#45;&gt;Node20 -->
<g id="edge43_Node000021_Node000020" class="edge">
<title>Node21&#45;&gt;Node20</title>
<g id="a_edge43_Node000021_Node000020"><a xlink:title=" ">
<path fill="none" stroke="#63b8ff" d="M1352.94,-294.75C1322.88,-284 1276.49,-267.42 1243.48,-255.62"/>
<polygon fill="#63b8ff" stroke="#63b8ff" points="1351.87,-298.09 1362.47,-298.16 1354.23,-291.5 1351.87,-298.09"/>
</a>
</g>
</g>
</g>
</svg>
