<?xml version="1.0" encoding="UTF-8" standalone="no"?>
<!DOCTYPE svg PUBLIC "-//W3C//DTD SVG 1.1//EN"
 "http://www.w3.org/Graphics/SVG/1.1/DTD/svg11.dtd">
<!-- Generated by graphviz version 2.43.0 (0)
 -->
<!-- Title: lin_alg.h Pages: 1 -->
<svg width="1976pt" height="324pt"
 viewBox="0.00 0.00 1976.00 324.00" xmlns="http://www.w3.org/2000/svg" xmlns:xlink="http://www.w3.org/1999/xlink">
<g id="graph0" class="graph" transform="scale(1 1) rotate(0) translate(4 320)">
<title>lin_alg.h</title>
<!-- Node1 -->
<g id="Node000001" class="node">
<title>Node1</title>
<g id="a_Node000001"><a xlink:title="Linear algebra with vectors.">
<polygon fill="#999999" stroke="#666666" points="975,-316 917,-316 917,-297 975,-297 975,-316"/>
<text text-anchor="middle" x="946" y="-304" font-family="Helvetica,sans-Serif" font-size="10.00">lin_alg.h</text>
</a>
</g>
</g>
<!-- Node2 -->
<g id="Node000002" class="node">
<title>Node2</title>
<g id="a_Node000002"><a xlink:href="iteration_8c.html" target="_top" xlink:title="QPALM main solver routines.">
<polygon fill="white" stroke="#666666" points="160,-255.5 0,-255.5 0,-225.5 160,-225.5 160,-255.5"/>
<text text-anchor="start" x="8" y="-243.5" font-family="Helvetica,sans-Serif" font-size="10.00">/home/runner/work/QPALM</text>
<text text-anchor="middle" x="80" y="-232.5" font-family="Helvetica,sans-Serif" font-size="10.00">/QPALM/QPALM/src/iteration.c</text>
</a>
</g>
</g>
<!-- Node1&#45;&gt;Node2 -->
<g id="edge1_Node000001_Node000002" class="edge">
<title>Node1&#45;&gt;Node2</title>
<g id="a_edge1_Node000001_Node000002"><a xlink:title=" ">
<path fill="none" stroke="#63b8ff" d="M906.89,-305.44C792.7,-304.81 450.04,-299.59 169,-261 158.81,-259.6 148.06,-257.66 137.69,-255.53"/>
<polygon fill="#63b8ff" stroke="#63b8ff" points="906.9,-308.94 916.91,-305.49 906.93,-301.94 906.9,-308.94"/>
</a>
</g>
</g>
<!-- Node3 -->
<g id="Node000003" class="node">
<title>Node3</title>
<g id="a_Node000003"><a xlink:href="lin__alg_8c.html" target="_top" xlink:title="Linear algebra with vectors.">
<polygon fill="white" stroke="#666666" points="329.5,-255.5 178.5,-255.5 178.5,-225.5 329.5,-225.5 329.5,-255.5"/>
<text text-anchor="start" x="186.5" y="-243.5" font-family="Helvetica,sans-Serif" font-size="10.00">/home/runner/work/QPALM</text>
<text text-anchor="middle" x="254" y="-232.5" font-family="Helvetica,sans-Serif" font-size="10.00">/QPALM/QPALM/src/lin_alg.c</text>
</a>
</g>
</g>
<!-- Node1&#45;&gt;Node3 -->
<g id="edge2_Node000001_Node000003" class="edge">
<title>Node1&#45;&gt;Node3</title>
<g id="a_edge2_Node000001_Node000003"><a xlink:title=" ">
<path fill="none" stroke="#63b8ff" d="M906.47,-304.73C809.22,-302.36 550.81,-293.29 338,-261 328.53,-259.56 318.54,-257.63 308.89,-255.53"/>
<polygon fill="#63b8ff" stroke="#63b8ff" points="906.63,-308.23 916.71,-304.96 906.8,-301.23 906.63,-308.23"/>
</a>
</g>
</g>
<!-- Node4 -->
<g id="Node000004" class="node">
<title>Node4</title>
<g id="a_Node000004"><a xlink:href="linesearch_8c.html" target="_top" xlink:title="Routines to perform exact or backtracking linesearch.">
<polygon fill="white" stroke="#666666" points="516.5,-255.5 347.5,-255.5 347.5,-225.5 516.5,-225.5 516.5,-255.5"/>
<text text-anchor="start" x="355.5" y="-243.5" font-family="Helvetica,sans-Serif" font-size="10.00">/home/runner/work/QPALM</text>
<text text-anchor="middle" x="432" y="-232.5" font-family="Helvetica,sans-Serif" font-size="10.00">/QPALM/QPALM/src/linesearch.c</text>
</a>
</g>
</g>
<!-- Node1&#45;&gt;Node4 -->
<g id="edge3_Node000001_Node000004" class="edge">
<title>Node1&#45;&gt;Node4</title>
<g id="a_edge3_Node000001_Node000004"><a xlink:title=" ">
<path fill="none" stroke="#63b8ff" d="M906.42,-302.66C831.61,-297 664.44,-282.93 525,-261 515.14,-259.45 504.75,-257.54 494.62,-255.53"/>
<polygon fill="#63b8ff" stroke="#63b8ff" points="906.54,-306.18 916.77,-303.44 907.06,-299.2 906.54,-306.18"/>
</a>
</g>
</g>
<!-- Node5 -->
<g id="Node000005" class="node">
<title>Node5</title>
<g id="a_Node000005"><a xlink:href="newton_8c.html" target="_top" xlink:title="Functions to calculate the semismooth Newton direction.">
<polygon fill="white" stroke="#666666" points="689.5,-255.5 534.5,-255.5 534.5,-225.5 689.5,-225.5 689.5,-255.5"/>
<text text-anchor="start" x="542.5" y="-243.5" font-family="Helvetica,sans-Serif" font-size="10.00">/home/runner/work/QPALM</text>
<text text-anchor="middle" x="612" y="-232.5" font-family="Helvetica,sans-Serif" font-size="10.00">/QPALM/QPALM/src/newton.c</text>
</a>
</g>
</g>
<!-- Node1&#45;&gt;Node5 -->
<g id="edge4_Node000001_Node000005" class="edge">
<title>Node1&#45;&gt;Node5</title>
<g id="a_edge4_Node000001_Node000005"><a xlink:title=" ">
<path fill="none" stroke="#63b8ff" d="M906.51,-298.91C857.66,-290.65 772.01,-275.75 699,-261 690.66,-259.31 681.88,-257.45 673.25,-255.57"/>
<polygon fill="#63b8ff" stroke="#63b8ff" points="906.2,-302.41 916.65,-300.62 907.37,-295.51 906.2,-302.41"/>
</a>
</g>
</g>
<!-- Node6 -->
<g id="Node000006" class="node">
<title>Node6</title>
<g id="a_Node000006"><a xlink:href="nonconvex_8c.html" target="_top" xlink:title="Routines to deal with nonconvex QPs.">
<polygon fill="white" stroke="#666666" points="880,-255.5 708,-255.5 708,-225.5 880,-225.5 880,-255.5"/>
<text text-anchor="start" x="716" y="-243.5" font-family="Helvetica,sans-Serif" font-size="10.00">/home/runner/work/QPALM</text>
<text text-anchor="middle" x="794" y="-232.5" font-family="Helvetica,sans-Serif" font-size="10.00">/QPALM/QPALM/src/nonconvex.c</text>
</a>
</g>
</g>
<!-- Node1&#45;&gt;Node6 -->
<g id="edge5_Node000001_Node000006" class="edge">
<title>Node1&#45;&gt;Node6</title>
<g id="a_edge5_Node000001_Node000006"><a xlink:title=" ">
<path fill="none" stroke="#63b8ff" d="M915.99,-292.86C890.5,-282.13 853.96,-266.75 827.52,-255.62"/>
<polygon fill="#63b8ff" stroke="#63b8ff" points="914.93,-296.21 925.5,-296.87 917.64,-289.76 914.93,-296.21"/>
</a>
</g>
</g>
<!-- Node7 -->
<g id="Node000007" class="node">
<title>Node7</title>
<g id="a_Node000007"><a xlink:href="qpalm_8c.html" target="_top" xlink:title="QPALM main solver API.">
<polygon fill="white" stroke="#666666" points="1639.5,-112.5 1490.5,-112.5 1490.5,-82.5 1639.5,-82.5 1639.5,-112.5"/>
<text text-anchor="start" x="1498.5" y="-100.5" font-family="Helvetica,sans-Serif" font-size="10.00">/home/runner/work/QPALM</text>
<text text-anchor="middle" x="1565" y="-89.5" font-family="Helvetica,sans-Serif" font-size="10.00">/QPALM/QPALM/src/qpalm.c</text>
</a>
</g>
</g>
<!-- Node1&#45;&gt;Node7 -->
<g id="edge6_Node000001_Node000007" class="edge">
<title>Node1&#45;&gt;Node7</title>
<g id="a_edge6_Node000001_Node000007"><a xlink:title=" ">
<path fill="none" stroke="#63b8ff" d="M939.05,-287.5C933.08,-268.73 927.5,-239.39 942,-220 1006.88,-133.24 1339.62,-108.08 1490.48,-101.07"/>
<polygon fill="#63b8ff" stroke="#63b8ff" points="935.75,-288.68 942.37,-296.95 942.35,-286.35 935.75,-288.68"/>
</a>
</g>
</g>
<!-- Node8 -->
<g id="Node000008" class="node">
<title>Node8</title>
<g id="a_Node000008"><a xlink:href="scaling_8c.html" target="_top" xlink:title="Problem data scaling during setup.">
<polygon fill="white" stroke="#666666" points="1327.5,-184 1174.5,-184 1174.5,-154 1327.5,-154 1327.5,-184"/>
<text text-anchor="start" x="1182.5" y="-172" font-family="Helvetica,sans-Serif" font-size="10.00">/home/runner/work/QPALM</text>
<text text-anchor="middle" x="1251" y="-161" font-family="Helvetica,sans-Serif" font-size="10.00">/QPALM/QPALM/src/scaling.c</text>
</a>
</g>
</g>
<!-- Node1&#45;&gt;Node8 -->
<g id="edge7_Node000001_Node000008" class="edge">
<title>Node1&#45;&gt;Node8</title>
<g id="a_edge7_Node000001_Node000008"><a xlink:title=" ">
<path fill="none" stroke="#63b8ff" d="M944.61,-286.63C944.28,-267.11 947.08,-237.12 965,-220 994.34,-191.97 1099.89,-179.42 1174.2,-173.97"/>
<polygon fill="#63b8ff" stroke="#63b8ff" points="941.11,-286.91 945.07,-296.74 948.11,-286.59 941.11,-286.91"/>
</a>
</g>
</g>
<!-- Node9 -->
<g id="Node000009" class="node">
<title>Node9</title>
<g id="a_Node000009"><a xlink:href="solver__interface_8c.html" target="_top" xlink:title="Interface and wrapper to matrix/factorization (ladel) functions.">
<polygon fill="white" stroke="#666666" points="1120,-261 974,-261 974,-220 1120,-220 1120,-261"/>
<text text-anchor="start" x="982" y="-249" font-family="Helvetica,sans-Serif" font-size="10.00">/home/runner/work/QPALM</text>
<text text-anchor="start" x="982" y="-238" font-family="Helvetica,sans-Serif" font-size="10.00">/QPALM/QPALM/src/solver</text>
<text text-anchor="middle" x="1047" y="-227" font-family="Helvetica,sans-Serif" font-size="10.00">_interface.c</text>
</a>
</g>
</g>
<!-- Node1&#45;&gt;Node9 -->
<g id="edge8_Node000001_Node000009" class="edge">
<title>Node1&#45;&gt;Node9</title>
<g id="a_edge8_Node000001_Node000009"><a xlink:title=" ">
<path fill="none" stroke="#63b8ff" d="M968.18,-291.45C982.27,-282.52 1000.71,-270.83 1016.21,-261.01"/>
<polygon fill="#63b8ff" stroke="#63b8ff" points="966.19,-288.56 959.62,-296.87 969.94,-294.47 966.19,-288.56"/>
</a>
</g>
</g>
<!-- Node10 -->
<g id="Node000010" class="node">
<title>Node10</title>
<g id="a_Node000010"><a xlink:href="termination_8c.html" target="_top" xlink:title="Routines to check the termination and infeasibility criteria.">
<polygon fill="white" stroke="#666666" points="1314,-255.5 1138,-255.5 1138,-225.5 1314,-225.5 1314,-255.5"/>
<text text-anchor="start" x="1146" y="-243.5" font-family="Helvetica,sans-Serif" font-size="10.00">/home/runner/work/QPALM</text>
<text text-anchor="middle" x="1226" y="-232.5" font-family="Helvetica,sans-Serif" font-size="10.00">/QPALM/QPALM/src/termination.c</text>
</a>
</g>
</g>
<!-- Node1&#45;&gt;Node10 -->
<g id="edge9_Node000001_Node000010" class="edge">
<title>Node1&#45;&gt;Node10</title>
<g id="a_edge9_Node000001_Node000010"><a xlink:title=" ">
<path fill="none" stroke="#63b8ff" d="M985.18,-296.55C1031.77,-285.9 1110.09,-267.99 1164.72,-255.51"/>
<polygon fill="#63b8ff" stroke="#63b8ff" points="984.14,-293.19 975.17,-298.83 985.7,-300.02 984.14,-293.19"/>
</a>
</g>
</g>
<!-- Node11 -->
<g id="Node000011" class="node">
<title>Node11</title>
<g id="a_Node000011"><a xlink:href="util_8c.html" target="_top" xlink:title="Utility functions.">
<polygon fill="white" stroke="#666666" points="1478,-255.5 1332,-255.5 1332,-225.5 1478,-225.5 1478,-255.5"/>
<text text-anchor="start" x="1340" y="-243.5" font-family="Helvetica,sans-Serif" font-size="10.00">/home/runner/work/QPALM</text>
<text text-anchor="middle" x="1405" y="-232.5" font-family="Helvetica,sans-Serif" font-size="10.00">/QPALM/QPALM/src/util.c</text>
</a>
</g>
</g>
<!-- Node1&#45;&gt;Node11 -->
<g id="edge10_Node000001_Node000011" class="edge">
<title>Node1&#45;&gt;Node11</title>
<g id="a_edge10_Node000001_Node000011"><a xlink:title=" ">
<path fill="none" stroke="#63b8ff" d="M985.38,-302.37C1054.22,-296.55 1200.73,-282.68 1323,-261 1331.65,-259.47 1340.74,-257.58 1349.6,-255.59"/>
<polygon fill="#63b8ff" stroke="#63b8ff" points="984.69,-298.91 975.02,-303.23 985.27,-305.89 984.69,-298.91"/>
</a>
</g>
</g>
<!-- Node12 -->
<g id="Node000012" class="node">
<title>Node12</title>
<g id="a_Node000012"><a xlink:href="validate_8c.html" target="_top" xlink:title="Validation of the user provided settings and data.">
<polygon fill="white" stroke="#666666" points="1654,-255.5 1496,-255.5 1496,-225.5 1654,-225.5 1654,-255.5"/>
<text text-anchor="start" x="1504" y="-243.5" font-family="Helvetica,sans-Serif" font-size="10.00">/home/runner/work/QPALM</text>
<text text-anchor="middle" x="1575" y="-232.5" font-family="Helvetica,sans-Serif" font-size="10.00">/QPALM/QPALM/src/validate.c</text>
</a>
</g>
</g>
<!-- Node1&#45;&gt;Node12 -->
<g id="edge11_Node000001_Node000012" class="edge">
<title>Node1&#45;&gt;Node12</title>
<g id="a_edge11_Node000001_Node000012"><a xlink:title=" ">
<path fill="none" stroke="#63b8ff" d="M985.43,-304.09C1075.01,-300.5 1300.53,-289.2 1487,-261 1496.75,-259.53 1507.03,-257.6 1516.99,-255.53"/>
<polygon fill="#63b8ff" stroke="#63b8ff" points="985.05,-300.61 975.19,-304.5 985.32,-307.6 985.05,-300.61"/>
</a>
</g>
</g>
<!-- Node13 -->
<g id="Node000013" class="node">
<title>Node13</title>
<g id="a_Node000013"><a xlink:href="qpalm_8h.html" target="_top" xlink:title="QPALM main solver API.">
<polygon fill="white" stroke="#666666" points="1759,-178.5 1703,-178.5 1703,-159.5 1759,-159.5 1759,-178.5"/>
<text text-anchor="middle" x="1731" y="-166.5" font-family="Helvetica,sans-Serif" font-size="10.00">qpalm.h</text>
</a>
</g>
</g>
<!-- Node1&#45;&gt;Node13 -->
<g id="edge12_Node000001_Node000013" class="edge">
<title>Node1&#45;&gt;Node13</title>
<g id="a_edge12_Node000001_Node000013"><a xlink:title=" ">
<path fill="none" stroke="#63b8ff" d="M985.21,-304.78C1141.74,-301.74 1714.77,-288.74 1741,-261 1762.51,-238.25 1744.99,-196.63 1735.78,-178.65"/>
<polygon fill="#63b8ff" stroke="#63b8ff" points="985.02,-301.29 975.09,-304.98 985.15,-308.29 985.02,-301.29"/>
</a>
</g>
</g>
<!-- Node17 -->
<g id="Node000017" class="node">
<title>Node17</title>
<g id="a_Node000017"><a xlink:href="scaling_8h.html" target="_top" xlink:title="Problem data scaling during setup.">
<polygon fill="white" stroke="#666666" points="1732,-250 1672,-250 1672,-231 1732,-231 1732,-250"/>
<text text-anchor="middle" x="1702" y="-238" font-family="Helvetica,sans-Serif" font-size="10.00">scaling.h</text>
</a>
</g>
</g>
<!-- Node1&#45;&gt;Node17 -->
<g id="edge17_Node000001_Node000017" class="edge">
<title>Node1&#45;&gt;Node17</title>
<g id="a_edge17_Node000001_Node000017"><a xlink:title=" ">
<path fill="none" stroke="#63b8ff" d="M985.4,-305.12C1115.97,-303.54 1533.56,-295.83 1663,-261 1671.77,-258.64 1680.89,-254.21 1688.1,-250.16"/>
<polygon fill="#63b8ff" stroke="#63b8ff" points="985.04,-301.62 975.08,-305.24 985.12,-308.62 985.04,-301.62"/>
</a>
</g>
</g>
<!-- Node13&#45;&gt;Node7 -->
<g id="edge16_Node000013_Node000007" class="edge">
<title>Node13&#45;&gt;Node7</title>
<g id="a_edge16_Node000013_Node000007"><a xlink:title=" ">
<path fill="none" stroke="#63b8ff" d="M1701.09,-155.48C1672.19,-143.38 1628.49,-125.08 1598.46,-112.51"/>
<polygon fill="#63b8ff" stroke="#63b8ff" points="1700.07,-158.84 1710.65,-159.48 1702.77,-152.39 1700.07,-158.84"/>
</a>
</g>
</g>
<!-- Node14 -->
<g id="Node000014" class="node">
<title>Node14</title>
<g id="a_Node000014"><a xlink:href="qpalm_8cpp.html" target="_top" xlink:title=" ">
<polygon fill="white" stroke="#666666" points="1804,-118 1658,-118 1658,-77 1804,-77 1804,-118"/>
<text text-anchor="start" x="1666" y="-106" font-family="Helvetica,sans-Serif" font-size="10.00">/home/runner/work/QPALM</text>
<text text-anchor="start" x="1666" y="-95" font-family="Helvetica,sans-Serif" font-size="10.00">/QPALM/QPALM/interfaces</text>
<text text-anchor="middle" x="1731" y="-84" font-family="Helvetica,sans-Serif" font-size="10.00">/cxx/src/qpalm.cpp</text>
</a>
</g>
</g>
<!-- Node13&#45;&gt;Node14 -->
<g id="edge13_Node000013_Node000014" class="edge">
<title>Node13&#45;&gt;Node14</title>
<g id="a_edge13_Node000013_Node000014"><a xlink:title=" ">
<path fill="none" stroke="#63b8ff" d="M1731,-149.38C1731,-139.74 1731,-127.96 1731,-118.17"/>
<polygon fill="#63b8ff" stroke="#63b8ff" points="1727.5,-149.48 1731,-159.48 1734.5,-149.48 1727.5,-149.48"/>
</a>
</g>
</g>
<!-- Node15 -->
<g id="Node000015" class="node">
<title>Node15</title>
<g id="a_Node000015"><a xlink:href="qpalm__fortran_8h.html" target="_top" xlink:title=" ">
<polygon fill="white" stroke="#666666" points="1968,-118 1822,-118 1822,-77 1968,-77 1968,-118"/>
<text text-anchor="start" x="1830" y="-106" font-family="Helvetica,sans-Serif" font-size="10.00">/home/runner/work/QPALM</text>
<text text-anchor="start" x="1830" y="-95" font-family="Helvetica,sans-Serif" font-size="10.00">/QPALM/QPALM/interfaces</text>
<text text-anchor="middle" x="1895" y="-84" font-family="Helvetica,sans-Serif" font-size="10.00">/fortran/qpalm_fortran.h</text>
</a>
</g>
</g>
<!-- Node13&#45;&gt;Node15 -->
<g id="edge14_Node000013_Node000015" class="edge">
<title>Node13&#45;&gt;Node15</title>
<g id="a_edge14_Node000013_Node000015"><a xlink:title=" ">
<path fill="none" stroke="#63b8ff" d="M1760.61,-155.45C1785.21,-145.03 1820.62,-130.02 1848.92,-118.03"/>
<polygon fill="#63b8ff" stroke="#63b8ff" points="1758.95,-152.35 1751.11,-159.48 1761.68,-158.8 1758.95,-152.35"/>
</a>
</g>
</g>
<!-- Node16 -->
<g id="Node000016" class="node">
<title>Node16</title>
<g id="a_Node000016"><a xlink:href="qpalm__fortran_8c.html" target="_top" xlink:title=" ">
<polygon fill="white" stroke="#666666" points="1968,-41 1822,-41 1822,0 1968,0 1968,-41"/>
<text text-anchor="start" x="1830" y="-29" font-family="Helvetica,sans-Serif" font-size="10.00">/home/runner/work/QPALM</text>
<text text-anchor="start" x="1830" y="-18" font-family="Helvetica,sans-Serif" font-size="10.00">/QPALM/QPALM/interfaces</text>
<text text-anchor="middle" x="1895" y="-7" font-family="Helvetica,sans-Serif" font-size="10.00">/fortran/qpalm_fortran.c</text>
</a>
</g>
</g>
<!-- Node15&#45;&gt;Node16 -->
<g id="edge15_Node000015_Node000016" class="edge">
<title>Node15&#45;&gt;Node16</title>
<g id="a_edge15_Node000015_Node000016"><a xlink:title=" ">
<path fill="none" stroke="#63b8ff" d="M1895,-66.69C1895,-58.08 1895,-48.9 1895,-41.07"/>
<polygon fill="#63b8ff" stroke="#63b8ff" points="1891.5,-66.79 1895,-76.79 1898.5,-66.79 1891.5,-66.79"/>
</a>
</g>
</g>
<!-- Node17&#45;&gt;Node7 -->
<g id="edge18_Node000017_Node000007" class="edge">
<title>Node17&#45;&gt;Node7</title>
<g id="a_edge18_Node000017_Node000007"><a xlink:title=" ">
<path fill="none" stroke="#63b8ff" d="M1686.28,-223.32C1659.21,-195.46 1604.21,-138.86 1578.64,-112.54"/>
<polygon fill="#63b8ff" stroke="#63b8ff" points="1683.95,-225.95 1693.43,-230.68 1688.97,-221.07 1683.95,-225.95"/>
</a>
</g>
</g>
<!-- Node17&#45;&gt;Node8 -->
<g id="edge19_Node000017_Node000008" class="edge">
<title>Node17&#45;&gt;Node8</title>
<g id="a_edge19_Node000017_Node000008"><a xlink:title=" ">
<path fill="none" stroke="#63b8ff" d="M1678.59,-226.18C1673.57,-223.79 1668.21,-221.57 1663,-220 1549.5,-185.86 1411.75,-174.95 1327.78,-171.51"/>
<polygon fill="#63b8ff" stroke="#63b8ff" points="1677.18,-229.4 1687.68,-230.85 1680.38,-223.17 1677.18,-229.4"/>
</a>
</g>
</g>
<!-- Node17&#45;&gt;Node13 -->
<g id="edge20_Node000017_Node000013" class="edge">
<title>Node17&#45;&gt;Node13</title>
<g id="a_edge20_Node000017_Node000013"><a xlink:title=" ">
<path fill="none" stroke="#63b8ff" d="M1709.5,-221.53C1715.26,-207.72 1722.97,-189.26 1727.41,-178.59"/>
<polygon fill="#63b8ff" stroke="#63b8ff" points="1706.18,-220.4 1705.56,-230.98 1712.64,-223.1 1706.18,-220.4"/>
</a>
</g>
</g>
</g>
</svg>
