<?xml version="1.0" encoding="UTF-8" standalone="no"?>
<!DOCTYPE svg PUBLIC "-//W3C//DTD SVG 1.1//EN"
 "http://www.w3.org/Graphics/SVG/1.1/DTD/svg11.dtd">
<!-- Generated by graphviz version 2.43.0 (0)
 -->
<!-- Title: vec_norm_inf Pages: 1 -->
<!--zoomable 378 -->

<svg id="main" version="1.1" xmlns="http://www.w3.org/2000/svg" xmlns:xlink="http://www.w3.org/1999/xlink" xml:space="preserve" onload="init(evt)">
<style type="text/css"><![CDATA[
.node, .edge {opacity: 0.7;}
.node.selected, .edge.selected {opacity: 1;}
.edge:hover path { stroke: red; }
.edge:hover polygon { stroke: red; fill: red; }
]]></style>

<defs>
  <circle id="rim" cx="0" cy="0" r="7"/>
  <circle id="rim2" cx="0" cy="0" r="3.5"/>
  <g id="zoomPlus">
    <use xlink:href="#rim" fill="#404040"><set attributeName="fill" to="#808080" begin="zoomplus.mouseover" end="zoomplus.mouseout"/></use>
    <path d="M-4,0h8M0,-4v8" fill="none" stroke="white" stroke-width="1.5" pointer-events="none"/>
  </g>
  <g id="zoomMin">
    <use xlink:href="#rim" fill="#404040"><set attributeName="fill" to="#808080" begin="zoomminus.mouseover" end="zoomminus.mouseout"/></use>
    <path d="M-4,0h8" fill="none" stroke="white" stroke-width="1.5" pointer-events="none"/>
  </g>
  <g id="arrowUp" transform="translate(30 24)">
    <use xlink:href="#rim"/>
    <path pointer-events="none" fill="none" stroke="white" stroke-width="1.5" d="M0,-3.0v7 M-2.5,-0.5L0,-3.0L2.5,-0.5"/>
  </g>
  <g id="arrowRight" transform="rotate(90) translate(36 -43)">
    <use xlink:href="#rim"/>
    <path pointer-events="none" fill="none" stroke="white" stroke-width="1.5" d="M0,-3.0v7 M-2.5,-0.5L0,-3.0L2.5,-0.5"/>
  </g>
  <g id="arrowDown" transform="rotate(180) translate(-30 -48)">
    <use xlink:href="#rim"/>
    <path pointer-events="none" fill="none" stroke="white" stroke-width="1.5" d="M0,-3.0v7 M-2.5,-0.5L0,-3.0L2.5,-0.5"/>
  </g>
  <g id="arrowLeft" transform="rotate(270) translate(-36 17)">
    <use xlink:href="#rim"/>
    <path pointer-events="none" fill="none" stroke="white" stroke-width="1.5" d="M0,-3.0v7 M-2.5,-0.5L0,-3.0L2.5,-0.5"/>
  </g>
  <g id="resetDef">
    <use xlink:href="#rim2" fill="#404040"><set attributeName="fill" to="#808080" begin="reset.mouseover" end="reset.mouseout"/></use>
  </g>
</defs>
<script type="application/ecmascript">
var viewWidth = 711;
var viewHeight = 378;
var sectionId = 'dynsection-14';
</script>
<script type="application/ecmascript" xlink:href="svg.min.js"/>
<svg id="graph" class="graph">
<g id="viewport">
<title>vec_norm_inf</title>
<!-- Node1 -->
<g id="Node000001" class="node">
<title>Node1</title>
<g id="a_Node000001"><a xlink:title="Infinity norm of a vector, .">
<polygon fill="#999999" stroke="#666666" points="703,-201.96 620,-201.96 620,-182.96 703,-182.96 703,-201.96"/>
<text text-anchor="middle" x="661.5" y="-189.96" font-family="Helvetica,sans-Serif" font-size="10.00">vec_norm_inf</text>
</a>
</g>
</g>
<!-- Node2 -->
<g id="Node000002" class="node">
<title>Node2</title>
<g id="a_Node000002"><a xlink:href="termination_8c.html#af1889ad003b14a004d4560bedde40ce9" target="_top" xlink:title="Calculates the infinity norm of the dual residual and the residual of the subproblem and stores them ...">
<polygon fill="white" stroke="#666666" points="578,-369.96 441,-369.96 441,-350.96 578,-350.96 578,-369.96"/>
<text text-anchor="middle" x="509.5" y="-357.96" font-family="Helvetica,sans-Serif" font-size="10.00">calculate_dual_residuals</text>
</a>
</g>
</g>
<!-- Node1&#45;&gt;Node2 -->
<g id="edge1_Node000001_Node000002" class="edge">
<title>Node1&#45;&gt;Node2</title>
<g id="a_edge1_Node000001_Node000002"><a xlink:title=" ">
<path fill="none" stroke="#63b8ff" d="M656.04,-212.37C647.71,-244.77 626.64,-308.69 584,-342.46 579.67,-345.88 574.79,-348.67 569.65,-350.93"/>
<polygon fill="#63b8ff" stroke="#63b8ff" points="659.52,-212.86 658.47,-202.32 652.72,-211.22 659.52,-212.86"/>
</a>
</g>
</g>
<!-- Node7 -->
<g id="Node000007" class="node">
<title>Node7</title>
<g id="a_Node000007"><a xlink:href="termination_8c.html#ad746ec6ec47a1240e5e910abfb01fee3" target="_top" xlink:title="Calculates the dual tolerance for the problem and current subproblem and stores them in work&#45;&gt;eps_dua...">
<polygon fill="white" stroke="#666666" points="581,-332.96 438,-332.96 438,-313.96 581,-313.96 581,-332.96"/>
<text text-anchor="middle" x="509.5" y="-320.96" font-family="Helvetica,sans-Serif" font-size="10.00">calculate_dual_tolerances</text>
</a>
</g>
</g>
<!-- Node1&#45;&gt;Node7 -->
<g id="edge6_Node000001_Node000007" class="edge">
<title>Node1&#45;&gt;Node7</title>
<g id="a_edge6_Node000001_Node000007"><a xlink:title=" ">
<path fill="none" stroke="#63b8ff" d="M652.91,-211.4C641.72,-236.83 618.35,-281.55 584,-305.46 579.15,-308.83 573.73,-311.58 568.1,-313.81"/>
<polygon fill="#63b8ff" stroke="#63b8ff" points="656.17,-212.67 656.84,-202.1 649.72,-209.95 656.17,-212.67"/>
</a>
</g>
</g>
<!-- Node8 -->
<g id="Node000008" class="node">
<title>Node8</title>
<g id="a_Node000008"><a xlink:href="termination_8c.html#afc13c2c286796ec381cdb5c83d9f764f" target="_top" xlink:title="Calculates the infinity norm of the primal residual and stores it in work&#45;&gt;info&#45;&gt;pri_res_norm.">
<polygon fill="white" stroke="#666666" points="580.5,-295.96 438.5,-295.96 438.5,-276.96 580.5,-276.96 580.5,-295.96"/>
<text text-anchor="middle" x="509.5" y="-283.96" font-family="Helvetica,sans-Serif" font-size="10.00">calculate_primal_residual</text>
</a>
</g>
</g>
<!-- Node1&#45;&gt;Node8 -->
<g id="edge8_Node000001_Node000008" class="edge">
<title>Node1&#45;&gt;Node8</title>
<g id="a_edge8_Node000001_Node000008"><a xlink:title=" ">
<path fill="none" stroke="#63b8ff" d="M647.34,-210.29C633.5,-227.75 610.14,-253.79 584,-268.46 577.93,-271.86 571.22,-274.63 564.4,-276.88"/>
<polygon fill="#63b8ff" stroke="#63b8ff" points="650.36,-212.11 653.67,-202.05 644.8,-207.85 650.36,-212.11"/>
</a>
</g>
</g>
<!-- Node9 -->
<g id="Node000009" class="node">
<title>Node9</title>
<g id="a_Node000009"><a xlink:href="termination_8c.html#ac638a8fe12bfee736c6832fa6140c92d" target="_top" xlink:title="Calculates the primal tolerance and stores it in work&#45;&gt;eps_pri.">
<polygon fill="white" stroke="#666666" points="584,-258.96 435,-258.96 435,-239.96 584,-239.96 584,-258.96"/>
<text text-anchor="middle" x="509.5" y="-246.96" font-family="Helvetica,sans-Serif" font-size="10.00">calculate_primal_tolerance</text>
</a>
</g>
</g>
<!-- Node1&#45;&gt;Node9 -->
<g id="edge10_Node000001_Node000009" class="edge">
<title>Node1&#45;&gt;Node9</title>
<g id="a_edge10_Node000001_Node000009"><a xlink:title=" ">
<path fill="none" stroke="#63b8ff" d="M630.44,-206.18C616.45,-212.37 599.5,-219.6 584,-225.46 570.31,-230.63 554.96,-235.75 541.83,-239.92"/>
<polygon fill="#63b8ff" stroke="#63b8ff" points="631.9,-209.36 639.61,-202.08 629.05,-202.97 631.9,-209.36"/>
</a>
</g>
</g>
<!-- Node10 -->
<g id="Node000010" class="node">
<title>Node10</title>
<g id="a_Node000010"><a xlink:href="termination_8c.html#a8cf01c07469436e7c562c9f3e162fd2b" target="_top" xlink:title="Check whether the problem is dual infeasible.">
<polygon fill="white" stroke="#666666" points="385,-220.96 281,-220.96 281,-201.96 385,-201.96 385,-220.96"/>
<text text-anchor="middle" x="333" y="-208.96" font-family="Helvetica,sans-Serif" font-size="10.00">is_dual_infeasible</text>
</a>
</g>
</g>
<!-- Node1&#45;&gt;Node10 -->
<g id="edge12_Node000001_Node000010" class="edge">
<title>Node1&#45;&gt;Node10</title>
<g id="a_edge12_Node000001_Node000010"><a xlink:title=" ">
<path fill="none" stroke="#63b8ff" d="M609.62,-195.42C548.46,-198.98 446.43,-204.91 385.16,-208.48"/>
<polygon fill="#63b8ff" stroke="#63b8ff" points="610.03,-198.9 619.81,-194.82 609.62,-191.91 610.03,-198.9"/>
</a>
</g>
</g>
<!-- Node11 -->
<g id="Node000011" class="node">
<title>Node11</title>
<g id="a_Node000011"><a xlink:href="termination_8c.html#a4df388b37067a843cbb2c6b244496d9c" target="_top" xlink:title="Check whether the problem is primal infeasible.">
<polygon fill="white" stroke="#666666" points="390.5,-182.96 275.5,-182.96 275.5,-163.96 390.5,-163.96 390.5,-182.96"/>
<text text-anchor="middle" x="333" y="-170.96" font-family="Helvetica,sans-Serif" font-size="10.00">is_primal_infeasible</text>
</a>
</g>
</g>
<!-- Node1&#45;&gt;Node11 -->
<g id="edge14_Node000001_Node000011" class="edge">
<title>Node1&#45;&gt;Node11</title>
<g id="a_edge14_Node000001_Node000011"><a xlink:title=" ">
<path fill="none" stroke="#63b8ff" d="M609.54,-189.49C550.15,-186.03 452.27,-180.34 390.57,-176.75"/>
<polygon fill="#63b8ff" stroke="#63b8ff" points="609.62,-193 619.81,-190.09 610.03,-186.01 609.62,-193"/>
</a>
</g>
</g>
<!-- Node12 -->
<g id="Node000012" class="node">
<title>Node12</title>
<g id="a_Node000012"><a xlink:href="newton_8c.html#af1654e5597faac8b0ade25acf1fc1bc9" target="_top" xlink:title="Sets work&#45;&gt;d to the direction calculated by the semismooth Newton method.">
<polygon fill="white" stroke="#666666" points="570,-144.96 449,-144.96 449,-125.96 570,-125.96 570,-144.96"/>
<text text-anchor="middle" x="509.5" y="-132.96" font-family="Helvetica,sans-Serif" font-size="10.00">newton_set_direction</text>
</a>
</g>
</g>
<!-- Node1&#45;&gt;Node12 -->
<g id="edge16_Node000001_Node000012" class="edge">
<title>Node1&#45;&gt;Node12</title>
<g id="a_edge16_Node000001_Node000012"><a xlink:title=" ">
<path fill="none" stroke="#63b8ff" d="M630.44,-178.73C616.45,-172.54 599.5,-165.32 584,-159.46 570.31,-154.28 554.96,-149.16 541.83,-144.99"/>
<polygon fill="#63b8ff" stroke="#63b8ff" points="629.05,-181.94 639.61,-182.83 631.9,-175.55 629.05,-181.94"/>
</a>
</g>
</g>
<!-- Node14 -->
<g id="Node000014" class="node">
<title>Node14</title>
<g id="a_Node000014"><a xlink:href="scaling_8c.html#a3735b6c9c3aeeddfb3bb0982ae5f70ba" target="_top" xlink:title="Scale problem matrices.">
<polygon fill="white" stroke="#666666" points="544,-107.96 475,-107.96 475,-88.96 544,-88.96 544,-107.96"/>
<text text-anchor="middle" x="509.5" y="-95.96" font-family="Helvetica,sans-Serif" font-size="10.00">scale_data</text>
</a>
</g>
</g>
<!-- Node1&#45;&gt;Node14 -->
<g id="edge19_Node000001_Node000014" class="edge">
<title>Node1&#45;&gt;Node14</title>
<g id="a_edge19_Node000001_Node000014"><a xlink:title=" ">
<path fill="none" stroke="#63b8ff" d="M647.34,-174.62C633.5,-157.16 610.14,-131.12 584,-116.46 571.85,-109.64 557.17,-105.39 544.12,-102.74"/>
<polygon fill="#63b8ff" stroke="#63b8ff" points="644.8,-177.06 653.67,-182.86 650.36,-172.8 644.8,-177.06"/>
</a>
</g>
</g>
<!-- Node15 -->
<g id="Node000015" class="node">
<title>Node15</title>
<g id="a_Node000015"><a xlink:href="iteration_8c.html#a786f2d2af82a141fe3825a3964659d50" target="_top" xlink:title=" ">
<polygon fill="white" stroke="#666666" points="574,-70.46 445,-70.46 445,-40.46 574,-40.46 574,-70.46"/>
<text text-anchor="start" x="453" y="-58.46" font-family="Helvetica,sans-Serif" font-size="10.00">update_proximal_point</text>
<text text-anchor="middle" x="509.5" y="-47.46" font-family="Helvetica,sans-Serif" font-size="10.00">_and_penalty</text>
</a>
</g>
</g>
<!-- Node1&#45;&gt;Node15 -->
<g id="edge20_Node000001_Node000015" class="edge">
<title>Node1&#45;&gt;Node15</title>
<g id="a_edge20_Node000001_Node000015"><a xlink:title=" ">
<path fill="none" stroke="#63b8ff" d="M652.47,-173.5C640.91,-148.44 617.26,-104.51 584,-79.46 579.5,-76.06 574.49,-73.14 569.27,-70.62"/>
<polygon fill="#63b8ff" stroke="#63b8ff" points="649.29,-174.97 656.55,-182.69 655.69,-172.13 649.29,-174.97"/>
</a>
</g>
</g>
<!-- Node17 -->
<g id="Node000017" class="node">
<title>Node17</title>
<g id="a_Node000017"><a xlink:href="iteration_8c.html#a8ea42d3c9ff0d6d8dc8f144d0b03dc0d" target="_top" xlink:title="Update the penalty factors.">
<polygon fill="white" stroke="#666666" points="552.5,-21.96 466.5,-21.96 466.5,-2.96 552.5,-2.96 552.5,-21.96"/>
<text text-anchor="middle" x="509.5" y="-9.96" font-family="Helvetica,sans-Serif" font-size="10.00">update_sigma</text>
</a>
</g>
</g>
<!-- Node1&#45;&gt;Node17 -->
<g id="edge23_Node000001_Node000017" class="edge">
<title>Node1&#45;&gt;Node17</title>
<g id="a_edge23_Node000001_Node000017"><a xlink:title=" ">
<path fill="none" stroke="#63b8ff" d="M656.75,-172.62C649.24,-138.46 629.03,-68.63 584,-31.46 575.16,-24.16 563.84,-19.62 552.74,-16.82"/>
<polygon fill="#63b8ff" stroke="#63b8ff" points="653.39,-173.65 658.83,-182.74 660.25,-172.24 653.39,-173.65"/>
</a>
</g>
</g>
<!-- Node3 -->
<g id="Node000003" class="node">
<title>Node3</title>
<g id="a_Node000003"><a xlink:href="termination_8c.html#a50775fd01103420a3cfe7452a8be3874" target="_top" xlink:title="Calls the routines that compute the norm of the residuals and the tolerances.">
<polygon fill="white" stroke="#666666" points="399,-301.46 267,-301.46 267,-271.46 399,-271.46 399,-301.46"/>
<text text-anchor="start" x="275" y="-289.46" font-family="Helvetica,sans-Serif" font-size="10.00">calculate_residual</text>
<text text-anchor="middle" x="333" y="-278.46" font-family="Helvetica,sans-Serif" font-size="10.00">_norms_and_tolerances</text>
</a>
</g>
</g>
<!-- Node2&#45;&gt;Node3 -->
<g id="edge2_Node000002_Node000003" class="edge">
<title>Node2&#45;&gt;Node3</title>
<g id="a_edge2_Node000002_Node000003"><a xlink:title=" ">
<path fill="none" stroke="#63b8ff" d="M451.25,-348.03C445.7,-346.35 440.2,-344.49 435,-342.46 407,-331.49 377.13,-314.15 357.2,-301.67"/>
<polygon fill="#63b8ff" stroke="#63b8ff" points="450.69,-351.5 461.26,-350.86 452.59,-344.77 450.69,-351.5"/>
</a>
</g>
</g>
<!-- Node4 -->
<g id="Node000004" class="node">
<title>Node4</title>
<g id="a_Node000004"><a xlink:href="group__solver-grp.html#ga17fcba910c32b8518df93617591b1cf1" target="_top" xlink:title="Solve the quadratic program.">
<polygon fill="white" stroke="#666666" points="231,-163.96 152,-163.96 152,-144.96 231,-144.96 231,-163.96"/>
<text text-anchor="middle" x="191.5" y="-151.96" font-family="Helvetica,sans-Serif" font-size="10.00">qpalm_solve</text>
</a>
</g>
</g>
<!-- Node3&#45;&gt;Node4 -->
<g id="edge3_Node000003_Node000004" class="edge">
<title>Node3&#45;&gt;Node4</title>
<g id="a_edge3_Node000003_Node000004"><a xlink:title=" ">
<path fill="none" stroke="#63b8ff" d="M306.13,-264.49C294.07,-254.06 279.62,-241.31 267,-229.46 242.93,-206.83 215.87,-178.94 201.93,-164.38"/>
<polygon fill="#63b8ff" stroke="#63b8ff" points="304.19,-267.43 314.05,-271.3 308.75,-262.12 304.19,-267.43"/>
</a>
</g>
</g>
<!-- Node5 -->
<g id="Node000005" class="node">
<title>Node5</title>
<g id="a_Node000005"><a xlink:href="qpalm__fortran_8c.html#abec01161fcee665e126347b862c404c4" target="_top" xlink:title=" ">
<polygon fill="white" stroke="#666666" points="106,-182.96 10,-182.96 10,-163.96 106,-163.96 106,-182.96"/>
<text text-anchor="middle" x="58" y="-170.96" font-family="Helvetica,sans-Serif" font-size="10.00">qpalm_fortran_c</text>
</a>
</g>
</g>
<!-- Node4&#45;&gt;Node5 -->
<g id="edge4_Node000004_Node000005" class="edge">
<title>Node4&#45;&gt;Node5</title>
<g id="a_edge4_Node000004_Node000005"><a xlink:title=" ">
<path fill="none" stroke="#63b8ff" d="M141.8,-161.49C130.2,-163.17 117.85,-164.95 106.31,-166.62"/>
<polygon fill="#63b8ff" stroke="#63b8ff" points="142.36,-164.95 151.76,-160.05 141.36,-158.02 142.36,-164.95"/>
</a>
</g>
</g>
<!-- Node6 -->
<g id="Node000006" class="node">
<title>Node6</title>
<g id="a_Node000006"><a xlink:href="classqpalm_1_1Solver.html#a7d723d189a812ffa19d688b7aa38ccca" target="_top" xlink:title="Solve the problem.">
<polygon fill="white" stroke="#666666" points="116,-145.96 0,-145.96 0,-126.96 116,-126.96 116,-145.96"/>
<text text-anchor="middle" x="58" y="-133.96" font-family="Helvetica,sans-Serif" font-size="10.00">qpalm::Solver::solve</text>
</a>
</g>
</g>
<!-- Node4&#45;&gt;Node6 -->
<g id="edge5_Node000004_Node000006" class="edge">
<title>Node4&#45;&gt;Node6</title>
<g id="a_edge5_Node000004_Node000006"><a xlink:title=" ">
<path fill="none" stroke="#63b8ff" d="M141.62,-147.77C133.43,-146.64 124.86,-145.47 116.47,-144.32"/>
<polygon fill="#63b8ff" stroke="#63b8ff" points="141.37,-151.26 151.76,-149.15 142.32,-144.33 141.37,-151.26"/>
</a>
</g>
</g>
<!-- Node7&#45;&gt;Node3 -->
<g id="edge7_Node000007_Node000003" class="edge">
<title>Node7&#45;&gt;Node3</title>
<g id="a_edge7_Node000007_Node000003"><a xlink:title=" ">
<path fill="none" stroke="#63b8ff" d="M453.64,-311.82C436.36,-308.16 417.11,-304.08 399.18,-300.28"/>
<polygon fill="#63b8ff" stroke="#63b8ff" points="453.05,-315.28 463.56,-313.93 454.51,-308.43 453.05,-315.28"/>
</a>
</g>
</g>
<!-- Node8&#45;&gt;Node3 -->
<g id="edge9_Node000008_Node000003" class="edge">
<title>Node8&#45;&gt;Node3</title>
<g id="a_edge9_Node000008_Node000003"><a xlink:title=" ">
<path fill="none" stroke="#63b8ff" d="M428.23,-286.46C418.54,-286.46 408.72,-286.46 399.28,-286.46"/>
<polygon fill="#63b8ff" stroke="#63b8ff" points="428.28,-289.96 438.28,-286.46 428.28,-282.96 428.28,-289.96"/>
</a>
</g>
</g>
<!-- Node9&#45;&gt;Node3 -->
<g id="edge11_Node000009_Node000003" class="edge">
<title>Node9&#45;&gt;Node3</title>
<g id="a_edge11_Node000009_Node000003"><a xlink:title=" ">
<path fill="none" stroke="#63b8ff" d="M453.64,-261.09C436.36,-264.75 417.11,-268.83 399.18,-272.64"/>
<polygon fill="#63b8ff" stroke="#63b8ff" points="454.51,-264.48 463.56,-258.98 453.05,-257.63 454.51,-264.48"/>
</a>
</g>
</g>
<!-- Node10&#45;&gt;Node4 -->
<g id="edge13_Node000010_Node000004" class="edge">
<title>Node10&#45;&gt;Node4</title>
<g id="a_edge13_Node000010_Node000004"><a xlink:title=" ">
<path fill="none" stroke="#63b8ff" d="M287.3,-198.75C280.44,-196.5 273.48,-194.04 267,-191.46 246.88,-183.43 224.76,-172.1 209.89,-164.1"/>
<polygon fill="#63b8ff" stroke="#63b8ff" points="286.64,-202.22 297.23,-201.9 288.75,-195.54 286.64,-202.22"/>
</a>
</g>
</g>
<!-- Node11&#45;&gt;Node4 -->
<g id="edge15_Node000011_Node000004" class="edge">
<title>Node11&#45;&gt;Node4</title>
<g id="a_edge15_Node000011_Node000004"><a xlink:title=" ">
<path fill="none" stroke="#63b8ff" d="M265.12,-164.35C253.51,-162.77 241.8,-161.17 231.27,-159.74"/>
<polygon fill="#63b8ff" stroke="#63b8ff" points="264.88,-167.85 275.26,-165.73 265.82,-160.91 264.88,-167.85"/>
</a>
</g>
</g>
<!-- Node13 -->
<g id="Node000013" class="node">
<title>Node13</title>
<g id="a_Node000013"><a xlink:href="iteration_8c.html#a9c9fafac9ce099122c5a594762e5a052" target="_top" xlink:title="Update the primal iterate.">
<polygon fill="white" stroke="#666666" points="395.5,-144.96 270.5,-144.96 270.5,-125.96 395.5,-125.96 395.5,-144.96"/>
<text text-anchor="middle" x="333" y="-132.96" font-family="Helvetica,sans-Serif" font-size="10.00">update_primal_iterate</text>
</a>
</g>
</g>
<!-- Node12&#45;&gt;Node13 -->
<g id="edge17_Node000012_Node000013" class="edge">
<title>Node12&#45;&gt;Node13</title>
<g id="a_edge17_Node000012_Node000013"><a xlink:title=" ">
<path fill="none" stroke="#63b8ff" d="M438.71,-135.46C424.48,-135.46 409.6,-135.46 395.67,-135.46"/>
<polygon fill="#63b8ff" stroke="#63b8ff" points="438.94,-138.96 448.94,-135.46 438.94,-131.96 438.94,-138.96"/>
</a>
</g>
</g>
<!-- Node13&#45;&gt;Node4 -->
<g id="edge18_Node000013_Node000004" class="edge">
<title>Node13&#45;&gt;Node4</title>
<g id="a_edge18_Node000013_Node000004"><a xlink:title=" ">
<path fill="none" stroke="#63b8ff" d="M260.4,-145.21C250.38,-146.57 240.41,-147.93 231.32,-149.17"/>
<polygon fill="#63b8ff" stroke="#63b8ff" points="260.97,-148.66 270.41,-143.84 260.03,-141.73 260.97,-148.66"/>
</a>
</g>
</g>
<!-- Node16 -->
<g id="Node000016" class="node">
<title>Node16</title>
<g id="a_Node000016"><a xlink:href="iteration_8c.html#a1ad7b6cb4924a8de3378ed35890b02e7" target="_top" xlink:title=" ">
<polygon fill="white" stroke="#666666" points="390,-70.46 276,-70.46 276,-40.46 390,-40.46 390,-70.46"/>
<text text-anchor="start" x="284" y="-58.46" font-family="Helvetica,sans-Serif" font-size="10.00">update_dual_iterate</text>
<text text-anchor="middle" x="333" y="-47.46" font-family="Helvetica,sans-Serif" font-size="10.00">_and_parameters</text>
</a>
</g>
</g>
<!-- Node15&#45;&gt;Node16 -->
<g id="edge21_Node000015_Node000016" class="edge">
<title>Node15&#45;&gt;Node16</title>
<g id="a_edge21_Node000015_Node000016"><a xlink:title=" ">
<path fill="none" stroke="#63b8ff" d="M434.38,-55.46C419.58,-55.46 404.27,-55.46 390.2,-55.46"/>
<polygon fill="#63b8ff" stroke="#63b8ff" points="434.51,-58.96 444.51,-55.46 434.51,-51.96 434.51,-58.96"/>
</a>
</g>
</g>
<!-- Node16&#45;&gt;Node4 -->
<g id="edge22_Node000016_Node000004" class="edge">
<title>Node16&#45;&gt;Node4</title>
<g id="a_edge22_Node000016_Node000004"><a xlink:title=" ">
<path fill="none" stroke="#63b8ff" d="M302.5,-76.39C272.88,-97.42 228.51,-128.9 206.26,-144.69"/>
<polygon fill="#63b8ff" stroke="#63b8ff" points="304.68,-79.13 310.81,-70.49 300.63,-73.43 304.68,-79.13"/>
</a>
</g>
</g>
<!-- Node17&#45;&gt;Node4 -->
<g id="edge24_Node000017_Node000004" class="edge">
<title>Node17&#45;&gt;Node4</title>
<g id="a_edge24_Node000017_Node000004"><a xlink:title=" ">
<path fill="none" stroke="#63b8ff" d="M456.1,-3.55C404.14,2.45 324.23,3.82 267,-31.46 223.43,-58.31 201.87,-121.03 195,-144.95"/>
<polygon fill="#63b8ff" stroke="#63b8ff" points="455.75,-7.04 466.11,-4.81 456.62,-0.09 455.75,-7.04"/>
</a>
</g>
</g>
<!-- Node17&#45;&gt;Node16 -->
<g id="edge25_Node000017_Node000016" class="edge">
<title>Node17&#45;&gt;Node16</title>
<g id="a_edge25_Node000017_Node000016"><a xlink:title=" ">
<path fill="none" stroke="#63b8ff" d="M459.82,-24.45C438.19,-29.78 412.6,-36.09 390.17,-41.61"/>
<polygon fill="#63b8ff" stroke="#63b8ff" points="460.9,-27.79 469.77,-22 459.23,-20.99 460.9,-27.79"/>
</a>
</g>
</g>
</g>
</svg>

<g id="navigator" transform="translate(0 0)" fill="#404254">
  <rect fill="#f2f5e9" fill-opacity="0.5" stroke="#606060" stroke-width=".5" x="0" y="0" width="60" height="60"/>
  <use id="zoomplus" xlink:href="#zoomPlus" x="17" y="9" onmousedown="handleZoom(evt,'in')"/>
  <use id="zoomminus" xlink:href="#zoomMin" x="42" y="9" onmousedown="handleZoom(evt,'out')"/>
  <use id="reset" xlink:href="#resetDef" x="30" y="36" onmousedown="handleReset()"/>
   <use id="arrowup" xlink:href="#arrowUp" x="0" y="0" onmousedown="handlePan(0,-1)"/>
  <use id="arrowright" xlink:href="#arrowRight" x="0" y="0" onmousedown="handlePan(1,0)"/>
  <use id="arrowdown" xlink:href="#arrowDown" x="0" y="0" onmousedown="handlePan(0,1)"/>
  <use id="arrowleft" xlink:href="#arrowLeft" x="0" y="0" onmousedown="handlePan(-1,0)"/>
</g>
<svg viewBox="0 0 15 15" width="100%" height="30px" preserveAspectRatio="xMaxYMin meet">
 <g id="arrow_out" transform="scale(0.3 0.3)">
  <a xlink:href="lin__alg_8c_ad69e3ef3b7360cd1d6262ee2f32fce83_icgraph_org.svg" target="_base">
   <rect id="button" ry="5" rx="5" y="6" x="6" height="38" width="38"
        fill="#f2f5e9" fill-opacity="0.5" stroke="#606060" stroke-width="1.0"/>
   <path id="arrow"
     d="M 11.500037,31.436501 C 11.940474,20.09759 22.043105,11.32322 32.158766,21.979434 L 37.068811,17.246167 C 37.068811,17.246167 37.088388,32 37.088388,32 L 22.160133,31.978069 C 22.160133,31.978069 26.997745,27.140456 26.997745,27.140456 C 18.528582,18.264221 13.291696,25.230495 11.500037,31.436501 z"
     style="fill:#404040;"/>
  </a>
 </g>
</svg>

<style type='text/css'>
<![CDATA[
[data-mouse-over-selected='false'] { opacity: 0.7; }
[data-mouse-over-selected='true']  { opacity: 1.0; }
]]>
</style>
<script type="application/ecmascript"><![CDATA[
document.addEventListener('DOMContentLoaded', (event) => {
  highlightEdges();
  highlightAdjacentNodes();
});
]]></script>
</svg>
