<?xml version="1.0" encoding="UTF-8" standalone="no"?>
<!DOCTYPE svg PUBLIC "-//W3C//DTD SVG 1.1//EN"
 "http://www.w3.org/Graphics/SVG/1.1/DTD/svg11.dtd">
<!-- Generated by graphviz version 2.43.0 (0)
 -->
<!-- Title: /home/runner/work/QPALM/QPALM/QPALM/src/linesearch.c Pages: 1 -->
<svg width="259pt" height="313pt"
 viewBox="0.00 0.00 259.00 313.00" xmlns="http://www.w3.org/2000/svg" xmlns:xlink="http://www.w3.org/1999/xlink">

<svg id="main" version="1.1" xmlns="http://www.w3.org/2000/svg" xmlns:xlink="http://www.w3.org/1999/xlink" xml:space="preserve" onload="init(evt)">
<style type="text/css"><![CDATA[
.node, .edge {opacity: 0.7;}
.node.selected, .edge.selected {opacity: 1;}
.edge:hover path { stroke: red; }
.edge:hover polygon { stroke: red; fill: red; }
]]></style>
<script type="application/ecmascript" xlink:href="svg.min.js"/>
<svg id="graph" class="graph">
<g id="graph0" class="graph" transform="scale(1 1) rotate(0) translate(4 309)">
<title>/home/runner/work/QPALM/QPALM/QPALM/src/linesearch.c</title>
<!-- Node1 -->
<g id="Node000001" class="node">
<title>Node1</title>
<g id="a_Node000001"><a xlink:title="Routines to perform exact or backtracking linesearch.">
<polygon fill="#999999" stroke="#666666" points="230.5,-305 61.5,-305 61.5,-275 230.5,-275 230.5,-305"/>
<text text-anchor="start" x="69.5" y="-293" font-family="Helvetica,sans-Serif" font-size="10.00">/home/runner/work/QPALM</text>
<text text-anchor="middle" x="146" y="-282" font-family="Helvetica,sans-Serif" font-size="10.00">/QPALM/QPALM/src/linesearch.c</text>
</a>
</g>
</g>
<!-- Node2 -->
<g id="Node000002" class="node">
<title>Node2</title>
<g id="a_Node000002"><a xlink:href="linesearch_8h.html" target="_top" xlink:title="Routines to perform exact linesearch.">
<polygon fill="white" stroke="#666666" points="76,-184 0,-184 0,-165 76,-165 76,-184"/>
<text text-anchor="middle" x="38" y="-172" font-family="Helvetica,sans-Serif" font-size="10.00">linesearch.h</text>
</a>
</g>
</g>
<!-- Node1&#45;&gt;Node2 -->
<g id="edge1_Node000001_Node000002" class="edge">
<title>Node1&#45;&gt;Node2</title>
<g id="a_edge1_Node000001_Node000002"><a xlink:title=" ">
<path fill="none" stroke="#63b8ff" d="M132.32,-274.63C112.1,-253.37 74.35,-213.71 53.26,-191.54"/>
<polygon fill="#63b8ff" stroke="#63b8ff" points="55.74,-189.06 46.31,-184.23 50.66,-193.89 55.74,-189.06"/>
</a>
</g>
</g>
<!-- Node8 -->
<g id="Node000008" class="node">
<title>Node8</title>
<g id="a_Node000008"><a xlink:href="lin__alg_8h.html" target="_top" xlink:title="Linear algebra with vectors.">
<polygon fill="white" stroke="#666666" points="175,-239 117,-239 117,-220 175,-220 175,-239"/>
<text text-anchor="middle" x="146" y="-227" font-family="Helvetica,sans-Serif" font-size="10.00">lin_alg.h</text>
</a>
</g>
</g>
<!-- Node1&#45;&gt;Node8 -->
<g id="edge9_Node000001_Node000008" class="edge">
<title>Node1&#45;&gt;Node8</title>
<g id="a_edge9_Node000001_Node000008"><a xlink:title=" ">
<path fill="none" stroke="#63b8ff" d="M146,-274.84C146,-267.21 146,-257.7 146,-249.45"/>
<polygon fill="#63b8ff" stroke="#63b8ff" points="149.5,-249.27 146,-239.27 142.5,-249.27 149.5,-249.27"/>
</a>
</g>
</g>
<!-- Node10 -->
<g id="Node000010" class="node">
<title>Node10</title>
<g id="a_Node000010"><a xlink:title=" ">
<polygon fill="#e0e0e0" stroke="#999999" points="246.5,-239 193.5,-239 193.5,-220 246.5,-220 246.5,-239"/>
<text text-anchor="middle" x="220" y="-227" font-family="Helvetica,sans-Serif" font-size="10.00">stdlib.h</text>
</a>
</g>
</g>
<!-- Node1&#45;&gt;Node10 -->
<g id="edge16_Node000001_Node000010" class="edge">
<title>Node1&#45;&gt;Node10</title>
<g id="a_edge16_Node000001_Node000010"><a xlink:title=" ">
<path fill="none" stroke="#63b8ff" d="M163.91,-274.84C175.09,-266 189.48,-254.63 200.88,-245.62"/>
<polygon fill="#63b8ff" stroke="#63b8ff" points="203.24,-248.21 208.91,-239.27 198.9,-242.72 203.24,-248.21"/>
</a>
</g>
</g>
<!-- Node3 -->
<g id="Node000003" class="node">
<title>Node3</title>
<g id="a_Node000003"><a xlink:href="types_8h.html" target="_top" xlink:title="Internal data structures used in QPALM.">
<polygon fill="white" stroke="#666666" points="184.5,-129 131.5,-129 131.5,-110 184.5,-110 184.5,-129"/>
<text text-anchor="middle" x="158" y="-117" font-family="Helvetica,sans-Serif" font-size="10.00">types.h</text>
</a>
</g>
</g>
<!-- Node2&#45;&gt;Node3 -->
<g id="edge2_Node000002_Node000003" class="edge">
<title>Node2&#45;&gt;Node3</title>
<g id="a_edge2_Node000002_Node000003"><a xlink:title=" ">
<path fill="none" stroke="#63b8ff" d="M57.28,-164.98C76.67,-156.42 106.81,-143.11 129.07,-133.28"/>
<polygon fill="#63b8ff" stroke="#63b8ff" points="130.64,-136.41 138.37,-129.17 127.81,-130.01 130.64,-136.41"/>
</a>
</g>
</g>
<!-- Node7 -->
<g id="Node000007" class="node">
<title>Node7</title>
<g id="a_Node000007"><a xlink:href="constants_8h.html" target="_top" xlink:title="Constants used in QPALM.">
<polygon fill="white" stroke="#666666" points="74.5,-129 1.5,-129 1.5,-110 74.5,-110 74.5,-129"/>
<text text-anchor="middle" x="38" y="-117" font-family="Helvetica,sans-Serif" font-size="10.00">constants.h</text>
</a>
</g>
</g>
<!-- Node2&#45;&gt;Node7 -->
<g id="edge7_Node000002_Node000007" class="edge">
<title>Node2&#45;&gt;Node7</title>
<g id="a_edge7_Node000002_Node000007"><a xlink:title=" ">
<path fill="none" stroke="#63b8ff" d="M38,-164.75C38,-157.8 38,-147.85 38,-139.13"/>
<polygon fill="#63b8ff" stroke="#63b8ff" points="41.5,-139.09 38,-129.09 34.5,-139.09 41.5,-139.09"/>
</a>
</g>
</g>
<!-- Node4 -->
<g id="Node000004" class="node">
<title>Node4</title>
<g id="a_Node000004"><a xlink:href="global__opts_8h.html" target="_top" xlink:title="Custom memory allocation, print and utility functions, and data types for floats and ints.">
<polygon fill="white" stroke="#666666" points="251,-74 169,-74 169,-55 251,-55 251,-74"/>
<text text-anchor="middle" x="210" y="-62" font-family="Helvetica,sans-Serif" font-size="10.00">global_opts.h</text>
</a>
</g>
</g>
<!-- Node3&#45;&gt;Node4 -->
<g id="edge3_Node000003_Node000004" class="edge">
<title>Node3&#45;&gt;Node4</title>
<g id="a_edge3_Node000003_Node000004"><a xlink:title=" ">
<path fill="none" stroke="#63b8ff" d="M166.59,-109.75C174.16,-102.03 185.38,-90.6 194.51,-81.28"/>
<polygon fill="#63b8ff" stroke="#63b8ff" points="197.07,-83.68 201.57,-74.09 192.07,-78.78 197.07,-83.68"/>
</a>
</g>
</g>
<!-- Node5 -->
<g id="Node000005" class="node">
<title>Node5</title>
<g id="a_Node000005"><a xlink:title=" ">
<polygon fill="#e0e0e0" stroke="#999999" points="147,-19 97,-19 97,0 147,0 147,-19"/>
<text text-anchor="middle" x="122" y="-7" font-family="Helvetica,sans-Serif" font-size="10.00">ladel.h</text>
</a>
</g>
</g>
<!-- Node3&#45;&gt;Node5 -->
<g id="edge6_Node000003_Node000005" class="edge">
<title>Node3&#45;&gt;Node5</title>
<g id="a_edge6_Node000003_Node000005"><a xlink:title=" ">
<path fill="none" stroke="#63b8ff" d="M155.05,-109.66C149.2,-92.09 135.98,-52.45 128.15,-28.95"/>
<polygon fill="#63b8ff" stroke="#63b8ff" points="131.37,-27.54 124.89,-19.16 124.73,-29.75 131.37,-27.54"/>
</a>
</g>
</g>
<!-- Node4&#45;&gt;Node5 -->
<g id="edge4_Node000004_Node000005" class="edge">
<title>Node4&#45;&gt;Node5</title>
<g id="a_edge4_Node000004_Node000005"><a xlink:title=" ">
<path fill="none" stroke="#63b8ff" d="M195.86,-54.98C182.21,-46.77 161.31,-34.18 145.22,-24.49"/>
<polygon fill="#63b8ff" stroke="#63b8ff" points="146.77,-21.33 136.4,-19.17 143.16,-27.33 146.77,-21.33"/>
</a>
</g>
</g>
<!-- Node6 -->
<g id="Node000006" class="node">
<title>Node6</title>
<g id="a_Node000006"><a xlink:title=" ">
<polygon fill="#e0e0e0" stroke="#999999" points="235.5,-19 184.5,-19 184.5,0 235.5,0 235.5,-19"/>
<text text-anchor="middle" x="210" y="-7" font-family="Helvetica,sans-Serif" font-size="10.00">math.h</text>
</a>
</g>
</g>
<!-- Node4&#45;&gt;Node6 -->
<g id="edge5_Node000004_Node000006" class="edge">
<title>Node4&#45;&gt;Node6</title>
<g id="a_edge5_Node000004_Node000006"><a xlink:title=" ">
<path fill="none" stroke="#63b8ff" d="M210,-54.75C210,-47.8 210,-37.85 210,-29.13"/>
<polygon fill="#63b8ff" stroke="#63b8ff" points="213.5,-29.09 210,-19.09 206.5,-29.09 213.5,-29.09"/>
</a>
</g>
</g>
<!-- Node7&#45;&gt;Node5 -->
<g id="edge8_Node000007_Node000005" class="edge">
<title>Node7&#45;&gt;Node5</title>
<g id="a_edge8_Node000007_Node000005"><a xlink:title=" ">
<path fill="none" stroke="#63b8ff" d="M44.87,-109.66C58.91,-91.61 91.06,-50.28 109.11,-27.08"/>
<polygon fill="#63b8ff" stroke="#63b8ff" points="111.89,-29.2 115.27,-19.16 106.36,-24.9 111.89,-29.2"/>
</a>
</g>
</g>
<!-- Node8&#45;&gt;Node3 -->
<g id="edge10_Node000008_Node000003" class="edge">
<title>Node8&#45;&gt;Node3</title>
<g id="a_edge10_Node000008_Node000003"><a xlink:title=" ">
<path fill="none" stroke="#63b8ff" d="M166.2,-219.91C180.47,-212.64 198.51,-200.71 207,-184 216.4,-165.5 198.25,-147.02 181.44,-134.81"/>
<polygon fill="#63b8ff" stroke="#63b8ff" points="183.17,-131.75 172.93,-129.02 179.23,-137.54 183.17,-131.75"/>
</a>
</g>
</g>
<!-- Node9 -->
<g id="Node000009" class="node">
<title>Node9</title>
<g id="a_Node000009"><a xlink:href="solver__interface_8h.html" target="_top" xlink:title="Interface and wrapper to matrix/factorization (ladel) functions.">
<polygon fill="white" stroke="#666666" points="198,-184 94,-184 94,-165 198,-165 198,-184"/>
<text text-anchor="middle" x="146" y="-172" font-family="Helvetica,sans-Serif" font-size="10.00">solver_interface.h</text>
</a>
</g>
</g>
<!-- Node8&#45;&gt;Node9 -->
<g id="edge11_Node000008_Node000009" class="edge">
<title>Node8&#45;&gt;Node9</title>
<g id="a_edge11_Node000008_Node000009"><a xlink:title=" ">
<path fill="none" stroke="#63b8ff" d="M146,-219.75C146,-212.8 146,-202.85 146,-194.13"/>
<polygon fill="#63b8ff" stroke="#63b8ff" points="149.5,-194.09 146,-184.09 142.5,-194.09 149.5,-194.09"/>
</a>
</g>
</g>
<!-- Node9&#45;&gt;Node3 -->
<g id="edge14_Node000009_Node000003" class="edge">
<title>Node9&#45;&gt;Node3</title>
<g id="a_edge14_Node000009_Node000003"><a xlink:title=" ">
<path fill="none" stroke="#63b8ff" d="M147.98,-164.75C149.57,-157.72 151.86,-147.62 153.85,-138.84"/>
<polygon fill="#63b8ff" stroke="#63b8ff" points="157.26,-139.62 156.06,-129.09 150.43,-138.07 157.26,-139.62"/>
</a>
</g>
</g>
<!-- Node9&#45;&gt;Node4 -->
<g id="edge12_Node000009_Node000004" class="edge">
<title>Node9&#45;&gt;Node4</title>
<g id="a_edge12_Node000009_Node000004"><a xlink:title=" ">
<path fill="none" stroke="#63b8ff" d="M158.97,-164.79C169.92,-156.76 185.19,-143.86 194,-129 202.07,-115.38 206.09,-97.8 208.09,-84.59"/>
<polygon fill="#63b8ff" stroke="#63b8ff" points="211.6,-84.67 209.37,-74.31 204.66,-83.8 211.6,-84.67"/>
</a>
</g>
</g>
<!-- Node9&#45;&gt;Node5 -->
<g id="edge15_Node000009_Node000005" class="edge">
<title>Node9&#45;&gt;Node5</title>
<g id="a_edge15_Node000009_Node000005"><a xlink:title=" ">
<path fill="none" stroke="#63b8ff" d="M139.92,-164.79C134.29,-156.16 126.3,-142.34 123,-129 114.46,-94.5 116.99,-52.61 119.54,-29.01"/>
<polygon fill="#63b8ff" stroke="#63b8ff" points="123.02,-29.35 120.74,-19 116.07,-28.51 123.02,-29.35"/>
</a>
</g>
</g>
<!-- Node9&#45;&gt;Node7 -->
<g id="edge13_Node000009_Node000007" class="edge">
<title>Node9&#45;&gt;Node7</title>
<g id="a_edge13_Node000009_Node000007"><a xlink:title=" ">
<path fill="none" stroke="#63b8ff" d="M128.65,-164.98C111.43,-156.54 84.8,-143.47 64.85,-133.68"/>
<polygon fill="#63b8ff" stroke="#63b8ff" points="66.19,-130.43 55.67,-129.17 63.1,-136.72 66.19,-130.43"/>
</a>
</g>
</g>
</g>
</svg>
</svg>

<style type='text/css'>
<![CDATA[
[data-mouse-over-selected='false'] { opacity: 0.7; }
[data-mouse-over-selected='true']  { opacity: 1.0; }
]]>
</style>
<script type="application/ecmascript"><![CDATA[
document.addEventListener('DOMContentLoaded', (event) => {
  highlightEdges();
  highlightAdjacentNodes();
});
]]></script>
</svg>
