<?xml version="1.0" encoding="UTF-8" standalone="no"?>
<!DOCTYPE svg PUBLIC "-//W3C//DTD SVG 1.1//EN"
 "http://www.w3.org/Graphics/SVG/1.1/DTD/svg11.dtd">
<!-- Generated by graphviz version 2.43.0 (0)
 -->
<!-- Title: qpalm::eigen_to_ladel_copy Pages: 1 -->
<svg width="307pt" height="64pt"
 viewBox="0.00 0.00 307.00 64.00" xmlns="http://www.w3.org/2000/svg" xmlns:xlink="http://www.w3.org/1999/xlink">
<g id="graph0" class="graph" transform="scale(1 1) rotate(0) translate(4 60)">
<title>qpalm::eigen_to_ladel_copy</title>
<!-- Node1 -->
<g id="Node000001" class="node">
<title>Node1</title>
<g id="a_Node000001"><a xlink:title="Similar to eigen_to_ladel, but creates a copy of all data, in such a way that the returned matrix is ...">
<polygon fill="#999999" stroke="#666666" points="299,-37 146,-37 146,-18 299,-18 299,-37"/>
<text text-anchor="middle" x="222.5" y="-25" font-family="Helvetica,sans-Serif" font-size="10.00">qpalm::eigen_to_ladel_copy</text>
</a>
</g>
</g>
<!-- Node2 -->
<g id="Node000002" class="node">
<title>Node2</title>
<g id="a_Node000002"><a xlink:href="classqpalm_1_1Data.html#a3b9ce1d16d0cabe8fccfdea1809968ba" target="_top" xlink:title="Set the sparse A matrix. Creates a copy.">
<polygon fill="white" stroke="#666666" points="110,-56 0,-56 0,-37 110,-37 110,-56"/>
<text text-anchor="middle" x="55" y="-44" font-family="Helvetica,sans-Serif" font-size="10.00">qpalm::Data::set_A</text>
</a>
</g>
</g>
<!-- Node1&#45;&gt;Node2 -->
<g id="edge1_Node000001_Node000002" class="edge">
<title>Node1&#45;&gt;Node2</title>
<g id="a_edge1_Node000001_Node000002"><a xlink:title=" ">
<path fill="none" stroke="#63b8ff" d="M135.47,-37.38C126.9,-38.36 118.38,-39.34 110.27,-40.27"/>
<polygon fill="#63b8ff" stroke="#63b8ff" points="136,-40.84 145.53,-36.22 135.2,-33.88 136,-40.84"/>
</a>
</g>
</g>
<!-- Node3 -->
<g id="Node000003" class="node">
<title>Node3</title>
<g id="a_Node000003"><a xlink:href="classqpalm_1_1Data.html#adbdbd81f462dfeee7c29a51dfb08e48f" target="_top" xlink:title="Set the sparse Q matrix. Creates a copy.">
<polygon fill="white" stroke="#666666" points="110,-19 0,-19 0,0 110,0 110,-19"/>
<text text-anchor="middle" x="55" y="-7" font-family="Helvetica,sans-Serif" font-size="10.00">qpalm::Data::set_Q</text>
</a>
</g>
</g>
<!-- Node1&#45;&gt;Node3 -->
<g id="edge2_Node000001_Node000003" class="edge">
<title>Node1&#45;&gt;Node3</title>
<g id="a_edge2_Node000001_Node000003"><a xlink:title=" ">
<path fill="none" stroke="#63b8ff" d="M135.47,-18.14C126.9,-17.21 118.38,-16.28 110.27,-15.4"/>
<polygon fill="#63b8ff" stroke="#63b8ff" points="135.21,-21.64 145.53,-19.24 135.97,-14.68 135.21,-21.64"/>
</a>
</g>
</g>
</g>
</svg>
