<?xml version="1.0" encoding="UTF-8" standalone="no"?>
<!DOCTYPE svg PUBLIC "-//W3C//DTD SVG 1.1//EN"
 "http://www.w3.org/Graphics/SVG/1.1/DTD/svg11.dtd">
<!-- Generated by graphviz version 2.43.0 (0)
 -->
<!-- Title: /home/runner/work/QPALM/QPALM/QPALM/src/qpalm.c Pages: 1 -->
<!--zoomable 423 -->

<svg id="main" version="1.1" xmlns="http://www.w3.org/2000/svg" xmlns:xlink="http://www.w3.org/1999/xlink" xml:space="preserve" onload="init(evt)">
<style type="text/css"><![CDATA[
.node, .edge {opacity: 0.7;}
.node.selected, .edge.selected {opacity: 1;}
.edge:hover path { stroke: red; }
.edge:hover polygon { stroke: red; fill: red; }
]]></style>

<defs>
  <circle id="rim" cx="0" cy="0" r="7"/>
  <circle id="rim2" cx="0" cy="0" r="3.5"/>
  <g id="zoomPlus">
    <use xlink:href="#rim" fill="#404040"><set attributeName="fill" to="#808080" begin="zoomplus.mouseover" end="zoomplus.mouseout"/></use>
    <path d="M-4,0h8M0,-4v8" fill="none" stroke="white" stroke-width="1.5" pointer-events="none"/>
  </g>
  <g id="zoomMin">
    <use xlink:href="#rim" fill="#404040"><set attributeName="fill" to="#808080" begin="zoomminus.mouseover" end="zoomminus.mouseout"/></use>
    <path d="M-4,0h8" fill="none" stroke="white" stroke-width="1.5" pointer-events="none"/>
  </g>
  <g id="arrowUp" transform="translate(30 24)">
    <use xlink:href="#rim"/>
    <path pointer-events="none" fill="none" stroke="white" stroke-width="1.5" d="M0,-3.0v7 M-2.5,-0.5L0,-3.0L2.5,-0.5"/>
  </g>
  <g id="arrowRight" transform="rotate(90) translate(36 -43)">
    <use xlink:href="#rim"/>
    <path pointer-events="none" fill="none" stroke="white" stroke-width="1.5" d="M0,-3.0v7 M-2.5,-0.5L0,-3.0L2.5,-0.5"/>
  </g>
  <g id="arrowDown" transform="rotate(180) translate(-30 -48)">
    <use xlink:href="#rim"/>
    <path pointer-events="none" fill="none" stroke="white" stroke-width="1.5" d="M0,-3.0v7 M-2.5,-0.5L0,-3.0L2.5,-0.5"/>
  </g>
  <g id="arrowLeft" transform="rotate(270) translate(-36 17)">
    <use xlink:href="#rim"/>
    <path pointer-events="none" fill="none" stroke="white" stroke-width="1.5" d="M0,-3.0v7 M-2.5,-0.5L0,-3.0L2.5,-0.5"/>
  </g>
  <g id="resetDef">
    <use xlink:href="#rim2" fill="#404040"><set attributeName="fill" to="#808080" begin="reset.mouseover" end="reset.mouseout"/></use>
  </g>
</defs>
<script type="application/ecmascript">
var viewWidth = 1020;
var viewHeight = 423;
var sectionId = 'dynsection-0';
</script>
<script type="application/ecmascript" xlink:href="svg.min.js"/>
<svg id="graph" class="graph">
<g id="viewport">
<title>/home/runner/work/QPALM/QPALM/QPALM/src/qpalm.c</title>
<!-- Node1 -->
<g id="Node000001" class="node">
<title>Node1</title>
<g id="a_Node000001"><a xlink:title="QPALM main solver API.">
<polygon fill="#999999" stroke="#666666" points="566.5,-415 417.5,-415 417.5,-385 566.5,-385 566.5,-415"/>
<text text-anchor="start" x="425.5" y="-403" font-family="Helvetica,sans-Serif" font-size="10.00">/home/runner/work/QPALM</text>
<text text-anchor="middle" x="492" y="-392" font-family="Helvetica,sans-Serif" font-size="10.00">/QPALM/QPALM/src/qpalm.c</text>
</a>
</g>
</g>
<!-- Node2 -->
<g id="Node000002" class="node">
<title>Node2</title>
<g id="a_Node000002"><a xlink:href="qpalm_8h.html" target="_top" xlink:title="QPALM main solver API.">
<polygon fill="white" stroke="#666666" points="549,-349 493,-349 493,-330 549,-330 549,-349"/>
<text text-anchor="middle" x="521" y="-337" font-family="Helvetica,sans-Serif" font-size="10.00">qpalm.h</text>
</a>
</g>
</g>
<!-- Node1&#45;&gt;Node2 -->
<g id="edge1_Node000001_Node000002" class="edge">
<title>Node1&#45;&gt;Node2</title>
<g id="a_edge1_Node000001_Node000002"><a xlink:title=" ">
<path fill="none" stroke="#63b8ff" d="M499.02,-384.84C502.97,-376.87 507.94,-366.84 512.16,-358.33"/>
<polygon fill="#63b8ff" stroke="#63b8ff" points="515.35,-359.78 516.65,-349.27 509.08,-356.67 515.35,-359.78"/>
</a>
</g>
</g>
<!-- Node3 -->
<g id="Node000003" class="node">
<title>Node3</title>
<g id="a_Node000003"><a xlink:href="constants_8h.html" target="_top" xlink:title="Constants used in QPALM.">
<polygon fill="white" stroke="#666666" points="218.5,-129 145.5,-129 145.5,-110 218.5,-110 218.5,-129"/>
<text text-anchor="middle" x="182" y="-117" font-family="Helvetica,sans-Serif" font-size="10.00">constants.h</text>
</a>
</g>
</g>
<!-- Node1&#45;&gt;Node3 -->
<g id="edge40_Node000001_Node000003" class="edge">
<title>Node1&#45;&gt;Node3</title>
<g id="a_edge40_Node000001_Node000003"><a xlink:title=" ">
<path fill="none" stroke="#63b8ff" d="M417.29,-395.66C288.41,-387.85 38,-362.73 38,-285.5 38,-285.5 38,-285.5 38,-228.5 38,-177.04 97.58,-147.1 140.1,-132.28"/>
<polygon fill="#63b8ff" stroke="#63b8ff" points="141.3,-135.57 149.68,-129.09 139.09,-128.93 141.3,-135.57"/>
</a>
</g>
</g>
<!-- Node4 -->
<g id="Node000004" class="node">
<title>Node4</title>
<g id="a_Node000004"><a xlink:title=" ">
<polygon fill="#e0e0e0" stroke="#999999" points="391,-19 341,-19 341,0 391,0 391,-19"/>
<text text-anchor="middle" x="366" y="-7" font-family="Helvetica,sans-Serif" font-size="10.00">ladel.h</text>
</a>
</g>
</g>
<!-- Node1&#45;&gt;Node4 -->
<g id="edge51_Node000001_Node000004" class="edge">
<title>Node1&#45;&gt;Node4</title>
<g id="a_edge51_Node000001_Node000004"><a xlink:title=" ">
<path fill="none" stroke="#63b8ff" d="M417.15,-395.43C313.43,-389.59 131.99,-375.84 72,-349 33.05,-331.58 0,-328.17 0,-285.5 0,-285.5 0,-285.5 0,-118.5 0,-49.99 238.86,-21.69 330.66,-13.34"/>
<polygon fill="#63b8ff" stroke="#63b8ff" points="331.19,-16.81 340.84,-12.44 330.57,-9.84 331.19,-16.81"/>
</a>
</g>
</g>
<!-- Node5 -->
<g id="Node000005" class="node">
<title>Node5</title>
<g id="a_Node000005"><a xlink:href="global__opts_8h.html" target="_top" xlink:title="Custom memory allocation, print and utility functions, and data types for floats and ints.">
<polygon fill="white" stroke="#666666" points="609,-74 527,-74 527,-55 609,-55 609,-74"/>
<text text-anchor="middle" x="568" y="-62" font-family="Helvetica,sans-Serif" font-size="10.00">global_opts.h</text>
</a>
</g>
</g>
<!-- Node1&#45;&gt;Node5 -->
<g id="edge39_Node000001_Node000005" class="edge">
<title>Node1&#45;&gt;Node5</title>
<g id="a_edge39_Node000001_Node000005"><a xlink:title=" ">
<path fill="none" stroke="#63b8ff" d="M566.5,-398.08C710.29,-394.29 1012,-375.59 1012,-285.5 1012,-285.5 1012,-285.5 1012,-173.5 1012,-93.51 736.48,-72.52 619.52,-67.22"/>
<polygon fill="#63b8ff" stroke="#63b8ff" points="619.51,-63.72 609.37,-66.78 619.21,-70.71 619.51,-63.72"/>
</a>
</g>
</g>
<!-- Node7 -->
<g id="Node000007" class="node">
<title>Node7</title>
<g id="a_Node000007"><a xlink:href="iteration_8h.html" target="_top" xlink:title="QPALM main solver routines.">
<polygon fill="white" stroke="#666666" points="914.5,-239 847.5,-239 847.5,-220 914.5,-220 914.5,-239"/>
<text text-anchor="middle" x="881" y="-227" font-family="Helvetica,sans-Serif" font-size="10.00">iteration.h</text>
</a>
</g>
</g>
<!-- Node1&#45;&gt;Node7 -->
<g id="edge50_Node000001_Node000007" class="edge">
<title>Node1&#45;&gt;Node7</title>
<g id="a_edge50_Node000001_Node000007"><a xlink:title=" ">
<path fill="none" stroke="#63b8ff" d="M566.74,-392.51C680.78,-380.85 889.62,-351.97 933,-294 946.1,-276.49 924.8,-257.15 905.64,-244.47"/>
<polygon fill="#63b8ff" stroke="#63b8ff" points="907.45,-241.47 897.12,-239.14 903.74,-247.41 907.45,-241.47"/>
</a>
</g>
</g>
<!-- Node9 -->
<g id="Node000009" class="node">
<title>Node9</title>
<g id="a_Node000009"><a xlink:href="lin__alg_8h.html" target="_top" xlink:title="Linear algebra with vectors.">
<polygon fill="white" stroke="#666666" points="532,-239 474,-239 474,-220 532,-220 532,-239"/>
<text text-anchor="middle" x="503" y="-227" font-family="Helvetica,sans-Serif" font-size="10.00">lin_alg.h</text>
</a>
</g>
</g>
<!-- Node1&#45;&gt;Node9 -->
<g id="edge42_Node000001_Node000009" class="edge">
<title>Node1&#45;&gt;Node9</title>
<g id="a_edge42_Node000001_Node000009"><a xlink:title=" ">
<path fill="none" stroke="#63b8ff" d="M521.25,-384.95C535.09,-376.6 550.26,-364.58 558,-349 576.06,-312.66 542.02,-269.24 519.87,-246.38"/>
<polygon fill="#63b8ff" stroke="#63b8ff" points="522.2,-243.76 512.64,-239.2 517.27,-248.73 522.2,-243.76"/>
</a>
</g>
</g>
<!-- Node10 -->
<g id="Node000010" class="node">
<title>Node10</title>
<g id="a_Node000010"><a xlink:href="solver__interface_8h.html" target="_top" xlink:title="Interface and wrapper to matrix/factorization (ladel) functions.">
<polygon fill="white" stroke="#666666" points="418,-184 314,-184 314,-165 418,-165 418,-184"/>
<text text-anchor="middle" x="366" y="-172" font-family="Helvetica,sans-Serif" font-size="10.00">solver_interface.h</text>
</a>
</g>
</g>
<!-- Node1&#45;&gt;Node10 -->
<g id="edge47_Node000001_Node000010" class="edge">
<title>Node1&#45;&gt;Node10</title>
<g id="a_edge47_Node000001_Node000010"><a xlink:title=" ">
<path fill="none" stroke="#63b8ff" d="M426.55,-384.89C378.46,-370.72 316.41,-343.63 286,-294 262.51,-255.66 312.3,-212.26 343.44,-190.14"/>
<polygon fill="#63b8ff" stroke="#63b8ff" points="345.77,-192.79 352.03,-184.24 341.81,-187.02 345.77,-192.79"/>
</a>
</g>
</g>
<!-- Node11 -->
<g id="Node000011" class="node">
<title>Node11</title>
<g id="a_Node000011"><a xlink:href="linesearch_8h.html" target="_top" xlink:title="Routines to perform exact linesearch.">
<polygon fill="white" stroke="#666666" points="220,-184 144,-184 144,-165 220,-165 220,-184"/>
<text text-anchor="middle" x="182" y="-172" font-family="Helvetica,sans-Serif" font-size="10.00">linesearch.h</text>
</a>
</g>
</g>
<!-- Node1&#45;&gt;Node11 -->
<g id="edge45_Node000001_Node000011" class="edge">
<title>Node1&#45;&gt;Node11</title>
<g id="a_edge45_Node000001_Node000011"><a xlink:title=" ">
<path fill="none" stroke="#63b8ff" d="M417.44,-391.67C347.29,-383.69 248.2,-369.29 215,-349 163.2,-317.34 152.43,-296.85 134,-239 131.44,-230.95 130.62,-227.74 134,-220 139.27,-207.92 149.63,-197.65 159.37,-190.03"/>
<polygon fill="#63b8ff" stroke="#63b8ff" points="161.59,-192.74 167.63,-184.04 157.48,-187.07 161.59,-192.74"/>
</a>
</g>
</g>
<!-- Node12 -->
<g id="Node000012" class="node">
<title>Node12</title>
<g id="a_Node000012"><a xlink:href="newton_8h.html" target="_top" xlink:title="Functions to calculate the semismooth Newton direction.">
<polygon fill="white" stroke="#666666" points="810,-294 748,-294 748,-275 810,-275 810,-294"/>
<text text-anchor="middle" x="779" y="-282" font-family="Helvetica,sans-Serif" font-size="10.00">newton.h</text>
</a>
</g>
</g>
<!-- Node1&#45;&gt;Node12 -->
<g id="edge48_Node000001_Node000012" class="edge">
<title>Node1&#45;&gt;Node12</title>
<g id="a_edge48_Node000001_Node000012"><a xlink:title=" ">
<path fill="none" stroke="#63b8ff" d="M559.66,-384.91C594.32,-376.55 636.74,-364.53 673,-349 704.61,-335.46 738.19,-313.99 758.88,-299.82"/>
<polygon fill="#63b8ff" stroke="#63b8ff" points="760.96,-302.64 767.17,-294.06 756.96,-296.89 760.96,-302.64"/>
</a>
</g>
</g>
<!-- Node13 -->
<g id="Node000013" class="node">
<title>Node13</title>
<g id="a_Node000013"><a xlink:href="nonconvex_8h.html" target="_top" xlink:title="Routines to deal with nonconvex QPs.">
<polygon fill="white" stroke="#666666" points="907.5,-294 828.5,-294 828.5,-275 907.5,-275 907.5,-294"/>
<text text-anchor="middle" x="868" y="-282" font-family="Helvetica,sans-Serif" font-size="10.00">nonconvex.h</text>
</a>
</g>
</g>
<!-- Node1&#45;&gt;Node13 -->
<g id="edge49_Node000001_Node000013" class="edge">
<title>Node1&#45;&gt;Node13</title>
<g id="a_edge49_Node000001_Node000013"><a xlink:title=" ">
<path fill="none" stroke="#63b8ff" d="M563.19,-384.92C604.9,-376.01 658.38,-363.47 705,-349 753.1,-334.07 807.29,-311.83 839.49,-298.02"/>
<polygon fill="#63b8ff" stroke="#63b8ff" points="840.95,-301.2 848.74,-294.03 838.18,-294.78 840.95,-301.2"/>
</a>
</g>
</g>
<!-- Node14 -->
<g id="Node000014" class="node">
<title>Node14</title>
<g id="a_Node000014"><a xlink:href="scaling_8h.html" target="_top" xlink:title="Problem data scaling during setup.">
<polygon fill="white" stroke="#666666" points="494,-294 434,-294 434,-275 494,-275 494,-294"/>
<text text-anchor="middle" x="464" y="-282" font-family="Helvetica,sans-Serif" font-size="10.00">scaling.h</text>
</a>
</g>
</g>
<!-- Node1&#45;&gt;Node14 -->
<g id="edge44_Node000001_Node000014" class="edge">
<title>Node1&#45;&gt;Node14</title>
<g id="a_edge44_Node000001_Node000014"><a xlink:title=" ">
<path fill="none" stroke="#63b8ff" d="M488.45,-384.63C483.42,-364.21 474.19,-326.81 468.62,-304.24"/>
<polygon fill="#63b8ff" stroke="#63b8ff" points="471.95,-303.1 466.15,-294.23 465.15,-304.78 471.95,-303.1"/>
</a>
</g>
</g>
<!-- Node15 -->
<g id="Node000015" class="node">
<title>Node15</title>
<g id="a_Node000015"><a xlink:href="termination_8h.html" target="_top" xlink:title="Routines to check the termination and infeasibility criteria.">
<polygon fill="white" stroke="#666666" points="377.5,-294 294.5,-294 294.5,-275 377.5,-275 377.5,-294"/>
<text text-anchor="middle" x="336" y="-282" font-family="Helvetica,sans-Serif" font-size="10.00">termination.h</text>
</a>
</g>
</g>
<!-- Node1&#45;&gt;Node15 -->
<g id="edge46_Node000001_Node000015" class="edge">
<title>Node1&#45;&gt;Node15</title>
<g id="a_edge46_Node000001_Node000015"><a xlink:title=" ">
<path fill="none" stroke="#63b8ff" d="M472.56,-384.85C442.82,-363.22 386.33,-322.12 356.17,-300.17"/>
<polygon fill="#63b8ff" stroke="#63b8ff" points="358.2,-297.32 348.05,-294.27 354.08,-302.98 358.2,-297.32"/>
</a>
</g>
</g>
<!-- Node16 -->
<g id="Node000016" class="node">
<title>Node16</title>
<g id="a_Node000016"><a xlink:href="util_8h.html" target="_top" xlink:title="Utility functions.">
<polygon fill="white" stroke="#666666" points="183.5,-239 142.5,-239 142.5,-220 183.5,-220 183.5,-239"/>
<text text-anchor="middle" x="163" y="-227" font-family="Helvetica,sans-Serif" font-size="10.00">util.h</text>
</a>
</g>
</g>
<!-- Node1&#45;&gt;Node16 -->
<g id="edge43_Node000001_Node000016" class="edge">
<title>Node1&#45;&gt;Node16</title>
<g id="a_edge43_Node000001_Node000016"><a xlink:title=" ">
<path fill="none" stroke="#63b8ff" d="M417.46,-393.2C368.42,-387.09 303.93,-374.58 252,-349 218.35,-332.43 209.73,-324.57 188,-294 178.35,-280.42 171.76,-262.6 167.77,-249.29"/>
<polygon fill="#63b8ff" stroke="#63b8ff" points="171.07,-248.08 165.03,-239.37 164.32,-249.94 171.07,-248.08"/>
</a>
</g>
</g>
<!-- Node17 -->
<g id="Node000017" class="node">
<title>Node17</title>
<g id="a_Node000017"><a xlink:href="validate_8h.html" target="_top" xlink:title="Validation of the user provided settings and data.">
<polygon fill="white" stroke="#666666" points="729.5,-294 664.5,-294 664.5,-275 729.5,-275 729.5,-294"/>
<text text-anchor="middle" x="697" y="-282" font-family="Helvetica,sans-Serif" font-size="10.00">validate.h</text>
</a>
</g>
</g>
<!-- Node1&#45;&gt;Node17 -->
<g id="edge41_Node000001_Node000017" class="edge">
<title>Node1&#45;&gt;Node17</title>
<g id="a_edge41_Node000001_Node000017"><a xlink:title=" ">
<path fill="none" stroke="#63b8ff" d="M566.8,-385.55C594.71,-378.01 625.53,-366.47 650,-349 666.69,-337.09 679.91,-317.43 688.03,-303.14"/>
<polygon fill="#63b8ff" stroke="#63b8ff" points="691.15,-304.73 692.81,-294.26 684.99,-301.41 691.15,-304.73"/>
</a>
</g>
</g>
<!-- Node2&#45;&gt;Node3 -->
<g id="edge2_Node000002_Node000003" class="edge">
<title>Node2&#45;&gt;Node3</title>
<g id="a_edge2_Node000002_Node000003"><a xlink:title=" ">
<path fill="none" stroke="#63b8ff" d="M492.98,-337.09C422.84,-333.19 241.47,-320.74 188,-294 131.45,-265.72 101.02,-222.19 128,-165 134.01,-152.26 145.66,-141.92 156.61,-134.44"/>
<polygon fill="#63b8ff" stroke="#63b8ff" points="158.54,-137.36 165.11,-129.05 154.79,-131.44 158.54,-137.36"/>
</a>
</g>
</g>
<!-- Node2&#45;&gt;Node5 -->
<g id="edge4_Node000002_Node000005" class="edge">
<title>Node2&#45;&gt;Node5</title>
<g id="a_edge4_Node000002_Node000005"><a xlink:title=" ">
<path fill="none" stroke="#63b8ff" d="M527.46,-329.8C533.52,-321.17 542.33,-307.34 547,-294 572.99,-219.74 571.38,-124.06 569.28,-84.21"/>
<polygon fill="#63b8ff" stroke="#63b8ff" points="572.77,-83.88 568.67,-74.11 565.78,-84.3 572.77,-83.88"/>
</a>
</g>
</g>
<!-- Node2&#45;&gt;Node7 -->
<g id="edge7_Node000002_Node000007" class="edge">
<title>Node2&#45;&gt;Node7</title>
<g id="a_edge7_Node000002_Node000007"><a xlink:title=" ">
<path fill="none" stroke="#63b8ff" d="M549.29,-337.46C635.82,-333.97 892.51,-321.4 917,-294 929.97,-279.49 914.43,-259.54 899.91,-245.9"/>
<polygon fill="#63b8ff" stroke="#63b8ff" points="901.95,-243.03 892.14,-239.04 897.32,-248.28 901.95,-243.03"/>
</a>
</g>
</g>
<!-- Node8 -->
<g id="Node000008" class="node">
<title>Node8</title>
<g id="a_Node000008"><a xlink:href="types_8h.html" target="_top" xlink:title="Internal data structures used in QPALM.">
<polygon fill="white" stroke="#666666" points="548.5,-129 495.5,-129 495.5,-110 548.5,-110 548.5,-129"/>
<text text-anchor="middle" x="522" y="-117" font-family="Helvetica,sans-Serif" font-size="10.00">types.h</text>
</a>
</g>
</g>
<!-- Node2&#45;&gt;Node8 -->
<g id="edge33_Node000002_Node000008" class="edge">
<title>Node2&#45;&gt;Node8</title>
<g id="a_edge33_Node000002_Node000008"><a xlink:title=" ">
<path fill="none" stroke="#63b8ff" d="M523.36,-329.8C527.87,-312.62 537.62,-273.01 541,-239 544.55,-203.36 534.77,-162.16 527.96,-138.93"/>
<polygon fill="#63b8ff" stroke="#63b8ff" points="531.21,-137.61 524.92,-129.08 524.52,-139.66 531.21,-137.61"/>
</a>
</g>
</g>
<!-- Node2&#45;&gt;Node9 -->
<g id="edge12_Node000002_Node000009" class="edge">
<title>Node2&#45;&gt;Node9</title>
<g id="a_edge12_Node000002_Node000009"><a xlink:title=" ">
<path fill="none" stroke="#63b8ff" d="M519.53,-329.66C516.61,-312.17 510.05,-272.8 506.13,-249.27"/>
<polygon fill="#63b8ff" stroke="#63b8ff" points="509.54,-248.45 504.44,-239.16 502.63,-249.6 509.54,-248.45"/>
</a>
</g>
</g>
<!-- Node2&#45;&gt;Node10 -->
<g id="edge30_Node000002_Node000010" class="edge">
<title>Node2&#45;&gt;Node10</title>
<g id="a_edge30_Node000002_Node000010"><a xlink:title=" ">
<path fill="none" stroke="#63b8ff" d="M492.84,-330.99C471.97,-324.22 443.96,-312.44 425,-294 395.72,-265.53 378.66,-219.48 370.96,-193.98"/>
<polygon fill="#63b8ff" stroke="#63b8ff" points="374.26,-192.79 368.15,-184.14 367.53,-194.71 374.26,-192.79"/>
</a>
</g>
</g>
<!-- Node2&#45;&gt;Node11 -->
<g id="edge19_Node000002_Node000011" class="edge">
<title>Node2&#45;&gt;Node11</title>
<g id="a_edge19_Node000002_Node000011"><a xlink:title=" ">
<path fill="none" stroke="#63b8ff" d="M492.94,-338.93C446.73,-338.43 353.07,-332.3 286,-294 242.58,-269.21 208.17,-219.46 192.02,-193"/>
<polygon fill="#63b8ff" stroke="#63b8ff" points="194.86,-190.91 186.75,-184.1 188.84,-194.48 194.86,-190.91"/>
</a>
</g>
</g>
<!-- Node2&#45;&gt;Node12 -->
<g id="edge22_Node000002_Node000012" class="edge">
<title>Node2&#45;&gt;Node12</title>
<g id="a_edge22_Node000002_Node000012"><a xlink:title=" ">
<path fill="none" stroke="#63b8ff" d="M549.23,-332.81C589.02,-324.78 664.12,-309.56 738.05,-294.19"/>
<polygon fill="#63b8ff" stroke="#63b8ff" points="738.92,-297.58 748,-292.11 737.49,-290.73 738.92,-297.58"/>
</a>
</g>
</g>
<!-- Node2&#45;&gt;Node13 -->
<g id="edge24_Node000002_Node000013" class="edge">
<title>Node2&#45;&gt;Node13</title>
<g id="a_edge24_Node000002_Node000013"><a xlink:title=" ">
<path fill="none" stroke="#63b8ff" d="M549.39,-334.49C600.76,-327.18 712.81,-311.01 818.25,-294.09"/>
<polygon fill="#63b8ff" stroke="#63b8ff" points="819.12,-297.49 828.43,-292.45 818,-290.58 819.12,-297.49"/>
</a>
</g>
</g>
<!-- Node2&#45;&gt;Node14 -->
<g id="edge26_Node000002_Node000014" class="edge">
<title>Node2&#45;&gt;Node14</title>
<g id="a_edge26_Node000002_Node000014"><a xlink:title=" ">
<path fill="none" stroke="#63b8ff" d="M511.84,-329.98C503.5,-322.23 490.97,-310.58 480.82,-301.14"/>
<polygon fill="#63b8ff" stroke="#63b8ff" points="483.03,-298.42 473.32,-294.17 478.26,-303.54 483.03,-298.42"/>
</a>
</g>
</g>
<!-- Node2&#45;&gt;Node15 -->
<g id="edge31_Node000002_Node000015" class="edge">
<title>Node2&#45;&gt;Node15</title>
<g id="a_edge31_Node000002_Node000015"><a xlink:title=" ">
<path fill="none" stroke="#63b8ff" d="M492.9,-330.45C461.71,-321.52 411.14,-307.03 375.86,-296.92"/>
<polygon fill="#63b8ff" stroke="#63b8ff" points="376.48,-293.46 365.9,-294.07 374.55,-300.18 376.48,-293.46"/>
</a>
</g>
</g>
<!-- Node2&#45;&gt;Node16 -->
<g id="edge34_Node000002_Node000016" class="edge">
<title>Node2&#45;&gt;Node16</title>
<g id="a_edge34_Node000002_Node000016"><a xlink:title=" ">
<path fill="none" stroke="#63b8ff" d="M492.58,-337.03C425.88,-333.15 261.35,-321.05 214,-294 195.27,-283.3 180.75,-262.8 172.07,-247.98"/>
<polygon fill="#63b8ff" stroke="#63b8ff" points="175.13,-246.28 167.23,-239.22 169.01,-249.67 175.13,-246.28"/>
</a>
</g>
</g>
<!-- Node2&#45;&gt;Node17 -->
<g id="edge37_Node000002_Node000017" class="edge">
<title>Node2&#45;&gt;Node17</title>
<g id="a_edge37_Node000002_Node000017"><a xlink:title=" ">
<path fill="none" stroke="#63b8ff" d="M549.28,-329.98C578.95,-321.05 625.79,-306.94 658.75,-297.02"/>
<polygon fill="#63b8ff" stroke="#63b8ff" points="659.93,-300.32 668.5,-294.08 657.92,-293.61 659.93,-300.32"/>
</a>
</g>
</g>
<!-- Node3&#45;&gt;Node4 -->
<g id="edge3_Node000003_Node000004" class="edge">
<title>Node3&#45;&gt;Node4</title>
<g id="a_edge3_Node000003_Node000004"><a xlink:title=" ">
<path fill="none" stroke="#63b8ff" d="M196.75,-109.84C228.59,-91.16 303.99,-46.9 342.49,-24.3"/>
<polygon fill="#63b8ff" stroke="#63b8ff" points="344.59,-27.13 351.44,-19.05 341.04,-21.09 344.59,-27.13"/>
</a>
</g>
</g>
<!-- Node5&#45;&gt;Node4 -->
<g id="edge5_Node000005_Node000004" class="edge">
<title>Node5&#45;&gt;Node4</title>
<g id="a_edge5_Node000005_Node000004"><a xlink:title=" ">
<path fill="none" stroke="#63b8ff" d="M535.55,-54.98C498.74,-45.33 438.96,-29.64 401.1,-19.71"/>
<polygon fill="#63b8ff" stroke="#63b8ff" points="401.6,-16.22 391.04,-17.07 399.82,-22.99 401.6,-16.22"/>
</a>
</g>
</g>
<!-- Node6 -->
<g id="Node000006" class="node">
<title>Node6</title>
<g id="a_Node000006"><a xlink:title=" ">
<polygon fill="#e0e0e0" stroke="#999999" points="593.5,-19 542.5,-19 542.5,0 593.5,0 593.5,-19"/>
<text text-anchor="middle" x="568" y="-7" font-family="Helvetica,sans-Serif" font-size="10.00">math.h</text>
</a>
</g>
</g>
<!-- Node5&#45;&gt;Node6 -->
<g id="edge6_Node000005_Node000006" class="edge">
<title>Node5&#45;&gt;Node6</title>
<g id="a_edge6_Node000005_Node000006"><a xlink:title=" ">
<path fill="none" stroke="#63b8ff" d="M568,-54.75C568,-47.8 568,-37.85 568,-29.13"/>
<polygon fill="#63b8ff" stroke="#63b8ff" points="571.5,-29.09 568,-19.09 564.5,-29.09 571.5,-29.09"/>
</a>
</g>
</g>
<!-- Node7&#45;&gt;Node5 -->
<g id="edge11_Node000007_Node000005" class="edge">
<title>Node7&#45;&gt;Node5</title>
<g id="a_edge11_Node000007_Node000005"><a xlink:title=" ">
<path fill="none" stroke="#63b8ff" d="M875.09,-219.69C859.66,-197.46 815.8,-138.8 764,-110 718.88,-84.91 660.44,-73.96 619.15,-69.18"/>
<polygon fill="#63b8ff" stroke="#63b8ff" points="619.36,-65.68 609.04,-68.09 618.61,-72.64 619.36,-65.68"/>
</a>
</g>
</g>
<!-- Node7&#45;&gt;Node8 -->
<g id="edge8_Node000007_Node000008" class="edge">
<title>Node7&#45;&gt;Node8</title>
<g id="a_edge8_Node000007_Node000008"><a xlink:title=" ">
<path fill="none" stroke="#63b8ff" d="M862.77,-219.81C834.18,-206.47 776.81,-180.82 726,-165 668.57,-147.12 599.88,-133.72 558.66,-126.51"/>
<polygon fill="#63b8ff" stroke="#63b8ff" points="559.24,-123.06 548.79,-124.81 558.05,-129.96 559.24,-123.06"/>
</a>
</g>
</g>
<!-- Node8&#45;&gt;Node4 -->
<g id="edge10_Node000008_Node000004" class="edge">
<title>Node8&#45;&gt;Node4</title>
<g id="a_edge10_Node000008_Node000004"><a xlink:title=" ">
<path fill="none" stroke="#63b8ff" d="M509.5,-109.84C482.8,-91.36 419.96,-47.86 387.01,-25.05"/>
<polygon fill="#63b8ff" stroke="#63b8ff" points="388.78,-22.01 378.56,-19.2 384.79,-27.77 388.78,-22.01"/>
</a>
</g>
</g>
<!-- Node8&#45;&gt;Node5 -->
<g id="edge9_Node000008_Node000005" class="edge">
<title>Node8&#45;&gt;Node5</title>
<g id="a_edge9_Node000008_Node000005"><a xlink:title=" ">
<path fill="none" stroke="#63b8ff" d="M529.6,-109.75C536.16,-102.18 545.82,-91.05 553.81,-81.84"/>
<polygon fill="#63b8ff" stroke="#63b8ff" points="556.63,-83.94 560.55,-74.09 551.35,-79.35 556.63,-83.94"/>
</a>
</g>
</g>
<!-- Node9&#45;&gt;Node8 -->
<g id="edge13_Node000009_Node000008" class="edge">
<title>Node9&#45;&gt;Node8</title>
<g id="a_edge13_Node000009_Node000008"><a xlink:title=" ">
<path fill="none" stroke="#63b8ff" d="M504.55,-219.66C507.63,-202.17 514.56,-162.8 518.7,-139.27"/>
<polygon fill="#63b8ff" stroke="#63b8ff" points="522.19,-139.61 520.48,-129.16 515.3,-138.4 522.19,-139.61"/>
</a>
</g>
</g>
<!-- Node9&#45;&gt;Node10 -->
<g id="edge14_Node000009_Node000010" class="edge">
<title>Node9&#45;&gt;Node10</title>
<g id="a_edge14_Node000009_Node000010"><a xlink:title=" ">
<path fill="none" stroke="#63b8ff" d="M480.99,-219.98C458.55,-211.3 423.52,-197.75 398.01,-187.88"/>
<polygon fill="#63b8ff" stroke="#63b8ff" points="399,-184.51 388.41,-184.17 396.48,-191.04 399,-184.51"/>
</a>
</g>
</g>
<!-- Node10&#45;&gt;Node3 -->
<g id="edge16_Node000010_Node000003" class="edge">
<title>Node10&#45;&gt;Node3</title>
<g id="a_edge16_Node000010_Node000003"><a xlink:title=" ">
<path fill="none" stroke="#63b8ff" d="M336.44,-164.98C305.28,-156.01 256.03,-141.82 221.54,-131.89"/>
<polygon fill="#63b8ff" stroke="#63b8ff" points="222.37,-128.49 211.79,-129.08 220.43,-135.21 222.37,-128.49"/>
</a>
</g>
</g>
<!-- Node10&#45;&gt;Node4 -->
<g id="edge18_Node000010_Node000004" class="edge">
<title>Node10&#45;&gt;Node4</title>
<g id="a_edge18_Node000010_Node000004"><a xlink:title=" ">
<path fill="none" stroke="#63b8ff" d="M366,-164.74C366,-139.31 366,-65.08 366,-29.69"/>
<polygon fill="#63b8ff" stroke="#63b8ff" points="369.5,-29.31 366,-19.31 362.5,-29.31 369.5,-29.31"/>
</a>
</g>
</g>
<!-- Node10&#45;&gt;Node5 -->
<g id="edge15_Node000010_Node000005" class="edge">
<title>Node10&#45;&gt;Node5</title>
<g id="a_edge15_Node000010_Node000005"><a xlink:title=" ">
<path fill="none" stroke="#63b8ff" d="M382.19,-164.84C417.37,-146.04 500.98,-101.33 543,-78.87"/>
<polygon fill="#63b8ff" stroke="#63b8ff" points="544.85,-81.85 552.01,-74.05 541.55,-75.68 544.85,-81.85"/>
</a>
</g>
</g>
<!-- Node10&#45;&gt;Node8 -->
<g id="edge17_Node000010_Node000008" class="edge">
<title>Node10&#45;&gt;Node8</title>
<g id="a_edge17_Node000010_Node000008"><a xlink:title=" ">
<path fill="none" stroke="#63b8ff" d="M391.06,-164.98C417.03,-156.16 457.81,-142.31 486.96,-132.41"/>
<polygon fill="#63b8ff" stroke="#63b8ff" points="488.4,-135.61 496.74,-129.08 486.15,-128.99 488.4,-135.61"/>
</a>
</g>
</g>
<!-- Node11&#45;&gt;Node3 -->
<g id="edge21_Node000011_Node000003" class="edge">
<title>Node11&#45;&gt;Node3</title>
<g id="a_edge21_Node000011_Node000003"><a xlink:title=" ">
<path fill="none" stroke="#63b8ff" d="M182,-164.75C182,-157.8 182,-147.85 182,-139.13"/>
<polygon fill="#63b8ff" stroke="#63b8ff" points="185.5,-139.09 182,-129.09 178.5,-139.09 185.5,-139.09"/>
</a>
</g>
</g>
<!-- Node11&#45;&gt;Node8 -->
<g id="edge20_Node000011_Node000008" class="edge">
<title>Node11&#45;&gt;Node8</title>
<g id="a_edge20_Node000011_Node000008"><a xlink:title=" ">
<path fill="none" stroke="#63b8ff" d="M220.01,-167.57C285.84,-157.31 420.21,-136.37 485.19,-126.24"/>
<polygon fill="#63b8ff" stroke="#63b8ff" points="486.03,-129.65 495.37,-124.65 484.95,-122.73 486.03,-129.65"/>
</a>
</g>
</g>
<!-- Node12&#45;&gt;Node8 -->
<g id="edge23_Node000012_Node000008" class="edge">
<title>Node12&#45;&gt;Node8</title>
<g id="a_edge23_Node000012_Node000008"><a xlink:title=" ">
<path fill="none" stroke="#63b8ff" d="M761.88,-274.92C745.22,-266.38 719.38,-252.62 698,-239 651.07,-209.1 643.43,-195.68 597,-165 580.52,-154.11 561.37,-142.77 546.54,-134.26"/>
<polygon fill="#63b8ff" stroke="#63b8ff" points="547.91,-131.01 537.49,-129.11 544.45,-137.1 547.91,-131.01"/>
</a>
</g>
</g>
<!-- Node13&#45;&gt;Node8 -->
<g id="edge25_Node000013_Node000008" class="edge">
<title>Node13&#45;&gt;Node8</title>
<g id="a_edge25_Node000013_Node000008"><a xlink:title=" ">
<path fill="none" stroke="#63b8ff" d="M850.96,-274.93C811.36,-255.07 709.97,-204.61 624,-165 599.87,-153.88 572.24,-141.87 551.82,-133.13"/>
<polygon fill="#63b8ff" stroke="#63b8ff" points="553,-129.83 542.43,-129.12 550.25,-136.27 553,-129.83"/>
</a>
</g>
</g>
<!-- Node14&#45;&gt;Node3 -->
<g id="edge29_Node000014_Node000003" class="edge">
<title>Node14&#45;&gt;Node3</title>
<g id="a_edge29_Node000014_Node000003"><a xlink:title=" ">
<path fill="none" stroke="#63b8ff" d="M449.24,-274.97C403.28,-248.4 262.47,-167.01 205.9,-134.31"/>
<polygon fill="#63b8ff" stroke="#63b8ff" points="207.37,-131.12 196.96,-129.15 203.86,-137.18 207.37,-131.12"/>
</a>
</g>
</g>
<!-- Node14&#45;&gt;Node8 -->
<g id="edge27_Node000014_Node000008" class="edge">
<title>Node14&#45;&gt;Node8</title>
<g id="a_edge27_Node000014_Node000008"><a xlink:title=" ">
<path fill="none" stroke="#63b8ff" d="M462.77,-274.68C461.35,-262.23 459.8,-238.93 465,-220 473.7,-188.32 494.86,-156.15 508.81,-137.27"/>
<polygon fill="#63b8ff" stroke="#63b8ff" points="511.73,-139.22 514.99,-129.14 506.16,-134.98 511.73,-139.22"/>
</a>
</g>
</g>
<!-- Node14&#45;&gt;Node9 -->
<g id="edge28_Node000014_Node000009" class="edge">
<title>Node14&#45;&gt;Node9</title>
<g id="a_edge28_Node000014_Node000009"><a xlink:title=" ">
<path fill="none" stroke="#63b8ff" d="M470.44,-274.75C475.89,-267.34 483.86,-256.5 490.56,-247.41"/>
<polygon fill="#63b8ff" stroke="#63b8ff" points="493.57,-249.22 496.68,-239.09 487.93,-245.07 493.57,-249.22"/>
</a>
</g>
</g>
<!-- Node15&#45;&gt;Node8 -->
<g id="edge32_Node000015_Node000008" class="edge">
<title>Node15&#45;&gt;Node8</title>
<g id="a_edge32_Node000015_Node000008"><a xlink:title=" ">
<path fill="none" stroke="#63b8ff" d="M345.74,-274.97C375.48,-248.9 465.45,-170.06 504.07,-136.21"/>
<polygon fill="#63b8ff" stroke="#63b8ff" points="506.69,-138.57 511.91,-129.34 502.08,-133.3 506.69,-138.57"/>
</a>
</g>
</g>
<!-- Node16&#45;&gt;Node3 -->
<g id="edge36_Node000016_Node000003" class="edge">
<title>Node16&#45;&gt;Node3</title>
<g id="a_edge36_Node000016_Node000003"><a xlink:title=" ">
<path fill="none" stroke="#63b8ff" d="M154.43,-219.89C143.37,-207.7 126.52,-184.7 135,-165 140.15,-153.03 150.29,-142.76 159.83,-135.12"/>
<polygon fill="#63b8ff" stroke="#63b8ff" points="161.99,-137.88 167.93,-129.11 157.81,-132.26 161.99,-137.88"/>
</a>
</g>
</g>
<!-- Node16&#45;&gt;Node8 -->
<g id="edge35_Node000016_Node000008" class="edge">
<title>Node16&#45;&gt;Node8</title>
<g id="a_edge35_Node000016_Node000008"><a xlink:title=" ">
<path fill="none" stroke="#63b8ff" d="M179.15,-219.87C205.04,-206.37 257.7,-180.22 305,-165 366.89,-145.08 441.67,-132.06 485.33,-125.52"/>
<polygon fill="#63b8ff" stroke="#63b8ff" points="486.08,-128.95 495.47,-124.03 485.07,-122.02 486.08,-128.95"/>
</a>
</g>
</g>
<!-- Node17&#45;&gt;Node8 -->
<g id="edge38_Node000017_Node000008" class="edge">
<title>Node17&#45;&gt;Node8</title>
<g id="a_edge38_Node000017_Node000008"><a xlink:title=" ">
<path fill="none" stroke="#63b8ff" d="M688.52,-274.99C668.78,-255.27 618.12,-205.07 574,-165 563,-155.01 550.35,-144.17 540.28,-135.69"/>
<polygon fill="#63b8ff" stroke="#63b8ff" points="542.43,-132.93 532.52,-129.19 537.93,-138.29 542.43,-132.93"/>
</a>
</g>
</g>
</g>
</svg>

<g id="navigator" transform="translate(0 0)" fill="#404254">
  <rect fill="#f2f5e9" fill-opacity="0.5" stroke="#606060" stroke-width=".5" x="0" y="0" width="60" height="60"/>
  <use id="zoomplus" xlink:href="#zoomPlus" x="17" y="9" onmousedown="handleZoom(evt,'in')"/>
  <use id="zoomminus" xlink:href="#zoomMin" x="42" y="9" onmousedown="handleZoom(evt,'out')"/>
  <use id="reset" xlink:href="#resetDef" x="30" y="36" onmousedown="handleReset()"/>
   <use id="arrowup" xlink:href="#arrowUp" x="0" y="0" onmousedown="handlePan(0,-1)"/>
  <use id="arrowright" xlink:href="#arrowRight" x="0" y="0" onmousedown="handlePan(1,0)"/>
  <use id="arrowdown" xlink:href="#arrowDown" x="0" y="0" onmousedown="handlePan(0,1)"/>
  <use id="arrowleft" xlink:href="#arrowLeft" x="0" y="0" onmousedown="handlePan(-1,0)"/>
</g>
<svg viewBox="0 0 15 15" width="100%" height="30px" preserveAspectRatio="xMaxYMin meet">
 <g id="arrow_out" transform="scale(0.3 0.3)">
  <a xlink:href="qpalm_8c__incl_org.svg" target="_base">
   <rect id="button" ry="5" rx="5" y="6" x="6" height="38" width="38"
        fill="#f2f5e9" fill-opacity="0.5" stroke="#606060" stroke-width="1.0"/>
   <path id="arrow"
     d="M 11.500037,31.436501 C 11.940474,20.09759 22.043105,11.32322 32.158766,21.979434 L 37.068811,17.246167 C 37.068811,17.246167 37.088388,32 37.088388,32 L 22.160133,31.978069 C 22.160133,31.978069 26.997745,27.140456 26.997745,27.140456 C 18.528582,18.264221 13.291696,25.230495 11.500037,31.436501 z"
     style="fill:#404040;"/>
  </a>
 </g>
</svg>

<style type='text/css'>
<![CDATA[
[data-mouse-over-selected='false'] { opacity: 0.7; }
[data-mouse-over-selected='true']  { opacity: 1.0; }
]]>
</style>
<script type="application/ecmascript"><![CDATA[
document.addEventListener('DOMContentLoaded', (event) => {
  highlightEdges();
  highlightAdjacentNodes();
});
]]></script>
</svg>
