<?xml version="1.0" encoding="UTF-8" standalone="no"?>
<!DOCTYPE svg PUBLIC "-//W3C//DTD SVG 1.1//EN"
 "http://www.w3.org/Graphics/SVG/1.1/DTD/svg11.dtd">
<!-- Generated by graphviz version 2.43.0 (0)
 -->
<!-- Title: /home/runner/work/QPALM/QPALM/QPALM/interfaces/cxx/src/qpalm.cpp Pages: 1 -->
<svg width="1398pt" height="434pt"
 viewBox="0.00 0.00 1397.59 434.00" xmlns="http://www.w3.org/2000/svg" xmlns:xlink="http://www.w3.org/1999/xlink">
<g id="graph0" class="graph" transform="scale(1 1) rotate(0) translate(4 430)">
<title>/home/runner/work/QPALM/QPALM/QPALM/interfaces/cxx/src/qpalm.cpp</title>
<!-- Node1 -->
<g id="Node000001" class="node">
<title>Node1</title>
<g id="a_Node000001"><a xlink:title=" ">
<polygon fill="#999999" stroke="#666666" points="833,-426 687,-426 687,-385 833,-385 833,-426"/>
<text text-anchor="start" x="695" y="-414" font-family="Helvetica,sans-Serif" font-size="10.00">/home/runner/work/QPALM</text>
<text text-anchor="start" x="695" y="-403" font-family="Helvetica,sans-Serif" font-size="10.00">/QPALM/QPALM/interfaces</text>
<text text-anchor="middle" x="760" y="-392" font-family="Helvetica,sans-Serif" font-size="10.00">/cxx/src/qpalm.cpp</text>
</a>
</g>
</g>
<!-- Node2 -->
<g id="Node000002" class="node">
<title>Node2</title>
<g id="a_Node000002"><a xlink:href="qpalm_8hpp.html" target="_top" xlink:title=" ">
<polygon fill="white" stroke="#666666" points="624,-184 556,-184 556,-165 624,-165 624,-184"/>
<text text-anchor="middle" x="590" y="-172" font-family="Helvetica,sans-Serif" font-size="10.00">qpalm.hpp</text>
</a>
</g>
</g>
<!-- Node1&#45;&gt;Node2 -->
<g id="edge1_Node000001_Node000002" class="edge">
<title>Node1&#45;&gt;Node2</title>
<g id="a_edge1_Node000001_Node000002"><a xlink:title=" ">
<path fill="none" stroke="#63b8ff" d="M729.32,-384.97C700.53,-365.2 658.09,-332.17 632,-294 610.42,-262.44 598.71,-218.58 593.46,-194.04"/>
<polygon fill="#63b8ff" stroke="#63b8ff" points="596.9,-193.35 591.5,-184.23 590.03,-194.73 596.9,-193.35"/>
</a>
</g>
</g>
<!-- Node17 -->
<g id="Node000017" class="node">
<title>Node17</title>
<g id="a_Node000017"><a xlink:href="qpalm_8h.html" target="_top" xlink:title="QPALM main solver API.">
<polygon fill="white" stroke="#666666" points="987,-349 931,-349 931,-330 987,-330 987,-349"/>
<text text-anchor="middle" x="959" y="-337" font-family="Helvetica,sans-Serif" font-size="10.00">qpalm.h</text>
</a>
</g>
</g>
<!-- Node1&#45;&gt;Node17 -->
<g id="edge18_Node000001_Node000017" class="edge">
<title>Node1&#45;&gt;Node17</title>
<g id="a_edge18_Node000001_Node000017"><a xlink:title=" ">
<path fill="none" stroke="#63b8ff" d="M820.79,-384.95C854.22,-374.2 894.57,-361.22 923.01,-352.07"/>
<polygon fill="#63b8ff" stroke="#63b8ff" points="924.1,-355.4 932.55,-349.01 921.95,-348.74 924.1,-355.4"/>
</a>
</g>
</g>
<!-- Node3 -->
<g id="Node000003" class="node">
<title>Node3</title>
<g id="a_Node000003"><a xlink:href="sparse_8hpp.html" target="_top" xlink:title=" ">
<polygon fill="white" stroke="#666666" points="480,-129 410,-129 410,-110 480,-110 480,-129"/>
<text text-anchor="middle" x="445" y="-117" font-family="Helvetica,sans-Serif" font-size="10.00">sparse.hpp</text>
</a>
</g>
</g>
<!-- Node2&#45;&gt;Node3 -->
<g id="edge2_Node000002_Node000003" class="edge">
<title>Node2&#45;&gt;Node3</title>
<g id="a_edge2_Node000002_Node000003"><a xlink:title=" ">
<path fill="none" stroke="#63b8ff" d="M566.7,-164.98C542.75,-156.23 505.22,-142.51 478.17,-132.62"/>
<polygon fill="#63b8ff" stroke="#63b8ff" points="479.31,-129.32 468.72,-129.17 476.91,-135.89 479.31,-129.32"/>
</a>
</g>
</g>
<!-- Node14 -->
<g id="Node000014" class="node">
<title>Node14</title>
<g id="a_Node000014"><a xlink:href="types_8h.html" target="_top" xlink:title="Internal data structures used in QPALM.">
<polygon fill="white" stroke="#666666" points="983.5,-129 930.5,-129 930.5,-110 983.5,-110 983.5,-129"/>
<text text-anchor="middle" x="957" y="-117" font-family="Helvetica,sans-Serif" font-size="10.00">types.h</text>
</a>
</g>
</g>
<!-- Node2&#45;&gt;Node14 -->
<g id="edge13_Node000002_Node000014" class="edge">
<title>Node2&#45;&gt;Node14</title>
<g id="a_edge13_Node000002_Node000014"><a xlink:title=" ">
<path fill="none" stroke="#63b8ff" d="M624.2,-168.56C693.25,-158.59 848.82,-136.12 920.09,-125.83"/>
<polygon fill="#63b8ff" stroke="#63b8ff" points="920.97,-129.24 930.37,-124.35 919.97,-122.31 920.97,-129.24"/>
</a>
</g>
</g>
<!-- Node15 -->
<g id="Node000015" class="node">
<title>Node15</title>
<g id="a_Node000015"><a xlink:title=" ">
<polygon fill="#e0e0e0" stroke="#999999" points="550,-129 498,-129 498,-110 550,-110 550,-129"/>
<text text-anchor="middle" x="524" y="-117" font-family="Helvetica,sans-Serif" font-size="10.00">cassert</text>
</a>
</g>
</g>
<!-- Node2&#45;&gt;Node15 -->
<g id="edge16_Node000002_Node000015" class="edge">
<title>Node2&#45;&gt;Node15</title>
<g id="a_edge16_Node000002_Node000015"><a xlink:title=" ">
<path fill="none" stroke="#63b8ff" d="M579.4,-164.98C569.54,-157.07 554.65,-145.11 542.78,-135.58"/>
<polygon fill="#63b8ff" stroke="#63b8ff" points="544.79,-132.7 534.8,-129.17 540.4,-138.16 544.79,-132.7"/>
</a>
</g>
</g>
<!-- Node16 -->
<g id="Node000016" class="node">
<title>Node16</title>
<g id="a_Node000016"><a xlink:title=" ">
<polygon fill="#e0e0e0" stroke="#999999" points="624,-129 568,-129 568,-110 624,-110 624,-129"/>
<text text-anchor="middle" x="596" y="-117" font-family="Helvetica,sans-Serif" font-size="10.00">optional</text>
</a>
</g>
</g>
<!-- Node2&#45;&gt;Node16 -->
<g id="edge17_Node000002_Node000016" class="edge">
<title>Node2&#45;&gt;Node16</title>
<g id="a_edge17_Node000002_Node000016"><a xlink:title=" ">
<path fill="none" stroke="#63b8ff" d="M590.99,-164.75C591.78,-157.8 592.9,-147.85 593.89,-139.13"/>
<polygon fill="#63b8ff" stroke="#63b8ff" points="597.38,-139.42 595.03,-129.09 590.42,-138.63 597.38,-139.42"/>
</a>
</g>
</g>
<!-- Node4 -->
<g id="Node000004" class="node">
<title>Node4</title>
<g id="a_Node000004"><a xlink:title=" ">
<polygon fill="#e0e0e0" stroke="#999999" points="224,-74 144,-74 144,-55 224,-55 224,-74"/>
<text text-anchor="middle" x="184" y="-62" font-family="Helvetica,sans-Serif" font-size="10.00">Eigen/Sparse</text>
</a>
</g>
</g>
<!-- Node3&#45;&gt;Node4 -->
<g id="edge3_Node000003_Node000004" class="edge">
<title>Node3&#45;&gt;Node4</title>
<g id="a_edge3_Node000003_Node000004"><a xlink:title=" ">
<path fill="none" stroke="#63b8ff" d="M409.8,-111.35C364.54,-102.16 285.63,-86.14 234.11,-75.68"/>
<polygon fill="#63b8ff" stroke="#63b8ff" points="234.69,-72.22 224.19,-73.66 233.3,-79.08 234.69,-72.22"/>
</a>
</g>
</g>
<!-- Node5 -->
<g id="Node000005" class="node">
<title>Node5</title>
<g id="a_Node000005"><a xlink:title=" ">
<polygon fill="#e0e0e0" stroke="#999999" points="361.5,-74 242.5,-74 242.5,-55 361.5,-55 361.5,-74"/>
<text text-anchor="middle" x="302" y="-62" font-family="Helvetica,sans-Serif" font-size="10.00">Eigen/src/Core/Map.h</text>
</a>
</g>
</g>
<!-- Node3&#45;&gt;Node5 -->
<g id="edge4_Node000003_Node000005" class="edge">
<title>Node3&#45;&gt;Node5</title>
<g id="a_edge4_Node000003_Node000005"><a xlink:title=" ">
<path fill="none" stroke="#63b8ff" d="M422.02,-109.98C398.5,-101.27 361.71,-87.63 335.06,-77.75"/>
<polygon fill="#63b8ff" stroke="#63b8ff" points="335.99,-74.36 325.39,-74.17 333.55,-80.93 335.99,-74.36"/>
</a>
</g>
</g>
<!-- Node6 -->
<g id="Node000006" class="node">
<title>Node6</title>
<g id="a_Node000006"><a xlink:title=" ">
<polygon fill="#e0e0e0" stroke="#999999" points="510,-74 380,-74 380,-55 510,-55 510,-74"/>
<text text-anchor="middle" x="445" y="-62" font-family="Helvetica,sans-Serif" font-size="10.00">Eigen/src/Core/Matrix.h</text>
</a>
</g>
</g>
<!-- Node3&#45;&gt;Node6 -->
<g id="edge5_Node000003_Node000006" class="edge">
<title>Node3&#45;&gt;Node6</title>
<g id="a_edge5_Node000003_Node000006"><a xlink:title=" ">
<path fill="none" stroke="#63b8ff" d="M445,-109.75C445,-102.8 445,-92.85 445,-84.13"/>
<polygon fill="#63b8ff" stroke="#63b8ff" points="448.5,-84.09 445,-74.09 441.5,-84.09 448.5,-84.09"/>
</a>
</g>
</g>
<!-- Node7 -->
<g id="Node000007" class="node">
<title>Node7</title>
<g id="a_Node000007"><a xlink:href="global__opts_8h.html" target="_top" xlink:title="Custom memory allocation, print and utility functions, and data types for floats and ints.">
<polygon fill="white" stroke="#666666" points="977,-74 895,-74 895,-55 977,-55 977,-74"/>
<text text-anchor="middle" x="936" y="-62" font-family="Helvetica,sans-Serif" font-size="10.00">global_opts.h</text>
</a>
</g>
</g>
<!-- Node3&#45;&gt;Node7 -->
<g id="edge6_Node000003_Node000007" class="edge">
<title>Node3&#45;&gt;Node7</title>
<g id="a_edge6_Node000003_Node000007"><a xlink:title=" ">
<path fill="none" stroke="#63b8ff" d="M480.02,-111.44C483.05,-110.91 486.07,-110.43 489,-110 631.64,-89.17 801.34,-75.22 884.66,-69.07"/>
<polygon fill="#63b8ff" stroke="#63b8ff" points="885.14,-72.55 894.86,-68.33 884.63,-65.57 885.14,-72.55"/>
</a>
</g>
</g>
<!-- Node10 -->
<g id="Node000010" class="node">
<title>Node10</title>
<g id="a_Node000010"><a xlink:title=" ">
<polygon fill="#e0e0e0" stroke="#999999" points="630,-74 528,-74 528,-55 630,-55 630,-74"/>
<text text-anchor="middle" x="579" y="-62" font-family="Helvetica,sans-Serif" font-size="10.00">ladel_constants.h</text>
</a>
</g>
</g>
<!-- Node3&#45;&gt;Node10 -->
<g id="edge9_Node000003_Node000010" class="edge">
<title>Node3&#45;&gt;Node10</title>
<g id="a_edge9_Node000003_Node000010"><a xlink:title=" ">
<path fill="none" stroke="#63b8ff" d="M466.53,-109.98C488.47,-101.3 522.74,-87.75 547.69,-77.88"/>
<polygon fill="#63b8ff" stroke="#63b8ff" points="549.07,-81.1 557.08,-74.17 546.49,-74.59 549.07,-81.1"/>
</a>
</g>
</g>
<!-- Node11 -->
<g id="Node000011" class="node">
<title>Node11</title>
<g id="a_Node000011"><a xlink:title=" ">
<polygon fill="#e0e0e0" stroke="#999999" points="730,-74 648,-74 648,-55 730,-55 730,-74"/>
<text text-anchor="middle" x="689" y="-62" font-family="Helvetica,sans-Serif" font-size="10.00">ladel_types.h</text>
</a>
</g>
</g>
<!-- Node3&#45;&gt;Node11 -->
<g id="edge10_Node000003_Node000011" class="edge">
<title>Node3&#45;&gt;Node11</title>
<g id="a_edge10_Node000003_Node000011"><a xlink:title=" ">
<path fill="none" stroke="#63b8ff" d="M480.22,-110.85C522.15,-101.74 592.42,-86.48 639.73,-76.2"/>
<polygon fill="#63b8ff" stroke="#63b8ff" points="640.72,-79.57 649.75,-74.03 639.24,-72.73 640.72,-79.57"/>
</a>
</g>
</g>
<!-- Node12 -->
<g id="Node000012" class="node">
<title>Node12</title>
<g id="a_Node000012"><a xlink:title=" ">
<polygon fill="#e0e0e0" stroke="#999999" points="806,-74 748,-74 748,-55 806,-55 806,-74"/>
<text text-anchor="middle" x="777" y="-62" font-family="Helvetica,sans-Serif" font-size="10.00">memory</text>
</a>
</g>
</g>
<!-- Node3&#45;&gt;Node12 -->
<g id="edge11_Node000003_Node000012" class="edge">
<title>Node3&#45;&gt;Node12</title>
<g id="a_edge11_Node000003_Node000012"><a xlink:title=" ">
<path fill="none" stroke="#63b8ff" d="M480.04,-111.57C483.07,-111.02 486.08,-110.49 489,-110 596.56,-91.88 626.89,-94.12 737.69,-74.12"/>
<polygon fill="#63b8ff" stroke="#63b8ff" points="738.38,-77.55 747.59,-72.31 737.12,-70.67 738.38,-77.55"/>
</a>
</g>
</g>
<!-- Node13 -->
<g id="Node000013" class="node">
<title>Node13</title>
<g id="a_Node000013"><a xlink:href="qpalm__cxx-export_8hpp.html" target="_top" xlink:title=" ">
<polygon fill="white" stroke="#666666" points="126,-74 0,-74 0,-55 126,-55 126,-74"/>
<text text-anchor="middle" x="63" y="-62" font-family="Helvetica,sans-Serif" font-size="10.00">qpalm_cxx&#45;export.hpp</text>
</a>
</g>
</g>
<!-- Node3&#45;&gt;Node13 -->
<g id="edge12_Node000003_Node000013" class="edge">
<title>Node3&#45;&gt;Node13</title>
<g id="a_edge12_Node000003_Node000013"><a xlink:title=" ">
<path fill="none" stroke="#63b8ff" d="M409.75,-113.61C347.34,-104.95 216.27,-86.77 134.36,-75.4"/>
<polygon fill="#63b8ff" stroke="#63b8ff" points="134.76,-71.92 124.37,-74.02 133.8,-78.86 134.76,-71.92"/>
</a>
</g>
</g>
<!-- Node8 -->
<g id="Node000008" class="node">
<title>Node8</title>
<g id="a_Node000008"><a xlink:title=" ">
<polygon fill="#e0e0e0" stroke="#999999" points="1079,-19 1029,-19 1029,0 1079,0 1079,-19"/>
<text text-anchor="middle" x="1054" y="-7" font-family="Helvetica,sans-Serif" font-size="10.00">ladel.h</text>
</a>
</g>
</g>
<!-- Node7&#45;&gt;Node8 -->
<g id="edge7_Node000007_Node000008" class="edge">
<title>Node7&#45;&gt;Node8</title>
<g id="a_edge7_Node000007_Node000008"><a xlink:title=" ">
<path fill="none" stroke="#63b8ff" d="M954.96,-54.98C974.03,-46.42 1003.66,-33.11 1025.55,-23.28"/>
<polygon fill="#63b8ff" stroke="#63b8ff" points="1027.01,-26.46 1034.7,-19.17 1024.14,-20.07 1027.01,-26.46"/>
</a>
</g>
</g>
<!-- Node9 -->
<g id="Node000009" class="node">
<title>Node9</title>
<g id="a_Node000009"><a xlink:title=" ">
<polygon fill="#e0e0e0" stroke="#999999" points="961.5,-19 910.5,-19 910.5,0 961.5,0 961.5,-19"/>
<text text-anchor="middle" x="936" y="-7" font-family="Helvetica,sans-Serif" font-size="10.00">math.h</text>
</a>
</g>
</g>
<!-- Node7&#45;&gt;Node9 -->
<g id="edge8_Node000007_Node000009" class="edge">
<title>Node7&#45;&gt;Node9</title>
<g id="a_edge8_Node000007_Node000009"><a xlink:title=" ">
<path fill="none" stroke="#63b8ff" d="M936,-54.75C936,-47.8 936,-37.85 936,-29.13"/>
<polygon fill="#63b8ff" stroke="#63b8ff" points="939.5,-29.09 936,-19.09 932.5,-29.09 939.5,-29.09"/>
</a>
</g>
</g>
<!-- Node14&#45;&gt;Node7 -->
<g id="edge14_Node000014_Node000007" class="edge">
<title>Node14&#45;&gt;Node7</title>
<g id="a_edge14_Node000014_Node000007"><a xlink:title=" ">
<path fill="none" stroke="#63b8ff" d="M953.53,-109.75C950.72,-102.65 946.66,-92.4 943.15,-83.56"/>
<polygon fill="#63b8ff" stroke="#63b8ff" points="946.34,-82.1 939.4,-74.09 939.83,-84.68 946.34,-82.1"/>
</a>
</g>
</g>
<!-- Node14&#45;&gt;Node8 -->
<g id="edge15_Node000014_Node000008" class="edge">
<title>Node14&#45;&gt;Node8</title>
<g id="a_edge15_Node000014_Node000008"><a xlink:title=" ">
<path fill="none" stroke="#63b8ff" d="M964.94,-109.66C981.22,-91.54 1018.6,-49.91 1039.39,-26.77"/>
<polygon fill="#63b8ff" stroke="#63b8ff" points="1042.15,-28.94 1046.22,-19.16 1036.94,-24.26 1042.15,-28.94"/>
</a>
</g>
</g>
<!-- Node17&#45;&gt;Node7 -->
<g id="edge21_Node000017_Node000007" class="edge">
<title>Node17&#45;&gt;Node7</title>
<g id="a_edge21_Node000017_Node000007"><a xlink:title=" ">
<path fill="none" stroke="#63b8ff" d="M930.88,-336.22C875.87,-331.29 756.56,-318.06 724,-294 701.77,-277.58 701.64,-265.82 695,-239 672,-146.08 809.13,-96.68 886.21,-76.55"/>
<polygon fill="#63b8ff" stroke="#63b8ff" points="887.38,-79.87 896.21,-74.02 885.66,-73.08 887.38,-79.87"/>
</a>
</g>
</g>
<!-- Node17&#45;&gt;Node14 -->
<g id="edge46_Node000017_Node000014" class="edge">
<title>Node17&#45;&gt;Node14</title>
<g id="a_edge46_Node000017_Node000014"><a xlink:title=" ">
<path fill="none" stroke="#63b8ff" d="M963.11,-329.88C967.06,-321.09 972.74,-306.94 975,-294 984.77,-237.96 970.51,-170.74 962.22,-138.92"/>
<polygon fill="#63b8ff" stroke="#63b8ff" points="965.59,-137.96 959.59,-129.22 958.83,-139.79 965.59,-137.96"/>
</a>
</g>
</g>
<!-- Node18 -->
<g id="Node000018" class="node">
<title>Node18</title>
<g id="a_Node000018"><a xlink:href="constants_8h.html" target="_top" xlink:title="Constants used in QPALM.">
<polygon fill="white" stroke="#666666" points="1272.5,-129 1199.5,-129 1199.5,-110 1272.5,-110 1272.5,-129"/>
<text text-anchor="middle" x="1236" y="-117" font-family="Helvetica,sans-Serif" font-size="10.00">constants.h</text>
</a>
</g>
</g>
<!-- Node17&#45;&gt;Node18 -->
<g id="edge19_Node000017_Node000018" class="edge">
<title>Node17&#45;&gt;Node18</title>
<g id="a_edge19_Node000017_Node000018"><a xlink:title=" ">
<path fill="none" stroke="#63b8ff" d="M987.2,-339.28C1068.74,-339.78 1304.09,-328.27 1385,-184 1408.4,-142.27 1334.87,-127.96 1282.92,-123.05"/>
<polygon fill="#63b8ff" stroke="#63b8ff" points="1283.12,-119.56 1272.85,-122.19 1282.52,-126.53 1283.12,-119.56"/>
</a>
</g>
</g>
<!-- Node19 -->
<g id="Node000019" class="node">
<title>Node19</title>
<g id="a_Node000019"><a xlink:href="iteration_8h.html" target="_top" xlink:title="QPALM main solver routines.">
<polygon fill="white" stroke="#666666" points="795.5,-184 728.5,-184 728.5,-165 795.5,-165 795.5,-184"/>
<text text-anchor="middle" x="762" y="-172" font-family="Helvetica,sans-Serif" font-size="10.00">iteration.h</text>
</a>
</g>
</g>
<!-- Node17&#45;&gt;Node19 -->
<g id="edge22_Node000017_Node000019" class="edge">
<title>Node17&#45;&gt;Node19</title>
<g id="a_edge22_Node000017_Node000019"><a xlink:title=" ">
<path fill="none" stroke="#63b8ff" d="M930.98,-336.78C891.28,-333.34 817.33,-323.25 762,-294 724.81,-274.34 684.24,-257.65 703,-220 709.57,-206.82 722.1,-196.52 733.93,-189.16"/>
<polygon fill="#63b8ff" stroke="#63b8ff" points="735.8,-192.12 742.73,-184.1 732.32,-186.05 735.8,-192.12"/>
</a>
</g>
</g>
<!-- Node20 -->
<g id="Node000020" class="node">
<title>Node20</title>
<g id="a_Node000020"><a xlink:href="lin__alg_8h.html" target="_top" xlink:title="Linear algebra with vectors.">
<polygon fill="white" stroke="#666666" points="1062,-239 1004,-239 1004,-220 1062,-220 1062,-239"/>
<text text-anchor="middle" x="1033" y="-227" font-family="Helvetica,sans-Serif" font-size="10.00">lin_alg.h</text>
</a>
</g>
</g>
<!-- Node17&#45;&gt;Node20 -->
<g id="edge25_Node000017_Node000020" class="edge">
<title>Node17&#45;&gt;Node20</title>
<g id="a_edge25_Node000017_Node000020"><a xlink:title=" ">
<path fill="none" stroke="#63b8ff" d="M971.35,-329.87C982.26,-321.71 997.95,-308.56 1008,-294 1017.47,-280.29 1024.08,-262.48 1028.11,-249.21"/>
<polygon fill="#63b8ff" stroke="#63b8ff" points="1031.55,-249.9 1030.9,-239.33 1024.82,-248 1031.55,-249.9"/>
</a>
</g>
</g>
<!-- Node21 -->
<g id="Node000021" class="node">
<title>Node21</title>
<g id="a_Node000021"><a xlink:href="solver__interface_8h.html" target="_top" xlink:title="Interface and wrapper to matrix/factorization (ladel) functions.">
<polygon fill="white" stroke="#666666" points="1184,-184 1080,-184 1080,-165 1184,-165 1184,-184"/>
<text text-anchor="middle" x="1132" y="-172" font-family="Helvetica,sans-Serif" font-size="10.00">solver_interface.h</text>
</a>
</g>
</g>
<!-- Node17&#45;&gt;Node21 -->
<g id="edge43_Node000017_Node000021" class="edge">
<title>Node17&#45;&gt;Node21</title>
<g id="a_edge43_Node000017_Node000021"><a xlink:title=" ">
<path fill="none" stroke="#63b8ff" d="M987.29,-335.19C1030.94,-329.44 1111.52,-316.06 1129,-294 1151.71,-265.34 1144.34,-219.37 1137.7,-193.93"/>
<polygon fill="#63b8ff" stroke="#63b8ff" points="1141.01,-192.77 1134.91,-184.11 1134.28,-194.68 1141.01,-192.77"/>
</a>
</g>
</g>
<!-- Node22 -->
<g id="Node000022" class="node">
<title>Node22</title>
<g id="a_Node000022"><a xlink:href="linesearch_8h.html" target="_top" xlink:title="Routines to perform exact linesearch.">
<polygon fill="white" stroke="#666666" points="1376,-184 1300,-184 1300,-165 1376,-165 1376,-184"/>
<text text-anchor="middle" x="1338" y="-172" font-family="Helvetica,sans-Serif" font-size="10.00">linesearch.h</text>
</a>
</g>
</g>
<!-- Node17&#45;&gt;Node22 -->
<g id="edge32_Node000017_Node000022" class="edge">
<title>Node17&#45;&gt;Node22</title>
<g id="a_edge32_Node000017_Node000022"><a xlink:title=" ">
<path fill="none" stroke="#63b8ff" d="M987.29,-336.44C1029.53,-332.54 1110.86,-321.81 1174,-294 1233.72,-267.69 1293.13,-217.16 1321.23,-191.42"/>
<polygon fill="#63b8ff" stroke="#63b8ff" points="1323.97,-193.65 1328.91,-184.28 1319.21,-188.52 1323.97,-193.65"/>
</a>
</g>
</g>
<!-- Node23 -->
<g id="Node000023" class="node">
<title>Node23</title>
<g id="a_Node000023"><a xlink:href="newton_8h.html" target="_top" xlink:title="Functions to calculate the semismooth Newton direction.">
<polygon fill="white" stroke="#666666" points="774,-239 712,-239 712,-220 774,-220 774,-239"/>
<text text-anchor="middle" x="743" y="-227" font-family="Helvetica,sans-Serif" font-size="10.00">newton.h</text>
</a>
</g>
</g>
<!-- Node17&#45;&gt;Node23 -->
<g id="edge35_Node000017_Node000023" class="edge">
<title>Node17&#45;&gt;Node23</title>
<g id="a_edge35_Node000017_Node000023"><a xlink:title=" ">
<path fill="none" stroke="#63b8ff" d="M930.8,-337.83C893.38,-335.61 826.83,-326.9 782,-294 766.56,-282.67 755.93,-263.2 749.72,-248.8"/>
<polygon fill="#63b8ff" stroke="#63b8ff" points="752.92,-247.39 745.97,-239.4 746.42,-249.99 752.92,-247.39"/>
</a>
</g>
</g>
<!-- Node24 -->
<g id="Node000024" class="node">
<title>Node24</title>
<g id="a_Node000024"><a xlink:href="nonconvex_8h.html" target="_top" xlink:title="Routines to deal with nonconvex QPs.">
<polygon fill="white" stroke="#666666" points="871.5,-239 792.5,-239 792.5,-220 871.5,-220 871.5,-239"/>
<text text-anchor="middle" x="832" y="-227" font-family="Helvetica,sans-Serif" font-size="10.00">nonconvex.h</text>
</a>
</g>
</g>
<!-- Node17&#45;&gt;Node24 -->
<g id="edge37_Node000017_Node000024" class="edge">
<title>Node17&#45;&gt;Node24</title>
<g id="a_edge37_Node000017_Node000024"><a xlink:title=" ">
<path fill="none" stroke="#63b8ff" d="M930.81,-335.21C887.33,-329.5 807.09,-316.17 790,-294 777.7,-278.04 794.94,-258.58 810.9,-245.44"/>
<polygon fill="#63b8ff" stroke="#63b8ff" points="813.2,-248.08 818.97,-239.19 808.92,-242.54 813.2,-248.08"/>
</a>
</g>
</g>
<!-- Node25 -->
<g id="Node000025" class="node">
<title>Node25</title>
<g id="a_Node000025"><a xlink:href="scaling_8h.html" target="_top" xlink:title="Problem data scaling during setup.">
<polygon fill="white" stroke="#666666" points="1120,-294 1060,-294 1060,-275 1120,-275 1120,-294"/>
<text text-anchor="middle" x="1090" y="-282" font-family="Helvetica,sans-Serif" font-size="10.00">scaling.h</text>
</a>
</g>
</g>
<!-- Node17&#45;&gt;Node25 -->
<g id="edge39_Node000017_Node000025" class="edge">
<title>Node17&#45;&gt;Node25</title>
<g id="a_edge39_Node000017_Node000025"><a xlink:title=" ">
<path fill="none" stroke="#63b8ff" d="M980.05,-329.98C1001.41,-321.34 1034.7,-307.87 1059.06,-298.02"/>
<polygon fill="#63b8ff" stroke="#63b8ff" points="1060.61,-301.17 1068.57,-294.17 1057.99,-294.68 1060.61,-301.17"/>
</a>
</g>
</g>
<!-- Node26 -->
<g id="Node000026" class="node">
<title>Node26</title>
<g id="a_Node000026"><a xlink:href="termination_8h.html" target="_top" xlink:title="Routines to check the termination and infeasibility criteria.">
<polygon fill="white" stroke="#666666" points="965.5,-294 882.5,-294 882.5,-275 965.5,-275 965.5,-294"/>
<text text-anchor="middle" x="924" y="-282" font-family="Helvetica,sans-Serif" font-size="10.00">termination.h</text>
</a>
</g>
</g>
<!-- Node17&#45;&gt;Node26 -->
<g id="edge44_Node000017_Node000026" class="edge">
<title>Node17&#45;&gt;Node26</title>
<g id="a_edge44_Node000017_Node000026"><a xlink:title=" ">
<path fill="none" stroke="#63b8ff" d="M953.22,-329.75C948.38,-322.42 941.32,-311.73 935.36,-302.7"/>
<polygon fill="#63b8ff" stroke="#63b8ff" points="938.1,-300.5 929.67,-294.09 932.26,-304.36 938.1,-300.5"/>
</a>
</g>
</g>
<!-- Node27 -->
<g id="Node000027" class="node">
<title>Node27</title>
<g id="a_Node000027"><a xlink:href="util_8h.html" target="_top" xlink:title="Utility functions.">
<polygon fill="white" stroke="#666666" points="1281.5,-184 1240.5,-184 1240.5,-165 1281.5,-165 1281.5,-184"/>
<text text-anchor="middle" x="1261" y="-172" font-family="Helvetica,sans-Serif" font-size="10.00">util.h</text>
</a>
</g>
</g>
<!-- Node17&#45;&gt;Node27 -->
<g id="edge47_Node000017_Node000027" class="edge">
<title>Node17&#45;&gt;Node27</title>
<g id="a_edge47_Node000017_Node000027"><a xlink:title=" ">
<path fill="none" stroke="#63b8ff" d="M987.26,-336.78C1025.7,-333.38 1095.58,-323.34 1147,-294 1192.27,-268.17 1230.95,-218.91 1249.42,-192.78"/>
<polygon fill="#63b8ff" stroke="#63b8ff" points="1252.48,-194.5 1255.28,-184.28 1246.72,-190.52 1252.48,-194.5"/>
</a>
</g>
</g>
<!-- Node28 -->
<g id="Node000028" class="node">
<title>Node28</title>
<g id="a_Node000028"><a xlink:href="validate_8h.html" target="_top" xlink:title="Validation of the user provided settings and data.">
<polygon fill="white" stroke="#666666" points="864.5,-294 799.5,-294 799.5,-275 864.5,-275 864.5,-294"/>
<text text-anchor="middle" x="832" y="-282" font-family="Helvetica,sans-Serif" font-size="10.00">validate.h</text>
</a>
</g>
</g>
<!-- Node17&#45;&gt;Node28 -->
<g id="edge50_Node000017_Node000028" class="edge">
<title>Node17&#45;&gt;Node28</title>
<g id="a_edge50_Node000017_Node000028"><a xlink:title=" ">
<path fill="none" stroke="#63b8ff" d="M938.6,-329.98C917.98,-321.38 885.89,-307.99 862.31,-298.15"/>
<polygon fill="#63b8ff" stroke="#63b8ff" points="863.35,-294.79 852.78,-294.17 860.66,-301.25 863.35,-294.79"/>
</a>
</g>
</g>
<!-- Node18&#45;&gt;Node8 -->
<g id="edge20_Node000018_Node000008" class="edge">
<title>Node18&#45;&gt;Node8</title>
<g id="a_edge20_Node000018_Node000008"><a xlink:title=" ">
<path fill="none" stroke="#63b8ff" d="M1221.41,-109.84C1189.92,-91.16 1115.33,-46.9 1077.25,-24.3"/>
<polygon fill="#63b8ff" stroke="#63b8ff" points="1078.79,-21.14 1068.4,-19.05 1075.22,-27.16 1078.79,-21.14"/>
</a>
</g>
</g>
<!-- Node19&#45;&gt;Node7 -->
<g id="edge24_Node000019_Node000007" class="edge">
<title>Node19&#45;&gt;Node7</title>
<g id="a_edge24_Node000019_Node000007"><a xlink:title=" ">
<path fill="none" stroke="#63b8ff" d="M775.95,-164.84C805.85,-146.28 876.41,-102.49 913.04,-79.75"/>
<polygon fill="#63b8ff" stroke="#63b8ff" points="915.34,-82.44 921.99,-74.2 911.65,-76.5 915.34,-82.44"/>
</a>
</g>
</g>
<!-- Node19&#45;&gt;Node14 -->
<g id="edge23_Node000019_Node000014" class="edge">
<title>Node19&#45;&gt;Node14</title>
<g id="a_edge23_Node000019_Node000014"><a xlink:title=" ">
<path fill="none" stroke="#63b8ff" d="M793.33,-164.98C828.07,-155.54 884.02,-140.33 920.66,-130.38"/>
<polygon fill="#63b8ff" stroke="#63b8ff" points="921.71,-133.72 930.45,-127.72 919.88,-126.96 921.71,-133.72"/>
</a>
</g>
</g>
<!-- Node20&#45;&gt;Node14 -->
<g id="edge26_Node000020_Node000014" class="edge">
<title>Node20&#45;&gt;Node14</title>
<g id="a_edge26_Node000020_Node000014"><a xlink:title=" ">
<path fill="none" stroke="#63b8ff" d="M1027.27,-219.79C1019.14,-207.48 1003.71,-184.33 990,-165 983.46,-155.78 975.98,-145.65 969.79,-137.39"/>
<polygon fill="#63b8ff" stroke="#63b8ff" points="972.5,-135.17 963.69,-129.28 966.91,-139.38 972.5,-135.17"/>
</a>
</g>
</g>
<!-- Node20&#45;&gt;Node21 -->
<g id="edge27_Node000020_Node000021" class="edge">
<title>Node20&#45;&gt;Node21</title>
<g id="a_edge27_Node000020_Node000021"><a xlink:title=" ">
<path fill="none" stroke="#63b8ff" d="M1048.91,-219.98C1064.55,-211.61 1088.66,-198.7 1106.88,-188.95"/>
<polygon fill="#63b8ff" stroke="#63b8ff" points="1108.64,-191.98 1115.8,-184.17 1105.34,-185.8 1108.64,-191.98"/>
</a>
</g>
</g>
<!-- Node21&#45;&gt;Node7 -->
<g id="edge28_Node000021_Node000007" class="edge">
<title>Node21&#45;&gt;Node7</title>
<g id="a_edge28_Node000021_Node000007"><a xlink:title=" ">
<path fill="none" stroke="#63b8ff" d="M1116.29,-164.84C1082.23,-146.08 1001.37,-101.52 960.52,-79.01"/>
<polygon fill="#63b8ff" stroke="#63b8ff" points="961.96,-75.81 951.51,-74.05 958.58,-81.94 961.96,-75.81"/>
</a>
</g>
</g>
<!-- Node21&#45;&gt;Node8 -->
<g id="edge31_Node000021_Node000008" class="edge">
<title>Node21&#45;&gt;Node8</title>
<g id="a_edge31_Node000021_Node000008"><a xlink:title=" ">
<path fill="none" stroke="#63b8ff" d="M1127.81,-164.74C1115.53,-139.09 1079.5,-63.78 1062.75,-28.78"/>
<polygon fill="#63b8ff" stroke="#63b8ff" points="1065.69,-26.82 1058.21,-19.31 1059.37,-29.84 1065.69,-26.82"/>
</a>
</g>
</g>
<!-- Node21&#45;&gt;Node14 -->
<g id="edge30_Node000021_Node000014" class="edge">
<title>Node21&#45;&gt;Node14</title>
<g id="a_edge30_Node000021_Node000014"><a xlink:title=" ">
<path fill="none" stroke="#63b8ff" d="M1103.88,-164.98C1073.85,-155.89 1026.14,-141.44 993.29,-131.49"/>
<polygon fill="#63b8ff" stroke="#63b8ff" points="994.2,-128.11 983.61,-128.56 992.17,-134.81 994.2,-128.11"/>
</a>
</g>
</g>
<!-- Node21&#45;&gt;Node18 -->
<g id="edge29_Node000021_Node000018" class="edge">
<title>Node21&#45;&gt;Node18</title>
<g id="a_edge29_Node000021_Node000018"><a xlink:title=" ">
<path fill="none" stroke="#63b8ff" d="M1148.71,-164.98C1165.21,-156.57 1190.7,-143.59 1209.88,-133.81"/>
<polygon fill="#63b8ff" stroke="#63b8ff" points="1211.67,-136.83 1218.99,-129.17 1208.49,-130.59 1211.67,-136.83"/>
</a>
</g>
</g>
<!-- Node22&#45;&gt;Node14 -->
<g id="edge33_Node000022_Node000014" class="edge">
<title>Node22&#45;&gt;Node14</title>
<g id="a_edge33_Node000022_Node000014"><a xlink:title=" ">
<path fill="none" stroke="#63b8ff" d="M1299.81,-166.44C1296.83,-165.94 1293.87,-165.45 1291,-165 1183.38,-148.11 1055.59,-132.24 993.92,-124.85"/>
<polygon fill="#63b8ff" stroke="#63b8ff" points="994.25,-121.36 983.9,-123.65 993.42,-128.32 994.25,-121.36"/>
</a>
</g>
</g>
<!-- Node22&#45;&gt;Node18 -->
<g id="edge34_Node000022_Node000018" class="edge">
<title>Node22&#45;&gt;Node18</title>
<g id="a_edge34_Node000022_Node000018"><a xlink:title=" ">
<path fill="none" stroke="#63b8ff" d="M1321.61,-164.98C1305.43,-156.57 1280.43,-143.59 1261.62,-133.81"/>
<polygon fill="#63b8ff" stroke="#63b8ff" points="1263.17,-130.68 1252.69,-129.17 1259.95,-136.89 1263.17,-130.68"/>
</a>
</g>
</g>
<!-- Node23&#45;&gt;Node14 -->
<g id="edge36_Node000023_Node000014" class="edge">
<title>Node23&#45;&gt;Node14</title>
<g id="a_edge36_Node000023_Node000014"><a xlink:title=" ">
<path fill="none" stroke="#63b8ff" d="M759.1,-219.93C782.37,-207.58 826.8,-184.17 865,-165 886.64,-154.14 911.35,-142.21 929.71,-133.44"/>
<polygon fill="#63b8ff" stroke="#63b8ff" points="931.42,-136.5 938.94,-129.04 928.41,-130.18 931.42,-136.5"/>
</a>
</g>
</g>
<!-- Node24&#45;&gt;Node14 -->
<g id="edge38_Node000024_Node000014" class="edge">
<title>Node24&#45;&gt;Node14</title>
<g id="a_edge38_Node000024_Node000014"><a xlink:title=" ">
<path fill="none" stroke="#63b8ff" d="M837.93,-219.97C847.19,-207.05 866.08,-182.23 886,-165 899.77,-153.09 917.04,-142.2 931.1,-134.16"/>
<polygon fill="#63b8ff" stroke="#63b8ff" points="933.2,-137 940.24,-129.09 929.8,-130.88 933.2,-137"/>
</a>
</g>
</g>
<!-- Node25&#45;&gt;Node14 -->
<g id="edge40_Node000025_Node000014" class="edge">
<title>Node25&#45;&gt;Node14</title>
<g id="a_edge40_Node000025_Node000014"><a xlink:title=" ">
<path fill="none" stroke="#63b8ff" d="M1088.9,-274.66C1086.97,-261.79 1082.07,-237.51 1071,-220 1047.51,-182.86 1006.05,-151.77 980.12,-134.69"/>
<polygon fill="#63b8ff" stroke="#63b8ff" points="981.96,-131.71 971.66,-129.24 978.17,-137.59 981.96,-131.71"/>
</a>
</g>
</g>
<!-- Node25&#45;&gt;Node18 -->
<g id="edge42_Node000025_Node000018" class="edge">
<title>Node25&#45;&gt;Node18</title>
<g id="a_edge42_Node000025_Node000018"><a xlink:title=" ">
<path fill="none" stroke="#63b8ff" d="M1100.33,-274.8C1119.71,-258.24 1162.29,-220.54 1193,-184 1205.41,-169.24 1217.54,-150.85 1225.74,-137.67"/>
<polygon fill="#63b8ff" stroke="#63b8ff" points="1228.74,-139.48 1230.96,-129.12 1222.76,-135.83 1228.74,-139.48"/>
</a>
</g>
</g>
<!-- Node25&#45;&gt;Node20 -->
<g id="edge41_Node000025_Node000020" class="edge">
<title>Node25&#45;&gt;Node20</title>
<g id="a_edge41_Node000025_Node000020"><a xlink:title=" ">
<path fill="none" stroke="#63b8ff" d="M1080.84,-274.98C1072.5,-267.23 1059.97,-255.58 1049.82,-246.14"/>
<polygon fill="#63b8ff" stroke="#63b8ff" points="1052.03,-243.42 1042.32,-239.17 1047.26,-248.54 1052.03,-243.42"/>
</a>
</g>
</g>
<!-- Node26&#45;&gt;Node14 -->
<g id="edge45_Node000026_Node000014" class="edge">
<title>Node26&#45;&gt;Node14</title>
<g id="a_edge45_Node000026_Node000014"><a xlink:title=" ">
<path fill="none" stroke="#63b8ff" d="M925.77,-274.74C930.94,-249.2 946.08,-174.43 953.21,-139.23"/>
<polygon fill="#63b8ff" stroke="#63b8ff" points="956.66,-139.8 955.22,-129.31 949.8,-138.41 956.66,-139.8"/>
</a>
</g>
</g>
<!-- Node27&#45;&gt;Node14 -->
<g id="edge48_Node000027_Node000014" class="edge">
<title>Node27&#45;&gt;Node14</title>
<g id="a_edge48_Node000027_Node000014"><a xlink:title=" ">
<path fill="none" stroke="#63b8ff" d="M1240.1,-169.86C1189.15,-160.97 1057.98,-138.1 993.66,-126.89"/>
<polygon fill="#63b8ff" stroke="#63b8ff" points="994.02,-123.4 983.56,-125.13 992.81,-130.3 994.02,-123.4"/>
</a>
</g>
</g>
<!-- Node27&#45;&gt;Node18 -->
<g id="edge49_Node000027_Node000018" class="edge">
<title>Node27&#45;&gt;Node18</title>
<g id="a_edge49_Node000027_Node000018"><a xlink:title=" ">
<path fill="none" stroke="#63b8ff" d="M1256.87,-164.75C1253.49,-157.57 1248.58,-147.18 1244.38,-138.27"/>
<polygon fill="#63b8ff" stroke="#63b8ff" points="1247.48,-136.64 1240.05,-129.09 1241.15,-139.63 1247.48,-136.64"/>
</a>
</g>
</g>
<!-- Node28&#45;&gt;Node14 -->
<g id="edge51_Node000028_Node000014" class="edge">
<title>Node28&#45;&gt;Node14</title>
<g id="a_edge51_Node000028_Node000014"><a xlink:title=" ">
<path fill="none" stroke="#63b8ff" d="M842.63,-274.97C852.86,-266.47 868.44,-252.74 880,-239 907.93,-205.82 934,-161.97 947.46,-138"/>
<polygon fill="#63b8ff" stroke="#63b8ff" points="950.64,-139.48 952.43,-129.03 944.52,-136.08 950.64,-139.48"/>
</a>
</g>
</g>
</g>
</svg>
