<?xml version="1.0" encoding="UTF-8" standalone="no"?>
<!DOCTYPE svg PUBLIC "-//W3C//DTD SVG 1.1//EN"
 "http://www.w3.org/Graphics/SVG/1.1/DTD/svg11.dtd">
<!-- Generated by graphviz version 2.43.0 (0)
 -->
<!-- Title: solver_interface.h Pages: 1 -->
<!--zoomable 379 -->

<svg id="main" version="1.1" xmlns="http://www.w3.org/2000/svg" xmlns:xlink="http://www.w3.org/1999/xlink" xml:space="preserve" onload="init(evt)">
<style type="text/css"><![CDATA[
.node, .edge {opacity: 0.7;}
.node.selected, .edge.selected {opacity: 1;}
.edge:hover path { stroke: red; }
.edge:hover polygon { stroke: red; fill: red; }
]]></style>

<defs>
  <circle id="rim" cx="0" cy="0" r="7"/>
  <circle id="rim2" cx="0" cy="0" r="3.5"/>
  <g id="zoomPlus">
    <use xlink:href="#rim" fill="#404040"><set attributeName="fill" to="#808080" begin="zoomplus.mouseover" end="zoomplus.mouseout"/></use>
    <path d="M-4,0h8M0,-4v8" fill="none" stroke="white" stroke-width="1.5" pointer-events="none"/>
  </g>
  <g id="zoomMin">
    <use xlink:href="#rim" fill="#404040"><set attributeName="fill" to="#808080" begin="zoomminus.mouseover" end="zoomminus.mouseout"/></use>
    <path d="M-4,0h8" fill="none" stroke="white" stroke-width="1.5" pointer-events="none"/>
  </g>
  <g id="arrowUp" transform="translate(30 24)">
    <use xlink:href="#rim"/>
    <path pointer-events="none" fill="none" stroke="white" stroke-width="1.5" d="M0,-3.0v7 M-2.5,-0.5L0,-3.0L2.5,-0.5"/>
  </g>
  <g id="arrowRight" transform="rotate(90) translate(36 -43)">
    <use xlink:href="#rim"/>
    <path pointer-events="none" fill="none" stroke="white" stroke-width="1.5" d="M0,-3.0v7 M-2.5,-0.5L0,-3.0L2.5,-0.5"/>
  </g>
  <g id="arrowDown" transform="rotate(180) translate(-30 -48)">
    <use xlink:href="#rim"/>
    <path pointer-events="none" fill="none" stroke="white" stroke-width="1.5" d="M0,-3.0v7 M-2.5,-0.5L0,-3.0L2.5,-0.5"/>
  </g>
  <g id="arrowLeft" transform="rotate(270) translate(-36 17)">
    <use xlink:href="#rim"/>
    <path pointer-events="none" fill="none" stroke="white" stroke-width="1.5" d="M0,-3.0v7 M-2.5,-0.5L0,-3.0L2.5,-0.5"/>
  </g>
  <g id="resetDef">
    <use xlink:href="#rim2" fill="#404040"><set attributeName="fill" to="#808080" begin="reset.mouseover" end="reset.mouseout"/></use>
  </g>
</defs>
<script type="application/ecmascript">
var viewWidth = 1799;
var viewHeight = 379;
var sectionId = 'dynsection-1';
</script>
<script type="application/ecmascript" xlink:href="svg.min.js"/>
<svg id="graph" class="graph">
<g id="viewport">
<title>solver_interface.h</title>
<!-- Node1 -->
<g id="Node000001" class="node">
<title>Node1</title>
<g id="a_Node000001"><a xlink:title="Interface and wrapper to matrix/factorization (ladel) functions.">
<polygon fill="#999999" stroke="#666666" points="325.17,-371 221.17,-371 221.17,-352 325.17,-352 325.17,-371"/>
<text text-anchor="middle" x="273.17" y="-359" font-family="Helvetica,sans-Serif" font-size="10.00">solver_interface.h</text>
</a>
</g>
</g>
<!-- Node2 -->
<g id="Node000002" class="node">
<title>Node2</title>
<g id="a_Node000002"><a xlink:href="iteration_8c.html" target="_top" xlink:title="QPALM main solver routines.">
<polygon fill="white" stroke="#666666" points="182.17,-255.5 22.17,-255.5 22.17,-225.5 182.17,-225.5 182.17,-255.5"/>
<text text-anchor="start" x="30.17" y="-243.5" font-family="Helvetica,sans-Serif" font-size="10.00">/home/runner/work/QPALM</text>
<text text-anchor="middle" x="102.17" y="-232.5" font-family="Helvetica,sans-Serif" font-size="10.00">/QPALM/QPALM/src/iteration.c</text>
</a>
</g>
</g>
<!-- Node1&#45;&gt;Node2 -->
<g id="edge1_Node000001_Node000002" class="edge">
<title>Node1&#45;&gt;Node2</title>
<g id="a_edge1_Node000001_Node000002"><a xlink:title=" ">
<path fill="none" stroke="#63b8ff" d="M252.42,-346.06C219.32,-323.02 154.99,-278.26 122.29,-255.5"/>
<polygon fill="#63b8ff" stroke="#63b8ff" points="250.67,-349.1 260.87,-351.94 254.66,-343.36 250.67,-349.1"/>
</a>
</g>
</g>
<!-- Node3 -->
<g id="Node000003" class="node">
<title>Node3</title>
<g id="a_Node000003"><a xlink:href="qpalm_8c.html" target="_top" xlink:title="QPALM main solver API.">
<polygon fill="white" stroke="#666666" points="674.67,-112.5 525.67,-112.5 525.67,-82.5 674.67,-82.5 674.67,-112.5"/>
<text text-anchor="start" x="533.67" y="-100.5" font-family="Helvetica,sans-Serif" font-size="10.00">/home/runner/work/QPALM</text>
<text text-anchor="middle" x="600.17" y="-89.5" font-family="Helvetica,sans-Serif" font-size="10.00">/QPALM/QPALM/src/qpalm.c</text>
</a>
</g>
</g>
<!-- Node1&#45;&gt;Node3 -->
<g id="edge2_Node000001_Node000003" class="edge">
<title>Node1&#45;&gt;Node3</title>
<g id="a_edge2_Node000001_Node000003"><a xlink:title=" ">
<path fill="none" stroke="#63b8ff" d="M210.82,-351.13C116.15,-334.31 -46.84,-293.71 13.17,-220 77.03,-141.57 382.32,-112.19 525.6,-102.6"/>
<polygon fill="#63b8ff" stroke="#63b8ff" points="210.43,-354.61 220.88,-352.87 211.63,-347.71 210.43,-354.61"/>
</a>
</g>
</g>
<!-- Node4 -->
<g id="Node000004" class="node">
<title>Node4</title>
<g id="a_Node000004"><a xlink:href="solver__interface_8c.html" target="_top" xlink:title="Interface and wrapper to matrix/factorization (ladel) functions.">
<polygon fill="white" stroke="#666666" points="346.17,-261 200.17,-261 200.17,-220 346.17,-220 346.17,-261"/>
<text text-anchor="start" x="208.17" y="-249" font-family="Helvetica,sans-Serif" font-size="10.00">/home/runner/work/QPALM</text>
<text text-anchor="start" x="208.17" y="-238" font-family="Helvetica,sans-Serif" font-size="10.00">/QPALM/QPALM/src/solver</text>
<text text-anchor="middle" x="273.17" y="-227" font-family="Helvetica,sans-Serif" font-size="10.00">_interface.c</text>
</a>
</g>
</g>
<!-- Node1&#45;&gt;Node4 -->
<g id="edge3_Node000001_Node000004" class="edge">
<title>Node1&#45;&gt;Node4</title>
<g id="a_edge3_Node000001_Node000004"><a xlink:title=" ">
<path fill="none" stroke="#63b8ff" d="M273.17,-341.93C273.17,-319.97 273.17,-283.59 273.17,-261.17"/>
<polygon fill="#63b8ff" stroke="#63b8ff" points="269.67,-341.94 273.17,-351.94 276.67,-341.94 269.67,-341.94"/>
</a>
</g>
</g>
<!-- Node5 -->
<g id="Node000005" class="node">
<title>Node5</title>
<g id="a_Node000005"><a xlink:href="lin__alg_8h.html" target="_top" xlink:title="Linear algebra with vectors.">
<polygon fill="white" stroke="#666666" points="737.17,-316 679.17,-316 679.17,-297 737.17,-297 737.17,-316"/>
<text text-anchor="middle" x="708.17" y="-304" font-family="Helvetica,sans-Serif" font-size="10.00">lin_alg.h</text>
</a>
</g>
</g>
<!-- Node1&#45;&gt;Node5 -->
<g id="edge4_Node000001_Node000005" class="edge">
<title>Node1&#45;&gt;Node5</title>
<g id="a_edge4_Node000001_Node000005"><a xlink:title=" ">
<path fill="none" stroke="#63b8ff" d="M335.29,-352.93C430.61,-341.32 609.24,-319.55 679.11,-311.04"/>
<polygon fill="#63b8ff" stroke="#63b8ff" points="334.71,-349.48 325.21,-354.16 335.56,-356.42 334.71,-349.48"/>
</a>
</g>
</g>
<!-- Node14 -->
<g id="Node000014" class="node">
<title>Node14</title>
<g id="a_Node000014"><a xlink:href="qpalm_8h.html" target="_top" xlink:title="QPALM main solver API.">
<polygon fill="white" stroke="#666666" points="901.17,-178.5 845.17,-178.5 845.17,-159.5 901.17,-159.5 901.17,-178.5"/>
<text text-anchor="middle" x="873.17" y="-166.5" font-family="Helvetica,sans-Serif" font-size="10.00">qpalm.h</text>
</a>
</g>
</g>
<!-- Node1&#45;&gt;Node14 -->
<g id="edge25_Node000001_Node000014" class="edge">
<title>Node1&#45;&gt;Node14</title>
<g id="a_edge25_Node000001_Node000014"><a xlink:title=" ">
<path fill="none" stroke="#63b8ff" d="M335.63,-358.74C614.11,-350.59 1730.96,-314.63 1781.17,-261 1793.63,-247.7 1793.7,-233.23 1781.17,-220 1750.17,-187.25 1051.11,-173.13 901.28,-170.47"/>
<polygon fill="#63b8ff" stroke="#63b8ff" points="335.21,-355.25 325.31,-359.04 335.41,-362.25 335.21,-355.25"/>
</a>
</g>
</g>
<!-- Node5&#45;&gt;Node2 -->
<g id="edge5_Node000005_Node000002" class="edge">
<title>Node5&#45;&gt;Node2</title>
<g id="a_edge5_Node000005_Node000002"><a xlink:title=" ">
<path fill="none" stroke="#63b8ff" d="M668.99,-303.87C582.4,-299.88 368.37,-287.92 191.17,-261 181.48,-259.53 171.26,-257.62 161.33,-255.58"/>
<polygon fill="#63b8ff" stroke="#63b8ff" points="669,-307.37 679.15,-304.32 669.32,-300.38 669,-307.37"/>
</a>
</g>
</g>
<!-- Node5&#45;&gt;Node3 -->
<g id="edge10_Node000005_Node000003" class="edge">
<title>Node5&#45;&gt;Node3</title>
<g id="a_edge10_Node000005_Node000003"><a xlink:title=" ">
<path fill="none" stroke="#63b8ff" d="M669.19,-298.65C645.2,-292.56 615.45,-281.32 596.17,-261 562.49,-225.5 558.17,-201.44 570.17,-154 573.99,-138.92 582.8,-123.49 589.89,-112.75"/>
<polygon fill="#63b8ff" stroke="#63b8ff" points="668.54,-302.1 679.07,-300.96 670.13,-295.28 668.54,-302.1"/>
</a>
</g>
</g>
<!-- Node5&#45;&gt;Node4 -->
<g id="edge12_Node000005_Node000004" class="edge">
<title>Node5&#45;&gt;Node4</title>
<g id="a_edge12_Node000005_Node000004"><a xlink:title=" ">
<path fill="none" stroke="#63b8ff" d="M668.43,-301.9C602.85,-295.65 468.01,-281.47 355.17,-261 352.29,-260.48 349.36,-259.92 346.41,-259.33"/>
<polygon fill="#63b8ff" stroke="#63b8ff" points="668.44,-305.42 678.72,-302.87 669.09,-298.45 668.44,-305.42"/>
</a>
</g>
</g>
<!-- Node6 -->
<g id="Node000006" class="node">
<title>Node6</title>
<g id="a_Node000006"><a xlink:href="lin__alg_8c.html" target="_top" xlink:title="Linear algebra with vectors.">
<polygon fill="white" stroke="#666666" points="845.67,-255.5 694.67,-255.5 694.67,-225.5 845.67,-225.5 845.67,-255.5"/>
<text text-anchor="start" x="702.67" y="-243.5" font-family="Helvetica,sans-Serif" font-size="10.00">/home/runner/work/QPALM</text>
<text text-anchor="middle" x="770.17" y="-232.5" font-family="Helvetica,sans-Serif" font-size="10.00">/QPALM/QPALM/src/lin_alg.c</text>
</a>
</g>
</g>
<!-- Node5&#45;&gt;Node6 -->
<g id="edge6_Node000005_Node000006" class="edge">
<title>Node5&#45;&gt;Node6</title>
<g id="a_edge6_Node000005_Node000006"><a xlink:title=" ">
<path fill="none" stroke="#63b8ff" d="M723.52,-289.66C733.55,-279.31 746.53,-265.9 756.26,-255.86"/>
<polygon fill="#63b8ff" stroke="#63b8ff" points="720.98,-287.25 716.53,-296.87 726,-292.12 720.98,-287.25"/>
</a>
</g>
</g>
<!-- Node7 -->
<g id="Node000007" class="node">
<title>Node7</title>
<g id="a_Node000007"><a xlink:href="linesearch_8c.html" target="_top" xlink:title="Routines to perform exact or backtracking linesearch.">
<polygon fill="white" stroke="#666666" points="1032.67,-255.5 863.67,-255.5 863.67,-225.5 1032.67,-225.5 1032.67,-255.5"/>
<text text-anchor="start" x="871.67" y="-243.5" font-family="Helvetica,sans-Serif" font-size="10.00">/home/runner/work/QPALM</text>
<text text-anchor="middle" x="948.17" y="-232.5" font-family="Helvetica,sans-Serif" font-size="10.00">/QPALM/QPALM/src/linesearch.c</text>
</a>
</g>
</g>
<!-- Node5&#45;&gt;Node7 -->
<g id="edge7_Node000005_Node000007" class="edge">
<title>Node5&#45;&gt;Node7</title>
<g id="a_edge7_Node000005_Node000007"><a xlink:title=" ">
<path fill="none" stroke="#63b8ff" d="M747.32,-295.06C787.58,-284.32 850.54,-267.54 895.22,-255.62"/>
<polygon fill="#63b8ff" stroke="#63b8ff" points="746.36,-291.69 737.6,-297.65 748.16,-298.46 746.36,-291.69"/>
</a>
</g>
</g>
<!-- Node8 -->
<g id="Node000008" class="node">
<title>Node8</title>
<g id="a_Node000008"><a xlink:href="newton_8c.html" target="_top" xlink:title="Functions to calculate the semismooth Newton direction.">
<polygon fill="white" stroke="#666666" points="1205.67,-255.5 1050.67,-255.5 1050.67,-225.5 1205.67,-225.5 1205.67,-255.5"/>
<text text-anchor="start" x="1058.67" y="-243.5" font-family="Helvetica,sans-Serif" font-size="10.00">/home/runner/work/QPALM</text>
<text text-anchor="middle" x="1128.17" y="-232.5" font-family="Helvetica,sans-Serif" font-size="10.00">/QPALM/QPALM/src/newton.c</text>
</a>
</g>
</g>
<!-- Node5&#45;&gt;Node8 -->
<g id="edge8_Node000005_Node000008" class="edge">
<title>Node5&#45;&gt;Node8</title>
<g id="a_edge8_Node000005_Node000008"><a xlink:title=" ">
<path fill="none" stroke="#63b8ff" d="M747.57,-301.42C810.22,-294.67 936.31,-280.01 1042.17,-261 1051.06,-259.4 1060.42,-257.51 1069.56,-255.53"/>
<polygon fill="#63b8ff" stroke="#63b8ff" points="746.92,-297.97 737.35,-302.51 747.66,-304.93 746.92,-297.97"/>
</a>
</g>
</g>
<!-- Node9 -->
<g id="Node000009" class="node">
<title>Node9</title>
<g id="a_Node000009"><a xlink:href="nonconvex_8c.html" target="_top" xlink:title="Routines to deal with nonconvex QPs.">
<polygon fill="white" stroke="#666666" points="1396.17,-255.5 1224.17,-255.5 1224.17,-225.5 1396.17,-225.5 1396.17,-255.5"/>
<text text-anchor="start" x="1232.17" y="-243.5" font-family="Helvetica,sans-Serif" font-size="10.00">/home/runner/work/QPALM</text>
<text text-anchor="middle" x="1310.17" y="-232.5" font-family="Helvetica,sans-Serif" font-size="10.00">/QPALM/QPALM/src/nonconvex.c</text>
</a>
</g>
</g>
<!-- Node5&#45;&gt;Node9 -->
<g id="edge9_Node000005_Node000009" class="edge">
<title>Node5&#45;&gt;Node9</title>
<g id="a_edge9_Node000005_Node000009"><a xlink:title=" ">
<path fill="none" stroke="#63b8ff" d="M747.18,-303.61C832.44,-299.14 1041.64,-286.34 1215.17,-261 1225.5,-259.49 1236.4,-257.57 1246.98,-255.52"/>
<polygon fill="#63b8ff" stroke="#63b8ff" points="746.98,-300.11 737.17,-304.12 747.34,-307.1 746.98,-300.11"/>
</a>
</g>
</g>
<!-- Node10 -->
<g id="Node000010" class="node">
<title>Node10</title>
<g id="a_Node000010"><a xlink:href="scaling_8c.html" target="_top" xlink:title="Problem data scaling during setup.">
<polygon fill="white" stroke="#666666" points="731.67,-184 578.67,-184 578.67,-154 731.67,-154 731.67,-184"/>
<text text-anchor="start" x="586.67" y="-172" font-family="Helvetica,sans-Serif" font-size="10.00">/home/runner/work/QPALM</text>
<text text-anchor="middle" x="655.17" y="-161" font-family="Helvetica,sans-Serif" font-size="10.00">/QPALM/QPALM/src/scaling.c</text>
</a>
</g>
</g>
<!-- Node5&#45;&gt;Node10 -->
<g id="edge11_Node000005_Node000010" class="edge">
<title>Node5&#45;&gt;Node10</title>
<g id="a_edge11_Node000005_Node000010"><a xlink:title=" ">
<path fill="none" stroke="#63b8ff" d="M669.23,-299.06C646.99,-293.18 620.88,-282.02 607.17,-261 597.22,-245.74 600.37,-236.91 607.17,-220 612.92,-205.71 624.92,-193.21 635.48,-184.28"/>
<polygon fill="#63b8ff" stroke="#63b8ff" points="668.57,-302.51 679.11,-301.41 670.19,-295.7 668.57,-302.51"/>
</a>
</g>
</g>
<!-- Node11 -->
<g id="Node000011" class="node">
<title>Node11</title>
<g id="a_Node000011"><a xlink:href="termination_8c.html" target="_top" xlink:title="Routines to check the termination and infeasibility criteria.">
<polygon fill="white" stroke="#666666" points="1590.17,-255.5 1414.17,-255.5 1414.17,-225.5 1590.17,-225.5 1590.17,-255.5"/>
<text text-anchor="start" x="1422.17" y="-243.5" font-family="Helvetica,sans-Serif" font-size="10.00">/home/runner/work/QPALM</text>
<text text-anchor="middle" x="1502.17" y="-232.5" font-family="Helvetica,sans-Serif" font-size="10.00">/QPALM/QPALM/src/termination.c</text>
</a>
</g>
</g>
<!-- Node5&#45;&gt;Node11 -->
<g id="edge13_Node000005_Node000011" class="edge">
<title>Node5&#45;&gt;Node11</title>
<g id="a_edge13_Node000005_Node000011"><a xlink:title=" ">
<path fill="none" stroke="#63b8ff" d="M747.44,-304.84C853.8,-302.66 1156.17,-293.83 1405.17,-261 1416.07,-259.56 1427.58,-257.63 1438.72,-255.53"/>
<polygon fill="#63b8ff" stroke="#63b8ff" points="747.12,-301.35 737.19,-305.04 747.26,-308.35 747.12,-301.35"/>
</a>
</g>
</g>
<!-- Node12 -->
<g id="Node000012" class="node">
<title>Node12</title>
<g id="a_Node000012"><a xlink:href="util_8c.html" target="_top" xlink:title="Utility functions.">
<polygon fill="white" stroke="#666666" points="1754.17,-255.5 1608.17,-255.5 1608.17,-225.5 1754.17,-225.5 1754.17,-255.5"/>
<text text-anchor="start" x="1616.17" y="-243.5" font-family="Helvetica,sans-Serif" font-size="10.00">/home/runner/work/QPALM</text>
<text text-anchor="middle" x="1681.17" y="-232.5" font-family="Helvetica,sans-Serif" font-size="10.00">/QPALM/QPALM/src/util.c</text>
</a>
</g>
</g>
<!-- Node5&#45;&gt;Node12 -->
<g id="edge14_Node000005_Node000012" class="edge">
<title>Node5&#45;&gt;Node12</title>
<g id="a_edge14_Node000005_Node000012"><a xlink:title=" ">
<path fill="none" stroke="#63b8ff" d="M747.43,-306.1C872.49,-307.46 1272.52,-307.59 1599.17,-261 1608.73,-259.64 1618.81,-257.68 1628.51,-255.53"/>
<polygon fill="#63b8ff" stroke="#63b8ff" points="747.24,-302.6 737.2,-305.98 747.16,-309.59 747.24,-302.6"/>
</a>
</g>
</g>
<!-- Node13 -->
<g id="Node000013" class="node">
<title>Node13</title>
<g id="a_Node000013"><a xlink:href="validate_8c.html" target="_top" xlink:title="Validation of the user provided settings and data.">
<polygon fill="white" stroke="#666666" points="522.17,-255.5 364.17,-255.5 364.17,-225.5 522.17,-225.5 522.17,-255.5"/>
<text text-anchor="start" x="372.17" y="-243.5" font-family="Helvetica,sans-Serif" font-size="10.00">/home/runner/work/QPALM</text>
<text text-anchor="middle" x="443.17" y="-232.5" font-family="Helvetica,sans-Serif" font-size="10.00">/QPALM/QPALM/src/validate.c</text>
</a>
</g>
</g>
<!-- Node5&#45;&gt;Node13 -->
<g id="edge15_Node000005_Node000013" class="edge">
<title>Node5&#45;&gt;Node13</title>
<g id="a_edge15_Node000005_Node000013"><a xlink:title=" ">
<path fill="none" stroke="#63b8ff" d="M669.25,-296.1C624.96,-285.4 552.19,-267.83 501.21,-255.52"/>
<polygon fill="#63b8ff" stroke="#63b8ff" points="668.51,-299.52 679.05,-298.47 670.15,-292.72 668.51,-299.52"/>
</a>
</g>
</g>
<!-- Node5&#45;&gt;Node14 -->
<g id="edge16_Node000005_Node000014" class="edge">
<title>Node5&#45;&gt;Node14</title>
<g id="a_edge16_Node000005_Node000014"><a xlink:title=" ">
<path fill="none" stroke="#63b8ff" d="M747.4,-305.35C934.36,-304.43 1727.37,-298.34 1763.17,-261 1775.78,-247.85 1775.69,-233.24 1763.17,-220 1732.84,-187.91 1049.09,-173.3 901.21,-170.5"/>
<polygon fill="#63b8ff" stroke="#63b8ff" points="747.19,-301.85 737.21,-305.39 747.22,-308.85 747.19,-301.85"/>
</a>
</g>
</g>
<!-- Node18 -->
<g id="Node000018" class="node">
<title>Node18</title>
<g id="a_Node000018"><a xlink:href="scaling_8h.html" target="_top" xlink:title="Problem data scaling during setup.">
<polygon fill="white" stroke="#666666" points="676.17,-250 616.17,-250 616.17,-231 676.17,-231 676.17,-250"/>
<text text-anchor="middle" x="646.17" y="-238" font-family="Helvetica,sans-Serif" font-size="10.00">scaling.h</text>
</a>
</g>
</g>
<!-- Node5&#45;&gt;Node18 -->
<g id="edge21_Node000005_Node000018" class="edge">
<title>Node5&#45;&gt;Node18</title>
<g id="a_edge21_Node000005_Node000018"><a xlink:title=" ">
<path fill="none" stroke="#63b8ff" d="M692.65,-289.48C680.68,-277.12 664.57,-260.49 654.8,-250.41"/>
<polygon fill="#63b8ff" stroke="#63b8ff" points="690.34,-292.12 699.81,-296.87 695.37,-287.25 690.34,-292.12"/>
</a>
</g>
</g>
<!-- Node14&#45;&gt;Node3 -->
<g id="edge20_Node000014_Node000003" class="edge">
<title>Node14&#45;&gt;Node3</title>
<g id="a_edge20_Node000014_Node000003"><a xlink:title=" ">
<path fill="none" stroke="#63b8ff" d="M835.25,-158.35C788.52,-146.45 708.74,-126.14 655.25,-112.52"/>
<polygon fill="#63b8ff" stroke="#63b8ff" points="834.43,-161.75 844.98,-160.82 836.16,-154.97 834.43,-161.75"/>
</a>
</g>
</g>
<!-- Node15 -->
<g id="Node000015" class="node">
<title>Node15</title>
<g id="a_Node000015"><a xlink:href="qpalm_8cpp.html" target="_top" xlink:title=" ">
<polygon fill="white" stroke="#666666" points="892.17,-118 746.17,-118 746.17,-77 892.17,-77 892.17,-118"/>
<text text-anchor="start" x="754.17" y="-106" font-family="Helvetica,sans-Serif" font-size="10.00">/home/runner/work/QPALM</text>
<text text-anchor="start" x="754.17" y="-95" font-family="Helvetica,sans-Serif" font-size="10.00">/QPALM/QPALM/interfaces</text>
<text text-anchor="middle" x="819.17" y="-84" font-family="Helvetica,sans-Serif" font-size="10.00">/cxx/src/qpalm.cpp</text>
</a>
</g>
</g>
<!-- Node14&#45;&gt;Node15 -->
<g id="edge17_Node000014_Node000015" class="edge">
<title>Node14&#45;&gt;Node15</title>
<g id="a_edge17_Node000014_Node000015"><a xlink:title=" ">
<path fill="none" stroke="#63b8ff" d="M860.39,-151.54C852.61,-141.54 842.64,-128.71 834.46,-118.17"/>
<polygon fill="#63b8ff" stroke="#63b8ff" points="857.65,-153.73 866.55,-159.48 863.18,-149.43 857.65,-153.73"/>
</a>
</g>
</g>
<!-- Node16 -->
<g id="Node000016" class="node">
<title>Node16</title>
<g id="a_Node000016"><a xlink:href="qpalm__fortran_8h.html" target="_top" xlink:title=" ">
<polygon fill="white" stroke="#666666" points="1056.17,-118 910.17,-118 910.17,-77 1056.17,-77 1056.17,-118"/>
<text text-anchor="start" x="918.17" y="-106" font-family="Helvetica,sans-Serif" font-size="10.00">/home/runner/work/QPALM</text>
<text text-anchor="start" x="918.17" y="-95" font-family="Helvetica,sans-Serif" font-size="10.00">/QPALM/QPALM/interfaces</text>
<text text-anchor="middle" x="983.17" y="-84" font-family="Helvetica,sans-Serif" font-size="10.00">/fortran/qpalm_fortran.h</text>
</a>
</g>
</g>
<!-- Node14&#45;&gt;Node16 -->
<g id="edge18_Node000014_Node000016" class="edge">
<title>Node14&#45;&gt;Node16</title>
<g id="a_edge18_Node000014_Node000016"><a xlink:title=" ">
<path fill="none" stroke="#63b8ff" d="M895.47,-153.91C911.74,-143.63 934.01,-129.56 952.04,-118.17"/>
<polygon fill="#63b8ff" stroke="#63b8ff" points="893.24,-151.18 886.66,-159.48 896.98,-157.1 893.24,-151.18"/>
</a>
</g>
</g>
<!-- Node17 -->
<g id="Node000017" class="node">
<title>Node17</title>
<g id="a_Node000017"><a xlink:href="qpalm__fortran_8c.html" target="_top" xlink:title=" ">
<polygon fill="white" stroke="#666666" points="1056.17,-41 910.17,-41 910.17,0 1056.17,0 1056.17,-41"/>
<text text-anchor="start" x="918.17" y="-29" font-family="Helvetica,sans-Serif" font-size="10.00">/home/runner/work/QPALM</text>
<text text-anchor="start" x="918.17" y="-18" font-family="Helvetica,sans-Serif" font-size="10.00">/QPALM/QPALM/interfaces</text>
<text text-anchor="middle" x="983.17" y="-7" font-family="Helvetica,sans-Serif" font-size="10.00">/fortran/qpalm_fortran.c</text>
</a>
</g>
</g>
<!-- Node16&#45;&gt;Node17 -->
<g id="edge19_Node000016_Node000017" class="edge">
<title>Node16&#45;&gt;Node17</title>
<g id="a_edge19_Node000016_Node000017"><a xlink:title=" ">
<path fill="none" stroke="#63b8ff" d="M983.17,-66.69C983.17,-58.08 983.17,-48.9 983.17,-41.07"/>
<polygon fill="#63b8ff" stroke="#63b8ff" points="979.67,-66.79 983.17,-76.79 986.67,-66.79 979.67,-66.79"/>
</a>
</g>
</g>
<!-- Node18&#45;&gt;Node3 -->
<g id="edge22_Node000018_Node000003" class="edge">
<title>Node18&#45;&gt;Node3</title>
<g id="a_edge22_Node000018_Node000003"><a xlink:title=" ">
<path fill="none" stroke="#63b8ff" d="M671.93,-226.16C698.69,-212.04 737.24,-190.85 741.17,-184 747.81,-172.44 748.68,-165.02 741.17,-154 725.92,-131.6 700.11,-118.25 674.72,-110.28"/>
<polygon fill="#63b8ff" stroke="#63b8ff" points="670.26,-223.09 663.03,-230.83 673.51,-229.29 670.26,-223.09"/>
</a>
</g>
</g>
<!-- Node18&#45;&gt;Node10 -->
<g id="edge23_Node000018_Node000010" class="edge">
<title>Node18&#45;&gt;Node10</title>
<g id="a_edge23_Node000018_Node000010"><a xlink:title=" ">
<path fill="none" stroke="#63b8ff" d="M648.6,-220.71C650.1,-209.19 651.98,-194.68 653.34,-184.14"/>
<polygon fill="#63b8ff" stroke="#63b8ff" points="645.09,-220.61 647.27,-230.98 652.03,-221.51 645.09,-220.61"/>
</a>
</g>
</g>
<!-- Node18&#45;&gt;Node14 -->
<g id="edge24_Node000018_Node000014" class="edge">
<title>Node18&#45;&gt;Node14</title>
<g id="a_edge24_Node000018_Node000014"><a xlink:title=" ">
<path fill="none" stroke="#63b8ff" d="M671.19,-226.4C676.08,-224.09 681.23,-221.84 686.17,-220 741.11,-199.48 808.04,-183.7 845.08,-175.74"/>
<polygon fill="#63b8ff" stroke="#63b8ff" points="669.64,-223.26 662.21,-230.81 672.73,-229.54 669.64,-223.26"/>
</a>
</g>
</g>
</g>
</svg>

<g id="navigator" transform="translate(0 0)" fill="#404254">
  <rect fill="#f2f5e9" fill-opacity="0.5" stroke="#606060" stroke-width=".5" x="0" y="0" width="60" height="60"/>
  <use id="zoomplus" xlink:href="#zoomPlus" x="17" y="9" onmousedown="handleZoom(evt,'in')"/>
  <use id="zoomminus" xlink:href="#zoomMin" x="42" y="9" onmousedown="handleZoom(evt,'out')"/>
  <use id="reset" xlink:href="#resetDef" x="30" y="36" onmousedown="handleReset()"/>
   <use id="arrowup" xlink:href="#arrowUp" x="0" y="0" onmousedown="handlePan(0,-1)"/>
  <use id="arrowright" xlink:href="#arrowRight" x="0" y="0" onmousedown="handlePan(1,0)"/>
  <use id="arrowdown" xlink:href="#arrowDown" x="0" y="0" onmousedown="handlePan(0,1)"/>
  <use id="arrowleft" xlink:href="#arrowLeft" x="0" y="0" onmousedown="handlePan(-1,0)"/>
</g>
<svg viewBox="0 0 15 15" width="100%" height="30px" preserveAspectRatio="xMaxYMin meet">
 <g id="arrow_out" transform="scale(0.3 0.3)">
  <a xlink:href="solver__interface_8h__dep__incl_org.svg" target="_base">
   <rect id="button" ry="5" rx="5" y="6" x="6" height="38" width="38"
        fill="#f2f5e9" fill-opacity="0.5" stroke="#606060" stroke-width="1.0"/>
   <path id="arrow"
     d="M 11.500037,31.436501 C 11.940474,20.09759 22.043105,11.32322 32.158766,21.979434 L 37.068811,17.246167 C 37.068811,17.246167 37.088388,32 37.088388,32 L 22.160133,31.978069 C 22.160133,31.978069 26.997745,27.140456 26.997745,27.140456 C 18.528582,18.264221 13.291696,25.230495 11.500037,31.436501 z"
     style="fill:#404040;"/>
  </a>
 </g>
</svg>

<style type='text/css'>
<![CDATA[
[data-mouse-over-selected='false'] { opacity: 0.7; }
[data-mouse-over-selected='true']  { opacity: 1.0; }
]]>
</style>
<script type="application/ecmascript"><![CDATA[
document.addEventListener('DOMContentLoaded', (event) => {
  highlightEdges();
  highlightAdjacentNodes();
});
]]></script>
</svg>
