<?xml version="1.0" encoding="UTF-8" standalone="no"?>
<!DOCTYPE svg PUBLIC "-//W3C//DTD SVG 1.1//EN"
 "http://www.w3.org/Graphics/SVG/1.1/DTD/svg11.dtd">
<!-- Generated by graphviz version 2.43.0 (0)
 -->
<!-- Title: /home/runner/work/QPALM/QPALM/QPALM/src/solver_interface.c Pages: 1 -->
<svg width="339pt" height="324pt"
 viewBox="0.00 0.00 339.23 324.00" xmlns="http://www.w3.org/2000/svg" xmlns:xlink="http://www.w3.org/1999/xlink">

<svg id="main" version="1.1" xmlns="http://www.w3.org/2000/svg" xmlns:xlink="http://www.w3.org/1999/xlink" xml:space="preserve" onload="init(evt)">
<style type="text/css"><![CDATA[
.node, .edge {opacity: 0.7;}
.node.selected, .edge.selected {opacity: 1;}
.edge:hover path { stroke: red; }
.edge:hover polygon { stroke: red; fill: red; }
]]></style>
<script type="application/ecmascript" xlink:href="svg.min.js"/>
<svg id="graph" class="graph">
<g id="graph0" class="graph" transform="scale(1 1) rotate(0) translate(4 320)">
<title>/home/runner/work/QPALM/QPALM/QPALM/src/solver_interface.c</title>
<!-- Node1 -->
<g id="Node000001" class="node">
<title>Node1</title>
<g id="a_Node000001"><a xlink:title="Interface and wrapper to matrix/factorization (ladel) functions.">
<polygon fill="#999999" stroke="#666666" points="290.23,-316 144.23,-316 144.23,-275 290.23,-275 290.23,-316"/>
<text text-anchor="start" x="152.23" y="-304" font-family="Helvetica,sans-Serif" font-size="10.00">/home/runner/work/QPALM</text>
<text text-anchor="start" x="152.23" y="-293" font-family="Helvetica,sans-Serif" font-size="10.00">/QPALM/QPALM/src/solver</text>
<text text-anchor="middle" x="217.23" y="-282" font-family="Helvetica,sans-Serif" font-size="10.00">_interface.c</text>
</a>
</g>
</g>
<!-- Node2 -->
<g id="Node000002" class="node">
<title>Node2</title>
<g id="a_Node000002"><a xlink:href="lin__alg_8h.html" target="_top" xlink:title="Linear algebra with vectors.">
<polygon fill="white" stroke="#666666" points="152.23,-239 94.23,-239 94.23,-220 152.23,-220 152.23,-239"/>
<text text-anchor="middle" x="123.23" y="-227" font-family="Helvetica,sans-Serif" font-size="10.00">lin_alg.h</text>
</a>
</g>
</g>
<!-- Node1&#45;&gt;Node2 -->
<g id="edge1_Node000001_Node000002" class="edge">
<title>Node1&#45;&gt;Node2</title>
<g id="a_edge1_Node000001_Node000002"><a xlink:title=" ">
<path fill="none" stroke="#63b8ff" d="M188.52,-274.95C174.31,-265.27 157.45,-253.8 144.43,-244.93"/>
<polygon fill="#63b8ff" stroke="#63b8ff" points="146.34,-242 136.1,-239.26 142.4,-247.78 146.34,-242"/>
</a>
</g>
</g>
<!-- Node5 -->
<g id="Node000005" class="node">
<title>Node5</title>
<g id="a_Node000005"><a xlink:title=" ">
<polygon fill="#e0e0e0" stroke="#999999" points="148.23,-19 98.23,-19 98.23,0 148.23,0 148.23,-19"/>
<text text-anchor="middle" x="123.23" y="-7" font-family="Helvetica,sans-Serif" font-size="10.00">ladel.h</text>
</a>
</g>
</g>
<!-- Node1&#45;&gt;Node5 -->
<g id="edge15_Node000001_Node000005" class="edge">
<title>Node1&#45;&gt;Node5</title>
<g id="a_edge15_Node000001_Node000005"><a xlink:title=" ">
<path fill="none" stroke="#63b8ff" d="M227.07,-274.84C237.73,-251.68 253.23,-211.76 253.23,-175.5 253.23,-175.5 253.23,-175.5 253.23,-118.5 253.23,-89.04 254.1,-76.75 234.23,-55 214.51,-33.4 182.88,-22.1 158.42,-16.3"/>
<polygon fill="#63b8ff" stroke="#63b8ff" points="158.95,-12.83 148.43,-14.14 157.47,-19.68 158.95,-12.83"/>
</a>
</g>
</g>
<!-- Node7 -->
<g id="Node000007" class="node">
<title>Node7</title>
<g id="a_Node000007"><a xlink:href="solver__interface_8h.html" target="_top" xlink:title="Interface and wrapper to matrix/factorization (ladel) functions.">
<polygon fill="white" stroke="#666666" points="175.23,-184 71.23,-184 71.23,-165 175.23,-165 175.23,-184"/>
<text text-anchor="middle" x="123.23" y="-172" font-family="Helvetica,sans-Serif" font-size="10.00">solver_interface.h</text>
</a>
</g>
</g>
<!-- Node1&#45;&gt;Node7 -->
<g id="edge13_Node000001_Node000007" class="edge">
<title>Node1&#45;&gt;Node7</title>
<g id="a_edge13_Node000001_Node000007"><a xlink:title=" ">
<path fill="none" stroke="#63b8ff" d="M203.05,-274.95C191.92,-259.78 175.91,-238.31 161.23,-220 153.61,-210.49 144.78,-200.12 137.56,-191.78"/>
<polygon fill="#63b8ff" stroke="#63b8ff" points="140.18,-189.46 130.97,-184.23 134.91,-194.07 140.18,-189.46"/>
</a>
</g>
</g>
<!-- Node9 -->
<g id="Node000009" class="node">
<title>Node9</title>
<g id="a_Node000009"><a xlink:title=" ">
<polygon fill="#e0e0e0" stroke="#999999" points="331.23,-239 281.23,-239 281.23,-220 331.23,-220 331.23,-239"/>
<text text-anchor="middle" x="306.23" y="-227" font-family="Helvetica,sans-Serif" font-size="10.00">stdio.h</text>
</a>
</g>
</g>
<!-- Node1&#45;&gt;Node9 -->
<g id="edge14_Node000001_Node000009" class="edge">
<title>Node1&#45;&gt;Node9</title>
<g id="a_edge14_Node000001_Node000009"><a xlink:title=" ">
<path fill="none" stroke="#63b8ff" d="M244.42,-274.95C257.75,-265.37 273.53,-254.02 285.81,-245.19"/>
<polygon fill="#63b8ff" stroke="#63b8ff" points="287.98,-247.94 294.05,-239.26 283.89,-242.26 287.98,-247.94"/>
</a>
</g>
</g>
<!-- Node3 -->
<g id="Node000003" class="node">
<title>Node3</title>
<g id="a_Node000003"><a xlink:href="types_8h.html" target="_top" xlink:title="Internal data structures used in QPALM.">
<polygon fill="white" stroke="#666666" points="56.73,-129 3.73,-129 3.73,-110 56.73,-110 56.73,-129"/>
<text text-anchor="middle" x="30.23" y="-117" font-family="Helvetica,sans-Serif" font-size="10.00">types.h</text>
</a>
</g>
</g>
<!-- Node2&#45;&gt;Node3 -->
<g id="edge2_Node000002_Node000003" class="edge">
<title>Node2&#45;&gt;Node3</title>
<g id="a_edge2_Node000002_Node000003"><a xlink:title=" ">
<path fill="none" stroke="#63b8ff" d="M107.59,-219.96C94.21,-212.03 75.13,-199.19 62.23,-184 50.76,-170.48 42.09,-152.15 36.69,-138.65"/>
<polygon fill="#63b8ff" stroke="#63b8ff" points="39.87,-137.18 33.06,-129.06 33.32,-139.65 39.87,-137.18"/>
</a>
</g>
</g>
<!-- Node2&#45;&gt;Node7 -->
<g id="edge7_Node000002_Node000007" class="edge">
<title>Node2&#45;&gt;Node7</title>
<g id="a_edge7_Node000002_Node000007"><a xlink:title=" ">
<path fill="none" stroke="#63b8ff" d="M123.23,-219.75C123.23,-212.8 123.23,-202.85 123.23,-194.13"/>
<polygon fill="#63b8ff" stroke="#63b8ff" points="126.73,-194.09 123.23,-184.09 119.73,-194.09 126.73,-194.09"/>
</a>
</g>
</g>
<!-- Node4 -->
<g id="Node000004" class="node">
<title>Node4</title>
<g id="a_Node000004"><a xlink:href="global__opts_8h.html" target="_top" xlink:title="Custom memory allocation, print and utility functions, and data types for floats and ints.">
<polygon fill="white" stroke="#666666" points="95.23,-74 13.23,-74 13.23,-55 95.23,-55 95.23,-74"/>
<text text-anchor="middle" x="54.23" y="-62" font-family="Helvetica,sans-Serif" font-size="10.00">global_opts.h</text>
</a>
</g>
</g>
<!-- Node3&#45;&gt;Node4 -->
<g id="edge3_Node000003_Node000004" class="edge">
<title>Node3&#45;&gt;Node4</title>
<g id="a_edge3_Node000003_Node000004"><a xlink:title=" ">
<path fill="none" stroke="#63b8ff" d="M34.2,-109.75C37.45,-102.57 42.15,-92.18 46.19,-83.27"/>
<polygon fill="#63b8ff" stroke="#63b8ff" points="49.41,-84.64 50.34,-74.09 43.03,-81.75 49.41,-84.64"/>
</a>
</g>
</g>
<!-- Node3&#45;&gt;Node5 -->
<g id="edge6_Node000003_Node000005" class="edge">
<title>Node3&#45;&gt;Node5</title>
<g id="a_edge6_Node000003_Node000005"><a xlink:title=" ">
<path fill="none" stroke="#63b8ff" d="M21.49,-109.69C9.83,-96.85 -7.99,-72.62 4.23,-55 9.29,-47.71 54.98,-32.01 88.24,-21.35"/>
<polygon fill="#63b8ff" stroke="#63b8ff" points="89.63,-24.58 98.1,-18.22 87.51,-17.91 89.63,-24.58"/>
</a>
</g>
</g>
<!-- Node4&#45;&gt;Node5 -->
<g id="edge4_Node000004_Node000005" class="edge">
<title>Node4&#45;&gt;Node5</title>
<g id="a_edge4_Node000004_Node000005"><a xlink:title=" ">
<path fill="none" stroke="#63b8ff" d="M65.32,-54.98C75.72,-47 91.49,-34.88 103.95,-25.31"/>
<polygon fill="#63b8ff" stroke="#63b8ff" points="106.15,-28.04 111.95,-19.17 101.88,-22.49 106.15,-28.04"/>
</a>
</g>
</g>
<!-- Node6 -->
<g id="Node000006" class="node">
<title>Node6</title>
<g id="a_Node000006"><a xlink:title=" ">
<polygon fill="#e0e0e0" stroke="#999999" points="79.73,-19 28.73,-19 28.73,0 79.73,0 79.73,-19"/>
<text text-anchor="middle" x="54.23" y="-7" font-family="Helvetica,sans-Serif" font-size="10.00">math.h</text>
</a>
</g>
</g>
<!-- Node4&#45;&gt;Node6 -->
<g id="edge5_Node000004_Node000006" class="edge">
<title>Node4&#45;&gt;Node6</title>
<g id="a_edge5_Node000004_Node000006"><a xlink:title=" ">
<path fill="none" stroke="#63b8ff" d="M54.23,-54.75C54.23,-47.8 54.23,-37.85 54.23,-29.13"/>
<polygon fill="#63b8ff" stroke="#63b8ff" points="57.73,-29.09 54.23,-19.09 50.73,-29.09 57.73,-29.09"/>
</a>
</g>
</g>
<!-- Node7&#45;&gt;Node3 -->
<g id="edge11_Node000007_Node000003" class="edge">
<title>Node7&#45;&gt;Node3</title>
<g id="a_edge11_Node000007_Node000003"><a xlink:title=" ">
<path fill="none" stroke="#63b8ff" d="M108.29,-164.98C93.73,-156.69 71.37,-143.94 54.3,-134.22"/>
<polygon fill="#63b8ff" stroke="#63b8ff" points="55.87,-131.08 45.45,-129.17 52.4,-137.16 55.87,-131.08"/>
</a>
</g>
</g>
<!-- Node7&#45;&gt;Node4 -->
<g id="edge8_Node000007_Node000004" class="edge">
<title>Node7&#45;&gt;Node4</title>
<g id="a_edge8_Node000007_Node000004"><a xlink:title=" ">
<path fill="none" stroke="#63b8ff" d="M117.59,-164.66C106.16,-146.77 80.11,-106 65.22,-82.69"/>
<polygon fill="#63b8ff" stroke="#63b8ff" points="68.1,-80.7 59.77,-74.16 62.2,-84.47 68.1,-80.7"/>
</a>
</g>
</g>
<!-- Node7&#45;&gt;Node5 -->
<g id="edge12_Node000007_Node000005" class="edge">
<title>Node7&#45;&gt;Node5</title>
<g id="a_edge12_Node000007_Node000005"><a xlink:title=" ">
<path fill="none" stroke="#63b8ff" d="M123.23,-164.74C123.23,-139.31 123.23,-65.08 123.23,-29.69"/>
<polygon fill="#63b8ff" stroke="#63b8ff" points="126.73,-29.31 123.23,-19.31 119.73,-29.31 126.73,-29.31"/>
</a>
</g>
</g>
<!-- Node8 -->
<g id="Node000008" class="node">
<title>Node8</title>
<g id="a_Node000008"><a xlink:href="constants_8h.html" target="_top" xlink:title="Constants used in QPALM.">
<polygon fill="white" stroke="#666666" points="224.73,-74 151.73,-74 151.73,-55 224.73,-55 224.73,-74"/>
<text text-anchor="middle" x="188.23" y="-62" font-family="Helvetica,sans-Serif" font-size="10.00">constants.h</text>
</a>
</g>
</g>
<!-- Node7&#45;&gt;Node8 -->
<g id="edge9_Node000007_Node000008" class="edge">
<title>Node7&#45;&gt;Node8</title>
<g id="a_edge9_Node000007_Node000008"><a xlink:title=" ">
<path fill="none" stroke="#63b8ff" d="M128.55,-164.66C139.27,-146.85 163.64,-106.37 177.7,-83.01"/>
<polygon fill="#63b8ff" stroke="#63b8ff" points="180.86,-84.53 183.02,-74.16 174.87,-80.92 180.86,-84.53"/>
</a>
</g>
</g>
<!-- Node8&#45;&gt;Node5 -->
<g id="edge10_Node000008_Node000005" class="edge">
<title>Node8&#45;&gt;Node5</title>
<g id="a_edge10_Node000008_Node000005"><a xlink:title=" ">
<path fill="none" stroke="#63b8ff" d="M177.79,-54.98C168.09,-47.07 153.42,-35.11 141.73,-25.58"/>
<polygon fill="#63b8ff" stroke="#63b8ff" points="143.83,-22.78 133.87,-19.17 139.41,-28.2 143.83,-22.78"/>
</a>
</g>
</g>
</g>
</svg>
</svg>

<style type='text/css'>
<![CDATA[
[data-mouse-over-selected='false'] { opacity: 0.7; }
[data-mouse-over-selected='true']  { opacity: 1.0; }
]]>
</style>
<script type="application/ecmascript"><![CDATA[
document.addEventListener('DOMContentLoaded', (event) => {
  highlightEdges();
  highlightAdjacentNodes();
});
]]></script>
</svg>
