<?xml version="1.0" encoding="UTF-8" standalone="no"?>
<!DOCTYPE svg PUBLIC "-//W3C//DTD SVG 1.1//EN"
 "http://www.w3.org/Graphics/SVG/1.1/DTD/svg11.dtd">
<!-- Generated by graphviz version 2.43.0 (0)
 -->
<!-- Title: /home/runner/work/QPALM/QPALM/QPALM/interfaces/cxx/src/sparse.cpp Pages: 1 -->
<svg width="914pt" height="214pt"
 viewBox="0.00 0.00 914.00 214.00" xmlns="http://www.w3.org/2000/svg" xmlns:xlink="http://www.w3.org/1999/xlink">
<g id="graph0" class="graph" transform="scale(1 1) rotate(0) translate(4 210)">
<title>/home/runner/work/QPALM/QPALM/QPALM/interfaces/cxx/src/sparse.cpp</title>
<!-- Node1 -->
<g id="Node000001" class="node">
<title>Node1</title>
<g id="a_Node000001"><a xlink:title=" ">
<polygon fill="#999999" stroke="#666666" points="695,-206 549,-206 549,-165 695,-165 695,-206"/>
<text text-anchor="start" x="557" y="-194" font-family="Helvetica,sans-Serif" font-size="10.00">/home/runner/work/QPALM</text>
<text text-anchor="start" x="557" y="-183" font-family="Helvetica,sans-Serif" font-size="10.00">/QPALM/QPALM/interfaces</text>
<text text-anchor="middle" x="622" y="-172" font-family="Helvetica,sans-Serif" font-size="10.00">/cxx/src/sparse.cpp</text>
</a>
</g>
</g>
<!-- Node2 -->
<g id="Node000002" class="node">
<title>Node2</title>
<g id="a_Node000002"><a xlink:href="sparse_8hpp.html" target="_top" xlink:title=" ">
<polygon fill="white" stroke="#666666" points="515,-129 445,-129 445,-110 515,-110 515,-129"/>
<text text-anchor="middle" x="480" y="-117" font-family="Helvetica,sans-Serif" font-size="10.00">sparse.hpp</text>
</a>
</g>
</g>
<!-- Node1&#45;&gt;Node2 -->
<g id="edge1_Node000001_Node000002" class="edge">
<title>Node1&#45;&gt;Node2</title>
<g id="a_edge1_Node000001_Node000002"><a xlink:title=" ">
<path fill="none" stroke="#63b8ff" d="M578.62,-164.95C555.77,-154.65 528.4,-142.31 508.3,-133.25"/>
<polygon fill="#63b8ff" stroke="#63b8ff" points="509.62,-130.01 499.06,-129.09 506.74,-136.39 509.62,-130.01"/>
</a>
</g>
</g>
<!-- Node13 -->
<g id="Node000013" class="node">
<title>Node13</title>
<g id="a_Node000013"><a xlink:title=" ">
<polygon fill="#e0e0e0" stroke="#999999" points="618.5,-129 533.5,-129 533.5,-110 618.5,-110 618.5,-129"/>
<text text-anchor="middle" x="576" y="-117" font-family="Helvetica,sans-Serif" font-size="10.00">ladel_global.h</text>
</a>
</g>
</g>
<!-- Node1&#45;&gt;Node13 -->
<g id="edge12_Node000001_Node000013" class="edge">
<title>Node1&#45;&gt;Node13</title>
<g id="a_edge12_Node000001_Node000013"><a xlink:title=" ">
<path fill="none" stroke="#63b8ff" d="M607.95,-164.95C601.66,-156.2 594.32,-145.99 588.26,-137.56"/>
<polygon fill="#63b8ff" stroke="#63b8ff" points="590.98,-135.34 582.3,-129.26 585.29,-139.42 590.98,-135.34"/>
</a>
</g>
</g>
<!-- Node14 -->
<g id="Node000014" class="node">
<title>Node14</title>
<g id="a_Node000014"><a xlink:title=" ">
<polygon fill="#e0e0e0" stroke="#999999" points="701,-129 637,-129 637,-110 701,-110 701,-129"/>
<text text-anchor="middle" x="669" y="-117" font-family="Helvetica,sans-Serif" font-size="10.00">algorithm</text>
</a>
</g>
</g>
<!-- Node1&#45;&gt;Node14 -->
<g id="edge13_Node000001_Node000014" class="edge">
<title>Node1&#45;&gt;Node14</title>
<g id="a_edge13_Node000001_Node000014"><a xlink:title=" ">
<path fill="none" stroke="#63b8ff" d="M636.36,-164.95C642.78,-156.2 650.28,-145.99 656.48,-137.56"/>
<polygon fill="#63b8ff" stroke="#63b8ff" points="659.47,-139.39 662.57,-129.26 653.83,-135.25 659.47,-139.39"/>
</a>
</g>
</g>
<!-- Node15 -->
<g id="Node000015" class="node">
<title>Node15</title>
<g id="a_Node000015"><a xlink:title=" ">
<polygon fill="#e0e0e0" stroke="#999999" points="771,-129 719,-129 719,-110 771,-110 771,-129"/>
<text text-anchor="middle" x="745" y="-117" font-family="Helvetica,sans-Serif" font-size="10.00">cassert</text>
</a>
</g>
</g>
<!-- Node1&#45;&gt;Node15 -->
<g id="edge14_Node000001_Node000015" class="edge">
<title>Node1&#45;&gt;Node15</title>
<g id="a_edge14_Node000001_Node000015"><a xlink:title=" ">
<path fill="none" stroke="#63b8ff" d="M659.57,-164.95C679.01,-154.84 702.21,-142.76 719.53,-133.75"/>
<polygon fill="#63b8ff" stroke="#63b8ff" points="721.23,-136.81 728.49,-129.09 718,-130.6 721.23,-136.81"/>
</a>
</g>
</g>
<!-- Node3 -->
<g id="Node000003" class="node">
<title>Node3</title>
<g id="a_Node000003"><a xlink:title=" ">
<polygon fill="#e0e0e0" stroke="#999999" points="80,-74 0,-74 0,-55 80,-55 80,-74"/>
<text text-anchor="middle" x="40" y="-62" font-family="Helvetica,sans-Serif" font-size="10.00">Eigen/Sparse</text>
</a>
</g>
</g>
<!-- Node2&#45;&gt;Node3 -->
<g id="edge2_Node000002_Node000003" class="edge">
<title>Node2&#45;&gt;Node3</title>
<g id="a_edge2_Node000002_Node000003"><a xlink:title=" ">
<path fill="none" stroke="#63b8ff" d="M444.86,-115.2C377.96,-108.76 227.44,-93.55 90.35,-74.12"/>
<polygon fill="#63b8ff" stroke="#63b8ff" points="90.48,-70.6 80.08,-72.65 89.49,-77.53 90.48,-70.6"/>
</a>
</g>
</g>
<!-- Node4 -->
<g id="Node000004" class="node">
<title>Node4</title>
<g id="a_Node000004"><a xlink:title=" ">
<polygon fill="#e0e0e0" stroke="#999999" points="217.5,-74 98.5,-74 98.5,-55 217.5,-55 217.5,-74"/>
<text text-anchor="middle" x="158" y="-62" font-family="Helvetica,sans-Serif" font-size="10.00">Eigen/src/Core/Map.h</text>
</a>
</g>
</g>
<!-- Node2&#45;&gt;Node4 -->
<g id="edge3_Node000002_Node000004" class="edge">
<title>Node2&#45;&gt;Node4</title>
<g id="a_edge3_Node000002_Node000004"><a xlink:title=" ">
<path fill="none" stroke="#63b8ff" d="M444.93,-112.73C390.9,-103.83 286.56,-86.66 219.7,-75.66"/>
<polygon fill="#63b8ff" stroke="#63b8ff" points="220.15,-72.18 209.71,-74.01 219.01,-79.09 220.15,-72.18"/>
</a>
</g>
</g>
<!-- Node5 -->
<g id="Node000005" class="node">
<title>Node5</title>
<g id="a_Node000005"><a xlink:title=" ">
<polygon fill="#e0e0e0" stroke="#999999" points="366,-74 236,-74 236,-55 366,-55 366,-74"/>
<text text-anchor="middle" x="301" y="-62" font-family="Helvetica,sans-Serif" font-size="10.00">Eigen/src/Core/Matrix.h</text>
</a>
</g>
</g>
<!-- Node2&#45;&gt;Node5 -->
<g id="edge4_Node000002_Node000005" class="edge">
<title>Node2&#45;&gt;Node5</title>
<g id="a_edge4_Node000002_Node000005"><a xlink:title=" ">
<path fill="none" stroke="#63b8ff" d="M451.24,-109.98C421.06,-101.05 373.43,-86.94 339.9,-77.02"/>
<polygon fill="#63b8ff" stroke="#63b8ff" points="340.57,-73.57 329.98,-74.08 338.58,-80.28 340.57,-73.57"/>
</a>
</g>
</g>
<!-- Node6 -->
<g id="Node000006" class="node">
<title>Node6</title>
<g id="a_Node000006"><a xlink:href="global__opts_8h.html" target="_top" xlink:title="Custom memory allocation, print and utility functions, and data types for floats and ints.">
<polygon fill="white" stroke="#666666" points="466,-74 384,-74 384,-55 466,-55 466,-74"/>
<text text-anchor="middle" x="425" y="-62" font-family="Helvetica,sans-Serif" font-size="10.00">global_opts.h</text>
</a>
</g>
</g>
<!-- Node2&#45;&gt;Node6 -->
<g id="edge5_Node000002_Node000006" class="edge">
<title>Node2&#45;&gt;Node6</title>
<g id="a_edge5_Node000002_Node000006"><a xlink:title=" ">
<path fill="none" stroke="#63b8ff" d="M470.92,-109.75C462.91,-102.03 451.04,-90.6 441.38,-81.28"/>
<polygon fill="#63b8ff" stroke="#63b8ff" points="443.54,-78.51 433.91,-74.09 438.69,-83.55 443.54,-78.51"/>
</a>
</g>
</g>
<!-- Node9 -->
<g id="Node000009" class="node">
<title>Node9</title>
<g id="a_Node000009"><a xlink:title=" ">
<polygon fill="#e0e0e0" stroke="#999999" points="586,-74 484,-74 484,-55 586,-55 586,-74"/>
<text text-anchor="middle" x="535" y="-62" font-family="Helvetica,sans-Serif" font-size="10.00">ladel_constants.h</text>
</a>
</g>
</g>
<!-- Node2&#45;&gt;Node9 -->
<g id="edge8_Node000002_Node000009" class="edge">
<title>Node2&#45;&gt;Node9</title>
<g id="a_edge8_Node000002_Node000009"><a xlink:title=" ">
<path fill="none" stroke="#63b8ff" d="M489.08,-109.75C497.09,-102.03 508.96,-90.6 518.62,-81.28"/>
<polygon fill="#63b8ff" stroke="#63b8ff" points="521.31,-83.55 526.09,-74.09 516.46,-78.51 521.31,-83.55"/>
</a>
</g>
</g>
<!-- Node10 -->
<g id="Node000010" class="node">
<title>Node10</title>
<g id="a_Node000010"><a xlink:title=" ">
<polygon fill="#e0e0e0" stroke="#999999" points="686,-74 604,-74 604,-55 686,-55 686,-74"/>
<text text-anchor="middle" x="645" y="-62" font-family="Helvetica,sans-Serif" font-size="10.00">ladel_types.h</text>
</a>
</g>
</g>
<!-- Node2&#45;&gt;Node10 -->
<g id="edge9_Node000002_Node000010" class="edge">
<title>Node2&#45;&gt;Node10</title>
<g id="a_edge9_Node000002_Node000010"><a xlink:title=" ">
<path fill="none" stroke="#63b8ff" d="M506.51,-109.98C534.21,-101.09 577.86,-87.07 608.74,-77.15"/>
<polygon fill="#63b8ff" stroke="#63b8ff" points="609.83,-80.47 618.28,-74.08 607.69,-73.81 609.83,-80.47"/>
</a>
</g>
</g>
<!-- Node11 -->
<g id="Node000011" class="node">
<title>Node11</title>
<g id="a_Node000011"><a xlink:title=" ">
<polygon fill="#e0e0e0" stroke="#999999" points="762,-74 704,-74 704,-55 762,-55 762,-74"/>
<text text-anchor="middle" x="733" y="-62" font-family="Helvetica,sans-Serif" font-size="10.00">memory</text>
</a>
</g>
</g>
<!-- Node2&#45;&gt;Node11 -->
<g id="edge10_Node000002_Node000011" class="edge">
<title>Node2&#45;&gt;Node11</title>
<g id="a_edge10_Node000002_Node000011"><a xlink:title=" ">
<path fill="none" stroke="#63b8ff" d="M515.04,-111.43C555.63,-103.19 624.78,-89.05 693.79,-74.23"/>
<polygon fill="#63b8ff" stroke="#63b8ff" points="694.92,-77.57 703.96,-72.04 693.45,-70.73 694.92,-77.57"/>
</a>
</g>
</g>
<!-- Node12 -->
<g id="Node000012" class="node">
<title>Node12</title>
<g id="a_Node000012"><a xlink:href="qpalm__cxx-export_8hpp.html" target="_top" xlink:title=" ">
<polygon fill="white" stroke="#666666" points="906,-74 780,-74 780,-55 906,-55 906,-74"/>
<text text-anchor="middle" x="843" y="-62" font-family="Helvetica,sans-Serif" font-size="10.00">qpalm_cxx&#45;export.hpp</text>
</a>
</g>
</g>
<!-- Node2&#45;&gt;Node12 -->
<g id="edge11_Node000002_Node000012" class="edge">
<title>Node2&#45;&gt;Node12</title>
<g id="a_edge11_Node000002_Node000012"><a xlink:title=" ">
<path fill="none" stroke="#63b8ff" d="M515.35,-111.66C518.61,-111.08 521.86,-110.52 525,-110 608.67,-96.25 705.19,-83.13 769.74,-74.74"/>
<polygon fill="#63b8ff" stroke="#63b8ff" points="770.35,-78.19 779.81,-73.44 769.45,-71.25 770.35,-78.19"/>
</a>
</g>
</g>
<!-- Node7 -->
<g id="Node000007" class="node">
<title>Node7</title>
<g id="a_Node000007"><a xlink:title=" ">
<polygon fill="#e0e0e0" stroke="#999999" points="415,-19 365,-19 365,0 415,0 415,-19"/>
<text text-anchor="middle" x="390" y="-7" font-family="Helvetica,sans-Serif" font-size="10.00">ladel.h</text>
</a>
</g>
</g>
<!-- Node6&#45;&gt;Node7 -->
<g id="edge6_Node000006_Node000007" class="edge">
<title>Node6&#45;&gt;Node7</title>
<g id="a_edge6_Node000006_Node000007"><a xlink:title=" ">
<path fill="none" stroke="#63b8ff" d="M419.22,-54.75C414.38,-47.42 407.32,-36.73 401.36,-27.7"/>
<polygon fill="#63b8ff" stroke="#63b8ff" points="404.1,-25.5 395.67,-19.09 398.26,-29.36 404.1,-25.5"/>
</a>
</g>
</g>
<!-- Node8 -->
<g id="Node000008" class="node">
<title>Node8</title>
<g id="a_Node000008"><a xlink:title=" ">
<polygon fill="#e0e0e0" stroke="#999999" points="484.5,-19 433.5,-19 433.5,0 484.5,0 484.5,-19"/>
<text text-anchor="middle" x="459" y="-7" font-family="Helvetica,sans-Serif" font-size="10.00">math.h</text>
</a>
</g>
</g>
<!-- Node6&#45;&gt;Node8 -->
<g id="edge7_Node000006_Node000008" class="edge">
<title>Node6&#45;&gt;Node8</title>
<g id="a_edge7_Node000006_Node000008"><a xlink:title=" ">
<path fill="none" stroke="#63b8ff" d="M430.61,-54.75C435.32,-47.42 442.17,-36.73 447.97,-27.7"/>
<polygon fill="#63b8ff" stroke="#63b8ff" points="451.04,-29.4 453.49,-19.09 445.14,-25.62 451.04,-29.4"/>
</a>
</g>
</g>
</g>
</svg>
