<?xml version="1.0" encoding="UTF-8" standalone="no"?>
<!DOCTYPE svg PUBLIC "-//W3C//DTD SVG 1.1//EN"
 "http://www.w3.org/Graphics/SVG/1.1/DTD/svg11.dtd">
<!-- Generated by graphviz version 2.43.0 (0)
 -->
<!-- Title: termination.h Pages: 1 -->
<!--zoomable 247 -->

<svg id="main" version="1.1" xmlns="http://www.w3.org/2000/svg" xmlns:xlink="http://www.w3.org/1999/xlink" xml:space="preserve" onload="init(evt)">
<style type="text/css"><![CDATA[
.node, .edge {opacity: 0.7;}
.node.selected, .edge.selected {opacity: 1;}
.edge:hover path { stroke: red; }
.edge:hover polygon { stroke: red; fill: red; }
]]></style>

<defs>
  <circle id="rim" cx="0" cy="0" r="7"/>
  <circle id="rim2" cx="0" cy="0" r="3.5"/>
  <g id="zoomPlus">
    <use xlink:href="#rim" fill="#404040"><set attributeName="fill" to="#808080" begin="zoomplus.mouseover" end="zoomplus.mouseout"/></use>
    <path d="M-4,0h8M0,-4v8" fill="none" stroke="white" stroke-width="1.5" pointer-events="none"/>
  </g>
  <g id="zoomMin">
    <use xlink:href="#rim" fill="#404040"><set attributeName="fill" to="#808080" begin="zoomminus.mouseover" end="zoomminus.mouseout"/></use>
    <path d="M-4,0h8" fill="none" stroke="white" stroke-width="1.5" pointer-events="none"/>
  </g>
  <g id="arrowUp" transform="translate(30 24)">
    <use xlink:href="#rim"/>
    <path pointer-events="none" fill="none" stroke="white" stroke-width="1.5" d="M0,-3.0v7 M-2.5,-0.5L0,-3.0L2.5,-0.5"/>
  </g>
  <g id="arrowRight" transform="rotate(90) translate(36 -43)">
    <use xlink:href="#rim"/>
    <path pointer-events="none" fill="none" stroke="white" stroke-width="1.5" d="M0,-3.0v7 M-2.5,-0.5L0,-3.0L2.5,-0.5"/>
  </g>
  <g id="arrowDown" transform="rotate(180) translate(-30 -48)">
    <use xlink:href="#rim"/>
    <path pointer-events="none" fill="none" stroke="white" stroke-width="1.5" d="M0,-3.0v7 M-2.5,-0.5L0,-3.0L2.5,-0.5"/>
  </g>
  <g id="arrowLeft" transform="rotate(270) translate(-36 17)">
    <use xlink:href="#rim"/>
    <path pointer-events="none" fill="none" stroke="white" stroke-width="1.5" d="M0,-3.0v7 M-2.5,-0.5L0,-3.0L2.5,-0.5"/>
  </g>
  <g id="resetDef">
    <use xlink:href="#rim2" fill="#404040"><set attributeName="fill" to="#808080" begin="reset.mouseover" end="reset.mouseout"/></use>
  </g>
</defs>
<script type="application/ecmascript">
var viewWidth = 507;
var viewHeight = 247;
var sectionId = 'dynsection-1';
</script>
<script type="application/ecmascript" xlink:href="svg.min.js"/>
<svg id="graph" class="graph">
<g id="viewport">
<title>termination.h</title>
<!-- Node1 -->
<g id="Node000001" class="node">
<title>Node1</title>
<g id="a_Node000001"><a xlink:title="Routines to check the termination and infeasibility criteria.">
<polygon fill="#999999" stroke="#666666" points="190,-239 107,-239 107,-220 190,-220 190,-239"/>
<text text-anchor="middle" x="148.5" y="-227" font-family="Helvetica,sans-Serif" font-size="10.00">termination.h</text>
</a>
</g>
</g>
<!-- Node2 -->
<g id="Node000002" class="node">
<title>Node2</title>
<g id="a_Node000002"><a xlink:href="qpalm_8c.html" target="_top" xlink:title="QPALM main solver API.">
<polygon fill="white" stroke="#666666" points="149,-112.5 0,-112.5 0,-82.5 149,-82.5 149,-112.5"/>
<text text-anchor="start" x="8" y="-100.5" font-family="Helvetica,sans-Serif" font-size="10.00">/home/runner/work/QPALM</text>
<text text-anchor="middle" x="74.5" y="-89.5" font-family="Helvetica,sans-Serif" font-size="10.00">/QPALM/QPALM/src/qpalm.c</text>
</a>
</g>
</g>
<!-- Node1&#45;&gt;Node2 -->
<g id="edge1_Node000001_Node000002" class="edge">
<title>Node1&#45;&gt;Node2</title>
<g id="a_edge1_Node000001_Node000002"><a xlink:title=" ">
<path fill="none" stroke="#63b8ff" d="M96.98,-217.02C79.5,-210.39 61.8,-200.05 51.5,-184 37.14,-161.62 52.69,-130.44 64.29,-112.58"/>
<polygon fill="#63b8ff" stroke="#63b8ff" points="96.03,-220.39 106.62,-220.33 98.3,-213.77 96.03,-220.39"/>
</a>
</g>
</g>
<!-- Node3 -->
<g id="Node000003" class="node">
<title>Node3</title>
<g id="a_Node000003"><a xlink:href="termination_8c.html" target="_top" xlink:title="Routines to check the termination and infeasibility criteria.">
<polygon fill="white" stroke="#666666" points="236.5,-184 60.5,-184 60.5,-154 236.5,-154 236.5,-184"/>
<text text-anchor="start" x="68.5" y="-172" font-family="Helvetica,sans-Serif" font-size="10.00">/home/runner/work/QPALM</text>
<text text-anchor="middle" x="148.5" y="-161" font-family="Helvetica,sans-Serif" font-size="10.00">/QPALM/QPALM/src/termination.c</text>
</a>
</g>
</g>
<!-- Node1&#45;&gt;Node3 -->
<g id="edge2_Node000001_Node000003" class="edge">
<title>Node1&#45;&gt;Node3</title>
<g id="a_edge2_Node000001_Node000003"><a xlink:title=" ">
<path fill="none" stroke="#63b8ff" d="M148.5,-209.65C148.5,-201.36 148.5,-191.78 148.5,-184.11"/>
<polygon fill="#63b8ff" stroke="#63b8ff" points="145,-209.87 148.5,-219.87 152,-209.87 145,-209.87"/>
</a>
</g>
</g>
<!-- Node4 -->
<g id="Node000004" class="node">
<title>Node4</title>
<g id="a_Node000004"><a xlink:href="qpalm_8h.html" target="_top" xlink:title="QPALM main solver API.">
<polygon fill="white" stroke="#666666" points="310.5,-178.5 254.5,-178.5 254.5,-159.5 310.5,-159.5 310.5,-178.5"/>
<text text-anchor="middle" x="282.5" y="-166.5" font-family="Helvetica,sans-Serif" font-size="10.00">qpalm.h</text>
</a>
</g>
</g>
<!-- Node1&#45;&gt;Node4 -->
<g id="edge3_Node000001_Node000004" class="edge">
<title>Node1&#45;&gt;Node4</title>
<g id="a_edge3_Node000001_Node000004"><a xlink:title=" ">
<path fill="none" stroke="#63b8ff" d="M177.29,-215.93C203.16,-204.64 240.45,-188.36 262.99,-178.52"/>
<polygon fill="#63b8ff" stroke="#63b8ff" points="175.75,-212.78 167.98,-219.99 178.55,-219.2 175.75,-212.78"/>
</a>
</g>
</g>
<!-- Node4&#45;&gt;Node2 -->
<g id="edge7_Node000004_Node000002" class="edge">
<title>Node4&#45;&gt;Node2</title>
<g id="a_edge7_Node000004_Node000002"><a xlink:title=" ">
<path fill="none" stroke="#63b8ff" d="M250.53,-155.8C248.83,-155.18 247.15,-154.58 245.5,-154 203.09,-139.11 154.29,-123.41 119.7,-112.52"/>
<polygon fill="#63b8ff" stroke="#63b8ff" points="249.67,-159.21 260.26,-159.39 252.09,-152.64 249.67,-159.21"/>
</a>
</g>
</g>
<!-- Node5 -->
<g id="Node000005" class="node">
<title>Node5</title>
<g id="a_Node000005"><a xlink:href="qpalm_8cpp.html" target="_top" xlink:title=" ">
<polygon fill="white" stroke="#666666" points="334.5,-118 188.5,-118 188.5,-77 334.5,-77 334.5,-118"/>
<text text-anchor="start" x="196.5" y="-106" font-family="Helvetica,sans-Serif" font-size="10.00">/home/runner/work/QPALM</text>
<text text-anchor="start" x="196.5" y="-95" font-family="Helvetica,sans-Serif" font-size="10.00">/QPALM/QPALM/interfaces</text>
<text text-anchor="middle" x="261.5" y="-84" font-family="Helvetica,sans-Serif" font-size="10.00">/cxx/src/qpalm.cpp</text>
</a>
</g>
</g>
<!-- Node4&#45;&gt;Node5 -->
<g id="edge4_Node000004_Node000005" class="edge">
<title>Node4&#45;&gt;Node5</title>
<g id="a_edge4_Node000004_Node000005"><a xlink:title=" ">
<path fill="none" stroke="#63b8ff" d="M276.97,-149.7C274.04,-139.99 270.44,-128.07 267.44,-118.17"/>
<polygon fill="#63b8ff" stroke="#63b8ff" points="273.68,-150.92 279.92,-159.48 280.38,-148.89 273.68,-150.92"/>
</a>
</g>
</g>
<!-- Node6 -->
<g id="Node000006" class="node">
<title>Node6</title>
<g id="a_Node000006"><a xlink:href="qpalm__fortran_8h.html" target="_top" xlink:title=" ">
<polygon fill="white" stroke="#666666" points="498.5,-118 352.5,-118 352.5,-77 498.5,-77 498.5,-118"/>
<text text-anchor="start" x="360.5" y="-106" font-family="Helvetica,sans-Serif" font-size="10.00">/home/runner/work/QPALM</text>
<text text-anchor="start" x="360.5" y="-95" font-family="Helvetica,sans-Serif" font-size="10.00">/QPALM/QPALM/interfaces</text>
<text text-anchor="middle" x="425.5" y="-84" font-family="Helvetica,sans-Serif" font-size="10.00">/fortran/qpalm_fortran.h</text>
</a>
</g>
</g>
<!-- Node4&#45;&gt;Node6 -->
<g id="edge5_Node000004_Node000006" class="edge">
<title>Node4&#45;&gt;Node6</title>
<g id="a_edge5_Node000004_Node000006"><a xlink:title=" ">
<path fill="none" stroke="#63b8ff" d="M309.18,-155.03C330.59,-144.63 360.98,-129.86 385.32,-118.03"/>
<polygon fill="#63b8ff" stroke="#63b8ff" points="307.5,-151.96 300.03,-159.48 310.56,-158.25 307.5,-151.96"/>
</a>
</g>
</g>
<!-- Node7 -->
<g id="Node000007" class="node">
<title>Node7</title>
<g id="a_Node000007"><a xlink:href="qpalm__fortran_8c.html" target="_top" xlink:title=" ">
<polygon fill="white" stroke="#666666" points="498.5,-41 352.5,-41 352.5,0 498.5,0 498.5,-41"/>
<text text-anchor="start" x="360.5" y="-29" font-family="Helvetica,sans-Serif" font-size="10.00">/home/runner/work/QPALM</text>
<text text-anchor="start" x="360.5" y="-18" font-family="Helvetica,sans-Serif" font-size="10.00">/QPALM/QPALM/interfaces</text>
<text text-anchor="middle" x="425.5" y="-7" font-family="Helvetica,sans-Serif" font-size="10.00">/fortran/qpalm_fortran.c</text>
</a>
</g>
</g>
<!-- Node6&#45;&gt;Node7 -->
<g id="edge6_Node000006_Node000007" class="edge">
<title>Node6&#45;&gt;Node7</title>
<g id="a_edge6_Node000006_Node000007"><a xlink:title=" ">
<path fill="none" stroke="#63b8ff" d="M425.5,-66.69C425.5,-58.08 425.5,-48.9 425.5,-41.07"/>
<polygon fill="#63b8ff" stroke="#63b8ff" points="422,-66.79 425.5,-76.79 429,-66.79 422,-66.79"/>
</a>
</g>
</g>
</g>
</svg>

<g id="navigator" transform="translate(0 0)" fill="#404254">
  <rect fill="#f2f5e9" fill-opacity="0.5" stroke="#606060" stroke-width=".5" x="0" y="0" width="60" height="60"/>
  <use id="zoomplus" xlink:href="#zoomPlus" x="17" y="9" onmousedown="handleZoom(evt,'in')"/>
  <use id="zoomminus" xlink:href="#zoomMin" x="42" y="9" onmousedown="handleZoom(evt,'out')"/>
  <use id="reset" xlink:href="#resetDef" x="30" y="36" onmousedown="handleReset()"/>
   <use id="arrowup" xlink:href="#arrowUp" x="0" y="0" onmousedown="handlePan(0,-1)"/>
  <use id="arrowright" xlink:href="#arrowRight" x="0" y="0" onmousedown="handlePan(1,0)"/>
  <use id="arrowdown" xlink:href="#arrowDown" x="0" y="0" onmousedown="handlePan(0,1)"/>
  <use id="arrowleft" xlink:href="#arrowLeft" x="0" y="0" onmousedown="handlePan(-1,0)"/>
</g>
<svg viewBox="0 0 15 15" width="100%" height="30px" preserveAspectRatio="xMaxYMin meet">
 <g id="arrow_out" transform="scale(0.3 0.3)">
  <a xlink:href="termination_8h__dep__incl_org.svg" target="_base">
   <rect id="button" ry="5" rx="5" y="6" x="6" height="38" width="38"
        fill="#f2f5e9" fill-opacity="0.5" stroke="#606060" stroke-width="1.0"/>
   <path id="arrow"
     d="M 11.500037,31.436501 C 11.940474,20.09759 22.043105,11.32322 32.158766,21.979434 L 37.068811,17.246167 C 37.068811,17.246167 37.088388,32 37.088388,32 L 22.160133,31.978069 C 22.160133,31.978069 26.997745,27.140456 26.997745,27.140456 C 18.528582,18.264221 13.291696,25.230495 11.500037,31.436501 z"
     style="fill:#404040;"/>
  </a>
 </g>
</svg>

<style type='text/css'>
<![CDATA[
[data-mouse-over-selected='false'] { opacity: 0.7; }
[data-mouse-over-selected='true']  { opacity: 1.0; }
]]>
</style>
<script type="application/ecmascript"><![CDATA[
document.addEventListener('DOMContentLoaded', (event) => {
  highlightEdges();
  highlightAdjacentNodes();
});
]]></script>
</svg>
