<?xml version="1.0" encoding="UTF-8" standalone="no"?>
<!DOCTYPE svg PUBLIC "-//W3C//DTD SVG 1.1//EN"
 "http://www.w3.org/Graphics/SVG/1.1/DTD/svg11.dtd">
<!-- Generated by graphviz version 2.43.0 (0)
 -->
<!-- Title: termination.h Pages: 1 -->
<svg width="507pt" height="247pt"
 viewBox="0.00 0.00 506.50 247.00" xmlns="http://www.w3.org/2000/svg" xmlns:xlink="http://www.w3.org/1999/xlink">
<g id="graph0" class="graph" transform="scale(1 1) rotate(0) translate(4 243)">
<title>termination.h</title>
<!-- Node1 -->
<g id="Node000001" class="node">
<title>Node1</title>
<g id="a_Node000001"><a xlink:title="Routines to check the termination and infeasibility criteria.">
<polygon fill="#999999" stroke="#666666" points="190,-239 107,-239 107,-220 190,-220 190,-239"/>
<text text-anchor="middle" x="148.5" y="-227" font-family="Helvetica,sans-Serif" font-size="10.00">termination.h</text>
</a>
</g>
</g>
<!-- Node2 -->
<g id="Node000002" class="node">
<title>Node2</title>
<g id="a_Node000002"><a xlink:href="qpalm_8c.html" target="_top" xlink:title="QPALM main solver API.">
<polygon fill="white" stroke="#666666" points="149,-112.5 0,-112.5 0,-82.5 149,-82.5 149,-112.5"/>
<text text-anchor="start" x="8" y="-100.5" font-family="Helvetica,sans-Serif" font-size="10.00">/home/runner/work/QPALM</text>
<text text-anchor="middle" x="74.5" y="-89.5" font-family="Helvetica,sans-Serif" font-size="10.00">/QPALM/QPALM/src/qpalm.c</text>
</a>
</g>
</g>
<!-- Node1&#45;&gt;Node2 -->
<g id="edge1_Node000001_Node000002" class="edge">
<title>Node1&#45;&gt;Node2</title>
<g id="a_edge1_Node000001_Node000002"><a xlink:title=" ">
<path fill="none" stroke="#63b8ff" d="M96.98,-217.02C79.5,-210.39 61.8,-200.05 51.5,-184 37.14,-161.62 52.69,-130.44 64.29,-112.58"/>
<polygon fill="#63b8ff" stroke="#63b8ff" points="96.03,-220.39 106.62,-220.33 98.3,-213.77 96.03,-220.39"/>
</a>
</g>
</g>
<!-- Node3 -->
<g id="Node000003" class="node">
<title>Node3</title>
<g id="a_Node000003"><a xlink:href="termination_8c.html" target="_top" xlink:title="Routines to check the termination and infeasibility criteria.">
<polygon fill="white" stroke="#666666" points="236.5,-184 60.5,-184 60.5,-154 236.5,-154 236.5,-184"/>
<text text-anchor="start" x="68.5" y="-172" font-family="Helvetica,sans-Serif" font-size="10.00">/home/runner/work/QPALM</text>
<text text-anchor="middle" x="148.5" y="-161" font-family="Helvetica,sans-Serif" font-size="10.00">/QPALM/QPALM/src/termination.c</text>
</a>
</g>
</g>
<!-- Node1&#45;&gt;Node3 -->
<g id="edge2_Node000001_Node000003" class="edge">
<title>Node1&#45;&gt;Node3</title>
<g id="a_edge2_Node000001_Node000003"><a xlink:title=" ">
<path fill="none" stroke="#63b8ff" d="M148.5,-209.65C148.5,-201.36 148.5,-191.78 148.5,-184.11"/>
<polygon fill="#63b8ff" stroke="#63b8ff" points="145,-209.87 148.5,-219.87 152,-209.87 145,-209.87"/>
</a>
</g>
</g>
<!-- Node4 -->
<g id="Node000004" class="node">
<title>Node4</title>
<g id="a_Node000004"><a xlink:href="qpalm_8h.html" target="_top" xlink:title="QPALM main solver API.">
<polygon fill="white" stroke="#666666" points="310.5,-178.5 254.5,-178.5 254.5,-159.5 310.5,-159.5 310.5,-178.5"/>
<text text-anchor="middle" x="282.5" y="-166.5" font-family="Helvetica,sans-Serif" font-size="10.00">qpalm.h</text>
</a>
</g>
</g>
<!-- Node1&#45;&gt;Node4 -->
<g id="edge3_Node000001_Node000004" class="edge">
<title>Node1&#45;&gt;Node4</title>
<g id="a_edge3_Node000001_Node000004"><a xlink:title=" ">
<path fill="none" stroke="#63b8ff" d="M177.29,-215.93C203.16,-204.64 240.45,-188.36 262.99,-178.52"/>
<polygon fill="#63b8ff" stroke="#63b8ff" points="175.75,-212.78 167.98,-219.99 178.55,-219.2 175.75,-212.78"/>
</a>
</g>
</g>
<!-- Node4&#45;&gt;Node2 -->
<g id="edge7_Node000004_Node000002" class="edge">
<title>Node4&#45;&gt;Node2</title>
<g id="a_edge7_Node000004_Node000002"><a xlink:title=" ">
<path fill="none" stroke="#63b8ff" d="M250.53,-155.8C248.83,-155.18 247.15,-154.58 245.5,-154 203.09,-139.11 154.29,-123.41 119.7,-112.52"/>
<polygon fill="#63b8ff" stroke="#63b8ff" points="249.67,-159.21 260.26,-159.39 252.09,-152.64 249.67,-159.21"/>
</a>
</g>
</g>
<!-- Node5 -->
<g id="Node000005" class="node">
<title>Node5</title>
<g id="a_Node000005"><a xlink:href="qpalm_8cpp.html" target="_top" xlink:title=" ">
<polygon fill="white" stroke="#666666" points="334.5,-118 188.5,-118 188.5,-77 334.5,-77 334.5,-118"/>
<text text-anchor="start" x="196.5" y="-106" font-family="Helvetica,sans-Serif" font-size="10.00">/home/runner/work/QPALM</text>
<text text-anchor="start" x="196.5" y="-95" font-family="Helvetica,sans-Serif" font-size="10.00">/QPALM/QPALM/interfaces</text>
<text text-anchor="middle" x="261.5" y="-84" font-family="Helvetica,sans-Serif" font-size="10.00">/cxx/src/qpalm.cpp</text>
</a>
</g>
</g>
<!-- Node4&#45;&gt;Node5 -->
<g id="edge4_Node000004_Node000005" class="edge">
<title>Node4&#45;&gt;Node5</title>
<g id="a_edge4_Node000004_Node000005"><a xlink:title=" ">
<path fill="none" stroke="#63b8ff" d="M276.97,-149.7C274.04,-139.99 270.44,-128.07 267.44,-118.17"/>
<polygon fill="#63b8ff" stroke="#63b8ff" points="273.68,-150.92 279.92,-159.48 280.38,-148.89 273.68,-150.92"/>
</a>
</g>
</g>
<!-- Node6 -->
<g id="Node000006" class="node">
<title>Node6</title>
<g id="a_Node000006"><a xlink:href="qpalm__fortran_8h.html" target="_top" xlink:title=" ">
<polygon fill="white" stroke="#666666" points="498.5,-118 352.5,-118 352.5,-77 498.5,-77 498.5,-118"/>
<text text-anchor="start" x="360.5" y="-106" font-family="Helvetica,sans-Serif" font-size="10.00">/home/runner/work/QPALM</text>
<text text-anchor="start" x="360.5" y="-95" font-family="Helvetica,sans-Serif" font-size="10.00">/QPALM/QPALM/interfaces</text>
<text text-anchor="middle" x="425.5" y="-84" font-family="Helvetica,sans-Serif" font-size="10.00">/fortran/qpalm_fortran.h</text>
</a>
</g>
</g>
<!-- Node4&#45;&gt;Node6 -->
<g id="edge5_Node000004_Node000006" class="edge">
<title>Node4&#45;&gt;Node6</title>
<g id="a_edge5_Node000004_Node000006"><a xlink:title=" ">
<path fill="none" stroke="#63b8ff" d="M309.18,-155.03C330.59,-144.63 360.98,-129.86 385.32,-118.03"/>
<polygon fill="#63b8ff" stroke="#63b8ff" points="307.5,-151.96 300.03,-159.48 310.56,-158.25 307.5,-151.96"/>
</a>
</g>
</g>
<!-- Node7 -->
<g id="Node000007" class="node">
<title>Node7</title>
<g id="a_Node000007"><a xlink:href="qpalm__fortran_8c.html" target="_top" xlink:title=" ">
<polygon fill="white" stroke="#666666" points="498.5,-41 352.5,-41 352.5,0 498.5,0 498.5,-41"/>
<text text-anchor="start" x="360.5" y="-29" font-family="Helvetica,sans-Serif" font-size="10.00">/home/runner/work/QPALM</text>
<text text-anchor="start" x="360.5" y="-18" font-family="Helvetica,sans-Serif" font-size="10.00">/QPALM/QPALM/interfaces</text>
<text text-anchor="middle" x="425.5" y="-7" font-family="Helvetica,sans-Serif" font-size="10.00">/fortran/qpalm_fortran.c</text>
</a>
</g>
</g>
<!-- Node6&#45;&gt;Node7 -->
<g id="edge6_Node000006_Node000007" class="edge">
<title>Node6&#45;&gt;Node7</title>
<g id="a_edge6_Node000006_Node000007"><a xlink:title=" ">
<path fill="none" stroke="#63b8ff" d="M425.5,-66.69C425.5,-58.08 425.5,-48.9 425.5,-41.07"/>
<polygon fill="#63b8ff" stroke="#63b8ff" points="422,-66.79 425.5,-76.79 429,-66.79 422,-66.79"/>
</a>
</g>
</g>
</g>
</svg>
