<?xml version="1.0" encoding="UTF-8" standalone="no"?>
<!DOCTYPE svg PUBLIC "-//W3C//DTD SVG 1.1//EN"
 "http://www.w3.org/Graphics/SVG/1.1/DTD/svg11.dtd">
<!-- Generated by graphviz version 2.43.0 (0)
 -->
<!-- Title: types.h Pages: 1 -->
<!--zoomable 434 -->

<svg id="main" version="1.1" xmlns="http://www.w3.org/2000/svg" xmlns:xlink="http://www.w3.org/1999/xlink" xml:space="preserve" onload="init(evt)">
<style type="text/css"><![CDATA[
.node, .edge {opacity: 0.7;}
.node.selected, .edge.selected {opacity: 1;}
.edge:hover path { stroke: red; }
.edge:hover polygon { stroke: red; fill: red; }
]]></style>

<defs>
  <circle id="rim" cx="0" cy="0" r="7"/>
  <circle id="rim2" cx="0" cy="0" r="3.5"/>
  <g id="zoomPlus">
    <use xlink:href="#rim" fill="#404040"><set attributeName="fill" to="#808080" begin="zoomplus.mouseover" end="zoomplus.mouseout"/></use>
    <path d="M-4,0h8M0,-4v8" fill="none" stroke="white" stroke-width="1.5" pointer-events="none"/>
  </g>
  <g id="zoomMin">
    <use xlink:href="#rim" fill="#404040"><set attributeName="fill" to="#808080" begin="zoomminus.mouseover" end="zoomminus.mouseout"/></use>
    <path d="M-4,0h8" fill="none" stroke="white" stroke-width="1.5" pointer-events="none"/>
  </g>
  <g id="arrowUp" transform="translate(30 24)">
    <use xlink:href="#rim"/>
    <path pointer-events="none" fill="none" stroke="white" stroke-width="1.5" d="M0,-3.0v7 M-2.5,-0.5L0,-3.0L2.5,-0.5"/>
  </g>
  <g id="arrowRight" transform="rotate(90) translate(36 -43)">
    <use xlink:href="#rim"/>
    <path pointer-events="none" fill="none" stroke="white" stroke-width="1.5" d="M0,-3.0v7 M-2.5,-0.5L0,-3.0L2.5,-0.5"/>
  </g>
  <g id="arrowDown" transform="rotate(180) translate(-30 -48)">
    <use xlink:href="#rim"/>
    <path pointer-events="none" fill="none" stroke="white" stroke-width="1.5" d="M0,-3.0v7 M-2.5,-0.5L0,-3.0L2.5,-0.5"/>
  </g>
  <g id="arrowLeft" transform="rotate(270) translate(-36 17)">
    <use xlink:href="#rim"/>
    <path pointer-events="none" fill="none" stroke="white" stroke-width="1.5" d="M0,-3.0v7 M-2.5,-0.5L0,-3.0L2.5,-0.5"/>
  </g>
  <g id="resetDef">
    <use xlink:href="#rim2" fill="#404040"><set attributeName="fill" to="#808080" begin="reset.mouseover" end="reset.mouseout"/></use>
  </g>
</defs>
<script type="application/ecmascript">
var viewWidth = 2394;
var viewHeight = 434;
var sectionId = 'dynsection-1';
</script>
<script type="application/ecmascript" xlink:href="svg.min.js"/>
<svg id="graph" class="graph">
<g id="viewport">
<title>types.h</title>
<!-- Node1 -->
<g id="Node000001" class="node">
<title>Node1</title>
<g id="a_Node000001"><a xlink:title="Internal data structures used in QPALM.">
<polygon fill="#999999" stroke="#666666" points="1449.32,-426 1396.32,-426 1396.32,-407 1449.32,-407 1449.32,-426"/>
<text text-anchor="middle" x="1422.82" y="-414" font-family="Helvetica,sans-Serif" font-size="10.00">types.h</text>
</a>
</g>
</g>
<!-- Node2 -->
<g id="Node000002" class="node">
<title>Node2</title>
<g id="a_Node000002"><a xlink:href="nonconvex_8c.html" target="_top" xlink:title="Routines to deal with nonconvex QPs.">
<polygon fill="white" stroke="#666666" points="1595.82,-255.5 1423.82,-255.5 1423.82,-225.5 1595.82,-225.5 1595.82,-255.5"/>
<text text-anchor="start" x="1431.82" y="-243.5" font-family="Helvetica,sans-Serif" font-size="10.00">/home/runner/work/QPALM</text>
<text text-anchor="middle" x="1509.82" y="-232.5" font-family="Helvetica,sans-Serif" font-size="10.00">/QPALM/QPALM/src/nonconvex.c</text>
</a>
</g>
</g>
<!-- Node1&#45;&gt;Node2 -->
<g id="edge1_Node000001_Node000002" class="edge">
<title>Node1&#45;&gt;Node2</title>
<g id="a_edge1_Node000001_Node000002"><a xlink:title=" ">
<path fill="none" stroke="#63b8ff" d="M1426.83,-396.74C1432.5,-372.58 1444.29,-329.81 1462.82,-297 1471.51,-281.61 1484.75,-266.45 1494.97,-255.88"/>
<polygon fill="#63b8ff" stroke="#63b8ff" points="1423.37,-396.18 1424.59,-406.7 1430.2,-397.71 1423.37,-396.18"/>
</a>
</g>
</g>
<!-- Node3 -->
<g id="Node000003" class="node">
<title>Node3</title>
<g id="a_Node000003"><a xlink:href="util_8c.html" target="_top" xlink:title="Utility functions.">
<polygon fill="white" stroke="#666666" points="1329.82,-255.5 1183.82,-255.5 1183.82,-225.5 1329.82,-225.5 1329.82,-255.5"/>
<text text-anchor="start" x="1191.82" y="-243.5" font-family="Helvetica,sans-Serif" font-size="10.00">/home/runner/work/QPALM</text>
<text text-anchor="middle" x="1256.82" y="-232.5" font-family="Helvetica,sans-Serif" font-size="10.00">/QPALM/QPALM/src/util.c</text>
</a>
</g>
</g>
<!-- Node1&#45;&gt;Node3 -->
<g id="edge2_Node000001_Node000003" class="edge">
<title>Node1&#45;&gt;Node3</title>
<g id="a_edge2_Node000001_Node000003"><a xlink:title=" ">
<path fill="none" stroke="#63b8ff" d="M1407.05,-398.97C1374.58,-364.94 1300.79,-287.59 1270.34,-255.67"/>
<polygon fill="#63b8ff" stroke="#63b8ff" points="1404.92,-401.81 1414.36,-406.63 1409.99,-396.98 1404.92,-401.81"/>
</a>
</g>
</g>
<!-- Node4 -->
<g id="Node000004" class="node">
<title>Node4</title>
<g id="a_Node000004"><a xlink:href="iteration_8h.html" target="_top" xlink:title="QPALM main solver routines.">
<polygon fill="white" stroke="#666666" points="1949.32,-316 1882.32,-316 1882.32,-297 1949.32,-297 1949.32,-316"/>
<text text-anchor="middle" x="1915.82" y="-304" font-family="Helvetica,sans-Serif" font-size="10.00">iteration.h</text>
</a>
</g>
</g>
<!-- Node1&#45;&gt;Node4 -->
<g id="edge3_Node000001_Node000004" class="edge">
<title>Node1&#45;&gt;Node4</title>
<g id="a_edge3_Node000001_Node000004"><a xlink:title=" ">
<path fill="none" stroke="#63b8ff" d="M1459.31,-407.51C1551.57,-387.29 1793.15,-334.37 1882.21,-314.86"/>
<polygon fill="#63b8ff" stroke="#63b8ff" points="1458.34,-404.13 1449.32,-409.69 1459.84,-410.97 1458.34,-404.13"/>
</a>
</g>
</g>
<!-- Node8 -->
<g id="Node000008" class="node">
<title>Node8</title>
<g id="a_Node000008"><a xlink:href="qpalm_8h.html" target="_top" xlink:title="QPALM main solver API.">
<polygon fill="white" stroke="#666666" points="2115.82,-178.5 2059.82,-178.5 2059.82,-159.5 2115.82,-159.5 2115.82,-178.5"/>
<text text-anchor="middle" x="2087.82" y="-166.5" font-family="Helvetica,sans-Serif" font-size="10.00">qpalm.h</text>
</a>
</g>
</g>
<!-- Node1&#45;&gt;Node8 -->
<g id="edge44_Node000001_Node000008" class="edge">
<title>Node1&#45;&gt;Node8</title>
<g id="a_edge44_Node000001_Node000008"><a xlink:title=" ">
<path fill="none" stroke="#63b8ff" d="M1459.68,-413.87C1612.28,-406.77 2188.94,-376.07 2240.82,-316 2266.63,-286.11 2254.45,-272.72 2196.82,-220 2173.62,-198.78 2139.87,-185.2 2116.08,-177.63"/>
<polygon fill="#63b8ff" stroke="#63b8ff" points="1459.27,-410.39 1449.44,-414.34 1459.59,-417.38 1459.27,-410.39"/>
</a>
</g>
</g>
<!-- Node12 -->
<g id="Node000012" class="node">
<title>Node12</title>
<g id="a_Node000012"><a xlink:href="lin__alg_8h.html" target="_top" xlink:title="Linear algebra with vectors.">
<polygon fill="white" stroke="#666666" points="943.82,-316 885.82,-316 885.82,-297 943.82,-297 943.82,-316"/>
<text text-anchor="middle" x="914.82" y="-304" font-family="Helvetica,sans-Serif" font-size="10.00">lin_alg.h</text>
</a>
</g>
</g>
<!-- Node1&#45;&gt;Node12 -->
<g id="edge12_Node000001_Node000012" class="edge">
<title>Node1&#45;&gt;Node12</title>
<g id="a_edge12_Node000001_Node000012"><a xlink:title=" ">
<path fill="none" stroke="#63b8ff" d="M1386.07,-415.49C1290.96,-414.92 1039.16,-409.68 966.82,-371 943.44,-358.5 926.58,-330.65 919.11,-316.34"/>
<polygon fill="#63b8ff" stroke="#63b8ff" points="1386.07,-418.99 1396.08,-415.54 1386.1,-411.99 1386.07,-418.99"/>
</a>
</g>
</g>
<!-- Node19 -->
<g id="Node000019" class="node">
<title>Node19</title>
<g id="a_Node000019"><a xlink:href="scaling_8h.html" target="_top" xlink:title="Problem data scaling during setup.">
<polygon fill="white" stroke="#666666" points="103.82,-250 43.82,-250 43.82,-231 103.82,-231 103.82,-250"/>
<text text-anchor="middle" x="73.82" y="-238" font-family="Helvetica,sans-Serif" font-size="10.00">scaling.h</text>
</a>
</g>
</g>
<!-- Node1&#45;&gt;Node19 -->
<g id="edge47_Node000001_Node000019" class="edge">
<title>Node1&#45;&gt;Node19</title>
<g id="a_edge47_Node000001_Node000019"><a xlink:title=" ">
<path fill="none" stroke="#63b8ff" d="M1386.1,-414.43C1210.86,-409.01 458.73,-382.24 234.82,-316 178.41,-299.31 116.55,-266.05 88.77,-250.24"/>
<polygon fill="#63b8ff" stroke="#63b8ff" points="1386.01,-417.93 1396.11,-414.73 1386.22,-410.93 1386.01,-417.93"/>
</a>
</g>
</g>
<!-- Node20 -->
<g id="Node000020" class="node">
<title>Node20</title>
<g id="a_Node000020"><a xlink:href="linesearch_8h.html" target="_top" xlink:title="Routines to perform exact linesearch.">
<polygon fill="white" stroke="#666666" points="319.82,-316 243.82,-316 243.82,-297 319.82,-297 319.82,-316"/>
<text text-anchor="middle" x="281.82" y="-304" font-family="Helvetica,sans-Serif" font-size="10.00">linesearch.h</text>
</a>
</g>
</g>
<!-- Node1&#45;&gt;Node20 -->
<g id="edge29_Node000001_Node000020" class="edge">
<title>Node1&#45;&gt;Node20</title>
<g id="a_edge29_Node000001_Node000020"><a xlink:title=" ">
<path fill="none" stroke="#63b8ff" d="M1385.81,-413.58C1288.43,-408.39 1017.01,-392.94 791.82,-371 615.1,-353.78 404.95,-324.96 320.13,-312.98"/>
<polygon fill="#63b8ff" stroke="#63b8ff" points="1385.85,-417.09 1396.02,-414.12 1386.22,-410.1 1385.85,-417.09"/>
</a>
</g>
</g>
<!-- Node21 -->
<g id="Node000021" class="node">
<title>Node21</title>
<g id="a_Node000021"><a xlink:href="newton_8h.html" target="_top" xlink:title="Functions to calculate the semismooth Newton direction.">
<polygon fill="white" stroke="#666666" points="492.82,-316 430.82,-316 430.82,-297 492.82,-297 492.82,-316"/>
<text text-anchor="middle" x="461.82" y="-304" font-family="Helvetica,sans-Serif" font-size="10.00">newton.h</text>
</a>
</g>
</g>
<!-- Node1&#45;&gt;Node21 -->
<g id="edge34_Node000001_Node000021" class="edge">
<title>Node1&#45;&gt;Node21</title>
<g id="a_edge34_Node000001_Node000021"><a xlink:title=" ">
<path fill="none" stroke="#63b8ff" d="M1385.98,-412.6C1305.24,-406.14 1106.66,-389.64 940.82,-371 771.38,-351.96 569.05,-323.12 492.87,-312.05"/>
<polygon fill="#63b8ff" stroke="#63b8ff" points="1385.88,-416.1 1396.13,-413.41 1386.44,-409.13 1385.88,-416.1"/>
</a>
</g>
</g>
<!-- Node22 -->
<g id="Node000022" class="node">
<title>Node22</title>
<g id="a_Node000022"><a xlink:href="nonconvex_8h.html" target="_top" xlink:title="Routines to deal with nonconvex QPs.">
<polygon fill="white" stroke="#666666" points="1550.32,-316 1471.32,-316 1471.32,-297 1550.32,-297 1550.32,-316"/>
<text text-anchor="middle" x="1510.82" y="-304" font-family="Helvetica,sans-Serif" font-size="10.00">nonconvex.h</text>
</a>
</g>
</g>
<!-- Node1&#45;&gt;Node22 -->
<g id="edge39_Node000001_Node000022" class="edge">
<title>Node1&#45;&gt;Node22</title>
<g id="a_edge39_Node000001_Node000022"><a xlink:title=" ">
<path fill="none" stroke="#63b8ff" d="M1436.51,-398.69C1455.52,-375.37 1489.18,-334.05 1503.76,-316.16"/>
<polygon fill="#63b8ff" stroke="#63b8ff" points="1433.62,-396.7 1430.02,-406.66 1439.05,-401.12 1433.62,-396.7"/>
</a>
</g>
</g>
<!-- Node23 -->
<g id="Node000023" class="node">
<title>Node23</title>
<g id="a_Node000023"><a xlink:href="qpalm_8hpp.html" target="_top" xlink:title=" ">
<polygon fill="white" stroke="#666666" points="2381.82,-371 2313.82,-371 2313.82,-352 2381.82,-352 2381.82,-371"/>
<text text-anchor="middle" x="2347.82" y="-359" font-family="Helvetica,sans-Serif" font-size="10.00">qpalm.hpp</text>
</a>
</g>
</g>
<!-- Node1&#45;&gt;Node23 -->
<g id="edge45_Node000001_Node000023" class="edge">
<title>Node1&#45;&gt;Node23</title>
<g id="a_edge45_Node000001_Node000023"><a xlink:title=" ">
<path fill="none" stroke="#63b8ff" d="M1459.63,-414.39C1577.98,-410.66 1959.29,-397.26 2273.82,-371 2286.83,-369.91 2301.1,-368.36 2313.6,-366.88"/>
<polygon fill="#63b8ff" stroke="#63b8ff" points="1459.21,-410.9 1449.33,-414.71 1459.43,-417.9 1459.21,-410.9"/>
</a>
</g>
</g>
<!-- Node24 -->
<g id="Node000024" class="node">
<title>Node24</title>
<g id="a_Node000024"><a xlink:href="solver__interface_8h.html" target="_top" xlink:title="Interface and wrapper to matrix/factorization (ladel) functions.">
<polygon fill="white" stroke="#666666" points="1079.82,-371 975.82,-371 975.82,-352 1079.82,-352 1079.82,-371"/>
<text text-anchor="middle" x="1027.82" y="-359" font-family="Helvetica,sans-Serif" font-size="10.00">solver_interface.h</text>
</a>
</g>
</g>
<!-- Node1&#45;&gt;Node24 -->
<g id="edge48_Node000001_Node000024" class="edge">
<title>Node1&#45;&gt;Node24</title>
<g id="a_edge48_Node000001_Node000024"><a xlink:title=" ">
<path fill="none" stroke="#63b8ff" d="M1386.12,-410.58C1315.62,-401.12 1161.08,-380.38 1079.93,-369.49"/>
<polygon fill="#63b8ff" stroke="#63b8ff" points="1385.91,-414.08 1396.29,-411.94 1386.84,-407.14 1385.91,-414.08"/>
</a>
</g>
</g>
<!-- Node25 -->
<g id="Node000025" class="node">
<title>Node25</title>
<g id="a_Node000025"><a xlink:href="termination_8h.html" target="_top" xlink:title="Routines to check the termination and infeasibility criteria.">
<polygon fill="white" stroke="#666666" points="2231.32,-316 2148.32,-316 2148.32,-297 2231.32,-297 2231.32,-316"/>
<text text-anchor="middle" x="2189.82" y="-304" font-family="Helvetica,sans-Serif" font-size="10.00">termination.h</text>
</a>
</g>
</g>
<!-- Node1&#45;&gt;Node25 -->
<g id="edge54_Node000001_Node000025" class="edge">
<title>Node1&#45;&gt;Node25</title>
<g id="a_edge54_Node000001_Node000025"><a xlink:title=" ">
<path fill="none" stroke="#63b8ff" d="M1459.91,-411.44C1526.21,-404.08 1669.38,-387.76 1789.82,-371 1945.78,-349.3 1984.42,-341.42 2139.82,-316 2142.51,-315.56 2145.29,-315.1 2148.08,-314.64"/>
<polygon fill="#63b8ff" stroke="#63b8ff" points="1459.12,-408.01 1449.57,-412.58 1459.89,-414.96 1459.12,-408.01"/>
</a>
</g>
</g>
<!-- Node26 -->
<g id="Node000026" class="node">
<title>Node26</title>
<g id="a_Node000026"><a xlink:href="util_8h.html" target="_top" xlink:title="Utility functions.">
<polygon fill="white" stroke="#666666" points="1414.32,-316 1373.32,-316 1373.32,-297 1414.32,-297 1414.32,-316"/>
<text text-anchor="middle" x="1393.82" y="-304" font-family="Helvetica,sans-Serif" font-size="10.00">util.h</text>
</a>
</g>
</g>
<!-- Node1&#45;&gt;Node26 -->
<g id="edge58_Node000001_Node000026" class="edge">
<title>Node1&#45;&gt;Node26</title>
<g id="a_edge58_Node000001_Node000026"><a xlink:title=" ">
<path fill="none" stroke="#63b8ff" d="M1417.8,-396.8C1411.46,-373.2 1400.82,-333.58 1396.14,-316.16"/>
<polygon fill="#63b8ff" stroke="#63b8ff" points="1414.47,-397.91 1420.44,-406.66 1421.23,-396.1 1414.47,-397.91"/>
</a>
</g>
</g>
<!-- Node27 -->
<g id="Node000027" class="node">
<title>Node27</title>
<g id="a_Node000027"><a xlink:href="validate_8h.html" target="_top" xlink:title="Validation of the user provided settings and data.">
<polygon fill="white" stroke="#666666" points="2130.32,-316 2065.32,-316 2065.32,-297 2130.32,-297 2130.32,-316"/>
<text text-anchor="middle" x="2097.82" y="-304" font-family="Helvetica,sans-Serif" font-size="10.00">validate.h</text>
</a>
</g>
</g>
<!-- Node1&#45;&gt;Node27 -->
<g id="edge65_Node000001_Node000027" class="edge">
<title>Node1&#45;&gt;Node27</title>
<g id="a_edge65_Node000001_Node000027"><a xlink:title=" ">
<path fill="none" stroke="#63b8ff" d="M1459.63,-409.95C1556.53,-395.29 1826.59,-354.03 2050.82,-316 2055.48,-315.21 2060.39,-314.35 2065.22,-313.49"/>
<polygon fill="#63b8ff" stroke="#63b8ff" points="1458.84,-406.53 1449.48,-411.49 1459.89,-413.45 1458.84,-406.53"/>
</a>
</g>
</g>
<!-- Node5 -->
<g id="Node000005" class="node">
<title>Node5</title>
<g id="a_Node000005"><a xlink:href="iteration_8c.html" target="_top" xlink:title="QPALM main solver routines.">
<polygon fill="white" stroke="#666666" points="1165.82,-255.5 1005.82,-255.5 1005.82,-225.5 1165.82,-225.5 1165.82,-255.5"/>
<text text-anchor="start" x="1013.82" y="-243.5" font-family="Helvetica,sans-Serif" font-size="10.00">/home/runner/work/QPALM</text>
<text text-anchor="middle" x="1085.82" y="-232.5" font-family="Helvetica,sans-Serif" font-size="10.00">/QPALM/QPALM/src/iteration.c</text>
</a>
</g>
</g>
<!-- Node4&#45;&gt;Node5 -->
<g id="edge4_Node000004_Node000005" class="edge">
<title>Node4&#45;&gt;Node5</title>
<g id="a_edge4_Node000004_Node000005"><a xlink:title=" ">
<path fill="none" stroke="#63b8ff" d="M1871.86,-305.24C1756.81,-304.05 1437.56,-297.45 1174.82,-261 1164.63,-259.59 1153.88,-257.63 1143.51,-255.51"/>
<polygon fill="#63b8ff" stroke="#63b8ff" points="1872,-308.74 1882.03,-305.34 1872.06,-301.74 1872,-308.74"/>
</a>
</g>
</g>
<!-- Node6 -->
<g id="Node000006" class="node">
<title>Node6</title>
<g id="a_Node000006"><a xlink:href="qpalm_8c.html" target="_top" xlink:title="QPALM main solver API.">
<polygon fill="white" stroke="#666666" points="1432.32,-112.5 1283.32,-112.5 1283.32,-82.5 1432.32,-82.5 1432.32,-112.5"/>
<text text-anchor="start" x="1291.32" y="-100.5" font-family="Helvetica,sans-Serif" font-size="10.00">/home/runner/work/QPALM</text>
<text text-anchor="middle" x="1357.82" y="-89.5" font-family="Helvetica,sans-Serif" font-size="10.00">/QPALM/QPALM/src/qpalm.c</text>
</a>
</g>
</g>
<!-- Node4&#45;&gt;Node6 -->
<g id="edge5_Node000004_Node000006" class="edge">
<title>Node4&#45;&gt;Node6</title>
<g id="a_edge5_Node000004_Node000006"><a xlink:title=" ">
<path fill="none" stroke="#63b8ff" d="M1959.24,-296.84C1979.15,-290.46 2000.92,-279.54 2012.82,-261 2022.66,-245.66 2024.47,-234.01 2012.82,-220 1939.65,-132.02 1588.26,-107.46 1432.47,-100.84"/>
<polygon fill="#63b8ff" stroke="#63b8ff" points="1958,-293.55 1949.37,-299.69 1959.95,-300.28 1958,-293.55"/>
</a>
</g>
</g>
<!-- Node7 -->
<g id="Node000007" class="node">
<title>Node7</title>
<g id="a_Node000007"><a xlink:href="termination_8c.html" target="_top" xlink:title="Routines to check the termination and infeasibility criteria.">
<polygon fill="white" stroke="#666666" points="2003.82,-255.5 1827.82,-255.5 1827.82,-225.5 2003.82,-225.5 2003.82,-255.5"/>
<text text-anchor="start" x="1835.82" y="-243.5" font-family="Helvetica,sans-Serif" font-size="10.00">/home/runner/work/QPALM</text>
<text text-anchor="middle" x="1915.82" y="-232.5" font-family="Helvetica,sans-Serif" font-size="10.00">/QPALM/QPALM/src/termination.c</text>
</a>
</g>
</g>
<!-- Node4&#45;&gt;Node7 -->
<g id="edge6_Node000004_Node000007" class="edge">
<title>Node4&#45;&gt;Node7</title>
<g id="a_edge6_Node000004_Node000007"><a xlink:title=" ">
<path fill="none" stroke="#63b8ff" d="M1915.82,-286.85C1915.82,-276.97 1915.82,-265.01 1915.82,-255.86"/>
<polygon fill="#63b8ff" stroke="#63b8ff" points="1912.32,-286.87 1915.82,-296.87 1919.32,-286.87 1912.32,-286.87"/>
</a>
</g>
</g>
<!-- Node4&#45;&gt;Node8 -->
<g id="edge7_Node000004_Node000008" class="edge">
<title>Node4&#45;&gt;Node8</title>
<g id="a_edge7_Node000004_Node000008"><a xlink:title=" ">
<path fill="none" stroke="#63b8ff" d="M1959.51,-299.82C2003.92,-293.07 2068.32,-280.24 2083.82,-261 2103.26,-236.86 2095.27,-196.34 2090.46,-178.67"/>
<polygon fill="#63b8ff" stroke="#63b8ff" points="1958.91,-296.37 1949.53,-301.29 1959.93,-303.3 1958.91,-296.37"/>
</a>
</g>
</g>
<!-- Node8&#45;&gt;Node6 -->
<g id="edge11_Node000008_Node000006" class="edge">
<title>Node8&#45;&gt;Node6</title>
<g id="a_edge11_Node000008_Node000006"><a xlink:title=" ">
<path fill="none" stroke="#63b8ff" d="M2055.7,-156.42C2052.39,-155.49 2049.06,-154.66 2045.82,-154 1825.95,-109.17 1559.64,-100.23 1432.45,-98.66"/>
<polygon fill="#63b8ff" stroke="#63b8ff" points="2054.83,-159.82 2065.42,-159.43 2056.9,-153.13 2054.83,-159.82"/>
</a>
</g>
</g>
<!-- Node9 -->
<g id="Node000009" class="node">
<title>Node9</title>
<g id="a_Node000009"><a xlink:href="qpalm_8cpp.html" target="_top" xlink:title=" ">
<polygon fill="white" stroke="#666666" points="2385.82,-118 2239.82,-118 2239.82,-77 2385.82,-77 2385.82,-118"/>
<text text-anchor="start" x="2247.82" y="-106" font-family="Helvetica,sans-Serif" font-size="10.00">/home/runner/work/QPALM</text>
<text text-anchor="start" x="2247.82" y="-95" font-family="Helvetica,sans-Serif" font-size="10.00">/QPALM/QPALM/interfaces</text>
<text text-anchor="middle" x="2312.82" y="-84" font-family="Helvetica,sans-Serif" font-size="10.00">/cxx/src/qpalm.cpp</text>
</a>
</g>
</g>
<!-- Node8&#45;&gt;Node9 -->
<g id="edge8_Node000008_Node000009" class="edge">
<title>Node8&#45;&gt;Node9</title>
<g id="a_edge8_Node000008_Node000009"><a xlink:title=" ">
<path fill="none" stroke="#63b8ff" d="M2125.34,-156.41C2159.16,-145.96 2209.57,-130.39 2249.6,-118.03"/>
<polygon fill="#63b8ff" stroke="#63b8ff" points="2123.93,-153.18 2115.41,-159.48 2125.99,-159.87 2123.93,-153.18"/>
</a>
</g>
</g>
<!-- Node10 -->
<g id="Node000010" class="node">
<title>Node10</title>
<g id="a_Node000010"><a xlink:href="qpalm__fortran_8h.html" target="_top" xlink:title=" ">
<polygon fill="white" stroke="#666666" points="2160.82,-118 2014.82,-118 2014.82,-77 2160.82,-77 2160.82,-118"/>
<text text-anchor="start" x="2022.82" y="-106" font-family="Helvetica,sans-Serif" font-size="10.00">/home/runner/work/QPALM</text>
<text text-anchor="start" x="2022.82" y="-95" font-family="Helvetica,sans-Serif" font-size="10.00">/QPALM/QPALM/interfaces</text>
<text text-anchor="middle" x="2087.82" y="-84" font-family="Helvetica,sans-Serif" font-size="10.00">/fortran/qpalm_fortran.h</text>
</a>
</g>
</g>
<!-- Node8&#45;&gt;Node10 -->
<g id="edge9_Node000008_Node000010" class="edge">
<title>Node8&#45;&gt;Node10</title>
<g id="a_edge9_Node000008_Node000010"><a xlink:title=" ">
<path fill="none" stroke="#63b8ff" d="M2087.82,-149.38C2087.82,-139.74 2087.82,-127.96 2087.82,-118.17"/>
<polygon fill="#63b8ff" stroke="#63b8ff" points="2084.32,-149.48 2087.82,-159.48 2091.32,-149.48 2084.32,-149.48"/>
</a>
</g>
</g>
<!-- Node11 -->
<g id="Node000011" class="node">
<title>Node11</title>
<g id="a_Node000011"><a xlink:href="qpalm__fortran_8c.html" target="_top" xlink:title=" ">
<polygon fill="white" stroke="#666666" points="2160.82,-41 2014.82,-41 2014.82,0 2160.82,0 2160.82,-41"/>
<text text-anchor="start" x="2022.82" y="-29" font-family="Helvetica,sans-Serif" font-size="10.00">/home/runner/work/QPALM</text>
<text text-anchor="start" x="2022.82" y="-18" font-family="Helvetica,sans-Serif" font-size="10.00">/QPALM/QPALM/interfaces</text>
<text text-anchor="middle" x="2087.82" y="-7" font-family="Helvetica,sans-Serif" font-size="10.00">/fortran/qpalm_fortran.c</text>
</a>
</g>
</g>
<!-- Node10&#45;&gt;Node11 -->
<g id="edge10_Node000010_Node000011" class="edge">
<title>Node10&#45;&gt;Node11</title>
<g id="a_edge10_Node000010_Node000011"><a xlink:title=" ">
<path fill="none" stroke="#63b8ff" d="M2087.82,-66.69C2087.82,-58.08 2087.82,-48.9 2087.82,-41.07"/>
<polygon fill="#63b8ff" stroke="#63b8ff" points="2084.32,-66.79 2087.82,-76.79 2091.32,-66.79 2084.32,-66.79"/>
</a>
</g>
</g>
<!-- Node12&#45;&gt;Node2 -->
<g id="edge17_Node000012_Node000002" class="edge">
<title>Node12&#45;&gt;Node2</title>
<g id="a_edge17_Node000012_Node000002"><a xlink:title=" ">
<path fill="none" stroke="#63b8ff" d="M954.24,-301.48C1029.17,-293.82 1197.34,-276.49 1338.82,-261 1366.44,-257.98 1396.56,-254.57 1423.72,-251.47"/>
<polygon fill="#63b8ff" stroke="#63b8ff" points="953.46,-298.04 943.87,-302.54 954.18,-305.01 953.46,-298.04"/>
</a>
</g>
</g>
<!-- Node12&#45;&gt;Node3 -->
<g id="edge22_Node000012_Node000003" class="edge">
<title>Node12&#45;&gt;Node3</title>
<g id="a_edge22_Node000012_Node000003"><a xlink:title=" ">
<path fill="none" stroke="#63b8ff" d="M954.13,-299.57C1005.17,-291.7 1096.95,-276.91 1174.82,-261 1182.99,-259.33 1191.59,-257.44 1200.02,-255.5"/>
<polygon fill="#63b8ff" stroke="#63b8ff" points="953.53,-296.13 944.17,-301.1 954.59,-303.04 953.53,-296.13"/>
</a>
</g>
</g>
<!-- Node12&#45;&gt;Node5 -->
<g id="edge13_Node000012_Node000005" class="edge">
<title>Node12&#45;&gt;Node5</title>
<g id="a_edge13_Node000012_Node000005"><a xlink:title=" ">
<path fill="none" stroke="#63b8ff" d="M947.45,-293.29C976.16,-282.54 1017.96,-266.9 1048.1,-255.62"/>
<polygon fill="#63b8ff" stroke="#63b8ff" points="946.02,-290.09 937.88,-296.87 948.47,-296.64 946.02,-290.09"/>
</a>
</g>
</g>
<!-- Node12&#45;&gt;Node6 -->
<g id="edge18_Node000012_Node000006" class="edge">
<title>Node12&#45;&gt;Node6</title>
<g id="a_edge18_Node000012_Node000006"><a xlink:title=" ">
<path fill="none" stroke="#63b8ff" d="M875.1,-305.5C803.35,-304.56 656.61,-298.04 624.82,-261 612.95,-247.17 613.03,-233.9 624.82,-220 708.76,-121 1113.72,-102.57 1283.1,-99.21"/>
<polygon fill="#63b8ff" stroke="#63b8ff" points="875.49,-309 885.53,-305.6 875.56,-302 875.49,-309"/>
</a>
</g>
</g>
<!-- Node12&#45;&gt;Node7 -->
<g id="edge21_Node000012_Node000007" class="edge">
<title>Node12&#45;&gt;Node7</title>
<g id="a_edge21_Node000012_Node000007"><a xlink:title=" ">
<path fill="none" stroke="#63b8ff" d="M954.15,-305.65C1080.34,-305.7 1486.24,-302.38 1818.82,-261 1829.98,-259.61 1841.78,-257.66 1853.17,-255.52"/>
<polygon fill="#63b8ff" stroke="#63b8ff" points="953.84,-302.15 943.83,-305.64 953.83,-309.15 953.84,-302.15"/>
</a>
</g>
</g>
<!-- Node12&#45;&gt;Node8 -->
<g id="edge24_Node000012_Node000008" class="edge">
<title>Node12&#45;&gt;Node8</title>
<g id="a_edge24_Node000012_Node000008"><a xlink:title=" ">
<path fill="none" stroke="#63b8ff" d="M876.06,-294.35C859.71,-287.52 842.3,-276.94 832.82,-261 823.5,-245.34 820.19,-233.14 832.82,-220 876.77,-174.26 1878.19,-170.36 2059.73,-170.03"/>
<polygon fill="#63b8ff" stroke="#63b8ff" points="874.9,-297.66 885.49,-297.95 877.4,-291.12 874.9,-297.66"/>
</a>
</g>
</g>
<!-- Node13 -->
<g id="Node000013" class="node">
<title>Node13</title>
<g id="a_Node000013"><a xlink:href="lin__alg_8c.html" target="_top" xlink:title="Linear algebra with vectors.">
<polygon fill="white" stroke="#666666" points="785.32,-255.5 634.32,-255.5 634.32,-225.5 785.32,-225.5 785.32,-255.5"/>
<text text-anchor="start" x="642.32" y="-243.5" font-family="Helvetica,sans-Serif" font-size="10.00">/home/runner/work/QPALM</text>
<text text-anchor="middle" x="709.82" y="-232.5" font-family="Helvetica,sans-Serif" font-size="10.00">/QPALM/QPALM/src/lin_alg.c</text>
</a>
</g>
</g>
<!-- Node12&#45;&gt;Node13 -->
<g id="edge14_Node000012_Node000013" class="edge">
<title>Node12&#45;&gt;Node13</title>
<g id="a_edge14_Node000012_Node000013"><a xlink:title=" ">
<path fill="none" stroke="#63b8ff" d="M877.49,-293.85C843.03,-283.09 791.79,-267.09 755.03,-255.62"/>
<polygon fill="#63b8ff" stroke="#63b8ff" points="876.58,-297.23 887.17,-296.87 878.67,-290.55 876.58,-297.23"/>
</a>
</g>
</g>
<!-- Node14 -->
<g id="Node000014" class="node">
<title>Node14</title>
<g id="a_Node000014"><a xlink:href="linesearch_8c.html" target="_top" xlink:title="Routines to perform exact or backtracking linesearch.">
<polygon fill="white" stroke="#666666" points="366.32,-255.5 197.32,-255.5 197.32,-225.5 366.32,-225.5 366.32,-255.5"/>
<text text-anchor="start" x="205.32" y="-243.5" font-family="Helvetica,sans-Serif" font-size="10.00">/home/runner/work/QPALM</text>
<text text-anchor="middle" x="281.82" y="-232.5" font-family="Helvetica,sans-Serif" font-size="10.00">/QPALM/QPALM/src/linesearch.c</text>
</a>
</g>
</g>
<!-- Node12&#45;&gt;Node14 -->
<g id="edge15_Node000012_Node000014" class="edge">
<title>Node12&#45;&gt;Node14</title>
<g id="a_edge15_Node000012_Node000014"><a xlink:title=" ">
<path fill="none" stroke="#63b8ff" d="M875.48,-303.94C786.12,-300.02 561.1,-288.1 374.82,-261 364.61,-259.52 353.85,-257.59 343.41,-255.54"/>
<polygon fill="#63b8ff" stroke="#63b8ff" points="875.56,-307.44 885.7,-304.38 875.86,-300.45 875.56,-307.44"/>
</a>
</g>
</g>
<!-- Node15 -->
<g id="Node000015" class="node">
<title>Node15</title>
<g id="a_Node000015"><a xlink:href="newton_8c.html" target="_top" xlink:title="Functions to calculate the semismooth Newton direction.">
<polygon fill="white" stroke="#666666" points="539.32,-255.5 384.32,-255.5 384.32,-225.5 539.32,-225.5 539.32,-255.5"/>
<text text-anchor="start" x="392.32" y="-243.5" font-family="Helvetica,sans-Serif" font-size="10.00">/home/runner/work/QPALM</text>
<text text-anchor="middle" x="461.82" y="-232.5" font-family="Helvetica,sans-Serif" font-size="10.00">/QPALM/QPALM/src/newton.c</text>
</a>
</g>
</g>
<!-- Node12&#45;&gt;Node15 -->
<g id="edge16_Node000012_Node000015" class="edge">
<title>Node12&#45;&gt;Node15</title>
<g id="a_edge16_Node000012_Node000015"><a xlink:title=" ">
<path fill="none" stroke="#63b8ff" d="M875.66,-301.79C809.22,-295.25 670.28,-280.48 553.82,-261 544.32,-259.41 534.31,-257.52 524.53,-255.55"/>
<polygon fill="#63b8ff" stroke="#63b8ff" points="875.39,-305.28 885.68,-302.77 876.07,-298.31 875.39,-305.28"/>
</a>
</g>
</g>
<!-- Node16 -->
<g id="Node000016" class="node">
<title>Node16</title>
<g id="a_Node000016"><a xlink:href="scaling_8c.html" target="_top" xlink:title="Problem data scaling during setup.">
<polygon fill="white" stroke="#666666" points="416.32,-184 263.32,-184 263.32,-154 416.32,-154 416.32,-184"/>
<text text-anchor="start" x="271.32" y="-172" font-family="Helvetica,sans-Serif" font-size="10.00">/home/runner/work/QPALM</text>
<text text-anchor="middle" x="339.82" y="-161" font-family="Helvetica,sans-Serif" font-size="10.00">/QPALM/QPALM/src/scaling.c</text>
</a>
</g>
</g>
<!-- Node12&#45;&gt;Node16 -->
<g id="edge19_Node000012_Node000016" class="edge">
<title>Node12&#45;&gt;Node16</title>
<g id="a_edge19_Node000012_Node000016"><a xlink:title=" ">
<path fill="none" stroke="#63b8ff" d="M875.29,-303.04C800.48,-297.9 641.28,-284.5 591.82,-261 567.67,-249.53 571.36,-232.65 547.82,-220 507.25,-198.2 457.18,-185.79 416.33,-178.79"/>
<polygon fill="#63b8ff" stroke="#63b8ff" points="875.48,-306.56 885.69,-303.74 875.95,-299.58 875.48,-306.56"/>
</a>
</g>
</g>
<!-- Node17 -->
<g id="Node000017" class="node">
<title>Node17</title>
<g id="a_Node000017"><a xlink:href="solver__interface_8c.html" target="_top" xlink:title="Interface and wrapper to matrix/factorization (ladel) functions.">
<polygon fill="white" stroke="#666666" points="987.82,-261 841.82,-261 841.82,-220 987.82,-220 987.82,-261"/>
<text text-anchor="start" x="849.82" y="-249" font-family="Helvetica,sans-Serif" font-size="10.00">/home/runner/work/QPALM</text>
<text text-anchor="start" x="849.82" y="-238" font-family="Helvetica,sans-Serif" font-size="10.00">/QPALM/QPALM/src/solver</text>
<text text-anchor="middle" x="914.82" y="-227" font-family="Helvetica,sans-Serif" font-size="10.00">_interface.c</text>
</a>
</g>
</g>
<!-- Node12&#45;&gt;Node17 -->
<g id="edge20_Node000012_Node000017" class="edge">
<title>Node12&#45;&gt;Node17</title>
<g id="a_edge20_Node000012_Node000017"><a xlink:title=" ">
<path fill="none" stroke="#63b8ff" d="M914.82,-286.63C914.82,-278.56 914.82,-269.15 914.82,-261.01"/>
<polygon fill="#63b8ff" stroke="#63b8ff" points="911.32,-286.87 914.82,-296.87 918.32,-286.87 911.32,-286.87"/>
</a>
</g>
</g>
<!-- Node18 -->
<g id="Node000018" class="node">
<title>Node18</title>
<g id="a_Node000018"><a xlink:href="validate_8c.html" target="_top" xlink:title="Validation of the user provided settings and data.">
<polygon fill="white" stroke="#666666" points="1809.82,-255.5 1651.82,-255.5 1651.82,-225.5 1809.82,-225.5 1809.82,-255.5"/>
<text text-anchor="start" x="1659.82" y="-243.5" font-family="Helvetica,sans-Serif" font-size="10.00">/home/runner/work/QPALM</text>
<text text-anchor="middle" x="1730.82" y="-232.5" font-family="Helvetica,sans-Serif" font-size="10.00">/QPALM/QPALM/src/validate.c</text>
</a>
</g>
</g>
<!-- Node12&#45;&gt;Node18 -->
<g id="edge23_Node000012_Node000018" class="edge">
<title>Node12&#45;&gt;Node18</title>
<g id="a_edge23_Node000012_Node000018"><a xlink:title=" ">
<path fill="none" stroke="#63b8ff" d="M953.99,-304.2C1059.42,-300.43 1357.93,-288.01 1604.82,-261 1620,-259.34 1636.15,-257.16 1651.65,-254.85"/>
<polygon fill="#63b8ff" stroke="#63b8ff" points="953.69,-300.71 943.82,-304.56 953.94,-307.7 953.69,-300.71"/>
</a>
</g>
</g>
<!-- Node12&#45;&gt;Node19 -->
<g id="edge25_Node000012_Node000019" class="edge">
<title>Node12&#45;&gt;Node19</title>
<g id="a_edge25_Node000012_Node000019"><a xlink:title=" ">
<path fill="none" stroke="#63b8ff" d="M875.39,-304.59C765.95,-301.73 449.18,-291.26 187.82,-261 159.29,-257.7 127.07,-252 104.17,-247.61"/>
<polygon fill="#63b8ff" stroke="#63b8ff" points="875.54,-308.09 885.63,-304.85 875.72,-301.09 875.54,-308.09"/>
</a>
</g>
</g>
<!-- Node19&#45;&gt;Node6 -->
<g id="edge26_Node000019_Node000006" class="edge">
<title>Node19&#45;&gt;Node6</title>
<g id="a_edge26_Node000019_Node000006"><a xlink:title=" ">
<path fill="none" stroke="#63b8ff" d="M95.91,-225.46C128.82,-205.39 193.36,-169.23 253.82,-154 449.33,-104.74 1067.67,-98.95 1283,-98.46"/>
<polygon fill="#63b8ff" stroke="#63b8ff" points="93.78,-222.66 87.12,-230.9 97.47,-228.61 93.78,-222.66"/>
</a>
</g>
</g>
<!-- Node19&#45;&gt;Node8 -->
<g id="edge28_Node000019_Node000008" class="edge">
<title>Node19&#45;&gt;Node8</title>
<g id="a_edge28_Node000019_Node000008"><a xlink:title=" ">
<path fill="none" stroke="#63b8ff" d="M98.35,-226.61C104.54,-223.93 111.29,-221.47 117.82,-220 315.48,-175.53 1834,-170.55 2059.78,-170.05"/>
<polygon fill="#63b8ff" stroke="#63b8ff" points="96.76,-223.49 89.19,-230.9 99.73,-229.83 96.76,-223.49"/>
</a>
</g>
</g>
<!-- Node19&#45;&gt;Node16 -->
<g id="edge27_Node000019_Node000016" class="edge">
<title>Node19&#45;&gt;Node16</title>
<g id="a_edge27_Node000019_Node000016"><a xlink:title=" ">
<path fill="none" stroke="#63b8ff" d="M100.24,-226.79C105.95,-224.33 112.02,-221.92 117.82,-220 165.27,-204.31 220.03,-191.92 263.29,-183.39"/>
<polygon fill="#63b8ff" stroke="#63b8ff" points="98.75,-223.62 91.06,-230.92 101.62,-230.01 98.75,-223.62"/>
</a>
</g>
</g>
<!-- Node20&#45;&gt;Node5 -->
<g id="edge30_Node000020_Node000005" class="edge">
<title>Node20&#45;&gt;Node5</title>
<g id="a_edge30_Node000020_Node000005"><a xlink:title=" ">
<path fill="none" stroke="#63b8ff" d="M329.99,-302.55C489.15,-292.8 988.54,-262.16 996.82,-261 1006.84,-259.6 1017.42,-257.68 1027.64,-255.59"/>
<polygon fill="#63b8ff" stroke="#63b8ff" points="329.77,-299.06 320.01,-303.16 330.2,-306.04 329.77,-299.06"/>
</a>
</g>
</g>
<!-- Node20&#45;&gt;Node6 -->
<g id="edge32_Node000020_Node000006" class="edge">
<title>Node20&#45;&gt;Node6</title>
<g id="a_edge32_Node000020_Node000006"><a xlink:title=" ">
<path fill="none" stroke="#63b8ff" d="M233.21,-304.34C165.8,-301.58 49.19,-292.29 22.82,-261 -10.11,-221.94 20.57,-179.54 64.82,-154 117.75,-123.45 1015.09,-104.73 1282.93,-99.81"/>
<polygon fill="#63b8ff" stroke="#63b8ff" points="233.47,-307.85 243.59,-304.73 233.73,-300.85 233.47,-307.85"/>
</a>
</g>
</g>
<!-- Node20&#45;&gt;Node8 -->
<g id="edge33_Node000020_Node000008" class="edge">
<title>Node20&#45;&gt;Node8</title>
<g id="a_edge33_Node000020_Node000008"><a xlink:title=" ">
<path fill="none" stroke="#63b8ff" d="M233.75,-297.92C211.9,-291.82 188.03,-280.81 174.82,-261 164.7,-245.84 162.1,-233.05 174.82,-220 209.21,-184.69 1824.59,-171.87 2059.46,-170.19"/>
<polygon fill="#63b8ff" stroke="#63b8ff" points="233.05,-301.35 243.6,-300.4 234.76,-294.57 233.05,-301.35"/>
</a>
</g>
</g>
<!-- Node20&#45;&gt;Node14 -->
<g id="edge31_Node000020_Node000014" class="edge">
<title>Node20&#45;&gt;Node14</title>
<g id="a_edge31_Node000020_Node000014"><a xlink:title=" ">
<path fill="none" stroke="#63b8ff" d="M281.82,-286.85C281.82,-276.97 281.82,-265.01 281.82,-255.86"/>
<polygon fill="#63b8ff" stroke="#63b8ff" points="278.32,-286.87 281.82,-296.87 285.32,-286.87 278.32,-286.87"/>
</a>
</g>
</g>
<!-- Node21&#45;&gt;Node5 -->
<g id="edge35_Node000021_Node000005" class="edge">
<title>Node21&#45;&gt;Node5</title>
<g id="a_edge35_Node000021_Node000005"><a xlink:title=" ">
<path fill="none" stroke="#63b8ff" d="M503.12,-303.93C593.21,-300.11 813.97,-288.51 996.82,-261 1006.67,-259.52 1017.07,-257.58 1027.14,-255.51"/>
<polygon fill="#63b8ff" stroke="#63b8ff" points="502.89,-300.44 493.04,-304.35 503.18,-307.43 502.89,-300.44"/>
</a>
</g>
</g>
<!-- Node21&#45;&gt;Node6 -->
<g id="edge37_Node000021_Node000006" class="edge">
<title>Node21&#45;&gt;Node6</title>
<g id="a_edge37_Node000021_Node000006"><a xlink:title=" ">
<path fill="none" stroke="#63b8ff" d="M420.31,-302.67C315.51,-295.32 47.65,-275.24 34.82,-261 22.62,-247.46 25.08,-235.4 34.82,-220 71.36,-162.19 107.47,-170.59 173.82,-154 385.3,-101.11 1057.74,-97.75 1283.27,-98.16"/>
<polygon fill="#63b8ff" stroke="#63b8ff" points="420.29,-306.18 430.51,-303.38 420.78,-299.19 420.29,-306.18"/>
</a>
</g>
</g>
<!-- Node21&#45;&gt;Node8 -->
<g id="edge38_Node000021_Node000008" class="edge">
<title>Node21&#45;&gt;Node8</title>
<g id="a_edge38_Node000021_Node000008"><a xlink:title=" ">
<path fill="none" stroke="#63b8ff" d="M420.52,-301.73C347.7,-294.65 202.72,-278.52 187.82,-261 176.01,-247.12 175.1,-233.05 187.82,-220 221.97,-184.93 1826.38,-171.91 2059.65,-170.2"/>
<polygon fill="#63b8ff" stroke="#63b8ff" points="420.43,-305.23 430.72,-302.7 421.1,-298.26 420.43,-305.23"/>
</a>
</g>
</g>
<!-- Node21&#45;&gt;Node15 -->
<g id="edge36_Node000021_Node000015" class="edge">
<title>Node21&#45;&gt;Node15</title>
<g id="a_edge36_Node000021_Node000015"><a xlink:title=" ">
<path fill="none" stroke="#63b8ff" d="M461.82,-286.85C461.82,-276.97 461.82,-265.01 461.82,-255.86"/>
<polygon fill="#63b8ff" stroke="#63b8ff" points="458.32,-286.87 461.82,-296.87 465.32,-286.87 458.32,-286.87"/>
</a>
</g>
</g>
<!-- Node22&#45;&gt;Node2 -->
<g id="edge41_Node000022_Node000002" class="edge">
<title>Node22&#45;&gt;Node2</title>
<g id="a_edge41_Node000022_Node000002"><a xlink:title=" ">
<path fill="none" stroke="#63b8ff" d="M1510.53,-286.85C1510.37,-276.97 1510.18,-265.01 1510.04,-255.86"/>
<polygon fill="#63b8ff" stroke="#63b8ff" points="1507.03,-286.92 1510.68,-296.87 1514.03,-286.82 1507.03,-286.92"/>
</a>
</g>
</g>
<!-- Node22&#45;&gt;Node5 -->
<g id="edge40_Node000022_Node000005" class="edge">
<title>Node22&#45;&gt;Node5</title>
<g id="a_edge40_Node000022_Node000005"><a xlink:title=" ">
<path fill="none" stroke="#63b8ff" d="M1461,-300.23C1395.22,-292.96 1275.91,-278.74 1174.82,-261 1165.62,-259.39 1155.94,-257.48 1146.48,-255.5"/>
<polygon fill="#63b8ff" stroke="#63b8ff" points="1460.76,-303.72 1471.08,-301.33 1461.52,-296.76 1460.76,-303.72"/>
</a>
</g>
</g>
<!-- Node22&#45;&gt;Node6 -->
<g id="edge42_Node000022_Node000006" class="edge">
<title>Node22&#45;&gt;Node6</title>
<g id="a_edge42_Node000022_Node000006"><a xlink:title=" ">
<path fill="none" stroke="#63b8ff" d="M1559.95,-293.97C1577.17,-287.31 1594.71,-276.96 1604.82,-261 1614.56,-245.6 1614.45,-235.47 1604.82,-220 1567,-159.25 1488.9,-127.99 1430.6,-112.52"/>
<polygon fill="#63b8ff" stroke="#63b8ff" points="1558.74,-290.68 1550.47,-297.3 1561.06,-297.28 1558.74,-290.68"/>
</a>
</g>
</g>
<!-- Node22&#45;&gt;Node8 -->
<g id="edge43_Node000022_Node000008" class="edge">
<title>Node22&#45;&gt;Node8</title>
<g id="a_edge43_Node000022_Node000008"><a xlink:title=" ">
<path fill="none" stroke="#63b8ff" d="M1560.78,-305.9C1671.79,-306.02 1935.3,-301.85 2012.82,-261 2048.86,-242.01 2074.19,-197.55 2083.68,-178.7"/>
<polygon fill="#63b8ff" stroke="#63b8ff" points="1560.53,-302.4 1550.52,-305.87 1560.51,-309.4 1560.53,-302.4"/>
</a>
</g>
</g>
<!-- Node23&#45;&gt;Node9 -->
<g id="edge46_Node000023_Node000009" class="edge">
<title>Node23&#45;&gt;Node9</title>
<g id="a_edge46_Node000023_Node000009"><a xlink:title=" ">
<path fill="none" stroke="#63b8ff" d="M2345.29,-341.59C2338.88,-293.6 2322.02,-167.38 2315.47,-118.36"/>
<polygon fill="#63b8ff" stroke="#63b8ff" points="2341.86,-342.33 2346.65,-351.78 2348.8,-341.41 2341.86,-342.33"/>
</a>
</g>
</g>
<!-- Node24&#45;&gt;Node5 -->
<g id="edge49_Node000024_Node000005" class="edge">
<title>Node24&#45;&gt;Node5</title>
<g id="a_edge49_Node000024_Node000005"><a xlink:title=" ">
<path fill="none" stroke="#63b8ff" d="M1036.49,-342.7C1048.06,-318.97 1068.3,-277.45 1078.9,-255.7"/>
<polygon fill="#63b8ff" stroke="#63b8ff" points="1033.22,-341.42 1031.99,-351.94 1039.52,-344.49 1033.22,-341.42"/>
</a>
</g>
</g>
<!-- Node24&#45;&gt;Node6 -->
<g id="edge50_Node000024_Node000006" class="edge">
<title>Node24&#45;&gt;Node6</title>
<g id="a_edge50_Node000024_Node000006"><a xlink:title=" ">
<path fill="none" stroke="#63b8ff" d="M965.43,-360.79C831.08,-360.6 504.73,-355.66 234.82,-316 131.26,-300.78 70.62,-343.2 5.82,-261 -5.46,-246.69 3.4,-238.06 5.82,-220 9.85,-189.86 0.04,-172.95 23.82,-154 73.29,-114.56 1009.05,-102.02 1283.05,-99.19"/>
<polygon fill="#63b8ff" stroke="#63b8ff" points="965.53,-364.29 975.53,-360.8 965.54,-357.29 965.53,-364.29"/>
</a>
</g>
</g>
<!-- Node24&#45;&gt;Node8 -->
<g id="edge53_Node000024_Node000008" class="edge">
<title>Node24&#45;&gt;Node8</title>
<g id="a_edge53_Node000024_Node000008"><a xlink:title=" ">
<path fill="none" stroke="#63b8ff" d="M1090.01,-360.07C1270.5,-358.41 1792.14,-350.68 1958.82,-316 1992.56,-308.98 2084.24,-289.36 2103.82,-261 2121.59,-235.26 2103,-195.93 2093.14,-178.65"/>
<polygon fill="#63b8ff" stroke="#63b8ff" points="1089.86,-356.57 1079.89,-360.16 1089.92,-363.57 1089.86,-356.57"/>
</a>
</g>
</g>
<!-- Node24&#45;&gt;Node12 -->
<g id="edge52_Node000024_Node000012" class="edge">
<title>Node24&#45;&gt;Node12</title>
<g id="a_edge52_Node000024_Node000012"><a xlink:title=" ">
<path fill="none" stroke="#63b8ff" d="M1000.38,-347.63C979.57,-337.87 951.52,-324.71 933.3,-316.17"/>
<polygon fill="#63b8ff" stroke="#63b8ff" points="999.12,-350.91 1009.66,-351.98 1002.09,-344.57 999.12,-350.91"/>
</a>
</g>
</g>
<!-- Node24&#45;&gt;Node17 -->
<g id="edge51_Node000024_Node000017" class="edge">
<title>Node24&#45;&gt;Node17</title>
<g id="a_edge51_Node000024_Node000017"><a xlink:title=" ">
<path fill="none" stroke="#63b8ff" d="M1012.69,-344.57C992.21,-323 955.67,-284.52 933.5,-261.17"/>
<polygon fill="#63b8ff" stroke="#63b8ff" points="1010.27,-347.1 1019.69,-351.94 1015.34,-342.28 1010.27,-347.1"/>
</a>
</g>
</g>
<!-- Node25&#45;&gt;Node6 -->
<g id="edge55_Node000025_Node000006" class="edge">
<title>Node25&#45;&gt;Node6</title>
<g id="a_edge55_Node000025_Node000006"><a xlink:title=" ">
<path fill="none" stroke="#63b8ff" d="M2192.37,-286.94C2193.35,-278.97 2194.34,-269.55 2194.82,-261 2197.62,-210.9 2201.05,-181.09 2158.82,-154 2098.57,-115.36 1619.47,-103 1432.33,-99.62"/>
<polygon fill="#63b8ff" stroke="#63b8ff" points="2188.88,-286.62 2191.06,-296.99 2195.82,-287.53 2188.88,-286.62"/>
</a>
</g>
</g>
<!-- Node25&#45;&gt;Node7 -->
<g id="edge56_Node000025_Node000007" class="edge">
<title>Node25&#45;&gt;Node7</title>
<g id="a_edge56_Node000025_Node000007"><a xlink:title=" ">
<path fill="none" stroke="#63b8ff" d="M2143.41,-294.66C2097.27,-283.88 2026.27,-267.3 1975.86,-255.52"/>
<polygon fill="#63b8ff" stroke="#63b8ff" points="2142.61,-298.07 2153.15,-296.94 2144.21,-291.25 2142.61,-298.07"/>
</a>
</g>
</g>
<!-- Node25&#45;&gt;Node8 -->
<g id="edge57_Node000025_Node000008" class="edge">
<title>Node25&#45;&gt;Node8</title>
<g id="a_edge57_Node000025_Node000008"><a xlink:title=" ">
<path fill="none" stroke="#63b8ff" d="M2191.47,-286.72C2192.14,-268.16 2190.46,-239.74 2176.82,-220 2162.4,-199.15 2136.32,-186 2116.11,-178.44"/>
<polygon fill="#63b8ff" stroke="#63b8ff" points="2187.97,-286.65 2190.84,-296.84 2194.95,-287.08 2187.97,-286.65"/>
</a>
</g>
</g>
<!-- Node26&#45;&gt;Node2 -->
<g id="edge60_Node000026_Node000002" class="edge">
<title>Node26&#45;&gt;Node2</title>
<g id="a_edge60_Node000026_Node000002"><a xlink:title=" ">
<path fill="none" stroke="#63b8ff" d="M1418.29,-292C1437.65,-281.32 1464.59,-266.45 1484.23,-255.62"/>
<polygon fill="#63b8ff" stroke="#63b8ff" points="1416.53,-288.97 1409.46,-296.87 1419.91,-295.1 1416.53,-288.97"/>
</a>
</g>
</g>
<!-- Node26&#45;&gt;Node3 -->
<g id="edge63_Node000026_Node000003" class="edge">
<title>Node26&#45;&gt;Node3</title>
<g id="a_edge63_Node000026_Node000003"><a xlink:title=" ">
<path fill="none" stroke="#63b8ff" d="M1366.15,-292.58C1343.21,-281.86 1310.65,-266.65 1287.03,-255.62"/>
<polygon fill="#63b8ff" stroke="#63b8ff" points="1364.8,-295.81 1375.34,-296.87 1367.76,-289.47 1364.8,-295.81"/>
</a>
</g>
</g>
<!-- Node26&#45;&gt;Node5 -->
<g id="edge59_Node000026_Node000005" class="edge">
<title>Node26&#45;&gt;Node5</title>
<g id="a_edge59_Node000026_Node000005"><a xlink:title=" ">
<path fill="none" stroke="#63b8ff" d="M1363.32,-299.46C1320.98,-291.03 1242.01,-275.19 1174.82,-261 1166.61,-259.27 1157.99,-257.42 1149.48,-255.57"/>
<polygon fill="#63b8ff" stroke="#63b8ff" points="1362.77,-302.92 1373.26,-301.43 1364.14,-296.05 1362.77,-302.92"/>
</a>
</g>
</g>
<!-- Node26&#45;&gt;Node6 -->
<g id="edge61_Node000026_Node000006" class="edge">
<title>Node26&#45;&gt;Node6</title>
<g id="a_edge61_Node000026_Node000006"><a xlink:title=" ">
<path fill="none" stroke="#63b8ff" d="M1390.59,-286.92C1383.47,-246.02 1366.59,-148.95 1360.27,-112.58"/>
<polygon fill="#63b8ff" stroke="#63b8ff" points="1387.15,-287.62 1392.32,-296.87 1394.05,-286.42 1387.15,-287.62"/>
</a>
</g>
</g>
<!-- Node26&#45;&gt;Node7 -->
<g id="edge62_Node000026_Node000007" class="edge">
<title>Node26&#45;&gt;Node7</title>
<g id="a_edge62_Node000026_Node000007"><a xlink:title=" ">
<path fill="none" stroke="#63b8ff" d="M1424.31,-301.6C1436.3,-300.1 1450.2,-298.41 1462.82,-297 1620.86,-279.28 1661.56,-284.7 1818.82,-261 1829.09,-259.45 1839.93,-257.55 1850.49,-255.54"/>
<polygon fill="#63b8ff" stroke="#63b8ff" points="1423.82,-298.13 1414.33,-302.85 1424.69,-305.08 1423.82,-298.13"/>
</a>
</g>
</g>
<!-- Node26&#45;&gt;Node8 -->
<g id="edge64_Node000026_Node000008" class="edge">
<title>Node26&#45;&gt;Node8</title>
<g id="a_edge64_Node000026_Node000008"><a xlink:title=" ">
<path fill="none" stroke="#63b8ff" d="M1392.59,-286.8C1392.42,-266.95 1395.61,-236.25 1414.82,-220 1464.69,-177.82 1938.35,-171.18 2059.64,-170.18"/>
<polygon fill="#63b8ff" stroke="#63b8ff" points="1389.09,-286.94 1392.97,-296.8 1396.09,-286.67 1389.09,-286.94"/>
</a>
</g>
</g>
<!-- Node27&#45;&gt;Node6 -->
<g id="edge66_Node000027_Node000006" class="edge">
<title>Node27&#45;&gt;Node6</title>
<g id="a_edge66_Node000027_Node000006"><a xlink:title=" ">
<path fill="none" stroke="#63b8ff" d="M2137.35,-293.05C2152.46,-286.14 2168.13,-275.86 2176.82,-261 2203.5,-215.35 2171.52,-178.78 2124.82,-154 2064.67,-122.08 1613.33,-105.79 1432.45,-100.49"/>
<polygon fill="#63b8ff" stroke="#63b8ff" points="2135.96,-289.83 2128.09,-296.92 2138.66,-296.29 2135.96,-289.83"/>
</a>
</g>
</g>
<!-- Node27&#45;&gt;Node8 -->
<g id="edge68_Node000027_Node000008" class="edge">
<title>Node27&#45;&gt;Node8</title>
<g id="a_edge68_Node000027_Node000008"><a xlink:title=" ">
<path fill="none" stroke="#63b8ff" d="M2127.17,-292.22C2139.63,-284.93 2152.86,-274.56 2159.82,-261 2168.14,-244.79 2168.26,-236.15 2159.82,-220 2149.38,-200.04 2126.94,-186.45 2109.87,-178.53"/>
<polygon fill="#63b8ff" stroke="#63b8ff" points="2125.47,-289.16 2118.34,-297 2128.8,-295.32 2125.47,-289.16"/>
</a>
</g>
</g>
<!-- Node27&#45;&gt;Node18 -->
<g id="edge67_Node000027_Node000018" class="edge">
<title>Node27&#45;&gt;Node18</title>
<g id="a_edge67_Node000027_Node000018"><a xlink:title=" ">
<path fill="none" stroke="#63b8ff" d="M2055,-299.49C2000.12,-291.59 1902.11,-276.86 1818.82,-261 1810.05,-259.33 1800.83,-257.44 1791.79,-255.51"/>
<polygon fill="#63b8ff" stroke="#63b8ff" points="2054.67,-302.97 2065.06,-300.93 2055.66,-296.04 2054.67,-302.97"/>
</a>
</g>
</g>
</g>
</svg>

<g id="navigator" transform="translate(0 0)" fill="#404254">
  <rect fill="#f2f5e9" fill-opacity="0.5" stroke="#606060" stroke-width=".5" x="0" y="0" width="60" height="60"/>
  <use id="zoomplus" xlink:href="#zoomPlus" x="17" y="9" onmousedown="handleZoom(evt,'in')"/>
  <use id="zoomminus" xlink:href="#zoomMin" x="42" y="9" onmousedown="handleZoom(evt,'out')"/>
  <use id="reset" xlink:href="#resetDef" x="30" y="36" onmousedown="handleReset()"/>
   <use id="arrowup" xlink:href="#arrowUp" x="0" y="0" onmousedown="handlePan(0,-1)"/>
  <use id="arrowright" xlink:href="#arrowRight" x="0" y="0" onmousedown="handlePan(1,0)"/>
  <use id="arrowdown" xlink:href="#arrowDown" x="0" y="0" onmousedown="handlePan(0,1)"/>
  <use id="arrowleft" xlink:href="#arrowLeft" x="0" y="0" onmousedown="handlePan(-1,0)"/>
</g>
<svg viewBox="0 0 15 15" width="100%" height="30px" preserveAspectRatio="xMaxYMin meet">
 <g id="arrow_out" transform="scale(0.3 0.3)">
  <a xlink:href="types_8h__dep__incl_org.svg" target="_base">
   <rect id="button" ry="5" rx="5" y="6" x="6" height="38" width="38"
        fill="#f2f5e9" fill-opacity="0.5" stroke="#606060" stroke-width="1.0"/>
   <path id="arrow"
     d="M 11.500037,31.436501 C 11.940474,20.09759 22.043105,11.32322 32.158766,21.979434 L 37.068811,17.246167 C 37.068811,17.246167 37.088388,32 37.088388,32 L 22.160133,31.978069 C 22.160133,31.978069 26.997745,27.140456 26.997745,27.140456 C 18.528582,18.264221 13.291696,25.230495 11.500037,31.436501 z"
     style="fill:#404040;"/>
  </a>
 </g>
</svg>

<style type='text/css'>
<![CDATA[
[data-mouse-over-selected='false'] { opacity: 0.7; }
[data-mouse-over-selected='true']  { opacity: 1.0; }
]]>
</style>
<script type="application/ecmascript"><![CDATA[
document.addEventListener('DOMContentLoaded', (event) => {
  highlightEdges();
  highlightAdjacentNodes();
});
]]></script>
</svg>
