<?xml version="1.0" encoding="UTF-8" standalone="no"?>
<!DOCTYPE svg PUBLIC "-//W3C//DTD SVG 1.1//EN"
 "http://www.w3.org/Graphics/SVG/1.1/DTD/svg11.dtd">
<!-- Generated by graphviz version 2.43.0 (0)
 -->
<!-- Title: util.h Pages: 1 -->
<svg width="955pt" height="247pt"
 viewBox="0.00 0.00 955.00 247.00" xmlns="http://www.w3.org/2000/svg" xmlns:xlink="http://www.w3.org/1999/xlink">
<g id="graph0" class="graph" transform="scale(1 1) rotate(0) translate(4 243)">
<title>util.h</title>
<!-- Node1 -->
<g id="Node000001" class="node">
<title>Node1</title>
<g id="a_Node000001"><a xlink:title="Utility functions.">
<polygon fill="#999999" stroke="#666666" points="456.5,-239 415.5,-239 415.5,-220 456.5,-220 456.5,-239"/>
<text text-anchor="middle" x="436" y="-227" font-family="Helvetica,sans-Serif" font-size="10.00">util.h</text>
</a>
</g>
</g>
<!-- Node2 -->
<g id="Node000002" class="node">
<title>Node2</title>
<g id="a_Node000002"><a xlink:href="iteration_8c.html" target="_top" xlink:title="QPALM main solver routines.">
<polygon fill="white" stroke="#666666" points="160,-184 0,-184 0,-154 160,-154 160,-184"/>
<text text-anchor="start" x="8" y="-172" font-family="Helvetica,sans-Serif" font-size="10.00">/home/runner/work/QPALM</text>
<text text-anchor="middle" x="80" y="-161" font-family="Helvetica,sans-Serif" font-size="10.00">/QPALM/QPALM/src/iteration.c</text>
</a>
</g>
</g>
<!-- Node1&#45;&gt;Node2 -->
<g id="edge1_Node000001_Node000002" class="edge">
<title>Node1&#45;&gt;Node2</title>
<g id="a_edge1_Node000001_Node000002"><a xlink:title=" ">
<path fill="none" stroke="#63b8ff" d="M405.36,-223.46C351.43,-214.6 237.92,-195.95 160.31,-183.2"/>
<polygon fill="#63b8ff" stroke="#63b8ff" points="404.89,-226.93 415.32,-225.1 406.02,-220.03 404.89,-226.93"/>
</a>
</g>
</g>
<!-- Node3 -->
<g id="Node000003" class="node">
<title>Node3</title>
<g id="a_Node000003"><a xlink:href="nonconvex_8c.html" target="_top" xlink:title="Routines to deal with nonconvex QPs.">
<polygon fill="white" stroke="#666666" points="350,-184 178,-184 178,-154 350,-154 350,-184"/>
<text text-anchor="start" x="186" y="-172" font-family="Helvetica,sans-Serif" font-size="10.00">/home/runner/work/QPALM</text>
<text text-anchor="middle" x="264" y="-161" font-family="Helvetica,sans-Serif" font-size="10.00">/QPALM/QPALM/src/nonconvex.c</text>
</a>
</g>
</g>
<!-- Node1&#45;&gt;Node3 -->
<g id="edge2_Node000001_Node000003" class="edge">
<title>Node1&#45;&gt;Node3</title>
<g id="a_edge2_Node000001_Node000003"><a xlink:title=" ">
<path fill="none" stroke="#63b8ff" d="M405.66,-218.18C377.84,-208.72 336.39,-194.62 305.5,-184.11"/>
<polygon fill="#63b8ff" stroke="#63b8ff" points="404.66,-221.54 415.25,-221.44 406.91,-214.91 404.66,-221.54"/>
</a>
</g>
</g>
<!-- Node4 -->
<g id="Node000004" class="node">
<title>Node4</title>
<g id="a_Node000004"><a xlink:href="qpalm_8c.html" target="_top" xlink:title="QPALM main solver API.">
<polygon fill="white" stroke="#666666" points="576.5,-112.5 427.5,-112.5 427.5,-82.5 576.5,-82.5 576.5,-112.5"/>
<text text-anchor="start" x="435.5" y="-100.5" font-family="Helvetica,sans-Serif" font-size="10.00">/home/runner/work/QPALM</text>
<text text-anchor="middle" x="502" y="-89.5" font-family="Helvetica,sans-Serif" font-size="10.00">/QPALM/QPALM/src/qpalm.c</text>
</a>
</g>
</g>
<!-- Node1&#45;&gt;Node4 -->
<g id="edge3_Node000001_Node000004" class="edge">
<title>Node1&#45;&gt;Node4</title>
<g id="a_edge3_Node000001_Node000004"><a xlink:title=" ">
<path fill="none" stroke="#63b8ff" d="M417.86,-212.66C402.64,-197.37 385.13,-173.7 397,-154 408.97,-134.13 430.7,-121.01 451.3,-112.54"/>
<polygon fill="#63b8ff" stroke="#63b8ff" points="415.78,-215.5 425.45,-219.83 420.58,-210.41 415.78,-215.5"/>
</a>
</g>
</g>
<!-- Node5 -->
<g id="Node000005" class="node">
<title>Node5</title>
<g id="a_Node000005"><a xlink:href="termination_8c.html" target="_top" xlink:title="Routines to check the termination and infeasibility criteria.">
<polygon fill="white" stroke="#666666" points="582,-184 406,-184 406,-154 582,-154 582,-184"/>
<text text-anchor="start" x="414" y="-172" font-family="Helvetica,sans-Serif" font-size="10.00">/home/runner/work/QPALM</text>
<text text-anchor="middle" x="494" y="-161" font-family="Helvetica,sans-Serif" font-size="10.00">/QPALM/QPALM/src/termination.c</text>
</a>
</g>
</g>
<!-- Node1&#45;&gt;Node5 -->
<g id="edge4_Node000001_Node000005" class="edge">
<title>Node1&#45;&gt;Node5</title>
<g id="a_edge4_Node000001_Node000005"><a xlink:title=" ">
<path fill="none" stroke="#63b8ff" d="M451.67,-212.7C460.51,-203.78 471.46,-192.74 480.01,-184.11"/>
<polygon fill="#63b8ff" stroke="#63b8ff" points="449.11,-210.3 444.56,-219.87 454.08,-215.23 449.11,-210.3"/>
</a>
</g>
</g>
<!-- Node6 -->
<g id="Node000006" class="node">
<title>Node6</title>
<g id="a_Node000006"><a xlink:href="util_8c.html" target="_top" xlink:title="Utility functions.">
<polygon fill="white" stroke="#666666" points="746,-184 600,-184 600,-154 746,-154 746,-184"/>
<text text-anchor="start" x="608" y="-172" font-family="Helvetica,sans-Serif" font-size="10.00">/home/runner/work/QPALM</text>
<text text-anchor="middle" x="673" y="-161" font-family="Helvetica,sans-Serif" font-size="10.00">/QPALM/QPALM/src/util.c</text>
</a>
</g>
</g>
<!-- Node1&#45;&gt;Node6 -->
<g id="edge5_Node000001_Node000006" class="edge">
<title>Node1&#45;&gt;Node6</title>
<g id="a_edge5_Node000001_Node000006"><a xlink:title=" ">
<path fill="none" stroke="#63b8ff" d="M466.47,-220.98C504.09,-211.69 568.84,-195.71 615.83,-184.11"/>
<polygon fill="#63b8ff" stroke="#63b8ff" points="465.49,-217.62 456.62,-223.41 467.16,-224.41 465.49,-217.62"/>
</a>
</g>
</g>
<!-- Node7 -->
<g id="Node000007" class="node">
<title>Node7</title>
<g id="a_Node000007"><a xlink:href="qpalm_8h.html" target="_top" xlink:title="QPALM main solver API.">
<polygon fill="white" stroke="#666666" points="820,-178.5 764,-178.5 764,-159.5 820,-159.5 820,-178.5"/>
<text text-anchor="middle" x="792" y="-166.5" font-family="Helvetica,sans-Serif" font-size="10.00">qpalm.h</text>
</a>
</g>
</g>
<!-- Node1&#45;&gt;Node7 -->
<g id="edge6_Node000001_Node000007" class="edge">
<title>Node1&#45;&gt;Node7</title>
<g id="a_edge6_Node000001_Node000007"><a xlink:title=" ">
<path fill="none" stroke="#63b8ff" d="M467.08,-226.48C524.64,-222.22 651.42,-210.47 755,-184 760.59,-182.57 766.49,-180.57 771.91,-178.53"/>
<polygon fill="#63b8ff" stroke="#63b8ff" points="466.56,-223 456.84,-227.21 467.06,-229.99 466.56,-223"/>
</a>
</g>
</g>
<!-- Node7&#45;&gt;Node4 -->
<g id="edge10_Node000007_Node000004" class="edge">
<title>Node7&#45;&gt;Node4</title>
<g id="a_edge10_Node000007_Node000004"><a xlink:title=" ">
<path fill="none" stroke="#63b8ff" d="M761.53,-156.07C759.33,-155.34 757.14,-154.64 755,-154 695.84,-136.42 627.39,-121.74 576.62,-111.9"/>
<polygon fill="#63b8ff" stroke="#63b8ff" points="760.46,-159.41 771.05,-159.47 762.81,-152.81 760.46,-159.41"/>
</a>
</g>
</g>
<!-- Node8 -->
<g id="Node000008" class="node">
<title>Node8</title>
<g id="a_Node000008"><a xlink:href="qpalm_8cpp.html" target="_top" xlink:title=" ">
<polygon fill="white" stroke="#666666" points="783,-118 637,-118 637,-77 783,-77 783,-118"/>
<text text-anchor="start" x="645" y="-106" font-family="Helvetica,sans-Serif" font-size="10.00">/home/runner/work/QPALM</text>
<text text-anchor="start" x="645" y="-95" font-family="Helvetica,sans-Serif" font-size="10.00">/QPALM/QPALM/interfaces</text>
<text text-anchor="middle" x="710" y="-84" font-family="Helvetica,sans-Serif" font-size="10.00">/cxx/src/qpalm.cpp</text>
</a>
</g>
</g>
<!-- Node7&#45;&gt;Node8 -->
<g id="edge7_Node000007_Node000008" class="edge">
<title>Node7&#45;&gt;Node8</title>
<g id="a_edge7_Node000007_Node000008"><a xlink:title=" ">
<path fill="none" stroke="#63b8ff" d="M774,-152.74C762.01,-142.58 746.15,-129.14 733.21,-118.17"/>
<polygon fill="#63b8ff" stroke="#63b8ff" points="772.05,-155.68 781.95,-159.48 776.58,-150.34 772.05,-155.68"/>
</a>
</g>
</g>
<!-- Node9 -->
<g id="Node000009" class="node">
<title>Node9</title>
<g id="a_Node000009"><a xlink:href="qpalm__fortran_8h.html" target="_top" xlink:title=" ">
<polygon fill="white" stroke="#666666" points="947,-118 801,-118 801,-77 947,-77 947,-118"/>
<text text-anchor="start" x="809" y="-106" font-family="Helvetica,sans-Serif" font-size="10.00">/home/runner/work/QPALM</text>
<text text-anchor="start" x="809" y="-95" font-family="Helvetica,sans-Serif" font-size="10.00">/QPALM/QPALM/interfaces</text>
<text text-anchor="middle" x="874" y="-84" font-family="Helvetica,sans-Serif" font-size="10.00">/fortran/qpalm_fortran.h</text>
</a>
</g>
</g>
<!-- Node7&#45;&gt;Node9 -->
<g id="edge8_Node000007_Node000009" class="edge">
<title>Node7&#45;&gt;Node9</title>
<g id="a_edge8_Node000007_Node000009"><a xlink:title=" ">
<path fill="none" stroke="#63b8ff" d="M810,-152.74C821.99,-142.58 837.85,-129.14 850.79,-118.17"/>
<polygon fill="#63b8ff" stroke="#63b8ff" points="807.42,-150.34 802.05,-159.48 811.95,-155.68 807.42,-150.34"/>
</a>
</g>
</g>
<!-- Node10 -->
<g id="Node000010" class="node">
<title>Node10</title>
<g id="a_Node000010"><a xlink:href="qpalm__fortran_8c.html" target="_top" xlink:title=" ">
<polygon fill="white" stroke="#666666" points="947,-41 801,-41 801,0 947,0 947,-41"/>
<text text-anchor="start" x="809" y="-29" font-family="Helvetica,sans-Serif" font-size="10.00">/home/runner/work/QPALM</text>
<text text-anchor="start" x="809" y="-18" font-family="Helvetica,sans-Serif" font-size="10.00">/QPALM/QPALM/interfaces</text>
<text text-anchor="middle" x="874" y="-7" font-family="Helvetica,sans-Serif" font-size="10.00">/fortran/qpalm_fortran.c</text>
</a>
</g>
</g>
<!-- Node9&#45;&gt;Node10 -->
<g id="edge9_Node000009_Node000010" class="edge">
<title>Node9&#45;&gt;Node10</title>
<g id="a_edge9_Node000009_Node000010"><a xlink:title=" ">
<path fill="none" stroke="#63b8ff" d="M874,-66.69C874,-58.08 874,-48.9 874,-41.07"/>
<polygon fill="#63b8ff" stroke="#63b8ff" points="870.5,-66.79 874,-76.79 877.5,-66.79 870.5,-66.79"/>
</a>
</g>
</g>
</g>
</svg>
