<?xml version="1.0" encoding="UTF-8" standalone="no"?>
<!DOCTYPE svg PUBLIC "-//W3C//DTD SVG 1.1//EN"
 "http://www.w3.org/Graphics/SVG/1.1/DTD/svg11.dtd">
<!-- Generated by graphviz version 2.43.0 (0)
 -->
<!-- Title: QPALM/include/constants.h Pages: 1 -->
<!--zoomable 390 -->
<svg id="main" version="1.1" xmlns="http://www.w3.org/2000/svg" xmlns:xlink="http://www.w3.org/1999/xlink" xml:space="preserve" onload="init(evt)">
<style type="text/css"><![CDATA[
.edge:hover path { stroke: red; }
.edge:hover polygon { stroke: red; fill: red; }
]]></style>
<script type="text/javascript"><![CDATA[
var edges = document.getElementsByTagName('g');
if (edges && edges.length) {
  for (var i=0;i<edges.length;i++) {
    if (edges[i].id.substr(0,4)=='edge') {
      edges[i].setAttribute('class','edge');
    }
  }
}
]]></script>
        <defs>
                <circle id="rim" cx="0" cy="0" r="7"/>
                <circle id="rim2" cx="0" cy="0" r="3.5"/>
                <g id="zoomPlus">
                        <use xlink:href="#rim" fill="#404040">
                                <set attributeName="fill" to="#808080" begin="zoomplus.mouseover" end="zoomplus.mouseout"/>
                        </use>
                        <path d="M-4,0h8M0,-4v8" fill="none" stroke="white" stroke-width="1.5" pointer-events="none"/>
                </g>
                <g id="zoomMin">
                        <use xlink:href="#rim" fill="#404040">
                                <set attributeName="fill" to="#808080" begin="zoomminus.mouseover" end="zoomminus.mouseout"/>
                        </use>
                        <path d="M-4,0h8" fill="none" stroke="white" stroke-width="1.5" pointer-events="none"/>
                </g>
                <g id="dirArrow">
                        <path fill="none" stroke="white" stroke-width="1.5" d="M0,-3.0v7 M-2.5,-0.5L0,-3.0L2.5,-0.5"/>
                </g>
               <g id="resetDef">
                       <use xlink:href="#rim2" fill="#404040">
                               <set attributeName="fill" to="#808080" begin="reset.mouseover" end="reset.mouseout"/>
                       </use>
               </g>
        </defs>

<script type="text/javascript">
var viewWidth = 1907;
var viewHeight = 390;
var sectionId = 'dynsection-1';
</script>
<script xlink:href="svgpan.js"/>
<svg id="graph" class="graph">
<g id="viewport">
<title>QPALM/include/constants.h</title>
<!-- Node1 -->
<g id="node1" class="node">
<title>Node1</title>
<g id="a_node1"><a xlink:title="Constants used in QPALM.">
<polygon fill="#999999" stroke="#666666" points="1354,-382 1206,-382 1206,-363 1354,-363 1354,-382"/>
<text text-anchor="middle" x="1280" y="-370" font-family="Helvetica,sans-Serif" font-size="10.00">QPALM/include/constants.h</text>
</a>
</g>
</g>
<!-- Node2 -->
<g id="node2" class="node">
<title>Node2</title>
<g id="a_node2"><a xlink:href="linesearch_8h.html" target="_top" xlink:title="Routines to perform exact linesearch.">
<polygon fill="white" stroke="#666666" points="368.5,-261 217.5,-261 217.5,-242 368.5,-242 368.5,-261"/>
<text text-anchor="middle" x="293" y="-249" font-family="Helvetica,sans-Serif" font-size="10.00">QPALM/include/linesearch.h</text>
</a>
</g>
</g>
<!-- Node1&#45;&gt;Node2 -->
<g id="edge1" class="edge">
<title>Node1&#45;&gt;Node2</title>
<path fill="none" stroke="#63b8ff" d="M1195.66,-368.66C1077.32,-363.94 855.47,-352.34 668,-327 541.87,-309.95 394.3,-276.65 328.17,-261"/>
<polygon fill="#63b8ff" stroke="#63b8ff" points="1195.61,-372.16 1205.74,-369.06 1195.89,-365.17 1195.61,-372.16"/>
</g>
<!-- Node3 -->
<g id="node3" class="node">
<title>Node3</title>
<g id="a_node3"><a xlink:href="qpalm_8h.html" target="_top" xlink:title="QPALM main solver API.">
<polygon fill="white" stroke="#666666" points="208.5,-151 77.5,-151 77.5,-132 208.5,-132 208.5,-151"/>
<text text-anchor="middle" x="143" y="-139" font-family="Helvetica,sans-Serif" font-size="10.00">QPALM/include/qpalm.h</text>
</a>
</g>
</g>
<!-- Node1&#45;&gt;Node3 -->
<g id="edge10" class="edge">
<title>Node1&#45;&gt;Node3</title>
<path fill="none" stroke="#63b8ff" d="M1195.73,-370.78C1051.99,-368.64 750.46,-360.2 498,-327 354.89,-308.18 295.34,-347.79 180,-261 144.52,-234.3 142.18,-173.84 142.62,-151.24"/>
<polygon fill="#63b8ff" stroke="#63b8ff" points="1195.76,-374.28 1205.8,-370.92 1195.86,-367.28 1195.76,-374.28"/>
</g>
<!-- Node7 -->
<g id="node7" class="node">
<title>Node7</title>
<g id="a_node7"><a xlink:href="qpalm_8c.html" target="_top" xlink:title="QPALM main solver API.">
<polygon fill="white" stroke="#666666" points="1071,-90.5 961,-90.5 961,-71.5 1071,-71.5 1071,-90.5"/>
<text text-anchor="middle" x="1016" y="-78.5" font-family="Helvetica,sans-Serif" font-size="10.00">QPALM/src/qpalm.c</text>
</a>
</g>
</g>
<!-- Node1&#45;&gt;Node7 -->
<g id="edge42" class="edge">
<title>Node1&#45;&gt;Node7</title>
<path fill="none" stroke="#63b8ff" d="M1364.17,-363.97C1533.44,-347.7 1899,-306.32 1899,-252.5 1899,-252.5 1899,-252.5 1899,-195.5 1899,-111.65 1264.55,-88.4 1071.24,-83.26"/>
<polygon fill="#63b8ff" stroke="#63b8ff" points="1363.67,-360.5 1354.05,-364.94 1364.34,-367.47 1363.67,-360.5"/>
</g>
<!-- Node10 -->
<g id="node10" class="node">
<title>Node10</title>
<g id="a_node10"><a xlink:href="scaling_8h.html" target="_top" xlink:title="Problem data scaling during setup.">
<polygon fill="white" stroke="#666666" points="687.5,-206 552.5,-206 552.5,-187 687.5,-187 687.5,-206"/>
<text text-anchor="middle" x="620" y="-194" font-family="Helvetica,sans-Serif" font-size="10.00">QPALM/include/scaling.h</text>
</a>
</g>
</g>
<!-- Node1&#45;&gt;Node10 -->
<g id="edge11" class="edge">
<title>Node1&#45;&gt;Node10</title>
<path fill="none" stroke="#63b8ff" d="M1195.78,-363.98C1133.79,-357.3 1047.83,-345.66 974,-327 842.35,-293.73 691.54,-229.31 639.13,-206.1"/>
<polygon fill="#63b8ff" stroke="#63b8ff" points="1195.59,-367.48 1205.9,-365.05 1196.32,-360.52 1195.59,-367.48"/>
</g>
<!-- Node12 -->
<g id="node12" class="node">
<title>Node12</title>
<g id="a_node12"><a xlink:href="solver__interface_8h.html" target="_top" xlink:title="Interface and wrapper to matrix/factorization (ladel) functions.">
<polygon fill="white" stroke="#666666" points="1105,-327 983,-327 983,-297 1105,-297 1105,-327"/>
<text text-anchor="start" x="991" y="-315" font-family="Helvetica,sans-Serif" font-size="10.00">QPALM/include/solver</text>
<text text-anchor="middle" x="1044" y="-304" font-family="Helvetica,sans-Serif" font-size="10.00">_interface.h</text>
</a>
</g>
</g>
<!-- Node1&#45;&gt;Node12 -->
<g id="edge15" class="edge">
<title>Node1&#45;&gt;Node12</title>
<path fill="none" stroke="#63b8ff" d="M1235.88,-360.56C1197.69,-351.1 1142.22,-337.35 1100.74,-327.06"/>
<polygon fill="#63b8ff" stroke="#63b8ff" points="1235.14,-363.98 1245.68,-362.99 1236.82,-357.19 1235.14,-363.98"/>
</g>
<!-- Node16 -->
<g id="node16" class="node">
<title>Node16</title>
<g id="a_node16"><a xlink:href="nonconvex_8c.html" target="_top" xlink:title="Routines to deal with nonconvex QPs.">
<polygon fill="white" stroke="#666666" points="1603,-206 1471,-206 1471,-187 1603,-187 1603,-206"/>
<text text-anchor="middle" x="1537" y="-194" font-family="Helvetica,sans-Serif" font-size="10.00">QPALM/src/nonconvex.c</text>
</a>
</g>
</g>
<!-- Node1&#45;&gt;Node16 -->
<g id="edge41" class="edge">
<title>Node1&#45;&gt;Node16</title>
<path fill="none" stroke="#63b8ff" d="M1300.84,-357.18C1335.74,-333.22 1408.28,-283.53 1470,-242 1488.54,-229.53 1510.07,-215.26 1523.62,-206.32"/>
<polygon fill="#63b8ff" stroke="#63b8ff" points="1298.68,-354.42 1292.41,-362.96 1302.64,-360.19 1298.68,-354.42"/>
</g>
<!-- Node18 -->
<g id="node18" class="node">
<title>Node18</title>
<g id="a_node18"><a xlink:href="termination_8c.html" target="_top" xlink:title="Routines to check the termination and infeasibility criteria.">
<polygon fill="white" stroke="#666666" points="1833,-206 1697,-206 1697,-187 1833,-187 1833,-206"/>
<text text-anchor="middle" x="1765" y="-194" font-family="Helvetica,sans-Serif" font-size="10.00">QPALM/src/termination.c</text>
</a>
</g>
</g>
<!-- Node1&#45;&gt;Node18 -->
<g id="edge43" class="edge">
<title>Node1&#45;&gt;Node18</title>
<path fill="none" stroke="#63b8ff" d="M1325.3,-360.41C1357.78,-352.11 1402.44,-339.99 1441,-327 1558.68,-287.35 1695.65,-228.16 1745.56,-206.15"/>
<polygon fill="#63b8ff" stroke="#63b8ff" points="1324.03,-357.12 1315.2,-362.97 1325.75,-363.9 1324.03,-357.12"/>
</g>
<!-- Node20 -->
<g id="node20" class="node">
<title>Node20</title>
<g id="a_node20"><a xlink:href="validate_8c.html" target="_top" xlink:title="Validation of the user provided settings and data.">
<polygon fill="white" stroke="#666666" points="1339.5,-206 1220.5,-206 1220.5,-187 1339.5,-187 1339.5,-206"/>
<text text-anchor="middle" x="1280" y="-194" font-family="Helvetica,sans-Serif" font-size="10.00">QPALM/src/validate.c</text>
</a>
</g>
</g>
<!-- Node1&#45;&gt;Node20 -->
<g id="edge44" class="edge">
<title>Node1&#45;&gt;Node20</title>
<path fill="none" stroke="#63b8ff" d="M1280,-352.56C1280,-315.12 1280,-232.95 1280,-206.14"/>
<polygon fill="#63b8ff" stroke="#63b8ff" points="1276.5,-352.63 1280,-362.63 1283.5,-352.63 1276.5,-352.63"/>
</g>
<!-- Node21 -->
<g id="node21" class="node">
<title>Node21</title>
<g id="a_node21"><a xlink:href="util_8h.html" target="_top" xlink:title="Utility functions.">
<polygon fill="white" stroke="#666666" points="1595,-261 1479,-261 1479,-242 1595,-242 1595,-261"/>
<text text-anchor="middle" x="1537" y="-249" font-family="Helvetica,sans-Serif" font-size="10.00">QPALM/include/util.h</text>
</a>
</g>
</g>
<!-- Node1&#45;&gt;Node21 -->
<g id="edge34" class="edge">
<title>Node1&#45;&gt;Node21</title>
<path fill="none" stroke="#63b8ff" d="M1315.66,-359.6C1339.58,-351.28 1371.59,-339.45 1399,-327 1445.35,-305.94 1497.62,-275.9 1522.43,-261.23"/>
<polygon fill="#63b8ff" stroke="#63b8ff" points="1314.26,-356.38 1305.95,-362.95 1316.54,-363 1314.26,-356.38"/>
</g>
<!-- Node2&#45;&gt;Node3 -->
<g id="edge2" class="edge">
<title>Node2&#45;&gt;Node3</title>
<path fill="none" stroke="#63b8ff" d="M249.41,-238.79C228.67,-231.69 204.43,-221.05 186,-206 167.03,-190.5 153.11,-164.48 146.79,-151.07"/>
<polygon fill="#63b8ff" stroke="#63b8ff" points="248.38,-242.13 258.97,-241.89 250.54,-235.47 248.38,-242.13"/>
</g>
<!-- Node2&#45;&gt;Node7 -->
<g id="edge9" class="edge">
<title>Node2&#45;&gt;Node7</title>
<path fill="none" stroke="#63b8ff" d="M260.2,-237.94C233.47,-225.89 202.76,-206.66 220,-187 268.99,-131.12 788.71,-95.48 960.92,-85.13"/>
<polygon fill="#63b8ff" stroke="#63b8ff" points="258.83,-241.16 269.4,-241.89 261.59,-234.73 258.83,-241.16"/>
</g>
<!-- Node8 -->
<g id="node8" class="node">
<title>Node8</title>
<g id="a_node8"><a xlink:href="iteration_8c.html" target="_top" xlink:title="QPALM main solver routines.">
<polygon fill="white" stroke="#666666" points="496,-206 376,-206 376,-187 496,-187 496,-206"/>
<text text-anchor="middle" x="436" y="-194" font-family="Helvetica,sans-Serif" font-size="10.00">QPALM/src/iteration.c</text>
</a>
</g>
</g>
<!-- Node2&#45;&gt;Node8 -->
<g id="edge7" class="edge">
<title>Node2&#45;&gt;Node8</title>
<path fill="none" stroke="#63b8ff" d="M325.59,-238.42C352.12,-228.59 388.93,-214.95 412.61,-206.17"/>
<polygon fill="#63b8ff" stroke="#63b8ff" points="324.14,-235.23 315.98,-241.98 326.57,-241.79 324.14,-235.23"/>
</g>
<!-- Node9 -->
<g id="node9" class="node">
<title>Node9</title>
<g id="a_node9"><a xlink:href="linesearch_8c.html" target="_top" xlink:title="Routines to perform exact or backtracking linesearch.">
<polygon fill="white" stroke="#666666" points="357.5,-206 228.5,-206 228.5,-187 357.5,-187 357.5,-206"/>
<text text-anchor="middle" x="293" y="-194" font-family="Helvetica,sans-Serif" font-size="10.00">QPALM/src/linesearch.c</text>
</a>
</g>
</g>
<!-- Node2&#45;&gt;Node9 -->
<g id="edge8" class="edge">
<title>Node2&#45;&gt;Node9</title>
<path fill="none" stroke="#63b8ff" d="M293,-231.66C293,-222.93 293,-212.99 293,-206.09"/>
<polygon fill="#63b8ff" stroke="#63b8ff" points="289.5,-231.75 293,-241.75 296.5,-231.75 289.5,-231.75"/>
</g>
<!-- Node4 -->
<g id="node4" class="node">
<title>Node4</title>
<g id="a_node4"><a xlink:href="qpalm_8cpp.html" target="_top" xlink:title=" ">
<polygon fill="white" stroke="#666666" points="278,-96 156,-96 156,-66 278,-66 278,-96"/>
<text text-anchor="start" x="164" y="-84" font-family="Helvetica,sans-Serif" font-size="10.00">QPALM/interfaces/cxx</text>
<text text-anchor="middle" x="217" y="-73" font-family="Helvetica,sans-Serif" font-size="10.00">/src/qpalm.cpp</text>
</a>
</g>
</g>
<!-- Node3&#45;&gt;Node4 -->
<g id="edge3" class="edge">
<title>Node3&#45;&gt;Node4</title>
<path fill="none" stroke="#63b8ff" d="M161.97,-125.5C173.42,-116.45 187.91,-105 199.15,-96.11"/>
<polygon fill="#63b8ff" stroke="#63b8ff" points="159.59,-122.92 153.92,-131.87 163.93,-128.41 159.59,-122.92"/>
</g>
<!-- Node5 -->
<g id="node5" class="node">
<title>Node5</title>
<g id="a_node5"><a xlink:href="qpalm__fortran_8h.html" target="_top" xlink:title=" ">
<polygon fill="white" stroke="#666666" points="138,-96 0,-96 0,-66 138,-66 138,-96"/>
<text text-anchor="start" x="8" y="-84" font-family="Helvetica,sans-Serif" font-size="10.00">QPALM/interfaces/fortran</text>
<text text-anchor="middle" x="69" y="-73" font-family="Helvetica,sans-Serif" font-size="10.00">/qpalm_fortran.h</text>
</a>
</g>
</g>
<!-- Node3&#45;&gt;Node5 -->
<g id="edge4" class="edge">
<title>Node3&#45;&gt;Node5</title>
<path fill="none" stroke="#63b8ff" d="M124.03,-125.5C112.58,-116.45 98.09,-105 86.85,-96.11"/>
<polygon fill="#63b8ff" stroke="#63b8ff" points="122.07,-128.41 132.08,-131.87 126.41,-122.92 122.07,-128.41"/>
</g>
<!-- Node3&#45;&gt;Node7 -->
<g id="edge6" class="edge">
<title>Node3&#45;&gt;Node7</title>
<path fill="none" stroke="#63b8ff" d="M219.09,-132.34C220.41,-132.22 221.71,-132.11 223,-132 499.63,-108.59 831.4,-91.09 960.66,-84.67"/>
<polygon fill="#63b8ff" stroke="#63b8ff" points="218.54,-128.87 208.9,-133.27 219.18,-135.84 218.54,-128.87"/>
</g>
<!-- Node6 -->
<g id="node6" class="node">
<title>Node6</title>
<g id="a_node6"><a xlink:href="qpalm__fortran_8c.html" target="_top" xlink:title=" ">
<polygon fill="white" stroke="#666666" points="138,-30 0,-30 0,0 138,0 138,-30"/>
<text text-anchor="start" x="8" y="-18" font-family="Helvetica,sans-Serif" font-size="10.00">QPALM/interfaces/fortran</text>
<text text-anchor="middle" x="69" y="-7" font-family="Helvetica,sans-Serif" font-size="10.00">/qpalm_fortran.c</text>
</a>
</g>
</g>
<!-- Node5&#45;&gt;Node6 -->
<g id="edge5" class="edge">
<title>Node5&#45;&gt;Node6</title>
<path fill="none" stroke="#63b8ff" d="M69,-55.54C69,-46.96 69,-37.61 69,-30.16"/>
<polygon fill="#63b8ff" stroke="#63b8ff" points="65.5,-55.8 69,-65.8 72.5,-55.8 65.5,-55.8"/>
</g>
<!-- Node10&#45;&gt;Node3 -->
<g id="edge12" class="edge">
<title>Node10&#45;&gt;Node3</title>
<path fill="none" stroke="#63b8ff" d="M542.24,-186.86C449.45,-176.55 295.91,-159.49 208.76,-149.81"/>
<polygon fill="#63b8ff" stroke="#63b8ff" points="542.09,-190.36 552.42,-187.99 542.86,-183.41 542.09,-190.36"/>
</g>
<!-- Node10&#45;&gt;Node7 -->
<g id="edge13" class="edge">
<title>Node10&#45;&gt;Node7</title>
<path fill="none" stroke="#63b8ff" d="M652.95,-183.54C690.63,-170.09 754.32,-148.03 810,-132 867.47,-115.45 934.98,-99.77 976.63,-90.52"/>
<polygon fill="#63b8ff" stroke="#63b8ff" points="651.73,-180.26 643.5,-186.93 654.09,-186.85 651.73,-180.26"/>
</g>
<!-- Node11 -->
<g id="node11" class="node">
<title>Node11</title>
<g id="a_node11"><a xlink:href="scaling_8c.html" target="_top" xlink:title="Problem data scaling during setup.">
<polygon fill="white" stroke="#666666" points="931.5,-151 818.5,-151 818.5,-132 931.5,-132 931.5,-151"/>
<text text-anchor="middle" x="875" y="-139" font-family="Helvetica,sans-Serif" font-size="10.00">QPALM/src/scaling.c</text>
</a>
</g>
</g>
<!-- Node10&#45;&gt;Node11 -->
<g id="edge14" class="edge">
<title>Node10&#45;&gt;Node11</title>
<path fill="none" stroke="#63b8ff" d="M670.8,-184.94C718.6,-175.01 789.29,-160.31 833.71,-151.08"/>
<polygon fill="#63b8ff" stroke="#63b8ff" points="670.05,-181.52 660.97,-186.98 671.47,-188.38 670.05,-181.52"/>
</g>
<!-- Node12&#45;&gt;Node3 -->
<g id="edge30" class="edge">
<title>Node12&#45;&gt;Node3</title>
<path fill="none" stroke="#63b8ff" d="M972.82,-309.99C783.28,-306.85 276.1,-295.29 209,-261 165.38,-238.71 149.07,-174.41 144.49,-151.08"/>
<polygon fill="#63b8ff" stroke="#63b8ff" points="972.9,-313.49 982.96,-310.16 973.02,-306.49 972.9,-313.49"/>
</g>
<!-- Node12&#45;&gt;Node7 -->
<g id="edge32" class="edge">
<title>Node12&#45;&gt;Node7</title>
<path fill="none" stroke="#63b8ff" d="M1115.29,-311.43C1327.81,-311.43 1936.57,-301.56 1842,-187 1792.74,-127.32 1248.01,-94.02 1071.12,-84.72"/>
<polygon fill="#63b8ff" stroke="#63b8ff" points="1115.17,-307.93 1105.17,-311.42 1115.17,-314.93 1115.17,-307.93"/>
</g>
<!-- Node12&#45;&gt;Node8 -->
<g id="edge31" class="edge">
<title>Node12&#45;&gt;Node8</title>
<path fill="none" stroke="#63b8ff" d="M972.97,-297.74C846.77,-274.18 586.88,-225.67 481.7,-206.03"/>
<polygon fill="#63b8ff" stroke="#63b8ff" points="972.45,-301.2 982.92,-299.6 973.73,-294.32 972.45,-301.2"/>
</g>
<!-- Node13 -->
<g id="node13" class="node">
<title>Node13</title>
<g id="a_node13"><a xlink:href="lin__alg_8h.html" target="_top" xlink:title="Linear algebra with vectors.">
<polygon fill="white" stroke="#666666" points="1056.5,-261 923.5,-261 923.5,-242 1056.5,-242 1056.5,-261"/>
<text text-anchor="middle" x="990" y="-249" font-family="Helvetica,sans-Serif" font-size="10.00">QPALM/include/lin_alg.h</text>
</a>
</g>
</g>
<!-- Node12&#45;&gt;Node13 -->
<g id="edge16" class="edge">
<title>Node12&#45;&gt;Node13</title>
<path fill="none" stroke="#63b8ff" d="M1024.04,-289.38C1015.05,-279.64 1004.94,-268.69 998.09,-261.27"/>
<polygon fill="#63b8ff" stroke="#63b8ff" points="1021.57,-291.86 1030.93,-296.84 1026.72,-287.12 1021.57,-291.86"/>
</g>
<!-- Node17 -->
<g id="node17" class="node">
<title>Node17</title>
<g id="a_node17"><a xlink:href="solver__interface_8c.html" target="_top" xlink:title="Interface and wrapper to matrix/factorization (ladel) functions.">
<polygon fill="white" stroke="#666666" points="1202,-206 1044,-206 1044,-187 1202,-187 1202,-206"/>
<text text-anchor="middle" x="1123" y="-194" font-family="Helvetica,sans-Serif" font-size="10.00">QPALM/src/solver_interface.c</text>
</a>
</g>
</g>
<!-- Node12&#45;&gt;Node17 -->
<g id="edge33" class="edge">
<title>Node12&#45;&gt;Node17</title>
<path fill="none" stroke="#63b8ff" d="M1059.76,-288.36C1077.31,-263.14 1104.81,-223.63 1116.92,-206.23"/>
<polygon fill="#63b8ff" stroke="#63b8ff" points="1056.85,-286.42 1054.01,-296.63 1062.59,-290.42 1056.85,-286.42"/>
</g>
<!-- Node13&#45;&gt;Node3 -->
<g id="edge17" class="edge">
<title>Node13&#45;&gt;Node3</title>
<path fill="none" stroke="#63b8ff" d="M913.14,-250.99C823.02,-249.72 669.97,-241.73 544,-206 525.45,-200.74 523.49,-192.47 505,-187 404.36,-157.21 282.29,-147.34 208.73,-144.08"/>
<polygon fill="#63b8ff" stroke="#63b8ff" points="913.23,-254.49 923.27,-251.11 913.31,-247.49 913.23,-254.49"/>
</g>
<!-- Node13&#45;&gt;Node7 -->
<g id="edge24" class="edge">
<title>Node13&#45;&gt;Node7</title>
<path fill="none" stroke="#63b8ff" d="M992.89,-231.74C998.49,-195.48 1010.59,-117.04 1014.65,-90.77"/>
<polygon fill="#63b8ff" stroke="#63b8ff" points="989.39,-231.5 991.33,-241.91 996.31,-232.56 989.39,-231.5"/>
</g>
<!-- Node13&#45;&gt;Node8 -->
<g id="edge19" class="edge">
<title>Node13&#45;&gt;Node8</title>
<path fill="none" stroke="#63b8ff" d="M913.1,-243.89C818.26,-235.63 652.16,-220.75 510,-206 505.5,-205.53 500.84,-205.03 496.16,-204.52"/>
<polygon fill="#63b8ff" stroke="#63b8ff" points="912.91,-247.39 923.17,-244.77 913.52,-240.42 912.91,-247.39"/>
</g>
<!-- Node13&#45;&gt;Node9 -->
<g id="edge21" class="edge">
<title>Node13&#45;&gt;Node9</title>
<path fill="none" stroke="#63b8ff" d="M913.08,-246.07C795.35,-239.06 563.45,-224.29 367,-206 363.91,-205.71 360.75,-205.4 357.56,-205.08"/>
<polygon fill="#63b8ff" stroke="#63b8ff" points="912.89,-249.57 923.08,-246.67 913.31,-242.58 912.89,-249.57"/>
</g>
<!-- Node13&#45;&gt;Node10 -->
<g id="edge18" class="edge">
<title>Node13&#45;&gt;Node10</title>
<path fill="none" stroke="#63b8ff" d="M920.58,-240.56C851.11,-230.61 745.38,-215.46 679.61,-206.04"/>
<polygon fill="#63b8ff" stroke="#63b8ff" points="920.16,-244.03 930.55,-241.98 921.15,-237.1 920.16,-244.03"/>
</g>
<!-- Node13&#45;&gt;Node11 -->
<g id="edge25" class="edge">
<title>Node13&#45;&gt;Node11</title>
<path fill="none" stroke="#63b8ff" d="M984.4,-231.85C979.51,-218.1 971.25,-199.66 959,-187 942.7,-170.16 918.64,-158.31 900.44,-151.09"/>
<polygon fill="#63b8ff" stroke="#63b8ff" points="981.18,-233.26 987.62,-241.67 987.84,-231.08 981.18,-233.26"/>
</g>
<!-- Node14 -->
<g id="node14" class="node">
<title>Node14</title>
<g id="a_node14"><a xlink:href="lin__alg_8c.html" target="_top" xlink:title="Linear algebra with vectors.">
<polygon fill="white" stroke="#666666" points="816.5,-206 705.5,-206 705.5,-187 816.5,-187 816.5,-206"/>
<text text-anchor="middle" x="761" y="-194" font-family="Helvetica,sans-Serif" font-size="10.00">QPALM/src/lin_alg.c</text>
</a>
</g>
</g>
<!-- Node13&#45;&gt;Node14 -->
<g id="edge20" class="edge">
<title>Node13&#45;&gt;Node14</title>
<path fill="none" stroke="#63b8ff" d="M943.29,-239.69C900.39,-229.76 837.64,-215.24 798.08,-206.08"/>
<polygon fill="#63b8ff" stroke="#63b8ff" points="942.68,-243.14 953.21,-241.98 944.25,-236.32 942.68,-243.14"/>
</g>
<!-- Node15 -->
<g id="node15" class="node">
<title>Node15</title>
<g id="a_node15"><a xlink:href="newton_8c.html" target="_top" xlink:title="Functions to calculate the semismooth Newton direction.">
<polygon fill="white" stroke="#666666" points="949.5,-206 834.5,-206 834.5,-187 949.5,-187 949.5,-206"/>
<text text-anchor="middle" x="892" y="-194" font-family="Helvetica,sans-Serif" font-size="10.00">QPALM/src/newton.c</text>
</a>
</g>
</g>
<!-- Node13&#45;&gt;Node15 -->
<g id="edge22" class="edge">
<title>Node13&#45;&gt;Node15</title>
<path fill="none" stroke="#63b8ff" d="M964.97,-236.97C947.06,-227.28 923.47,-214.52 908.03,-206.17"/>
<polygon fill="#63b8ff" stroke="#63b8ff" points="963.79,-240.31 974.25,-241.98 967.12,-234.15 963.79,-240.31"/>
</g>
<!-- Node13&#45;&gt;Node16 -->
<g id="edge23" class="edge">
<title>Node13&#45;&gt;Node16</title>
<path fill="none" stroke="#63b8ff" d="M1067.09,-243.68C1160.58,-235.31 1322.92,-220.44 1462,-206 1464.87,-205.7 1467.8,-205.39 1470.75,-205.08"/>
<polygon fill="#63b8ff" stroke="#63b8ff" points="1066.52,-240.22 1056.87,-244.6 1067.14,-247.19 1066.52,-240.22"/>
</g>
<!-- Node13&#45;&gt;Node17 -->
<g id="edge26" class="edge">
<title>Node13&#45;&gt;Node17</title>
<path fill="none" stroke="#63b8ff" d="M1020.97,-238.16C1045.59,-228.35 1079.41,-214.87 1101.24,-206.17"/>
<polygon fill="#63b8ff" stroke="#63b8ff" points="1019.36,-235.03 1011.37,-241.98 1021.95,-241.53 1019.36,-235.03"/>
</g>
<!-- Node13&#45;&gt;Node18 -->
<g id="edge27" class="edge">
<title>Node13&#45;&gt;Node18</title>
<path fill="none" stroke="#63b8ff" d="M1066.89,-245.24C1218.25,-234.89 1552.67,-212.02 1696.76,-202.17"/>
<polygon fill="#63b8ff" stroke="#63b8ff" points="1066.48,-241.76 1056.75,-245.94 1066.96,-248.74 1066.48,-241.76"/>
</g>
<!-- Node19 -->
<g id="node19" class="node">
<title>Node19</title>
<g id="a_node19"><a xlink:href="util_8c.html" target="_top" xlink:title="Utility functions.">
<polygon fill="white" stroke="#666666" points="1452.5,-206 1357.5,-206 1357.5,-187 1452.5,-187 1452.5,-206"/>
<text text-anchor="middle" x="1405" y="-194" font-family="Helvetica,sans-Serif" font-size="10.00">QPALM/src/util.c</text>
</a>
</g>
</g>
<!-- Node13&#45;&gt;Node19 -->
<g id="edge28" class="edge">
<title>Node13&#45;&gt;Node19</title>
<path fill="none" stroke="#63b8ff" d="M1066.56,-241.62C1139.3,-233.05 1251.7,-219.41 1349,-206 1351.73,-205.62 1354.53,-205.23 1357.35,-204.82"/>
<polygon fill="#63b8ff" stroke="#63b8ff" points="1066.09,-238.15 1056.57,-242.8 1066.91,-245.11 1066.09,-238.15"/>
</g>
<!-- Node13&#45;&gt;Node20 -->
<g id="edge29" class="edge">
<title>Node13&#45;&gt;Node20</title>
<path fill="none" stroke="#63b8ff" d="M1046.76,-240.13C1101.13,-230.19 1182.21,-215.37 1233.04,-206.08"/>
<polygon fill="#63b8ff" stroke="#63b8ff" points="1045.8,-236.74 1036.59,-241.98 1047.06,-243.63 1045.8,-236.74"/>
</g>
<!-- Node21&#45;&gt;Node3 -->
<g id="edge35" class="edge">
<title>Node21&#45;&gt;Node3</title>
<path fill="none" stroke="#63b8ff" d="M1570.35,-237.98C1598.22,-225.75 1630.65,-206.22 1612,-187 1587.24,-161.48 490.93,-146.65 208.7,-143.26"/>
<polygon fill="#63b8ff" stroke="#63b8ff" points="1568.64,-234.9 1560.77,-241.99 1571.34,-241.36 1568.64,-234.9"/>
</g>
<!-- Node21&#45;&gt;Node7 -->
<g id="edge38" class="edge">
<title>Node21&#45;&gt;Node7</title>
<path fill="none" stroke="#63b8ff" d="M1579.04,-238.71C1611.14,-227.64 1646.91,-209.42 1628,-187 1556.87,-102.62 1208.03,-86.05 1071.21,-82.79"/>
<polygon fill="#63b8ff" stroke="#63b8ff" points="1577.67,-235.48 1569.26,-241.92 1579.85,-242.13 1577.67,-235.48"/>
</g>
<!-- Node21&#45;&gt;Node8 -->
<g id="edge36" class="edge">
<title>Node21&#45;&gt;Node8</title>
<path fill="none" stroke="#63b8ff" d="M1468.51,-248.23C1307.28,-242.7 891.19,-227.44 544,-206 528.51,-205.04 511.79,-203.82 496.24,-202.6"/>
<polygon fill="#63b8ff" stroke="#63b8ff" points="1468.65,-251.73 1478.76,-248.58 1468.89,-244.74 1468.65,-251.73"/>
</g>
<!-- Node21&#45;&gt;Node16 -->
<g id="edge37" class="edge">
<title>Node21&#45;&gt;Node16</title>
<path fill="none" stroke="#63b8ff" d="M1537,-231.66C1537,-222.93 1537,-212.99 1537,-206.09"/>
<polygon fill="#63b8ff" stroke="#63b8ff" points="1533.5,-231.75 1537,-241.75 1540.5,-231.75 1533.5,-231.75"/>
</g>
<!-- Node21&#45;&gt;Node18 -->
<g id="edge39" class="edge">
<title>Node21&#45;&gt;Node18</title>
<path fill="none" stroke="#63b8ff" d="M1583.5,-239.69C1626.22,-229.76 1688.7,-215.24 1728.08,-206.08"/>
<polygon fill="#63b8ff" stroke="#63b8ff" points="1582.58,-236.31 1573.63,-241.98 1584.16,-243.13 1582.58,-236.31"/>
</g>
<!-- Node21&#45;&gt;Node19 -->
<g id="edge40" class="edge">
<title>Node21&#45;&gt;Node19</title>
<path fill="none" stroke="#63b8ff" d="M1506.27,-238.16C1481.83,-228.35 1448.26,-214.87 1426.59,-206.17"/>
<polygon fill="#63b8ff" stroke="#63b8ff" points="1505.21,-241.51 1515.79,-241.98 1507.82,-235.01 1505.21,-241.51"/>
</g>
</g>
</svg>
        <g id="navigator" transform="translate(0 0)" fill="#404254">
                <rect fill="#f2f5e9" fill-opacity="0.5" stroke="#606060" stroke-width=".5" x="0" y="0" width="60" height="60"/>
                <use id="zoomplus" xlink:href="#zoomPlus" x="17" y="9" onmousedown="handleZoom(evt,'in')"/>
                <use id="zoomminus" xlink:href="#zoomMin" x="42" y="9" onmousedown="handleZoom(evt,'out')"/>
                <use id="reset" xlink:href="#resetDef" x="30" y="36" onmousedown="handleReset()"/>
                <g id="arrowUp" xlink:href="#dirArrow" transform="translate(30 24)" onmousedown="handlePan(0,-1)">
                  <use xlink:href="#rim" fill="#404040">
                        <set attributeName="fill" to="#808080" begin="arrowUp.mouseover" end="arrowUp.mouseout"/>
                  </use>
                  <path fill="none" stroke="white" stroke-width="1.5" d="M0,-3.0v7 M-2.5,-0.5L0,-3.0L2.5,-0.5"/>
                </g>
                <g id="arrowRight" xlink:href="#dirArrow" transform="rotate(90) translate(36 -43)" onmousedown="handlePan(1,0)">
                  <use xlink:href="#rim" fill="#404040">
                        <set attributeName="fill" to="#808080" begin="arrowRight.mouseover" end="arrowRight.mouseout"/>
                  </use>
                  <path fill="none" stroke="white" stroke-width="1.5" d="M0,-3.0v7 M-2.5,-0.5L0,-3.0L2.5,-0.5"/>
                </g>
                <g id="arrowDown" xlink:href="#dirArrow" transform="rotate(180) translate(-30 -48)" onmousedown="handlePan(0,1)">
                  <use xlink:href="#rim" fill="#404040">
                        <set attributeName="fill" to="#808080" begin="arrowDown.mouseover" end="arrowDown.mouseout"/>
                  </use>
                  <path fill="none" stroke="white" stroke-width="1.5" d="M0,-3.0v7 M-2.5,-0.5L0,-3.0L2.5,-0.5"/>
                </g>
                <g id="arrowLeft" xlink:href="#dirArrow" transform="rotate(270) translate(-36 17)" onmousedown="handlePan(-1,0)">
                  <use xlink:href="#rim" fill="#404040">
                        <set attributeName="fill" to="#808080" begin="arrowLeft.mouseover" end="arrowLeft.mouseout"/>
                  </use>
                  <path fill="none" stroke="white" stroke-width="1.5" d="M0,-3.0v7 M-2.5,-0.5L0,-3.0L2.5,-0.5"/>
                </g>
        </g>
        <svg viewBox="0 0 15 15" width="100%" height="30px" preserveAspectRatio="xMaxYMin meet">
         <g id="arrow_out" transform="scale(0.3 0.3)">
          <a xlink:href="constants_8h__dep__incl_org.svg" target="_base">
           <rect id="button" ry="5" rx="5" y="6" x="6" height="38" width="38"
                fill="#f2f5e9" fill-opacity="0.5" stroke="#606060" stroke-width="1.0"/>
           <path id="arrow"
             d="M 11.500037,31.436501 C 11.940474,20.09759 22.043105,11.32322 32.158766,21.979434 L 37.068811,17.246167 C 37.068811,17.246167 37.088388,32 37.088388,32 L 22.160133,31.978069 C 22.160133,31.978069 26.997745,27.140456 26.997745,27.140456 C 18.528582,18.264221 13.291696,25.230495 11.500037,31.436501 z"
             style="fill:#404040;"/>
          </a>
         </g>
        </svg>
</svg>
