<?xml version="1.0" encoding="UTF-8" standalone="no"?>
<!DOCTYPE svg PUBLIC "-//W3C//DTD SVG 1.1//EN"
 "http://www.w3.org/Graphics/SVG/1.1/DTD/svg11.dtd">
<!-- Generated by graphviz version 2.43.0 (0)
 -->
<!-- Title: QPALM/include/iteration.h Pages: 1 -->
<svg width="649pt" height="214pt"
 viewBox="0.00 0.00 649.00 214.00" xmlns="http://www.w3.org/2000/svg" xmlns:xlink="http://www.w3.org/1999/xlink">
<g id="graph0" class="graph" transform="scale(1 1) rotate(0) translate(4 210)">
<title>QPALM/include/iteration.h</title>
<!-- Node1 -->
<g id="node1" class="node">
<title>Node1</title>
<g id="a_node1"><a xlink:title="QPALM main solver routines.">
<polygon fill="#999999" stroke="#666666" points="454,-206 312,-206 312,-187 454,-187 454,-206"/>
<text text-anchor="middle" x="383" y="-194" font-family="Helvetica,sans-Serif" font-size="10.00">QPALM/include/iteration.h</text>
</a>
</g>
</g>
<!-- Node2 -->
<g id="node2" class="node">
<title>Node2</title>
<g id="a_node2"><a xlink:href="qpalm_8h.html" target="_top" xlink:title="QPALM main solver API.">
<polygon fill="white" stroke="#666666" points="298.5,-151 167.5,-151 167.5,-132 298.5,-132 298.5,-151"/>
<text text-anchor="middle" x="233" y="-139" font-family="Helvetica,sans-Serif" font-size="10.00">QPALM/include/qpalm.h</text>
</a>
</g>
</g>
<!-- Node1&#45;&gt;Node2 -->
<g id="edge1" class="edge">
<title>Node1&#45;&gt;Node2</title>
<path fill="none" stroke="#63b8ff" d="M349.18,-183.55C321.32,-173.71 282.49,-159.98 257.54,-151.17"/>
<polygon fill="#63b8ff" stroke="#63b8ff" points="348.31,-186.95 358.9,-186.98 350.64,-180.35 348.31,-186.95"/>
</g>
<!-- Node6 -->
<g id="node6" class="node">
<title>Node6</title>
<g id="a_node6"><a xlink:href="qpalm_8c.html" target="_top" xlink:title="QPALM main solver API.">
<polygon fill="white" stroke="#666666" points="406,-90.5 296,-90.5 296,-71.5 406,-71.5 406,-90.5"/>
<text text-anchor="middle" x="351" y="-78.5" font-family="Helvetica,sans-Serif" font-size="10.00">QPALM/src/qpalm.c</text>
</a>
</g>
</g>
<!-- Node1&#45;&gt;Node6 -->
<g id="edge7" class="edge">
<title>Node1&#45;&gt;Node6</title>
<path fill="none" stroke="#63b8ff" d="M371.21,-178.41C366.3,-170.43 361.04,-160.59 358,-151 351.39,-130.11 350.64,-104.05 350.76,-90.73"/>
<polygon fill="#63b8ff" stroke="#63b8ff" points="368.28,-180.33 376.67,-186.8 374.15,-176.51 368.28,-180.33"/>
</g>
<!-- Node7 -->
<g id="node7" class="node">
<title>Node7</title>
<g id="a_node7"><a xlink:href="iteration_8c.html" target="_top" xlink:title="QPALM main solver routines.">
<polygon fill="white" stroke="#666666" points="487,-151 367,-151 367,-132 487,-132 487,-151"/>
<text text-anchor="middle" x="427" y="-139" font-family="Helvetica,sans-Serif" font-size="10.00">QPALM/src/iteration.c</text>
</a>
</g>
</g>
<!-- Node1&#45;&gt;Node7 -->
<g id="edge6" class="edge">
<title>Node1&#45;&gt;Node7</title>
<path fill="none" stroke="#63b8ff" d="M396.73,-178.96C404.4,-169.72 413.63,-158.6 419.87,-151.09"/>
<polygon fill="#63b8ff" stroke="#63b8ff" points="393.96,-176.82 390.27,-186.75 399.35,-181.29 393.96,-176.82"/>
</g>
<!-- Node8 -->
<g id="node8" class="node">
<title>Node8</title>
<g id="a_node8"><a xlink:href="termination_8c.html" target="_top" xlink:title="Routines to check the termination and infeasibility criteria.">
<polygon fill="white" stroke="#666666" points="641,-151 505,-151 505,-132 641,-132 641,-151"/>
<text text-anchor="middle" x="573" y="-139" font-family="Helvetica,sans-Serif" font-size="10.00">QPALM/src/termination.c</text>
</a>
</g>
</g>
<!-- Node1&#45;&gt;Node8 -->
<g id="edge8" class="edge">
<title>Node1&#45;&gt;Node8</title>
<path fill="none" stroke="#63b8ff" d="M423.57,-184.18C459.1,-174.27 509.97,-160.08 542.23,-151.08"/>
<polygon fill="#63b8ff" stroke="#63b8ff" points="422.22,-180.93 413.53,-186.98 424.1,-187.67 422.22,-180.93"/>
</g>
<!-- Node3 -->
<g id="node3" class="node">
<title>Node3</title>
<g id="a_node3"><a xlink:href="qpalm_8cpp.html" target="_top" xlink:title=" ">
<polygon fill="white" stroke="#666666" points="122,-96 0,-96 0,-66 122,-66 122,-96"/>
<text text-anchor="start" x="8" y="-84" font-family="Helvetica,sans-Serif" font-size="10.00">QPALM/interfaces/cxx</text>
<text text-anchor="middle" x="61" y="-73" font-family="Helvetica,sans-Serif" font-size="10.00">/src/qpalm.cpp</text>
</a>
</g>
</g>
<!-- Node2&#45;&gt;Node3 -->
<g id="edge2" class="edge">
<title>Node2&#45;&gt;Node3</title>
<path fill="none" stroke="#63b8ff" d="M198.33,-128.71C170.61,-119.28 131.69,-106.04 102.35,-96.06"/>
<polygon fill="#63b8ff" stroke="#63b8ff" points="197.4,-132.09 207.99,-131.99 199.65,-125.46 197.4,-132.09"/>
</g>
<!-- Node4 -->
<g id="node4" class="node">
<title>Node4</title>
<g id="a_node4"><a xlink:href="qpalm__fortran_8h.html" target="_top" xlink:title=" ">
<polygon fill="white" stroke="#666666" points="278,-96 140,-96 140,-66 278,-66 278,-96"/>
<text text-anchor="start" x="148" y="-84" font-family="Helvetica,sans-Serif" font-size="10.00">QPALM/interfaces/fortran</text>
<text text-anchor="middle" x="209" y="-73" font-family="Helvetica,sans-Serif" font-size="10.00">/qpalm_fortran.h</text>
</a>
</g>
</g>
<!-- Node2&#45;&gt;Node4 -->
<g id="edge3" class="edge">
<title>Node2&#45;&gt;Node4</title>
<path fill="none" stroke="#63b8ff" d="M225.61,-122.5C222.13,-114.01 218.04,-104.04 214.79,-96.11"/>
<polygon fill="#63b8ff" stroke="#63b8ff" points="222.42,-123.94 229.46,-131.87 228.9,-121.29 222.42,-123.94"/>
</g>
<!-- Node2&#45;&gt;Node6 -->
<g id="edge5" class="edge">
<title>Node2&#45;&gt;Node6</title>
<path fill="none" stroke="#63b8ff" d="M259.26,-127.48C282,-116.21 314.24,-100.23 333.82,-90.52"/>
<polygon fill="#63b8ff" stroke="#63b8ff" points="257.56,-124.42 250.16,-131.99 260.67,-130.69 257.56,-124.42"/>
</g>
<!-- Node5 -->
<g id="node5" class="node">
<title>Node5</title>
<g id="a_node5"><a xlink:href="qpalm__fortran_8c.html" target="_top" xlink:title=" ">
<polygon fill="white" stroke="#666666" points="278,-30 140,-30 140,0 278,0 278,-30"/>
<text text-anchor="start" x="148" y="-18" font-family="Helvetica,sans-Serif" font-size="10.00">QPALM/interfaces/fortran</text>
<text text-anchor="middle" x="209" y="-7" font-family="Helvetica,sans-Serif" font-size="10.00">/qpalm_fortran.c</text>
</a>
</g>
</g>
<!-- Node4&#45;&gt;Node5 -->
<g id="edge4" class="edge">
<title>Node4&#45;&gt;Node5</title>
<path fill="none" stroke="#63b8ff" d="M209,-55.54C209,-46.96 209,-37.61 209,-30.16"/>
<polygon fill="#63b8ff" stroke="#63b8ff" points="205.5,-55.8 209,-65.8 212.5,-55.8 205.5,-55.8"/>
</g>
</g>
</svg>
