<?xml version="1.0" encoding="UTF-8" standalone="no"?>
<!DOCTYPE svg PUBLIC "-//W3C//DTD SVG 1.1//EN"
 "http://www.w3.org/Graphics/SVG/1.1/DTD/svg11.dtd">
<!-- Generated by graphviz version 2.43.0 (0)
 -->
<!-- Title: QPALM/src/iteration.c Pages: 1 -->
<svg width="494pt" height="302pt"
 viewBox="0.00 0.00 493.50 302.00" xmlns="http://www.w3.org/2000/svg" xmlns:xlink="http://www.w3.org/1999/xlink">
<g id="graph0" class="graph" transform="scale(1 1) rotate(0) translate(4 298)">
<title>QPALM/src/iteration.c</title>
<!-- Node1 -->
<g id="node1" class="node">
<title>Node1</title>
<g id="a_node1"><a xlink:title="QPALM main solver routines.">
<polygon fill="#999999" stroke="#666666" points="339.5,-294 219.5,-294 219.5,-275 339.5,-275 339.5,-294"/>
<text text-anchor="middle" x="279.5" y="-282" font-family="Helvetica,sans-Serif" font-size="10.00">QPALM/src/iteration.c</text>
</a>
</g>
</g>
<!-- Node2 -->
<g id="node2" class="node">
<title>Node2</title>
<g id="a_node2"><a xlink:href="iteration_8h.html" target="_top" xlink:title="QPALM main solver routines.">
<polygon fill="white" stroke="#666666" points="67,-184 0,-184 0,-165 67,-165 67,-184"/>
<text text-anchor="middle" x="33.5" y="-172" font-family="Helvetica,sans-Serif" font-size="10.00">iteration.h</text>
</a>
</g>
</g>
<!-- Node1&#45;&gt;Node2 -->
<g id="edge1" class="edge">
<title>Node1&#45;&gt;Node2</title>
<path fill="none" stroke="#63b8ff" d="M219.24,-280.68C155.52,-276.32 61,-265.48 37.5,-239 26.85,-227.01 27,-208.19 29.12,-194.15"/>
<polygon fill="#63b8ff" stroke="#63b8ff" points="32.59,-194.62 31.07,-184.14 25.72,-193.28 32.59,-194.62"/>
</g>
<!-- Node5 -->
<g id="node5" class="node">
<title>Node5</title>
<g id="a_node5"><a xlink:title=" ">
<polygon fill="#e0e0e0" stroke="#999999" points="302.5,-19 252.5,-19 252.5,0 302.5,0 302.5,-19"/>
<text text-anchor="middle" x="277.5" y="-7" font-family="Helvetica,sans-Serif" font-size="10.00">ladel.h</text>
</a>
</g>
</g>
<!-- Node1&#45;&gt;Node5 -->
<g id="edge27" class="edge">
<title>Node1&#45;&gt;Node5</title>
<path fill="none" stroke="#63b8ff" d="M339.64,-277.43C400.44,-267.58 485.5,-241.93 485.5,-175.5 485.5,-175.5 485.5,-175.5 485.5,-118.5 485.5,-41.54 371.96,-19.35 312.65,-13"/>
<polygon fill="#63b8ff" stroke="#63b8ff" points="312.88,-9.51 302.59,-12.02 312.2,-16.48 312.88,-9.51"/>
</g>
<!-- Node7 -->
<g id="node7" class="node">
<title>Node7</title>
<g id="a_node7"><a xlink:href="lin__alg_8h.html" target="_top" xlink:title="Linear algebra with vectors.">
<polygon fill="white" stroke="#666666" points="280.5,-239 222.5,-239 222.5,-220 280.5,-220 280.5,-239"/>
<text text-anchor="middle" x="251.5" y="-227" font-family="Helvetica,sans-Serif" font-size="10.00">lin_alg.h</text>
</a>
</g>
</g>
<!-- Node1&#45;&gt;Node7 -->
<g id="edge8" class="edge">
<title>Node1&#45;&gt;Node7</title>
<path fill="none" stroke="#63b8ff" d="M274.88,-274.75C271.04,-267.49 265.48,-256.95 260.74,-247.98"/>
<polygon fill="#63b8ff" stroke="#63b8ff" points="263.8,-246.3 256.04,-239.09 257.61,-249.57 263.8,-246.3"/>
</g>
<!-- Node8 -->
<g id="node8" class="node">
<title>Node8</title>
<g id="a_node8"><a xlink:href="solver__interface_8h.html" target="_top" xlink:title="Interface and wrapper to matrix/factorization (ladel) functions.">
<polygon fill="white" stroke="#666666" points="303.5,-184 199.5,-184 199.5,-165 303.5,-165 303.5,-184"/>
<text text-anchor="middle" x="251.5" y="-172" font-family="Helvetica,sans-Serif" font-size="10.00">solver_interface.h</text>
</a>
</g>
</g>
<!-- Node1&#45;&gt;Node8 -->
<g id="edge16" class="edge">
<title>Node1&#45;&gt;Node8</title>
<path fill="none" stroke="#63b8ff" d="M283.63,-274.6C288.85,-262.06 296.37,-238.64 289.5,-220 285.44,-208.99 277.31,-198.86 269.6,-191.05"/>
<polygon fill="#63b8ff" stroke="#63b8ff" points="271.89,-188.39 262.21,-184.07 267.08,-193.48 271.89,-188.39"/>
</g>
<!-- Node10 -->
<g id="node10" class="node">
<title>Node10</title>
<g id="a_node10"><a xlink:href="newton_8h.html" target="_top" xlink:title="Functions to calculate the semismooth Newton direction.">
<polygon fill="white" stroke="#666666" points="204.5,-239 142.5,-239 142.5,-220 204.5,-220 204.5,-239"/>
<text text-anchor="middle" x="173.5" y="-227" font-family="Helvetica,sans-Serif" font-size="10.00">newton.h</text>
</a>
</g>
</g>
<!-- Node1&#45;&gt;Node10 -->
<g id="edge17" class="edge">
<title>Node1&#45;&gt;Node10</title>
<path fill="none" stroke="#63b8ff" d="M262.47,-274.98C245.57,-266.54 219.44,-253.47 199.86,-243.68"/>
<polygon fill="#63b8ff" stroke="#63b8ff" points="201.35,-240.51 190.84,-239.17 198.22,-246.77 201.35,-240.51"/>
</g>
<!-- Node11 -->
<g id="node11" class="node">
<title>Node11</title>
<g id="a_node11"><a xlink:href="linesearch_8h.html" target="_top" xlink:title="Routines to perform exact linesearch.">
<polygon fill="white" stroke="#666666" points="457.5,-184 381.5,-184 381.5,-165 457.5,-165 457.5,-184"/>
<text text-anchor="middle" x="419.5" y="-172" font-family="Helvetica,sans-Serif" font-size="10.00">linesearch.h</text>
</a>
</g>
</g>
<!-- Node1&#45;&gt;Node11 -->
<g id="edge19" class="edge">
<title>Node1&#45;&gt;Node11</title>
<path fill="none" stroke="#63b8ff" d="M290.96,-274.66C314.97,-256.14 370.79,-213.08 400.35,-190.28"/>
<polygon fill="#63b8ff" stroke="#63b8ff" points="402.5,-193.04 408.28,-184.16 398.22,-187.5 402.5,-193.04"/>
</g>
<!-- Node12 -->
<g id="node12" class="node">
<title>Node12</title>
<g id="a_node12"><a xlink:href="nonconvex_8h.html" target="_top" xlink:title="Routines to deal with nonconvex QPs.">
<polygon fill="white" stroke="#666666" points="125,-239 46,-239 46,-220 125,-220 125,-239"/>
<text text-anchor="middle" x="85.5" y="-227" font-family="Helvetica,sans-Serif" font-size="10.00">nonconvex.h</text>
</a>
</g>
</g>
<!-- Node1&#45;&gt;Node12 -->
<g id="edge22" class="edge">
<title>Node1&#45;&gt;Node12</title>
<path fill="none" stroke="#63b8ff" d="M248.33,-274.98C215.34,-265.97 163.1,-251.7 126.73,-241.76"/>
<polygon fill="#63b8ff" stroke="#63b8ff" points="127.48,-238.34 116.91,-239.08 125.64,-245.09 127.48,-238.34"/>
</g>
<!-- Node13 -->
<g id="node13" class="node">
<title>Node13</title>
<g id="a_node13"><a xlink:href="util_8h.html" target="_top" xlink:title="Utility functions.">
<polygon fill="white" stroke="#666666" points="363,-184 322,-184 322,-165 363,-165 363,-184"/>
<text text-anchor="middle" x="342.5" y="-172" font-family="Helvetica,sans-Serif" font-size="10.00">util.h</text>
</a>
</g>
</g>
<!-- Node1&#45;&gt;Node13 -->
<g id="edge24" class="edge">
<title>Node1&#45;&gt;Node13</title>
<path fill="none" stroke="#63b8ff" d="M284.66,-274.66C295.04,-256.85 318.66,-216.37 332.29,-193.01"/>
<polygon fill="#63b8ff" stroke="#63b8ff" points="335.43,-194.56 337.45,-184.16 329.39,-191.03 335.43,-194.56"/>
</g>
<!-- Node3 -->
<g id="node3" class="node">
<title>Node3</title>
<g id="a_node3"><a xlink:href="types_8h.html" target="_top" xlink:title="Internal data structures used in QPALM.">
<polygon fill="white" stroke="#666666" points="198,-129 145,-129 145,-110 198,-110 198,-129"/>
<text text-anchor="middle" x="171.5" y="-117" font-family="Helvetica,sans-Serif" font-size="10.00">types.h</text>
</a>
</g>
</g>
<!-- Node2&#45;&gt;Node3 -->
<g id="edge2" class="edge">
<title>Node2&#45;&gt;Node3</title>
<path fill="none" stroke="#63b8ff" d="M55.67,-164.98C78.27,-156.3 113.56,-142.75 139.25,-132.88"/>
<polygon fill="#63b8ff" stroke="#63b8ff" points="140.84,-136.02 148.92,-129.17 138.33,-129.49 140.84,-136.02"/>
</g>
<!-- Node4 -->
<g id="node4" class="node">
<title>Node4</title>
<g id="a_node4"><a xlink:href="global__opts_8h.html" target="_top" xlink:title="Custom memory allocation, print and utility functions, and data types for floats and ints.">
<polygon fill="white" stroke="#666666" points="211.5,-74 129.5,-74 129.5,-55 211.5,-55 211.5,-74"/>
<text text-anchor="middle" x="170.5" y="-62" font-family="Helvetica,sans-Serif" font-size="10.00">global_opts.h</text>
</a>
</g>
</g>
<!-- Node2&#45;&gt;Node4 -->
<g id="edge7" class="edge">
<title>Node2&#45;&gt;Node4</title>
<path fill="none" stroke="#63b8ff" d="M44.71,-164.66C68.11,-146.22 122.37,-103.45 151.38,-80.57"/>
<polygon fill="#63b8ff" stroke="#63b8ff" points="153.83,-83.1 159.52,-74.16 149.5,-77.6 153.83,-83.1"/>
</g>
<!-- Node3&#45;&gt;Node4 -->
<g id="edge3" class="edge">
<title>Node3&#45;&gt;Node4</title>
<path fill="none" stroke="#63b8ff" d="M171.33,-109.75C171.2,-102.8 171.02,-92.85 170.85,-84.13"/>
<polygon fill="#63b8ff" stroke="#63b8ff" points="174.35,-84.02 170.66,-74.09 167.35,-84.15 174.35,-84.02"/>
</g>
<!-- Node3&#45;&gt;Node5 -->
<g id="edge6" class="edge">
<title>Node3&#45;&gt;Node5</title>
<path fill="none" stroke="#63b8ff" d="M181.53,-109.92C191.64,-101.16 207.54,-87.04 220.5,-74 235.75,-58.66 252.15,-40.16 263.42,-27.1"/>
<polygon fill="#63b8ff" stroke="#63b8ff" points="266.18,-29.26 270.03,-19.38 260.86,-24.7 266.18,-29.26"/>
</g>
<!-- Node4&#45;&gt;Node5 -->
<g id="edge4" class="edge">
<title>Node4&#45;&gt;Node5</title>
<path fill="none" stroke="#63b8ff" d="M187.69,-54.98C204.75,-46.54 231.13,-33.47 250.9,-23.68"/>
<polygon fill="#63b8ff" stroke="#63b8ff" points="252.59,-26.75 260,-19.17 249.48,-20.47 252.59,-26.75"/>
</g>
<!-- Node6 -->
<g id="node6" class="node">
<title>Node6</title>
<g id="a_node6"><a xlink:title=" ">
<polygon fill="#e0e0e0" stroke="#999999" points="196,-19 145,-19 145,0 196,0 196,-19"/>
<text text-anchor="middle" x="170.5" y="-7" font-family="Helvetica,sans-Serif" font-size="10.00">math.h</text>
</a>
</g>
</g>
<!-- Node4&#45;&gt;Node6 -->
<g id="edge5" class="edge">
<title>Node4&#45;&gt;Node6</title>
<path fill="none" stroke="#63b8ff" d="M170.5,-54.75C170.5,-47.8 170.5,-37.85 170.5,-29.13"/>
<polygon fill="#63b8ff" stroke="#63b8ff" points="174,-29.09 170.5,-19.09 167,-29.09 174,-29.09"/>
</g>
<!-- Node7&#45;&gt;Node3 -->
<g id="edge9" class="edge">
<title>Node7&#45;&gt;Node3</title>
<path fill="none" stroke="#63b8ff" d="M234.07,-219.88C220.34,-212.24 201.7,-199.84 190.5,-184 181.05,-170.64 176.24,-152.53 173.82,-139.07"/>
<polygon fill="#63b8ff" stroke="#63b8ff" points="177.27,-138.43 172.31,-129.06 170.35,-139.47 177.27,-138.43"/>
</g>
<!-- Node7&#45;&gt;Node8 -->
<g id="edge10" class="edge">
<title>Node7&#45;&gt;Node8</title>
<path fill="none" stroke="#63b8ff" d="M251.5,-219.75C251.5,-212.8 251.5,-202.85 251.5,-194.13"/>
<polygon fill="#63b8ff" stroke="#63b8ff" points="255,-194.09 251.5,-184.09 248,-194.09 255,-194.09"/>
</g>
<!-- Node8&#45;&gt;Node3 -->
<g id="edge14" class="edge">
<title>Node8&#45;&gt;Node3</title>
<path fill="none" stroke="#63b8ff" d="M238.65,-164.98C226.36,-156.84 207.59,-144.41 193.02,-134.76"/>
<polygon fill="#63b8ff" stroke="#63b8ff" points="194.86,-131.78 184.59,-129.17 190.99,-137.61 194.86,-131.78"/>
</g>
<!-- Node8&#45;&gt;Node4 -->
<g id="edge11" class="edge">
<title>Node8&#45;&gt;Node4</title>
<path fill="none" stroke="#63b8ff" d="M245.76,-164.7C237.57,-152.28 221.94,-129.01 207.5,-110 200.28,-100.5 191.8,-90.24 184.78,-81.97"/>
<polygon fill="#63b8ff" stroke="#63b8ff" points="187.27,-79.5 178.1,-74.18 181.95,-84.05 187.27,-79.5"/>
</g>
<!-- Node8&#45;&gt;Node5 -->
<g id="edge15" class="edge">
<title>Node8&#45;&gt;Node5</title>
<path fill="none" stroke="#63b8ff" d="M252.9,-164.74C256.97,-139.2 268.9,-64.43 274.51,-29.23"/>
<polygon fill="#63b8ff" stroke="#63b8ff" points="277.98,-29.73 276.1,-19.31 271.06,-28.63 277.98,-29.73"/>
</g>
<!-- Node9 -->
<g id="node9" class="node">
<title>Node9</title>
<g id="a_node9"><a xlink:href="constants_8h.html" target="_top" xlink:title="Constants used in QPALM.">
<polygon fill="white" stroke="#666666" points="379,-129 306,-129 306,-110 379,-110 379,-129"/>
<text text-anchor="middle" x="342.5" y="-117" font-family="Helvetica,sans-Serif" font-size="10.00">constants.h</text>
</a>
</g>
</g>
<!-- Node8&#45;&gt;Node9 -->
<g id="edge12" class="edge">
<title>Node8&#45;&gt;Node9</title>
<path fill="none" stroke="#63b8ff" d="M266.12,-164.98C280.36,-156.69 302.25,-143.94 318.95,-134.22"/>
<polygon fill="#63b8ff" stroke="#63b8ff" points="320.73,-137.23 327.61,-129.17 317.21,-131.18 320.73,-137.23"/>
</g>
<!-- Node9&#45;&gt;Node5 -->
<g id="edge13" class="edge">
<title>Node9&#45;&gt;Node5</title>
<path fill="none" stroke="#63b8ff" d="M337.18,-109.66C326.46,-91.85 302.1,-51.37 288.04,-28.01"/>
<polygon fill="#63b8ff" stroke="#63b8ff" points="290.87,-25.92 282.71,-19.16 284.87,-29.53 290.87,-25.92"/>
</g>
<!-- Node10&#45;&gt;Node3 -->
<g id="edge18" class="edge">
<title>Node10&#45;&gt;Node3</title>
<path fill="none" stroke="#63b8ff" d="M169.39,-219.88C165.44,-211.09 159.76,-196.94 157.5,-184 154.8,-168.53 159.17,-151.13 163.72,-138.46"/>
<polygon fill="#63b8ff" stroke="#63b8ff" points="167.01,-139.67 167.43,-129.08 160.5,-137.09 167.01,-139.67"/>
</g>
<!-- Node11&#45;&gt;Node3 -->
<g id="edge20" class="edge">
<title>Node11&#45;&gt;Node3</title>
<path fill="none" stroke="#63b8ff" d="M381.29,-165.33C334.18,-155.27 254.65,-138.27 208.22,-128.35"/>
<polygon fill="#63b8ff" stroke="#63b8ff" points="208.8,-124.89 198.29,-126.22 207.33,-131.74 208.8,-124.89"/>
</g>
<!-- Node11&#45;&gt;Node9 -->
<g id="edge21" class="edge">
<title>Node11&#45;&gt;Node9</title>
<path fill="none" stroke="#63b8ff" d="M407.13,-164.98C395.41,-156.92 377.58,-144.65 363.61,-135.03"/>
<polygon fill="#63b8ff" stroke="#63b8ff" points="365.32,-131.96 355.1,-129.17 361.35,-137.72 365.32,-131.96"/>
</g>
<!-- Node12&#45;&gt;Node3 -->
<g id="edge23" class="edge">
<title>Node12&#45;&gt;Node3</title>
<path fill="none" stroke="#63b8ff" d="M92.54,-219.66C106.91,-201.61 139.83,-160.28 158.3,-137.08"/>
<polygon fill="#63b8ff" stroke="#63b8ff" points="161.11,-139.16 164.61,-129.16 155.64,-134.8 161.11,-139.16"/>
</g>
<!-- Node13&#45;&gt;Node3 -->
<g id="edge25" class="edge">
<title>Node13&#45;&gt;Node3</title>
<path fill="none" stroke="#63b8ff" d="M321.87,-167.11C293.66,-158.36 242.57,-142.53 207.86,-131.77"/>
<polygon fill="#63b8ff" stroke="#63b8ff" points="208.68,-128.36 198.09,-128.74 206.61,-135.05 208.68,-128.36"/>
</g>
<!-- Node13&#45;&gt;Node9 -->
<g id="edge26" class="edge">
<title>Node13&#45;&gt;Node9</title>
<path fill="none" stroke="#63b8ff" d="M342.5,-164.75C342.5,-157.8 342.5,-147.85 342.5,-139.13"/>
<polygon fill="#63b8ff" stroke="#63b8ff" points="346,-139.09 342.5,-129.09 339,-139.09 346,-139.09"/>
</g>
</g>
</svg>
