<?xml version="1.0" encoding="UTF-8" standalone="no"?>
<!DOCTYPE svg PUBLIC "-//W3C//DTD SVG 1.1//EN"
 "http://www.w3.org/Graphics/SVG/1.1/DTD/svg11.dtd">
<!-- Generated by graphviz version 2.43.0 (0)
 -->
<!-- Title: prea_vec_copy Pages: 1 -->
<!--zoomable 529 -->
<svg id="main" version="1.1" xmlns="http://www.w3.org/2000/svg" xmlns:xlink="http://www.w3.org/1999/xlink" xml:space="preserve" onload="init(evt)">
<style type="text/css"><![CDATA[
.edge:hover path { stroke: red; }
.edge:hover polygon { stroke: red; fill: red; }
]]></style>
<script type="text/javascript"><![CDATA[
var edges = document.getElementsByTagName('g');
if (edges && edges.length) {
  for (var i=0;i<edges.length;i++) {
    if (edges[i].id.substr(0,4)=='edge') {
      edges[i].setAttribute('class','edge');
    }
  }
}
]]></script>
        <defs>
                <circle id="rim" cx="0" cy="0" r="7"/>
                <circle id="rim2" cx="0" cy="0" r="3.5"/>
                <g id="zoomPlus">
                        <use xlink:href="#rim" fill="#404040">
                                <set attributeName="fill" to="#808080" begin="zoomplus.mouseover" end="zoomplus.mouseout"/>
                        </use>
                        <path d="M-4,0h8M0,-4v8" fill="none" stroke="white" stroke-width="1.5" pointer-events="none"/>
                </g>
                <g id="zoomMin">
                        <use xlink:href="#rim" fill="#404040">
                                <set attributeName="fill" to="#808080" begin="zoomminus.mouseover" end="zoomminus.mouseout"/>
                        </use>
                        <path d="M-4,0h8" fill="none" stroke="white" stroke-width="1.5" pointer-events="none"/>
                </g>
                <g id="dirArrow">
                        <path fill="none" stroke="white" stroke-width="1.5" d="M0,-3.0v7 M-2.5,-0.5L0,-3.0L2.5,-0.5"/>
                </g>
               <g id="resetDef">
                       <use xlink:href="#rim2" fill="#404040">
                               <set attributeName="fill" to="#808080" begin="reset.mouseover" end="reset.mouseout"/>
                       </use>
               </g>
        </defs>

<script type="text/javascript">
var viewWidth = 875;
var viewHeight = 529;
var sectionId = 'dynsection-3';
</script>
<script xlink:href="svgpan.js"/>
<svg id="graph" class="graph">
<g id="viewport">
<title>prea_vec_copy</title>
<!-- Node1 -->
<g id="node1" class="node">
<title>Node1</title>
<g id="a_node1"><a xlink:title="Copy vector a into preallocated vector b.">
<polygon fill="#999999" stroke="#666666" points="867,-271.5 778,-271.5 778,-252.5 867,-252.5 867,-271.5"/>
<text text-anchor="middle" x="822.5" y="-259.5" font-family="Helvetica,sans-Serif" font-size="10.00">prea_vec_copy</text>
</a>
</g>
</g>
<!-- Node2 -->
<g id="node2" class="node">
<title>Node2</title>
<g id="a_node2"><a xlink:href="linesearch_8c.html#a647cabae1574f21e412110765ea1e70d" target="_top" xlink:title="Execute exact linesearch (using qsort)">
<polygon fill="white" stroke="#666666" points="552,-517.5 453,-517.5 453,-498.5 552,-498.5 552,-517.5"/>
<text text-anchor="middle" x="502.5" y="-505.5" font-family="Helvetica,sans-Serif" font-size="10.00">exact_linesearch</text>
</a>
</g>
</g>
<!-- Node1&#45;&gt;Node2 -->
<g id="edge1" class="edge">
<title>Node1&#45;&gt;Node2</title>
<path fill="none" stroke="#63b8ff" d="M821.03,-281.62C818.81,-325.86 806.68,-433.43 742,-484 688.07,-526.17 604.97,-524.05 552.46,-517.15"/>
<polygon fill="#63b8ff" stroke="#63b8ff" points="824.53,-281.71 821.41,-271.59 817.53,-281.45 824.53,-281.71"/>
</g>
<!-- Node3 -->
<g id="node3" class="node">
<title>Node3</title>
<g id="a_node3"><a xlink:href="iteration_8c.html#a9c9fafac9ce099122c5a594762e5a052" target="_top" xlink:title="Update the primal iterate.">
<polygon fill="white" stroke="#666666" points="392,-460.5 267,-460.5 267,-441.5 392,-441.5 392,-460.5"/>
<text text-anchor="middle" x="329.5" y="-448.5" font-family="Helvetica,sans-Serif" font-size="10.00">update_primal_iterate</text>
</a>
</g>
</g>
<!-- Node1&#45;&gt;Node3 -->
<g id="edge25" class="edge">
<title>Node1&#45;&gt;Node3</title>
<path fill="none" stroke="#63b8ff" d="M819.25,-282.3C813.8,-320.6 796.07,-402.88 742,-439 622.39,-518.89 436.53,-480.59 362.5,-460.55"/>
<polygon fill="#63b8ff" stroke="#63b8ff" points="822.78,-282.29 820.57,-271.93 815.84,-281.41 822.78,-282.29"/>
</g>
<!-- Node4 -->
<g id="node4" class="node">
<title>Node4</title>
<g id="a_node4"><a xlink:href="group__solver-grp.html#ga9bbc8b47dfd2e86a81dd77feb4077bde" target="_top" xlink:title="Solve the quadratic program.">
<polygon fill="white" stroke="#666666" points="231,-330.5 152,-330.5 152,-311.5 231,-311.5 231,-330.5"/>
<text text-anchor="middle" x="191.5" y="-318.5" font-family="Helvetica,sans-Serif" font-size="10.00">qpalm_solve</text>
</a>
</g>
</g>
<!-- Node1&#45;&gt;Node4 -->
<g id="edge12" class="edge">
<title>Node1&#45;&gt;Node4</title>
<path fill="none" stroke="#63b8ff" d="M797.58,-276.61C782.28,-285.13 761.68,-295.14 742,-300 555.24,-346.11 322.04,-332.64 231.22,-324.82"/>
<polygon fill="#63b8ff" stroke="#63b8ff" points="799.45,-279.57 806.37,-271.55 795.96,-273.5 799.45,-279.57"/>
</g>
<!-- Node7 -->
<g id="node7" class="node">
<title>Node7</title>
<g id="a_node7"><a xlink:href="solver__interface_8c.html#aca80eaf7b897030273f1a6820b7e6d38" target="_top" xlink:title="Solve the KKT system &#160;.">
<polygon fill="white" stroke="#666666" points="709.5,-366.5 645.5,-366.5 645.5,-347.5 709.5,-347.5 709.5,-366.5"/>
<text text-anchor="middle" x="677.5" y="-354.5" font-family="Helvetica,sans-Serif" font-size="10.00">kkt_solve</text>
</a>
</g>
</g>
<!-- Node1&#45;&gt;Node7 -->
<g id="edge6" class="edge">
<title>Node1&#45;&gt;Node7</title>
<path fill="none" stroke="#63b8ff" d="M805.84,-279.23C790.75,-294.99 766.66,-318.05 742,-333 732.02,-339.05 720.27,-344.01 709.6,-347.82"/>
<polygon fill="#63b8ff" stroke="#63b8ff" points="808.57,-281.43 812.86,-271.74 803.46,-276.65 808.57,-281.43"/>
</g>
<!-- Node8 -->
<g id="node8" class="node">
<title>Node8</title>
<g id="a_node8"><a xlink:href="newton_8c.html#af1654e5597faac8b0ade25acf1fc1bc9" target="_top" xlink:title="Sets work&#45;&gt;d to the direction calculated by the semismooth Newton method.">
<polygon fill="white" stroke="#666666" points="563,-422.5 442,-422.5 442,-403.5 563,-403.5 563,-422.5"/>
<text text-anchor="middle" x="502.5" y="-410.5" font-family="Helvetica,sans-Serif" font-size="10.00">newton_set_direction</text>
</a>
</g>
</g>
<!-- Node1&#45;&gt;Node8 -->
<g id="edge11" class="edge">
<title>Node1&#45;&gt;Node8</title>
<path fill="none" stroke="#63b8ff" d="M817.83,-281.85C810.35,-315.79 789.85,-384.11 742,-413 677.13,-452.16 583.13,-435.33 534.8,-422.55"/>
<polygon fill="#63b8ff" stroke="#63b8ff" points="821.31,-282.26 819.88,-271.76 814.45,-280.86 821.31,-282.26"/>
</g>
<!-- Node9 -->
<g id="node9" class="node">
<title>Node9</title>
<g id="a_node9"><a xlink:href="solver__interface_8c.html#a03ad73d0e41054e90232d141e73474ab" target="_top" xlink:title="Solve the linear system .">
<polygon fill="white" stroke="#666666" points="736,-403.5 619,-403.5 619,-384.5 736,-384.5 736,-403.5"/>
<text text-anchor="middle" x="677.5" y="-391.5" font-family="Helvetica,sans-Serif" font-size="10.00">ldlsolveLD_neg_dphi</text>
</a>
</g>
</g>
<!-- Node1&#45;&gt;Node9 -->
<g id="edge9" class="edge">
<title>Node1&#45;&gt;Node9</title>
<path fill="none" stroke="#63b8ff" d="M813.33,-280.94C801.38,-306.38 776.72,-351.27 742,-376 737.24,-379.39 731.86,-382.15 726.29,-384.38"/>
<polygon fill="#63b8ff" stroke="#63b8ff" points="816.61,-282.18 817.54,-271.63 810.23,-279.3 816.61,-282.18"/>
</g>
<!-- Node10 -->
<g id="node10" class="node">
<title>Node10</title>
<g id="a_node10"><a xlink:href="group__solver-grp.html#ga385f399d0fb6afaaa0da5f3a114bf922" target="_top" xlink:title="Update the lower and upper bounds.">
<polygon fill="white" stroke="#666666" points="741,-290.5 614,-290.5 614,-271.5 741,-271.5 741,-290.5"/>
<text text-anchor="middle" x="677.5" y="-278.5" font-family="Helvetica,sans-Serif" font-size="10.00">qpalm_update_bounds</text>
</a>
</g>
</g>
<!-- Node1&#45;&gt;Node10 -->
<g id="edge13" class="edge">
<title>Node1&#45;&gt;Node10</title>
<path fill="none" stroke="#63b8ff" d="M767.81,-269.13C759.1,-270.29 750.02,-271.5 741.13,-272.68"/>
<polygon fill="#63b8ff" stroke="#63b8ff" points="768.37,-272.59 777.82,-267.8 767.44,-265.65 768.37,-272.59"/>
</g>
<!-- Node12 -->
<g id="node12" class="node">
<title>Node12</title>
<g id="a_node12"><a xlink:href="group__solver-grp.html#gadc1a41812270a2a9539558e7eec403fe" target="_top" xlink:title="Update the linear part of the cost.">
<polygon fill="white" stroke="#666666" points="726.5,-253.5 628.5,-253.5 628.5,-234.5 726.5,-234.5 726.5,-253.5"/>
<text text-anchor="middle" x="677.5" y="-241.5" font-family="Helvetica,sans-Serif" font-size="10.00">qpalm_update_q</text>
</a>
</g>
</g>
<!-- Node1&#45;&gt;Node12 -->
<g id="edge15" class="edge">
<title>Node1&#45;&gt;Node12</title>
<path fill="none" stroke="#63b8ff" d="M767.71,-255.23C754.23,-253.53 739.84,-251.72 726.65,-250.06"/>
<polygon fill="#63b8ff" stroke="#63b8ff" points="767.46,-258.73 777.82,-256.5 768.33,-251.78 767.46,-258.73"/>
</g>
<!-- Node14 -->
<g id="node14" class="node">
<title>Node14</title>
<g id="a_node14"><a xlink:href="group__solver-grp.html#ga327c43b0d2f129fc32e8ef2a47e289af" target="_top" xlink:title="Update the matrix entries of Q and A.">
<polygon fill="white" stroke="#666666" points="733,-216.5 622,-216.5 622,-197.5 733,-197.5 733,-216.5"/>
<text text-anchor="middle" x="677.5" y="-204.5" font-family="Helvetica,sans-Serif" font-size="10.00">qpalm_update_Q_A</text>
</a>
</g>
</g>
<!-- Node1&#45;&gt;Node14 -->
<g id="edge17" class="edge">
<title>Node1&#45;&gt;Node14</title>
<path fill="none" stroke="#63b8ff" d="M792.97,-247.95C778,-240.87 759.23,-232.44 742,-226 732.84,-222.57 722.76,-219.33 713.38,-216.52"/>
<polygon fill="#63b8ff" stroke="#63b8ff" points="791.67,-251.22 802.2,-252.38 794.7,-244.9 791.67,-251.22"/>
</g>
<!-- Node16 -->
<g id="node16" class="node">
<title>Node16</title>
<g id="a_node16"><a xlink:href="group__solver-grp.html#ga28824f01d01f181a6ad6b413f30a2609" target="_top" xlink:title="Warm start workspace variables x, x_0, x_prev, Ax, Qx, y and sigma.">
<polygon fill="white" stroke="#666666" points="731.5,-179.5 623.5,-179.5 623.5,-160.5 731.5,-160.5 731.5,-179.5"/>
<text text-anchor="middle" x="677.5" y="-167.5" font-family="Helvetica,sans-Serif" font-size="10.00">qpalm_warm_start</text>
</a>
</g>
</g>
<!-- Node1&#45;&gt;Node16 -->
<g id="edge19" class="edge">
<title>Node1&#45;&gt;Node16</title>
<path fill="none" stroke="#63b8ff" d="M806.99,-244.32C792.28,-227.5 768.02,-202.66 742,-188 736.01,-184.63 729.34,-181.85 722.64,-179.56"/>
<polygon fill="#63b8ff" stroke="#63b8ff" points="804.63,-246.94 813.77,-252.29 809.95,-242.4 804.63,-246.94"/>
</g>
<!-- Node18 -->
<g id="node18" class="node">
<title>Node18</title>
<g id="a_node18"><a xlink:href="scaling_8c.html#a3735b6c9c3aeeddfb3bb0982ae5f70ba" target="_top" xlink:title="Scale problem matrices.">
<polygon fill="white" stroke="#666666" points="712,-142.5 643,-142.5 643,-123.5 712,-123.5 712,-142.5"/>
<text text-anchor="middle" x="677.5" y="-130.5" font-family="Helvetica,sans-Serif" font-size="10.00">scale_data</text>
</a>
</g>
</g>
<!-- Node1&#45;&gt;Node18 -->
<g id="edge21" class="edge">
<title>Node1&#45;&gt;Node18</title>
<path fill="none" stroke="#63b8ff" d="M813.01,-243.19C800.85,-218.35 776.09,-174.96 742,-151 733.19,-144.81 722.29,-140.73 712.02,-138.06"/>
<polygon fill="#63b8ff" stroke="#63b8ff" points="809.88,-244.76 817.32,-252.3 816.21,-241.77 809.88,-244.76"/>
</g>
<!-- Node19 -->
<g id="node19" class="node">
<title>Node19</title>
<g id="a_node19"><a xlink:href="termination_8c.html#a59f3d4d2ea459665833cc3d5e9265d5e" target="_top" xlink:title="Helper function to store the (unscaled) solution in the solution struct.">
<polygon fill="white" stroke="#666666" points="720.5,-105.5 634.5,-105.5 634.5,-86.5 720.5,-86.5 720.5,-105.5"/>
<text text-anchor="middle" x="677.5" y="-93.5" font-family="Helvetica,sans-Serif" font-size="10.00">store_solution</text>
</a>
</g>
</g>
<!-- Node1&#45;&gt;Node19 -->
<g id="edge22" class="edge">
<title>Node1&#45;&gt;Node19</title>
<path fill="none" stroke="#63b8ff" d="M816.41,-242.51C807.11,-210.76 784.3,-148 742,-114 735.84,-109.05 728.38,-105.46 720.78,-102.85"/>
<polygon fill="#63b8ff" stroke="#63b8ff" points="813.1,-243.65 819.15,-252.35 819.84,-241.78 813.1,-243.65"/>
</g>
<!-- Node20 -->
<g id="node20" class="node">
<title>Node20</title>
<g id="a_node20"><a xlink:href="iteration_8c.html#a1ad7b6cb4924a8de3378ed35890b02e7" target="_top" xlink:title=" ">
<polygon fill="white" stroke="#666666" points="559.5,-73 445.5,-73 445.5,-43 559.5,-43 559.5,-73"/>
<text text-anchor="start" x="453.5" y="-61" font-family="Helvetica,sans-Serif" font-size="10.00">update_dual_iterate</text>
<text text-anchor="middle" x="502.5" y="-50" font-family="Helvetica,sans-Serif" font-size="10.00">_and_parameters</text>
</a>
</g>
</g>
<!-- Node1&#45;&gt;Node20 -->
<g id="edge23" class="edge">
<title>Node1&#45;&gt;Node20</title>
<path fill="none" stroke="#63b8ff" d="M819.53,-242.13C814.49,-203.07 797.33,-116.68 742,-77 689.18,-39.11 611.81,-40.45 559.64,-47.21"/>
<polygon fill="#63b8ff" stroke="#63b8ff" points="816.07,-242.68 820.69,-252.22 823.02,-241.88 816.07,-242.68"/>
</g>
<!-- Node21 -->
<g id="node21" class="node">
<title>Node21</title>
<g id="a_node21"><a xlink:href="iteration_8c.html#a786f2d2af82a141fe3825a3964659d50" target="_top" xlink:title=" ">
<polygon fill="white" stroke="#666666" points="742,-30 613,-30 613,0 742,0 742,-30"/>
<text text-anchor="start" x="621" y="-18" font-family="Helvetica,sans-Serif" font-size="10.00">update_proximal_point</text>
<text text-anchor="middle" x="677.5" y="-7" font-family="Helvetica,sans-Serif" font-size="10.00">_and_penalty</text>
</a>
</g>
</g>
<!-- Node1&#45;&gt;Node21 -->
<g id="edge26" class="edge">
<title>Node1&#45;&gt;Node21</title>
<path fill="none" stroke="#63b8ff" d="M819.43,-242.43C814.06,-200.81 796.1,-102.54 742,-44 736.82,-38.39 730.34,-33.79 723.52,-30.03"/>
<polygon fill="#63b8ff" stroke="#63b8ff" points="815.96,-242.86 820.61,-252.38 822.91,-242.03 815.96,-242.86"/>
</g>
<!-- Node2&#45;&gt;Node3 -->
<g id="edge2" class="edge">
<title>Node2&#45;&gt;Node3</title>
<path fill="none" stroke="#63b8ff" d="M462.63,-495.39C451.44,-491.74 439.23,-487.73 428,-484 404.6,-476.22 378.09,-467.24 358.63,-460.61"/>
<polygon fill="#63b8ff" stroke="#63b8ff" points="461.56,-498.73 472.15,-498.5 463.72,-492.07 461.56,-498.73"/>
</g>
<!-- Node3&#45;&gt;Node4 -->
<g id="edge3" class="edge">
<title>Node3&#45;&gt;Node4</title>
<path fill="none" stroke="#63b8ff" d="M310.91,-434.19C282,-406.56 225.38,-352.43 202.47,-330.53"/>
<polygon fill="#63b8ff" stroke="#63b8ff" points="308.63,-436.85 318.28,-441.23 313.47,-431.79 308.63,-436.85"/>
</g>
<!-- Node5 -->
<g id="node5" class="node">
<title>Node5</title>
<g id="a_node5"><a xlink:href="qpalm__fortran_8c.html#abec01161fcee665e126347b862c404c4" target="_top" xlink:title=" ">
<polygon fill="white" stroke="#666666" points="106,-349.5 10,-349.5 10,-330.5 106,-330.5 106,-349.5"/>
<text text-anchor="middle" x="58" y="-337.5" font-family="Helvetica,sans-Serif" font-size="10.00">qpalm_fortran_c</text>
</a>
</g>
</g>
<!-- Node4&#45;&gt;Node5 -->
<g id="edge4" class="edge">
<title>Node4&#45;&gt;Node5</title>
<path fill="none" stroke="#63b8ff" d="M141.8,-328.04C130.2,-329.71 117.85,-331.5 106.31,-333.16"/>
<polygon fill="#63b8ff" stroke="#63b8ff" points="142.36,-331.49 151.76,-326.6 141.36,-324.56 142.36,-331.49"/>
</g>
<!-- Node6 -->
<g id="node6" class="node">
<title>Node6</title>
<g id="a_node6"><a xlink:href="classqpalm_1_1Solver.html#a7d723d189a812ffa19d688b7aa38ccca" target="_top" xlink:title="Solve the problem.">
<polygon fill="white" stroke="#666666" points="116,-312.5 0,-312.5 0,-293.5 116,-293.5 116,-312.5"/>
<text text-anchor="middle" x="58" y="-300.5" font-family="Helvetica,sans-Serif" font-size="10.00">qpalm::Solver::solve</text>
</a>
</g>
</g>
<!-- Node4&#45;&gt;Node6 -->
<g id="edge5" class="edge">
<title>Node4&#45;&gt;Node6</title>
<path fill="none" stroke="#63b8ff" d="M141.62,-314.31C133.43,-313.19 124.86,-312.02 116.47,-310.87"/>
<polygon fill="#63b8ff" stroke="#63b8ff" points="141.37,-317.81 151.76,-315.7 142.32,-310.87 141.37,-317.81"/>
</g>
<!-- Node7&#45;&gt;Node8 -->
<g id="edge7" class="edge">
<title>Node7&#45;&gt;Node8</title>
<path fill="none" stroke="#63b8ff" d="M635.7,-368.98C628.14,-371.26 620.32,-373.67 613,-376 584.89,-384.95 552.96,-395.82 530.86,-403.46"/>
<polygon fill="#63b8ff" stroke="#63b8ff" points="636.85,-372.29 645.43,-366.06 634.84,-365.58 636.85,-372.29"/>
</g>
<!-- Node8&#45;&gt;Node3 -->
<g id="edge8" class="edge">
<title>Node8&#45;&gt;Node3</title>
<path fill="none" stroke="#63b8ff" d="M448.29,-424.82C424.18,-430.18 396.06,-436.43 373.34,-441.48"/>
<polygon fill="#63b8ff" stroke="#63b8ff" points="449.35,-428.18 458.35,-422.59 447.83,-421.34 449.35,-428.18"/>
</g>
<!-- Node9&#45;&gt;Node8 -->
<g id="edge10" class="edge">
<title>Node9&#45;&gt;Node8</title>
<path fill="none" stroke="#63b8ff" d="M608.66,-401.45C593.66,-403.1 577.87,-404.83 563.22,-406.44"/>
<polygon fill="#63b8ff" stroke="#63b8ff" points="609.34,-404.9 618.89,-400.33 608.57,-397.94 609.34,-404.9"/>
</g>
<!-- Node11 -->
<g id="node11" class="node">
<title>Node11</title>
<g id="a_node11"><a xlink:href="classqpalm_1_1Solver.html#a6df33bfd68c5b8caaaa6f726f1a9f517" target="_top" xlink:title=" ">
<polygon fill="white" stroke="#666666" points="564.5,-293 440.5,-293 440.5,-263 564.5,-263 564.5,-293"/>
<text text-anchor="start" x="448.5" y="-281" font-family="Helvetica,sans-Serif" font-size="10.00">qpalm::Solver::update</text>
<text text-anchor="middle" x="502.5" y="-270" font-family="Helvetica,sans-Serif" font-size="10.00">_bounds</text>
</a>
</g>
</g>
<!-- Node10&#45;&gt;Node11 -->
<g id="edge14" class="edge">
<title>Node10&#45;&gt;Node11</title>
<path fill="none" stroke="#63b8ff" d="M603.33,-279.73C590.46,-279.51 577.17,-279.28 564.67,-279.06"/>
<polygon fill="#63b8ff" stroke="#63b8ff" points="603.49,-283.23 613.55,-279.91 603.62,-276.24 603.49,-283.23"/>
</g>
<!-- Node13 -->
<g id="node13" class="node">
<title>Node13</title>
<g id="a_node13"><a xlink:href="classqpalm_1_1Solver.html#a43cbe4e495be0898c733d9589531e63c" target="_top" xlink:title=" ">
<polygon fill="white" stroke="#666666" points="570,-244.5 435,-244.5 435,-225.5 570,-225.5 570,-244.5"/>
<text text-anchor="middle" x="502.5" y="-232.5" font-family="Helvetica,sans-Serif" font-size="10.00">qpalm::Solver::update_q</text>
</a>
</g>
</g>
<!-- Node12&#45;&gt;Node13 -->
<g id="edge16" class="edge">
<title>Node12&#45;&gt;Node13</title>
<path fill="none" stroke="#63b8ff" d="M617.92,-240.95C602.57,-240.15 585.91,-239.29 570.18,-238.47"/>
<polygon fill="#63b8ff" stroke="#63b8ff" points="618.14,-244.47 628.31,-241.49 618.51,-237.48 618.14,-244.47"/>
</g>
<!-- Node15 -->
<g id="node15" class="node">
<title>Node15</title>
<g id="a_node15"><a xlink:href="classqpalm_1_1Solver.html#a11e9742322ad77345b32d806b8b3b81c" target="_top" xlink:title=" ">
<polygon fill="white" stroke="#666666" points="577,-207.5 428,-207.5 428,-188.5 577,-188.5 577,-207.5"/>
<text text-anchor="middle" x="502.5" y="-195.5" font-family="Helvetica,sans-Serif" font-size="10.00">qpalm::Solver::update_Q_A</text>
</a>
</g>
</g>
<!-- Node14&#45;&gt;Node15 -->
<g id="edge18" class="edge">
<title>Node14&#45;&gt;Node15</title>
<path fill="none" stroke="#63b8ff" d="M611.61,-203.62C600.38,-203.04 588.63,-202.43 577.18,-201.83"/>
<polygon fill="#63b8ff" stroke="#63b8ff" points="611.59,-207.13 621.76,-204.15 611.96,-200.14 611.59,-207.13"/>
</g>
<!-- Node17 -->
<g id="node17" class="node">
<title>Node17</title>
<g id="a_node17"><a xlink:href="classqpalm_1_1Solver.html#a693af99e39a9035bbbc4fb61fcb427d1" target="_top" xlink:title=" ">
<polygon fill="white" stroke="#666666" points="561.5,-170 443.5,-170 443.5,-140 561.5,-140 561.5,-170"/>
<text text-anchor="start" x="451.5" y="-158" font-family="Helvetica,sans-Serif" font-size="10.00">qpalm::Solver::warm</text>
<text text-anchor="middle" x="502.5" y="-147" font-family="Helvetica,sans-Serif" font-size="10.00">_start</text>
</a>
</g>
</g>
<!-- Node16&#45;&gt;Node17 -->
<g id="edge20" class="edge">
<title>Node16&#45;&gt;Node17</title>
<path fill="none" stroke="#63b8ff" d="M612.94,-164.49C596.19,-163.04 578.21,-161.48 561.76,-160.05"/>
<polygon fill="#63b8ff" stroke="#63b8ff" points="612.92,-168 623.18,-165.38 613.52,-161.03 612.92,-168"/>
</g>
<!-- Node20&#45;&gt;Node4 -->
<g id="edge24" class="edge">
<title>Node20&#45;&gt;Node4</title>
<path fill="none" stroke="#63b8ff" d="M475.56,-80.08C411.59,-134.53 248.29,-273.52 203.82,-311.36"/>
<polygon fill="#63b8ff" stroke="#63b8ff" points="478.2,-82.42 483.55,-73.28 473.67,-77.09 478.2,-82.42"/>
</g>
<!-- Node21&#45;&gt;Node20 -->
<g id="edge27" class="edge">
<title>Node21&#45;&gt;Node20</title>
<path fill="none" stroke="#63b8ff" d="M605.97,-32.53C590.54,-36.37 574.4,-40.38 559.62,-44.05"/>
<polygon fill="#63b8ff" stroke="#63b8ff" points="607.13,-35.85 615.99,-30.04 605.44,-29.05 607.13,-35.85"/>
</g>
</g>
</svg>
        <g id="navigator" transform="translate(0 0)" fill="#404254">
                <rect fill="#f2f5e9" fill-opacity="0.5" stroke="#606060" stroke-width=".5" x="0" y="0" width="60" height="60"/>
                <use id="zoomplus" xlink:href="#zoomPlus" x="17" y="9" onmousedown="handleZoom(evt,'in')"/>
                <use id="zoomminus" xlink:href="#zoomMin" x="42" y="9" onmousedown="handleZoom(evt,'out')"/>
                <use id="reset" xlink:href="#resetDef" x="30" y="36" onmousedown="handleReset()"/>
                <g id="arrowUp" xlink:href="#dirArrow" transform="translate(30 24)" onmousedown="handlePan(0,-1)">
                  <use xlink:href="#rim" fill="#404040">
                        <set attributeName="fill" to="#808080" begin="arrowUp.mouseover" end="arrowUp.mouseout"/>
                  </use>
                  <path fill="none" stroke="white" stroke-width="1.5" d="M0,-3.0v7 M-2.5,-0.5L0,-3.0L2.5,-0.5"/>
                </g>
                <g id="arrowRight" xlink:href="#dirArrow" transform="rotate(90) translate(36 -43)" onmousedown="handlePan(1,0)">
                  <use xlink:href="#rim" fill="#404040">
                        <set attributeName="fill" to="#808080" begin="arrowRight.mouseover" end="arrowRight.mouseout"/>
                  </use>
                  <path fill="none" stroke="white" stroke-width="1.5" d="M0,-3.0v7 M-2.5,-0.5L0,-3.0L2.5,-0.5"/>
                </g>
                <g id="arrowDown" xlink:href="#dirArrow" transform="rotate(180) translate(-30 -48)" onmousedown="handlePan(0,1)">
                  <use xlink:href="#rim" fill="#404040">
                        <set attributeName="fill" to="#808080" begin="arrowDown.mouseover" end="arrowDown.mouseout"/>
                  </use>
                  <path fill="none" stroke="white" stroke-width="1.5" d="M0,-3.0v7 M-2.5,-0.5L0,-3.0L2.5,-0.5"/>
                </g>
                <g id="arrowLeft" xlink:href="#dirArrow" transform="rotate(270) translate(-36 17)" onmousedown="handlePan(-1,0)">
                  <use xlink:href="#rim" fill="#404040">
                        <set attributeName="fill" to="#808080" begin="arrowLeft.mouseover" end="arrowLeft.mouseout"/>
                  </use>
                  <path fill="none" stroke="white" stroke-width="1.5" d="M0,-3.0v7 M-2.5,-0.5L0,-3.0L2.5,-0.5"/>
                </g>
        </g>
        <svg viewBox="0 0 15 15" width="100%" height="30px" preserveAspectRatio="xMaxYMin meet">
         <g id="arrow_out" transform="scale(0.3 0.3)">
          <a xlink:href="lin__alg_8h_acf468a60c38fbc58b6de539acb6f0a3b_icgraph_org.svg" target="_base">
           <rect id="button" ry="5" rx="5" y="6" x="6" height="38" width="38"
                fill="#f2f5e9" fill-opacity="0.5" stroke="#606060" stroke-width="1.0"/>
           <path id="arrow"
             d="M 11.500037,31.436501 C 11.940474,20.09759 22.043105,11.32322 32.158766,21.979434 L 37.068811,17.246167 C 37.068811,17.246167 37.088388,32 37.088388,32 L 22.160133,31.978069 C 22.160133,31.978069 26.997745,27.140456 26.997745,27.140456 C 18.528582,18.264221 13.291696,25.230495 11.500037,31.436501 z"
             style="fill:#404040;"/>
          </a>
         </g>
        </svg>
</svg>
