<?xml version="1.0" encoding="UTF-8" standalone="no"?>
<!DOCTYPE svg PUBLIC "-//W3C//DTD SVG 1.1//EN"
 "http://www.w3.org/Graphics/SVG/1.1/DTD/svg11.dtd">
<!-- Generated by graphviz version 2.43.0 (0)
 -->
<!-- Title: vec_ew_prod Pages: 1 -->
<svg width="708pt" height="451pt"
 viewBox="0.00 0.00 708.00 450.50" xmlns="http://www.w3.org/2000/svg" xmlns:xlink="http://www.w3.org/1999/xlink">
<g id="graph0" class="graph" transform="scale(1 1) rotate(0) translate(4 446.5)">
<title>vec_ew_prod</title>
<!-- Node1 -->
<g id="node1" class="node">
<title>Node1</title>
<g id="a_node1"><a xlink:title="Elementwise product, .">
<polygon fill="#999999" stroke="#666666" points="700,-236.5 620,-236.5 620,-217.5 700,-217.5 700,-236.5"/>
<text text-anchor="middle" x="660" y="-224.5" font-family="Helvetica,sans-Serif" font-size="10.00">vec_ew_prod</text>
</a>
</g>
</g>
<!-- Node2 -->
<g id="node2" class="node">
<title>Node2</title>
<g id="a_node2"><a xlink:href="termination_8c.html#af1889ad003b14a004d4560bedde40ce9" target="_top" xlink:title="Calculates the infinity norm of the dual residual and the residual of the subproblem and stores them ...">
<polygon fill="white" stroke="#666666" points="578,-442.5 441,-442.5 441,-423.5 578,-423.5 578,-442.5"/>
<text text-anchor="middle" x="509.5" y="-430.5" font-family="Helvetica,sans-Serif" font-size="10.00">calculate_dual_residuals</text>
</a>
</g>
</g>
<!-- Node1&#45;&gt;Node2 -->
<g id="edge1" class="edge">
<title>Node1&#45;&gt;Node2</title>
<path fill="none" stroke="#63b8ff" d="M656.98,-246.91C651.98,-285.42 635.43,-370.28 584,-415 580.13,-418.36 575.74,-421.12 571.07,-423.37"/>
<polygon fill="#63b8ff" stroke="#63b8ff" points="660.51,-246.87 658.19,-236.54 653.56,-246.06 660.51,-246.87"/>
</g>
<!-- Node7 -->
<g id="node7" class="node">
<title>Node7</title>
<g id="a_node7"><a xlink:href="termination_8c.html#ad746ec6ec47a1240e5e910abfb01fee3" target="_top" xlink:title="Calculates the dual tolerance for the problem and current subproblem and stores them in work&#45;&gt;eps_dua...">
<polygon fill="white" stroke="#666666" points="581,-405.5 438,-405.5 438,-386.5 581,-386.5 581,-405.5"/>
<text text-anchor="middle" x="509.5" y="-393.5" font-family="Helvetica,sans-Serif" font-size="10.00">calculate_dual_tolerances</text>
</a>
</g>
</g>
<!-- Node1&#45;&gt;Node7 -->
<g id="edge6" class="edge">
<title>Node1&#45;&gt;Node7</title>
<path fill="none" stroke="#63b8ff" d="M654.9,-246.56C647.05,-279.02 626.72,-343.8 584,-378 579.79,-381.37 575.05,-384.12 570.05,-386.36"/>
<polygon fill="#63b8ff" stroke="#63b8ff" points="658.38,-247.06 657.17,-236.53 651.55,-245.51 658.38,-247.06"/>
</g>
<!-- Node8 -->
<g id="node8" class="node">
<title>Node8</title>
<g id="a_node8"><a xlink:href="termination_8c.html#afc13c2c286796ec381cdb5c83d9f764f" target="_top" xlink:title="Calculates the infinity norm of the primal residual and stores it in work&#45;&gt;info&#45;&gt;pri_res_norm.">
<polygon fill="white" stroke="#666666" points="580.5,-368.5 438.5,-368.5 438.5,-349.5 580.5,-349.5 580.5,-368.5"/>
<text text-anchor="middle" x="509.5" y="-356.5" font-family="Helvetica,sans-Serif" font-size="10.00">calculate_primal_residual</text>
</a>
</g>
</g>
<!-- Node1&#45;&gt;Node8 -->
<g id="edge8" class="edge">
<title>Node1&#45;&gt;Node8</title>
<path fill="none" stroke="#63b8ff" d="M651.71,-246.11C640.91,-271.75 618.2,-316.87 584,-341 579.17,-344.41 573.77,-347.18 568.14,-349.42"/>
<polygon fill="#63b8ff" stroke="#63b8ff" points="655,-247.31 655.49,-236.72 648.51,-244.69 655,-247.31"/>
</g>
<!-- Node9 -->
<g id="node9" class="node">
<title>Node9</title>
<g id="a_node9"><a xlink:href="termination_8c.html#ac638a8fe12bfee736c6832fa6140c92d" target="_top" xlink:title="Calculates the primal tolerance and stores it in work&#45;&gt;eps_pri.">
<polygon fill="white" stroke="#666666" points="584,-331.5 435,-331.5 435,-312.5 584,-312.5 584,-331.5"/>
<text text-anchor="middle" x="509.5" y="-319.5" font-family="Helvetica,sans-Serif" font-size="10.00">calculate_primal_tolerance</text>
</a>
</g>
</g>
<!-- Node1&#45;&gt;Node9 -->
<g id="edge10" class="edge">
<title>Node1&#45;&gt;Node9</title>
<path fill="none" stroke="#63b8ff" d="M644.41,-244.72C630.41,-260.68 607.92,-283.76 584,-298 573.73,-304.11 561.72,-308.87 550.42,-312.49"/>
<polygon fill="#63b8ff" stroke="#63b8ff" points="647.44,-246.56 651.27,-236.69 642.11,-242.02 647.44,-246.56"/>
</g>
<!-- Node10 -->
<g id="node10" class="node">
<title>Node10</title>
<g id="a_node10"><a xlink:href="iteration_8c.html#ae21af0f956f1ccf8ee41c4cf68698279" target="_top" xlink:title="Compute the residuals (in vector form)">
<polygon fill="white" stroke="#666666" points="387.5,-293.5 278.5,-293.5 278.5,-274.5 387.5,-274.5 387.5,-293.5"/>
<text text-anchor="middle" x="333" y="-281.5" font-family="Helvetica,sans-Serif" font-size="10.00">compute_residuals</text>
</a>
</g>
</g>
<!-- Node1&#45;&gt;Node10 -->
<g id="edge12" class="edge">
<title>Node1&#45;&gt;Node10</title>
<path fill="none" stroke="#63b8ff" d="M635.2,-241.65C620.9,-249.7 602.03,-259.03 584,-264 518.1,-282.17 439,-285.58 387.68,-285.49"/>
<polygon fill="#63b8ff" stroke="#63b8ff" points="637,-244.65 643.89,-236.6 633.48,-238.6 637,-244.65"/>
</g>
<!-- Node11 -->
<g id="node11" class="node">
<title>Node11</title>
<g id="a_node11"><a xlink:href="linesearch_8c.html#a647cabae1574f21e412110765ea1e70d" target="_top" xlink:title="Execute exact linesearch (using qsort)">
<polygon fill="white" stroke="#666666" points="559,-255.5 460,-255.5 460,-236.5 559,-236.5 559,-255.5"/>
<text text-anchor="middle" x="509.5" y="-243.5" font-family="Helvetica,sans-Serif" font-size="10.00">exact_linesearch</text>
</a>
</g>
</g>
<!-- Node1&#45;&gt;Node11 -->
<g id="edge14" class="edge">
<title>Node1&#45;&gt;Node11</title>
<path fill="none" stroke="#63b8ff" d="M610.06,-233.26C593.68,-235.36 575.43,-237.69 559.08,-239.78"/>
<polygon fill="#63b8ff" stroke="#63b8ff" points="610.51,-236.73 619.98,-231.99 609.62,-229.79 610.51,-236.73"/>
</g>
<!-- Node13 -->
<g id="node13" class="node">
<title>Node13</title>
<g id="a_node13"><a xlink:href="termination_8c.html#a8cf01c07469436e7c562c9f3e162fd2b" target="_top" xlink:title="Check whether the problem is dual infeasible.">
<polygon fill="white" stroke="#666666" points="385,-217.5 281,-217.5 281,-198.5 385,-198.5 385,-217.5"/>
<text text-anchor="middle" x="333" y="-205.5" font-family="Helvetica,sans-Serif" font-size="10.00">is_dual_infeasible</text>
</a>
</g>
</g>
<!-- Node1&#45;&gt;Node13 -->
<g id="edge17" class="edge">
<title>Node1&#45;&gt;Node13</title>
<path fill="none" stroke="#63b8ff" d="M609.71,-224.12C549.05,-220.57 446.57,-214.58 385.1,-210.99"/>
<polygon fill="#63b8ff" stroke="#63b8ff" points="609.61,-227.62 619.8,-224.71 610.02,-220.63 609.61,-227.62"/>
</g>
<!-- Node14 -->
<g id="node14" class="node">
<title>Node14</title>
<g id="a_node14"><a xlink:href="termination_8c.html#a4df388b37067a843cbb2c6b244496d9c" target="_top" xlink:title="Check whether the problem is primal infeasible.">
<polygon fill="white" stroke="#666666" points="390.5,-180.5 275.5,-180.5 275.5,-161.5 390.5,-161.5 390.5,-180.5"/>
<text text-anchor="middle" x="333" y="-168.5" font-family="Helvetica,sans-Serif" font-size="10.00">is_primal_infeasible</text>
</a>
</g>
</g>
<!-- Node1&#45;&gt;Node14 -->
<g id="edge19" class="edge">
<title>Node1&#45;&gt;Node14</title>
<path fill="none" stroke="#63b8ff" d="M609.84,-216.13C601.24,-214.34 592.37,-212.56 584,-211 517.89,-198.67 441.5,-186.79 390.74,-179.23"/>
<polygon fill="#63b8ff" stroke="#63b8ff" points="609.26,-219.59 619.76,-218.23 610.7,-212.74 609.26,-219.59"/>
</g>
<!-- Node15 -->
<g id="node15" class="node">
<title>Node15</title>
<g id="a_node15"><a xlink:href="scaling_8c.html#a3735b6c9c3aeeddfb3bb0982ae5f70ba" target="_top" xlink:title="Scale problem matrices.">
<polygon fill="white" stroke="#666666" points="544,-141.5 475,-141.5 475,-122.5 544,-122.5 544,-141.5"/>
<text text-anchor="middle" x="509.5" y="-129.5" font-family="Helvetica,sans-Serif" font-size="10.00">scale_data</text>
</a>
</g>
</g>
<!-- Node1&#45;&gt;Node15 -->
<g id="edge21" class="edge">
<title>Node1&#45;&gt;Node15</title>
<path fill="none" stroke="#63b8ff" d="M644.41,-209.28C630.41,-193.32 607.92,-170.24 584,-156 571.77,-148.72 557.07,-143.36 544.04,-139.57"/>
<polygon fill="#63b8ff" stroke="#63b8ff" points="642.11,-211.98 651.27,-217.31 647.44,-207.44 642.11,-211.98"/>
</g>
<!-- Node16 -->
<g id="node16" class="node">
<title>Node16</title>
<g id="a_node16"><a xlink:href="termination_8c.html#a59f3d4d2ea459665833cc3d5e9265d5e" target="_top" xlink:title="Helper function to store the (unscaled) solution in the solution struct.">
<polygon fill="white" stroke="#666666" points="552.5,-104.5 466.5,-104.5 466.5,-85.5 552.5,-85.5 552.5,-104.5"/>
<text text-anchor="middle" x="509.5" y="-92.5" font-family="Helvetica,sans-Serif" font-size="10.00">store_solution</text>
</a>
</g>
</g>
<!-- Node1&#45;&gt;Node16 -->
<g id="edge22" class="edge">
<title>Node1&#45;&gt;Node16</title>
<path fill="none" stroke="#63b8ff" d="M651.71,-207.89C640.91,-182.25 618.2,-137.13 584,-113 574.88,-106.56 563.71,-102.41 552.86,-99.75"/>
<polygon fill="#63b8ff" stroke="#63b8ff" points="648.51,-209.31 655.49,-217.28 655,-206.69 648.51,-209.31"/>
</g>
<!-- Node17 -->
<g id="node17" class="node">
<title>Node17</title>
<g id="a_node17"><a xlink:href="scaling_8c.html#ade09374cb3567d09382e0bc68df5acba" target="_top" xlink:title="Unscale the problem data.">
<polygon fill="white" stroke="#666666" points="550,-67.5 469,-67.5 469,-48.5 550,-48.5 550,-67.5"/>
<text text-anchor="middle" x="509.5" y="-55.5" font-family="Helvetica,sans-Serif" font-size="10.00">unscale_data</text>
</a>
</g>
</g>
<!-- Node1&#45;&gt;Node17 -->
<g id="edge23" class="edge">
<title>Node1&#45;&gt;Node17</title>
<path fill="none" stroke="#63b8ff" d="M654.9,-207.44C647.05,-174.98 626.72,-110.2 584,-76 574.46,-68.37 562.15,-63.9 550.35,-61.31"/>
<polygon fill="#63b8ff" stroke="#63b8ff" points="651.55,-208.49 657.17,-217.47 658.38,-206.94 651.55,-208.49"/>
</g>
<!-- Node18 -->
<g id="node18" class="node">
<title>Node18</title>
<g id="a_node18"><a xlink:href="iteration_8c.html#a786f2d2af82a141fe3825a3964659d50" target="_top" xlink:title=" ">
<polygon fill="white" stroke="#666666" points="574,-30 445,-30 445,0 574,0 574,-30"/>
<text text-anchor="start" x="453" y="-18" font-family="Helvetica,sans-Serif" font-size="10.00">update_proximal_point</text>
<text text-anchor="middle" x="509.5" y="-7" font-family="Helvetica,sans-Serif" font-size="10.00">_and_penalty</text>
</a>
</g>
</g>
<!-- Node1&#45;&gt;Node18 -->
<g id="edge24" class="edge">
<title>Node1&#45;&gt;Node18</title>
<path fill="none" stroke="#63b8ff" d="M656.6,-206.9C650.98,-168.72 633.47,-85.41 584,-39 580.38,-35.6 576.27,-32.69 571.88,-30.18"/>
<polygon fill="#63b8ff" stroke="#63b8ff" points="653.18,-207.76 657.98,-217.2 660.12,-206.83 653.18,-207.76"/>
</g>
<!-- Node3 -->
<g id="node3" class="node">
<title>Node3</title>
<g id="a_node3"><a xlink:href="termination_8c.html#a50775fd01103420a3cfe7452a8be3874" target="_top" xlink:title="Calls the routines that compute the norm of the residuals and the tolerances.">
<polygon fill="white" stroke="#666666" points="399,-374 267,-374 267,-344 399,-344 399,-374"/>
<text text-anchor="start" x="275" y="-362" font-family="Helvetica,sans-Serif" font-size="10.00">calculate_residual</text>
<text text-anchor="middle" x="333" y="-351" font-family="Helvetica,sans-Serif" font-size="10.00">_norms_and_tolerances</text>
</a>
</g>
</g>
<!-- Node2&#45;&gt;Node3 -->
<g id="edge2" class="edge">
<title>Node2&#45;&gt;Node3</title>
<path fill="none" stroke="#63b8ff" d="M451.25,-420.57C445.7,-418.89 440.2,-417.04 435,-415 407,-404.03 377.13,-386.69 357.2,-374.21"/>
<polygon fill="#63b8ff" stroke="#63b8ff" points="450.69,-424.05 461.26,-423.41 452.59,-417.31 450.69,-424.05"/>
</g>
<!-- Node4 -->
<g id="node4" class="node">
<title>Node4</title>
<g id="a_node4"><a xlink:href="group__solver-grp.html#ga9bbc8b47dfd2e86a81dd77feb4077bde" target="_top" xlink:title="Solve the quadratic program.">
<polygon fill="white" stroke="#666666" points="231,-236.5 152,-236.5 152,-217.5 231,-217.5 231,-236.5"/>
<text text-anchor="middle" x="191.5" y="-224.5" font-family="Helvetica,sans-Serif" font-size="10.00">qpalm_solve</text>
</a>
</g>
</g>
<!-- Node3&#45;&gt;Node4 -->
<g id="edge3" class="edge">
<title>Node3&#45;&gt;Node4</title>
<path fill="none" stroke="#63b8ff" d="M306.13,-337.03C294.07,-326.61 279.62,-313.86 267,-302 242.93,-279.38 215.87,-251.49 201.93,-236.92"/>
<polygon fill="#63b8ff" stroke="#63b8ff" points="304.19,-339.98 314.05,-343.84 308.75,-334.67 304.19,-339.98"/>
</g>
<!-- Node5 -->
<g id="node5" class="node">
<title>Node5</title>
<g id="a_node5"><a xlink:href="qpalm__fortran_8c.html#abec01161fcee665e126347b862c404c4" target="_top" xlink:title=" ">
<polygon fill="white" stroke="#666666" points="106,-255.5 10,-255.5 10,-236.5 106,-236.5 106,-255.5"/>
<text text-anchor="middle" x="58" y="-243.5" font-family="Helvetica,sans-Serif" font-size="10.00">qpalm_fortran_c</text>
</a>
</g>
</g>
<!-- Node4&#45;&gt;Node5 -->
<g id="edge4" class="edge">
<title>Node4&#45;&gt;Node5</title>
<path fill="none" stroke="#63b8ff" d="M141.8,-234.04C130.2,-235.71 117.85,-237.5 106.31,-239.16"/>
<polygon fill="#63b8ff" stroke="#63b8ff" points="142.36,-237.49 151.76,-232.6 141.36,-230.56 142.36,-237.49"/>
</g>
<!-- Node6 -->
<g id="node6" class="node">
<title>Node6</title>
<g id="a_node6"><a xlink:href="classqpalm_1_1Solver.html#a7d723d189a812ffa19d688b7aa38ccca" target="_top" xlink:title="Solve the problem.">
<polygon fill="white" stroke="#666666" points="116,-218.5 0,-218.5 0,-199.5 116,-199.5 116,-218.5"/>
<text text-anchor="middle" x="58" y="-206.5" font-family="Helvetica,sans-Serif" font-size="10.00">qpalm::Solver::solve</text>
</a>
</g>
</g>
<!-- Node4&#45;&gt;Node6 -->
<g id="edge5" class="edge">
<title>Node4&#45;&gt;Node6</title>
<path fill="none" stroke="#63b8ff" d="M141.62,-220.31C133.43,-219.19 124.86,-218.02 116.47,-216.87"/>
<polygon fill="#63b8ff" stroke="#63b8ff" points="141.37,-223.81 151.76,-221.7 142.32,-216.87 141.37,-223.81"/>
</g>
<!-- Node7&#45;&gt;Node3 -->
<g id="edge7" class="edge">
<title>Node7&#45;&gt;Node3</title>
<path fill="none" stroke="#63b8ff" d="M453.64,-384.37C436.36,-380.7 417.11,-376.62 399.18,-372.82"/>
<polygon fill="#63b8ff" stroke="#63b8ff" points="453.05,-387.82 463.56,-386.47 454.51,-380.97 453.05,-387.82"/>
</g>
<!-- Node8&#45;&gt;Node3 -->
<g id="edge9" class="edge">
<title>Node8&#45;&gt;Node3</title>
<path fill="none" stroke="#63b8ff" d="M428.23,-359C418.54,-359 408.72,-359 399.28,-359"/>
<polygon fill="#63b8ff" stroke="#63b8ff" points="428.28,-362.5 438.28,-359 428.28,-355.5 428.28,-362.5"/>
</g>
<!-- Node9&#45;&gt;Node3 -->
<g id="edge11" class="edge">
<title>Node9&#45;&gt;Node3</title>
<path fill="none" stroke="#63b8ff" d="M453.64,-333.63C436.36,-337.3 417.11,-341.38 399.18,-345.18"/>
<polygon fill="#63b8ff" stroke="#63b8ff" points="454.51,-337.03 463.56,-331.53 453.05,-330.18 454.51,-337.03"/>
</g>
<!-- Node10&#45;&gt;Node4 -->
<g id="edge13" class="edge">
<title>Node10&#45;&gt;Node4</title>
<path fill="none" stroke="#63b8ff" d="M287.3,-271.3C280.44,-269.05 273.48,-266.59 267,-264 246.88,-255.97 224.76,-244.65 209.89,-236.65"/>
<polygon fill="#63b8ff" stroke="#63b8ff" points="286.64,-274.76 297.23,-274.44 288.75,-268.09 286.64,-274.76"/>
</g>
<!-- Node12 -->
<g id="node12" class="node">
<title>Node12</title>
<g id="a_node12"><a xlink:href="iteration_8c.html#a9c9fafac9ce099122c5a594762e5a052" target="_top" xlink:title="Update the primal iterate.">
<polygon fill="white" stroke="#666666" points="395.5,-255.5 270.5,-255.5 270.5,-236.5 395.5,-236.5 395.5,-255.5"/>
<text text-anchor="middle" x="333" y="-243.5" font-family="Helvetica,sans-Serif" font-size="10.00">update_primal_iterate</text>
</a>
</g>
</g>
<!-- Node11&#45;&gt;Node12 -->
<g id="edge15" class="edge">
<title>Node11&#45;&gt;Node12</title>
<path fill="none" stroke="#63b8ff" d="M449.87,-246C432.47,-246 413.36,-246 395.76,-246"/>
<polygon fill="#63b8ff" stroke="#63b8ff" points="449.89,-249.5 459.89,-246 449.89,-242.5 449.89,-249.5"/>
</g>
<!-- Node12&#45;&gt;Node4 -->
<g id="edge16" class="edge">
<title>Node12&#45;&gt;Node4</title>
<path fill="none" stroke="#63b8ff" d="M260.4,-236.25C250.38,-234.88 240.41,-233.53 231.32,-232.29"/>
<polygon fill="#63b8ff" stroke="#63b8ff" points="260.03,-239.73 270.41,-237.61 260.97,-232.79 260.03,-239.73"/>
</g>
<!-- Node13&#45;&gt;Node4 -->
<g id="edge18" class="edge">
<title>Node13&#45;&gt;Node4</title>
<path fill="none" stroke="#63b8ff" d="M270.75,-216.34C257.39,-218.16 243.61,-220.04 231.41,-221.7"/>
<polygon fill="#63b8ff" stroke="#63b8ff" points="271.41,-219.78 280.85,-214.97 270.47,-212.85 271.41,-219.78"/>
</g>
<!-- Node14&#45;&gt;Node4 -->
<g id="edge20" class="edge">
<title>Node14&#45;&gt;Node4</title>
<path fill="none" stroke="#63b8ff" d="M282.76,-183.5C277.39,-185.2 272.05,-187.04 267,-189 246.3,-197.05 223.73,-209.05 208.92,-217.41"/>
<polygon fill="#63b8ff" stroke="#63b8ff" points="283.83,-186.83 292.4,-180.6 281.81,-180.13 283.83,-186.83"/>
</g>
<!-- Node19 -->
<g id="node19" class="node">
<title>Node19</title>
<g id="a_node19"><a xlink:href="iteration_8c.html#a1ad7b6cb4924a8de3378ed35890b02e7" target="_top" xlink:title=" ">
<polygon fill="white" stroke="#666666" points="390,-87 276,-87 276,-57 390,-57 390,-87"/>
<text text-anchor="start" x="284" y="-75" font-family="Helvetica,sans-Serif" font-size="10.00">update_dual_iterate</text>
<text text-anchor="middle" x="333" y="-64" font-family="Helvetica,sans-Serif" font-size="10.00">_and_parameters</text>
</a>
</g>
</g>
<!-- Node18&#45;&gt;Node19 -->
<g id="edge25" class="edge">
<title>Node18&#45;&gt;Node19</title>
<path fill="none" stroke="#63b8ff" d="M452.44,-33.31C429.12,-40.93 402.38,-49.66 380.22,-56.9"/>
<polygon fill="#63b8ff" stroke="#63b8ff" points="453.78,-36.56 462.2,-30.13 451.6,-29.9 453.78,-36.56"/>
</g>
<!-- Node19&#45;&gt;Node4 -->
<g id="edge26" class="edge">
<title>Node19&#45;&gt;Node4</title>
<path fill="none" stroke="#63b8ff" d="M311.44,-94.84C280.39,-129.34 222.84,-193.29 201.11,-217.44"/>
<polygon fill="#63b8ff" stroke="#63b8ff" points="314.28,-96.92 318.37,-87.14 309.08,-92.24 314.28,-96.92"/>
</g>
</g>
</svg>
