<?xml version="1.0" encoding="UTF-8" standalone="no"?>
<!DOCTYPE svg PUBLIC "-//W3C//DTD SVG 1.1//EN"
 "http://www.w3.org/Graphics/SVG/1.1/DTD/svg11.dtd">
<!-- Generated by graphviz version 2.43.0 (0)
 -->
<!-- Title: QPALM/interfaces/cxx/src/sparse.cpp Pages: 1 -->
<svg width="914pt" height="203pt"
 viewBox="0.00 0.00 914.00 203.00" xmlns="http://www.w3.org/2000/svg" xmlns:xlink="http://www.w3.org/1999/xlink">
<g id="graph0" class="graph" transform="scale(1 1) rotate(0) translate(4 199)">
<title>QPALM/interfaces/cxx/src/sparse.cpp</title>
<!-- Node1 -->
<g id="node1" class="node">
<title>Node1</title>
<g id="a_node1"><a xlink:title=" ">
<polygon fill="#999999" stroke="#666666" points="637,-195 515,-195 515,-165 637,-165 637,-195"/>
<text text-anchor="start" x="523" y="-183" font-family="Helvetica,sans-Serif" font-size="10.00">QPALM/interfaces/cxx</text>
<text text-anchor="middle" x="576" y="-172" font-family="Helvetica,sans-Serif" font-size="10.00">/src/sparse.cpp</text>
</a>
</g>
</g>
<!-- Node2 -->
<g id="node2" class="node">
<title>Node2</title>
<g id="a_node2"><a xlink:href="sparse_8hpp.html" target="_top" xlink:title=" ">
<polygon fill="white" stroke="#666666" points="515,-129 445,-129 445,-110 515,-110 515,-129"/>
<text text-anchor="middle" x="480" y="-117" font-family="Helvetica,sans-Serif" font-size="10.00">sparse.hpp</text>
</a>
</g>
</g>
<!-- Node1&#45;&gt;Node2 -->
<g id="edge1" class="edge">
<title>Node1&#45;&gt;Node2</title>
<path fill="none" stroke="#63b8ff" d="M552.76,-164.84C537.6,-155.6 517.89,-143.59 502.81,-134.4"/>
<polygon fill="#63b8ff" stroke="#63b8ff" points="504.46,-131.31 494.1,-129.09 500.82,-137.29 504.46,-131.31"/>
</g>
<!-- Node13 -->
<g id="node13" class="node">
<title>Node13</title>
<g id="a_node13"><a xlink:title=" ">
<polygon fill="#e0e0e0" stroke="#999999" points="618.5,-129 533.5,-129 533.5,-110 618.5,-110 618.5,-129"/>
<text text-anchor="middle" x="576" y="-117" font-family="Helvetica,sans-Serif" font-size="10.00">ladel_global.h</text>
</a>
</g>
</g>
<!-- Node1&#45;&gt;Node13 -->
<g id="edge12" class="edge">
<title>Node1&#45;&gt;Node13</title>
<path fill="none" stroke="#63b8ff" d="M576,-164.84C576,-157.21 576,-147.7 576,-139.45"/>
<polygon fill="#63b8ff" stroke="#63b8ff" points="579.5,-139.27 576,-129.27 572.5,-139.27 579.5,-139.27"/>
</g>
<!-- Node14 -->
<g id="node14" class="node">
<title>Node14</title>
<g id="a_node14"><a xlink:title=" ">
<polygon fill="#e0e0e0" stroke="#999999" points="701,-129 637,-129 637,-110 701,-110 701,-129"/>
<text text-anchor="middle" x="669" y="-117" font-family="Helvetica,sans-Serif" font-size="10.00">algorithm</text>
</a>
</g>
</g>
<!-- Node1&#45;&gt;Node14 -->
<g id="edge13" class="edge">
<title>Node1&#45;&gt;Node14</title>
<path fill="none" stroke="#63b8ff" d="M598.51,-164.84C613.06,-155.68 631.93,-143.82 646.49,-134.66"/>
<polygon fill="#63b8ff" stroke="#63b8ff" points="648.74,-137.38 655.34,-129.09 645.01,-131.46 648.74,-137.38"/>
</g>
<!-- Node3 -->
<g id="node3" class="node">
<title>Node3</title>
<g id="a_node3"><a xlink:title=" ">
<polygon fill="#e0e0e0" stroke="#999999" points="80,-74 0,-74 0,-55 80,-55 80,-74"/>
<text text-anchor="middle" x="40" y="-62" font-family="Helvetica,sans-Serif" font-size="10.00">Eigen/Sparse</text>
</a>
</g>
</g>
<!-- Node2&#45;&gt;Node3 -->
<g id="edge2" class="edge">
<title>Node2&#45;&gt;Node3</title>
<path fill="none" stroke="#63b8ff" d="M444.86,-115.2C377.96,-108.76 227.44,-93.55 90.35,-74.12"/>
<polygon fill="#63b8ff" stroke="#63b8ff" points="90.48,-70.6 80.08,-72.65 89.49,-77.53 90.48,-70.6"/>
</g>
<!-- Node4 -->
<g id="node4" class="node">
<title>Node4</title>
<g id="a_node4"><a xlink:title=" ">
<polygon fill="#e0e0e0" stroke="#999999" points="217.5,-74 98.5,-74 98.5,-55 217.5,-55 217.5,-74"/>
<text text-anchor="middle" x="158" y="-62" font-family="Helvetica,sans-Serif" font-size="10.00">Eigen/src/Core/Map.h</text>
</a>
</g>
</g>
<!-- Node2&#45;&gt;Node4 -->
<g id="edge3" class="edge">
<title>Node2&#45;&gt;Node4</title>
<path fill="none" stroke="#63b8ff" d="M444.93,-112.73C390.9,-103.83 286.56,-86.66 219.7,-75.66"/>
<polygon fill="#63b8ff" stroke="#63b8ff" points="220.15,-72.18 209.71,-74.01 219.01,-79.09 220.15,-72.18"/>
</g>
<!-- Node5 -->
<g id="node5" class="node">
<title>Node5</title>
<g id="a_node5"><a xlink:title=" ">
<polygon fill="#e0e0e0" stroke="#999999" points="366,-74 236,-74 236,-55 366,-55 366,-74"/>
<text text-anchor="middle" x="301" y="-62" font-family="Helvetica,sans-Serif" font-size="10.00">Eigen/src/Core/Matrix.h</text>
</a>
</g>
</g>
<!-- Node2&#45;&gt;Node5 -->
<g id="edge4" class="edge">
<title>Node2&#45;&gt;Node5</title>
<path fill="none" stroke="#63b8ff" d="M451.24,-109.98C421.06,-101.05 373.43,-86.94 339.9,-77.02"/>
<polygon fill="#63b8ff" stroke="#63b8ff" points="340.57,-73.57 329.98,-74.08 338.58,-80.28 340.57,-73.57"/>
</g>
<!-- Node6 -->
<g id="node6" class="node">
<title>Node6</title>
<g id="a_node6"><a xlink:href="global__opts_8h.html" target="_top" xlink:title="Custom memory allocation, print and utility functions, and data types for floats and ints.">
<polygon fill="white" stroke="#666666" points="466,-74 384,-74 384,-55 466,-55 466,-74"/>
<text text-anchor="middle" x="425" y="-62" font-family="Helvetica,sans-Serif" font-size="10.00">global_opts.h</text>
</a>
</g>
</g>
<!-- Node2&#45;&gt;Node6 -->
<g id="edge5" class="edge">
<title>Node2&#45;&gt;Node6</title>
<path fill="none" stroke="#63b8ff" d="M470.92,-109.75C462.91,-102.03 451.04,-90.6 441.38,-81.28"/>
<polygon fill="#63b8ff" stroke="#63b8ff" points="443.54,-78.51 433.91,-74.09 438.69,-83.55 443.54,-78.51"/>
</g>
<!-- Node9 -->
<g id="node9" class="node">
<title>Node9</title>
<g id="a_node9"><a xlink:title=" ">
<polygon fill="#e0e0e0" stroke="#999999" points="586,-74 484,-74 484,-55 586,-55 586,-74"/>
<text text-anchor="middle" x="535" y="-62" font-family="Helvetica,sans-Serif" font-size="10.00">ladel_constants.h</text>
</a>
</g>
</g>
<!-- Node2&#45;&gt;Node9 -->
<g id="edge8" class="edge">
<title>Node2&#45;&gt;Node9</title>
<path fill="none" stroke="#63b8ff" d="M489.08,-109.75C497.09,-102.03 508.96,-90.6 518.62,-81.28"/>
<polygon fill="#63b8ff" stroke="#63b8ff" points="521.31,-83.55 526.09,-74.09 516.46,-78.51 521.31,-83.55"/>
</g>
<!-- Node10 -->
<g id="node10" class="node">
<title>Node10</title>
<g id="a_node10"><a xlink:title=" ">
<polygon fill="#e0e0e0" stroke="#999999" points="686,-74 604,-74 604,-55 686,-55 686,-74"/>
<text text-anchor="middle" x="645" y="-62" font-family="Helvetica,sans-Serif" font-size="10.00">ladel_types.h</text>
</a>
</g>
</g>
<!-- Node2&#45;&gt;Node10 -->
<g id="edge9" class="edge">
<title>Node2&#45;&gt;Node10</title>
<path fill="none" stroke="#63b8ff" d="M506.51,-109.98C534.21,-101.09 577.86,-87.07 608.74,-77.15"/>
<polygon fill="#63b8ff" stroke="#63b8ff" points="609.83,-80.47 618.28,-74.08 607.69,-73.81 609.83,-80.47"/>
</g>
<!-- Node11 -->
<g id="node11" class="node">
<title>Node11</title>
<g id="a_node11"><a xlink:title=" ">
<polygon fill="#e0e0e0" stroke="#999999" points="762,-74 704,-74 704,-55 762,-55 762,-74"/>
<text text-anchor="middle" x="733" y="-62" font-family="Helvetica,sans-Serif" font-size="10.00">memory</text>
</a>
</g>
</g>
<!-- Node2&#45;&gt;Node11 -->
<g id="edge10" class="edge">
<title>Node2&#45;&gt;Node11</title>
<path fill="none" stroke="#63b8ff" d="M515.04,-111.43C555.63,-103.19 624.78,-89.05 693.79,-74.23"/>
<polygon fill="#63b8ff" stroke="#63b8ff" points="694.92,-77.57 703.96,-72.04 693.45,-70.73 694.92,-77.57"/>
</g>
<!-- Node12 -->
<g id="node12" class="node">
<title>Node12</title>
<g id="a_node12"><a xlink:href="qpalm__cxx-export_8hpp.html" target="_top" xlink:title=" ">
<polygon fill="white" stroke="#666666" points="906,-74 780,-74 780,-55 906,-55 906,-74"/>
<text text-anchor="middle" x="843" y="-62" font-family="Helvetica,sans-Serif" font-size="10.00">qpalm_cxx&#45;export.hpp</text>
</a>
</g>
</g>
<!-- Node2&#45;&gt;Node12 -->
<g id="edge11" class="edge">
<title>Node2&#45;&gt;Node12</title>
<path fill="none" stroke="#63b8ff" d="M515.35,-111.66C518.61,-111.08 521.86,-110.52 525,-110 608.67,-96.25 705.19,-83.13 769.74,-74.74"/>
<polygon fill="#63b8ff" stroke="#63b8ff" points="770.35,-78.19 779.81,-73.44 769.45,-71.25 770.35,-78.19"/>
</g>
<!-- Node7 -->
<g id="node7" class="node">
<title>Node7</title>
<g id="a_node7"><a xlink:title=" ">
<polygon fill="#e0e0e0" stroke="#999999" points="415,-19 365,-19 365,0 415,0 415,-19"/>
<text text-anchor="middle" x="390" y="-7" font-family="Helvetica,sans-Serif" font-size="10.00">ladel.h</text>
</a>
</g>
</g>
<!-- Node6&#45;&gt;Node7 -->
<g id="edge6" class="edge">
<title>Node6&#45;&gt;Node7</title>
<path fill="none" stroke="#63b8ff" d="M419.22,-54.75C414.38,-47.42 407.32,-36.73 401.36,-27.7"/>
<polygon fill="#63b8ff" stroke="#63b8ff" points="404.1,-25.5 395.67,-19.09 398.26,-29.36 404.1,-25.5"/>
</g>
<!-- Node8 -->
<g id="node8" class="node">
<title>Node8</title>
<g id="a_node8"><a xlink:title=" ">
<polygon fill="#e0e0e0" stroke="#999999" points="484.5,-19 433.5,-19 433.5,0 484.5,0 484.5,-19"/>
<text text-anchor="middle" x="459" y="-7" font-family="Helvetica,sans-Serif" font-size="10.00">math.h</text>
</a>
</g>
</g>
<!-- Node6&#45;&gt;Node8 -->
<g id="edge7" class="edge">
<title>Node6&#45;&gt;Node8</title>
<path fill="none" stroke="#63b8ff" d="M430.61,-54.75C435.32,-47.42 442.17,-36.73 447.97,-27.7"/>
<polygon fill="#63b8ff" stroke="#63b8ff" points="451.04,-29.4 453.49,-19.09 445.14,-25.62 451.04,-29.4"/>
</g>
</g>
</svg>
