<?xml version="1.0" encoding="UTF-8" standalone="no"?>
<!DOCTYPE svg PUBLIC "-//W3C//DTD SVG 1.1//EN"
 "http://www.w3.org/Graphics/SVG/1.1/DTD/svg11.dtd">
<!-- Generated by graphviz version 2.43.0 (0)
 -->
<!-- Title: qpalm::alloc::qpalm_workspace_cleaner::operator() Pages: 1 -->
<svg width="365pt" height="49pt"
 viewBox="0.00 0.00 365.00 49.00" xmlns="http://www.w3.org/2000/svg" xmlns:xlink="http://www.w3.org/1999/xlink">
<g id="graph0" class="graph" transform="scale(1 1) rotate(0) translate(4 45)">
<title>qpalm::alloc::qpalm_workspace_cleaner::operator()</title>
<!-- Node1 -->
<g id="node1" class="node">
<title>Node1</title>
<g id="a_node1"><a xlink:title=" ">
<polygon fill="#999999" stroke="#666666" points="122,-41 0,-41 0,0 122,0 122,-41"/>
<text text-anchor="start" x="8" y="-29" font-family="Helvetica,sans-Serif" font-size="10.00">qpalm::alloc::qpalm</text>
<text text-anchor="start" x="8" y="-18" font-family="Helvetica,sans-Serif" font-size="10.00">_workspace_cleaner::</text>
<text text-anchor="middle" x="61" y="-7" font-family="Helvetica,sans-Serif" font-size="10.00">operator()</text>
</a>
</g>
</g>
<!-- Node2 -->
<g id="node2" class="node">
<title>Node2</title>
<g id="a_node2"><a xlink:href="group__solver-grp.html#ga95ac68ad137ef5e10acdab6819e4bcd9" target="_top" xlink:title="Cleanup the workspace by deallocating memory.">
<polygon fill="white" stroke="#666666" points="249,-30 158,-30 158,-11 249,-11 249,-30"/>
<text text-anchor="middle" x="203.5" y="-18" font-family="Helvetica,sans-Serif" font-size="10.00">qpalm_cleanup</text>
</a>
</g>
</g>
<!-- Node1&#45;&gt;Node2 -->
<g id="edge1" class="edge">
<title>Node1&#45;&gt;Node2</title>
<path fill="none" stroke="#63b8ff" d="M122.4,-20.5C130.77,-20.5 139.32,-20.5 147.58,-20.5"/>
<polygon fill="#63b8ff" stroke="#63b8ff" points="147.85,-24 157.85,-20.5 147.85,-17 147.85,-24"/>
</g>
<!-- Node3 -->
<g id="node3" class="node">
<title>Node3</title>
<g id="a_node3"><a xlink:href="global__opts_8c.html#a057129daf1349d96b074b9dca1994d09" target="_top" xlink:title=" ">
<polygon fill="white" stroke="#666666" points="357,-30 285,-30 285,-11 357,-11 357,-30"/>
<text text-anchor="middle" x="321" y="-18" font-family="Helvetica,sans-Serif" font-size="10.00">qpalm_free</text>
</a>
</g>
</g>
<!-- Node2&#45;&gt;Node3 -->
<g id="edge2" class="edge">
<title>Node2&#45;&gt;Node3</title>
<path fill="none" stroke="#63b8ff" d="M249.16,-20.5C257.55,-20.5 266.33,-20.5 274.75,-20.5"/>
<polygon fill="#63b8ff" stroke="#63b8ff" points="274.77,-24 284.77,-20.5 274.77,-17 274.77,-24"/>
</g>
</g>
</svg>
