<?xml version="1.0" encoding="UTF-8" standalone="no"?>
<!DOCTYPE svg PUBLIC "-//W3C//DTD SVG 1.1//EN"
 "http://www.w3.org/Graphics/SVG/1.1/DTD/svg11.dtd">
<!-- Generated by graphviz version 2.43.0 (0)
 -->
<!-- Title: qpalm_tic Pages: 1 -->
<svg width="425pt" height="284pt"
 viewBox="0.00 0.00 425.00 283.50" xmlns="http://www.w3.org/2000/svg" xmlns:xlink="http://www.w3.org/1999/xlink">
<g id="graph0" class="graph" transform="scale(1 1) rotate(0) translate(4 279.5)">
<title>qpalm_tic</title>
<!-- Node1 -->
<g id="node1" class="node">
<title>Node1</title>
<g id="a_node1"><a xlink:title="Start timer.">
<polygon fill="#999999" stroke="#666666" points="417,-152.5 352,-152.5 352,-133.5 417,-133.5 417,-152.5"/>
<text text-anchor="middle" x="384.5" y="-140.5" font-family="Helvetica,sans-Serif" font-size="10.00">qpalm_tic</text>
</a>
</g>
</g>
<!-- Node2 -->
<g id="node2" class="node">
<title>Node2</title>
<g id="a_node2"><a xlink:href="group__solver-grp.html#gaaff827465b1299909f394de8771baef9" target="_top" xlink:title="Initialize QPALM solver allocating memory.">
<polygon fill="white" stroke="#666666" points="290.5,-275.5 210.5,-275.5 210.5,-256.5 290.5,-256.5 290.5,-275.5"/>
<text text-anchor="middle" x="250.5" y="-263.5" font-family="Helvetica,sans-Serif" font-size="10.00">qpalm_setup</text>
</a>
</g>
</g>
<!-- Node1&#45;&gt;Node2 -->
<g id="edge1" class="edge">
<title>Node1&#45;&gt;Node2</title>
<path fill="none" stroke="#63b8ff" d="M376.24,-162.15C366.26,-185.86 346.07,-225.8 316,-248 308.61,-253.45 299.64,-257.26 290.77,-259.91"/>
<polygon fill="#63b8ff" stroke="#63b8ff" points="379.51,-163.39 379.99,-152.8 373.02,-160.78 379.51,-163.39"/>
</g>
<!-- Node4 -->
<g id="node4" class="node">
<title>Node4</title>
<g id="a_node4"><a xlink:href="group__solver-grp.html#ga9bbc8b47dfd2e86a81dd77feb4077bde" target="_top" xlink:title="Solve the quadratic program.">
<polygon fill="white" stroke="#666666" points="290,-238.5 211,-238.5 211,-219.5 290,-219.5 290,-238.5"/>
<text text-anchor="middle" x="250.5" y="-226.5" font-family="Helvetica,sans-Serif" font-size="10.00">qpalm_solve</text>
</a>
</g>
</g>
<!-- Node1&#45;&gt;Node4 -->
<g id="edge3" class="edge">
<title>Node1&#45;&gt;Node4</title>
<path fill="none" stroke="#63b8ff" d="M366.99,-160.17C354.03,-172.94 335.03,-190.14 316,-202 304.77,-209 291.41,-214.93 279.77,-219.44"/>
<polygon fill="#63b8ff" stroke="#63b8ff" points="369.67,-162.43 374.23,-152.87 364.7,-157.5 369.67,-162.43"/>
</g>
<!-- Node6 -->
<g id="node6" class="node">
<title>Node6</title>
<g id="a_node6"><a xlink:href="group__solver-grp.html#ga385f399d0fb6afaaa0da5f3a114bf922" target="_top" xlink:title="Update the lower and upper bounds.">
<polygon fill="white" stroke="#666666" points="314,-192.5 187,-192.5 187,-173.5 314,-173.5 314,-192.5"/>
<text text-anchor="middle" x="250.5" y="-180.5" font-family="Helvetica,sans-Serif" font-size="10.00">qpalm_update_bounds</text>
</a>
</g>
</g>
<!-- Node1&#45;&gt;Node6 -->
<g id="edge6" class="edge">
<title>Node1&#45;&gt;Node6</title>
<path fill="none" stroke="#63b8ff" d="M342.2,-155.52C323.03,-161.33 300.61,-168.12 282.86,-173.5"/>
<polygon fill="#63b8ff" stroke="#63b8ff" points="343.33,-158.83 351.88,-152.58 341.3,-152.13 343.33,-158.83"/>
</g>
<!-- Node8 -->
<g id="node8" class="node">
<title>Node8</title>
<g id="a_node8"><a xlink:href="group__solver-grp.html#gadc1a41812270a2a9539558e7eec403fe" target="_top" xlink:title="Update the linear part of the cost.">
<polygon fill="white" stroke="#666666" points="299.5,-152.5 201.5,-152.5 201.5,-133.5 299.5,-133.5 299.5,-152.5"/>
<text text-anchor="middle" x="250.5" y="-140.5" font-family="Helvetica,sans-Serif" font-size="10.00">qpalm_update_q</text>
</a>
</g>
</g>
<!-- Node1&#45;&gt;Node8 -->
<g id="edge8" class="edge">
<title>Node1&#45;&gt;Node8</title>
<path fill="none" stroke="#63b8ff" d="M341.56,-143C328.22,-143 313.37,-143 299.63,-143"/>
<polygon fill="#63b8ff" stroke="#63b8ff" points="341.88,-146.5 351.88,-143 341.88,-139.5 341.88,-146.5"/>
</g>
<!-- Node10 -->
<g id="node10" class="node">
<title>Node10</title>
<g id="a_node10"><a xlink:href="group__solver-grp.html#ga327c43b0d2f129fc32e8ef2a47e289af" target="_top" xlink:title="Update the matrix entries of Q and A.">
<polygon fill="white" stroke="#666666" points="306,-115.5 195,-115.5 195,-96.5 306,-96.5 306,-115.5"/>
<text text-anchor="middle" x="250.5" y="-103.5" font-family="Helvetica,sans-Serif" font-size="10.00">qpalm_update_Q_A</text>
</a>
</g>
</g>
<!-- Node1&#45;&gt;Node10 -->
<g id="edge10" class="edge">
<title>Node1&#45;&gt;Node10</title>
<path fill="none" stroke="#63b8ff" d="M342.13,-131.4C323.96,-126.31 302.89,-120.4 285.63,-115.57"/>
<polygon fill="#63b8ff" stroke="#63b8ff" points="341.31,-134.81 351.88,-134.14 343.2,-128.07 341.31,-134.81"/>
</g>
<!-- Node12 -->
<g id="node12" class="node">
<title>Node12</title>
<g id="a_node12"><a xlink:href="group__solver-grp.html#ga581cf986cb484ec5721f76b025eda704" target="_top" xlink:title="Update the settings to the new settings.">
<polygon fill="white" stroke="#666666" points="316,-75.5 185,-75.5 185,-56.5 316,-56.5 316,-75.5"/>
<text text-anchor="middle" x="250.5" y="-63.5" font-family="Helvetica,sans-Serif" font-size="10.00">qpalm_update_settings</text>
</a>
</g>
</g>
<!-- Node1&#45;&gt;Node12 -->
<g id="edge12" class="edge">
<title>Node1&#45;&gt;Node12</title>
<path fill="none" stroke="#63b8ff" d="M366.55,-126.3C353.6,-114.29 334.83,-98.44 316,-88 307,-83.01 296.66,-78.87 286.95,-75.58"/>
<polygon fill="#63b8ff" stroke="#63b8ff" points="364.15,-128.84 373.81,-133.19 368.97,-123.77 364.15,-128.84"/>
</g>
<!-- Node14 -->
<g id="node14" class="node">
<title>Node14</title>
<g id="a_node14"><a xlink:href="group__solver-grp.html#ga28824f01d01f181a6ad6b413f30a2609" target="_top" xlink:title="Warm start workspace variables x, x_0, x_prev, Ax, Qx, y and sigma.">
<polygon fill="white" stroke="#666666" points="304.5,-30.5 196.5,-30.5 196.5,-11.5 304.5,-11.5 304.5,-30.5"/>
<text text-anchor="middle" x="250.5" y="-18.5" font-family="Helvetica,sans-Serif" font-size="10.00">qpalm_warm_start</text>
</a>
</g>
</g>
<!-- Node1&#45;&gt;Node14 -->
<g id="edge14" class="edge">
<title>Node1&#45;&gt;Node14</title>
<path fill="none" stroke="#63b8ff" d="M374.63,-124.44C363.59,-103.11 342.87,-68.31 316,-47 307.11,-39.95 296.05,-34.57 285.62,-30.59"/>
<polygon fill="#63b8ff" stroke="#63b8ff" points="371.53,-126.07 379.13,-133.45 377.79,-122.94 371.53,-126.07"/>
</g>
<!-- Node3 -->
<g id="node3" class="node">
<title>Node3</title>
<g id="a_node3"><a xlink:href="qpalm__fortran_8c.html#abec01161fcee665e126347b862c404c4" target="_top" xlink:title=" ">
<polygon fill="white" stroke="#666666" points="122.5,-275.5 26.5,-275.5 26.5,-256.5 122.5,-256.5 122.5,-275.5"/>
<text text-anchor="middle" x="74.5" y="-263.5" font-family="Helvetica,sans-Serif" font-size="10.00">qpalm_fortran_c</text>
</a>
</g>
</g>
<!-- Node2&#45;&gt;Node3 -->
<g id="edge2" class="edge">
<title>Node2&#45;&gt;Node3</title>
<path fill="none" stroke="#63b8ff" d="M200.36,-266C176.05,-266 146.83,-266 122.78,-266"/>
<polygon fill="#63b8ff" stroke="#63b8ff" points="200.45,-269.5 210.45,-266 200.45,-262.5 200.45,-269.5"/>
</g>
<!-- Node4&#45;&gt;Node3 -->
<g id="edge4" class="edge">
<title>Node4&#45;&gt;Node3</title>
<path fill="none" stroke="#63b8ff" d="M200.81,-239.35C175.63,-244.71 145.09,-251.2 120.47,-256.44"/>
<polygon fill="#63b8ff" stroke="#63b8ff" points="201.83,-242.71 210.88,-237.21 200.37,-235.87 201.83,-242.71"/>
</g>
<!-- Node5 -->
<g id="node5" class="node">
<title>Node5</title>
<g id="a_node5"><a xlink:href="classqpalm_1_1Solver.html#a7d723d189a812ffa19d688b7aa38ccca" target="_top" xlink:title="Solve the problem.">
<polygon fill="white" stroke="#666666" points="132.5,-238.5 16.5,-238.5 16.5,-219.5 132.5,-219.5 132.5,-238.5"/>
<text text-anchor="middle" x="74.5" y="-226.5" font-family="Helvetica,sans-Serif" font-size="10.00">qpalm::Solver::solve</text>
</a>
</g>
</g>
<!-- Node4&#45;&gt;Node5 -->
<g id="edge5" class="edge">
<title>Node4&#45;&gt;Node5</title>
<path fill="none" stroke="#63b8ff" d="M200.81,-229C179.59,-229 154.59,-229 132.51,-229"/>
<polygon fill="#63b8ff" stroke="#63b8ff" points="200.88,-232.5 210.88,-229 200.88,-225.5 200.88,-232.5"/>
</g>
<!-- Node7 -->
<g id="node7" class="node">
<title>Node7</title>
<g id="a_node7"><a xlink:href="classqpalm_1_1Solver.html#a6df33bfd68c5b8caaaa6f726f1a9f517" target="_top" xlink:title=" ">
<polygon fill="white" stroke="#666666" points="136.5,-201 12.5,-201 12.5,-171 136.5,-171 136.5,-201"/>
<text text-anchor="start" x="20.5" y="-189" font-family="Helvetica,sans-Serif" font-size="10.00">qpalm::Solver::update</text>
<text text-anchor="middle" x="74.5" y="-178" font-family="Helvetica,sans-Serif" font-size="10.00">_bounds</text>
</a>
</g>
</g>
<!-- Node6&#45;&gt;Node7 -->
<g id="edge7" class="edge">
<title>Node6&#45;&gt;Node7</title>
<path fill="none" stroke="#63b8ff" d="M176.65,-184.26C163.38,-184.48 149.66,-184.72 136.77,-184.94"/>
<polygon fill="#63b8ff" stroke="#63b8ff" points="176.74,-187.76 186.68,-184.08 176.62,-180.76 176.74,-187.76"/>
</g>
<!-- Node9 -->
<g id="node9" class="node">
<title>Node9</title>
<g id="a_node9"><a xlink:href="classqpalm_1_1Solver.html#a43cbe4e495be0898c733d9589531e63c" target="_top" xlink:title=" ">
<polygon fill="white" stroke="#666666" points="142,-152.5 7,-152.5 7,-133.5 142,-133.5 142,-152.5"/>
<text text-anchor="middle" x="74.5" y="-140.5" font-family="Helvetica,sans-Serif" font-size="10.00">qpalm::Solver::update_q</text>
</a>
</g>
</g>
<!-- Node8&#45;&gt;Node9 -->
<g id="edge9" class="edge">
<title>Node8&#45;&gt;Node9</title>
<path fill="none" stroke="#63b8ff" d="M191.37,-143C175.61,-143 158.43,-143 142.23,-143"/>
<polygon fill="#63b8ff" stroke="#63b8ff" points="191.49,-146.5 201.49,-143 191.49,-139.5 191.49,-146.5"/>
</g>
<!-- Node11 -->
<g id="node11" class="node">
<title>Node11</title>
<g id="a_node11"><a xlink:href="classqpalm_1_1Solver.html#a11e9742322ad77345b32d806b8b3b81c" target="_top" xlink:title=" ">
<polygon fill="white" stroke="#666666" points="149,-115.5 0,-115.5 0,-96.5 149,-96.5 149,-115.5"/>
<text text-anchor="middle" x="74.5" y="-103.5" font-family="Helvetica,sans-Serif" font-size="10.00">qpalm::Solver::update_Q_A</text>
</a>
</g>
</g>
<!-- Node10&#45;&gt;Node11 -->
<g id="edge11" class="edge">
<title>Node10&#45;&gt;Node11</title>
<path fill="none" stroke="#63b8ff" d="M184.84,-106C173.17,-106 160.92,-106 149.02,-106"/>
<polygon fill="#63b8ff" stroke="#63b8ff" points="184.92,-109.5 194.92,-106 184.92,-102.5 184.92,-109.5"/>
</g>
<!-- Node13 -->
<g id="node13" class="node">
<title>Node13</title>
<g id="a_node13"><a xlink:href="classqpalm_1_1Solver.html#a895c0635d6fdd0a3026894697ea6903b" target="_top" xlink:title=" ">
<polygon fill="white" stroke="#666666" points="136.5,-78 12.5,-78 12.5,-48 136.5,-48 136.5,-78"/>
<text text-anchor="start" x="20.5" y="-66" font-family="Helvetica,sans-Serif" font-size="10.00">qpalm::Solver::update</text>
<text text-anchor="middle" x="74.5" y="-55" font-family="Helvetica,sans-Serif" font-size="10.00">_settings</text>
</a>
</g>
</g>
<!-- Node12&#45;&gt;Node13 -->
<g id="edge13" class="edge">
<title>Node12&#45;&gt;Node13</title>
<path fill="none" stroke="#63b8ff" d="M174.62,-64.71C161.93,-64.49 148.88,-64.27 136.6,-64.05"/>
<polygon fill="#63b8ff" stroke="#63b8ff" points="174.65,-68.21 184.71,-64.88 174.77,-61.21 174.65,-68.21"/>
</g>
<!-- Node15 -->
<g id="node15" class="node">
<title>Node15</title>
<g id="a_node15"><a xlink:href="classqpalm_1_1Solver.html#a693af99e39a9035bbbc4fb61fcb427d1" target="_top" xlink:title=" ">
<polygon fill="white" stroke="#666666" points="133.5,-30 15.5,-30 15.5,0 133.5,0 133.5,-30"/>
<text text-anchor="start" x="23.5" y="-18" font-family="Helvetica,sans-Serif" font-size="10.00">qpalm::Solver::warm</text>
<text text-anchor="middle" x="74.5" y="-7" font-family="Helvetica,sans-Serif" font-size="10.00">_start</text>
</a>
</g>
</g>
<!-- Node14&#45;&gt;Node15 -->
<g id="edge15" class="edge">
<title>Node14&#45;&gt;Node15</title>
<path fill="none" stroke="#63b8ff" d="M185.93,-18.81C168.88,-18.22 150.53,-17.59 133.78,-17.01"/>
<polygon fill="#63b8ff" stroke="#63b8ff" points="186.23,-22.32 196.35,-19.17 186.48,-15.32 186.23,-22.32"/>
</g>
</g>
</svg>
