<?xml version="1.0" encoding="UTF-8" standalone="no"?>
<!DOCTYPE svg PUBLIC "-//W3C//DTD SVG 1.1//EN"
 "http://www.w3.org/Graphics/SVG/1.1/DTD/svg11.dtd">
<!-- Generated by graphviz version 2.43.0 (0)
 -->
<!-- Title: update_primal_iterate Pages: 1 -->
<svg width="607pt" height="1167pt"
 viewBox="0.00 0.00 607.00 1166.76" xmlns="http://www.w3.org/2000/svg" xmlns:xlink="http://www.w3.org/1999/xlink">
<g id="graph0" class="graph" transform="scale(1 1) rotate(0) translate(4 1162.76)">
<title>update_primal_iterate</title>
<!-- Node1 -->
<g id="Node000001" class="node">
<title>Node1</title>
<g id="a_Node000001"><a xlink:title="Update the primal iterate.">
<polygon fill="#999999" stroke="#666666" points="125,-748 0,-748 0,-729 125,-729 125,-748"/>
<text text-anchor="middle" x="62.5" y="-736" font-family="Helvetica,sans-Serif" font-size="10.00">update_primal_iterate</text>
</a>
</g>
</g>
<!-- Node2 -->
<g id="Node000002" class="node">
<title>Node2</title>
<g id="a_Node000002"><a xlink:href="linesearch_8c.html#a647cabae1574f21e412110765ea1e70d" target="_top" xlink:title="Execute exact linesearch (using qsort)">
<polygon fill="white" stroke="#666666" points="271,-916 172,-916 172,-897 271,-897 271,-916"/>
<text text-anchor="middle" x="221.5" y="-904" font-family="Helvetica,sans-Serif" font-size="10.00">exact_linesearch</text>
</a>
</g>
</g>
<!-- Node1&#45;&gt;Node2 -->
<g id="edge1_Node000001_Node000002" class="edge">
<title>Node1&#45;&gt;Node2</title>
<g id="a_edge1_Node000001_Node000002"><a xlink:title=" ">
<path fill="none" stroke="#63b8ff" d="M72.39,-748.01C97.85,-775.26 171.33,-853.88 204.23,-889.09"/>
<polygon fill="#63b8ff" stroke="#63b8ff" points="201.93,-891.76 211.32,-896.67 207.04,-886.98 201.93,-891.76"/>
</a>
</g>
</g>
<!-- Node5 -->
<g id="Node000005" class="node">
<title>Node5</title>
<g id="a_Node000005"><a xlink:href="lin__alg_8c.html#acf468a60c38fbc58b6de539acb6f0a3b" target="_top" xlink:title="Copy vector a into preallocated vector b.">
<polygon fill="white" stroke="#666666" points="584,-710 495,-710 495,-691 584,-691 584,-710"/>
<text text-anchor="middle" x="539.5" y="-698" font-family="Helvetica,sans-Serif" font-size="10.00">prea_vec_copy</text>
</a>
</g>
</g>
<!-- Node1&#45;&gt;Node5 -->
<g id="edge39_Node000001_Node000005" class="edge">
<title>Node1&#45;&gt;Node5</title>
<g id="a_edge39_Node000001_Node000005"><a xlink:title=" ">
<path fill="none" stroke="#63b8ff" d="M67.08,-748.35C94.09,-821.37 269.74,-1271.69 444,-1131.5 509.71,-1078.63 532.3,-797.84 537.33,-720.33"/>
<polygon fill="#63b8ff" stroke="#63b8ff" points="540.84,-720.26 537.97,-710.06 533.85,-719.82 540.84,-720.26"/>
</a>
</g>
</g>
<!-- Node7 -->
<g id="Node000007" class="node">
<title>Node7</title>
<g id="a_Node000007"><a xlink:href="lin__alg_8c.html#a0fde1aeeea954e43db160ec6e3697cd5" target="_top" xlink:title="Scaled addition of one vector to another vector, .">
<polygon fill="white" stroke="#666666" points="428,-748 334,-748 334,-729 428,-729 428,-748"/>
<text text-anchor="middle" x="381" y="-736" font-family="Helvetica,sans-Serif" font-size="10.00">vec_add_scaled</text>
</a>
</g>
</g>
<!-- Node1&#45;&gt;Node7 -->
<g id="edge40_Node000001_Node000007" class="edge">
<title>Node1&#45;&gt;Node7</title>
<g id="a_edge40_Node000001_Node000007"><a xlink:title=" ">
<path fill="none" stroke="#63b8ff" d="M125.28,-738.5C182.86,-738.5 267.99,-738.5 323.73,-738.5"/>
<polygon fill="#63b8ff" stroke="#63b8ff" points="323.78,-742 333.78,-738.5 323.78,-735 323.78,-742"/>
</a>
</g>
</g>
<!-- Node13 -->
<g id="Node000013" class="node">
<title>Node13</title>
<g id="a_Node000013"><a xlink:href="lin__alg_8c.html#a932b289ad07aea70e64b417ef9160674" target="_top" xlink:title="Mulitply vector with a constant scale factor.">
<polygon fill="white" stroke="#666666" points="599,-248 480,-248 480,-229 599,-229 599,-248"/>
<text text-anchor="middle" x="539.5" y="-236" font-family="Helvetica,sans-Serif" font-size="10.00">vec_self_mult_scalar</text>
</a>
</g>
</g>
<!-- Node1&#45;&gt;Node13 -->
<g id="edge41_Node000001_Node000013" class="edge">
<title>Node1&#45;&gt;Node13</title>
<g id="a_edge41_Node000001_Node000013"><a xlink:title=" ">
<path fill="none" stroke="#63b8ff" d="M63.41,-728.92C63.33,-659.16 72.9,-227.36 318,-66.5 364.82,-35.77 395.8,-37.99 444,-66.5 458.8,-75.25 509,-177.1 529.58,-219.82"/>
<polygon fill="#63b8ff" stroke="#63b8ff" points="526.45,-221.38 533.93,-228.88 532.76,-218.35 526.45,-221.38"/>
</a>
</g>
</g>
<!-- Node14 -->
<g id="Node000014" class="node">
<title>Node14</title>
<g id="a_Node000014"><a xlink:href="newton_8c.html#af1654e5597faac8b0ade25acf1fc1bc9" target="_top" xlink:title="Sets work&#45;&gt;d to the direction calculated by the semismooth Newton method.">
<polygon fill="white" stroke="#666666" points="282,-456 161,-456 161,-437 282,-437 282,-456"/>
<text text-anchor="middle" x="221.5" y="-444" font-family="Helvetica,sans-Serif" font-size="10.00">newton_set_direction</text>
</a>
</g>
</g>
<!-- Node1&#45;&gt;Node14 -->
<g id="edge13_Node000001_Node000014" class="edge">
<title>Node1&#45;&gt;Node14</title>
<g id="a_edge13_Node000001_Node000014"><a xlink:title=" ">
<path fill="none" stroke="#63b8ff" d="M68.72,-728.78C91.26,-686.87 180.38,-521.11 210.5,-465.1"/>
<polygon fill="#63b8ff" stroke="#63b8ff" points="213.6,-466.72 215.26,-456.25 207.44,-463.4 213.6,-466.72"/>
</a>
</g>
</g>
<!-- Node3 -->
<g id="Node000003" class="node">
<title>Node3</title>
<g id="a_Node000003"><a xlink:href="linesearch_8c.html#ac70138609ef6aa6fabca57aca8681e83" target="_top" xlink:title="Helper function for qsort.">
<polygon fill="white" stroke="#666666" points="410.5,-1009 351.5,-1009 351.5,-990 410.5,-990 410.5,-1009"/>
<text text-anchor="middle" x="381" y="-997" font-family="Helvetica,sans-Serif" font-size="10.00">compare</text>
</a>
</g>
</g>
<!-- Node2&#45;&gt;Node3 -->
<g id="edge2_Node000002_Node000003" class="edge">
<title>Node2&#45;&gt;Node3</title>
<g id="a_edge2_Node000002_Node000003"><a xlink:title=" ">
<path fill="none" stroke="#63b8ff" d="M232.19,-916.24C248.51,-932.12 283.11,-963.6 318,-981.5 325.37,-985.28 333.66,-988.38 341.72,-990.88"/>
<polygon fill="#63b8ff" stroke="#63b8ff" points="340.78,-994.25 351.35,-993.63 342.7,-987.52 340.78,-994.25"/>
</a>
</g>
</g>
<!-- Node4 -->
<g id="Node000004" class="node">
<title>Node4</title>
<g id="a_Node000004"><a xlink:href="solver__interface_8c.html#a4824fb035d8cdb8ba46e4ac5c4049d5d" target="_top" xlink:title="Matrix&#45;vector multiplication.">
<polygon fill="white" stroke="#666666" points="410.5,-785 351.5,-785 351.5,-766 410.5,-766 410.5,-785"/>
<text text-anchor="middle" x="381" y="-773" font-family="Helvetica,sans-Serif" font-size="10.00">mat_vec</text>
</a>
</g>
</g>
<!-- Node2&#45;&gt;Node4 -->
<g id="edge3_Node000002_Node000004" class="edge">
<title>Node2&#45;&gt;Node4</title>
<g id="a_edge3_Node000002_Node000004"><a xlink:title=" ">
<path fill="none" stroke="#63b8ff" d="M228.74,-896.83C242.51,-876.23 277.47,-827.57 318,-799.5 325.23,-794.49 333.65,-790.34 341.91,-786.98"/>
<polygon fill="#63b8ff" stroke="#63b8ff" points="343.32,-790.19 351.45,-783.39 340.85,-783.63 343.32,-790.19"/>
</a>
</g>
</g>
<!-- Node2&#45;&gt;Node5 -->
<g id="edge4_Node000002_Node000005" class="edge">
<title>Node2&#45;&gt;Node5</title>
<g id="a_edge4_Node000002_Node000005"><a xlink:title=" ">
<path fill="none" stroke="#63b8ff" d="M227.03,-916.12C238.45,-939.07 270.9,-996.76 318,-1018.5 368.85,-1041.97 399.12,-1051.99 444,-1018.5 493.43,-981.62 526.29,-783.93 535.71,-720.27"/>
<polygon fill="#63b8ff" stroke="#63b8ff" points="539.18,-720.71 537.15,-710.31 532.26,-719.71 539.18,-720.71"/>
</a>
</g>
</g>
<!-- Node6 -->
<g id="Node000006" class="node">
<title>Node6</title>
<g id="a_Node000006"><a xlink:href="linesearch_8c.html#a33a2554aa831be51296f2dafedd076d4" target="_top" xlink:title="Select subsequence based on a set of indices, .">
<polygon fill="white" stroke="#666666" points="438.5,-935 323.5,-935 323.5,-916 438.5,-916 438.5,-935"/>
<text text-anchor="middle" x="381" y="-923" font-family="Helvetica,sans-Serif" font-size="10.00">select_subsequence</text>
</a>
</g>
</g>
<!-- Node2&#45;&gt;Node6 -->
<g id="edge5_Node000002_Node000006" class="edge">
<title>Node2&#45;&gt;Node6</title>
<g id="a_edge5_Node000002_Node000006"><a xlink:title=" ">
<path fill="none" stroke="#63b8ff" d="M271.04,-912.36C284.35,-913.96 299.02,-915.73 313.16,-917.44"/>
<polygon fill="#63b8ff" stroke="#63b8ff" points="312.99,-920.94 323.34,-918.66 313.83,-913.99 312.99,-920.94"/>
</a>
</g>
</g>
<!-- Node2&#45;&gt;Node7 -->
<g id="edge6_Node000002_Node000007" class="edge">
<title>Node2&#45;&gt;Node7</title>
<g id="a_edge6_Node000002_Node000007"><a xlink:title=" ">
<path fill="none" stroke="#63b8ff" d="M225.94,-896.82C235.86,-870.35 267.09,-796.13 318,-757.5 320.48,-755.62 323.14,-753.93 325.92,-752.4"/>
<polygon fill="#63b8ff" stroke="#63b8ff" points="327.57,-755.49 335.12,-748.06 324.58,-749.16 327.57,-755.49"/>
</a>
</g>
</g>
<!-- Node8 -->
<g id="Node000008" class="node">
<title>Node8</title>
<g id="a_Node000008"><a xlink:href="linesearch_8c.html#a21cd94f0684dd9e1bfe7236260e9e8d5" target="_top" xlink:title="Helper function to copy vector a in array b (with indices)">
<polygon fill="white" stroke="#666666" points="427.5,-898 334.5,-898 334.5,-879 427.5,-879 427.5,-898"/>
<text text-anchor="middle" x="381" y="-886" font-family="Helvetica,sans-Serif" font-size="10.00">vec_array_copy</text>
</a>
</g>
</g>
<!-- Node2&#45;&gt;Node8 -->
<g id="edge7_Node000002_Node000008" class="edge">
<title>Node2&#45;&gt;Node8</title>
<g id="a_edge7_Node000002_Node000008"><a xlink:title=" ">
<path fill="none" stroke="#63b8ff" d="M271.04,-900.95C287.89,-899.03 306.91,-896.85 324.29,-894.87"/>
<polygon fill="#63b8ff" stroke="#63b8ff" points="324.77,-898.33 334.31,-893.72 323.98,-891.38 324.77,-898.33"/>
</a>
</g>
</g>
<!-- Node9 -->
<g id="Node000009" class="node">
<title>Node9</title>
<g id="a_Node000009"><a xlink:href="lin__alg_8c.html#a7b3d3b23f9254b8dc1bf53823ef42b42" target="_top" xlink:title="Elementwise division, .">
<polygon fill="white" stroke="#666666" points="418,-861 344,-861 344,-842 418,-842 418,-861"/>
<text text-anchor="middle" x="381" y="-849" font-family="Helvetica,sans-Serif" font-size="10.00">vec_ew_div</text>
</a>
</g>
</g>
<!-- Node2&#45;&gt;Node9 -->
<g id="edge8_Node000002_Node000009" class="edge">
<title>Node2&#45;&gt;Node9</title>
<g id="a_edge8_Node000002_Node000009"><a xlink:title=" ">
<path fill="none" stroke="#63b8ff" d="M246.68,-896.9C265.9,-889.39 293.52,-878.86 318,-870.5 324.37,-868.33 331.15,-866.13 337.79,-864.04"/>
<polygon fill="#63b8ff" stroke="#63b8ff" points="338.86,-867.38 347.38,-861.08 336.79,-860.69 338.86,-867.38"/>
</a>
</g>
</g>
<!-- Node10 -->
<g id="Node000010" class="node">
<title>Node10</title>
<g id="a_Node000010"><a xlink:href="lin__alg_8c.html#ab48ddb2d35dd1a04bd27f06cb49400cb" target="_top" xlink:title="Elementwise product, .">
<polygon fill="white" stroke="#666666" points="421,-1122 341,-1122 341,-1103 421,-1103 421,-1122"/>
<text text-anchor="middle" x="381" y="-1110" font-family="Helvetica,sans-Serif" font-size="10.00">vec_ew_prod</text>
</a>
</g>
</g>
<!-- Node2&#45;&gt;Node10 -->
<g id="edge9_Node000002_Node000010" class="edge">
<title>Node2&#45;&gt;Node10</title>
<g id="a_edge9_Node000002_Node000010"><a xlink:title=" ">
<path fill="none" stroke="#63b8ff" d="M224.59,-916.42C231.71,-947.64 257.94,-1044.76 318,-1094.5 322,-1097.81 326.58,-1100.51 331.4,-1102.72"/>
<polygon fill="#63b8ff" stroke="#63b8ff" points="330.29,-1106.04 340.88,-1106.38 332.81,-1099.51 330.29,-1106.04"/>
</a>
</g>
</g>
<!-- Node11 -->
<g id="Node000011" class="node">
<title>Node11</title>
<g id="a_Node000011"><a xlink:href="lin__alg_8c.html#ab83e787c2e0edb5803a860b1c894f53d" target="_top" xlink:title="Inner product between two vectors, .">
<polygon fill="white" stroke="#666666" points="411.5,-1085 350.5,-1085 350.5,-1066 411.5,-1066 411.5,-1085"/>
<text text-anchor="middle" x="381" y="-1073" font-family="Helvetica,sans-Serif" font-size="10.00">vec_prod</text>
</a>
</g>
</g>
<!-- Node2&#45;&gt;Node11 -->
<g id="edge10_Node000002_Node000011" class="edge">
<title>Node2&#45;&gt;Node11</title>
<g id="a_edge10_Node000002_Node000011"><a xlink:title=" ">
<path fill="none" stroke="#63b8ff" d="M226.32,-916.1C236.97,-941.7 269.44,-1012.32 318,-1051.5 324.71,-1056.92 332.79,-1061.22 340.87,-1064.59"/>
<polygon fill="#63b8ff" stroke="#63b8ff" points="339.67,-1067.88 350.26,-1068.14 342.14,-1061.33 339.67,-1067.88"/>
</a>
</g>
</g>
<!-- Node12 -->
<g id="Node000012" class="node">
<title>Node12</title>
<g id="a_Node000012"><a xlink:href="linesearch_8c.html#ac4bdfc80a644d8c75a672963c7682af9" target="_top" xlink:title="Inner product over index set, .">
<polygon fill="white" stroke="#666666" points="421.5,-972 340.5,-972 340.5,-953 421.5,-953 421.5,-972"/>
<text text-anchor="middle" x="381" y="-960" font-family="Helvetica,sans-Serif" font-size="10.00">vec_prod_ind</text>
</a>
</g>
</g>
<!-- Node2&#45;&gt;Node12 -->
<g id="edge11_Node000002_Node000012" class="edge">
<title>Node2&#45;&gt;Node12</title>
<g id="a_edge11_Node000002_Node000012"><a xlink:title=" ">
<path fill="none" stroke="#63b8ff" d="M244.66,-916.02C263.87,-924.1 292.51,-935.75 318,-944.5 323.57,-946.41 329.46,-948.3 335.31,-950.09"/>
<polygon fill="#63b8ff" stroke="#63b8ff" points="334.47,-953.49 345.06,-952.99 336.47,-946.78 334.47,-953.49"/>
</a>
</g>
</g>
<!-- Node2&#45;&gt;Node13 -->
<g id="edge12_Node000002_Node000013" class="edge">
<title>Node2&#45;&gt;Node13</title>
<g id="a_edge12_Node000002_Node000013"><a xlink:title=" ">
<path fill="none" stroke="#63b8ff" d="M232.55,-896.85C249.1,-881.44 283.69,-851.21 318,-833.5 370.09,-806.62 407.65,-840.49 444,-794.5 518.16,-700.66 406.5,-351.85 480,-257.5 480.94,-256.29 481.97,-255.15 483.05,-254.09"/>
<polygon fill="#63b8ff" stroke="#63b8ff" points="485.19,-256.86 491.08,-248.06 480.99,-251.27 485.19,-256.86"/>
</a>
</g>
</g>
<!-- Node14&#45;&gt;Node4 -->
<g id="edge28_Node000014_Node000004" class="edge">
<title>Node14&#45;&gt;Node4</title>
<g id="a_edge28_Node000014_Node000004"><a xlink:title=" ">
<path fill="none" stroke="#63b8ff" d="M222.38,-456.27C222.4,-498.73 228.26,-669.12 318,-757.5 324.44,-763.84 332.98,-767.98 341.65,-770.66"/>
<polygon fill="#63b8ff" stroke="#63b8ff" points="340.84,-774.07 351.39,-773.12 342.55,-767.28 340.84,-774.07"/>
</a>
</g>
</g>
<!-- Node14&#45;&gt;Node5 -->
<g id="edge30_Node000014_Node000005" class="edge">
<title>Node14&#45;&gt;Node5</title>
<g id="a_edge30_Node000014_Node000005"><a xlink:title=" ">
<path fill="none" stroke="#63b8ff" d="M223.04,-456.22C225.67,-492.98 240.38,-624.26 318,-681.5 365.93,-716.84 436.63,-716.36 484.98,-710.47"/>
<polygon fill="#63b8ff" stroke="#63b8ff" points="485.49,-713.93 494.94,-709.14 484.56,-706.99 485.49,-713.93"/>
</a>
</g>
</g>
<!-- Node14&#45;&gt;Node7 -->
<g id="edge35_Node000014_Node000007" class="edge">
<title>Node14&#45;&gt;Node7</title>
<g id="a_edge35_Node000014_Node000007"><a xlink:title=" ">
<path fill="none" stroke="#63b8ff" d="M223.12,-456.03C226.08,-494.03 242.03,-636.45 318,-714.5 321.82,-718.43 326.36,-721.73 331.22,-724.49"/>
<polygon fill="#63b8ff" stroke="#63b8ff" points="329.7,-727.64 340.22,-728.91 332.79,-721.36 329.7,-727.64"/>
</a>
</g>
</g>
<!-- Node14&#45;&gt;Node13 -->
<g id="edge38_Node000014_Node000013" class="edge">
<title>Node14&#45;&gt;Node13</title>
<g id="a_edge38_Node000014_Node000013"><a xlink:title=" ">
<path fill="none" stroke="#63b8ff" d="M223.44,-436.79C227.37,-402.39 245.77,-285.96 318,-239.5 372.14,-204.68 450.3,-215.17 497.56,-226.47"/>
<polygon fill="#63b8ff" stroke="#63b8ff" points="496.89,-229.91 507.44,-228.96 498.6,-223.13 496.89,-229.91"/>
</a>
</g>
</g>
<!-- Node15 -->
<g id="Node000015" class="node">
<title>Node15</title>
<g id="a_Node000015"><a xlink:href="solver__interface_8c.html#aca80eaf7b897030273f1a6820b7e6d38" target="_top" xlink:title="Solve the KKT system &#160;.">
<polygon fill="white" stroke="#666666" points="413,-267 349,-267 349,-248 413,-248 413,-267"/>
<text text-anchor="middle" x="381" y="-255" font-family="Helvetica,sans-Serif" font-size="10.00">kkt_solve</text>
</a>
</g>
</g>
<!-- Node14&#45;&gt;Node15 -->
<g id="edge14_Node000014_Node000015" class="edge">
<title>Node14&#45;&gt;Node15</title>
<g id="a_edge14_Node000014_Node000015"><a xlink:title=" ">
<path fill="none" stroke="#63b8ff" d="M225.16,-436.74C233.57,-407.74 262.38,-321.31 318,-276.5 324.16,-271.53 331.62,-267.86 339.19,-265.15"/>
<polygon fill="#63b8ff" stroke="#63b8ff" points="340.23,-268.49 348.76,-262.2 338.17,-261.8 340.23,-268.49"/>
</a>
</g>
</g>
<!-- Node17 -->
<g id="Node000017" class="node">
<title>Node17</title>
<g id="a_Node000017"><a xlink:href="solver__interface_8c.html#a7ab6022f2624a8f13bf8f54067c9f2cd" target="_top" xlink:title="Perform a factorization update for the entering constraints.">
<polygon fill="white" stroke="#666666" points="439.5,-400.5 322.5,-400.5 322.5,-370.5 439.5,-370.5 439.5,-400.5"/>
<text text-anchor="start" x="330.5" y="-388.5" font-family="Helvetica,sans-Serif" font-size="10.00">kkt_update_entering</text>
<text text-anchor="middle" x="381" y="-377.5" font-family="Helvetica,sans-Serif" font-size="10.00">_constraints</text>
</a>
</g>
</g>
<!-- Node14&#45;&gt;Node17 -->
<g id="edge18_Node000014_Node000017" class="edge">
<title>Node14&#45;&gt;Node17</title>
<g id="a_edge18_Node000014_Node000017"><a xlink:title=" ">
<path fill="none" stroke="#63b8ff" d="M247.11,-436.97C269.63,-428.25 303.6,-415.09 331.56,-404.26"/>
<polygon fill="#63b8ff" stroke="#63b8ff" points="333.11,-407.41 341.17,-400.54 330.58,-400.89 333.11,-407.41"/>
</a>
</g>
</g>
<!-- Node18 -->
<g id="Node000018" class="node">
<title>Node18</title>
<g id="a_Node000018"><a xlink:href="solver__interface_8c.html#a172614d18d4dd82e001245d7ceea389f" target="_top" xlink:title="Perform a factorization update for the leaving constraints.">
<polygon fill="white" stroke="#666666" points="437.5,-352.5 324.5,-352.5 324.5,-322.5 437.5,-322.5 437.5,-352.5"/>
<text text-anchor="start" x="332.5" y="-340.5" font-family="Helvetica,sans-Serif" font-size="10.00">kkt_update_leaving</text>
<text text-anchor="middle" x="381" y="-329.5" font-family="Helvetica,sans-Serif" font-size="10.00">_constraints</text>
</a>
</g>
</g>
<!-- Node14&#45;&gt;Node18 -->
<g id="edge19_Node000014_Node000018" class="edge">
<title>Node14&#45;&gt;Node18</title>
<g id="a_edge19_Node000014_Node000018"><a xlink:title=" ">
<path fill="none" stroke="#63b8ff" d="M231.09,-436.85C246.84,-419.66 282.01,-383.48 318,-361.5 320.62,-359.9 323.37,-358.37 326.19,-356.91"/>
<polygon fill="#63b8ff" stroke="#63b8ff" points="327.86,-360 335.38,-352.53 324.84,-353.68 327.86,-360"/>
</a>
</g>
</g>
<!-- Node19 -->
<g id="Node000019" class="node">
<title>Node19</title>
<g id="a_Node000019"><a xlink:href="solver__interface_8c.html#ab4921dab7206bd333c9e7dc679dce0b1" target="_top" xlink:title="Calculate &#160;factorization of a matrix .">
<polygon fill="white" stroke="#666666" points="564,-105 515,-105 515,-86 564,-86 564,-105"/>
<text text-anchor="middle" x="539.5" y="-93" font-family="Helvetica,sans-Serif" font-size="10.00">ldlchol</text>
</a>
</g>
</g>
<!-- Node14&#45;&gt;Node19 -->
<g id="edge20_Node000014_Node000019" class="edge">
<title>Node14&#45;&gt;Node19</title>
<g id="a_edge20_Node000014_Node000019"><a xlink:title=" ">
<path fill="none" stroke="#63b8ff" d="M223.67,-436.96C228.44,-401.91 249.6,-278.87 318,-211.5 360.81,-169.34 391.09,-190.98 444,-162.5 471.52,-147.69 500.45,-126.17 518.94,-111.55"/>
<polygon fill="#63b8ff" stroke="#63b8ff" points="521.27,-114.16 526.89,-105.17 516.9,-108.7 521.27,-114.16"/>
</a>
</g>
</g>
<!-- Node20 -->
<g id="Node000020" class="node">
<title>Node20</title>
<g id="a_Node000020"><a xlink:href="solver__interface_8c.html#a972c4868a7391f4b18d836f1ca0810d9" target="_top" xlink:title="Calculate &#160;factorization of , with &#160;and &#160;the set of active constraints.">
<polygon fill="white" stroke="#666666" points="433,-19 329,-19 329,0 433,0 433,-19"/>
<text text-anchor="middle" x="381" y="-7" font-family="Helvetica,sans-Serif" font-size="10.00">ldlcholQAtsigmaA</text>
</a>
</g>
</g>
<!-- Node14&#45;&gt;Node20 -->
<g id="edge21_Node000014_Node000020" class="edge">
<title>Node14&#45;&gt;Node20</title>
<g id="a_edge21_Node000014_Node000020"><a xlink:title=" ">
<path fill="none" stroke="#63b8ff" d="M222.92,-436.92C225.27,-391.89 239.73,-198.03 318,-66.5 327.81,-50.01 343.86,-35.44 357.17,-25.17"/>
<polygon fill="#63b8ff" stroke="#63b8ff" points="359.47,-27.82 365.43,-19.05 355.31,-22.19 359.47,-27.82"/>
</a>
</g>
</g>
<!-- Node21 -->
<g id="Node000021" class="node">
<title>Node21</title>
<g id="a_Node000021"><a xlink:href="solver__interface_8c.html#a6892fee611934ae5337f1be0235bfc80" target="_top" xlink:title="Downdate the &#160;factorization given a set of leaving constraints.">
<polygon fill="white" stroke="#666666" points="440,-153.5 322,-153.5 322,-123.5 440,-123.5 440,-153.5"/>
<text text-anchor="start" x="330" y="-141.5" font-family="Helvetica,sans-Serif" font-size="10.00">ldldowndate_leaving</text>
<text text-anchor="middle" x="381" y="-130.5" font-family="Helvetica,sans-Serif" font-size="10.00">_constraints</text>
</a>
</g>
</g>
<!-- Node14&#45;&gt;Node21 -->
<g id="edge23_Node000014_Node000021" class="edge">
<title>Node14&#45;&gt;Node21</title>
<g id="a_edge23_Node000014_Node000021"><a xlink:title=" ">
<path fill="none" stroke="#63b8ff" d="M223.15,-436.74C226.24,-397.78 242.59,-251.51 318,-167.5 320.81,-164.37 324.04,-161.54 327.5,-159.01"/>
<polygon fill="#63b8ff" stroke="#63b8ff" points="329.41,-161.94 335.94,-153.6 325.64,-156.05 329.41,-161.94"/>
</a>
</g>
</g>
<!-- Node22 -->
<g id="Node000022" class="node">
<title>Node22</title>
<g id="a_Node000022"><a xlink:href="solver__interface_8c.html#a03ad73d0e41054e90232d141e73474ab" target="_top" xlink:title="Solve the linear system .">
<polygon fill="white" stroke="#666666" points="439.5,-304 322.5,-304 322.5,-285 439.5,-285 439.5,-304"/>
<text text-anchor="middle" x="381" y="-292" font-family="Helvetica,sans-Serif" font-size="10.00">ldlsolveLD_neg_dphi</text>
</a>
</g>
</g>
<!-- Node14&#45;&gt;Node22 -->
<g id="edge24_Node000014_Node000022" class="edge">
<title>Node14&#45;&gt;Node22</title>
<g id="a_edge24_Node000014_Node000022"><a xlink:title=" ">
<path fill="none" stroke="#63b8ff" d="M226.72,-436.81C237.9,-412.33 270.66,-347.49 318,-313.5 320.7,-311.56 323.6,-309.82 326.62,-308.25"/>
<polygon fill="#63b8ff" stroke="#63b8ff" points="328.26,-311.35 335.95,-304.06 325.39,-304.97 328.26,-311.35"/>
</a>
</g>
</g>
<!-- Node23 -->
<g id="Node000023" class="node">
<title>Node23</title>
<g id="a_Node000023"><a xlink:href="solver__interface_8c.html#adee67b7c00941da3be82394e4f58c47e" target="_top" xlink:title="Update the &#160;factorization given a set of entering constraints.">
<polygon fill="white" stroke="#666666" points="435,-105.5 327,-105.5 327,-75.5 435,-75.5 435,-105.5"/>
<text text-anchor="start" x="335" y="-93.5" font-family="Helvetica,sans-Serif" font-size="10.00">ldlupdate_entering</text>
<text text-anchor="middle" x="381" y="-82.5" font-family="Helvetica,sans-Serif" font-size="10.00">_constraints</text>
</a>
</g>
</g>
<!-- Node14&#45;&gt;Node23 -->
<g id="edge27_Node000014_Node000023" class="edge">
<title>Node14&#45;&gt;Node23</title>
<g id="a_edge27_Node000014_Node000023"><a xlink:title=" ">
<path fill="none" stroke="#63b8ff" d="M222.35,-436.88C222.22,-393.47 227.33,-213.64 318,-114.5 318.88,-113.54 319.8,-112.62 320.75,-111.74"/>
<polygon fill="#63b8ff" stroke="#63b8ff" points="322.9,-114.5 328.72,-105.65 318.65,-108.94 322.9,-114.5"/>
</a>
</g>
</g>
<!-- Node24 -->
<g id="Node000024" class="node">
<title>Node24</title>
<g id="a_Node000024"><a xlink:href="lin__alg_8c.html#ade8612cfab1bef397f1ff7a36f202e73" target="_top" xlink:title="Copy integer vector a into preallocated vector b.">
<polygon fill="white" stroke="#666666" points="434.5,-672 327.5,-672 327.5,-653 434.5,-653 434.5,-672"/>
<text text-anchor="middle" x="381" y="-660" font-family="Helvetica,sans-Serif" font-size="10.00">prea_int_vec_copy</text>
</a>
</g>
</g>
<!-- Node14&#45;&gt;Node24 -->
<g id="edge29_Node000014_Node000024" class="edge">
<title>Node14&#45;&gt;Node24</title>
<g id="a_edge29_Node000014_Node000024"><a xlink:title=" ">
<path fill="none" stroke="#63b8ff" d="M224.24,-456.03C230.57,-487.87 255.35,-591.52 318,-644.5 319.51,-645.78 321.1,-646.96 322.76,-648.06"/>
<polygon fill="#63b8ff" stroke="#63b8ff" points="321.1,-651.14 331.55,-652.9 324.48,-645.01 321.1,-651.14"/>
</a>
</g>
</g>
<!-- Node25 -->
<g id="Node000025" class="node">
<title>Node25</title>
<g id="a_Node000025"><a xlink:href="solver__interface_8c.html#a1d321f8b340db936d2f62a9abb350600" target="_top" xlink:title="Form the KKT system &#160;.">
<polygon fill="white" stroke="#666666" points="429.5,-635 332.5,-635 332.5,-616 429.5,-616 429.5,-635"/>
<text text-anchor="middle" x="381" y="-623" font-family="Helvetica,sans-Serif" font-size="10.00">qpalm_form_kkt</text>
</a>
</g>
</g>
<!-- Node14&#45;&gt;Node25 -->
<g id="edge31_Node000014_Node000025" class="edge">
<title>Node14&#45;&gt;Node25</title>
<g id="a_edge31_Node000014_Node000025"><a xlink:title=" ">
<path fill="none" stroke="#63b8ff" d="M225.42,-456.18C234.35,-484.14 264.04,-565.71 318,-607.5 319.8,-608.89 321.7,-610.18 323.69,-611.37"/>
<polygon fill="#63b8ff" stroke="#63b8ff" points="322.27,-614.57 332.78,-615.96 325.43,-608.33 322.27,-614.57"/>
</a>
</g>
</g>
<!-- Node26 -->
<g id="Node000026" class="node">
<title>Node26</title>
<g id="a_Node000026"><a xlink:href="solver__interface_8c.html#ad0f4712f4b0ab25ecca938a1f4b1e0a1" target="_top" xlink:title="Reform the KKT system (i.e.">
<polygon fill="white" stroke="#666666" points="434.5,-598 327.5,-598 327.5,-579 434.5,-579 434.5,-598"/>
<text text-anchor="middle" x="381" y="-586" font-family="Helvetica,sans-Serif" font-size="10.00">qpalm_reform_kkt</text>
</a>
</g>
</g>
<!-- Node14&#45;&gt;Node26 -->
<g id="edge32_Node000014_Node000026" class="edge">
<title>Node14&#45;&gt;Node26</title>
<g id="a_edge32_Node000014_Node000026"><a xlink:title=" ">
<path fill="none" stroke="#63b8ff" d="M227.23,-456.25C239.08,-479.66 272.43,-539.42 318,-570.5 320.27,-572.05 322.66,-573.46 325.15,-574.75"/>
<polygon fill="#63b8ff" stroke="#63b8ff" points="323.9,-578.03 334.45,-578.93 326.77,-571.64 323.9,-578.03"/>
</a>
</g>
</g>
<!-- Node27 -->
<g id="Node000027" class="node">
<title>Node27</title>
<g id="a_Node000027"><a xlink:href="newton_8c.html#ae27a99e2b3249e8455b72c2e2a977dd8" target="_top" xlink:title="Computes the set of active constraints and stores it in work&#45;&gt;solver&#45;&gt;active_constraints.">
<polygon fill="white" stroke="#666666" points="444,-561 318,-561 318,-542 444,-542 444,-561"/>
<text text-anchor="middle" x="381" y="-549" font-family="Helvetica,sans-Serif" font-size="10.00">set_active_constraints</text>
</a>
</g>
</g>
<!-- Node14&#45;&gt;Node27 -->
<g id="edge33_Node000014_Node000027" class="edge">
<title>Node14&#45;&gt;Node27</title>
<g id="a_edge33_Node000014_Node000027"><a xlink:title=" ">
<path fill="none" stroke="#63b8ff" d="M230.67,-456.26C246.01,-473.96 280.92,-511.5 318,-532.5 321.85,-534.68 325.98,-536.64 330.21,-538.39"/>
<polygon fill="#63b8ff" stroke="#63b8ff" points="328.99,-541.67 339.58,-541.91 331.45,-535.12 328.99,-541.67"/>
</a>
</g>
</g>
<!-- Node28 -->
<g id="Node000028" class="node">
<title>Node28</title>
<g id="a_Node000028"><a xlink:href="newton_8c.html#a43d518127e8561034e35ba18d0e15b31" target="_top" xlink:title="Determines the entering and leaving constraints and stores them in work&#45;&gt;solver&#45;&gt;enter and work&#45;&gt;solv...">
<polygon fill="white" stroke="#666666" points="440.5,-523.5 321.5,-523.5 321.5,-493.5 440.5,-493.5 440.5,-523.5"/>
<text text-anchor="start" x="329.5" y="-511.5" font-family="Helvetica,sans-Serif" font-size="10.00">set_entering_leaving</text>
<text text-anchor="middle" x="381" y="-500.5" font-family="Helvetica,sans-Serif" font-size="10.00">_constraints</text>
</a>
</g>
</g>
<!-- Node14&#45;&gt;Node28 -->
<g id="edge34_Node000014_Node000028" class="edge">
<title>Node14&#45;&gt;Node28</title>
<g id="a_edge34_Node000014_Node000028"><a xlink:title=" ">
<path fill="none" stroke="#63b8ff" d="M246.42,-456.09C265.72,-463.81 293.58,-474.92 318,-484.5 322.4,-486.23 326.98,-488.02 331.57,-489.8"/>
<polygon fill="#63b8ff" stroke="#63b8ff" points="330.36,-493.09 340.95,-493.45 332.9,-486.56 330.36,-493.09"/>
</a>
</g>
</g>
<!-- Node29 -->
<g id="Node000029" class="node">
<title>Node29</title>
<g id="a_Node000029"><a xlink:href="lin__alg_8c.html#a863f6634d67489350855e97c36c8c59c" target="_top" xlink:title="Scaled addition of one vector to another vector, both being scaled, .">
<polygon fill="white" stroke="#666666" points="442,-475 320,-475 320,-456 442,-456 442,-475"/>
<text text-anchor="middle" x="381" y="-463" font-family="Helvetica,sans-Serif" font-size="10.00">vec_mult_add_scaled</text>
</a>
</g>
</g>
<!-- Node14&#45;&gt;Node29 -->
<g id="edge36_Node000014_Node000029" class="edge">
<title>Node14&#45;&gt;Node29</title>
<g id="a_edge36_Node000014_Node000029"><a xlink:title=" ">
<path fill="none" stroke="#63b8ff" d="M282.04,-453.68C291.13,-454.78 300.58,-455.92 309.86,-457.04"/>
<polygon fill="#63b8ff" stroke="#63b8ff" points="309.5,-460.52 319.85,-458.24 310.34,-453.57 309.5,-460.52"/>
</a>
</g>
</g>
<!-- Node30 -->
<g id="Node000030" class="node">
<title>Node30</title>
<g id="a_Node000030"><a xlink:href="lin__alg_8c.html#ad69e3ef3b7360cd1d6262ee2f32fce83" target="_top" xlink:title="Infinity norm of a vector, .">
<polygon fill="white" stroke="#666666" points="422.5,-438 339.5,-438 339.5,-419 422.5,-419 422.5,-438"/>
<text text-anchor="middle" x="381" y="-426" font-family="Helvetica,sans-Serif" font-size="10.00">vec_norm_inf</text>
</a>
</g>
</g>
<!-- Node14&#45;&gt;Node30 -->
<g id="edge37_Node000014_Node000030" class="edge">
<title>Node14&#45;&gt;Node30</title>
<g id="a_edge37_Node000014_Node000030"><a xlink:title=" ">
<path fill="none" stroke="#63b8ff" d="M282.04,-439.69C297.62,-437.92 314.25,-436.01 329.32,-434.29"/>
<polygon fill="#63b8ff" stroke="#63b8ff" points="329.92,-437.75 339.46,-433.13 329.13,-430.79 329.92,-437.75"/>
</a>
</g>
</g>
<!-- Node15&#45;&gt;Node5 -->
<g id="edge15_Node000015_Node000005" class="edge">
<title>Node15&#45;&gt;Node5</title>
<g id="a_edge15_Node000015_Node000005"><a xlink:title=" ">
<path fill="none" stroke="#63b8ff" d="M413.21,-260.55C424.33,-263.16 436.05,-267.9 444,-276.5 500.14,-337.2 529.44,-604.98 536.69,-680.57"/>
<polygon fill="#63b8ff" stroke="#63b8ff" points="533.25,-681.36 537.66,-690.99 540.22,-680.71 533.25,-681.36"/>
</a>
</g>
</g>
<!-- Node15&#45;&gt;Node13 -->
<g id="edge16_Node000015_Node000013" class="edge">
<title>Node15&#45;&gt;Node13</title>
<g id="a_edge16_Node000015_Node000013"><a xlink:title=" ">
<path fill="none" stroke="#63b8ff" d="M413.29,-253.7C429.47,-251.74 449.9,-249.26 469.54,-246.87"/>
<polygon fill="#63b8ff" stroke="#63b8ff" points="470.21,-250.32 479.71,-245.64 469.36,-243.37 470.21,-250.32"/>
</a>
</g>
</g>
<!-- Node16 -->
<g id="Node000016" class="node">
<title>Node16</title>
<g id="a_Node000016"><a xlink:href="lin__alg_8c.html#a67ead739705f515285526db604c5bb7d" target="_top" xlink:title="Fill float vector with a scalar value.">
<polygon fill="white" stroke="#666666" points="584,-285 495,-285 495,-266 584,-266 584,-285"/>
<text text-anchor="middle" x="539.5" y="-273" font-family="Helvetica,sans-Serif" font-size="10.00">vec_set_scalar</text>
</a>
</g>
</g>
<!-- Node15&#45;&gt;Node16 -->
<g id="edge17_Node000015_Node000016" class="edge">
<title>Node15&#45;&gt;Node16</title>
<g id="a_edge17_Node000015_Node000016"><a xlink:title=" ">
<path fill="none" stroke="#63b8ff" d="M413.29,-261.1C433.74,-263.45 460.98,-266.58 484.83,-269.33"/>
<polygon fill="#63b8ff" stroke="#63b8ff" points="484.48,-272.81 494.81,-270.48 485.28,-265.86 484.48,-272.81"/>
</a>
</g>
</g>
<!-- Node20&#45;&gt;Node19 -->
<g id="edge22_Node000020_Node000019" class="edge">
<title>Node20&#45;&gt;Node19</title>
<g id="a_edge22_Node000020_Node000019"><a xlink:title=" ">
<path fill="none" stroke="#63b8ff" d="M410.33,-19.03C421.09,-23.02 433.32,-28.01 444,-33.5 470.54,-47.15 498.91,-66.47 517.56,-79.9"/>
<polygon fill="#63b8ff" stroke="#63b8ff" points="515.74,-82.91 525.88,-85.97 519.86,-77.25 515.74,-82.91"/>
</a>
</g>
</g>
<!-- Node22&#45;&gt;Node5 -->
<g id="edge25_Node000022_Node000005" class="edge">
<title>Node22&#45;&gt;Node5</title>
<g id="a_edge25_Node000022_Node000005"><a xlink:title=" ">
<path fill="none" stroke="#63b8ff" d="M431.24,-304.12C435.98,-306.58 440.37,-309.65 444,-313.5 495.6,-368.17 527.71,-609.08 536.22,-680.48"/>
<polygon fill="#63b8ff" stroke="#63b8ff" points="532.79,-681.25 537.42,-690.77 539.74,-680.43 532.79,-681.25"/>
</a>
</g>
</g>
<!-- Node22&#45;&gt;Node13 -->
<g id="edge26_Node000022_Node000013" class="edge">
<title>Node22&#45;&gt;Node13</title>
<g id="a_edge26_Node000022_Node000013"><a xlink:title=" ">
<path fill="none" stroke="#63b8ff" d="M419.47,-284.95C427.66,-282.5 436.21,-279.65 444,-276.5 460.77,-269.72 463.34,-264.54 480,-257.5 485.1,-255.34 490.54,-253.28 495.97,-251.36"/>
<polygon fill="#63b8ff" stroke="#63b8ff" points="497.3,-254.61 505.65,-248.08 495.05,-247.98 497.3,-254.61"/>
</a>
</g>
</g>
</g>
</svg>
