<?xml version="1.0" encoding="UTF-8" standalone="no"?>
<!DOCTYPE svg PUBLIC "-//W3C//DTD SVG 1.1//EN"
 "http://www.w3.org/Graphics/SVG/1.1/DTD/svg11.dtd">
<!-- Generated by graphviz version 2.43.0 (0)
 -->
<!-- Title: vec_ew_recipr Pages: 1 -->
<svg width="224pt" height="64pt"
 viewBox="0.00 0.00 224.00 64.00" xmlns="http://www.w3.org/2000/svg" xmlns:xlink="http://www.w3.org/1999/xlink">
<g id="graph0" class="graph" transform="scale(1 1) rotate(0) translate(4 60)">
<title>vec_ew_recipr</title>
<!-- Node1 -->
<g id="Node000001" class="node">
<title>Node1</title>
<g id="a_Node000001"><a xlink:title="Elementwise reciprocal .">
<polygon fill="#999999" stroke="#666666" points="216,-37 130,-37 130,-18 216,-18 216,-37"/>
<text text-anchor="middle" x="173" y="-25" font-family="Helvetica,sans-Serif" font-size="10.00">vec_ew_recipr</text>
</a>
</g>
</g>
<!-- Node2 -->
<g id="Node000002" class="node">
<title>Node2</title>
<g id="a_Node000002"><a xlink:href="iteration_8c.html#a155f5c99c7a442c554cca914de34eba7" target="_top" xlink:title="Initialize penalty factors from initial x.">
<polygon fill="white" stroke="#666666" points="94,-56 0,-56 0,-37 94,-37 94,-56"/>
<text text-anchor="middle" x="47" y="-44" font-family="Helvetica,sans-Serif" font-size="10.00">initialize_sigma</text>
</a>
</g>
</g>
<!-- Node1&#45;&gt;Node2 -->
<g id="edge1_Node000001_Node000002" class="edge">
<title>Node1&#45;&gt;Node2</title>
<g id="a_edge1_Node000001_Node000002"><a xlink:title=" ">
<path fill="none" stroke="#63b8ff" d="M119.61,-35.53C111.23,-36.81 102.61,-38.13 94.38,-39.39"/>
<polygon fill="#63b8ff" stroke="#63b8ff" points="120.32,-38.96 129.67,-33.99 119.26,-32.04 120.32,-38.96"/>
</a>
</g>
</g>
<!-- Node3 -->
<g id="Node000003" class="node">
<title>Node3</title>
<g id="a_Node000003"><a xlink:href="scaling_8c.html#a3735b6c9c3aeeddfb3bb0982ae5f70ba" target="_top" xlink:title="Scale problem matrices.">
<polygon fill="white" stroke="#666666" points="81.5,-19 12.5,-19 12.5,0 81.5,0 81.5,-19"/>
<text text-anchor="middle" x="47" y="-7" font-family="Helvetica,sans-Serif" font-size="10.00">scale_data</text>
</a>
</g>
</g>
<!-- Node1&#45;&gt;Node3 -->
<g id="edge2_Node000001_Node000003" class="edge">
<title>Node1&#45;&gt;Node3</title>
<g id="a_edge2_Node000001_Node000003"><a xlink:title=" ">
<path fill="none" stroke="#63b8ff" d="M119.52,-19.88C106.66,-18.01 93.23,-16.07 81.54,-14.37"/>
<polygon fill="#63b8ff" stroke="#63b8ff" points="119.27,-23.38 129.67,-21.36 120.28,-16.46 119.27,-23.38"/>
</a>
</g>
</g>
</g>
</svg>
