<?xml version="1.0" encoding="UTF-8" standalone="no"?>
<!DOCTYPE svg PUBLIC "-//W3C//DTD SVG 1.1//EN"
 "http://www.w3.org/Graphics/SVG/1.1/DTD/svg11.dtd">
<!-- Generated by graphviz version 2.43.0 (0)
 -->
<!-- Title: QPALM/src/qpalm.c Pages: 1 -->
<svg width="1204pt" height="412pt"
 viewBox="0.00 0.00 1204.00 412.00" xmlns="http://www.w3.org/2000/svg" xmlns:xlink="http://www.w3.org/1999/xlink">
<g id="graph0" class="graph" transform="scale(1 1) rotate(0) translate(4 408)">
<title>QPALM/src/qpalm.c</title>
<!-- Node1 -->
<g id="Node000001" class="node">
<title>Node1</title>
<g id="a_Node000001"><a xlink:title="QPALM main solver API.">
<polygon fill="#999999" stroke="#666666" points="628,-404 518,-404 518,-385 628,-385 628,-404"/>
<text text-anchor="middle" x="573" y="-392" font-family="Helvetica,sans-Serif" font-size="10.00">QPALM/src/qpalm.c</text>
</a>
</g>
</g>
<!-- Node2 -->
<g id="Node000002" class="node">
<title>Node2</title>
<g id="a_Node000002"><a xlink:href="qpalm_8h.html" target="_top" xlink:title="QPALM main solver API.">
<polygon fill="white" stroke="#666666" points="625,-349 569,-349 569,-330 625,-330 625,-349"/>
<text text-anchor="middle" x="597" y="-337" font-family="Helvetica,sans-Serif" font-size="10.00">qpalm.h</text>
</a>
</g>
</g>
<!-- Node1&#45;&gt;Node2 -->
<g id="edge1_Node000001_Node000002" class="edge">
<title>Node1&#45;&gt;Node2</title>
<g id="a_edge1_Node000001_Node000002"><a xlink:title=" ">
<path fill="none" stroke="#63b8ff" d="M576.96,-384.75C580.21,-377.57 584.92,-367.18 588.95,-358.27"/>
<polygon fill="#63b8ff" stroke="#63b8ff" points="592.17,-359.64 593.11,-349.09 585.8,-356.75 592.17,-359.64"/>
</a>
</g>
</g>
<!-- Node3 -->
<g id="Node000003" class="node">
<title>Node3</title>
<g id="a_Node000003"><a xlink:href="constants_8h.html" target="_top" xlink:title="Constants used in QPALM.">
<polygon fill="white" stroke="#666666" points="254.5,-129 147.5,-129 147.5,-110 254.5,-110 254.5,-129"/>
<text text-anchor="middle" x="201" y="-117" font-family="Helvetica,sans-Serif" font-size="10.00">qpalm/constants.h</text>
</a>
</g>
</g>
<!-- Node1&#45;&gt;Node3 -->
<g id="edge40_Node000001_Node000003" class="edge">
<title>Node1&#45;&gt;Node3</title>
<g id="a_edge40_Node000001_Node000003"><a xlink:title=" ">
<path fill="none" stroke="#63b8ff" d="M517.76,-393.91C381.07,-393.45 38,-382.62 38,-285.5 38,-285.5 38,-285.5 38,-228.5 38,-174.15 101.76,-145.54 149.53,-131.73"/>
<polygon fill="#63b8ff" stroke="#63b8ff" points="150.73,-135.03 159.45,-129 148.88,-128.28 150.73,-135.03"/>
</a>
</g>
</g>
<!-- Node4 -->
<g id="Node000004" class="node">
<title>Node4</title>
<g id="a_Node000004"><a xlink:title=" ">
<polygon fill="#e0e0e0" stroke="#999999" points="444,-19 394,-19 394,0 444,0 444,-19"/>
<text text-anchor="middle" x="419" y="-7" font-family="Helvetica,sans-Serif" font-size="10.00">ladel.h</text>
</a>
</g>
</g>
<!-- Node1&#45;&gt;Node4 -->
<g id="edge51_Node000001_Node000004" class="edge">
<title>Node1&#45;&gt;Node4</title>
<g id="a_edge51_Node000001_Node000004"><a xlink:title=" ">
<path fill="none" stroke="#63b8ff" d="M517.77,-393.01C404.33,-391.31 149.11,-383.62 70,-349 31.52,-332.16 0,-327.5 0,-285.5 0,-285.5 0,-285.5 0,-118.5 0,-39.51 282.78,-17.41 383.72,-12.04"/>
<polygon fill="#63b8ff" stroke="#63b8ff" points="383.92,-15.54 393.73,-11.54 383.57,-8.55 383.92,-15.54"/>
</a>
</g>
</g>
<!-- Node5 -->
<g id="Node000005" class="node">
<title>Node5</title>
<g id="a_Node000005"><a xlink:href="global__opts_8h.html" target="_top" xlink:title="Custom memory allocation, print and utility functions, and data types for floats and ints.">
<polygon fill="white" stroke="#666666" points="705,-74 589,-74 589,-55 705,-55 705,-74"/>
<text text-anchor="middle" x="647" y="-62" font-family="Helvetica,sans-Serif" font-size="10.00">qpalm/global_opts.h</text>
</a>
</g>
</g>
<!-- Node1&#45;&gt;Node5 -->
<g id="edge39_Node000001_Node000005" class="edge">
<title>Node1&#45;&gt;Node5</title>
<g id="a_edge39_Node000001_Node000005"><a xlink:title=" ">
<path fill="none" stroke="#63b8ff" d="M628.17,-393.57C716.91,-392.51 896.26,-385.52 1043,-349 1114.45,-331.22 1196,-359.12 1196,-285.5 1196,-285.5 1196,-285.5 1196,-173.5 1196,-76.62 862.71,-65.14 715.5,-64.8"/>
<polygon fill="#63b8ff" stroke="#63b8ff" points="715.24,-61.3 705.23,-64.79 715.23,-68.3 715.24,-61.3"/>
</a>
</g>
</g>
<!-- Node7 -->
<g id="Node000007" class="node">
<title>Node7</title>
<g id="a_Node000007"><a xlink:href="iteration_8h.html" target="_top" xlink:title="QPALM main solver routines.">
<polygon fill="white" stroke="#666666" points="1064.5,-239 963.5,-239 963.5,-220 1064.5,-220 1064.5,-239"/>
<text text-anchor="middle" x="1014" y="-227" font-family="Helvetica,sans-Serif" font-size="10.00">qpalm/iteration.h</text>
</a>
</g>
</g>
<!-- Node1&#45;&gt;Node7 -->
<g id="edge50_Node000001_Node000007" class="edge">
<title>Node1&#45;&gt;Node7</title>
<g id="a_edge50_Node000001_Node000007"><a xlink:title=" ">
<path fill="none" stroke="#63b8ff" d="M628.15,-392.08C753.93,-387.55 1055.83,-368.94 1117,-294 1136.79,-269.75 1098.66,-252.22 1063.32,-241.8"/>
<polygon fill="#63b8ff" stroke="#63b8ff" points="1064.05,-238.37 1053.48,-239.05 1062.17,-245.11 1064.05,-238.37"/>
</a>
</g>
</g>
<!-- Node9 -->
<g id="Node000009" class="node">
<title>Node9</title>
<g id="a_Node000009"><a xlink:href="lin__alg_8h.html" target="_top" xlink:title="Linear algebra with vectors.">
<polygon fill="white" stroke="#666666" points="616,-239 524,-239 524,-220 616,-220 616,-239"/>
<text text-anchor="middle" x="570" y="-227" font-family="Helvetica,sans-Serif" font-size="10.00">qpalm/lin_alg.h</text>
</a>
</g>
</g>
<!-- Node1&#45;&gt;Node9 -->
<g id="edge42_Node000001_Node000009" class="edge">
<title>Node1&#45;&gt;Node9</title>
<g id="a_edge42_Node000001_Node000009"><a xlink:title=" ">
<path fill="none" stroke="#63b8ff" d="M593.2,-384.91C607.47,-377.64 625.51,-365.71 634,-349 637.83,-341.47 636.14,-338.17 634,-330 625.37,-297.09 601.11,-265.12 585.07,-246.64"/>
<polygon fill="#63b8ff" stroke="#63b8ff" points="587.64,-244.26 578.36,-239.15 582.42,-248.93 587.64,-244.26"/>
</a>
</g>
</g>
<!-- Node10 -->
<g id="Node000010" class="node">
<title>Node10</title>
<g id="a_Node000010"><a xlink:href="solver__interface_8h.html" target="_top" xlink:title="Interface and wrapper to matrix/factorization (ladel) functions.">
<polygon fill="white" stroke="#666666" points="488,-184 350,-184 350,-165 488,-165 488,-184"/>
<text text-anchor="middle" x="419" y="-172" font-family="Helvetica,sans-Serif" font-size="10.00">qpalm/solver_interface.h</text>
</a>
</g>
</g>
<!-- Node1&#45;&gt;Node10 -->
<g id="edge47_Node000001_Node000010" class="edge">
<title>Node1&#45;&gt;Node10</title>
<g id="a_edge47_Node000001_Node000010"><a xlink:title=" ">
<path fill="none" stroke="#63b8ff" d="M517.94,-390.89C454.09,-384.56 351.43,-363.46 303,-294 272.84,-250.75 345.21,-208.73 388.84,-188.32"/>
<polygon fill="#63b8ff" stroke="#63b8ff" points="390.53,-191.39 398.19,-184.07 387.64,-185.02 390.53,-191.39"/>
</a>
</g>
</g>
<!-- Node11 -->
<g id="Node000011" class="node">
<title>Node11</title>
<g id="a_Node000011"><a xlink:href="linesearch_8h.html" target="_top" xlink:title="Routines to perform exact linesearch.">
<polygon fill="white" stroke="#666666" points="256,-184 146,-184 146,-165 256,-165 256,-184"/>
<text text-anchor="middle" x="201" y="-172" font-family="Helvetica,sans-Serif" font-size="10.00">qpalm/linesearch.h</text>
</a>
</g>
</g>
<!-- Node1&#45;&gt;Node11 -->
<g id="edge45_Node000001_Node000011" class="edge">
<title>Node1&#45;&gt;Node11</title>
<g id="a_edge45_Node000001_Node000011"><a xlink:title=" ">
<path fill="none" stroke="#63b8ff" d="M517.75,-390.96C434.21,-386.34 280.36,-374.57 232,-349 174.12,-318.39 157.3,-300.19 134,-239 130.99,-231.11 130.01,-227.44 134,-220 141.51,-206 155.57,-195.66 168.88,-188.48"/>
<polygon fill="#63b8ff" stroke="#63b8ff" points="170.48,-191.6 177.89,-184.02 167.37,-185.33 170.48,-191.6"/>
</a>
</g>
</g>
<!-- Node12 -->
<g id="Node000012" class="node">
<title>Node12</title>
<g id="a_Node000012"><a xlink:href="newton_8h.html" target="_top" xlink:title="Functions to calculate the semismooth Newton direction.">
<polygon fill="white" stroke="#666666" points="960.5,-294 865.5,-294 865.5,-275 960.5,-275 960.5,-294"/>
<text text-anchor="middle" x="913" y="-282" font-family="Helvetica,sans-Serif" font-size="10.00">qpalm/newton.h</text>
</a>
</g>
</g>
<!-- Node1&#45;&gt;Node12 -->
<g id="edge48_Node000001_Node000012" class="edge">
<title>Node1&#45;&gt;Node12</title>
<g id="a_edge48_Node000001_Node000012"><a xlink:title=" ">
<path fill="none" stroke="#63b8ff" d="M617.13,-384.97C655.16,-377.14 711.3,-364.44 759,-349 804.44,-334.3 855.33,-312.14 885.74,-298.27"/>
<polygon fill="#63b8ff" stroke="#63b8ff" points="887.24,-301.43 894.86,-294.07 884.31,-295.07 887.24,-301.43"/>
</a>
</g>
</g>
<!-- Node13 -->
<g id="Node000013" class="node">
<title>Node13</title>
<g id="a_Node000013"><a xlink:href="nonconvex_8h.html" target="_top" xlink:title="Routines to deal with nonconvex QPs.">
<polygon fill="white" stroke="#666666" points="1091.5,-294 978.5,-294 978.5,-275 1091.5,-275 1091.5,-294"/>
<text text-anchor="middle" x="1035" y="-282" font-family="Helvetica,sans-Serif" font-size="10.00">qpalm/nonconvex.h</text>
</a>
</g>
</g>
<!-- Node1&#45;&gt;Node13 -->
<g id="edge49_Node000001_Node000013" class="edge">
<title>Node1&#45;&gt;Node13</title>
<g id="a_edge49_Node000001_Node000013"><a xlink:title=" ">
<path fill="none" stroke="#63b8ff" d="M621.04,-384.96C666.73,-376.6 737.3,-363.12 798,-349 868.16,-332.68 949.03,-310.22 995.86,-296.84"/>
<polygon fill="#63b8ff" stroke="#63b8ff" points="996.95,-300.17 1005.6,-294.05 995.02,-293.44 996.95,-300.17"/>
</a>
</g>
</g>
<!-- Node14 -->
<g id="Node000014" class="node">
<title>Node14</title>
<g id="a_Node000014"><a xlink:href="scaling_8h.html" target="_top" xlink:title="Problem data scaling during setup.">
<polygon fill="white" stroke="#666666" points="578,-294 484,-294 484,-275 578,-275 578,-294"/>
<text text-anchor="middle" x="531" y="-282" font-family="Helvetica,sans-Serif" font-size="10.00">qpalm/scaling.h</text>
</a>
</g>
</g>
<!-- Node1&#45;&gt;Node14 -->
<g id="edge44_Node000001_Node000014" class="edge">
<title>Node1&#45;&gt;Node14</title>
<g id="a_edge44_Node000001_Node000014"><a xlink:title=" ">
<path fill="none" stroke="#63b8ff" d="M569.56,-384.66C562.7,-367.01 547.17,-327.09 538.05,-303.64"/>
<polygon fill="#63b8ff" stroke="#63b8ff" points="541.25,-302.21 534.37,-294.16 534.73,-304.75 541.25,-302.21"/>
</a>
</g>
</g>
<!-- Node15 -->
<g id="Node000015" class="node">
<title>Node15</title>
<g id="a_Node000015"><a xlink:href="termination_8h.html" target="_top" xlink:title="Routines to check the termination and infeasibility criteria.">
<polygon fill="white" stroke="#666666" points="428,-294 312,-294 312,-275 428,-275 428,-294"/>
<text text-anchor="middle" x="370" y="-282" font-family="Helvetica,sans-Serif" font-size="10.00">qpalm/termination.h</text>
</a>
</g>
</g>
<!-- Node1&#45;&gt;Node15 -->
<g id="edge46_Node000001_Node000015" class="edge">
<title>Node1&#45;&gt;Node15</title>
<g id="a_edge46_Node000001_Node000015"><a xlink:title=" ">
<path fill="none" stroke="#63b8ff" d="M556.73,-384.84C521.38,-366.04 437.35,-321.33 395.13,-298.87"/>
<polygon fill="#63b8ff" stroke="#63b8ff" points="396.54,-295.65 386.06,-294.05 393.25,-301.83 396.54,-295.65"/>
</a>
</g>
</g>
<!-- Node16 -->
<g id="Node000016" class="node">
<title>Node16</title>
<g id="a_Node000016"><a xlink:href="util_8h.html" target="_top" xlink:title="Utility functions.">
<polygon fill="white" stroke="#666666" points="217.5,-239 142.5,-239 142.5,-220 217.5,-220 217.5,-239"/>
<text text-anchor="middle" x="180" y="-227" font-family="Helvetica,sans-Serif" font-size="10.00">qpalm/util.h</text>
</a>
</g>
</g>
<!-- Node1&#45;&gt;Node16 -->
<g id="edge43_Node000001_Node000016" class="edge">
<title>Node1&#45;&gt;Node16</title>
<g id="a_edge43_Node000001_Node000016"><a xlink:title=" ">
<path fill="none" stroke="#63b8ff" d="M517.94,-394.35C455.21,-393.34 350.93,-385.53 270,-349 235.51,-333.43 227.04,-324.76 205,-294 195.29,-280.46 188.71,-262.63 184.74,-249.32"/>
<polygon fill="#63b8ff" stroke="#63b8ff" points="188.04,-248.1 182.02,-239.38 181.29,-249.95 188.04,-248.1"/>
</a>
</g>
</g>
<!-- Node17 -->
<g id="Node000017" class="node">
<title>Node17</title>
<g id="a_Node000017"><a xlink:href="validate_8h.html" target="_top" xlink:title="Validation of the user provided settings and data.">
<polygon fill="white" stroke="#666666" points="847.5,-294 748.5,-294 748.5,-275 847.5,-275 847.5,-294"/>
<text text-anchor="middle" x="798" y="-282" font-family="Helvetica,sans-Serif" font-size="10.00">qpalm/validate.h</text>
</a>
</g>
</g>
<!-- Node1&#45;&gt;Node17 -->
<g id="edge41_Node000001_Node000017" class="edge">
<title>Node1&#45;&gt;Node17</title>
<g id="a_edge41_Node000001_Node000017"><a xlink:title=" ">
<path fill="none" stroke="#63b8ff" d="M628.29,-385.44C660.7,-379.01 701.51,-367.84 734,-349 754.63,-337.03 773.38,-316.82 785.17,-302.41"/>
<polygon fill="#63b8ff" stroke="#63b8ff" points="788.11,-304.33 791.57,-294.31 782.62,-299.99 788.11,-304.33"/>
</a>
</g>
</g>
<!-- Node2&#45;&gt;Node3 -->
<g id="edge2_Node000002_Node000003" class="edge">
<title>Node2&#45;&gt;Node3</title>
<g id="a_edge2_Node000002_Node000003"><a xlink:title=" ">
<path fill="none" stroke="#63b8ff" d="M568.92,-337.28C490.62,-333.56 271.31,-320.95 205,-294 143.56,-269.03 97.89,-223.03 130,-165 137.84,-150.83 152.29,-140.57 166.11,-133.5"/>
<polygon fill="#63b8ff" stroke="#63b8ff" points="167.92,-136.52 175.49,-129.1 164.95,-130.18 167.92,-136.52"/>
</a>
</g>
</g>
<!-- Node2&#45;&gt;Node5 -->
<g id="edge4_Node000002_Node000005" class="edge">
<title>Node2&#45;&gt;Node5</title>
<g id="a_edge4_Node000002_Node000005"><a xlink:title=" ">
<path fill="none" stroke="#63b8ff" d="M606.14,-329.91C614.38,-321.57 626.08,-308.14 632,-294 662.39,-221.42 654.75,-124.48 649.73,-84.24"/>
<polygon fill="#63b8ff" stroke="#63b8ff" points="653.19,-83.7 648.38,-74.25 646.25,-84.63 653.19,-83.7"/>
</a>
</g>
</g>
<!-- Node2&#45;&gt;Node7 -->
<g id="edge7_Node000002_Node000007" class="edge">
<title>Node2&#45;&gt;Node7</title>
<g id="a_edge7_Node000002_Node000007"><a xlink:title=" ">
<path fill="none" stroke="#63b8ff" d="M625.23,-338.18C726.71,-336.73 1068.71,-329.27 1101,-294 1120.57,-272.63 1084.57,-253.86 1053.1,-242.38"/>
<polygon fill="#63b8ff" stroke="#63b8ff" points="1054.14,-239.03 1043.55,-239.05 1051.84,-245.65 1054.14,-239.03"/>
</a>
</g>
</g>
<!-- Node8 -->
<g id="Node000008" class="node">
<title>Node8</title>
<g id="a_Node000008"><a xlink:href="types_8h.html" target="_top" xlink:title="Internal data structures used in QPALM.">
<polygon fill="white" stroke="#666666" points="635,-129 549,-129 549,-110 635,-110 635,-129"/>
<text text-anchor="middle" x="592" y="-117" font-family="Helvetica,sans-Serif" font-size="10.00">qpalm/types.h</text>
</a>
</g>
</g>
<!-- Node2&#45;&gt;Node8 -->
<g id="edge33_Node000002_Node000008" class="edge">
<title>Node2&#45;&gt;Node8</title>
<g id="a_edge33_Node000002_Node000008"><a xlink:title=" ">
<path fill="none" stroke="#63b8ff" d="M601.4,-329.96C610.86,-310.59 631.74,-261.74 625,-220 620.25,-190.59 608.08,-158.11 599.93,-138.51"/>
<polygon fill="#63b8ff" stroke="#63b8ff" points="603.03,-136.87 595.88,-129.05 596.59,-139.62 603.03,-136.87"/>
</a>
</g>
</g>
<!-- Node2&#45;&gt;Node9 -->
<g id="edge12_Node000002_Node000009" class="edge">
<title>Node2&#45;&gt;Node9</title>
<g id="a_edge12_Node000002_Node000009"><a xlink:title=" ">
<path fill="none" stroke="#63b8ff" d="M596.21,-329.75C594.95,-317.4 592.12,-294.19 587,-275 584.63,-266.11 581.11,-256.54 577.89,-248.57"/>
<polygon fill="#63b8ff" stroke="#63b8ff" points="581.04,-247.05 573.94,-239.19 574.59,-249.76 581.04,-247.05"/>
</a>
</g>
</g>
<!-- Node2&#45;&gt;Node10 -->
<g id="edge30_Node000002_Node000010" class="edge">
<title>Node2&#45;&gt;Node10</title>
<g id="a_edge30_Node000002_Node000010"><a xlink:title=" ">
<path fill="none" stroke="#63b8ff" d="M568.88,-334.53C541.88,-329.4 501.4,-318.08 475,-294 445.13,-266.75 429.74,-220.23 423.13,-194.33"/>
<polygon fill="#63b8ff" stroke="#63b8ff" points="426.46,-193.23 420.75,-184.31 419.65,-194.85 426.46,-193.23"/>
</a>
</g>
</g>
<!-- Node2&#45;&gt;Node11 -->
<g id="edge19_Node000002_Node000011" class="edge">
<title>Node2&#45;&gt;Node11</title>
<g id="a_edge19_Node000002_Node000011"><a xlink:title=" ">
<path fill="none" stroke="#63b8ff" d="M568.89,-336.73C504.52,-332.29 348.51,-319.17 303,-294 259.61,-270 226.21,-219.92 210.63,-193.19"/>
<polygon fill="#63b8ff" stroke="#63b8ff" points="213.52,-191.18 205.55,-184.2 207.42,-194.63 213.52,-191.18"/>
</a>
</g>
</g>
<!-- Node2&#45;&gt;Node12 -->
<g id="edge22_Node000002_Node000012" class="edge">
<title>Node2&#45;&gt;Node12</title>
<g id="a_edge22_Node000002_Node000012"><a xlink:title=" ">
<path fill="none" stroke="#63b8ff" d="M625.04,-333.8C676.55,-325.16 787.18,-306.6 855.33,-295.17"/>
<polygon fill="#63b8ff" stroke="#63b8ff" points="856.19,-298.58 865.47,-293.47 855.03,-291.67 856.19,-298.58"/>
</a>
</g>
</g>
<!-- Node2&#45;&gt;Node13 -->
<g id="edge24_Node000002_Node000013" class="edge">
<title>Node2&#45;&gt;Node13</title>
<g id="a_edge24_Node000002_Node000013"><a xlink:title=" ">
<path fill="none" stroke="#63b8ff" d="M625.09,-335.26C685.75,-328.24 833.76,-310.97 968.22,-294.21"/>
<polygon fill="#63b8ff" stroke="#63b8ff" points="968.8,-297.67 978.28,-292.95 967.93,-290.72 968.8,-297.67"/>
</a>
</g>
</g>
<!-- Node2&#45;&gt;Node14 -->
<g id="edge26_Node000002_Node000014" class="edge">
<title>Node2&#45;&gt;Node14</title>
<g id="a_edge26_Node000002_Node000014"><a xlink:title=" ">
<path fill="none" stroke="#63b8ff" d="M586.4,-329.98C576.54,-322.07 561.65,-310.11 549.78,-300.58"/>
<polygon fill="#63b8ff" stroke="#63b8ff" points="551.79,-297.7 541.8,-294.17 547.4,-303.16 551.79,-297.7"/>
</a>
</g>
</g>
<!-- Node2&#45;&gt;Node15 -->
<g id="edge31_Node000002_Node000015" class="edge">
<title>Node2&#45;&gt;Node15</title>
<g id="a_edge31_Node000002_Node000015"><a xlink:title=" ">
<path fill="none" stroke="#63b8ff" d="M568.71,-331.89C530.59,-322.99 462.25,-307.04 416.51,-296.36"/>
<polygon fill="#63b8ff" stroke="#63b8ff" points="417.08,-292.9 406.54,-294.03 415.49,-299.71 417.08,-292.9"/>
</a>
</g>
</g>
<!-- Node2&#45;&gt;Node16 -->
<g id="edge34_Node000002_Node000016" class="edge">
<title>Node2&#45;&gt;Node16</title>
<g id="a_edge34_Node000002_Node000016"><a xlink:title=" ">
<path fill="none" stroke="#63b8ff" d="M568.91,-337.75C493.79,-335.33 290.03,-325.93 232,-294 212.95,-283.52 198.14,-262.98 189.28,-248.09"/>
<polygon fill="#63b8ff" stroke="#63b8ff" points="192.28,-246.28 184.33,-239.28 186.18,-249.71 192.28,-246.28"/>
</a>
</g>
</g>
<!-- Node2&#45;&gt;Node17 -->
<g id="edge37_Node000002_Node000017" class="edge">
<title>Node2&#45;&gt;Node17</title>
<g id="a_edge37_Node000002_Node000017"><a xlink:title=" ">
<path fill="none" stroke="#63b8ff" d="M625.37,-331.02C659.32,-322.07 716.47,-307 755.65,-296.67"/>
<polygon fill="#63b8ff" stroke="#63b8ff" points="756.67,-300.02 765.44,-294.08 754.88,-293.25 756.67,-300.02"/>
</a>
</g>
</g>
<!-- Node3&#45;&gt;Node4 -->
<g id="edge3_Node000003_Node000004" class="edge">
<title>Node3&#45;&gt;Node4</title>
<g id="a_edge3_Node000003_Node000004"><a xlink:title=" ">
<path fill="none" stroke="#63b8ff" d="M218.47,-109.84C256.59,-90.96 347.43,-45.96 392.59,-23.59"/>
<polygon fill="#63b8ff" stroke="#63b8ff" points="394.34,-26.62 401.75,-19.05 391.23,-20.35 394.34,-26.62"/>
</a>
</g>
</g>
<!-- Node5&#45;&gt;Node4 -->
<g id="edge5_Node000005_Node000004" class="edge">
<title>Node5&#45;&gt;Node4</title>
<g id="a_edge5_Node000005_Node000004"><a xlink:title=" ">
<path fill="none" stroke="#63b8ff" d="M610.37,-54.98C567.34,-44.98 496.47,-28.51 454.11,-18.66"/>
<polygon fill="#63b8ff" stroke="#63b8ff" points="454.78,-15.22 444.25,-16.37 453.19,-22.04 454.78,-15.22"/>
</a>
</g>
</g>
<!-- Node6 -->
<g id="Node000006" class="node">
<title>Node6</title>
<g id="a_Node000006"><a xlink:title=" ">
<polygon fill="#e0e0e0" stroke="#999999" points="672.5,-19 621.5,-19 621.5,0 672.5,0 672.5,-19"/>
<text text-anchor="middle" x="647" y="-7" font-family="Helvetica,sans-Serif" font-size="10.00">math.h</text>
</a>
</g>
</g>
<!-- Node5&#45;&gt;Node6 -->
<g id="edge6_Node000005_Node000006" class="edge">
<title>Node5&#45;&gt;Node6</title>
<g id="a_edge6_Node000005_Node000006"><a xlink:title=" ">
<path fill="none" stroke="#63b8ff" d="M647,-54.75C647,-47.8 647,-37.85 647,-29.13"/>
<polygon fill="#63b8ff" stroke="#63b8ff" points="650.5,-29.09 647,-19.09 643.5,-29.09 650.5,-29.09"/>
</a>
</g>
</g>
<!-- Node7&#45;&gt;Node5 -->
<g id="edge11_Node000007_Node000005" class="edge">
<title>Node7&#45;&gt;Node5</title>
<g id="a_edge11_Node000007_Node000005"><a xlink:title=" ">
<path fill="none" stroke="#63b8ff" d="M1004.76,-219.78C980.87,-197.75 914.31,-139.53 848,-110 805.86,-91.24 755.12,-80.08 715.17,-73.63"/>
<polygon fill="#63b8ff" stroke="#63b8ff" points="715.67,-70.17 705.25,-72.09 714.6,-77.09 715.67,-70.17"/>
</a>
</g>
</g>
<!-- Node7&#45;&gt;Node8 -->
<g id="edge8_Node000007_Node000008" class="edge">
<title>Node7&#45;&gt;Node8</title>
<g id="a_edge8_Node000007_Node000008"><a xlink:title=" ">
<path fill="none" stroke="#63b8ff" d="M989.42,-219.97C951.32,-206.95 875.56,-181.85 810,-165 754.29,-150.68 689.64,-137.97 645.29,-129.83"/>
<polygon fill="#63b8ff" stroke="#63b8ff" points="645.77,-126.36 635.31,-128.02 644.52,-133.25 645.77,-126.36"/>
</a>
</g>
</g>
<!-- Node8&#45;&gt;Node4 -->
<g id="edge10_Node000008_Node000004" class="edge">
<title>Node8&#45;&gt;Node4</title>
<g id="a_edge10_Node000008_Node000004"><a xlink:title=" ">
<path fill="none" stroke="#63b8ff" d="M578.14,-109.84C548.4,-91.28 478.25,-47.49 441.83,-24.75"/>
<polygon fill="#63b8ff" stroke="#63b8ff" points="443.27,-21.52 432.93,-19.2 439.56,-27.46 443.27,-21.52"/>
</a>
</g>
</g>
<!-- Node8&#45;&gt;Node5 -->
<g id="edge9_Node000008_Node000005" class="edge">
<title>Node8&#45;&gt;Node5</title>
<g id="a_edge9_Node000008_Node000005"><a xlink:title=" ">
<path fill="none" stroke="#63b8ff" d="M601.08,-109.75C609.09,-102.03 620.96,-90.6 630.62,-81.28"/>
<polygon fill="#63b8ff" stroke="#63b8ff" points="633.31,-83.55 638.09,-74.09 628.46,-78.51 633.31,-83.55"/>
</a>
</g>
</g>
<!-- Node9&#45;&gt;Node8 -->
<g id="edge13_Node000009_Node000008" class="edge">
<title>Node9&#45;&gt;Node8</title>
<g id="a_edge13_Node000009_Node000008"><a xlink:title=" ">
<path fill="none" stroke="#63b8ff" d="M571.8,-219.66C575.36,-202.17 583.38,-162.8 588.18,-139.27"/>
<polygon fill="#63b8ff" stroke="#63b8ff" points="591.67,-139.66 590.24,-129.16 584.81,-138.26 591.67,-139.66"/>
</a>
</g>
</g>
<!-- Node9&#45;&gt;Node10 -->
<g id="edge14_Node000009_Node000010" class="edge">
<title>Node9&#45;&gt;Node10</title>
<g id="a_edge14_Node000009_Node000010"><a xlink:title=" ">
<path fill="none" stroke="#63b8ff" d="M545.74,-219.98C520.68,-211.19 481.37,-197.39 453.17,-187.49"/>
<polygon fill="#63b8ff" stroke="#63b8ff" points="454.3,-184.18 443.7,-184.17 451.98,-190.78 454.3,-184.18"/>
</a>
</g>
</g>
<!-- Node10&#45;&gt;Node3 -->
<g id="edge16_Node000010_Node000003" class="edge">
<title>Node10&#45;&gt;Node3</title>
<g id="a_edge16_Node000010_Node000003"><a xlink:title=" ">
<path fill="none" stroke="#63b8ff" d="M383.97,-164.98C346.5,-155.87 286.95,-141.4 246.02,-131.45"/>
<polygon fill="#63b8ff" stroke="#63b8ff" points="246.84,-128.04 236.3,-129.08 245.19,-134.85 246.84,-128.04"/>
</a>
</g>
</g>
<!-- Node10&#45;&gt;Node4 -->
<g id="edge18_Node000010_Node000004" class="edge">
<title>Node10&#45;&gt;Node4</title>
<g id="a_edge18_Node000010_Node000004"><a xlink:title=" ">
<path fill="none" stroke="#63b8ff" d="M419,-164.74C419,-139.31 419,-65.08 419,-29.69"/>
<polygon fill="#63b8ff" stroke="#63b8ff" points="422.5,-29.31 419,-19.31 415.5,-29.31 422.5,-29.31"/>
</a>
</g>
</g>
<!-- Node10&#45;&gt;Node5 -->
<g id="edge15_Node000010_Node000005" class="edge">
<title>Node10&#45;&gt;Node5</title>
<g id="a_edge15_Node000010_Node000005"><a xlink:title=" ">
<path fill="none" stroke="#63b8ff" d="M434.44,-164.83C457.23,-152.16 501.34,-128.14 540,-110 564.96,-98.29 593.85,-86.37 615.32,-77.81"/>
<polygon fill="#63b8ff" stroke="#63b8ff" points="616.61,-81.07 624.62,-74.13 614.03,-74.56 616.61,-81.07"/>
</a>
</g>
</g>
<!-- Node10&#45;&gt;Node8 -->
<g id="edge17_Node000010_Node000008" class="edge">
<title>Node10&#45;&gt;Node8</title>
<g id="a_edge17_Node000010_Node000008"><a xlink:title=" ">
<path fill="none" stroke="#63b8ff" d="M446.8,-164.98C475.97,-156.05 522,-141.94 554.4,-132.02"/>
<polygon fill="#63b8ff" stroke="#63b8ff" points="555.45,-135.36 563.99,-129.08 553.4,-128.66 555.45,-135.36"/>
</a>
</g>
</g>
<!-- Node11&#45;&gt;Node3 -->
<g id="edge21_Node000011_Node000003" class="edge">
<title>Node11&#45;&gt;Node3</title>
<g id="a_edge21_Node000011_Node000003"><a xlink:title=" ">
<path fill="none" stroke="#63b8ff" d="M201,-164.75C201,-157.8 201,-147.85 201,-139.13"/>
<polygon fill="#63b8ff" stroke="#63b8ff" points="204.5,-139.09 201,-129.09 197.5,-139.09 204.5,-139.09"/>
</a>
</g>
</g>
<!-- Node11&#45;&gt;Node8 -->
<g id="edge20_Node000011_Node000008" class="edge">
<title>Node11&#45;&gt;Node8</title>
<g id="a_edge20_Node000011_Node000008"><a xlink:title=" ">
<path fill="none" stroke="#63b8ff" d="M256.19,-166.02C331.28,-155.84 464.75,-137.75 538.79,-127.71"/>
<polygon fill="#63b8ff" stroke="#63b8ff" points="539.4,-131.16 548.84,-126.35 538.46,-124.23 539.4,-131.16"/>
</a>
</g>
</g>
<!-- Node12&#45;&gt;Node8 -->
<g id="edge23_Node000012_Node000008" class="edge">
<title>Node12&#45;&gt;Node8</title>
<g id="a_edge23_Node000012_Node000008"><a xlink:title=" ">
<path fill="none" stroke="#63b8ff" d="M878.41,-274.96C851.27,-267.52 813.03,-255.34 782,-239 733.39,-213.41 729.88,-193.64 683,-165 663.15,-152.88 639.53,-141.41 621.33,-133.15"/>
<polygon fill="#63b8ff" stroke="#63b8ff" points="622.65,-129.9 612.09,-129.02 619.79,-136.29 622.65,-129.9"/>
</a>
</g>
</g>
<!-- Node13&#45;&gt;Node8 -->
<g id="edge25_Node000013_Node000008" class="edge">
<title>Node13&#45;&gt;Node8</title>
<g id="a_edge25_Node000013_Node000008"><a xlink:title=" ">
<path fill="none" stroke="#63b8ff" d="M1011.81,-274.97C938.26,-247.9 710.06,-163.94 624.68,-132.53"/>
<polygon fill="#63b8ff" stroke="#63b8ff" points="625.82,-129.22 615.23,-129.05 623.41,-135.79 625.82,-129.22"/>
</a>
</g>
</g>
<!-- Node14&#45;&gt;Node3 -->
<g id="edge29_Node000014_Node000003" class="edge">
<title>Node14&#45;&gt;Node3</title>
<g id="a_edge29_Node000014_Node000003"><a xlink:title=" ">
<path fill="none" stroke="#63b8ff" d="M513.72,-274.97C459.61,-248.24 293.12,-166 227.74,-133.71"/>
<polygon fill="#63b8ff" stroke="#63b8ff" points="229.02,-130.44 218.5,-129.15 225.92,-136.71 229.02,-130.44"/>
</a>
</g>
</g>
<!-- Node14&#45;&gt;Node8 -->
<g id="edge27_Node000014_Node000008" class="edge">
<title>Node14&#45;&gt;Node8</title>
<g id="a_edge27_Node000014_Node000008"><a xlink:title=" ">
<path fill="none" stroke="#63b8ff" d="M525.63,-274.74C518.75,-262.37 508.46,-239.15 515,-220 526.74,-185.64 555.71,-153.94 574.57,-135.94"/>
<polygon fill="#63b8ff" stroke="#63b8ff" points="577,-138.46 581.96,-129.1 572.25,-133.33 577,-138.46"/>
</a>
</g>
</g>
<!-- Node14&#45;&gt;Node9 -->
<g id="edge28_Node000014_Node000009" class="edge">
<title>Node14&#45;&gt;Node9</title>
<g id="a_edge28_Node000014_Node000009"><a xlink:title=" ">
<path fill="none" stroke="#63b8ff" d="M537.44,-274.75C542.89,-267.34 550.86,-256.5 557.56,-247.41"/>
<polygon fill="#63b8ff" stroke="#63b8ff" points="560.57,-249.22 563.68,-239.09 554.93,-245.07 560.57,-249.22"/>
</a>
</g>
</g>
<!-- Node15&#45;&gt;Node8 -->
<g id="edge32_Node000015_Node000008" class="edge">
<title>Node15&#45;&gt;Node8</title>
<g id="a_edge32_Node000015_Node000008"><a xlink:title=" ">
<path fill="none" stroke="#63b8ff" d="M381.6,-274.82C407.9,-255.15 474.14,-205.73 530,-165 543.65,-155.05 559.08,-143.97 571.14,-135.36"/>
<polygon fill="#63b8ff" stroke="#63b8ff" points="573.5,-137.97 579.61,-129.31 569.44,-132.27 573.5,-137.97"/>
</a>
</g>
</g>
<!-- Node16&#45;&gt;Node3 -->
<g id="edge36_Node000016_Node000003" class="edge">
<title>Node16&#45;&gt;Node3</title>
<g id="a_edge36_Node000016_Node000003"><a xlink:title=" ">
<path fill="none" stroke="#63b8ff" d="M166.85,-219.86C150.54,-207.99 126.15,-185.77 137,-165 144.11,-151.39 157.49,-141.1 170.19,-133.87"/>
<polygon fill="#63b8ff" stroke="#63b8ff" points="171.98,-136.88 179.21,-129.13 168.73,-130.68 171.98,-136.88"/>
</a>
</g>
</g>
<!-- Node16&#45;&gt;Node8 -->
<g id="edge35_Node000016_Node000008" class="edge">
<title>Node16&#45;&gt;Node8</title>
<g id="a_edge35_Node000016_Node000008"><a xlink:title=" ">
<path fill="none" stroke="#63b8ff" d="M198.42,-219.83C227.9,-206.27 287.8,-180.04 341,-165 407.93,-146.07 487.29,-133.61 538.59,-126.81"/>
<polygon fill="#63b8ff" stroke="#63b8ff" points="539.31,-130.25 548.78,-125.49 538.41,-123.31 539.31,-130.25"/>
</a>
</g>
</g>
<!-- Node17&#45;&gt;Node8 -->
<g id="edge38_Node000017_Node000008" class="edge">
<title>Node17&#45;&gt;Node8</title>
<g id="a_edge38_Node000017_Node000008"><a xlink:title=" ">
<path fill="none" stroke="#63b8ff" d="M787.19,-274.7C776.24,-265.77 758.87,-251.52 744,-239 705.43,-206.52 698.08,-195.59 658,-165 643.94,-154.27 627.45,-143.15 614.47,-134.71"/>
<polygon fill="#63b8ff" stroke="#63b8ff" points="616.03,-131.55 605.72,-129.08 612.24,-137.44 616.03,-131.55"/>
</a>
</g>
</g>
</g>
</svg>
