<?xml version="1.0" encoding="UTF-8" standalone="no"?>
<!DOCTYPE svg PUBLIC "-//W3C//DTD SVG 1.1//EN"
 "http://www.w3.org/Graphics/SVG/1.1/DTD/svg11.dtd">
<!-- Generated by graphviz version 2.43.0 (0)
 -->
<!-- Title: scale_data Pages: 1 -->
<svg width="232pt" height="286pt"
 viewBox="0.00 0.00 232.00 286.00" xmlns="http://www.w3.org/2000/svg" xmlns:xlink="http://www.w3.org/1999/xlink">
<g id="graph0" class="graph" transform="scale(1 1) rotate(0) translate(4 282)">
<title>scale_data</title>
<!-- Node1 -->
<g id="Node000001" class="node">
<title>Node1</title>
<g id="a_Node000001"><a xlink:title="Scale problem matrices.">
<polygon fill="#999999" stroke="#666666" points="69,-148 0,-148 0,-129 69,-129 69,-148"/>
<text text-anchor="middle" x="34.5" y="-136" font-family="Helvetica,sans-Serif" font-size="10.00">scale_data</text>
</a>
</g>
</g>
<!-- Node2 -->
<g id="Node000002" class="node">
<title>Node2</title>
<g id="a_Node000002"><a xlink:href="scaling_8c.html#a6d8255033fe7895a885af496fc510407" target="_top" xlink:title=" ">
<polygon fill="white" stroke="#666666" points="204,-278 125,-278 125,-259 204,-259 204,-278"/>
<text text-anchor="middle" x="164.5" y="-266" font-family="Helvetica,sans-Serif" font-size="10.00">limit_scaling</text>
</a>
</g>
</g>
<!-- Node1&#45;&gt;Node2 -->
<g id="edge1_Node000001_Node000002" class="edge">
<title>Node1&#45;&gt;Node2</title>
<g id="a_edge1_Node000001_Node000002"><a xlink:title=" ">
<path fill="none" stroke="#63b8ff" d="M38.82,-148.22C46.72,-169.91 68.76,-222.55 105,-250.5 108.18,-252.95 111.69,-255.07 115.36,-256.9"/>
<polygon fill="#63b8ff" stroke="#63b8ff" points="114.18,-260.2 124.75,-260.89 116.92,-253.76 114.18,-260.2"/>
</a>
</g>
</g>
<!-- Node3 -->
<g id="Node000003" class="node">
<title>Node3</title>
<g id="a_Node000003"><a xlink:href="lin__alg_8c.html#acf468a60c38fbc58b6de539acb6f0a3b" target="_top" xlink:title="Copy vector a into preallocated vector b.">
<polygon fill="white" stroke="#666666" points="209,-241 120,-241 120,-222 209,-222 209,-241"/>
<text text-anchor="middle" x="164.5" y="-229" font-family="Helvetica,sans-Serif" font-size="10.00">prea_vec_copy</text>
</a>
</g>
</g>
<!-- Node1&#45;&gt;Node3 -->
<g id="edge2_Node000001_Node000003" class="edge">
<title>Node1&#45;&gt;Node3</title>
<g id="a_edge2_Node000001_Node000003"><a xlink:title=" ">
<path fill="none" stroke="#63b8ff" d="M41.8,-148.06C52.76,-163.96 76.89,-195.84 105,-213.5 107.61,-215.14 110.39,-216.64 113.26,-218.02"/>
<polygon fill="#63b8ff" stroke="#63b8ff" points="112.05,-221.31 122.63,-221.97 114.77,-214.86 112.05,-221.31"/>
</a>
</g>
</g>
<!-- Node4 -->
<g id="Node000004" class="node">
<title>Node4</title>
<g id="a_Node000004"><a xlink:href="lin__alg_8c.html#ab48ddb2d35dd1a04bd27f06cb49400cb" target="_top" xlink:title="Elementwise product, .">
<polygon fill="white" stroke="#666666" points="204.5,-204 124.5,-204 124.5,-185 204.5,-185 204.5,-204"/>
<text text-anchor="middle" x="164.5" y="-192" font-family="Helvetica,sans-Serif" font-size="10.00">vec_ew_prod</text>
</a>
</g>
</g>
<!-- Node1&#45;&gt;Node4 -->
<g id="edge3_Node000001_Node000004" class="edge">
<title>Node1&#45;&gt;Node4</title>
<g id="a_edge3_Node000001_Node000004"><a xlink:title=" ">
<path fill="none" stroke="#63b8ff" d="M50.79,-148.03C64.58,-156.34 85.62,-168.32 105,-176.5 109.42,-178.36 114.1,-180.13 118.8,-181.78"/>
<polygon fill="#63b8ff" stroke="#63b8ff" points="117.85,-185.15 128.44,-184.98 120.05,-178.5 117.85,-185.15"/>
</a>
</g>
</g>
<!-- Node5 -->
<g id="Node000005" class="node">
<title>Node5</title>
<g id="a_Node000005"><a xlink:href="lin__alg_8c.html#aebb20e932bc52e918667db2a70cb0781" target="_top" xlink:title="Elementwise reciprocal .">
<polygon fill="white" stroke="#666666" points="207.5,-167 121.5,-167 121.5,-148 207.5,-148 207.5,-167"/>
<text text-anchor="middle" x="164.5" y="-155" font-family="Helvetica,sans-Serif" font-size="10.00">vec_ew_recipr</text>
</a>
</g>
</g>
<!-- Node1&#45;&gt;Node5 -->
<g id="edge4_Node000001_Node000005" class="edge">
<title>Node1&#45;&gt;Node5</title>
<g id="a_edge4_Node000001_Node000005"><a xlink:title=" ">
<path fill="none" stroke="#63b8ff" d="M69.13,-143.49C82,-145.4 97.01,-147.63 111.22,-149.74"/>
<polygon fill="#63b8ff" stroke="#63b8ff" points="110.98,-153.24 121.39,-151.25 112.01,-146.32 110.98,-153.24"/>
</a>
</g>
</g>
<!-- Node6 -->
<g id="Node000006" class="node">
<title>Node6</title>
<g id="a_Node000006"><a xlink:href="lin__alg_8c.html#aff49f7b83b7dc6ec1b18557c9f4ea995" target="_top" xlink:title="Elementwise square root, .">
<polygon fill="white" stroke="#666666" points="203,-130 126,-130 126,-111 203,-111 203,-130"/>
<text text-anchor="middle" x="164.5" y="-118" font-family="Helvetica,sans-Serif" font-size="10.00">vec_ew_sqrt</text>
</a>
</g>
</g>
<!-- Node1&#45;&gt;Node6 -->
<g id="edge5_Node000001_Node000006" class="edge">
<title>Node1&#45;&gt;Node6</title>
<g id="a_edge5_Node000001_Node000006"><a xlink:title=" ">
<path fill="none" stroke="#63b8ff" d="M69.13,-133.77C83.35,-131.77 100.17,-129.41 115.64,-127.23"/>
<polygon fill="#63b8ff" stroke="#63b8ff" points="116.16,-130.69 125.58,-125.83 115.19,-123.76 116.16,-130.69"/>
</a>
</g>
</g>
<!-- Node7 -->
<g id="Node000007" class="node">
<title>Node7</title>
<g id="a_Node000007"><a xlink:href="lin__alg_8c.html#ad69e3ef3b7360cd1d6262ee2f32fce83" target="_top" xlink:title="Infinity norm of a vector, .">
<polygon fill="white" stroke="#666666" points="206,-93 123,-93 123,-74 206,-74 206,-93"/>
<text text-anchor="middle" x="164.5" y="-81" font-family="Helvetica,sans-Serif" font-size="10.00">vec_norm_inf</text>
</a>
</g>
</g>
<!-- Node1&#45;&gt;Node7 -->
<g id="edge6_Node000001_Node000007" class="edge">
<title>Node1&#45;&gt;Node7</title>
<g id="a_edge6_Node000001_Node000007"><a xlink:title=" ">
<path fill="none" stroke="#63b8ff" d="M51.98,-128.98C65.84,-121.22 86.32,-110.31 105,-102.5 110.17,-100.34 115.68,-98.26 121.18,-96.33"/>
<polygon fill="#63b8ff" stroke="#63b8ff" points="122.62,-99.54 130.97,-93.02 120.38,-92.91 122.62,-99.54"/>
</a>
</g>
</g>
<!-- Node8 -->
<g id="Node000008" class="node">
<title>Node8</title>
<g id="a_Node000008"><a xlink:href="lin__alg_8c.html#a932b289ad07aea70e64b417ef9160674" target="_top" xlink:title="Mulitply vector with a constant scale factor.">
<polygon fill="white" stroke="#666666" points="224,-56 105,-56 105,-37 224,-37 224,-56"/>
<text text-anchor="middle" x="164.5" y="-44" font-family="Helvetica,sans-Serif" font-size="10.00">vec_self_mult_scalar</text>
</a>
</g>
</g>
<!-- Node1&#45;&gt;Node8 -->
<g id="edge7_Node000001_Node000008" class="edge">
<title>Node1&#45;&gt;Node8</title>
<g id="a_edge7_Node000001_Node000008"><a xlink:title=" ">
<path fill="none" stroke="#63b8ff" d="M42.43,-128.5C53.77,-112.86 77.75,-82.66 105,-65.5 108.31,-63.42 111.87,-61.54 115.54,-59.85"/>
<polygon fill="#63b8ff" stroke="#63b8ff" points="116.9,-63.08 124.82,-56.04 114.24,-56.6 116.9,-63.08"/>
</a>
</g>
</g>
<!-- Node9 -->
<g id="Node000009" class="node">
<title>Node9</title>
<g id="a_Node000009"><a xlink:href="lin__alg_8c.html#a67ead739705f515285526db604c5bb7d" target="_top" xlink:title="Fill float vector with a scalar value.">
<polygon fill="white" stroke="#666666" points="209,-19 120,-19 120,0 209,0 209,-19"/>
<text text-anchor="middle" x="164.5" y="-7" font-family="Helvetica,sans-Serif" font-size="10.00">vec_set_scalar</text>
</a>
</g>
</g>
<!-- Node1&#45;&gt;Node9 -->
<g id="edge8_Node000001_Node000009" class="edge">
<title>Node1&#45;&gt;Node9</title>
<g id="a_edge8_Node000001_Node000009"><a xlink:title=" ">
<path fill="none" stroke="#63b8ff" d="M38.9,-128.99C46.97,-107.77 69.33,-56.22 105,-28.5 107.33,-26.69 109.84,-25.05 112.47,-23.56"/>
<polygon fill="#63b8ff" stroke="#63b8ff" points="114.25,-26.58 121.73,-19.07 111.2,-20.28 114.25,-26.58"/>
</a>
</g>
</g>
</g>
</svg>
