<?xml version="1.0" encoding="UTF-8" standalone="no"?>
<!DOCTYPE svg PUBLIC "-//W3C//DTD SVG 1.1//EN"
 "http://www.w3.org/Graphics/SVG/1.1/DTD/svg11.dtd">
<!-- Generated by graphviz version 2.43.0 (0)
 -->
<!-- Title: QPALM/src/solver_interface.c Pages: 1 -->
<svg width="407pt" height="302pt"
 viewBox="0.00 0.00 407.31 302.00" xmlns="http://www.w3.org/2000/svg" xmlns:xlink="http://www.w3.org/1999/xlink">

<svg id="main" version="1.1" xmlns="http://www.w3.org/2000/svg" xmlns:xlink="http://www.w3.org/1999/xlink" xml:space="preserve" onload="init(evt)">
<style type="text/css"><![CDATA[
.node, .edge {opacity: 0.7;}
.node.selected, .edge.selected {opacity: 1;}
.edge:hover path { stroke: red; }
.edge:hover polygon { stroke: red; fill: red; }
]]></style>
<script type="application/ecmascript" xlink:href="svg.min.js"/>
<svg id="graph" class="graph">
<g id="graph0" class="graph" transform="scale(1 1) rotate(0) translate(4 298)">
<title>QPALM/src/solver_interface.c</title>
<!-- Node1 -->
<g id="Node000001" class="node">
<title>Node1</title>
<g id="a_Node000001"><a xlink:title="Interface and wrapper to matrix/factorization (ladel) functions.">
<polygon fill="#999999" stroke="#666666" points="357.31,-294 199.31,-294 199.31,-275 357.31,-275 357.31,-294"/>
<text text-anchor="middle" x="278.31" y="-282" font-family="Helvetica,sans-Serif" font-size="10.00">QPALM/src/solver_interface.c</text>
</a>
</g>
</g>
<!-- Node2 -->
<g id="Node000002" class="node">
<title>Node2</title>
<g id="a_Node000002"><a xlink:href="lin__alg_8h.html" target="_top" xlink:title="Linear algebra with vectors.">
<polygon fill="white" stroke="#666666" points="207.31,-239 115.31,-239 115.31,-220 207.31,-220 207.31,-239"/>
<text text-anchor="middle" x="161.31" y="-227" font-family="Helvetica,sans-Serif" font-size="10.00">qpalm/lin_alg.h</text>
</a>
</g>
</g>
<!-- Node1&#45;&gt;Node2 -->
<g id="edge1_Node000001_Node000002" class="edge">
<title>Node1&#45;&gt;Node2</title>
<g id="a_edge1_Node000001_Node000002"><a xlink:title=" ">
<path fill="none" stroke="#63b8ff" d="M259.51,-274.98C240.69,-266.46 211.49,-253.23 189.82,-243.41"/>
<polygon fill="#63b8ff" stroke="#63b8ff" points="191,-240.11 180.45,-239.17 188.12,-246.48 191,-240.11"/>
</a>
</g>
</g>
<!-- Node5 -->
<g id="Node000005" class="node">
<title>Node5</title>
<g id="a_Node000005"><a xlink:title=" ">
<polygon fill="#e0e0e0" stroke="#999999" points="182.31,-19 132.31,-19 132.31,0 182.31,0 182.31,-19"/>
<text text-anchor="middle" x="157.31" y="-7" font-family="Helvetica,sans-Serif" font-size="10.00">ladel.h</text>
</a>
</g>
</g>
<!-- Node1&#45;&gt;Node5 -->
<g id="edge15_Node000001_Node000005" class="edge">
<title>Node1&#45;&gt;Node5</title>
<g id="a_edge15_Node000001_Node000005"><a xlink:title=" ">
<path fill="none" stroke="#63b8ff" d="M284.47,-274.73C296.36,-256.92 321.31,-214.85 321.31,-175.5 321.31,-175.5 321.31,-175.5 321.31,-118.5 321.31,-89.04 323.07,-75.9 302.31,-55 273.18,-25.66 225.24,-15.57 192.52,-12.16"/>
<polygon fill="#63b8ff" stroke="#63b8ff" points="192.74,-8.66 182.47,-11.26 192.13,-15.63 192.74,-8.66"/>
</a>
</g>
</g>
<!-- Node7 -->
<g id="Node000007" class="node">
<title>Node7</title>
<g id="a_Node000007"><a xlink:href="solver__interface_8h.html" target="_top" xlink:title="Interface and wrapper to matrix/factorization (ladel) functions.">
<polygon fill="white" stroke="#666666" points="230.31,-184 92.31,-184 92.31,-165 230.31,-165 230.31,-184"/>
<text text-anchor="middle" x="161.31" y="-172" font-family="Helvetica,sans-Serif" font-size="10.00">qpalm/solver_interface.h</text>
</a>
</g>
</g>
<!-- Node1&#45;&gt;Node7 -->
<g id="edge13_Node000001_Node000007" class="edge">
<title>Node1&#45;&gt;Node7</title>
<g id="a_edge13_Node000001_Node000007"><a xlink:title=" ">
<path fill="none" stroke="#63b8ff" d="M270.58,-274.97C259.14,-262.48 236.81,-238.68 216.31,-220 204.99,-209.69 191.65,-198.87 180.95,-190.48"/>
<polygon fill="#63b8ff" stroke="#63b8ff" points="183.06,-187.69 173.01,-184.33 178.77,-193.22 183.06,-187.69"/>
</a>
</g>
</g>
<!-- Node9 -->
<g id="Node000009" class="node">
<title>Node9</title>
<g id="a_Node000009"><a xlink:title=" ">
<polygon fill="#e0e0e0" stroke="#999999" points="399.31,-239 349.31,-239 349.31,-220 399.31,-220 399.31,-239"/>
<text text-anchor="middle" x="374.31" y="-227" font-family="Helvetica,sans-Serif" font-size="10.00">stdio.h</text>
</a>
</g>
</g>
<!-- Node1&#45;&gt;Node9 -->
<g id="edge14_Node000001_Node000009" class="edge">
<title>Node1&#45;&gt;Node9</title>
<g id="a_edge14_Node000001_Node000009"><a xlink:title=" ">
<path fill="none" stroke="#63b8ff" d="M293.74,-274.98C308.76,-266.69 331.85,-253.94 349.47,-244.22"/>
<polygon fill="#63b8ff" stroke="#63b8ff" points="351.54,-247.07 358.61,-239.17 348.16,-240.94 351.54,-247.07"/>
</a>
</g>
</g>
<!-- Node3 -->
<g id="Node000003" class="node">
<title>Node3</title>
<g id="a_Node000003"><a xlink:href="types_8h.html" target="_top" xlink:title="Internal data structures used in QPALM.">
<polygon fill="white" stroke="#666666" points="90.81,-129 37.81,-129 37.81,-110 90.81,-110 90.81,-129"/>
<text text-anchor="middle" x="64.31" y="-117" font-family="Helvetica,sans-Serif" font-size="10.00">types.h</text>
</a>
</g>
</g>
<!-- Node2&#45;&gt;Node3 -->
<g id="edge2_Node000002_Node000003" class="edge">
<title>Node2&#45;&gt;Node3</title>
<g id="a_edge2_Node000002_Node000003"><a xlink:title=" ">
<path fill="none" stroke="#63b8ff" d="M136.14,-219.89C118.95,-212.79 96.89,-201.09 83.31,-184 73.13,-171.19 68.4,-153.02 66.2,-139.4"/>
<polygon fill="#63b8ff" stroke="#63b8ff" points="69.64,-138.71 64.89,-129.24 62.7,-139.61 69.64,-138.71"/>
</a>
</g>
</g>
<!-- Node2&#45;&gt;Node7 -->
<g id="edge7_Node000002_Node000007" class="edge">
<title>Node2&#45;&gt;Node7</title>
<g id="a_edge7_Node000002_Node000007"><a xlink:title=" ">
<path fill="none" stroke="#63b8ff" d="M161.31,-219.75C161.31,-212.8 161.31,-202.85 161.31,-194.13"/>
<polygon fill="#63b8ff" stroke="#63b8ff" points="164.81,-194.09 161.31,-184.09 157.81,-194.09 164.81,-194.09"/>
</a>
</g>
</g>
<!-- Node4 -->
<g id="Node000004" class="node">
<title>Node4</title>
<g id="a_Node000004"><a xlink:href="global__opts_8h.html" target="_top" xlink:title="Custom memory allocation, print and utility functions, and data types for floats and ints.">
<polygon fill="white" stroke="#666666" points="129.31,-74 13.31,-74 13.31,-55 129.31,-55 129.31,-74"/>
<text text-anchor="middle" x="71.31" y="-62" font-family="Helvetica,sans-Serif" font-size="10.00">qpalm/global_opts.h</text>
</a>
</g>
</g>
<!-- Node3&#45;&gt;Node4 -->
<g id="edge3_Node000003_Node000004" class="edge">
<title>Node3&#45;&gt;Node4</title>
<g id="a_edge3_Node000003_Node000004"><a xlink:title=" ">
<path fill="none" stroke="#63b8ff" d="M65.47,-109.75C66.38,-102.8 67.7,-92.85 68.85,-84.13"/>
<polygon fill="#63b8ff" stroke="#63b8ff" points="72.34,-84.46 70.18,-74.09 65.4,-83.54 72.34,-84.46"/>
</a>
</g>
</g>
<!-- Node3&#45;&gt;Node5 -->
<g id="edge6_Node000003_Node000005" class="edge">
<title>Node3&#45;&gt;Node5</title>
<g id="a_edge6_Node000003_Node000005"><a xlink:title=" ">
<path fill="none" stroke="#63b8ff" d="M45.31,-109.83C22.27,-98.11 -11.62,-76.23 4.31,-55 11.52,-45.4 79.3,-28.36 122.19,-18.38"/>
<polygon fill="#63b8ff" stroke="#63b8ff" points="123.02,-21.78 131.98,-16.13 121.45,-14.96 123.02,-21.78"/>
</a>
</g>
</g>
<!-- Node4&#45;&gt;Node5 -->
<g id="edge4_Node000004_Node000005" class="edge">
<title>Node4&#45;&gt;Node5</title>
<g id="a_edge4_Node000004_Node000005"><a xlink:title=" ">
<path fill="none" stroke="#63b8ff" d="M85.13,-54.98C98.46,-46.77 118.89,-34.18 134.62,-24.49"/>
<polygon fill="#63b8ff" stroke="#63b8ff" points="136.57,-27.4 143.24,-19.17 132.89,-21.44 136.57,-27.4"/>
</a>
</g>
</g>
<!-- Node6 -->
<g id="Node000006" class="node">
<title>Node6</title>
<g id="a_Node000006"><a xlink:title=" ">
<polygon fill="#e0e0e0" stroke="#999999" points="96.81,-19 45.81,-19 45.81,0 96.81,0 96.81,-19"/>
<text text-anchor="middle" x="71.31" y="-7" font-family="Helvetica,sans-Serif" font-size="10.00">math.h</text>
</a>
</g>
</g>
<!-- Node4&#45;&gt;Node6 -->
<g id="edge5_Node000004_Node000006" class="edge">
<title>Node4&#45;&gt;Node6</title>
<g id="a_edge5_Node000004_Node000006"><a xlink:title=" ">
<path fill="none" stroke="#63b8ff" d="M71.31,-54.75C71.31,-47.8 71.31,-37.85 71.31,-29.13"/>
<polygon fill="#63b8ff" stroke="#63b8ff" points="74.81,-29.09 71.31,-19.09 67.81,-29.09 74.81,-29.09"/>
</a>
</g>
</g>
<!-- Node7&#45;&gt;Node3 -->
<g id="edge11_Node000007_Node000003" class="edge">
<title>Node7&#45;&gt;Node3</title>
<g id="a_edge11_Node000007_Node000003"><a xlink:title=" ">
<path fill="none" stroke="#63b8ff" d="M145.73,-164.98C130.54,-156.69 107.21,-143.94 89.41,-134.22"/>
<polygon fill="#63b8ff" stroke="#63b8ff" points="90.63,-130.89 80.18,-129.17 87.28,-137.04 90.63,-130.89"/>
</a>
</g>
</g>
<!-- Node7&#45;&gt;Node4 -->
<g id="edge8_Node000007_Node000004" class="edge">
<title>Node7&#45;&gt;Node4</title>
<g id="a_edge8_Node000007_Node000004"><a xlink:title=" ">
<path fill="none" stroke="#63b8ff" d="M153.95,-164.66C138.91,-146.61 104.46,-105.28 85.12,-82.08"/>
<polygon fill="#63b8ff" stroke="#63b8ff" points="87.62,-79.6 78.53,-74.16 82.24,-84.08 87.62,-79.6"/>
</a>
</g>
</g>
<!-- Node7&#45;&gt;Node5 -->
<g id="edge12_Node000007_Node000005" class="edge">
<title>Node7&#45;&gt;Node5</title>
<g id="a_edge12_Node000007_Node000005"><a xlink:title=" ">
<path fill="none" stroke="#63b8ff" d="M161.1,-164.74C160.47,-139.31 158.65,-65.08 157.78,-29.69"/>
<polygon fill="#63b8ff" stroke="#63b8ff" points="161.27,-29.22 157.53,-19.31 154.27,-29.39 161.27,-29.22"/>
</a>
</g>
</g>
<!-- Node8 -->
<g id="Node000008" class="node">
<title>Node8</title>
<g id="a_Node000008"><a xlink:href="constants_8h.html" target="_top" xlink:title="Constants used in QPALM.">
<polygon fill="white" stroke="#666666" points="292.81,-74 185.81,-74 185.81,-55 292.81,-55 292.81,-74"/>
<text text-anchor="middle" x="239.31" y="-62" font-family="Helvetica,sans-Serif" font-size="10.00">qpalm/constants.h</text>
</a>
</g>
</g>
<!-- Node7&#45;&gt;Node8 -->
<g id="edge9_Node000007_Node000008" class="edge">
<title>Node7&#45;&gt;Node8</title>
<g id="a_edge9_Node000007_Node000008"><a xlink:title=" ">
<path fill="none" stroke="#63b8ff" d="M167.69,-164.66C180.67,-146.69 210.32,-105.64 227.12,-82.38"/>
<polygon fill="#63b8ff" stroke="#63b8ff" points="230.04,-84.31 233.06,-74.16 224.37,-80.22 230.04,-84.31"/>
</a>
</g>
</g>
<!-- Node8&#45;&gt;Node5 -->
<g id="edge10_Node000008_Node000005" class="edge">
<title>Node8&#45;&gt;Node5</title>
<g id="a_edge10_Node000008_Node000005"><a xlink:title=" ">
<path fill="none" stroke="#63b8ff" d="M226.14,-54.98C213.54,-46.84 194.31,-34.41 179.37,-24.76"/>
<polygon fill="#63b8ff" stroke="#63b8ff" points="181.02,-21.66 170.73,-19.17 177.22,-27.54 181.02,-21.66"/>
</a>
</g>
</g>
</g>
</svg>
</svg>

<style type='text/css'>
<![CDATA[
[data-mouse-over-selected='false'] { opacity: 0.7; }
[data-mouse-over-selected='true']  { opacity: 1.0; }
]]>
</style>
<script type="application/ecmascript"><![CDATA[
document.addEventListener('DOMContentLoaded', (event) => {
  highlightEdges();
  highlightAdjacentNodes();
});
]]></script>
</svg>
