<?xml version="1.0" encoding="UTF-8" standalone="no"?>
<!DOCTYPE svg PUBLIC "-//W3C//DTD SVG 1.1//EN"
 "http://www.w3.org/Graphics/SVG/1.1/DTD/svg11.dtd">
<!-- Generated by graphviz version 2.43.0 (0)
 -->
<!-- Title: update_sigma Pages: 1 -->
<svg width="274pt" height="66pt"
 viewBox="0.00 0.00 274.00 66.00" xmlns="http://www.w3.org/2000/svg" xmlns:xlink="http://www.w3.org/1999/xlink">
<g id="graph0" class="graph" transform="scale(1 1) rotate(0) translate(4 62)">
<title>update_sigma</title>
<polygon fill="white" stroke="transparent" points="-4,4 -4,-62 270,-62 270,4 -4,4"/>
<!-- Node1 -->
<g id="node1" class="node">
<title>Node1</title>
<g id="a_node1"><a xlink:title="Update the penalty factors.">
<polygon fill="#bfbfbf" stroke="black" points="0,-19.5 0,-38.5 86,-38.5 86,-19.5 0,-19.5"/>
<text text-anchor="middle" x="43" y="-26.5" font-family="Helvetica,sans-Serif" font-size="10.00">update_sigma</text>
</a>
</g>
</g>
<!-- Node2 -->
<g id="node2" class="node">
<title>Node2</title>
<g id="a_node2"><a xlink:href="solver__interface_8c.html#a759f2a0d608b6cd90863e5871d6f8474" target="_top" xlink:title="Update the &#160;factorization given a set of indexes where &#160;has been updated.">
<polygon fill="white" stroke="black" points="122,-38.5 122,-57.5 266,-57.5 266,-38.5 122,-38.5"/>
<text text-anchor="middle" x="194" y="-45.5" font-family="Helvetica,sans-Serif" font-size="10.00">ldlupdate_sigma_changed</text>
</a>
</g>
</g>
<!-- Node1&#45;&gt;Node2 -->
<g id="edge1" class="edge">
<title>Node1&#45;&gt;Node2</title>
<path fill="none" stroke="midnightblue" d="M86.3,-34.39C94.36,-35.42 103.05,-36.53 111.86,-37.65"/>
<polygon fill="midnightblue" stroke="midnightblue" points="111.48,-41.13 121.84,-38.93 112.36,-34.19 111.48,-41.13"/>
</g>
<!-- Node3 -->
<g id="node3" class="node">
<title>Node3</title>
<g id="a_node3"><a xlink:href="lin__alg_8c.html#ad69e3ef3b7360cd1d6262ee2f32fce83" target="_top" xlink:title="Infinity norm of a vector, .">
<polygon fill="white" stroke="black" points="152.5,-0.5 152.5,-19.5 235.5,-19.5 235.5,-0.5 152.5,-0.5"/>
<text text-anchor="middle" x="194" y="-7.5" font-family="Helvetica,sans-Serif" font-size="10.00">vec_norm_inf</text>
</a>
</g>
</g>
<!-- Node1&#45;&gt;Node3 -->
<g id="edge2" class="edge">
<title>Node1&#45;&gt;Node3</title>
<path fill="none" stroke="midnightblue" d="M86.3,-23.61C103.71,-21.39 124.03,-18.79 142.24,-16.47"/>
<polygon fill="midnightblue" stroke="midnightblue" points="142.92,-19.92 152.39,-15.18 142.03,-12.97 142.92,-19.92"/>
</g>
</g>
</svg>
