<?xml version="1.0" encoding="UTF-8" standalone="no"?>
<!DOCTYPE svg PUBLIC "-//W3C//DTD SVG 1.1//EN"
 "http://www.w3.org/Graphics/SVG/1.1/DTD/svg11.dtd">
<!-- Generated by graphviz version 2.43.0 (0)
 -->
<!-- Title: QPALM/src/iteration.c Pages: 1 -->
<svg width="494pt" height="308pt"
 viewBox="0.00 0.00 493.50 308.00" xmlns="http://www.w3.org/2000/svg" xmlns:xlink="http://www.w3.org/1999/xlink">
<g id="graph0" class="graph" transform="scale(1 1) rotate(0) translate(4 304)">
<title>QPALM/src/iteration.c</title>
<polygon fill="white" stroke="transparent" points="-4,4 -4,-304 489.5,-304 489.5,4 -4,4"/>
<!-- Node1 -->
<g id="node1" class="node">
<title>Node1</title>
<g id="a_node1"><a xlink:title="QPALM main solver routines.">
<polygon fill="#bfbfbf" stroke="black" points="219.5,-280.5 219.5,-299.5 339.5,-299.5 339.5,-280.5 219.5,-280.5"/>
<text text-anchor="middle" x="279.5" y="-287.5" font-family="Helvetica,sans-Serif" font-size="10.00">QPALM/src/iteration.c</text>
</a>
</g>
</g>
<!-- Node2 -->
<g id="node2" class="node">
<title>Node2</title>
<g id="a_node2"><a xlink:href="iteration_8h.html" target="_top" xlink:title="QPALM main solver routines.">
<polygon fill="white" stroke="black" points="0,-168.5 0,-187.5 67,-187.5 67,-168.5 0,-168.5"/>
<text text-anchor="middle" x="33.5" y="-175.5" font-family="Helvetica,sans-Serif" font-size="10.00">iteration.h</text>
</a>
</g>
</g>
<!-- Node1&#45;&gt;Node2 -->
<g id="edge1" class="edge">
<title>Node1&#45;&gt;Node2</title>
<path fill="none" stroke="midnightblue" d="M219.23,-286.06C155.49,-281.57 60.96,-270.53 37.5,-244 26.52,-231.58 26.8,-212.07 29.05,-197.66"/>
<polygon fill="midnightblue" stroke="midnightblue" points="32.49,-198.32 31,-187.83 25.62,-196.96 32.49,-198.32"/>
</g>
<!-- Node5 -->
<g id="node5" class="node">
<title>Node5</title>
<g id="a_node5"><a xlink:title=" ">
<polygon fill="white" stroke="#bfbfbf" points="252.5,-0.5 252.5,-19.5 302.5,-19.5 302.5,-0.5 252.5,-0.5"/>
<text text-anchor="middle" x="277.5" y="-7.5" font-family="Helvetica,sans-Serif" font-size="10.00">ladel.h</text>
</a>
</g>
</g>
<!-- Node1&#45;&gt;Node5 -->
<g id="edge27" class="edge">
<title>Node1&#45;&gt;Node5</title>
<path fill="none" stroke="midnightblue" d="M339.64,-282.45C400.44,-272.1 485.5,-245.69 485.5,-179 485.5,-179 485.5,-179 485.5,-121 485.5,-43.74 371.96,-20.6 312.65,-13.78"/>
<polygon fill="midnightblue" stroke="midnightblue" points="312.9,-10.29 302.59,-12.72 312.17,-17.25 312.9,-10.29"/>
</g>
<!-- Node7 -->
<g id="node7" class="node">
<title>Node7</title>
<g id="a_node7"><a xlink:href="lin__alg_8h.html" target="_top" xlink:title="Linear algebra with vectors.">
<polygon fill="white" stroke="black" points="222.5,-224.5 222.5,-243.5 280.5,-243.5 280.5,-224.5 222.5,-224.5"/>
<text text-anchor="middle" x="251.5" y="-231.5" font-family="Helvetica,sans-Serif" font-size="10.00">lin_alg.h</text>
</a>
</g>
</g>
<!-- Node1&#45;&gt;Node7 -->
<g id="edge8" class="edge">
<title>Node1&#45;&gt;Node7</title>
<path fill="none" stroke="midnightblue" d="M274.88,-280.08C271.04,-272.69 265.48,-261.95 260.74,-252.81"/>
<polygon fill="midnightblue" stroke="midnightblue" points="263.75,-251.02 256.04,-243.75 257.53,-254.24 263.75,-251.02"/>
</g>
<!-- Node8 -->
<g id="node8" class="node">
<title>Node8</title>
<g id="a_node8"><a xlink:href="solver__interface_8h.html" target="_top" xlink:title="Interface and wrapper to matrix/factorization (ladel) functions.">
<polygon fill="white" stroke="black" points="199.5,-168.5 199.5,-187.5 303.5,-187.5 303.5,-168.5 199.5,-168.5"/>
<text text-anchor="middle" x="251.5" y="-175.5" font-family="Helvetica,sans-Serif" font-size="10.00">solver_interface.h</text>
</a>
</g>
</g>
<!-- Node1&#45;&gt;Node8 -->
<g id="edge16" class="edge">
<title>Node1&#45;&gt;Node8</title>
<path fill="none" stroke="midnightblue" d="M283.49,-280.32C288.75,-267.6 296.56,-243.3 289.5,-224 285.44,-212.91 277.31,-202.67 269.61,-194.76"/>
<polygon fill="midnightblue" stroke="midnightblue" points="271.86,-192.07 262.21,-187.7 267.03,-197.14 271.86,-192.07"/>
</g>
<!-- Node10 -->
<g id="node10" class="node">
<title>Node10</title>
<g id="a_node10"><a xlink:href="newton_8h.html" target="_top" xlink:title="Functions to calculate the semismooth Newton direction.">
<polygon fill="white" stroke="black" points="142.5,-224.5 142.5,-243.5 204.5,-243.5 204.5,-224.5 142.5,-224.5"/>
<text text-anchor="middle" x="173.5" y="-231.5" font-family="Helvetica,sans-Serif" font-size="10.00">newton.h</text>
</a>
</g>
</g>
<!-- Node1&#45;&gt;Node10 -->
<g id="edge17" class="edge">
<title>Node1&#45;&gt;Node10</title>
<path fill="none" stroke="midnightblue" d="M262.47,-280.32C245.47,-271.66 219.12,-258.24 199.51,-248.25"/>
<polygon fill="midnightblue" stroke="midnightblue" points="200.99,-245.08 190.49,-243.65 197.81,-251.31 200.99,-245.08"/>
</g>
<!-- Node11 -->
<g id="node11" class="node">
<title>Node11</title>
<g id="a_node11"><a xlink:href="linesearch_8h.html" target="_top" xlink:title="Routines to perform exact linesearch.">
<polygon fill="white" stroke="black" points="381.5,-168.5 381.5,-187.5 457.5,-187.5 457.5,-168.5 381.5,-168.5"/>
<text text-anchor="middle" x="419.5" y="-175.5" font-family="Helvetica,sans-Serif" font-size="10.00">linesearch.h</text>
</a>
</g>
</g>
<!-- Node1&#45;&gt;Node11 -->
<g id="edge19" class="edge">
<title>Node1&#45;&gt;Node11</title>
<path fill="none" stroke="midnightblue" d="M290.49,-280.37C314.31,-261.65 370.94,-217.15 400.62,-193.83"/>
<polygon fill="midnightblue" stroke="midnightblue" points="402.86,-196.52 408.57,-187.59 398.54,-191.02 402.86,-196.52"/>
</g>
<!-- Node12 -->
<g id="node12" class="node">
<title>Node12</title>
<g id="a_node12"><a xlink:href="nonconvex_8h.html" target="_top" xlink:title="Routines to deal with nonconvex QPs.">
<polygon fill="white" stroke="black" points="46,-224.5 46,-243.5 125,-243.5 125,-224.5 46,-224.5"/>
<text text-anchor="middle" x="85.5" y="-231.5" font-family="Helvetica,sans-Serif" font-size="10.00">nonconvex.h</text>
</a>
</g>
</g>
<!-- Node1&#45;&gt;Node12 -->
<g id="edge22" class="edge">
<title>Node1&#45;&gt;Node12</title>
<path fill="none" stroke="midnightblue" d="M248.76,-280.44C215.56,-271.2 162.51,-256.44 125.94,-246.26"/>
<polygon fill="midnightblue" stroke="midnightblue" points="126.67,-242.83 116.1,-243.52 124.79,-249.57 126.67,-242.83"/>
</g>
<!-- Node13 -->
<g id="node13" class="node">
<title>Node13</title>
<g id="a_node13"><a xlink:href="util_8h.html" target="_top" xlink:title="Utility functions.">
<polygon fill="white" stroke="black" points="322,-168.5 322,-187.5 363,-187.5 363,-168.5 322,-168.5"/>
<text text-anchor="middle" x="342.5" y="-175.5" font-family="Helvetica,sans-Serif" font-size="10.00">util.h</text>
</a>
</g>
</g>
<!-- Node1&#45;&gt;Node13 -->
<g id="edge24" class="edge">
<title>Node1&#45;&gt;Node13</title>
<path fill="none" stroke="midnightblue" d="M284.44,-280.37C294.79,-262.3 318.92,-220.18 332.59,-196.31"/>
<polygon fill="midnightblue" stroke="midnightblue" points="335.65,-198.01 337.58,-187.59 329.57,-194.53 335.65,-198.01"/>
</g>
<!-- Node3 -->
<g id="node3" class="node">
<title>Node3</title>
<g id="a_node3"><a xlink:href="types_8h.html" target="_top" xlink:title="Internal data structures used in QPALM.">
<polygon fill="white" stroke="black" points="145,-112.5 145,-131.5 198,-131.5 198,-112.5 145,-112.5"/>
<text text-anchor="middle" x="171.5" y="-119.5" font-family="Helvetica,sans-Serif" font-size="10.00">types.h</text>
</a>
</g>
</g>
<!-- Node2&#45;&gt;Node3 -->
<g id="edge2" class="edge">
<title>Node2&#45;&gt;Node3</title>
<path fill="none" stroke="midnightblue" d="M55.37,-168.44C78.28,-159.48 114.48,-145.31 140.37,-135.18"/>
<polygon fill="midnightblue" stroke="midnightblue" points="141.7,-138.42 149.74,-131.52 139.15,-131.9 141.7,-138.42"/>
</g>
<!-- Node4 -->
<g id="node4" class="node">
<title>Node4</title>
<g id="a_node4"><a xlink:href="global__opts_8h.html" target="_top" xlink:title="Custom memory allocation, print and utility functions, and data types for floats and ints.">
<polygon fill="white" stroke="black" points="129.5,-56.5 129.5,-75.5 211.5,-75.5 211.5,-56.5 129.5,-56.5"/>
<text text-anchor="middle" x="170.5" y="-63.5" font-family="Helvetica,sans-Serif" font-size="10.00">global_opts.h</text>
</a>
</g>
</g>
<!-- Node2&#45;&gt;Node4 -->
<g id="edge7" class="edge">
<title>Node2&#45;&gt;Node4</title>
<path fill="none" stroke="midnightblue" d="M44.25,-168.37C67.46,-149.73 122.51,-105.53 151.65,-82.13"/>
<polygon fill="midnightblue" stroke="midnightblue" points="154.19,-84.58 159.8,-75.59 149.81,-79.12 154.19,-84.58"/>
</g>
<!-- Node3&#45;&gt;Node4 -->
<g id="edge3" class="edge">
<title>Node3&#45;&gt;Node4</title>
<path fill="none" stroke="midnightblue" d="M171.33,-112.08C171.2,-105.01 171.02,-94.86 170.85,-85.99"/>
<polygon fill="midnightblue" stroke="midnightblue" points="174.35,-85.68 170.66,-75.75 167.35,-85.81 174.35,-85.68"/>
</g>
<!-- Node3&#45;&gt;Node5 -->
<g id="edge6" class="edge">
<title>Node3&#45;&gt;Node5</title>
<path fill="none" stroke="midnightblue" d="M181.55,-112.34C191.67,-103.49 207.58,-89.22 220.5,-76 235.99,-60.15 252.57,-40.96 263.84,-27.56"/>
<polygon fill="midnightblue" stroke="midnightblue" points="266.69,-29.6 270.4,-19.68 261.31,-25.12 266.69,-29.6"/>
</g>
<!-- Node4&#45;&gt;Node5 -->
<g id="edge4" class="edge">
<title>Node4&#45;&gt;Node5</title>
<path fill="none" stroke="midnightblue" d="M187.69,-56.32C204.85,-47.66 231.45,-34.24 251.25,-24.25"/>
<polygon fill="midnightblue" stroke="midnightblue" points="253,-27.28 260.35,-19.65 249.85,-21.04 253,-27.28"/>
</g>
<!-- Node6 -->
<g id="node6" class="node">
<title>Node6</title>
<g id="a_node6"><a xlink:title=" ">
<polygon fill="white" stroke="#bfbfbf" points="145,-0.5 145,-19.5 196,-19.5 196,-0.5 145,-0.5"/>
<text text-anchor="middle" x="170.5" y="-7.5" font-family="Helvetica,sans-Serif" font-size="10.00">math.h</text>
</a>
</g>
</g>
<!-- Node4&#45;&gt;Node6 -->
<g id="edge5" class="edge">
<title>Node4&#45;&gt;Node6</title>
<path fill="none" stroke="midnightblue" d="M170.5,-56.08C170.5,-49.01 170.5,-38.86 170.5,-29.99"/>
<polygon fill="midnightblue" stroke="midnightblue" points="174,-29.75 170.5,-19.75 167,-29.75 174,-29.75"/>
</g>
<!-- Node7&#45;&gt;Node3 -->
<g id="edge9" class="edge">
<title>Node7&#45;&gt;Node3</title>
<path fill="none" stroke="midnightblue" d="M234.32,-224.41C220.55,-216.68 201.73,-204.07 190.5,-188 180.93,-174.3 176.13,-155.76 173.75,-141.99"/>
<polygon fill="midnightblue" stroke="midnightblue" points="177.17,-141.15 172.27,-131.76 170.24,-142.15 177.17,-141.15"/>
</g>
<!-- Node7&#45;&gt;Node8 -->
<g id="edge10" class="edge">
<title>Node7&#45;&gt;Node8</title>
<path fill="none" stroke="midnightblue" d="M251.5,-224.08C251.5,-217.01 251.5,-206.86 251.5,-197.99"/>
<polygon fill="midnightblue" stroke="midnightblue" points="255,-197.75 251.5,-187.75 248,-197.75 255,-197.75"/>
</g>
<!-- Node8&#45;&gt;Node3 -->
<g id="edge14" class="edge">
<title>Node8&#45;&gt;Node3</title>
<path fill="none" stroke="midnightblue" d="M238.65,-168.32C226.28,-159.98 207.37,-147.21 192.76,-137.35"/>
<polygon fill="midnightblue" stroke="midnightblue" points="194.57,-134.35 184.32,-131.65 190.65,-140.15 194.57,-134.35"/>
</g>
<!-- Node8&#45;&gt;Node4 -->
<g id="edge11" class="edge">
<title>Node8&#45;&gt;Node4</title>
<path fill="none" stroke="midnightblue" d="M246.05,-168.41C237.97,-155.8 222.18,-131.65 207.5,-112 200.31,-102.38 191.83,-92 184.8,-83.64"/>
<polygon fill="midnightblue" stroke="midnightblue" points="187.26,-81.13 178.12,-75.77 181.93,-85.66 187.26,-81.13"/>
</g>
<!-- Node8&#45;&gt;Node5 -->
<g id="edge15" class="edge">
<title>Node8&#45;&gt;Node5</title>
<path fill="none" stroke="midnightblue" d="M252.9,-168.08C256.99,-141.95 269.01,-65.21 274.59,-29.58"/>
<polygon fill="midnightblue" stroke="midnightblue" points="278.07,-29.99 276.16,-19.57 271.15,-28.91 278.07,-29.99"/>
</g>
<!-- Node9 -->
<g id="node9" class="node">
<title>Node9</title>
<g id="a_node9"><a xlink:href="constants_8h.html" target="_top" xlink:title="Constants used in QPALM.">
<polygon fill="white" stroke="black" points="306,-112.5 306,-131.5 379,-131.5 379,-112.5 306,-112.5"/>
<text text-anchor="middle" x="342.5" y="-119.5" font-family="Helvetica,sans-Serif" font-size="10.00">constants.h</text>
</a>
</g>
</g>
<!-- Node8&#45;&gt;Node9 -->
<g id="edge12" class="edge">
<title>Node8&#45;&gt;Node9</title>
<path fill="none" stroke="midnightblue" d="M266.12,-168.32C280.45,-159.82 302.51,-146.73 319.25,-136.8"/>
<polygon fill="midnightblue" stroke="midnightblue" points="321.1,-139.77 327.92,-131.65 317.53,-133.75 321.1,-139.77"/>
</g>
<!-- Node9&#45;&gt;Node5 -->
<g id="edge13" class="edge">
<title>Node9&#45;&gt;Node5</title>
<path fill="none" stroke="midnightblue" d="M337.4,-112.37C326.72,-94.3 301.83,-52.18 287.73,-28.31"/>
<polygon fill="midnightblue" stroke="midnightblue" points="290.68,-26.42 282.58,-19.59 284.65,-29.98 290.68,-26.42"/>
</g>
<!-- Node10&#45;&gt;Node3 -->
<g id="edge18" class="edge">
<title>Node10&#45;&gt;Node3</title>
<path fill="none" stroke="midnightblue" d="M169.39,-224.28C165.44,-215.38 159.76,-201.07 157.5,-188 154.77,-172.18 159.14,-154.37 163.7,-141.4"/>
<polygon fill="midnightblue" stroke="midnightblue" points="167.07,-142.38 167.42,-131.79 160.54,-139.85 167.07,-142.38"/>
</g>
<!-- Node11&#45;&gt;Node3 -->
<g id="edge20" class="edge">
<title>Node11&#45;&gt;Node3</title>
<path fill="none" stroke="midnightblue" d="M381.29,-168.68C334.18,-158.42 254.65,-141.1 208.22,-131"/>
<polygon fill="midnightblue" stroke="midnightblue" points="208.8,-127.54 198.29,-128.83 207.31,-134.38 208.8,-127.54"/>
</g>
<!-- Node11&#45;&gt;Node9 -->
<g id="edge21" class="edge">
<title>Node11&#45;&gt;Node9</title>
<path fill="none" stroke="midnightblue" d="M407.13,-168.32C395.34,-160.06 377.37,-147.45 363.36,-137.63"/>
<polygon fill="midnightblue" stroke="midnightblue" points="365.04,-134.53 354.84,-131.65 361.02,-140.26 365.04,-134.53"/>
</g>
<!-- Node12&#45;&gt;Node3 -->
<g id="edge23" class="edge">
<title>Node12&#45;&gt;Node3</title>
<path fill="none" stroke="midnightblue" d="M92.25,-224.37C106.5,-206.14 139.89,-163.43 158.46,-139.68"/>
<polygon fill="midnightblue" stroke="midnightblue" points="161.38,-141.63 164.78,-131.59 155.87,-137.31 161.38,-141.63"/>
</g>
<!-- Node13&#45;&gt;Node3 -->
<g id="edge25" class="edge">
<title>Node13&#45;&gt;Node3</title>
<path fill="none" stroke="midnightblue" d="M321.87,-170.49C293.66,-161.58 242.57,-145.44 207.86,-134.48"/>
<polygon fill="midnightblue" stroke="midnightblue" points="208.68,-131.07 198.09,-131.4 206.57,-137.75 208.68,-131.07"/>
</g>
<!-- Node13&#45;&gt;Node9 -->
<g id="edge26" class="edge">
<title>Node13&#45;&gt;Node9</title>
<path fill="none" stroke="midnightblue" d="M342.5,-168.08C342.5,-161.01 342.5,-150.86 342.5,-141.99"/>
<polygon fill="midnightblue" stroke="midnightblue" points="346,-141.75 342.5,-131.75 339,-141.75 346,-141.75"/>
</g>
</g>
</svg>
