<?xml version="1.0" encoding="UTF-8" standalone="no"?>
<!DOCTYPE svg PUBLIC "-//W3C//DTD SVG 1.1//EN"
 "http://www.w3.org/Graphics/SVG/1.1/DTD/svg11.dtd">
<!-- Generated by graphviz version 2.43.0 (0)
 -->
<!-- Title: vec_ew_div Pages: 1 -->
<svg width="573pt" height="78pt"
 viewBox="0.00 0.00 573.00 77.50" xmlns="http://www.w3.org/2000/svg" xmlns:xlink="http://www.w3.org/1999/xlink">
<g id="graph0" class="graph" transform="scale(1 1) rotate(0) translate(4 73.5)">
<title>vec_ew_div</title>
<polygon fill="white" stroke="transparent" points="-4,4 -4,-73.5 569,-73.5 569,4 -4,4"/>
<!-- Node1 -->
<g id="node1" class="node">
<title>Node1</title>
<g id="a_node1"><a xlink:title="Elementwise division, .">
<polygon fill="#bfbfbf" stroke="black" points="491,-28 491,-47 565,-47 565,-28 491,-28"/>
<text text-anchor="middle" x="528" y="-35" font-family="Helvetica,sans-Serif" font-size="10.00">vec_ew_div</text>
</a>
</g>
</g>
<!-- Node2 -->
<g id="node2" class="node">
<title>Node2</title>
<g id="a_node2"><a xlink:href="linesearch_8c.html#a647cabae1574f21e412110765ea1e70d" target="_top" xlink:title="Execute exact linesearch (using qsort)">
<polygon fill="white" stroke="black" points="335.5,-48 335.5,-67 434.5,-67 434.5,-48 335.5,-48"/>
<text text-anchor="middle" x="385" y="-55" font-family="Helvetica,sans-Serif" font-size="10.00">exact_linesearch</text>
</a>
</g>
</g>
<!-- Node1&#45;&gt;Node2 -->
<g id="edge1" class="edge">
<title>Node1&#45;&gt;Node2</title>
<path fill="none" stroke="midnightblue" d="M480.76,-44.06C466,-46.15 449.61,-48.48 434.68,-50.6"/>
<polygon fill="midnightblue" stroke="midnightblue" points="481.28,-47.52 490.69,-42.65 480.3,-40.59 481.28,-47.52"/>
</g>
<!-- Node4 -->
<g id="node4" class="node">
<title>Node4</title>
<g id="a_node4"><a xlink:href="iteration_8c.html#a95e8560aaf51a2c4f68de9b65b0c6a15" target="_top" xlink:title=" ">
<polygon fill="white" stroke="black" points="315,-9 315,-28 455,-28 455,-9 315,-9"/>
<text text-anchor="middle" x="385" y="-16" font-family="Helvetica,sans-Serif" font-size="10.00">update_or_boost_gamma</text>
</a>
</g>
</g>
<!-- Node1&#45;&gt;Node4 -->
<g id="edge3" class="edge">
<title>Node1&#45;&gt;Node4</title>
<path fill="none" stroke="midnightblue" d="M480.61,-31.25C472.41,-30.14 463.72,-28.97 455.05,-27.8"/>
<polygon fill="midnightblue" stroke="midnightblue" points="480.31,-34.74 490.69,-32.61 481.25,-27.8 480.31,-34.74"/>
</g>
<!-- Node3 -->
<g id="node3" class="node">
<title>Node3</title>
<g id="a_node3"><a xlink:href="iteration_8c.html#a9c9fafac9ce099122c5a594762e5a052" target="_top" xlink:title="Update the primal iterate.">
<polygon fill="white" stroke="black" points="152,-50 152,-69 277,-69 277,-50 152,-50"/>
<text text-anchor="middle" x="214.5" y="-57" font-family="Helvetica,sans-Serif" font-size="10.00">update_primal_iterate</text>
</a>
</g>
</g>
<!-- Node2&#45;&gt;Node3 -->
<g id="edge2" class="edge">
<title>Node2&#45;&gt;Node3</title>
<path fill="none" stroke="midnightblue" d="M325.23,-58.2C309.64,-58.38 292.77,-58.58 277.03,-58.77"/>
<polygon fill="midnightblue" stroke="midnightblue" points="325.31,-61.7 335.26,-58.08 325.22,-54.7 325.31,-61.7"/>
</g>
<!-- Node5 -->
<g id="node5" class="node">
<title>Node5</title>
<g id="a_node5"><a xlink:href="iteration_8c.html#a786f2d2af82a141fe3825a3964659d50" target="_top" xlink:title=" ">
<polygon fill="white" stroke="black" points="150,-0.5 150,-30.5 279,-30.5 279,-0.5 150,-0.5"/>
<text text-anchor="start" x="158" y="-18.5" font-family="Helvetica,sans-Serif" font-size="10.00">update_proximal_point</text>
<text text-anchor="middle" x="214.5" y="-7.5" font-family="Helvetica,sans-Serif" font-size="10.00">_and_penalty</text>
</a>
</g>
</g>
<!-- Node4&#45;&gt;Node5 -->
<g id="edge4" class="edge">
<title>Node4&#45;&gt;Node5</title>
<path fill="none" stroke="midnightblue" d="M304.93,-17.09C296.33,-16.94 287.65,-16.78 279.26,-16.64"/>
<polygon fill="midnightblue" stroke="midnightblue" points="304.92,-20.59 314.98,-17.27 305.04,-13.59 304.92,-20.59"/>
</g>
<!-- Node6 -->
<g id="node6" class="node">
<title>Node6</title>
<g id="a_node6"><a xlink:href="iteration_8c.html#a1ad7b6cb4924a8de3378ed35890b02e7" target="_top" xlink:title=" ">
<polygon fill="white" stroke="black" points="0,-0.5 0,-30.5 114,-30.5 114,-0.5 0,-0.5"/>
<text text-anchor="start" x="8" y="-18.5" font-family="Helvetica,sans-Serif" font-size="10.00">update_dual_iterate</text>
<text text-anchor="middle" x="57" y="-7.5" font-family="Helvetica,sans-Serif" font-size="10.00">_and_parameters</text>
</a>
</g>
</g>
<!-- Node5&#45;&gt;Node6 -->
<g id="edge5" class="edge">
<title>Node5&#45;&gt;Node6</title>
<path fill="none" stroke="midnightblue" d="M139.54,-15.5C131.07,-15.5 122.55,-15.5 114.37,-15.5"/>
<polygon fill="midnightblue" stroke="midnightblue" points="139.8,-19 149.8,-15.5 139.8,-12 139.8,-19"/>
</g>
</g>
</svg>
