<?xml version="1.0" encoding="UTF-8" standalone="no"?>
<!DOCTYPE svg PUBLIC "-//W3C//DTD SVG 1.1//EN"
 "http://www.w3.org/Graphics/SVG/1.1/DTD/svg11.dtd">
<!-- Generated by graphviz version 2.43.0 (0)
 -->
<!-- Title: exact_linesearch Pages: 1 -->
<svg width="262pt" height="408pt"
 viewBox="0.00 0.00 262.00 408.00" xmlns="http://www.w3.org/2000/svg" xmlns:xlink="http://www.w3.org/1999/xlink">
<g id="graph0" class="graph" transform="scale(1 1) rotate(0) translate(4 404)">
<title>exact_linesearch</title>
<polygon fill="white" stroke="transparent" points="-4,4 -4,-404 258,-404 258,4 -4,4"/>
<!-- Node1 -->
<g id="node1" class="node">
<title>Node1</title>
<g id="a_node1"><a xlink:title="Execute exact linesearch (using qsort)">
<polygon fill="#bfbfbf" stroke="black" points="0,-190.5 0,-209.5 99,-209.5 99,-190.5 0,-190.5"/>
<text text-anchor="middle" x="49.5" y="-197.5" font-family="Helvetica,sans-Serif" font-size="10.00">exact_linesearch</text>
</a>
</g>
</g>
<!-- Node2 -->
<g id="node2" class="node">
<title>Node2</title>
<g id="a_node2"><a xlink:href="linesearch_8c.html#ac70138609ef6aa6fabca57aca8681e83" target="_top" xlink:title="Helper function for qsort.">
<polygon fill="white" stroke="black" points="165,-380.5 165,-399.5 224,-399.5 224,-380.5 165,-380.5"/>
<text text-anchor="middle" x="194.5" y="-387.5" font-family="Helvetica,sans-Serif" font-size="10.00">compare</text>
</a>
</g>
</g>
<!-- Node1&#45;&gt;Node2 -->
<g id="edge1" class="edge">
<title>Node1&#45;&gt;Node2</title>
<path fill="none" stroke="midnightblue" d="M52.52,-209.76C59.01,-238.77 82.15,-325.3 135,-371 140.72,-375.95 147.75,-379.61 154.93,-382.32"/>
<polygon fill="midnightblue" stroke="midnightblue" points="154.11,-385.73 164.71,-385.46 156.25,-379.07 154.11,-385.73"/>
</g>
<!-- Node3 -->
<g id="node3" class="node">
<title>Node3</title>
<g id="a_node3"><a xlink:href="solver__interface_8c.html#a4824fb035d8cdb8ba46e4ac5c4049d5d" target="_top" xlink:title="Matrix&#45;vector multiplication.">
<polygon fill="white" stroke="black" points="165,-342.5 165,-361.5 224,-361.5 224,-342.5 165,-342.5"/>
<text text-anchor="middle" x="194.5" y="-349.5" font-family="Helvetica,sans-Serif" font-size="10.00">mat_vec</text>
</a>
</g>
</g>
<!-- Node1&#45;&gt;Node3 -->
<g id="edge2" class="edge">
<title>Node1&#45;&gt;Node3</title>
<path fill="none" stroke="midnightblue" d="M53.95,-209.64C63.15,-234.02 90.68,-298.64 135,-333 140.92,-337.59 147.98,-341.09 155.12,-343.75"/>
<polygon fill="midnightblue" stroke="midnightblue" points="154.21,-347.14 164.81,-346.89 156.37,-340.48 154.21,-347.14"/>
</g>
<!-- Node4 -->
<g id="node4" class="node">
<title>Node4</title>
<g id="a_node4"><a xlink:href="lin__alg_8c.html#acf468a60c38fbc58b6de539acb6f0a3b" target="_top" xlink:title="Copy vector a into preallocated vector b.">
<polygon fill="white" stroke="black" points="150,-304.5 150,-323.5 239,-323.5 239,-304.5 150,-304.5"/>
<text text-anchor="middle" x="194.5" y="-311.5" font-family="Helvetica,sans-Serif" font-size="10.00">prea_vec_copy</text>
</a>
</g>
</g>
<!-- Node1&#45;&gt;Node4 -->
<g id="edge3" class="edge">
<title>Node1&#45;&gt;Node4</title>
<path fill="none" stroke="midnightblue" d="M56.47,-209.6C68.8,-228.66 98.97,-271.45 135,-295 138.09,-297.02 141.4,-298.84 144.84,-300.47"/>
<polygon fill="midnightblue" stroke="midnightblue" points="143.53,-303.72 154.1,-304.39 146.26,-297.27 143.53,-303.72"/>
</g>
<!-- Node5 -->
<g id="node5" class="node">
<title>Node5</title>
<g id="a_node5"><a xlink:href="linesearch_8c.html#a33a2554aa831be51296f2dafedd076d4" target="_top" xlink:title="Select subsequence based on a set of indices, .">
<polygon fill="white" stroke="black" points="137,-266.5 137,-285.5 252,-285.5 252,-266.5 137,-266.5"/>
<text text-anchor="middle" x="194.5" y="-273.5" font-family="Helvetica,sans-Serif" font-size="10.00">select_subsequence</text>
</a>
</g>
</g>
<!-- Node1&#45;&gt;Node5 -->
<g id="edge4" class="edge">
<title>Node1&#45;&gt;Node5</title>
<path fill="none" stroke="midnightblue" d="M62.44,-209.64C78.23,-222.02 107.32,-243.5 135,-257 139.39,-259.14 144.07,-261.12 148.81,-262.93"/>
<polygon fill="midnightblue" stroke="midnightblue" points="147.94,-266.34 158.53,-266.41 150.3,-259.75 147.94,-266.34"/>
</g>
<!-- Node6 -->
<g id="node6" class="node">
<title>Node6</title>
<g id="a_node6"><a xlink:href="lin__alg_8c.html#a0fde1aeeea954e43db160ec6e3697cd5" target="_top" xlink:title="Scaled addition of one vector to another vector, .">
<polygon fill="white" stroke="black" points="147.5,-228.5 147.5,-247.5 241.5,-247.5 241.5,-228.5 147.5,-228.5"/>
<text text-anchor="middle" x="194.5" y="-235.5" font-family="Helvetica,sans-Serif" font-size="10.00">vec_add_scaled</text>
</a>
</g>
</g>
<!-- Node1&#45;&gt;Node6 -->
<g id="edge5" class="edge">
<title>Node1&#45;&gt;Node6</title>
<path fill="none" stroke="midnightblue" d="M86.58,-209.59C105.13,-214.52 127.93,-220.57 147.7,-225.83"/>
<polygon fill="midnightblue" stroke="midnightblue" points="146.86,-229.23 157.43,-228.41 148.66,-222.46 146.86,-229.23"/>
</g>
<!-- Node7 -->
<g id="node7" class="node">
<title>Node7</title>
<g id="a_node7"><a xlink:href="linesearch_8c.html#a21cd94f0684dd9e1bfe7236260e9e8d5" target="_top" xlink:title="Helper function to copy vector a in array b (with indices)">
<polygon fill="white" stroke="black" points="148,-190.5 148,-209.5 241,-209.5 241,-190.5 148,-190.5"/>
<text text-anchor="middle" x="194.5" y="-197.5" font-family="Helvetica,sans-Serif" font-size="10.00">vec_array_copy</text>
</a>
</g>
</g>
<!-- Node1&#45;&gt;Node7 -->
<g id="edge6" class="edge">
<title>Node1&#45;&gt;Node7</title>
<path fill="none" stroke="midnightblue" d="M99.31,-200C111.7,-200 125.1,-200 137.8,-200"/>
<polygon fill="midnightblue" stroke="midnightblue" points="137.8,-203.5 147.8,-200 137.8,-196.5 137.8,-203.5"/>
</g>
<!-- Node8 -->
<g id="node8" class="node">
<title>Node8</title>
<g id="a_node8"><a xlink:href="lin__alg_8c.html#a7b3d3b23f9254b8dc1bf53823ef42b42" target="_top" xlink:title="Elementwise division, .">
<polygon fill="white" stroke="black" points="157.5,-152.5 157.5,-171.5 231.5,-171.5 231.5,-152.5 157.5,-152.5"/>
<text text-anchor="middle" x="194.5" y="-159.5" font-family="Helvetica,sans-Serif" font-size="10.00">vec_ew_div</text>
</a>
</g>
</g>
<!-- Node1&#45;&gt;Node8 -->
<g id="edge7" class="edge">
<title>Node1&#45;&gt;Node8</title>
<path fill="none" stroke="midnightblue" d="M86.58,-190.41C105.13,-185.48 127.93,-179.43 147.7,-174.17"/>
<polygon fill="midnightblue" stroke="midnightblue" points="148.66,-177.54 157.43,-171.59 146.86,-170.77 148.66,-177.54"/>
</g>
<!-- Node9 -->
<g id="node9" class="node">
<title>Node9</title>
<g id="a_node9"><a xlink:href="lin__alg_8c.html#ab48ddb2d35dd1a04bd27f06cb49400cb" target="_top" xlink:title="Elementwise product, .">
<polygon fill="white" stroke="black" points="154.5,-114.5 154.5,-133.5 234.5,-133.5 234.5,-114.5 154.5,-114.5"/>
<text text-anchor="middle" x="194.5" y="-121.5" font-family="Helvetica,sans-Serif" font-size="10.00">vec_ew_prod</text>
</a>
</g>
</g>
<!-- Node1&#45;&gt;Node9 -->
<g id="edge8" class="edge">
<title>Node1&#45;&gt;Node9</title>
<path fill="none" stroke="midnightblue" d="M62.44,-190.36C78.23,-177.98 107.32,-156.5 135,-143 139.39,-140.86 144.07,-138.88 148.81,-137.07"/>
<polygon fill="midnightblue" stroke="midnightblue" points="150.3,-140.25 158.53,-133.59 147.94,-133.66 150.3,-140.25"/>
</g>
<!-- Node10 -->
<g id="node10" class="node">
<title>Node10</title>
<g id="a_node10"><a xlink:href="lin__alg_8c.html#ab83e787c2e0edb5803a860b1c894f53d" target="_top" xlink:title="Inner product between two vectors, .">
<polygon fill="white" stroke="black" points="164,-76.5 164,-95.5 225,-95.5 225,-76.5 164,-76.5"/>
<text text-anchor="middle" x="194.5" y="-83.5" font-family="Helvetica,sans-Serif" font-size="10.00">vec_prod</text>
</a>
</g>
</g>
<!-- Node1&#45;&gt;Node10 -->
<g id="edge9" class="edge">
<title>Node1&#45;&gt;Node10</title>
<path fill="none" stroke="midnightblue" d="M56.47,-190.4C68.8,-171.34 98.97,-128.55 135,-105 140.83,-101.19 147.48,-98.09 154.15,-95.59"/>
<polygon fill="midnightblue" stroke="midnightblue" points="155.5,-98.83 163.87,-92.33 153.27,-92.19 155.5,-98.83"/>
</g>
<!-- Node11 -->
<g id="node11" class="node">
<title>Node11</title>
<g id="a_node11"><a xlink:href="linesearch_8c.html#ac4bdfc80a644d8c75a672963c7682af9" target="_top" xlink:title="Inner product over index set, .">
<polygon fill="white" stroke="black" points="154,-38.5 154,-57.5 235,-57.5 235,-38.5 154,-38.5"/>
<text text-anchor="middle" x="194.5" y="-45.5" font-family="Helvetica,sans-Serif" font-size="10.00">vec_prod_ind</text>
</a>
</g>
</g>
<!-- Node1&#45;&gt;Node11 -->
<g id="edge10" class="edge">
<title>Node1&#45;&gt;Node11</title>
<path fill="none" stroke="midnightblue" d="M53.95,-190.36C63.15,-165.98 90.68,-101.36 135,-67 137.96,-64.71 141.21,-62.68 144.6,-60.9"/>
<polygon fill="midnightblue" stroke="midnightblue" points="146.19,-64.03 153.87,-56.73 143.31,-57.65 146.19,-64.03"/>
</g>
<!-- Node12 -->
<g id="node12" class="node">
<title>Node12</title>
<g id="a_node12"><a xlink:href="lin__alg_8c.html#a932b289ad07aea70e64b417ef9160674" target="_top" xlink:title="Mulitply vector with a constant scale factor.">
<polygon fill="white" stroke="black" points="135,-0.5 135,-19.5 254,-19.5 254,-0.5 135,-0.5"/>
<text text-anchor="middle" x="194.5" y="-7.5" font-family="Helvetica,sans-Serif" font-size="10.00">vec_self_mult_scalar</text>
</a>
</g>
</g>
<!-- Node1&#45;&gt;Node12 -->
<g id="edge11" class="edge">
<title>Node1&#45;&gt;Node12</title>
<path fill="none" stroke="midnightblue" d="M52.52,-190.24C59.01,-161.23 82.15,-74.7 135,-29 136.98,-27.29 139.12,-25.73 141.36,-24.31"/>
<polygon fill="midnightblue" stroke="midnightblue" points="143.25,-27.27 150.46,-19.51 139.98,-21.08 143.25,-27.27"/>
</g>
</g>
</svg>
