<?xml version="1.0" encoding="UTF-8" standalone="no"?>
<!DOCTYPE svg PUBLIC "-//W3C//DTD SVG 1.1//EN"
 "http://www.w3.org/Graphics/SVG/1.1/DTD/svg11.dtd">
<!-- Generated by graphviz version 2.43.0 (0)
 -->
<!-- Title: set_active_constraints Pages: 1 -->
<svg width="625pt" height="78pt"
 viewBox="0.00 0.00 625.00 77.50" xmlns="http://www.w3.org/2000/svg" xmlns:xlink="http://www.w3.org/1999/xlink">
<g id="graph0" class="graph" transform="scale(1 1) rotate(0) translate(4 73.5)">
<title>set_active_constraints</title>
<polygon fill="white" stroke="transparent" points="-4,4 -4,-73.5 621,-73.5 621,4 -4,4"/>
<!-- Node1 -->
<g id="node1" class="node">
<title>Node1</title>
<g id="a_node1"><a xlink:title="Computes the set of active constraints and stores it in work&#45;&gt;solver&#45;&gt;active_constraints.">
<polygon fill="#bfbfbf" stroke="black" points="491,-28 491,-47 617,-47 617,-28 491,-28"/>
<text text-anchor="middle" x="554" y="-35" font-family="Helvetica,sans-Serif" font-size="10.00">set_active_constraints</text>
</a>
</g>
</g>
<!-- Node2 -->
<g id="node2" class="node">
<title>Node2</title>
<g id="a_node2"><a xlink:href="newton_8c.html#af1654e5597faac8b0ade25acf1fc1bc9" target="_top" xlink:title="Sets work&#45;&gt;d to the direction calculated by the semismooth Newton method.">
<polygon fill="white" stroke="black" points="324.5,-48 324.5,-67 445.5,-67 445.5,-48 324.5,-48"/>
<text text-anchor="middle" x="385" y="-55" font-family="Helvetica,sans-Serif" font-size="10.00">newton_set_direction</text>
</a>
</g>
</g>
<!-- Node1&#45;&gt;Node2 -->
<g id="edge1" class="edge">
<title>Node1&#45;&gt;Node2</title>
<path fill="none" stroke="midnightblue" d="M480.67,-46.16C469.01,-47.56 457.06,-48.99 445.74,-50.35"/>
<polygon fill="midnightblue" stroke="midnightblue" points="481.3,-49.61 490.82,-44.95 480.47,-42.66 481.3,-49.61"/>
</g>
<!-- Node4 -->
<g id="node4" class="node">
<title>Node4</title>
<g id="a_node4"><a xlink:href="iteration_8c.html#a95e8560aaf51a2c4f68de9b65b0c6a15" target="_top" xlink:title=" ">
<polygon fill="white" stroke="black" points="315,-9 315,-28 455,-28 455,-9 315,-9"/>
<text text-anchor="middle" x="385" y="-16" font-family="Helvetica,sans-Serif" font-size="10.00">update_or_boost_gamma</text>
</a>
</g>
</g>
<!-- Node1&#45;&gt;Node4 -->
<g id="edge3" class="edge">
<title>Node1&#45;&gt;Node4</title>
<path fill="none" stroke="midnightblue" d="M480.64,-29.27C472.21,-28.31 463.64,-27.33 455.26,-26.38"/>
<polygon fill="midnightblue" stroke="midnightblue" points="480.48,-32.77 490.82,-30.43 481.28,-25.82 480.48,-32.77"/>
</g>
<!-- Node3 -->
<g id="node3" class="node">
<title>Node3</title>
<g id="a_node3"><a xlink:href="iteration_8c.html#a9c9fafac9ce099122c5a594762e5a052" target="_top" xlink:title="Update the primal iterate.">
<polygon fill="white" stroke="black" points="152,-50 152,-69 277,-69 277,-50 152,-50"/>
<text text-anchor="middle" x="214.5" y="-57" font-family="Helvetica,sans-Serif" font-size="10.00">update_primal_iterate</text>
</a>
</g>
</g>
<!-- Node2&#45;&gt;Node3 -->
<g id="edge2" class="edge">
<title>Node2&#45;&gt;Node3</title>
<path fill="none" stroke="midnightblue" d="M313.98,-58.33C301.77,-58.48 289.15,-58.63 277.18,-58.77"/>
<polygon fill="midnightblue" stroke="midnightblue" points="314.16,-61.83 324.12,-58.21 314.08,-54.83 314.16,-61.83"/>
</g>
<!-- Node5 -->
<g id="node5" class="node">
<title>Node5</title>
<g id="a_node5"><a xlink:href="iteration_8c.html#a786f2d2af82a141fe3825a3964659d50" target="_top" xlink:title=" ">
<polygon fill="white" stroke="black" points="150,-0.5 150,-30.5 279,-30.5 279,-0.5 150,-0.5"/>
<text text-anchor="start" x="158" y="-18.5" font-family="Helvetica,sans-Serif" font-size="10.00">update_proximal_point</text>
<text text-anchor="middle" x="214.5" y="-7.5" font-family="Helvetica,sans-Serif" font-size="10.00">_and_penalty</text>
</a>
</g>
</g>
<!-- Node4&#45;&gt;Node5 -->
<g id="edge4" class="edge">
<title>Node4&#45;&gt;Node5</title>
<path fill="none" stroke="midnightblue" d="M304.93,-17.09C296.33,-16.94 287.65,-16.78 279.26,-16.64"/>
<polygon fill="midnightblue" stroke="midnightblue" points="304.92,-20.59 314.98,-17.27 305.04,-13.59 304.92,-20.59"/>
</g>
<!-- Node6 -->
<g id="node6" class="node">
<title>Node6</title>
<g id="a_node6"><a xlink:href="iteration_8c.html#a1ad7b6cb4924a8de3378ed35890b02e7" target="_top" xlink:title=" ">
<polygon fill="white" stroke="black" points="0,-0.5 0,-30.5 114,-30.5 114,-0.5 0,-0.5"/>
<text text-anchor="start" x="8" y="-18.5" font-family="Helvetica,sans-Serif" font-size="10.00">update_dual_iterate</text>
<text text-anchor="middle" x="57" y="-7.5" font-family="Helvetica,sans-Serif" font-size="10.00">_and_parameters</text>
</a>
</g>
</g>
<!-- Node5&#45;&gt;Node6 -->
<g id="edge5" class="edge">
<title>Node5&#45;&gt;Node6</title>
<path fill="none" stroke="midnightblue" d="M139.54,-15.5C131.07,-15.5 122.55,-15.5 114.37,-15.5"/>
<polygon fill="midnightblue" stroke="midnightblue" points="139.8,-19 149.8,-15.5 139.8,-12 139.8,-19"/>
</g>
</g>
</svg>
