<?xml version="1.0" encoding="UTF-8" standalone="no"?>
<!DOCTYPE svg PUBLIC "-//W3C//DTD SVG 1.1//EN"
 "http://www.w3.org/Graphics/SVG/1.1/DTD/svg11.dtd">
<!-- Generated by graphviz version 2.43.0 (0)
 -->
<!-- Title: QPALM/include/nonconvex.h Pages: 1 -->
<svg width="162pt" height="196pt"
 viewBox="0.00 0.00 162.00 196.00" xmlns="http://www.w3.org/2000/svg" xmlns:xlink="http://www.w3.org/1999/xlink">
<g id="graph0" class="graph" transform="scale(1 1) rotate(0) translate(4 192)">
<title>QPALM/include/nonconvex.h</title>
<polygon fill="white" stroke="transparent" points="-4,4 -4,-192 158,-192 158,4 -4,4"/>
<!-- Node1 -->
<g id="node1" class="node">
<title>Node1</title>
<g id="a_node1"><a xlink:title="Routines to deal with nonconvex QPs.">
<polygon fill="#bfbfbf" stroke="black" points="0,-168.5 0,-187.5 154,-187.5 154,-168.5 0,-168.5"/>
<text text-anchor="middle" x="77" y="-175.5" font-family="Helvetica,sans-Serif" font-size="10.00">QPALM/include/nonconvex.h</text>
</a>
</g>
</g>
<!-- Node2 -->
<g id="node2" class="node">
<title>Node2</title>
<g id="a_node2"><a xlink:href="types_8h.html" target="_top" xlink:title="Internal data structures used in QPALM.">
<polygon fill="white" stroke="black" points="50.5,-112.5 50.5,-131.5 103.5,-131.5 103.5,-112.5 50.5,-112.5"/>
<text text-anchor="middle" x="77" y="-119.5" font-family="Helvetica,sans-Serif" font-size="10.00">types.h</text>
</a>
</g>
</g>
<!-- Node1&#45;&gt;Node2 -->
<g id="edge1" class="edge">
<title>Node1&#45;&gt;Node2</title>
<path fill="none" stroke="midnightblue" d="M77,-168.08C77,-161.01 77,-150.86 77,-141.99"/>
<polygon fill="midnightblue" stroke="midnightblue" points="80.5,-141.75 77,-131.75 73.5,-141.75 80.5,-141.75"/>
</g>
<!-- Node3 -->
<g id="node3" class="node">
<title>Node3</title>
<g id="a_node3"><a xlink:href="global__opts_8h.html" target="_top" xlink:title="Custom memory allocation, print and utility functions, and data types for floats and ints.">
<polygon fill="white" stroke="black" points="71,-56.5 71,-75.5 153,-75.5 153,-56.5 71,-56.5"/>
<text text-anchor="middle" x="112" y="-63.5" font-family="Helvetica,sans-Serif" font-size="10.00">global_opts.h</text>
</a>
</g>
</g>
<!-- Node2&#45;&gt;Node3 -->
<g id="edge2" class="edge">
<title>Node2&#45;&gt;Node3</title>
<path fill="none" stroke="midnightblue" d="M82.78,-112.08C87.67,-104.53 94.83,-93.49 100.83,-84.23"/>
<polygon fill="midnightblue" stroke="midnightblue" points="103.83,-86.05 106.33,-75.75 97.95,-82.24 103.83,-86.05"/>
</g>
<!-- Node4 -->
<g id="node4" class="node">
<title>Node4</title>
<g id="a_node4"><a xlink:title=" ">
<polygon fill="white" stroke="#bfbfbf" points="18,-0.5 18,-19.5 68,-19.5 68,-0.5 18,-0.5"/>
<text text-anchor="middle" x="43" y="-7.5" font-family="Helvetica,sans-Serif" font-size="10.00">ladel.h</text>
</a>
</g>
</g>
<!-- Node2&#45;&gt;Node4 -->
<g id="edge5" class="edge">
<title>Node2&#45;&gt;Node4</title>
<path fill="none" stroke="midnightblue" d="M74.03,-112.4C70.93,-103.37 65.98,-88.73 62,-76 57.12,-60.4 51.94,-42.56 48.22,-29.53"/>
<polygon fill="midnightblue" stroke="midnightblue" points="51.57,-28.53 45.48,-19.86 44.84,-30.44 51.57,-28.53"/>
</g>
<!-- Node3&#45;&gt;Node4 -->
<g id="edge3" class="edge">
<title>Node3&#45;&gt;Node4</title>
<path fill="none" stroke="midnightblue" d="M100.91,-56.32C90.51,-48.18 74.74,-35.84 62.28,-26.09"/>
<polygon fill="midnightblue" stroke="midnightblue" points="64.32,-23.24 54.29,-19.83 60.01,-28.75 64.32,-23.24"/>
</g>
<!-- Node5 -->
<g id="node5" class="node">
<title>Node5</title>
<g id="a_node5"><a xlink:title=" ">
<polygon fill="white" stroke="#bfbfbf" points="86.5,-0.5 86.5,-19.5 137.5,-19.5 137.5,-0.5 86.5,-0.5"/>
<text text-anchor="middle" x="112" y="-7.5" font-family="Helvetica,sans-Serif" font-size="10.00">math.h</text>
</a>
</g>
</g>
<!-- Node3&#45;&gt;Node5 -->
<g id="edge4" class="edge">
<title>Node3&#45;&gt;Node5</title>
<path fill="none" stroke="midnightblue" d="M112,-56.08C112,-49.01 112,-38.86 112,-29.99"/>
<polygon fill="midnightblue" stroke="midnightblue" points="115.5,-29.75 112,-19.75 108.5,-29.75 115.5,-29.75"/>
</g>
</g>
</svg>
