<?xml version="1.0" encoding="UTF-8" standalone="no"?>
<!DOCTYPE svg PUBLIC "-//W3C//DTD SVG 1.1//EN"
 "http://www.w3.org/Graphics/SVG/1.1/DTD/svg11.dtd">
<!-- Generated by graphviz version 2.43.0 (0)
 -->
<!-- Title: QPALM/src/qpalm.c Pages: 1 -->
<svg width="1020pt" height="420pt"
 viewBox="0.00 0.00 1020.00 420.00" xmlns="http://www.w3.org/2000/svg" xmlns:xlink="http://www.w3.org/1999/xlink">
<g id="graph0" class="graph" transform="scale(1 1) rotate(0) translate(4 416)">
<title>QPALM/src/qpalm.c</title>
<polygon fill="white" stroke="transparent" points="-4,4 -4,-416 1016,-416 1016,4 -4,4"/>
<!-- Node1 -->
<g id="node1" class="node">
<title>Node1</title>
<g id="a_node1"><a xlink:title="QPALM main solver API.">
<polygon fill="#bfbfbf" stroke="black" points="437,-392.5 437,-411.5 547,-411.5 547,-392.5 437,-392.5"/>
<text text-anchor="middle" x="492" y="-399.5" font-family="Helvetica,sans-Serif" font-size="10.00">QPALM/src/qpalm.c</text>
</a>
</g>
</g>
<!-- Node2 -->
<g id="node2" class="node">
<title>Node2</title>
<g id="a_node2"><a xlink:href="qpalm_8h.html" target="_top" xlink:title="QPALM main solver API.">
<polygon fill="white" stroke="black" points="493,-336.5 493,-355.5 549,-355.5 549,-336.5 493,-336.5"/>
<text text-anchor="middle" x="521" y="-343.5" font-family="Helvetica,sans-Serif" font-size="10.00">qpalm.h</text>
</a>
</g>
</g>
<!-- Node1&#45;&gt;Node2 -->
<g id="edge1" class="edge">
<title>Node1&#45;&gt;Node2</title>
<path fill="none" stroke="midnightblue" d="M496.79,-392.08C500.76,-384.69 506.53,-373.95 511.43,-364.81"/>
<polygon fill="midnightblue" stroke="midnightblue" points="514.65,-366.22 516.3,-355.75 508.49,-362.91 514.65,-366.22"/>
</g>
<!-- Node3 -->
<g id="node3" class="node">
<title>Node3</title>
<g id="a_node3"><a xlink:href="constants_8h.html" target="_top" xlink:title="Constants used in QPALM.">
<polygon fill="white" stroke="black" points="145.5,-112.5 145.5,-131.5 218.5,-131.5 218.5,-112.5 145.5,-112.5"/>
<text text-anchor="middle" x="182" y="-119.5" font-family="Helvetica,sans-Serif" font-size="10.00">constants.h</text>
</a>
</g>
</g>
<!-- Node1&#45;&gt;Node3 -->
<g id="edge40" class="edge">
<title>Node1&#45;&gt;Node3</title>
<path fill="none" stroke="midnightblue" d="M436.78,-399.17C315.79,-393.67 38,-372.2 38,-291 38,-291 38,-291 38,-233 38,-180.76 98.59,-150.01 141.17,-134.85"/>
<polygon fill="midnightblue" stroke="midnightblue" points="142.41,-138.12 150.75,-131.58 140.16,-131.49 142.41,-138.12"/>
</g>
<!-- Node4 -->
<g id="node4" class="node">
<title>Node4</title>
<g id="a_node4"><a xlink:title=" ">
<polygon fill="white" stroke="#bfbfbf" points="341,-0.5 341,-19.5 391,-19.5 391,-0.5 341,-0.5"/>
<text text-anchor="middle" x="366" y="-7.5" font-family="Helvetica,sans-Serif" font-size="10.00">ladel.h</text>
</a>
</g>
</g>
<!-- Node1&#45;&gt;Node4 -->
<g id="edge51" class="edge">
<title>Node1&#45;&gt;Node4</title>
<path fill="none" stroke="midnightblue" d="M436.88,-399.3C338.26,-395.57 135.93,-384.59 72,-356 32.65,-338.4 0,-334.11 0,-291 0,-291 0,-291 0,-121 0,-52.39 238.86,-22.84 330.66,-14.02"/>
<polygon fill="midnightblue" stroke="midnightblue" points="331.21,-17.49 340.84,-13.07 330.56,-10.52 331.21,-17.49"/>
</g>
<!-- Node5 -->
<g id="node5" class="node">
<title>Node5</title>
<g id="a_node5"><a xlink:href="global__opts_8h.html" target="_top" xlink:title="Custom memory allocation, print and utility functions, and data types for floats and ints.">
<polygon fill="white" stroke="black" points="527,-56.5 527,-75.5 609,-75.5 609,-56.5 527,-56.5"/>
<text text-anchor="middle" x="568" y="-63.5" font-family="Helvetica,sans-Serif" font-size="10.00">global_opts.h</text>
</a>
</g>
</g>
<!-- Node1&#45;&gt;Node5 -->
<g id="edge39" class="edge">
<title>Node1&#45;&gt;Node5</title>
<path fill="none" stroke="midnightblue" d="M547.16,-400.88C680.99,-399.12 1012,-385.24 1012,-291 1012,-291 1012,-291 1012,-177 1012,-96.93 736.48,-74.75 619.52,-68.94"/>
<polygon fill="midnightblue" stroke="midnightblue" points="619.53,-65.44 609.37,-68.46 619.19,-72.43 619.53,-65.44"/>
</g>
<!-- Node7 -->
<g id="node7" class="node">
<title>Node7</title>
<g id="a_node7"><a xlink:href="iteration_8h.html" target="_top" xlink:title="QPALM main solver routines.">
<polygon fill="white" stroke="black" points="847.5,-224.5 847.5,-243.5 914.5,-243.5 914.5,-224.5 847.5,-224.5"/>
<text text-anchor="middle" x="881" y="-231.5" font-family="Helvetica,sans-Serif" font-size="10.00">iteration.h</text>
</a>
</g>
</g>
<!-- Node1&#45;&gt;Node7 -->
<g id="edge50" class="edge">
<title>Node1&#45;&gt;Node7</title>
<path fill="none" stroke="midnightblue" d="M547.41,-397C655.38,-387.91 887.36,-361.5 933,-300 946.29,-282.09 924.65,-262.14 905.37,-249.13"/>
<polygon fill="midnightblue" stroke="midnightblue" points="907.12,-246.1 896.81,-243.67 903.36,-252 907.12,-246.1"/>
</g>
<!-- Node9 -->
<g id="node9" class="node">
<title>Node9</title>
<g id="a_node9"><a xlink:href="lin__alg_8h.html" target="_top" xlink:title="Linear algebra with vectors.">
<polygon fill="white" stroke="black" points="474,-224.5 474,-243.5 532,-243.5 532,-224.5 474,-224.5"/>
<text text-anchor="middle" x="503" y="-231.5" font-family="Helvetica,sans-Serif" font-size="10.00">lin_alg.h</text>
</a>
</g>
</g>
<!-- Node1&#45;&gt;Node9 -->
<g id="edge42" class="edge">
<title>Node1&#45;&gt;Node9</title>
<path fill="none" stroke="midnightblue" d="M514.46,-392.38C529.77,-385.18 548.86,-373.29 558,-356 577.39,-319.32 542.41,-274.47 519.87,-251.03"/>
<polygon fill="midnightblue" stroke="midnightblue" points="522.07,-248.28 512.53,-243.68 517.12,-253.23 522.07,-248.28"/>
</g>
<!-- Node10 -->
<g id="node10" class="node">
<title>Node10</title>
<g id="a_node10"><a xlink:href="solver__interface_8h.html" target="_top" xlink:title="Interface and wrapper to matrix/factorization (ladel) functions.">
<polygon fill="white" stroke="black" points="314,-168.5 314,-187.5 418,-187.5 418,-168.5 314,-168.5"/>
<text text-anchor="middle" x="366" y="-175.5" font-family="Helvetica,sans-Serif" font-size="10.00">solver_interface.h</text>
</a>
</g>
</g>
<!-- Node1&#45;&gt;Node10 -->
<g id="edge47" class="edge">
<title>Node1&#45;&gt;Node10</title>
<path fill="none" stroke="midnightblue" d="M442.71,-392.4C393.26,-380.85 319.72,-355.01 286,-300 262.04,-260.92 312.6,-216.24 343.82,-193.68"/>
<polygon fill="midnightblue" stroke="midnightblue" points="346.22,-196.27 352.41,-187.67 342.21,-190.54 346.22,-196.27"/>
</g>
<!-- Node11 -->
<g id="node11" class="node">
<title>Node11</title>
<g id="a_node11"><a xlink:href="linesearch_8h.html" target="_top" xlink:title="Routines to perform exact linesearch.">
<polygon fill="white" stroke="black" points="144,-168.5 144,-187.5 220,-187.5 220,-168.5 144,-168.5"/>
<text text-anchor="middle" x="182" y="-175.5" font-family="Helvetica,sans-Serif" font-size="10.00">linesearch.h</text>
</a>
</g>
</g>
<!-- Node1&#45;&gt;Node11 -->
<g id="edge45" class="edge">
<title>Node1&#45;&gt;Node11</title>
<path fill="none" stroke="midnightblue" d="M436.81,-396.96C366.74,-391 250.56,-378.11 214,-356 161.65,-324.35 151.97,-302.47 134,-244 131.39,-235.5 130.47,-232.16 134,-224 139.27,-211.84 149.62,-201.46 159.36,-193.74"/>
<polygon fill="midnightblue" stroke="midnightblue" points="161.64,-196.41 167.63,-187.67 157.5,-190.77 161.64,-196.41"/>
</g>
<!-- Node12 -->
<g id="node12" class="node">
<title>Node12</title>
<g id="a_node12"><a xlink:href="newton_8h.html" target="_top" xlink:title="Functions to calculate the semismooth Newton direction.">
<polygon fill="white" stroke="black" points="748,-280.5 748,-299.5 810,-299.5 810,-280.5 748,-280.5"/>
<text text-anchor="middle" x="779" y="-287.5" font-family="Helvetica,sans-Serif" font-size="10.00">newton.h</text>
</a>
</g>
</g>
<!-- Node1&#45;&gt;Node12 -->
<g id="edge48" class="edge">
<title>Node1&#45;&gt;Node12</title>
<path fill="none" stroke="midnightblue" d="M544.77,-392.47C581.87,-385.39 632.15,-373.61 674,-356 705.84,-342.6 739.21,-320.31 759.55,-305.64"/>
<polygon fill="midnightblue" stroke="midnightblue" points="761.69,-308.41 767.69,-299.68 757.55,-302.77 761.69,-308.41"/>
</g>
<!-- Node13 -->
<g id="node13" class="node">
<title>Node13</title>
<g id="a_node13"><a xlink:href="nonconvex_8h.html" target="_top" xlink:title="Routines to deal with nonconvex QPs.">
<polygon fill="white" stroke="black" points="828.5,-280.5 828.5,-299.5 907.5,-299.5 907.5,-280.5 828.5,-280.5"/>
<text text-anchor="middle" x="868" y="-287.5" font-family="Helvetica,sans-Serif" font-size="10.00">nonconvex.h</text>
</a>
</g>
</g>
<!-- Node1&#45;&gt;Node13 -->
<g id="edge49" class="edge">
<title>Node1&#45;&gt;Node13</title>
<path fill="none" stroke="midnightblue" d="M545.68,-392.49C589.58,-384.89 653,-372.41 707,-356 754.89,-341.45 808.38,-318.43 840.06,-304.05"/>
<polygon fill="midnightblue" stroke="midnightblue" points="841.92,-307.05 849.55,-299.71 839,-300.69 841.92,-307.05"/>
</g>
<!-- Node14 -->
<g id="node14" class="node">
<title>Node14</title>
<g id="a_node14"><a xlink:href="scaling_8h.html" target="_top" xlink:title="Problem data scaling during setup.">
<polygon fill="white" stroke="black" points="434,-280.5 434,-299.5 494,-299.5 494,-280.5 434,-280.5"/>
<text text-anchor="middle" x="464" y="-287.5" font-family="Helvetica,sans-Serif" font-size="10.00">scaling.h</text>
</a>
</g>
</g>
<!-- Node1&#45;&gt;Node14 -->
<g id="edge44" class="edge">
<title>Node1&#45;&gt;Node14</title>
<path fill="none" stroke="midnightblue" d="M489.8,-392.37C485.28,-374.62 474.86,-333.67 468.73,-309.6"/>
<polygon fill="midnightblue" stroke="midnightblue" points="472.05,-308.42 466.19,-299.59 465.26,-310.15 472.05,-308.42"/>
</g>
<!-- Node15 -->
<g id="node15" class="node">
<title>Node15</title>
<g id="a_node15"><a xlink:href="termination_8h.html" target="_top" xlink:title="Routines to check the termination and infeasibility criteria.">
<polygon fill="white" stroke="black" points="294.5,-280.5 294.5,-299.5 377.5,-299.5 377.5,-280.5 294.5,-280.5"/>
<text text-anchor="middle" x="336" y="-287.5" font-family="Helvetica,sans-Serif" font-size="10.00">termination.h</text>
</a>
</g>
</g>
<!-- Node1&#45;&gt;Node15 -->
<g id="edge46" class="edge">
<title>Node1&#45;&gt;Node15</title>
<path fill="none" stroke="midnightblue" d="M479.76,-392.37C453.1,-373.57 389.56,-328.77 356.61,-305.53"/>
<polygon fill="midnightblue" stroke="midnightblue" points="358.37,-302.49 348.18,-299.59 354.34,-308.21 358.37,-302.49"/>
</g>
<!-- Node16 -->
<g id="node16" class="node">
<title>Node16</title>
<g id="a_node16"><a xlink:href="util_8h.html" target="_top" xlink:title="Utility functions.">
<polygon fill="white" stroke="black" points="142.5,-224.5 142.5,-243.5 183.5,-243.5 183.5,-224.5 142.5,-224.5"/>
<text text-anchor="middle" x="163" y="-231.5" font-family="Helvetica,sans-Serif" font-size="10.00">util.h</text>
</a>
</g>
</g>
<!-- Node1&#45;&gt;Node16 -->
<g id="edge43" class="edge">
<title>Node1&#45;&gt;Node16</title>
<path fill="none" stroke="midnightblue" d="M436.57,-398.77C386.22,-394.9 311.03,-384.39 252,-356 217.64,-339.47 208.74,-331.33 187,-300 177.15,-285.81 170.8,-267.08 167.12,-253.38"/>
<polygon fill="midnightblue" stroke="midnightblue" points="170.51,-252.52 164.73,-243.64 163.72,-254.19 170.51,-252.52"/>
</g>
<!-- Node17 -->
<g id="node17" class="node">
<title>Node17</title>
<g id="a_node17"><a xlink:href="validate_8h.html" target="_top" xlink:title="Validation of the user provided settings and data.">
<polygon fill="white" stroke="black" points="664.5,-280.5 664.5,-299.5 729.5,-299.5 729.5,-280.5 664.5,-280.5"/>
<text text-anchor="middle" x="697" y="-287.5" font-family="Helvetica,sans-Serif" font-size="10.00">validate.h</text>
</a>
</g>
</g>
<!-- Node1&#45;&gt;Node17 -->
<g id="edge41" class="edge">
<title>Node1&#45;&gt;Node17</title>
<path fill="none" stroke="midnightblue" d="M547.08,-394.49C579.36,-388.55 619.63,-377.27 650,-356 667.24,-343.92 680.5,-323.45 688.48,-308.71"/>
<polygon fill="midnightblue" stroke="midnightblue" points="691.7,-310.09 693.14,-299.59 685.47,-306.9 691.7,-310.09"/>
</g>
<!-- Node2&#45;&gt;Node3 -->
<g id="edge2" class="edge">
<title>Node2&#45;&gt;Node3</title>
<path fill="none" stroke="midnightblue" d="M492.87,-343.61C422.44,-339.75 240.38,-327.34 187,-300 129.81,-270.7 100.74,-226.19 128,-168 134.04,-155.09 145.81,-144.6 156.82,-137"/>
<polygon fill="midnightblue" stroke="midnightblue" points="158.83,-139.87 165.37,-131.54 155.06,-133.97 158.83,-139.87"/>
</g>
<!-- Node2&#45;&gt;Node5 -->
<g id="edge4" class="edge">
<title>Node2&#45;&gt;Node5</title>
<path fill="none" stroke="midnightblue" d="M527.47,-336.19C533.53,-327.46 542.34,-313.47 547,-300 573.27,-224.02 571.47,-126.25 569.3,-85.8"/>
<polygon fill="midnightblue" stroke="midnightblue" points="572.79,-85.54 568.69,-75.78 565.81,-85.97 572.79,-85.54"/>
</g>
<!-- Node2&#45;&gt;Node7 -->
<g id="edge7" class="edge">
<title>Node2&#45;&gt;Node7</title>
<path fill="none" stroke="midnightblue" d="M549.3,-343.92C635.82,-340.32 892.52,-327.42 917,-300 930.27,-285.14 914.43,-264.56 899.78,-250.57"/>
<polygon fill="midnightblue" stroke="midnightblue" points="901.73,-247.62 891.95,-243.55 897.06,-252.83 901.73,-247.62"/>
</g>
<!-- Node8 -->
<g id="node8" class="node">
<title>Node8</title>
<g id="a_node8"><a xlink:href="types_8h.html" target="_top" xlink:title="Internal data structures used in QPALM.">
<polygon fill="white" stroke="black" points="495.5,-112.5 495.5,-131.5 548.5,-131.5 548.5,-112.5 495.5,-112.5"/>
<text text-anchor="middle" x="522" y="-119.5" font-family="Helvetica,sans-Serif" font-size="10.00">types.h</text>
</a>
</g>
</g>
<!-- Node2&#45;&gt;Node8 -->
<g id="edge33" class="edge">
<title>Node2&#45;&gt;Node8</title>
<path fill="none" stroke="midnightblue" d="M523.29,-336.44C527.77,-319.13 537.6,-278.69 541,-244 544.58,-207.46 534.69,-165.17 527.87,-141.51"/>
<polygon fill="midnightblue" stroke="midnightblue" points="531.17,-140.32 524.93,-131.76 524.47,-142.35 531.17,-140.32"/>
</g>
<!-- Node2&#45;&gt;Node9 -->
<g id="edge12" class="edge">
<title>Node2&#45;&gt;Node9</title>
<path fill="none" stroke="midnightblue" d="M519.59,-336.37C516.68,-318.62 509.98,-277.67 506.04,-253.6"/>
<polygon fill="midnightblue" stroke="midnightblue" points="509.47,-252.89 504.41,-243.59 502.57,-254.03 509.47,-252.89"/>
</g>
<!-- Node2&#45;&gt;Node10 -->
<g id="edge30" class="edge">
<title>Node2&#45;&gt;Node10</title>
<path fill="none" stroke="midnightblue" d="M492.8,-337.38C471.9,-330.51 443.89,-318.6 425,-300 395.28,-270.73 378.32,-223.45 370.78,-197.51"/>
<polygon fill="midnightblue" stroke="midnightblue" points="374.13,-196.52 368.11,-187.81 367.39,-198.38 374.13,-196.52"/>
</g>
<!-- Node2&#45;&gt;Node11 -->
<g id="edge19" class="edge">
<title>Node2&#45;&gt;Node11</title>
<path fill="none" stroke="midnightblue" d="M492.89,-345.43C446.62,-344.93 352.86,-338.73 286,-300 242.02,-274.53 207.66,-223.42 191.72,-196.5"/>
<polygon fill="midnightblue" stroke="midnightblue" points="194.72,-194.69 186.7,-187.77 188.65,-198.18 194.72,-194.69"/>
</g>
<!-- Node2&#45;&gt;Node12 -->
<g id="edge22" class="edge">
<title>Node2&#45;&gt;Node12</title>
<path fill="none" stroke="midnightblue" d="M549.25,-339.33C589.06,-331.32 664.19,-316.05 737.68,-300.26"/>
<polygon fill="midnightblue" stroke="midnightblue" points="738.53,-303.66 747.57,-298.13 737.06,-296.81 738.53,-303.66"/>
</g>
<!-- Node2&#45;&gt;Node13 -->
<g id="edge24" class="edge">
<title>Node2&#45;&gt;Node13</title>
<path fill="none" stroke="midnightblue" d="M549.4,-341.02C600.79,-333.75 712.88,-317.58 818.26,-300.08"/>
<polygon fill="midnightblue" stroke="midnightblue" points="819.15,-303.48 828.44,-298.38 818,-296.57 819.15,-303.48"/>
</g>
<!-- Node2&#45;&gt;Node14 -->
<g id="edge26" class="edge">
<title>Node2&#45;&gt;Node14</title>
<path fill="none" stroke="midnightblue" d="M511.84,-336.32C503.5,-328.42 490.97,-316.55 480.82,-306.94"/>
<polygon fill="midnightblue" stroke="midnightblue" points="482.99,-304.17 473.32,-299.83 478.18,-309.25 482.99,-304.17"/>
</g>
<!-- Node2&#45;&gt;Node15 -->
<g id="edge31" class="edge">
<title>Node2&#45;&gt;Node15</title>
<path fill="none" stroke="midnightblue" d="M492.9,-336.8C461.53,-327.64 410.54,-312.76 375.24,-302.45"/>
<polygon fill="midnightblue" stroke="midnightblue" points="375.86,-298.99 365.28,-299.55 373.9,-305.71 375.86,-298.99"/>
</g>
<!-- Node2&#45;&gt;Node16 -->
<g id="edge34" class="edge">
<title>Node2&#45;&gt;Node16</title>
<path fill="none" stroke="midnightblue" d="M492.56,-343.51C425.81,-339.59 261.18,-327.36 214,-300 195.07,-289.02 180.59,-268.04 171.98,-252.88"/>
<polygon fill="midnightblue" stroke="midnightblue" points="174.98,-251.08 167.18,-243.92 168.81,-254.39 174.98,-251.08"/>
</g>
<!-- Node2&#45;&gt;Node17 -->
<g id="edge37" class="edge">
<title>Node2&#45;&gt;Node17</title>
<path fill="none" stroke="midnightblue" d="M548.89,-336.44C578.75,-327.28 626.31,-312.69 659.46,-302.52"/>
<polygon fill="midnightblue" stroke="midnightblue" points="660.71,-305.8 669.24,-299.52 658.66,-299.1 660.71,-305.8"/>
</g>
<!-- Node3&#45;&gt;Node4 -->
<g id="edge3" class="edge">
<title>Node3&#45;&gt;Node4</title>
<path fill="none" stroke="midnightblue" d="M196.44,-112.37C228.15,-93.41 304.11,-48 342.68,-24.94"/>
<polygon fill="midnightblue" stroke="midnightblue" points="344.84,-27.73 351.63,-19.59 341.25,-21.72 344.84,-27.73"/>
</g>
<!-- Node5&#45;&gt;Node4 -->
<g id="edge5" class="edge">
<title>Node5&#45;&gt;Node4</title>
<path fill="none" stroke="midnightblue" d="M535.99,-56.44C499.28,-46.63 439.28,-30.59 401.26,-20.43"/>
<polygon fill="midnightblue" stroke="midnightblue" points="401.72,-16.93 391.16,-17.73 399.91,-23.69 401.72,-16.93"/>
</g>
<!-- Node6 -->
<g id="node6" class="node">
<title>Node6</title>
<g id="a_node6"><a xlink:title=" ">
<polygon fill="white" stroke="#bfbfbf" points="542.5,-0.5 542.5,-19.5 593.5,-19.5 593.5,-0.5 542.5,-0.5"/>
<text text-anchor="middle" x="568" y="-7.5" font-family="Helvetica,sans-Serif" font-size="10.00">math.h</text>
</a>
</g>
</g>
<!-- Node5&#45;&gt;Node6 -->
<g id="edge6" class="edge">
<title>Node5&#45;&gt;Node6</title>
<path fill="none" stroke="midnightblue" d="M568,-56.08C568,-49.01 568,-38.86 568,-29.99"/>
<polygon fill="midnightblue" stroke="midnightblue" points="571.5,-29.75 568,-19.75 564.5,-29.75 571.5,-29.75"/>
</g>
<!-- Node7&#45;&gt;Node5 -->
<g id="edge11" class="edge">
<title>Node7&#45;&gt;Node5</title>
<path fill="none" stroke="midnightblue" d="M875.35,-224.34C860.24,-201.91 816.42,-141.59 764,-112 719.02,-86.6 660.56,-75.53 619.23,-70.71"/>
<polygon fill="midnightblue" stroke="midnightblue" points="619.42,-67.21 609.11,-69.61 618.67,-74.17 619.42,-67.21"/>
</g>
<!-- Node7&#45;&gt;Node8 -->
<g id="edge8" class="edge">
<title>Node7&#45;&gt;Node8</title>
<path fill="none" stroke="midnightblue" d="M863.26,-224.32C834.86,-210.71 777.18,-184.23 726,-168 668.63,-149.81 599.92,-136.29 558.68,-129.03"/>
<polygon fill="midnightblue" stroke="midnightblue" points="559.26,-125.58 548.81,-127.33 558.07,-132.48 559.26,-125.58"/>
</g>
<!-- Node8&#45;&gt;Node4 -->
<g id="edge10" class="edge">
<title>Node8&#45;&gt;Node4</title>
<path fill="none" stroke="midnightblue" d="M509.76,-112.37C483.1,-93.57 419.56,-48.77 386.61,-25.53"/>
<polygon fill="midnightblue" stroke="midnightblue" points="388.37,-22.49 378.18,-19.59 384.34,-28.21 388.37,-22.49"/>
</g>
<!-- Node8&#45;&gt;Node5 -->
<g id="edge9" class="edge">
<title>Node8&#45;&gt;Node5</title>
<path fill="none" stroke="midnightblue" d="M529.6,-112.08C536.23,-104.3 546.02,-92.8 554.06,-83.37"/>
<polygon fill="midnightblue" stroke="midnightblue" points="556.73,-85.63 560.55,-75.75 551.4,-81.09 556.73,-85.63"/>
</g>
<!-- Node9&#45;&gt;Node8 -->
<g id="edge13" class="edge">
<title>Node9&#45;&gt;Node8</title>
<path fill="none" stroke="midnightblue" d="M504.49,-224.37C507.56,-206.62 514.63,-165.67 518.79,-141.6"/>
<polygon fill="midnightblue" stroke="midnightblue" points="522.26,-142.04 520.52,-131.59 515.36,-140.85 522.26,-142.04"/>
</g>
<!-- Node9&#45;&gt;Node10 -->
<g id="edge14" class="edge">
<title>Node9&#45;&gt;Node10</title>
<path fill="none" stroke="midnightblue" d="M481.29,-224.44C458.65,-215.52 422.93,-201.44 397.25,-191.32"/>
<polygon fill="midnightblue" stroke="midnightblue" points="398.19,-187.93 387.61,-187.52 395.63,-194.44 398.19,-187.93"/>
</g>
<!-- Node10&#45;&gt;Node3 -->
<g id="edge16" class="edge">
<title>Node10&#45;&gt;Node3</title>
<path fill="none" stroke="midnightblue" d="M336.84,-168.44C305.49,-159.24 255.47,-144.56 220.8,-134.39"/>
<polygon fill="midnightblue" stroke="midnightblue" points="221.6,-130.97 211.02,-131.52 219.63,-137.69 221.6,-130.97"/>
</g>
<!-- Node10&#45;&gt;Node4 -->
<g id="edge18" class="edge">
<title>Node10&#45;&gt;Node4</title>
<path fill="none" stroke="midnightblue" d="M366,-168.08C366,-141.95 366,-65.21 366,-29.58"/>
<polygon fill="midnightblue" stroke="midnightblue" points="369.5,-29.57 366,-19.57 362.5,-29.57 369.5,-29.57"/>
</g>
<!-- Node10&#45;&gt;Node5 -->
<g id="edge15" class="edge">
<title>Node10&#45;&gt;Node5</title>
<path fill="none" stroke="midnightblue" d="M381.85,-168.37C416.88,-149.29 501.12,-103.42 543.2,-80.51"/>
<polygon fill="midnightblue" stroke="midnightblue" points="545.11,-83.45 552.22,-75.59 541.77,-77.3 545.11,-83.45"/>
</g>
<!-- Node10&#45;&gt;Node8 -->
<g id="edge17" class="edge">
<title>Node10&#45;&gt;Node8</title>
<path fill="none" stroke="midnightblue" d="M390.72,-168.44C416.85,-159.4 458.26,-145.06 487.58,-134.92"/>
<polygon fill="midnightblue" stroke="midnightblue" points="489.09,-138.1 497.4,-131.52 486.8,-131.48 489.09,-138.1"/>
</g>
<!-- Node11&#45;&gt;Node3 -->
<g id="edge21" class="edge">
<title>Node11&#45;&gt;Node3</title>
<path fill="none" stroke="midnightblue" d="M182,-168.08C182,-161.01 182,-150.86 182,-141.99"/>
<polygon fill="midnightblue" stroke="midnightblue" points="185.5,-141.75 182,-131.75 178.5,-141.75 185.5,-141.75"/>
</g>
<!-- Node11&#45;&gt;Node8 -->
<g id="edge20" class="edge">
<title>Node11&#45;&gt;Node8</title>
<path fill="none" stroke="midnightblue" d="M220.01,-170.96C285.84,-160.51 420.21,-139.17 485.19,-128.85"/>
<polygon fill="midnightblue" stroke="midnightblue" points="486.04,-132.25 495.37,-127.23 484.95,-125.34 486.04,-132.25"/>
</g>
<!-- Node12&#45;&gt;Node8 -->
<g id="edge23" class="edge">
<title>Node12&#45;&gt;Node8</title>
<path fill="none" stroke="midnightblue" d="M761.85,-280.35C745.17,-271.74 719.31,-257.85 698,-244 650.89,-213.4 643.59,-199.38 597,-168 580.47,-156.87 561.18,-145.32 546.3,-136.71"/>
<polygon fill="midnightblue" stroke="midnightblue" points="547.65,-133.45 537.23,-131.51 544.16,-139.52 547.65,-133.45"/>
</g>
<!-- Node13&#45;&gt;Node8 -->
<g id="edge25" class="edge">
<title>Node13&#45;&gt;Node8</title>
<path fill="none" stroke="midnightblue" d="M851.26,-280.38C811.91,-260.17 710.29,-208.4 624,-168 599.75,-156.64 571.92,-144.42 551.46,-135.58"/>
<polygon fill="midnightblue" stroke="midnightblue" points="552.62,-132.27 542.06,-131.53 549.86,-138.7 552.62,-132.27"/>
</g>
<!-- Node14&#45;&gt;Node3 -->
<g id="edge29" class="edge">
<title>Node14&#45;&gt;Node3</title>
<path fill="none" stroke="midnightblue" d="M449.24,-280.31C403.17,-253.19 261.81,-169.98 205.5,-136.83"/>
<polygon fill="midnightblue" stroke="midnightblue" points="207.01,-133.66 196.62,-131.61 203.46,-139.69 207.01,-133.66"/>
</g>
<!-- Node14&#45;&gt;Node8 -->
<g id="edge27" class="edge">
<title>Node14&#45;&gt;Node8</title>
<path fill="none" stroke="midnightblue" d="M462.81,-280.4C461.35,-267.78 459.69,-243.61 465,-224 473.73,-191.77 495.08,-158.91 509.02,-139.76"/>
<polygon fill="midnightblue" stroke="midnightblue" points="512,-141.63 515.19,-131.53 506.39,-137.43 512,-141.63"/>
</g>
<!-- Node14&#45;&gt;Node9 -->
<g id="edge28" class="edge">
<title>Node14&#45;&gt;Node9</title>
<path fill="none" stroke="midnightblue" d="M470.44,-280.08C475.95,-272.46 484.03,-261.26 490.76,-251.94"/>
<polygon fill="midnightblue" stroke="midnightblue" points="493.66,-253.91 496.68,-243.75 487.99,-249.81 493.66,-253.91"/>
</g>
<!-- Node15&#45;&gt;Node8 -->
<g id="edge32" class="edge">
<title>Node15&#45;&gt;Node8</title>
<path fill="none" stroke="midnightblue" d="M345.74,-280.31C375.62,-253.64 466.29,-172.72 504.61,-138.52"/>
<polygon fill="midnightblue" stroke="midnightblue" points="507.23,-140.88 512.36,-131.61 502.57,-135.65 507.23,-140.88"/>
</g>
<!-- Node16&#45;&gt;Node3 -->
<g id="edge36" class="edge">
<title>Node16&#45;&gt;Node3</title>
<path fill="none" stroke="midnightblue" d="M154.39,-224.18C143.3,-211.68 126.41,-188.11 135,-168 140.15,-155.95 150.28,-145.58 159.83,-137.84"/>
<polygon fill="midnightblue" stroke="midnightblue" points="162.04,-140.55 167.92,-131.74 157.83,-134.96 162.04,-140.55"/>
</g>
<!-- Node16&#45;&gt;Node8 -->
<g id="edge35" class="edge">
<title>Node16&#45;&gt;Node8</title>
<path fill="none" stroke="midnightblue" d="M178.71,-224.38C204.41,-210.61 257.34,-183.63 305,-168 366.81,-147.73 441.62,-134.61 485.3,-128.03"/>
<polygon fill="midnightblue" stroke="midnightblue" points="486.06,-131.46 495.45,-126.54 485.05,-124.53 486.06,-131.46"/>
</g>
<!-- Node17&#45;&gt;Node8 -->
<g id="edge38" class="edge">
<title>Node17&#45;&gt;Node8</title>
<path fill="none" stroke="midnightblue" d="M688.53,-280.3C668.84,-260.14 618.25,-208.83 574,-168 563.03,-157.88 550.38,-146.91 540.3,-138.34"/>
<polygon fill="midnightblue" stroke="midnightblue" points="542.43,-135.56 532.53,-131.77 537.91,-140.9 542.43,-135.56"/>
</g>
</g>
</svg>
