<?xml version="1.0" encoding="UTF-8" standalone="no"?>
<!DOCTYPE svg PUBLIC "-//W3C//DTD SVG 1.1//EN"
 "http://www.w3.org/Graphics/SVG/1.1/DTD/svg11.dtd">
<!-- Generated by graphviz version 2.43.0 (0)
 -->
<!-- Title: QPALM/include/qpalm.h Pages: 1 -->
<svg width="414pt" height="162pt"
 viewBox="0.00 0.00 414.00 162.00" xmlns="http://www.w3.org/2000/svg" xmlns:xlink="http://www.w3.org/1999/xlink">
<g id="graph0" class="graph" transform="scale(1 1) rotate(0) translate(4 158)">
<title>QPALM/include/qpalm.h</title>
<polygon fill="white" stroke="transparent" points="-4,4 -4,-158 410,-158 410,4 -4,4"/>
<!-- Node1 -->
<g id="node1" class="node">
<title>Node1</title>
<g id="a_node1"><a xlink:title="QPALM main solver API.">
<polygon fill="#bfbfbf" stroke="black" points="143.5,-134.5 143.5,-153.5 274.5,-153.5 274.5,-134.5 143.5,-134.5"/>
<text text-anchor="middle" x="209" y="-141.5" font-family="Helvetica,sans-Serif" font-size="10.00">QPALM/include/qpalm.h</text>
</a>
</g>
</g>
<!-- Node2 -->
<g id="node2" class="node">
<title>Node2</title>
<g id="a_node2"><a xlink:href="qpalm_8cpp.html" target="_top" xlink:title=" ">
<polygon fill="white" stroke="black" points="0,-67.5 0,-97.5 122,-97.5 122,-67.5 0,-67.5"/>
<text text-anchor="start" x="8" y="-85.5" font-family="Helvetica,sans-Serif" font-size="10.00">QPALM/interfaces/cxx</text>
<text text-anchor="middle" x="61" y="-74.5" font-family="Helvetica,sans-Serif" font-size="10.00">/src/qpalm.cpp</text>
</a>
</g>
</g>
<!-- Node1&#45;&gt;Node2 -->
<g id="edge1" class="edge">
<title>Node1&#45;&gt;Node2</title>
<path fill="none" stroke="midnightblue" d="M178.45,-130.72C154.43,-121.06 120.95,-107.6 95.88,-97.52"/>
<polygon fill="midnightblue" stroke="midnightblue" points="177.21,-133.99 187.8,-134.48 179.82,-127.5 177.21,-133.99"/>
</g>
<!-- Node3 -->
<g id="node3" class="node">
<title>Node3</title>
<g id="a_node3"><a xlink:href="qpalm__fortran_8h.html" target="_top" xlink:title=" ">
<polygon fill="white" stroke="black" points="140,-67.5 140,-97.5 278,-97.5 278,-67.5 140,-67.5"/>
<text text-anchor="start" x="148" y="-85.5" font-family="Helvetica,sans-Serif" font-size="10.00">QPALM/interfaces/fortran</text>
<text text-anchor="middle" x="209" y="-74.5" font-family="Helvetica,sans-Serif" font-size="10.00">/qpalm_fortran.h</text>
</a>
</g>
</g>
<!-- Node1&#45;&gt;Node3 -->
<g id="edge2" class="edge">
<title>Node1&#45;&gt;Node3</title>
<path fill="none" stroke="midnightblue" d="M209,-124.23C209,-115.59 209,-105.5 209,-97.52"/>
<polygon fill="midnightblue" stroke="midnightblue" points="205.5,-124.48 209,-134.48 212.5,-124.48 205.5,-124.48"/>
</g>
<!-- Node5 -->
<g id="node5" class="node">
<title>Node5</title>
<g id="a_node5"><a xlink:href="qpalm_8c.html" target="_top" xlink:title="QPALM main solver API.">
<polygon fill="white" stroke="black" points="296,-73 296,-92 406,-92 406,-73 296,-73"/>
<text text-anchor="middle" x="351" y="-80" font-family="Helvetica,sans-Serif" font-size="10.00">QPALM/src/qpalm.c</text>
</a>
</g>
</g>
<!-- Node1&#45;&gt;Node5 -->
<g id="edge4" class="edge">
<title>Node1&#45;&gt;Node5</title>
<path fill="none" stroke="midnightblue" d="M238.88,-130.48C266.46,-118.92 306.67,-102.08 330.69,-92.01"/>
<polygon fill="midnightblue" stroke="midnightblue" points="237.22,-127.38 229.35,-134.48 239.92,-133.84 237.22,-127.38"/>
</g>
<!-- Node4 -->
<g id="node4" class="node">
<title>Node4</title>
<g id="a_node4"><a xlink:href="qpalm__fortran_8c.html" target="_top" xlink:title=" ">
<polygon fill="white" stroke="black" points="140,-0.5 140,-30.5 278,-30.5 278,-0.5 140,-0.5"/>
<text text-anchor="start" x="148" y="-18.5" font-family="Helvetica,sans-Serif" font-size="10.00">QPALM/interfaces/fortran</text>
<text text-anchor="middle" x="209" y="-7.5" font-family="Helvetica,sans-Serif" font-size="10.00">/qpalm_fortran.c</text>
</a>
</g>
</g>
<!-- Node3&#45;&gt;Node4 -->
<g id="edge3" class="edge">
<title>Node3&#45;&gt;Node4</title>
<path fill="none" stroke="midnightblue" d="M209,-57.11C209,-48.15 209,-38.32 209,-30.58"/>
<polygon fill="midnightblue" stroke="midnightblue" points="205.5,-57.4 209,-67.4 212.5,-57.4 205.5,-57.4"/>
</g>
</g>
</svg>
