<?xml version="1.0" encoding="UTF-8" standalone="no"?>
<!DOCTYPE svg PUBLIC "-//W3C//DTD SVG 1.1//EN"
 "http://www.w3.org/Graphics/SVG/1.1/DTD/svg11.dtd">
<!-- Generated by graphviz version 2.43.0 (0)
 -->
<!-- Title: QPALM/interfaces/fortran/qpalm_fortran.h Pages: 1 -->
<svg width="749pt" height="431pt"
 viewBox="0.00 0.00 749.39 431.00" xmlns="http://www.w3.org/2000/svg" xmlns:xlink="http://www.w3.org/1999/xlink">
<g id="graph0" class="graph" transform="scale(1 1) rotate(0) translate(4 427)">
<title>QPALM/interfaces/fortran/qpalm_fortran.h</title>
<polygon fill="white" stroke="transparent" points="-4,4 -4,-427 745.39,-427 745.39,4 -4,4"/>
<!-- Node1 -->
<g id="node1" class="node">
<title>Node1</title>
<g id="a_node1"><a xlink:title=" ">
<polygon fill="#bfbfbf" stroke="black" points="296.39,-392.5 296.39,-422.5 434.39,-422.5 434.39,-392.5 296.39,-392.5"/>
<text text-anchor="start" x="304.39" y="-410.5" font-family="Helvetica,sans-Serif" font-size="10.00">QPALM/interfaces/fortran</text>
<text text-anchor="middle" x="365.39" y="-399.5" font-family="Helvetica,sans-Serif" font-size="10.00">/qpalm_fortran.h</text>
</a>
</g>
</g>
<!-- Node2 -->
<g id="node2" class="node">
<title>Node2</title>
<g id="a_node2"><a xlink:href="qpalm_8h.html" target="_top" xlink:title="QPALM main solver API.">
<polygon fill="white" stroke="black" points="337.39,-336.5 337.39,-355.5 393.39,-355.5 393.39,-336.5 337.39,-336.5"/>
<text text-anchor="middle" x="365.39" y="-343.5" font-family="Helvetica,sans-Serif" font-size="10.00">qpalm.h</text>
</a>
</g>
</g>
<!-- Node1&#45;&gt;Node2 -->
<g id="edge1" class="edge">
<title>Node1&#45;&gt;Node2</title>
<path fill="none" stroke="midnightblue" d="M365.39,-392.4C365.39,-384.47 365.39,-374.46 365.39,-365.86"/>
<polygon fill="midnightblue" stroke="midnightblue" points="368.89,-365.66 365.39,-355.66 361.89,-365.66 368.89,-365.66"/>
</g>
<!-- Node3 -->
<g id="node3" class="node">
<title>Node3</title>
<g id="a_node3"><a xlink:href="constants_8h.html" target="_top" xlink:title="Constants used in QPALM.">
<polygon fill="white" stroke="black" points="77.89,-112.5 77.89,-131.5 150.89,-131.5 150.89,-112.5 77.89,-112.5"/>
<text text-anchor="middle" x="114.39" y="-119.5" font-family="Helvetica,sans-Serif" font-size="10.00">constants.h</text>
</a>
</g>
</g>
<!-- Node2&#45;&gt;Node3 -->
<g id="edge2" class="edge">
<title>Node2&#45;&gt;Node3</title>
<path fill="none" stroke="midnightblue" d="M337.28,-345.51C288.44,-345.24 185.98,-339.52 111.39,-300 50.01,-267.48 28.53,-252.35 2.39,-188 -10.49,-156.3 31.53,-139.32 67.72,-130.76"/>
<polygon fill="midnightblue" stroke="midnightblue" points="68.71,-134.13 77.73,-128.56 67.21,-127.29 68.71,-134.13"/>
</g>
<!-- Node5 -->
<g id="node5" class="node">
<title>Node5</title>
<g id="a_node5"><a xlink:href="global__opts_8h.html" target="_top" xlink:title="Custom memory allocation, print and utility functions, and data types for floats and ints.">
<polygon fill="white" stroke="black" points="351.39,-56.5 351.39,-75.5 433.39,-75.5 433.39,-56.5 351.39,-56.5"/>
<text text-anchor="middle" x="392.39" y="-63.5" font-family="Helvetica,sans-Serif" font-size="10.00">global_opts.h</text>
</a>
</g>
</g>
<!-- Node2&#45;&gt;Node5 -->
<g id="edge4" class="edge">
<title>Node2&#45;&gt;Node5</title>
<path fill="none" stroke="midnightblue" d="M393.65,-342.86C481.09,-335.48 741.39,-307.43 741.39,-235 741.39,-235 741.39,-235 741.39,-177 741.39,-115.32 540.6,-83.92 443.62,-72.36"/>
<polygon fill="midnightblue" stroke="midnightblue" points="443.79,-68.85 433.45,-71.17 442.98,-75.8 443.79,-68.85"/>
</g>
<!-- Node7 -->
<g id="node7" class="node">
<title>Node7</title>
<g id="a_node7"><a xlink:href="iteration_8h.html" target="_top" xlink:title="QPALM main solver routines.">
<polygon fill="white" stroke="black" points="591.89,-168.5 591.89,-187.5 658.89,-187.5 658.89,-168.5 591.89,-168.5"/>
<text text-anchor="middle" x="625.39" y="-175.5" font-family="Helvetica,sans-Serif" font-size="10.00">iteration.h</text>
</a>
</g>
</g>
<!-- Node2&#45;&gt;Node7 -->
<g id="edge7" class="edge">
<title>Node2&#45;&gt;Node7</title>
<path fill="none" stroke="midnightblue" d="M393.59,-340.63C465.26,-328.88 650.99,-294.02 683.39,-244 695.99,-224.54 672.7,-205.08 651.98,-192.59"/>
<polygon fill="midnightblue" stroke="midnightblue" points="653.5,-189.43 643.08,-187.53 650.04,-195.52 653.5,-189.43"/>
</g>
<!-- Node8 -->
<g id="node8" class="node">
<title>Node8</title>
<g id="a_node8"><a xlink:href="types_8h.html" target="_top" xlink:title="Internal data structures used in QPALM.">
<polygon fill="white" stroke="black" points="365.89,-112.5 365.89,-131.5 418.89,-131.5 418.89,-112.5 365.89,-112.5"/>
<text text-anchor="middle" x="392.39" y="-119.5" font-family="Helvetica,sans-Serif" font-size="10.00">types.h</text>
</a>
</g>
</g>
<!-- Node2&#45;&gt;Node8 -->
<g id="edge33" class="edge">
<title>Node2&#45;&gt;Node8</title>
<path fill="none" stroke="midnightblue" d="M393.78,-341.06C417.94,-336.04 451.22,-324.81 467.39,-300 486.07,-271.33 514.34,-291.14 442.39,-168 435.39,-156.03 424.13,-145.48 414.06,-137.61"/>
<polygon fill="midnightblue" stroke="midnightblue" points="416.13,-134.79 406,-131.66 411.97,-140.42 416.13,-134.79"/>
</g>
<!-- Node9 -->
<g id="node9" class="node">
<title>Node9</title>
<g id="a_node9"><a xlink:href="lin__alg_8h.html" target="_top" xlink:title="Linear algebra with vectors.">
<polygon fill="white" stroke="black" points="325.39,-224.5 325.39,-243.5 383.39,-243.5 383.39,-224.5 325.39,-224.5"/>
<text text-anchor="middle" x="354.39" y="-231.5" font-family="Helvetica,sans-Serif" font-size="10.00">lin_alg.h</text>
</a>
</g>
</g>
<!-- Node2&#45;&gt;Node9 -->
<g id="edge12" class="edge">
<title>Node2&#45;&gt;Node9</title>
<path fill="none" stroke="midnightblue" d="M364.52,-336.37C362.75,-318.62 358.65,-277.67 356.25,-253.6"/>
<polygon fill="midnightblue" stroke="midnightblue" points="359.72,-253.19 355.25,-243.59 352.76,-253.89 359.72,-253.19"/>
</g>
<!-- Node10 -->
<g id="node10" class="node">
<title>Node10</title>
<g id="a_node10"><a xlink:href="solver__interface_8h.html" target="_top" xlink:title="Interface and wrapper to matrix/factorization (ladel) functions.">
<polygon fill="white" stroke="black" points="203.39,-168.5 203.39,-187.5 307.39,-187.5 307.39,-168.5 203.39,-168.5"/>
<text text-anchor="middle" x="255.39" y="-175.5" font-family="Helvetica,sans-Serif" font-size="10.00">solver_interface.h</text>
</a>
</g>
</g>
<!-- Node2&#45;&gt;Node10 -->
<g id="edge30" class="edge">
<title>Node2&#45;&gt;Node10</title>
<path fill="none" stroke="midnightblue" d="M337.11,-342.85C287.36,-338.41 187.45,-326.36 166.39,-300 136.35,-262.41 195.85,-216.15 231.42,-193.24"/>
<polygon fill="midnightblue" stroke="midnightblue" points="233.68,-195.96 240.3,-187.69 229.96,-190.02 233.68,-195.96"/>
</g>
<!-- Node11 -->
<g id="node11" class="node">
<title>Node11</title>
<g id="a_node11"><a xlink:href="linesearch_8h.html" target="_top" xlink:title="Routines to perform exact linesearch.">
<polygon fill="white" stroke="black" points="109.39,-168.5 109.39,-187.5 185.39,-187.5 185.39,-168.5 109.39,-168.5"/>
<text text-anchor="middle" x="147.39" y="-175.5" font-family="Helvetica,sans-Serif" font-size="10.00">linesearch.h</text>
</a>
</g>
</g>
<!-- Node2&#45;&gt;Node11 -->
<g id="edge19" class="edge">
<title>Node2&#45;&gt;Node11</title>
<path fill="none" stroke="midnightblue" d="M337.37,-343.08C285.77,-338.91 178.86,-327.15 155.39,-300 130.69,-271.43 136.68,-223.49 142.47,-197.35"/>
<polygon fill="midnightblue" stroke="midnightblue" points="145.88,-198.15 144.85,-187.61 139.08,-196.49 145.88,-198.15"/>
</g>
<!-- Node12 -->
<g id="node12" class="node">
<title>Node12</title>
<g id="a_node12"><a xlink:href="newton_8h.html" target="_top" xlink:title="Functions to calculate the semismooth Newton direction.">
<polygon fill="white" stroke="black" points="515.39,-224.5 515.39,-243.5 577.39,-243.5 577.39,-224.5 515.39,-224.5"/>
<text text-anchor="middle" x="546.39" y="-231.5" font-family="Helvetica,sans-Serif" font-size="10.00">newton.h</text>
</a>
</g>
</g>
<!-- Node2&#45;&gt;Node12 -->
<g id="edge22" class="edge">
<title>Node2&#45;&gt;Node12</title>
<path fill="none" stroke="midnightblue" d="M393.61,-341.07C422.95,-335.82 469.03,-324.21 501.39,-300 517.82,-287.71 530.4,-267.6 538.03,-253.01"/>
<polygon fill="midnightblue" stroke="midnightblue" points="541.22,-254.46 542.51,-243.94 534.94,-251.36 541.22,-254.46"/>
</g>
<!-- Node13 -->
<g id="node13" class="node">
<title>Node13</title>
<g id="a_node13"><a xlink:href="nonconvex_8h.html" target="_top" xlink:title="Routines to deal with nonconvex QPs.">
<polygon fill="white" stroke="black" points="595.89,-224.5 595.89,-243.5 674.89,-243.5 674.89,-224.5 595.89,-224.5"/>
<text text-anchor="middle" x="635.39" y="-231.5" font-family="Helvetica,sans-Serif" font-size="10.00">nonconvex.h</text>
</a>
</g>
</g>
<!-- Node2&#45;&gt;Node13 -->
<g id="edge24" class="edge">
<title>Node2&#45;&gt;Node13</title>
<path fill="none" stroke="midnightblue" d="M393.6,-339.4C426.16,-332.4 480.94,-319 525.39,-300 558.41,-285.89 593.65,-263.63 615.1,-249.18"/>
<polygon fill="midnightblue" stroke="midnightblue" points="617.12,-252.03 623.41,-243.5 613.17,-246.25 617.12,-252.03"/>
</g>
<!-- Node14 -->
<g id="node14" class="node">
<title>Node14</title>
<g id="a_node14"><a xlink:href="scaling_8h.html" target="_top" xlink:title="Problem data scaling during setup.">
<polygon fill="white" stroke="black" points="277.39,-280.5 277.39,-299.5 337.39,-299.5 337.39,-280.5 277.39,-280.5"/>
<text text-anchor="middle" x="307.39" y="-287.5" font-family="Helvetica,sans-Serif" font-size="10.00">scaling.h</text>
</a>
</g>
</g>
<!-- Node2&#45;&gt;Node14 -->
<g id="edge26" class="edge">
<title>Node2&#45;&gt;Node14</title>
<path fill="none" stroke="midnightblue" d="M356.07,-336.32C347.5,-328.34 334.58,-316.31 324.2,-306.65"/>
<polygon fill="midnightblue" stroke="midnightblue" points="326.58,-304.09 316.88,-299.83 321.81,-309.21 326.58,-304.09"/>
</g>
<!-- Node15 -->
<g id="node15" class="node">
<title>Node15</title>
<g id="a_node15"><a xlink:href="termination_8h.html" target="_top" xlink:title="Routines to check the termination and infeasibility criteria.">
<polygon fill="white" stroke="black" points="175.89,-280.5 175.89,-299.5 258.89,-299.5 258.89,-280.5 175.89,-280.5"/>
<text text-anchor="middle" x="217.39" y="-287.5" font-family="Helvetica,sans-Serif" font-size="10.00">termination.h</text>
</a>
</g>
</g>
<!-- Node2&#45;&gt;Node15 -->
<g id="edge31" class="edge">
<title>Node2&#45;&gt;Node15</title>
<path fill="none" stroke="midnightblue" d="M341.94,-336.44C317.26,-327.44 278.2,-313.19 250.41,-303.05"/>
<polygon fill="midnightblue" stroke="midnightblue" points="251.32,-299.66 240.73,-299.52 248.92,-306.23 251.32,-299.66"/>
</g>
<!-- Node16 -->
<g id="node16" class="node">
<title>Node16</title>
<g id="a_node16"><a xlink:href="util_8h.html" target="_top" xlink:title="Utility functions.">
<polygon fill="white" stroke="black" points="11.89,-168.5 11.89,-187.5 52.89,-187.5 52.89,-168.5 11.89,-168.5"/>
<text text-anchor="middle" x="32.39" y="-175.5" font-family="Helvetica,sans-Serif" font-size="10.00">util.h</text>
</a>
</g>
</g>
<!-- Node2&#45;&gt;Node16 -->
<g id="edge34" class="edge">
<title>Node2&#45;&gt;Node16</title>
<path fill="none" stroke="midnightblue" d="M337.1,-344.96C292.41,-343.72 204.01,-336.4 140.39,-300 95.55,-274.34 59.51,-223.31 42.69,-196.46"/>
<polygon fill="midnightblue" stroke="midnightblue" points="45.57,-194.46 37.38,-187.75 39.59,-198.11 45.57,-194.46"/>
</g>
<!-- Node17 -->
<g id="node17" class="node">
<title>Node17</title>
<g id="a_node17"><a xlink:href="validate_8h.html" target="_top" xlink:title="Validation of the user provided settings and data.">
<polygon fill="white" stroke="black" points="393.89,-280.5 393.89,-299.5 458.89,-299.5 458.89,-280.5 393.89,-280.5"/>
<text text-anchor="middle" x="426.39" y="-287.5" font-family="Helvetica,sans-Serif" font-size="10.00">validate.h</text>
</a>
</g>
</g>
<!-- Node2&#45;&gt;Node17 -->
<g id="edge37" class="edge">
<title>Node2&#45;&gt;Node17</title>
<path fill="none" stroke="midnightblue" d="M375.19,-336.32C384.21,-328.34 397.79,-316.31 408.71,-306.65"/>
<polygon fill="midnightblue" stroke="midnightblue" points="411.24,-309.08 416.41,-299.83 406.6,-303.84 411.24,-309.08"/>
</g>
<!-- Node4 -->
<g id="node4" class="node">
<title>Node4</title>
<g id="a_node4"><a xlink:title=" ">
<polygon fill="white" stroke="#bfbfbf" points="274.39,-0.5 274.39,-19.5 324.39,-19.5 324.39,-0.5 274.39,-0.5"/>
<text text-anchor="middle" x="299.39" y="-7.5" font-family="Helvetica,sans-Serif" font-size="10.00">ladel.h</text>
</a>
</g>
</g>
<!-- Node3&#45;&gt;Node4 -->
<g id="edge3" class="edge">
<title>Node3&#45;&gt;Node4</title>
<path fill="none" stroke="midnightblue" d="M128.9,-112.37C160.79,-93.41 237.16,-48 275.94,-24.94"/>
<polygon fill="midnightblue" stroke="midnightblue" points="278.13,-27.71 284.94,-19.59 274.55,-21.69 278.13,-27.71"/>
</g>
<!-- Node5&#45;&gt;Node4 -->
<g id="edge5" class="edge">
<title>Node5&#45;&gt;Node4</title>
<path fill="none" stroke="midnightblue" d="M377.45,-56.32C362.8,-47.82 340.25,-34.73 323.15,-24.8"/>
<polygon fill="midnightblue" stroke="midnightblue" points="324.7,-21.65 314.29,-19.65 321.18,-27.7 324.7,-21.65"/>
</g>
<!-- Node6 -->
<g id="node6" class="node">
<title>Node6</title>
<g id="a_node6"><a xlink:title=" ">
<polygon fill="white" stroke="#bfbfbf" points="366.89,-0.5 366.89,-19.5 417.89,-19.5 417.89,-0.5 366.89,-0.5"/>
<text text-anchor="middle" x="392.39" y="-7.5" font-family="Helvetica,sans-Serif" font-size="10.00">math.h</text>
</a>
</g>
</g>
<!-- Node5&#45;&gt;Node6 -->
<g id="edge6" class="edge">
<title>Node5&#45;&gt;Node6</title>
<path fill="none" stroke="midnightblue" d="M392.39,-56.08C392.39,-49.01 392.39,-38.86 392.39,-29.99"/>
<polygon fill="midnightblue" stroke="midnightblue" points="395.89,-29.75 392.39,-19.75 388.89,-29.75 395.89,-29.75"/>
</g>
<!-- Node7&#45;&gt;Node5 -->
<g id="edge11" class="edge">
<title>Node7&#45;&gt;Node5</title>
<path fill="none" stroke="midnightblue" d="M607.1,-168.37C566.36,-149.13 467.9,-102.65 419.78,-79.93"/>
<polygon fill="midnightblue" stroke="midnightblue" points="421.12,-76.7 410.59,-75.59 418.13,-83.03 421.12,-76.7"/>
</g>
<!-- Node7&#45;&gt;Node8 -->
<g id="edge8" class="edge">
<title>Node7&#45;&gt;Node8</title>
<path fill="none" stroke="midnightblue" d="M591.51,-169.15C548.18,-159.11 473.45,-141.79 428.9,-131.46"/>
<polygon fill="midnightblue" stroke="midnightblue" points="429.6,-128.03 419.06,-129.18 428.02,-134.85 429.6,-128.03"/>
</g>
<!-- Node8&#45;&gt;Node4 -->
<g id="edge10" class="edge">
<title>Node8&#45;&gt;Node4</title>
<path fill="none" stroke="midnightblue" d="M381.31,-112.41C370.66,-103.84 354.43,-89.98 342.39,-76 329.6,-61.15 317.51,-42.3 309.43,-28.72"/>
<polygon fill="midnightblue" stroke="midnightblue" points="312.36,-26.79 304.3,-19.91 306.31,-30.31 312.36,-26.79"/>
</g>
<!-- Node8&#45;&gt;Node5 -->
<g id="edge9" class="edge">
<title>Node8&#45;&gt;Node5</title>
<path fill="none" stroke="midnightblue" d="M392.39,-112.08C392.39,-105.01 392.39,-94.86 392.39,-85.99"/>
<polygon fill="midnightblue" stroke="midnightblue" points="395.89,-85.75 392.39,-75.75 388.89,-85.75 395.89,-85.75"/>
</g>
<!-- Node9&#45;&gt;Node8 -->
<g id="edge13" class="edge">
<title>Node9&#45;&gt;Node8</title>
<path fill="none" stroke="midnightblue" d="M357.37,-224.37C363.53,-206.54 377.78,-165.3 386.08,-141.27"/>
<polygon fill="midnightblue" stroke="midnightblue" points="389.46,-142.19 389.42,-131.59 382.85,-139.9 389.46,-142.19"/>
</g>
<!-- Node9&#45;&gt;Node10 -->
<g id="edge14" class="edge">
<title>Node9&#45;&gt;Node10</title>
<path fill="none" stroke="midnightblue" d="M338.48,-224.32C322.75,-215.74 298.45,-202.49 280.18,-192.52"/>
<polygon fill="midnightblue" stroke="midnightblue" points="281.71,-189.37 271.25,-187.65 278.36,-195.52 281.71,-189.37"/>
</g>
<!-- Node10&#45;&gt;Node3 -->
<g id="edge16" class="edge">
<title>Node10&#45;&gt;Node3</title>
<path fill="none" stroke="midnightblue" d="M233.05,-168.44C209.63,-159.48 172.65,-145.31 146.2,-135.18"/>
<polygon fill="midnightblue" stroke="midnightblue" points="147.22,-131.82 136.63,-131.52 144.71,-138.36 147.22,-131.82"/>
</g>
<!-- Node10&#45;&gt;Node4 -->
<g id="edge18" class="edge">
<title>Node10&#45;&gt;Node4</title>
<path fill="none" stroke="midnightblue" d="M257.75,-168.08C264.68,-141.95 285.02,-65.21 294.46,-29.58"/>
<polygon fill="midnightblue" stroke="midnightblue" points="297.94,-30.13 297.12,-19.57 291.17,-28.34 297.94,-30.13"/>
</g>
<!-- Node10&#45;&gt;Node5 -->
<g id="edge15" class="edge">
<title>Node10&#45;&gt;Node5</title>
<path fill="none" stroke="midnightblue" d="M266.14,-168.37C289.35,-149.73 344.4,-105.53 373.54,-82.13"/>
<polygon fill="midnightblue" stroke="midnightblue" points="376.08,-84.58 381.69,-75.59 371.7,-79.12 376.08,-84.58"/>
</g>
<!-- Node10&#45;&gt;Node8 -->
<g id="edge17" class="edge">
<title>Node10&#45;&gt;Node8</title>
<path fill="none" stroke="midnightblue" d="M277.1,-168.44C299.74,-159.52 335.46,-145.44 361.14,-135.32"/>
<polygon fill="midnightblue" stroke="midnightblue" points="362.76,-138.44 370.78,-131.52 360.19,-131.93 362.76,-138.44"/>
</g>
<!-- Node11&#45;&gt;Node3 -->
<g id="edge21" class="edge">
<title>Node11&#45;&gt;Node3</title>
<path fill="none" stroke="midnightblue" d="M141.94,-168.08C137.37,-160.61 130.72,-149.72 125.09,-140.52"/>
<polygon fill="midnightblue" stroke="midnightblue" points="127.94,-138.46 119.74,-131.75 121.96,-142.11 127.94,-138.46"/>
</g>
<!-- Node11&#45;&gt;Node8 -->
<g id="edge20" class="edge">
<title>Node11&#45;&gt;Node8</title>
<path fill="none" stroke="midnightblue" d="M185.4,-168.62C231.88,-158.38 310.01,-141.16 355.83,-131.06"/>
<polygon fill="midnightblue" stroke="midnightblue" points="356.63,-134.47 365.64,-128.9 355.12,-127.63 356.63,-134.47"/>
</g>
<!-- Node12&#45;&gt;Node8 -->
<g id="edge23" class="edge">
<title>Node12&#45;&gt;Node8</title>
<path fill="none" stroke="midnightblue" d="M542.38,-224.23C535.7,-210.49 521.05,-183.85 501.39,-168 480.14,-150.88 451.48,-139.39 428.87,-132.3"/>
<polygon fill="midnightblue" stroke="midnightblue" points="429.86,-128.95 419.28,-129.45 427.86,-135.66 429.86,-128.95"/>
</g>
<!-- Node13&#45;&gt;Node8 -->
<g id="edge25" class="edge">
<title>Node13&#45;&gt;Node8</title>
<path fill="none" stroke="midnightblue" d="M622.52,-224.31C602.3,-210.91 561.55,-185 524.39,-168 493.05,-153.66 455.76,-141.36 428.82,-133.26"/>
<polygon fill="midnightblue" stroke="midnightblue" points="429.62,-129.84 419.04,-130.36 427.64,-136.56 429.62,-129.84"/>
</g>
<!-- Node14&#45;&gt;Node3 -->
<g id="edge29" class="edge">
<title>Node14&#45;&gt;Node3</title>
<path fill="none" stroke="midnightblue" d="M282.03,-280.43C231.46,-262.78 121.15,-221.23 100.39,-188 91.43,-173.66 97.3,-154.46 103.97,-140.64"/>
<polygon fill="midnightblue" stroke="midnightblue" points="107.13,-142.16 108.76,-131.69 100.96,-138.85 107.13,-142.16"/>
</g>
<!-- Node14&#45;&gt;Node8 -->
<g id="edge27" class="edge">
<title>Node14&#45;&gt;Node8</title>
<path fill="none" stroke="midnightblue" d="M337.76,-281.57C357.07,-275.11 380.59,-263.6 392.39,-244 411.55,-212.18 404.24,-166.58 397.89,-141.43"/>
<polygon fill="midnightblue" stroke="midnightblue" points="401.24,-140.43 395.22,-131.71 394.49,-142.28 401.24,-140.43"/>
</g>
<!-- Node14&#45;&gt;Node9 -->
<g id="edge28" class="edge">
<title>Node14&#45;&gt;Node9</title>
<path fill="none" stroke="midnightblue" d="M315.15,-280.08C321.92,-272.3 331.93,-260.8 340.14,-251.37"/>
<polygon fill="midnightblue" stroke="midnightblue" points="342.85,-253.59 346.77,-243.75 337.57,-249 342.85,-253.59"/>
</g>
<!-- Node15&#45;&gt;Node8 -->
<g id="edge32" class="edge">
<title>Node15&#45;&gt;Node8</title>
<path fill="none" stroke="midnightblue" d="M226.8,-280.08C255.18,-253.15 340.19,-172.51 376.1,-138.45"/>
<polygon fill="midnightblue" stroke="midnightblue" points="378.51,-140.99 383.36,-131.57 373.69,-135.91 378.51,-140.99"/>
</g>
<!-- Node16&#45;&gt;Node3 -->
<g id="edge36" class="edge">
<title>Node16&#45;&gt;Node3</title>
<path fill="none" stroke="midnightblue" d="M45.56,-168.32C58.23,-159.98 77.62,-147.21 92.59,-137.35"/>
<polygon fill="midnightblue" stroke="midnightblue" points="94.82,-140.08 101.25,-131.65 90.97,-134.23 94.82,-140.08"/>
</g>
<!-- Node16&#45;&gt;Node8 -->
<g id="edge35" class="edge">
<title>Node16&#45;&gt;Node8</title>
<path fill="none" stroke="midnightblue" d="M53.04,-173.9C111.83,-165.08 280.69,-139.75 355.71,-128.5"/>
<polygon fill="midnightblue" stroke="midnightblue" points="356.28,-131.95 365.65,-127.01 355.24,-125.03 356.28,-131.95"/>
</g>
<!-- Node17&#45;&gt;Node8 -->
<g id="edge38" class="edge">
<title>Node17&#45;&gt;Node8</title>
<path fill="none" stroke="midnightblue" d="M428.06,-280.5C431.65,-260.33 438.76,-208.27 425.39,-168 421.85,-157.35 414.77,-147.13 408.06,-139.13"/>
<polygon fill="midnightblue" stroke="midnightblue" points="410.66,-136.78 401.38,-131.67 405.44,-141.45 410.66,-136.78"/>
</g>
</g>
</svg>
