<?xml version="1.0" encoding="UTF-8" standalone="no"?>
<!DOCTYPE svg PUBLIC "-//W3C//DTD SVG 1.1//EN"
 "http://www.w3.org/Graphics/SVG/1.1/DTD/svg11.dtd">
<!-- Generated by graphviz version 2.43.0 (0)
 -->
<!-- Title: QPALM/include/scaling.h Pages: 1 -->
<svg width="258pt" height="308pt"
 viewBox="0.00 0.00 257.50 308.00" xmlns="http://www.w3.org/2000/svg" xmlns:xlink="http://www.w3.org/1999/xlink">
<g id="graph0" class="graph" transform="scale(1 1) rotate(0) translate(4 304)">
<title>QPALM/include/scaling.h</title>
<polygon fill="white" stroke="transparent" points="-4,4 -4,-304 253.5,-304 253.5,4 -4,4"/>
<!-- Node1 -->
<g id="node1" class="node">
<title>Node1</title>
<g id="a_node1"><a xlink:title="Problem data scaling during setup.">
<polygon fill="#bfbfbf" stroke="black" points="35.5,-280.5 35.5,-299.5 170.5,-299.5 170.5,-280.5 35.5,-280.5"/>
<text text-anchor="middle" x="103" y="-287.5" font-family="Helvetica,sans-Serif" font-size="10.00">QPALM/include/scaling.h</text>
</a>
</g>
</g>
<!-- Node2 -->
<g id="node2" class="node">
<title>Node2</title>
<g id="a_node2"><a xlink:href="types_8h.html" target="_top" xlink:title="Internal data structures used in QPALM.">
<polygon fill="white" stroke="black" points="27.5,-112.5 27.5,-131.5 80.5,-131.5 80.5,-112.5 27.5,-112.5"/>
<text text-anchor="middle" x="54" y="-119.5" font-family="Helvetica,sans-Serif" font-size="10.00">types.h</text>
</a>
</g>
</g>
<!-- Node1&#45;&gt;Node2 -->
<g id="edge1" class="edge">
<title>Node1&#45;&gt;Node2</title>
<path fill="none" stroke="midnightblue" d="M92.6,-280.18C83.59,-271.86 71.07,-258.53 65,-244 50.81,-210.06 50.85,-166.22 52.32,-141.71"/>
<polygon fill="midnightblue" stroke="midnightblue" points="55.81,-141.87 53.07,-131.63 48.83,-141.34 55.81,-141.87"/>
</g>
<!-- Node6 -->
<g id="node6" class="node">
<title>Node6</title>
<g id="a_node6"><a xlink:href="lin__alg_8h.html" target="_top" xlink:title="Linear algebra with vectors.">
<polygon fill="white" stroke="black" points="74,-224.5 74,-243.5 132,-243.5 132,-224.5 74,-224.5"/>
<text text-anchor="middle" x="103" y="-231.5" font-family="Helvetica,sans-Serif" font-size="10.00">lin_alg.h</text>
</a>
</g>
</g>
<!-- Node1&#45;&gt;Node6 -->
<g id="edge6" class="edge">
<title>Node1&#45;&gt;Node6</title>
<path fill="none" stroke="midnightblue" d="M103,-280.08C103,-273.01 103,-262.86 103,-253.99"/>
<polygon fill="midnightblue" stroke="midnightblue" points="106.5,-253.75 103,-243.75 99.5,-253.75 106.5,-253.75"/>
</g>
<!-- Node8 -->
<g id="node8" class="node">
<title>Node8</title>
<g id="a_node8"><a xlink:href="constants_8h.html" target="_top" xlink:title="Constants used in QPALM.">
<polygon fill="white" stroke="black" points="176.5,-112.5 176.5,-131.5 249.5,-131.5 249.5,-112.5 176.5,-112.5"/>
<text text-anchor="middle" x="213" y="-119.5" font-family="Helvetica,sans-Serif" font-size="10.00">constants.h</text>
</a>
</g>
</g>
<!-- Node1&#45;&gt;Node8 -->
<g id="edge14" class="edge">
<title>Node1&#45;&gt;Node8</title>
<path fill="none" stroke="midnightblue" d="M113.55,-280.44C132.67,-264.36 173.1,-227.66 195,-188 202.96,-173.58 207.61,-155.39 210.18,-141.92"/>
<polygon fill="midnightblue" stroke="midnightblue" points="213.65,-142.35 211.88,-131.91 206.75,-141.18 213.65,-142.35"/>
</g>
<!-- Node3 -->
<g id="node3" class="node">
<title>Node3</title>
<g id="a_node3"><a xlink:href="global__opts_8h.html" target="_top" xlink:title="Custom memory allocation, print and utility functions, and data types for floats and ints.">
<polygon fill="white" stroke="black" points="0,-56.5 0,-75.5 82,-75.5 82,-56.5 0,-56.5"/>
<text text-anchor="middle" x="41" y="-63.5" font-family="Helvetica,sans-Serif" font-size="10.00">global_opts.h</text>
</a>
</g>
</g>
<!-- Node2&#45;&gt;Node3 -->
<g id="edge2" class="edge">
<title>Node2&#45;&gt;Node3</title>
<path fill="none" stroke="midnightblue" d="M51.85,-112.08C50.13,-104.93 47.65,-94.64 45.5,-85.69"/>
<polygon fill="midnightblue" stroke="midnightblue" points="48.85,-84.65 43.11,-75.75 42.04,-86.29 48.85,-84.65"/>
</g>
<!-- Node4 -->
<g id="node4" class="node">
<title>Node4</title>
<g id="a_node4"><a xlink:title=" ">
<polygon fill="white" stroke="#bfbfbf" points="104,-0.5 104,-19.5 154,-19.5 154,-0.5 104,-0.5"/>
<text text-anchor="middle" x="129" y="-7.5" font-family="Helvetica,sans-Serif" font-size="10.00">ladel.h</text>
</a>
</g>
</g>
<!-- Node2&#45;&gt;Node4 -->
<g id="edge5" class="edge">
<title>Node2&#45;&gt;Node4</title>
<path fill="none" stroke="midnightblue" d="M61.8,-112.36C69.61,-103.54 81.75,-89.28 91,-76 101.72,-60.62 112.36,-42.07 119.64,-28.73"/>
<polygon fill="midnightblue" stroke="midnightblue" points="122.85,-30.15 124.5,-19.68 116.68,-26.83 122.85,-30.15"/>
</g>
<!-- Node3&#45;&gt;Node4 -->
<g id="edge3" class="edge">
<title>Node3&#45;&gt;Node4</title>
<path fill="none" stroke="midnightblue" d="M55.14,-56.32C68.87,-47.9 89.94,-34.97 106.06,-25.07"/>
<polygon fill="midnightblue" stroke="midnightblue" points="108.2,-27.87 114.9,-19.65 104.54,-21.9 108.2,-27.87"/>
</g>
<!-- Node5 -->
<g id="node5" class="node">
<title>Node5</title>
<g id="a_node5"><a xlink:title=" ">
<polygon fill="white" stroke="#bfbfbf" points="15.5,-0.5 15.5,-19.5 66.5,-19.5 66.5,-0.5 15.5,-0.5"/>
<text text-anchor="middle" x="41" y="-7.5" font-family="Helvetica,sans-Serif" font-size="10.00">math.h</text>
</a>
</g>
</g>
<!-- Node3&#45;&gt;Node5 -->
<g id="edge4" class="edge">
<title>Node3&#45;&gt;Node5</title>
<path fill="none" stroke="midnightblue" d="M41,-56.08C41,-49.01 41,-38.86 41,-29.99"/>
<polygon fill="midnightblue" stroke="midnightblue" points="44.5,-29.75 41,-19.75 37.5,-29.75 44.5,-29.75"/>
</g>
<!-- Node6&#45;&gt;Node2 -->
<g id="edge7" class="edge">
<title>Node6&#45;&gt;Node2</title>
<path fill="none" stroke="midnightblue" d="M95.93,-224.18C89.23,-215.44 79.27,-201.45 73,-188 66.01,-173.01 60.97,-154.88 57.84,-141.58"/>
<polygon fill="midnightblue" stroke="midnightblue" points="61.24,-140.72 55.67,-131.71 54.4,-142.23 61.24,-140.72"/>
</g>
<!-- Node7 -->
<g id="node7" class="node">
<title>Node7</title>
<g id="a_node7"><a xlink:href="solver__interface_8h.html" target="_top" xlink:title="Interface and wrapper to matrix/factorization (ladel) functions.">
<polygon fill="white" stroke="black" points="82,-168.5 82,-187.5 186,-187.5 186,-168.5 82,-168.5"/>
<text text-anchor="middle" x="134" y="-175.5" font-family="Helvetica,sans-Serif" font-size="10.00">solver_interface.h</text>
</a>
</g>
</g>
<!-- Node6&#45;&gt;Node7 -->
<g id="edge8" class="edge">
<title>Node6&#45;&gt;Node7</title>
<path fill="none" stroke="midnightblue" d="M108.12,-224.08C112.41,-216.61 118.66,-205.72 123.94,-196.52"/>
<polygon fill="midnightblue" stroke="midnightblue" points="127.03,-198.17 128.98,-187.75 120.96,-194.68 127.03,-198.17"/>
</g>
<!-- Node7&#45;&gt;Node2 -->
<g id="edge12" class="edge">
<title>Node7&#45;&gt;Node2</title>
<path fill="none" stroke="midnightblue" d="M121.15,-168.32C108.78,-159.98 89.87,-147.21 75.26,-137.35"/>
<polygon fill="midnightblue" stroke="midnightblue" points="77.07,-134.35 66.82,-131.65 73.15,-140.15 77.07,-134.35"/>
</g>
<!-- Node7&#45;&gt;Node3 -->
<g id="edge9" class="edge">
<title>Node7&#45;&gt;Node3</title>
<path fill="none" stroke="midnightblue" d="M128.72,-168.16C120.83,-155.24 105.13,-130.71 89,-112 79.88,-101.43 68.53,-90.7 59.16,-82.36"/>
<polygon fill="midnightblue" stroke="midnightblue" points="61.38,-79.65 51.54,-75.73 56.78,-84.93 61.38,-79.65"/>
</g>
<!-- Node7&#45;&gt;Node4 -->
<g id="edge13" class="edge">
<title>Node7&#45;&gt;Node4</title>
<path fill="none" stroke="midnightblue" d="M133.73,-168.08C132.94,-141.95 130.63,-65.21 129.56,-29.58"/>
<polygon fill="midnightblue" stroke="midnightblue" points="133.06,-29.46 129.26,-19.57 126.06,-29.67 133.06,-29.46"/>
</g>
<!-- Node7&#45;&gt;Node8 -->
<g id="edge10" class="edge">
<title>Node7&#45;&gt;Node8</title>
<path fill="none" stroke="midnightblue" d="M146.69,-168.32C158.9,-159.98 177.58,-147.21 192,-137.35"/>
<polygon fill="midnightblue" stroke="midnightblue" points="194.06,-140.19 200.34,-131.65 190.11,-134.41 194.06,-140.19"/>
</g>
<!-- Node8&#45;&gt;Node4 -->
<g id="edge11" class="edge">
<title>Node8&#45;&gt;Node4</title>
<path fill="none" stroke="midnightblue" d="M206.41,-112.37C192.48,-94.14 159.87,-51.43 141.73,-27.68"/>
<polygon fill="midnightblue" stroke="midnightblue" points="144.41,-25.41 135.56,-19.59 138.85,-29.66 144.41,-25.41"/>
</g>
</g>
</svg>
