<?xml version="1.0" encoding="UTF-8" standalone="no"?>
<!DOCTYPE svg PUBLIC "-//W3C//DTD SVG 1.1//EN"
 "http://www.w3.org/Graphics/SVG/1.1/DTD/svg11.dtd">
<!-- Generated by graphviz version 2.43.0 (0)
 -->
<!-- Title: is_dual_infeasible Pages: 1 -->
<svg width="242pt" height="142pt"
 viewBox="0.00 0.00 242.00 142.00" xmlns="http://www.w3.org/2000/svg" xmlns:xlink="http://www.w3.org/1999/xlink">
<g id="graph0" class="graph" transform="scale(1 1) rotate(0) translate(4 138)">
<title>is_dual_infeasible</title>
<polygon fill="white" stroke="transparent" points="-4,4 -4,-138 238,-138 238,4 -4,4"/>
<!-- Node1 -->
<g id="node1" class="node">
<title>Node1</title>
<g id="a_node1"><a xlink:title="Check whether the problem is dual infeasible.">
<polygon fill="#bfbfbf" stroke="black" points="0,-57.5 0,-76.5 104,-76.5 104,-57.5 0,-57.5"/>
<text text-anchor="middle" x="52" y="-64.5" font-family="Helvetica,sans-Serif" font-size="10.00">is_dual_infeasible</text>
</a>
</g>
</g>
<!-- Node2 -->
<g id="node2" class="node">
<title>Node2</title>
<g id="a_node2"><a xlink:href="lin__alg_8c.html#a0fde1aeeea954e43db160ec6e3697cd5" target="_top" xlink:title="Scaled addition of one vector to another vector, .">
<polygon fill="white" stroke="black" points="140,-114.5 140,-133.5 234,-133.5 234,-114.5 140,-114.5"/>
<text text-anchor="middle" x="187" y="-121.5" font-family="Helvetica,sans-Serif" font-size="10.00">vec_add_scaled</text>
</a>
</g>
</g>
<!-- Node1&#45;&gt;Node2 -->
<g id="edge1" class="edge">
<title>Node1&#45;&gt;Node2</title>
<path fill="none" stroke="midnightblue" d="M74.76,-76.65C92.32,-84.4 117.7,-95.53 140,-105 144.23,-106.8 148.69,-108.67 153.1,-110.5"/>
<polygon fill="midnightblue" stroke="midnightblue" points="151.98,-113.83 162.56,-114.42 154.66,-107.36 151.98,-113.83"/>
</g>
<!-- Node3 -->
<g id="node3" class="node">
<title>Node3</title>
<g id="a_node3"><a xlink:href="lin__alg_8c.html#ab48ddb2d35dd1a04bd27f06cb49400cb" target="_top" xlink:title="Elementwise product, .">
<polygon fill="white" stroke="black" points="147,-76.5 147,-95.5 227,-95.5 227,-76.5 147,-76.5"/>
<text text-anchor="middle" x="187" y="-83.5" font-family="Helvetica,sans-Serif" font-size="10.00">vec_ew_prod</text>
</a>
</g>
</g>
<!-- Node1&#45;&gt;Node3 -->
<g id="edge2" class="edge">
<title>Node1&#45;&gt;Node3</title>
<path fill="none" stroke="midnightblue" d="M104.04,-74.29C114.81,-75.83 126.15,-77.45 136.85,-78.98"/>
<polygon fill="midnightblue" stroke="midnightblue" points="136.48,-82.46 146.87,-80.41 137.47,-75.53 136.48,-82.46"/>
</g>
<!-- Node4 -->
<g id="node4" class="node">
<title>Node4</title>
<g id="a_node4"><a xlink:href="lin__alg_8c.html#ad69e3ef3b7360cd1d6262ee2f32fce83" target="_top" xlink:title="Infinity norm of a vector, .">
<polygon fill="white" stroke="black" points="145.5,-38.5 145.5,-57.5 228.5,-57.5 228.5,-38.5 145.5,-38.5"/>
<text text-anchor="middle" x="187" y="-45.5" font-family="Helvetica,sans-Serif" font-size="10.00">vec_norm_inf</text>
</a>
</g>
</g>
<!-- Node1&#45;&gt;Node4 -->
<g id="edge3" class="edge">
<title>Node1&#45;&gt;Node4</title>
<path fill="none" stroke="midnightblue" d="M104.04,-59.71C114.26,-58.25 124.99,-56.72 135.21,-55.26"/>
<polygon fill="midnightblue" stroke="midnightblue" points="135.8,-58.71 145.2,-53.83 134.81,-51.78 135.8,-58.71"/>
</g>
<!-- Node5 -->
<g id="node5" class="node">
<title>Node5</title>
<g id="a_node5"><a xlink:href="lin__alg_8c.html#ab83e787c2e0edb5803a860b1c894f53d" target="_top" xlink:title="Inner product between two vectors, .">
<polygon fill="white" stroke="black" points="156.5,-0.5 156.5,-19.5 217.5,-19.5 217.5,-0.5 156.5,-0.5"/>
<text text-anchor="middle" x="187" y="-7.5" font-family="Helvetica,sans-Serif" font-size="10.00">vec_prod</text>
</a>
</g>
</g>
<!-- Node1&#45;&gt;Node5 -->
<g id="edge4" class="edge">
<title>Node1&#45;&gt;Node5</title>
<path fill="none" stroke="midnightblue" d="M74.76,-57.35C92.32,-49.6 117.7,-38.47 140,-29 144.23,-27.2 148.69,-25.33 153.1,-23.5"/>
<polygon fill="midnightblue" stroke="midnightblue" points="154.66,-26.64 162.56,-19.58 151.98,-20.17 154.66,-26.64"/>
</g>
</g>
</svg>
