<?xml version="1.0" encoding="UTF-8" standalone="no"?>
<!DOCTYPE svg PUBLIC "-//W3C//DTD SVG 1.1//EN"
 "http://www.w3.org/Graphics/SVG/1.1/DTD/svg11.dtd">
<!-- Generated by graphviz version 2.43.0 (0)
 -->
<!-- Title: c_strcpy Pages: 1 -->
<svg width="543pt" height="127pt"
 viewBox="0.00 0.00 543.00 126.50" xmlns="http://www.w3.org/2000/svg" xmlns:xlink="http://www.w3.org/1999/xlink">
<g id="graph0" class="graph" transform="scale(1 1) rotate(0) translate(4 122.5)">
<title>c_strcpy</title>
<polygon fill="white" stroke="transparent" points="-4,4 -4,-122.5 539,-122.5 539,4 -4,4"/>
<!-- Node1 -->
<g id="node1" class="node">
<title>Node1</title>
<g id="a_node1"><a xlink:title="Custom string copy to avoid string.h library.">
<polygon fill="#bfbfbf" stroke="black" points="478,-74 478,-93 535,-93 535,-74 478,-74"/>
<text text-anchor="middle" x="506.5" y="-81" font-family="Helvetica,sans-Serif" font-size="10.00">c_strcpy</text>
</a>
</g>
</g>
<!-- Node2 -->
<g id="node2" class="node">
<title>Node2</title>
<g id="a_node2"><a xlink:href="util_8c.html#ae4a3db21e55ea56c33c599e405771403" target="_top" xlink:title="Print final message as a box with info.">
<polygon fill="white" stroke="black" points="327,-93 327,-112 442,-112 442,-93 327,-93"/>
<text text-anchor="middle" x="384.5" y="-100" font-family="Helvetica,sans-Serif" font-size="10.00">print_final_message</text>
</a>
</g>
</g>
<!-- Node1&#45;&gt;Node2 -->
<g id="edge1" class="edge">
<title>Node1&#45;&gt;Node2</title>
<path fill="none" stroke="midnightblue" d="M468.02,-89.43C459.84,-90.73 451.01,-92.13 442.28,-93.51"/>
<polygon fill="midnightblue" stroke="midnightblue" points="468.64,-92.88 477.97,-87.86 467.55,-85.97 468.64,-92.88"/>
</g>
<!-- Node3 -->
<g id="node3" class="node">
<title>Node3</title>
<g id="a_node3"><a xlink:href="util_8c.html#a14fe651105f1f38b2a3a49614f4b8ae2" target="_top" xlink:title="Update solver status (value and string).">
<polygon fill="white" stroke="black" points="341.5,-55 341.5,-74 427.5,-74 427.5,-55 341.5,-55"/>
<text text-anchor="middle" x="384.5" y="-62" font-family="Helvetica,sans-Serif" font-size="10.00">update_status</text>
</a>
</g>
</g>
<!-- Node1&#45;&gt;Node3 -->
<g id="edge2" class="edge">
<title>Node1&#45;&gt;Node3</title>
<path fill="none" stroke="midnightblue" d="M467.77,-77.53C455.13,-75.52 440.94,-73.28 427.96,-71.22"/>
<polygon fill="midnightblue" stroke="midnightblue" points="467.55,-81.03 477.97,-79.14 468.64,-74.12 467.55,-81.03"/>
</g>
<!-- Node4 -->
<g id="node4" class="node">
<title>Node4</title>
<g id="a_node4"><a xlink:href="group__solver-grp.html#gaaff827465b1299909f394de8771baef9" target="_top" xlink:title="Initialize QPALM solver allocating memory.">
<polygon fill="white" stroke="black" points="185.5,-96 185.5,-115 265.5,-115 265.5,-96 185.5,-96"/>
<text text-anchor="middle" x="225.5" y="-103" font-family="Helvetica,sans-Serif" font-size="10.00">qpalm_setup</text>
</a>
</g>
</g>
<!-- Node3&#45;&gt;Node4 -->
<g id="edge3" class="edge">
<title>Node3&#45;&gt;Node4</title>
<path fill="none" stroke="midnightblue" d="M337.25,-76.58C313.56,-82.77 285.12,-90.19 262.99,-95.97"/>
<polygon fill="midnightblue" stroke="midnightblue" points="338.3,-79.92 347.09,-74.01 336.53,-73.15 338.3,-79.92"/>
</g>
<!-- Node6 -->
<g id="node6" class="node">
<title>Node6</title>
<g id="a_node6"><a xlink:href="group__solver-grp.html#ga385f399d0fb6afaaa0da5f3a114bf922" target="_top" xlink:title="Update the lower and upper bounds.">
<polygon fill="white" stroke="black" points="162,-55 162,-74 289,-74 289,-55 162,-55"/>
<text text-anchor="middle" x="225.5" y="-62" font-family="Helvetica,sans-Serif" font-size="10.00">qpalm_update_bounds</text>
</a>
</g>
</g>
<!-- Node3&#45;&gt;Node6 -->
<g id="edge5" class="edge">
<title>Node3&#45;&gt;Node6</title>
<path fill="none" stroke="midnightblue" d="M331.34,-64.5C317.8,-64.5 303.08,-64.5 289.07,-64.5"/>
<polygon fill="midnightblue" stroke="midnightblue" points="331.43,-68 341.43,-64.5 331.43,-61 331.43,-68"/>
</g>
<!-- Node8 -->
<g id="node8" class="node">
<title>Node8</title>
<g id="a_node8"><a xlink:href="group__solver-grp.html#ga581cf986cb484ec5721f76b025eda704" target="_top" xlink:title="Update the settings to the new settings.">
<polygon fill="white" stroke="black" points="160,-12 160,-31 291,-31 291,-12 160,-12"/>
<text text-anchor="middle" x="225.5" y="-19" font-family="Helvetica,sans-Serif" font-size="10.00">qpalm_update_settings</text>
</a>
</g>
</g>
<!-- Node3&#45;&gt;Node8 -->
<g id="edge7" class="edge">
<title>Node3&#45;&gt;Node8</title>
<path fill="none" stroke="midnightblue" d="M338.83,-52.26C314.2,-45.52 284.09,-37.27 261.25,-31.02"/>
<polygon fill="midnightblue" stroke="midnightblue" points="338.09,-55.69 348.66,-54.96 339.94,-48.94 338.09,-55.69"/>
</g>
<!-- Node5 -->
<g id="node5" class="node">
<title>Node5</title>
<g id="a_node5"><a xlink:href="qpalm__fortran_8c.html#abec01161fcee665e126347b862c404c4" target="_top" xlink:title=" ">
<polygon fill="white" stroke="black" points="14,-99 14,-118 110,-118 110,-99 14,-99"/>
<text text-anchor="middle" x="62" y="-106" font-family="Helvetica,sans-Serif" font-size="10.00">qpalm_fortran_c</text>
</a>
</g>
</g>
<!-- Node4&#45;&gt;Node5 -->
<g id="edge4" class="edge">
<title>Node4&#45;&gt;Node5</title>
<path fill="none" stroke="midnightblue" d="M175.22,-106.42C154.52,-106.8 130.54,-107.25 110.08,-107.63"/>
<polygon fill="midnightblue" stroke="midnightblue" points="175.47,-109.91 185.41,-106.23 175.34,-102.91 175.47,-109.91"/>
</g>
<!-- Node7 -->
<g id="node7" class="node">
<title>Node7</title>
<g id="a_node7"><a xlink:href="classqpalm_1_1Solver.html#a6df33bfd68c5b8caaaa6f726f1a9f517" target="_top" xlink:title=" ">
<polygon fill="white" stroke="black" points="0,-49.5 0,-79.5 124,-79.5 124,-49.5 0,-49.5"/>
<text text-anchor="start" x="8" y="-67.5" font-family="Helvetica,sans-Serif" font-size="10.00">qpalm::Solver::update</text>
<text text-anchor="middle" x="62" y="-56.5" font-family="Helvetica,sans-Serif" font-size="10.00">_bounds</text>
</a>
</g>
</g>
<!-- Node6&#45;&gt;Node7 -->
<g id="edge6" class="edge">
<title>Node6&#45;&gt;Node7</title>
<path fill="none" stroke="midnightblue" d="M151.39,-64.5C142.28,-64.5 133.04,-64.5 124.14,-64.5"/>
<polygon fill="midnightblue" stroke="midnightblue" points="151.6,-68 161.6,-64.5 151.6,-61 151.6,-68"/>
</g>
<!-- Node9 -->
<g id="node9" class="node">
<title>Node9</title>
<g id="a_node9"><a xlink:href="classqpalm_1_1Solver.html#a895c0635d6fdd0a3026894697ea6903b" target="_top" xlink:title=" ">
<polygon fill="white" stroke="black" points="0,-0.5 0,-30.5 124,-30.5 124,-0.5 0,-0.5"/>
<text text-anchor="start" x="8" y="-18.5" font-family="Helvetica,sans-Serif" font-size="10.00">qpalm::Solver::update</text>
<text text-anchor="middle" x="62" y="-7.5" font-family="Helvetica,sans-Serif" font-size="10.00">_settings</text>
</a>
</g>
</g>
<!-- Node8&#45;&gt;Node9 -->
<g id="edge8" class="edge">
<title>Node8&#45;&gt;Node9</title>
<path fill="none" stroke="midnightblue" d="M149.73,-18.72C141.15,-18.4 132.48,-18.08 124.1,-17.77"/>
<polygon fill="midnightblue" stroke="midnightblue" points="149.62,-22.22 159.74,-19.09 149.88,-15.23 149.62,-22.22"/>
</g>
</g>
</svg>
