<?xml version="1.0" encoding="UTF-8" standalone="no"?>
<!DOCTYPE svg PUBLIC "-//W3C//DTD SVG 1.1//EN"
 "http://www.w3.org/Graphics/SVG/1.1/DTD/svg11.dtd">
<!-- Generated by graphviz version 2.43.0 (0)
 -->
<!-- Title: copy_settings Pages: 1 -->
<svg width="419pt" height="78pt"
 viewBox="0.00 0.00 419.00 77.50" xmlns="http://www.w3.org/2000/svg" xmlns:xlink="http://www.w3.org/1999/xlink">
<g id="graph0" class="graph" transform="scale(1 1) rotate(0) translate(4 73.5)">
<title>copy_settings</title>
<polygon fill="white" stroke="transparent" points="-4,4 -4,-73.5 415,-73.5 415,4 -4,4"/>
<!-- Node1 -->
<g id="node1" class="node">
<title>Node1</title>
<g id="a_node1"><a xlink:title="Copy settings creating a new settings structure.">
<polygon fill="#bfbfbf" stroke="black" points="327,-28 327,-47 411,-47 411,-28 327,-28"/>
<text text-anchor="middle" x="369" y="-35" font-family="Helvetica,sans-Serif" font-size="10.00">copy_settings</text>
</a>
</g>
</g>
<!-- Node2 -->
<g id="node2" class="node">
<title>Node2</title>
<g id="a_node2"><a xlink:href="group__solver-grp.html#gaaff827465b1299909f394de8771baef9" target="_top" xlink:title="Initialize QPALM solver allocating memory.">
<polygon fill="white" stroke="black" points="185.5,-48 185.5,-67 265.5,-67 265.5,-48 185.5,-48"/>
<text text-anchor="middle" x="225.5" y="-55" font-family="Helvetica,sans-Serif" font-size="10.00">qpalm_setup</text>
</a>
</g>
</g>
<!-- Node1&#45;&gt;Node2 -->
<g id="edge1" class="edge">
<title>Node1&#45;&gt;Node2</title>
<path fill="none" stroke="midnightblue" d="M316.49,-44.78C299.72,-47.15 281.39,-49.74 265.67,-51.96"/>
<polygon fill="midnightblue" stroke="midnightblue" points="317.28,-48.2 326.69,-43.34 316.3,-41.27 317.28,-48.2"/>
</g>
<!-- Node4 -->
<g id="node4" class="node">
<title>Node4</title>
<g id="a_node4"><a xlink:href="group__solver-grp.html#ga581cf986cb484ec5721f76b025eda704" target="_top" xlink:title="Update the settings to the new settings.">
<polygon fill="white" stroke="black" points="160,-9 160,-28 291,-28 291,-9 160,-9"/>
<text text-anchor="middle" x="225.5" y="-16" font-family="Helvetica,sans-Serif" font-size="10.00">qpalm_update_settings</text>
</a>
</g>
</g>
<!-- Node1&#45;&gt;Node4 -->
<g id="edge3" class="edge">
<title>Node1&#45;&gt;Node4</title>
<path fill="none" stroke="midnightblue" d="M316.74,-30.62C308.39,-29.5 299.64,-28.32 291.03,-27.16"/>
<polygon fill="midnightblue" stroke="midnightblue" points="316.32,-34.09 326.69,-31.95 317.25,-27.15 316.32,-34.09"/>
</g>
<!-- Node3 -->
<g id="node3" class="node">
<title>Node3</title>
<g id="a_node3"><a xlink:href="qpalm__fortran_8c.html#abec01161fcee665e126347b862c404c4" target="_top" xlink:title=" ">
<polygon fill="white" stroke="black" points="14,-50 14,-69 110,-69 110,-50 14,-50"/>
<text text-anchor="middle" x="62" y="-57" font-family="Helvetica,sans-Serif" font-size="10.00">qpalm_fortran_c</text>
</a>
</g>
</g>
<!-- Node2&#45;&gt;Node3 -->
<g id="edge2" class="edge">
<title>Node2&#45;&gt;Node3</title>
<path fill="none" stroke="midnightblue" d="M175.22,-58.11C154.52,-58.37 130.54,-58.66 110.08,-58.92"/>
<polygon fill="midnightblue" stroke="midnightblue" points="175.45,-61.61 185.41,-57.98 175.36,-54.61 175.45,-61.61"/>
</g>
<!-- Node5 -->
<g id="node5" class="node">
<title>Node5</title>
<g id="a_node5"><a xlink:href="classqpalm_1_1Solver.html#a895c0635d6fdd0a3026894697ea6903b" target="_top" xlink:title=" ">
<polygon fill="white" stroke="black" points="0,-0.5 0,-30.5 124,-30.5 124,-0.5 0,-0.5"/>
<text text-anchor="start" x="8" y="-18.5" font-family="Helvetica,sans-Serif" font-size="10.00">qpalm::Solver::update</text>
<text text-anchor="middle" x="62" y="-7.5" font-family="Helvetica,sans-Serif" font-size="10.00">_settings</text>
</a>
</g>
</g>
<!-- Node4&#45;&gt;Node5 -->
<g id="edge4" class="edge">
<title>Node4&#45;&gt;Node5</title>
<path fill="none" stroke="midnightblue" d="M149.73,-17.11C141.15,-16.95 132.48,-16.79 124.1,-16.64"/>
<polygon fill="midnightblue" stroke="midnightblue" points="149.68,-20.61 159.74,-17.3 149.81,-13.61 149.68,-20.61"/>
</g>
</g>
</svg>
