<?xml version="1.0" encoding="UTF-8" standalone="no"?>
<!DOCTYPE svg PUBLIC "-//W3C//DTD SVG 1.1//EN"
 "http://www.w3.org/Graphics/SVG/1.1/DTD/svg11.dtd">
<!-- Generated by graphviz version 2.43.0 (0)
 -->
<!-- Title: qpalm_free Pages: 1 -->
<svg width="407pt" height="183pt"
 viewBox="0.00 0.00 407.00 182.50" xmlns="http://www.w3.org/2000/svg" xmlns:xlink="http://www.w3.org/1999/xlink">
<g id="graph0" class="graph" transform="scale(1 1) rotate(0) translate(4 178.5)">
<title>qpalm_free</title>
<!-- Node1 -->
<g id="node1" class="node">
<title>Node1</title>
<g id="a_node1"><a xlink:title=" ">
<polygon fill="#999999" stroke="#666666" points="399,-91.5 327,-91.5 327,-72.5 399,-72.5 399,-91.5"/>
<text text-anchor="middle" x="363" y="-79.5" font-family="Helvetica,sans-Serif" font-size="10.00">qpalm_free</text>
</a>
</g>
</g>
<!-- Node2 -->
<g id="node2" class="node">
<title>Node2</title>
<g id="a_node2"><a xlink:href="group__solver-grp.html#ga95ac68ad137ef5e10acdab6819e4bcd9" target="_top" xlink:title="Cleanup the workspace by deallocating memory.">
<polygon fill="white" stroke="#666666" points="271,-148.5 180,-148.5 180,-129.5 271,-129.5 271,-148.5"/>
<text text-anchor="middle" x="225.5" y="-136.5" font-family="Helvetica,sans-Serif" font-size="10.00">qpalm_cleanup</text>
</a>
</g>
</g>
<!-- Node1&#45;&gt;Node2 -->
<g id="edge1" class="edge">
<title>Node1&#45;&gt;Node2</title>
<path fill="none" stroke="#63b8ff" d="M333.34,-95.95C320.49,-102.04 305.09,-109.11 291,-115 278.87,-120.07 265.26,-125.21 253.67,-129.43"/>
<polygon fill="#63b8ff" stroke="#63b8ff" points="335.08,-98.99 342.6,-91.52 332.06,-92.68 335.08,-98.99"/>
</g>
<!-- Node4 -->
<g id="node4" class="node">
<title>Node4</title>
<g id="a_node4"><a xlink:href="qpalm__fortran_8c.html#abec01161fcee665e126347b862c404c4" target="_top" xlink:title=" ">
<polygon fill="white" stroke="#666666" points="110,-115.5 14,-115.5 14,-96.5 110,-96.5 110,-115.5"/>
<text text-anchor="middle" x="62" y="-103.5" font-family="Helvetica,sans-Serif" font-size="10.00">qpalm_fortran_c</text>
</a>
</g>
</g>
<!-- Node1&#45;&gt;Node4 -->
<g id="edge4" class="edge">
<title>Node1&#45;&gt;Node4</title>
<path fill="none" stroke="#63b8ff" d="M316.53,-85.65C260.73,-90.13 166.59,-97.69 110.07,-102.22"/>
<polygon fill="#63b8ff" stroke="#63b8ff" points="317.13,-89.11 326.82,-84.82 316.57,-82.14 317.13,-89.11"/>
</g>
<!-- Node5 -->
<g id="node5" class="node">
<title>Node5</title>
<g id="a_node5"><a xlink:href="group__solver-grp.html#ga581cf986cb484ec5721f76b025eda704" target="_top" xlink:title="Update the settings to the new settings.">
<polygon fill="white" stroke="#666666" points="291,-72.5 160,-72.5 160,-53.5 291,-53.5 291,-72.5"/>
<text text-anchor="middle" x="225.5" y="-60.5" font-family="Helvetica,sans-Serif" font-size="10.00">qpalm_update_settings</text>
</a>
</g>
</g>
<!-- Node1&#45;&gt;Node5 -->
<g id="edge5" class="edge">
<title>Node1&#45;&gt;Node5</title>
<path fill="none" stroke="#63b8ff" d="M316.7,-75.65C308.52,-74.5 299.85,-73.29 291.24,-72.08"/>
<polygon fill="#63b8ff" stroke="#63b8ff" points="316.36,-79.13 326.75,-77.06 317.34,-72.2 316.36,-79.13"/>
</g>
<!-- Node7 -->
<g id="node7" class="node">
<title>Node7</title>
<g id="a_node7"><a xlink:href="group__solver-grp.html#ga28824f01d01f181a6ad6b413f30a2609" target="_top" xlink:title="Warm start workspace variables x, x_0, x_prev, Ax, Qx, y and sigma.">
<polygon fill="white" stroke="#666666" points="279.5,-30.5 171.5,-30.5 171.5,-11.5 279.5,-11.5 279.5,-30.5"/>
<text text-anchor="middle" x="225.5" y="-18.5" font-family="Helvetica,sans-Serif" font-size="10.00">qpalm_warm_start</text>
</a>
</g>
</g>
<!-- Node1&#45;&gt;Node7 -->
<g id="edge7" class="edge">
<title>Node1&#45;&gt;Node7</title>
<path fill="none" stroke="#63b8ff" d="M336.66,-67.25C323.32,-59.79 306.53,-50.88 291,-44 279.8,-39.04 267.18,-34.35 256.08,-30.51"/>
<polygon fill="#63b8ff" stroke="#63b8ff" points="335.28,-70.49 345.71,-72.38 338.73,-64.4 335.28,-70.49"/>
</g>
<!-- Node3 -->
<g id="node3" class="node">
<title>Node3</title>
<g id="a_node3"><a xlink:href="structqpalm_1_1alloc_1_1qpalm__workspace__cleaner.html#a0153941f8aa59d256f436151041815ef" target="_top" xlink:title=" ">
<polygon fill="white" stroke="#666666" points="123,-174.5 1,-174.5 1,-133.5 123,-133.5 123,-174.5"/>
<text text-anchor="start" x="9" y="-162.5" font-family="Helvetica,sans-Serif" font-size="10.00">qpalm::alloc::qpalm</text>
<text text-anchor="start" x="9" y="-151.5" font-family="Helvetica,sans-Serif" font-size="10.00">_workspace_cleaner::</text>
<text text-anchor="middle" x="62" y="-140.5" font-family="Helvetica,sans-Serif" font-size="10.00">operator()</text>
</a>
</g>
</g>
<!-- Node2&#45;&gt;Node3 -->
<g id="edge2" class="edge">
<title>Node2&#45;&gt;Node3</title>
<path fill="none" stroke="#63b8ff" d="M169.79,-144.08C154.78,-145.48 138.43,-146.99 123.13,-148.41"/>
<polygon fill="#63b8ff" stroke="#63b8ff" points="170.31,-147.55 179.94,-143.14 169.66,-140.58 170.31,-147.55"/>
</g>
<!-- Node2&#45;&gt;Node4 -->
<g id="edge3" class="edge">
<title>Node2&#45;&gt;Node4</title>
<path fill="none" stroke="#63b8ff" d="M169.95,-127.85C150.38,-123.85 128.51,-119.39 109.67,-115.54"/>
<polygon fill="#63b8ff" stroke="#63b8ff" points="169.44,-131.32 179.94,-129.9 170.85,-124.46 169.44,-131.32"/>
</g>
<!-- Node6 -->
<g id="node6" class="node">
<title>Node6</title>
<g id="a_node6"><a xlink:href="classqpalm_1_1Solver.html#a895c0635d6fdd0a3026894697ea6903b" target="_top" xlink:title=" ">
<polygon fill="white" stroke="#666666" points="124,-78 0,-78 0,-48 124,-48 124,-78"/>
<text text-anchor="start" x="8" y="-66" font-family="Helvetica,sans-Serif" font-size="10.00">qpalm::Solver::update</text>
<text text-anchor="middle" x="62" y="-55" font-family="Helvetica,sans-Serif" font-size="10.00">_settings</text>
</a>
</g>
</g>
<!-- Node5&#45;&gt;Node6 -->
<g id="edge6" class="edge">
<title>Node5&#45;&gt;Node6</title>
<path fill="none" stroke="#63b8ff" d="M149.73,-63C141.15,-63 132.48,-63 124.1,-63"/>
<polygon fill="#63b8ff" stroke="#63b8ff" points="149.74,-66.5 159.74,-63 149.74,-59.5 149.74,-66.5"/>
</g>
<!-- Node8 -->
<g id="node8" class="node">
<title>Node8</title>
<g id="a_node8"><a xlink:href="classqpalm_1_1Solver.html#a693af99e39a9035bbbc4fb61fcb427d1" target="_top" xlink:title=" ">
<polygon fill="white" stroke="#666666" points="121,-30 3,-30 3,0 121,0 121,-30"/>
<text text-anchor="start" x="11" y="-18" font-family="Helvetica,sans-Serif" font-size="10.00">qpalm::Solver::warm</text>
<text text-anchor="middle" x="62" y="-7" font-family="Helvetica,sans-Serif" font-size="10.00">_start</text>
</a>
</g>
</g>
<!-- Node7&#45;&gt;Node8 -->
<g id="edge8" class="edge">
<title>Node7&#45;&gt;Node8</title>
<path fill="none" stroke="#63b8ff" d="M160.81,-18.63C147.68,-18.15 133.92,-17.63 121,-17.15"/>
<polygon fill="#63b8ff" stroke="#63b8ff" points="161.05,-22.14 171.17,-19.02 161.31,-15.15 161.05,-22.14"/>
</g>
</g>
</svg>
