<?xml version="1.0" encoding="UTF-8" standalone="no"?>
<!DOCTYPE svg PUBLIC "-//W3C//DTD SVG 1.1//EN"
 "http://www.w3.org/Graphics/SVG/1.1/DTD/svg11.dtd">
<!-- Generated by graphviz version 2.43.0 (0)
 -->
<!-- Title: update_sigma Pages: 1 -->
<svg width="511pt" height="73pt"
 viewBox="0.00 0.00 511.00 72.50" xmlns="http://www.w3.org/2000/svg" xmlns:xlink="http://www.w3.org/1999/xlink">
<g id="graph0" class="graph" transform="scale(1 1) rotate(0) translate(4 68.5)">
<title>update_sigma</title>
<!-- Node1 -->
<g id="node1" class="node">
<title>Node1</title>
<g id="a_node1"><a xlink:title="Update the penalty factors.">
<polygon fill="#999999" stroke="#666666" points="503,-45.5 417,-45.5 417,-26.5 503,-26.5 503,-45.5"/>
<text text-anchor="middle" x="460" y="-33.5" font-family="Helvetica,sans-Serif" font-size="10.00">update_sigma</text>
</a>
</g>
</g>
<!-- Node2 -->
<g id="node2" class="node">
<title>Node2</title>
<g id="a_node2"><a xlink:href="group__solver-grp.html#ga9bbc8b47dfd2e86a81dd77feb4077bde" target="_top" xlink:title="Solve the quadratic program.">
<polygon fill="white" stroke="#666666" points="231,-45.5 152,-45.5 152,-26.5 231,-26.5 231,-45.5"/>
<text text-anchor="middle" x="191.5" y="-33.5" font-family="Helvetica,sans-Serif" font-size="10.00">qpalm_solve</text>
</a>
</g>
</g>
<!-- Node1&#45;&gt;Node2 -->
<g id="edge1" class="edge">
<title>Node1&#45;&gt;Node2</title>
<path fill="none" stroke="#63b8ff" d="M406.9,-38.28C398.25,-38.58 389.38,-38.84 381,-39 330.34,-39.97 317.66,-40.02 267,-39 255.35,-38.77 242.69,-38.33 231.16,-37.85"/>
<polygon fill="#63b8ff" stroke="#63b8ff" points="407.04,-41.78 416.91,-37.92 406.79,-34.78 407.04,-41.78"/>
</g>
<!-- Node5 -->
<g id="node5" class="node">
<title>Node5</title>
<g id="a_node5"><a xlink:href="iteration_8c.html#a1ad7b6cb4924a8de3378ed35890b02e7" target="_top" xlink:title=" ">
<polygon fill="white" stroke="#666666" points="381,-30 267,-30 267,0 381,0 381,-30"/>
<text text-anchor="start" x="275" y="-18" font-family="Helvetica,sans-Serif" font-size="10.00">update_dual_iterate</text>
<text text-anchor="middle" x="324" y="-7" font-family="Helvetica,sans-Serif" font-size="10.00">_and_parameters</text>
</a>
</g>
</g>
<!-- Node1&#45;&gt;Node5 -->
<g id="edge4" class="edge">
<title>Node1&#45;&gt;Node5</title>
<path fill="none" stroke="#63b8ff" d="M406.88,-27.83C398.44,-26.51 389.66,-25.13 381.13,-23.8"/>
<polygon fill="#63b8ff" stroke="#63b8ff" points="406.55,-31.32 416.97,-29.41 407.63,-24.41 406.55,-31.32"/>
</g>
<!-- Node3 -->
<g id="node3" class="node">
<title>Node3</title>
<g id="a_node3"><a xlink:href="qpalm__fortran_8c.html#abec01161fcee665e126347b862c404c4" target="_top" xlink:title=" ">
<polygon fill="white" stroke="#666666" points="106,-64.5 10,-64.5 10,-45.5 106,-45.5 106,-64.5"/>
<text text-anchor="middle" x="58" y="-52.5" font-family="Helvetica,sans-Serif" font-size="10.00">qpalm_fortran_c</text>
</a>
</g>
</g>
<!-- Node2&#45;&gt;Node3 -->
<g id="edge2" class="edge">
<title>Node2&#45;&gt;Node3</title>
<path fill="none" stroke="#63b8ff" d="M141.8,-43.04C130.2,-44.71 117.85,-46.5 106.31,-48.16"/>
<polygon fill="#63b8ff" stroke="#63b8ff" points="142.36,-46.49 151.76,-41.6 141.36,-39.56 142.36,-46.49"/>
</g>
<!-- Node4 -->
<g id="node4" class="node">
<title>Node4</title>
<g id="a_node4"><a xlink:href="classqpalm_1_1Solver.html#a7d723d189a812ffa19d688b7aa38ccca" target="_top" xlink:title="Solve the problem.">
<polygon fill="white" stroke="#666666" points="116,-27.5 0,-27.5 0,-8.5 116,-8.5 116,-27.5"/>
<text text-anchor="middle" x="58" y="-15.5" font-family="Helvetica,sans-Serif" font-size="10.00">qpalm::Solver::solve</text>
</a>
</g>
</g>
<!-- Node2&#45;&gt;Node4 -->
<g id="edge3" class="edge">
<title>Node2&#45;&gt;Node4</title>
<path fill="none" stroke="#63b8ff" d="M141.62,-29.31C133.43,-28.19 124.86,-27.02 116.47,-25.87"/>
<polygon fill="#63b8ff" stroke="#63b8ff" points="141.37,-32.81 151.76,-30.7 142.32,-25.87 141.37,-32.81"/>
</g>
<!-- Node5&#45;&gt;Node2 -->
<g id="edge5" class="edge">
<title>Node5&#45;&gt;Node2</title>
<path fill="none" stroke="#63b8ff" d="M256.98,-25.62C248.17,-27.04 239.38,-28.46 231.25,-29.77"/>
<polygon fill="#63b8ff" stroke="#63b8ff" points="257.58,-29.07 266.9,-24.03 256.47,-22.16 257.58,-29.07"/>
</g>
</g>
</svg>
