<?xml version="1.0" encoding="UTF-8" standalone="no"?>
<!DOCTYPE svg PUBLIC "-//W3C//DTD SVG 1.1//EN"
 "http://www.w3.org/Graphics/SVG/1.1/DTD/svg11.dtd">
<!-- Generated by graphviz version 2.43.0 (0)
 -->
<!-- Title: QPALM/include/lin_alg.h Pages: 1 -->
<svg width="1800pt" height="269pt"
 viewBox="0.00 0.00 1799.50 269.00" xmlns="http://www.w3.org/2000/svg" xmlns:xlink="http://www.w3.org/1999/xlink">
<g id="graph0" class="graph" transform="scale(1 1) rotate(0) translate(4 265)">
<title>QPALM/include/lin_alg.h</title>
<!-- Node1 -->
<g id="node1" class="node">
<title>Node1</title>
<g id="a_node1"><a xlink:title="Linear algebra with vectors.">
<polygon fill="#999999" stroke="#666666" points="929.5,-261 796.5,-261 796.5,-242 929.5,-242 929.5,-261"/>
<text text-anchor="middle" x="863" y="-249" font-family="Helvetica,sans-Serif" font-size="10.00">QPALM/include/lin_alg.h</text>
</a>
</g>
</g>
<!-- Node2 -->
<g id="node2" class="node">
<title>Node2</title>
<g id="a_node2"><a xlink:href="qpalm_8h.html" target="_top" xlink:title="QPALM main solver API.">
<polygon fill="white" stroke="#666666" points="282.5,-151 151.5,-151 151.5,-132 282.5,-132 282.5,-151"/>
<text text-anchor="middle" x="217" y="-139" font-family="Helvetica,sans-Serif" font-size="10.00">QPALM/include/qpalm.h</text>
</a>
</g>
</g>
<!-- Node1&#45;&gt;Node2 -->
<g id="edge1" class="edge">
<title>Node1&#45;&gt;Node2</title>
<path fill="none" stroke="#63b8ff" d="M785.99,-249.97C652.47,-248.15 383.94,-240.19 297,-206 266.31,-193.93 237.98,-165.88 224.79,-151.44"/>
<polygon fill="#63b8ff" stroke="#63b8ff" points="786.1,-253.47 796.14,-250.1 786.19,-246.47 786.1,-253.47"/>
</g>
<!-- Node6 -->
<g id="node6" class="node">
<title>Node6</title>
<g id="a_node6"><a xlink:href="qpalm_8c.html" target="_top" xlink:title="QPALM main solver API.">
<polygon fill="white" stroke="#666666" points="406,-90.5 296,-90.5 296,-71.5 406,-71.5 406,-90.5"/>
<text text-anchor="middle" x="351" y="-78.5" font-family="Helvetica,sans-Serif" font-size="10.00">QPALM/src/qpalm.c</text>
</a>
</g>
</g>
<!-- Node1&#45;&gt;Node6 -->
<g id="edge15" class="edge">
<title>Node1&#45;&gt;Node6</title>
<path fill="none" stroke="#63b8ff" d="M786.06,-249.71C645.83,-247.46 360.23,-238.85 330,-206 299.55,-172.9 331.7,-112.78 345.42,-90.55"/>
<polygon fill="#63b8ff" stroke="#63b8ff" points="786.26,-253.21 796.31,-249.87 786.36,-246.21 786.26,-253.21"/>
</g>
<!-- Node7 -->
<g id="node7" class="node">
<title>Node7</title>
<g id="a_node7"><a xlink:href="scaling_8h.html" target="_top" xlink:title="Problem data scaling during setup.">
<polygon fill="white" stroke="#666666" points="474.5,-206 339.5,-206 339.5,-187 474.5,-187 474.5,-206"/>
<text text-anchor="middle" x="407" y="-194" font-family="Helvetica,sans-Serif" font-size="10.00">QPALM/include/scaling.h</text>
</a>
</g>
</g>
<!-- Node1&#45;&gt;Node7 -->
<g id="edge6" class="edge">
<title>Node1&#45;&gt;Node7</title>
<path fill="none" stroke="#63b8ff" d="M786.1,-241.56C698.87,-231.42 557.96,-215.05 474.72,-205.37"/>
<polygon fill="#63b8ff" stroke="#63b8ff" points="785.87,-245.06 796.21,-242.74 786.68,-238.11 785.87,-245.06"/>
</g>
<!-- Node8 -->
<g id="node8" class="node">
<title>Node8</title>
<g id="a_node8"><a xlink:href="scaling_8c.html" target="_top" xlink:title="Problem data scaling during setup.">
<polygon fill="white" stroke="#666666" points="542.5,-151 429.5,-151 429.5,-132 542.5,-132 542.5,-151"/>
<text text-anchor="middle" x="486" y="-139" font-family="Helvetica,sans-Serif" font-size="10.00">QPALM/src/scaling.c</text>
</a>
</g>
</g>
<!-- Node1&#45;&gt;Node8 -->
<g id="edge16" class="edge">
<title>Node1&#45;&gt;Node8</title>
<path fill="none" stroke="#63b8ff" d="M786.21,-248.34C699.15,-244.55 563.87,-234.18 522,-206 502.45,-192.84 492.3,-165.28 488.22,-151.19"/>
<polygon fill="#63b8ff" stroke="#63b8ff" points="786.18,-251.84 796.31,-248.76 786.47,-244.85 786.18,-251.84"/>
</g>
<!-- Node9 -->
<g id="node9" class="node">
<title>Node9</title>
<g id="a_node9"><a xlink:href="iteration_8c.html" target="_top" xlink:title="QPALM main solver routines.">
<polygon fill="white" stroke="#666666" points="651,-206 531,-206 531,-187 651,-187 651,-206"/>
<text text-anchor="middle" x="591" y="-194" font-family="Helvetica,sans-Serif" font-size="10.00">QPALM/src/iteration.c</text>
</a>
</g>
</g>
<!-- Node1&#45;&gt;Node9 -->
<g id="edge10" class="edge">
<title>Node1&#45;&gt;Node9</title>
<path fill="none" stroke="#63b8ff" d="M809.45,-240.07C758.45,-230.13 682.63,-215.35 635.04,-206.08"/>
<polygon fill="#63b8ff" stroke="#63b8ff" points="808.81,-243.51 819.3,-241.98 810.15,-236.64 808.81,-243.51"/>
</g>
<!-- Node10 -->
<g id="node10" class="node">
<title>Node10</title>
<g id="a_node10"><a xlink:href="lin__alg_8c.html" target="_top" xlink:title="Linear algebra with vectors.">
<polygon fill="white" stroke="#666666" points="780.5,-206 669.5,-206 669.5,-187 780.5,-187 780.5,-206"/>
<text text-anchor="middle" x="725" y="-194" font-family="Helvetica,sans-Serif" font-size="10.00">QPALM/src/lin_alg.c</text>
</a>
</g>
</g>
<!-- Node1&#45;&gt;Node10 -->
<g id="edge11" class="edge">
<title>Node1&#45;&gt;Node10</title>
<path fill="none" stroke="#63b8ff" d="M831.21,-238.29C805.63,-228.47 770.33,-214.91 747.58,-206.17"/>
<polygon fill="#63b8ff" stroke="#63b8ff" points="830.24,-241.67 840.83,-241.98 832.75,-235.13 830.24,-241.67"/>
</g>
<!-- Node11 -->
<g id="node11" class="node">
<title>Node11</title>
<g id="a_node11"><a xlink:href="linesearch_8c.html" target="_top" xlink:title="Routines to perform exact or backtracking linesearch.">
<polygon fill="white" stroke="#666666" points="927.5,-206 798.5,-206 798.5,-187 927.5,-187 927.5,-206"/>
<text text-anchor="middle" x="863" y="-194" font-family="Helvetica,sans-Serif" font-size="10.00">QPALM/src/linesearch.c</text>
</a>
</g>
</g>
<!-- Node1&#45;&gt;Node11 -->
<g id="edge12" class="edge">
<title>Node1&#45;&gt;Node11</title>
<path fill="none" stroke="#63b8ff" d="M863,-231.66C863,-222.93 863,-212.99 863,-206.09"/>
<polygon fill="#63b8ff" stroke="#63b8ff" points="859.5,-231.75 863,-241.75 866.5,-231.75 859.5,-231.75"/>
</g>
<!-- Node12 -->
<g id="node12" class="node">
<title>Node12</title>
<g id="a_node12"><a xlink:href="newton_8c.html" target="_top" xlink:title="Functions to calculate the semismooth Newton direction.">
<polygon fill="white" stroke="#666666" points="1060.5,-206 945.5,-206 945.5,-187 1060.5,-187 1060.5,-206"/>
<text text-anchor="middle" x="1003" y="-194" font-family="Helvetica,sans-Serif" font-size="10.00">QPALM/src/newton.c</text>
</a>
</g>
</g>
<!-- Node1&#45;&gt;Node12 -->
<g id="edge13" class="edge">
<title>Node1&#45;&gt;Node12</title>
<path fill="none" stroke="#63b8ff" d="M894.91,-238.42C920.88,-228.59 956.92,-214.95 980.1,-206.17"/>
<polygon fill="#63b8ff" stroke="#63b8ff" points="893.61,-235.17 885.49,-241.98 896.08,-241.72 893.61,-235.17"/>
</g>
<!-- Node13 -->
<g id="node13" class="node">
<title>Node13</title>
<g id="a_node13"><a xlink:href="nonconvex_8c.html" target="_top" xlink:title="Routines to deal with nonconvex QPs.">
<polygon fill="white" stroke="#666666" points="1211,-206 1079,-206 1079,-187 1211,-187 1211,-206"/>
<text text-anchor="middle" x="1145" y="-194" font-family="Helvetica,sans-Serif" font-size="10.00">QPALM/src/nonconvex.c</text>
</a>
</g>
</g>
<!-- Node1&#45;&gt;Node13 -->
<g id="edge14" class="edge">
<title>Node1&#45;&gt;Node13</title>
<path fill="none" stroke="#63b8ff" d="M918.19,-240.13C971.06,-230.19 1049.9,-215.37 1099.34,-206.08"/>
<polygon fill="#63b8ff" stroke="#63b8ff" points="917.49,-236.7 908.31,-241.98 918.78,-243.58 917.49,-236.7"/>
</g>
<!-- Node14 -->
<g id="node14" class="node">
<title>Node14</title>
<g id="a_node14"><a xlink:href="solver__interface_8c.html" target="_top" xlink:title="Interface and wrapper to matrix/factorization (ladel) functions.">
<polygon fill="white" stroke="#666666" points="1387,-206 1229,-206 1229,-187 1387,-187 1387,-206"/>
<text text-anchor="middle" x="1308" y="-194" font-family="Helvetica,sans-Serif" font-size="10.00">QPALM/src/solver_interface.c</text>
</a>
</g>
</g>
<!-- Node1&#45;&gt;Node14 -->
<g id="edge17" class="edge">
<title>Node1&#45;&gt;Node14</title>
<path fill="none" stroke="#63b8ff" d="M939.79,-241.35C1023.16,-231.42 1155.25,-215.69 1236.5,-206.02"/>
<polygon fill="#63b8ff" stroke="#63b8ff" points="939.14,-237.91 929.62,-242.57 939.96,-244.86 939.14,-237.91"/>
</g>
<!-- Node15 -->
<g id="node15" class="node">
<title>Node15</title>
<g id="a_node15"><a xlink:href="termination_8c.html" target="_top" xlink:title="Routines to check the termination and infeasibility criteria.">
<polygon fill="white" stroke="#666666" points="1541,-206 1405,-206 1405,-187 1541,-187 1541,-206"/>
<text text-anchor="middle" x="1473" y="-194" font-family="Helvetica,sans-Serif" font-size="10.00">QPALM/src/termination.c</text>
</a>
</g>
</g>
<!-- Node1&#45;&gt;Node15 -->
<g id="edge18" class="edge">
<title>Node1&#45;&gt;Node15</title>
<path fill="none" stroke="#63b8ff" d="M939.58,-244.75C1043.17,-236.83 1233.66,-221.73 1396,-206 1398.95,-205.71 1401.95,-205.42 1404.99,-205.11"/>
<polygon fill="#63b8ff" stroke="#63b8ff" points="939.23,-241.27 929.53,-245.52 939.76,-248.25 939.23,-241.27"/>
</g>
<!-- Node16 -->
<g id="node16" class="node">
<title>Node16</title>
<g id="a_node16"><a xlink:href="util_8c.html" target="_top" xlink:title="Utility functions.">
<polygon fill="white" stroke="#666666" points="1654.5,-206 1559.5,-206 1559.5,-187 1654.5,-187 1654.5,-206"/>
<text text-anchor="middle" x="1607" y="-194" font-family="Helvetica,sans-Serif" font-size="10.00">QPALM/src/util.c</text>
</a>
</g>
</g>
<!-- Node1&#45;&gt;Node16 -->
<g id="edge19" class="edge">
<title>Node1&#45;&gt;Node16</title>
<path fill="none" stroke="#63b8ff" d="M940,-247.61C1067.24,-242.36 1329.28,-229.56 1550,-206 1553.08,-205.67 1556.26,-205.3 1559.45,-204.89"/>
<polygon fill="#63b8ff" stroke="#63b8ff" points="939.81,-244.11 929.96,-248.02 940.09,-251.11 939.81,-244.11"/>
</g>
<!-- Node17 -->
<g id="node17" class="node">
<title>Node17</title>
<g id="a_node17"><a xlink:href="validate_8c.html" target="_top" xlink:title="Validation of the user provided settings and data.">
<polygon fill="white" stroke="#666666" points="1791.5,-206 1672.5,-206 1672.5,-187 1791.5,-187 1791.5,-206"/>
<text text-anchor="middle" x="1732" y="-194" font-family="Helvetica,sans-Serif" font-size="10.00">QPALM/src/validate.c</text>
</a>
</g>
</g>
<!-- Node1&#45;&gt;Node17 -->
<g id="edge20" class="edge">
<title>Node1&#45;&gt;Node17</title>
<path fill="none" stroke="#63b8ff" d="M939.97,-247.99C1082.87,-242.93 1398.76,-229.92 1664,-206 1666.73,-205.75 1669.51,-205.48 1672.32,-205.2"/>
<polygon fill="#63b8ff" stroke="#63b8ff" points="939.44,-244.5 929.57,-248.35 939.69,-251.5 939.44,-244.5"/>
</g>
<!-- Node3 -->
<g id="node3" class="node">
<title>Node3</title>
<g id="a_node3"><a xlink:href="qpalm_8cpp.html" target="_top" xlink:title=" ">
<polygon fill="white" stroke="#666666" points="278,-96 156,-96 156,-66 278,-66 278,-96"/>
<text text-anchor="start" x="164" y="-84" font-family="Helvetica,sans-Serif" font-size="10.00">QPALM/interfaces/cxx</text>
<text text-anchor="middle" x="217" y="-73" font-family="Helvetica,sans-Serif" font-size="10.00">/src/qpalm.cpp</text>
</a>
</g>
</g>
<!-- Node2&#45;&gt;Node3 -->
<g id="edge2" class="edge">
<title>Node2&#45;&gt;Node3</title>
<path fill="none" stroke="#63b8ff" d="M217,-121.65C217,-113.36 217,-103.78 217,-96.11"/>
<polygon fill="#63b8ff" stroke="#63b8ff" points="213.5,-121.87 217,-131.87 220.5,-121.87 213.5,-121.87"/>
</g>
<!-- Node4 -->
<g id="node4" class="node">
<title>Node4</title>
<g id="a_node4"><a xlink:href="qpalm__fortran_8h.html" target="_top" xlink:title=" ">
<polygon fill="white" stroke="#666666" points="138,-96 0,-96 0,-66 138,-66 138,-96"/>
<text text-anchor="start" x="8" y="-84" font-family="Helvetica,sans-Serif" font-size="10.00">QPALM/interfaces/fortran</text>
<text text-anchor="middle" x="69" y="-73" font-family="Helvetica,sans-Serif" font-size="10.00">/qpalm_fortran.h</text>
</a>
</g>
</g>
<!-- Node2&#45;&gt;Node4 -->
<g id="edge3" class="edge">
<title>Node2&#45;&gt;Node4</title>
<path fill="none" stroke="#63b8ff" d="M185.9,-128.21C162.14,-118.82 129.38,-105.87 104.58,-96.06"/>
<polygon fill="#63b8ff" stroke="#63b8ff" points="184.89,-131.57 195.48,-131.99 187.47,-125.06 184.89,-131.57"/>
</g>
<!-- Node2&#45;&gt;Node6 -->
<g id="edge5" class="edge">
<title>Node2&#45;&gt;Node6</title>
<path fill="none" stroke="#63b8ff" d="M245.79,-127.93C271.66,-116.64 308.95,-100.36 331.49,-90.52"/>
<polygon fill="#63b8ff" stroke="#63b8ff" points="244.25,-124.78 236.48,-131.99 247.05,-131.2 244.25,-124.78"/>
</g>
<!-- Node5 -->
<g id="node5" class="node">
<title>Node5</title>
<g id="a_node5"><a xlink:href="qpalm__fortran_8c.html" target="_top" xlink:title=" ">
<polygon fill="white" stroke="#666666" points="138,-30 0,-30 0,0 138,0 138,-30"/>
<text text-anchor="start" x="8" y="-18" font-family="Helvetica,sans-Serif" font-size="10.00">QPALM/interfaces/fortran</text>
<text text-anchor="middle" x="69" y="-7" font-family="Helvetica,sans-Serif" font-size="10.00">/qpalm_fortran.c</text>
</a>
</g>
</g>
<!-- Node4&#45;&gt;Node5 -->
<g id="edge4" class="edge">
<title>Node4&#45;&gt;Node5</title>
<path fill="none" stroke="#63b8ff" d="M69,-55.54C69,-46.96 69,-37.61 69,-30.16"/>
<polygon fill="#63b8ff" stroke="#63b8ff" points="65.5,-55.8 69,-65.8 72.5,-55.8 65.5,-55.8"/>
</g>
<!-- Node7&#45;&gt;Node2 -->
<g id="edge7" class="edge">
<title>Node7&#45;&gt;Node2</title>
<path fill="none" stroke="#63b8ff" d="M366.43,-184.18C330.9,-174.27 280.03,-160.08 247.77,-151.08"/>
<polygon fill="#63b8ff" stroke="#63b8ff" points="365.9,-187.67 376.47,-186.98 367.78,-180.93 365.9,-187.67"/>
</g>
<!-- Node7&#45;&gt;Node6 -->
<g id="edge8" class="edge">
<title>Node7&#45;&gt;Node6</title>
<path fill="none" stroke="#63b8ff" d="M398.36,-177.99C386.18,-153.3 364.42,-109.21 355.26,-90.63"/>
<polygon fill="#63b8ff" stroke="#63b8ff" points="395.23,-179.55 402.79,-186.97 401.5,-176.45 395.23,-179.55"/>
</g>
<!-- Node7&#45;&gt;Node8 -->
<g id="edge9" class="edge">
<title>Node7&#45;&gt;Node8</title>
<path fill="none" stroke="#63b8ff" d="M428.39,-181.15C442.67,-171.57 460.97,-159.29 473.08,-151.17"/>
<polygon fill="#63b8ff" stroke="#63b8ff" points="426.05,-178.51 419.69,-186.98 429.95,-184.32 426.05,-178.51"/>
</g>
</g>
</svg>
