<?xml version="1.0" encoding="UTF-8" standalone="no"?>
<!DOCTYPE svg PUBLIC "-//W3C//DTD SVG 1.1//EN"
 "http://www.w3.org/Graphics/SVG/1.1/DTD/svg11.dtd">
<!-- Generated by graphviz version 2.43.0 (0)
 -->
<!-- Title: vec_self_mult_scalar Pages: 1 -->
<!--zoomable 290 -->
<svg id="main" version="1.1" xmlns="http://www.w3.org/2000/svg" xmlns:xlink="http://www.w3.org/1999/xlink" xml:space="preserve" onload="init(evt)">
<style type="text/css"><![CDATA[
.edge:hover path { stroke: red; }
.edge:hover polygon { stroke: red; fill: red; }
]]></style>
<script type="text/javascript"><![CDATA[
var edges = document.getElementsByTagName('g');
if (edges && edges.length) {
  for (var i=0;i<edges.length;i++) {
    if (edges[i].id.substr(0,4)=='edge') {
      edges[i].setAttribute('class','edge');
    }
  }
}
]]></script>
        <defs>
                <circle id="rim" cx="0" cy="0" r="7"/>
                <circle id="rim2" cx="0" cy="0" r="3.5"/>
                <g id="zoomPlus">
                        <use xlink:href="#rim" fill="#404040">
                                <set attributeName="fill" to="#808080" begin="zoomplus.mouseover" end="zoomplus.mouseout"/>
                        </use>
                        <path d="M-4,0h8M0,-4v8" fill="none" stroke="white" stroke-width="1.5" pointer-events="none"/>
                </g>
                <g id="zoomMin">
                        <use xlink:href="#rim" fill="#404040">
                                <set attributeName="fill" to="#808080" begin="zoomminus.mouseover" end="zoomminus.mouseout"/>
                        </use>
                        <path d="M-4,0h8" fill="none" stroke="white" stroke-width="1.5" pointer-events="none"/>
                </g>
                <g id="dirArrow">
                        <path fill="none" stroke="white" stroke-width="1.5" d="M0,-3.0v7 M-2.5,-0.5L0,-3.0L2.5,-0.5"/>
                </g>
               <g id="resetDef">
                       <use xlink:href="#rim2" fill="#404040">
                               <set attributeName="fill" to="#808080" begin="reset.mouseover" end="reset.mouseout"/>
                       </use>
               </g>
        </defs>

<script type="text/javascript">
var viewWidth = 865;
var viewHeight = 290;
var sectionId = 'dynsection-15';
</script>
<script xlink:href="svgpan.js"/>
<svg id="graph" class="graph">
<g id="viewport">
<title>vec_self_mult_scalar</title>
<!-- Node1 -->
<g id="node1" class="node">
<title>Node1</title>
<g id="a_node1"><a xlink:title="Mulitply vector with a constant scale factor.">
<polygon fill="#999999" stroke="#666666" points="857,-149 738,-149 738,-130 857,-130 857,-149"/>
<text text-anchor="middle" x="797.5" y="-137" font-family="Helvetica,sans-Serif" font-size="10.00">vec_self_mult_scalar</text>
</a>
</g>
</g>
<!-- Node2 -->
<g id="node2" class="node">
<title>Node2</title>
<g id="a_node2"><a xlink:href="linesearch_8c.html#a647cabae1574f21e412110765ea1e70d" target="_top" xlink:title="Execute exact linesearch (using qsort)">
<polygon fill="white" stroke="#666666" points="538,-282 439,-282 439,-263 538,-263 538,-282"/>
<text text-anchor="middle" x="488.5" y="-270" font-family="Helvetica,sans-Serif" font-size="10.00">exact_linesearch</text>
</a>
</g>
</g>
<!-- Node1&#45;&gt;Node2 -->
<g id="edge1" class="edge">
<title>Node1&#45;&gt;Node2</title>
<path fill="none" stroke="#63b8ff" d="M786.38,-158.14C771.54,-183.43 741.33,-227.8 702,-248.5 650.91,-275.39 583.48,-278.47 538.42,-276.74"/>
<polygon fill="#63b8ff" stroke="#63b8ff" points="789.57,-159.61 791.46,-149.18 783.48,-156.16 789.57,-159.61"/>
</g>
<!-- Node3 -->
<g id="node3" class="node">
<title>Node3</title>
<g id="a_node3"><a xlink:href="iteration_8c.html#a9c9fafac9ce099122c5a594762e5a052" target="_top" xlink:title="Update the primal iterate.">
<polygon fill="white" stroke="#666666" points="392,-244 267,-244 267,-225 392,-225 392,-244"/>
<text text-anchor="middle" x="329.5" y="-232" font-family="Helvetica,sans-Serif" font-size="10.00">update_primal_iterate</text>
</a>
</g>
</g>
<!-- Node1&#45;&gt;Node3 -->
<g id="edge15" class="edge">
<title>Node1&#45;&gt;Node3</title>
<path fill="none" stroke="#63b8ff" d="M781.4,-156.87C764.25,-175.21 734.41,-203.14 702,-215.5 598.81,-254.84 467.72,-250.1 392.04,-242.62"/>
<polygon fill="#63b8ff" stroke="#63b8ff" points="784.22,-158.97 788.35,-149.21 779.04,-154.26 784.22,-158.97"/>
</g>
<!-- Node7 -->
<g id="node7" class="node">
<title>Node7</title>
<g id="a_node7"><a xlink:href="solver__interface_8c.html#aca80eaf7b897030273f1a6820b7e6d38" target="_top" xlink:title="Solve the KKT system &#160;.">
<polygon fill="white" stroke="#666666" points="675.5,-206 611.5,-206 611.5,-187 675.5,-187 675.5,-206"/>
<text text-anchor="middle" x="643.5" y="-194" font-family="Helvetica,sans-Serif" font-size="10.00">kkt_solve</text>
</a>
</g>
</g>
<!-- Node1&#45;&gt;Node7 -->
<g id="edge6" class="edge">
<title>Node1&#45;&gt;Node7</title>
<path fill="none" stroke="#63b8ff" d="M761.66,-152.57C733.72,-163.04 695.15,-177.51 670.02,-186.93"/>
<polygon fill="#63b8ff" stroke="#63b8ff" points="762.92,-155.83 771.06,-149.04 760.47,-149.27 762.92,-155.83"/>
</g>
<!-- Node8 -->
<g id="node8" class="node">
<title>Node8</title>
<g id="a_node8"><a xlink:href="newton_8c.html#af1654e5597faac8b0ade25acf1fc1bc9" target="_top" xlink:title="Sets work&#45;&gt;d to the direction calculated by the semismooth Newton method.">
<polygon fill="white" stroke="#666666" points="549,-187 428,-187 428,-168 549,-168 549,-187"/>
<text text-anchor="middle" x="488.5" y="-175" font-family="Helvetica,sans-Serif" font-size="10.00">newton_set_direction</text>
</a>
</g>
</g>
<!-- Node1&#45;&gt;Node8 -->
<g id="edge11" class="edge">
<title>Node1&#45;&gt;Node8</title>
<path fill="none" stroke="#63b8ff" d="M727.56,-148.03C673.94,-154.67 600.3,-163.79 549.18,-170.11"/>
<polygon fill="#63b8ff" stroke="#63b8ff" points="728.18,-151.48 737.67,-146.78 727.32,-144.54 728.18,-151.48"/>
</g>
<!-- Node9 -->
<g id="node9" class="node">
<title>Node9</title>
<g id="a_node9"><a xlink:href="solver__interface_8c.html#a03ad73d0e41054e90232d141e73474ab" target="_top" xlink:title="Solve the linear system .">
<polygon fill="white" stroke="#666666" points="702,-130 585,-130 585,-111 702,-111 702,-130"/>
<text text-anchor="middle" x="643.5" y="-118" font-family="Helvetica,sans-Serif" font-size="10.00">ldlsolveLD_neg_dphi</text>
</a>
</g>
</g>
<!-- Node1&#45;&gt;Node9 -->
<g id="edge9" class="edge">
<title>Node1&#45;&gt;Node9</title>
<path fill="none" stroke="#63b8ff" d="M727.75,-130.91C719.18,-129.84 710.49,-128.75 702.11,-127.7"/>
<polygon fill="#63b8ff" stroke="#63b8ff" points="727.38,-134.39 737.73,-132.15 728.24,-127.44 727.38,-134.39"/>
</g>
<!-- Node10 -->
<g id="node10" class="node">
<title>Node10</title>
<g id="a_node10"><a xlink:href="scaling_8c.html#a3735b6c9c3aeeddfb3bb0982ae5f70ba" target="_top" xlink:title="Scale problem matrices.">
<polygon fill="white" stroke="#666666" points="678,-93 609,-93 609,-74 678,-74 678,-93"/>
<text text-anchor="middle" x="643.5" y="-81" font-family="Helvetica,sans-Serif" font-size="10.00">scale_data</text>
</a>
</g>
</g>
<!-- Node1&#45;&gt;Node10 -->
<g id="edge12" class="edge">
<title>Node1&#45;&gt;Node10</title>
<path fill="none" stroke="#63b8ff" d="M764.87,-126.05C746.63,-118.48 723.18,-109.06 702,-101.5 693.82,-98.58 684.9,-95.66 676.58,-93.05"/>
<polygon fill="#63b8ff" stroke="#63b8ff" points="763.58,-129.31 774.16,-129.94 766.28,-122.85 763.58,-129.31"/>
</g>
<!-- Node11 -->
<g id="node11" class="node">
<title>Node11</title>
<g id="a_node11"><a xlink:href="termination_8c.html#a59f3d4d2ea459665833cc3d5e9265d5e" target="_top" xlink:title="Helper function to store the (unscaled) solution in the solution struct.">
<polygon fill="white" stroke="#666666" points="686.5,-56 600.5,-56 600.5,-37 686.5,-37 686.5,-56"/>
<text text-anchor="middle" x="643.5" y="-44" font-family="Helvetica,sans-Serif" font-size="10.00">store_solution</text>
</a>
</g>
</g>
<!-- Node1&#45;&gt;Node11 -->
<g id="edge13" class="edge">
<title>Node1&#45;&gt;Node11</title>
<path fill="none" stroke="#63b8ff" d="M779.53,-122.79C761.6,-105.97 731.85,-80.31 702,-64.5 695.81,-61.22 688.92,-58.42 682.12,-56.08"/>
<polygon fill="#63b8ff" stroke="#63b8ff" points="777.24,-125.45 786.89,-129.83 782.08,-120.39 777.24,-125.45"/>
</g>
<!-- Node12 -->
<g id="node12" class="node">
<title>Node12</title>
<g id="a_node12"><a xlink:href="scaling_8c.html#ade09374cb3567d09382e0bc68df5acba" target="_top" xlink:title="Unscale the problem data.">
<polygon fill="white" stroke="#666666" points="684,-19 603,-19 603,0 684,0 684,-19"/>
<text text-anchor="middle" x="643.5" y="-7" font-family="Helvetica,sans-Serif" font-size="10.00">unscale_data</text>
</a>
</g>
</g>
<!-- Node1&#45;&gt;Node12 -->
<g id="edge14" class="edge">
<title>Node1&#45;&gt;Node12</title>
<path fill="none" stroke="#63b8ff" d="M785.66,-121.02C770.17,-96.21 739.41,-52.37 702,-27.5 696.6,-23.91 690.44,-21 684.21,-18.66"/>
<polygon fill="#63b8ff" stroke="#63b8ff" points="782.81,-123.08 791,-129.81 788.79,-119.45 782.81,-123.08"/>
</g>
<!-- Node2&#45;&gt;Node3 -->
<g id="edge2" class="edge">
<title>Node2&#45;&gt;Node3</title>
<path fill="none" stroke="#63b8ff" d="M438.05,-260.53C416.05,-255.21 390.51,-249.02 369.83,-244.02"/>
<polygon fill="#63b8ff" stroke="#63b8ff" points="437.34,-263.96 447.88,-262.91 438.99,-257.16 437.34,-263.96"/>
</g>
<!-- Node4 -->
<g id="node4" class="node">
<title>Node4</title>
<g id="a_node4"><a xlink:href="group__solver-grp.html#ga9bbc8b47dfd2e86a81dd77feb4077bde" target="_top" xlink:title="Solve the quadratic program.">
<polygon fill="white" stroke="#666666" points="231,-244 152,-244 152,-225 231,-225 231,-244"/>
<text text-anchor="middle" x="191.5" y="-232" font-family="Helvetica,sans-Serif" font-size="10.00">qpalm_solve</text>
</a>
</g>
</g>
<!-- Node3&#45;&gt;Node4 -->
<g id="edge3" class="edge">
<title>Node3&#45;&gt;Node4</title>
<path fill="none" stroke="#63b8ff" d="M256.64,-234.5C247.93,-234.5 239.3,-234.5 231.34,-234.5"/>
<polygon fill="#63b8ff" stroke="#63b8ff" points="256.87,-238 266.87,-234.5 256.87,-231 256.87,-238"/>
</g>
<!-- Node5 -->
<g id="node5" class="node">
<title>Node5</title>
<g id="a_node5"><a xlink:href="qpalm__fortran_8c.html#abec01161fcee665e126347b862c404c4" target="_top" xlink:title=" ">
<polygon fill="white" stroke="#666666" points="106,-263 10,-263 10,-244 106,-244 106,-263"/>
<text text-anchor="middle" x="58" y="-251" font-family="Helvetica,sans-Serif" font-size="10.00">qpalm_fortran_c</text>
</a>
</g>
</g>
<!-- Node4&#45;&gt;Node5 -->
<g id="edge4" class="edge">
<title>Node4&#45;&gt;Node5</title>
<path fill="none" stroke="#63b8ff" d="M141.8,-241.54C130.2,-243.21 117.85,-245 106.31,-246.66"/>
<polygon fill="#63b8ff" stroke="#63b8ff" points="142.36,-244.99 151.76,-240.1 141.36,-238.06 142.36,-244.99"/>
</g>
<!-- Node6 -->
<g id="node6" class="node">
<title>Node6</title>
<g id="a_node6"><a xlink:href="classqpalm_1_1Solver.html#a7d723d189a812ffa19d688b7aa38ccca" target="_top" xlink:title="Solve the problem.">
<polygon fill="white" stroke="#666666" points="116,-226 0,-226 0,-207 116,-207 116,-226"/>
<text text-anchor="middle" x="58" y="-214" font-family="Helvetica,sans-Serif" font-size="10.00">qpalm::Solver::solve</text>
</a>
</g>
</g>
<!-- Node4&#45;&gt;Node6 -->
<g id="edge5" class="edge">
<title>Node4&#45;&gt;Node6</title>
<path fill="none" stroke="#63b8ff" d="M141.62,-227.81C133.43,-226.69 124.86,-225.52 116.47,-224.37"/>
<polygon fill="#63b8ff" stroke="#63b8ff" points="141.37,-231.31 151.76,-229.2 142.32,-224.37 141.37,-231.31"/>
</g>
<!-- Node7&#45;&gt;Node8 -->
<g id="edge7" class="edge">
<title>Node7&#45;&gt;Node8</title>
<path fill="none" stroke="#63b8ff" d="M601.1,-191.36C585.15,-189.38 566.6,-187.07 549.25,-184.92"/>
<polygon fill="#63b8ff" stroke="#63b8ff" points="600.81,-194.85 611.17,-192.61 601.68,-187.9 600.81,-194.85"/>
</g>
<!-- Node8&#45;&gt;Node3 -->
<g id="edge8" class="edge">
<title>Node8&#45;&gt;Node3</title>
<path fill="none" stroke="#63b8ff" d="M451.51,-190.57C422.65,-201.04 382.82,-215.51 356.86,-224.93"/>
<polygon fill="#63b8ff" stroke="#63b8ff" points="453.02,-193.74 461.22,-187.04 450.63,-187.16 453.02,-193.74"/>
</g>
<!-- Node9&#45;&gt;Node8 -->
<g id="edge10" class="edge">
<title>Node9&#45;&gt;Node8</title>
<path fill="none" stroke="#63b8ff" d="M607.43,-133.57C579.31,-144.04 540.49,-158.51 515.19,-167.93"/>
<polygon fill="#63b8ff" stroke="#63b8ff" points="608.74,-136.81 616.89,-130.04 606.3,-130.25 608.74,-136.81"/>
</g>
</g>
</svg>
        <g id="navigator" transform="translate(0 0)" fill="#404254">
                <rect fill="#f2f5e9" fill-opacity="0.5" stroke="#606060" stroke-width=".5" x="0" y="0" width="60" height="60"/>
                <use id="zoomplus" xlink:href="#zoomPlus" x="17" y="9" onmousedown="handleZoom(evt,'in')"/>
                <use id="zoomminus" xlink:href="#zoomMin" x="42" y="9" onmousedown="handleZoom(evt,'out')"/>
                <use id="reset" xlink:href="#resetDef" x="30" y="36" onmousedown="handleReset()"/>
                <g id="arrowUp" xlink:href="#dirArrow" transform="translate(30 24)" onmousedown="handlePan(0,-1)">
                  <use xlink:href="#rim" fill="#404040">
                        <set attributeName="fill" to="#808080" begin="arrowUp.mouseover" end="arrowUp.mouseout"/>
                  </use>
                  <path fill="none" stroke="white" stroke-width="1.5" d="M0,-3.0v7 M-2.5,-0.5L0,-3.0L2.5,-0.5"/>
                </g>
                <g id="arrowRight" xlink:href="#dirArrow" transform="rotate(90) translate(36 -43)" onmousedown="handlePan(1,0)">
                  <use xlink:href="#rim" fill="#404040">
                        <set attributeName="fill" to="#808080" begin="arrowRight.mouseover" end="arrowRight.mouseout"/>
                  </use>
                  <path fill="none" stroke="white" stroke-width="1.5" d="M0,-3.0v7 M-2.5,-0.5L0,-3.0L2.5,-0.5"/>
                </g>
                <g id="arrowDown" xlink:href="#dirArrow" transform="rotate(180) translate(-30 -48)" onmousedown="handlePan(0,1)">
                  <use xlink:href="#rim" fill="#404040">
                        <set attributeName="fill" to="#808080" begin="arrowDown.mouseover" end="arrowDown.mouseout"/>
                  </use>
                  <path fill="none" stroke="white" stroke-width="1.5" d="M0,-3.0v7 M-2.5,-0.5L0,-3.0L2.5,-0.5"/>
                </g>
                <g id="arrowLeft" xlink:href="#dirArrow" transform="rotate(270) translate(-36 17)" onmousedown="handlePan(-1,0)">
                  <use xlink:href="#rim" fill="#404040">
                        <set attributeName="fill" to="#808080" begin="arrowLeft.mouseover" end="arrowLeft.mouseout"/>
                  </use>
                  <path fill="none" stroke="white" stroke-width="1.5" d="M0,-3.0v7 M-2.5,-0.5L0,-3.0L2.5,-0.5"/>
                </g>
        </g>
        <svg viewBox="0 0 15 15" width="100%" height="30px" preserveAspectRatio="xMaxYMin meet">
         <g id="arrow_out" transform="scale(0.3 0.3)">
          <a xlink:href="lin__alg_8c_a932b289ad07aea70e64b417ef9160674_icgraph_org.svg" target="_base">
           <rect id="button" ry="5" rx="5" y="6" x="6" height="38" width="38"
                fill="#f2f5e9" fill-opacity="0.5" stroke="#606060" stroke-width="1.0"/>
           <path id="arrow"
             d="M 11.500037,31.436501 C 11.940474,20.09759 22.043105,11.32322 32.158766,21.979434 L 37.068811,17.246167 C 37.068811,17.246167 37.088388,32 37.088388,32 L 22.160133,31.978069 C 22.160133,31.978069 26.997745,27.140456 26.997745,27.140456 C 18.528582,18.264221 13.291696,25.230495 11.500037,31.436501 z"
             style="fill:#404040;"/>
          </a>
         </g>
        </svg>
</svg>
