<?xml version="1.0" encoding="UTF-8" standalone="no"?>
<!DOCTYPE svg PUBLIC "-//W3C//DTD SVG 1.1//EN"
 "http://www.w3.org/Graphics/SVG/1.1/DTD/svg11.dtd">
<!-- Generated by graphviz version 2.43.0 (0)
 -->
<!-- Title: QPALM/src/lin_alg.c Pages: 1 -->
<svg width="207pt" height="302pt"
 viewBox="0.00 0.00 206.50 302.00" xmlns="http://www.w3.org/2000/svg" xmlns:xlink="http://www.w3.org/1999/xlink">
<g id="graph0" class="graph" transform="scale(1 1) rotate(0) translate(4 298)">
<title>QPALM/src/lin_alg.c</title>
<!-- Node1 -->
<g id="node1" class="node">
<title>Node1</title>
<g id="a_node1"><a xlink:title="Linear algebra with vectors.">
<polygon fill="#999999" stroke="#666666" points="159.98,-294 48.98,-294 48.98,-275 159.98,-275 159.98,-294"/>
<text text-anchor="middle" x="104.48" y="-282" font-family="Helvetica,sans-Serif" font-size="10.00">QPALM/src/lin_alg.c</text>
</a>
</g>
</g>
<!-- Node2 -->
<g id="node2" class="node">
<title>Node2</title>
<g id="a_node2"><a xlink:href="lin__alg_8h.html" target="_top" xlink:title="Linear algebra with vectors.">
<polygon fill="white" stroke="#666666" points="133.48,-239 75.48,-239 75.48,-220 133.48,-220 133.48,-239"/>
<text text-anchor="middle" x="104.48" y="-227" font-family="Helvetica,sans-Serif" font-size="10.00">lin_alg.h</text>
</a>
</g>
</g>
<!-- Node1&#45;&gt;Node2 -->
<g id="edge1" class="edge">
<title>Node1&#45;&gt;Node2</title>
<path fill="none" stroke="#63b8ff" d="M104.48,-274.75C104.48,-267.8 104.48,-257.85 104.48,-249.13"/>
<polygon fill="#63b8ff" stroke="#63b8ff" points="107.98,-249.09 104.48,-239.09 100.98,-249.09 107.98,-249.09"/>
</g>
<!-- Node3 -->
<g id="node3" class="node">
<title>Node3</title>
<g id="a_node3"><a xlink:href="types_8h.html" target="_top" xlink:title="Internal data structures used in QPALM.">
<polygon fill="white" stroke="#666666" points="170.98,-129 117.98,-129 117.98,-110 170.98,-110 170.98,-129"/>
<text text-anchor="middle" x="144.48" y="-117" font-family="Helvetica,sans-Serif" font-size="10.00">types.h</text>
</a>
</g>
</g>
<!-- Node2&#45;&gt;Node3 -->
<g id="edge2" class="edge">
<title>Node2&#45;&gt;Node3</title>
<path fill="none" stroke="#63b8ff" d="M109.06,-219.8C113.61,-210.96 120.59,-196.76 125.48,-184 131.15,-169.21 136.21,-151.96 139.69,-139.18"/>
<polygon fill="#63b8ff" stroke="#63b8ff" points="143.13,-139.83 142.3,-129.27 136.37,-138.04 143.13,-139.83"/>
</g>
<!-- Node7 -->
<g id="node7" class="node">
<title>Node7</title>
<g id="a_node7"><a xlink:href="solver__interface_8h.html" target="_top" xlink:title="Interface and wrapper to matrix/factorization (ladel) functions.">
<polygon fill="white" stroke="#666666" points="116.48,-184 12.48,-184 12.48,-165 116.48,-165 116.48,-184"/>
<text text-anchor="middle" x="64.48" y="-172" font-family="Helvetica,sans-Serif" font-size="10.00">solver_interface.h</text>
</a>
</g>
</g>
<!-- Node2&#45;&gt;Node7 -->
<g id="edge7" class="edge">
<title>Node2&#45;&gt;Node7</title>
<path fill="none" stroke="#63b8ff" d="M97.87,-219.75C92.22,-212.26 83.93,-201.28 77.03,-192.13"/>
<polygon fill="#63b8ff" stroke="#63b8ff" points="79.78,-189.96 70.96,-184.09 74.19,-194.18 79.78,-189.96"/>
</g>
<!-- Node4 -->
<g id="node4" class="node">
<title>Node4</title>
<g id="a_node4"><a xlink:href="global__opts_8h.html" target="_top" xlink:title="Custom memory allocation, print and utility functions, and data types for floats and ints.">
<polygon fill="white" stroke="#666666" points="185.48,-74 103.48,-74 103.48,-55 185.48,-55 185.48,-74"/>
<text text-anchor="middle" x="144.48" y="-62" font-family="Helvetica,sans-Serif" font-size="10.00">global_opts.h</text>
</a>
</g>
</g>
<!-- Node3&#45;&gt;Node4 -->
<g id="edge3" class="edge">
<title>Node3&#45;&gt;Node4</title>
<path fill="none" stroke="#63b8ff" d="M144.48,-109.75C144.48,-102.8 144.48,-92.85 144.48,-84.13"/>
<polygon fill="#63b8ff" stroke="#63b8ff" points="147.98,-84.09 144.48,-74.09 140.98,-84.09 147.98,-84.09"/>
</g>
<!-- Node5 -->
<g id="node5" class="node">
<title>Node5</title>
<g id="a_node5"><a xlink:title=" ">
<polygon fill="#e0e0e0" stroke="#999999" points="87.48,-19 37.48,-19 37.48,0 87.48,0 87.48,-19"/>
<text text-anchor="middle" x="62.48" y="-7" font-family="Helvetica,sans-Serif" font-size="10.00">ladel.h</text>
</a>
</g>
</g>
<!-- Node3&#45;&gt;Node5 -->
<g id="edge6" class="edge">
<title>Node3&#45;&gt;Node5</title>
<path fill="none" stroke="#63b8ff" d="M159.96,-109.85C179.52,-97.81 208.97,-75.17 194.48,-55 182.99,-39 132.66,-25.34 97.58,-17.52"/>
<polygon fill="#63b8ff" stroke="#63b8ff" points="98.21,-14.08 87.69,-15.38 96.73,-20.92 98.21,-14.08"/>
</g>
<!-- Node4&#45;&gt;Node5 -->
<g id="edge4" class="edge">
<title>Node4&#45;&gt;Node5</title>
<path fill="none" stroke="#63b8ff" d="M131.3,-54.98C118.71,-46.84 99.47,-34.41 84.54,-24.76"/>
<polygon fill="#63b8ff" stroke="#63b8ff" points="86.19,-21.66 75.89,-19.17 82.39,-27.54 86.19,-21.66"/>
</g>
<!-- Node6 -->
<g id="node6" class="node">
<title>Node6</title>
<g id="a_node6"><a xlink:title=" ">
<polygon fill="#e0e0e0" stroke="#999999" points="169.98,-19 118.98,-19 118.98,0 169.98,0 169.98,-19"/>
<text text-anchor="middle" x="144.48" y="-7" font-family="Helvetica,sans-Serif" font-size="10.00">math.h</text>
</a>
</g>
</g>
<!-- Node4&#45;&gt;Node6 -->
<g id="edge5" class="edge">
<title>Node4&#45;&gt;Node6</title>
<path fill="none" stroke="#63b8ff" d="M144.48,-54.75C144.48,-47.8 144.48,-37.85 144.48,-29.13"/>
<polygon fill="#63b8ff" stroke="#63b8ff" points="147.98,-29.09 144.48,-19.09 140.98,-29.09 147.98,-29.09"/>
</g>
<!-- Node7&#45;&gt;Node3 -->
<g id="edge11" class="edge">
<title>Node7&#45;&gt;Node3</title>
<path fill="none" stroke="#63b8ff" d="M77.33,-164.98C89.62,-156.84 108.39,-144.41 122.96,-134.76"/>
<polygon fill="#63b8ff" stroke="#63b8ff" points="124.99,-137.61 131.39,-129.17 121.12,-131.78 124.99,-137.61"/>
</g>
<!-- Node7&#45;&gt;Node4 -->
<g id="edge8" class="edge">
<title>Node7&#45;&gt;Node4</title>
<path fill="none" stroke="#63b8ff" d="M70.46,-164.77C78.95,-152.44 95.09,-129.27 109.48,-110 116.46,-100.65 124.5,-90.4 131.11,-82.09"/>
<polygon fill="#63b8ff" stroke="#63b8ff" points="133.86,-84.26 137.37,-74.26 128.39,-79.88 133.86,-84.26"/>
</g>
<!-- Node7&#45;&gt;Node5 -->
<g id="edge12" class="edge">
<title>Node7&#45;&gt;Node5</title>
<path fill="none" stroke="#63b8ff" d="M56.81,-165C42.73,-148.75 13.23,-111.57 2.48,-74 0.16,-65.88 -1.32,-62.54 2.48,-55 9.17,-41.71 21.92,-31.39 33.95,-24.05"/>
<polygon fill="#63b8ff" stroke="#63b8ff" points="35.89,-26.97 42.9,-19.02 32.46,-20.87 35.89,-26.97"/>
</g>
<!-- Node8 -->
<g id="node8" class="node">
<title>Node8</title>
<g id="a_node8"><a xlink:href="constants_8h.html" target="_top" xlink:title="Constants used in QPALM.">
<polygon fill="white" stroke="#666666" points="84.98,-74 11.98,-74 11.98,-55 84.98,-55 84.98,-74"/>
<text text-anchor="middle" x="48.48" y="-62" font-family="Helvetica,sans-Serif" font-size="10.00">constants.h</text>
</a>
</g>
</g>
<!-- Node7&#45;&gt;Node8 -->
<g id="edge9" class="edge">
<title>Node7&#45;&gt;Node8</title>
<path fill="none" stroke="#63b8ff" d="M63.17,-164.66C60.58,-147.17 54.75,-107.8 51.26,-84.27"/>
<polygon fill="#63b8ff" stroke="#63b8ff" points="54.69,-83.54 49.76,-74.16 47.77,-84.56 54.69,-83.54"/>
</g>
<!-- Node8&#45;&gt;Node5 -->
<g id="edge10" class="edge">
<title>Node8&#45;&gt;Node5</title>
<path fill="none" stroke="#63b8ff" d="M50.79,-54.75C52.65,-47.72 55.31,-37.62 57.63,-28.84"/>
<polygon fill="#63b8ff" stroke="#63b8ff" points="61.04,-29.65 60.21,-19.09 54.27,-27.86 61.04,-29.65"/>
</g>
</g>
</svg>
