<?xml version="1.0" encoding="UTF-8" standalone="no"?>
<!DOCTYPE svg PUBLIC "-//W3C//DTD SVG 1.1//EN"
 "http://www.w3.org/Graphics/SVG/1.1/DTD/svg11.dtd">
<!-- Generated by graphviz version 2.43.0 (0)
 -->
<!-- Title: vec_ew_sqrt Pages: 1 -->
<svg width="215pt" height="64pt"
 viewBox="0.00 0.00 215.00 64.00" xmlns="http://www.w3.org/2000/svg" xmlns:xlink="http://www.w3.org/1999/xlink">
<g id="graph0" class="graph" transform="scale(1 1) rotate(0) translate(4 60)">
<title>vec_ew_sqrt</title>
<!-- Node1 -->
<g id="node1" class="node">
<title>Node1</title>
<g id="a_node1"><a xlink:title="Elementwise square root, .">
<polygon fill="#999999" stroke="#666666" points="207,-37 130,-37 130,-18 207,-18 207,-37"/>
<text text-anchor="middle" x="168.5" y="-25" font-family="Helvetica,sans-Serif" font-size="10.00">vec_ew_sqrt</text>
</a>
</g>
</g>
<!-- Node2 -->
<g id="node2" class="node">
<title>Node2</title>
<g id="a_node2"><a xlink:href="iteration_8c.html#a155f5c99c7a442c554cca914de34eba7" target="_top" xlink:title="Initialize penalty factors from initial x.">
<polygon fill="white" stroke="#666666" points="94,-56 0,-56 0,-37 94,-37 94,-56"/>
<text text-anchor="middle" x="47" y="-44" font-family="Helvetica,sans-Serif" font-size="10.00">initialize_sigma</text>
</a>
</g>
</g>
<!-- Node1&#45;&gt;Node2 -->
<g id="edge1" class="edge">
<title>Node1&#45;&gt;Node2</title>
<path fill="none" stroke="#63b8ff" d="M119.71,-35.1C111.36,-36.43 102.68,-37.81 94.37,-39.13"/>
<polygon fill="#63b8ff" stroke="#63b8ff" points="120.36,-38.54 129.69,-33.51 119.26,-31.63 120.36,-38.54"/>
</g>
<!-- Node3 -->
<g id="node3" class="node">
<title>Node3</title>
<g id="a_node3"><a xlink:href="scaling_8c.html#a3735b6c9c3aeeddfb3bb0982ae5f70ba" target="_top" xlink:title="Scale problem matrices.">
<polygon fill="white" stroke="#666666" points="81.5,-19 12.5,-19 12.5,0 81.5,0 81.5,-19"/>
<text text-anchor="middle" x="47" y="-7" font-family="Helvetica,sans-Serif" font-size="10.00">scale_data</text>
</a>
</g>
</g>
<!-- Node1&#45;&gt;Node3 -->
<g id="edge2" class="edge">
<title>Node1&#45;&gt;Node3</title>
<path fill="none" stroke="#63b8ff" d="M119.65,-20.29C106.88,-18.37 93.35,-16.33 81.53,-14.55"/>
<polygon fill="#63b8ff" stroke="#63b8ff" points="119.28,-23.78 129.69,-21.8 120.32,-16.85 119.28,-23.78"/>
</g>
</g>
</svg>
