<?xml version="1.0" encoding="UTF-8" standalone="no"?>
<!DOCTYPE svg PUBLIC "-//W3C//DTD SVG 1.1//EN"
 "http://www.w3.org/Graphics/SVG/1.1/DTD/svg11.dtd">
<!-- Generated by graphviz version 2.43.0 (0)
 -->
<!-- Title: QPALM/interfaces/fortran/qpalm_fortran.h Pages: 1 -->
<!--zoomable 423 -->
<svg id="main" version="1.1" xmlns="http://www.w3.org/2000/svg" xmlns:xlink="http://www.w3.org/1999/xlink" xml:space="preserve" onload="init(evt)">
<style type="text/css"><![CDATA[
.edge:hover path { stroke: red; }
.edge:hover polygon { stroke: red; fill: red; }
]]></style>
<script type="text/javascript"><![CDATA[
var edges = document.getElementsByTagName('g');
if (edges && edges.length) {
  for (var i=0;i<edges.length;i++) {
    if (edges[i].id.substr(0,4)=='edge') {
      edges[i].setAttribute('class','edge');
    }
  }
}
]]></script>
        <defs>
                <circle id="rim" cx="0" cy="0" r="7"/>
                <circle id="rim2" cx="0" cy="0" r="3.5"/>
                <g id="zoomPlus">
                        <use xlink:href="#rim" fill="#404040">
                                <set attributeName="fill" to="#808080" begin="zoomplus.mouseover" end="zoomplus.mouseout"/>
                        </use>
                        <path d="M-4,0h8M0,-4v8" fill="none" stroke="white" stroke-width="1.5" pointer-events="none"/>
                </g>
                <g id="zoomMin">
                        <use xlink:href="#rim" fill="#404040">
                                <set attributeName="fill" to="#808080" begin="zoomminus.mouseover" end="zoomminus.mouseout"/>
                        </use>
                        <path d="M-4,0h8" fill="none" stroke="white" stroke-width="1.5" pointer-events="none"/>
                </g>
                <g id="dirArrow">
                        <path fill="none" stroke="white" stroke-width="1.5" d="M0,-3.0v7 M-2.5,-0.5L0,-3.0L2.5,-0.5"/>
                </g>
               <g id="resetDef">
                       <use xlink:href="#rim2" fill="#404040">
                               <set attributeName="fill" to="#808080" begin="reset.mouseover" end="reset.mouseout"/>
                       </use>
               </g>
        </defs>

<script type="text/javascript">
var viewWidth = 749;
var viewHeight = 423;
var sectionId = 'dynsection-0';
</script>
<script xlink:href="svgpan.js"/>
<svg id="graph" class="graph">
<g id="viewport">
<title>QPALM/interfaces/fortran/qpalm_fortran.h</title>
<!-- Node1 -->
<g id="node1" class="node">
<title>Node1</title>
<g id="a_node1"><a xlink:title=" ">
<polygon fill="#999999" stroke="#666666" points="434.45,-415 296.45,-415 296.45,-385 434.45,-385 434.45,-415"/>
<text text-anchor="start" x="304.45" y="-403" font-family="Helvetica,sans-Serif" font-size="10.00">QPALM/interfaces/fortran</text>
<text text-anchor="middle" x="365.45" y="-392" font-family="Helvetica,sans-Serif" font-size="10.00">/qpalm_fortran.h</text>
</a>
</g>
</g>
<!-- Node2 -->
<g id="node2" class="node">
<title>Node2</title>
<g id="a_node2"><a xlink:href="qpalm_8h.html" target="_top" xlink:title="QPALM main solver API.">
<polygon fill="white" stroke="#666666" points="393.45,-349 337.45,-349 337.45,-330 393.45,-330 393.45,-349"/>
<text text-anchor="middle" x="365.45" y="-337" font-family="Helvetica,sans-Serif" font-size="10.00">qpalm.h</text>
</a>
</g>
</g>
<!-- Node1&#45;&gt;Node2 -->
<g id="edge1" class="edge">
<title>Node1&#45;&gt;Node2</title>
<path fill="none" stroke="#63b8ff" d="M365.45,-384.84C365.45,-377.21 365.45,-367.7 365.45,-359.45"/>
<polygon fill="#63b8ff" stroke="#63b8ff" points="368.95,-359.27 365.45,-349.27 361.95,-359.27 368.95,-359.27"/>
</g>
<!-- Node3 -->
<g id="node3" class="node">
<title>Node3</title>
<g id="a_node3"><a xlink:href="constants_8h.html" target="_top" xlink:title="Constants used in QPALM.">
<polygon fill="white" stroke="#666666" points="150.95,-129 77.95,-129 77.95,-110 150.95,-110 150.95,-129"/>
<text text-anchor="middle" x="114.45" y="-117" font-family="Helvetica,sans-Serif" font-size="10.00">constants.h</text>
</a>
</g>
</g>
<!-- Node2&#45;&gt;Node3 -->
<g id="edge2" class="edge">
<title>Node2&#45;&gt;Node3</title>
<path fill="none" stroke="#63b8ff" d="M337.12,-338.94C288.4,-338.56 186.82,-332.7 112.45,-294 51.11,-262.09 28.9,-247.88 2.45,-184 -10.57,-152.57 31.47,-136.07 67.71,-127.85"/>
<polygon fill="#63b8ff" stroke="#63b8ff" points="68.66,-131.23 77.73,-125.75 67.22,-124.38 68.66,-131.23"/>
</g>
<!-- Node5 -->
<g id="node5" class="node">
<title>Node5</title>
<g id="a_node5"><a xlink:href="global__opts_8h.html" target="_top" xlink:title="Custom memory allocation, print and utility functions, and data types for floats and ints.">
<polygon fill="white" stroke="#666666" points="433.45,-74 351.45,-74 351.45,-55 433.45,-55 433.45,-74"/>
<text text-anchor="middle" x="392.45" y="-62" font-family="Helvetica,sans-Serif" font-size="10.00">global_opts.h</text>
</a>
</g>
</g>
<!-- Node2&#45;&gt;Node5 -->
<g id="edge4" class="edge">
<title>Node2&#45;&gt;Node5</title>
<path fill="none" stroke="#63b8ff" d="M393.71,-336.5C481.15,-329.56 741.45,-302.83 741.45,-230.5 741.45,-230.5 741.45,-230.5 741.45,-173.5 741.45,-111.92 540.66,-81.62 443.68,-70.58"/>
<polygon fill="#63b8ff" stroke="#63b8ff" points="443.83,-67.08 433.51,-69.45 443.06,-74.03 443.83,-67.08"/>
</g>
<!-- Node7 -->
<g id="node7" class="node">
<title>Node7</title>
<g id="a_node7"><a xlink:href="iteration_8h.html" target="_top" xlink:title="QPALM main solver routines.">
<polygon fill="white" stroke="#666666" points="658.95,-184 591.95,-184 591.95,-165 658.95,-165 658.95,-184"/>
<text text-anchor="middle" x="625.45" y="-172" font-family="Helvetica,sans-Serif" font-size="10.00">iteration.h</text>
</a>
</g>
</g>
<!-- Node2&#45;&gt;Node7 -->
<g id="edge7" class="edge">
<title>Node2&#45;&gt;Node7</title>
<path fill="none" stroke="#63b8ff" d="M393.63,-334.26C465.27,-322.84 650.92,-288.84 683.45,-239 695.81,-220.05 673.2,-201.28 652.7,-189.12"/>
<polygon fill="#63b8ff" stroke="#63b8ff" points="654.29,-186 643.86,-184.17 650.88,-192.11 654.29,-186"/>
</g>
<!-- Node8 -->
<g id="node8" class="node">
<title>Node8</title>
<g id="a_node8"><a xlink:href="types_8h.html" target="_top" xlink:title="Internal data structures used in QPALM.">
<polygon fill="white" stroke="#666666" points="418.95,-129 365.95,-129 365.95,-110 418.95,-110 418.95,-129"/>
<text text-anchor="middle" x="392.45" y="-117" font-family="Helvetica,sans-Serif" font-size="10.00">types.h</text>
</a>
</g>
</g>
<!-- Node2&#45;&gt;Node8 -->
<g id="edge33" class="edge">
<title>Node2&#45;&gt;Node8</title>
<path fill="none" stroke="#63b8ff" d="M393.83,-334.7C417.98,-329.8 451.25,-318.73 467.45,-294 485.9,-265.82 516.78,-290.86 442.45,-165 435.5,-153.24 424.39,-142.89 414.4,-135.15"/>
<polygon fill="#63b8ff" stroke="#63b8ff" points="416.19,-132.12 406.05,-129.04 412.05,-137.76 416.19,-132.12"/>
</g>
<!-- Node9 -->
<g id="node9" class="node">
<title>Node9</title>
<g id="a_node9"><a xlink:href="lin__alg_8h.html" target="_top" xlink:title="Linear algebra with vectors.">
<polygon fill="white" stroke="#666666" points="383.45,-239 325.45,-239 325.45,-220 383.45,-220 383.45,-239"/>
<text text-anchor="middle" x="354.45" y="-227" font-family="Helvetica,sans-Serif" font-size="10.00">lin_alg.h</text>
</a>
</g>
</g>
<!-- Node2&#45;&gt;Node9 -->
<g id="edge12" class="edge">
<title>Node2&#45;&gt;Node9</title>
<path fill="none" stroke="#63b8ff" d="M364.54,-329.66C362.76,-312.17 358.75,-272.8 356.36,-249.27"/>
<polygon fill="#63b8ff" stroke="#63b8ff" points="359.82,-248.75 355.33,-239.16 352.86,-249.46 359.82,-248.75"/>
</g>
<!-- Node10 -->
<g id="node10" class="node">
<title>Node10</title>
<g id="a_node10"><a xlink:href="solver__interface_8h.html" target="_top" xlink:title="Interface and wrapper to matrix/factorization (ladel) functions.">
<polygon fill="white" stroke="#666666" points="307.45,-184 203.45,-184 203.45,-165 307.45,-165 307.45,-184"/>
<text text-anchor="middle" x="255.45" y="-172" font-family="Helvetica,sans-Serif" font-size="10.00">solver_interface.h</text>
</a>
</g>
</g>
<!-- Node2&#45;&gt;Node10 -->
<g id="edge30" class="edge">
<title>Node2&#45;&gt;Node10</title>
<path fill="none" stroke="#63b8ff" d="M337.17,-336.42C287.43,-332.11 187.53,-320.32 166.45,-294 136.91,-257.13 195.51,-212.2 231.03,-189.73"/>
<polygon fill="#63b8ff" stroke="#63b8ff" points="233.23,-192.48 239.91,-184.27 229.56,-186.52 233.23,-192.48"/>
</g>
<!-- Node11 -->
<g id="node11" class="node">
<title>Node11</title>
<g id="a_node11"><a xlink:href="linesearch_8h.html" target="_top" xlink:title="Routines to perform exact linesearch.">
<polygon fill="white" stroke="#666666" points="185.45,-184 109.45,-184 109.45,-165 185.45,-165 185.45,-184"/>
<text text-anchor="middle" x="147.45" y="-172" font-family="Helvetica,sans-Serif" font-size="10.00">linesearch.h</text>
</a>
</g>
</g>
<!-- Node2&#45;&gt;Node11 -->
<g id="edge19" class="edge">
<title>Node2&#45;&gt;Node11</title>
<path fill="none" stroke="#63b8ff" d="M337.43,-336.65C285.85,-332.6 178.95,-321.09 155.45,-294 131.43,-266.32 136.9,-219.97 142.49,-194.21"/>
<polygon fill="#63b8ff" stroke="#63b8ff" points="145.95,-194.79 144.89,-184.25 139.15,-193.15 145.95,-194.79"/>
</g>
<!-- Node12 -->
<g id="node12" class="node">
<title>Node12</title>
<g id="a_node12"><a xlink:href="newton_8h.html" target="_top" xlink:title="Functions to calculate the semismooth Newton direction.">
<polygon fill="white" stroke="#666666" points="577.45,-239 515.45,-239 515.45,-220 577.45,-220 577.45,-239"/>
<text text-anchor="middle" x="546.45" y="-227" font-family="Helvetica,sans-Serif" font-size="10.00">newton.h</text>
</a>
</g>
</g>
<!-- Node2&#45;&gt;Node12 -->
<g id="edge22" class="edge">
<title>Node2&#45;&gt;Node12</title>
<path fill="none" stroke="#63b8ff" d="M393.61,-334.61C422.91,-329.43 468.95,-317.95 501.45,-294 517.55,-282.13 530.08,-262.75 537.78,-248.52"/>
<polygon fill="#63b8ff" stroke="#63b8ff" points="541.08,-249.74 542.52,-239.24 534.85,-246.56 541.08,-249.74"/>
</g>
<!-- Node13 -->
<g id="node13" class="node">
<title>Node13</title>
<g id="a_node13"><a xlink:href="nonconvex_8h.html" target="_top" xlink:title="Routines to deal with nonconvex QPs.">
<polygon fill="white" stroke="#666666" points="674.95,-239 595.95,-239 595.95,-220 674.95,-220 674.95,-239"/>
<text text-anchor="middle" x="635.45" y="-227" font-family="Helvetica,sans-Serif" font-size="10.00">nonconvex.h</text>
</a>
</g>
</g>
<!-- Node2&#45;&gt;Node13 -->
<g id="edge24" class="edge">
<title>Node2&#45;&gt;Node13</title>
<path fill="none" stroke="#63b8ff" d="M393.62,-332.92C426.16,-325.97 480.91,-312.69 525.45,-294 558.18,-280.26 593.25,-258.69 614.77,-244.57"/>
<polygon fill="#63b8ff" stroke="#63b8ff" points="616.72,-247.47 623.11,-239.02 612.85,-241.64 616.72,-247.47"/>
</g>
<!-- Node14 -->
<g id="node14" class="node">
<title>Node14</title>
<g id="a_node14"><a xlink:href="scaling_8h.html" target="_top" xlink:title="Problem data scaling during setup.">
<polygon fill="white" stroke="#666666" points="337.45,-294 277.45,-294 277.45,-275 337.45,-275 337.45,-294"/>
<text text-anchor="middle" x="307.45" y="-282" font-family="Helvetica,sans-Serif" font-size="10.00">scaling.h</text>
</a>
</g>
</g>
<!-- Node2&#45;&gt;Node14 -->
<g id="edge26" class="edge">
<title>Node2&#45;&gt;Node14</title>
<path fill="none" stroke="#63b8ff" d="M356.13,-329.98C347.64,-322.23 334.89,-310.58 324.56,-301.14"/>
<polygon fill="#63b8ff" stroke="#63b8ff" points="326.68,-298.33 316.93,-294.17 321.95,-303.5 326.68,-298.33"/>
</g>
<!-- Node15 -->
<g id="node15" class="node">
<title>Node15</title>
<g id="a_node15"><a xlink:href="termination_8h.html" target="_top" xlink:title="Routines to check the termination and infeasibility criteria.">
<polygon fill="white" stroke="#666666" points="258.95,-294 175.95,-294 175.95,-275 258.95,-275 258.95,-294"/>
<text text-anchor="middle" x="217.45" y="-282" font-family="Helvetica,sans-Serif" font-size="10.00">termination.h</text>
</a>
</g>
</g>
<!-- Node2&#45;&gt;Node15 -->
<g id="edge31" class="edge">
<title>Node2&#45;&gt;Node15</title>
<path fill="none" stroke="#63b8ff" d="M341.67,-329.98C317.21,-321.23 278.91,-307.51 251.3,-297.62"/>
<polygon fill="#63b8ff" stroke="#63b8ff" points="252.25,-294.25 241.66,-294.17 249.89,-300.84 252.25,-294.25"/>
</g>
<!-- Node16 -->
<g id="node16" class="node">
<title>Node16</title>
<g id="a_node16"><a xlink:href="util_8h.html" target="_top" xlink:title="Utility functions.">
<polygon fill="white" stroke="#666666" points="52.95,-184 11.95,-184 11.95,-165 52.95,-165 52.95,-184"/>
<text text-anchor="middle" x="32.45" y="-172" font-family="Helvetica,sans-Serif" font-size="10.00">util.h</text>
</a>
</g>
</g>
<!-- Node2&#45;&gt;Node16 -->
<g id="edge34" class="edge">
<title>Node2&#45;&gt;Node16</title>
<path fill="none" stroke="#63b8ff" d="M337.35,-338.4C292.95,-337.08 205.06,-329.72 141.45,-294 96.73,-268.89 60.12,-218.91 42.97,-192.6"/>
<polygon fill="#63b8ff" stroke="#63b8ff" points="45.86,-190.63 37.55,-184.07 39.96,-194.39 45.86,-190.63"/>
</g>
<!-- Node17 -->
<g id="node17" class="node">
<title>Node17</title>
<g id="a_node17"><a xlink:href="validate_8h.html" target="_top" xlink:title="Validation of the user provided settings and data.">
<polygon fill="white" stroke="#666666" points="458.95,-294 393.95,-294 393.95,-275 458.95,-275 458.95,-294"/>
<text text-anchor="middle" x="426.45" y="-282" font-family="Helvetica,sans-Serif" font-size="10.00">validate.h</text>
</a>
</g>
</g>
<!-- Node2&#45;&gt;Node17 -->
<g id="edge37" class="edge">
<title>Node2&#45;&gt;Node17</title>
<path fill="none" stroke="#63b8ff" d="M375.25,-329.98C384.26,-322.15 397.85,-310.34 408.76,-300.86"/>
<polygon fill="#63b8ff" stroke="#63b8ff" points="411.21,-303.37 416.47,-294.17 406.62,-298.09 411.21,-303.37"/>
</g>
<!-- Node4 -->
<g id="node4" class="node">
<title>Node4</title>
<g id="a_node4"><a xlink:title=" ">
<polygon fill="#e0e0e0" stroke="#999999" points="324.45,-19 274.45,-19 274.45,0 324.45,0 324.45,-19"/>
<text text-anchor="middle" x="299.45" y="-7" font-family="Helvetica,sans-Serif" font-size="10.00">ladel.h</text>
</a>
</g>
</g>
<!-- Node3&#45;&gt;Node4 -->
<g id="edge3" class="edge">
<title>Node3&#45;&gt;Node4</title>
<path fill="none" stroke="#63b8ff" d="M129.27,-109.84C161.28,-91.16 237.1,-46.9 275.81,-24.3"/>
<polygon fill="#63b8ff" stroke="#63b8ff" points="277.93,-27.11 284.8,-19.05 274.4,-21.07 277.93,-27.11"/>
</g>
<!-- Node5&#45;&gt;Node4 -->
<g id="edge5" class="edge">
<title>Node5&#45;&gt;Node4</title>
<path fill="none" stroke="#63b8ff" d="M377.5,-54.98C362.95,-46.69 340.58,-33.94 323.51,-24.22"/>
<polygon fill="#63b8ff" stroke="#63b8ff" points="325.08,-21.08 314.66,-19.17 321.61,-27.16 325.08,-21.08"/>
</g>
<!-- Node6 -->
<g id="node6" class="node">
<title>Node6</title>
<g id="a_node6"><a xlink:title=" ">
<polygon fill="#e0e0e0" stroke="#999999" points="417.95,-19 366.95,-19 366.95,0 417.95,0 417.95,-19"/>
<text text-anchor="middle" x="392.45" y="-7" font-family="Helvetica,sans-Serif" font-size="10.00">math.h</text>
</a>
</g>
</g>
<!-- Node5&#45;&gt;Node6 -->
<g id="edge6" class="edge">
<title>Node5&#45;&gt;Node6</title>
<path fill="none" stroke="#63b8ff" d="M392.45,-54.75C392.45,-47.8 392.45,-37.85 392.45,-29.13"/>
<polygon fill="#63b8ff" stroke="#63b8ff" points="395.95,-29.09 392.45,-19.09 388.95,-29.09 395.95,-29.09"/>
</g>
<!-- Node7&#45;&gt;Node5 -->
<g id="edge11" class="edge">
<title>Node7&#45;&gt;Node5</title>
<path fill="none" stroke="#63b8ff" d="M606.77,-164.84C565.86,-145.88 468.12,-100.58 420.07,-78.31"/>
<polygon fill="#63b8ff" stroke="#63b8ff" points="421.43,-75.08 410.88,-74.05 418.48,-81.43 421.43,-75.08"/>
</g>
<!-- Node7&#45;&gt;Node8 -->
<g id="edge8" class="edge">
<title>Node7&#45;&gt;Node8</title>
<path fill="none" stroke="#63b8ff" d="M591.56,-165.79C548.24,-155.94 473.51,-138.94 428.95,-128.8"/>
<polygon fill="#63b8ff" stroke="#63b8ff" points="429.65,-125.37 419.12,-126.57 428.1,-132.2 429.65,-125.37"/>
</g>
<!-- Node8&#45;&gt;Node4 -->
<g id="edge10" class="edge">
<title>Node8&#45;&gt;Node4</title>
<path fill="none" stroke="#63b8ff" d="M380.99,-109.68C370.34,-101.18 354.39,-87.64 342.45,-74 329.74,-59.49 317.64,-41.07 309.54,-27.81"/>
<polygon fill="#63b8ff" stroke="#63b8ff" points="312.52,-25.99 304.39,-19.2 306.52,-29.58 312.52,-25.99"/>
</g>
<!-- Node8&#45;&gt;Node5 -->
<g id="edge9" class="edge">
<title>Node8&#45;&gt;Node5</title>
<path fill="none" stroke="#63b8ff" d="M392.45,-109.75C392.45,-102.8 392.45,-92.85 392.45,-84.13"/>
<polygon fill="#63b8ff" stroke="#63b8ff" points="395.95,-84.09 392.45,-74.09 388.95,-84.09 395.95,-84.09"/>
</g>
<!-- Node9&#45;&gt;Node8 -->
<g id="edge13" class="edge">
<title>Node9&#45;&gt;Node8</title>
<path fill="none" stroke="#63b8ff" d="M357.55,-219.66C363.76,-202.01 377.81,-162.09 386.06,-138.64"/>
<polygon fill="#63b8ff" stroke="#63b8ff" points="389.38,-139.75 389.4,-129.16 382.78,-137.43 389.38,-139.75"/>
</g>
<!-- Node9&#45;&gt;Node10 -->
<g id="edge14" class="edge">
<title>Node9&#45;&gt;Node10</title>
<path fill="none" stroke="#63b8ff" d="M338.54,-219.98C322.9,-211.61 298.79,-198.7 280.56,-188.95"/>
<polygon fill="#63b8ff" stroke="#63b8ff" points="282.11,-185.8 271.64,-184.17 278.8,-191.98 282.11,-185.8"/>
</g>
<!-- Node10&#45;&gt;Node3 -->
<g id="edge16" class="edge">
<title>Node10&#45;&gt;Node3</title>
<path fill="none" stroke="#63b8ff" d="M232.79,-164.98C209.6,-156.27 173.32,-142.63 147.05,-132.75"/>
<polygon fill="#63b8ff" stroke="#63b8ff" points="148.1,-129.41 137.51,-129.17 145.64,-135.97 148.1,-129.41"/>
</g>
<!-- Node10&#45;&gt;Node4 -->
<g id="edge18" class="edge">
<title>Node10&#45;&gt;Node4</title>
<path fill="none" stroke="#63b8ff" d="M257.81,-164.74C264.7,-139.2 284.89,-64.43 294.39,-29.23"/>
<polygon fill="#63b8ff" stroke="#63b8ff" points="297.84,-29.87 297.07,-19.31 291.08,-28.05 297.84,-29.87"/>
</g>
<!-- Node10&#45;&gt;Node5 -->
<g id="edge15" class="edge">
<title>Node10&#45;&gt;Node5</title>
<path fill="none" stroke="#63b8ff" d="M266.66,-164.66C290.05,-146.22 344.31,-103.45 373.33,-80.57"/>
<polygon fill="#63b8ff" stroke="#63b8ff" points="375.78,-83.1 381.46,-74.16 371.44,-77.6 375.78,-83.1"/>
</g>
<!-- Node10&#45;&gt;Node8 -->
<g id="edge17" class="edge">
<title>Node10&#45;&gt;Node8</title>
<path fill="none" stroke="#63b8ff" d="M277.46,-164.98C299.89,-156.3 334.93,-142.75 360.43,-132.88"/>
<polygon fill="#63b8ff" stroke="#63b8ff" points="361.97,-136.04 370.03,-129.17 359.44,-129.51 361.97,-136.04"/>
</g>
<!-- Node11&#45;&gt;Node3 -->
<g id="edge21" class="edge">
<title>Node11&#45;&gt;Node3</title>
<path fill="none" stroke="#63b8ff" d="M142,-164.75C137.43,-157.42 130.78,-146.73 125.15,-137.7"/>
<polygon fill="#63b8ff" stroke="#63b8ff" points="128.05,-135.73 119.79,-129.09 122.11,-139.43 128.05,-135.73"/>
</g>
<!-- Node11&#45;&gt;Node8 -->
<g id="edge20" class="edge">
<title>Node11&#45;&gt;Node8</title>
<path fill="none" stroke="#63b8ff" d="M185.46,-165.28C231.94,-155.22 310.07,-138.32 355.88,-128.41"/>
<polygon fill="#63b8ff" stroke="#63b8ff" points="356.66,-131.82 365.7,-126.29 355.18,-124.98 356.66,-131.82"/>
</g>
<!-- Node12&#45;&gt;Node8 -->
<g id="edge23" class="edge">
<title>Node12&#45;&gt;Node8</title>
<path fill="none" stroke="#63b8ff" d="M542.39,-219.92C535.65,-206.5 520.92,-180.46 501.45,-165 480.2,-148.14 451.7,-136.8 429.17,-129.79"/>
<polygon fill="#63b8ff" stroke="#63b8ff" points="429.87,-126.35 419.29,-126.87 427.88,-133.06 429.87,-126.35"/>
</g>
<!-- Node13&#45;&gt;Node8 -->
<g id="edge25" class="edge">
<title>Node13&#45;&gt;Node8</title>
<path fill="none" stroke="#63b8ff" d="M622.22,-219.8C601.85,-206.67 561.3,-181.56 524.45,-165 493.05,-150.89 455.77,-138.72 428.85,-130.69"/>
<polygon fill="#63b8ff" stroke="#63b8ff" points="429.65,-127.27 419.07,-127.81 427.68,-133.99 429.65,-127.27"/>
</g>
<!-- Node14&#45;&gt;Node3 -->
<g id="edge29" class="edge">
<title>Node14&#45;&gt;Node3</title>
<path fill="none" stroke="#63b8ff" d="M281.7,-274.98C230.97,-257.62 121.19,-216.99 100.45,-184 91.83,-170.29 97.26,-152.01 103.71,-138.58"/>
<polygon fill="#63b8ff" stroke="#63b8ff" points="106.98,-139.89 108.62,-129.42 100.81,-136.58 106.98,-139.89"/>
</g>
<!-- Node14&#45;&gt;Node8 -->
<g id="edge27" class="edge">
<title>Node14&#45;&gt;Node8</title>
<path fill="none" stroke="#63b8ff" d="M337.81,-276.25C357.12,-269.89 380.63,-258.52 392.45,-239 411.2,-208.02 404.16,-163.61 397.93,-138.89"/>
<polygon fill="#63b8ff" stroke="#63b8ff" points="401.25,-137.75 395.23,-129.04 394.5,-139.61 401.25,-137.75"/>
</g>
<!-- Node14&#45;&gt;Node9 -->
<g id="edge28" class="edge">
<title>Node14&#45;&gt;Node9</title>
<path fill="none" stroke="#63b8ff" d="M315.21,-274.75C321.91,-267.18 331.79,-256.05 339.95,-246.84"/>
<polygon fill="#63b8ff" stroke="#63b8ff" points="342.81,-248.89 346.83,-239.09 337.57,-244.25 342.81,-248.89"/>
</g>
<!-- Node15&#45;&gt;Node8 -->
<g id="edge32" class="edge">
<title>Node15&#45;&gt;Node8</title>
<path fill="none" stroke="#63b8ff" d="M226.85,-274.74C255.1,-248.42 339.46,-169.85 375.65,-136.14"/>
<polygon fill="#63b8ff" stroke="#63b8ff" points="378.06,-138.68 382.99,-129.31 373.29,-133.56 378.06,-138.68"/>
</g>
<!-- Node16&#45;&gt;Node3 -->
<g id="edge36" class="edge">
<title>Node16&#45;&gt;Node3</title>
<path fill="none" stroke="#63b8ff" d="M45.62,-164.98C58.22,-156.84 77.45,-144.41 92.38,-134.76"/>
<polygon fill="#63b8ff" stroke="#63b8ff" points="94.53,-137.54 101.03,-129.17 90.73,-131.66 94.53,-137.54"/>
</g>
<!-- Node16&#45;&gt;Node8 -->
<g id="edge35" class="edge">
<title>Node16&#45;&gt;Node8</title>
<path fill="none" stroke="#63b8ff" d="M53.09,-170.46C111.88,-161.8 280.75,-136.94 355.77,-125.9"/>
<polygon fill="#63b8ff" stroke="#63b8ff" points="356.33,-129.36 365.71,-124.44 355.31,-122.43 356.33,-129.36"/>
</g>
<!-- Node17&#45;&gt;Node8 -->
<g id="edge38" class="edge">
<title>Node17&#45;&gt;Node8</title>
<path fill="none" stroke="#63b8ff" d="M428.15,-274.87C431.71,-254.9 438.58,-204.21 425.45,-165 421.94,-154.55 414.97,-144.54 408.33,-136.67"/>
<polygon fill="#63b8ff" stroke="#63b8ff" points="410.74,-134.12 401.44,-129.05 405.55,-138.82 410.74,-134.12"/>
</g>
</g>
</svg>
        <g id="navigator" transform="translate(0 0)" fill="#404254">
                <rect fill="#f2f5e9" fill-opacity="0.5" stroke="#606060" stroke-width=".5" x="0" y="0" width="60" height="60"/>
                <use id="zoomplus" xlink:href="#zoomPlus" x="17" y="9" onmousedown="handleZoom(evt,'in')"/>
                <use id="zoomminus" xlink:href="#zoomMin" x="42" y="9" onmousedown="handleZoom(evt,'out')"/>
                <use id="reset" xlink:href="#resetDef" x="30" y="36" onmousedown="handleReset()"/>
                <g id="arrowUp" xlink:href="#dirArrow" transform="translate(30 24)" onmousedown="handlePan(0,-1)">
                  <use xlink:href="#rim" fill="#404040">
                        <set attributeName="fill" to="#808080" begin="arrowUp.mouseover" end="arrowUp.mouseout"/>
                  </use>
                  <path fill="none" stroke="white" stroke-width="1.5" d="M0,-3.0v7 M-2.5,-0.5L0,-3.0L2.5,-0.5"/>
                </g>
                <g id="arrowRight" xlink:href="#dirArrow" transform="rotate(90) translate(36 -43)" onmousedown="handlePan(1,0)">
                  <use xlink:href="#rim" fill="#404040">
                        <set attributeName="fill" to="#808080" begin="arrowRight.mouseover" end="arrowRight.mouseout"/>
                  </use>
                  <path fill="none" stroke="white" stroke-width="1.5" d="M0,-3.0v7 M-2.5,-0.5L0,-3.0L2.5,-0.5"/>
                </g>
                <g id="arrowDown" xlink:href="#dirArrow" transform="rotate(180) translate(-30 -48)" onmousedown="handlePan(0,1)">
                  <use xlink:href="#rim" fill="#404040">
                        <set attributeName="fill" to="#808080" begin="arrowDown.mouseover" end="arrowDown.mouseout"/>
                  </use>
                  <path fill="none" stroke="white" stroke-width="1.5" d="M0,-3.0v7 M-2.5,-0.5L0,-3.0L2.5,-0.5"/>
                </g>
                <g id="arrowLeft" xlink:href="#dirArrow" transform="rotate(270) translate(-36 17)" onmousedown="handlePan(-1,0)">
                  <use xlink:href="#rim" fill="#404040">
                        <set attributeName="fill" to="#808080" begin="arrowLeft.mouseover" end="arrowLeft.mouseout"/>
                  </use>
                  <path fill="none" stroke="white" stroke-width="1.5" d="M0,-3.0v7 M-2.5,-0.5L0,-3.0L2.5,-0.5"/>
                </g>
        </g>
        <svg viewBox="0 0 15 15" width="100%" height="30px" preserveAspectRatio="xMaxYMin meet">
         <g id="arrow_out" transform="scale(0.3 0.3)">
          <a xlink:href="qpalm__fortran_8h__incl_org.svg" target="_base">
           <rect id="button" ry="5" rx="5" y="6" x="6" height="38" width="38"
                fill="#f2f5e9" fill-opacity="0.5" stroke="#606060" stroke-width="1.0"/>
           <path id="arrow"
             d="M 11.500037,31.436501 C 11.940474,20.09759 22.043105,11.32322 32.158766,21.979434 L 37.068811,17.246167 C 37.068811,17.246167 37.088388,32 37.088388,32 L 22.160133,31.978069 C 22.160133,31.978069 26.997745,27.140456 26.997745,27.140456 C 18.528582,18.264221 13.291696,25.230495 11.500037,31.436501 z"
             style="fill:#404040;"/>
          </a>
         </g>
        </svg>
</svg>
