<?xml version="1.0" encoding="UTF-8" standalone="no"?>
<!DOCTYPE svg PUBLIC "-//W3C//DTD SVG 1.1//EN"
 "http://www.w3.org/Graphics/SVG/1.1/DTD/svg11.dtd">
<!-- Generated by graphviz version 2.43.0 (0)
 -->
<!-- Title: QPALM/src/scaling.c Pages: 1 -->
<svg width="261pt" height="357pt"
 viewBox="0.00 0.00 261.23 357.00" xmlns="http://www.w3.org/2000/svg" xmlns:xlink="http://www.w3.org/1999/xlink">
<g id="graph0" class="graph" transform="scale(1 1) rotate(0) translate(4 353)">
<title>QPALM/src/scaling.c</title>
<!-- Node1 -->
<g id="node1" class="node">
<title>Node1</title>
<g id="a_node1"><a xlink:title="Problem data scaling during setup.">
<polygon fill="#999999" stroke="#666666" points="202.73,-349 89.73,-349 89.73,-330 202.73,-330 202.73,-349"/>
<text text-anchor="middle" x="146.23" y="-337" font-family="Helvetica,sans-Serif" font-size="10.00">QPALM/src/scaling.c</text>
</a>
</g>
</g>
<!-- Node2 -->
<g id="node2" class="node">
<title>Node2</title>
<g id="a_node2"><a xlink:title=" ">
<polygon fill="#e0e0e0" stroke="#999999" points="69.23,-294 19.23,-294 19.23,-275 69.23,-275 69.23,-294"/>
<text text-anchor="middle" x="44.23" y="-282" font-family="Helvetica,sans-Serif" font-size="10.00">stdio.h</text>
</a>
</g>
</g>
<!-- Node1&#45;&gt;Node2 -->
<g id="edge1" class="edge">
<title>Node1&#45;&gt;Node2</title>
<path fill="none" stroke="#63b8ff" d="M129.85,-329.98C113.66,-321.57 88.66,-308.59 69.85,-298.81"/>
<polygon fill="#63b8ff" stroke="#63b8ff" points="71.41,-295.68 60.92,-294.17 68.18,-301.89 71.41,-295.68"/>
</g>
<!-- Node3 -->
<g id="node3" class="node">
<title>Node3</title>
<g id="a_node3"><a xlink:href="scaling_8h.html" target="_top" xlink:title="Problem data scaling during setup.">
<polygon fill="white" stroke="#666666" points="147.23,-294 87.23,-294 87.23,-275 147.23,-275 147.23,-294"/>
<text text-anchor="middle" x="117.23" y="-282" font-family="Helvetica,sans-Serif" font-size="10.00">scaling.h</text>
</a>
</g>
</g>
<!-- Node1&#45;&gt;Node3 -->
<g id="edge2" class="edge">
<title>Node1&#45;&gt;Node3</title>
<path fill="none" stroke="#63b8ff" d="M141.44,-329.75C137.47,-322.49 131.71,-311.95 126.8,-302.98"/>
<polygon fill="#63b8ff" stroke="#63b8ff" points="129.8,-301.18 121.93,-294.09 123.66,-304.54 129.8,-301.18"/>
</g>
<!-- Node6 -->
<g id="node6" class="node">
<title>Node6</title>
<g id="a_node6"><a xlink:title=" ">
<polygon fill="#e0e0e0" stroke="#999999" points="148.23,-19 98.23,-19 98.23,0 148.23,0 148.23,-19"/>
<text text-anchor="middle" x="123.23" y="-7" font-family="Helvetica,sans-Serif" font-size="10.00">ladel.h</text>
</a>
</g>
</g>
<!-- Node1&#45;&gt;Node6 -->
<g id="edge18" class="edge">
<title>Node1&#45;&gt;Node6</title>
<path fill="none" stroke="#63b8ff" d="M165.36,-329.95C196.14,-314.73 253.23,-279.86 253.23,-230.5 253.23,-230.5 253.23,-230.5 253.23,-118.5 253.23,-68.73 196.16,-37.5 157.64,-22.09"/>
<polygon fill="#63b8ff" stroke="#63b8ff" points="158.89,-18.82 148.3,-18.51 156.39,-25.36 158.89,-18.82"/>
</g>
<!-- Node8 -->
<g id="node8" class="node">
<title>Node8</title>
<g id="a_node8"><a xlink:href="lin__alg_8h.html" target="_top" xlink:title="Linear algebra with vectors.">
<polygon fill="white" stroke="#666666" points="146.23,-239 88.23,-239 88.23,-220 146.23,-220 146.23,-239"/>
<text text-anchor="middle" x="117.23" y="-227" font-family="Helvetica,sans-Serif" font-size="10.00">lin_alg.h</text>
</a>
</g>
</g>
<!-- Node1&#45;&gt;Node8 -->
<g id="edge17" class="edge">
<title>Node1&#45;&gt;Node8</title>
<path fill="none" stroke="#63b8ff" d="M150.4,-329.59C155.66,-317.03 163.23,-293.59 156.23,-275 152.06,-263.89 143.71,-253.75 135.81,-245.96"/>
<polygon fill="#63b8ff" stroke="#63b8ff" points="137.96,-243.19 128.22,-239.01 133.23,-248.35 137.96,-243.19"/>
</g>
<!-- Node4 -->
<g id="node4" class="node">
<title>Node4</title>
<g id="a_node4"><a xlink:href="types_8h.html" target="_top" xlink:title="Internal data structures used in QPALM.">
<polygon fill="white" stroke="#666666" points="56.73,-129 3.73,-129 3.73,-110 56.73,-110 56.73,-129"/>
<text text-anchor="middle" x="30.23" y="-117" font-family="Helvetica,sans-Serif" font-size="10.00">types.h</text>
</a>
</g>
</g>
<!-- Node3&#45;&gt;Node4 -->
<g id="edge3" class="edge">
<title>Node3&#45;&gt;Node4</title>
<path fill="none" stroke="#63b8ff" d="M108.22,-274.91C91.95,-258.8 57.92,-222.22 42.23,-184 36.3,-169.55 33.27,-152.04 31.74,-139.07"/>
<polygon fill="#63b8ff" stroke="#63b8ff" points="35.22,-138.63 30.75,-129.03 28.25,-139.32 35.22,-138.63"/>
</g>
<!-- Node3&#45;&gt;Node8 -->
<g id="edge8" class="edge">
<title>Node3&#45;&gt;Node8</title>
<path fill="none" stroke="#63b8ff" d="M117.23,-274.75C117.23,-267.8 117.23,-257.85 117.23,-249.13"/>
<polygon fill="#63b8ff" stroke="#63b8ff" points="120.73,-249.09 117.23,-239.09 113.73,-249.09 120.73,-249.09"/>
</g>
<!-- Node10 -->
<g id="node10" class="node">
<title>Node10</title>
<g id="a_node10"><a xlink:href="constants_8h.html" target="_top" xlink:title="Constants used in QPALM.">
<polygon fill="white" stroke="#666666" points="224.73,-129 151.73,-129 151.73,-110 224.73,-110 224.73,-129"/>
<text text-anchor="middle" x="188.23" y="-117" font-family="Helvetica,sans-Serif" font-size="10.00">constants.h</text>
</a>
</g>
</g>
<!-- Node3&#45;&gt;Node10 -->
<g id="edge16" class="edge">
<title>Node3&#45;&gt;Node10</title>
<path fill="none" stroke="#63b8ff" d="M125.98,-274.94C134.32,-266.42 146.82,-252.67 155.23,-239 169.11,-216.43 171.01,-209.49 178.23,-184 182.38,-169.37 184.95,-152.32 186.44,-139.57"/>
<polygon fill="#63b8ff" stroke="#63b8ff" points="189.96,-139.58 187.52,-129.27 183,-138.85 189.96,-139.58"/>
</g>
<!-- Node5 -->
<g id="node5" class="node">
<title>Node5</title>
<g id="a_node5"><a xlink:href="global__opts_8h.html" target="_top" xlink:title="Custom memory allocation, print and utility functions, and data types for floats and ints.">
<polygon fill="white" stroke="#666666" points="95.23,-74 13.23,-74 13.23,-55 95.23,-55 95.23,-74"/>
<text text-anchor="middle" x="54.23" y="-62" font-family="Helvetica,sans-Serif" font-size="10.00">global_opts.h</text>
</a>
</g>
</g>
<!-- Node4&#45;&gt;Node5 -->
<g id="edge4" class="edge">
<title>Node4&#45;&gt;Node5</title>
<path fill="none" stroke="#63b8ff" d="M34.2,-109.75C37.45,-102.57 42.15,-92.18 46.19,-83.27"/>
<polygon fill="#63b8ff" stroke="#63b8ff" points="49.41,-84.64 50.34,-74.09 43.03,-81.75 49.41,-84.64"/>
</g>
<!-- Node4&#45;&gt;Node6 -->
<g id="edge7" class="edge">
<title>Node4&#45;&gt;Node6</title>
<path fill="none" stroke="#63b8ff" d="M21.49,-109.69C9.83,-96.85 -7.99,-72.62 4.23,-55 9.29,-47.71 54.98,-32.01 88.24,-21.35"/>
<polygon fill="#63b8ff" stroke="#63b8ff" points="89.63,-24.58 98.1,-18.22 87.51,-17.91 89.63,-24.58"/>
</g>
<!-- Node5&#45;&gt;Node6 -->
<g id="edge5" class="edge">
<title>Node5&#45;&gt;Node6</title>
<path fill="none" stroke="#63b8ff" d="M65.32,-54.98C75.72,-47 91.49,-34.88 103.95,-25.31"/>
<polygon fill="#63b8ff" stroke="#63b8ff" points="106.15,-28.04 111.95,-19.17 101.88,-22.49 106.15,-28.04"/>
</g>
<!-- Node7 -->
<g id="node7" class="node">
<title>Node7</title>
<g id="a_node7"><a xlink:title=" ">
<polygon fill="#e0e0e0" stroke="#999999" points="79.73,-19 28.73,-19 28.73,0 79.73,0 79.73,-19"/>
<text text-anchor="middle" x="54.23" y="-7" font-family="Helvetica,sans-Serif" font-size="10.00">math.h</text>
</a>
</g>
</g>
<!-- Node5&#45;&gt;Node7 -->
<g id="edge6" class="edge">
<title>Node5&#45;&gt;Node7</title>
<path fill="none" stroke="#63b8ff" d="M54.23,-54.75C54.23,-47.8 54.23,-37.85 54.23,-29.13"/>
<polygon fill="#63b8ff" stroke="#63b8ff" points="57.73,-29.09 54.23,-19.09 50.73,-29.09 57.73,-29.09"/>
</g>
<!-- Node8&#45;&gt;Node4 -->
<g id="edge9" class="edge">
<title>Node8&#45;&gt;Node4</title>
<path fill="none" stroke="#63b8ff" d="M100.76,-219.89C87.22,-212.1 68.36,-199.48 56.23,-184 45.79,-170.67 38.92,-152.56 34.89,-139.09"/>
<polygon fill="#63b8ff" stroke="#63b8ff" points="38.16,-137.79 32.14,-129.07 31.41,-139.64 38.16,-137.79"/>
</g>
<!-- Node9 -->
<g id="node9" class="node">
<title>Node9</title>
<g id="a_node9"><a xlink:href="solver__interface_8h.html" target="_top" xlink:title="Interface and wrapper to matrix/factorization (ladel) functions.">
<polygon fill="white" stroke="#666666" points="169.23,-184 65.23,-184 65.23,-165 169.23,-165 169.23,-184"/>
<text text-anchor="middle" x="117.23" y="-172" font-family="Helvetica,sans-Serif" font-size="10.00">solver_interface.h</text>
</a>
</g>
</g>
<!-- Node8&#45;&gt;Node9 -->
<g id="edge10" class="edge">
<title>Node8&#45;&gt;Node9</title>
<path fill="none" stroke="#63b8ff" d="M117.23,-219.75C117.23,-212.8 117.23,-202.85 117.23,-194.13"/>
<polygon fill="#63b8ff" stroke="#63b8ff" points="120.73,-194.09 117.23,-184.09 113.73,-194.09 120.73,-194.09"/>
</g>
<!-- Node9&#45;&gt;Node4 -->
<g id="edge14" class="edge">
<title>Node9&#45;&gt;Node4</title>
<path fill="none" stroke="#63b8ff" d="M103.26,-164.98C89.76,-156.77 69.1,-144.18 53.19,-134.49"/>
<polygon fill="#63b8ff" stroke="#63b8ff" points="54.83,-131.38 44.47,-129.17 51.18,-137.36 54.83,-131.38"/>
</g>
<!-- Node9&#45;&gt;Node5 -->
<g id="edge11" class="edge">
<title>Node9&#45;&gt;Node5</title>
<path fill="none" stroke="#63b8ff" d="M112.08,-164.66C101.69,-146.85 78.07,-106.37 64.44,-83.01"/>
<polygon fill="#63b8ff" stroke="#63b8ff" points="67.35,-81.03 59.28,-74.16 61.3,-84.56 67.35,-81.03"/>
</g>
<!-- Node9&#45;&gt;Node6 -->
<g id="edge15" class="edge">
<title>Node9&#45;&gt;Node6</title>
<path fill="none" stroke="#63b8ff" d="M117.56,-164.74C118.49,-139.31 121.22,-65.08 122.53,-29.69"/>
<polygon fill="#63b8ff" stroke="#63b8ff" points="126.04,-29.43 122.91,-19.31 119.04,-29.17 126.04,-29.43"/>
</g>
<!-- Node9&#45;&gt;Node10 -->
<g id="edge12" class="edge">
<title>Node9&#45;&gt;Node10</title>
<path fill="none" stroke="#63b8ff" d="M128.64,-164.98C139.34,-157 155.57,-144.88 168.4,-135.31"/>
<polygon fill="#63b8ff" stroke="#63b8ff" points="170.7,-137.96 176.62,-129.17 166.51,-132.35 170.7,-137.96"/>
</g>
<!-- Node10&#45;&gt;Node6 -->
<g id="edge13" class="edge">
<title>Node10&#45;&gt;Node6</title>
<path fill="none" stroke="#63b8ff" d="M182.91,-109.66C172.2,-91.85 147.83,-51.37 133.77,-28.01"/>
<polygon fill="#63b8ff" stroke="#63b8ff" points="136.6,-25.92 128.44,-19.16 130.6,-29.53 136.6,-25.92"/>
</g>
</g>
</svg>
