<?xml version="1.0" encoding="UTF-8" standalone="no"?>
<!DOCTYPE svg PUBLIC "-//W3C//DTD SVG 1.1//EN"
 "http://www.w3.org/Graphics/SVG/1.1/DTD/svg11.dtd">
<!-- Generated by graphviz version 2.43.0 (0)
 -->
<!-- Title: qpalm_set_factorization_method Pages: 1 -->
<svg width="390pt" height="38pt"
 viewBox="0.00 0.00 390.00 38.00" xmlns="http://www.w3.org/2000/svg" xmlns:xlink="http://www.w3.org/1999/xlink">
<g id="graph0" class="graph" transform="scale(1 1) rotate(0) translate(4 34)">
<title>qpalm_set_factorization_method</title>
<!-- Node1 -->
<g id="node1" class="node">
<title>Node1</title>
<g id="a_node1"><a xlink:title="Choose the linear systems solver method based on the problem data sizes.">
<polygon fill="#999999" stroke="#666666" points="382,-30 248,-30 248,0 382,0 382,-30"/>
<text text-anchor="start" x="256" y="-18" font-family="Helvetica,sans-Serif" font-size="10.00">qpalm_set_factorization</text>
<text text-anchor="middle" x="315" y="-7" font-family="Helvetica,sans-Serif" font-size="10.00">_method</text>
</a>
</g>
</g>
<!-- Node2 -->
<g id="node2" class="node">
<title>Node2</title>
<g id="a_node2"><a xlink:href="group__solver-grp.html#gaaff827465b1299909f394de8771baef9" target="_top" xlink:title="Initialize QPALM solver allocating memory.">
<polygon fill="white" stroke="#666666" points="212,-24.5 132,-24.5 132,-5.5 212,-5.5 212,-24.5"/>
<text text-anchor="middle" x="172" y="-12.5" font-family="Helvetica,sans-Serif" font-size="10.00">qpalm_setup</text>
</a>
</g>
</g>
<!-- Node1&#45;&gt;Node2 -->
<g id="edge1" class="edge">
<title>Node1&#45;&gt;Node2</title>
<path fill="none" stroke="#63b8ff" d="M237.38,-15C228.67,-15 220.08,-15 212.16,-15"/>
<polygon fill="#63b8ff" stroke="#63b8ff" points="237.63,-18.5 247.63,-15 237.63,-11.5 237.63,-18.5"/>
</g>
<!-- Node3 -->
<g id="node3" class="node">
<title>Node3</title>
<g id="a_node3"><a xlink:href="qpalm__fortran_8c.html#abec01161fcee665e126347b862c404c4" target="_top" xlink:title=" ">
<polygon fill="white" stroke="#666666" points="96,-24.5 0,-24.5 0,-5.5 96,-5.5 96,-24.5"/>
<text text-anchor="middle" x="48" y="-12.5" font-family="Helvetica,sans-Serif" font-size="10.00">qpalm_fortran_c</text>
</a>
</g>
</g>
<!-- Node2&#45;&gt;Node3 -->
<g id="edge2" class="edge">
<title>Node2&#45;&gt;Node3</title>
<path fill="none" stroke="#63b8ff" d="M121.7,-15C113.32,-15 104.63,-15 96.3,-15"/>
<polygon fill="#63b8ff" stroke="#63b8ff" points="121.73,-18.5 131.73,-15 121.73,-11.5 121.73,-18.5"/>
</g>
</g>
</svg>
