<?xml version="1.0" encoding="UTF-8" standalone="no"?>
<!DOCTYPE svg PUBLIC "-//W3C//DTD SVG 1.1//EN"
 "http://www.w3.org/Graphics/SVG/1.1/DTD/svg11.dtd">
<!-- Generated by graphviz version 2.43.0 (0)
 -->
<!-- Title: QPALM/include/solver_interface.h Pages: 1 -->
<svg width="1572pt" height="335pt"
 viewBox="0.00 0.00 1572.37 335.00" xmlns="http://www.w3.org/2000/svg" xmlns:xlink="http://www.w3.org/1999/xlink">
<g id="graph0" class="graph" transform="scale(1 1) rotate(0) translate(4 331)">
<title>QPALM/include/solver_interface.h</title>
<!-- Node1 -->
<g id="node1" class="node">
<title>Node1</title>
<g id="a_node1"><a xlink:title="Interface and wrapper to matrix/factorization (ladel) functions.">
<polygon fill="#999999" stroke="#666666" points="878.24,-327 756.24,-327 756.24,-297 878.24,-297 878.24,-327"/>
<text text-anchor="start" x="764.24" y="-315" font-family="Helvetica,sans-Serif" font-size="10.00">QPALM/include/solver</text>
<text text-anchor="middle" x="817.24" y="-304" font-family="Helvetica,sans-Serif" font-size="10.00">_interface.h</text>
</a>
</g>
</g>
<!-- Node2 -->
<g id="node2" class="node">
<title>Node2</title>
<g id="a_node2"><a xlink:href="lin__alg_8h.html" target="_top" xlink:title="Linear algebra with vectors.">
<polygon fill="white" stroke="#666666" points="883.74,-261 750.74,-261 750.74,-242 883.74,-242 883.74,-261"/>
<text text-anchor="middle" x="817.24" y="-249" font-family="Helvetica,sans-Serif" font-size="10.00">QPALM/include/lin_alg.h</text>
</a>
</g>
</g>
<!-- Node1&#45;&gt;Node2 -->
<g id="edge1" class="edge">
<title>Node1&#45;&gt;Node2</title>
<path fill="none" stroke="#63b8ff" d="M817.24,-286.75C817.24,-277.72 817.24,-268.03 817.24,-261.27"/>
<polygon fill="#63b8ff" stroke="#63b8ff" points="813.74,-286.84 817.24,-296.84 820.74,-286.84 813.74,-286.84"/>
</g>
<!-- Node3 -->
<g id="node3" class="node">
<title>Node3</title>
<g id="a_node3"><a xlink:href="qpalm_8h.html" target="_top" xlink:title="QPALM main solver API.">
<polygon fill="white" stroke="#666666" points="602.74,-151 471.74,-151 471.74,-132 602.74,-132 602.74,-151"/>
<text text-anchor="middle" x="537.24" y="-139" font-family="Helvetica,sans-Serif" font-size="10.00">QPALM/include/qpalm.h</text>
</a>
</g>
</g>
<!-- Node1&#45;&gt;Node3 -->
<g id="edge22" class="edge">
<title>Node1&#45;&gt;Node3</title>
<path fill="none" stroke="#63b8ff" d="M746.1,-307.15C556.91,-296.18 52.48,-261.92 4.24,-206 -1.28,-199.61 -1.48,-193.21 4.24,-187 35.3,-153.24 336.04,-145.08 471.58,-143.12"/>
<polygon fill="#63b8ff" stroke="#63b8ff" points="746.03,-310.65 756.22,-307.73 746.43,-303.66 746.03,-310.65"/>
</g>
<!-- Node7 -->
<g id="node7" class="node">
<title>Node7</title>
<g id="a_node7"><a xlink:href="qpalm_8c.html" target="_top" xlink:title="QPALM main solver API.">
<polygon fill="white" stroke="#666666" points="1325.24,-90.5 1215.24,-90.5 1215.24,-71.5 1325.24,-71.5 1325.24,-90.5"/>
<text text-anchor="middle" x="1270.24" y="-78.5" font-family="Helvetica,sans-Serif" font-size="10.00">QPALM/src/qpalm.c</text>
</a>
</g>
</g>
<!-- Node1&#45;&gt;Node7 -->
<g id="edge24" class="edge">
<title>Node1&#45;&gt;Node7</title>
<path fill="none" stroke="#63b8ff" d="M888.63,-306.03C1064.44,-293.07 1507.2,-255.75 1550.24,-206 1617.28,-128.5 1424.63,-97.41 1325.35,-86.77"/>
<polygon fill="#63b8ff" stroke="#63b8ff" points="888.16,-302.55 878.45,-306.78 888.67,-309.54 888.16,-302.55"/>
</g>
<!-- Node10 -->
<g id="node10" class="node">
<title>Node10</title>
<g id="a_node10"><a xlink:href="iteration_8c.html" target="_top" xlink:title="QPALM main solver routines.">
<polygon fill="white" stroke="#666666" points="133.24,-206 13.24,-206 13.24,-187 133.24,-187 133.24,-206"/>
<text text-anchor="middle" x="73.24" y="-194" font-family="Helvetica,sans-Serif" font-size="10.00">QPALM/src/iteration.c</text>
</a>
</g>
</g>
<!-- Node1&#45;&gt;Node10 -->
<g id="edge23" class="edge">
<title>Node1&#45;&gt;Node10</title>
<path fill="none" stroke="#63b8ff" d="M745.73,-300.09C598.06,-277.56 262.07,-226.31 129.01,-206.01"/>
<polygon fill="#63b8ff" stroke="#63b8ff" points="745.62,-303.62 756.04,-301.66 746.68,-296.7 745.62,-303.62"/>
</g>
<!-- Node15 -->
<g id="node15" class="node">
<title>Node15</title>
<g id="a_node15"><a xlink:href="solver__interface_8c.html" target="_top" xlink:title="Interface and wrapper to matrix/factorization (ladel) functions.">
<polygon fill="white" stroke="#666666" points="1541.24,-206 1383.24,-206 1383.24,-187 1541.24,-187 1541.24,-206"/>
<text text-anchor="middle" x="1462.24" y="-194" font-family="Helvetica,sans-Serif" font-size="10.00">QPALM/src/solver_interface.c</text>
</a>
</g>
</g>
<!-- Node1&#45;&gt;Node15 -->
<g id="edge25" class="edge">
<title>Node1&#45;&gt;Node15</title>
<path fill="none" stroke="#63b8ff" d="M888.52,-298.46C1020.71,-275.2 1300.64,-225.94 1413.53,-206.07"/>
<polygon fill="#63b8ff" stroke="#63b8ff" points="887.74,-295.04 878.5,-300.22 888.95,-301.93 887.74,-295.04"/>
</g>
<!-- Node2&#45;&gt;Node3 -->
<g id="edge2" class="edge">
<title>Node2&#45;&gt;Node3</title>
<path fill="none" stroke="#63b8ff" d="M740.48,-247.9C575.22,-241.94 199.09,-226.21 180.24,-206 139.29,-162.09 357.57,-148.36 471.5,-144.22"/>
<polygon fill="#63b8ff" stroke="#63b8ff" points="740.46,-251.41 750.58,-248.27 740.71,-244.41 740.46,-251.41"/>
</g>
<!-- Node2&#45;&gt;Node7 -->
<g id="edge16" class="edge">
<title>Node2&#45;&gt;Node7</title>
<path fill="none" stroke="#63b8ff" d="M894.53,-247.98C1025.81,-243.06 1281.38,-230.45 1314.24,-206 1341.76,-185.51 1351.51,-162.73 1336.24,-132 1326.58,-112.56 1305.35,-98.66 1289.56,-90.52"/>
<polygon fill="#63b8ff" stroke="#63b8ff" points="894.01,-244.5 884.15,-248.37 894.27,-251.49 894.01,-244.5"/>
</g>
<!-- Node8 -->
<g id="node8" class="node">
<title>Node8</title>
<g id="a_node8"><a xlink:href="scaling_8h.html" target="_top" xlink:title="Problem data scaling during setup.">
<polygon fill="white" stroke="#666666" points="1288.74,-206 1153.74,-206 1153.74,-187 1288.74,-187 1288.74,-206"/>
<text text-anchor="middle" x="1221.24" y="-194" font-family="Helvetica,sans-Serif" font-size="10.00">QPALM/include/scaling.h</text>
</a>
</g>
</g>
<!-- Node2&#45;&gt;Node8 -->
<g id="edge7" class="edge">
<title>Node2&#45;&gt;Node8</title>
<path fill="none" stroke="#63b8ff" d="M892.11,-240.68C967.94,-230.73 1084.04,-215.5 1156.15,-206.04"/>
<polygon fill="#63b8ff" stroke="#63b8ff" points="891.61,-237.21 882.15,-241.98 892.52,-244.15 891.61,-237.21"/>
</g>
<!-- Node9 -->
<g id="node9" class="node">
<title>Node9</title>
<g id="a_node9"><a xlink:href="scaling_8c.html" target="_top" xlink:title="Problem data scaling during setup.">
<polygon fill="white" stroke="#666666" points="1326.74,-151 1213.74,-151 1213.74,-132 1326.74,-132 1326.74,-151"/>
<text text-anchor="middle" x="1270.24" y="-139" font-family="Helvetica,sans-Serif" font-size="10.00">QPALM/src/scaling.c</text>
</a>
</g>
</g>
<!-- Node2&#45;&gt;Node9 -->
<g id="edge17" class="edge">
<title>Node2&#45;&gt;Node9</title>
<path fill="none" stroke="#63b8ff" d="M894.08,-248.95C1023.04,-245.54 1271.59,-235.23 1298.24,-206 1313.01,-189.8 1292.63,-164.54 1279.61,-151.29"/>
<polygon fill="#63b8ff" stroke="#63b8ff" points="893.78,-245.46 883.87,-249.21 893.96,-252.45 893.78,-245.46"/>
</g>
<!-- Node2&#45;&gt;Node10 -->
<g id="edge11" class="edge">
<title>Node2&#45;&gt;Node10</title>
<path fill="none" stroke="#63b8ff" d="M740.38,-246.6C615.74,-240 361.8,-225.44 147.24,-206 142.73,-205.59 138.07,-205.14 133.39,-204.65"/>
<polygon fill="#63b8ff" stroke="#63b8ff" points="740.42,-250.11 750.59,-247.14 740.78,-243.12 740.42,-250.11"/>
</g>
<!-- Node11 -->
<g id="node11" class="node">
<title>Node11</title>
<g id="a_node11"><a xlink:href="lin__alg_8c.html" target="_top" xlink:title="Linear algebra with vectors.">
<polygon fill="white" stroke="#666666" points="300.74,-206 189.74,-206 189.74,-187 300.74,-187 300.74,-206"/>
<text text-anchor="middle" x="245.24" y="-194" font-family="Helvetica,sans-Serif" font-size="10.00">QPALM/src/lin_alg.c</text>
</a>
</g>
</g>
<!-- Node2&#45;&gt;Node11 -->
<g id="edge12" class="edge">
<title>Node2&#45;&gt;Node11</title>
<path fill="none" stroke="#63b8ff" d="M740.3,-244.84C640.7,-237.26 461.8,-222.8 309.24,-206 306.56,-205.71 303.83,-205.39 301.07,-205.06"/>
<polygon fill="#63b8ff" stroke="#63b8ff" points="740.34,-248.35 750.58,-245.61 740.87,-241.37 740.34,-248.35"/>
</g>
<!-- Node12 -->
<g id="node12" class="node">
<title>Node12</title>
<g id="a_node12"><a xlink:href="linesearch_8c.html" target="_top" xlink:title="Routines to perform exact or backtracking linesearch.">
<polygon fill="white" stroke="#666666" points="447.74,-206 318.74,-206 318.74,-187 447.74,-187 447.74,-206"/>
<text text-anchor="middle" x="383.24" y="-194" font-family="Helvetica,sans-Serif" font-size="10.00">QPALM/src/linesearch.c</text>
</a>
</g>
</g>
<!-- Node2&#45;&gt;Node12 -->
<g id="edge13" class="edge">
<title>Node2&#45;&gt;Node12</title>
<path fill="none" stroke="#63b8ff" d="M740.23,-241.1C657.09,-230.94 526.11,-214.95 448.05,-205.41"/>
<polygon fill="#63b8ff" stroke="#63b8ff" points="740.03,-244.6 750.38,-242.33 740.87,-237.65 740.03,-244.6"/>
</g>
<!-- Node13 -->
<g id="node13" class="node">
<title>Node13</title>
<g id="a_node13"><a xlink:href="newton_8c.html" target="_top" xlink:title="Functions to calculate the semismooth Newton direction.">
<polygon fill="white" stroke="#666666" points="580.74,-206 465.74,-206 465.74,-187 580.74,-187 580.74,-206"/>
<text text-anchor="middle" x="523.24" y="-194" font-family="Helvetica,sans-Serif" font-size="10.00">QPALM/src/newton.c</text>
</a>
</g>
</g>
<!-- Node2&#45;&gt;Node13 -->
<g id="edge14" class="edge">
<title>Node2&#45;&gt;Node13</title>
<path fill="none" stroke="#63b8ff" d="M760.04,-240.19C704.92,-230.25 622.49,-215.39 570.84,-206.08"/>
<polygon fill="#63b8ff" stroke="#63b8ff" points="759.54,-243.65 770,-241.98 760.78,-236.77 759.54,-243.65"/>
</g>
<!-- Node14 -->
<g id="node14" class="node">
<title>Node14</title>
<g id="a_node14"><a xlink:href="nonconvex_8c.html" target="_top" xlink:title="Routines to deal with nonconvex QPs.">
<polygon fill="white" stroke="#666666" points="731.24,-206 599.24,-206 599.24,-187 731.24,-187 731.24,-206"/>
<text text-anchor="middle" x="665.24" y="-194" font-family="Helvetica,sans-Serif" font-size="10.00">QPALM/src/nonconvex.c</text>
</a>
</g>
</g>
<!-- Node2&#45;&gt;Node14 -->
<g id="edge15" class="edge">
<title>Node2&#45;&gt;Node14</title>
<path fill="none" stroke="#63b8ff" d="M783.31,-238.67C754.96,-228.79 715.22,-214.93 689.85,-206.08"/>
<polygon fill="#63b8ff" stroke="#63b8ff" points="782.22,-242 792.82,-241.98 784.53,-235.39 782.22,-242"/>
</g>
<!-- Node2&#45;&gt;Node15 -->
<g id="edge18" class="edge">
<title>Node2&#45;&gt;Node15</title>
<path fill="none" stroke="#63b8ff" d="M893.99,-244.57C1000.63,-236.28 1199.65,-220.59 1369.24,-206 1373.76,-205.61 1378.41,-205.21 1383.09,-204.79"/>
<polygon fill="#63b8ff" stroke="#63b8ff" points="893.66,-241.09 883.96,-245.35 894.2,-248.07 893.66,-241.09"/>
</g>
<!-- Node16 -->
<g id="node16" class="node">
<title>Node16</title>
<g id="a_node16"><a xlink:href="termination_8c.html" target="_top" xlink:title="Routines to check the termination and infeasibility criteria.">
<polygon fill="white" stroke="#666666" points="885.24,-206 749.24,-206 749.24,-187 885.24,-187 885.24,-206"/>
<text text-anchor="middle" x="817.24" y="-194" font-family="Helvetica,sans-Serif" font-size="10.00">QPALM/src/termination.c</text>
</a>
</g>
</g>
<!-- Node2&#45;&gt;Node16 -->
<g id="edge19" class="edge">
<title>Node2&#45;&gt;Node16</title>
<path fill="none" stroke="#63b8ff" d="M817.24,-231.66C817.24,-222.93 817.24,-212.99 817.24,-206.09"/>
<polygon fill="#63b8ff" stroke="#63b8ff" points="813.74,-231.75 817.24,-241.75 820.74,-231.75 813.74,-231.75"/>
</g>
<!-- Node17 -->
<g id="node17" class="node">
<title>Node17</title>
<g id="a_node17"><a xlink:href="util_8c.html" target="_top" xlink:title="Utility functions.">
<polygon fill="white" stroke="#666666" points="998.74,-206 903.74,-206 903.74,-187 998.74,-187 998.74,-206"/>
<text text-anchor="middle" x="951.24" y="-194" font-family="Helvetica,sans-Serif" font-size="10.00">QPALM/src/util.c</text>
</a>
</g>
</g>
<!-- Node2&#45;&gt;Node17 -->
<g id="edge20" class="edge">
<title>Node2&#45;&gt;Node17</title>
<path fill="none" stroke="#63b8ff" d="M848.11,-238.29C872.94,-228.47 907.23,-214.91 929.32,-206.17"/>
<polygon fill="#63b8ff" stroke="#63b8ff" points="846.78,-235.05 838.77,-241.98 849.35,-241.56 846.78,-235.05"/>
</g>
<!-- Node18 -->
<g id="node18" class="node">
<title>Node18</title>
<g id="a_node18"><a xlink:href="validate_8c.html" target="_top" xlink:title="Validation of the user provided settings and data.">
<polygon fill="white" stroke="#666666" points="1135.74,-206 1016.74,-206 1016.74,-187 1135.74,-187 1135.74,-206"/>
<text text-anchor="middle" x="1076.24" y="-194" font-family="Helvetica,sans-Serif" font-size="10.00">QPALM/src/validate.c</text>
</a>
</g>
</g>
<!-- Node2&#45;&gt;Node18 -->
<g id="edge21" class="edge">
<title>Node2&#45;&gt;Node18</title>
<path fill="none" stroke="#63b8ff" d="M868.84,-239.94C917.39,-230.01 989.18,-215.31 1034.3,-206.08"/>
<polygon fill="#63b8ff" stroke="#63b8ff" points="867.95,-236.55 858.85,-241.98 869.35,-243.41 867.95,-236.55"/>
</g>
<!-- Node4 -->
<g id="node4" class="node">
<title>Node4</title>
<g id="a_node4"><a xlink:href="qpalm_8cpp.html" target="_top" xlink:title=" ">
<polygon fill="white" stroke="#666666" points="737.24,-96 615.24,-96 615.24,-66 737.24,-66 737.24,-96"/>
<text text-anchor="start" x="623.24" y="-84" font-family="Helvetica,sans-Serif" font-size="10.00">QPALM/interfaces/cxx</text>
<text text-anchor="middle" x="676.24" y="-73" font-family="Helvetica,sans-Serif" font-size="10.00">/src/qpalm.cpp</text>
</a>
</g>
</g>
<!-- Node3&#45;&gt;Node4 -->
<g id="edge3" class="edge">
<title>Node3&#45;&gt;Node4</title>
<path fill="none" stroke="#63b8ff" d="M566.75,-128.08C589.03,-118.7 619.63,-105.82 642.82,-96.06"/>
<polygon fill="#63b8ff" stroke="#63b8ff" points="565.31,-124.89 557.45,-131.99 568.02,-131.34 565.31,-124.89"/>
</g>
<!-- Node5 -->
<g id="node5" class="node">
<title>Node5</title>
<g id="a_node5"><a xlink:href="qpalm__fortran_8h.html" target="_top" xlink:title=" ">
<polygon fill="white" stroke="#666666" points="597.24,-96 459.24,-96 459.24,-66 597.24,-66 597.24,-96"/>
<text text-anchor="start" x="467.24" y="-84" font-family="Helvetica,sans-Serif" font-size="10.00">QPALM/interfaces/fortran</text>
<text text-anchor="middle" x="528.24" y="-73" font-family="Helvetica,sans-Serif" font-size="10.00">/qpalm_fortran.h</text>
</a>
</g>
</g>
<!-- Node3&#45;&gt;Node5 -->
<g id="edge4" class="edge">
<title>Node3&#45;&gt;Node5</title>
<path fill="none" stroke="#63b8ff" d="M534.38,-121.93C533.1,-113.58 531.6,-103.87 530.41,-96.11"/>
<polygon fill="#63b8ff" stroke="#63b8ff" points="530.93,-122.52 535.91,-131.87 537.85,-121.45 530.93,-122.52"/>
</g>
<!-- Node3&#45;&gt;Node7 -->
<g id="edge6" class="edge">
<title>Node3&#45;&gt;Node7</title>
<path fill="none" stroke="#63b8ff" d="M613.29,-134.43C761.44,-122.61 1085.54,-96.74 1215.11,-86.4"/>
<polygon fill="#63b8ff" stroke="#63b8ff" points="612.62,-130.97 602.93,-135.26 613.18,-137.95 612.62,-130.97"/>
</g>
<!-- Node6 -->
<g id="node6" class="node">
<title>Node6</title>
<g id="a_node6"><a xlink:href="qpalm__fortran_8c.html" target="_top" xlink:title=" ">
<polygon fill="white" stroke="#666666" points="597.24,-30 459.24,-30 459.24,0 597.24,0 597.24,-30"/>
<text text-anchor="start" x="467.24" y="-18" font-family="Helvetica,sans-Serif" font-size="10.00">QPALM/interfaces/fortran</text>
<text text-anchor="middle" x="528.24" y="-7" font-family="Helvetica,sans-Serif" font-size="10.00">/qpalm_fortran.c</text>
</a>
</g>
</g>
<!-- Node5&#45;&gt;Node6 -->
<g id="edge5" class="edge">
<title>Node5&#45;&gt;Node6</title>
<path fill="none" stroke="#63b8ff" d="M528.24,-55.54C528.24,-46.96 528.24,-37.61 528.24,-30.16"/>
<polygon fill="#63b8ff" stroke="#63b8ff" points="524.74,-55.8 528.24,-65.8 531.74,-55.8 524.74,-55.8"/>
</g>
<!-- Node8&#45;&gt;Node3 -->
<g id="edge8" class="edge">
<title>Node8&#45;&gt;Node3</title>
<path fill="none" stroke="#63b8ff" d="M1143.45,-186.87C940.44,-168.27 712.73,-153.32 602.98,-146.48"/>
<polygon fill="#63b8ff" stroke="#63b8ff" points="1143.43,-190.38 1153.71,-187.81 1144.07,-183.41 1143.43,-190.38"/>
</g>
<!-- Node8&#45;&gt;Node7 -->
<g id="edge9" class="edge">
<title>Node8&#45;&gt;Node7</title>
<path fill="none" stroke="#63b8ff" d="M1210.5,-177.95C1203.93,-164.8 1198.03,-146.63 1205.24,-132 1214.73,-112.71 1235.64,-98.78 1251.2,-90.6"/>
<polygon fill="#63b8ff" stroke="#63b8ff" points="1207.54,-179.84 1215.45,-186.89 1213.67,-176.44 1207.54,-179.84"/>
</g>
<!-- Node8&#45;&gt;Node9 -->
<g id="edge10" class="edge">
<title>Node8&#45;&gt;Node9</title>
<path fill="none" stroke="#63b8ff" d="M1236.27,-179.24C1244.86,-169.95 1255.28,-158.68 1262.3,-151.09"/>
<polygon fill="#63b8ff" stroke="#63b8ff" points="1233.55,-177.03 1229.33,-186.75 1238.69,-181.78 1233.55,-177.03"/>
</g>
</g>
</svg>
