<?xml version="1.0" encoding="UTF-8" standalone="no"?>
<!DOCTYPE svg PUBLIC "-//W3C//DTD SVG 1.1//EN"
 "http://www.w3.org/Graphics/SVG/1.1/DTD/svg11.dtd">
<!-- Generated by graphviz version 2.43.0 (0)
 -->
<!-- Title: calculate_primal_residual Pages: 1 -->
<svg width="269pt" height="64pt"
 viewBox="0.00 0.00 269.00 64.00" xmlns="http://www.w3.org/2000/svg" xmlns:xlink="http://www.w3.org/1999/xlink">
<g id="graph0" class="graph" transform="scale(1 1) rotate(0) translate(4 60)">
<title>calculate_primal_residual</title>
<!-- Node1 -->
<g id="node1" class="node">
<title>Node1</title>
<g id="a_node1"><a xlink:title="Calculates the infinity norm of the primal residual and stores it in work&#45;&gt;info&#45;&gt;pri_res_norm.">
<polygon fill="#999999" stroke="#666666" points="142,-37 0,-37 0,-18 142,-18 142,-37"/>
<text text-anchor="middle" x="71" y="-25" font-family="Helvetica,sans-Serif" font-size="10.00">calculate_primal_residual</text>
</a>
</g>
</g>
<!-- Node2 -->
<g id="node2" class="node">
<title>Node2</title>
<g id="a_node2"><a xlink:href="lin__alg_8c.html#ab48ddb2d35dd1a04bd27f06cb49400cb" target="_top" xlink:title="Elementwise product, .">
<polygon fill="white" stroke="#666666" points="259.5,-56 179.5,-56 179.5,-37 259.5,-37 259.5,-56"/>
<text text-anchor="middle" x="219.5" y="-44" font-family="Helvetica,sans-Serif" font-size="10.00">vec_ew_prod</text>
</a>
</g>
</g>
<!-- Node1&#45;&gt;Node2 -->
<g id="edge1" class="edge">
<title>Node1&#45;&gt;Node2</title>
<path fill="none" stroke="#63b8ff" d="M142.25,-36.61C151.43,-37.8 160.68,-39 169.41,-40.13"/>
<polygon fill="#63b8ff" stroke="#63b8ff" points="169.02,-43.61 179.39,-41.43 169.92,-36.67 169.02,-43.61"/>
</g>
<!-- Node3 -->
<g id="node3" class="node">
<title>Node3</title>
<g id="a_node3"><a xlink:href="lin__alg_8c.html#ad69e3ef3b7360cd1d6262ee2f32fce83" target="_top" xlink:title="Infinity norm of a vector, .">
<polygon fill="white" stroke="#666666" points="261,-19 178,-19 178,0 261,0 261,-19"/>
<text text-anchor="middle" x="219.5" y="-7" font-family="Helvetica,sans-Serif" font-size="10.00">vec_norm_inf</text>
</a>
</g>
</g>
<!-- Node1&#45;&gt;Node3 -->
<g id="edge2" class="edge">
<title>Node1&#45;&gt;Node3</title>
<path fill="none" stroke="#63b8ff" d="M142.25,-18.87C150.82,-17.82 159.44,-16.76 167.65,-15.75"/>
<polygon fill="#63b8ff" stroke="#63b8ff" points="168.3,-19.19 177.8,-14.5 167.44,-12.25 168.3,-19.19"/>
</g>
</g>
</svg>
