<?xml version="1.0" encoding="UTF-8" standalone="no"?>
<!DOCTYPE svg PUBLIC "-//W3C//DTD SVG 1.1//EN"
 "http://www.w3.org/Graphics/SVG/1.1/DTD/svg11.dtd">
<!-- Generated by graphviz version 2.43.0 (0)
 -->
<!-- Title: QPALM/include/types.h Pages: 1 -->
<svg width="2231pt" height="390pt"
 viewBox="0.00 0.00 2230.98 390.00" xmlns="http://www.w3.org/2000/svg" xmlns:xlink="http://www.w3.org/1999/xlink">
<g id="graph0" class="graph" transform="scale(1 1) rotate(0) translate(4 386)">
<title>QPALM/include/types.h</title>
<!-- Node1 -->
<g id="node1" class="node">
<title>Node1</title>
<g id="a_node1"><a xlink:title="Internal data structures used in QPALM.">
<polygon fill="#999999" stroke="#666666" points="1511.98,-382 1383.98,-382 1383.98,-363 1511.98,-363 1511.98,-382"/>
<text text-anchor="middle" x="1447.98" y="-370" font-family="Helvetica,sans-Serif" font-size="10.00">QPALM/include/types.h</text>
</a>
</g>
</g>
<!-- Node2 -->
<g id="node2" class="node">
<title>Node2</title>
<g id="a_node2"><a xlink:href="iteration_8h.html" target="_top" xlink:title="QPALM main solver routines.">
<polygon fill="white" stroke="#666666" points="1946.98,-261 1804.98,-261 1804.98,-242 1946.98,-242 1946.98,-261"/>
<text text-anchor="middle" x="1875.98" y="-249" font-family="Helvetica,sans-Serif" font-size="10.00">QPALM/include/iteration.h</text>
</a>
</g>
</g>
<!-- Node1&#45;&gt;Node2 -->
<g id="edge1" class="edge">
<title>Node1&#45;&gt;Node2</title>
<path fill="none" stroke="#63b8ff" d="M1522.29,-361.75C1570.62,-354.46 1634.71,-342.98 1689.98,-327 1753.64,-308.6 1825.55,-276.33 1858.18,-261.02"/>
<polygon fill="#63b8ff" stroke="#63b8ff" points="1521.6,-358.32 1512.22,-363.25 1522.63,-365.24 1521.6,-358.32"/>
</g>
<!-- Node3 -->
<g id="node3" class="node">
<title>Node3</title>
<g id="a_node3"><a xlink:href="qpalm_8h.html" target="_top" xlink:title="QPALM main solver API.">
<polygon fill="white" stroke="#666666" points="1642.48,-151 1511.48,-151 1511.48,-132 1642.48,-132 1642.48,-151"/>
<text text-anchor="middle" x="1576.98" y="-139" font-family="Helvetica,sans-Serif" font-size="10.00">QPALM/include/qpalm.h</text>
</a>
</g>
</g>
<!-- Node1&#45;&gt;Node3 -->
<g id="edge42" class="edge">
<title>Node1&#45;&gt;Node3</title>
<path fill="none" stroke="#63b8ff" d="M1522.42,-366.02C1649.5,-355 1900.07,-325.49 1955.98,-261 1977.68,-235.97 1987.03,-211.73 1964.98,-187 1943.94,-163.41 1747.63,-150.57 1642.59,-145.34"/>
<polygon fill="#63b8ff" stroke="#63b8ff" points="1522.04,-362.54 1512.37,-366.88 1522.63,-369.52 1522.04,-362.54"/>
</g>
<!-- Node10 -->
<g id="node10" class="node">
<title>Node10</title>
<g id="a_node10"><a xlink:href="lin__alg_8h.html" target="_top" xlink:title="Linear algebra with vectors.">
<polygon fill="white" stroke="#666666" points="910.48,-261 777.48,-261 777.48,-242 910.48,-242 910.48,-261"/>
<text text-anchor="middle" x="843.98" y="-249" font-family="Helvetica,sans-Serif" font-size="10.00">QPALM/include/lin_alg.h</text>
</a>
</g>
</g>
<!-- Node1&#45;&gt;Node10 -->
<g id="edge10" class="edge">
<title>Node1&#45;&gt;Node10</title>
<path fill="none" stroke="#63b8ff" d="M1373.89,-370.57C1287.24,-367.94 1140.09,-358.68 1017.98,-327 956.91,-311.16 889.57,-277.17 859.72,-261.17"/>
<polygon fill="#63b8ff" stroke="#63b8ff" points="1373.8,-374.07 1383.89,-370.85 1374,-367.07 1373.8,-374.07"/>
</g>
<!-- Node11 -->
<g id="node11" class="node">
<title>Node11</title>
<g id="a_node11"><a xlink:href="scaling_8h.html" target="_top" xlink:title="Problem data scaling during setup.">
<polygon fill="white" stroke="#666666" points="593.48,-206 458.48,-206 458.48,-187 593.48,-187 593.48,-206"/>
<text text-anchor="middle" x="525.98" y="-194" font-family="Helvetica,sans-Serif" font-size="10.00">QPALM/include/scaling.h</text>
</a>
</g>
</g>
<!-- Node1&#45;&gt;Node11 -->
<g id="edge43" class="edge">
<title>Node1&#45;&gt;Node11</title>
<path fill="none" stroke="#63b8ff" d="M1373.62,-370.08C1225.42,-366.66 898.19,-355.99 789.98,-327 686.67,-299.32 575.65,-230.22 538.72,-206.03"/>
<polygon fill="#63b8ff" stroke="#63b8ff" points="1373.9,-373.59 1383.98,-370.32 1374.06,-366.59 1373.9,-373.59"/>
</g>
<!-- Node16 -->
<g id="node16" class="node">
<title>Node16</title>
<g id="a_node16"><a xlink:href="nonconvex_8c.html" target="_top" xlink:title="Routines to deal with nonconvex QPs.">
<polygon fill="white" stroke="#666666" points="1708.98,-206 1576.98,-206 1576.98,-187 1708.98,-187 1708.98,-206"/>
<text text-anchor="middle" x="1642.98" y="-194" font-family="Helvetica,sans-Serif" font-size="10.00">QPALM/src/nonconvex.c</text>
</a>
</g>
</g>
<!-- Node1&#45;&gt;Node16 -->
<g id="edge67" class="edge">
<title>Node1&#45;&gt;Node16</title>
<path fill="none" stroke="#63b8ff" d="M1481.26,-359.15C1520.99,-342.73 1586.72,-309.97 1623.98,-261 1636.66,-244.33 1640.91,-219.27 1642.31,-206.17"/>
<polygon fill="#63b8ff" stroke="#63b8ff" points="1479.73,-356 1471.76,-362.97 1482.34,-362.49 1479.73,-356"/>
</g>
<!-- Node18 -->
<g id="node18" class="node">
<title>Node18</title>
<g id="a_node18"><a xlink:href="util_8c.html" target="_top" xlink:title="Utility functions.">
<polygon fill="white" stroke="#666666" points="1154.48,-206 1059.48,-206 1059.48,-187 1154.48,-187 1154.48,-206"/>
<text text-anchor="middle" x="1106.98" y="-194" font-family="Helvetica,sans-Serif" font-size="10.00">QPALM/src/util.c</text>
</a>
</g>
</g>
<!-- Node1&#45;&gt;Node18 -->
<g id="edge68" class="edge">
<title>Node1&#45;&gt;Node18</title>
<path fill="none" stroke="#63b8ff" d="M1373.77,-361.86C1269.66,-346.61 1088.71,-313.18 1050.98,-261 1035.82,-240.04 1067.97,-217.88 1089.55,-206.09"/>
<polygon fill="#63b8ff" stroke="#63b8ff" points="1373.51,-365.36 1383.91,-363.33 1374.51,-358.43 1373.51,-365.36"/>
</g>
<!-- Node20 -->
<g id="node20" class="node">
<title>Node20</title>
<g id="a_node20"><a xlink:href="linesearch_8h.html" target="_top" xlink:title="Routines to perform exact linesearch.">
<polygon fill="white" stroke="#666666" points="1211.48,-261 1060.48,-261 1060.48,-242 1211.48,-242 1211.48,-261"/>
<text text-anchor="middle" x="1135.98" y="-249" font-family="Helvetica,sans-Serif" font-size="10.00">QPALM/include/linesearch.h</text>
</a>
</g>
</g>
<!-- Node1&#45;&gt;Node20 -->
<g id="edge27" class="edge">
<title>Node1&#45;&gt;Node20</title>
<path fill="none" stroke="#63b8ff" d="M1416.09,-359.34C1352.94,-335.25 1213.37,-282.02 1158.63,-261.14"/>
<polygon fill="#63b8ff" stroke="#63b8ff" points="1414.95,-362.65 1425.54,-362.94 1417.44,-356.11 1414.95,-362.65"/>
</g>
<!-- Node21 -->
<g id="node21" class="node">
<title>Node21</title>
<g id="a_node21"><a xlink:href="newton_8h.html" target="_top" xlink:title="Functions to calculate the semismooth Newton direction.">
<polygon fill="white" stroke="#666666" points="1366.48,-261 1229.48,-261 1229.48,-242 1366.48,-242 1366.48,-261"/>
<text text-anchor="middle" x="1297.98" y="-249" font-family="Helvetica,sans-Serif" font-size="10.00">QPALM/include/newton.h</text>
</a>
</g>
</g>
<!-- Node1&#45;&gt;Node21 -->
<g id="edge32" class="edge">
<title>Node1&#45;&gt;Node21</title>
<path fill="none" stroke="#63b8ff" d="M1429.15,-356.56C1397.49,-331.44 1334.55,-281.51 1309.07,-261.3"/>
<polygon fill="#63b8ff" stroke="#63b8ff" points="1427.18,-359.47 1437.19,-362.94 1431.53,-353.98 1427.18,-359.47"/>
</g>
<!-- Node22 -->
<g id="node22" class="node">
<title>Node22</title>
<g id="a_node22"><a xlink:href="nonconvex_8h.html" target="_top" xlink:title="Routines to deal with nonconvex QPs.">
<polygon fill="white" stroke="#666666" points="1614.98,-261 1460.98,-261 1460.98,-242 1614.98,-242 1614.98,-261"/>
<text text-anchor="middle" x="1537.98" y="-249" font-family="Helvetica,sans-Serif" font-size="10.00">QPALM/include/nonconvex.h</text>
</a>
</g>
</g>
<!-- Node1&#45;&gt;Node22 -->
<g id="edge37" class="edge">
<title>Node1&#45;&gt;Node22</title>
<path fill="none" stroke="#63b8ff" d="M1460.52,-354.92C1479.88,-329.32 1516.36,-281.08 1531.32,-261.3"/>
<polygon fill="#63b8ff" stroke="#63b8ff" points="1457.69,-352.85 1454.45,-362.94 1463.28,-357.08 1457.69,-352.85"/>
</g>
<!-- Node23 -->
<g id="node23" class="node">
<title>Node23</title>
<g id="a_node23"><a xlink:href="solver__interface_8h.html" target="_top" xlink:title="Interface and wrapper to matrix/factorization (ladel) functions.">
<polygon fill="white" stroke="#666666" points="920.98,-327 798.98,-327 798.98,-297 920.98,-297 920.98,-327"/>
<text text-anchor="start" x="806.98" y="-315" font-family="Helvetica,sans-Serif" font-size="10.00">QPALM/include/solver</text>
<text text-anchor="middle" x="859.98" y="-304" font-family="Helvetica,sans-Serif" font-size="10.00">_interface.h</text>
</a>
</g>
</g>
<!-- Node1&#45;&gt;Node23 -->
<g id="edge44" class="edge">
<title>Node1&#45;&gt;Node23</title>
<path fill="none" stroke="#63b8ff" d="M1373.76,-365.6C1278.85,-357.85 1109.5,-343.29 964.98,-327 950.72,-325.39 935.41,-323.47 921,-321.56"/>
<polygon fill="#63b8ff" stroke="#63b8ff" points="1373.58,-369.1 1383.83,-366.43 1374.15,-362.13 1373.58,-369.1"/>
</g>
<!-- Node24 -->
<g id="node24" class="node">
<title>Node24</title>
<g id="a_node24"><a xlink:href="termination_8h.html" target="_top" xlink:title="Routines to check the termination and infeasibility criteria.">
<polygon fill="white" stroke="#666666" points="2160.98,-261 2002.98,-261 2002.98,-242 2160.98,-242 2160.98,-261"/>
<text text-anchor="middle" x="2081.98" y="-249" font-family="Helvetica,sans-Serif" font-size="10.00">QPALM/include/termination.h</text>
</a>
</g>
</g>
<!-- Node1&#45;&gt;Node24 -->
<g id="edge50" class="edge">
<title>Node1&#45;&gt;Node24</title>
<path fill="none" stroke="#63b8ff" d="M1522.49,-370.72C1650.44,-368.5 1906.18,-359.95 1988.98,-327 2025.88,-312.31 2059.74,-277.75 2074.37,-261.39"/>
<polygon fill="#63b8ff" stroke="#63b8ff" points="1522.32,-367.22 1512.38,-370.89 1522.44,-374.22 1522.32,-367.22"/>
</g>
<!-- Node25 -->
<g id="node25" class="node">
<title>Node25</title>
<g id="a_node25"><a xlink:href="util_8h.html" target="_top" xlink:title="Utility functions.">
<polygon fill="white" stroke="#666666" points="1786.98,-261 1670.98,-261 1670.98,-242 1786.98,-242 1786.98,-261"/>
<text text-anchor="middle" x="1728.98" y="-249" font-family="Helvetica,sans-Serif" font-size="10.00">QPALM/include/util.h</text>
</a>
</g>
</g>
<!-- Node1&#45;&gt;Node25 -->
<g id="edge54" class="edge">
<title>Node1&#45;&gt;Node25</title>
<path fill="none" stroke="#63b8ff" d="M1522.29,-366.39C1563.99,-360.98 1615.76,-349.85 1656.98,-327 1687.18,-310.26 1712.58,-276.72 1723.39,-261"/>
<polygon fill="#63b8ff" stroke="#63b8ff" points="1521.69,-362.94 1512.19,-367.62 1522.54,-369.89 1521.69,-362.94"/>
</g>
<!-- Node26 -->
<g id="node26" class="node">
<title>Node26</title>
<g id="a_node26"><a xlink:href="validate_8h.html" target="_top" xlink:title="Validation of the user provided settings and data.">
<polygon fill="white" stroke="#666666" points="310.98,-261 170.98,-261 170.98,-242 310.98,-242 310.98,-261"/>
<text text-anchor="middle" x="240.98" y="-249" font-family="Helvetica,sans-Serif" font-size="10.00">QPALM/include/validate.h</text>
</a>
</g>
</g>
<!-- Node1&#45;&gt;Node26 -->
<g id="edge61" class="edge">
<title>Node1&#45;&gt;Node26</title>
<path fill="none" stroke="#63b8ff" d="M1373.4,-369.91C1235.89,-366.37 933.32,-355.75 679.98,-327 532.5,-310.27 359.3,-276.73 281.92,-261"/>
<polygon fill="#63b8ff" stroke="#63b8ff" points="1373.72,-373.42 1383.8,-370.17 1373.89,-366.42 1373.72,-373.42"/>
</g>
<!-- Node27 -->
<g id="node27" class="node">
<title>Node27</title>
<g id="a_node27"><a xlink:href="qpalm_8hpp.html" target="_top" xlink:title=" ">
<polygon fill="white" stroke="#666666" points="2222.98,-327 2100.98,-327 2100.98,-297 2222.98,-297 2222.98,-327"/>
<text text-anchor="start" x="2108.98" y="-315" font-family="Helvetica,sans-Serif" font-size="10.00">QPALM/interfaces/cxx</text>
<text text-anchor="middle" x="2161.98" y="-304" font-family="Helvetica,sans-Serif" font-size="10.00">/include/qpalm.hpp</text>
</a>
</g>
</g>
<!-- Node1&#45;&gt;Node27 -->
<g id="edge65" class="edge">
<title>Node1&#45;&gt;Node27</title>
<path fill="none" stroke="#63b8ff" d="M1522.22,-367.68C1637.65,-361.38 1867.07,-347.46 2060.98,-327 2073.92,-325.64 2087.75,-323.9 2100.9,-322.12"/>
<polygon fill="#63b8ff" stroke="#63b8ff" points="1521.88,-364.19 1512.08,-368.23 1522.26,-371.18 1521.88,-364.19"/>
</g>
<!-- Node2&#45;&gt;Node3 -->
<g id="edge2" class="edge">
<title>Node2&#45;&gt;Node3</title>
<path fill="none" stroke="#63b8ff" d="M1908.78,-237.66C1935.13,-225.52 1965.12,-206.32 1947.98,-187 1928.09,-164.59 1743.69,-151.35 1642.58,-145.71"/>
<polygon fill="#63b8ff" stroke="#63b8ff" points="1907.09,-234.58 1899.33,-241.81 1909.9,-241 1907.09,-234.58"/>
</g>
<!-- Node7 -->
<g id="node7" class="node">
<title>Node7</title>
<g id="a_node7"><a xlink:href="qpalm_8c.html" target="_top" xlink:title="QPALM main solver API.">
<polygon fill="white" stroke="#666666" points="1313.98,-90.5 1203.98,-90.5 1203.98,-71.5 1313.98,-71.5 1313.98,-90.5"/>
<text text-anchor="middle" x="1258.98" y="-78.5" font-family="Helvetica,sans-Serif" font-size="10.00">QPALM/src/qpalm.c</text>
</a>
</g>
</g>
<!-- Node2&#45;&gt;Node7 -->
<g id="edge8" class="edge">
<title>Node2&#45;&gt;Node7</title>
<path fill="none" stroke="#63b8ff" d="M1916.73,-238.78C1948.14,-227.69 1983.35,-209.42 1964.98,-187 1923.65,-136.55 1472.95,-98.08 1314.04,-85.99"/>
<polygon fill="#63b8ff" stroke="#63b8ff" points="1915.53,-235.49 1907.17,-241.99 1917.76,-242.12 1915.53,-235.49"/>
</g>
<!-- Node8 -->
<g id="node8" class="node">
<title>Node8</title>
<g id="a_node8"><a xlink:href="iteration_8c.html" target="_top" xlink:title="QPALM main solver routines.">
<polygon fill="white" stroke="#666666" points="1444.98,-206 1324.98,-206 1324.98,-187 1444.98,-187 1444.98,-206"/>
<text text-anchor="middle" x="1384.98" y="-194" font-family="Helvetica,sans-Serif" font-size="10.00">QPALM/src/iteration.c</text>
</a>
</g>
</g>
<!-- Node2&#45;&gt;Node8 -->
<g id="edge7" class="edge">
<title>Node2&#45;&gt;Node8</title>
<path fill="none" stroke="#63b8ff" d="M1794.66,-241.72C1696.33,-231.11 1533.12,-213.49 1445.32,-204.01"/>
<polygon fill="#63b8ff" stroke="#63b8ff" points="1794.53,-245.23 1804.85,-242.82 1795.28,-238.27 1794.53,-245.23"/>
</g>
<!-- Node9 -->
<g id="node9" class="node">
<title>Node9</title>
<g id="a_node9"><a xlink:href="termination_8c.html" target="_top" xlink:title="Routines to check the termination and infeasibility criteria.">
<polygon fill="white" stroke="#666666" points="1938.98,-206 1802.98,-206 1802.98,-187 1938.98,-187 1938.98,-206"/>
<text text-anchor="middle" x="1870.98" y="-194" font-family="Helvetica,sans-Serif" font-size="10.00">QPALM/src/termination.c</text>
</a>
</g>
</g>
<!-- Node2&#45;&gt;Node9 -->
<g id="edge9" class="edge">
<title>Node2&#45;&gt;Node9</title>
<path fill="none" stroke="#63b8ff" d="M1874.2,-231.66C1873.38,-222.93 1872.44,-212.99 1871.79,-206.09"/>
<polygon fill="#63b8ff" stroke="#63b8ff" points="1870.73,-232.12 1875.15,-241.75 1877.7,-231.46 1870.73,-232.12"/>
</g>
<!-- Node4 -->
<g id="node4" class="node">
<title>Node4</title>
<g id="a_node4"><a xlink:href="qpalm_8cpp.html" target="_top" xlink:title=" ">
<polygon fill="white" stroke="#666666" points="2031.98,-96 1909.98,-96 1909.98,-66 2031.98,-66 2031.98,-96"/>
<text text-anchor="start" x="1917.98" y="-84" font-family="Helvetica,sans-Serif" font-size="10.00">QPALM/interfaces/cxx</text>
<text text-anchor="middle" x="1970.98" y="-73" font-family="Helvetica,sans-Serif" font-size="10.00">/src/qpalm.cpp</text>
</a>
</g>
</g>
<!-- Node3&#45;&gt;Node4 -->
<g id="edge3" class="edge">
<title>Node3&#45;&gt;Node4</title>
<path fill="none" stroke="#63b8ff" d="M1644.48,-130.48C1718.97,-119.42 1837.83,-101.77 1909.73,-91.09"/>
<polygon fill="#63b8ff" stroke="#63b8ff" points="1643.65,-127.06 1634.27,-131.99 1644.68,-133.99 1643.65,-127.06"/>
</g>
<!-- Node5 -->
<g id="node5" class="node">
<title>Node5</title>
<g id="a_node5"><a xlink:href="qpalm__fortran_8h.html" target="_top" xlink:title=" ">
<polygon fill="white" stroke="#666666" points="1645.98,-96 1507.98,-96 1507.98,-66 1645.98,-66 1645.98,-96"/>
<text text-anchor="start" x="1515.98" y="-84" font-family="Helvetica,sans-Serif" font-size="10.00">QPALM/interfaces/fortran</text>
<text text-anchor="middle" x="1576.98" y="-73" font-family="Helvetica,sans-Serif" font-size="10.00">/qpalm_fortran.h</text>
</a>
</g>
</g>
<!-- Node3&#45;&gt;Node5 -->
<g id="edge4" class="edge">
<title>Node3&#45;&gt;Node5</title>
<path fill="none" stroke="#63b8ff" d="M1576.98,-121.65C1576.98,-113.36 1576.98,-103.78 1576.98,-96.11"/>
<polygon fill="#63b8ff" stroke="#63b8ff" points="1573.48,-121.87 1576.98,-131.87 1580.48,-121.87 1573.48,-121.87"/>
</g>
<!-- Node3&#45;&gt;Node7 -->
<g id="edge6" class="edge">
<title>Node3&#45;&gt;Node7</title>
<path fill="none" stroke="#63b8ff" d="M1520.84,-130.17C1459.51,-118.89 1362.41,-101.03 1305.28,-90.52"/>
<polygon fill="#63b8ff" stroke="#63b8ff" points="1520.27,-133.63 1530.74,-131.99 1521.54,-126.74 1520.27,-133.63"/>
</g>
<!-- Node6 -->
<g id="node6" class="node">
<title>Node6</title>
<g id="a_node6"><a xlink:href="qpalm__fortran_8c.html" target="_top" xlink:title=" ">
<polygon fill="white" stroke="#666666" points="1645.98,-30 1507.98,-30 1507.98,0 1645.98,0 1645.98,-30"/>
<text text-anchor="start" x="1515.98" y="-18" font-family="Helvetica,sans-Serif" font-size="10.00">QPALM/interfaces/fortran</text>
<text text-anchor="middle" x="1576.98" y="-7" font-family="Helvetica,sans-Serif" font-size="10.00">/qpalm_fortran.c</text>
</a>
</g>
</g>
<!-- Node5&#45;&gt;Node6 -->
<g id="edge5" class="edge">
<title>Node5&#45;&gt;Node6</title>
<path fill="none" stroke="#63b8ff" d="M1576.98,-55.54C1576.98,-46.96 1576.98,-37.61 1576.98,-30.16"/>
<polygon fill="#63b8ff" stroke="#63b8ff" points="1573.48,-55.8 1576.98,-65.8 1580.48,-55.8 1573.48,-55.8"/>
</g>
<!-- Node10&#45;&gt;Node3 -->
<g id="edge11" class="edge">
<title>Node10&#45;&gt;Node3</title>
<path fill="none" stroke="#63b8ff" d="M810.9,-237.91C783.5,-225.7 751.76,-206.25 769.98,-187 795.33,-160.22 1323.37,-147.41 1511.3,-143.69"/>
<polygon fill="#63b8ff" stroke="#63b8ff" points="809.75,-241.22 820.33,-241.91 812.49,-234.78 809.75,-241.22"/>
</g>
<!-- Node10&#45;&gt;Node7 -->
<g id="edge21" class="edge">
<title>Node10&#45;&gt;Node7</title>
<path fill="none" stroke="#63b8ff" d="M767.15,-250.96C664.92,-250.08 491.19,-242.97 440.98,-206 413.14,-185.5 393.27,-157.16 416.98,-132 444,-103.33 1020.86,-87.52 1203.82,-83.22"/>
<polygon fill="#63b8ff" stroke="#63b8ff" points="767.4,-254.46 777.42,-251.03 767.45,-247.46 767.4,-254.46"/>
</g>
<!-- Node10&#45;&gt;Node8 -->
<g id="edge16" class="edge">
<title>Node10&#45;&gt;Node8</title>
<path fill="none" stroke="#63b8ff" d="M920.83,-242.97C1029.56,-232.32 1226.03,-213.07 1324.82,-203.39"/>
<polygon fill="#63b8ff" stroke="#63b8ff" points="920.2,-239.52 910.59,-243.97 920.88,-246.48 920.2,-239.52"/>
</g>
<!-- Node10&#45;&gt;Node9 -->
<g id="edge24" class="edge">
<title>Node10&#45;&gt;Node9</title>
<path fill="none" stroke="#63b8ff" d="M920.76,-246.71C1072.9,-239.17 1423.4,-221.68 1717.98,-206 1745.74,-204.52 1776.33,-202.83 1802.82,-201.35"/>
<polygon fill="#63b8ff" stroke="#63b8ff" points="920.41,-243.22 910.59,-247.21 920.75,-250.21 920.41,-243.22"/>
</g>
<!-- Node10&#45;&gt;Node11 -->
<g id="edge12" class="edge">
<title>Node10&#45;&gt;Node11</title>
<path fill="none" stroke="#63b8ff" d="M782.84,-240.31C723.12,-230.36 633.28,-215.38 577.21,-206.04"/>
<polygon fill="#63b8ff" stroke="#63b8ff" points="782.45,-243.79 792.89,-241.98 783.6,-236.89 782.45,-243.79"/>
</g>
<!-- Node12 -->
<g id="node12" class="node">
<title>Node12</title>
<g id="a_node12"><a xlink:href="scaling_8c.html" target="_top" xlink:title="Problem data scaling during setup.">
<polygon fill="white" stroke="#666666" points="539.48,-151 426.48,-151 426.48,-132 539.48,-132 539.48,-151"/>
<text text-anchor="middle" x="482.98" y="-139" font-family="Helvetica,sans-Serif" font-size="10.00">QPALM/src/scaling.c</text>
</a>
</g>
</g>
<!-- Node10&#45;&gt;Node12 -->
<g id="edge22" class="edge">
<title>Node10&#45;&gt;Node12</title>
<path fill="none" stroke="#63b8ff" d="M766.9,-247.25C657.95,-241.84 469.75,-229.24 448.98,-206 433.81,-189.03 457.4,-164.09 472.3,-151.1"/>
<polygon fill="#63b8ff" stroke="#63b8ff" points="767.03,-250.76 777.19,-247.75 767.37,-243.76 767.03,-250.76"/>
</g>
<!-- Node13 -->
<g id="node13" class="node">
<title>Node13</title>
<g id="a_node13"><a xlink:href="lin__alg_8c.html" target="_top" xlink:title="Linear algebra with vectors.">
<polygon fill="white" stroke="#666666" points="722.48,-206 611.48,-206 611.48,-187 722.48,-187 722.48,-206"/>
<text text-anchor="middle" x="666.98" y="-194" font-family="Helvetica,sans-Serif" font-size="10.00">QPALM/src/lin_alg.c</text>
</a>
</g>
</g>
<!-- Node10&#45;&gt;Node13 -->
<g id="edge17" class="edge">
<title>Node10&#45;&gt;Node13</title>
<path fill="none" stroke="#63b8ff" d="M805.76,-239.06C772.68,-229.15 725.57,-215.04 695.64,-206.08"/>
<polygon fill="#63b8ff" stroke="#63b8ff" points="804.96,-242.47 815.54,-241.98 806.97,-235.76 804.96,-242.47"/>
</g>
<!-- Node14 -->
<g id="node14" class="node">
<title>Node14</title>
<g id="a_node14"><a xlink:href="linesearch_8c.html" target="_top" xlink:title="Routines to perform exact or backtracking linesearch.">
<polygon fill="white" stroke="#666666" points="908.48,-206 779.48,-206 779.48,-187 908.48,-187 908.48,-206"/>
<text text-anchor="middle" x="843.98" y="-194" font-family="Helvetica,sans-Serif" font-size="10.00">QPALM/src/linesearch.c</text>
</a>
</g>
</g>
<!-- Node10&#45;&gt;Node14 -->
<g id="edge18" class="edge">
<title>Node10&#45;&gt;Node14</title>
<path fill="none" stroke="#63b8ff" d="M843.98,-231.66C843.98,-222.93 843.98,-212.99 843.98,-206.09"/>
<polygon fill="#63b8ff" stroke="#63b8ff" points="840.48,-231.75 843.98,-241.75 847.48,-231.75 840.48,-231.75"/>
</g>
<!-- Node15 -->
<g id="node15" class="node">
<title>Node15</title>
<g id="a_node15"><a xlink:href="newton_8c.html" target="_top" xlink:title="Functions to calculate the semismooth Newton direction.">
<polygon fill="white" stroke="#666666" points="1041.48,-206 926.48,-206 926.48,-187 1041.48,-187 1041.48,-206"/>
<text text-anchor="middle" x="983.98" y="-194" font-family="Helvetica,sans-Serif" font-size="10.00">QPALM/src/newton.c</text>
</a>
</g>
</g>
<!-- Node10&#45;&gt;Node15 -->
<g id="edge19" class="edge">
<title>Node10&#45;&gt;Node15</title>
<path fill="none" stroke="#63b8ff" d="M875.89,-238.42C901.86,-228.59 937.9,-214.95 961.08,-206.17"/>
<polygon fill="#63b8ff" stroke="#63b8ff" points="874.59,-235.17 866.47,-241.98 877.06,-241.72 874.59,-235.17"/>
</g>
<!-- Node10&#45;&gt;Node16 -->
<g id="edge20" class="edge">
<title>Node10&#45;&gt;Node16</title>
<path fill="none" stroke="#63b8ff" d="M920.73,-245.41C1077,-235.04 1429.7,-211.65 1576.7,-201.9"/>
<polygon fill="#63b8ff" stroke="#63b8ff" points="920.47,-241.92 910.73,-246.07 920.94,-248.9 920.47,-241.92"/>
</g>
<!-- Node17 -->
<g id="node17" class="node">
<title>Node17</title>
<g id="a_node17"><a xlink:href="solver__interface_8c.html" target="_top" xlink:title="Interface and wrapper to matrix/factorization (ladel) functions.">
<polygon fill="white" stroke="#666666" points="325.98,-206 167.98,-206 167.98,-187 325.98,-187 325.98,-206"/>
<text text-anchor="middle" x="246.98" y="-194" font-family="Helvetica,sans-Serif" font-size="10.00">QPALM/src/solver_interface.c</text>
</a>
</g>
</g>
<!-- Node10&#45;&gt;Node17 -->
<g id="edge23" class="edge">
<title>Node10&#45;&gt;Node17</title>
<path fill="none" stroke="#63b8ff" d="M766.92,-243.77C668.05,-235.12 491.23,-219.59 339.98,-206 335.46,-205.59 330.81,-205.17 326.13,-204.75"/>
<polygon fill="#63b8ff" stroke="#63b8ff" points="766.86,-247.28 777.12,-244.66 767.47,-240.3 766.86,-247.28"/>
</g>
<!-- Node10&#45;&gt;Node18 -->
<g id="edge25" class="edge">
<title>Node10&#45;&gt;Node18</title>
<path fill="none" stroke="#63b8ff" d="M896.07,-240C945.37,-230.07 1018.48,-215.33 1064.39,-206.08"/>
<polygon fill="#63b8ff" stroke="#63b8ff" points="895.35,-236.58 886.23,-241.98 896.73,-243.44 895.35,-236.58"/>
</g>
<!-- Node19 -->
<g id="node19" class="node">
<title>Node19</title>
<g id="a_node19"><a xlink:href="validate_8c.html" target="_top" xlink:title="Validation of the user provided settings and data.">
<polygon fill="white" stroke="#666666" points="149.48,-206 30.48,-206 30.48,-187 149.48,-187 149.48,-206"/>
<text text-anchor="middle" x="89.98" y="-194" font-family="Helvetica,sans-Serif" font-size="10.00">QPALM/src/validate.c</text>
</a>
</g>
</g>
<!-- Node10&#45;&gt;Node19 -->
<g id="edge26" class="edge">
<title>Node10&#45;&gt;Node19</title>
<path fill="none" stroke="#63b8ff" d="M767.27,-246.96C640.49,-240.79 379.34,-226.71 158.98,-206 155.98,-205.72 152.9,-205.41 149.8,-205.08"/>
<polygon fill="#63b8ff" stroke="#63b8ff" points="767.11,-250.46 777.27,-247.45 767.45,-243.47 767.11,-250.46"/>
</g>
<!-- Node11&#45;&gt;Node3 -->
<g id="edge13" class="edge">
<title>Node11&#45;&gt;Node3</title>
<path fill="none" stroke="#63b8ff" d="M603.52,-186.93C951.42,-159.9 1355.5,-147.9 1511.27,-144.01"/>
<polygon fill="#63b8ff" stroke="#63b8ff" points="603.2,-183.45 593.5,-187.71 603.74,-190.42 603.2,-183.45"/>
</g>
<!-- Node11&#45;&gt;Node7 -->
<g id="edge14" class="edge">
<title>Node11&#45;&gt;Node7</title>
<path fill="none" stroke="#63b8ff" d="M590.98,-185.43C733.39,-163.38 1070.78,-111.14 1203.75,-90.55"/>
<polygon fill="#63b8ff" stroke="#63b8ff" points="590.42,-181.98 581.07,-186.97 591.49,-188.9 590.42,-181.98"/>
</g>
<!-- Node11&#45;&gt;Node12 -->
<g id="edge15" class="edge">
<title>Node11&#45;&gt;Node12</title>
<path fill="none" stroke="#63b8ff" d="M512.56,-178.96C505.07,-169.72 496.04,-158.6 489.95,-151.09"/>
<polygon fill="#63b8ff" stroke="#63b8ff" points="509.86,-181.19 518.88,-186.75 515.3,-176.78 509.86,-181.19"/>
</g>
<!-- Node20&#45;&gt;Node3 -->
<g id="edge28" class="edge">
<title>Node20&#45;&gt;Node3</title>
<path fill="none" stroke="#63b8ff" d="M1163.62,-237.82C1195.92,-223.49 1251.3,-200.41 1300.98,-187 1371.62,-167.93 1454.77,-155.89 1511.2,-149.21"/>
<polygon fill="#63b8ff" stroke="#63b8ff" points="1162.06,-234.69 1154.36,-241.97 1164.92,-241.07 1162.06,-234.69"/>
</g>
<!-- Node20&#45;&gt;Node7 -->
<g id="edge31" class="edge">
<title>Node20&#45;&gt;Node7</title>
<path fill="none" stroke="#63b8ff" d="M1148.32,-233.59C1174.14,-198.22 1233.07,-117.5 1252.58,-90.77"/>
<polygon fill="#63b8ff" stroke="#63b8ff" points="1145.32,-231.77 1142.25,-241.91 1150.97,-235.9 1145.32,-231.77"/>
</g>
<!-- Node20&#45;&gt;Node8 -->
<g id="edge29" class="edge">
<title>Node20&#45;&gt;Node8</title>
<path fill="none" stroke="#63b8ff" d="M1185.88,-239.88C1232.55,-229.94 1301.37,-215.3 1344.66,-206.08"/>
<polygon fill="#63b8ff" stroke="#63b8ff" points="1185.04,-236.48 1175.99,-241.98 1186.49,-243.33 1185.04,-236.48"/>
</g>
<!-- Node20&#45;&gt;Node14 -->
<g id="edge30" class="edge">
<title>Node20&#45;&gt;Node14</title>
<path fill="none" stroke="#63b8ff" d="M1079.17,-240.19C1024.43,-230.25 942.55,-215.39 891.26,-206.08"/>
<polygon fill="#63b8ff" stroke="#63b8ff" points="1078.6,-243.64 1089.06,-241.98 1079.85,-236.75 1078.6,-243.64"/>
</g>
<!-- Node21&#45;&gt;Node3 -->
<g id="edge33" class="edge">
<title>Node21&#45;&gt;Node3</title>
<path fill="none" stroke="#63b8ff" d="M1298.22,-231.35C1299.47,-217.05 1303.6,-198.12 1315.98,-187 1344.07,-161.78 1443.55,-150.6 1511.26,-145.83"/>
<polygon fill="#63b8ff" stroke="#63b8ff" points="1294.71,-231.44 1297.73,-241.6 1301.7,-231.78 1294.71,-231.44"/>
</g>
<!-- Node21&#45;&gt;Node7 -->
<g id="edge36" class="edge">
<title>Node21&#45;&gt;Node7</title>
<path fill="none" stroke="#63b8ff" d="M1293.64,-231.74C1285.25,-195.48 1267.09,-117.04 1261.01,-90.77"/>
<polygon fill="#63b8ff" stroke="#63b8ff" points="1290.33,-232.96 1295.99,-241.91 1297.15,-231.38 1290.33,-232.96"/>
</g>
<!-- Node21&#45;&gt;Node8 -->
<g id="edge34" class="edge">
<title>Node21&#45;&gt;Node8</title>
<path fill="none" stroke="#63b8ff" d="M1320.64,-236.7C1336.49,-227.04 1357.17,-214.44 1370.75,-206.17"/>
<polygon fill="#63b8ff" stroke="#63b8ff" points="1318.68,-233.79 1311.96,-241.98 1322.32,-239.77 1318.68,-233.79"/>
</g>
<!-- Node21&#45;&gt;Node15 -->
<g id="edge35" class="edge">
<title>Node21&#45;&gt;Node15</title>
<path fill="none" stroke="#63b8ff" d="M1237.61,-240.31C1178.64,-230.36 1089.93,-215.38 1034.56,-206.04"/>
<polygon fill="#63b8ff" stroke="#63b8ff" points="1237.09,-243.77 1247.53,-241.98 1238.25,-236.87 1237.09,-243.77"/>
</g>
<!-- Node22&#45;&gt;Node3 -->
<g id="edge38" class="edge">
<title>Node22&#45;&gt;Node3</title>
<path fill="none" stroke="#63b8ff" d="M1544.61,-232.12C1553.12,-208.56 1567.53,-168.66 1573.85,-151.16"/>
<polygon fill="#63b8ff" stroke="#63b8ff" points="1541.28,-231.07 1541.17,-241.66 1547.86,-233.45 1541.28,-231.07"/>
</g>
<!-- Node22&#45;&gt;Node7 -->
<g id="edge41" class="edge">
<title>Node22&#45;&gt;Node7</title>
<path fill="none" stroke="#63b8ff" d="M1519.93,-235.57C1503.3,-222.13 1477.69,-202.22 1453.98,-187 1391.37,-146.81 1312,-107.39 1276.98,-90.53"/>
<polygon fill="#63b8ff" stroke="#63b8ff" points="1517.78,-238.34 1527.74,-241.95 1522.21,-232.91 1517.78,-238.34"/>
</g>
<!-- Node22&#45;&gt;Node8 -->
<g id="edge39" class="edge">
<title>Node22&#45;&gt;Node8</title>
<path fill="none" stroke="#63b8ff" d="M1503.83,-238.67C1475.3,-228.79 1435.29,-214.93 1409.75,-206.08"/>
<polygon fill="#63b8ff" stroke="#63b8ff" points="1502.8,-242.02 1513.4,-241.98 1505.09,-235.4 1502.8,-242.02"/>
</g>
<!-- Node22&#45;&gt;Node16 -->
<g id="edge40" class="edge">
<title>Node22&#45;&gt;Node16</title>
<path fill="none" stroke="#63b8ff" d="M1564,-237.37C1583.28,-227.63 1609.03,-214.64 1625.8,-206.17"/>
<polygon fill="#63b8ff" stroke="#63b8ff" points="1562.2,-234.35 1554.85,-241.98 1565.35,-240.6 1562.2,-234.35"/>
</g>
<!-- Node23&#45;&gt;Node3 -->
<g id="edge46" class="edge">
<title>Node23&#45;&gt;Node3</title>
<path fill="none" stroke="#63b8ff" d="M931.33,-308.57C1056.71,-303.59 1311.22,-290.17 1394.98,-261 1468.68,-235.33 1542.19,-173.69 1567.63,-151.04"/>
<polygon fill="#63b8ff" stroke="#63b8ff" points="930.92,-305.08 921.07,-308.97 931.2,-312.08 930.92,-305.08"/>
</g>
<!-- Node23&#45;&gt;Node7 -->
<g id="edge48" class="edge">
<title>Node23&#45;&gt;Node7</title>
<path fill="none" stroke="#63b8ff" d="M788.73,-308.35C635.74,-302.26 280.16,-285.85 161.98,-261 87.67,-245.37 -31.58,-251.82 7.98,-187 35.84,-141.36 63.3,-145.71 114.98,-132 220.67,-103.97 989.58,-87.19 1203.74,-83.03"/>
<polygon fill="#63b8ff" stroke="#63b8ff" points="788.81,-311.86 798.95,-308.75 789.09,-304.86 788.81,-311.86"/>
</g>
<!-- Node23&#45;&gt;Node8 -->
<g id="edge47" class="edge">
<title>Node23&#45;&gt;Node8</title>
<path fill="none" stroke="#63b8ff" d="M931.51,-308.84C1065.42,-304.11 1343.36,-290.8 1374.98,-261 1389.92,-246.92 1388.55,-220.27 1386.6,-206.4"/>
<polygon fill="#63b8ff" stroke="#63b8ff" points="931.21,-305.35 921.34,-309.19 931.46,-312.34 931.21,-305.35"/>
</g>
<!-- Node23&#45;&gt;Node10 -->
<g id="edge45" class="edge">
<title>Node23&#45;&gt;Node10</title>
<path fill="none" stroke="#63b8ff" d="M853.43,-287.04C850.93,-277.93 848.25,-268.1 846.38,-261.27"/>
<polygon fill="#63b8ff" stroke="#63b8ff" points="850.09,-288.12 856.11,-296.84 856.84,-286.27 850.09,-288.12"/>
</g>
<!-- Node23&#45;&gt;Node17 -->
<g id="edge49" class="edge">
<title>Node23&#45;&gt;Node17</title>
<path fill="none" stroke="#63b8ff" d="M788.95,-297.85C661.98,-274.34 399.44,-225.73 293.16,-206.05"/>
<polygon fill="#63b8ff" stroke="#63b8ff" points="788.49,-301.32 798.96,-299.7 789.77,-294.44 788.49,-301.32"/>
</g>
<!-- Node24&#45;&gt;Node3 -->
<g id="edge51" class="edge">
<title>Node24&#45;&gt;Node3</title>
<path fill="none" stroke="#63b8ff" d="M2079.88,-231.82C2077.18,-217.17 2071.02,-197.54 2056.98,-187 2024.56,-162.66 1766.27,-149.67 1642.57,-144.8"/>
<polygon fill="#63b8ff" stroke="#63b8ff" points="2076.44,-232.43 2081.35,-241.82 2083.36,-231.42 2076.44,-232.43"/>
</g>
<!-- Node24&#45;&gt;Node7 -->
<g id="edge52" class="edge">
<title>Node24&#45;&gt;Node7</title>
<path fill="none" stroke="#63b8ff" d="M2086.59,-231.99C2088.9,-218.02 2089.32,-199.24 2078.98,-187 2004.99,-99.44 1940.31,-149.28 1826.98,-132 1640.06,-103.49 1415.88,-89.69 1314.09,-84.52"/>
<polygon fill="#63b8ff" stroke="#63b8ff" points="2083.13,-231.43 2084.51,-241.94 2089.98,-232.87 2083.13,-231.43"/>
</g>
<!-- Node24&#45;&gt;Node9 -->
<g id="edge53" class="edge">
<title>Node24&#45;&gt;Node9</title>
<path fill="none" stroke="#63b8ff" d="M2038.19,-239.5C1998.68,-229.58 1941.36,-215.18 1905.15,-206.08"/>
<polygon fill="#63b8ff" stroke="#63b8ff" points="2037.53,-242.94 2048.08,-241.98 2039.23,-236.15 2037.53,-242.94"/>
</g>
<!-- Node25&#45;&gt;Node3 -->
<g id="edge55" class="edge">
<title>Node25&#45;&gt;Node3</title>
<path fill="none" stroke="#63b8ff" d="M1730.59,-231.57C1730.73,-217.64 1728.56,-199.11 1717.98,-187 1699.06,-165.35 1669.71,-154.13 1642.67,-148.35"/>
<polygon fill="#63b8ff" stroke="#63b8ff" points="1727.08,-231.77 1730.07,-241.93 1734.07,-232.12 1727.08,-231.77"/>
</g>
<!-- Node25&#45;&gt;Node7 -->
<g id="edge58" class="edge">
<title>Node25&#45;&gt;Node7</title>
<path fill="none" stroke="#63b8ff" d="M1736.83,-232.18C1741.26,-218.87 1744.56,-200.84 1736.98,-187 1715.19,-147.2 1693.63,-147.47 1650.98,-132 1590.27,-109.98 1406.88,-93.31 1314.06,-86.03"/>
<polygon fill="#63b8ff" stroke="#63b8ff" points="1733.5,-231.08 1733.22,-241.67 1740.05,-233.57 1733.5,-231.08"/>
</g>
<!-- Node25&#45;&gt;Node8 -->
<g id="edge56" class="edge">
<title>Node25&#45;&gt;Node8</title>
<path fill="none" stroke="#63b8ff" d="M1663.64,-240.43C1599.05,-230.48 1501.3,-215.42 1440.4,-206.04"/>
<polygon fill="#63b8ff" stroke="#63b8ff" points="1663.29,-243.92 1673.71,-241.98 1664.36,-237 1663.29,-243.92"/>
</g>
<!-- Node25&#45;&gt;Node9 -->
<g id="edge59" class="edge">
<title>Node25&#45;&gt;Node9</title>
<path fill="none" stroke="#63b8ff" d="M1761.34,-238.42C1787.69,-228.59 1824.24,-214.95 1847.75,-206.17"/>
<polygon fill="#63b8ff" stroke="#63b8ff" points="1759.94,-235.21 1751.79,-241.98 1762.39,-241.77 1759.94,-235.21"/>
</g>
<!-- Node25&#45;&gt;Node16 -->
<g id="edge57" class="edge">
<title>Node25&#45;&gt;Node16</title>
<path fill="none" stroke="#63b8ff" d="M1706.58,-236.7C1690.91,-227.04 1670.47,-214.44 1657.05,-206.17"/>
<polygon fill="#63b8ff" stroke="#63b8ff" points="1704.81,-239.72 1715.16,-241.98 1708.48,-233.76 1704.81,-239.72"/>
</g>
<!-- Node25&#45;&gt;Node18 -->
<g id="edge60" class="edge">
<title>Node25&#45;&gt;Node18</title>
<path fill="none" stroke="#63b8ff" d="M1660.74,-244.69C1533.7,-233.86 1263.91,-210.87 1154.53,-201.55"/>
<polygon fill="#63b8ff" stroke="#63b8ff" points="1660.48,-248.18 1670.74,-245.54 1661.08,-241.2 1660.48,-248.18"/>
</g>
<!-- Node26&#45;&gt;Node3 -->
<g id="edge62" class="edge">
<title>Node26&#45;&gt;Node3</title>
<path fill="none" stroke="#63b8ff" d="M271.87,-238.33C311.97,-223.17 384.46,-197.93 448.98,-187 655.37,-152.02 1302.78,-144.43 1511.46,-142.88"/>
<polygon fill="#63b8ff" stroke="#63b8ff" points="270.49,-235.11 262.4,-241.95 272.99,-241.65 270.49,-235.11"/>
</g>
<!-- Node26&#45;&gt;Node7 -->
<g id="edge63" class="edge">
<title>Node26&#45;&gt;Node7</title>
<path fill="none" stroke="#63b8ff" d="M160.64,-250.91C81.47,-248.58 -21.89,-236.49 20.98,-187 99.41,-96.47 973.78,-83.99 1203.8,-82.27"/>
<polygon fill="#63b8ff" stroke="#63b8ff" points="160.57,-254.41 170.65,-251.16 160.74,-247.42 160.57,-254.41"/>
</g>
<!-- Node26&#45;&gt;Node19 -->
<g id="edge64" class="edge">
<title>Node26&#45;&gt;Node19</title>
<path fill="none" stroke="#63b8ff" d="M206.93,-238.55C178.89,-228.71 139.79,-214.98 114.68,-206.17"/>
<polygon fill="#63b8ff" stroke="#63b8ff" points="206.12,-241.98 216.72,-241.98 208.44,-235.37 206.12,-241.98"/>
</g>
<!-- Node27&#45;&gt;Node4 -->
<g id="edge66" class="edge">
<title>Node27&#45;&gt;Node4</title>
<path fill="none" stroke="#63b8ff" d="M2170.96,-287.04C2174.64,-273.25 2176.66,-255.95 2169.98,-242 2135.12,-169.24 2049.24,-119.07 2002.51,-96.14"/>
<polygon fill="#63b8ff" stroke="#63b8ff" points="2167.55,-286.19 2167.93,-296.78 2174.24,-288.27 2167.55,-286.19"/>
</g>
</g>
</svg>
