<?xml version="1.0" encoding="UTF-8" standalone="no"?>
<!DOCTYPE svg PUBLIC "-//W3C//DTD SVG 1.1//EN"
 "http://www.w3.org/Graphics/SVG/1.1/DTD/svg11.dtd">
<!-- Generated by graphviz version 2.43.0 (0)
 -->
<!-- Title: qpalm_toc Pages: 1 -->
<svg width="428pt" height="284pt"
 viewBox="0.00 0.00 428.00 283.50" xmlns="http://www.w3.org/2000/svg" xmlns:xlink="http://www.w3.org/1999/xlink">
<g id="graph0" class="graph" transform="scale(1 1) rotate(0) translate(4 279.5)">
<title>qpalm_toc</title>
<!-- Node1 -->
<g id="node1" class="node">
<title>Node1</title>
<g id="a_node1"><a xlink:title="Report time in seconds since last call to qpalm_tic.">
<polygon fill="#999999" stroke="#666666" points="420,-152.5 352,-152.5 352,-133.5 420,-133.5 420,-152.5"/>
<text text-anchor="middle" x="386" y="-140.5" font-family="Helvetica,sans-Serif" font-size="10.00">qpalm_toc</text>
</a>
</g>
</g>
<!-- Node2 -->
<g id="node2" class="node">
<title>Node2</title>
<g id="a_node2"><a xlink:href="group__solver-grp.html#gaaff827465b1299909f394de8771baef9" target="_top" xlink:title="Initialize QPALM solver allocating memory.">
<polygon fill="white" stroke="#666666" points="290.5,-275.5 210.5,-275.5 210.5,-256.5 290.5,-256.5 290.5,-275.5"/>
<text text-anchor="middle" x="250.5" y="-263.5" font-family="Helvetica,sans-Serif" font-size="10.00">qpalm_setup</text>
</a>
</g>
</g>
<!-- Node1&#45;&gt;Node2 -->
<g id="edge1" class="edge">
<title>Node1&#45;&gt;Node2</title>
<path fill="none" stroke="#63b8ff" d="M377.46,-162.15C367.15,-185.86 346.38,-225.81 316,-248 308.58,-253.42 299.6,-257.2 290.73,-259.85"/>
<polygon fill="#63b8ff" stroke="#63b8ff" points="380.74,-163.38 381.35,-152.8 374.28,-160.69 380.74,-163.38"/>
</g>
<!-- Node4 -->
<g id="node4" class="node">
<title>Node4</title>
<g id="a_node4"><a xlink:href="group__solver-grp.html#ga9bbc8b47dfd2e86a81dd77feb4077bde" target="_top" xlink:title="Solve the quadratic program.">
<polygon fill="white" stroke="#666666" points="290,-238.5 211,-238.5 211,-219.5 290,-219.5 290,-238.5"/>
<text text-anchor="middle" x="250.5" y="-226.5" font-family="Helvetica,sans-Serif" font-size="10.00">qpalm_solve</text>
</a>
</g>
</g>
<!-- Node1&#45;&gt;Node4 -->
<g id="edge3" class="edge">
<title>Node1&#45;&gt;Node4</title>
<path fill="none" stroke="#63b8ff" d="M368.06,-160.14C354.77,-172.9 335.34,-190.09 316,-202 304.73,-208.94 291.37,-214.86 279.73,-219.38"/>
<polygon fill="#63b8ff" stroke="#63b8ff" points="370.8,-162.36 375.48,-152.86 365.89,-157.36 370.8,-162.36"/>
</g>
<!-- Node6 -->
<g id="node6" class="node">
<title>Node6</title>
<g id="a_node6"><a xlink:href="group__solver-grp.html#ga385f399d0fb6afaaa0da5f3a114bf922" target="_top" xlink:title="Update the lower and upper bounds.">
<polygon fill="white" stroke="#666666" points="314,-192.5 187,-192.5 187,-173.5 314,-173.5 314,-192.5"/>
<text text-anchor="middle" x="250.5" y="-180.5" font-family="Helvetica,sans-Serif" font-size="10.00">qpalm_update_bounds</text>
</a>
</g>
</g>
<!-- Node1&#45;&gt;Node6 -->
<g id="edge6" class="edge">
<title>Node1&#45;&gt;Node6</title>
<path fill="none" stroke="#63b8ff" d="M343.23,-155.52C323.84,-161.33 301.17,-168.12 283.22,-173.5"/>
<polygon fill="#63b8ff" stroke="#63b8ff" points="344.45,-158.8 353.02,-152.58 342.44,-152.1 344.45,-158.8"/>
</g>
<!-- Node8 -->
<g id="node8" class="node">
<title>Node8</title>
<g id="a_node8"><a xlink:href="group__solver-grp.html#gadc1a41812270a2a9539558e7eec403fe" target="_top" xlink:title="Update the linear part of the cost.">
<polygon fill="white" stroke="#666666" points="299.5,-152.5 201.5,-152.5 201.5,-133.5 299.5,-133.5 299.5,-152.5"/>
<text text-anchor="middle" x="250.5" y="-140.5" font-family="Helvetica,sans-Serif" font-size="10.00">qpalm_update_q</text>
</a>
</g>
</g>
<!-- Node1&#45;&gt;Node8 -->
<g id="edge8" class="edge">
<title>Node1&#45;&gt;Node8</title>
<path fill="none" stroke="#63b8ff" d="M341.63,-143C328.25,-143 313.44,-143 299.75,-143"/>
<polygon fill="#63b8ff" stroke="#63b8ff" points="342,-146.5 352,-143 342,-139.5 342,-146.5"/>
</g>
<!-- Node10 -->
<g id="node10" class="node">
<title>Node10</title>
<g id="a_node10"><a xlink:href="group__solver-grp.html#ga327c43b0d2f129fc32e8ef2a47e289af" target="_top" xlink:title="Update the matrix entries of Q and A.">
<polygon fill="white" stroke="#666666" points="306,-115.5 195,-115.5 195,-96.5 306,-96.5 306,-115.5"/>
<text text-anchor="middle" x="250.5" y="-103.5" font-family="Helvetica,sans-Serif" font-size="10.00">qpalm_update_Q_A</text>
</a>
</g>
</g>
<!-- Node1&#45;&gt;Node10 -->
<g id="edge10" class="edge">
<title>Node1&#45;&gt;Node10</title>
<path fill="none" stroke="#63b8ff" d="M342.23,-131.15C324.05,-126.11 303.14,-120.31 285.98,-115.56"/>
<polygon fill="#63b8ff" stroke="#63b8ff" points="341.43,-134.56 352,-133.85 343.3,-127.81 341.43,-134.56"/>
</g>
<!-- Node12 -->
<g id="node12" class="node">
<title>Node12</title>
<g id="a_node12"><a xlink:href="group__solver-grp.html#ga581cf986cb484ec5721f76b025eda704" target="_top" xlink:title="Update the settings to the new settings.">
<polygon fill="white" stroke="#666666" points="316,-75.5 185,-75.5 185,-56.5 316,-56.5 316,-75.5"/>
<text text-anchor="middle" x="250.5" y="-63.5" font-family="Helvetica,sans-Serif" font-size="10.00">qpalm_update_settings</text>
</a>
</g>
</g>
<!-- Node1&#45;&gt;Node12 -->
<g id="edge12" class="edge">
<title>Node1&#45;&gt;Node12</title>
<path fill="none" stroke="#63b8ff" d="M367.61,-126.32C354.34,-114.32 335.14,-98.48 316,-88 306.87,-83 296.39,-78.84 286.58,-75.53"/>
<polygon fill="#63b8ff" stroke="#63b8ff" points="365.34,-128.98 375.05,-133.21 370.09,-123.85 365.34,-128.98"/>
</g>
<!-- Node14 -->
<g id="node14" class="node">
<title>Node14</title>
<g id="a_node14"><a xlink:href="group__solver-grp.html#ga28824f01d01f181a6ad6b413f30a2609" target="_top" xlink:title="Warm start workspace variables x, x_0, x_prev, Ax, Qx, y and sigma.">
<polygon fill="white" stroke="#666666" points="304.5,-30.5 196.5,-30.5 196.5,-11.5 304.5,-11.5 304.5,-30.5"/>
<text text-anchor="middle" x="250.5" y="-18.5" font-family="Helvetica,sans-Serif" font-size="10.00">qpalm_warm_start</text>
</a>
</g>
</g>
<!-- Node1&#45;&gt;Node14 -->
<g id="edge14" class="edge">
<title>Node1&#45;&gt;Node14</title>
<path fill="none" stroke="#63b8ff" d="M375.83,-124.44C364.45,-103.12 343.18,-68.33 316,-47 306.98,-39.92 295.77,-34.51 285.24,-30.51"/>
<polygon fill="#63b8ff" stroke="#63b8ff" points="372.78,-126.17 380.48,-133.45 379,-122.96 372.78,-126.17"/>
</g>
<!-- Node3 -->
<g id="node3" class="node">
<title>Node3</title>
<g id="a_node3"><a xlink:href="qpalm__fortran_8c.html#abec01161fcee665e126347b862c404c4" target="_top" xlink:title=" ">
<polygon fill="white" stroke="#666666" points="122.5,-275.5 26.5,-275.5 26.5,-256.5 122.5,-256.5 122.5,-275.5"/>
<text text-anchor="middle" x="74.5" y="-263.5" font-family="Helvetica,sans-Serif" font-size="10.00">qpalm_fortran_c</text>
</a>
</g>
</g>
<!-- Node2&#45;&gt;Node3 -->
<g id="edge2" class="edge">
<title>Node2&#45;&gt;Node3</title>
<path fill="none" stroke="#63b8ff" d="M200.36,-266C176.05,-266 146.83,-266 122.78,-266"/>
<polygon fill="#63b8ff" stroke="#63b8ff" points="200.45,-269.5 210.45,-266 200.45,-262.5 200.45,-269.5"/>
</g>
<!-- Node4&#45;&gt;Node3 -->
<g id="edge4" class="edge">
<title>Node4&#45;&gt;Node3</title>
<path fill="none" stroke="#63b8ff" d="M200.81,-239.35C175.63,-244.71 145.09,-251.2 120.47,-256.44"/>
<polygon fill="#63b8ff" stroke="#63b8ff" points="201.83,-242.71 210.88,-237.21 200.37,-235.87 201.83,-242.71"/>
</g>
<!-- Node5 -->
<g id="node5" class="node">
<title>Node5</title>
<g id="a_node5"><a xlink:href="classqpalm_1_1Solver.html#a7d723d189a812ffa19d688b7aa38ccca" target="_top" xlink:title="Solve the problem.">
<polygon fill="white" stroke="#666666" points="132.5,-238.5 16.5,-238.5 16.5,-219.5 132.5,-219.5 132.5,-238.5"/>
<text text-anchor="middle" x="74.5" y="-226.5" font-family="Helvetica,sans-Serif" font-size="10.00">qpalm::Solver::solve</text>
</a>
</g>
</g>
<!-- Node4&#45;&gt;Node5 -->
<g id="edge5" class="edge">
<title>Node4&#45;&gt;Node5</title>
<path fill="none" stroke="#63b8ff" d="M200.81,-229C179.59,-229 154.59,-229 132.51,-229"/>
<polygon fill="#63b8ff" stroke="#63b8ff" points="200.88,-232.5 210.88,-229 200.88,-225.5 200.88,-232.5"/>
</g>
<!-- Node7 -->
<g id="node7" class="node">
<title>Node7</title>
<g id="a_node7"><a xlink:href="classqpalm_1_1Solver.html#a6df33bfd68c5b8caaaa6f726f1a9f517" target="_top" xlink:title=" ">
<polygon fill="white" stroke="#666666" points="136.5,-201 12.5,-201 12.5,-171 136.5,-171 136.5,-201"/>
<text text-anchor="start" x="20.5" y="-189" font-family="Helvetica,sans-Serif" font-size="10.00">qpalm::Solver::update</text>
<text text-anchor="middle" x="74.5" y="-178" font-family="Helvetica,sans-Serif" font-size="10.00">_bounds</text>
</a>
</g>
</g>
<!-- Node6&#45;&gt;Node7 -->
<g id="edge7" class="edge">
<title>Node6&#45;&gt;Node7</title>
<path fill="none" stroke="#63b8ff" d="M176.65,-184.26C163.38,-184.48 149.66,-184.72 136.77,-184.94"/>
<polygon fill="#63b8ff" stroke="#63b8ff" points="176.74,-187.76 186.68,-184.08 176.62,-180.76 176.74,-187.76"/>
</g>
<!-- Node9 -->
<g id="node9" class="node">
<title>Node9</title>
<g id="a_node9"><a xlink:href="classqpalm_1_1Solver.html#a43cbe4e495be0898c733d9589531e63c" target="_top" xlink:title=" ">
<polygon fill="white" stroke="#666666" points="142,-152.5 7,-152.5 7,-133.5 142,-133.5 142,-152.5"/>
<text text-anchor="middle" x="74.5" y="-140.5" font-family="Helvetica,sans-Serif" font-size="10.00">qpalm::Solver::update_q</text>
</a>
</g>
</g>
<!-- Node8&#45;&gt;Node9 -->
<g id="edge9" class="edge">
<title>Node8&#45;&gt;Node9</title>
<path fill="none" stroke="#63b8ff" d="M191.37,-143C175.61,-143 158.43,-143 142.23,-143"/>
<polygon fill="#63b8ff" stroke="#63b8ff" points="191.49,-146.5 201.49,-143 191.49,-139.5 191.49,-146.5"/>
</g>
<!-- Node11 -->
<g id="node11" class="node">
<title>Node11</title>
<g id="a_node11"><a xlink:href="classqpalm_1_1Solver.html#a11e9742322ad77345b32d806b8b3b81c" target="_top" xlink:title=" ">
<polygon fill="white" stroke="#666666" points="149,-115.5 0,-115.5 0,-96.5 149,-96.5 149,-115.5"/>
<text text-anchor="middle" x="74.5" y="-103.5" font-family="Helvetica,sans-Serif" font-size="10.00">qpalm::Solver::update_Q_A</text>
</a>
</g>
</g>
<!-- Node10&#45;&gt;Node11 -->
<g id="edge11" class="edge">
<title>Node10&#45;&gt;Node11</title>
<path fill="none" stroke="#63b8ff" d="M184.84,-106C173.17,-106 160.92,-106 149.02,-106"/>
<polygon fill="#63b8ff" stroke="#63b8ff" points="184.92,-109.5 194.92,-106 184.92,-102.5 184.92,-109.5"/>
</g>
<!-- Node13 -->
<g id="node13" class="node">
<title>Node13</title>
<g id="a_node13"><a xlink:href="classqpalm_1_1Solver.html#a895c0635d6fdd0a3026894697ea6903b" target="_top" xlink:title=" ">
<polygon fill="white" stroke="#666666" points="136.5,-78 12.5,-78 12.5,-48 136.5,-48 136.5,-78"/>
<text text-anchor="start" x="20.5" y="-66" font-family="Helvetica,sans-Serif" font-size="10.00">qpalm::Solver::update</text>
<text text-anchor="middle" x="74.5" y="-55" font-family="Helvetica,sans-Serif" font-size="10.00">_settings</text>
</a>
</g>
</g>
<!-- Node12&#45;&gt;Node13 -->
<g id="edge13" class="edge">
<title>Node12&#45;&gt;Node13</title>
<path fill="none" stroke="#63b8ff" d="M174.62,-64.71C161.93,-64.49 148.88,-64.27 136.6,-64.05"/>
<polygon fill="#63b8ff" stroke="#63b8ff" points="174.65,-68.21 184.71,-64.88 174.77,-61.21 174.65,-68.21"/>
</g>
<!-- Node15 -->
<g id="node15" class="node">
<title>Node15</title>
<g id="a_node15"><a xlink:href="classqpalm_1_1Solver.html#a693af99e39a9035bbbc4fb61fcb427d1" target="_top" xlink:title=" ">
<polygon fill="white" stroke="#666666" points="133.5,-30 15.5,-30 15.5,0 133.5,0 133.5,-30"/>
<text text-anchor="start" x="23.5" y="-18" font-family="Helvetica,sans-Serif" font-size="10.00">qpalm::Solver::warm</text>
<text text-anchor="middle" x="74.5" y="-7" font-family="Helvetica,sans-Serif" font-size="10.00">_start</text>
</a>
</g>
</g>
<!-- Node14&#45;&gt;Node15 -->
<g id="edge15" class="edge">
<title>Node14&#45;&gt;Node15</title>
<path fill="none" stroke="#63b8ff" d="M185.93,-18.81C168.88,-18.22 150.53,-17.59 133.78,-17.01"/>
<polygon fill="#63b8ff" stroke="#63b8ff" points="186.23,-22.32 196.35,-19.17 186.48,-15.32 186.23,-22.32"/>
</g>
</g>
</svg>
