<?xml version="1.0" encoding="UTF-8" standalone="no"?>
<!DOCTYPE svg PUBLIC "-//W3C//DTD SVG 1.1//EN"
 "http://www.w3.org/Graphics/SVG/1.1/DTD/svg11.dtd">
<!-- Generated by graphviz version 2.43.0 (0)
 -->
<!-- Title: QPALM/src/global_opts.c Pages: 1 -->
<svg width="143pt" height="140pt"
 viewBox="0.00 0.00 143.00 140.00" xmlns="http://www.w3.org/2000/svg" xmlns:xlink="http://www.w3.org/1999/xlink">
<g id="graph0" class="graph" transform="scale(1 1) rotate(0) translate(4 136)">
<title>QPALM/src/global_opts.c</title>
<polygon fill="white" stroke="transparent" points="-4,4 -4,-136 139,-136 139,4 -4,4"/>
<!-- Node1 -->
<g id="node1" class="node">
<title>Node1</title>
<g id="a_node1"><a xlink:title=" ">
<polygon fill="#bfbfbf" stroke="black" points="0,-112.5 0,-131.5 135,-131.5 135,-112.5 0,-112.5"/>
<text text-anchor="middle" x="67.5" y="-119.5" font-family="Helvetica,sans-Serif" font-size="10.00">QPALM/src/global_opts.c</text>
</a>
</g>
</g>
<!-- Node2 -->
<g id="node2" class="node">
<title>Node2</title>
<g id="a_node2"><a xlink:href="global__opts_8h.html" target="_top" xlink:title="Custom memory allocation, print and utility functions, and data types for floats and ints.">
<polygon fill="white" stroke="black" points="26.5,-56.5 26.5,-75.5 108.5,-75.5 108.5,-56.5 26.5,-56.5"/>
<text text-anchor="middle" x="67.5" y="-63.5" font-family="Helvetica,sans-Serif" font-size="10.00">global_opts.h</text>
</a>
</g>
</g>
<!-- Node1&#45;&gt;Node2 -->
<g id="edge1" class="edge">
<title>Node1&#45;&gt;Node2</title>
<path fill="none" stroke="midnightblue" d="M67.5,-112.08C67.5,-105.01 67.5,-94.86 67.5,-85.99"/>
<polygon fill="midnightblue" stroke="midnightblue" points="71,-85.75 67.5,-75.75 64,-85.75 71,-85.75"/>
</g>
<!-- Node3 -->
<g id="node3" class="node">
<title>Node3</title>
<g id="a_node3"><a xlink:title=" ">
<polygon fill="white" stroke="#bfbfbf" points="8.5,-0.5 8.5,-19.5 58.5,-19.5 58.5,-0.5 8.5,-0.5"/>
<text text-anchor="middle" x="33.5" y="-7.5" font-family="Helvetica,sans-Serif" font-size="10.00">ladel.h</text>
</a>
</g>
</g>
<!-- Node2&#45;&gt;Node3 -->
<g id="edge2" class="edge">
<title>Node2&#45;&gt;Node3</title>
<path fill="none" stroke="midnightblue" d="M61.89,-56.08C57.13,-48.53 50.18,-37.49 44.35,-28.23"/>
<polygon fill="midnightblue" stroke="midnightblue" points="47.3,-26.35 39.01,-19.75 41.38,-30.08 47.3,-26.35"/>
</g>
<!-- Node4 -->
<g id="node4" class="node">
<title>Node4</title>
<g id="a_node4"><a xlink:title=" ">
<polygon fill="white" stroke="#bfbfbf" points="77,-0.5 77,-19.5 128,-19.5 128,-0.5 77,-0.5"/>
<text text-anchor="middle" x="102.5" y="-7.5" font-family="Helvetica,sans-Serif" font-size="10.00">math.h</text>
</a>
</g>
</g>
<!-- Node2&#45;&gt;Node4 -->
<g id="edge3" class="edge">
<title>Node2&#45;&gt;Node4</title>
<path fill="none" stroke="midnightblue" d="M73.28,-56.08C78.17,-48.53 85.33,-37.49 91.33,-28.23"/>
<polygon fill="midnightblue" stroke="midnightblue" points="94.33,-30.05 96.83,-19.75 88.45,-26.24 94.33,-30.05"/>
</g>
</g>
</svg>
