<?xml version="1.0" encoding="UTF-8" standalone="no"?>
<!DOCTYPE svg PUBLIC "-//W3C//DTD SVG 1.1//EN"
 "http://www.w3.org/Graphics/SVG/1.1/DTD/svg11.dtd">
<!-- Generated by graphviz version 2.43.0 (0)
 -->
<!-- Title: qpalm_setup Pages: 1 -->
<svg width="380pt" height="410pt"
 viewBox="0.00 0.00 380.00 410.38" xmlns="http://www.w3.org/2000/svg" xmlns:xlink="http://www.w3.org/1999/xlink">
<g id="graph0" class="graph" transform="scale(1 1) rotate(0) translate(4 406.38)">
<title>qpalm_setup</title>
<polygon fill="white" stroke="transparent" points="-4,4 -4,-406.38 376,-406.38 376,4 -4,4"/>
<!-- Node1 -->
<g id="node1" class="node">
<title>Node1</title>
<g id="a_node1"><a xlink:title="Initialize QPALM solver allocating memory.">
<polygon fill="#bfbfbf" stroke="black" points="0,-190.5 0,-209.5 80,-209.5 80,-190.5 0,-190.5"/>
<text text-anchor="middle" x="40" y="-197.5" font-family="Helvetica,sans-Serif" font-size="10.00">qpalm_setup</text>
</a>
</g>
</g>
<!-- Node2 -->
<g id="node2" class="node">
<title>Node2</title>
<g id="a_node2"><a xlink:href="util_8c.html#a14436938f89e6b14f819c58af7d9f0fe" target="_top" xlink:title="Copy settings creating a new settings structure.">
<polygon fill="white" stroke="black" points="141,-152.5 141,-171.5 225,-171.5 225,-152.5 141,-152.5"/>
<text text-anchor="middle" x="183" y="-159.5" font-family="Helvetica,sans-Serif" font-size="10.00">copy_settings</text>
</a>
</g>
</g>
<!-- Node1&#45;&gt;Node2 -->
<g id="edge1" class="edge">
<title>Node1&#45;&gt;Node2</title>
<path fill="none" stroke="midnightblue" d="M76.58,-190.41C94.78,-185.51 117.14,-179.48 136.57,-174.24"/>
<polygon fill="midnightblue" stroke="midnightblue" points="137.69,-177.57 146.43,-171.59 135.86,-170.81 137.69,-177.57"/>
</g>
<!-- Node3 -->
<g id="node3" class="node">
<title>Node3</title>
<g id="a_node3"><a xlink:href="global__opts_8c.html#a9a15c13f16dd6467bcee00e8bf62666a" target="_top" xlink:title=" ">
<polygon fill="white" stroke="black" points="286,-354.5 286,-373.5 372,-373.5 372,-354.5 286,-354.5"/>
<text text-anchor="middle" x="329" y="-361.5" font-family="Helvetica,sans-Serif" font-size="10.00">qpalm_malloc</text>
</a>
</g>
</g>
<!-- Node1&#45;&gt;Node3 -->
<g id="edge4" class="edge">
<title>Node1&#45;&gt;Node3</title>
<path fill="none" stroke="midnightblue" d="M41.47,-209.86C43.57,-241.69 54.98,-342.06 116,-383 171.63,-420.32 254.79,-395.26 298.59,-377.45"/>
<polygon fill="midnightblue" stroke="midnightblue" points="299.96,-380.67 307.82,-373.56 297.24,-374.21 299.96,-380.67"/>
</g>
<!-- Node4 -->
<g id="node4" class="node">
<title>Node4</title>
<g id="a_node4"><a xlink:href="global__opts_8c.html#aa314b2eeaa0227e26c26bae34424f36f" target="_top" xlink:title=" ">
<polygon fill="white" stroke="black" points="142.5,-316.5 142.5,-335.5 223.5,-335.5 223.5,-316.5 142.5,-316.5"/>
<text text-anchor="middle" x="183" y="-323.5" font-family="Helvetica,sans-Serif" font-size="10.00">qpalm_calloc</text>
</a>
</g>
</g>
<!-- Node1&#45;&gt;Node4 -->
<g id="edge3" class="edge">
<title>Node1&#45;&gt;Node4</title>
<path fill="none" stroke="midnightblue" d="M45.03,-209.65C54.32,-230.67 79.26,-280.77 116,-307 121.1,-310.64 126.88,-313.58 132.85,-315.96"/>
<polygon fill="midnightblue" stroke="midnightblue" points="131.72,-319.28 142.32,-319.26 134.03,-312.67 131.72,-319.28"/>
</g>
<!-- Node5 -->
<g id="node5" class="node">
<title>Node5</title>
<g id="a_node5"><a xlink:href="solver__interface_8c.html#a5b96b0c905b3ac7ef76d6b780d462ec7" target="_top" xlink:title="Choose the linear systems solver method based on the problem data sizes.">
<polygon fill="white" stroke="black" points="116,-267 116,-297 250,-297 250,-267 116,-267"/>
<text text-anchor="start" x="124" y="-285" font-family="Helvetica,sans-Serif" font-size="10.00">qpalm_set_factorization</text>
<text text-anchor="middle" x="183" y="-274" font-family="Helvetica,sans-Serif" font-size="10.00">_method</text>
</a>
</g>
</g>
<!-- Node1&#45;&gt;Node5 -->
<g id="edge5" class="edge">
<title>Node1&#45;&gt;Node5</title>
<path fill="none" stroke="midnightblue" d="M51.49,-209.55C65.41,-221.83 91.11,-243.21 116,-257 119.68,-259.04 123.55,-260.98 127.51,-262.81"/>
<polygon fill="midnightblue" stroke="midnightblue" points="126.27,-266.09 136.84,-266.89 129.08,-259.67 126.27,-266.09"/>
</g>
<!-- Node6 -->
<g id="node6" class="node">
<title>Node6</title>
<g id="a_node6"><a xlink:href="util_8h.html#aae57226ec767e15f27d88e97df093b41" target="_top" xlink:title="Start timer.">
<polygon fill="white" stroke="black" points="150.5,-228.5 150.5,-247.5 215.5,-247.5 215.5,-228.5 150.5,-228.5"/>
<text text-anchor="middle" x="183" y="-235.5" font-family="Helvetica,sans-Serif" font-size="10.00">qpalm_tic</text>
</a>
</g>
</g>
<!-- Node1&#45;&gt;Node6 -->
<g id="edge6" class="edge">
<title>Node1&#45;&gt;Node6</title>
<path fill="none" stroke="midnightblue" d="M76.58,-209.59C95.98,-214.82 120.1,-221.32 140.38,-226.78"/>
<polygon fill="midnightblue" stroke="midnightblue" points="139.71,-230.23 150.28,-229.45 141.54,-223.47 139.71,-230.23"/>
</g>
<!-- Node7 -->
<g id="node7" class="node">
<title>Node7</title>
<g id="a_node7"><a xlink:href="util_8h.html#a6eecdaf6f3f1c4bf0ab1067a5e7e69da" target="_top" xlink:title="Report time in seconds since last call to qpalm_tic.">
<polygon fill="white" stroke="black" points="149,-190.5 149,-209.5 217,-209.5 217,-190.5 149,-190.5"/>
<text text-anchor="middle" x="183" y="-197.5" font-family="Helvetica,sans-Serif" font-size="10.00">qpalm_toc</text>
</a>
</g>
</g>
<!-- Node1&#45;&gt;Node7 -->
<g id="edge7" class="edge">
<title>Node1&#45;&gt;Node7</title>
<path fill="none" stroke="midnightblue" d="M80.28,-200C98.34,-200 119.84,-200 138.41,-200"/>
<polygon fill="midnightblue" stroke="midnightblue" points="138.66,-203.5 148.66,-200 138.66,-196.5 138.66,-203.5"/>
</g>
<!-- Node8 -->
<g id="node8" class="node">
<title>Node8</title>
<g id="a_node8"><a xlink:href="util_8c.html#a14fe651105f1f38b2a3a49614f4b8ae2" target="_top" xlink:title="Update solver status (value and string).">
<polygon fill="white" stroke="black" points="140,-38.5 140,-57.5 226,-57.5 226,-38.5 140,-38.5"/>
<text text-anchor="middle" x="183" y="-45.5" font-family="Helvetica,sans-Serif" font-size="10.00">update_status</text>
</a>
</g>
</g>
<!-- Node1&#45;&gt;Node8 -->
<g id="edge8" class="edge">
<title>Node1&#45;&gt;Node8</title>
<path fill="none" stroke="midnightblue" d="M43.67,-190.28C50.92,-165.71 73.37,-100.7 116,-67 120.33,-63.58 125.24,-60.78 130.4,-58.48"/>
<polygon fill="midnightblue" stroke="midnightblue" points="131.76,-61.7 139.85,-54.86 129.26,-55.16 131.76,-61.7"/>
</g>
<!-- Node10 -->
<g id="node10" class="node">
<title>Node10</title>
<g id="a_node10"><a xlink:href="validate_8c.html#a095cca2f68e07f3b0ebd35a2f4a12d9b" target="_top" xlink:title="Validate problem data.">
<polygon fill="white" stroke="black" points="141.5,-114.5 141.5,-133.5 224.5,-133.5 224.5,-114.5 141.5,-114.5"/>
<text text-anchor="middle" x="183" y="-121.5" font-family="Helvetica,sans-Serif" font-size="10.00">validate_data</text>
</a>
</g>
</g>
<!-- Node1&#45;&gt;Node10 -->
<g id="edge10" class="edge">
<title>Node1&#45;&gt;Node10</title>
<path fill="none" stroke="midnightblue" d="M51.33,-190.13C65.06,-177.51 90.57,-155.76 116,-143 120.93,-140.53 126.23,-138.33 131.61,-136.38"/>
<polygon fill="midnightblue" stroke="midnightblue" points="132.93,-139.63 141.31,-133.15 130.72,-132.99 132.93,-139.63"/>
</g>
<!-- Node11 -->
<g id="node11" class="node">
<title>Node11</title>
<g id="a_node11"><a xlink:href="validate_8c.html#aa3fa0338cebc63078430fed1211df147" target="_top" xlink:title="Validate problem settings.">
<polygon fill="white" stroke="black" points="132.5,-76.5 132.5,-95.5 233.5,-95.5 233.5,-76.5 132.5,-76.5"/>
<text text-anchor="middle" x="183" y="-83.5" font-family="Helvetica,sans-Serif" font-size="10.00">validate_settings</text>
</a>
</g>
</g>
<!-- Node1&#45;&gt;Node11 -->
<g id="edge11" class="edge">
<title>Node1&#45;&gt;Node11</title>
<path fill="none" stroke="midnightblue" d="M45.95,-190.28C56.27,-171.01 81.98,-127.85 116,-105 119.05,-102.95 122.32,-101.12 125.72,-99.49"/>
<polygon fill="midnightblue" stroke="midnightblue" points="127.08,-102.71 134.93,-95.6 124.36,-96.26 127.08,-102.71"/>
</g>
<!-- Node12 -->
<g id="node12" class="node">
<title>Node12</title>
<g id="a_node12"><a xlink:href="lin__alg_8c.html#a256ef6c2562ed296f3c1bd23bc712f25" target="_top" xlink:title="Copy vector a into output.">
<polygon fill="white" stroke="black" points="152,-354.5 152,-373.5 214,-373.5 214,-354.5 152,-354.5"/>
<text text-anchor="middle" x="183" y="-361.5" font-family="Helvetica,sans-Serif" font-size="10.00">vec_copy</text>
</a>
</g>
</g>
<!-- Node1&#45;&gt;Node12 -->
<g id="edge12" class="edge">
<title>Node1&#45;&gt;Node12</title>
<path fill="none" stroke="midnightblue" d="M43.21,-209.81C49.6,-235.95 70.64,-307.8 116,-345 123.45,-351.11 132.77,-355.25 142.04,-358.07"/>
<polygon fill="midnightblue" stroke="midnightblue" points="141.42,-361.52 151.98,-360.62 143.17,-354.74 141.42,-361.52"/>
</g>
<!-- Node13 -->
<g id="node13" class="node">
<title>Node13</title>
<g id="a_node13"><a xlink:href="lin__alg_8c.html#a7e2e62d3c501d9f6df8410658c73a1ad" target="_top" xlink:title="Fill int vector with a scalar value.">
<polygon fill="white" stroke="black" points="129.5,-0.5 129.5,-19.5 236.5,-19.5 236.5,-0.5 129.5,-0.5"/>
<text text-anchor="middle" x="183" y="-7.5" font-family="Helvetica,sans-Serif" font-size="10.00">vec_set_scalar_int</text>
</a>
</g>
</g>
<!-- Node1&#45;&gt;Node13 -->
<g id="edge14" class="edge">
<title>Node1&#45;&gt;Node13</title>
<path fill="none" stroke="midnightblue" d="M42.37,-190.18C46.95,-161 64.53,-74.04 116,-29 117.79,-27.44 119.69,-26 121.69,-24.68"/>
<polygon fill="midnightblue" stroke="midnightblue" points="123.85,-27.49 130.95,-19.63 120.5,-21.35 123.85,-27.49"/>
</g>
<!-- Node2&#45;&gt;Node3 -->
<g id="edge2" class="edge">
<title>Node2&#45;&gt;Node3</title>
<path fill="none" stroke="midnightblue" d="M225.25,-167.85C234.18,-170.67 243.03,-174.84 250,-181 299.94,-225.16 318.92,-306.77 325.23,-344.25"/>
<polygon fill="midnightblue" stroke="midnightblue" points="321.81,-345.03 326.8,-354.37 328.72,-343.95 321.81,-345.03"/>
</g>
<!-- Node9 -->
<g id="node9" class="node">
<title>Node9</title>
<g id="a_node9"><a xlink:href="util_8c.html#a7645b56a91479fac2285909a25875b91" target="_top" xlink:title="Custom string copy to avoid string.h library.">
<polygon fill="white" stroke="black" points="300.5,-38.5 300.5,-57.5 357.5,-57.5 357.5,-38.5 300.5,-38.5"/>
<text text-anchor="middle" x="329" y="-45.5" font-family="Helvetica,sans-Serif" font-size="10.00">c_strcpy</text>
</a>
</g>
</g>
<!-- Node8&#45;&gt;Node9 -->
<g id="edge9" class="edge">
<title>Node8&#45;&gt;Node9</title>
<path fill="none" stroke="midnightblue" d="M226.04,-48C246.3,-48 270.42,-48 290.12,-48"/>
<polygon fill="midnightblue" stroke="midnightblue" points="290.26,-51.5 300.26,-48 290.26,-44.5 290.26,-51.5"/>
</g>
<!-- Node12&#45;&gt;Node3 -->
<g id="edge13" class="edge">
<title>Node12&#45;&gt;Node3</title>
<path fill="none" stroke="midnightblue" d="M214.19,-364C231.97,-364 254.95,-364 275.61,-364"/>
<polygon fill="midnightblue" stroke="midnightblue" points="275.84,-367.5 285.84,-364 275.84,-360.5 275.84,-367.5"/>
</g>
</g>
</svg>
