<?xml version="1.0" encoding="UTF-8" standalone="no"?>
<!DOCTYPE svg PUBLIC "-//W3C//DTD SVG 1.1//EN"
 "http://www.w3.org/Graphics/SVG/1.1/DTD/svg11.dtd">
<!-- Generated by graphviz version 2.43.0 (0)
 -->
<!-- Title: initialize_sigma Pages: 1 -->
<svg width="238pt" height="218pt"
 viewBox="0.00 0.00 238.00 218.00" xmlns="http://www.w3.org/2000/svg" xmlns:xlink="http://www.w3.org/1999/xlink">
<g id="graph0" class="graph" transform="scale(1 1) rotate(0) translate(4 214)">
<title>initialize_sigma</title>
<polygon fill="white" stroke="transparent" points="-4,4 -4,-214 234,-214 234,4 -4,4"/>
<!-- Node1 -->
<g id="node1" class="node">
<title>Node1</title>
<g id="a_node1"><a xlink:title="Initialize penalty factors from initial x.">
<polygon fill="#bfbfbf" stroke="black" points="0,-95.5 0,-114.5 94,-114.5 94,-95.5 0,-95.5"/>
<text text-anchor="middle" x="47" y="-102.5" font-family="Helvetica,sans-Serif" font-size="10.00">initialize_sigma</text>
</a>
</g>
</g>
<!-- Node2 -->
<g id="node2" class="node">
<title>Node2</title>
<g id="a_node2"><a xlink:href="lin__alg_8c.html#a0fde1aeeea954e43db160ec6e3697cd5" target="_top" xlink:title="Scaled addition of one vector to another vector, .">
<polygon fill="white" stroke="black" points="133,-190.5 133,-209.5 227,-209.5 227,-190.5 133,-190.5"/>
<text text-anchor="middle" x="180" y="-197.5" font-family="Helvetica,sans-Serif" font-size="10.00">vec_add_scaled</text>
</a>
</g>
</g>
<!-- Node1&#45;&gt;Node2 -->
<g id="edge1" class="edge">
<title>Node1&#45;&gt;Node2</title>
<path fill="none" stroke="midnightblue" d="M56.17,-114.65C69.97,-130.41 99.39,-161.86 130,-181 133.12,-182.95 136.48,-184.76 139.92,-186.42"/>
<polygon fill="midnightblue" stroke="midnightblue" points="138.55,-189.65 149.11,-190.48 141.38,-183.24 138.55,-189.65"/>
</g>
<!-- Node3 -->
<g id="node3" class="node">
<title>Node3</title>
<g id="a_node3"><a xlink:href="lin__alg_8c.html#a93df027e9826a479bf77a0770817c71a" target="_top" xlink:title="Elementwise mid between vectors, .">
<polygon fill="white" stroke="black" points="130,-152.5 130,-171.5 230,-171.5 230,-152.5 130,-152.5"/>
<text text-anchor="middle" x="180" y="-159.5" font-family="Helvetica,sans-Serif" font-size="10.00">vec_ew_mid_vec</text>
</a>
</g>
</g>
<!-- Node1&#45;&gt;Node3 -->
<g id="edge2" class="edge">
<title>Node1&#45;&gt;Node3</title>
<path fill="none" stroke="midnightblue" d="M67.72,-114.57C84.24,-122.48 108.48,-133.85 130,-143 134.49,-144.91 139.24,-146.85 143.94,-148.72"/>
<polygon fill="midnightblue" stroke="midnightblue" points="142.86,-152.05 153.44,-152.45 145.41,-145.54 142.86,-152.05"/>
</g>
<!-- Node4 -->
<g id="node4" class="node">
<title>Node4</title>
<g id="a_node4"><a xlink:href="lin__alg_8c.html#aebb20e932bc52e918667db2a70cb0781" target="_top" xlink:title="Elementwise reciprocal .">
<polygon fill="white" stroke="black" points="137,-114.5 137,-133.5 223,-133.5 223,-114.5 137,-114.5"/>
<text text-anchor="middle" x="180" y="-121.5" font-family="Helvetica,sans-Serif" font-size="10.00">vec_ew_recipr</text>
</a>
</g>
</g>
<!-- Node1&#45;&gt;Node4 -->
<g id="edge3" class="edge">
<title>Node1&#45;&gt;Node4</title>
<path fill="none" stroke="midnightblue" d="M94.19,-111.7C104.68,-113.22 115.9,-114.85 126.63,-116.4"/>
<polygon fill="midnightblue" stroke="midnightblue" points="126.33,-119.9 136.73,-117.87 127.34,-112.97 126.33,-119.9"/>
</g>
<!-- Node5 -->
<g id="node5" class="node">
<title>Node5</title>
<g id="a_node5"><a xlink:href="lin__alg_8c.html#aff49f7b83b7dc6ec1b18557c9f4ea995" target="_top" xlink:title="Elementwise square root, .">
<polygon fill="white" stroke="black" points="141.5,-76.5 141.5,-95.5 218.5,-95.5 218.5,-76.5 141.5,-76.5"/>
<text text-anchor="middle" x="180" y="-83.5" font-family="Helvetica,sans-Serif" font-size="10.00">vec_ew_sqrt</text>
</a>
</g>
</g>
<!-- Node1&#45;&gt;Node5 -->
<g id="edge4" class="edge">
<title>Node1&#45;&gt;Node5</title>
<path fill="none" stroke="midnightblue" d="M94.19,-98.3C106.27,-96.55 119.32,-94.66 131.47,-92.89"/>
<polygon fill="midnightblue" stroke="midnightblue" points="132.04,-96.35 141.43,-91.45 131.03,-89.42 132.04,-96.35"/>
</g>
<!-- Node6 -->
<g id="node6" class="node">
<title>Node6</title>
<g id="a_node6"><a xlink:href="lin__alg_8c.html#ab83e787c2e0edb5803a860b1c894f53d" target="_top" xlink:title="Inner product between two vectors, .">
<polygon fill="white" stroke="black" points="149.5,-38.5 149.5,-57.5 210.5,-57.5 210.5,-38.5 149.5,-38.5"/>
<text text-anchor="middle" x="180" y="-45.5" font-family="Helvetica,sans-Serif" font-size="10.00">vec_prod</text>
</a>
</g>
</g>
<!-- Node1&#45;&gt;Node6 -->
<g id="edge5" class="edge">
<title>Node1&#45;&gt;Node6</title>
<path fill="none" stroke="midnightblue" d="M67.72,-95.43C84.24,-87.52 108.48,-76.15 130,-67 134.49,-65.09 139.24,-63.15 143.94,-61.28"/>
<polygon fill="midnightblue" stroke="midnightblue" points="145.41,-64.46 153.44,-57.55 142.86,-57.95 145.41,-64.46"/>
</g>
<!-- Node7 -->
<g id="node7" class="node">
<title>Node7</title>
<g id="a_node7"><a xlink:href="lin__alg_8c.html#a67ead739705f515285526db604c5bb7d" target="_top" xlink:title="Fill float vector with a scalar value.">
<polygon fill="white" stroke="black" points="135.5,-0.5 135.5,-19.5 224.5,-19.5 224.5,-0.5 135.5,-0.5"/>
<text text-anchor="middle" x="180" y="-7.5" font-family="Helvetica,sans-Serif" font-size="10.00">vec_set_scalar</text>
</a>
</g>
</g>
<!-- Node1&#45;&gt;Node7 -->
<g id="edge6" class="edge">
<title>Node1&#45;&gt;Node7</title>
<path fill="none" stroke="midnightblue" d="M56.17,-95.35C69.97,-79.59 99.39,-48.14 130,-29 133.12,-27.05 136.48,-25.24 139.92,-23.58"/>
<polygon fill="midnightblue" stroke="midnightblue" points="141.38,-26.76 149.11,-19.52 138.55,-20.35 141.38,-26.76"/>
</g>
</g>
</svg>
