<?xml version="1.0" encoding="UTF-8" standalone="no"?>
<!DOCTYPE svg PUBLIC "-//W3C//DTD SVG 1.1//EN"
 "http://www.w3.org/Graphics/SVG/1.1/DTD/svg11.dtd">
<!-- Generated by graphviz version 2.43.0 (0)
 -->
<!-- Title: update_primal_iterate Pages: 1 -->
<!--zoomable 1186 -->
<svg id="main" version="1.1" xmlns="http://www.w3.org/2000/svg" xmlns:xlink="http://www.w3.org/1999/xlink" xml:space="preserve" onload="init(evt)">
<style type="text/css"><![CDATA[
.edge:hover path { stroke: red; }
.edge:hover polygon { stroke: red; fill: red; }
]]></style>
<script type="text/javascript"><![CDATA[
var edges = document.getElementsByTagName('g');
if (edges && edges.length) {
  for (var i=0;i<edges.length;i++) {
    if (edges[i].id.substr(0,4)=='edge') {
      edges[i].setAttribute('class','edge');
    }
  }
}
]]></script>
        <defs>
                <circle id="rim" cx="0" cy="0" r="7"/>
                <circle id="rim2" cx="0" cy="0" r="3.5"/>
                <g id="zoomPlus">
                        <use xlink:href="#rim" fill="#404040">
                                <set attributeName="fill" to="#808080" begin="zoomplus.mouseover" end="zoomplus.mouseout"/>
                        </use>
                        <path d="M-4,0h8M0,-4v8" fill="none" stroke="white" stroke-width="1.5" pointer-events="none"/>
                </g>
                <g id="zoomMin">
                        <use xlink:href="#rim" fill="#404040">
                                <set attributeName="fill" to="#808080" begin="zoomminus.mouseover" end="zoomminus.mouseout"/>
                        </use>
                        <path d="M-4,0h8" fill="none" stroke="white" stroke-width="1.5" pointer-events="none"/>
                </g>
                <g id="dirArrow">
                        <path fill="none" stroke="white" stroke-width="1.5" d="M0,-3.0v7 M-2.5,-0.5L0,-3.0L2.5,-0.5"/>
                </g>
               <g id="resetDef">
                       <use xlink:href="#rim2" fill="#404040">
                               <set attributeName="fill" to="#808080" begin="reset.mouseover" end="reset.mouseout"/>
                       </use>
               </g>
        </defs>

<script type="text/javascript">
var viewWidth = 607;
var viewHeight = 1186;
var sectionId = 'dynsection-13';
</script>
<script xlink:href="svgpan.js"/>
<svg id="graph" class="graph">
<g id="viewport">
<title>update_primal_iterate</title>
<polygon fill="white" stroke="transparent" points="-4,4 -4,-1182.41 603,-1182.41 603,4 -4,4"/>
<!-- Node1 -->
<g id="node1" class="node">
<title>Node1</title>
<g id="a_node1"><a xlink:title="Update the primal iterate.">
<polygon fill="#bfbfbf" stroke="black" points="0,-742.5 0,-761.5 125,-761.5 125,-742.5 0,-742.5"/>
<text text-anchor="middle" x="62.5" y="-749.5" font-family="Helvetica,sans-Serif" font-size="10.00">update_primal_iterate</text>
</a>
</g>
</g>
<!-- Node2 -->
<g id="node2" class="node">
<title>Node2</title>
<g id="a_node2"><a xlink:href="linesearch_8c.html#a647cabae1574f21e412110765ea1e70d" target="_top" xlink:title="Execute exact linesearch (using qsort)">
<polygon fill="white" stroke="black" points="172,-913.5 172,-932.5 271,-932.5 271,-913.5 172,-913.5"/>
<text text-anchor="middle" x="221.5" y="-920.5" font-family="Helvetica,sans-Serif" font-size="10.00">exact_linesearch</text>
</a>
</g>
</g>
<!-- Node1&#45;&gt;Node2 -->
<g id="edge1" class="edge">
<title>Node1&#45;&gt;Node2</title>
<path fill="none" stroke="midnightblue" d="M72.39,-761.68C97.97,-789.55 172.02,-870.2 204.69,-905.78"/>
<polygon fill="midnightblue" stroke="midnightblue" points="202.37,-908.42 211.71,-913.42 207.52,-903.69 202.37,-908.42"/>
</g>
<!-- Node5 -->
<g id="node5" class="node">
<title>Node5</title>
<g id="a_node5"><a xlink:href="lin__alg_8c.html#acf468a60c38fbc58b6de539acb6f0a3b" target="_top" xlink:title="Copy vector a into preallocated vector b.">
<polygon fill="white" stroke="black" points="495,-704.5 495,-723.5 584,-723.5 584,-704.5 495,-704.5"/>
<text text-anchor="middle" x="539.5" y="-711.5" font-family="Helvetica,sans-Serif" font-size="10.00">prea_vec_copy</text>
</a>
</g>
</g>
<!-- Node1&#45;&gt;Node5 -->
<g id="edge39" class="edge">
<title>Node1&#45;&gt;Node5</title>
<path fill="none" stroke="midnightblue" d="M66.89,-761.52C93.16,-834.07 268.19,-1292.85 444,-1151 510.51,-1097.34 532.52,-812.68 537.37,-734.1"/>
<polygon fill="midnightblue" stroke="midnightblue" points="540.89,-733.88 537.99,-723.69 533.91,-733.47 540.89,-733.88"/>
</g>
<!-- Node7 -->
<g id="node7" class="node">
<title>Node7</title>
<g id="a_node7"><a xlink:href="lin__alg_8c.html#a0fde1aeeea954e43db160ec6e3697cd5" target="_top" xlink:title="Scaled addition of one vector to another vector, .">
<polygon fill="white" stroke="black" points="334,-742.5 334,-761.5 428,-761.5 428,-742.5 334,-742.5"/>
<text text-anchor="middle" x="381" y="-749.5" font-family="Helvetica,sans-Serif" font-size="10.00">vec_add_scaled</text>
</a>
</g>
</g>
<!-- Node1&#45;&gt;Node7 -->
<g id="edge40" class="edge">
<title>Node1&#45;&gt;Node7</title>
<path fill="none" stroke="midnightblue" d="M125.28,-752C182.86,-752 267.99,-752 323.73,-752"/>
<polygon fill="midnightblue" stroke="midnightblue" points="323.78,-755.5 333.78,-752 323.78,-748.5 323.78,-755.5"/>
</g>
<!-- Node13 -->
<g id="node13" class="node">
<title>Node13</title>
<g id="a_node13"><a xlink:href="lin__alg_8c.html#a932b289ad07aea70e64b417ef9160674" target="_top" xlink:title="Mulitply vector with a constant scale factor.">
<polygon fill="white" stroke="black" points="480,-232.5 480,-251.5 599,-251.5 599,-232.5 480,-232.5"/>
<text text-anchor="middle" x="539.5" y="-239.5" font-family="Helvetica,sans-Serif" font-size="10.00">vec_self_mult_scalar</text>
</a>
</g>
</g>
<!-- Node1&#45;&gt;Node13 -->
<g id="edge41" class="edge">
<title>Node1&#45;&gt;Node13</title>
<path fill="none" stroke="midnightblue" d="M63.34,-742.25C62.74,-671.21 69.32,-231.45 318,-67 364.71,-36.11 395.91,-38.31 444,-67 458.96,-75.92 509.07,-179.54 529.6,-223"/>
<polygon fill="midnightblue" stroke="midnightblue" points="526.51,-224.66 533.94,-232.21 532.85,-221.68 526.51,-224.66"/>
</g>
<!-- Node14 -->
<g id="node14" class="node">
<title>Node14</title>
<g id="a_node14"><a xlink:href="newton_8c.html#af1654e5597faac8b0ade25acf1fc1bc9" target="_top" xlink:title="Sets work&#45;&gt;d to the direction calculated by the semismooth Newton method.">
<polygon fill="white" stroke="black" points="161,-445.5 161,-464.5 282,-464.5 282,-445.5 161,-445.5"/>
<text text-anchor="middle" x="221.5" y="-452.5" font-family="Helvetica,sans-Serif" font-size="10.00">newton_set_direction</text>
</a>
</g>
</g>
<!-- Node1&#45;&gt;Node14 -->
<g id="edge13" class="edge">
<title>Node1&#45;&gt;Node14</title>
<path fill="none" stroke="midnightblue" d="M68.55,-742.45C90.83,-700.31 180.62,-530.44 210.66,-473.62"/>
<polygon fill="midnightblue" stroke="midnightblue" points="213.81,-475.14 215.39,-464.66 207.63,-471.86 213.81,-475.14"/>
</g>
<!-- Node3 -->
<g id="node3" class="node">
<title>Node3</title>
<g id="a_node3"><a xlink:href="linesearch_8c.html#ac70138609ef6aa6fabca57aca8681e83" target="_top" xlink:title="Helper function for qsort.">
<polygon fill="white" stroke="black" points="351.5,-1008.5 351.5,-1027.5 410.5,-1027.5 410.5,-1008.5 351.5,-1008.5"/>
<text text-anchor="middle" x="381" y="-1015.5" font-family="Helvetica,sans-Serif" font-size="10.00">compare</text>
</a>
</g>
</g>
<!-- Node2&#45;&gt;Node3 -->
<g id="edge2" class="edge">
<title>Node2&#45;&gt;Node3</title>
<path fill="none" stroke="midnightblue" d="M231.93,-932.56C248.14,-948.49 282.94,-980.53 318,-999 325.36,-1002.88 333.65,-1006.1 341.7,-1008.72"/>
<polygon fill="midnightblue" stroke="midnightblue" points="340.75,-1012.09 351.34,-1011.63 342.78,-1005.39 340.75,-1012.09"/>
</g>
<!-- Node4 -->
<g id="node4" class="node">
<title>Node4</title>
<g id="a_node4"><a xlink:href="solver__interface_8c.html#a4824fb035d8cdb8ba46e4ac5c4049d5d" target="_top" xlink:title="Matrix&#45;vector multiplication.">
<polygon fill="white" stroke="black" points="351.5,-780.5 351.5,-799.5 410.5,-799.5 410.5,-780.5 351.5,-780.5"/>
<text text-anchor="middle" x="381" y="-787.5" font-family="Helvetica,sans-Serif" font-size="10.00">mat_vec</text>
</a>
</g>
</g>
<!-- Node2&#45;&gt;Node4 -->
<g id="edge3" class="edge">
<title>Node2&#45;&gt;Node4</title>
<path fill="none" stroke="midnightblue" d="M228.49,-913.46C242.02,-892.64 276.97,-842.7 318,-814 325.21,-808.96 333.61,-804.79 341.87,-801.43"/>
<polygon fill="midnightblue" stroke="midnightblue" points="343.28,-804.64 351.41,-797.84 340.82,-798.08 343.28,-804.64"/>
</g>
<!-- Node2&#45;&gt;Node5 -->
<g id="edge4" class="edge">
<title>Node2&#45;&gt;Node5</title>
<path fill="none" stroke="midnightblue" d="M226.98,-932.78C238.28,-956.14 270.51,-1014.83 318,-1037 368.74,-1060.69 399.19,-1070.58 444,-1037 494.17,-999.4 526.64,-797.84 535.82,-733.65"/>
<polygon fill="midnightblue" stroke="midnightblue" points="539.3,-734.03 537.22,-723.64 532.37,-733.05 539.3,-734.03"/>
</g>
<!-- Node6 -->
<g id="node6" class="node">
<title>Node6</title>
<g id="a_node6"><a xlink:href="linesearch_8c.html#a33a2554aa831be51296f2dafedd076d4" target="_top" xlink:title="Select subsequence based on a set of indices, .">
<polygon fill="white" stroke="black" points="323.5,-932.5 323.5,-951.5 438.5,-951.5 438.5,-932.5 323.5,-932.5"/>
<text text-anchor="middle" x="381" y="-939.5" font-family="Helvetica,sans-Serif" font-size="10.00">select_subsequence</text>
</a>
</g>
</g>
<!-- Node2&#45;&gt;Node6 -->
<g id="edge5" class="edge">
<title>Node2&#45;&gt;Node6</title>
<path fill="none" stroke="midnightblue" d="M271.04,-928.86C284.35,-930.46 299.02,-932.23 313.16,-933.94"/>
<polygon fill="midnightblue" stroke="midnightblue" points="312.99,-937.44 323.34,-935.16 313.83,-930.49 312.99,-937.44"/>
</g>
<!-- Node2&#45;&gt;Node7 -->
<g id="edge6" class="edge">
<title>Node2&#45;&gt;Node7</title>
<path fill="none" stroke="midnightblue" d="M225.89,-913.13C235.66,-886.12 266.54,-810.42 318,-771 320.47,-769.11 323.12,-767.41 325.9,-765.87"/>
<polygon fill="midnightblue" stroke="midnightblue" points="327.55,-768.96 335.09,-761.52 324.55,-762.64 327.55,-768.96"/>
</g>
<!-- Node8 -->
<g id="node8" class="node">
<title>Node8</title>
<g id="a_node8"><a xlink:href="linesearch_8c.html#a21cd94f0684dd9e1bfe7236260e9e8d5" target="_top" xlink:title="Helper function to copy vector a in array b (with indices)">
<polygon fill="white" stroke="black" points="334.5,-894.5 334.5,-913.5 427.5,-913.5 427.5,-894.5 334.5,-894.5"/>
<text text-anchor="middle" x="381" y="-901.5" font-family="Helvetica,sans-Serif" font-size="10.00">vec_array_copy</text>
</a>
</g>
</g>
<!-- Node2&#45;&gt;Node8 -->
<g id="edge7" class="edge">
<title>Node2&#45;&gt;Node8</title>
<path fill="none" stroke="midnightblue" d="M271.04,-917.14C287.89,-915.11 306.91,-912.82 324.29,-910.72"/>
<polygon fill="midnightblue" stroke="midnightblue" points="324.8,-914.18 334.31,-909.51 323.96,-907.23 324.8,-914.18"/>
</g>
<!-- Node9 -->
<g id="node9" class="node">
<title>Node9</title>
<g id="a_node9"><a xlink:href="lin__alg_8c.html#a7b3d3b23f9254b8dc1bf53823ef42b42" target="_top" xlink:title="Elementwise division, .">
<polygon fill="white" stroke="black" points="344,-856.5 344,-875.5 418,-875.5 418,-856.5 344,-856.5"/>
<text text-anchor="middle" x="381" y="-863.5" font-family="Helvetica,sans-Serif" font-size="10.00">vec_ew_div</text>
</a>
</g>
</g>
<!-- Node2&#45;&gt;Node9 -->
<g id="edge8" class="edge">
<title>Node2&#45;&gt;Node9</title>
<path fill="none" stroke="midnightblue" d="M245.07,-913.42C264.3,-905.4 292.75,-893.88 318,-885 324.13,-882.84 330.65,-880.69 337.08,-878.66"/>
<polygon fill="midnightblue" stroke="midnightblue" points="338.51,-881.88 347.02,-875.56 336.43,-875.19 338.51,-881.88"/>
</g>
<!-- Node10 -->
<g id="node10" class="node">
<title>Node10</title>
<g id="a_node10"><a xlink:href="lin__alg_8c.html#ab48ddb2d35dd1a04bd27f06cb49400cb" target="_top" xlink:title="Elementwise product, .">
<polygon fill="white" stroke="black" points="341,-1122.5 341,-1141.5 421,-1141.5 421,-1122.5 341,-1122.5"/>
<text text-anchor="middle" x="381" y="-1129.5" font-family="Helvetica,sans-Serif" font-size="10.00">vec_ew_prod</text>
</a>
</g>
</g>
<!-- Node2&#45;&gt;Node10 -->
<g id="edge9" class="edge">
<title>Node2&#45;&gt;Node10</title>
<path fill="none" stroke="midnightblue" d="M224.49,-932.55C231.46,-963.51 257.63,-1062.03 318,-1113 321.98,-1116.36 326.56,-1119.13 331.37,-1121.41"/>
<polygon fill="midnightblue" stroke="midnightblue" points="330.26,-1124.74 340.84,-1125.22 332.87,-1118.24 330.26,-1124.74"/>
</g>
<!-- Node11 -->
<g id="node11" class="node">
<title>Node11</title>
<g id="a_node11"><a xlink:href="lin__alg_8c.html#ab83e787c2e0edb5803a860b1c894f53d" target="_top" xlink:title="Inner product between two vectors, .">
<polygon fill="white" stroke="black" points="350.5,-1084.5 350.5,-1103.5 411.5,-1103.5 411.5,-1084.5 350.5,-1084.5"/>
<text text-anchor="middle" x="381" y="-1091.5" font-family="Helvetica,sans-Serif" font-size="10.00">vec_prod</text>
</a>
</g>
</g>
<!-- Node2&#45;&gt;Node11 -->
<g id="edge10" class="edge">
<title>Node2&#45;&gt;Node11</title>
<path fill="none" stroke="midnightblue" d="M226.28,-932.73C236.84,-958.69 269.09,-1030.29 318,-1070 324.7,-1075.44 332.77,-1079.75 340.84,-1083.12"/>
<polygon fill="midnightblue" stroke="midnightblue" points="339.65,-1086.41 350.24,-1086.67 342.12,-1079.86 339.65,-1086.41"/>
</g>
<!-- Node12 -->
<g id="node12" class="node">
<title>Node12</title>
<g id="a_node12"><a xlink:href="linesearch_8c.html#ac4bdfc80a644d8c75a672963c7682af9" target="_top" xlink:title="Inner product over index set, .">
<polygon fill="white" stroke="black" points="340.5,-970.5 340.5,-989.5 421.5,-989.5 421.5,-970.5 340.5,-970.5"/>
<text text-anchor="middle" x="381" y="-977.5" font-family="Helvetica,sans-Serif" font-size="10.00">vec_prod_ind</text>
</a>
</g>
</g>
<!-- Node2&#45;&gt;Node12 -->
<g id="edge11" class="edge">
<title>Node2&#45;&gt;Node12</title>
<path fill="none" stroke="midnightblue" d="M245.07,-932.58C264.3,-940.6 292.75,-952.12 318,-961 324.13,-963.16 330.65,-965.31 337.08,-967.34"/>
<polygon fill="midnightblue" stroke="midnightblue" points="336.43,-970.81 347.02,-970.44 338.51,-964.12 336.43,-970.81"/>
</g>
<!-- Node2&#45;&gt;Node13 -->
<g id="edge12" class="edge">
<title>Node2&#45;&gt;Node13</title>
<path fill="none" stroke="midnightblue" d="M231.92,-913.42C248.12,-897.46 282.9,-865.39 318,-847 369.81,-819.86 407.6,-854.78 444,-809 519.95,-713.47 405.06,-357.32 480,-261 480.94,-259.79 481.96,-258.65 483.05,-257.59"/>
<polygon fill="midnightblue" stroke="midnightblue" points="485.19,-260.36 491.08,-251.55 480.98,-254.77 485.19,-260.36"/>
</g>
<!-- Node14&#45;&gt;Node4 -->
<g id="edge28" class="edge">
<title>Node14&#45;&gt;Node4</title>
<path fill="none" stroke="midnightblue" d="M222.36,-464.6C222.26,-507.1 227.6,-680.25 318,-771 324.41,-777.43 332.93,-781.7 341.6,-784.52"/>
<polygon fill="midnightblue" stroke="midnightblue" points="340.78,-787.93 351.35,-787.14 342.6,-781.17 340.78,-787.93"/>
</g>
<!-- Node14&#45;&gt;Node5 -->
<g id="edge30" class="edge">
<title>Node14&#45;&gt;Node5</title>
<path fill="none" stroke="midnightblue" d="M222.95,-464.67C225.26,-501.82 238.99,-636.29 318,-695 365.8,-730.51 436.53,-729.99 484.92,-724.05"/>
<polygon fill="midnightblue" stroke="midnightblue" points="485.44,-727.51 494.89,-722.71 484.51,-720.57 485.44,-727.51"/>
</g>
<!-- Node14&#45;&gt;Node7 -->
<g id="edge35" class="edge">
<title>Node14&#45;&gt;Node7</title>
<path fill="none" stroke="midnightblue" d="M223.06,-464.7C225.8,-503.4 241.01,-648.44 318,-728 321.81,-731.94 326.34,-735.24 331.2,-738.01"/>
<polygon fill="midnightblue" stroke="midnightblue" points="329.68,-741.17 340.2,-742.44 332.77,-734.88 329.68,-741.17"/>
</g>
<!-- Node14&#45;&gt;Node13 -->
<g id="edge38" class="edge">
<title>Node14&#45;&gt;Node13</title>
<path fill="none" stroke="midnightblue" d="M223.29,-445.49C226.73,-410.71 243.84,-290.02 318,-242 372.33,-206.82 451.09,-218.11 498.3,-229.84"/>
<polygon fill="midnightblue" stroke="midnightblue" points="497.6,-233.27 508.16,-232.4 499.37,-226.5 497.6,-233.27"/>
</g>
<!-- Node15 -->
<g id="node15" class="node">
<title>Node15</title>
<g id="a_node15"><a xlink:href="solver__interface_8c.html#aca80eaf7b897030273f1a6820b7e6d38" target="_top" xlink:title="Solve the KKT system .">
<polygon fill="white" stroke="black" points="349,-251.5 349,-270.5 413,-270.5 413,-251.5 349,-251.5"/>
<text text-anchor="middle" x="381" y="-258.5" font-family="Helvetica,sans-Serif" font-size="10.00">kkt_solve</text>
</a>
</g>
</g>
<!-- Node14&#45;&gt;Node15 -->
<g id="edge14" class="edge">
<title>Node14&#45;&gt;Node15</title>
<path fill="none" stroke="midnightblue" d="M224.95,-445.38C232.96,-415.96 261.14,-326.38 318,-280 324.13,-275 331.57,-271.31 339.14,-268.59"/>
<polygon fill="midnightblue" stroke="midnightblue" points="340.18,-271.93 348.71,-265.64 338.12,-265.24 340.18,-271.93"/>
</g>
<!-- Node17 -->
<g id="node17" class="node">
<title>Node17</title>
<g id="a_node17"><a xlink:href="solver__interface_8c.html#a7ab6022f2624a8f13bf8f54067c9f2cd" target="_top" xlink:title="Perform a factorization update for the entering constraints.">
<polygon fill="white" stroke="black" points="322.5,-377 322.5,-407 439.5,-407 439.5,-377 322.5,-377"/>
<text text-anchor="start" x="330.5" y="-395" font-family="Helvetica,sans-Serif" font-size="10.00">kkt_update_entering</text>
<text text-anchor="middle" x="381" y="-384" font-family="Helvetica,sans-Serif" font-size="10.00">_constraints</text>
</a>
</g>
</g>
<!-- Node14&#45;&gt;Node17 -->
<g id="edge18" class="edge">
<title>Node14&#45;&gt;Node17</title>
<path fill="none" stroke="midnightblue" d="M246.42,-445.43C269.31,-436.28 304.46,-422.22 332.95,-410.82"/>
<polygon fill="midnightblue" stroke="midnightblue" points="334.35,-414.03 342.34,-407.07 331.75,-407.53 334.35,-414.03"/>
</g>
<!-- Node18 -->
<g id="node18" class="node">
<title>Node18</title>
<g id="a_node18"><a xlink:href="solver__interface_8c.html#a172614d18d4dd82e001245d7ceea389f" target="_top" xlink:title="Perform a factorization update for the leaving constraints.">
<polygon fill="white" stroke="black" points="324.5,-328 324.5,-358 437.5,-358 437.5,-328 324.5,-328"/>
<text text-anchor="start" x="332.5" y="-346" font-family="Helvetica,sans-Serif" font-size="10.00">kkt_update_leaving</text>
<text text-anchor="middle" x="381" y="-335" font-family="Helvetica,sans-Serif" font-size="10.00">_constraints</text>
</a>
</g>
</g>
<!-- Node14&#45;&gt;Node18 -->
<g id="edge19" class="edge">
<title>Node14&#45;&gt;Node18</title>
<path fill="none" stroke="midnightblue" d="M230.83,-445.43C246.42,-428 281.73,-390.79 318,-368 321.13,-366.03 324.45,-364.17 327.85,-362.41"/>
<polygon fill="midnightblue" stroke="midnightblue" points="329.5,-365.5 336.99,-358.01 326.46,-359.19 329.5,-365.5"/>
</g>
<!-- Node19 -->
<g id="node19" class="node">
<title>Node19</title>
<g id="a_node19"><a xlink:href="solver__interface_8c.html#ab4921dab7206bd333c9e7dc679dce0b1" target="_top" xlink:title="Calculate &#160;factorization of a matrix .">
<polygon fill="white" stroke="black" points="515,-88.5 515,-107.5 564,-107.5 564,-88.5 515,-88.5"/>
<text text-anchor="middle" x="539.5" y="-95.5" font-family="Helvetica,sans-Serif" font-size="10.00">ldlchol</text>
</a>
</g>
</g>
<!-- Node14&#45;&gt;Node19 -->
<g id="edge20" class="edge">
<title>Node14&#45;&gt;Node19</title>
<path fill="none" stroke="midnightblue" d="M223.57,-445.2C228.01,-409.22 248.16,-282.91 318,-214 360.65,-171.91 391.23,-194.41 444,-166 471.81,-151.03 500.88,-129 519.31,-114.11"/>
<polygon fill="midnightblue" stroke="midnightblue" points="521.7,-116.67 527.21,-107.62 517.26,-111.26 521.7,-116.67"/>
</g>
<!-- Node20 -->
<g id="node20" class="node">
<title>Node20</title>
<g id="a_node20"><a xlink:href="solver__interface_8c.html#a972c4868a7391f4b18d836f1ca0810d9" target="_top" xlink:title="Calculate &#160;factorization of , with &#160;and &#160;the set of active constraints.">
<polygon fill="white" stroke="black" points="329,-0.5 329,-19.5 433,-19.5 433,-0.5 329,-0.5"/>
<text text-anchor="middle" x="381" y="-7.5" font-family="Helvetica,sans-Serif" font-size="10.00">ldlcholQAtsigmaA</text>
</a>
</g>
</g>
<!-- Node14&#45;&gt;Node20 -->
<g id="edge21" class="edge">
<title>Node14&#45;&gt;Node20</title>
<path fill="none" stroke="midnightblue" d="M222.86,-445.22C224.98,-399.25 238.51,-201.33 318,-67 327.77,-50.48 343.82,-35.92 357.14,-25.65"/>
<polygon fill="midnightblue" stroke="midnightblue" points="359.45,-28.3 365.41,-19.54 355.29,-22.67 359.45,-28.3"/>
</g>
<!-- Node21 -->
<g id="node21" class="node">
<title>Node21</title>
<g id="a_node21"><a xlink:href="solver__interface_8c.html#a6892fee611934ae5337f1be0235bfc80" target="_top" xlink:title="Downdate the &#160;factorization given a set of leaving constraints.">
<polygon fill="white" stroke="black" points="322,-126 322,-156 440,-156 440,-126 322,-126"/>
<text text-anchor="start" x="330" y="-144" font-family="Helvetica,sans-Serif" font-size="10.00">ldldowndate_leaving</text>
<text text-anchor="middle" x="381" y="-133" font-family="Helvetica,sans-Serif" font-size="10.00">_constraints</text>
</a>
</g>
</g>
<!-- Node14&#45;&gt;Node21 -->
<g id="edge23" class="edge">
<title>Node14&#45;&gt;Node21</title>
<path fill="none" stroke="midnightblue" d="M223.11,-445.36C226.05,-406.24 242,-257.26 318,-171 321.06,-167.52 324.62,-164.41 328.45,-161.64"/>
<polygon fill="midnightblue" stroke="midnightblue" points="330.62,-164.4 337.18,-156.08 326.86,-158.5 330.62,-164.4"/>
</g>
<!-- Node22 -->
<g id="node22" class="node">
<title>Node22</title>
<g id="a_node22"><a xlink:href="solver__interface_8c.html#a03ad73d0e41054e90232d141e73474ab" target="_top" xlink:title="Solve the linear system .">
<polygon fill="white" stroke="black" points="322.5,-289.5 322.5,-308.5 439.5,-308.5 439.5,-289.5 322.5,-289.5"/>
<text text-anchor="middle" x="381" y="-296.5" font-family="Helvetica,sans-Serif" font-size="10.00">ldlsolveLD_neg_dphi</text>
</a>
</g>
</g>
<!-- Node14&#45;&gt;Node22 -->
<g id="edge24" class="edge">
<title>Node14&#45;&gt;Node22</title>
<path fill="none" stroke="midnightblue" d="M226.53,-445.5C237.48,-420.84 270.16,-354.27 318,-319 321.24,-316.61 324.77,-314.51 328.45,-312.64"/>
<polygon fill="midnightblue" stroke="midnightblue" points="330.11,-315.74 337.84,-308.5 327.28,-309.33 330.11,-315.74"/>
</g>
<!-- Node23 -->
<g id="node23" class="node">
<title>Node23</title>
<g id="a_node23"><a xlink:href="solver__interface_8c.html#adee67b7c00941da3be82394e4f58c47e" target="_top" xlink:title="Update the &#160;factorization given a set of entering constraints.">
<polygon fill="white" stroke="black" points="327,-77 327,-107 435,-107 435,-77 327,-77"/>
<text text-anchor="start" x="335" y="-95" font-family="Helvetica,sans-Serif" font-size="10.00">ldlupdate_entering</text>
<text text-anchor="middle" x="381" y="-84" font-family="Helvetica,sans-Serif" font-size="10.00">_constraints</text>
</a>
</g>
</g>
<!-- Node14&#45;&gt;Node23 -->
<g id="edge27" class="edge">
<title>Node14&#45;&gt;Node23</title>
<path fill="none" stroke="midnightblue" d="M222.33,-445.24C222.07,-401.19 226.77,-218.65 318,-117 319.2,-115.66 320.48,-114.4 321.83,-113.2"/>
<polygon fill="midnightblue" stroke="midnightblue" points="324.22,-115.79 330.18,-107.03 320.06,-110.15 324.22,-115.79"/>
</g>
<!-- Node24 -->
<g id="node24" class="node">
<title>Node24</title>
<g id="a_node24"><a xlink:href="lin__alg_8c.html#ade8612cfab1bef397f1ff7a36f202e73" target="_top" xlink:title="Copy integer vector a into preallocated vector b.">
<polygon fill="white" stroke="black" points="327.5,-666.5 327.5,-685.5 434.5,-685.5 434.5,-666.5 327.5,-666.5"/>
<text text-anchor="middle" x="381" y="-673.5" font-family="Helvetica,sans-Serif" font-size="10.00">prea_int_vec_copy</text>
</a>
</g>
</g>
<!-- Node14&#45;&gt;Node24 -->
<g id="edge29" class="edge">
<title>Node14&#45;&gt;Node24</title>
<path fill="none" stroke="midnightblue" d="M224.21,-464.69C230.44,-497.04 254.93,-602.43 318,-657 319.97,-658.71 322.1,-660.26 324.33,-661.68"/>
<polygon fill="midnightblue" stroke="midnightblue" points="322.91,-664.88 333.38,-666.47 326.18,-658.7 322.91,-664.88"/>
</g>
<!-- Node25 -->
<g id="node25" class="node">
<title>Node25</title>
<g id="a_node25"><a xlink:href="solver__interface_8c.html#a1d321f8b340db936d2f62a9abb350600" target="_top" xlink:title="Form the KKT system .">
<polygon fill="white" stroke="black" points="332.5,-628.5 332.5,-647.5 429.5,-647.5 429.5,-628.5 332.5,-628.5"/>
<text text-anchor="middle" x="381" y="-635.5" font-family="Helvetica,sans-Serif" font-size="10.00">qpalm_form_kkt</text>
</a>
</g>
</g>
<!-- Node14&#45;&gt;Node25 -->
<g id="edge31" class="edge">
<title>Node14&#45;&gt;Node25</title>
<path fill="none" stroke="midnightblue" d="M225.39,-464.82C234.25,-493.19 263.79,-576.01 318,-619 320.27,-620.8 322.72,-622.44 325.28,-623.91"/>
<polygon fill="midnightblue" stroke="midnightblue" points="323.81,-627.09 334.33,-628.37 326.9,-620.81 323.81,-627.09"/>
</g>
<!-- Node26 -->
<g id="node26" class="node">
<title>Node26</title>
<g id="a_node26"><a xlink:href="solver__interface_8c.html#ad0f4712f4b0ab25ecca938a1f4b1e0a1" target="_top" xlink:title="Reform the KKT system (i.e.">
<polygon fill="white" stroke="black" points="327.5,-590.5 327.5,-609.5 434.5,-609.5 434.5,-590.5 327.5,-590.5"/>
<text text-anchor="middle" x="381" y="-597.5" font-family="Helvetica,sans-Serif" font-size="10.00">qpalm_reform_kkt</text>
</a>
</g>
</g>
<!-- Node14&#45;&gt;Node26 -->
<g id="edge32" class="edge">
<title>Node14&#45;&gt;Node26</title>
<path fill="none" stroke="midnightblue" d="M227.04,-464.51C238.71,-487.96 272.1,-548.93 318,-581 320.86,-582.99 323.93,-584.78 327.12,-586.39"/>
<polygon fill="midnightblue" stroke="midnightblue" points="325.79,-589.63 336.36,-590.44 328.61,-583.22 325.79,-589.63"/>
</g>
<!-- Node27 -->
<g id="node27" class="node">
<title>Node27</title>
<g id="a_node27"><a xlink:href="newton_8c.html#ae27a99e2b3249e8455b72c2e2a977dd8" target="_top" xlink:title="Computes the set of active constraints and stores it in work&#45;&gt;solver&#45;&gt;active_constraints.">
<polygon fill="white" stroke="black" points="318,-552.5 318,-571.5 444,-571.5 444,-552.5 318,-552.5"/>
<text text-anchor="middle" x="381" y="-559.5" font-family="Helvetica,sans-Serif" font-size="10.00">set_active_constraints</text>
</a>
</g>
</g>
<!-- Node14&#45;&gt;Node27 -->
<g id="edge33" class="edge">
<title>Node14&#45;&gt;Node27</title>
<path fill="none" stroke="midnightblue" d="M230.38,-464.71C245.51,-482.73 280.45,-521.46 318,-543 321.73,-545.14 325.74,-547.07 329.85,-548.8"/>
<polygon fill="midnightblue" stroke="midnightblue" points="328.95,-552.2 339.54,-552.47 331.43,-545.66 328.95,-552.2"/>
</g>
<!-- Node28 -->
<g id="node28" class="node">
<title>Node28</title>
<g id="a_node28"><a xlink:href="newton_8c.html#a43d518127e8561034e35ba18d0e15b31" target="_top" xlink:title="Determines the entering and leaving constraints and stores them in work&#45;&gt;solver&#45;&gt;enter and work&#45;&gt;solv...">
<polygon fill="white" stroke="black" points="321.5,-503 321.5,-533 440.5,-533 440.5,-503 321.5,-503"/>
<text text-anchor="start" x="329.5" y="-521" font-family="Helvetica,sans-Serif" font-size="10.00">set_entering_leaving</text>
<text text-anchor="middle" x="381" y="-510" font-family="Helvetica,sans-Serif" font-size="10.00">_constraints</text>
</a>
</g>
</g>
<!-- Node14&#45;&gt;Node28 -->
<g id="edge34" class="edge">
<title>Node14&#45;&gt;Node28</title>
<path fill="none" stroke="midnightblue" d="M246.42,-464.57C269.31,-473.72 304.46,-487.78 332.95,-499.18"/>
<polygon fill="midnightblue" stroke="midnightblue" points="331.75,-502.47 342.34,-502.93 334.35,-495.97 331.75,-502.47"/>
</g>
<!-- Node29 -->
<g id="node29" class="node">
<title>Node29</title>
<g id="a_node29"><a xlink:href="lin__alg_8c.html#a863f6634d67489350855e97c36c8c59c" target="_top" xlink:title="Scaled addition of one vector to another vector, both being scaled, .">
<polygon fill="white" stroke="black" points="320,-464.5 320,-483.5 442,-483.5 442,-464.5 320,-464.5"/>
<text text-anchor="middle" x="381" y="-471.5" font-family="Helvetica,sans-Serif" font-size="10.00">vec_mult_add_scaled</text>
</a>
</g>
</g>
<!-- Node14&#45;&gt;Node29 -->
<g id="edge36" class="edge">
<title>Node14&#45;&gt;Node29</title>
<path fill="none" stroke="midnightblue" d="M282.04,-462.18C291.13,-463.28 300.58,-464.42 309.86,-465.54"/>
<polygon fill="midnightblue" stroke="midnightblue" points="309.5,-469.02 319.85,-466.74 310.34,-462.07 309.5,-469.02"/>
</g>
<!-- Node30 -->
<g id="node30" class="node">
<title>Node30</title>
<g id="a_node30"><a xlink:href="lin__alg_8c.html#ad69e3ef3b7360cd1d6262ee2f32fce83" target="_top" xlink:title="Infinity norm of a vector, .">
<polygon fill="white" stroke="black" points="339.5,-426.5 339.5,-445.5 422.5,-445.5 422.5,-426.5 339.5,-426.5"/>
<text text-anchor="middle" x="381" y="-433.5" font-family="Helvetica,sans-Serif" font-size="10.00">vec_norm_inf</text>
</a>
</g>
</g>
<!-- Node14&#45;&gt;Node30 -->
<g id="edge37" class="edge">
<title>Node14&#45;&gt;Node30</title>
<path fill="none" stroke="midnightblue" d="M282.04,-447.82C297.62,-445.94 314.25,-443.93 329.32,-442.11"/>
<polygon fill="midnightblue" stroke="midnightblue" points="329.95,-445.56 339.46,-440.89 329.11,-438.61 329.95,-445.56"/>
</g>
<!-- Node15&#45;&gt;Node5 -->
<g id="edge15" class="edge">
<title>Node15&#45;&gt;Node5</title>
<path fill="none" stroke="midnightblue" d="M413.23,-264.03C424.35,-266.63 436.07,-271.38 444,-280 501.37,-342.34 529.87,-617.37 536.8,-694.08"/>
<polygon fill="midnightblue" stroke="midnightblue" points="533.33,-694.61 537.7,-704.27 540.31,-694 533.33,-694.61"/>
</g>
<!-- Node15&#45;&gt;Node13 -->
<g id="edge16" class="edge">
<title>Node15&#45;&gt;Node13</title>
<path fill="none" stroke="midnightblue" d="M413.29,-257.2C429.47,-255.24 449.9,-252.76 469.54,-250.37"/>
<polygon fill="midnightblue" stroke="midnightblue" points="470.21,-253.82 479.71,-249.14 469.36,-246.87 470.21,-253.82"/>
</g>
<!-- Node16 -->
<g id="node16" class="node">
<title>Node16</title>
<g id="a_node16"><a xlink:href="lin__alg_8c.html#a67ead739705f515285526db604c5bb7d" target="_top" xlink:title="Fill float vector with a scalar value.">
<polygon fill="white" stroke="black" points="495,-270.5 495,-289.5 584,-289.5 584,-270.5 495,-270.5"/>
<text text-anchor="middle" x="539.5" y="-277.5" font-family="Helvetica,sans-Serif" font-size="10.00">vec_set_scalar</text>
</a>
</g>
</g>
<!-- Node15&#45;&gt;Node16 -->
<g id="edge17" class="edge">
<title>Node15&#45;&gt;Node16</title>
<path fill="none" stroke="midnightblue" d="M413.29,-264.8C433.74,-267.28 460.98,-270.59 484.83,-273.48"/>
<polygon fill="midnightblue" stroke="midnightblue" points="484.46,-276.97 494.81,-274.7 485.31,-270.02 484.46,-276.97"/>
</g>
<!-- Node20&#45;&gt;Node19 -->
<g id="edge22" class="edge">
<title>Node20&#45;&gt;Node19</title>
<path fill="none" stroke="midnightblue" d="M410.68,-19.56C421.37,-23.52 433.47,-28.49 444,-34 470.97,-48.12 499.61,-68.35 518.2,-82.27"/>
<polygon fill="midnightblue" stroke="midnightblue" points="516.15,-85.1 526.23,-88.35 520.38,-79.52 516.15,-85.1"/>
</g>
<!-- Node22&#45;&gt;Node5 -->
<g id="edge25" class="edge">
<title>Node22&#45;&gt;Node5</title>
<path fill="none" stroke="midnightblue" d="M429.75,-308.64C435.07,-311.3 440,-314.68 444,-319 496.18,-375.37 527.99,-621.89 536.31,-694.07"/>
<polygon fill="midnightblue" stroke="midnightblue" points="532.88,-694.9 537.48,-704.45 539.83,-694.12 532.88,-694.9"/>
</g>
<!-- Node22&#45;&gt;Node13 -->
<g id="edge26" class="edge">
<title>Node22&#45;&gt;Node13</title>
<path fill="none" stroke="midnightblue" d="M417.17,-289.48C426.04,-286.74 435.47,-283.52 444,-280 460.72,-273.1 463.34,-268.04 480,-261 485.1,-258.84 490.54,-256.78 495.97,-254.86"/>
<polygon fill="midnightblue" stroke="midnightblue" points="497.3,-258.11 505.65,-251.58 495.05,-251.48 497.3,-258.11"/>
</g>
</g>
</svg>
        <g id="navigator" transform="translate(0 0)" fill="#404254">
                <rect fill="#f2f5e9" fill-opacity="0.5" stroke="#606060" stroke-width=".5" x="0" y="0" width="60" height="60"/>
                <use id="zoomplus" xlink:href="#zoomPlus" x="17" y="9" onmousedown="handleZoom(evt,'in')"/>
                <use id="zoomminus" xlink:href="#zoomMin" x="42" y="9" onmousedown="handleZoom(evt,'out')"/>
                <use id="reset" xlink:href="#resetDef" x="30" y="36" onmousedown="handleReset()"/>
                <g id="arrowUp" xlink:href="#dirArrow" transform="translate(30 24)" onmousedown="handlePan(0,-1)">
                  <use xlink:href="#rim" fill="#404040">
                        <set attributeName="fill" to="#808080" begin="arrowUp.mouseover" end="arrowUp.mouseout"/>
                  </use>
                  <path fill="none" stroke="white" stroke-width="1.5" d="M0,-3.0v7 M-2.5,-0.5L0,-3.0L2.5,-0.5"/>
                </g>
                <g id="arrowRight" xlink:href="#dirArrow" transform="rotate(90) translate(36 -43)" onmousedown="handlePan(1,0)">
                  <use xlink:href="#rim" fill="#404040">
                        <set attributeName="fill" to="#808080" begin="arrowRight.mouseover" end="arrowRight.mouseout"/>
                  </use>
                  <path fill="none" stroke="white" stroke-width="1.5" d="M0,-3.0v7 M-2.5,-0.5L0,-3.0L2.5,-0.5"/>
                </g>
                <g id="arrowDown" xlink:href="#dirArrow" transform="rotate(180) translate(-30 -48)" onmousedown="handlePan(0,1)">
                  <use xlink:href="#rim" fill="#404040">
                        <set attributeName="fill" to="#808080" begin="arrowDown.mouseover" end="arrowDown.mouseout"/>
                  </use>
                  <path fill="none" stroke="white" stroke-width="1.5" d="M0,-3.0v7 M-2.5,-0.5L0,-3.0L2.5,-0.5"/>
                </g>
                <g id="arrowLeft" xlink:href="#dirArrow" transform="rotate(270) translate(-36 17)" onmousedown="handlePan(-1,0)">
                  <use xlink:href="#rim" fill="#404040">
                        <set attributeName="fill" to="#808080" begin="arrowLeft.mouseover" end="arrowLeft.mouseout"/>
                  </use>
                  <path fill="none" stroke="white" stroke-width="1.5" d="M0,-3.0v7 M-2.5,-0.5L0,-3.0L2.5,-0.5"/>
                </g>
        </g>
        <svg viewBox="0 0 15 15" width="100%" height="30px" preserveAspectRatio="xMaxYMin meet">
         <g id="arrow_out" transform="scale(0.3 0.3)">
          <a xlink:href="iteration_8h_a9c9fafac9ce099122c5a594762e5a052_cgraph_org.svg" target="_base">
           <rect id="button" ry="5" rx="5" y="6" x="6" height="38" width="38"
                fill="#f2f5e9" fill-opacity="0.5" stroke="#606060" stroke-width="1.0"/>
           <path id="arrow"
             d="M 11.500037,31.436501 C 11.940474,20.09759 22.043105,11.32322 32.158766,21.979434 L 37.068811,17.246167 C 37.068811,17.246167 37.088388,32 37.088388,32 L 22.160133,31.978069 C 22.160133,31.978069 26.997745,27.140456 26.997745,27.140456 C 18.528582,18.264221 13.291696,25.230495 11.500037,31.436501 z"
             style="fill:#404040;"/>
          </a>
         </g>
        </svg>
</svg>
