<?xml version="1.0" encoding="UTF-8" standalone="no"?>
<!DOCTYPE svg PUBLIC "-//W3C//DTD SVG 1.1//EN"
 "http://www.w3.org/Graphics/SVG/1.1/DTD/svg11.dtd">
<!-- Generated by graphviz version 2.43.0 (0)
 -->
<!-- Title: update_or_boost_gamma Pages: 1 -->
<svg width="441pt" height="230pt"
 viewBox="0.00 0.00 441.00 230.00" xmlns="http://www.w3.org/2000/svg" xmlns:xlink="http://www.w3.org/1999/xlink">
<g id="graph0" class="graph" transform="scale(1 1) rotate(0) translate(4 226)">
<title>update_or_boost_gamma</title>
<polygon fill="white" stroke="transparent" points="-4,4 -4,-226 437,-226 437,4 -4,4"/>
<!-- Node1 -->
<g id="node1" class="node">
<title>Node1</title>
<g id="a_node1"><a xlink:title=" ">
<polygon fill="#bfbfbf" stroke="black" points="0,-104.5 0,-123.5 140,-123.5 140,-104.5 0,-104.5"/>
<text text-anchor="middle" x="70" y="-111.5" font-family="Helvetica,sans-Serif" font-size="10.00">update_or_boost_gamma</text>
</a>
</g>
</g>
<!-- Node2 -->
<g id="node2" class="node">
<title>Node2</title>
<g id="a_node2"><a xlink:href="iteration_8c.html#addf0e547cbd4fd4b3bda2c1adccf22c8" target="_top" xlink:title="Maximize the proximal penalty.">
<polygon fill="white" stroke="black" points="196,-202.5 196,-221.5 282,-221.5 282,-202.5 196,-202.5"/>
<text text-anchor="middle" x="239" y="-209.5" font-family="Helvetica,sans-Serif" font-size="10.00">boost_gamma</text>
</a>
</g>
</g>
<!-- Node1&#45;&gt;Node2 -->
<g id="edge1" class="edge">
<title>Node1&#45;&gt;Node2</title>
<path fill="none" stroke="midnightblue" d="M82.66,-123.67C101.41,-138.88 139.83,-168.63 176,-188 183.38,-191.95 191.55,-195.59 199.48,-198.78"/>
<polygon fill="midnightblue" stroke="midnightblue" points="198.36,-202.1 208.95,-202.43 200.88,-195.56 198.36,-202.1"/>
</g>
<!-- Node4 -->
<g id="node4" class="node">
<title>Node4</title>
<g id="a_node4"><a xlink:href="lin__alg_8c.html#a0fde1aeeea954e43db160ec6e3697cd5" target="_top" xlink:title="Scaled addition of one vector to another vector, .">
<polygon fill="white" stroke="black" points="338.5,-164.5 338.5,-183.5 432.5,-183.5 432.5,-164.5 338.5,-164.5"/>
<text text-anchor="middle" x="385.5" y="-171.5" font-family="Helvetica,sans-Serif" font-size="10.00">vec_add_scaled</text>
</a>
</g>
</g>
<!-- Node1&#45;&gt;Node4 -->
<g id="edge8" class="edge">
<title>Node1&#45;&gt;Node4</title>
<path fill="none" stroke="midnightblue" d="M90.59,-123.58C111.29,-133.24 145.14,-147.72 176,-155 226.66,-166.95 285.88,-171.47 328.23,-173.14"/>
<polygon fill="midnightblue" stroke="midnightblue" points="328.23,-176.64 338.35,-173.5 328.48,-169.65 328.23,-176.64"/>
</g>
<!-- Node5 -->
<g id="node5" class="node">
<title>Node5</title>
<g id="a_node5"><a xlink:href="newton_8c.html#ae27a99e2b3249e8455b72c2e2a977dd8" target="_top" xlink:title="Computes the set of active constraints and stores it in work&#45;&gt;solver&#45;&gt;active_constraints.">
<polygon fill="white" stroke="black" points="176,-126.5 176,-145.5 302,-145.5 302,-126.5 176,-126.5"/>
<text text-anchor="middle" x="239" y="-133.5" font-family="Helvetica,sans-Serif" font-size="10.00">set_active_constraints</text>
</a>
</g>
</g>
<!-- Node1&#45;&gt;Node5 -->
<g id="edge4" class="edge">
<title>Node1&#45;&gt;Node5</title>
<path fill="none" stroke="midnightblue" d="M140.37,-123.14C148.72,-124.24 157.26,-125.36 165.65,-126.47"/>
<polygon fill="midnightblue" stroke="midnightblue" points="165.41,-129.97 175.78,-127.8 166.32,-123.03 165.41,-129.97"/>
</g>
<!-- Node6 -->
<g id="node6" class="node">
<title>Node6</title>
<g id="a_node6"><a xlink:href="newton_8c.html#a43d518127e8561034e35ba18d0e15b31" target="_top" xlink:title="Determines the entering and leaving constraints and stores them in work&#45;&gt;solver&#45;&gt;enter and work&#45;&gt;solv...">
<polygon fill="white" stroke="black" points="179.5,-77 179.5,-107 298.5,-107 298.5,-77 179.5,-77"/>
<text text-anchor="start" x="187.5" y="-95" font-family="Helvetica,sans-Serif" font-size="10.00">set_entering_leaving</text>
<text text-anchor="middle" x="239" y="-84" font-family="Helvetica,sans-Serif" font-size="10.00">_constraints</text>
</a>
</g>
</g>
<!-- Node1&#45;&gt;Node6 -->
<g id="edge5" class="edge">
<title>Node1&#45;&gt;Node6</title>
<path fill="none" stroke="midnightblue" d="M140.37,-104.86C149.91,-103.6 159.71,-102.31 169.24,-101.06"/>
<polygon fill="midnightblue" stroke="midnightblue" points="170,-104.49 179.46,-99.71 169.09,-97.55 170,-104.49"/>
</g>
<!-- Node7 -->
<g id="node7" class="node">
<title>Node7</title>
<g id="a_node7"><a xlink:href="iteration_8c.html#a2493eaf6f46fae7e188477e427acfece" target="_top" xlink:title="Update the proximal penalty.">
<polygon fill="white" stroke="black" points="192.5,-38.5 192.5,-57.5 285.5,-57.5 285.5,-38.5 192.5,-38.5"/>
<text text-anchor="middle" x="239" y="-45.5" font-family="Helvetica,sans-Serif" font-size="10.00">update_gamma</text>
</a>
</g>
</g>
<!-- Node1&#45;&gt;Node7 -->
<g id="edge6" class="edge">
<title>Node1&#45;&gt;Node7</title>
<path fill="none" stroke="midnightblue" d="M90.44,-104.43C111.29,-94.37 145.52,-78.44 176,-67 181.95,-64.77 188.29,-62.6 194.56,-60.57"/>
<polygon fill="midnightblue" stroke="midnightblue" points="195.79,-63.85 204.28,-57.51 193.69,-57.17 195.79,-63.85"/>
</g>
<!-- Node8 -->
<g id="node8" class="node">
<title>Node8</title>
<g id="a_node8"><a xlink:href="lin__alg_8c.html#a7b3d3b23f9254b8dc1bf53823ef42b42" target="_top" xlink:title="Elementwise division, .">
<polygon fill="white" stroke="black" points="202,-0.5 202,-19.5 276,-19.5 276,-0.5 202,-0.5"/>
<text text-anchor="middle" x="239" y="-7.5" font-family="Helvetica,sans-Serif" font-size="10.00">vec_ew_div</text>
</a>
</g>
</g>
<!-- Node1&#45;&gt;Node8 -->
<g id="edge9" class="edge">
<title>Node1&#45;&gt;Node8</title>
<path fill="none" stroke="midnightblue" d="M80.22,-104.41C97.47,-87 136.45,-50.04 176,-29 181.16,-26.26 186.77,-23.84 192.44,-21.74"/>
<polygon fill="midnightblue" stroke="midnightblue" points="193.64,-25.03 201.98,-18.49 191.38,-18.41 193.64,-25.03"/>
</g>
<!-- Node3 -->
<g id="node3" class="node">
<title>Node3</title>
<g id="a_node3"><a xlink:href="nonconvex_8c.html#ab2a80b1d0a937afe2f6731b182ed63ac" target="_top" xlink:title="Calculate the Gershgorin upper bound for the eigenvalues of a symmetric matrix.">
<polygon fill="white" stroke="black" points="338,-202.5 338,-221.5 433,-221.5 433,-202.5 338,-202.5"/>
<text text-anchor="middle" x="385.5" y="-209.5" font-family="Helvetica,sans-Serif" font-size="10.00">gershgorin_max</text>
</a>
</g>
</g>
<!-- Node2&#45;&gt;Node3 -->
<g id="edge2" class="edge">
<title>Node2&#45;&gt;Node3</title>
<path fill="none" stroke="midnightblue" d="M282.18,-212C296.4,-212 312.5,-212 327.66,-212"/>
<polygon fill="midnightblue" stroke="midnightblue" points="327.96,-215.5 337.96,-212 327.96,-208.5 327.96,-215.5"/>
</g>
<!-- Node2&#45;&gt;Node4 -->
<g id="edge3" class="edge">
<title>Node2&#45;&gt;Node4</title>
<path fill="none" stroke="midnightblue" d="M276.46,-202.41C295.27,-197.46 318.41,-191.38 338.45,-186.11"/>
<polygon fill="midnightblue" stroke="midnightblue" points="339.52,-189.45 348.3,-183.52 337.74,-182.68 339.52,-189.45"/>
</g>
<!-- Node7&#45;&gt;Node4 -->
<g id="edge7" class="edge">
<title>Node7&#45;&gt;Node4</title>
<path fill="none" stroke="midnightblue" d="M283.61,-57.6C290.09,-60.07 296.45,-63.15 302,-67 335.58,-90.25 361.65,-131.38 374.89,-155.3"/>
<polygon fill="midnightblue" stroke="midnightblue" points="371.95,-157.24 379.76,-164.4 378.12,-153.93 371.95,-157.24"/>
</g>
</g>
</svg>
