<?xml version="1.0" encoding="UTF-8" standalone="no"?>
<!DOCTYPE svg PUBLIC "-//W3C//DTD SVG 1.1//EN"
 "http://www.w3.org/Graphics/SVG/1.1/DTD/svg11.dtd">
<!-- Generated by graphviz version 2.43.0 (0)
 -->
<!-- Title: QPALM/src/linesearch.c Pages: 1 -->
<svg width="259pt" height="308pt"
 viewBox="0.00 0.00 259.00 308.00" xmlns="http://www.w3.org/2000/svg" xmlns:xlink="http://www.w3.org/1999/xlink">
<g id="graph0" class="graph" transform="scale(1 1) rotate(0) translate(4 304)">
<title>QPALM/src/linesearch.c</title>
<polygon fill="white" stroke="transparent" points="-4,4 -4,-304 255,-304 255,4 -4,4"/>
<!-- Node1 -->
<g id="node1" class="node">
<title>Node1</title>
<g id="a_node1"><a xlink:title="Routines to perform exact or backtracking linesearch.">
<polygon fill="#bfbfbf" stroke="black" points="81.5,-280.5 81.5,-299.5 210.5,-299.5 210.5,-280.5 81.5,-280.5"/>
<text text-anchor="middle" x="146" y="-287.5" font-family="Helvetica,sans-Serif" font-size="10.00">QPALM/src/linesearch.c</text>
</a>
</g>
</g>
<!-- Node2 -->
<g id="node2" class="node">
<title>Node2</title>
<g id="a_node2"><a xlink:href="linesearch_8h.html" target="_top" xlink:title="Routines to perform exact linesearch.">
<polygon fill="white" stroke="black" points="0,-168.5 0,-187.5 76,-187.5 76,-168.5 0,-168.5"/>
<text text-anchor="middle" x="38" y="-175.5" font-family="Helvetica,sans-Serif" font-size="10.00">linesearch.h</text>
</a>
</g>
</g>
<!-- Node1&#45;&gt;Node2 -->
<g id="edge1" class="edge">
<title>Node1&#45;&gt;Node2</title>
<path fill="none" stroke="midnightblue" d="M137.53,-280.37C119.39,-261.89 76.58,-218.29 53.46,-194.74"/>
<polygon fill="midnightblue" stroke="midnightblue" points="55.94,-192.28 46.44,-187.59 50.94,-197.18 55.94,-192.28"/>
</g>
<!-- Node8 -->
<g id="node8" class="node">
<title>Node8</title>
<g id="a_node8"><a xlink:href="lin__alg_8h.html" target="_top" xlink:title="Linear algebra with vectors.">
<polygon fill="white" stroke="black" points="117,-224.5 117,-243.5 175,-243.5 175,-224.5 117,-224.5"/>
<text text-anchor="middle" x="146" y="-231.5" font-family="Helvetica,sans-Serif" font-size="10.00">lin_alg.h</text>
</a>
</g>
</g>
<!-- Node1&#45;&gt;Node8 -->
<g id="edge9" class="edge">
<title>Node1&#45;&gt;Node8</title>
<path fill="none" stroke="midnightblue" d="M146,-280.08C146,-273.01 146,-262.86 146,-253.99"/>
<polygon fill="midnightblue" stroke="midnightblue" points="149.5,-253.75 146,-243.75 142.5,-253.75 149.5,-253.75"/>
</g>
<!-- Node10 -->
<g id="node10" class="node">
<title>Node10</title>
<g id="a_node10"><a xlink:title=" ">
<polygon fill="white" stroke="#bfbfbf" points="193.5,-224.5 193.5,-243.5 246.5,-243.5 246.5,-224.5 193.5,-224.5"/>
<text text-anchor="middle" x="220" y="-231.5" font-family="Helvetica,sans-Serif" font-size="10.00">stdlib.h</text>
</a>
</g>
</g>
<!-- Node1&#45;&gt;Node10 -->
<g id="edge16" class="edge">
<title>Node1&#45;&gt;Node10</title>
<path fill="none" stroke="midnightblue" d="M157.89,-280.32C169.15,-272.11 186.29,-259.6 199.71,-249.81"/>
<polygon fill="midnightblue" stroke="midnightblue" points="201.88,-252.56 207.89,-243.83 197.75,-246.9 201.88,-252.56"/>
</g>
<!-- Node3 -->
<g id="node3" class="node">
<title>Node3</title>
<g id="a_node3"><a xlink:href="types_8h.html" target="_top" xlink:title="Internal data structures used in QPALM.">
<polygon fill="white" stroke="black" points="131.5,-112.5 131.5,-131.5 184.5,-131.5 184.5,-112.5 131.5,-112.5"/>
<text text-anchor="middle" x="158" y="-119.5" font-family="Helvetica,sans-Serif" font-size="10.00">types.h</text>
</a>
</g>
</g>
<!-- Node2&#45;&gt;Node3 -->
<g id="edge2" class="edge">
<title>Node2&#45;&gt;Node3</title>
<path fill="none" stroke="midnightblue" d="M57.01,-168.44C76.59,-159.64 107.31,-145.81 129.73,-135.72"/>
<polygon fill="midnightblue" stroke="midnightblue" points="131.39,-138.81 139.07,-131.52 128.52,-132.43 131.39,-138.81"/>
</g>
<!-- Node7 -->
<g id="node7" class="node">
<title>Node7</title>
<g id="a_node7"><a xlink:href="constants_8h.html" target="_top" xlink:title="Constants used in QPALM.">
<polygon fill="white" stroke="black" points="1.5,-112.5 1.5,-131.5 74.5,-131.5 74.5,-112.5 1.5,-112.5"/>
<text text-anchor="middle" x="38" y="-119.5" font-family="Helvetica,sans-Serif" font-size="10.00">constants.h</text>
</a>
</g>
</g>
<!-- Node2&#45;&gt;Node7 -->
<g id="edge7" class="edge">
<title>Node2&#45;&gt;Node7</title>
<path fill="none" stroke="midnightblue" d="M38,-168.08C38,-161.01 38,-150.86 38,-141.99"/>
<polygon fill="midnightblue" stroke="midnightblue" points="41.5,-141.75 38,-131.75 34.5,-141.75 41.5,-141.75"/>
</g>
<!-- Node4 -->
<g id="node4" class="node">
<title>Node4</title>
<g id="a_node4"><a xlink:href="global__opts_8h.html" target="_top" xlink:title="Custom memory allocation, print and utility functions, and data types for floats and ints.">
<polygon fill="white" stroke="black" points="169,-56.5 169,-75.5 251,-75.5 251,-56.5 169,-56.5"/>
<text text-anchor="middle" x="210" y="-63.5" font-family="Helvetica,sans-Serif" font-size="10.00">global_opts.h</text>
</a>
</g>
</g>
<!-- Node3&#45;&gt;Node4 -->
<g id="edge3" class="edge">
<title>Node3&#45;&gt;Node4</title>
<path fill="none" stroke="midnightblue" d="M166.59,-112.08C174.16,-104.22 185.38,-92.57 194.51,-83.08"/>
<polygon fill="midnightblue" stroke="midnightblue" points="197.16,-85.38 201.57,-75.75 192.12,-80.53 197.16,-85.38"/>
</g>
<!-- Node5 -->
<g id="node5" class="node">
<title>Node5</title>
<g id="a_node5"><a xlink:title=" ">
<polygon fill="white" stroke="#bfbfbf" points="97,-0.5 97,-19.5 147,-19.5 147,-0.5 97,-0.5"/>
<text text-anchor="middle" x="122" y="-7.5" font-family="Helvetica,sans-Serif" font-size="10.00">ladel.h</text>
</a>
</g>
</g>
<!-- Node3&#45;&gt;Node5 -->
<g id="edge6" class="edge">
<title>Node3&#45;&gt;Node5</title>
<path fill="none" stroke="midnightblue" d="M155.18,-112.37C149.34,-94.54 135.84,-53.3 127.98,-29.27"/>
<polygon fill="midnightblue" stroke="midnightblue" points="131.25,-28.01 124.81,-19.59 124.6,-30.18 131.25,-28.01"/>
</g>
<!-- Node4&#45;&gt;Node5 -->
<g id="edge4" class="edge">
<title>Node4&#45;&gt;Node5</title>
<path fill="none" stroke="midnightblue" d="M195.86,-56.32C182.13,-47.9 161.06,-34.97 144.94,-25.07"/>
<polygon fill="midnightblue" stroke="midnightblue" points="146.46,-21.9 136.1,-19.65 142.8,-27.87 146.46,-21.9"/>
</g>
<!-- Node6 -->
<g id="node6" class="node">
<title>Node6</title>
<g id="a_node6"><a xlink:title=" ">
<polygon fill="white" stroke="#bfbfbf" points="184.5,-0.5 184.5,-19.5 235.5,-19.5 235.5,-0.5 184.5,-0.5"/>
<text text-anchor="middle" x="210" y="-7.5" font-family="Helvetica,sans-Serif" font-size="10.00">math.h</text>
</a>
</g>
</g>
<!-- Node4&#45;&gt;Node6 -->
<g id="edge5" class="edge">
<title>Node4&#45;&gt;Node6</title>
<path fill="none" stroke="midnightblue" d="M210,-56.08C210,-49.01 210,-38.86 210,-29.99"/>
<polygon fill="midnightblue" stroke="midnightblue" points="213.5,-29.75 210,-19.75 206.5,-29.75 213.5,-29.75"/>
</g>
<!-- Node7&#45;&gt;Node5 -->
<g id="edge8" class="edge">
<title>Node7&#45;&gt;Node5</title>
<path fill="none" stroke="midnightblue" d="M44.59,-112.37C58.52,-94.14 91.13,-51.43 109.27,-27.68"/>
<polygon fill="midnightblue" stroke="midnightblue" points="112.15,-29.66 115.44,-19.59 106.59,-25.41 112.15,-29.66"/>
</g>
<!-- Node8&#45;&gt;Node3 -->
<g id="edge10" class="edge">
<title>Node8&#45;&gt;Node3</title>
<path fill="none" stroke="midnightblue" d="M165.91,-224.41C180.22,-217.04 198.46,-204.92 207,-188 216.55,-169.09 198.12,-150.05 181.2,-137.5"/>
<polygon fill="midnightblue" stroke="midnightblue" points="182.86,-134.39 172.65,-131.57 178.87,-140.15 182.86,-134.39"/>
</g>
<!-- Node9 -->
<g id="node9" class="node">
<title>Node9</title>
<g id="a_node9"><a xlink:href="solver__interface_8h.html" target="_top" xlink:title="Interface and wrapper to matrix/factorization (ladel) functions.">
<polygon fill="white" stroke="black" points="94,-168.5 94,-187.5 198,-187.5 198,-168.5 94,-168.5"/>
<text text-anchor="middle" x="146" y="-175.5" font-family="Helvetica,sans-Serif" font-size="10.00">solver_interface.h</text>
</a>
</g>
</g>
<!-- Node8&#45;&gt;Node9 -->
<g id="edge11" class="edge">
<title>Node8&#45;&gt;Node9</title>
<path fill="none" stroke="midnightblue" d="M146,-224.08C146,-217.01 146,-206.86 146,-197.99"/>
<polygon fill="midnightblue" stroke="midnightblue" points="149.5,-197.75 146,-187.75 142.5,-197.75 149.5,-197.75"/>
</g>
<!-- Node9&#45;&gt;Node3 -->
<g id="edge14" class="edge">
<title>Node9&#45;&gt;Node3</title>
<path fill="none" stroke="midnightblue" d="M147.98,-168.08C149.57,-160.93 151.86,-150.64 153.85,-141.69"/>
<polygon fill="midnightblue" stroke="midnightblue" points="157.3,-142.27 156.06,-131.75 150.47,-140.75 157.3,-142.27"/>
</g>
<!-- Node9&#45;&gt;Node4 -->
<g id="edge12" class="edge">
<title>Node9&#45;&gt;Node4</title>
<path fill="none" stroke="midnightblue" d="M158.56,-168.49C169.55,-160.38 185.11,-147.18 194,-132 202.35,-117.74 206.36,-99.27 208.27,-85.66"/>
<polygon fill="midnightblue" stroke="midnightblue" points="211.77,-85.91 209.44,-75.58 204.81,-85.11 211.77,-85.91"/>
</g>
<!-- Node9&#45;&gt;Node5 -->
<g id="edge15" class="edge">
<title>Node9&#45;&gt;Node5</title>
<path fill="none" stroke="midnightblue" d="M139.92,-168.18C134.29,-159.45 126.3,-145.46 123,-132 114.36,-96.76 116.92,-53.98 119.51,-29.89"/>
<polygon fill="midnightblue" stroke="midnightblue" points="123.02,-30.02 120.73,-19.68 116.07,-29.19 123.02,-30.02"/>
</g>
<!-- Node9&#45;&gt;Node7 -->
<g id="edge13" class="edge">
<title>Node9&#45;&gt;Node7</title>
<path fill="none" stroke="midnightblue" d="M128.65,-168.32C111.33,-159.66 84.48,-146.24 64.5,-136.25"/>
<polygon fill="midnightblue" stroke="midnightblue" points="65.82,-133 55.31,-131.65 62.69,-139.26 65.82,-133"/>
</g>
</g>
</svg>
