<?xml version="1.0" encoding="UTF-8" standalone="no"?>
<!DOCTYPE svg PUBLIC "-//W3C//DTD SVG 1.1//EN"
 "http://www.w3.org/Graphics/SVG/1.1/DTD/svg11.dtd">
<!-- Generated by graphviz version 2.43.0 (0)
 -->
<!-- Title: compare Pages: 1 -->
<svg width="363pt" height="28pt"
 viewBox="0.00 0.00 363.00 28.00" xmlns="http://www.w3.org/2000/svg" xmlns:xlink="http://www.w3.org/1999/xlink">
<g id="graph0" class="graph" transform="scale(1 1) rotate(0) translate(4 24)">
<title>compare</title>
<polygon fill="white" stroke="transparent" points="-4,4 -4,-24 359,-24 359,4 -4,4"/>
<!-- Node1 -->
<g id="node1" class="node">
<title>Node1</title>
<g id="a_node1"><a xlink:title="Helper function for qsort.">
<polygon fill="#bfbfbf" stroke="black" points="296,-0.5 296,-19.5 355,-19.5 355,-0.5 296,-0.5"/>
<text text-anchor="middle" x="325.5" y="-7.5" font-family="Helvetica,sans-Serif" font-size="10.00">compare</text>
</a>
</g>
</g>
<!-- Node2 -->
<g id="node2" class="node">
<title>Node2</title>
<g id="a_node2"><a xlink:href="linesearch_8c.html#a647cabae1574f21e412110765ea1e70d" target="_top" xlink:title="Execute exact linesearch (using qsort)">
<polygon fill="white" stroke="black" points="161,-0.5 161,-19.5 260,-19.5 260,-0.5 161,-0.5"/>
<text text-anchor="middle" x="210.5" y="-7.5" font-family="Helvetica,sans-Serif" font-size="10.00">exact_linesearch</text>
</a>
</g>
</g>
<!-- Node1&#45;&gt;Node2 -->
<g id="edge1" class="edge">
<title>Node1&#45;&gt;Node2</title>
<path fill="none" stroke="midnightblue" d="M285.89,-10C277.64,-10 268.81,-10 260.23,-10"/>
<polygon fill="midnightblue" stroke="midnightblue" points="285.99,-13.5 295.99,-10 285.99,-6.5 285.99,-13.5"/>
</g>
<!-- Node3 -->
<g id="node3" class="node">
<title>Node3</title>
<g id="a_node3"><a xlink:href="iteration_8c.html#a9c9fafac9ce099122c5a594762e5a052" target="_top" xlink:title="Update the primal iterate.">
<polygon fill="white" stroke="black" points="0,-0.5 0,-19.5 125,-19.5 125,-0.5 0,-0.5"/>
<text text-anchor="middle" x="62.5" y="-7.5" font-family="Helvetica,sans-Serif" font-size="10.00">update_primal_iterate</text>
</a>
</g>
</g>
<!-- Node2&#45;&gt;Node3 -->
<g id="edge2" class="edge">
<title>Node2&#45;&gt;Node3</title>
<path fill="none" stroke="midnightblue" d="M150.76,-10C142.33,-10 133.64,-10 125.15,-10"/>
<polygon fill="midnightblue" stroke="midnightblue" points="150.88,-13.5 160.88,-10 150.88,-6.5 150.88,-13.5"/>
</g>
</g>
</svg>
