<?xml version="1.0" encoding="UTF-8" standalone="no"?>
<!DOCTYPE svg PUBLIC "-//W3C//DTD SVG 1.1//EN"
 "http://www.w3.org/Graphics/SVG/1.1/DTD/svg11.dtd">
<!-- Generated by graphviz version 2.43.0 (0)
 -->
<!-- Title: QPALM/include/solver_interface.h Pages: 1 -->
<svg width="258pt" height="207pt"
 viewBox="0.00 0.00 257.50 207.00" xmlns="http://www.w3.org/2000/svg" xmlns:xlink="http://www.w3.org/1999/xlink">
<g id="graph0" class="graph" transform="scale(1 1) rotate(0) translate(4 203)">
<title>QPALM/include/solver_interface.h</title>
<polygon fill="white" stroke="transparent" points="-4,4 -4,-203 253.5,-203 253.5,4 -4,4"/>
<!-- Node1 -->
<g id="node1" class="node">
<title>Node1</title>
<g id="a_node1"><a xlink:title="Interface and wrapper to matrix/factorization (ladel) functions.">
<polygon fill="#bfbfbf" stroke="black" points="67.5,-168.5 67.5,-198.5 189.5,-198.5 189.5,-168.5 67.5,-168.5"/>
<text text-anchor="start" x="75.5" y="-186.5" font-family="Helvetica,sans-Serif" font-size="10.00">QPALM/include/solver</text>
<text text-anchor="middle" x="128.5" y="-175.5" font-family="Helvetica,sans-Serif" font-size="10.00">_interface.h</text>
</a>
</g>
</g>
<!-- Node2 -->
<g id="node2" class="node">
<title>Node2</title>
<g id="a_node2"><a xlink:href="global__opts_8h.html" target="_top" xlink:title="Custom memory allocation, print and utility functions, and data types for floats and ints.">
<polygon fill="white" stroke="black" points="167.5,-56.5 167.5,-75.5 249.5,-75.5 249.5,-56.5 167.5,-56.5"/>
<text text-anchor="middle" x="208.5" y="-63.5" font-family="Helvetica,sans-Serif" font-size="10.00">global_opts.h</text>
</a>
</g>
</g>
<!-- Node1&#45;&gt;Node2 -->
<g id="edge1" class="edge">
<title>Node1&#45;&gt;Node2</title>
<path fill="none" stroke="midnightblue" d="M153.46,-168.47C166.94,-159.66 182.77,-147.11 192.5,-132 201.45,-118.11 205.39,-99.59 207.13,-85.88"/>
<polygon fill="midnightblue" stroke="midnightblue" points="210.64,-85.99 208.13,-75.7 203.67,-85.3 210.64,-85.99"/>
</g>
<!-- Node3 -->
<g id="node3" class="node">
<title>Node3</title>
<g id="a_node3"><a xlink:title=" ">
<polygon fill="white" stroke="#bfbfbf" points="95.5,-0.5 95.5,-19.5 145.5,-19.5 145.5,-0.5 95.5,-0.5"/>
<text text-anchor="middle" x="120.5" y="-7.5" font-family="Helvetica,sans-Serif" font-size="10.00">ladel.h</text>
</a>
</g>
</g>
<!-- Node1&#45;&gt;Node3 -->
<g id="edge9" class="edge">
<title>Node1&#45;&gt;Node3</title>
<path fill="none" stroke="midnightblue" d="M126.05,-168.4C124.41,-158.3 122.4,-144.36 121.5,-132 118.85,-95.81 119.32,-53.37 119.91,-29.59"/>
<polygon fill="midnightblue" stroke="midnightblue" points="123.41,-29.62 120.19,-19.52 116.41,-29.42 123.41,-29.62"/>
</g>
<!-- Node5 -->
<g id="node5" class="node">
<title>Node5</title>
<g id="a_node5"><a xlink:href="constants_8h.html" target="_top" xlink:title="Constants used in QPALM.">
<polygon fill="white" stroke="black" points="0,-56.5 0,-75.5 73,-75.5 73,-56.5 0,-56.5"/>
<text text-anchor="middle" x="36.5" y="-63.5" font-family="Helvetica,sans-Serif" font-size="10.00">constants.h</text>
</a>
</g>
</g>
<!-- Node1&#45;&gt;Node5 -->
<g id="edge4" class="edge">
<title>Node1&#45;&gt;Node5</title>
<path fill="none" stroke="midnightblue" d="M116.95,-168.4C108.7,-158.3 97.36,-144.36 87.5,-132 74.56,-115.79 59.96,-97.15 49.71,-84"/>
<polygon fill="midnightblue" stroke="midnightblue" points="52.29,-81.61 43.38,-75.87 46.76,-85.91 52.29,-81.61"/>
</g>
<!-- Node6 -->
<g id="node6" class="node">
<title>Node6</title>
<g id="a_node6"><a xlink:href="types_8h.html" target="_top" xlink:title="Internal data structures used in QPALM.">
<polygon fill="white" stroke="black" points="130,-112.5 130,-131.5 183,-131.5 183,-112.5 130,-112.5"/>
<text text-anchor="middle" x="156.5" y="-119.5" font-family="Helvetica,sans-Serif" font-size="10.00">types.h</text>
</a>
</g>
</g>
<!-- Node1&#45;&gt;Node6 -->
<g id="edge6" class="edge">
<title>Node1&#45;&gt;Node6</title>
<path fill="none" stroke="midnightblue" d="M135.14,-168.4C139.04,-160.11 144,-149.55 148.17,-140.71"/>
<polygon fill="midnightblue" stroke="midnightblue" points="151.33,-142.2 152.43,-131.66 145,-139.22 151.33,-142.2"/>
</g>
<!-- Node2&#45;&gt;Node3 -->
<g id="edge2" class="edge">
<title>Node2&#45;&gt;Node3</title>
<path fill="none" stroke="midnightblue" d="M194.36,-56.32C180.63,-47.9 159.56,-34.97 143.44,-25.07"/>
<polygon fill="midnightblue" stroke="midnightblue" points="144.96,-21.9 134.6,-19.65 141.3,-27.87 144.96,-21.9"/>
</g>
<!-- Node4 -->
<g id="node4" class="node">
<title>Node4</title>
<g id="a_node4"><a xlink:title=" ">
<polygon fill="white" stroke="#bfbfbf" points="183,-0.5 183,-19.5 234,-19.5 234,-0.5 183,-0.5"/>
<text text-anchor="middle" x="208.5" y="-7.5" font-family="Helvetica,sans-Serif" font-size="10.00">math.h</text>
</a>
</g>
</g>
<!-- Node2&#45;&gt;Node4 -->
<g id="edge3" class="edge">
<title>Node2&#45;&gt;Node4</title>
<path fill="none" stroke="midnightblue" d="M208.5,-56.08C208.5,-49.01 208.5,-38.86 208.5,-29.99"/>
<polygon fill="midnightblue" stroke="midnightblue" points="212,-29.75 208.5,-19.75 205,-29.75 212,-29.75"/>
</g>
<!-- Node5&#45;&gt;Node3 -->
<g id="edge5" class="edge">
<title>Node5&#45;&gt;Node3</title>
<path fill="none" stroke="midnightblue" d="M50,-56.32C63.1,-47.9 83.21,-34.97 98.61,-25.07"/>
<polygon fill="midnightblue" stroke="midnightblue" points="100.52,-28.01 107.04,-19.65 96.73,-22.12 100.52,-28.01"/>
</g>
<!-- Node6&#45;&gt;Node2 -->
<g id="edge7" class="edge">
<title>Node6&#45;&gt;Node2</title>
<path fill="none" stroke="midnightblue" d="M165.09,-112.08C172.66,-104.22 183.88,-92.57 193.01,-83.08"/>
<polygon fill="midnightblue" stroke="midnightblue" points="195.66,-85.38 200.07,-75.75 190.62,-80.53 195.66,-85.38"/>
</g>
<!-- Node6&#45;&gt;Node3 -->
<g id="edge8" class="edge">
<title>Node6&#45;&gt;Node3</title>
<path fill="none" stroke="midnightblue" d="M153.68,-112.37C147.84,-94.54 134.34,-53.3 126.48,-29.27"/>
<polygon fill="midnightblue" stroke="midnightblue" points="129.75,-28.01 123.31,-19.59 123.1,-30.18 129.75,-28.01"/>
</g>
</g>
</svg>
