<?xml version="1.0" encoding="UTF-8" standalone="no"?>
<!DOCTYPE svg PUBLIC "-//W3C//DTD SVG 1.1//EN"
 "http://www.w3.org/Graphics/SVG/1.1/DTD/svg11.dtd">
<!-- Generated by graphviz version 2.43.0 (0)
 -->
<!-- Title: calculate_dual_tolerances Pages: 1 -->
<svg width="270pt" height="66pt"
 viewBox="0.00 0.00 270.00 66.00" xmlns="http://www.w3.org/2000/svg" xmlns:xlink="http://www.w3.org/1999/xlink">
<g id="graph0" class="graph" transform="scale(1 1) rotate(0) translate(4 62)">
<title>calculate_dual_tolerances</title>
<polygon fill="white" stroke="transparent" points="-4,4 -4,-62 266,-62 266,4 -4,4"/>
<!-- Node1 -->
<g id="node1" class="node">
<title>Node1</title>
<g id="a_node1"><a xlink:title="Calculates the dual tolerance for the problem and current subproblem and stores them in work&#45;&gt;eps_dua...">
<polygon fill="#bfbfbf" stroke="black" points="0,-19.5 0,-38.5 143,-38.5 143,-19.5 0,-19.5"/>
<text text-anchor="middle" x="71.5" y="-26.5" font-family="Helvetica,sans-Serif" font-size="10.00">calculate_dual_tolerances</text>
</a>
</g>
</g>
<!-- Node2 -->
<g id="node2" class="node">
<title>Node2</title>
<g id="a_node2"><a xlink:href="lin__alg_8c.html#ab48ddb2d35dd1a04bd27f06cb49400cb" target="_top" xlink:title="Elementwise product, .">
<polygon fill="white" stroke="black" points="180.5,-38.5 180.5,-57.5 260.5,-57.5 260.5,-38.5 180.5,-38.5"/>
<text text-anchor="middle" x="220.5" y="-45.5" font-family="Helvetica,sans-Serif" font-size="10.00">vec_ew_prod</text>
</a>
</g>
</g>
<!-- Node1&#45;&gt;Node2 -->
<g id="edge1" class="edge">
<title>Node1&#45;&gt;Node2</title>
<path fill="none" stroke="midnightblue" d="M143.42,-38.17C152.39,-39.33 161.42,-40.49 169.97,-41.6"/>
<polygon fill="midnightblue" stroke="midnightblue" points="169.75,-45.1 180.11,-42.91 170.64,-38.16 169.75,-45.1"/>
</g>
<!-- Node3 -->
<g id="node3" class="node">
<title>Node3</title>
<g id="a_node3"><a xlink:href="lin__alg_8c.html#ad69e3ef3b7360cd1d6262ee2f32fce83" target="_top" xlink:title="Infinity norm of a vector, .">
<polygon fill="white" stroke="black" points="179,-0.5 179,-19.5 262,-19.5 262,-0.5 179,-0.5"/>
<text text-anchor="middle" x="220.5" y="-7.5" font-family="Helvetica,sans-Serif" font-size="10.00">vec_norm_inf</text>
</a>
</g>
</g>
<!-- Node1&#45;&gt;Node3 -->
<g id="edge2" class="edge">
<title>Node1&#45;&gt;Node3</title>
<path fill="none" stroke="midnightblue" d="M143.42,-19.83C151.99,-18.73 160.6,-17.61 168.8,-16.55"/>
<polygon fill="midnightblue" stroke="midnightblue" points="169.45,-20 178.92,-15.24 168.55,-13.06 169.45,-20"/>
</g>
</g>
</svg>
