<?xml version="1.0" encoding="UTF-8" standalone="no"?>
<!DOCTYPE svg PUBLIC "-//W3C//DTD SVG 1.1//EN"
 "http://www.w3.org/Graphics/SVG/1.1/DTD/svg11.dtd">
<!-- Generated by graphviz version 2.43.0 (0)
 -->
<!-- Title: qpalm::Solver::update_Q_A Pages: 1 -->
<svg width="429pt" height="104pt"
 viewBox="0.00 0.00 429.00 104.00" xmlns="http://www.w3.org/2000/svg" xmlns:xlink="http://www.w3.org/1999/xlink">
<g id="graph0" class="graph" transform="scale(1 1) rotate(0) translate(4 100)">
<title>qpalm::Solver::update_Q_A</title>
<polygon fill="white" stroke="transparent" points="-4,4 -4,-100 425,-100 425,4 -4,4"/>
<!-- Node1 -->
<g id="node1" class="node">
<title>Node1</title>
<g id="a_node1"><a xlink:title=" ">
<polygon fill="#bfbfbf" stroke="black" points="0,-38.5 0,-57.5 149,-57.5 149,-38.5 0,-38.5"/>
<text text-anchor="middle" x="74.5" y="-45.5" font-family="Helvetica,sans-Serif" font-size="10.00">qpalm::Solver::update_Q_A</text>
</a>
</g>
</g>
<!-- Node2 -->
<g id="node2" class="node">
<title>Node2</title>
<g id="a_node2"><a xlink:href="group__solver-grp.html#ga327c43b0d2f129fc32e8ef2a47e289af" target="_top" xlink:title="Update the matrix entries of Q and A.">
<polygon fill="white" stroke="black" points="185,-38.5 185,-57.5 296,-57.5 296,-38.5 185,-38.5"/>
<text text-anchor="middle" x="240.5" y="-45.5" font-family="Helvetica,sans-Serif" font-size="10.00">qpalm_update_Q_A</text>
</a>
</g>
</g>
<!-- Node1&#45;&gt;Node2 -->
<g id="edge1" class="edge">
<title>Node1&#45;&gt;Node2</title>
<path fill="none" stroke="midnightblue" d="M149.34,-48C157.81,-48 166.39,-48 174.72,-48"/>
<polygon fill="midnightblue" stroke="midnightblue" points="174.73,-51.5 184.73,-48 174.73,-44.5 174.73,-51.5"/>
</g>
<!-- Node3 -->
<g id="node3" class="node">
<title>Node3</title>
<g id="a_node3"><a xlink:href="lin__alg_8c.html#acf468a60c38fbc58b6de539acb6f0a3b" target="_top" xlink:title="Copy vector a into preallocated vector b.">
<polygon fill="white" stroke="black" points="332,-76.5 332,-95.5 421,-95.5 421,-76.5 332,-76.5"/>
<text text-anchor="middle" x="376.5" y="-83.5" font-family="Helvetica,sans-Serif" font-size="10.00">prea_vec_copy</text>
</a>
</g>
</g>
<!-- Node2&#45;&gt;Node3 -->
<g id="edge2" class="edge">
<title>Node2&#45;&gt;Node3</title>
<path fill="none" stroke="midnightblue" d="M275.31,-57.59C292.53,-62.47 313.66,-68.46 332.07,-73.68"/>
<polygon fill="midnightblue" stroke="midnightblue" points="331.12,-77.05 341.7,-76.41 333.03,-70.32 331.12,-77.05"/>
</g>
<!-- Node4 -->
<g id="node4" class="node">
<title>Node4</title>
<g id="a_node4"><a xlink:href="util_8h.html#aae57226ec767e15f27d88e97df093b41" target="_top" xlink:title="Start timer.">
<polygon fill="white" stroke="black" points="344,-38.5 344,-57.5 409,-57.5 409,-38.5 344,-38.5"/>
<text text-anchor="middle" x="376.5" y="-45.5" font-family="Helvetica,sans-Serif" font-size="10.00">qpalm_tic</text>
</a>
</g>
</g>
<!-- Node2&#45;&gt;Node4 -->
<g id="edge3" class="edge">
<title>Node2&#45;&gt;Node4</title>
<path fill="none" stroke="midnightblue" d="M296,-48C308.56,-48 321.72,-48 333.64,-48"/>
<polygon fill="midnightblue" stroke="midnightblue" points="333.74,-51.5 343.74,-48 333.74,-44.5 333.74,-51.5"/>
</g>
<!-- Node5 -->
<g id="node5" class="node">
<title>Node5</title>
<g id="a_node5"><a xlink:href="util_8h.html#a6eecdaf6f3f1c4bf0ab1067a5e7e69da" target="_top" xlink:title="Report time in seconds since last call to qpalm_tic.">
<polygon fill="white" stroke="black" points="342.5,-0.5 342.5,-19.5 410.5,-19.5 410.5,-0.5 342.5,-0.5"/>
<text text-anchor="middle" x="376.5" y="-7.5" font-family="Helvetica,sans-Serif" font-size="10.00">qpalm_toc</text>
</a>
</g>
</g>
<!-- Node2&#45;&gt;Node5 -->
<g id="edge4" class="edge">
<title>Node2&#45;&gt;Node5</title>
<path fill="none" stroke="midnightblue" d="M275.31,-38.41C292.66,-33.49 313.99,-27.44 332.49,-22.2"/>
<polygon fill="midnightblue" stroke="midnightblue" points="333.5,-25.55 342.16,-19.45 331.59,-18.82 333.5,-25.55"/>
</g>
</g>
</svg>
