<?xml version="1.0" encoding="UTF-8" standalone="no"?>
<!DOCTYPE svg PUBLIC "-//W3C//DTD SVG 1.1//EN"
 "http://www.w3.org/Graphics/SVG/1.1/DTD/svg11.dtd">
<!-- Generated by graphviz version 2.43.0 (0)
 -->
<!-- Title: QPALM/interfaces Pages: 1 -->
<svg width="266pt" height="175pt"
 viewBox="0.00 0.00 266.00 175.00" xmlns="http://www.w3.org/2000/svg" xmlns:xlink="http://www.w3.org/1999/xlink">
<g id="graph0" class="graph" transform="scale(1 1) rotate(0) translate(4 171)">
<title>QPALM/interfaces</title>
<polygon fill="white" stroke="transparent" points="-4,4 -4,-171 262,-171 262,4 -4,4"/>
<g id="clust1" class="cluster">
<title>clusterdir_4541c9856ab846cdae324de488ddad2d</title>
<g id="a_clust1"><a xlink:href="dir_4541c9856ab846cdae324de488ddad2d.html" target="_top" xlink:title="QPALM">
<polygon fill="#edf0f7" stroke="#404040" stroke-dasharray="5,2" points="8,-8 8,-159 250,-159 250,-8 8,-8"/>
<text text-anchor="middle" x="129" y="-147" font-family="Helvetica,sans-Serif" font-size="10.00">QPALM</text>
</a>
</g>
</g>
<g id="clust2" class="cluster">
<title>clusterdir_8b15fb9d6dffcbc1d5093abc1af0be36</title>
<g id="a_clust2"><a xlink:href="dir_8b15fb9d6dffcbc1d5093abc1af0be36.html" target="_top">
<polygon fill="#edf0f7" stroke="#404040" stroke-width="2" points="16,-80 16,-132 242,-132 242,-80 16,-80"/>
</a>
</g>
</g>
<!-- dir_ab6c2c68d98b9838edd2eccfd20c8bdb -->
<g id="node1" class="node">
<title>dir_ab6c2c68d98b9838edd2eccfd20c8bdb</title>
<g id="a_node1"><a xlink:href="dir_ab6c2c68d98b9838edd2eccfd20c8bdb.html" target="_top" xlink:title="include">
<polygon fill="#a2b4d6" stroke="#404040" points="114,-52 60,-52 60,-16 114,-16 114,-52"/>
<text text-anchor="middle" x="87" y="-31.5" font-family="Helvetica,sans-Serif" font-size="10.00">include</text>
</a>
</g>
</g>
<!-- dir_8b15fb9d6dffcbc1d5093abc1af0be36 -->
<g id="node2" class="node">
<title>dir_8b15fb9d6dffcbc1d5093abc1af0be36</title>
<text text-anchor="middle" x="201" y="-103.5" font-family="Helvetica,sans-Serif" font-size="10.00">interfaces</text>
</g>
<!-- dir_a7b370e73e7f9092687d114874d9816a -->
<g id="node3" class="node">
<title>dir_a7b370e73e7f9092687d114874d9816a</title>
<g id="a_node3"><a xlink:href="dir_a7b370e73e7f9092687d114874d9816a.html" target="_top" xlink:title="cxx">
<polygon fill="#a2b4d6" stroke="#404040" points="150,-124 96,-124 96,-88 150,-88 150,-124"/>
<text text-anchor="middle" x="123" y="-103.5" font-family="Helvetica,sans-Serif" font-size="10.00">cxx</text>
</a>
</g>
</g>
<!-- dir_a7b370e73e7f9092687d114874d9816a&#45;&gt;dir_ab6c2c68d98b9838edd2eccfd20c8bdb -->
<g id="edge1" class="edge">
<title>dir_a7b370e73e7f9092687d114874d9816a&#45;&gt;dir_ab6c2c68d98b9838edd2eccfd20c8bdb</title>
<path fill="none" stroke="black" d="M114.1,-87.7C110,-79.73 105.05,-70.1 100.51,-61.26"/>
<polygon fill="black" stroke="black" points="103.48,-59.4 95.8,-52.1 97.26,-62.6 103.48,-59.4"/>
<g id="a_edge1&#45;headlabel"><a xlink:href="dir_000000_000005.html" target="_top" xlink:title="3">
<text text-anchor="middle" x="107.65" y="-58.79" font-family="Helvetica,sans-Serif" font-size="10.00">3</text>
</a>
</g>
</g>
<!-- dir_0c1b941419656183a4d95f028c76f6e4 -->
<g id="node4" class="node">
<title>dir_0c1b941419656183a4d95f028c76f6e4</title>
<g id="a_node4"><a xlink:href="dir_0c1b941419656183a4d95f028c76f6e4.html" target="_top" xlink:title="fortran">
<polygon fill="#a2b4d6" stroke="#404040" points="78,-124 24,-124 24,-88 78,-88 78,-124"/>
<text text-anchor="middle" x="51" y="-103.5" font-family="Helvetica,sans-Serif" font-size="10.00">fortran</text>
</a>
</g>
</g>
<!-- dir_0c1b941419656183a4d95f028c76f6e4&#45;&gt;dir_ab6c2c68d98b9838edd2eccfd20c8bdb -->
<g id="edge2" class="edge">
<title>dir_0c1b941419656183a4d95f028c76f6e4&#45;&gt;dir_ab6c2c68d98b9838edd2eccfd20c8bdb</title>
<path fill="none" stroke="black" d="M59.9,-87.7C64,-79.73 68.95,-70.1 73.49,-61.26"/>
<polygon fill="black" stroke="black" points="76.74,-62.6 78.2,-52.1 70.52,-59.4 76.74,-62.6"/>
<g id="a_edge2&#45;headlabel"><a xlink:href="dir_000004_000005.html" target="_top" xlink:title="1">
<text text-anchor="middle" x="77.62" y="-64.59" font-family="Helvetica,sans-Serif" font-size="10.00">1</text>
</a>
</g>
</g>
</g>
</svg>
