<?xml version="1.0" encoding="UTF-8" standalone="no"?>
<!DOCTYPE svg PUBLIC "-//W3C//DTD SVG 1.1//EN"
 "http://www.w3.org/Graphics/SVG/1.1/DTD/svg11.dtd">
<!-- Generated by graphviz version 2.43.0 (0)
 -->
<!-- Title: compute_residuals Pages: 1 -->
<svg width="253pt" height="142pt"
 viewBox="0.00 0.00 253.00 142.00" xmlns="http://www.w3.org/2000/svg" xmlns:xlink="http://www.w3.org/1999/xlink">
<g id="graph0" class="graph" transform="scale(1 1) rotate(0) translate(4 138)">
<title>compute_residuals</title>
<polygon fill="white" stroke="transparent" points="-4,4 -4,-138 249,-138 249,4 -4,4"/>
<!-- Node1 -->
<g id="node1" class="node">
<title>Node1</title>
<g id="a_node1"><a xlink:title="Compute the residuals (in vector form)">
<polygon fill="#bfbfbf" stroke="black" points="0,-57.5 0,-76.5 109,-76.5 109,-57.5 0,-57.5"/>
<text text-anchor="middle" x="54.5" y="-64.5" font-family="Helvetica,sans-Serif" font-size="10.00">compute_residuals</text>
</a>
</g>
</g>
<!-- Node2 -->
<g id="node2" class="node">
<title>Node2</title>
<g id="a_node2"><a xlink:href="solver__interface_8c.html#aa0574481a6dc6221dd3b9562f8c54cd5" target="_top" xlink:title="Matrix&#45;transpose&#45;vector multiplication.">
<polygon fill="white" stroke="black" points="149.5,-114.5 149.5,-133.5 240.5,-133.5 240.5,-114.5 149.5,-114.5"/>
<text text-anchor="middle" x="195" y="-121.5" font-family="Helvetica,sans-Serif" font-size="10.00">mat_tpose_vec</text>
</a>
</g>
</g>
<!-- Node1&#45;&gt;Node2 -->
<g id="edge1" class="edge">
<title>Node1&#45;&gt;Node2</title>
<path fill="none" stroke="midnightblue" d="M77.49,-76.56C95.56,-84.37 121.85,-95.6 145,-105 149.74,-106.92 154.75,-108.92 159.69,-110.86"/>
<polygon fill="midnightblue" stroke="midnightblue" points="158.42,-114.12 169.01,-114.49 160.96,-107.6 158.42,-114.12"/>
</g>
<!-- Node3 -->
<g id="node3" class="node">
<title>Node3</title>
<g id="a_node3"><a xlink:href="lin__alg_8c.html#a0fde1aeeea954e43db160ec6e3697cd5" target="_top" xlink:title="Scaled addition of one vector to another vector, .">
<polygon fill="white" stroke="black" points="148,-76.5 148,-95.5 242,-95.5 242,-76.5 148,-76.5"/>
<text text-anchor="middle" x="195" y="-83.5" font-family="Helvetica,sans-Serif" font-size="10.00">vec_add_scaled</text>
</a>
</g>
</g>
<!-- Node1&#45;&gt;Node3 -->
<g id="edge2" class="edge">
<title>Node1&#45;&gt;Node3</title>
<path fill="none" stroke="midnightblue" d="M109.05,-74.35C118.44,-75.63 128.24,-76.98 137.7,-78.28"/>
<polygon fill="midnightblue" stroke="midnightblue" points="137.42,-81.77 147.8,-79.66 138.37,-74.84 137.42,-81.77"/>
</g>
<!-- Node4 -->
<g id="node4" class="node">
<title>Node4</title>
<g id="a_node4"><a xlink:href="lin__alg_8c.html#a93df027e9826a479bf77a0770817c71a" target="_top" xlink:title="Elementwise mid between vectors, .">
<polygon fill="white" stroke="black" points="145,-38.5 145,-57.5 245,-57.5 245,-38.5 145,-38.5"/>
<text text-anchor="middle" x="195" y="-45.5" font-family="Helvetica,sans-Serif" font-size="10.00">vec_ew_mid_vec</text>
</a>
</g>
</g>
<!-- Node1&#45;&gt;Node4 -->
<g id="edge3" class="edge">
<title>Node1&#45;&gt;Node4</title>
<path fill="none" stroke="midnightblue" d="M109.05,-59.65C117.38,-58.51 126.04,-57.32 134.49,-56.16"/>
<polygon fill="midnightblue" stroke="midnightblue" points="135.24,-59.59 144.67,-54.77 134.29,-52.66 135.24,-59.59"/>
</g>
<!-- Node5 -->
<g id="node5" class="node">
<title>Node5</title>
<g id="a_node5"><a xlink:href="lin__alg_8c.html#ab48ddb2d35dd1a04bd27f06cb49400cb" target="_top" xlink:title="Elementwise product, .">
<polygon fill="white" stroke="black" points="155,-0.5 155,-19.5 235,-19.5 235,-0.5 155,-0.5"/>
<text text-anchor="middle" x="195" y="-7.5" font-family="Helvetica,sans-Serif" font-size="10.00">vec_ew_prod</text>
</a>
</g>
</g>
<!-- Node1&#45;&gt;Node5 -->
<g id="edge4" class="edge">
<title>Node1&#45;&gt;Node5</title>
<path fill="none" stroke="midnightblue" d="M77.49,-57.44C95.56,-49.63 121.85,-38.4 145,-29 149.74,-27.08 154.75,-25.08 159.69,-23.14"/>
<polygon fill="midnightblue" stroke="midnightblue" points="160.96,-26.4 169.01,-19.51 158.42,-19.88 160.96,-26.4"/>
</g>
</g>
</svg>
