<?xml version="1.0" encoding="UTF-8" standalone="no"?>
<!DOCTYPE svg PUBLIC "-//W3C//DTD SVG 1.1//EN"
 "http://www.w3.org/Graphics/SVG/1.1/DTD/svg11.dtd">
<!-- Generated by graphviz version 2.43.0 (0)
 -->
<!-- Title: update_proximal_point_and_penalty Pages: 1 -->
<svg width="606pt" height="230pt"
 viewBox="0.00 0.00 606.00 230.00" xmlns="http://www.w3.org/2000/svg" xmlns:xlink="http://www.w3.org/1999/xlink">
<g id="graph0" class="graph" transform="scale(1 1) rotate(0) translate(4 226)">
<title>update_proximal_point_and_penalty</title>
<polygon fill="white" stroke="transparent" points="-4,4 -4,-226 602,-226 602,4 -4,4"/>
<!-- Node1 -->
<g id="node1" class="node">
<title>Node1</title>
<g id="a_node1"><a xlink:title=" ">
<polygon fill="#bfbfbf" stroke="black" points="0,-80 0,-110 129,-110 129,-80 0,-80"/>
<text text-anchor="start" x="8" y="-98" font-family="Helvetica,sans-Serif" font-size="10.00">update_proximal_point</text>
<text text-anchor="middle" x="64.5" y="-87" font-family="Helvetica,sans-Serif" font-size="10.00">_and_penalty</text>
</a>
</g>
</g>
<!-- Node2 -->
<g id="node2" class="node">
<title>Node2</title>
<g id="a_node2"><a xlink:href="lin__alg_8c.html#acf468a60c38fbc58b6de539acb6f0a3b" target="_top" xlink:title="Copy vector a into preallocated vector b.">
<polygon fill="white" stroke="black" points="190.5,-142.5 190.5,-161.5 279.5,-161.5 279.5,-142.5 190.5,-142.5"/>
<text text-anchor="middle" x="235" y="-149.5" font-family="Helvetica,sans-Serif" font-size="10.00">prea_vec_copy</text>
</a>
</g>
</g>
<!-- Node1&#45;&gt;Node2 -->
<g id="edge1" class="edge">
<title>Node1&#45;&gt;Node2</title>
<path fill="none" stroke="midnightblue" d="M102.52,-110.11C121.12,-117.45 144.09,-126.15 165,-133 172.14,-135.34 179.76,-137.64 187.23,-139.78"/>
<polygon fill="midnightblue" stroke="midnightblue" points="186.35,-143.16 196.92,-142.49 188.24,-136.42 186.35,-143.16"/>
</g>
<!-- Node3 -->
<g id="node3" class="node">
<title>Node3</title>
<g id="a_node3"><a xlink:href="iteration_8c.html#a95e8560aaf51a2c4f68de9b65b0c6a15" target="_top" xlink:title=" ">
<polygon fill="white" stroke="black" points="165,-104.5 165,-123.5 305,-123.5 305,-104.5 165,-104.5"/>
<text text-anchor="middle" x="235" y="-111.5" font-family="Helvetica,sans-Serif" font-size="10.00">update_or_boost_gamma</text>
</a>
</g>
</g>
<!-- Node1&#45;&gt;Node3 -->
<g id="edge2" class="edge">
<title>Node1&#45;&gt;Node3</title>
<path fill="none" stroke="midnightblue" d="M129.2,-102.18C137.58,-103.13 146.24,-104.1 154.83,-105.07"/>
<polygon fill="midnightblue" stroke="midnightblue" points="154.53,-108.56 164.86,-106.2 155.31,-101.61 154.53,-108.56"/>
</g>
<!-- Node11 -->
<g id="node11" class="node">
<title>Node11</title>
<g id="a_node11"><a xlink:href="lin__alg_8c.html#ab48ddb2d35dd1a04bd27f06cb49400cb" target="_top" xlink:title="Elementwise product, .">
<polygon fill="white" stroke="black" points="195,-66.5 195,-85.5 275,-85.5 275,-66.5 195,-66.5"/>
<text text-anchor="middle" x="235" y="-73.5" font-family="Helvetica,sans-Serif" font-size="10.00">vec_ew_prod</text>
</a>
</g>
</g>
<!-- Node1&#45;&gt;Node11 -->
<g id="edge12" class="edge">
<title>Node1&#45;&gt;Node11</title>
<path fill="none" stroke="midnightblue" d="M129.2,-87.82C147.42,-85.76 167,-83.56 184.24,-81.61"/>
<polygon fill="midnightblue" stroke="midnightblue" points="185.1,-85.04 194.65,-80.44 184.32,-78.08 185.1,-85.04"/>
</g>
<!-- Node12 -->
<g id="node12" class="node">
<title>Node12</title>
<g id="a_node12"><a xlink:href="lin__alg_8c.html#ad69e3ef3b7360cd1d6262ee2f32fce83" target="_top" xlink:title="Infinity norm of a vector, .">
<polygon fill="white" stroke="black" points="193.5,-28.5 193.5,-47.5 276.5,-47.5 276.5,-28.5 193.5,-28.5"/>
<text text-anchor="middle" x="235" y="-35.5" font-family="Helvetica,sans-Serif" font-size="10.00">vec_norm_inf</text>
</a>
</g>
</g>
<!-- Node1&#45;&gt;Node12 -->
<g id="edge13" class="edge">
<title>Node1&#45;&gt;Node12</title>
<path fill="none" stroke="midnightblue" d="M102.52,-79.89C121.12,-72.55 144.09,-63.85 165,-57 172.14,-54.66 179.76,-52.36 187.23,-50.22"/>
<polygon fill="midnightblue" stroke="midnightblue" points="188.24,-53.58 196.92,-47.51 186.35,-46.84 188.24,-53.58"/>
</g>
<!-- Node4 -->
<g id="node4" class="node">
<title>Node4</title>
<g id="a_node4"><a xlink:href="iteration_8c.html#addf0e547cbd4fd4b3bda2c1adccf22c8" target="_top" xlink:title="Maximize the proximal penalty.">
<polygon fill="white" stroke="black" points="361,-202.5 361,-221.5 447,-221.5 447,-202.5 361,-202.5"/>
<text text-anchor="middle" x="404" y="-209.5" font-family="Helvetica,sans-Serif" font-size="10.00">boost_gamma</text>
</a>
</g>
</g>
<!-- Node3&#45;&gt;Node4 -->
<g id="edge3" class="edge">
<title>Node3&#45;&gt;Node4</title>
<path fill="none" stroke="midnightblue" d="M287.31,-123.58C293.6,-126.03 299.68,-129.12 305,-133 328.61,-150.21 318.29,-169.62 341,-188 346.01,-192.05 351.77,-195.47 357.73,-198.35"/>
<polygon fill="midnightblue" stroke="midnightblue" points="356.61,-201.68 367.18,-202.44 359.39,-195.26 356.61,-201.68"/>
</g>
<!-- Node6 -->
<g id="node6" class="node">
<title>Node6</title>
<g id="a_node6"><a xlink:href="lin__alg_8c.html#a0fde1aeeea954e43db160ec6e3697cd5" target="_top" xlink:title="Scaled addition of one vector to another vector, .">
<polygon fill="white" stroke="black" points="503.5,-164.5 503.5,-183.5 597.5,-183.5 597.5,-164.5 503.5,-164.5"/>
<text text-anchor="middle" x="550.5" y="-171.5" font-family="Helvetica,sans-Serif" font-size="10.00">vec_add_scaled</text>
</a>
</g>
</g>
<!-- Node3&#45;&gt;Node6 -->
<g id="edge10" class="edge">
<title>Node3&#45;&gt;Node6</title>
<path fill="none" stroke="midnightblue" d="M277.88,-123.51C286.99,-126.13 296.45,-129.3 305,-133 322.21,-140.45 323.2,-149.11 341,-155 390.57,-171.41 450.16,-175.39 492.92,-175.72"/>
<polygon fill="midnightblue" stroke="midnightblue" points="493.13,-179.22 503.14,-175.73 493.14,-172.22 493.13,-179.22"/>
</g>
<!-- Node7 -->
<g id="node7" class="node">
<title>Node7</title>
<g id="a_node7"><a xlink:href="newton_8c.html#ae27a99e2b3249e8455b72c2e2a977dd8" target="_top" xlink:title="Computes the set of active constraints and stores it in work&#45;&gt;solver&#45;&gt;active_constraints.">
<polygon fill="white" stroke="black" points="341,-126.5 341,-145.5 467,-145.5 467,-126.5 341,-126.5"/>
<text text-anchor="middle" x="404" y="-133.5" font-family="Helvetica,sans-Serif" font-size="10.00">set_active_constraints</text>
</a>
</g>
</g>
<!-- Node3&#45;&gt;Node7 -->
<g id="edge6" class="edge">
<title>Node3&#45;&gt;Node7</title>
<path fill="none" stroke="midnightblue" d="M305.37,-123.14C313.72,-124.24 322.26,-125.36 330.65,-126.47"/>
<polygon fill="midnightblue" stroke="midnightblue" points="330.41,-129.97 340.78,-127.8 331.32,-123.03 330.41,-129.97"/>
</g>
<!-- Node8 -->
<g id="node8" class="node">
<title>Node8</title>
<g id="a_node8"><a xlink:href="newton_8c.html#a43d518127e8561034e35ba18d0e15b31" target="_top" xlink:title="Determines the entering and leaving constraints and stores them in work&#45;&gt;solver&#45;&gt;enter and work&#45;&gt;solv...">
<polygon fill="white" stroke="black" points="344.5,-77 344.5,-107 463.5,-107 463.5,-77 344.5,-77"/>
<text text-anchor="start" x="352.5" y="-95" font-family="Helvetica,sans-Serif" font-size="10.00">set_entering_leaving</text>
<text text-anchor="middle" x="404" y="-84" font-family="Helvetica,sans-Serif" font-size="10.00">_constraints</text>
</a>
</g>
</g>
<!-- Node3&#45;&gt;Node8 -->
<g id="edge7" class="edge">
<title>Node3&#45;&gt;Node8</title>
<path fill="none" stroke="midnightblue" d="M305.37,-104.86C314.91,-103.6 324.71,-102.31 334.24,-101.06"/>
<polygon fill="midnightblue" stroke="midnightblue" points="335,-104.49 344.46,-99.71 334.09,-97.55 335,-104.49"/>
</g>
<!-- Node9 -->
<g id="node9" class="node">
<title>Node9</title>
<g id="a_node9"><a xlink:href="iteration_8c.html#a2493eaf6f46fae7e188477e427acfece" target="_top" xlink:title="Update the proximal penalty.">
<polygon fill="white" stroke="black" points="357.5,-38.5 357.5,-57.5 450.5,-57.5 450.5,-38.5 357.5,-38.5"/>
<text text-anchor="middle" x="404" y="-45.5" font-family="Helvetica,sans-Serif" font-size="10.00">update_gamma</text>
</a>
</g>
</g>
<!-- Node3&#45;&gt;Node9 -->
<g id="edge8" class="edge">
<title>Node3&#45;&gt;Node9</title>
<path fill="none" stroke="midnightblue" d="M280.76,-104.44C289.04,-101.9 297.45,-98.79 305,-95 323.12,-85.91 323.01,-76.35 341,-67 345.27,-64.78 349.84,-62.77 354.5,-60.97"/>
<polygon fill="midnightblue" stroke="midnightblue" points="355.86,-64.2 364.1,-57.54 353.51,-57.61 355.86,-64.2"/>
</g>
<!-- Node10 -->
<g id="node10" class="node">
<title>Node10</title>
<g id="a_node10"><a xlink:href="lin__alg_8c.html#a7b3d3b23f9254b8dc1bf53823ef42b42" target="_top" xlink:title="Elementwise division, .">
<polygon fill="white" stroke="black" points="367,-0.5 367,-19.5 441,-19.5 441,-0.5 367,-0.5"/>
<text text-anchor="middle" x="404" y="-7.5" font-family="Helvetica,sans-Serif" font-size="10.00">vec_ew_div</text>
</a>
</g>
</g>
<!-- Node3&#45;&gt;Node10 -->
<g id="edge11" class="edge">
<title>Node3&#45;&gt;Node10</title>
<path fill="none" stroke="midnightblue" d="M288.67,-104.39C294.53,-101.93 300.13,-98.86 305,-95 331.19,-74.25 315.11,-50.12 341,-29 345.87,-25.03 351.55,-21.89 357.48,-19.4"/>
<polygon fill="midnightblue" stroke="midnightblue" points="358.67,-22.69 366.89,-16.01 356.3,-16.11 358.67,-22.69"/>
</g>
<!-- Node5 -->
<g id="node5" class="node">
<title>Node5</title>
<g id="a_node5"><a xlink:href="nonconvex_8c.html#ab2a80b1d0a937afe2f6731b182ed63ac" target="_top" xlink:title="Calculate the Gershgorin upper bound for the eigenvalues of a symmetric matrix.">
<polygon fill="white" stroke="black" points="503,-202.5 503,-221.5 598,-221.5 598,-202.5 503,-202.5"/>
<text text-anchor="middle" x="550.5" y="-209.5" font-family="Helvetica,sans-Serif" font-size="10.00">gershgorin_max</text>
</a>
</g>
</g>
<!-- Node4&#45;&gt;Node5 -->
<g id="edge4" class="edge">
<title>Node4&#45;&gt;Node5</title>
<path fill="none" stroke="midnightblue" d="M447.18,-212C461.4,-212 477.5,-212 492.66,-212"/>
<polygon fill="midnightblue" stroke="midnightblue" points="492.96,-215.5 502.96,-212 492.96,-208.5 492.96,-215.5"/>
</g>
<!-- Node4&#45;&gt;Node6 -->
<g id="edge5" class="edge">
<title>Node4&#45;&gt;Node6</title>
<path fill="none" stroke="midnightblue" d="M441.46,-202.41C460.27,-197.46 483.41,-191.38 503.45,-186.11"/>
<polygon fill="midnightblue" stroke="midnightblue" points="504.52,-189.45 513.3,-183.52 502.74,-182.68 504.52,-189.45"/>
</g>
<!-- Node9&#45;&gt;Node6 -->
<g id="edge9" class="edge">
<title>Node9&#45;&gt;Node6</title>
<path fill="none" stroke="midnightblue" d="M448.61,-57.6C455.09,-60.07 461.45,-63.15 467,-67 500.58,-90.25 526.65,-131.38 539.89,-155.3"/>
<polygon fill="midnightblue" stroke="midnightblue" points="536.95,-157.24 544.76,-164.4 543.12,-153.93 536.95,-157.24"/>
</g>
</g>
</svg>
