<?xml version="1.0" encoding="UTF-8" standalone="no"?>
<!DOCTYPE svg PUBLIC "-//W3C//DTD SVG 1.1//EN"
 "http://www.w3.org/Graphics/SVG/1.1/DTD/svg11.dtd">
<!-- Generated by graphviz version 2.43.0 (0)
 -->
<!-- Title: prea_vec_copy Pages: 1 -->
<!--zoomable 498 -->
<svg id="main" version="1.1" xmlns="http://www.w3.org/2000/svg" xmlns:xlink="http://www.w3.org/1999/xlink" xml:space="preserve" onload="init(evt)">
<style type="text/css"><![CDATA[
.edge:hover path { stroke: red; }
.edge:hover polygon { stroke: red; fill: red; }
]]></style>
<script type="text/javascript"><![CDATA[
var edges = document.getElementsByTagName('g');
if (edges && edges.length) {
  for (var i=0;i<edges.length;i++) {
    if (edges[i].id.substr(0,4)=='edge') {
      edges[i].setAttribute('class','edge');
    }
  }
}
]]></script>
        <defs>
                <circle id="rim" cx="0" cy="0" r="7"/>
                <circle id="rim2" cx="0" cy="0" r="3.5"/>
                <g id="zoomPlus">
                        <use xlink:href="#rim" fill="#404040">
                                <set attributeName="fill" to="#808080" begin="zoomplus.mouseover" end="zoomplus.mouseout"/>
                        </use>
                        <path d="M-4,0h8M0,-4v8" fill="none" stroke="white" stroke-width="1.5" pointer-events="none"/>
                </g>
                <g id="zoomMin">
                        <use xlink:href="#rim" fill="#404040">
                                <set attributeName="fill" to="#808080" begin="zoomminus.mouseover" end="zoomminus.mouseout"/>
                        </use>
                        <path d="M-4,0h8" fill="none" stroke="white" stroke-width="1.5" pointer-events="none"/>
                </g>
                <g id="dirArrow">
                        <path fill="none" stroke="white" stroke-width="1.5" d="M0,-3.0v7 M-2.5,-0.5L0,-3.0L2.5,-0.5"/>
                </g>
               <g id="resetDef">
                       <use xlink:href="#rim2" fill="#404040">
                               <set attributeName="fill" to="#808080" begin="reset.mouseover" end="reset.mouseout"/>
                       </use>
               </g>
        </defs>

<script type="text/javascript">
var viewWidth = 608;
var viewHeight = 498;
var sectionId = 'dynsection-2';
</script>
<script xlink:href="svgpan.js"/>
<svg id="graph" class="graph">
<g id="viewport">
<title>prea_vec_copy</title>
<polygon fill="white" stroke="transparent" points="-4,4 -4,-494.33 604,-494.33 604,4 -4,4"/>
<!-- Node1 -->
<g id="node1" class="node">
<title>Node1</title>
<g id="a_node1"><a xlink:title="Copy vector a into preallocated vector b.">
<polygon fill="#bfbfbf" stroke="black" points="511,-240 511,-259 600,-259 600,-240 511,-240"/>
<text text-anchor="middle" x="555.5" y="-247" font-family="Helvetica,sans-Serif" font-size="10.00">prea_vec_copy</text>
</a>
</g>
</g>
<!-- Node2 -->
<g id="node2" class="node">
<title>Node2</title>
<g id="a_node2"><a xlink:href="linesearch_8c.html#a647cabae1574f21e412110765ea1e70d" target="_top" xlink:title="Execute exact linesearch (using qsort)">
<polygon fill="white" stroke="black" points="186,-468 186,-487 285,-487 285,-468 186,-468"/>
<text text-anchor="middle" x="235.5" y="-475" font-family="Helvetica,sans-Serif" font-size="10.00">exact_linesearch</text>
</a>
</g>
</g>
<!-- Node1&#45;&gt;Node2 -->
<g id="edge1" class="edge">
<title>Node1&#45;&gt;Node2</title>
<path fill="none" stroke="midnightblue" d="M553.33,-269.25C549.69,-310.97 534.88,-408 475,-453.5 420.49,-494.92 337.56,-493.02 285.23,-486.37"/>
<polygon fill="midnightblue" stroke="midnightblue" points="556.82,-269.48 554.07,-259.25 549.84,-268.96 556.82,-269.48"/>
</g>
<!-- Node3 -->
<g id="node3" class="node">
<title>Node3</title>
<g id="a_node3"><a xlink:href="iteration_8c.html#a9c9fafac9ce099122c5a594762e5a052" target="_top" xlink:title="Update the primal iterate.">
<polygon fill="white" stroke="black" points="0,-430 0,-449 125,-449 125,-430 0,-430"/>
<text text-anchor="middle" x="62.5" y="-437" font-family="Helvetica,sans-Serif" font-size="10.00">update_primal_iterate</text>
</a>
</g>
</g>
<!-- Node1&#45;&gt;Node3 -->
<g id="edge20" class="edge">
<title>Node1&#45;&gt;Node3</title>
<path fill="none" stroke="midnightblue" d="M551.96,-269.06C546.02,-305.96 527.48,-385.29 475,-420.5 419.54,-457.7 226.01,-450.74 125.37,-444.25"/>
<polygon fill="midnightblue" stroke="midnightblue" points="555.44,-269.47 553.43,-259.06 548.51,-268.45 555.44,-269.47"/>
</g>
<!-- Node4 -->
<g id="node4" class="node">
<title>Node4</title>
<g id="a_node4"><a xlink:href="solver__interface_8c.html#aca80eaf7b897030273f1a6820b7e6d38" target="_top" xlink:title="Solve the KKT system .">
<polygon fill="white" stroke="black" points="378.5,-392 378.5,-411 442.5,-411 442.5,-392 378.5,-392"/>
<text text-anchor="middle" x="410.5" y="-399" font-family="Helvetica,sans-Serif" font-size="10.00">kkt_solve</text>
</a>
</g>
</g>
<!-- Node1&#45;&gt;Node4 -->
<g id="edge3" class="edge">
<title>Node1&#45;&gt;Node4</title>
<path fill="none" stroke="midnightblue" d="M547.42,-268.33C536.14,-295.96 511.55,-347.45 475,-377.5 465.71,-385.14 453.75,-390.5 442.71,-394.18"/>
<polygon fill="midnightblue" stroke="midnightblue" points="550.69,-269.59 551.09,-259 544.18,-267.03 550.69,-269.59"/>
</g>
<!-- Node5 -->
<g id="node5" class="node">
<title>Node5</title>
<g id="a_node5"><a xlink:href="newton_8c.html#af1654e5597faac8b0ade25acf1fc1bc9" target="_top" xlink:title="Sets work&#45;&gt;d to the direction calculated by the semismooth Newton method.">
<polygon fill="white" stroke="black" points="175,-373 175,-392 296,-392 296,-373 175,-373"/>
<text text-anchor="middle" x="235.5" y="-380" font-family="Helvetica,sans-Serif" font-size="10.00">newton_set_direction</text>
</a>
</g>
</g>
<!-- Node1&#45;&gt;Node5 -->
<g id="edge8" class="edge">
<title>Node1&#45;&gt;Node5</title>
<path fill="none" stroke="midnightblue" d="M544.55,-268.07C531.64,-290.18 506.94,-326.38 475,-344.5 419.93,-375.74 346.85,-383.35 296.16,-384.33"/>
<polygon fill="midnightblue" stroke="midnightblue" points="547.64,-269.71 549.49,-259.28 541.53,-266.28 547.64,-269.71"/>
</g>
<!-- Node6 -->
<g id="node6" class="node">
<title>Node6</title>
<g id="a_node6"><a xlink:href="solver__interface_8c.html#a03ad73d0e41054e90232d141e73474ab" target="_top" xlink:title="Solve the linear system .">
<polygon fill="white" stroke="black" points="352,-316 352,-335 469,-335 469,-316 352,-316"/>
<text text-anchor="middle" x="410.5" y="-323" font-family="Helvetica,sans-Serif" font-size="10.00">ldlsolveLD_neg_dphi</text>
</a>
</g>
</g>
<!-- Node1&#45;&gt;Node6 -->
<g id="edge6" class="edge">
<title>Node1&#45;&gt;Node6</title>
<path fill="none" stroke="midnightblue" d="M535.93,-265.55C520.5,-278.18 497.51,-295.45 475,-306.5 467.46,-310.2 459.06,-313.34 450.89,-315.93"/>
<polygon fill="midnightblue" stroke="midnightblue" points="538.25,-268.17 543.67,-259.07 533.76,-262.8 538.25,-268.17"/>
</g>
<!-- Node7 -->
<g id="node7" class="node">
<title>Node7</title>
<g id="a_node7"><a xlink:href="group__solver-grp.html#ga385f399d0fb6afaaa0da5f3a114bf922" target="_top" xlink:title="Update the lower and upper bounds.">
<polygon fill="white" stroke="black" points="347,-278 347,-297 474,-297 474,-278 347,-278"/>
<text text-anchor="middle" x="410.5" y="-285" font-family="Helvetica,sans-Serif" font-size="10.00">qpalm_update_bounds</text>
</a>
</g>
</g>
<!-- Node1&#45;&gt;Node7 -->
<g id="edge9" class="edge">
<title>Node1&#45;&gt;Node7</title>
<path fill="none" stroke="midnightblue" d="M508.69,-261.67C488.91,-266.93 466.12,-272.99 447.57,-277.91"/>
<polygon fill="midnightblue" stroke="midnightblue" points="509.65,-265.04 518.42,-259.09 507.85,-258.27 509.65,-265.04"/>
</g>
<!-- Node9 -->
<g id="node9" class="node">
<title>Node9</title>
<g id="a_node9"><a xlink:href="group__solver-grp.html#gadc1a41812270a2a9539558e7eec403fe" target="_top" xlink:title="Update the linear part of the cost.">
<polygon fill="white" stroke="black" points="361.5,-240 361.5,-259 459.5,-259 459.5,-240 361.5,-240"/>
<text text-anchor="middle" x="410.5" y="-247" font-family="Helvetica,sans-Serif" font-size="10.00">qpalm_update_q</text>
</a>
</g>
</g>
<!-- Node1&#45;&gt;Node9 -->
<g id="edge11" class="edge">
<title>Node1&#45;&gt;Node9</title>
<path fill="none" stroke="midnightblue" d="M500.71,-249.5C487.23,-249.5 472.84,-249.5 459.65,-249.5"/>
<polygon fill="midnightblue" stroke="midnightblue" points="500.82,-253 510.82,-249.5 500.82,-246 500.82,-253"/>
</g>
<!-- Node11 -->
<g id="node11" class="node">
<title>Node11</title>
<g id="a_node11"><a xlink:href="group__solver-grp.html#ga327c43b0d2f129fc32e8ef2a47e289af" target="_top" xlink:title="Update the matrix entries of Q and A.">
<polygon fill="white" stroke="black" points="355,-202 355,-221 466,-221 466,-202 355,-202"/>
<text text-anchor="middle" x="410.5" y="-209" font-family="Helvetica,sans-Serif" font-size="10.00">qpalm_update_Q_A</text>
</a>
</g>
</g>
<!-- Node1&#45;&gt;Node11 -->
<g id="edge13" class="edge">
<title>Node1&#45;&gt;Node11</title>
<path fill="none" stroke="midnightblue" d="M508.69,-237.33C488.91,-232.07 466.12,-226.01 447.57,-221.09"/>
<polygon fill="midnightblue" stroke="midnightblue" points="507.85,-240.73 518.42,-239.91 509.65,-233.96 507.85,-240.73"/>
</g>
<!-- Node13 -->
<g id="node13" class="node">
<title>Node13</title>
<g id="a_node13"><a xlink:href="group__solver-grp.html#ga28824f01d01f181a6ad6b413f30a2609" target="_top" xlink:title="Warm start workspace variables x, x_0, x_prev, Ax, Qx, y and sigma.">
<polygon fill="white" stroke="black" points="356.5,-164 356.5,-183 464.5,-183 464.5,-164 356.5,-164"/>
<text text-anchor="middle" x="410.5" y="-171" font-family="Helvetica,sans-Serif" font-size="10.00">qpalm_warm_start</text>
</a>
</g>
</g>
<!-- Node1&#45;&gt;Node13 -->
<g id="edge15" class="edge">
<title>Node1&#45;&gt;Node13</title>
<path fill="none" stroke="midnightblue" d="M535.93,-233.45C520.5,-220.82 497.51,-203.55 475,-192.5 467.46,-188.8 459.06,-185.66 450.89,-183.07"/>
<polygon fill="midnightblue" stroke="midnightblue" points="533.76,-236.2 543.67,-239.93 538.25,-230.83 533.76,-236.2"/>
</g>
<!-- Node15 -->
<g id="node15" class="node">
<title>Node15</title>
<g id="a_node15"><a xlink:href="scaling_8c.html#a3735b6c9c3aeeddfb3bb0982ae5f70ba" target="_top" xlink:title="Scale problem matrices.">
<polygon fill="white" stroke="black" points="376,-126 376,-145 445,-145 445,-126 376,-126"/>
<text text-anchor="middle" x="410.5" y="-133" font-family="Helvetica,sans-Serif" font-size="10.00">scale_data</text>
</a>
</g>
</g>
<!-- Node1&#45;&gt;Node15 -->
<g id="edge17" class="edge">
<title>Node1&#45;&gt;Node15</title>
<path fill="none" stroke="midnightblue" d="M543.74,-231.01C530.31,-209.53 505.37,-174.5 475,-154.5 466.06,-148.61 455.24,-144.5 445.08,-141.64"/>
<polygon fill="midnightblue" stroke="midnightblue" points="540.9,-233.08 549.08,-239.82 546.89,-229.45 540.9,-233.08"/>
</g>
<!-- Node16 -->
<g id="node16" class="node">
<title>Node16</title>
<g id="a_node16"><a xlink:href="termination_8c.html#a59f3d4d2ea459665833cc3d5e9265d5e" target="_top" xlink:title="Helper function to store the (unscaled) solution in the solution struct.">
<polygon fill="white" stroke="black" points="367.5,-88 367.5,-107 453.5,-107 453.5,-88 367.5,-88"/>
<text text-anchor="middle" x="410.5" y="-95" font-family="Helvetica,sans-Serif" font-size="10.00">store_solution</text>
</a>
</g>
</g>
<!-- Node1&#45;&gt;Node16 -->
<g id="edge18" class="edge">
<title>Node1&#45;&gt;Node16</title>
<path fill="none" stroke="midnightblue" d="M548.06,-230.02C537.46,-200.97 513.59,-146.53 475,-116.5 468.73,-111.62 461.23,-107.99 453.62,-105.3"/>
<polygon fill="midnightblue" stroke="midnightblue" points="544.87,-231.51 551.47,-239.8 551.48,-229.21 544.87,-231.51"/>
</g>
<!-- Node17 -->
<g id="node17" class="node">
<title>Node17</title>
<g id="a_node17"><a xlink:href="iteration_8c.html#a1ad7b6cb4924a8de3378ed35890b02e7" target="_top" xlink:title=" ">
<polygon fill="white" stroke="black" points="178.5,-22.5 178.5,-52.5 292.5,-52.5 292.5,-22.5 178.5,-22.5"/>
<text text-anchor="start" x="186.5" y="-40.5" font-family="Helvetica,sans-Serif" font-size="10.00">update_dual_iterate</text>
<text text-anchor="middle" x="235.5" y="-29.5" font-family="Helvetica,sans-Serif" font-size="10.00">_and_parameters</text>
</a>
</g>
</g>
<!-- Node1&#45;&gt;Node17 -->
<g id="edge19" class="edge">
<title>Node1&#45;&gt;Node17</title>
<path fill="none" stroke="midnightblue" d="M551.37,-229.54C544.54,-193.22 524.75,-116.55 475,-78.5 447.09,-57.16 353.85,-46.2 292.56,-41.17"/>
<polygon fill="midnightblue" stroke="midnightblue" points="547.99,-230.56 553.15,-239.82 554.89,-229.37 547.99,-230.56"/>
</g>
<!-- Node18 -->
<g id="node18" class="node">
<title>Node18</title>
<g id="a_node18"><a xlink:href="iteration_8c.html#a786f2d2af82a141fe3825a3964659d50" target="_top" xlink:title=" ">
<polygon fill="white" stroke="black" points="346,-0.5 346,-30.5 475,-30.5 475,-0.5 346,-0.5"/>
<text text-anchor="start" x="354" y="-18.5" font-family="Helvetica,sans-Serif" font-size="10.00">update_proximal_point</text>
<text text-anchor="middle" x="410.5" y="-7.5" font-family="Helvetica,sans-Serif" font-size="10.00">_and_penalty</text>
</a>
</g>
</g>
<!-- Node1&#45;&gt;Node18 -->
<g id="edge21" class="edge">
<title>Node1&#45;&gt;Node18</title>
<path fill="none" stroke="midnightblue" d="M551.74,-229.62C545.26,-189.87 525.6,-99.76 475,-45.5 469.43,-39.53 462.42,-34.62 455.12,-30.64"/>
<polygon fill="midnightblue" stroke="midnightblue" points="548.3,-230.27 553.26,-239.63 555.22,-229.22 548.3,-230.27"/>
</g>
<!-- Node2&#45;&gt;Node3 -->
<g id="edge2" class="edge">
<title>Node2&#45;&gt;Node3</title>
<path fill="none" stroke="midnightblue" d="M181.29,-465.68C157.18,-460.32 129.06,-454.07 106.34,-449.02"/>
<polygon fill="midnightblue" stroke="midnightblue" points="180.83,-469.16 191.35,-467.91 182.35,-462.32 180.83,-469.16"/>
</g>
<!-- Node4&#45;&gt;Node5 -->
<g id="edge4" class="edge">
<title>Node4&#45;&gt;Node5</title>
<path fill="none" stroke="midnightblue" d="M368.07,-396.95C346.59,-394.59 319.96,-391.67 296.29,-389.07"/>
<polygon fill="midnightblue" stroke="midnightblue" points="367.85,-400.45 378.17,-398.06 368.61,-393.49 367.85,-400.45"/>
</g>
<!-- Node5&#45;&gt;Node3 -->
<g id="edge5" class="edge">
<title>Node5&#45;&gt;Node3</title>
<path fill="none" stroke="midnightblue" d="M196.12,-395.29C164.63,-405.79 120.73,-420.42 92.21,-429.93"/>
<polygon fill="midnightblue" stroke="midnightblue" points="197.5,-398.52 205.88,-392.04 195.28,-391.88 197.5,-398.52"/>
</g>
<!-- Node6&#45;&gt;Node5 -->
<g id="edge7" class="edge">
<title>Node6&#45;&gt;Node5</title>
<path fill="none" stroke="midnightblue" d="M370.68,-338.29C338.81,-348.79 294.4,-363.42 265.55,-372.93"/>
<polygon fill="midnightblue" stroke="midnightblue" points="372.14,-341.49 380.54,-335.04 369.95,-334.85 372.14,-341.49"/>
</g>
<!-- Node8 -->
<g id="node8" class="node">
<title>Node8</title>
<g id="a_node8"><a xlink:href="classqpalm_1_1Solver.html#a6df33bfd68c5b8caaaa6f726f1a9f517" target="_top" xlink:title=" ">
<polygon fill="white" stroke="black" points="173.5,-278.5 173.5,-308.5 297.5,-308.5 297.5,-278.5 173.5,-278.5"/>
<text text-anchor="start" x="181.5" y="-296.5" font-family="Helvetica,sans-Serif" font-size="10.00">qpalm::Solver::update</text>
<text text-anchor="middle" x="235.5" y="-285.5" font-family="Helvetica,sans-Serif" font-size="10.00">_bounds</text>
</a>
</g>
</g>
<!-- Node7&#45;&gt;Node8 -->
<g id="edge10" class="edge">
<title>Node7&#45;&gt;Node8</title>
<path fill="none" stroke="midnightblue" d="M336.33,-290.04C323.46,-290.48 310.17,-290.94 297.67,-291.38"/>
<polygon fill="midnightblue" stroke="midnightblue" points="336.68,-293.53 346.55,-289.68 336.44,-286.53 336.68,-293.53"/>
</g>
<!-- Node10 -->
<g id="node10" class="node">
<title>Node10</title>
<g id="a_node10"><a xlink:href="classqpalm_1_1Solver.html#a43cbe4e495be0898c733d9589531e63c" target="_top" xlink:title=" ">
<polygon fill="white" stroke="black" points="168,-240 168,-259 303,-259 303,-240 168,-240"/>
<text text-anchor="middle" x="235.5" y="-247" font-family="Helvetica,sans-Serif" font-size="10.00">qpalm::Solver::update_q</text>
</a>
</g>
</g>
<!-- Node9&#45;&gt;Node10 -->
<g id="edge12" class="edge">
<title>Node9&#45;&gt;Node10</title>
<path fill="none" stroke="midnightblue" d="M350.92,-249.5C335.57,-249.5 318.91,-249.5 303.18,-249.5"/>
<polygon fill="midnightblue" stroke="midnightblue" points="351.31,-253 361.31,-249.5 351.31,-246 351.31,-253"/>
</g>
<!-- Node12 -->
<g id="node12" class="node">
<title>Node12</title>
<g id="a_node12"><a xlink:href="classqpalm_1_1Solver.html#a11e9742322ad77345b32d806b8b3b81c" target="_top" xlink:title=" ">
<polygon fill="white" stroke="black" points="161,-202 161,-221 310,-221 310,-202 161,-202"/>
<text text-anchor="middle" x="235.5" y="-209" font-family="Helvetica,sans-Serif" font-size="10.00">qpalm::Solver::update_Q_A</text>
</a>
</g>
</g>
<!-- Node11&#45;&gt;Node12 -->
<g id="edge14" class="edge">
<title>Node11&#45;&gt;Node12</title>
<path fill="none" stroke="midnightblue" d="M344.61,-211.5C333.38,-211.5 321.63,-211.5 310.18,-211.5"/>
<polygon fill="midnightblue" stroke="midnightblue" points="344.76,-215 354.76,-211.5 344.76,-208 344.76,-215"/>
</g>
<!-- Node14 -->
<g id="node14" class="node">
<title>Node14</title>
<g id="a_node14"><a xlink:href="classqpalm_1_1Solver.html#a693af99e39a9035bbbc4fb61fcb427d1" target="_top" xlink:title=" ">
<polygon fill="white" stroke="black" points="176.5,-152.5 176.5,-182.5 294.5,-182.5 294.5,-152.5 176.5,-152.5"/>
<text text-anchor="start" x="184.5" y="-170.5" font-family="Helvetica,sans-Serif" font-size="10.00">qpalm::Solver::warm</text>
<text text-anchor="middle" x="235.5" y="-159.5" font-family="Helvetica,sans-Serif" font-size="10.00">_start</text>
</a>
</g>
</g>
<!-- Node13&#45;&gt;Node14 -->
<g id="edge16" class="edge">
<title>Node13&#45;&gt;Node14</title>
<path fill="none" stroke="midnightblue" d="M345.94,-171.3C329.19,-170.71 311.21,-170.09 294.76,-169.52"/>
<polygon fill="midnightblue" stroke="midnightblue" points="346.07,-174.8 356.18,-171.65 346.31,-167.81 346.07,-174.8"/>
</g>
<!-- Node18&#45;&gt;Node17 -->
<g id="edge22" class="edge">
<title>Node18&#45;&gt;Node17</title>
<path fill="none" stroke="midnightblue" d="M335.3,-24.94C321.04,-26.75 306.33,-28.62 292.75,-30.35"/>
<polygon fill="midnightblue" stroke="midnightblue" points="336.09,-28.36 345.57,-23.63 335.21,-21.42 336.09,-28.36"/>
</g>
</g>
</svg>
        <g id="navigator" transform="translate(0 0)" fill="#404254">
                <rect fill="#f2f5e9" fill-opacity="0.5" stroke="#606060" stroke-width=".5" x="0" y="0" width="60" height="60"/>
                <use id="zoomplus" xlink:href="#zoomPlus" x="17" y="9" onmousedown="handleZoom(evt,'in')"/>
                <use id="zoomminus" xlink:href="#zoomMin" x="42" y="9" onmousedown="handleZoom(evt,'out')"/>
                <use id="reset" xlink:href="#resetDef" x="30" y="36" onmousedown="handleReset()"/>
                <g id="arrowUp" xlink:href="#dirArrow" transform="translate(30 24)" onmousedown="handlePan(0,-1)">
                  <use xlink:href="#rim" fill="#404040">
                        <set attributeName="fill" to="#808080" begin="arrowUp.mouseover" end="arrowUp.mouseout"/>
                  </use>
                  <path fill="none" stroke="white" stroke-width="1.5" d="M0,-3.0v7 M-2.5,-0.5L0,-3.0L2.5,-0.5"/>
                </g>
                <g id="arrowRight" xlink:href="#dirArrow" transform="rotate(90) translate(36 -43)" onmousedown="handlePan(1,0)">
                  <use xlink:href="#rim" fill="#404040">
                        <set attributeName="fill" to="#808080" begin="arrowRight.mouseover" end="arrowRight.mouseout"/>
                  </use>
                  <path fill="none" stroke="white" stroke-width="1.5" d="M0,-3.0v7 M-2.5,-0.5L0,-3.0L2.5,-0.5"/>
                </g>
                <g id="arrowDown" xlink:href="#dirArrow" transform="rotate(180) translate(-30 -48)" onmousedown="handlePan(0,1)">
                  <use xlink:href="#rim" fill="#404040">
                        <set attributeName="fill" to="#808080" begin="arrowDown.mouseover" end="arrowDown.mouseout"/>
                  </use>
                  <path fill="none" stroke="white" stroke-width="1.5" d="M0,-3.0v7 M-2.5,-0.5L0,-3.0L2.5,-0.5"/>
                </g>
                <g id="arrowLeft" xlink:href="#dirArrow" transform="rotate(270) translate(-36 17)" onmousedown="handlePan(-1,0)">
                  <use xlink:href="#rim" fill="#404040">
                        <set attributeName="fill" to="#808080" begin="arrowLeft.mouseover" end="arrowLeft.mouseout"/>
                  </use>
                  <path fill="none" stroke="white" stroke-width="1.5" d="M0,-3.0v7 M-2.5,-0.5L0,-3.0L2.5,-0.5"/>
                </g>
        </g>
        <svg viewBox="0 0 15 15" width="100%" height="30px" preserveAspectRatio="xMaxYMin meet">
         <g id="arrow_out" transform="scale(0.3 0.3)">
          <a xlink:href="lin__alg_8c_acf468a60c38fbc58b6de539acb6f0a3b_icgraph_org.svg" target="_base">
           <rect id="button" ry="5" rx="5" y="6" x="6" height="38" width="38"
                fill="#f2f5e9" fill-opacity="0.5" stroke="#606060" stroke-width="1.0"/>
           <path id="arrow"
             d="M 11.500037,31.436501 C 11.940474,20.09759 22.043105,11.32322 32.158766,21.979434 L 37.068811,17.246167 C 37.068811,17.246167 37.088388,32 37.088388,32 L 22.160133,31.978069 C 22.160133,31.978069 26.997745,27.140456 26.997745,27.140456 C 18.528582,18.264221 13.291696,25.230495 11.500037,31.436501 z"
             style="fill:#404040;"/>
          </a>
         </g>
        </svg>
</svg>
