<?xml version="1.0" encoding="UTF-8" standalone="no"?>
<!DOCTYPE svg PUBLIC "-//W3C//DTD SVG 1.1//EN"
 "http://www.w3.org/Graphics/SVG/1.1/DTD/svg11.dtd">
<!-- Generated by graphviz version 2.43.0 (0)
 -->
<!-- Title: QPALM/src/lin_alg.c Pages: 1 -->
<svg width="207pt" height="308pt"
 viewBox="0.00 0.00 206.69 308.00" xmlns="http://www.w3.org/2000/svg" xmlns:xlink="http://www.w3.org/1999/xlink">
<g id="graph0" class="graph" transform="scale(1 1) rotate(0) translate(4 304)">
<title>QPALM/src/lin_alg.c</title>
<polygon fill="white" stroke="transparent" points="-4,4 -4,-304 202.69,-304 202.69,4 -4,4"/>
<!-- Node1 -->
<g id="node1" class="node">
<title>Node1</title>
<g id="a_node1"><a xlink:title="Linear algebra with vectors.">
<polygon fill="#bfbfbf" stroke="black" points="49.09,-280.5 49.09,-299.5 160.09,-299.5 160.09,-280.5 49.09,-280.5"/>
<text text-anchor="middle" x="104.59" y="-287.5" font-family="Helvetica,sans-Serif" font-size="10.00">QPALM/src/lin_alg.c</text>
</a>
</g>
</g>
<!-- Node2 -->
<g id="node2" class="node">
<title>Node2</title>
<g id="a_node2"><a xlink:href="lin__alg_8h.html" target="_top" xlink:title="Linear algebra with vectors.">
<polygon fill="white" stroke="black" points="75.59,-224.5 75.59,-243.5 133.59,-243.5 133.59,-224.5 75.59,-224.5"/>
<text text-anchor="middle" x="104.59" y="-231.5" font-family="Helvetica,sans-Serif" font-size="10.00">lin_alg.h</text>
</a>
</g>
</g>
<!-- Node1&#45;&gt;Node2 -->
<g id="edge1" class="edge">
<title>Node1&#45;&gt;Node2</title>
<path fill="none" stroke="midnightblue" d="M104.59,-280.08C104.59,-273.01 104.59,-262.86 104.59,-253.99"/>
<polygon fill="midnightblue" stroke="midnightblue" points="108.09,-253.75 104.59,-243.75 101.09,-253.75 108.09,-253.75"/>
</g>
<!-- Node3 -->
<g id="node3" class="node">
<title>Node3</title>
<g id="a_node3"><a xlink:href="types_8h.html" target="_top" xlink:title="Internal data structures used in QPALM.">
<polygon fill="white" stroke="black" points="118.09,-112.5 118.09,-131.5 171.09,-131.5 171.09,-112.5 118.09,-112.5"/>
<text text-anchor="middle" x="144.59" y="-119.5" font-family="Helvetica,sans-Serif" font-size="10.00">types.h</text>
</a>
</g>
</g>
<!-- Node2&#45;&gt;Node3 -->
<g id="edge2" class="edge">
<title>Node2&#45;&gt;Node3</title>
<path fill="none" stroke="midnightblue" d="M109.18,-224.21C113.74,-215.26 120.73,-200.91 125.59,-188 131.42,-172.53 136.58,-154.44 140.05,-141.28"/>
<polygon fill="midnightblue" stroke="midnightblue" points="143.45,-142.1 142.54,-131.55 136.67,-140.37 143.45,-142.1"/>
</g>
<!-- Node7 -->
<g id="node7" class="node">
<title>Node7</title>
<g id="a_node7"><a xlink:href="solver__interface_8h.html" target="_top" xlink:title="Interface and wrapper to matrix/factorization (ladel) functions.">
<polygon fill="white" stroke="black" points="12.59,-168.5 12.59,-187.5 116.59,-187.5 116.59,-168.5 12.59,-168.5"/>
<text text-anchor="middle" x="64.59" y="-175.5" font-family="Helvetica,sans-Serif" font-size="10.00">solver_interface.h</text>
</a>
</g>
</g>
<!-- Node2&#45;&gt;Node7 -->
<g id="edge7" class="edge">
<title>Node2&#45;&gt;Node7</title>
<path fill="none" stroke="midnightblue" d="M97.99,-224.08C92.34,-216.46 84.05,-205.26 77.14,-195.94"/>
<polygon fill="midnightblue" stroke="midnightblue" points="79.84,-193.7 71.07,-187.75 74.21,-197.87 79.84,-193.7"/>
</g>
<!-- Node4 -->
<g id="node4" class="node">
<title>Node4</title>
<g id="a_node4"><a xlink:href="global__opts_8h.html" target="_top" xlink:title="Custom memory allocation, print and utility functions, and data types for floats and ints.">
<polygon fill="white" stroke="black" points="103.59,-56.5 103.59,-75.5 185.59,-75.5 185.59,-56.5 103.59,-56.5"/>
<text text-anchor="middle" x="144.59" y="-63.5" font-family="Helvetica,sans-Serif" font-size="10.00">global_opts.h</text>
</a>
</g>
</g>
<!-- Node3&#45;&gt;Node4 -->
<g id="edge3" class="edge">
<title>Node3&#45;&gt;Node4</title>
<path fill="none" stroke="midnightblue" d="M144.59,-112.08C144.59,-105.01 144.59,-94.86 144.59,-85.99"/>
<polygon fill="midnightblue" stroke="midnightblue" points="148.09,-85.75 144.59,-75.75 141.09,-85.75 148.09,-85.75"/>
</g>
<!-- Node5 -->
<g id="node5" class="node">
<title>Node5</title>
<g id="a_node5"><a xlink:title=" ">
<polygon fill="white" stroke="#bfbfbf" points="37.59,-0.5 37.59,-19.5 87.59,-19.5 87.59,-0.5 37.59,-0.5"/>
<text text-anchor="middle" x="62.59" y="-7.5" font-family="Helvetica,sans-Serif" font-size="10.00">ladel.h</text>
</a>
</g>
</g>
<!-- Node3&#45;&gt;Node5 -->
<g id="edge6" class="edge">
<title>Node3&#45;&gt;Node5</title>
<path fill="none" stroke="midnightblue" d="M159.8,-112.31C179.41,-99.98 209.34,-76.61 194.59,-56 183.11,-39.96 132.78,-26.11 97.7,-18.16"/>
<polygon fill="midnightblue" stroke="midnightblue" points="98.33,-14.71 87.81,-15.98 96.82,-21.55 98.33,-14.71"/>
</g>
<!-- Node4&#45;&gt;Node5 -->
<g id="edge4" class="edge">
<title>Node4&#45;&gt;Node5</title>
<path fill="none" stroke="midnightblue" d="M131.42,-56.32C118.74,-47.98 99.36,-35.21 84.39,-25.35"/>
<polygon fill="midnightblue" stroke="midnightblue" points="86.01,-22.23 75.73,-19.65 82.16,-28.08 86.01,-22.23"/>
</g>
<!-- Node6 -->
<g id="node6" class="node">
<title>Node6</title>
<g id="a_node6"><a xlink:title=" ">
<polygon fill="white" stroke="#bfbfbf" points="119.09,-0.5 119.09,-19.5 170.09,-19.5 170.09,-0.5 119.09,-0.5"/>
<text text-anchor="middle" x="144.59" y="-7.5" font-family="Helvetica,sans-Serif" font-size="10.00">math.h</text>
</a>
</g>
</g>
<!-- Node4&#45;&gt;Node6 -->
<g id="edge5" class="edge">
<title>Node4&#45;&gt;Node6</title>
<path fill="none" stroke="midnightblue" d="M144.59,-56.08C144.59,-49.01 144.59,-38.86 144.59,-29.99"/>
<polygon fill="midnightblue" stroke="midnightblue" points="148.09,-29.75 144.59,-19.75 141.09,-29.75 148.09,-29.75"/>
</g>
<!-- Node7&#45;&gt;Node3 -->
<g id="edge11" class="edge">
<title>Node7&#45;&gt;Node3</title>
<path fill="none" stroke="midnightblue" d="M77.45,-168.32C89.81,-159.98 108.72,-147.21 123.33,-137.35"/>
<polygon fill="midnightblue" stroke="midnightblue" points="125.44,-140.15 131.77,-131.65 121.52,-134.35 125.44,-140.15"/>
</g>
<!-- Node7&#45;&gt;Node4 -->
<g id="edge8" class="edge">
<title>Node7&#45;&gt;Node4</title>
<path fill="none" stroke="midnightblue" d="M70.27,-168.48C78.66,-155.96 94.97,-131.91 109.59,-112 116.63,-102.41 124.78,-91.9 131.44,-83.45"/>
<polygon fill="midnightblue" stroke="midnightblue" points="134.26,-85.53 137.74,-75.52 128.78,-81.18 134.26,-85.53"/>
</g>
<!-- Node7&#45;&gt;Node5 -->
<g id="edge12" class="edge">
<title>Node7&#45;&gt;Node5</title>
<path fill="none" stroke="midnightblue" d="M56.92,-168.35C42.84,-151.82 13.33,-114.02 2.59,-76 0.18,-67.45 -1.38,-63.95 2.59,-56 9.32,-42.54 22.2,-32.07 34.3,-24.62"/>
<polygon fill="midnightblue" stroke="midnightblue" points="36.32,-27.5 43.3,-19.52 32.87,-21.41 36.32,-27.5"/>
</g>
<!-- Node8 -->
<g id="node8" class="node">
<title>Node8</title>
<g id="a_node8"><a xlink:href="constants_8h.html" target="_top" xlink:title="Constants used in QPALM.">
<polygon fill="white" stroke="black" points="12.09,-56.5 12.09,-75.5 85.09,-75.5 85.09,-56.5 12.09,-56.5"/>
<text text-anchor="middle" x="48.59" y="-63.5" font-family="Helvetica,sans-Serif" font-size="10.00">constants.h</text>
</a>
</g>
</g>
<!-- Node7&#45;&gt;Node8 -->
<g id="edge9" class="edge">
<title>Node7&#45;&gt;Node8</title>
<path fill="none" stroke="midnightblue" d="M63.34,-168.37C60.75,-150.62 54.8,-109.67 51.3,-85.6"/>
<polygon fill="midnightblue" stroke="midnightblue" points="54.74,-84.98 49.84,-75.59 47.82,-85.99 54.74,-84.98"/>
</g>
<!-- Node8&#45;&gt;Node5 -->
<g id="edge10" class="edge">
<title>Node8&#45;&gt;Node5</title>
<path fill="none" stroke="midnightblue" d="M50.9,-56.08C52.76,-48.93 55.43,-38.64 57.75,-29.69"/>
<polygon fill="midnightblue" stroke="midnightblue" points="61.2,-30.31 60.32,-19.75 54.43,-28.55 61.2,-30.31"/>
</g>
</g>
</svg>
