<?xml version="1.0" encoding="UTF-8" standalone="no"?>
<!DOCTYPE svg PUBLIC "-//W3C//DTD SVG 1.1//EN"
 "http://www.w3.org/Graphics/SVG/1.1/DTD/svg11.dtd">
<!-- Generated by graphviz version 2.43.0 (0)
 -->
<!-- Title: QPALM/interfaces/cxx/include/qpalm.hpp Pages: 1 -->
<svg width="974pt" height="207pt"
 viewBox="0.00 0.00 974.00 207.00" xmlns="http://www.w3.org/2000/svg" xmlns:xlink="http://www.w3.org/1999/xlink">
<g id="graph0" class="graph" transform="scale(1 1) rotate(0) translate(4 203)">
<title>QPALM/interfaces/cxx/include/qpalm.hpp</title>
<polygon fill="white" stroke="transparent" points="-4,4 -4,-203 970,-203 970,4 -4,4"/>
<!-- Node1 -->
<g id="node1" class="node">
<title>Node1</title>
<g id="a_node1"><a xlink:title=" ">
<polygon fill="#bfbfbf" stroke="black" points="804,-168.5 804,-198.5 926,-198.5 926,-168.5 804,-168.5"/>
<text text-anchor="start" x="812" y="-186.5" font-family="Helvetica,sans-Serif" font-size="10.00">QPALM/interfaces/cxx</text>
<text text-anchor="middle" x="865" y="-175.5" font-family="Helvetica,sans-Serif" font-size="10.00">/include/qpalm.hpp</text>
</a>
</g>
</g>
<!-- Node2 -->
<g id="node2" class="node">
<title>Node2</title>
<g id="a_node2"><a xlink:href="sparse_8hpp.html" target="_top" xlink:title=" ">
<polygon fill="white" stroke="black" points="510,-112.5 510,-131.5 580,-131.5 580,-112.5 510,-112.5"/>
<text text-anchor="middle" x="545" y="-119.5" font-family="Helvetica,sans-Serif" font-size="10.00">sparse.hpp</text>
</a>
</g>
</g>
<!-- Node1&#45;&gt;Node2 -->
<g id="edge1" class="edge">
<title>Node1&#45;&gt;Node2</title>
<path fill="none" stroke="midnightblue" d="M803.68,-171.1C741.32,-159.5 646.15,-141.81 590.3,-131.42"/>
<polygon fill="midnightblue" stroke="midnightblue" points="590.82,-127.96 580.35,-129.57 589.54,-134.84 590.82,-127.96"/>
</g>
<!-- Node13 -->
<g id="node13" class="node">
<title>Node13</title>
<g id="a_node13"><a xlink:href="types_8h.html" target="_top" xlink:title="Internal data structures used in QPALM.">
<polygon fill="white" stroke="black" points="838.5,-112.5 838.5,-131.5 891.5,-131.5 891.5,-112.5 838.5,-112.5"/>
<text text-anchor="middle" x="865" y="-119.5" font-family="Helvetica,sans-Serif" font-size="10.00">types.h</text>
</a>
</g>
</g>
<!-- Node1&#45;&gt;Node13 -->
<g id="edge12" class="edge">
<title>Node1&#45;&gt;Node13</title>
<path fill="none" stroke="midnightblue" d="M865,-168.4C865,-160.47 865,-150.46 865,-141.86"/>
<polygon fill="midnightblue" stroke="midnightblue" points="868.5,-141.66 865,-131.66 861.5,-141.66 868.5,-141.66"/>
</g>
<!-- Node14 -->
<g id="node14" class="node">
<title>Node14</title>
<g id="a_node14"><a xlink:title=" ">
<polygon fill="white" stroke="#bfbfbf" points="910,-112.5 910,-131.5 966,-131.5 966,-112.5 910,-112.5"/>
<text text-anchor="middle" x="938" y="-119.5" font-family="Helvetica,sans-Serif" font-size="10.00">optional</text>
</a>
</g>
</g>
<!-- Node1&#45;&gt;Node14 -->
<g id="edge15" class="edge">
<title>Node1&#45;&gt;Node14</title>
<path fill="none" stroke="midnightblue" d="M882.3,-168.4C893.45,-159.31 907.95,-147.49 919.36,-138.19"/>
<polygon fill="midnightblue" stroke="midnightblue" points="921.84,-140.69 927.38,-131.66 917.42,-135.26 921.84,-140.69"/>
</g>
<!-- Node3 -->
<g id="node3" class="node">
<title>Node3</title>
<g id="a_node3"><a xlink:title=" ">
<polygon fill="white" stroke="#bfbfbf" points="0,-56.5 0,-75.5 80,-75.5 80,-56.5 0,-56.5"/>
<text text-anchor="middle" x="40" y="-63.5" font-family="Helvetica,sans-Serif" font-size="10.00">Eigen/Sparse</text>
</a>
</g>
</g>
<!-- Node2&#45;&gt;Node3 -->
<g id="edge2" class="edge">
<title>Node2&#45;&gt;Node3</title>
<path fill="none" stroke="midnightblue" d="M509.98,-118.54C434.97,-113.07 253.03,-98.64 90.26,-76.07"/>
<polygon fill="midnightblue" stroke="midnightblue" points="90.46,-72.56 80.07,-74.64 89.48,-79.49 90.46,-72.56"/>
</g>
<!-- Node4 -->
<g id="node4" class="node">
<title>Node4</title>
<g id="a_node4"><a xlink:title=" ">
<polygon fill="white" stroke="#bfbfbf" points="98.5,-56.5 98.5,-75.5 217.5,-75.5 217.5,-56.5 98.5,-56.5"/>
<text text-anchor="middle" x="158" y="-63.5" font-family="Helvetica,sans-Serif" font-size="10.00">Eigen/src/Core/Map.h</text>
</a>
</g>
</g>
<!-- Node2&#45;&gt;Node4 -->
<g id="edge3" class="edge">
<title>Node2&#45;&gt;Node4</title>
<path fill="none" stroke="midnightblue" d="M509.97,-116.11C446.39,-107.24 310.87,-88.33 227.78,-76.74"/>
<polygon fill="midnightblue" stroke="midnightblue" points="228.05,-73.24 217.67,-75.33 227.09,-80.17 228.05,-73.24"/>
</g>
<!-- Node5 -->
<g id="node5" class="node">
<title>Node5</title>
<g id="a_node5"><a xlink:title=" ">
<polygon fill="white" stroke="#bfbfbf" points="236,-56.5 236,-75.5 366,-75.5 366,-56.5 236,-56.5"/>
<text text-anchor="middle" x="301" y="-63.5" font-family="Helvetica,sans-Serif" font-size="10.00">Eigen/src/Core/Matrix.h</text>
</a>
</g>
</g>
<!-- Node2&#45;&gt;Node5 -->
<g id="edge4" class="edge">
<title>Node2&#45;&gt;Node5</title>
<path fill="none" stroke="midnightblue" d="M509.78,-113.21C467.61,-103.87 396.75,-88.19 349.44,-77.72"/>
<polygon fill="midnightblue" stroke="midnightblue" points="349.95,-74.25 339.43,-75.5 348.44,-81.08 349.95,-74.25"/>
</g>
<!-- Node6 -->
<g id="node6" class="node">
<title>Node6</title>
<g id="a_node6"><a xlink:href="global__opts_8h.html" target="_top" xlink:title="Custom memory allocation, print and utility functions, and data types for floats and ints.">
<polygon fill="white" stroke="black" points="824,-56.5 824,-75.5 906,-75.5 906,-56.5 824,-56.5"/>
<text text-anchor="middle" x="865" y="-63.5" font-family="Helvetica,sans-Serif" font-size="10.00">global_opts.h</text>
</a>
</g>
</g>
<!-- Node2&#45;&gt;Node6 -->
<g id="edge5" class="edge">
<title>Node2&#45;&gt;Node6</title>
<path fill="none" stroke="midnightblue" d="M580.41,-115.25C630.16,-107.13 723.86,-91.73 813.72,-76.2"/>
<polygon fill="midnightblue" stroke="midnightblue" points="814.55,-79.61 823.81,-74.46 813.36,-72.72 814.55,-79.61"/>
</g>
<!-- Node9 -->
<g id="node9" class="node">
<title>Node9</title>
<g id="a_node9"><a xlink:title=" ">
<polygon fill="white" stroke="#bfbfbf" points="384,-56.5 384,-75.5 486,-75.5 486,-56.5 384,-56.5"/>
<text text-anchor="middle" x="435" y="-63.5" font-family="Helvetica,sans-Serif" font-size="10.00">ladel_constants.h</text>
</a>
</g>
</g>
<!-- Node2&#45;&gt;Node9 -->
<g id="edge8" class="edge">
<title>Node2&#45;&gt;Node9</title>
<path fill="none" stroke="midnightblue" d="M527.33,-112.32C509.61,-103.62 482.1,-90.12 461.71,-80.11"/>
<polygon fill="midnightblue" stroke="midnightblue" points="463.15,-76.92 452.63,-75.65 460.06,-83.2 463.15,-76.92"/>
</g>
<!-- Node10 -->
<g id="node10" class="node">
<title>Node10</title>
<g id="a_node10"><a xlink:title=" ">
<polygon fill="white" stroke="#bfbfbf" points="504,-56.5 504,-75.5 586,-75.5 586,-56.5 504,-56.5"/>
<text text-anchor="middle" x="545" y="-63.5" font-family="Helvetica,sans-Serif" font-size="10.00">ladel_types.h</text>
</a>
</g>
</g>
<!-- Node2&#45;&gt;Node10 -->
<g id="edge9" class="edge">
<title>Node2&#45;&gt;Node10</title>
<path fill="none" stroke="midnightblue" d="M545,-112.08C545,-105.01 545,-94.86 545,-85.99"/>
<polygon fill="midnightblue" stroke="midnightblue" points="548.5,-85.75 545,-75.75 541.5,-85.75 548.5,-85.75"/>
</g>
<!-- Node11 -->
<g id="node11" class="node">
<title>Node11</title>
<g id="a_node11"><a xlink:title=" ">
<polygon fill="white" stroke="#bfbfbf" points="604,-56.5 604,-75.5 662,-75.5 662,-56.5 604,-56.5"/>
<text text-anchor="middle" x="633" y="-63.5" font-family="Helvetica,sans-Serif" font-size="10.00">memory</text>
</a>
</g>
</g>
<!-- Node2&#45;&gt;Node11 -->
<g id="edge10" class="edge">
<title>Node2&#45;&gt;Node11</title>
<path fill="none" stroke="midnightblue" d="M559.14,-112.32C572.87,-103.9 593.94,-90.97 610.06,-81.07"/>
<polygon fill="midnightblue" stroke="midnightblue" points="612.2,-83.87 618.9,-75.65 608.54,-77.9 612.2,-83.87"/>
</g>
<!-- Node12 -->
<g id="node12" class="node">
<title>Node12</title>
<g id="a_node12"><a xlink:href="qpalm__cxx-export_8hpp.html" target="_top" xlink:title=" ">
<polygon fill="white" stroke="black" points="680,-56.5 680,-75.5 806,-75.5 806,-56.5 680,-56.5"/>
<text text-anchor="middle" x="743" y="-63.5" font-family="Helvetica,sans-Serif" font-size="10.00">qpalm_cxx&#45;export.hpp</text>
</a>
</g>
</g>
<!-- Node2&#45;&gt;Node12 -->
<g id="edge11" class="edge">
<title>Node2&#45;&gt;Node12</title>
<path fill="none" stroke="midnightblue" d="M576.37,-112.44C610.26,-103.2 664.4,-88.44 701.72,-78.26"/>
<polygon fill="midnightblue" stroke="midnightblue" points="703.05,-81.52 711.77,-75.52 701.2,-74.77 703.05,-81.52"/>
</g>
<!-- Node7 -->
<g id="node7" class="node">
<title>Node7</title>
<g id="a_node7"><a xlink:title=" ">
<polygon fill="white" stroke="#bfbfbf" points="909,-0.5 909,-19.5 959,-19.5 959,-0.5 909,-0.5"/>
<text text-anchor="middle" x="934" y="-7.5" font-family="Helvetica,sans-Serif" font-size="10.00">ladel.h</text>
</a>
</g>
</g>
<!-- Node6&#45;&gt;Node7 -->
<g id="edge6" class="edge">
<title>Node6&#45;&gt;Node7</title>
<path fill="none" stroke="midnightblue" d="M876.09,-56.32C886.49,-48.18 902.26,-35.84 914.72,-26.09"/>
<polygon fill="midnightblue" stroke="midnightblue" points="916.99,-28.75 922.71,-19.83 912.68,-23.24 916.99,-28.75"/>
</g>
<!-- Node8 -->
<g id="node8" class="node">
<title>Node8</title>
<g id="a_node8"><a xlink:title=" ">
<polygon fill="white" stroke="#bfbfbf" points="839.5,-0.5 839.5,-19.5 890.5,-19.5 890.5,-0.5 839.5,-0.5"/>
<text text-anchor="middle" x="865" y="-7.5" font-family="Helvetica,sans-Serif" font-size="10.00">math.h</text>
</a>
</g>
</g>
<!-- Node6&#45;&gt;Node8 -->
<g id="edge7" class="edge">
<title>Node6&#45;&gt;Node8</title>
<path fill="none" stroke="midnightblue" d="M865,-56.08C865,-49.01 865,-38.86 865,-29.99"/>
<polygon fill="midnightblue" stroke="midnightblue" points="868.5,-29.75 865,-19.75 861.5,-29.75 868.5,-29.75"/>
</g>
<!-- Node13&#45;&gt;Node6 -->
<g id="edge13" class="edge">
<title>Node13&#45;&gt;Node6</title>
<path fill="none" stroke="midnightblue" d="M865,-112.08C865,-105.01 865,-94.86 865,-85.99"/>
<polygon fill="midnightblue" stroke="midnightblue" points="868.5,-85.75 865,-75.75 861.5,-85.75 868.5,-85.75"/>
</g>
<!-- Node13&#45;&gt;Node7 -->
<g id="edge14" class="edge">
<title>Node13&#45;&gt;Node7</title>
<path fill="none" stroke="midnightblue" d="M878.37,-112.19C889.7,-104.08 905.55,-91.03 915,-76 923.9,-61.85 928.77,-43.36 931.35,-29.73"/>
<polygon fill="midnightblue" stroke="midnightblue" points="934.84,-30.05 933.01,-19.61 927.93,-28.91 934.84,-30.05"/>
</g>
</g>
</svg>
