<?xml version="1.0" encoding="UTF-8" standalone="no"?>
<!DOCTYPE svg PUBLIC "-//W3C//DTD SVG 1.1//EN"
 "http://www.w3.org/Graphics/SVG/1.1/DTD/svg11.dtd">
<!-- Generated by graphviz version 2.43.0 (0)
 -->
<!-- Title: QPALM/src/scaling.c Pages: 1 -->
<svg width="261pt" height="364pt"
 viewBox="0.00 0.00 261.35 364.00" xmlns="http://www.w3.org/2000/svg" xmlns:xlink="http://www.w3.org/1999/xlink">
<g id="graph0" class="graph" transform="scale(1 1) rotate(0) translate(4 360)">
<title>QPALM/src/scaling.c</title>
<polygon fill="white" stroke="transparent" points="-4,4 -4,-360 257.35,-360 257.35,4 -4,4"/>
<!-- Node1 -->
<g id="node1" class="node">
<title>Node1</title>
<g id="a_node1"><a xlink:title="Problem data scaling during setup.">
<polygon fill="#bfbfbf" stroke="black" points="89.85,-336.5 89.85,-355.5 202.85,-355.5 202.85,-336.5 89.85,-336.5"/>
<text text-anchor="middle" x="146.35" y="-343.5" font-family="Helvetica,sans-Serif" font-size="10.00">QPALM/src/scaling.c</text>
</a>
</g>
</g>
<!-- Node2 -->
<g id="node2" class="node">
<title>Node2</title>
<g id="a_node2"><a xlink:title=" ">
<polygon fill="white" stroke="#bfbfbf" points="19.35,-280.5 19.35,-299.5 69.35,-299.5 69.35,-280.5 19.35,-280.5"/>
<text text-anchor="middle" x="44.35" y="-287.5" font-family="Helvetica,sans-Serif" font-size="10.00">stdio.h</text>
</a>
</g>
</g>
<!-- Node1&#45;&gt;Node2 -->
<g id="edge1" class="edge">
<title>Node1&#45;&gt;Node2</title>
<path fill="none" stroke="midnightblue" d="M129.96,-336.32C113.68,-327.7 88.48,-314.36 69.63,-304.39"/>
<polygon fill="midnightblue" stroke="midnightblue" points="71.17,-301.24 60.7,-299.65 67.9,-307.43 71.17,-301.24"/>
</g>
<!-- Node3 -->
<g id="node3" class="node">
<title>Node3</title>
<g id="a_node3"><a xlink:href="scaling_8h.html" target="_top" xlink:title="Problem data scaling during setup.">
<polygon fill="white" stroke="black" points="87.35,-280.5 87.35,-299.5 147.35,-299.5 147.35,-280.5 87.35,-280.5"/>
<text text-anchor="middle" x="117.35" y="-287.5" font-family="Helvetica,sans-Serif" font-size="10.00">scaling.h</text>
</a>
</g>
</g>
<!-- Node1&#45;&gt;Node3 -->
<g id="edge2" class="edge">
<title>Node1&#45;&gt;Node3</title>
<path fill="none" stroke="midnightblue" d="M141.56,-336.08C137.59,-328.69 131.82,-317.95 126.91,-308.81"/>
<polygon fill="midnightblue" stroke="midnightblue" points="129.86,-306.91 122.05,-299.75 123.7,-310.22 129.86,-306.91"/>
</g>
<!-- Node6 -->
<g id="node6" class="node">
<title>Node6</title>
<g id="a_node6"><a xlink:title=" ">
<polygon fill="white" stroke="#bfbfbf" points="98.35,-0.5 98.35,-19.5 148.35,-19.5 148.35,-0.5 98.35,-0.5"/>
<text text-anchor="middle" x="123.35" y="-7.5" font-family="Helvetica,sans-Serif" font-size="10.00">ladel.h</text>
</a>
</g>
</g>
<!-- Node1&#45;&gt;Node6 -->
<g id="edge18" class="edge">
<title>Node1&#45;&gt;Node6</title>
<path fill="none" stroke="midnightblue" d="M164.99,-336.44C195.64,-320.93 253.35,-285.09 253.35,-235 253.35,-235 253.35,-235 253.35,-121 253.35,-70.85 196.27,-38.86 157.76,-22.99"/>
<polygon fill="midnightblue" stroke="midnightblue" points="159,-19.72 148.41,-19.3 156.43,-26.23 159,-19.72"/>
</g>
<!-- Node8 -->
<g id="node8" class="node">
<title>Node8</title>
<g id="a_node8"><a xlink:href="lin__alg_8h.html" target="_top" xlink:title="Linear algebra with vectors.">
<polygon fill="white" stroke="black" points="88.35,-224.5 88.35,-243.5 146.35,-243.5 146.35,-224.5 88.35,-224.5"/>
<text text-anchor="middle" x="117.35" y="-231.5" font-family="Helvetica,sans-Serif" font-size="10.00">lin_alg.h</text>
</a>
</g>
</g>
<!-- Node1&#45;&gt;Node8 -->
<g id="edge17" class="edge">
<title>Node1&#45;&gt;Node8</title>
<path fill="none" stroke="midnightblue" d="M150.37,-336.31C155.67,-323.57 163.53,-299.26 156.35,-280 152.18,-268.81 143.83,-258.56 135.92,-250.68"/>
<polygon fill="midnightblue" stroke="midnightblue" points="138.05,-247.87 128.34,-243.63 133.29,-253 138.05,-247.87"/>
</g>
<!-- Node4 -->
<g id="node4" class="node">
<title>Node4</title>
<g id="a_node4"><a xlink:href="types_8h.html" target="_top" xlink:title="Internal data structures used in QPALM.">
<polygon fill="white" stroke="black" points="3.85,-112.5 3.85,-131.5 56.85,-131.5 56.85,-112.5 3.85,-112.5"/>
<text text-anchor="middle" x="30.35" y="-119.5" font-family="Helvetica,sans-Serif" font-size="10.00">types.h</text>
</a>
</g>
</g>
<!-- Node3&#45;&gt;Node4 -->
<g id="edge3" class="edge">
<title>Node3&#45;&gt;Node4</title>
<path fill="none" stroke="midnightblue" d="M108.16,-280.29C91.59,-263.97 56.97,-226.89 41.35,-188 35.41,-173.21 32.68,-155.29 31.42,-142.01"/>
<polygon fill="midnightblue" stroke="midnightblue" points="34.89,-141.44 30.65,-131.73 27.91,-141.96 34.89,-141.44"/>
</g>
<!-- Node3&#45;&gt;Node8 -->
<g id="edge8" class="edge">
<title>Node3&#45;&gt;Node8</title>
<path fill="none" stroke="midnightblue" d="M117.35,-280.08C117.35,-273.01 117.35,-262.86 117.35,-253.99"/>
<polygon fill="midnightblue" stroke="midnightblue" points="120.85,-253.75 117.35,-243.75 113.85,-253.75 120.85,-253.75"/>
</g>
<!-- Node10 -->
<g id="node10" class="node">
<title>Node10</title>
<g id="a_node10"><a xlink:href="constants_8h.html" target="_top" xlink:title="Constants used in QPALM.">
<polygon fill="white" stroke="black" points="151.85,-112.5 151.85,-131.5 224.85,-131.5 224.85,-112.5 151.85,-112.5"/>
<text text-anchor="middle" x="188.35" y="-119.5" font-family="Helvetica,sans-Serif" font-size="10.00">constants.h</text>
</a>
</g>
</g>
<!-- Node3&#45;&gt;Node10 -->
<g id="edge16" class="edge">
<title>Node3&#45;&gt;Node10</title>
<path fill="none" stroke="midnightblue" d="M126.11,-280.34C134.46,-271.72 146.97,-257.81 155.35,-244 169.31,-221 171.14,-213.92 178.35,-188 182.61,-172.69 185.19,-154.8 186.66,-141.68"/>
<polygon fill="midnightblue" stroke="midnightblue" points="190.16,-141.85 187.68,-131.55 183.2,-141.15 190.16,-141.85"/>
</g>
<!-- Node5 -->
<g id="node5" class="node">
<title>Node5</title>
<g id="a_node5"><a xlink:href="global__opts_8h.html" target="_top" xlink:title="Custom memory allocation, print and utility functions, and data types for floats and ints.">
<polygon fill="white" stroke="black" points="13.35,-56.5 13.35,-75.5 95.35,-75.5 95.35,-56.5 13.35,-56.5"/>
<text text-anchor="middle" x="54.35" y="-63.5" font-family="Helvetica,sans-Serif" font-size="10.00">global_opts.h</text>
</a>
</g>
</g>
<!-- Node4&#45;&gt;Node5 -->
<g id="edge4" class="edge">
<title>Node4&#45;&gt;Node5</title>
<path fill="none" stroke="midnightblue" d="M34.31,-112.08C37.56,-104.77 42.27,-94.18 46.3,-85.1"/>
<polygon fill="midnightblue" stroke="midnightblue" points="49.6,-86.31 50.46,-75.75 43.2,-83.47 49.6,-86.31"/>
</g>
<!-- Node4&#45;&gt;Node6 -->
<g id="edge7" class="edge">
<title>Node4&#45;&gt;Node6</title>
<path fill="none" stroke="midnightblue" d="M21.93,-112.41C10.22,-99.37 -8.23,-74.2 4.35,-56 9.4,-48.69 55.09,-32.8 88.35,-22"/>
<polygon fill="midnightblue" stroke="midnightblue" points="89.77,-25.22 98.21,-18.82 87.62,-18.56 89.77,-25.22"/>
</g>
<!-- Node5&#45;&gt;Node6 -->
<g id="edge5" class="edge">
<title>Node5&#45;&gt;Node6</title>
<path fill="none" stroke="midnightblue" d="M65.43,-56.32C75.83,-48.18 91.61,-35.84 104.07,-26.09"/>
<polygon fill="midnightblue" stroke="midnightblue" points="106.34,-28.75 112.06,-19.83 102.03,-23.24 106.34,-28.75"/>
</g>
<!-- Node7 -->
<g id="node7" class="node">
<title>Node7</title>
<g id="a_node7"><a xlink:title=" ">
<polygon fill="white" stroke="#bfbfbf" points="28.85,-0.5 28.85,-19.5 79.85,-19.5 79.85,-0.5 28.85,-0.5"/>
<text text-anchor="middle" x="54.35" y="-7.5" font-family="Helvetica,sans-Serif" font-size="10.00">math.h</text>
</a>
</g>
</g>
<!-- Node5&#45;&gt;Node7 -->
<g id="edge6" class="edge">
<title>Node5&#45;&gt;Node7</title>
<path fill="none" stroke="midnightblue" d="M54.35,-56.08C54.35,-49.01 54.35,-38.86 54.35,-29.99"/>
<polygon fill="midnightblue" stroke="midnightblue" points="57.85,-29.75 54.35,-19.75 50.85,-29.75 57.85,-29.75"/>
</g>
<!-- Node8&#45;&gt;Node4 -->
<g id="edge9" class="edge">
<title>Node8&#45;&gt;Node4</title>
<path fill="none" stroke="midnightblue" d="M101.11,-224.44C87.54,-216.56 68.5,-203.72 56.35,-188 45.68,-174.19 38.8,-155.42 34.81,-141.6"/>
<polygon fill="midnightblue" stroke="midnightblue" points="38.15,-140.54 32.22,-131.77 31.38,-142.33 38.15,-140.54"/>
</g>
<!-- Node9 -->
<g id="node9" class="node">
<title>Node9</title>
<g id="a_node9"><a xlink:href="solver__interface_8h.html" target="_top" xlink:title="Interface and wrapper to matrix/factorization (ladel) functions.">
<polygon fill="white" stroke="black" points="65.35,-168.5 65.35,-187.5 169.35,-187.5 169.35,-168.5 65.35,-168.5"/>
<text text-anchor="middle" x="117.35" y="-175.5" font-family="Helvetica,sans-Serif" font-size="10.00">solver_interface.h</text>
</a>
</g>
</g>
<!-- Node8&#45;&gt;Node9 -->
<g id="edge10" class="edge">
<title>Node8&#45;&gt;Node9</title>
<path fill="none" stroke="midnightblue" d="M117.35,-224.08C117.35,-217.01 117.35,-206.86 117.35,-197.99"/>
<polygon fill="midnightblue" stroke="midnightblue" points="120.85,-197.75 117.35,-187.75 113.85,-197.75 120.85,-197.75"/>
</g>
<!-- Node9&#45;&gt;Node4 -->
<g id="edge14" class="edge">
<title>Node9&#45;&gt;Node4</title>
<path fill="none" stroke="midnightblue" d="M103.37,-168.32C89.8,-159.9 68.97,-146.97 53.02,-137.07"/>
<polygon fill="midnightblue" stroke="midnightblue" points="54.63,-133.95 44.29,-131.65 50.94,-139.9 54.63,-133.95"/>
</g>
<!-- Node9&#45;&gt;Node5 -->
<g id="edge11" class="edge">
<title>Node9&#45;&gt;Node5</title>
<path fill="none" stroke="midnightblue" d="M112.4,-168.37C102.05,-150.3 77.93,-108.18 64.26,-84.31"/>
<polygon fill="midnightblue" stroke="midnightblue" points="67.28,-82.53 59.27,-75.59 61.2,-86.01 67.28,-82.53"/>
</g>
<!-- Node9&#45;&gt;Node6 -->
<g id="edge15" class="edge">
<title>Node9&#45;&gt;Node6</title>
<path fill="none" stroke="midnightblue" d="M117.67,-168.08C118.62,-141.95 121.39,-65.21 122.68,-29.58"/>
<polygon fill="midnightblue" stroke="midnightblue" points="126.18,-29.69 123.04,-19.57 119.18,-29.44 126.18,-29.69"/>
</g>
<!-- Node9&#45;&gt;Node10 -->
<g id="edge12" class="edge">
<title>Node9&#45;&gt;Node10</title>
<path fill="none" stroke="midnightblue" d="M128.76,-168.32C139.46,-160.18 155.69,-147.84 168.51,-138.09"/>
<polygon fill="midnightblue" stroke="midnightblue" points="170.89,-140.67 176.73,-131.83 166.66,-135.1 170.89,-140.67"/>
</g>
<!-- Node10&#45;&gt;Node6 -->
<g id="edge13" class="edge">
<title>Node10&#45;&gt;Node6</title>
<path fill="none" stroke="midnightblue" d="M183.25,-112.37C172.57,-94.3 147.68,-52.18 133.58,-28.31"/>
<polygon fill="midnightblue" stroke="midnightblue" points="136.53,-26.42 128.43,-19.59 130.5,-29.98 136.53,-26.42"/>
</g>
</g>
</svg>
