<?xml version="1.0" encoding="UTF-8" standalone="no"?>
<!DOCTYPE svg PUBLIC "-//W3C//DTD SVG 1.1//EN"
 "http://www.w3.org/Graphics/SVG/1.1/DTD/svg11.dtd">
<!-- Generated by graphviz version 2.43.0 (0)
 -->
<!-- Title: QPALM/include/solver_interface.h Pages: 1 -->
<!--zoomable 341 -->
<svg id="main" version="1.1" xmlns="http://www.w3.org/2000/svg" xmlns:xlink="http://www.w3.org/1999/xlink" xml:space="preserve" onload="init(evt)">
<style type="text/css"><![CDATA[
.edge:hover path { stroke: red; }
.edge:hover polygon { stroke: red; fill: red; }
]]></style>
<script type="text/javascript"><![CDATA[
var edges = document.getElementsByTagName('g');
if (edges && edges.length) {
  for (var i=0;i<edges.length;i++) {
    if (edges[i].id.substr(0,4)=='edge') {
      edges[i].setAttribute('class','edge');
    }
  }
}
]]></script>
        <defs>
                <circle id="rim" cx="0" cy="0" r="7"/>
                <circle id="rim2" cx="0" cy="0" r="3.5"/>
                <g id="zoomPlus">
                        <use xlink:href="#rim" fill="#404040">
                                <set attributeName="fill" to="#808080" begin="zoomplus.mouseover" end="zoomplus.mouseout"/>
                        </use>
                        <path d="M-4,0h8M0,-4v8" fill="none" stroke="white" stroke-width="1.5" pointer-events="none"/>
                </g>
                <g id="zoomMin">
                        <use xlink:href="#rim" fill="#404040">
                                <set attributeName="fill" to="#808080" begin="zoomminus.mouseover" end="zoomminus.mouseout"/>
                        </use>
                        <path d="M-4,0h8" fill="none" stroke="white" stroke-width="1.5" pointer-events="none"/>
                </g>
                <g id="dirArrow">
                        <path fill="none" stroke="white" stroke-width="1.5" d="M0,-3.0v7 M-2.5,-0.5L0,-3.0L2.5,-0.5"/>
                </g>
               <g id="resetDef">
                       <use xlink:href="#rim2" fill="#404040">
                               <set attributeName="fill" to="#808080" begin="reset.mouseover" end="reset.mouseout"/>
                       </use>
               </g>
        </defs>

<script type="text/javascript">
var viewWidth = 1573;
var viewHeight = 341;
var sectionId = 'dynsection-1';
</script>
<script xlink:href="svgpan.js"/>
<svg id="graph" class="graph">
<g id="viewport">
<title>QPALM/include/solver_interface.h</title>
<polygon fill="white" stroke="transparent" points="-4,4 -4,-337 1568.67,-337 1568.67,4 -4,4"/>
<!-- Node1 -->
<g id="node1" class="node">
<title>Node1</title>
<g id="a_node1"><a xlink:title="Interface and wrapper to matrix/factorization (ladel) functions.">
<polygon fill="#bfbfbf" stroke="black" points="756.46,-302.5 756.46,-332.5 878.46,-332.5 878.46,-302.5 756.46,-302.5"/>
<text text-anchor="start" x="764.46" y="-320.5" font-family="Helvetica,sans-Serif" font-size="10.00">QPALM/include/solver</text>
<text text-anchor="middle" x="817.46" y="-309.5" font-family="Helvetica,sans-Serif" font-size="10.00">_interface.h</text>
</a>
</g>
</g>
<!-- Node2 -->
<g id="node2" class="node">
<title>Node2</title>
<g id="a_node2"><a xlink:href="lin__alg_8h.html" target="_top" xlink:title="Linear algebra with vectors.">
<polygon fill="white" stroke="black" points="750.96,-246.5 750.96,-265.5 883.96,-265.5 883.96,-246.5 750.96,-246.5"/>
<text text-anchor="middle" x="817.46" y="-253.5" font-family="Helvetica,sans-Serif" font-size="10.00">QPALM/include/lin_alg.h</text>
</a>
</g>
</g>
<!-- Node1&#45;&gt;Node2 -->
<g id="edge1" class="edge">
<title>Node1&#45;&gt;Node2</title>
<path fill="none" stroke="midnightblue" d="M817.46,-292.29C817.46,-282.86 817.46,-272.65 817.46,-265.66"/>
<polygon fill="midnightblue" stroke="midnightblue" points="813.96,-292.4 817.46,-302.4 820.96,-292.4 813.96,-292.4"/>
</g>
<!-- Node3 -->
<g id="node3" class="node">
<title>Node3</title>
<g id="a_node3"><a xlink:href="qpalm_8h.html" target="_top" xlink:title="QPALM main solver API.">
<polygon fill="white" stroke="black" points="471.96,-134.5 471.96,-153.5 602.96,-153.5 602.96,-134.5 471.96,-134.5"/>
<text text-anchor="middle" x="537.46" y="-141.5" font-family="Helvetica,sans-Serif" font-size="10.00">QPALM/include/qpalm.h</text>
</a>
</g>
</g>
<!-- Node1&#45;&gt;Node3 -->
<g id="edge22" class="edge">
<title>Node1&#45;&gt;Node3</title>
<path fill="none" stroke="midnightblue" d="M746.31,-312.52C557.11,-301.2 52.63,-265.99 4.46,-210 -1.34,-203.26 -1.56,-196.54 4.46,-190 35.5,-156.22 336.25,-147.78 471.8,-145.68"/>
<polygon fill="midnightblue" stroke="midnightblue" points="746.24,-316.02 756.43,-313.12 746.65,-309.03 746.24,-316.02"/>
</g>
<!-- Node7 -->
<g id="node7" class="node">
<title>Node7</title>
<g id="a_node7"><a xlink:href="qpalm_8c.html" target="_top" xlink:title="QPALM main solver API.">
<polygon fill="white" stroke="black" points="1215.46,-73 1215.46,-92 1325.46,-92 1325.46,-73 1215.46,-73"/>
<text text-anchor="middle" x="1270.46" y="-80" font-family="Helvetica,sans-Serif" font-size="10.00">QPALM/src/qpalm.c</text>
</a>
</g>
</g>
<!-- Node1&#45;&gt;Node7 -->
<g id="edge24" class="edge">
<title>Node1&#45;&gt;Node7</title>
<path fill="none" stroke="midnightblue" d="M888.63,-317.39C1055.67,-317.8 1465.21,-308.53 1550.46,-210 1617.73,-132.25 1424.97,-99.87 1325.61,-88.61"/>
<polygon fill="midnightblue" stroke="midnightblue" points="888.47,-313.89 878.46,-317.35 888.45,-320.89 888.47,-313.89"/>
</g>
<!-- Node10 -->
<g id="node10" class="node">
<title>Node10</title>
<g id="a_node10"><a xlink:href="iteration_8c.html" target="_top" xlink:title="QPALM main solver routines.">
<polygon fill="white" stroke="black" points="13.46,-190.5 13.46,-209.5 133.46,-209.5 133.46,-190.5 13.46,-190.5"/>
<text text-anchor="middle" x="73.46" y="-197.5" font-family="Helvetica,sans-Serif" font-size="10.00">QPALM/src/iteration.c</text>
</a>
</g>
</g>
<!-- Node1&#45;&gt;Node10 -->
<g id="edge23" class="edge">
<title>Node1&#45;&gt;Node10</title>
<path fill="none" stroke="midnightblue" d="M745.93,-305.4C597.97,-282.43 261.02,-230.12 128.47,-209.54"/>
<polygon fill="midnightblue" stroke="midnightblue" points="745.84,-308.92 756.26,-307 746.91,-302.01 745.84,-308.92"/>
</g>
<!-- Node15 -->
<g id="node15" class="node">
<title>Node15</title>
<g id="a_node15"><a xlink:href="solver__interface_8c.html" target="_top" xlink:title="Interface and wrapper to matrix/factorization (ladel) functions.">
<polygon fill="white" stroke="black" points="1383.46,-190.5 1383.46,-209.5 1541.46,-209.5 1541.46,-190.5 1383.46,-190.5"/>
<text text-anchor="middle" x="1462.46" y="-197.5" font-family="Helvetica,sans-Serif" font-size="10.00">QPALM/src/solver_interface.c</text>
</a>
</g>
</g>
<!-- Node1&#45;&gt;Node15 -->
<g id="edge25" class="edge">
<title>Node1&#45;&gt;Node15</title>
<path fill="none" stroke="midnightblue" d="M888.77,-303.73C1021.3,-280 1302.28,-229.68 1414.6,-209.57"/>
<polygon fill="midnightblue" stroke="midnightblue" points="887.94,-300.32 878.72,-305.53 889.18,-307.21 887.94,-300.32"/>
</g>
<!-- Node2&#45;&gt;Node3 -->
<g id="edge2" class="edge">
<title>Node2&#45;&gt;Node3</title>
<path fill="none" stroke="midnightblue" d="M740.7,-252.34C575.44,-246.25 199.3,-230.22 180.46,-210 139.5,-166.04 357.78,-151.5 471.72,-146.95"/>
<polygon fill="midnightblue" stroke="midnightblue" points="740.67,-255.84 750.79,-252.71 740.93,-248.85 740.67,-255.84"/>
</g>
<!-- Node2&#45;&gt;Node7 -->
<g id="edge16" class="edge">
<title>Node2&#45;&gt;Node7</title>
<path fill="none" stroke="midnightblue" d="M894.77,-252.42C1026.07,-247.4 1281.68,-234.57 1314.46,-210 1342.59,-188.9 1352.03,-165.53 1336.46,-134 1326.81,-114.47 1305.58,-100.41 1289.79,-92.16"/>
<polygon fill="midnightblue" stroke="midnightblue" points="894.24,-248.94 884.38,-252.81 894.51,-255.94 894.24,-248.94"/>
</g>
<!-- Node8 -->
<g id="node8" class="node">
<title>Node8</title>
<g id="a_node8"><a xlink:href="scaling_8h.html" target="_top" xlink:title="Problem data scaling during setup.">
<polygon fill="white" stroke="black" points="1153.96,-190.5 1153.96,-209.5 1288.96,-209.5 1288.96,-190.5 1153.96,-190.5"/>
<text text-anchor="middle" x="1221.46" y="-197.5" font-family="Helvetica,sans-Serif" font-size="10.00">QPALM/include/scaling.h</text>
</a>
</g>
</g>
<!-- Node2&#45;&gt;Node8 -->
<g id="edge7" class="edge">
<title>Node2&#45;&gt;Node8</title>
<path fill="none" stroke="midnightblue" d="M891.49,-245.1C967.78,-234.91 1085.47,-219.18 1157.74,-209.52"/>
<polygon fill="midnightblue" stroke="midnightblue" points="890.92,-241.65 881.47,-246.44 891.85,-248.59 890.92,-241.65"/>
</g>
<!-- Node9 -->
<g id="node9" class="node">
<title>Node9</title>
<g id="a_node9"><a xlink:href="scaling_8c.html" target="_top" xlink:title="Problem data scaling during setup.">
<polygon fill="white" stroke="black" points="1213.96,-134.5 1213.96,-153.5 1326.96,-153.5 1326.96,-134.5 1213.96,-134.5"/>
<text text-anchor="middle" x="1270.46" y="-141.5" font-family="Helvetica,sans-Serif" font-size="10.00">QPALM/src/scaling.c</text>
</a>
</g>
</g>
<!-- Node2&#45;&gt;Node9 -->
<g id="edge17" class="edge">
<title>Node2&#45;&gt;Node9</title>
<path fill="none" stroke="midnightblue" d="M894.3,-253.37C1023.26,-249.82 1271.82,-239.24 1298.46,-210 1313.68,-193.29 1292.56,-167.02 1279.47,-153.57"/>
<polygon fill="midnightblue" stroke="midnightblue" points="894,-249.87 884.1,-253.64 894.19,-256.87 894,-249.87"/>
</g>
<!-- Node2&#45;&gt;Node10 -->
<g id="edge11" class="edge">
<title>Node2&#45;&gt;Node10</title>
<path fill="none" stroke="midnightblue" d="M740.59,-251.19C615.92,-244.7 361.95,-230.23 147.46,-210 142.95,-209.57 138.29,-209.1 133.6,-208.59"/>
<polygon fill="midnightblue" stroke="midnightblue" points="740.63,-254.7 750.79,-251.72 740.99,-247.7 740.63,-254.7"/>
</g>
<!-- Node11 -->
<g id="node11" class="node">
<title>Node11</title>
<g id="a_node11"><a xlink:href="lin__alg_8c.html" target="_top" xlink:title="Linear algebra with vectors.">
<polygon fill="white" stroke="black" points="189.96,-190.5 189.96,-209.5 300.96,-209.5 300.96,-190.5 189.96,-190.5"/>
<text text-anchor="middle" x="245.46" y="-197.5" font-family="Helvetica,sans-Serif" font-size="10.00">QPALM/src/lin_alg.c</text>
</a>
</g>
</g>
<!-- Node2&#45;&gt;Node11 -->
<g id="edge12" class="edge">
<title>Node2&#45;&gt;Node11</title>
<path fill="none" stroke="midnightblue" d="M740.81,-249.44C641.24,-241.94 462.11,-227.48 309.46,-210 306.78,-209.69 304.05,-209.37 301.28,-209.02"/>
<polygon fill="midnightblue" stroke="midnightblue" points="740.54,-252.93 750.78,-250.19 741.07,-245.95 740.54,-252.93"/>
</g>
<!-- Node12 -->
<g id="node12" class="node">
<title>Node12</title>
<g id="a_node12"><a xlink:href="linesearch_8c.html" target="_top" xlink:title="Routines to perform exact or backtracking linesearch.">
<polygon fill="white" stroke="black" points="318.96,-190.5 318.96,-209.5 447.96,-209.5 447.96,-190.5 318.96,-190.5"/>
<text text-anchor="middle" x="383.46" y="-197.5" font-family="Helvetica,sans-Serif" font-size="10.00">QPALM/src/linesearch.c</text>
</a>
</g>
</g>
<!-- Node2&#45;&gt;Node12 -->
<g id="edge13" class="edge">
<title>Node2&#45;&gt;Node12</title>
<path fill="none" stroke="midnightblue" d="M740.45,-245.42C657.31,-235.07 526.33,-218.78 448.27,-209.06"/>
<polygon fill="midnightblue" stroke="midnightblue" points="740.24,-248.92 750.6,-246.68 741.1,-241.97 740.24,-248.92"/>
</g>
<!-- Node13 -->
<g id="node13" class="node">
<title>Node13</title>
<g id="a_node13"><a xlink:href="newton_8c.html" target="_top" xlink:title="Functions to calculate the semismooth Newton direction.">
<polygon fill="white" stroke="black" points="465.96,-190.5 465.96,-209.5 580.96,-209.5 580.96,-190.5 465.96,-190.5"/>
<text text-anchor="middle" x="523.46" y="-197.5" font-family="Helvetica,sans-Serif" font-size="10.00">QPALM/src/newton.c</text>
</a>
</g>
</g>
<!-- Node2&#45;&gt;Node13 -->
<g id="edge14" class="edge">
<title>Node2&#45;&gt;Node13</title>
<path fill="none" stroke="midnightblue" d="M760.84,-244.6C705.28,-234.4 621.56,-219.02 569.82,-209.52"/>
<polygon fill="midnightblue" stroke="midnightblue" points="760.4,-248.08 770.87,-246.44 761.67,-241.19 760.4,-248.08"/>
</g>
<!-- Node14 -->
<g id="node14" class="node">
<title>Node14</title>
<g id="a_node14"><a xlink:href="nonconvex_8c.html" target="_top" xlink:title="Routines to deal with nonconvex QPs.">
<polygon fill="white" stroke="black" points="599.46,-190.5 599.46,-209.5 731.46,-209.5 731.46,-190.5 599.46,-190.5"/>
<text text-anchor="middle" x="665.46" y="-197.5" font-family="Helvetica,sans-Serif" font-size="10.00">QPALM/src/nonconvex.c</text>
</a>
</g>
</g>
<!-- Node2&#45;&gt;Node14 -->
<g id="edge15" class="edge">
<title>Node2&#45;&gt;Node14</title>
<path fill="none" stroke="midnightblue" d="M783.79,-243.04C755.19,-232.88 714.84,-218.55 689.43,-209.52"/>
<polygon fill="midnightblue" stroke="midnightblue" points="782.78,-246.39 793.37,-246.44 785.12,-239.8 782.78,-246.39"/>
</g>
<!-- Node2&#45;&gt;Node15 -->
<g id="edge18" class="edge">
<title>Node2&#45;&gt;Node15</title>
<path fill="none" stroke="midnightblue" d="M894.21,-249.11C1000.87,-240.85 1199.9,-225.11 1369.46,-210 1373.98,-209.6 1378.63,-209.17 1383.32,-208.74"/>
<polygon fill="midnightblue" stroke="midnightblue" points="893.89,-245.63 884.19,-249.89 894.43,-252.61 893.89,-245.63"/>
</g>
<!-- Node16 -->
<g id="node16" class="node">
<title>Node16</title>
<g id="a_node16"><a xlink:href="termination_8c.html" target="_top" xlink:title="Routines to check the termination and infeasibility criteria.">
<polygon fill="white" stroke="black" points="749.46,-190.5 749.46,-209.5 885.46,-209.5 885.46,-190.5 749.46,-190.5"/>
<text text-anchor="middle" x="817.46" y="-197.5" font-family="Helvetica,sans-Serif" font-size="10.00">QPALM/src/termination.c</text>
</a>
</g>
</g>
<!-- Node2&#45;&gt;Node16 -->
<g id="edge19" class="edge">
<title>Node2&#45;&gt;Node16</title>
<path fill="none" stroke="midnightblue" d="M817.46,-235.8C817.46,-226.91 817.46,-216.78 817.46,-209.75"/>
<polygon fill="midnightblue" stroke="midnightblue" points="813.96,-236.08 817.46,-246.08 820.96,-236.08 813.96,-236.08"/>
</g>
<!-- Node17 -->
<g id="node17" class="node">
<title>Node17</title>
<g id="a_node17"><a xlink:href="util_8c.html" target="_top" xlink:title="Utility functions.">
<polygon fill="white" stroke="black" points="903.96,-190.5 903.96,-209.5 998.96,-209.5 998.96,-190.5 903.96,-190.5"/>
<text text-anchor="middle" x="951.46" y="-197.5" font-family="Helvetica,sans-Serif" font-size="10.00">QPALM/src/util.c</text>
</a>
</g>
</g>
<!-- Node2&#45;&gt;Node17 -->
<g id="edge20" class="edge">
<title>Node2&#45;&gt;Node17</title>
<path fill="none" stroke="midnightblue" d="M848.13,-242.64C873.28,-232.5 908.21,-218.43 930.32,-209.52"/>
<polygon fill="midnightblue" stroke="midnightblue" points="846.66,-239.46 838.69,-246.44 849.27,-245.95 846.66,-239.46"/>
</g>
<!-- Node18 -->
<g id="node18" class="node">
<title>Node18</title>
<g id="a_node18"><a xlink:href="validate_8c.html" target="_top" xlink:title="Validation of the user provided settings and data.">
<polygon fill="white" stroke="black" points="1016.96,-190.5 1016.96,-209.5 1135.96,-209.5 1135.96,-190.5 1016.96,-190.5"/>
<text text-anchor="middle" x="1076.46" y="-197.5" font-family="Helvetica,sans-Serif" font-size="10.00">QPALM/src/validate.c</text>
</a>
</g>
</g>
<!-- Node2&#45;&gt;Node18 -->
<g id="edge21" class="edge">
<title>Node2&#45;&gt;Node18</title>
<path fill="none" stroke="midnightblue" d="M868.56,-244.35C917.51,-234.14 990.41,-218.94 1035.61,-209.52"/>
<polygon fill="midnightblue" stroke="midnightblue" points="867.57,-240.98 858.5,-246.44 869,-247.83 867.57,-240.98"/>
</g>
<!-- Node4 -->
<g id="node4" class="node">
<title>Node4</title>
<g id="a_node4"><a xlink:href="qpalm_8cpp.html" target="_top" xlink:title=" ">
<polygon fill="white" stroke="black" points="615.46,-67.5 615.46,-97.5 737.46,-97.5 737.46,-67.5 615.46,-67.5"/>
<text text-anchor="start" x="623.46" y="-85.5" font-family="Helvetica,sans-Serif" font-size="10.00">QPALM/interfaces/cxx</text>
<text text-anchor="middle" x="676.46" y="-74.5" font-family="Helvetica,sans-Serif" font-size="10.00">/src/qpalm.cpp</text>
</a>
</g>
</g>
<!-- Node3&#45;&gt;Node4 -->
<g id="edge3" class="edge">
<title>Node3&#45;&gt;Node4</title>
<path fill="none" stroke="midnightblue" d="M566.75,-130.46C589.27,-120.82 620.36,-107.51 643.7,-97.52"/>
<polygon fill="midnightblue" stroke="midnightblue" points="565.19,-127.32 557.37,-134.48 567.94,-133.76 565.19,-127.32"/>
</g>
<!-- Node5 -->
<g id="node5" class="node">
<title>Node5</title>
<g id="a_node5"><a xlink:href="qpalm__fortran_8h.html" target="_top" xlink:title=" ">
<polygon fill="white" stroke="black" points="459.46,-67.5 459.46,-97.5 597.46,-97.5 597.46,-67.5 459.46,-67.5"/>
<text text-anchor="start" x="467.46" y="-85.5" font-family="Helvetica,sans-Serif" font-size="10.00">QPALM/interfaces/fortran</text>
<text text-anchor="middle" x="528.46" y="-74.5" font-family="Helvetica,sans-Serif" font-size="10.00">/qpalm_fortran.h</text>
</a>
</g>
</g>
<!-- Node3&#45;&gt;Node5 -->
<g id="edge4" class="edge">
<title>Node3&#45;&gt;Node5</title>
<path fill="none" stroke="midnightblue" d="M534.66,-124.53C533.34,-115.81 531.8,-105.59 530.58,-97.52"/>
<polygon fill="midnightblue" stroke="midnightblue" points="531.21,-125.11 536.17,-134.48 538.13,-124.06 531.21,-125.11"/>
</g>
<!-- Node3&#45;&gt;Node7 -->
<g id="edge6" class="edge">
<title>Node3&#45;&gt;Node7</title>
<path fill="none" stroke="midnightblue" d="M613.51,-136.83C761.66,-124.8 1085.76,-98.49 1215.33,-87.97"/>
<polygon fill="midnightblue" stroke="midnightblue" points="612.83,-133.37 603.15,-137.67 613.4,-140.35 612.83,-133.37"/>
</g>
<!-- Node6 -->
<g id="node6" class="node">
<title>Node6</title>
<g id="a_node6"><a xlink:href="qpalm__fortran_8c.html" target="_top" xlink:title=" ">
<polygon fill="white" stroke="black" points="459.46,-0.5 459.46,-30.5 597.46,-30.5 597.46,-0.5 459.46,-0.5"/>
<text text-anchor="start" x="467.46" y="-18.5" font-family="Helvetica,sans-Serif" font-size="10.00">QPALM/interfaces/fortran</text>
<text text-anchor="middle" x="528.46" y="-7.5" font-family="Helvetica,sans-Serif" font-size="10.00">/qpalm_fortran.c</text>
</a>
</g>
</g>
<!-- Node5&#45;&gt;Node6 -->
<g id="edge5" class="edge">
<title>Node5&#45;&gt;Node6</title>
<path fill="none" stroke="midnightblue" d="M528.46,-57.11C528.46,-48.15 528.46,-38.32 528.46,-30.58"/>
<polygon fill="midnightblue" stroke="midnightblue" points="524.96,-57.4 528.46,-67.4 531.96,-57.4 524.96,-57.4"/>
</g>
<!-- Node8&#45;&gt;Node3 -->
<g id="edge8" class="edge">
<title>Node8&#45;&gt;Node3</title>
<path fill="none" stroke="midnightblue" d="M1143.97,-189.89C940.94,-170.56 713.03,-155.66 603.22,-148.92"/>
<polygon fill="midnightblue" stroke="midnightblue" points="1143.64,-193.38 1153.93,-190.85 1144.31,-186.41 1143.64,-193.38"/>
</g>
<!-- Node8&#45;&gt;Node7 -->
<g id="edge9" class="edge">
<title>Node8&#45;&gt;Node7</title>
<path fill="none" stroke="midnightblue" d="M1210.65,-181.04C1204.04,-167.57 1198.13,-148.97 1205.46,-134 1215.01,-114.49 1236.13,-100.34 1251.72,-92.07"/>
<polygon fill="midnightblue" stroke="midnightblue" points="1207.77,-183.08 1215.63,-190.18 1213.92,-179.73 1207.77,-183.08"/>
</g>
<!-- Node8&#45;&gt;Node9 -->
<g id="edge10" class="edge">
<title>Node8&#45;&gt;Node9</title>
<path fill="none" stroke="midnightblue" d="M1236.49,-182.43C1245.08,-172.97 1255.5,-161.48 1262.52,-153.75"/>
<polygon fill="midnightblue" stroke="midnightblue" points="1233.68,-180.33 1229.55,-190.08 1238.86,-185.03 1233.68,-180.33"/>
</g>
</g>
</svg>
        <g id="navigator" transform="translate(0 0)" fill="#404254">
                <rect fill="#f2f5e9" fill-opacity="0.5" stroke="#606060" stroke-width=".5" x="0" y="0" width="60" height="60"/>
                <use id="zoomplus" xlink:href="#zoomPlus" x="17" y="9" onmousedown="handleZoom(evt,'in')"/>
                <use id="zoomminus" xlink:href="#zoomMin" x="42" y="9" onmousedown="handleZoom(evt,'out')"/>
                <use id="reset" xlink:href="#resetDef" x="30" y="36" onmousedown="handleReset()"/>
                <g id="arrowUp" xlink:href="#dirArrow" transform="translate(30 24)" onmousedown="handlePan(0,-1)">
                  <use xlink:href="#rim" fill="#404040">
                        <set attributeName="fill" to="#808080" begin="arrowUp.mouseover" end="arrowUp.mouseout"/>
                  </use>
                  <path fill="none" stroke="white" stroke-width="1.5" d="M0,-3.0v7 M-2.5,-0.5L0,-3.0L2.5,-0.5"/>
                </g>
                <g id="arrowRight" xlink:href="#dirArrow" transform="rotate(90) translate(36 -43)" onmousedown="handlePan(1,0)">
                  <use xlink:href="#rim" fill="#404040">
                        <set attributeName="fill" to="#808080" begin="arrowRight.mouseover" end="arrowRight.mouseout"/>
                  </use>
                  <path fill="none" stroke="white" stroke-width="1.5" d="M0,-3.0v7 M-2.5,-0.5L0,-3.0L2.5,-0.5"/>
                </g>
                <g id="arrowDown" xlink:href="#dirArrow" transform="rotate(180) translate(-30 -48)" onmousedown="handlePan(0,1)">
                  <use xlink:href="#rim" fill="#404040">
                        <set attributeName="fill" to="#808080" begin="arrowDown.mouseover" end="arrowDown.mouseout"/>
                  </use>
                  <path fill="none" stroke="white" stroke-width="1.5" d="M0,-3.0v7 M-2.5,-0.5L0,-3.0L2.5,-0.5"/>
                </g>
                <g id="arrowLeft" xlink:href="#dirArrow" transform="rotate(270) translate(-36 17)" onmousedown="handlePan(-1,0)">
                  <use xlink:href="#rim" fill="#404040">
                        <set attributeName="fill" to="#808080" begin="arrowLeft.mouseover" end="arrowLeft.mouseout"/>
                  </use>
                  <path fill="none" stroke="white" stroke-width="1.5" d="M0,-3.0v7 M-2.5,-0.5L0,-3.0L2.5,-0.5"/>
                </g>
        </g>
        <svg viewBox="0 0 15 15" width="100%" height="30px" preserveAspectRatio="xMaxYMin meet">
         <g id="arrow_out" transform="scale(0.3 0.3)">
          <a xlink:href="solver__interface_8h__dep__incl_org.svg" target="_base">
           <rect id="button" ry="5" rx="5" y="6" x="6" height="38" width="38"
                fill="#f2f5e9" fill-opacity="0.5" stroke="#606060" stroke-width="1.0"/>
           <path id="arrow"
             d="M 11.500037,31.436501 C 11.940474,20.09759 22.043105,11.32322 32.158766,21.979434 L 37.068811,17.246167 C 37.068811,17.246167 37.088388,32 37.088388,32 L 22.160133,31.978069 C 22.160133,31.978069 26.997745,27.140456 26.997745,27.140456 C 18.528582,18.264221 13.291696,25.230495 11.500037,31.436501 z"
             style="fill:#404040;"/>
          </a>
         </g>
        </svg>
</svg>
