<?xml version="1.0" encoding="UTF-8" standalone="no"?>
<!DOCTYPE svg PUBLIC "-//W3C//DTD SVG 1.1//EN"
 "http://www.w3.org/Graphics/SVG/1.1/DTD/svg11.dtd">
<!-- Generated by graphviz version 2.43.0 (0)
 -->
<!-- Title: ldlchol Pages: 1 -->
<svg width="515pt" height="47pt"
 viewBox="0.00 0.00 515.00 47.00" xmlns="http://www.w3.org/2000/svg" xmlns:xlink="http://www.w3.org/1999/xlink">
<g id="graph0" class="graph" transform="scale(1 1) rotate(0) translate(4 43)">
<title>ldlchol</title>
<polygon fill="white" stroke="transparent" points="-4,4 -4,-43 511,-43 511,4 -4,4"/>
<!-- Node1 -->
<g id="node1" class="node">
<title>Node1</title>
<g id="a_node1"><a xlink:title="Calculate &#160;factorization of a matrix .">
<polygon fill="#bfbfbf" stroke="black" points="458,-0.5 458,-19.5 507,-19.5 507,-0.5 458,-0.5"/>
<text text-anchor="middle" x="482.5" y="-7.5" font-family="Helvetica,sans-Serif" font-size="10.00">ldlchol</text>
</a>
</g>
</g>
<!-- Node2 -->
<g id="node2" class="node">
<title>Node2</title>
<g id="a_node2"><a xlink:href="solver__interface_8c.html#a972c4868a7391f4b18d836f1ca0810d9" target="_top" xlink:title="Calculate &#160;factorization of , with &#160;and &#160;the set of active constraints.">
<polygon fill="white" stroke="black" points="318,-19.5 318,-38.5 422,-38.5 422,-19.5 318,-19.5"/>
<text text-anchor="middle" x="370" y="-26.5" font-family="Helvetica,sans-Serif" font-size="10.00">ldlcholQAtsigmaA</text>
</a>
</g>
</g>
<!-- Node1&#45;&gt;Node2 -->
<g id="edge1" class="edge">
<title>Node1&#45;&gt;Node2</title>
<path fill="none" stroke="midnightblue" d="M447.73,-15.81C439.71,-17.18 430.98,-18.69 422.37,-20.17"/>
<polygon fill="midnightblue" stroke="midnightblue" points="448.53,-19.22 457.79,-14.08 447.35,-12.32 448.53,-19.22"/>
</g>
<!-- Node3 -->
<g id="node3" class="node">
<title>Node3</title>
<g id="a_node3"><a xlink:href="newton_8c.html#af1654e5597faac8b0ade25acf1fc1bc9" target="_top" xlink:title="Sets work&#45;&gt;d to the direction calculated by the semismooth Newton method.">
<polygon fill="white" stroke="black" points="161,-0.5 161,-19.5 282,-19.5 282,-0.5 161,-0.5"/>
<text text-anchor="middle" x="221.5" y="-7.5" font-family="Helvetica,sans-Serif" font-size="10.00">newton_set_direction</text>
</a>
</g>
</g>
<!-- Node1&#45;&gt;Node3 -->
<g id="edge4" class="edge">
<title>Node1&#45;&gt;Node3</title>
<path fill="none" stroke="midnightblue" d="M447.34,-10C405.33,-10 333.29,-10 282.08,-10"/>
<polygon fill="midnightblue" stroke="midnightblue" points="447.6,-13.5 457.6,-10 447.6,-6.5 447.6,-13.5"/>
</g>
<!-- Node2&#45;&gt;Node3 -->
<g id="edge2" class="edge">
<title>Node2&#45;&gt;Node3</title>
<path fill="none" stroke="midnightblue" d="M307.65,-21.04C299.24,-19.95 290.62,-18.84 282.25,-17.75"/>
<polygon fill="midnightblue" stroke="midnightblue" points="307.39,-24.54 317.76,-22.35 308.29,-17.6 307.39,-24.54"/>
</g>
<!-- Node4 -->
<g id="node4" class="node">
<title>Node4</title>
<g id="a_node4"><a xlink:href="iteration_8c.html#a9c9fafac9ce099122c5a594762e5a052" target="_top" xlink:title="Update the primal iterate.">
<polygon fill="white" stroke="black" points="0,-0.5 0,-19.5 125,-19.5 125,-0.5 0,-0.5"/>
<text text-anchor="middle" x="62.5" y="-7.5" font-family="Helvetica,sans-Serif" font-size="10.00">update_primal_iterate</text>
</a>
</g>
</g>
<!-- Node3&#45;&gt;Node4 -->
<g id="edge3" class="edge">
<title>Node3&#45;&gt;Node4</title>
<path fill="none" stroke="midnightblue" d="M150.51,-10C142.08,-10 133.52,-10 125.22,-10"/>
<polygon fill="midnightblue" stroke="midnightblue" points="150.7,-13.5 160.7,-10 150.7,-6.5 150.7,-13.5"/>
</g>
</g>
</svg>
