<?xml version="1.0" encoding="UTF-8" standalone="no"?>
<!DOCTYPE svg PUBLIC "-//W3C//DTD SVG 1.1//EN"
 "http://www.w3.org/Graphics/SVG/1.1/DTD/svg11.dtd">
<!-- Generated by graphviz version 2.43.0 (0)
 -->
<!-- Title: QPALM/interfaces/cxx/src/sparse.cpp Pages: 1 -->
<svg width="914pt" height="207pt"
 viewBox="0.00 0.00 914.00 207.00" xmlns="http://www.w3.org/2000/svg" xmlns:xlink="http://www.w3.org/1999/xlink">
<g id="graph0" class="graph" transform="scale(1 1) rotate(0) translate(4 203)">
<title>QPALM/interfaces/cxx/src/sparse.cpp</title>
<polygon fill="white" stroke="transparent" points="-4,4 -4,-203 910,-203 910,4 -4,4"/>
<!-- Node1 -->
<g id="node1" class="node">
<title>Node1</title>
<g id="a_node1"><a xlink:title=" ">
<polygon fill="#bfbfbf" stroke="black" points="515,-168.5 515,-198.5 637,-198.5 637,-168.5 515,-168.5"/>
<text text-anchor="start" x="523" y="-186.5" font-family="Helvetica,sans-Serif" font-size="10.00">QPALM/interfaces/cxx</text>
<text text-anchor="middle" x="576" y="-175.5" font-family="Helvetica,sans-Serif" font-size="10.00">/src/sparse.cpp</text>
</a>
</g>
</g>
<!-- Node2 -->
<g id="node2" class="node">
<title>Node2</title>
<g id="a_node2"><a xlink:href="sparse_8hpp.html" target="_top" xlink:title=" ">
<polygon fill="white" stroke="black" points="445,-112.5 445,-131.5 515,-131.5 515,-112.5 445,-112.5"/>
<text text-anchor="middle" x="480" y="-119.5" font-family="Helvetica,sans-Serif" font-size="10.00">sparse.hpp</text>
</a>
</g>
</g>
<!-- Node1&#45;&gt;Node2 -->
<g id="edge1" class="edge">
<title>Node1&#45;&gt;Node2</title>
<path fill="none" stroke="midnightblue" d="M553.25,-168.4C538.01,-158.95 518.01,-146.56 502.76,-137.11"/>
<polygon fill="midnightblue" stroke="midnightblue" points="504.31,-133.95 493.97,-131.66 500.62,-139.9 504.31,-133.95"/>
</g>
<!-- Node13 -->
<g id="node13" class="node">
<title>Node13</title>
<g id="a_node13"><a xlink:title=" ">
<polygon fill="white" stroke="#bfbfbf" points="533.5,-112.5 533.5,-131.5 618.5,-131.5 618.5,-112.5 533.5,-112.5"/>
<text text-anchor="middle" x="576" y="-119.5" font-family="Helvetica,sans-Serif" font-size="10.00">ladel_global.h</text>
</a>
</g>
</g>
<!-- Node1&#45;&gt;Node13 -->
<g id="edge12" class="edge">
<title>Node1&#45;&gt;Node13</title>
<path fill="none" stroke="midnightblue" d="M576,-168.4C576,-160.47 576,-150.46 576,-141.86"/>
<polygon fill="midnightblue" stroke="midnightblue" points="579.5,-141.66 576,-131.66 572.5,-141.66 579.5,-141.66"/>
</g>
<!-- Node14 -->
<g id="node14" class="node">
<title>Node14</title>
<g id="a_node14"><a xlink:title=" ">
<polygon fill="white" stroke="#bfbfbf" points="637,-112.5 637,-131.5 701,-131.5 701,-112.5 637,-112.5"/>
<text text-anchor="middle" x="669" y="-119.5" font-family="Helvetica,sans-Serif" font-size="10.00">algorithm</text>
</a>
</g>
</g>
<!-- Node1&#45;&gt;Node14 -->
<g id="edge13" class="edge">
<title>Node1&#45;&gt;Node14</title>
<path fill="none" stroke="midnightblue" d="M598.04,-168.4C612.81,-158.95 632.18,-146.56 646.95,-137.11"/>
<polygon fill="midnightblue" stroke="midnightblue" points="648.93,-140 655.47,-131.66 645.16,-134.1 648.93,-140"/>
</g>
<!-- Node3 -->
<g id="node3" class="node">
<title>Node3</title>
<g id="a_node3"><a xlink:title=" ">
<polygon fill="white" stroke="#bfbfbf" points="0,-56.5 0,-75.5 80,-75.5 80,-56.5 0,-56.5"/>
<text text-anchor="middle" x="40" y="-63.5" font-family="Helvetica,sans-Serif" font-size="10.00">Eigen/Sparse</text>
</a>
</g>
</g>
<!-- Node2&#45;&gt;Node3 -->
<g id="edge2" class="edge">
<title>Node2&#45;&gt;Node3</title>
<path fill="none" stroke="midnightblue" d="M444.85,-117.75C377.92,-111.4 227.36,-96.27 90.33,-76.11"/>
<polygon fill="midnightblue" stroke="midnightblue" points="90.48,-72.59 80.07,-74.59 89.45,-79.52 90.48,-72.59"/>
</g>
<!-- Node4 -->
<g id="node4" class="node">
<title>Node4</title>
<g id="a_node4"><a xlink:title=" ">
<polygon fill="white" stroke="#bfbfbf" points="98.5,-56.5 98.5,-75.5 217.5,-75.5 217.5,-56.5 98.5,-56.5"/>
<text text-anchor="middle" x="158" y="-63.5" font-family="Helvetica,sans-Serif" font-size="10.00">Eigen/src/Core/Map.h</text>
</a>
</g>
</g>
<!-- Node2&#45;&gt;Node4 -->
<g id="edge3" class="edge">
<title>Node2&#45;&gt;Node4</title>
<path fill="none" stroke="midnightblue" d="M444.93,-115.12C390.66,-106.02 285.66,-88.41 218.84,-77.2"/>
<polygon fill="midnightblue" stroke="midnightblue" points="219.3,-73.73 208.86,-75.53 218.15,-80.64 219.3,-73.73"/>
</g>
<!-- Node5 -->
<g id="node5" class="node">
<title>Node5</title>
<g id="a_node5"><a xlink:title=" ">
<polygon fill="white" stroke="#bfbfbf" points="236,-56.5 236,-75.5 366,-75.5 366,-56.5 236,-56.5"/>
<text text-anchor="middle" x="301" y="-63.5" font-family="Helvetica,sans-Serif" font-size="10.00">Eigen/src/Core/Matrix.h</text>
</a>
</g>
</g>
<!-- Node2&#45;&gt;Node5 -->
<g id="edge4" class="edge">
<title>Node2&#45;&gt;Node5</title>
<path fill="none" stroke="midnightblue" d="M451.64,-112.44C421.26,-103.28 372.89,-88.69 339.18,-78.52"/>
<polygon fill="midnightblue" stroke="midnightblue" points="339.82,-75.05 329.23,-75.52 337.79,-81.76 339.82,-75.05"/>
</g>
<!-- Node6 -->
<g id="node6" class="node">
<title>Node6</title>
<g id="a_node6"><a xlink:href="global__opts_8h.html" target="_top" xlink:title="Custom memory allocation, print and utility functions, and data types for floats and ints.">
<polygon fill="white" stroke="black" points="384,-56.5 384,-75.5 466,-75.5 466,-56.5 384,-56.5"/>
<text text-anchor="middle" x="425" y="-63.5" font-family="Helvetica,sans-Serif" font-size="10.00">global_opts.h</text>
</a>
</g>
</g>
<!-- Node2&#45;&gt;Node6 -->
<g id="edge5" class="edge">
<title>Node2&#45;&gt;Node6</title>
<path fill="none" stroke="midnightblue" d="M470.92,-112.08C462.83,-104.14 450.8,-92.34 441.09,-82.8"/>
<polygon fill="midnightblue" stroke="midnightblue" points="443.5,-80.26 433.91,-75.75 438.6,-85.25 443.5,-80.26"/>
</g>
<!-- Node9 -->
<g id="node9" class="node">
<title>Node9</title>
<g id="a_node9"><a xlink:title=" ">
<polygon fill="white" stroke="#bfbfbf" points="484,-56.5 484,-75.5 586,-75.5 586,-56.5 484,-56.5"/>
<text text-anchor="middle" x="535" y="-63.5" font-family="Helvetica,sans-Serif" font-size="10.00">ladel_constants.h</text>
</a>
</g>
</g>
<!-- Node2&#45;&gt;Node9 -->
<g id="edge8" class="edge">
<title>Node2&#45;&gt;Node9</title>
<path fill="none" stroke="midnightblue" d="M489.08,-112.08C497.17,-104.14 509.2,-92.34 518.91,-82.8"/>
<polygon fill="midnightblue" stroke="midnightblue" points="521.4,-85.25 526.09,-75.75 516.5,-80.26 521.4,-85.25"/>
</g>
<!-- Node10 -->
<g id="node10" class="node">
<title>Node10</title>
<g id="a_node10"><a xlink:title=" ">
<polygon fill="white" stroke="#bfbfbf" points="604,-56.5 604,-75.5 686,-75.5 686,-56.5 604,-56.5"/>
<text text-anchor="middle" x="645" y="-63.5" font-family="Helvetica,sans-Serif" font-size="10.00">ladel_types.h</text>
</a>
</g>
</g>
<!-- Node2&#45;&gt;Node10 -->
<g id="edge9" class="edge">
<title>Node2&#45;&gt;Node10</title>
<path fill="none" stroke="midnightblue" d="M506.14,-112.44C534.02,-103.32 578.35,-88.81 609.4,-78.65"/>
<polygon fill="midnightblue" stroke="midnightblue" points="610.56,-81.95 618.98,-75.52 608.38,-75.3 610.56,-81.95"/>
</g>
<!-- Node11 -->
<g id="node11" class="node">
<title>Node11</title>
<g id="a_node11"><a xlink:title=" ">
<polygon fill="white" stroke="#bfbfbf" points="704,-56.5 704,-75.5 762,-75.5 762,-56.5 704,-56.5"/>
<text text-anchor="middle" x="733" y="-63.5" font-family="Helvetica,sans-Serif" font-size="10.00">memory</text>
</a>
</g>
</g>
<!-- Node2&#45;&gt;Node11 -->
<g id="edge10" class="edge">
<title>Node2&#45;&gt;Node11</title>
<path fill="none" stroke="midnightblue" d="M515.07,-113.95C555.68,-105.73 624.85,-91.52 693.8,-76.22"/>
<polygon fill="midnightblue" stroke="midnightblue" points="694.97,-79.55 703.97,-73.96 693.45,-72.72 694.97,-79.55"/>
</g>
<!-- Node12 -->
<g id="node12" class="node">
<title>Node12</title>
<g id="a_node12"><a xlink:href="qpalm__cxx-export_8hpp.html" target="_top" xlink:title=" ">
<polygon fill="white" stroke="black" points="780,-56.5 780,-75.5 906,-75.5 906,-56.5 780,-56.5"/>
<text text-anchor="middle" x="843" y="-63.5" font-family="Helvetica,sans-Serif" font-size="10.00">qpalm_cxx&#45;export.hpp</text>
</a>
</g>
</g>
<!-- Node2&#45;&gt;Node12 -->
<g id="edge11" class="edge">
<title>Node2&#45;&gt;Node12</title>
<path fill="none" stroke="midnightblue" d="M515.34,-113.74C518.6,-113.12 521.86,-112.54 525,-112 608.61,-97.74 705.13,-84.53 769.7,-76.17"/>
<polygon fill="midnightblue" stroke="midnightblue" points="770.31,-79.62 779.78,-74.87 769.42,-72.68 770.31,-79.62"/>
</g>
<!-- Node7 -->
<g id="node7" class="node">
<title>Node7</title>
<g id="a_node7"><a xlink:title=" ">
<polygon fill="white" stroke="#bfbfbf" points="365,-0.5 365,-19.5 415,-19.5 415,-0.5 365,-0.5"/>
<text text-anchor="middle" x="390" y="-7.5" font-family="Helvetica,sans-Serif" font-size="10.00">ladel.h</text>
</a>
</g>
</g>
<!-- Node6&#45;&gt;Node7 -->
<g id="edge6" class="edge">
<title>Node6&#45;&gt;Node7</title>
<path fill="none" stroke="midnightblue" d="M419.22,-56.08C414.33,-48.53 407.17,-37.49 401.17,-28.23"/>
<polygon fill="midnightblue" stroke="midnightblue" points="404.05,-26.24 395.67,-19.75 398.17,-30.05 404.05,-26.24"/>
</g>
<!-- Node8 -->
<g id="node8" class="node">
<title>Node8</title>
<g id="a_node8"><a xlink:title=" ">
<polygon fill="white" stroke="#bfbfbf" points="433.5,-0.5 433.5,-19.5 484.5,-19.5 484.5,-0.5 433.5,-0.5"/>
<text text-anchor="middle" x="459" y="-7.5" font-family="Helvetica,sans-Serif" font-size="10.00">math.h</text>
</a>
</g>
</g>
<!-- Node6&#45;&gt;Node8 -->
<g id="edge7" class="edge">
<title>Node6&#45;&gt;Node8</title>
<path fill="none" stroke="midnightblue" d="M430.61,-56.08C435.37,-48.53 442.32,-37.49 448.15,-28.23"/>
<polygon fill="midnightblue" stroke="midnightblue" points="451.12,-30.08 453.49,-19.75 445.2,-26.35 451.12,-30.08"/>
</g>
</g>
</svg>
