<?xml version="1.0" encoding="UTF-8" standalone="no"?>
<!DOCTYPE svg PUBLIC "-//W3C//DTD SVG 1.1//EN"
 "http://www.w3.org/Graphics/SVG/1.1/DTD/svg11.dtd">
<!-- Generated by graphviz version 2.43.0 (0)
 -->
<!-- Title: QPALM/interfaces/cxx/include/sparse.hpp Pages: 1 -->
<!--zoomable 151 -->
<svg id="main" version="1.1" xmlns="http://www.w3.org/2000/svg" xmlns:xlink="http://www.w3.org/1999/xlink" xml:space="preserve" onload="init(evt)">
<style type="text/css"><![CDATA[
.edge:hover path { stroke: red; }
.edge:hover polygon { stroke: red; fill: red; }
]]></style>
<script type="text/javascript"><![CDATA[
var edges = document.getElementsByTagName('g');
if (edges && edges.length) {
  for (var i=0;i<edges.length;i++) {
    if (edges[i].id.substr(0,4)=='edge') {
      edges[i].setAttribute('class','edge');
    }
  }
}
]]></script>
        <defs>
                <circle id="rim" cx="0" cy="0" r="7"/>
                <circle id="rim2" cx="0" cy="0" r="3.5"/>
                <g id="zoomPlus">
                        <use xlink:href="#rim" fill="#404040">
                                <set attributeName="fill" to="#808080" begin="zoomplus.mouseover" end="zoomplus.mouseout"/>
                        </use>
                        <path d="M-4,0h8M0,-4v8" fill="none" stroke="white" stroke-width="1.5" pointer-events="none"/>
                </g>
                <g id="zoomMin">
                        <use xlink:href="#rim" fill="#404040">
                                <set attributeName="fill" to="#808080" begin="zoomminus.mouseover" end="zoomminus.mouseout"/>
                        </use>
                        <path d="M-4,0h8" fill="none" stroke="white" stroke-width="1.5" pointer-events="none"/>
                </g>
                <g id="dirArrow">
                        <path fill="none" stroke="white" stroke-width="1.5" d="M0,-3.0v7 M-2.5,-0.5L0,-3.0L2.5,-0.5"/>
                </g>
               <g id="resetDef">
                       <use xlink:href="#rim2" fill="#404040">
                               <set attributeName="fill" to="#808080" begin="reset.mouseover" end="reset.mouseout"/>
                       </use>
               </g>
        </defs>

<script type="text/javascript">
var viewWidth = 914;
var viewHeight = 151;
var sectionId = 'dynsection-0';
</script>
<script xlink:href="svgpan.js"/>
<svg id="graph" class="graph">
<g id="viewport">
<title>QPALM/interfaces/cxx/include/sparse.hpp</title>
<polygon fill="white" stroke="transparent" points="-4,4 -4,-147 910,-147 910,4 -4,4"/>
<!-- Node1 -->
<g id="node1" class="node">
<title>Node1</title>
<g id="a_node1"><a xlink:title=" ">
<polygon fill="#bfbfbf" stroke="black" points="419,-112.5 419,-142.5 541,-142.5 541,-112.5 419,-112.5"/>
<text text-anchor="start" x="427" y="-130.5" font-family="Helvetica,sans-Serif" font-size="10.00">QPALM/interfaces/cxx</text>
<text text-anchor="middle" x="480" y="-119.5" font-family="Helvetica,sans-Serif" font-size="10.00">/include/sparse.hpp</text>
</a>
</g>
</g>
<!-- Node2 -->
<g id="node2" class="node">
<title>Node2</title>
<g id="a_node2"><a xlink:title=" ">
<polygon fill="white" stroke="#bfbfbf" points="0,-56.5 0,-75.5 80,-75.5 80,-56.5 0,-56.5"/>
<text text-anchor="middle" x="40" y="-63.5" font-family="Helvetica,sans-Serif" font-size="10.00">Eigen/Sparse</text>
</a>
</g>
</g>
<!-- Node1&#45;&gt;Node2 -->
<g id="edge1" class="edge">
<title>Node1&#45;&gt;Node2</title>
<path fill="none" stroke="midnightblue" d="M418.9,-119.63C343.87,-110.96 212.47,-95.05 90.01,-76.09"/>
<polygon fill="midnightblue" stroke="midnightblue" points="90.5,-72.62 80.08,-74.54 89.42,-79.54 90.5,-72.62"/>
</g>
<!-- Node3 -->
<g id="node3" class="node">
<title>Node3</title>
<g id="a_node3"><a xlink:title=" ">
<polygon fill="white" stroke="#bfbfbf" points="98.5,-56.5 98.5,-75.5 217.5,-75.5 217.5,-56.5 98.5,-56.5"/>
<text text-anchor="middle" x="158" y="-63.5" font-family="Helvetica,sans-Serif" font-size="10.00">Eigen/src/Core/Map.h</text>
</a>
</g>
</g>
<!-- Node1&#45;&gt;Node3 -->
<g id="edge2" class="edge">
<title>Node1&#45;&gt;Node3</title>
<path fill="none" stroke="midnightblue" d="M418.68,-115.17C359.81,-104.29 271.62,-88 214.44,-77.43"/>
<polygon fill="midnightblue" stroke="midnightblue" points="214.96,-73.97 204.49,-75.59 213.69,-80.85 214.96,-73.97"/>
</g>
<!-- Node4 -->
<g id="node4" class="node">
<title>Node4</title>
<g id="a_node4"><a xlink:title=" ">
<polygon fill="white" stroke="#bfbfbf" points="236,-56.5 236,-75.5 366,-75.5 366,-56.5 236,-56.5"/>
<text text-anchor="middle" x="301" y="-63.5" font-family="Helvetica,sans-Serif" font-size="10.00">Eigen/src/Core/Matrix.h</text>
</a>
</g>
</g>
<!-- Node1&#45;&gt;Node4 -->
<g id="edge3" class="edge">
<title>Node1&#45;&gt;Node4</title>
<path fill="none" stroke="midnightblue" d="M437.58,-112.4C406.78,-102.16 365.59,-88.47 336.52,-78.81"/>
<polygon fill="midnightblue" stroke="midnightblue" points="337.38,-75.4 326.78,-75.57 335.17,-82.05 337.38,-75.4"/>
</g>
<!-- Node5 -->
<g id="node5" class="node">
<title>Node5</title>
<g id="a_node5"><a xlink:href="global__opts_8h.html" target="_top" xlink:title="Custom memory allocation, print and utility functions, and data types for floats and ints.">
<polygon fill="white" stroke="black" points="384,-56.5 384,-75.5 466,-75.5 466,-56.5 384,-56.5"/>
<text text-anchor="middle" x="425" y="-63.5" font-family="Helvetica,sans-Serif" font-size="10.00">global_opts.h</text>
</a>
</g>
</g>
<!-- Node1&#45;&gt;Node5 -->
<g id="edge4" class="edge">
<title>Node1&#45;&gt;Node5</title>
<path fill="none" stroke="midnightblue" d="M466.97,-112.4C458.81,-103.58 448.28,-92.18 439.81,-83.02"/>
<polygon fill="midnightblue" stroke="midnightblue" points="442.36,-80.63 433,-75.66 437.22,-85.38 442.36,-80.63"/>
</g>
<!-- Node8 -->
<g id="node8" class="node">
<title>Node8</title>
<g id="a_node8"><a xlink:title=" ">
<polygon fill="white" stroke="#bfbfbf" points="484,-56.5 484,-75.5 586,-75.5 586,-56.5 484,-56.5"/>
<text text-anchor="middle" x="535" y="-63.5" font-family="Helvetica,sans-Serif" font-size="10.00">ladel_constants.h</text>
</a>
</g>
</g>
<!-- Node1&#45;&gt;Node8 -->
<g id="edge7" class="edge">
<title>Node1&#45;&gt;Node8</title>
<path fill="none" stroke="midnightblue" d="M493.03,-112.4C501.19,-103.58 511.72,-92.18 520.19,-83.02"/>
<polygon fill="midnightblue" stroke="midnightblue" points="522.78,-85.38 527,-75.66 517.64,-80.63 522.78,-85.38"/>
</g>
<!-- Node9 -->
<g id="node9" class="node">
<title>Node9</title>
<g id="a_node9"><a xlink:title=" ">
<polygon fill="white" stroke="#bfbfbf" points="604,-56.5 604,-75.5 686,-75.5 686,-56.5 604,-56.5"/>
<text text-anchor="middle" x="645" y="-63.5" font-family="Helvetica,sans-Serif" font-size="10.00">ladel_types.h</text>
</a>
</g>
</g>
<!-- Node1&#45;&gt;Node9 -->
<g id="edge8" class="edge">
<title>Node1&#45;&gt;Node9</title>
<path fill="none" stroke="midnightblue" d="M519.1,-112.4C547.16,-102.28 584.57,-88.79 611.31,-79.15"/>
<polygon fill="midnightblue" stroke="midnightblue" points="612.77,-82.34 620.99,-75.66 610.4,-75.76 612.77,-82.34"/>
</g>
<!-- Node10 -->
<g id="node10" class="node">
<title>Node10</title>
<g id="a_node10"><a xlink:title=" ">
<polygon fill="white" stroke="#bfbfbf" points="704,-56.5 704,-75.5 762,-75.5 762,-56.5 704,-56.5"/>
<text text-anchor="middle" x="733" y="-63.5" font-family="Helvetica,sans-Serif" font-size="10.00">memory</text>
</a>
</g>
</g>
<!-- Node1&#45;&gt;Node10 -->
<g id="edge9" class="edge">
<title>Node1&#45;&gt;Node10</title>
<path fill="none" stroke="midnightblue" d="M539.78,-112.49C580.57,-102.92 636.09,-89.89 693.9,-76.26"/>
<polygon fill="midnightblue" stroke="midnightblue" points="695.03,-79.59 703.96,-73.88 693.42,-72.77 695.03,-79.59"/>
</g>
<!-- Node11 -->
<g id="node11" class="node">
<title>Node11</title>
<g id="a_node11"><a xlink:href="qpalm__cxx-export_8hpp.html" target="_top" xlink:title=" ">
<polygon fill="white" stroke="black" points="780,-56.5 780,-75.5 906,-75.5 906,-56.5 780,-56.5"/>
<text text-anchor="middle" x="843" y="-63.5" font-family="Helvetica,sans-Serif" font-size="10.00">qpalm_cxx&#45;export.hpp</text>
</a>
</g>
</g>
<!-- Node1&#45;&gt;Node11 -->
<g id="edge10" class="edge">
<title>Node1&#45;&gt;Node11</title>
<path fill="none" stroke="midnightblue" d="M541.17,-116.47C607.86,-105.54 714,-88.15 781.01,-77.16"/>
<polygon fill="midnightblue" stroke="midnightblue" points="781.71,-80.59 791.01,-75.52 780.57,-73.69 781.71,-80.59"/>
</g>
<!-- Node6 -->
<g id="node6" class="node">
<title>Node6</title>
<g id="a_node6"><a xlink:title=" ">
<polygon fill="white" stroke="#bfbfbf" points="365,-0.5 365,-19.5 415,-19.5 415,-0.5 365,-0.5"/>
<text text-anchor="middle" x="390" y="-7.5" font-family="Helvetica,sans-Serif" font-size="10.00">ladel.h</text>
</a>
</g>
</g>
<!-- Node5&#45;&gt;Node6 -->
<g id="edge5" class="edge">
<title>Node5&#45;&gt;Node6</title>
<path fill="none" stroke="midnightblue" d="M419.22,-56.08C414.33,-48.53 407.17,-37.49 401.17,-28.23"/>
<polygon fill="midnightblue" stroke="midnightblue" points="404.05,-26.24 395.67,-19.75 398.17,-30.05 404.05,-26.24"/>
</g>
<!-- Node7 -->
<g id="node7" class="node">
<title>Node7</title>
<g id="a_node7"><a xlink:title=" ">
<polygon fill="white" stroke="#bfbfbf" points="433.5,-0.5 433.5,-19.5 484.5,-19.5 484.5,-0.5 433.5,-0.5"/>
<text text-anchor="middle" x="459" y="-7.5" font-family="Helvetica,sans-Serif" font-size="10.00">math.h</text>
</a>
</g>
</g>
<!-- Node5&#45;&gt;Node7 -->
<g id="edge6" class="edge">
<title>Node5&#45;&gt;Node7</title>
<path fill="none" stroke="midnightblue" d="M430.61,-56.08C435.37,-48.53 442.32,-37.49 448.15,-28.23"/>
<polygon fill="midnightblue" stroke="midnightblue" points="451.12,-30.08 453.49,-19.75 445.2,-26.35 451.12,-30.08"/>
</g>
</g>
</svg>
        <g id="navigator" transform="translate(0 0)" fill="#404254">
                <rect fill="#f2f5e9" fill-opacity="0.5" stroke="#606060" stroke-width=".5" x="0" y="0" width="60" height="60"/>
                <use id="zoomplus" xlink:href="#zoomPlus" x="17" y="9" onmousedown="handleZoom(evt,'in')"/>
                <use id="zoomminus" xlink:href="#zoomMin" x="42" y="9" onmousedown="handleZoom(evt,'out')"/>
                <use id="reset" xlink:href="#resetDef" x="30" y="36" onmousedown="handleReset()"/>
                <g id="arrowUp" xlink:href="#dirArrow" transform="translate(30 24)" onmousedown="handlePan(0,-1)">
                  <use xlink:href="#rim" fill="#404040">
                        <set attributeName="fill" to="#808080" begin="arrowUp.mouseover" end="arrowUp.mouseout"/>
                  </use>
                  <path fill="none" stroke="white" stroke-width="1.5" d="M0,-3.0v7 M-2.5,-0.5L0,-3.0L2.5,-0.5"/>
                </g>
                <g id="arrowRight" xlink:href="#dirArrow" transform="rotate(90) translate(36 -43)" onmousedown="handlePan(1,0)">
                  <use xlink:href="#rim" fill="#404040">
                        <set attributeName="fill" to="#808080" begin="arrowRight.mouseover" end="arrowRight.mouseout"/>
                  </use>
                  <path fill="none" stroke="white" stroke-width="1.5" d="M0,-3.0v7 M-2.5,-0.5L0,-3.0L2.5,-0.5"/>
                </g>
                <g id="arrowDown" xlink:href="#dirArrow" transform="rotate(180) translate(-30 -48)" onmousedown="handlePan(0,1)">
                  <use xlink:href="#rim" fill="#404040">
                        <set attributeName="fill" to="#808080" begin="arrowDown.mouseover" end="arrowDown.mouseout"/>
                  </use>
                  <path fill="none" stroke="white" stroke-width="1.5" d="M0,-3.0v7 M-2.5,-0.5L0,-3.0L2.5,-0.5"/>
                </g>
                <g id="arrowLeft" xlink:href="#dirArrow" transform="rotate(270) translate(-36 17)" onmousedown="handlePan(-1,0)">
                  <use xlink:href="#rim" fill="#404040">
                        <set attributeName="fill" to="#808080" begin="arrowLeft.mouseover" end="arrowLeft.mouseout"/>
                  </use>
                  <path fill="none" stroke="white" stroke-width="1.5" d="M0,-3.0v7 M-2.5,-0.5L0,-3.0L2.5,-0.5"/>
                </g>
        </g>
        <svg viewBox="0 0 15 15" width="100%" height="30px" preserveAspectRatio="xMaxYMin meet">
         <g id="arrow_out" transform="scale(0.3 0.3)">
          <a xlink:href="sparse_8hpp__incl_org.svg" target="_base">
           <rect id="button" ry="5" rx="5" y="6" x="6" height="38" width="38"
                fill="#f2f5e9" fill-opacity="0.5" stroke="#606060" stroke-width="1.0"/>
           <path id="arrow"
             d="M 11.500037,31.436501 C 11.940474,20.09759 22.043105,11.32322 32.158766,21.979434 L 37.068811,17.246167 C 37.068811,17.246167 37.088388,32 37.088388,32 L 22.160133,31.978069 C 22.160133,31.978069 26.997745,27.140456 26.997745,27.140456 C 18.528582,18.264221 13.291696,25.230495 11.500037,31.436501 z"
             style="fill:#404040;"/>
          </a>
         </g>
        </svg>
</svg>
