<?xml version="1.0" encoding="UTF-8" standalone="no"?>
<!DOCTYPE svg PUBLIC "-//W3C//DTD SVG 1.1//EN"
 "http://www.w3.org/Graphics/SVG/1.1/DTD/svg11.dtd">
<!-- Generated by graphviz version 2.43.0 (0)
 -->
<!-- Title: qpalm_update_settings Pages: 1 -->
<svg width="398pt" height="212pt"
 viewBox="0.00 0.00 398.00 212.00" xmlns="http://www.w3.org/2000/svg" xmlns:xlink="http://www.w3.org/1999/xlink">
<g id="graph0" class="graph" transform="scale(1 1) rotate(0) translate(4 208)">
<title>qpalm_update_settings</title>
<!-- Node1 -->
<g id="Node000001" class="node">
<title>Node1</title>
<g id="a_Node000001"><a xlink:title="Update the settings to the new settings.">
<polygon fill="#999999" stroke="#666666" points="131,-111 0,-111 0,-92 131,-92 131,-111"/>
<text text-anchor="middle" x="65.5" y="-99" font-family="Helvetica,sans-Serif" font-size="10.00">qpalm_update_settings</text>
</a>
</g>
</g>
<!-- Node2 -->
<g id="Node000002" class="node">
<title>Node2</title>
<g id="a_Node000002"><a xlink:href="util_8c.html#a14436938f89e6b14f819c58af7d9f0fe" target="_top" xlink:title="Copy settings creating a new settings structure.">
<polygon fill="white" stroke="#666666" points="259.5,-204 175.5,-204 175.5,-185 259.5,-185 259.5,-204"/>
<text text-anchor="middle" x="217.5" y="-192" font-family="Helvetica,sans-Serif" font-size="10.00">copy_settings</text>
</a>
</g>
</g>
<!-- Node1&#45;&gt;Node2 -->
<g id="edge1_Node000001_Node000002" class="edge">
<title>Node1&#45;&gt;Node2</title>
<g id="a_edge1_Node000001_Node000002"><a xlink:title=" ">
<path fill="none" stroke="#63b8ff" d="M77.22,-111.19C94.86,-126.72 131.56,-157.37 167,-176.5 170.03,-178.13 173.24,-179.68 176.51,-181.12"/>
<polygon fill="#63b8ff" stroke="#63b8ff" points="175.2,-184.37 185.78,-184.92 177.85,-177.89 175.2,-184.37"/>
</a>
</g>
</g>
<!-- Node4 -->
<g id="Node000004" class="node">
<title>Node4</title>
<g id="a_Node000004"><a xlink:href="global__opts_8c.html#a057129daf1349d96b074b9dca1994d09" target="_top" xlink:title=" ">
<polygon fill="white" stroke="#666666" points="253.5,-167 181.5,-167 181.5,-148 253.5,-148 253.5,-167"/>
<text text-anchor="middle" x="217.5" y="-155" font-family="Helvetica,sans-Serif" font-size="10.00">qpalm_free</text>
</a>
</g>
</g>
<!-- Node1&#45;&gt;Node4 -->
<g id="edge3_Node000001_Node000004" class="edge">
<title>Node1&#45;&gt;Node4</title>
<g id="a_edge3_Node000001_Node000004"><a xlink:title=" ">
<path fill="none" stroke="#63b8ff" d="M91.66,-111.12C111.97,-118.85 141.29,-129.97 167,-139.5 171.31,-141.1 175.84,-142.76 180.33,-144.41"/>
<polygon fill="#63b8ff" stroke="#63b8ff" points="179.42,-147.8 190.02,-147.94 181.82,-141.23 179.42,-147.8"/>
</a>
</g>
</g>
<!-- Node5 -->
<g id="Node000005" class="node">
<title>Node5</title>
<g id="a_Node000005"><a xlink:href="util_8h.html#aae57226ec767e15f27d88e97df093b41" target="_top" xlink:title="Start timer.">
<polygon fill="white" stroke="#666666" points="250,-130 185,-130 185,-111 250,-111 250,-130"/>
<text text-anchor="middle" x="217.5" y="-118" font-family="Helvetica,sans-Serif" font-size="10.00">qpalm_tic</text>
</a>
</g>
</g>
<!-- Node1&#45;&gt;Node5 -->
<g id="edge4_Node000001_Node000005" class="edge">
<title>Node1&#45;&gt;Node5</title>
<g id="a_edge4_Node000001_Node000005"><a xlink:title=" ">
<path fill="none" stroke="#63b8ff" d="M131.42,-109.72C146.04,-111.57 161.18,-113.49 174.56,-115.19"/>
<polygon fill="#63b8ff" stroke="#63b8ff" points="174.52,-118.71 184.88,-116.49 175.4,-111.77 174.52,-118.71"/>
</a>
</g>
</g>
<!-- Node6 -->
<g id="Node000006" class="node">
<title>Node6</title>
<g id="a_Node000006"><a xlink:href="util_8h.html#a6eecdaf6f3f1c4bf0ab1067a5e7e69da" target="_top" xlink:title="Report time in seconds since last call to qpalm_tic.">
<polygon fill="white" stroke="#666666" points="251.5,-93 183.5,-93 183.5,-74 251.5,-74 251.5,-93"/>
<text text-anchor="middle" x="217.5" y="-81" font-family="Helvetica,sans-Serif" font-size="10.00">qpalm_toc</text>
</a>
</g>
</g>
<!-- Node1&#45;&gt;Node6 -->
<g id="edge5_Node000001_Node000006" class="edge">
<title>Node1&#45;&gt;Node6</title>
<g id="a_edge5_Node000001_Node000006"><a xlink:title=" ">
<path fill="none" stroke="#63b8ff" d="M131.42,-93.71C145.54,-92.02 160.14,-90.26 173.18,-88.7"/>
<polygon fill="#63b8ff" stroke="#63b8ff" points="173.76,-92.15 183.27,-87.49 172.92,-85.2 173.76,-92.15"/>
</a>
</g>
</g>
<!-- Node7 -->
<g id="Node000007" class="node">
<title>Node7</title>
<g id="a_Node000007"><a xlink:href="util_8c.html#a14fe651105f1f38b2a3a49614f4b8ae2" target="_top" xlink:title="Update solver status (value and string).">
<polygon fill="white" stroke="#666666" points="260.5,-56 174.5,-56 174.5,-37 260.5,-37 260.5,-56"/>
<text text-anchor="middle" x="217.5" y="-44" font-family="Helvetica,sans-Serif" font-size="10.00">update_status</text>
</a>
</g>
</g>
<!-- Node1&#45;&gt;Node7 -->
<g id="edge6_Node000001_Node000007" class="edge">
<title>Node1&#45;&gt;Node7</title>
<g id="a_edge6_Node000001_Node000007"><a xlink:title=" ">
<path fill="none" stroke="#63b8ff" d="M92.63,-91.92C117.07,-82.96 153.79,-69.49 180.9,-59.55"/>
<polygon fill="#63b8ff" stroke="#63b8ff" points="182.24,-62.79 190.42,-56.06 179.83,-56.22 182.24,-62.79"/>
</a>
</g>
</g>
<!-- Node9 -->
<g id="Node000009" class="node">
<title>Node9</title>
<g id="a_Node000009"><a xlink:href="validate_8c.html#aa3fa0338cebc63078430fed1211df147" target="_top" xlink:title="Validate problem settings.">
<polygon fill="white" stroke="#666666" points="268,-19 167,-19 167,0 268,0 268,-19"/>
<text text-anchor="middle" x="217.5" y="-7" font-family="Helvetica,sans-Serif" font-size="10.00">validate_settings</text>
</a>
</g>
</g>
<!-- Node1&#45;&gt;Node9 -->
<g id="edge8_Node000001_Node000009" class="edge">
<title>Node1&#45;&gt;Node9</title>
<g id="a_edge8_Node000001_Node000009"><a xlink:title=" ">
<path fill="none" stroke="#63b8ff" d="M77.6,-91.92C95.47,-76.86 132.13,-47.43 167,-28.5 170.69,-26.5 174.63,-24.61 178.62,-22.85"/>
<polygon fill="#63b8ff" stroke="#63b8ff" points="180.01,-26.06 187.92,-19.01 177.34,-19.59 180.01,-26.06"/>
</a>
</g>
</g>
<!-- Node3 -->
<g id="Node000003" class="node">
<title>Node3</title>
<g id="a_Node000003"><a xlink:href="global__opts_8c.html#a9a15c13f16dd6467bcee00e8bf62666a" target="_top" xlink:title=" ">
<polygon fill="white" stroke="#666666" points="390,-204 304,-204 304,-185 390,-185 390,-204"/>
<text text-anchor="middle" x="347" y="-192" font-family="Helvetica,sans-Serif" font-size="10.00">qpalm_malloc</text>
</a>
</g>
</g>
<!-- Node2&#45;&gt;Node3 -->
<g id="edge2_Node000002_Node000003" class="edge">
<title>Node2&#45;&gt;Node3</title>
<g id="a_edge2_Node000002_Node000003"><a xlink:title=" ">
<path fill="none" stroke="#63b8ff" d="M259.54,-194.5C270.36,-194.5 282.17,-194.5 293.5,-194.5"/>
<polygon fill="#63b8ff" stroke="#63b8ff" points="293.72,-198 303.72,-194.5 293.72,-191 293.72,-198"/>
</a>
</g>
</g>
<!-- Node8 -->
<g id="Node000008" class="node">
<title>Node8</title>
<g id="a_Node000008"><a xlink:href="util_8c.html#a7645b56a91479fac2285909a25875b91" target="_top" xlink:title="Custom string copy to avoid string.h library.">
<polygon fill="white" stroke="#666666" points="375.5,-56 318.5,-56 318.5,-37 375.5,-37 375.5,-56"/>
<text text-anchor="middle" x="347" y="-44" font-family="Helvetica,sans-Serif" font-size="10.00">c_strcpy</text>
</a>
</g>
</g>
<!-- Node7&#45;&gt;Node8 -->
<g id="edge7_Node000007_Node000008" class="edge">
<title>Node7&#45;&gt;Node8</title>
<g id="a_edge7_Node000007_Node000008"><a xlink:title=" ">
<path fill="none" stroke="#63b8ff" d="M260.6,-46.5C275.89,-46.5 293.07,-46.5 307.99,-46.5"/>
<polygon fill="#63b8ff" stroke="#63b8ff" points="308.39,-50 318.39,-46.5 308.39,-43 308.39,-50"/>
</a>
</g>
</g>
</g>
</svg>
