<?xml version="1.0" encoding="UTF-8" standalone="no"?>
<!DOCTYPE svg PUBLIC "-//W3C//DTD SVG 1.1//EN"
 "http://www.w3.org/Graphics/SVG/1.1/DTD/svg11.dtd">
<!-- Generated by graphviz version 2.43.0 (0)
 -->
<!-- Title: QPALM/include/qpalm/iteration.h Pages: 1 -->
<svg width="180pt" height="203pt"
 viewBox="0.00 0.00 180.00 203.00" xmlns="http://www.w3.org/2000/svg" xmlns:xlink="http://www.w3.org/1999/xlink">
<g id="graph0" class="graph" transform="scale(1 1) rotate(0) translate(4 199)">
<title>QPALM/include/qpalm/iteration.h</title>
<!-- Node1 -->
<g id="Node000001" class="node">
<title>Node1</title>
<g id="a_Node000001"><a xlink:title="QPALM main solver routines.">
<polygon fill="#999999" stroke="#666666" points="154,-195 32,-195 32,-165 154,-165 154,-195"/>
<text text-anchor="start" x="40" y="-183" font-family="Helvetica,sans-Serif" font-size="10.00">QPALM/include/qpalm</text>
<text text-anchor="middle" x="93" y="-172" font-family="Helvetica,sans-Serif" font-size="10.00">/iteration.h</text>
</a>
</g>
</g>
<!-- Node2 -->
<g id="Node000002" class="node">
<title>Node2</title>
<g id="a_Node000002"><a xlink:href="types_8h.html" target="_top" xlink:title="Internal data structures used in QPALM.">
<polygon fill="white" stroke="#666666" points="172,-129 86,-129 86,-110 172,-110 172,-129"/>
<text text-anchor="middle" x="129" y="-117" font-family="Helvetica,sans-Serif" font-size="10.00">qpalm/types.h</text>
</a>
</g>
</g>
<!-- Node1&#45;&gt;Node2 -->
<g id="edge1_Node000001_Node000002" class="edge">
<title>Node1&#45;&gt;Node2</title>
<g id="a_edge1_Node000001_Node000002"><a xlink:title=" ">
<path fill="none" stroke="#63b8ff" d="M101.71,-164.84C106.67,-156.78 112.93,-146.62 118.2,-138.06"/>
<polygon fill="#63b8ff" stroke="#63b8ff" points="121.35,-139.62 123.61,-129.27 115.38,-135.95 121.35,-139.62"/>
</a>
</g>
</g>
<!-- Node3 -->
<g id="Node000003" class="node">
<title>Node3</title>
<g id="a_Node000003"><a xlink:href="global__opts_8h.html" target="_top" xlink:title="Custom memory allocation, print and utility functions, and data types for floats and ints.">
<polygon fill="white" stroke="#666666" points="116,-74 0,-74 0,-55 116,-55 116,-74"/>
<text text-anchor="middle" x="58" y="-62" font-family="Helvetica,sans-Serif" font-size="10.00">qpalm/global_opts.h</text>
</a>
</g>
</g>
<!-- Node1&#45;&gt;Node3 -->
<g id="edge6_Node000001_Node000003" class="edge">
<title>Node1&#45;&gt;Node3</title>
<g id="a_edge6_Node000001_Node000003"><a xlink:title=" ">
<path fill="none" stroke="#63b8ff" d="M88.31,-164.58C85.08,-154.61 80.72,-141.01 77,-129 72.31,-113.87 67.17,-96.65 63.42,-83.96"/>
<polygon fill="#63b8ff" stroke="#63b8ff" points="66.71,-82.75 60.53,-74.14 60,-84.72 66.71,-82.75"/>
</a>
</g>
</g>
<!-- Node2&#45;&gt;Node3 -->
<g id="edge2_Node000002_Node000003" class="edge">
<title>Node2&#45;&gt;Node3</title>
<g id="a_edge2_Node000002_Node000003"><a xlink:title=" ">
<path fill="none" stroke="#63b8ff" d="M117.59,-109.98C106.89,-102 90.66,-89.88 77.84,-80.31"/>
<polygon fill="#63b8ff" stroke="#63b8ff" points="79.72,-77.35 69.61,-74.17 75.53,-82.96 79.72,-77.35"/>
</a>
</g>
</g>
<!-- Node4 -->
<g id="Node000004" class="node">
<title>Node4</title>
<g id="a_Node000004"><a xlink:title=" ">
<polygon fill="#e0e0e0" stroke="#999999" points="160,-19 110,-19 110,0 160,0 160,-19"/>
<text text-anchor="middle" x="135" y="-7" font-family="Helvetica,sans-Serif" font-size="10.00">ladel.h</text>
</a>
</g>
</g>
<!-- Node2&#45;&gt;Node4 -->
<g id="edge5_Node000002_Node000004" class="edge">
<title>Node2&#45;&gt;Node4</title>
<g id="a_edge5_Node000002_Node000004"><a xlink:title=" ">
<path fill="none" stroke="#63b8ff" d="M129.49,-109.66C130.46,-92.17 132.65,-52.8 133.96,-29.27"/>
<polygon fill="#63b8ff" stroke="#63b8ff" points="137.46,-29.34 134.52,-19.16 130.47,-28.95 137.46,-29.34"/>
</a>
</g>
</g>
<!-- Node3&#45;&gt;Node4 -->
<g id="edge3_Node000003_Node000004" class="edge">
<title>Node3&#45;&gt;Node4</title>
<g id="a_edge3_Node000003_Node000004"><a xlink:title=" ">
<path fill="none" stroke="#63b8ff" d="M70.37,-54.98C82.09,-46.92 99.92,-34.65 113.89,-25.03"/>
<polygon fill="#63b8ff" stroke="#63b8ff" points="116.15,-27.72 122.4,-19.17 112.18,-21.96 116.15,-27.72"/>
</a>
</g>
</g>
<!-- Node5 -->
<g id="Node000005" class="node">
<title>Node5</title>
<g id="a_Node000005"><a xlink:title=" ">
<polygon fill="#e0e0e0" stroke="#999999" points="83.5,-19 32.5,-19 32.5,0 83.5,0 83.5,-19"/>
<text text-anchor="middle" x="58" y="-7" font-family="Helvetica,sans-Serif" font-size="10.00">math.h</text>
</a>
</g>
</g>
<!-- Node3&#45;&gt;Node5 -->
<g id="edge4_Node000003_Node000005" class="edge">
<title>Node3&#45;&gt;Node5</title>
<g id="a_edge4_Node000003_Node000005"><a xlink:title=" ">
<path fill="none" stroke="#63b8ff" d="M58,-54.75C58,-47.8 58,-37.85 58,-29.13"/>
<polygon fill="#63b8ff" stroke="#63b8ff" points="61.5,-29.09 58,-19.09 54.5,-29.09 61.5,-29.09"/>
</a>
</g>
</g>
</g>
</svg>
