<?xml version="1.0" encoding="UTF-8" standalone="no"?>
<!DOCTYPE svg PUBLIC "-//W3C//DTD SVG 1.1//EN"
 "http://www.w3.org/Graphics/SVG/1.1/DTD/svg11.dtd">
<!-- Generated by graphviz version 2.43.0 (0)
 -->
<!-- Title: vec_prod Pages: 1 -->
<svg width="643pt" height="177pt"
 viewBox="0.00 0.00 643.00 177.00" xmlns="http://www.w3.org/2000/svg" xmlns:xlink="http://www.w3.org/1999/xlink">
<g id="graph0" class="graph" transform="scale(1 1) rotate(0) translate(4 173)">
<title>vec_prod</title>
<!-- Node1 -->
<g id="Node000001" class="node">
<title>Node1</title>
<g id="a_Node000001"><a xlink:title="Inner product between two vectors, .">
<polygon fill="#999999" stroke="#666666" points="635,-95 574,-95 574,-76 635,-76 635,-95"/>
<text text-anchor="middle" x="604.5" y="-83" font-family="Helvetica,sans-Serif" font-size="10.00">vec_prod</text>
</a>
</g>
</g>
<!-- Node2 -->
<g id="Node000002" class="node">
<title>Node2</title>
<g id="a_Node000002"><a xlink:href="iteration_8c.html#a1a0ad2638fa3206a6f671619f689364f" target="_top" xlink:title="Compute the (unscaled) dual objective value at the current iterate.">
<polygon fill="white" stroke="#666666" points="403,-169 267,-169 267,-150 403,-150 403,-169"/>
<text text-anchor="middle" x="335" y="-157" font-family="Helvetica,sans-Serif" font-size="10.00">compute_dual_objective</text>
</a>
</g>
</g>
<!-- Node1&#45;&gt;Node2 -->
<g id="edge1_Node000001_Node000002" class="edge">
<title>Node1&#45;&gt;Node2</title>
<g id="a_edge1_Node000001_Node000002"><a xlink:title=" ">
<path fill="none" stroke="#63b8ff" d="M589.11,-102.57C576.96,-115.68 558.33,-132.95 538,-141.5 495.48,-159.38 443.59,-163.68 403.04,-163.61"/>
<polygon fill="#63b8ff" stroke="#63b8ff" points="591.77,-104.85 595.8,-95.05 586.54,-100.2 591.77,-104.85"/>
</a>
</g>
</g>
<!-- Node6 -->
<g id="Node000006" class="node">
<title>Node6</title>
<g id="a_Node000006"><a xlink:href="linesearch_8c.html#a647cabae1574f21e412110765ea1e70d" target="_top" xlink:title="Execute exact linesearch (using qsort)">
<polygon fill="white" stroke="#666666" points="538,-132 439,-132 439,-113 538,-113 538,-132"/>
<text text-anchor="middle" x="488.5" y="-120" font-family="Helvetica,sans-Serif" font-size="10.00">exact_linesearch</text>
</a>
</g>
</g>
<!-- Node1&#45;&gt;Node6 -->
<g id="edge5_Node000001_Node000006" class="edge">
<title>Node1&#45;&gt;Node6</title>
<g id="a_edge5_Node000001_Node000006"><a xlink:title=" ">
<path fill="none" stroke="#63b8ff" d="M564.25,-98.24C549.47,-103.04 532.92,-108.41 519.15,-112.88"/>
<polygon fill="#63b8ff" stroke="#63b8ff" points="565.71,-101.44 574.14,-95.03 563.55,-94.79 565.71,-101.44"/>
</a>
</g>
</g>
<!-- Node8 -->
<g id="Node000008" class="node">
<title>Node8</title>
<g id="a_Node000008"><a xlink:href="iteration_8c.html#a155f5c99c7a442c554cca914de34eba7" target="_top" xlink:title="Initialize penalty factors from initial x.">
<polygon fill="white" stroke="#666666" points="535.5,-95 441.5,-95 441.5,-76 535.5,-76 535.5,-95"/>
<text text-anchor="middle" x="488.5" y="-83" font-family="Helvetica,sans-Serif" font-size="10.00">initialize_sigma</text>
</a>
</g>
</g>
<!-- Node1&#45;&gt;Node8 -->
<g id="edge8_Node000001_Node000008" class="edge">
<title>Node1&#45;&gt;Node8</title>
<g id="a_edge8_Node000001_Node000008"><a xlink:title=" ">
<path fill="none" stroke="#63b8ff" d="M563.64,-85.5C554.65,-85.5 545.03,-85.5 535.8,-85.5"/>
<polygon fill="#63b8ff" stroke="#63b8ff" points="563.85,-89 573.85,-85.5 563.85,-82 563.85,-89"/>
</a>
</g>
</g>
<!-- Node9 -->
<g id="Node000009" class="node">
<title>Node9</title>
<g id="a_Node000009"><a xlink:href="termination_8c.html#a8cf01c07469436e7c562c9f3e162fd2b" target="_top" xlink:title="Check whether the problem is dual infeasible.">
<polygon fill="white" stroke="#666666" points="387,-76 283,-76 283,-57 387,-57 387,-76"/>
<text text-anchor="middle" x="335" y="-64" font-family="Helvetica,sans-Serif" font-size="10.00">is_dual_infeasible</text>
</a>
</g>
</g>
<!-- Node1&#45;&gt;Node9 -->
<g id="edge9_Node000001_Node000009" class="edge">
<title>Node1&#45;&gt;Node9</title>
<g id="a_edge9_Node000001_Node000009"><a xlink:title=" ">
<path fill="none" stroke="#63b8ff" d="M567.26,-73.02C557.85,-70.32 547.64,-67.87 538,-66.5 487.13,-59.27 428.33,-60.32 387.34,-62.53"/>
<polygon fill="#63b8ff" stroke="#63b8ff" points="566.52,-76.45 577.1,-76 568.55,-69.75 566.52,-76.45"/>
</a>
</g>
</g>
<!-- Node10 -->
<g id="Node000010" class="node">
<title>Node10</title>
<g id="a_Node000010"><a xlink:href="lin__alg_8c.html#ac9c437da6c40c86a70915aa0efd8af7d" target="_top" xlink:title="2&#45;norm of a vector, .">
<polygon fill="white" stroke="#666666" points="532.5,-19 444.5,-19 444.5,0 532.5,0 532.5,-19"/>
<text text-anchor="middle" x="488.5" y="-7" font-family="Helvetica,sans-Serif" font-size="10.00">vec_norm_two</text>
</a>
</g>
</g>
<!-- Node1&#45;&gt;Node10 -->
<g id="edge11_Node000001_Node000010" class="edge">
<title>Node1&#45;&gt;Node10</title>
<g id="a_edge11_Node000001_Node000010"><a xlink:title=" ">
<path fill="none" stroke="#63b8ff" d="M585.31,-69.34C572.58,-58.47 554.9,-44.22 538,-33.5 529.59,-28.17 519.83,-23.13 511.28,-19.07"/>
<polygon fill="#63b8ff" stroke="#63b8ff" points="583.06,-72.01 592.9,-75.92 587.64,-66.73 583.06,-72.01"/>
</a>
</g>
</g>
<!-- Node3 -->
<g id="Node000003" class="node">
<title>Node3</title>
<g id="a_Node000003"><a xlink:href="group__solver-grp.html#ga17fcba910c32b8518df93617591b1cf1" target="_top" xlink:title="Solve the quadratic program.">
<polygon fill="white" stroke="#666666" points="231,-132 152,-132 152,-113 231,-113 231,-132"/>
<text text-anchor="middle" x="191.5" y="-120" font-family="Helvetica,sans-Serif" font-size="10.00">qpalm_solve</text>
</a>
</g>
</g>
<!-- Node2&#45;&gt;Node3 -->
<g id="edge2_Node000002_Node000003" class="edge">
<title>Node2&#45;&gt;Node3</title>
<g id="a_edge2_Node000002_Node000003"><a xlink:title=" ">
<path fill="none" stroke="#63b8ff" d="M287.65,-147.38C268.72,-142.43 247.13,-136.78 229.31,-132.12"/>
<polygon fill="#63b8ff" stroke="#63b8ff" points="287,-150.83 297.56,-149.97 288.77,-144.06 287,-150.83"/>
</a>
</g>
</g>
<!-- Node4 -->
<g id="Node000004" class="node">
<title>Node4</title>
<g id="a_Node000004"><a xlink:href="qpalm__fortran_8c.html#abec01161fcee665e126347b862c404c4" target="_top" xlink:title=" ">
<polygon fill="white" stroke="#666666" points="106,-151 10,-151 10,-132 106,-132 106,-151"/>
<text text-anchor="middle" x="58" y="-139" font-family="Helvetica,sans-Serif" font-size="10.00">qpalm_fortran_c</text>
</a>
</g>
</g>
<!-- Node3&#45;&gt;Node4 -->
<g id="edge3_Node000003_Node000004" class="edge">
<title>Node3&#45;&gt;Node4</title>
<g id="a_edge3_Node000003_Node000004"><a xlink:title=" ">
<path fill="none" stroke="#63b8ff" d="M141.8,-129.54C130.2,-131.21 117.85,-133 106.31,-134.66"/>
<polygon fill="#63b8ff" stroke="#63b8ff" points="142.36,-132.99 151.76,-128.1 141.36,-126.06 142.36,-132.99"/>
</a>
</g>
</g>
<!-- Node5 -->
<g id="Node000005" class="node">
<title>Node5</title>
<g id="a_Node000005"><a xlink:href="classqpalm_1_1Solver.html#a7d723d189a812ffa19d688b7aa38ccca" target="_top" xlink:title="Solve the problem.">
<polygon fill="white" stroke="#666666" points="116,-114 0,-114 0,-95 116,-95 116,-114"/>
<text text-anchor="middle" x="58" y="-102" font-family="Helvetica,sans-Serif" font-size="10.00">qpalm::Solver::solve</text>
</a>
</g>
</g>
<!-- Node3&#45;&gt;Node5 -->
<g id="edge4_Node000003_Node000005" class="edge">
<title>Node3&#45;&gt;Node5</title>
<g id="a_edge4_Node000003_Node000005"><a xlink:title=" ">
<path fill="none" stroke="#63b8ff" d="M141.62,-115.81C133.43,-114.69 124.86,-113.52 116.47,-112.37"/>
<polygon fill="#63b8ff" stroke="#63b8ff" points="141.37,-119.31 151.76,-117.2 142.32,-112.37 141.37,-119.31"/>
</a>
</g>
</g>
<!-- Node7 -->
<g id="Node000007" class="node">
<title>Node7</title>
<g id="a_Node000007"><a xlink:href="iteration_8c.html#a9c9fafac9ce099122c5a594762e5a052" target="_top" xlink:title="Update the primal iterate.">
<polygon fill="white" stroke="#666666" points="397.5,-132 272.5,-132 272.5,-113 397.5,-113 397.5,-132"/>
<text text-anchor="middle" x="335" y="-120" font-family="Helvetica,sans-Serif" font-size="10.00">update_primal_iterate</text>
</a>
</g>
</g>
<!-- Node6&#45;&gt;Node7 -->
<g id="edge6_Node000006_Node000007" class="edge">
<title>Node6&#45;&gt;Node7</title>
<g id="a_edge6_Node000006_Node000007"><a xlink:title=" ">
<path fill="none" stroke="#63b8ff" d="M428.41,-122.5C418.34,-122.5 407.85,-122.5 397.71,-122.5"/>
<polygon fill="#63b8ff" stroke="#63b8ff" points="428.73,-126 438.73,-122.5 428.73,-119 428.73,-126"/>
</a>
</g>
</g>
<!-- Node7&#45;&gt;Node3 -->
<g id="edge7_Node000007_Node000003" class="edge">
<title>Node7&#45;&gt;Node3</title>
<g id="a_edge7_Node000007_Node000003"><a xlink:title=" ">
<path fill="none" stroke="#63b8ff" d="M262.12,-122.5C251.43,-122.5 240.78,-122.5 231.14,-122.5"/>
<polygon fill="#63b8ff" stroke="#63b8ff" points="262.35,-126 272.35,-122.5 262.35,-119 262.35,-126"/>
</a>
</g>
</g>
<!-- Node9&#45;&gt;Node3 -->
<g id="edge10_Node000009_Node000003" class="edge">
<title>Node9&#45;&gt;Node3</title>
<g id="a_edge10_Node000009_Node000003"><a xlink:title=" ">
<path fill="none" stroke="#63b8ff" d="M300.28,-79.85C274.47,-90.06 239.52,-103.89 216.51,-113"/>
<polygon fill="#63b8ff" stroke="#63b8ff" points="301.66,-83.06 309.68,-76.13 299.09,-76.55 301.66,-83.06"/>
</a>
</g>
</g>
</g>
</svg>
