<?xml version="1.0" encoding="UTF-8" standalone="no"?>
<!DOCTYPE svg PUBLIC "-//W3C//DTD SVG 1.1//EN"
 "http://www.w3.org/Graphics/SVG/1.1/DTD/svg11.dtd">
<!-- Generated by graphviz version 2.43.0 (0)
 -->
<!-- Title: QPALM/src/lin_alg.c Pages: 1 -->
<svg width="275pt" height="302pt"
 viewBox="0.00 0.00 274.67 302.00" xmlns="http://www.w3.org/2000/svg" xmlns:xlink="http://www.w3.org/1999/xlink">
<g id="graph0" class="graph" transform="scale(1 1) rotate(0) translate(4 298)">
<title>QPALM/src/lin_alg.c</title>
<!-- Node1 -->
<g id="Node000001" class="node">
<title>Node1</title>
<g id="a_Node000001"><a xlink:title="Linear algebra with vectors.">
<polygon fill="#999999" stroke="#666666" points="201.64,-294 90.64,-294 90.64,-275 201.64,-275 201.64,-294"/>
<text text-anchor="middle" x="146.14" y="-282" font-family="Helvetica,sans-Serif" font-size="10.00">QPALM/src/lin_alg.c</text>
</a>
</g>
</g>
<!-- Node2 -->
<g id="Node000002" class="node">
<title>Node2</title>
<g id="a_Node000002"><a xlink:href="lin__alg_8h.html" target="_top" xlink:title="Linear algebra with vectors.">
<polygon fill="white" stroke="#666666" points="192.14,-239 100.14,-239 100.14,-220 192.14,-220 192.14,-239"/>
<text text-anchor="middle" x="146.14" y="-227" font-family="Helvetica,sans-Serif" font-size="10.00">qpalm/lin_alg.h</text>
</a>
</g>
</g>
<!-- Node1&#45;&gt;Node2 -->
<g id="edge1_Node000001_Node000002" class="edge">
<title>Node1&#45;&gt;Node2</title>
<g id="a_edge1_Node000001_Node000002"><a xlink:title=" ">
<path fill="none" stroke="#63b8ff" d="M146.14,-274.75C146.14,-267.8 146.14,-257.85 146.14,-249.13"/>
<polygon fill="#63b8ff" stroke="#63b8ff" points="149.64,-249.09 146.14,-239.09 142.64,-249.09 149.64,-249.09"/>
</a>
</g>
</g>
<!-- Node3 -->
<g id="Node000003" class="node">
<title>Node3</title>
<g id="a_Node000003"><a xlink:href="types_8h.html" target="_top" xlink:title="Internal data structures used in QPALM.">
<polygon fill="white" stroke="#666666" points="221.64,-129 168.64,-129 168.64,-110 221.64,-110 221.64,-129"/>
<text text-anchor="middle" x="195.14" y="-117" font-family="Helvetica,sans-Serif" font-size="10.00">types.h</text>
</a>
</g>
</g>
<!-- Node2&#45;&gt;Node3 -->
<g id="edge2_Node000002_Node000003" class="edge">
<title>Node2&#45;&gt;Node3</title>
<g id="a_edge2_Node000002_Node000003"><a xlink:title=" ">
<path fill="none" stroke="#63b8ff" d="M153.2,-219.78C159.89,-211.14 169.85,-197.31 176.14,-184 182.99,-169.52 188.01,-152.01 191.17,-139.05"/>
<polygon fill="#63b8ff" stroke="#63b8ff" points="194.64,-139.54 193.46,-129.02 187.82,-137.99 194.64,-139.54"/>
</a>
</g>
</g>
<!-- Node7 -->
<g id="Node000007" class="node">
<title>Node7</title>
<g id="a_Node000007"><a xlink:href="solver__interface_8h.html" target="_top" xlink:title="Interface and wrapper to matrix/factorization (ladel) functions.">
<polygon fill="white" stroke="#666666" points="167.14,-184 29.14,-184 29.14,-165 167.14,-165 167.14,-184"/>
<text text-anchor="middle" x="98.14" y="-172" font-family="Helvetica,sans-Serif" font-size="10.00">qpalm/solver_interface.h</text>
</a>
</g>
</g>
<!-- Node2&#45;&gt;Node7 -->
<g id="edge7_Node000002_Node000007" class="edge">
<title>Node2&#45;&gt;Node7</title>
<g id="a_edge7_Node000002_Node000007"><a xlink:title=" ">
<path fill="none" stroke="#63b8ff" d="M138.22,-219.75C131.3,-212.11 121.08,-200.82 112.69,-191.56"/>
<polygon fill="#63b8ff" stroke="#63b8ff" points="115.23,-189.15 105.92,-184.09 110.04,-193.85 115.23,-189.15"/>
</a>
</g>
</g>
<!-- Node4 -->
<g id="Node000004" class="node">
<title>Node4</title>
<g id="a_Node000004"><a xlink:href="global__opts_8h.html" target="_top" xlink:title="Custom memory allocation, print and utility functions, and data types for floats and ints.">
<polygon fill="white" stroke="#666666" points="253.14,-74 137.14,-74 137.14,-55 253.14,-55 253.14,-74"/>
<text text-anchor="middle" x="195.14" y="-62" font-family="Helvetica,sans-Serif" font-size="10.00">qpalm/global_opts.h</text>
</a>
</g>
</g>
<!-- Node3&#45;&gt;Node4 -->
<g id="edge3_Node000003_Node000004" class="edge">
<title>Node3&#45;&gt;Node4</title>
<g id="a_edge3_Node000003_Node000004"><a xlink:title=" ">
<path fill="none" stroke="#63b8ff" d="M195.14,-109.75C195.14,-102.8 195.14,-92.85 195.14,-84.13"/>
<polygon fill="#63b8ff" stroke="#63b8ff" points="198.64,-84.09 195.14,-74.09 191.64,-84.09 198.64,-84.09"/>
</a>
</g>
</g>
<!-- Node5 -->
<g id="Node000005" class="node">
<title>Node5</title>
<g id="a_Node000005"><a xlink:title=" ">
<polygon fill="#e0e0e0" stroke="#999999" points="121.14,-19 71.14,-19 71.14,0 121.14,0 121.14,-19"/>
<text text-anchor="middle" x="96.14" y="-7" font-family="Helvetica,sans-Serif" font-size="10.00">ladel.h</text>
</a>
</g>
</g>
<!-- Node3&#45;&gt;Node5 -->
<g id="edge6_Node000003_Node000005" class="edge">
<title>Node3&#45;&gt;Node5</title>
<g id="a_edge6_Node000003_Node000005"><a xlink:title=" ">
<path fill="none" stroke="#63b8ff" d="M216.59,-109.94C242.06,-98.51 279.12,-77.12 262.14,-55 246.34,-34.4 175.29,-21.24 131.43,-14.93"/>
<polygon fill="#63b8ff" stroke="#63b8ff" points="131.83,-11.45 121.44,-13.54 130.87,-18.38 131.83,-11.45"/>
</a>
</g>
</g>
<!-- Node4&#45;&gt;Node5 -->
<g id="edge4_Node000004_Node000005" class="edge">
<title>Node4&#45;&gt;Node5</title>
<g id="a_edge4_Node000004_Node000005"><a xlink:title=" ">
<path fill="none" stroke="#63b8ff" d="M179.24,-54.98C163.6,-46.61 139.49,-33.7 121.26,-23.95"/>
<polygon fill="#63b8ff" stroke="#63b8ff" points="122.81,-20.8 112.34,-19.17 119.5,-26.98 122.81,-20.8"/>
</a>
</g>
</g>
<!-- Node6 -->
<g id="Node000006" class="node">
<title>Node6</title>
<g id="a_Node000006"><a xlink:title=" ">
<polygon fill="#e0e0e0" stroke="#999999" points="220.64,-19 169.64,-19 169.64,0 220.64,0 220.64,-19"/>
<text text-anchor="middle" x="195.14" y="-7" font-family="Helvetica,sans-Serif" font-size="10.00">math.h</text>
</a>
</g>
</g>
<!-- Node4&#45;&gt;Node6 -->
<g id="edge5_Node000004_Node000006" class="edge">
<title>Node4&#45;&gt;Node6</title>
<g id="a_edge5_Node000004_Node000006"><a xlink:title=" ">
<path fill="none" stroke="#63b8ff" d="M195.14,-54.75C195.14,-47.8 195.14,-37.85 195.14,-29.13"/>
<polygon fill="#63b8ff" stroke="#63b8ff" points="198.64,-29.09 195.14,-19.09 191.64,-29.09 198.64,-29.09"/>
</a>
</g>
</g>
<!-- Node7&#45;&gt;Node3 -->
<g id="edge11_Node000007_Node000003" class="edge">
<title>Node7&#45;&gt;Node3</title>
<g id="a_edge11_Node000007_Node000003"><a xlink:title=" ">
<path fill="none" stroke="#63b8ff" d="M113.73,-164.98C128.91,-156.69 152.24,-143.94 170.04,-134.22"/>
<polygon fill="#63b8ff" stroke="#63b8ff" points="172.18,-137.04 179.27,-129.17 168.82,-130.89 172.18,-137.04"/>
</a>
</g>
</g>
<!-- Node7&#45;&gt;Node4 -->
<g id="edge8_Node000007_Node000004" class="edge">
<title>Node7&#45;&gt;Node4</title>
<g id="a_edge8_Node000007_Node000004"><a xlink:title=" ">
<path fill="none" stroke="#63b8ff" d="M106.08,-164.66C122.36,-146.54 159.74,-104.91 180.53,-81.77"/>
<polygon fill="#63b8ff" stroke="#63b8ff" points="183.29,-83.94 187.37,-74.16 178.08,-79.26 183.29,-83.94"/>
</a>
</g>
</g>
<!-- Node7&#45;&gt;Node5 -->
<g id="edge12_Node000007_Node000005" class="edge">
<title>Node7&#45;&gt;Node5</title>
<g id="a_edge12_Node000007_Node000005"><a xlink:title=" ">
<path fill="none" stroke="#63b8ff" d="M84.64,-164.78C62.43,-149.53 18.95,-115.62 2.14,-74 -9.63,-44.83 29.87,-27.34 61.26,-18.31"/>
<polygon fill="#63b8ff" stroke="#63b8ff" points="62.33,-21.65 71.08,-15.67 60.52,-14.89 62.33,-21.65"/>
</a>
</g>
</g>
<!-- Node8 -->
<g id="Node000008" class="node">
<title>Node8</title>
<g id="a_Node000008"><a xlink:href="constants_8h.html" target="_top" xlink:title="Constants used in QPALM.">
<polygon fill="white" stroke="#666666" points="118.64,-74 11.64,-74 11.64,-55 118.64,-55 118.64,-74"/>
<text text-anchor="middle" x="65.14" y="-62" font-family="Helvetica,sans-Serif" font-size="10.00">qpalm/constants.h</text>
</a>
</g>
</g>
<!-- Node7&#45;&gt;Node8 -->
<g id="edge9_Node000007_Node000008" class="edge">
<title>Node7&#45;&gt;Node8</title>
<g id="a_edge9_Node000007_Node000008"><a xlink:title=" ">
<path fill="none" stroke="#63b8ff" d="M95.44,-164.66C90.07,-147.09 77.96,-107.45 70.78,-83.95"/>
<polygon fill="#63b8ff" stroke="#63b8ff" points="74.06,-82.7 67.79,-74.16 67.36,-84.74 74.06,-82.7"/>
</a>
</g>
</g>
<!-- Node8&#45;&gt;Node5 -->
<g id="edge10_Node000008_Node000005" class="edge">
<title>Node8&#45;&gt;Node5</title>
<g id="a_edge10_Node000008_Node000005"><a xlink:title=" ">
<path fill="none" stroke="#63b8ff" d="M70.26,-54.75C74.51,-47.49 80.67,-36.95 85.92,-27.98"/>
<polygon fill="#63b8ff" stroke="#63b8ff" points="89.09,-29.49 91.12,-19.09 83.05,-25.95 89.09,-29.49"/>
</a>
</g>
</g>
</g>
</svg>
