<?xml version="1.0" encoding="UTF-8" standalone="no"?>
<!DOCTYPE svg PUBLIC "-//W3C//DTD SVG 1.1//EN"
 "http://www.w3.org/Graphics/SVG/1.1/DTD/svg11.dtd">
<!-- Generated by graphviz version 2.43.0 (0)
 -->
<!-- Title: QPALM/include/qpalm/lin_alg.h Pages: 1 -->
<svg width="1786pt" height="291pt"
 viewBox="0.00 0.00 1785.50 291.00" xmlns="http://www.w3.org/2000/svg" xmlns:xlink="http://www.w3.org/1999/xlink">
<g id="graph0" class="graph" transform="scale(1 1) rotate(0) translate(4 287)">
<title>QPALM/include/qpalm/lin_alg.h</title>
<!-- Node1 -->
<g id="Node000001" class="node">
<title>Node1</title>
<g id="a_Node000001"><a xlink:title="Linear algebra with vectors.">
<polygon fill="#999999" stroke="#666666" points="910,-283 788,-283 788,-253 910,-253 910,-283"/>
<text text-anchor="start" x="796" y="-271" font-family="Helvetica,sans-Serif" font-size="10.00">QPALM/include/qpalm</text>
<text text-anchor="middle" x="849" y="-260" font-family="Helvetica,sans-Serif" font-size="10.00">/lin_alg.h</text>
</a>
</g>
</g>
<!-- Node2 -->
<g id="Node000002" class="node">
<title>Node2</title>
<g id="a_Node000002"><a xlink:href="qpalm_8h.html" target="_top" xlink:title="QPALM main solver API.">
<polygon fill="white" stroke="#666666" points="282.5,-151 151.5,-151 151.5,-132 282.5,-132 282.5,-151"/>
<text text-anchor="middle" x="217" y="-139" font-family="Helvetica,sans-Serif" font-size="10.00">QPALM/include/qpalm.h</text>
</a>
</g>
</g>
<!-- Node1&#45;&gt;Node2 -->
<g id="edge1_Node000001_Node000002" class="edge">
<title>Node1&#45;&gt;Node2</title>
<g id="a_edge1_Node000001_Node000002"><a xlink:title=" ">
<path fill="none" stroke="#63b8ff" d="M777.68,-266.24C648.45,-263.92 381.15,-254.59 297,-217 263.73,-202.14 235.36,-167.66 223.26,-151.35"/>
<polygon fill="#63b8ff" stroke="#63b8ff" points="777.81,-269.74 787.87,-266.41 777.93,-262.74 777.81,-269.74"/>
</a>
</g>
</g>
<!-- Node6 -->
<g id="Node000006" class="node">
<title>Node6</title>
<g id="a_Node000006"><a xlink:href="qpalm_8c.html" target="_top" xlink:title="QPALM main solver API.">
<polygon fill="white" stroke="#666666" points="406,-90.5 296,-90.5 296,-71.5 406,-71.5 406,-90.5"/>
<text text-anchor="middle" x="351" y="-78.5" font-family="Helvetica,sans-Serif" font-size="10.00">QPALM/src/qpalm.c</text>
</a>
</g>
</g>
<!-- Node1&#45;&gt;Node6 -->
<g id="edge15_Node000001_Node000006" class="edge">
<title>Node1&#45;&gt;Node6</title>
<g id="a_edge15_Node000001_Node000006"><a xlink:title=" ">
<path fill="none" stroke="#63b8ff" d="M777.5,-265.34C642.2,-261.45 359.51,-249.49 330,-217 296.83,-180.48 331.42,-114.18 345.56,-90.61"/>
<polygon fill="#63b8ff" stroke="#63b8ff" points="777.68,-268.84 787.77,-265.63 777.87,-261.85 777.68,-268.84"/>
</a>
</g>
</g>
<!-- Node7 -->
<g id="Node000007" class="node">
<title>Node7</title>
<g id="a_Node000007"><a xlink:href="scaling_8h.html" target="_top" xlink:title="Problem data scaling during setup.">
<polygon fill="white" stroke="#666666" points="461,-217 339,-217 339,-187 461,-187 461,-217"/>
<text text-anchor="start" x="347" y="-205" font-family="Helvetica,sans-Serif" font-size="10.00">QPALM/include/qpalm</text>
<text text-anchor="middle" x="400" y="-194" font-family="Helvetica,sans-Serif" font-size="10.00">/scaling.h</text>
</a>
</g>
</g>
<!-- Node1&#45;&gt;Node7 -->
<g id="edge6_Node000001_Node000007" class="edge">
<title>Node1&#45;&gt;Node7</title>
<g id="a_edge6_Node000001_Node000007"><a xlink:title=" ">
<path fill="none" stroke="#63b8ff" d="M777.65,-258.57C702.27,-249.41 580.02,-233.81 475,-217 470.55,-216.29 465.96,-215.52 461.35,-214.72"/>
<polygon fill="#63b8ff" stroke="#63b8ff" points="777.62,-262.09 787.97,-259.82 778.46,-255.15 777.62,-262.09"/>
</a>
</g>
</g>
<!-- Node8 -->
<g id="Node000008" class="node">
<title>Node8</title>
<g id="a_Node000008"><a xlink:href="scaling_8c.html" target="_top" xlink:title="Problem data scaling during setup.">
<polygon fill="white" stroke="#666666" points="543.5,-151 430.5,-151 430.5,-132 543.5,-132 543.5,-151"/>
<text text-anchor="middle" x="487" y="-139" font-family="Helvetica,sans-Serif" font-size="10.00">QPALM/src/scaling.c</text>
</a>
</g>
</g>
<!-- Node1&#45;&gt;Node8 -->
<g id="edge16_Node000001_Node000008" class="edge">
<title>Node1&#45;&gt;Node8</title>
<g id="a_edge16_Node000001_Node000008"><a xlink:title=" ">
<path fill="none" stroke="#63b8ff" d="M777.56,-265.44C689.57,-262.03 546.97,-251.24 508,-217 488.72,-200.06 486.52,-166.93 486.64,-151.19"/>
<polygon fill="#63b8ff" stroke="#63b8ff" points="777.62,-268.94 787.74,-265.81 777.87,-261.94 777.62,-268.94"/>
</a>
</g>
</g>
<!-- Node9 -->
<g id="Node000009" class="node">
<title>Node9</title>
<g id="a_Node000009"><a xlink:href="iteration_8c.html" target="_top" xlink:title="QPALM main solver routines.">
<polygon fill="white" stroke="#666666" points="637,-211.5 517,-211.5 517,-192.5 637,-192.5 637,-211.5"/>
<text text-anchor="middle" x="577" y="-199.5" font-family="Helvetica,sans-Serif" font-size="10.00">QPALM/src/iteration.c</text>
</a>
</g>
</g>
<!-- Node1&#45;&gt;Node9 -->
<g id="edge10_Node000001_Node000009" class="edge">
<title>Node1&#45;&gt;Node9</title>
<g id="a_edge10_Node000001_Node000009"><a xlink:title=" ">
<path fill="none" stroke="#63b8ff" d="M779.29,-250.6C726.27,-238.12 655.44,-221.46 613.2,-211.52"/>
<polygon fill="#63b8ff" stroke="#63b8ff" points="778.77,-254.07 789.31,-252.95 780.38,-247.26 778.77,-254.07"/>
</a>
</g>
</g>
<!-- Node10 -->
<g id="Node000010" class="node">
<title>Node10</title>
<g id="a_Node000010"><a xlink:href="lin__alg_8c.html" target="_top" xlink:title="Linear algebra with vectors.">
<polygon fill="white" stroke="#666666" points="766.5,-211.5 655.5,-211.5 655.5,-192.5 766.5,-192.5 766.5,-211.5"/>
<text text-anchor="middle" x="711" y="-199.5" font-family="Helvetica,sans-Serif" font-size="10.00">QPALM/src/lin_alg.c</text>
</a>
</g>
</g>
<!-- Node1&#45;&gt;Node10 -->
<g id="edge11_Node000001_Node000010" class="edge">
<title>Node1&#45;&gt;Node10</title>
<g id="a_edge11_Node000001_Node000010"><a xlink:title=" ">
<path fill="none" stroke="#63b8ff" d="M809.37,-248.62C783.03,-236.41 749.68,-220.94 729.37,-211.52"/>
<polygon fill="#63b8ff" stroke="#63b8ff" points="808.17,-251.92 818.72,-252.95 811.12,-245.57 808.17,-251.92"/>
</a>
</g>
</g>
<!-- Node11 -->
<g id="Node000011" class="node">
<title>Node11</title>
<g id="a_Node000011"><a xlink:href="linesearch_8c.html" target="_top" xlink:title="Routines to perform exact or backtracking linesearch.">
<polygon fill="white" stroke="#666666" points="913.5,-211.5 784.5,-211.5 784.5,-192.5 913.5,-192.5 913.5,-211.5"/>
<text text-anchor="middle" x="849" y="-199.5" font-family="Helvetica,sans-Serif" font-size="10.00">QPALM/src/linesearch.c</text>
</a>
</g>
</g>
<!-- Node1&#45;&gt;Node11 -->
<g id="edge12_Node000001_Node000011" class="edge">
<title>Node1&#45;&gt;Node11</title>
<g id="a_edge12_Node000001_Node000011"><a xlink:title=" ">
<path fill="none" stroke="#63b8ff" d="M849,-242.6C849,-231.8 849,-219.78 849,-211.84"/>
<polygon fill="#63b8ff" stroke="#63b8ff" points="845.5,-242.8 849,-252.8 852.5,-242.8 845.5,-242.8"/>
</a>
</g>
</g>
<!-- Node12 -->
<g id="Node000012" class="node">
<title>Node12</title>
<g id="a_Node000012"><a xlink:href="newton_8c.html" target="_top" xlink:title="Functions to calculate the semismooth Newton direction.">
<polygon fill="white" stroke="#666666" points="1046.5,-211.5 931.5,-211.5 931.5,-192.5 1046.5,-192.5 1046.5,-211.5"/>
<text text-anchor="middle" x="989" y="-199.5" font-family="Helvetica,sans-Serif" font-size="10.00">QPALM/src/newton.c</text>
</a>
</g>
</g>
<!-- Node1&#45;&gt;Node12 -->
<g id="edge13_Node000001_Node000012" class="edge">
<title>Node1&#45;&gt;Node12</title>
<g id="a_edge13_Node000001_Node000012"><a xlink:title=" ">
<path fill="none" stroke="#63b8ff" d="M888.86,-248.78C915.62,-236.54 949.66,-220.98 970.37,-211.52"/>
<polygon fill="#63b8ff" stroke="#63b8ff" points="887.36,-245.61 879.72,-252.95 890.27,-251.98 887.36,-245.61"/>
</a>
</g>
</g>
<!-- Node13 -->
<g id="Node000013" class="node">
<title>Node13</title>
<g id="a_Node000013"><a xlink:href="nonconvex_8c.html" target="_top" xlink:title="Routines to deal with nonconvex QPs.">
<polygon fill="white" stroke="#666666" points="1197,-211.5 1065,-211.5 1065,-192.5 1197,-192.5 1197,-211.5"/>
<text text-anchor="middle" x="1131" y="-199.5" font-family="Helvetica,sans-Serif" font-size="10.00">QPALM/src/nonconvex.c</text>
</a>
</g>
</g>
<!-- Node1&#45;&gt;Node13 -->
<g id="edge14_Node000001_Node000013" class="edge">
<title>Node1&#45;&gt;Node13</title>
<g id="a_edge14_Node000001_Node000013"><a xlink:title=" ">
<path fill="none" stroke="#63b8ff" d="M920.23,-250.83C975.23,-238.35 1049.18,-221.57 1093.28,-211.56"/>
<polygon fill="#63b8ff" stroke="#63b8ff" points="919.17,-247.49 910.19,-253.11 920.72,-254.31 919.17,-247.49"/>
</a>
</g>
</g>
<!-- Node14 -->
<g id="Node000014" class="node">
<title>Node14</title>
<g id="a_Node000014"><a xlink:href="solver__interface_8c.html" target="_top" xlink:title="Interface and wrapper to matrix/factorization (ladel) functions.">
<polygon fill="white" stroke="#666666" points="1373,-211.5 1215,-211.5 1215,-192.5 1373,-192.5 1373,-211.5"/>
<text text-anchor="middle" x="1294" y="-199.5" font-family="Helvetica,sans-Serif" font-size="10.00">QPALM/src/solver_interface.c</text>
</a>
</g>
</g>
<!-- Node1&#45;&gt;Node14 -->
<g id="edge17_Node000001_Node000014" class="edge">
<title>Node1&#45;&gt;Node14</title>
<g id="a_edge17_Node000001_Node000014"><a xlink:title=" ">
<path fill="none" stroke="#63b8ff" d="M920.33,-257.41C992.43,-247.62 1107.04,-231.8 1206,-217 1217.47,-215.28 1229.78,-213.37 1241.44,-211.53"/>
<polygon fill="#63b8ff" stroke="#63b8ff" points="919.45,-254 910.01,-258.81 920.39,-260.93 919.45,-254"/>
</a>
</g>
</g>
<!-- Node15 -->
<g id="Node000015" class="node">
<title>Node15</title>
<g id="a_Node000015"><a xlink:href="termination_8c.html" target="_top" xlink:title="Routines to check the termination and infeasibility criteria.">
<polygon fill="white" stroke="#666666" points="1527,-211.5 1391,-211.5 1391,-192.5 1527,-192.5 1527,-211.5"/>
<text text-anchor="middle" x="1459" y="-199.5" font-family="Helvetica,sans-Serif" font-size="10.00">QPALM/src/termination.c</text>
</a>
</g>
</g>
<!-- Node1&#45;&gt;Node15 -->
<g id="edge18_Node000001_Node000015" class="edge">
<title>Node1&#45;&gt;Node15</title>
<g id="a_edge18_Node000001_Node000015"><a xlink:title=" ">
<path fill="none" stroke="#63b8ff" d="M920.58,-262.26C1023.1,-255.02 1217.54,-239.62 1382,-217 1393.04,-215.48 1404.9,-213.5 1415.94,-211.51"/>
<polygon fill="#63b8ff" stroke="#63b8ff" points="920.08,-258.78 910.35,-262.97 920.57,-265.77 920.08,-258.78"/>
</a>
</g>
</g>
<!-- Node16 -->
<g id="Node000016" class="node">
<title>Node16</title>
<g id="a_Node000016"><a xlink:href="util_8c.html" target="_top" xlink:title="Utility functions.">
<polygon fill="white" stroke="#666666" points="1640.5,-211.5 1545.5,-211.5 1545.5,-192.5 1640.5,-192.5 1640.5,-211.5"/>
<text text-anchor="middle" x="1593" y="-199.5" font-family="Helvetica,sans-Serif" font-size="10.00">QPALM/src/util.c</text>
</a>
</g>
</g>
<!-- Node1&#45;&gt;Node16 -->
<g id="edge19_Node000001_Node000016" class="edge">
<title>Node1&#45;&gt;Node16</title>
<g id="a_edge19_Node000001_Node000016"><a xlink:title=" ">
<path fill="none" stroke="#63b8ff" d="M920.27,-265.75C1045.55,-262.69 1313.11,-252.23 1536,-217 1544.66,-215.63 1553.93,-213.6 1562.43,-211.51"/>
<polygon fill="#63b8ff" stroke="#63b8ff" points="919.96,-262.26 910.05,-266 920.13,-269.26 919.96,-262.26"/>
</a>
</g>
</g>
<!-- Node17 -->
<g id="Node000017" class="node">
<title>Node17</title>
<g id="a_Node000017"><a xlink:href="validate_8c.html" target="_top" xlink:title="Validation of the user provided settings and data.">
<polygon fill="white" stroke="#666666" points="1777.5,-211.5 1658.5,-211.5 1658.5,-192.5 1777.5,-192.5 1777.5,-211.5"/>
<text text-anchor="middle" x="1718" y="-199.5" font-family="Helvetica,sans-Serif" font-size="10.00">QPALM/src/validate.c</text>
</a>
</g>
</g>
<!-- Node1&#45;&gt;Node17 -->
<g id="edge20_Node000001_Node000017" class="edge">
<title>Node1&#45;&gt;Node17</title>
<g id="a_edge20_Node000001_Node000017"><a xlink:title=" ">
<path fill="none" stroke="#63b8ff" d="M920.27,-265.91C1060.56,-263.03 1382.21,-252.74 1650,-217 1660.27,-215.63 1671.32,-213.6 1681.46,-211.51"/>
<polygon fill="#63b8ff" stroke="#63b8ff" points="920.01,-262.42 910.08,-266.11 920.15,-269.41 920.01,-262.42"/>
</a>
</g>
</g>
<!-- Node3 -->
<g id="Node000003" class="node">
<title>Node3</title>
<g id="a_Node000003"><a xlink:href="qpalm_8cpp.html" target="_top" xlink:title=" ">
<polygon fill="white" stroke="#666666" points="278,-96 156,-96 156,-66 278,-66 278,-96"/>
<text text-anchor="start" x="164" y="-84" font-family="Helvetica,sans-Serif" font-size="10.00">QPALM/interfaces/cxx</text>
<text text-anchor="middle" x="217" y="-73" font-family="Helvetica,sans-Serif" font-size="10.00">/src/qpalm.cpp</text>
</a>
</g>
</g>
<!-- Node2&#45;&gt;Node3 -->
<g id="edge2_Node000002_Node000003" class="edge">
<title>Node2&#45;&gt;Node3</title>
<g id="a_edge2_Node000002_Node000003"><a xlink:title=" ">
<path fill="none" stroke="#63b8ff" d="M217,-121.65C217,-113.36 217,-103.78 217,-96.11"/>
<polygon fill="#63b8ff" stroke="#63b8ff" points="213.5,-121.87 217,-131.87 220.5,-121.87 213.5,-121.87"/>
</a>
</g>
</g>
<!-- Node4 -->
<g id="Node000004" class="node">
<title>Node4</title>
<g id="a_Node000004"><a xlink:href="qpalm__fortran_8h.html" target="_top" xlink:title=" ">
<polygon fill="white" stroke="#666666" points="138,-96 0,-96 0,-66 138,-66 138,-96"/>
<text text-anchor="start" x="8" y="-84" font-family="Helvetica,sans-Serif" font-size="10.00">QPALM/interfaces/fortran</text>
<text text-anchor="middle" x="69" y="-73" font-family="Helvetica,sans-Serif" font-size="10.00">/qpalm_fortran.h</text>
</a>
</g>
</g>
<!-- Node2&#45;&gt;Node4 -->
<g id="edge3_Node000002_Node000004" class="edge">
<title>Node2&#45;&gt;Node4</title>
<g id="a_edge3_Node000002_Node000004"><a xlink:title=" ">
<path fill="none" stroke="#63b8ff" d="M185.9,-128.21C162.14,-118.82 129.38,-105.87 104.58,-96.06"/>
<polygon fill="#63b8ff" stroke="#63b8ff" points="184.89,-131.57 195.48,-131.99 187.47,-125.06 184.89,-131.57"/>
</a>
</g>
</g>
<!-- Node2&#45;&gt;Node6 -->
<g id="edge5_Node000002_Node000006" class="edge">
<title>Node2&#45;&gt;Node6</title>
<g id="a_edge5_Node000002_Node000006"><a xlink:title=" ">
<path fill="none" stroke="#63b8ff" d="M245.79,-127.93C271.66,-116.64 308.95,-100.36 331.49,-90.52"/>
<polygon fill="#63b8ff" stroke="#63b8ff" points="244.25,-124.78 236.48,-131.99 247.05,-131.2 244.25,-124.78"/>
</a>
</g>
</g>
<!-- Node5 -->
<g id="Node000005" class="node">
<title>Node5</title>
<g id="a_Node000005"><a xlink:href="qpalm__fortran_8c.html" target="_top" xlink:title=" ">
<polygon fill="white" stroke="#666666" points="138,-30 0,-30 0,0 138,0 138,-30"/>
<text text-anchor="start" x="8" y="-18" font-family="Helvetica,sans-Serif" font-size="10.00">QPALM/interfaces/fortran</text>
<text text-anchor="middle" x="69" y="-7" font-family="Helvetica,sans-Serif" font-size="10.00">/qpalm_fortran.c</text>
</a>
</g>
</g>
<!-- Node4&#45;&gt;Node5 -->
<g id="edge4_Node000004_Node000005" class="edge">
<title>Node4&#45;&gt;Node5</title>
<g id="a_edge4_Node000004_Node000005"><a xlink:title=" ">
<path fill="none" stroke="#63b8ff" d="M69,-55.54C69,-46.96 69,-37.61 69,-30.16"/>
<polygon fill="#63b8ff" stroke="#63b8ff" points="65.5,-55.8 69,-65.8 72.5,-55.8 65.5,-55.8"/>
</a>
</g>
</g>
<!-- Node7&#45;&gt;Node2 -->
<g id="edge7_Node000007_Node000002" class="edge">
<title>Node7&#45;&gt;Node2</title>
<g id="a_edge7_Node000007_Node000002"><a xlink:title=" ">
<path fill="none" stroke="#63b8ff" d="M346.44,-183.88C312.71,-173.09 270.61,-159.64 243.76,-151.05"/>
<polygon fill="#63b8ff" stroke="#63b8ff" points="345.58,-187.28 356.17,-186.99 347.71,-180.61 345.58,-187.28"/>
</a>
</g>
</g>
<!-- Node7&#45;&gt;Node6 -->
<g id="edge8_Node000007_Node000006" class="edge">
<title>Node7&#45;&gt;Node6</title>
<g id="a_edge8_Node000007_Node000006"><a xlink:title=" ">
<path fill="none" stroke="#63b8ff" d="M390.33,-177.51C379.36,-150.86 362.03,-108.78 354.59,-90.71"/>
<polygon fill="#63b8ff" stroke="#63b8ff" points="387.14,-178.97 394.19,-186.88 393.62,-176.3 387.14,-178.97"/>
</a>
</g>
</g>
<!-- Node7&#45;&gt;Node8 -->
<g id="edge9_Node000007_Node000008" class="edge">
<title>Node7&#45;&gt;Node8</title>
<g id="a_edge9_Node000007_Node000008"><a xlink:title=" ">
<path fill="none" stroke="#63b8ff" d="M429.65,-181.06C444.84,-170.85 462.54,-158.95 474.22,-151.09"/>
<polygon fill="#63b8ff" stroke="#63b8ff" points="427.41,-178.35 421.06,-186.84 431.31,-184.16 427.41,-178.35"/>
</a>
</g>
</g>
</g>
</svg>
