<?xml version="1.0" encoding="UTF-8" standalone="no"?>
<!DOCTYPE svg PUBLIC "-//W3C//DTD SVG 1.1//EN"
 "http://www.w3.org/Graphics/SVG/1.1/DTD/svg11.dtd">
<!-- Generated by graphviz version 2.43.0 (0)
 -->
<!-- Title: qpalm::ladel_sparse_create Pages: 1 -->
<svg width="458pt" height="64pt"
 viewBox="0.00 0.00 458.00 64.00" xmlns="http://www.w3.org/2000/svg" xmlns:xlink="http://www.w3.org/1999/xlink">
<g id="graph0" class="graph" transform="scale(1 1) rotate(0) translate(4 60)">
<title>qpalm::ladel_sparse_create</title>
<!-- Node1 -->
<g id="Node000001" class="node">
<title>Node1</title>
<g id="a_Node000001"><a xlink:title="Create an LADEL sparse matrix of the given dimensions.">
<polygon fill="#999999" stroke="#666666" points="450,-42.5 335,-42.5 335,-12.5 450,-12.5 450,-42.5"/>
<text text-anchor="start" x="343" y="-30.5" font-family="Helvetica,sans-Serif" font-size="10.00">qpalm::ladel_sparse</text>
<text text-anchor="middle" x="392.5" y="-19.5" font-family="Helvetica,sans-Serif" font-size="10.00">_create</text>
</a>
</g>
</g>
<!-- Node2 -->
<g id="Node000002" class="node">
<title>Node2</title>
<g id="a_Node000002"><a xlink:href="namespaceqpalm.html#a3d5e72fb72bc31ac1861fcdcaec3a9de" target="_top" xlink:title="Similar to eigen_to_ladel, but creates a copy of all data, in such a way that the returned matrix is ...">
<polygon fill="white" stroke="#666666" points="299,-37 146,-37 146,-18 299,-18 299,-37"/>
<text text-anchor="middle" x="222.5" y="-25" font-family="Helvetica,sans-Serif" font-size="10.00">qpalm::eigen_to_ladel_copy</text>
</a>
</g>
</g>
<!-- Node1&#45;&gt;Node2 -->
<g id="edge1_Node000001_Node000002" class="edge">
<title>Node1&#45;&gt;Node2</title>
<g id="a_edge1_Node000001_Node000002"><a xlink:title=" ">
<path fill="none" stroke="#63b8ff" d="M324.55,-27.5C316.18,-27.5 307.57,-27.5 299.08,-27.5"/>
<polygon fill="#63b8ff" stroke="#63b8ff" points="324.62,-31 334.62,-27.5 324.62,-24 324.62,-31"/>
</a>
</g>
</g>
<!-- Node3 -->
<g id="Node000003" class="node">
<title>Node3</title>
<g id="a_Node000003"><a xlink:href="classqpalm_1_1Data.html#a1b5c05b8c1aaf0980415fcbf0f1ecac2" target="_top" xlink:title="Set the sparse A matrix. Creates a copy.">
<polygon fill="white" stroke="#666666" points="110,-56 0,-56 0,-37 110,-37 110,-56"/>
<text text-anchor="middle" x="55" y="-44" font-family="Helvetica,sans-Serif" font-size="10.00">qpalm::Data::set_A</text>
</a>
</g>
</g>
<!-- Node2&#45;&gt;Node3 -->
<g id="edge2_Node000002_Node000003" class="edge">
<title>Node2&#45;&gt;Node3</title>
<g id="a_edge2_Node000002_Node000003"><a xlink:title=" ">
<path fill="none" stroke="#63b8ff" d="M135.47,-37.38C126.9,-38.36 118.38,-39.34 110.27,-40.27"/>
<polygon fill="#63b8ff" stroke="#63b8ff" points="136,-40.84 145.53,-36.22 135.2,-33.88 136,-40.84"/>
</a>
</g>
</g>
<!-- Node4 -->
<g id="Node000004" class="node">
<title>Node4</title>
<g id="a_Node000004"><a xlink:href="classqpalm_1_1Data.html#abc2d3d30a0663dce709a7342fc366251" target="_top" xlink:title="Set the sparse Q matrix. Creates a copy.">
<polygon fill="white" stroke="#666666" points="110,-19 0,-19 0,0 110,0 110,-19"/>
<text text-anchor="middle" x="55" y="-7" font-family="Helvetica,sans-Serif" font-size="10.00">qpalm::Data::set_Q</text>
</a>
</g>
</g>
<!-- Node2&#45;&gt;Node4 -->
<g id="edge3_Node000002_Node000004" class="edge">
<title>Node2&#45;&gt;Node4</title>
<g id="a_edge3_Node000002_Node000004"><a xlink:title=" ">
<path fill="none" stroke="#63b8ff" d="M135.47,-18.14C126.9,-17.21 118.38,-16.28 110.27,-15.4"/>
<polygon fill="#63b8ff" stroke="#63b8ff" points="135.21,-21.64 145.53,-19.24 135.97,-14.68 135.21,-21.64"/>
</a>
</g>
</g>
</g>
</svg>
