<?xml version="1.0" encoding="UTF-8" standalone="no"?>
<!DOCTYPE svg PUBLIC "-//W3C//DTD SVG 1.1//EN"
 "http://www.w3.org/Graphics/SVG/1.1/DTD/svg11.dtd">
<!-- Generated by graphviz version 2.43.0 (0)
 -->
<!-- Title: QPALM/src/newton.c Pages: 1 -->
<svg width="305pt" height="302pt"
 viewBox="0.00 0.00 304.57 302.00" xmlns="http://www.w3.org/2000/svg" xmlns:xlink="http://www.w3.org/1999/xlink">

<svg id="main" version="1.1" xmlns="http://www.w3.org/2000/svg" xmlns:xlink="http://www.w3.org/1999/xlink" xml:space="preserve" onload="init(evt)">
<style type="text/css"><![CDATA[
.node, .edge {opacity: 0.7;}
.node.selected, .edge.selected {opacity: 1;}
.edge:hover path { stroke: red; }
.edge:hover polygon { stroke: red; fill: red; }
]]></style>
<script type="application/ecmascript" xlink:href="svg.min.js"/>
<svg id="graph" class="graph">
<g id="graph0" class="graph" transform="scale(1 1) rotate(0) translate(4 298)">
<title>QPALM/src/newton.c</title>
<!-- Node1 -->
<g id="Node000001" class="node">
<title>Node1</title>
<g id="a_Node000001"><a xlink:title="Functions to calculate the semismooth Newton direction.">
<polygon fill="#999999" stroke="#666666" points="181,-294 66,-294 66,-275 181,-275 181,-294"/>
<text text-anchor="middle" x="123.5" y="-282" font-family="Helvetica,sans-Serif" font-size="10.00">QPALM/src/newton.c</text>
</a>
</g>
</g>
<!-- Node2 -->
<g id="Node000002" class="node">
<title>Node2</title>
<g id="a_Node000002"><a xlink:href="newton_8h.html" target="_top" xlink:title="Functions to calculate the semismooth Newton direction.">
<polygon fill="white" stroke="#666666" points="95,-184 0,-184 0,-165 95,-165 95,-184"/>
<text text-anchor="middle" x="47.5" y="-172" font-family="Helvetica,sans-Serif" font-size="10.00">qpalm/newton.h</text>
</a>
</g>
</g>
<!-- Node1&#45;&gt;Node2 -->
<g id="edge1_Node000001_Node000002" class="edge">
<title>Node1&#45;&gt;Node2</title>
<g id="a_edge1_Node000001_Node000002"><a xlink:title=" ">
<path fill="none" stroke="#63b8ff" d="M108.41,-274.72C96.06,-266.83 78.98,-254.15 68.5,-239 59.21,-225.57 53.79,-207.73 50.79,-194.38"/>
<polygon fill="#63b8ff" stroke="#63b8ff" points="54.19,-193.55 48.81,-184.42 47.33,-194.91 54.19,-193.55"/>
</a>
</g>
</g>
<!-- Node7 -->
<g id="Node000007" class="node">
<title>Node7</title>
<g id="a_Node000007"><a xlink:href="lin__alg_8h.html" target="_top" xlink:title="Linear algebra with vectors.">
<polygon fill="white" stroke="#666666" points="169.5,-239 77.5,-239 77.5,-220 169.5,-220 169.5,-239"/>
<text text-anchor="middle" x="123.5" y="-227" font-family="Helvetica,sans-Serif" font-size="10.00">qpalm/lin_alg.h</text>
</a>
</g>
</g>
<!-- Node1&#45;&gt;Node7 -->
<g id="edge7_Node000001_Node000007" class="edge">
<title>Node1&#45;&gt;Node7</title>
<g id="a_edge7_Node000001_Node000007"><a xlink:title=" ">
<path fill="none" stroke="#63b8ff" d="M123.5,-274.75C123.5,-267.8 123.5,-257.85 123.5,-249.13"/>
<polygon fill="#63b8ff" stroke="#63b8ff" points="127,-249.09 123.5,-239.09 120,-249.09 127,-249.09"/>
</a>
</g>
</g>
<!-- Node10 -->
<g id="Node000010" class="node">
<title>Node10</title>
<g id="a_Node000010"><a xlink:title=" ">
<polygon fill="#e0e0e0" stroke="#999999" points="237.5,-239 187.5,-239 187.5,-220 237.5,-220 237.5,-239"/>
<text text-anchor="middle" x="212.5" y="-227" font-family="Helvetica,sans-Serif" font-size="10.00">stdio.h</text>
</a>
</g>
</g>
<!-- Node1&#45;&gt;Node10 -->
<g id="edge15_Node000001_Node000010" class="edge">
<title>Node1&#45;&gt;Node10</title>
<g id="a_edge15_Node000001_Node000010"><a xlink:title=" ">
<path fill="none" stroke="#63b8ff" d="M137.8,-274.98C151.6,-266.77 172.74,-254.18 189.01,-244.49"/>
<polygon fill="#63b8ff" stroke="#63b8ff" points="191.14,-247.29 197.94,-239.17 187.56,-241.28 191.14,-247.29"/>
</a>
</g>
</g>
<!-- Node3 -->
<g id="Node000003" class="node">
<title>Node3</title>
<g id="a_Node000003"><a xlink:href="types_8h.html" target="_top" xlink:title="Internal data structures used in QPALM.">
<polygon fill="white" stroke="#666666" points="160.5,-129 74.5,-129 74.5,-110 160.5,-110 160.5,-129"/>
<text text-anchor="middle" x="117.5" y="-117" font-family="Helvetica,sans-Serif" font-size="10.00">qpalm/types.h</text>
</a>
</g>
</g>
<!-- Node2&#45;&gt;Node3 -->
<g id="edge2_Node000002_Node000003" class="edge">
<title>Node2&#45;&gt;Node3</title>
<g id="a_edge2_Node000002_Node000003"><a xlink:title=" ">
<path fill="none" stroke="#63b8ff" d="M58.75,-164.98C69.3,-157 85.3,-144.88 97.94,-135.31"/>
<polygon fill="#63b8ff" stroke="#63b8ff" points="100.19,-138 106.05,-129.17 95.96,-132.42 100.19,-138"/>
</a>
</g>
</g>
<!-- Node4 -->
<g id="Node000004" class="node">
<title>Node4</title>
<g id="a_Node000004"><a xlink:href="global__opts_8h.html" target="_top" xlink:title="Custom memory allocation, print and utility functions, and data types for floats and ints.">
<polygon fill="white" stroke="#666666" points="116.5,-74 0.5,-74 0.5,-55 116.5,-55 116.5,-74"/>
<text text-anchor="middle" x="58.5" y="-62" font-family="Helvetica,sans-Serif" font-size="10.00">qpalm/global_opts.h</text>
</a>
</g>
</g>
<!-- Node3&#45;&gt;Node4 -->
<g id="edge3_Node000003_Node000004" class="edge">
<title>Node3&#45;&gt;Node4</title>
<g id="a_edge3_Node000003_Node000004"><a xlink:title=" ">
<path fill="none" stroke="#63b8ff" d="M108.02,-109.98C99.3,-102.15 86.16,-90.34 75.6,-80.86"/>
<polygon fill="#63b8ff" stroke="#63b8ff" points="77.93,-78.25 68.15,-74.17 73.25,-83.46 77.93,-78.25"/>
</a>
</g>
</g>
<!-- Node5 -->
<g id="Node000005" class="node">
<title>Node5</title>
<g id="a_Node000005"><a xlink:title=" ">
<polygon fill="#e0e0e0" stroke="#999999" points="210.5,-19 160.5,-19 160.5,0 210.5,0 210.5,-19"/>
<text text-anchor="middle" x="185.5" y="-7" font-family="Helvetica,sans-Serif" font-size="10.00">ladel.h</text>
</a>
</g>
</g>
<!-- Node3&#45;&gt;Node5 -->
<g id="edge6_Node000003_Node000005" class="edge">
<title>Node3&#45;&gt;Node5</title>
<g id="a_edge6_Node000003_Node000005"><a xlink:title=" ">
<path fill="none" stroke="#63b8ff" d="M123.06,-109.66C134.33,-91.77 160,-51 174.67,-27.69"/>
<polygon fill="#63b8ff" stroke="#63b8ff" points="177.68,-29.49 180.05,-19.16 171.76,-25.76 177.68,-29.49"/>
</a>
</g>
</g>
<!-- Node4&#45;&gt;Node5 -->
<g id="edge4_Node000004_Node000005" class="edge">
<title>Node4&#45;&gt;Node5</title>
<g id="a_edge4_Node000004_Node000005"><a xlink:title=" ">
<path fill="none" stroke="#63b8ff" d="M78.9,-54.98C99.52,-46.38 131.61,-32.99 155.19,-23.15"/>
<polygon fill="#63b8ff" stroke="#63b8ff" points="156.84,-26.25 164.72,-19.17 154.15,-19.79 156.84,-26.25"/>
</a>
</g>
</g>
<!-- Node6 -->
<g id="Node000006" class="node">
<title>Node6</title>
<g id="a_Node000006"><a xlink:title=" ">
<polygon fill="#e0e0e0" stroke="#999999" points="84,-19 33,-19 33,0 84,0 84,-19"/>
<text text-anchor="middle" x="58.5" y="-7" font-family="Helvetica,sans-Serif" font-size="10.00">math.h</text>
</a>
</g>
</g>
<!-- Node4&#45;&gt;Node6 -->
<g id="edge5_Node000004_Node000006" class="edge">
<title>Node4&#45;&gt;Node6</title>
<g id="a_edge5_Node000004_Node000006"><a xlink:title=" ">
<path fill="none" stroke="#63b8ff" d="M58.5,-54.75C58.5,-47.8 58.5,-37.85 58.5,-29.13"/>
<polygon fill="#63b8ff" stroke="#63b8ff" points="62,-29.09 58.5,-19.09 55,-29.09 62,-29.09"/>
</a>
</g>
</g>
<!-- Node7&#45;&gt;Node3 -->
<g id="edge8_Node000007_Node000003" class="edge">
<title>Node7&#45;&gt;Node3</title>
<g id="a_edge8_Node000007_Node000003"><a xlink:title=" ">
<path fill="none" stroke="#63b8ff" d="M123.01,-219.66C122.04,-202.17 119.85,-162.8 118.54,-139.27"/>
<polygon fill="#63b8ff" stroke="#63b8ff" points="122.03,-138.95 117.98,-129.16 115.04,-139.34 122.03,-138.95"/>
</a>
</g>
</g>
<!-- Node8 -->
<g id="Node000008" class="node">
<title>Node8</title>
<g id="a_Node000008"><a xlink:href="solver__interface_8h.html" target="_top" xlink:title="Interface and wrapper to matrix/factorization (ladel) functions.">
<polygon fill="white" stroke="#666666" points="289.5,-184 151.5,-184 151.5,-165 289.5,-165 289.5,-184"/>
<text text-anchor="middle" x="220.5" y="-172" font-family="Helvetica,sans-Serif" font-size="10.00">qpalm/solver_interface.h</text>
</a>
</g>
</g>
<!-- Node7&#45;&gt;Node8 -->
<g id="edge9_Node000007_Node000008" class="edge">
<title>Node7&#45;&gt;Node8</title>
<g id="a_edge9_Node000007_Node000008"><a xlink:title=" ">
<path fill="none" stroke="#63b8ff" d="M139.08,-219.98C154.27,-211.69 177.6,-198.94 195.4,-189.22"/>
<polygon fill="#63b8ff" stroke="#63b8ff" points="197.53,-192.04 204.63,-184.17 194.18,-185.89 197.53,-192.04"/>
</a>
</g>
</g>
<!-- Node8&#45;&gt;Node3 -->
<g id="edge13_Node000008_Node000003" class="edge">
<title>Node8&#45;&gt;Node3</title>
<g id="a_edge13_Node000008_Node000003"><a xlink:title=" ">
<path fill="none" stroke="#63b8ff" d="M203.95,-164.98C187.61,-156.57 162.37,-143.59 143.37,-133.81"/>
<polygon fill="#63b8ff" stroke="#63b8ff" points="144.84,-130.63 134.35,-129.17 141.64,-136.86 144.84,-130.63"/>
</a>
</g>
</g>
<!-- Node8&#45;&gt;Node4 -->
<g id="edge10_Node000008_Node000004" class="edge">
<title>Node8&#45;&gt;Node4</title>
<g id="a_edge10_Node000008_Node000004"><a xlink:title=" ">
<path fill="none" stroke="#63b8ff" d="M215.63,-164.93C207.61,-151.52 190.4,-125.49 169.5,-110 149.32,-95.05 123.43,-84.29 101.72,-77.1"/>
<polygon fill="#63b8ff" stroke="#63b8ff" points="102.67,-73.73 92.08,-74.05 100.56,-80.4 102.67,-73.73"/>
</a>
</g>
</g>
<!-- Node8&#45;&gt;Node5 -->
<g id="edge14_Node000008_Node000005" class="edge">
<title>Node8&#45;&gt;Node5</title>
<g id="a_edge14_Node000008_Node000005"><a xlink:title=" ">
<path fill="none" stroke="#63b8ff" d="M232.34,-164.97C258.29,-145.21 315.85,-94.94 289.5,-55 274.33,-32.01 244.57,-20.85 220.76,-15.47"/>
<polygon fill="#63b8ff" stroke="#63b8ff" points="221.14,-11.97 210.64,-13.43 219.76,-18.83 221.14,-11.97"/>
</a>
</g>
</g>
<!-- Node9 -->
<g id="Node000009" class="node">
<title>Node9</title>
<g id="a_Node000009"><a xlink:href="constants_8h.html" target="_top" xlink:title="Constants used in QPALM.">
<polygon fill="white" stroke="#666666" points="280,-74 173,-74 173,-55 280,-55 280,-74"/>
<text text-anchor="middle" x="226.5" y="-62" font-family="Helvetica,sans-Serif" font-size="10.00">qpalm/constants.h</text>
</a>
</g>
</g>
<!-- Node8&#45;&gt;Node9 -->
<g id="edge11_Node000008_Node000009" class="edge">
<title>Node8&#45;&gt;Node9</title>
<g id="a_edge11_Node000008_Node000009"><a xlink:title=" ">
<path fill="none" stroke="#63b8ff" d="M220.99,-164.66C221.96,-147.17 224.15,-107.8 225.46,-84.27"/>
<polygon fill="#63b8ff" stroke="#63b8ff" points="228.96,-84.34 226.02,-74.16 221.97,-83.95 228.96,-84.34"/>
</a>
</g>
</g>
<!-- Node9&#45;&gt;Node5 -->
<g id="edge12_Node000009_Node000005" class="edge">
<title>Node9&#45;&gt;Node5</title>
<g id="a_edge12_Node000009_Node000005"><a xlink:title=" ">
<path fill="none" stroke="#63b8ff" d="M219.73,-54.75C213.94,-47.26 205.44,-36.28 198.36,-27.13"/>
<polygon fill="#63b8ff" stroke="#63b8ff" points="201.03,-24.86 192.14,-19.09 195.49,-29.14 201.03,-24.86"/>
</a>
</g>
</g>
</g>
</svg>
</svg>

<style type='text/css'>
<![CDATA[
[data-mouse-over-selected='false'] { opacity: 0.7; }
[data-mouse-over-selected='true']  { opacity: 1.0; }
]]>
</style>
<script type="application/ecmascript"><![CDATA[
document.addEventListener('DOMContentLoaded', (event) => {
  highlightEdges();
  highlightAdjacentNodes();
});
]]></script>
</svg>
