<?xml version="1.0" encoding="UTF-8" standalone="no"?>
<!DOCTYPE svg PUBLIC "-//W3C//DTD SVG 1.1//EN"
 "http://www.w3.org/Graphics/SVG/1.1/DTD/svg11.dtd">
<!-- Generated by graphviz version 2.43.0 (0)
 -->
<!-- Title: QPALM/interfaces/cxx/src/qpalm.cpp Pages: 1 -->
<!--zoomable 423 -->

<svg id="main" version="1.1" xmlns="http://www.w3.org/2000/svg" xmlns:xlink="http://www.w3.org/1999/xlink" xml:space="preserve" onload="init(evt)">
<style type="text/css"><![CDATA[
.node, .edge {opacity: 0.7;}
.node.selected, .edge.selected {opacity: 1;}
.edge:hover path { stroke: red; }
.edge:hover polygon { stroke: red; fill: red; }
]]></style>

<defs>
  <circle id="rim" cx="0" cy="0" r="7"/>
  <circle id="rim2" cx="0" cy="0" r="3.5"/>
  <g id="zoomPlus">
    <use xlink:href="#rim" fill="#404040"><set attributeName="fill" to="#808080" begin="zoomplus.mouseover" end="zoomplus.mouseout"/></use>
    <path d="M-4,0h8M0,-4v8" fill="none" stroke="white" stroke-width="1.5" pointer-events="none"/>
  </g>
  <g id="zoomMin">
    <use xlink:href="#rim" fill="#404040"><set attributeName="fill" to="#808080" begin="zoomminus.mouseover" end="zoomminus.mouseout"/></use>
    <path d="M-4,0h8" fill="none" stroke="white" stroke-width="1.5" pointer-events="none"/>
  </g>
  <g id="arrowUp" transform="translate(30 24)">
    <use xlink:href="#rim"/>
    <path pointer-events="none" fill="none" stroke="white" stroke-width="1.5" d="M0,-3.0v7 M-2.5,-0.5L0,-3.0L2.5,-0.5"/>
  </g>
  <g id="arrowRight" transform="rotate(90) translate(36 -43)">
    <use xlink:href="#rim"/>
    <path pointer-events="none" fill="none" stroke="white" stroke-width="1.5" d="M0,-3.0v7 M-2.5,-0.5L0,-3.0L2.5,-0.5"/>
  </g>
  <g id="arrowDown" transform="rotate(180) translate(-30 -48)">
    <use xlink:href="#rim"/>
    <path pointer-events="none" fill="none" stroke="white" stroke-width="1.5" d="M0,-3.0v7 M-2.5,-0.5L0,-3.0L2.5,-0.5"/>
  </g>
  <g id="arrowLeft" transform="rotate(270) translate(-36 17)">
    <use xlink:href="#rim"/>
    <path pointer-events="none" fill="none" stroke="white" stroke-width="1.5" d="M0,-3.0v7 M-2.5,-0.5L0,-3.0L2.5,-0.5"/>
  </g>
  <g id="resetDef">
    <use xlink:href="#rim2" fill="#404040"><set attributeName="fill" to="#808080" begin="reset.mouseover" end="reset.mouseout"/></use>
  </g>
</defs>
<script type="application/ecmascript">
var viewWidth = 1617;
var viewHeight = 423;
var sectionId = 'dynsection-0';
</script>
<script type="application/ecmascript" xlink:href="svg.min.js"/>
<svg id="graph" class="graph">
<g id="viewport">
<title>QPALM/interfaces/cxx/src/qpalm.cpp</title>
<!-- Node1 -->
<g id="Node000001" class="node">
<title>Node1</title>
<g id="a_Node000001"><a xlink:title=" ">
<polygon fill="#999999" stroke="#666666" points="1147,-415 1025,-415 1025,-385 1147,-385 1147,-415"/>
<text text-anchor="start" x="1033" y="-403" font-family="Helvetica,sans-Serif" font-size="10.00">QPALM/interfaces/cxx</text>
<text text-anchor="middle" x="1086" y="-392" font-family="Helvetica,sans-Serif" font-size="10.00">/src/qpalm.cpp</text>
</a>
</g>
</g>
<!-- Node2 -->
<g id="Node000002" class="node">
<title>Node2</title>
<g id="a_Node000002"><a xlink:href="qpalm_8hpp.html" target="_top" xlink:title=" ">
<polygon fill="white" stroke="#666666" points="675,-184 607,-184 607,-165 675,-165 675,-184"/>
<text text-anchor="middle" x="641" y="-172" font-family="Helvetica,sans-Serif" font-size="10.00">qpalm.hpp</text>
</a>
</g>
</g>
<!-- Node1&#45;&gt;Node2 -->
<g id="edge1_Node000001_Node000002" class="edge">
<title>Node1&#45;&gt;Node2</title>
<g id="a_edge1_Node000001_Node000002"><a xlink:title=" ">
<path fill="none" stroke="#63b8ff" d="M1024.81,-390.19C924.88,-374.67 732.81,-339.71 683,-294 654.28,-267.65 645.19,-220.4 642.32,-194.23"/>
<polygon fill="#63b8ff" stroke="#63b8ff" points="645.79,-193.78 641.41,-184.13 638.82,-194.41 645.79,-193.78"/>
</a>
</g>
</g>
<!-- Node17 -->
<g id="Node000017" class="node">
<title>Node17</title>
<g id="a_Node000017"><a xlink:href="qpalm_8h.html" target="_top" xlink:title="QPALM main solver API.">
<polygon fill="white" stroke="#666666" points="1114,-349 1058,-349 1058,-330 1114,-330 1114,-349"/>
<text text-anchor="middle" x="1086" y="-337" font-family="Helvetica,sans-Serif" font-size="10.00">qpalm.h</text>
</a>
</g>
</g>
<!-- Node1&#45;&gt;Node17 -->
<g id="edge18_Node000001_Node000017" class="edge">
<title>Node1&#45;&gt;Node17</title>
<g id="a_edge18_Node000001_Node000017"><a xlink:title=" ">
<path fill="none" stroke="#63b8ff" d="M1086,-384.84C1086,-377.21 1086,-367.7 1086,-359.45"/>
<polygon fill="#63b8ff" stroke="#63b8ff" points="1089.5,-359.27 1086,-349.27 1082.5,-359.27 1089.5,-359.27"/>
</a>
</g>
</g>
<!-- Node29 -->
<g id="Node000029" class="node">
<title>Node29</title>
<g id="a_Node000029"><a xlink:title=" ">
<polygon fill="#e0e0e0" stroke="#999999" points="1197.5,-349 1132.5,-349 1132.5,-330 1197.5,-330 1197.5,-349"/>
<text text-anchor="middle" x="1165" y="-337" font-family="Helvetica,sans-Serif" font-size="10.00">stdexcept</text>
</a>
</g>
</g>
<!-- Node1&#45;&gt;Node29 -->
<g id="edge52_Node000001_Node000029" class="edge">
<title>Node1&#45;&gt;Node29</title>
<g id="a_edge52_Node000001_Node000029"><a xlink:title=" ">
<path fill="none" stroke="#63b8ff" d="M1105.12,-384.84C1117.18,-375.91 1132.71,-364.41 1144.94,-355.35"/>
<polygon fill="#63b8ff" stroke="#63b8ff" points="1147.21,-358.03 1153.16,-349.27 1143.04,-352.4 1147.21,-358.03"/>
</a>
</g>
</g>
<!-- Node3 -->
<g id="Node000003" class="node">
<title>Node3</title>
<g id="a_Node000003"><a xlink:href="sparse_8hpp.html" target="_top" xlink:title=" ">
<polygon fill="white" stroke="#666666" points="531,-129 427,-129 427,-110 531,-110 531,-129"/>
<text text-anchor="middle" x="479" y="-117" font-family="Helvetica,sans-Serif" font-size="10.00">qpalm/sparse.hpp</text>
</a>
</g>
</g>
<!-- Node2&#45;&gt;Node3 -->
<g id="edge2_Node000002_Node000003" class="edge">
<title>Node2&#45;&gt;Node3</title>
<g id="a_edge2_Node000002_Node000003"><a xlink:title=" ">
<path fill="none" stroke="#63b8ff" d="M614.97,-164.98C587.89,-156.13 545.29,-142.19 514.99,-132.28"/>
<polygon fill="#63b8ff" stroke="#63b8ff" points="515.82,-128.87 505.23,-129.08 513.65,-135.52 515.82,-128.87"/>
</a>
</g>
</g>
<!-- Node14 -->
<g id="Node000014" class="node">
<title>Node14</title>
<g id="a_Node000014"><a xlink:href="types_8h.html" target="_top" xlink:title="Internal data structures used in QPALM.">
<polygon fill="white" stroke="#666666" points="1118,-129 1032,-129 1032,-110 1118,-110 1118,-129"/>
<text text-anchor="middle" x="1075" y="-117" font-family="Helvetica,sans-Serif" font-size="10.00">qpalm/types.h</text>
</a>
</g>
</g>
<!-- Node2&#45;&gt;Node14 -->
<g id="edge13_Node000002_Node000014" class="edge">
<title>Node2&#45;&gt;Node14</title>
<g id="a_edge13_Node000002_Node000014"><a xlink:title=" ">
<path fill="none" stroke="#63b8ff" d="M675.06,-169.34C750.38,-160.14 931.6,-138.01 1021.94,-126.98"/>
<polygon fill="#63b8ff" stroke="#63b8ff" points="1022.47,-130.44 1031.97,-125.76 1021.62,-123.49 1022.47,-130.44"/>
</a>
</g>
</g>
<!-- Node15 -->
<g id="Node000015" class="node">
<title>Node15</title>
<g id="a_Node000015"><a xlink:title=" ">
<polygon fill="#e0e0e0" stroke="#999999" points="601,-129 549,-129 549,-110 601,-110 601,-129"/>
<text text-anchor="middle" x="575" y="-117" font-family="Helvetica,sans-Serif" font-size="10.00">cassert</text>
</a>
</g>
</g>
<!-- Node2&#45;&gt;Node15 -->
<g id="edge16_Node000002_Node000015" class="edge">
<title>Node2&#45;&gt;Node15</title>
<g id="a_edge16_Node000002_Node000015"><a xlink:title=" ">
<path fill="none" stroke="#63b8ff" d="M630.4,-164.98C620.54,-157.07 605.65,-145.11 593.78,-135.58"/>
<polygon fill="#63b8ff" stroke="#63b8ff" points="595.79,-132.7 585.8,-129.17 591.4,-138.16 595.79,-132.7"/>
</a>
</g>
</g>
<!-- Node16 -->
<g id="Node000016" class="node">
<title>Node16</title>
<g id="a_Node000016"><a xlink:title=" ">
<polygon fill="#e0e0e0" stroke="#999999" points="675,-129 619,-129 619,-110 675,-110 675,-129"/>
<text text-anchor="middle" x="647" y="-117" font-family="Helvetica,sans-Serif" font-size="10.00">optional</text>
</a>
</g>
</g>
<!-- Node2&#45;&gt;Node16 -->
<g id="edge17_Node000002_Node000016" class="edge">
<title>Node2&#45;&gt;Node16</title>
<g id="a_edge17_Node000002_Node000016"><a xlink:title=" ">
<path fill="none" stroke="#63b8ff" d="M641.99,-164.75C642.78,-157.8 643.9,-147.85 644.89,-139.13"/>
<polygon fill="#63b8ff" stroke="#63b8ff" points="648.38,-139.42 646.03,-129.09 641.42,-138.63 648.38,-139.42"/>
</a>
</g>
</g>
<!-- Node4 -->
<g id="Node000004" class="node">
<title>Node4</title>
<g id="a_Node000004"><a xlink:title=" ">
<polygon fill="#e0e0e0" stroke="#999999" points="258,-74 178,-74 178,-55 258,-55 258,-74"/>
<text text-anchor="middle" x="218" y="-62" font-family="Helvetica,sans-Serif" font-size="10.00">Eigen/Sparse</text>
</a>
</g>
</g>
<!-- Node3&#45;&gt;Node4 -->
<g id="edge3_Node000003_Node000004" class="edge">
<title>Node3&#45;&gt;Node4</title>
<g id="a_edge3_Node000003_Node000004"><a xlink:title=" ">
<path fill="none" stroke="#63b8ff" d="M437.07,-109.98C391.06,-100.64 317.24,-85.65 268.19,-75.69"/>
<polygon fill="#63b8ff" stroke="#63b8ff" points="268.61,-72.21 258.12,-73.65 267.22,-79.07 268.61,-72.21"/>
</a>
</g>
</g>
<!-- Node5 -->
<g id="Node000005" class="node">
<title>Node5</title>
<g id="a_Node000005"><a xlink:title=" ">
<polygon fill="#e0e0e0" stroke="#999999" points="395.5,-74 276.5,-74 276.5,-55 395.5,-55 395.5,-74"/>
<text text-anchor="middle" x="336" y="-62" font-family="Helvetica,sans-Serif" font-size="10.00">Eigen/src/Core/Map.h</text>
</a>
</g>
</g>
<!-- Node3&#45;&gt;Node5 -->
<g id="edge4_Node000003_Node000005" class="edge">
<title>Node3&#45;&gt;Node5</title>
<g id="a_edge4_Node000003_Node000005"><a xlink:title=" ">
<path fill="none" stroke="#63b8ff" d="M456.02,-109.98C432.5,-101.27 395.71,-87.63 369.06,-77.75"/>
<polygon fill="#63b8ff" stroke="#63b8ff" points="369.99,-74.36 359.39,-74.17 367.55,-80.93 369.99,-74.36"/>
</a>
</g>
</g>
<!-- Node6 -->
<g id="Node000006" class="node">
<title>Node6</title>
<g id="a_Node000006"><a xlink:title=" ">
<polygon fill="#e0e0e0" stroke="#999999" points="544,-74 414,-74 414,-55 544,-55 544,-74"/>
<text text-anchor="middle" x="479" y="-62" font-family="Helvetica,sans-Serif" font-size="10.00">Eigen/src/Core/Matrix.h</text>
</a>
</g>
</g>
<!-- Node3&#45;&gt;Node6 -->
<g id="edge5_Node000003_Node000006" class="edge">
<title>Node3&#45;&gt;Node6</title>
<g id="a_edge5_Node000003_Node000006"><a xlink:title=" ">
<path fill="none" stroke="#63b8ff" d="M479,-109.75C479,-102.8 479,-92.85 479,-84.13"/>
<polygon fill="#63b8ff" stroke="#63b8ff" points="482.5,-84.09 479,-74.09 475.5,-84.09 482.5,-84.09"/>
</a>
</g>
</g>
<!-- Node7 -->
<g id="Node000007" class="node">
<title>Node7</title>
<g id="a_Node000007"><a xlink:title=" ">
<polygon fill="#e0e0e0" stroke="#999999" points="664,-74 562,-74 562,-55 664,-55 664,-74"/>
<text text-anchor="middle" x="613" y="-62" font-family="Helvetica,sans-Serif" font-size="10.00">ladel_constants.h</text>
</a>
</g>
</g>
<!-- Node3&#45;&gt;Node7 -->
<g id="edge6_Node000003_Node000007" class="edge">
<title>Node3&#45;&gt;Node7</title>
<g id="a_edge6_Node000003_Node000007"><a xlink:title=" ">
<path fill="none" stroke="#63b8ff" d="M500.53,-109.98C522.47,-101.3 556.74,-87.75 581.69,-77.88"/>
<polygon fill="#63b8ff" stroke="#63b8ff" points="583.07,-81.1 591.08,-74.17 580.49,-74.59 583.07,-81.1"/>
</a>
</g>
</g>
<!-- Node8 -->
<g id="Node000008" class="node">
<title>Node8</title>
<g id="a_Node000008"><a xlink:title=" ">
<polygon fill="#e0e0e0" stroke="#999999" points="764,-74 682,-74 682,-55 764,-55 764,-74"/>
<text text-anchor="middle" x="723" y="-62" font-family="Helvetica,sans-Serif" font-size="10.00">ladel_types.h</text>
</a>
</g>
</g>
<!-- Node3&#45;&gt;Node8 -->
<g id="edge7_Node000003_Node000008" class="edge">
<title>Node3&#45;&gt;Node8</title>
<g id="a_edge7_Node000003_Node000008"><a xlink:title=" ">
<path fill="none" stroke="#63b8ff" d="M518.2,-109.98C560.41,-100.82 627.65,-86.21 673.48,-76.26"/>
<polygon fill="#63b8ff" stroke="#63b8ff" points="674.46,-79.63 683.49,-74.08 672.97,-72.78 674.46,-79.63"/>
</a>
</g>
</g>
<!-- Node9 -->
<g id="Node000009" class="node">
<title>Node9</title>
<g id="a_Node000009"><a xlink:href="global__opts_8h.html" target="_top" xlink:title="Custom memory allocation, print and utility functions, and data types for floats and ints.">
<polygon fill="white" stroke="#666666" points="1111,-74 995,-74 995,-55 1111,-55 1111,-74"/>
<text text-anchor="middle" x="1053" y="-62" font-family="Helvetica,sans-Serif" font-size="10.00">qpalm/global_opts.h</text>
</a>
</g>
</g>
<!-- Node3&#45;&gt;Node9 -->
<g id="edge8_Node000003_Node000009" class="edge">
<title>Node3&#45;&gt;Node9</title>
<g id="a_edge8_Node000003_Node000009"><a xlink:title=" ">
<path fill="none" stroke="#63b8ff" d="M531.22,-111.04C534.19,-110.67 537.13,-110.32 540,-110 698.94,-92.05 886.29,-77.45 984.71,-70.29"/>
<polygon fill="#63b8ff" stroke="#63b8ff" points="985.1,-73.77 994.82,-69.56 984.59,-66.79 985.1,-73.77"/>
</a>
</g>
</g>
<!-- Node12 -->
<g id="Node000012" class="node">
<title>Node12</title>
<g id="a_Node000012"><a xlink:title=" ">
<polygon fill="#e0e0e0" stroke="#999999" points="840,-74 782,-74 782,-55 840,-55 840,-74"/>
<text text-anchor="middle" x="811" y="-62" font-family="Helvetica,sans-Serif" font-size="10.00">memory</text>
</a>
</g>
</g>
<!-- Node3&#45;&gt;Node12 -->
<g id="edge11_Node000003_Node000012" class="edge">
<title>Node3&#45;&gt;Node12</title>
<g id="a_edge11_Node000003_Node000012"><a xlink:title=" ">
<path fill="none" stroke="#63b8ff" d="M531.07,-111.07C598.59,-101.35 713.72,-84.53 772.11,-74.03"/>
<polygon fill="#63b8ff" stroke="#63b8ff" points="772.8,-77.46 782,-72.21 771.53,-70.58 772.8,-77.46"/>
</a>
</g>
</g>
<!-- Node13 -->
<g id="Node000013" class="node">
<title>Node13</title>
<g id="a_Node000013"><a xlink:title=" ">
<polygon fill="#e0e0e0" stroke="#999999" points="160,-74 0,-74 0,-55 160,-55 160,-74"/>
<text text-anchor="middle" x="80" y="-62" font-family="Helvetica,sans-Serif" font-size="10.00">qpalm/qpalm_cxx&#45;export.hpp</text>
</a>
</g>
</g>
<!-- Node3&#45;&gt;Node13 -->
<g id="edge12_Node000003_Node000013" class="edge">
<title>Node3&#45;&gt;Node13</title>
<g id="a_edge12_Node000003_Node000013"><a xlink:title=" ">
<path fill="none" stroke="#63b8ff" d="M426.84,-111.57C357.15,-102.31 233.28,-85.86 153.97,-75.33"/>
<polygon fill="#63b8ff" stroke="#63b8ff" points="154.42,-71.86 144.05,-74.01 153.5,-78.79 154.42,-71.86"/>
</a>
</g>
</g>
<!-- Node10 -->
<g id="Node000010" class="node">
<title>Node10</title>
<g id="a_Node000010"><a xlink:title=" ">
<polygon fill="#e0e0e0" stroke="#999999" points="1213,-19 1163,-19 1163,0 1213,0 1213,-19"/>
<text text-anchor="middle" x="1188" y="-7" font-family="Helvetica,sans-Serif" font-size="10.00">ladel.h</text>
</a>
</g>
</g>
<!-- Node9&#45;&gt;Node10 -->
<g id="edge9_Node000009_Node000010" class="edge">
<title>Node9&#45;&gt;Node10</title>
<g id="a_edge9_Node000009_Node000010"><a xlink:title=" ">
<path fill="none" stroke="#63b8ff" d="M1074.69,-54.98C1096.8,-46.3 1131.32,-32.75 1156.45,-22.88"/>
<polygon fill="#63b8ff" stroke="#63b8ff" points="1157.89,-26.08 1165.92,-19.17 1155.33,-19.57 1157.89,-26.08"/>
</a>
</g>
</g>
<!-- Node11 -->
<g id="Node000011" class="node">
<title>Node11</title>
<g id="a_Node000011"><a xlink:title=" ">
<polygon fill="#e0e0e0" stroke="#999999" points="1078.5,-19 1027.5,-19 1027.5,0 1078.5,0 1078.5,-19"/>
<text text-anchor="middle" x="1053" y="-7" font-family="Helvetica,sans-Serif" font-size="10.00">math.h</text>
</a>
</g>
</g>
<!-- Node9&#45;&gt;Node11 -->
<g id="edge10_Node000009_Node000011" class="edge">
<title>Node9&#45;&gt;Node11</title>
<g id="a_edge10_Node000009_Node000011"><a xlink:title=" ">
<path fill="none" stroke="#63b8ff" d="M1053,-54.75C1053,-47.8 1053,-37.85 1053,-29.13"/>
<polygon fill="#63b8ff" stroke="#63b8ff" points="1056.5,-29.09 1053,-19.09 1049.5,-29.09 1056.5,-29.09"/>
</a>
</g>
</g>
<!-- Node14&#45;&gt;Node9 -->
<g id="edge14_Node000014_Node000009" class="edge">
<title>Node14&#45;&gt;Node9</title>
<g id="a_edge14_Node000014_Node000009"><a xlink:title=" ">
<path fill="none" stroke="#63b8ff" d="M1071.37,-109.75C1068.42,-102.65 1064.17,-92.4 1060.49,-83.56"/>
<polygon fill="#63b8ff" stroke="#63b8ff" points="1063.63,-81.98 1056.57,-74.09 1057.17,-84.67 1063.63,-81.98"/>
</a>
</g>
</g>
<!-- Node14&#45;&gt;Node10 -->
<g id="edge15_Node000014_Node000010" class="edge">
<title>Node14&#45;&gt;Node10</title>
<g id="a_edge15_Node000014_Node000010"><a xlink:title=" ">
<path fill="none" stroke="#63b8ff" d="M1084.25,-109.66C1103.38,-91.38 1147.53,-49.18 1171.61,-26.17"/>
<polygon fill="#63b8ff" stroke="#63b8ff" points="1174.13,-28.6 1178.94,-19.16 1169.29,-23.54 1174.13,-28.6"/>
</a>
</g>
</g>
<!-- Node17&#45;&gt;Node9 -->
<g id="edge21_Node000017_Node000009" class="edge">
<title>Node17&#45;&gt;Node9</title>
<g id="a_edge21_Node000017_Node000009"><a xlink:title=" ">
<path fill="none" stroke="#63b8ff" d="M1057.66,-337.33C991.16,-334.11 827.33,-323.36 782,-294 757.68,-278.25 755.1,-266.82 747,-239 715.76,-131.72 885.48,-89.16 984.87,-73.61"/>
<polygon fill="#63b8ff" stroke="#63b8ff" points="985.48,-77.06 994.85,-72.1 984.44,-70.14 985.48,-77.06"/>
</a>
</g>
</g>
<!-- Node17&#45;&gt;Node14 -->
<g id="edge46_Node000017_Node000014" class="edge">
<title>Node17&#45;&gt;Node14</title>
<g id="a_edge46_Node000017_Node000014"><a xlink:title=" ">
<path fill="none" stroke="#63b8ff" d="M1092.37,-329.84C1098.26,-321.25 1106.61,-307.45 1110,-294 1117.43,-264.58 1092.56,-177.29 1080.81,-138.93"/>
<polygon fill="#63b8ff" stroke="#63b8ff" points="1084.07,-137.61 1077.76,-129.1 1077.38,-139.69 1084.07,-137.61"/>
</a>
</g>
</g>
<!-- Node18 -->
<g id="Node000018" class="node">
<title>Node18</title>
<g id="a_Node000018"><a xlink:href="constants_8h.html" target="_top" xlink:title="Constants used in QPALM.">
<polygon fill="white" stroke="#666666" points="1450.5,-129 1343.5,-129 1343.5,-110 1450.5,-110 1450.5,-129"/>
<text text-anchor="middle" x="1397" y="-117" font-family="Helvetica,sans-Serif" font-size="10.00">qpalm/constants.h</text>
</a>
</g>
</g>
<!-- Node17&#45;&gt;Node18 -->
<g id="edge19_Node000017_Node000018" class="edge">
<title>Node17&#45;&gt;Node18</title>
<g id="a_edge19_Node000017_Node000018"><a xlink:title=" ">
<path fill="none" stroke="#63b8ff" d="M1114.17,-331.94C1117.48,-331.25 1120.81,-330.58 1124,-330 1343.77,-289.85 1486.21,-373.21 1605,-184 1609.49,-176.85 1610.31,-171.57 1605,-165 1587.08,-142.85 1515.2,-131.23 1460.91,-125.5"/>
<polygon fill="#63b8ff" stroke="#63b8ff" points="1460.95,-121.99 1450.65,-124.46 1460.25,-128.95 1460.95,-121.99"/>
</a>
</g>
</g>
<!-- Node19 -->
<g id="Node000019" class="node">
<title>Node19</title>
<g id="a_Node000019"><a xlink:href="iteration_8h.html" target="_top" xlink:title="QPALM main solver routines.">
<polygon fill="white" stroke="#666666" points="913.5,-184 812.5,-184 812.5,-165 913.5,-165 913.5,-184"/>
<text text-anchor="middle" x="863" y="-172" font-family="Helvetica,sans-Serif" font-size="10.00">qpalm/iteration.h</text>
</a>
</g>
</g>
<!-- Node17&#45;&gt;Node19 -->
<g id="edge22_Node000017_Node000019" class="edge">
<title>Node17&#45;&gt;Node19</title>
<g id="a_edge22_Node000017_Node000019"><a xlink:title=" ">
<path fill="none" stroke="#63b8ff" d="M1057.68,-337.88C1008.87,-335.89 906.54,-327.67 828,-294 790.34,-277.85 772.41,-275.61 754,-239 740.57,-212.29 772.46,-196.01 805.16,-186.63"/>
<polygon fill="#63b8ff" stroke="#63b8ff" points="806.06,-190.01 814.82,-184.05 804.26,-183.25 806.06,-190.01"/>
</a>
</g>
</g>
<!-- Node20 -->
<g id="Node000020" class="node">
<title>Node20</title>
<g id="a_Node000020"><a xlink:href="lin__alg_8h.html" target="_top" xlink:title="Linear algebra with vectors.">
<polygon fill="white" stroke="#666666" points="1214,-239 1122,-239 1122,-220 1214,-220 1214,-239"/>
<text text-anchor="middle" x="1168" y="-227" font-family="Helvetica,sans-Serif" font-size="10.00">qpalm/lin_alg.h</text>
</a>
</g>
</g>
<!-- Node17&#45;&gt;Node20 -->
<g id="edge25_Node000017_Node000020" class="edge">
<title>Node17&#45;&gt;Node20</title>
<g id="a_edge25_Node000017_Node000020"><a xlink:title=" ">
<path fill="none" stroke="#63b8ff" d="M1101.18,-329.85C1113.86,-321.94 1131.66,-309.19 1143,-294 1153.08,-280.5 1159.68,-262.41 1163.55,-248.99"/>
<polygon fill="#63b8ff" stroke="#63b8ff" points="1167.01,-249.58 1166.18,-239.02 1160.24,-247.8 1167.01,-249.58"/>
</a>
</g>
</g>
<!-- Node21 -->
<g id="Node000021" class="node">
<title>Node21</title>
<g id="a_Node000021"><a xlink:href="solver__interface_8h.html" target="_top" xlink:title="Interface and wrapper to matrix/factorization (ladel) functions.">
<polygon fill="white" stroke="#666666" points="1336,-184 1198,-184 1198,-165 1336,-165 1336,-184"/>
<text text-anchor="middle" x="1267" y="-172" font-family="Helvetica,sans-Serif" font-size="10.00">qpalm/solver_interface.h</text>
</a>
</g>
</g>
<!-- Node17&#45;&gt;Node21 -->
<g id="edge43_Node000017_Node000021" class="edge">
<title>Node17&#45;&gt;Node21</title>
<g id="a_edge43_Node000017_Node000021"><a xlink:title=" ">
<path fill="none" stroke="#63b8ff" d="M1114.21,-332.14C1117.51,-331.41 1120.83,-330.68 1124,-330 1201.2,-313.38 1248.14,-355.24 1298,-294 1322.29,-264.17 1296.77,-217.33 1279.71,-192.41"/>
<polygon fill="#63b8ff" stroke="#63b8ff" points="1282.37,-190.12 1273.71,-184.02 1276.68,-194.19 1282.37,-190.12"/>
</a>
</g>
</g>
<!-- Node22 -->
<g id="Node000022" class="node">
<title>Node22</title>
<g id="a_Node000022"><a xlink:href="linesearch_8h.html" target="_top" xlink:title="Routines to perform exact linesearch.">
<polygon fill="white" stroke="#666666" points="1596,-184 1486,-184 1486,-165 1596,-165 1596,-184"/>
<text text-anchor="middle" x="1541" y="-172" font-family="Helvetica,sans-Serif" font-size="10.00">qpalm/linesearch.h</text>
</a>
</g>
</g>
<!-- Node17&#45;&gt;Node22 -->
<g id="edge32_Node000017_Node000022" class="edge">
<title>Node17&#45;&gt;Node22</title>
<g id="a_edge32_Node000017_Node000022"><a xlink:title=" ">
<path fill="none" stroke="#63b8ff" d="M1114.18,-332.01C1117.49,-331.3 1120.81,-330.62 1124,-330 1220.84,-311.23 1250.38,-327.93 1343,-294 1414.13,-267.94 1488.22,-215.72 1522.08,-190.21"/>
<polygon fill="#63b8ff" stroke="#63b8ff" points="1524.33,-192.89 1530.16,-184.05 1520.08,-187.33 1524.33,-192.89"/>
</a>
</g>
</g>
<!-- Node23 -->
<g id="Node000023" class="node">
<title>Node23</title>
<g id="a_Node000023"><a xlink:href="newton_8h.html" target="_top" xlink:title="Functions to calculate the semismooth Newton direction.">
<polygon fill="white" stroke="#666666" points="858.5,-239 763.5,-239 763.5,-220 858.5,-220 858.5,-239"/>
<text text-anchor="middle" x="811" y="-227" font-family="Helvetica,sans-Serif" font-size="10.00">qpalm/newton.h</text>
</a>
</g>
</g>
<!-- Node17&#45;&gt;Node23 -->
<g id="edge35_Node000017_Node000023" class="edge">
<title>Node17&#45;&gt;Node23</title>
<g id="a_edge35_Node000017_Node000023"><a xlink:title=" ">
<path fill="none" stroke="#63b8ff" d="M1057.89,-336.05C1002.89,-330.81 883.48,-317.06 850,-294 834.05,-283.02 823.42,-263.17 817.34,-248.58"/>
<polygon fill="#63b8ff" stroke="#63b8ff" points="820.55,-247.17 813.71,-239.08 814.01,-249.68 820.55,-247.17"/>
</a>
</g>
</g>
<!-- Node24 -->
<g id="Node000024" class="node">
<title>Node24</title>
<g id="a_Node000024"><a xlink:href="nonconvex_8h.html" target="_top" xlink:title="Routines to deal with nonconvex QPs.">
<polygon fill="white" stroke="#666666" points="989.5,-239 876.5,-239 876.5,-220 989.5,-220 989.5,-239"/>
<text text-anchor="middle" x="933" y="-227" font-family="Helvetica,sans-Serif" font-size="10.00">qpalm/nonconvex.h</text>
</a>
</g>
</g>
<!-- Node17&#45;&gt;Node24 -->
<g id="edge37_Node000017_Node000024" class="edge">
<title>Node17&#45;&gt;Node24</title>
<g id="a_edge37_Node000017_Node000024"><a xlink:title=" ">
<path fill="none" stroke="#63b8ff" d="M1057.59,-337.29C1002.2,-334.28 883,-324.35 858,-294 841.21,-273.62 872.13,-254.68 899.21,-242.88"/>
<polygon fill="#63b8ff" stroke="#63b8ff" points="900.64,-246.07 908.54,-239.01 897.96,-239.6 900.64,-246.07"/>
</a>
</g>
</g>
<!-- Node25 -->
<g id="Node000025" class="node">
<title>Node25</title>
<g id="a_Node000025"><a xlink:href="scaling_8h.html" target="_top" xlink:title="Problem data scaling during setup.">
<polygon fill="white" stroke="#666666" points="1289,-294 1195,-294 1195,-275 1289,-275 1289,-294"/>
<text text-anchor="middle" x="1242" y="-282" font-family="Helvetica,sans-Serif" font-size="10.00">qpalm/scaling.h</text>
</a>
</g>
</g>
<!-- Node17&#45;&gt;Node25 -->
<g id="edge39_Node000017_Node000025" class="edge">
<title>Node17&#45;&gt;Node25</title>
<g id="a_edge39_Node000017_Node000025"><a xlink:title=" ">
<path fill="none" stroke="#63b8ff" d="M1111.06,-329.98C1137.03,-321.16 1177.81,-307.31 1206.96,-297.41"/>
<polygon fill="#63b8ff" stroke="#63b8ff" points="1208.4,-300.61 1216.74,-294.08 1206.15,-293.99 1208.4,-300.61"/>
</a>
</g>
</g>
<!-- Node26 -->
<g id="Node000026" class="node">
<title>Node26</title>
<g id="a_Node000026"><a xlink:href="termination_8h.html" target="_top" xlink:title="Routines to check the termination and infeasibility criteria.">
<polygon fill="white" stroke="#666666" points="1101,-294 985,-294 985,-275 1101,-275 1101,-294"/>
<text text-anchor="middle" x="1043" y="-282" font-family="Helvetica,sans-Serif" font-size="10.00">qpalm/termination.h</text>
</a>
</g>
</g>
<!-- Node17&#45;&gt;Node26 -->
<g id="edge44_Node000017_Node000026" class="edge">
<title>Node17&#45;&gt;Node26</title>
<g id="a_edge44_Node000017_Node000026"><a xlink:title=" ">
<path fill="none" stroke="#63b8ff" d="M1078.9,-329.75C1072.83,-322.26 1063.91,-311.28 1056.49,-302.13"/>
<polygon fill="#63b8ff" stroke="#63b8ff" points="1058.99,-299.65 1049.97,-294.09 1053.55,-304.06 1058.99,-299.65"/>
</a>
</g>
</g>
<!-- Node27 -->
<g id="Node000027" class="node">
<title>Node27</title>
<g id="a_Node000027"><a xlink:href="util_8h.html" target="_top" xlink:title="Utility functions.">
<polygon fill="white" stroke="#666666" points="1467.5,-184 1392.5,-184 1392.5,-165 1467.5,-165 1467.5,-184"/>
<text text-anchor="middle" x="1430" y="-172" font-family="Helvetica,sans-Serif" font-size="10.00">qpalm/util.h</text>
</a>
</g>
</g>
<!-- Node17&#45;&gt;Node27 -->
<g id="edge47_Node000017_Node000027" class="edge">
<title>Node17&#45;&gt;Node27</title>
<g id="a_edge47_Node000017_Node000027"><a xlink:title=" ">
<path fill="none" stroke="#63b8ff" d="M1114.2,-332.08C1117.5,-331.36 1120.82,-330.65 1124,-330 1209.04,-312.52 1239.6,-335.25 1316,-294 1362.09,-269.12 1400.67,-219.04 1418.83,-192.65"/>
<polygon fill="#63b8ff" stroke="#63b8ff" points="1421.91,-194.35 1424.57,-184.1 1416.1,-190.45 1421.91,-194.35"/>
</a>
</g>
</g>
<!-- Node28 -->
<g id="Node000028" class="node">
<title>Node28</title>
<g id="a_Node000028"><a xlink:href="validate_8h.html" target="_top" xlink:title="Validation of the user provided settings and data.">
<polygon fill="white" stroke="#666666" points="966.5,-294 867.5,-294 867.5,-275 966.5,-275 966.5,-294"/>
<text text-anchor="middle" x="917" y="-282" font-family="Helvetica,sans-Serif" font-size="10.00">qpalm/validate.h</text>
</a>
</g>
</g>
<!-- Node17&#45;&gt;Node28 -->
<g id="edge50_Node000017_Node000028" class="edge">
<title>Node17&#45;&gt;Node28</title>
<g id="a_edge50_Node000017_Node000028"><a xlink:title=" ">
<path fill="none" stroke="#63b8ff" d="M1058.85,-329.98C1030.47,-321.09 985.77,-307.07 954.14,-297.15"/>
<polygon fill="#63b8ff" stroke="#63b8ff" points="954.95,-293.73 944.37,-294.08 952.86,-300.41 954.95,-293.73"/>
</a>
</g>
</g>
<!-- Node18&#45;&gt;Node10 -->
<g id="edge20_Node000018_Node000010" class="edge">
<title>Node18&#45;&gt;Node10</title>
<g id="a_edge20_Node000018_Node000010"><a xlink:title=" ">
<path fill="none" stroke="#63b8ff" d="M1380.25,-109.84C1343.78,-91 1256.98,-46.14 1213.6,-23.73"/>
<polygon fill="#63b8ff" stroke="#63b8ff" points="1215.03,-20.53 1204.54,-19.05 1211.82,-26.75 1215.03,-20.53"/>
</a>
</g>
</g>
<!-- Node19&#45;&gt;Node9 -->
<g id="edge24_Node000019_Node000009" class="edge">
<title>Node19&#45;&gt;Node9</title>
<g id="a_edge24_Node000019_Node000009"><a xlink:title=" ">
<path fill="none" stroke="#63b8ff" d="M878.23,-164.84C911.24,-146.08 989.63,-101.52 1029.23,-79.01"/>
<polygon fill="#63b8ff" stroke="#63b8ff" points="1031,-82.03 1037.96,-74.05 1027.54,-75.95 1031,-82.03"/>
</a>
</g>
</g>
<!-- Node19&#45;&gt;Node14 -->
<g id="edge23_Node000019_Node000014" class="edge">
<title>Node19&#45;&gt;Node14</title>
<g id="a_edge23_Node000019_Node000014"><a xlink:title=" ">
<path fill="none" stroke="#63b8ff" d="M897.06,-164.98C933.42,-155.89 991.17,-141.46 1030.97,-131.51"/>
<polygon fill="#63b8ff" stroke="#63b8ff" points="1031.82,-134.9 1040.67,-129.08 1030.12,-128.11 1031.82,-134.9"/>
</a>
</g>
</g>
<!-- Node20&#45;&gt;Node14 -->
<g id="edge26_Node000020_Node000014" class="edge">
<title>Node20&#45;&gt;Node14</title>
<g id="a_edge26_Node000020_Node000014"><a xlink:title=" ">
<path fill="none" stroke="#63b8ff" d="M1160.39,-219.66C1144.78,-201.54 1108.94,-159.91 1089.01,-136.77"/>
<polygon fill="#63b8ff" stroke="#63b8ff" points="1091.63,-134.45 1082.46,-129.16 1086.33,-139.02 1091.63,-134.45"/>
</a>
</g>
</g>
<!-- Node20&#45;&gt;Node21 -->
<g id="edge27_Node000020_Node000021" class="edge">
<title>Node20&#45;&gt;Node21</title>
<g id="a_edge27_Node000020_Node000021"><a xlink:title=" ">
<path fill="none" stroke="#63b8ff" d="M1183.91,-219.98C1199.55,-211.61 1223.66,-198.7 1241.88,-188.95"/>
<polygon fill="#63b8ff" stroke="#63b8ff" points="1243.64,-191.98 1250.8,-184.17 1240.34,-185.8 1243.64,-191.98"/>
</a>
</g>
</g>
<!-- Node21&#45;&gt;Node9 -->
<g id="edge28_Node000021_Node000009" class="edge">
<title>Node21&#45;&gt;Node9</title>
<g id="a_edge28_Node000021_Node000009"><a xlink:title=" ">
<path fill="none" stroke="#63b8ff" d="M1249.85,-164.84C1212.43,-145.96 1123.25,-100.96 1078.93,-78.59"/>
<polygon fill="#63b8ff" stroke="#63b8ff" points="1080.44,-75.43 1069.94,-74.05 1077.29,-81.68 1080.44,-75.43"/>
</a>
</g>
</g>
<!-- Node21&#45;&gt;Node10 -->
<g id="edge31_Node000021_Node000010" class="edge">
<title>Node21&#45;&gt;Node10</title>
<g id="a_edge31_Node000021_Node000010"><a xlink:title=" ">
<path fill="none" stroke="#63b8ff" d="M1262.75,-164.74C1250.27,-138.98 1213.51,-63.13 1196.64,-28.33"/>
<polygon fill="#63b8ff" stroke="#63b8ff" points="1199.78,-26.78 1192.27,-19.31 1193.48,-29.83 1199.78,-26.78"/>
</a>
</g>
</g>
<!-- Node21&#45;&gt;Node14 -->
<g id="edge30_Node000021_Node000014" class="edge">
<title>Node21&#45;&gt;Node14</title>
<g id="a_edge30_Node000021_Node000014"><a xlink:title=" ">
<path fill="none" stroke="#63b8ff" d="M1236.15,-164.98C1203.5,-155.97 1151.8,-141.7 1115.8,-131.76"/>
<polygon fill="#63b8ff" stroke="#63b8ff" points="1116.66,-128.37 1106.09,-129.08 1114.8,-135.12 1116.66,-128.37"/>
</a>
</g>
</g>
<!-- Node21&#45;&gt;Node18 -->
<g id="edge29_Node000021_Node000018" class="edge">
<title>Node21&#45;&gt;Node18</title>
<g id="a_edge29_Node000021_Node000018"><a xlink:title=" ">
<path fill="none" stroke="#63b8ff" d="M1287.89,-164.98C1309.08,-156.34 1342.13,-142.87 1366.3,-133.02"/>
<polygon fill="#63b8ff" stroke="#63b8ff" points="1367.79,-136.19 1375.73,-129.17 1365.15,-129.7 1367.79,-136.19"/>
</a>
</g>
</g>
<!-- Node22&#45;&gt;Node14 -->
<g id="edge33_Node000022_Node000014" class="edge">
<title>Node22&#45;&gt;Node14</title>
<g id="a_edge33_Node000022_Node000014"><a xlink:title=" ">
<path fill="none" stroke="#63b8ff" d="M1485.85,-166.1C1482.86,-165.72 1479.89,-165.35 1477,-165 1352.34,-149.82 1205.67,-134.13 1128.57,-126.06"/>
<polygon fill="#63b8ff" stroke="#63b8ff" points="1128.48,-122.53 1118.17,-124.97 1127.75,-129.49 1128.48,-122.53"/>
</a>
</g>
</g>
<!-- Node22&#45;&gt;Node18 -->
<g id="edge34_Node000022_Node000018" class="edge">
<title>Node22&#45;&gt;Node18</title>
<g id="a_edge34_Node000022_Node000018"><a xlink:title=" ">
<path fill="none" stroke="#63b8ff" d="M1517.86,-164.98C1494.18,-156.27 1457.13,-142.63 1430.29,-132.75"/>
<polygon fill="#63b8ff" stroke="#63b8ff" points="1431.15,-129.34 1420.56,-129.17 1428.73,-135.91 1431.15,-129.34"/>
</a>
</g>
</g>
<!-- Node23&#45;&gt;Node14 -->
<g id="edge36_Node000023_Node000014" class="edge">
<title>Node23&#45;&gt;Node14</title>
<g id="a_edge36_Node000023_Node000014"><a xlink:title=" ">
<path fill="none" stroke="#63b8ff" d="M832.73,-219.88C855.13,-210.97 891.05,-196.63 922,-184 965.01,-166.45 1014.65,-145.77 1045.44,-132.89"/>
<polygon fill="#63b8ff" stroke="#63b8ff" points="1046.86,-136.09 1054.74,-129 1044.16,-129.63 1046.86,-136.09"/>
</a>
</g>
</g>
<!-- Node24&#45;&gt;Node14 -->
<g id="edge38_Node000024_Node000014" class="edge">
<title>Node24&#45;&gt;Node14</title>
<g id="a_edge38_Node000024_Node000014"><a xlink:title=" ">
<path fill="none" stroke="#63b8ff" d="M941.77,-219.76C954.77,-207.02 980.21,-182.89 1004,-165 1018.83,-153.85 1036.51,-142.76 1050.52,-134.44"/>
<polygon fill="#63b8ff" stroke="#63b8ff" points="1052.68,-137.23 1059.55,-129.16 1049.15,-131.19 1052.68,-137.23"/>
</a>
</g>
</g>
<!-- Node25&#45;&gt;Node14 -->
<g id="edge40_Node000025_Node000014" class="edge">
<title>Node25&#45;&gt;Node14</title>
<g id="a_edge40_Node000025_Node000014"><a xlink:title=" ">
<path fill="none" stroke="#63b8ff" d="M1241.27,-274.88C1239.78,-261.84 1235.42,-236.86 1223,-220 1192.42,-178.48 1138.98,-148.87 1105.37,-133.24"/>
<polygon fill="#63b8ff" stroke="#63b8ff" points="1106.6,-129.96 1096.04,-129.03 1103.72,-136.34 1106.6,-129.96"/>
</a>
</g>
</g>
<!-- Node25&#45;&gt;Node18 -->
<g id="edge42_Node000025_Node000018" class="edge">
<title>Node25&#45;&gt;Node18</title>
<g id="a_edge42_Node000025_Node000018"><a xlink:title=" ">
<path fill="none" stroke="#63b8ff" d="M1251.74,-274.8C1270.46,-257.92 1312.49,-219.29 1345,-184 1358.96,-168.84 1373.75,-150.55 1383.97,-137.49"/>
<polygon fill="#63b8ff" stroke="#63b8ff" points="1386.88,-139.44 1390.25,-129.4 1381.35,-135.15 1386.88,-139.44"/>
</a>
</g>
</g>
<!-- Node25&#45;&gt;Node20 -->
<g id="edge41_Node000025_Node000020" class="edge">
<title>Node25&#45;&gt;Node20</title>
<g id="a_edge41_Node000025_Node000020"><a xlink:title=" ">
<path fill="none" stroke="#63b8ff" d="M1230.11,-274.98C1218.85,-266.92 1201.71,-254.65 1188.29,-245.03"/>
<polygon fill="#63b8ff" stroke="#63b8ff" points="1190.27,-242.15 1180.11,-239.17 1186.2,-247.84 1190.27,-242.15"/>
</a>
</g>
</g>
<!-- Node26&#45;&gt;Node14 -->
<g id="edge45_Node000026_Node000014" class="edge">
<title>Node26&#45;&gt;Node14</title>
<g id="a_edge45_Node000026_Node000014"><a xlink:title=" ">
<path fill="none" stroke="#63b8ff" d="M1044.72,-274.74C1049.73,-249.2 1064.41,-174.43 1071.32,-139.23"/>
<polygon fill="#63b8ff" stroke="#63b8ff" points="1074.78,-139.79 1073.27,-129.31 1067.91,-138.45 1074.78,-139.79"/>
</a>
</g>
</g>
<!-- Node27&#45;&gt;Node14 -->
<g id="edge48_Node000027_Node000014" class="edge">
<title>Node27&#45;&gt;Node14</title>
<g id="a_edge48_Node000027_Node000014"><a xlink:title=" ">
<path fill="none" stroke="#63b8ff" d="M1392.34,-167.88C1328.99,-158.42 1200.9,-139.3 1128.32,-128.46"/>
<polygon fill="#63b8ff" stroke="#63b8ff" points="1128.44,-124.94 1118.03,-126.92 1127.41,-131.86 1128.44,-124.94"/>
</a>
</g>
</g>
<!-- Node27&#45;&gt;Node18 -->
<g id="edge49_Node000027_Node000018" class="edge">
<title>Node27&#45;&gt;Node18</title>
<g id="a_edge49_Node000027_Node000018"><a xlink:title=" ">
<path fill="none" stroke="#63b8ff" d="M1424.55,-164.75C1419.99,-157.42 1413.33,-146.73 1407.71,-137.7"/>
<polygon fill="#63b8ff" stroke="#63b8ff" points="1410.6,-135.73 1402.35,-129.09 1404.66,-139.43 1410.6,-135.73"/>
</a>
</g>
</g>
<!-- Node28&#45;&gt;Node14 -->
<g id="edge51_Node000028_Node000014" class="edge">
<title>Node28&#45;&gt;Node14</title>
<g id="a_edge51_Node000028_Node000014"><a xlink:title=" ">
<path fill="none" stroke="#63b8ff" d="M939.15,-274.9C956.58,-267.34 980.72,-255.05 998,-239 1030.07,-209.21 1054.84,-163.39 1066.91,-138.35"/>
<polygon fill="#63b8ff" stroke="#63b8ff" points="1070.08,-139.82 1071.16,-129.28 1063.75,-136.85 1070.08,-139.82"/>
</a>
</g>
</g>
</g>
</svg>

<g id="navigator" transform="translate(0 0)" fill="#404254">
  <rect fill="#f2f5e9" fill-opacity="0.5" stroke="#606060" stroke-width=".5" x="0" y="0" width="60" height="60"/>
  <use id="zoomplus" xlink:href="#zoomPlus" x="17" y="9" onmousedown="handleZoom(evt,'in')"/>
  <use id="zoomminus" xlink:href="#zoomMin" x="42" y="9" onmousedown="handleZoom(evt,'out')"/>
  <use id="reset" xlink:href="#resetDef" x="30" y="36" onmousedown="handleReset()"/>
   <use id="arrowup" xlink:href="#arrowUp" x="0" y="0" onmousedown="handlePan(0,-1)"/>
  <use id="arrowright" xlink:href="#arrowRight" x="0" y="0" onmousedown="handlePan(1,0)"/>
  <use id="arrowdown" xlink:href="#arrowDown" x="0" y="0" onmousedown="handlePan(0,1)"/>
  <use id="arrowleft" xlink:href="#arrowLeft" x="0" y="0" onmousedown="handlePan(-1,0)"/>
</g>
<svg viewBox="0 0 15 15" width="100%" height="30px" preserveAspectRatio="xMaxYMin meet">
 <g id="arrow_out" transform="scale(0.3 0.3)">
  <a xlink:href="qpalm_8cpp__incl_org.svg" target="_base">
   <rect id="button" ry="5" rx="5" y="6" x="6" height="38" width="38"
        fill="#f2f5e9" fill-opacity="0.5" stroke="#606060" stroke-width="1.0"/>
   <path id="arrow"
     d="M 11.500037,31.436501 C 11.940474,20.09759 22.043105,11.32322 32.158766,21.979434 L 37.068811,17.246167 C 37.068811,17.246167 37.088388,32 37.088388,32 L 22.160133,31.978069 C 22.160133,31.978069 26.997745,27.140456 26.997745,27.140456 C 18.528582,18.264221 13.291696,25.230495 11.500037,31.436501 z"
     style="fill:#404040;"/>
  </a>
 </g>
</svg>

<style type='text/css'>
<![CDATA[
[data-mouse-over-selected='false'] { opacity: 0.7; }
[data-mouse-over-selected='true']  { opacity: 1.0; }
]]>
</style>
<script type="application/ecmascript"><![CDATA[
document.addEventListener('DOMContentLoaded', (event) => {
  highlightEdges();
  highlightAdjacentNodes();
});
]]></script>
</svg>
