<?xml version="1.0" encoding="UTF-8" standalone="no"?>
<!DOCTYPE svg PUBLIC "-//W3C//DTD SVG 1.1//EN"
 "http://www.w3.org/Graphics/SVG/1.1/DTD/svg11.dtd">
<!-- Generated by graphviz version 2.43.0 (0)
 -->
<!-- Title: QPALM/src/scaling.c Pages: 1 -->
<svg width="329pt" height="357pt"
 viewBox="0.00 0.00 329.26 357.00" xmlns="http://www.w3.org/2000/svg" xmlns:xlink="http://www.w3.org/1999/xlink">

<svg id="main" version="1.1" xmlns="http://www.w3.org/2000/svg" xmlns:xlink="http://www.w3.org/1999/xlink" xml:space="preserve" onload="init(evt)">
<style type="text/css"><![CDATA[
.node, .edge {opacity: 0.7;}
.node.selected, .edge.selected {opacity: 1;}
.edge:hover path { stroke: red; }
.edge:hover polygon { stroke: red; fill: red; }
]]></style>
<script type="application/ecmascript" xlink:href="svg.min.js"/>
<svg id="graph" class="graph">
<g id="graph0" class="graph" transform="scale(1 1) rotate(0) translate(4 353)">
<title>QPALM/src/scaling.c</title>
<!-- Node1 -->
<g id="Node000001" class="node">
<title>Node1</title>
<g id="a_Node000001"><a xlink:title="Problem data scaling during setup.">
<polygon fill="#999999" stroke="#666666" points="250.76,-349 137.76,-349 137.76,-330 250.76,-330 250.76,-349"/>
<text text-anchor="middle" x="194.26" y="-337" font-family="Helvetica,sans-Serif" font-size="10.00">QPALM/src/scaling.c</text>
</a>
</g>
</g>
<!-- Node2 -->
<g id="Node000002" class="node">
<title>Node2</title>
<g id="a_Node000002"><a xlink:title=" ">
<polygon fill="#e0e0e0" stroke="#999999" points="92.26,-294 42.26,-294 42.26,-275 92.26,-275 92.26,-294"/>
<text text-anchor="middle" x="67.26" y="-282" font-family="Helvetica,sans-Serif" font-size="10.00">stdio.h</text>
</a>
</g>
</g>
<!-- Node1&#45;&gt;Node2 -->
<g id="edge1_Node000001_Node000002" class="edge">
<title>Node1&#45;&gt;Node2</title>
<g id="a_edge1_Node000001_Node000002"><a xlink:title=" ">
<path fill="none" stroke="#63b8ff" d="M173.85,-329.98C153.24,-321.38 121.15,-307.99 97.56,-298.15"/>
<polygon fill="#63b8ff" stroke="#63b8ff" points="98.61,-294.79 88.03,-294.17 95.91,-301.25 98.61,-294.79"/>
</a>
</g>
</g>
<!-- Node3 -->
<g id="Node000003" class="node">
<title>Node3</title>
<g id="a_Node000003"><a xlink:href="scaling_8h.html" target="_top" xlink:title="Problem data scaling during setup.">
<polygon fill="white" stroke="#666666" points="204.26,-294 110.26,-294 110.26,-275 204.26,-275 204.26,-294"/>
<text text-anchor="middle" x="157.26" y="-282" font-family="Helvetica,sans-Serif" font-size="10.00">qpalm/scaling.h</text>
</a>
</g>
</g>
<!-- Node1&#45;&gt;Node3 -->
<g id="edge2_Node000001_Node000003" class="edge">
<title>Node1&#45;&gt;Node3</title>
<g id="a_edge2_Node000001_Node000003"><a xlink:title=" ">
<path fill="none" stroke="#63b8ff" d="M188.15,-329.75C182.97,-322.34 175.41,-311.5 169.06,-302.41"/>
<polygon fill="#63b8ff" stroke="#63b8ff" points="171.85,-300.29 163.25,-294.09 166.11,-304.29 171.85,-300.29"/>
</a>
</g>
</g>
<!-- Node6 -->
<g id="Node000006" class="node">
<title>Node6</title>
<g id="a_Node000006"><a xlink:title=" ">
<polygon fill="#e0e0e0" stroke="#999999" points="182.26,-19 132.26,-19 132.26,0 182.26,0 182.26,-19"/>
<text text-anchor="middle" x="157.26" y="-7" font-family="Helvetica,sans-Serif" font-size="10.00">ladel.h</text>
</a>
</g>
</g>
<!-- Node1&#45;&gt;Node6 -->
<g id="edge18_Node000001_Node000006" class="edge">
<title>Node1&#45;&gt;Node6</title>
<g id="a_edge18_Node000001_Node000006"><a xlink:title=" ">
<path fill="none" stroke="#63b8ff" d="M219.65,-329.97C256.71,-315.72 321.26,-283.32 321.26,-230.5 321.26,-230.5 321.26,-230.5 321.26,-118.5 321.26,-57.36 240.77,-28.88 192.57,-17.31"/>
<polygon fill="#63b8ff" stroke="#63b8ff" points="193.05,-13.83 182.52,-15.02 191.5,-20.65 193.05,-13.83"/>
</a>
</g>
</g>
<!-- Node8 -->
<g id="Node000008" class="node">
<title>Node8</title>
<g id="a_Node000008"><a xlink:href="lin__alg_8h.html" target="_top" xlink:title="Linear algebra with vectors.">
<polygon fill="white" stroke="#666666" points="186.26,-239 128.26,-239 128.26,-220 186.26,-220 186.26,-239"/>
<text text-anchor="middle" x="157.26" y="-227" font-family="Helvetica,sans-Serif" font-size="10.00">lin_alg.h</text>
</a>
</g>
</g>
<!-- Node1&#45;&gt;Node8 -->
<g id="edge17_Node000001_Node000008" class="edge">
<title>Node1&#45;&gt;Node8</title>
<g id="a_edge17_Node000001_Node000008"><a xlink:title=" ">
<path fill="none" stroke="#63b8ff" d="M200.67,-329.97C209.21,-317.47 222.26,-293.65 213.26,-275 207.04,-262.12 195.08,-251.82 183.8,-244.38"/>
<polygon fill="#63b8ff" stroke="#63b8ff" points="185.39,-241.25 175.02,-239.04 181.75,-247.23 185.39,-241.25"/>
</a>
</g>
</g>
<!-- Node4 -->
<g id="Node000004" class="node">
<title>Node4</title>
<g id="a_Node000004"><a xlink:href="types_8h.html" target="_top" xlink:title="Internal data structures used in QPALM.">
<polygon fill="white" stroke="#666666" points="86.76,-129 33.76,-129 33.76,-110 86.76,-110 86.76,-129"/>
<text text-anchor="middle" x="60.26" y="-117" font-family="Helvetica,sans-Serif" font-size="10.00">types.h</text>
</a>
</g>
</g>
<!-- Node3&#45;&gt;Node4 -->
<g id="edge3_Node000003_Node000004" class="edge">
<title>Node3&#45;&gt;Node4</title>
<g id="a_edge3_Node000003_Node000004"><a xlink:title=" ">
<path fill="none" stroke="#63b8ff" d="M145.31,-274.99C124.73,-259.56 83.08,-224.74 65.26,-184 59.09,-169.9 58.15,-152.35 58.58,-139.28"/>
<polygon fill="#63b8ff" stroke="#63b8ff" points="62.08,-139.34 59.21,-129.14 55.09,-138.91 62.08,-139.34"/>
</a>
</g>
</g>
<!-- Node3&#45;&gt;Node8 -->
<g id="edge8_Node000003_Node000008" class="edge">
<title>Node3&#45;&gt;Node8</title>
<g id="a_edge8_Node000003_Node000008"><a xlink:title=" ">
<path fill="none" stroke="#63b8ff" d="M157.26,-274.75C157.26,-267.8 157.26,-257.85 157.26,-249.13"/>
<polygon fill="#63b8ff" stroke="#63b8ff" points="160.76,-249.09 157.26,-239.09 153.76,-249.09 160.76,-249.09"/>
</a>
</g>
</g>
<!-- Node10 -->
<g id="Node000010" class="node">
<title>Node10</title>
<g id="a_Node000010"><a xlink:href="constants_8h.html" target="_top" xlink:title="Constants used in QPALM.">
<polygon fill="white" stroke="#666666" points="292.76,-129 185.76,-129 185.76,-110 292.76,-110 292.76,-129"/>
<text text-anchor="middle" x="239.26" y="-117" font-family="Helvetica,sans-Serif" font-size="10.00">qpalm/constants.h</text>
</a>
</g>
</g>
<!-- Node3&#45;&gt;Node10 -->
<g id="edge16_Node000003_Node000010" class="edge">
<title>Node3&#45;&gt;Node10</title>
<g id="a_edge16_Node000003_Node000010"><a xlink:title=" ">
<path fill="none" stroke="#63b8ff" d="M167.32,-274.89C185,-259.04 221.12,-223.23 235.26,-184 240.47,-169.53 241.2,-152.02 240.77,-139.05"/>
<polygon fill="#63b8ff" stroke="#63b8ff" points="244.27,-138.8 240.19,-129.02 237.28,-139.21 244.27,-138.8"/>
</a>
</g>
</g>
<!-- Node5 -->
<g id="Node000005" class="node">
<title>Node5</title>
<g id="a_Node000005"><a xlink:href="global__opts_8h.html" target="_top" xlink:title="Custom memory allocation, print and utility functions, and data types for floats and ints.">
<polygon fill="white" stroke="#666666" points="129.26,-74 13.26,-74 13.26,-55 129.26,-55 129.26,-74"/>
<text text-anchor="middle" x="71.26" y="-62" font-family="Helvetica,sans-Serif" font-size="10.00">qpalm/global_opts.h</text>
</a>
</g>
</g>
<!-- Node4&#45;&gt;Node5 -->
<g id="edge4_Node000004_Node000005" class="edge">
<title>Node4&#45;&gt;Node5</title>
<g id="a_edge4_Node000004_Node000005"><a xlink:title=" ">
<path fill="none" stroke="#63b8ff" d="M62.07,-109.75C63.52,-102.8 65.58,-92.85 67.39,-84.13"/>
<polygon fill="#63b8ff" stroke="#63b8ff" points="70.87,-84.59 69.47,-74.09 64.02,-83.17 70.87,-84.59"/>
</a>
</g>
</g>
<!-- Node4&#45;&gt;Node6 -->
<g id="edge7_Node000004_Node000006" class="edge">
<title>Node4&#45;&gt;Node6</title>
<g id="a_edge7_Node000004_Node000006"><a xlink:title=" ">
<path fill="none" stroke="#63b8ff" d="M42.72,-109.83C21.02,-97.95 -11.27,-75.69 4.26,-55 11.46,-45.4 79.24,-28.36 122.14,-18.38"/>
<polygon fill="#63b8ff" stroke="#63b8ff" points="122.97,-21.78 131.93,-16.13 121.4,-14.96 122.97,-21.78"/>
</a>
</g>
</g>
<!-- Node5&#45;&gt;Node6 -->
<g id="edge5_Node000005_Node000006" class="edge">
<title>Node5&#45;&gt;Node6</title>
<g id="a_edge5_Node000005_Node000006"><a xlink:title=" ">
<path fill="none" stroke="#63b8ff" d="M85.07,-54.98C98.41,-46.77 118.84,-34.18 134.56,-24.49"/>
<polygon fill="#63b8ff" stroke="#63b8ff" points="136.51,-27.4 143.19,-19.17 132.84,-21.44 136.51,-27.4"/>
</a>
</g>
</g>
<!-- Node7 -->
<g id="Node000007" class="node">
<title>Node7</title>
<g id="a_Node000007"><a xlink:title=" ">
<polygon fill="#e0e0e0" stroke="#999999" points="96.76,-19 45.76,-19 45.76,0 96.76,0 96.76,-19"/>
<text text-anchor="middle" x="71.26" y="-7" font-family="Helvetica,sans-Serif" font-size="10.00">math.h</text>
</a>
</g>
</g>
<!-- Node5&#45;&gt;Node7 -->
<g id="edge6_Node000005_Node000007" class="edge">
<title>Node5&#45;&gt;Node7</title>
<g id="a_edge6_Node000005_Node000007"><a xlink:title=" ">
<path fill="none" stroke="#63b8ff" d="M71.26,-54.75C71.26,-47.8 71.26,-37.85 71.26,-29.13"/>
<polygon fill="#63b8ff" stroke="#63b8ff" points="74.76,-29.09 71.26,-19.09 67.76,-29.09 74.76,-29.09"/>
</a>
</g>
</g>
<!-- Node8&#45;&gt;Node4 -->
<g id="edge9_Node000008_Node000004" class="edge">
<title>Node8&#45;&gt;Node4</title>
<g id="a_edge9_Node000008_Node000004"><a xlink:title=" ">
<path fill="none" stroke="#63b8ff" d="M132.09,-219.89C114.89,-212.79 92.84,-201.09 79.26,-184 69.08,-171.19 64.34,-153.02 62.15,-139.4"/>
<polygon fill="#63b8ff" stroke="#63b8ff" points="65.59,-138.71 60.84,-129.24 58.65,-139.61 65.59,-138.71"/>
</a>
</g>
</g>
<!-- Node9 -->
<g id="Node000009" class="node">
<title>Node9</title>
<g id="a_Node000009"><a xlink:href="solver__interface_8h.html" target="_top" xlink:title="Interface and wrapper to matrix/factorization (ladel) functions.">
<polygon fill="white" stroke="#666666" points="226.26,-184 88.26,-184 88.26,-165 226.26,-165 226.26,-184"/>
<text text-anchor="middle" x="157.26" y="-172" font-family="Helvetica,sans-Serif" font-size="10.00">qpalm/solver_interface.h</text>
</a>
</g>
</g>
<!-- Node8&#45;&gt;Node9 -->
<g id="edge10_Node000008_Node000009" class="edge">
<title>Node8&#45;&gt;Node9</title>
<g id="a_edge10_Node000008_Node000009"><a xlink:title=" ">
<path fill="none" stroke="#63b8ff" d="M157.26,-219.75C157.26,-212.8 157.26,-202.85 157.26,-194.13"/>
<polygon fill="#63b8ff" stroke="#63b8ff" points="160.76,-194.09 157.26,-184.09 153.76,-194.09 160.76,-194.09"/>
</a>
</g>
</g>
<!-- Node9&#45;&gt;Node4 -->
<g id="edge14_Node000009_Node000004" class="edge">
<title>Node9&#45;&gt;Node4</title>
<g id="a_edge14_Node000009_Node000004"><a xlink:title=" ">
<path fill="none" stroke="#63b8ff" d="M141.67,-164.98C126.49,-156.69 103.16,-143.94 85.36,-134.22"/>
<polygon fill="#63b8ff" stroke="#63b8ff" points="86.58,-130.89 76.13,-129.17 83.22,-137.04 86.58,-130.89"/>
</a>
</g>
</g>
<!-- Node9&#45;&gt;Node5 -->
<g id="edge11_Node000009_Node000005" class="edge">
<title>Node9&#45;&gt;Node5</title>
<g id="a_edge11_Node000009_Node000005"><a xlink:title=" ">
<path fill="none" stroke="#63b8ff" d="M150.22,-164.66C135.85,-146.61 102.93,-105.28 84.46,-82.08"/>
<polygon fill="#63b8ff" stroke="#63b8ff" points="87.12,-79.8 78.15,-74.16 81.64,-84.16 87.12,-79.8"/>
</a>
</g>
</g>
<!-- Node9&#45;&gt;Node6 -->
<g id="edge15_Node000009_Node000006" class="edge">
<title>Node9&#45;&gt;Node6</title>
<g id="a_edge15_Node000009_Node000006"><a xlink:title=" ">
<path fill="none" stroke="#63b8ff" d="M157.26,-164.74C157.26,-139.31 157.26,-65.08 157.26,-29.69"/>
<polygon fill="#63b8ff" stroke="#63b8ff" points="160.76,-29.31 157.26,-19.31 153.76,-29.31 160.76,-29.31"/>
</a>
</g>
</g>
<!-- Node9&#45;&gt;Node10 -->
<g id="edge12_Node000009_Node000010" class="edge">
<title>Node9&#45;&gt;Node10</title>
<g id="a_edge12_Node000009_Node000010"><a xlink:title=" ">
<path fill="none" stroke="#63b8ff" d="M170.43,-164.98C183.03,-156.84 202.26,-144.41 217.2,-134.76"/>
<polygon fill="#63b8ff" stroke="#63b8ff" points="219.34,-137.54 225.84,-129.17 215.54,-131.66 219.34,-137.54"/>
</a>
</g>
</g>
<!-- Node10&#45;&gt;Node6 -->
<g id="edge13_Node000010_Node000006" class="edge">
<title>Node10&#45;&gt;Node6</title>
<g id="a_edge13_Node000010_Node000006"><a xlink:title=" ">
<path fill="none" stroke="#63b8ff" d="M232.55,-109.66C218.9,-91.69 187.73,-50.64 170.08,-27.38"/>
<polygon fill="#63b8ff" stroke="#63b8ff" points="172.67,-25.01 163.83,-19.16 167.09,-29.24 172.67,-25.01"/>
</a>
</g>
</g>
</g>
</svg>
</svg>

<style type='text/css'>
<![CDATA[
[data-mouse-over-selected='false'] { opacity: 0.7; }
[data-mouse-over-selected='true']  { opacity: 1.0; }
]]>
</style>
<script type="application/ecmascript"><![CDATA[
document.addEventListener('DOMContentLoaded', (event) => {
  highlightEdges();
  highlightAdjacentNodes();
});
]]></script>
</svg>
