<?xml version="1.0" encoding="UTF-8" standalone="no"?>
<!DOCTYPE svg PUBLIC "-//W3C//DTD SVG 1.1//EN"
 "http://www.w3.org/Graphics/SVG/1.1/DTD/svg11.dtd">
<!-- Generated by graphviz version 2.43.0 (0)
 -->
<!-- Title: QPALM/src/termination.c Pages: 1 -->
<svg width="462pt" height="302pt"
 viewBox="0.00 0.00 462.15 302.00" xmlns="http://www.w3.org/2000/svg" xmlns:xlink="http://www.w3.org/1999/xlink">

<svg id="main" version="1.1" xmlns="http://www.w3.org/2000/svg" xmlns:xlink="http://www.w3.org/1999/xlink" xml:space="preserve" onload="init(evt)">
<style type="text/css"><![CDATA[
.node, .edge {opacity: 0.7;}
.node.selected, .edge.selected {opacity: 1;}
.edge:hover path { stroke: red; }
.edge:hover polygon { stroke: red; fill: red; }
]]></style>
<script type="application/ecmascript" xlink:href="svg.min.js"/>
<svg id="graph" class="graph">
<g id="graph0" class="graph" transform="scale(1 1) rotate(0) translate(4 298)">
<title>QPALM/src/termination.c</title>
<!-- Node1 -->
<g id="Node000001" class="node">
<title>Node1</title>
<g id="a_Node000001"><a xlink:title="Routines to check the termination and infeasibility criteria.">
<polygon fill="#999999" stroke="#666666" points="279.51,-294 143.51,-294 143.51,-275 279.51,-275 279.51,-294"/>
<text text-anchor="middle" x="211.51" y="-282" font-family="Helvetica,sans-Serif" font-size="10.00">QPALM/src/termination.c</text>
</a>
</g>
</g>
<!-- Node2 -->
<g id="Node000002" class="node">
<title>Node2</title>
<g id="a_Node000002"><a xlink:href="termination_8h.html" target="_top" xlink:title="Routines to check the termination and infeasibility criteria.">
<polygon fill="white" stroke="#666666" points="208.51,-239 92.51,-239 92.51,-220 208.51,-220 208.51,-239"/>
<text text-anchor="middle" x="150.51" y="-227" font-family="Helvetica,sans-Serif" font-size="10.00">qpalm/termination.h</text>
</a>
</g>
</g>
<!-- Node1&#45;&gt;Node2 -->
<g id="edge1_Node000001_Node000002" class="edge">
<title>Node1&#45;&gt;Node2</title>
<g id="a_edge1_Node000001_Node000002"><a xlink:title=" ">
<path fill="none" stroke="#63b8ff" d="M201.71,-274.98C192.69,-267.15 179.1,-255.34 168.19,-245.86"/>
<polygon fill="#63b8ff" stroke="#63b8ff" points="170.33,-243.09 160.49,-239.17 165.74,-248.37 170.33,-243.09"/>
</a>
</g>
</g>
<!-- Node4 -->
<g id="Node000004" class="node">
<title>Node4</title>
<g id="a_Node000004"><a xlink:href="global__opts_8h.html" target="_top" xlink:title="Custom memory allocation, print and utility functions, and data types for floats and ints.">
<polygon fill="white" stroke="#666666" points="218.51,-74 102.51,-74 102.51,-55 218.51,-55 218.51,-74"/>
<text text-anchor="middle" x="160.51" y="-62" font-family="Helvetica,sans-Serif" font-size="10.00">qpalm/global_opts.h</text>
</a>
</g>
</g>
<!-- Node1&#45;&gt;Node4 -->
<g id="edge16_Node000001_Node000004" class="edge">
<title>Node1&#45;&gt;Node4</title>
<g id="a_edge16_Node000001_Node000004"><a xlink:title=" ">
<path fill="none" stroke="#63b8ff" d="M149.44,-274.95C98.08,-263.99 29.62,-239.27 4.51,-184 -20.26,-129.49 62.8,-93.91 117.11,-77.01"/>
<polygon fill="#63b8ff" stroke="#63b8ff" points="118.32,-80.3 126.88,-74.07 116.3,-73.6 118.32,-80.3"/>
</a>
</g>
</g>
<!-- Node7 -->
<g id="Node000007" class="node">
<title>Node7</title>
<g id="a_Node000007"><a xlink:href="lin__alg_8h.html" target="_top" xlink:title="Linear algebra with vectors.">
<polygon fill="white" stroke="#666666" points="318.51,-239 226.51,-239 226.51,-220 318.51,-220 318.51,-239"/>
<text text-anchor="middle" x="272.51" y="-227" font-family="Helvetica,sans-Serif" font-size="10.00">qpalm/lin_alg.h</text>
</a>
</g>
</g>
<!-- Node1&#45;&gt;Node7 -->
<g id="edge7_Node000001_Node000007" class="edge">
<title>Node1&#45;&gt;Node7</title>
<g id="a_edge7_Node000001_Node000007"><a xlink:title=" ">
<path fill="none" stroke="#63b8ff" d="M221.31,-274.98C230.33,-267.15 243.91,-255.34 254.83,-245.86"/>
<polygon fill="#63b8ff" stroke="#63b8ff" points="257.28,-248.37 262.53,-239.17 252.68,-243.09 257.28,-248.37"/>
</a>
</g>
</g>
<!-- Node9 -->
<g id="Node000009" class="node">
<title>Node9</title>
<g id="a_Node000009"><a xlink:href="constants_8h.html" target="_top" xlink:title="Constants used in QPALM.">
<polygon fill="white" stroke="#666666" points="441.01,-129 334.01,-129 334.01,-110 441.01,-110 441.01,-129"/>
<text text-anchor="middle" x="387.51" y="-117" font-family="Helvetica,sans-Serif" font-size="10.00">qpalm/constants.h</text>
</a>
</g>
</g>
<!-- Node1&#45;&gt;Node9 -->
<g id="edge15_Node000001_Node000009" class="edge">
<title>Node1&#45;&gt;Node9</title>
<g id="a_edge15_Node000001_Node000009"><a xlink:title=" ">
<path fill="none" stroke="#63b8ff" d="M279.7,-277.03C337.39,-267.42 416.03,-243.5 450.51,-184 462.23,-163.78 438.39,-145.39 416.76,-133.66"/>
<polygon fill="#63b8ff" stroke="#63b8ff" points="418.23,-130.48 407.73,-129.06 415.05,-136.72 418.23,-130.48"/>
</a>
</g>
</g>
<!-- Node10 -->
<g id="Node000010" class="node">
<title>Node10</title>
<g id="a_Node000010"><a xlink:href="util_8h.html" target="_top" xlink:title="Utility functions.">
<polygon fill="white" stroke="#666666" points="441.01,-184 366.01,-184 366.01,-165 441.01,-165 441.01,-184"/>
<text text-anchor="middle" x="403.51" y="-172" font-family="Helvetica,sans-Serif" font-size="10.00">qpalm/util.h</text>
</a>
</g>
</g>
<!-- Node1&#45;&gt;Node10 -->
<g id="edge17_Node000001_Node000010" class="edge">
<title>Node1&#45;&gt;Node10</title>
<g id="a_edge17_Node000001_Node000010"><a xlink:title=" ">
<path fill="none" stroke="#63b8ff" d="M241.82,-274.9C265.98,-267.35 300.17,-255.06 327.51,-239 350.27,-225.63 373.07,-205.45 387.68,-191.44"/>
<polygon fill="#63b8ff" stroke="#63b8ff" points="390.19,-193.87 394.89,-184.38 385.3,-188.87 390.19,-193.87"/>
</a>
</g>
</g>
<!-- Node11 -->
<g id="Node000011" class="node">
<title>Node11</title>
<g id="a_Node000011"><a xlink:href="iteration_8h.html" target="_top" xlink:title="QPALM main solver routines.">
<polygon fill="white" stroke="#666666" points="115.01,-184 14.01,-184 14.01,-165 115.01,-165 115.01,-184"/>
<text text-anchor="middle" x="64.51" y="-172" font-family="Helvetica,sans-Serif" font-size="10.00">qpalm/iteration.h</text>
</a>
</g>
</g>
<!-- Node1&#45;&gt;Node11 -->
<g id="edge20_Node000001_Node000011" class="edge">
<title>Node1&#45;&gt;Node11</title>
<g id="a_edge20_Node000001_Node000011"><a xlink:title=" ">
<path fill="none" stroke="#63b8ff" d="M151.88,-274.92C127.79,-268.64 101.48,-257.78 83.51,-239 71.96,-226.93 67.4,-208.13 65.61,-194.11"/>
<polygon fill="#63b8ff" stroke="#63b8ff" points="69.09,-193.75 64.7,-184.11 62.12,-194.39 69.09,-193.75"/>
</a>
</g>
</g>
<!-- Node3 -->
<g id="Node000003" class="node">
<title>Node3</title>
<g id="a_Node000003"><a xlink:href="types_8h.html" target="_top" xlink:title="Internal data structures used in QPALM.">
<polygon fill="white" stroke="#666666" points="218.51,-129 132.51,-129 132.51,-110 218.51,-110 218.51,-129"/>
<text text-anchor="middle" x="175.51" y="-117" font-family="Helvetica,sans-Serif" font-size="10.00">qpalm/types.h</text>
</a>
</g>
</g>
<!-- Node2&#45;&gt;Node3 -->
<g id="edge2_Node000002_Node000003" class="edge">
<title>Node2&#45;&gt;Node3</title>
<g id="a_edge2_Node000002_Node000003"><a xlink:title=" ">
<path fill="none" stroke="#63b8ff" d="M152.55,-219.66C156.62,-202.09 165.8,-162.45 171.24,-138.95"/>
<polygon fill="#63b8ff" stroke="#63b8ff" points="174.66,-139.69 173.5,-129.16 167.84,-138.11 174.66,-139.69"/>
</a>
</g>
</g>
<!-- Node3&#45;&gt;Node4 -->
<g id="edge3_Node000003_Node000004" class="edge">
<title>Node3&#45;&gt;Node4</title>
<g id="a_edge3_Node000003_Node000004"><a xlink:title=" ">
<path fill="none" stroke="#63b8ff" d="M173.03,-109.75C171.04,-102.72 168.18,-92.62 165.7,-83.84"/>
<polygon fill="#63b8ff" stroke="#63b8ff" points="169.03,-82.76 162.94,-74.09 162.29,-84.66 169.03,-82.76"/>
</a>
</g>
</g>
<!-- Node5 -->
<g id="Node000005" class="node">
<title>Node5</title>
<g id="a_Node000005"><a xlink:title=" ">
<polygon fill="#e0e0e0" stroke="#999999" points="290.51,-19 240.51,-19 240.51,0 290.51,0 290.51,-19"/>
<text text-anchor="middle" x="265.51" y="-7" font-family="Helvetica,sans-Serif" font-size="10.00">ladel.h</text>
</a>
</g>
</g>
<!-- Node3&#45;&gt;Node5 -->
<g id="edge6_Node000003_Node000005" class="edge">
<title>Node3&#45;&gt;Node5</title>
<g id="a_edge6_Node000003_Node000005"><a xlink:title=" ">
<path fill="none" stroke="#63b8ff" d="M187.64,-109.92C198.86,-101.59 215.55,-88.16 227.51,-74 239.4,-59.92 249.89,-41.68 256.82,-28.37"/>
<polygon fill="#63b8ff" stroke="#63b8ff" points="260.02,-29.8 261.39,-19.29 253.77,-26.65 260.02,-29.8"/>
</a>
</g>
</g>
<!-- Node4&#45;&gt;Node5 -->
<g id="edge4_Node000004_Node000005" class="edge">
<title>Node4&#45;&gt;Node5</title>
<g id="a_edge4_Node000004_Node000005"><a xlink:title=" ">
<path fill="none" stroke="#63b8ff" d="M177.38,-54.98C194.12,-46.54 220.01,-33.47 239.4,-23.68"/>
<polygon fill="#63b8ff" stroke="#63b8ff" points="240.98,-26.8 248.33,-19.17 237.83,-20.55 240.98,-26.8"/>
</a>
</g>
</g>
<!-- Node6 -->
<g id="Node000006" class="node">
<title>Node6</title>
<g id="a_Node000006"><a xlink:title=" ">
<polygon fill="#e0e0e0" stroke="#999999" points="186.01,-19 135.01,-19 135.01,0 186.01,0 186.01,-19"/>
<text text-anchor="middle" x="160.51" y="-7" font-family="Helvetica,sans-Serif" font-size="10.00">math.h</text>
</a>
</g>
</g>
<!-- Node4&#45;&gt;Node6 -->
<g id="edge5_Node000004_Node000006" class="edge">
<title>Node4&#45;&gt;Node6</title>
<g id="a_edge5_Node000004_Node000006"><a xlink:title=" ">
<path fill="none" stroke="#63b8ff" d="M160.51,-54.75C160.51,-47.8 160.51,-37.85 160.51,-29.13"/>
<polygon fill="#63b8ff" stroke="#63b8ff" points="164.01,-29.09 160.51,-19.09 157.01,-29.09 164.01,-29.09"/>
</a>
</g>
</g>
<!-- Node7&#45;&gt;Node3 -->
<g id="edge8_Node000007_Node000003" class="edge">
<title>Node7&#45;&gt;Node3</title>
<g id="a_edge8_Node000007_Node000003"><a xlink:title=" ">
<path fill="none" stroke="#63b8ff" d="M251.34,-219.88C235.46,-212.45 214.17,-200.35 200.51,-184 189.71,-171.07 183.19,-152.92 179.53,-139.33"/>
<polygon fill="#63b8ff" stroke="#63b8ff" points="182.84,-138.11 177.1,-129.2 176.03,-139.74 182.84,-138.11"/>
</a>
</g>
</g>
<!-- Node8 -->
<g id="Node000008" class="node">
<title>Node8</title>
<g id="a_Node000008"><a xlink:href="solver__interface_8h.html" target="_top" xlink:title="Interface and wrapper to matrix/factorization (ladel) functions.">
<polygon fill="white" stroke="#666666" points="347.51,-184 209.51,-184 209.51,-165 347.51,-165 347.51,-184"/>
<text text-anchor="middle" x="278.51" y="-172" font-family="Helvetica,sans-Serif" font-size="10.00">qpalm/solver_interface.h</text>
</a>
</g>
</g>
<!-- Node7&#45;&gt;Node8 -->
<g id="edge9_Node000007_Node000008" class="edge">
<title>Node7&#45;&gt;Node8</title>
<g id="a_edge9_Node000007_Node000008"><a xlink:title=" ">
<path fill="none" stroke="#63b8ff" d="M273.5,-219.75C274.29,-212.8 275.41,-202.85 276.4,-194.13"/>
<polygon fill="#63b8ff" stroke="#63b8ff" points="279.89,-194.42 277.54,-184.09 272.93,-193.63 279.89,-194.42"/>
</a>
</g>
</g>
<!-- Node8&#45;&gt;Node3 -->
<g id="edge13_Node000008_Node000003" class="edge">
<title>Node8&#45;&gt;Node3</title>
<g id="a_edge13_Node000008_Node000003"><a xlink:title=" ">
<path fill="none" stroke="#63b8ff" d="M261.96,-164.98C245.61,-156.57 220.37,-143.59 201.38,-133.81"/>
<polygon fill="#63b8ff" stroke="#63b8ff" points="202.85,-130.63 192.36,-129.17 199.65,-136.86 202.85,-130.63"/>
</a>
</g>
</g>
<!-- Node8&#45;&gt;Node4 -->
<g id="edge10_Node000008_Node000004" class="edge">
<title>Node8&#45;&gt;Node4</title>
<g id="a_edge10_Node000008_Node000004"><a xlink:title=" ">
<path fill="none" stroke="#63b8ff" d="M272.66,-164.57C263.88,-151.59 246.3,-127.17 227.51,-110 214.61,-98.22 198.31,-87.32 185.02,-79.26"/>
<polygon fill="#63b8ff" stroke="#63b8ff" points="186.77,-76.23 176.38,-74.16 183.21,-82.26 186.77,-76.23"/>
</a>
</g>
</g>
<!-- Node8&#45;&gt;Node5 -->
<g id="edge14_Node000008_Node000005" class="edge">
<title>Node8&#45;&gt;Node5</title>
<g id="a_edge14_Node000008_Node000005"><a xlink:title=" ">
<path fill="none" stroke="#63b8ff" d="M277.81,-164.74C275.78,-139.31 269.86,-65.08 267.04,-29.69"/>
<polygon fill="#63b8ff" stroke="#63b8ff" points="270.49,-29 266.21,-19.31 263.52,-29.55 270.49,-29"/>
</a>
</g>
</g>
<!-- Node8&#45;&gt;Node9 -->
<g id="edge11_Node000008_Node000009" class="edge">
<title>Node8&#45;&gt;Node9</title>
<g id="a_edge11_Node000008_Node000009"><a xlink:title=" ">
<path fill="none" stroke="#63b8ff" d="M296.02,-164.98C313.48,-156.5 340.52,-143.35 360.68,-133.54"/>
<polygon fill="#63b8ff" stroke="#63b8ff" points="362.21,-136.69 369.68,-129.17 359.15,-130.4 362.21,-136.69"/>
</a>
</g>
</g>
<!-- Node9&#45;&gt;Node5 -->
<g id="edge12_Node000009_Node000005" class="edge">
<title>Node9&#45;&gt;Node5</title>
<g id="a_edge12_Node000009_Node000005"><a xlink:title=" ">
<path fill="none" stroke="#63b8ff" d="M377.52,-109.66C356.78,-91.3 308.79,-48.81 282.87,-25.87"/>
<polygon fill="#63b8ff" stroke="#63b8ff" points="285.1,-23.17 275.29,-19.16 280.46,-28.41 285.1,-23.17"/>
</a>
</g>
</g>
<!-- Node10&#45;&gt;Node3 -->
<g id="edge18_Node000010_Node000003" class="edge">
<title>Node10&#45;&gt;Node3</title>
<g id="a_edge18_Node000010_Node000003"><a xlink:title=" ">
<path fill="none" stroke="#63b8ff" d="M366.88,-164.98C327.6,-155.86 265.14,-141.33 222.32,-131.38"/>
<polygon fill="#63b8ff" stroke="#63b8ff" points="222.96,-127.94 212.43,-129.08 221.37,-134.76 222.96,-127.94"/>
</a>
</g>
</g>
<!-- Node10&#45;&gt;Node9 -->
<g id="edge19_Node000010_Node000009" class="edge">
<title>Node10&#45;&gt;Node9</title>
<g id="a_edge19_Node000010_Node000009"><a xlink:title=" ">
<path fill="none" stroke="#63b8ff" d="M400.87,-164.75C398.75,-157.72 395.7,-147.62 393.05,-138.84"/>
<polygon fill="#63b8ff" stroke="#63b8ff" points="396.34,-137.65 390.1,-129.09 389.64,-139.67 396.34,-137.65"/>
</a>
</g>
</g>
<!-- Node11&#45;&gt;Node3 -->
<g id="edge21_Node000011_Node000003" class="edge">
<title>Node11&#45;&gt;Node3</title>
<g id="a_edge21_Node000011_Node000003"><a xlink:title=" ">
<path fill="none" stroke="#63b8ff" d="M82.34,-164.98C100.12,-156.5 127.65,-143.35 148.19,-133.54"/>
<polygon fill="#63b8ff" stroke="#63b8ff" points="149.83,-136.64 157.35,-129.17 146.82,-130.32 149.83,-136.64"/>
</a>
</g>
</g>
<!-- Node11&#45;&gt;Node4 -->
<g id="edge22_Node000011_Node000004" class="edge">
<title>Node11&#45;&gt;Node4</title>
<g id="a_edge22_Node000011_Node000004"><a xlink:title=" ">
<path fill="none" stroke="#63b8ff" d="M72.36,-164.66C88.48,-146.54 125.47,-104.91 146.05,-81.77"/>
<polygon fill="#63b8ff" stroke="#63b8ff" points="148.78,-83.96 152.81,-74.16 143.55,-79.31 148.78,-83.96"/>
</a>
</g>
</g>
</g>
</svg>
</svg>

<style type='text/css'>
<![CDATA[
[data-mouse-over-selected='false'] { opacity: 0.7; }
[data-mouse-over-selected='true']  { opacity: 1.0; }
]]>
</style>
<script type="application/ecmascript"><![CDATA[
document.addEventListener('DOMContentLoaded', (event) => {
  highlightEdges();
  highlightAdjacentNodes();
});
]]></script>
</svg>
