<?xml version="1.0" encoding="UTF-8" standalone="no"?>
<!DOCTYPE svg PUBLIC "-//W3C//DTD SVG 1.1//EN"
 "http://www.w3.org/Graphics/SVG/1.1/DTD/svg11.dtd">
<!-- Generated by graphviz version 2.43.0 (0)
 -->
<!-- Title: update_status Pages: 1 -->
<svg width="421pt" height="124pt"
 viewBox="0.00 0.00 421.00 123.50" xmlns="http://www.w3.org/2000/svg" xmlns:xlink="http://www.w3.org/1999/xlink">

<svg id="main" version="1.1" xmlns="http://www.w3.org/2000/svg" xmlns:xlink="http://www.w3.org/1999/xlink" xml:space="preserve" onload="init(evt)">
<style type="text/css"><![CDATA[
.node, .edge {opacity: 0.7;}
.node.selected, .edge.selected {opacity: 1;}
.edge:hover path { stroke: red; }
.edge:hover polygon { stroke: red; fill: red; }
]]></style>
<script type="application/ecmascript" xlink:href="svg.min.js"/>
<svg id="graph" class="graph">
<g id="graph0" class="graph" transform="scale(1 1) rotate(0) translate(4 119.5)">
<title>update_status</title>
<!-- Node1 -->
<g id="Node000001" class="node">
<title>Node1</title>
<g id="a_Node000001"><a xlink:title="Update solver status (value and string).">
<polygon fill="#999999" stroke="#666666" points="413,-72.5 327,-72.5 327,-53.5 413,-53.5 413,-72.5"/>
<text text-anchor="middle" x="370" y="-60.5" font-family="Helvetica,sans-Serif" font-size="10.00">update_status</text>
</a>
</g>
</g>
<!-- Node2 -->
<g id="Node000002" class="node">
<title>Node2</title>
<g id="a_Node000002"><a xlink:href="group__solver-grp.html#ga2496e6b7b64f611e920c3c4a740d9ecd" target="_top" xlink:title="Initialize QPALM solver allocating memory.">
<polygon fill="white" stroke="#666666" points="265.5,-112.5 185.5,-112.5 185.5,-93.5 265.5,-93.5 265.5,-112.5"/>
<text text-anchor="middle" x="225.5" y="-100.5" font-family="Helvetica,sans-Serif" font-size="10.00">qpalm_setup</text>
</a>
</g>
</g>
<!-- Node1&#45;&gt;Node2 -->
<g id="edge1_Node000001_Node000002" class="edge">
<title>Node1&#45;&gt;Node2</title>
<g id="a_edge1_Node000001_Node000002"><a xlink:title=" ">
<path fill="none" stroke="#63b8ff" d="M324.98,-75.36C304.16,-81.2 279.69,-88.07 260.35,-93.5"/>
<polygon fill="#63b8ff" stroke="#63b8ff" points="326.19,-78.65 334.87,-72.58 324.29,-71.91 326.19,-78.65"/>
</a>
</g>
</g>
<!-- Node4 -->
<g id="Node000004" class="node">
<title>Node4</title>
<g id="a_Node000004"><a xlink:href="group__solver-grp.html#ga586e7a22d9ed41fb2d477490fdabc875" target="_top" xlink:title="Update the lower and upper bounds.">
<polygon fill="white" stroke="#666666" points="289,-72.5 162,-72.5 162,-53.5 289,-53.5 289,-72.5"/>
<text text-anchor="middle" x="225.5" y="-60.5" font-family="Helvetica,sans-Serif" font-size="10.00">qpalm_update_bounds</text>
</a>
</g>
</g>
<!-- Node1&#45;&gt;Node4 -->
<g id="edge3_Node000001_Node000004" class="edge">
<title>Node1&#45;&gt;Node4</title>
<g id="a_edge3_Node000001_Node000004"><a xlink:title=" ">
<path fill="none" stroke="#63b8ff" d="M316.4,-63C307.48,-63 298.15,-63 289.02,-63"/>
<polygon fill="#63b8ff" stroke="#63b8ff" points="316.63,-66.5 326.63,-63 316.63,-59.5 316.63,-66.5"/>
</a>
</g>
</g>
<!-- Node6 -->
<g id="Node000006" class="node">
<title>Node6</title>
<g id="a_Node000006"><a xlink:href="group__solver-grp.html#ga349f4343b96fb674a823ae6e03634ff7" target="_top" xlink:title="Update the settings to the new settings.">
<polygon fill="white" stroke="#666666" points="291,-30.5 160,-30.5 160,-11.5 291,-11.5 291,-30.5"/>
<text text-anchor="middle" x="225.5" y="-18.5" font-family="Helvetica,sans-Serif" font-size="10.00">qpalm_update_settings</text>
</a>
</g>
</g>
<!-- Node1&#45;&gt;Node6 -->
<g id="edge5_Node000001_Node000006" class="edge">
<title>Node1&#45;&gt;Node6</title>
<g id="a_edge5_Node000001_Node000006"><a xlink:title=" ">
<path fill="none" stroke="#63b8ff" d="M327.06,-50.64C305.39,-44.25 279.35,-36.58 259.2,-30.64"/>
<polygon fill="#63b8ff" stroke="#63b8ff" points="326.08,-54 336.66,-53.47 328.06,-47.29 326.08,-54"/>
</a>
</g>
</g>
<!-- Node3 -->
<g id="Node000003" class="node">
<title>Node3</title>
<g id="a_Node000003"><a xlink:href="qpalm__fortran_8c.html#abec01161fcee665e126347b862c404c4" target="_top" xlink:title=" ">
<polygon fill="white" stroke="#666666" points="110,-115.5 14,-115.5 14,-96.5 110,-96.5 110,-115.5"/>
<text text-anchor="middle" x="62" y="-103.5" font-family="Helvetica,sans-Serif" font-size="10.00">qpalm_fortran_c</text>
</a>
</g>
</g>
<!-- Node2&#45;&gt;Node3 -->
<g id="edge2_Node000002_Node000003" class="edge">
<title>Node2&#45;&gt;Node3</title>
<g id="a_edge2_Node000002_Node000003"><a xlink:title=" ">
<path fill="none" stroke="#63b8ff" d="M175.22,-103.92C154.52,-104.3 130.54,-104.75 110.08,-105.13"/>
<polygon fill="#63b8ff" stroke="#63b8ff" points="175.47,-107.41 185.41,-103.73 175.34,-100.41 175.47,-107.41"/>
</a>
</g>
</g>
<!-- Node5 -->
<g id="Node000005" class="node">
<title>Node5</title>
<g id="a_Node000005"><a xlink:href="classqpalm_1_1Solver.html#a6df33bfd68c5b8caaaa6f726f1a9f517" target="_top" xlink:title=" ">
<polygon fill="white" stroke="#666666" points="124,-78 0,-78 0,-48 124,-48 124,-78"/>
<text text-anchor="start" x="8" y="-66" font-family="Helvetica,sans-Serif" font-size="10.00">qpalm::Solver::update</text>
<text text-anchor="middle" x="62" y="-55" font-family="Helvetica,sans-Serif" font-size="10.00">_bounds</text>
</a>
</g>
</g>
<!-- Node4&#45;&gt;Node5 -->
<g id="edge4_Node000004_Node000005" class="edge">
<title>Node4&#45;&gt;Node5</title>
<g id="a_edge4_Node000004_Node000005"><a xlink:title=" ">
<path fill="none" stroke="#63b8ff" d="M151.39,-63C142.28,-63 133.04,-63 124.14,-63"/>
<polygon fill="#63b8ff" stroke="#63b8ff" points="151.6,-66.5 161.6,-63 151.6,-59.5 151.6,-66.5"/>
</a>
</g>
</g>
<!-- Node7 -->
<g id="Node000007" class="node">
<title>Node7</title>
<g id="a_Node000007"><a xlink:href="classqpalm_1_1Solver.html#a895c0635d6fdd0a3026894697ea6903b" target="_top" xlink:title=" ">
<polygon fill="white" stroke="#666666" points="124,-30 0,-30 0,0 124,0 124,-30"/>
<text text-anchor="start" x="8" y="-18" font-family="Helvetica,sans-Serif" font-size="10.00">qpalm::Solver::update</text>
<text text-anchor="middle" x="62" y="-7" font-family="Helvetica,sans-Serif" font-size="10.00">_settings</text>
</a>
</g>
</g>
<!-- Node6&#45;&gt;Node7 -->
<g id="edge6_Node000006_Node000007" class="edge">
<title>Node6&#45;&gt;Node7</title>
<g id="a_edge6_Node000006_Node000007"><a xlink:title=" ">
<path fill="none" stroke="#63b8ff" d="M149.73,-18.22C141.15,-17.9 132.48,-17.58 124.1,-17.27"/>
<polygon fill="#63b8ff" stroke="#63b8ff" points="149.62,-21.72 159.74,-18.59 149.88,-14.73 149.62,-21.72"/>
</a>
</g>
</g>
</g>
</svg>
</svg>

<style type='text/css'>
<![CDATA[
[data-mouse-over-selected='false'] { opacity: 0.7; }
[data-mouse-over-selected='true']  { opacity: 1.0; }
]]>
</style>
<script type="application/ecmascript"><![CDATA[
document.addEventListener('DOMContentLoaded', (event) => {
  highlightEdges();
  highlightAdjacentNodes();
});
]]></script>
</svg>
