<?xml version="1.0" encoding="UTF-8" standalone="no"?>
<!DOCTYPE svg PUBLIC "-//W3C//DTD SVG 1.1//EN"
 "http://www.w3.org/Graphics/SVG/1.1/DTD/svg11.dtd">
<!-- Generated by graphviz version 2.43.0 (0)
 -->
<!-- Title: qpalm_malloc Pages: 1 -->
<svg width="541pt" height="131pt"
 viewBox="0.00 0.00 541.00 130.62" xmlns="http://www.w3.org/2000/svg" xmlns:xlink="http://www.w3.org/1999/xlink">
<g id="graph0" class="graph" transform="scale(1 1) rotate(0) translate(4 126.62)">
<title>qpalm_malloc</title>
<!-- Node1 -->
<g id="node1" class="node">
<title>Node1</title>
<g id="a_node1"><a xlink:title=" ">
<polygon fill="#999999" stroke="#666666" points="533,-81.5 447,-81.5 447,-62.5 533,-62.5 533,-81.5"/>
<text text-anchor="middle" x="490" y="-69.5" font-family="Helvetica,sans-Serif" font-size="10.00">qpalm_malloc</text>
</a>
</g>
</g>
<!-- Node2 -->
<g id="node2" class="node">
<title>Node2</title>
<g id="a_node2"><a xlink:href="util_8c.html#a14436938f89e6b14f819c58af7d9f0fe" target="_top" xlink:title="Copy settings creating a new settings structure.">
<polygon fill="white" stroke="#666666" points="411,-24.5 327,-24.5 327,-5.5 411,-5.5 411,-24.5"/>
<text text-anchor="middle" x="369" y="-12.5" font-family="Helvetica,sans-Serif" font-size="10.00">copy_settings</text>
</a>
</g>
</g>
<!-- Node1&#45;&gt;Node2 -->
<g id="edge1" class="edge">
<title>Node1&#45;&gt;Node2</title>
<path fill="none" stroke="#63b8ff" d="M459.99,-58.1C438.27,-47.7 409.14,-33.75 389.98,-24.57"/>
<polygon fill="#63b8ff" stroke="#63b8ff" points="458.55,-61.3 469.08,-62.46 461.58,-54.98 458.55,-61.3"/>
</g>
<!-- Node3 -->
<g id="node3" class="node">
<title>Node3</title>
<g id="a_node3"><a xlink:href="group__solver-grp.html#gaaff827465b1299909f394de8771baef9" target="_top" xlink:title="Initialize QPALM solver allocating memory.">
<polygon fill="white" stroke="#666666" points="265.5,-81.5 185.5,-81.5 185.5,-62.5 265.5,-62.5 265.5,-81.5"/>
<text text-anchor="middle" x="225.5" y="-69.5" font-family="Helvetica,sans-Serif" font-size="10.00">qpalm_setup</text>
</a>
</g>
</g>
<!-- Node1&#45;&gt;Node3 -->
<g id="edge7" class="edge">
<title>Node1&#45;&gt;Node3</title>
<path fill="none" stroke="#63b8ff" d="M436.77,-72C386.31,-72 311.04,-72 265.57,-72"/>
<polygon fill="#63b8ff" stroke="#63b8ff" points="436.82,-75.5 446.82,-72 436.82,-68.5 436.82,-75.5"/>
</g>
<!-- Node4 -->
<g id="node4" class="node">
<title>Node4</title>
<g id="a_node4"><a xlink:href="qpalm__fortran_8c.html#abec01161fcee665e126347b862c404c4" target="_top" xlink:title=" ">
<polygon fill="white" stroke="#666666" points="110,-102.5 14,-102.5 14,-83.5 110,-83.5 110,-102.5"/>
<text text-anchor="middle" x="62" y="-90.5" font-family="Helvetica,sans-Serif" font-size="10.00">qpalm_fortran_c</text>
</a>
</g>
</g>
<!-- Node1&#45;&gt;Node4 -->
<g id="edge6" class="edge">
<title>Node1&#45;&gt;Node4</title>
<path fill="none" stroke="#63b8ff" d="M465.91,-86.71C450.91,-95.37 430.57,-105.49 411,-110 303.43,-134.81 172.37,-115.61 105.99,-102.53"/>
<polygon fill="#63b8ff" stroke="#63b8ff" points="467.73,-89.7 474.51,-81.56 464.13,-83.69 467.73,-89.7"/>
</g>
<!-- Node7 -->
<g id="node7" class="node">
<title>Node7</title>
<g id="a_node7"><a xlink:href="lin__alg_8c.html#a256ef6c2562ed296f3c1bd23bc712f25" target="_top" xlink:title="Copy vector a into output.">
<polygon fill="white" stroke="#666666" points="400,-100.5 338,-100.5 338,-81.5 400,-81.5 400,-100.5"/>
<text text-anchor="middle" x="369" y="-88.5" font-family="Helvetica,sans-Serif" font-size="10.00">vec_copy</text>
</a>
</g>
</g>
<!-- Node1&#45;&gt;Node7 -->
<g id="edge8" class="edge">
<title>Node1&#45;&gt;Node7</title>
<path fill="none" stroke="#63b8ff" d="M436.81,-80.33C424.29,-82.33 411.33,-84.4 400.19,-86.18"/>
<polygon fill="#63b8ff" stroke="#63b8ff" points="437.39,-83.79 446.71,-78.75 436.28,-76.87 437.39,-83.79"/>
</g>
<!-- Node2&#45;&gt;Node3 -->
<g id="edge2" class="edge">
<title>Node2&#45;&gt;Node3</title>
<path fill="none" stroke="#63b8ff" d="M334.88,-28.34C308.93,-38.8 273.45,-53.09 250.26,-62.43"/>
<polygon fill="#63b8ff" stroke="#63b8ff" points="336.35,-31.52 344.32,-24.54 333.73,-25.03 336.35,-31.52"/>
</g>
<!-- Node5 -->
<g id="node5" class="node">
<title>Node5</title>
<g id="a_node5"><a xlink:href="group__solver-grp.html#ga581cf986cb484ec5721f76b025eda704" target="_top" xlink:title="Update the settings to the new settings.">
<polygon fill="white" stroke="#666666" points="291,-24.5 160,-24.5 160,-5.5 291,-5.5 291,-24.5"/>
<text text-anchor="middle" x="225.5" y="-12.5" font-family="Helvetica,sans-Serif" font-size="10.00">qpalm_update_settings</text>
</a>
</g>
</g>
<!-- Node2&#45;&gt;Node5 -->
<g id="edge4" class="edge">
<title>Node2&#45;&gt;Node5</title>
<path fill="none" stroke="#63b8ff" d="M316.46,-15C308.19,-15 299.55,-15 291.03,-15"/>
<polygon fill="#63b8ff" stroke="#63b8ff" points="316.69,-18.5 326.69,-15 316.69,-11.5 316.69,-18.5"/>
</g>
<!-- Node3&#45;&gt;Node4 -->
<g id="edge3" class="edge">
<title>Node3&#45;&gt;Node4</title>
<path fill="none" stroke="#63b8ff" d="M175.22,-78.41C154.52,-81.1 130.54,-84.22 110.08,-86.88"/>
<polygon fill="#63b8ff" stroke="#63b8ff" points="175.94,-81.84 185.41,-77.08 175.04,-74.9 175.94,-81.84"/>
</g>
<!-- Node6 -->
<g id="node6" class="node">
<title>Node6</title>
<g id="a_node6"><a xlink:href="classqpalm_1_1Solver.html#a895c0635d6fdd0a3026894697ea6903b" target="_top" xlink:title=" ">
<polygon fill="white" stroke="#666666" points="124,-30 0,-30 0,0 124,0 124,-30"/>
<text text-anchor="start" x="8" y="-18" font-family="Helvetica,sans-Serif" font-size="10.00">qpalm::Solver::update</text>
<text text-anchor="middle" x="62" y="-7" font-family="Helvetica,sans-Serif" font-size="10.00">_settings</text>
</a>
</g>
</g>
<!-- Node5&#45;&gt;Node6 -->
<g id="edge5" class="edge">
<title>Node5&#45;&gt;Node6</title>
<path fill="none" stroke="#63b8ff" d="M149.73,-15C141.15,-15 132.48,-15 124.1,-15"/>
<polygon fill="#63b8ff" stroke="#63b8ff" points="149.74,-18.5 159.74,-15 149.74,-11.5 149.74,-18.5"/>
</g>
<!-- Node7&#45;&gt;Node3 -->
<g id="edge9" class="edge">
<title>Node7&#45;&gt;Node3</title>
<path fill="none" stroke="#63b8ff" d="M327.89,-85.61C308.37,-82.99 284.99,-79.85 265.61,-77.25"/>
<polygon fill="#63b8ff" stroke="#63b8ff" points="327.61,-89.11 337.99,-86.97 328.55,-82.17 327.61,-89.11"/>
</g>
</g>
</svg>
