<?xml version="1.0" encoding="UTF-8" standalone="no"?>
<!DOCTYPE svg PUBLIC "-//W3C//DTD SVG 1.1//EN"
 "http://www.w3.org/Graphics/SVG/1.1/DTD/svg11.dtd">
<!-- Generated by graphviz version 2.43.0 (0)
 -->
<!-- Title: qpalm_warm_start Pages: 1 -->
<svg width="241pt" height="138pt"
 viewBox="0.00 0.00 241.00 138.00" xmlns="http://www.w3.org/2000/svg" xmlns:xlink="http://www.w3.org/1999/xlink">
<g id="graph0" class="graph" transform="scale(1 1) rotate(0) translate(4 134)">
<title>qpalm_warm_start</title>
<!-- Node1 -->
<g id="node1" class="node">
<title>Node1</title>
<g id="a_node1"><a xlink:title="Warm start workspace variables x, x_0, x_prev, Ax, Qx, y and sigma.">
<polygon fill="#999999" stroke="#666666" points="108,-74 0,-74 0,-55 108,-55 108,-74"/>
<text text-anchor="middle" x="54" y="-62" font-family="Helvetica,sans-Serif" font-size="10.00">qpalm_warm_start</text>
</a>
</g>
</g>
<!-- Node2 -->
<g id="node2" class="node">
<title>Node2</title>
<g id="a_node2"><a xlink:href="lin__alg_8c.html#acf468a60c38fbc58b6de539acb6f0a3b" target="_top" xlink:title="Copy vector a into preallocated vector b.">
<polygon fill="white" stroke="#666666" points="233,-130 144,-130 144,-111 233,-111 233,-130"/>
<text text-anchor="middle" x="188.5" y="-118" font-family="Helvetica,sans-Serif" font-size="10.00">prea_vec_copy</text>
</a>
</g>
</g>
<!-- Node1&#45;&gt;Node2 -->
<g id="edge1" class="edge">
<title>Node1&#45;&gt;Node2</title>
<path fill="none" stroke="#63b8ff" d="M77.28,-74.1C95.27,-81.82 121.23,-92.93 144,-102.5 147.44,-103.95 151.04,-105.45 154.63,-106.95"/>
<polygon fill="#63b8ff" stroke="#63b8ff" points="153.42,-110.23 164,-110.83 156.11,-103.77 153.42,-110.23"/>
</g>
<!-- Node3 -->
<g id="node3" class="node">
<title>Node3</title>
<g id="a_node3"><a xlink:href="global__opts_8c.html#a057129daf1349d96b074b9dca1994d09" target="_top" xlink:title=" ">
<polygon fill="white" stroke="#666666" points="224.5,-93 152.5,-93 152.5,-74 224.5,-74 224.5,-93"/>
<text text-anchor="middle" x="188.5" y="-81" font-family="Helvetica,sans-Serif" font-size="10.00">qpalm_free</text>
</a>
</g>
</g>
<!-- Node1&#45;&gt;Node3 -->
<g id="edge2" class="edge">
<title>Node1&#45;&gt;Node3</title>
<path fill="none" stroke="#63b8ff" d="M108.13,-72.12C119.37,-73.73 131.13,-75.42 142.06,-76.98"/>
<polygon fill="#63b8ff" stroke="#63b8ff" points="141.83,-80.49 152.23,-78.44 142.83,-73.56 141.83,-80.49"/>
</g>
<!-- Node4 -->
<g id="node4" class="node">
<title>Node4</title>
<g id="a_node4"><a xlink:href="util_8h.html#aae57226ec767e15f27d88e97df093b41" target="_top" xlink:title="Start timer.">
<polygon fill="white" stroke="#666666" points="221,-56 156,-56 156,-37 221,-37 221,-56"/>
<text text-anchor="middle" x="188.5" y="-44" font-family="Helvetica,sans-Serif" font-size="10.00">qpalm_tic</text>
</a>
</g>
</g>
<!-- Node1&#45;&gt;Node4 -->
<g id="edge3" class="edge">
<title>Node1&#45;&gt;Node4</title>
<path fill="none" stroke="#63b8ff" d="M108.13,-57.28C120.6,-55.59 133.72,-53.81 145.62,-52.19"/>
<polygon fill="#63b8ff" stroke="#63b8ff" points="146.28,-55.63 155.72,-50.82 145.34,-48.7 146.28,-55.63"/>
</g>
<!-- Node5 -->
<g id="node5" class="node">
<title>Node5</title>
<g id="a_node5"><a xlink:href="util_8h.html#a6eecdaf6f3f1c4bf0ab1067a5e7e69da" target="_top" xlink:title="Report time in seconds since last call to qpalm_tic.">
<polygon fill="white" stroke="#666666" points="222.5,-19 154.5,-19 154.5,0 222.5,0 222.5,-19"/>
<text text-anchor="middle" x="188.5" y="-7" font-family="Helvetica,sans-Serif" font-size="10.00">qpalm_toc</text>
</a>
</g>
</g>
<!-- Node1&#45;&gt;Node5 -->
<g id="edge4" class="edge">
<title>Node1&#45;&gt;Node5</title>
<path fill="none" stroke="#63b8ff" d="M78.08,-54.92C99.32,-46.1 131.06,-32.93 154.89,-23.04"/>
<polygon fill="#63b8ff" stroke="#63b8ff" points="156.35,-26.22 164.24,-19.16 153.66,-19.76 156.35,-26.22"/>
</g>
</g>
</svg>
