<?xml version="1.0" encoding="UTF-8" standalone="no"?>
<!DOCTYPE svg PUBLIC "-//W3C//DTD SVG 1.1//EN"
 "http://www.w3.org/Graphics/SVG/1.1/DTD/svg11.dtd">
<!-- Generated by graphviz version 2.43.0 (0)
 -->
<!-- Title: qpalm_cleanup Pages: 1 -->
<svg width="257pt" height="86pt"
 viewBox="0.00 0.00 257.00 86.00" xmlns="http://www.w3.org/2000/svg" xmlns:xlink="http://www.w3.org/1999/xlink">
<g id="graph0" class="graph" transform="scale(1 1) rotate(0) translate(4 82)">
<title>qpalm_cleanup</title>
<!-- Node1 -->
<g id="node1" class="node">
<title>Node1</title>
<g id="a_node1"><a xlink:title="Cleanup the workspace by deallocating memory.">
<polygon fill="#999999" stroke="#666666" points="249,-43 158,-43 158,-24 249,-24 249,-43"/>
<text text-anchor="middle" x="203.5" y="-31" font-family="Helvetica,sans-Serif" font-size="10.00">qpalm_cleanup</text>
</a>
</g>
</g>
<!-- Node2 -->
<g id="node2" class="node">
<title>Node2</title>
<g id="a_node2"><a xlink:href="structqpalm_1_1alloc_1_1qpalm__workspace__cleaner.html#a0153941f8aa59d256f436151041815ef" target="_top" xlink:title=" ">
<polygon fill="white" stroke="#666666" points="122,-78 0,-78 0,-37 122,-37 122,-78"/>
<text text-anchor="start" x="8" y="-66" font-family="Helvetica,sans-Serif" font-size="10.00">qpalm::alloc::qpalm</text>
<text text-anchor="start" x="8" y="-55" font-family="Helvetica,sans-Serif" font-size="10.00">_workspace_cleaner::</text>
<text text-anchor="middle" x="61" y="-44" font-family="Helvetica,sans-Serif" font-size="10.00">operator()</text>
</a>
</g>
</g>
<!-- Node1&#45;&gt;Node2 -->
<g id="edge1" class="edge">
<title>Node1&#45;&gt;Node2</title>
<path fill="none" stroke="#63b8ff" d="M147.62,-42.87C139.23,-44.31 130.54,-45.79 122.05,-47.24"/>
<polygon fill="#63b8ff" stroke="#63b8ff" points="148.39,-46.29 157.66,-41.16 147.21,-39.39 148.39,-46.29"/>
</g>
<!-- Node3 -->
<g id="node3" class="node">
<title>Node3</title>
<g id="a_node3"><a xlink:href="qpalm__fortran_8c.html#abec01161fcee665e126347b862c404c4" target="_top" xlink:title=" ">
<polygon fill="white" stroke="#666666" points="109,-19 13,-19 13,0 109,0 109,-19"/>
<text text-anchor="middle" x="61" y="-7" font-family="Helvetica,sans-Serif" font-size="10.00">qpalm_fortran_c</text>
</a>
</g>
</g>
<!-- Node1&#45;&gt;Node3 -->
<g id="edge2" class="edge">
<title>Node1&#45;&gt;Node3</title>
<path fill="none" stroke="#63b8ff" d="M147.68,-24.14C135.01,-21.97 121.64,-19.69 109.32,-17.58"/>
<polygon fill="#63b8ff" stroke="#63b8ff" points="147.21,-27.61 157.66,-25.84 148.39,-20.71 147.21,-27.61"/>
</g>
</g>
</svg>
