<?xml version="1.0" encoding="UTF-8" standalone="no"?>
<!DOCTYPE svg PUBLIC "-//W3C//DTD SVG 1.1//EN"
 "http://www.w3.org/Graphics/SVG/1.1/DTD/svg11.dtd">
<!-- Generated by graphviz version 2.43.0 (0)
 -->
<!-- Title: qpalm_setup Pages: 1 -->
<svg width="380pt" height="401pt"
 viewBox="0.00 0.00 380.00 400.74" xmlns="http://www.w3.org/2000/svg" xmlns:xlink="http://www.w3.org/1999/xlink">
<g id="graph0" class="graph" transform="scale(1 1) rotate(0) translate(4 396.74)">
<title>qpalm_setup</title>
<!-- Node1 -->
<g id="node1" class="node">
<title>Node1</title>
<g id="a_node1"><a xlink:title="Initialize QPALM solver allocating memory.">
<polygon fill="#999999" stroke="#666666" points="80,-204 0,-204 0,-185 80,-185 80,-204"/>
<text text-anchor="middle" x="40" y="-192" font-family="Helvetica,sans-Serif" font-size="10.00">qpalm_setup</text>
</a>
</g>
</g>
<!-- Node2 -->
<g id="node2" class="node">
<title>Node2</title>
<g id="a_node2"><a xlink:href="util_8c.html#a14436938f89e6b14f819c58af7d9f0fe" target="_top" xlink:title="Copy settings creating a new settings structure.">
<polygon fill="white" stroke="#666666" points="225,-167 141,-167 141,-148 225,-148 225,-167"/>
<text text-anchor="middle" x="183" y="-155" font-family="Helvetica,sans-Serif" font-size="10.00">copy_settings</text>
</a>
</g>
</g>
<!-- Node1&#45;&gt;Node2 -->
<g id="edge1" class="edge">
<title>Node1&#45;&gt;Node2</title>
<path fill="none" stroke="#63b8ff" d="M77.31,-184.97C95.02,-180.33 116.52,-174.68 135.42,-169.72"/>
<polygon fill="#63b8ff" stroke="#63b8ff" points="136.54,-173.05 145.32,-167.12 134.76,-166.28 136.54,-173.05"/>
</g>
<!-- Node3 -->
<g id="node3" class="node">
<title>Node3</title>
<g id="a_node3"><a xlink:href="global__opts_8c.html#a9a15c13f16dd6467bcee00e8bf62666a" target="_top" xlink:title=" ">
<polygon fill="white" stroke="#666666" points="372,-364 286,-364 286,-345 372,-345 372,-364"/>
<text text-anchor="middle" x="329" y="-352" font-family="Helvetica,sans-Serif" font-size="10.00">qpalm_malloc</text>
</a>
</g>
</g>
<!-- Node1&#45;&gt;Node3 -->
<g id="edge4" class="edge">
<title>Node1&#45;&gt;Node3</title>
<path fill="none" stroke="#63b8ff" d="M41.55,-204.15C43.89,-235.31 55.97,-333.56 116,-373.5 171.78,-410.61 254.87,-385.63 298.62,-367.89"/>
<polygon fill="#63b8ff" stroke="#63b8ff" points="299.98,-371.12 307.84,-364.02 297.27,-364.66 299.98,-371.12"/>
</g>
<!-- Node4 -->
<g id="node4" class="node">
<title>Node4</title>
<g id="a_node4"><a xlink:href="global__opts_8c.html#aa314b2eeaa0227e26c26bae34424f36f" target="_top" xlink:title=" ">
<polygon fill="white" stroke="#666666" points="223.5,-327 142.5,-327 142.5,-308 223.5,-308 223.5,-327"/>
<text text-anchor="middle" x="183" y="-315" font-family="Helvetica,sans-Serif" font-size="10.00">qpalm_calloc</text>
</a>
</g>
</g>
<!-- Node1&#45;&gt;Node4 -->
<g id="edge3" class="edge">
<title>Node1&#45;&gt;Node4</title>
<path fill="none" stroke="#63b8ff" d="M45.25,-204.19C54.8,-224.79 79.95,-273.14 116,-298.5 121.12,-302.1 126.92,-305.03 132.89,-307.4"/>
<polygon fill="#63b8ff" stroke="#63b8ff" points="131.77,-310.71 142.37,-310.69 134.07,-304.1 131.77,-310.71"/>
</g>
<!-- Node5 -->
<g id="node5" class="node">
<title>Node5</title>
<g id="a_node5"><a xlink:href="solver__interface_8c.html#a5b96b0c905b3ac7ef76d6b780d462ec7" target="_top" xlink:title="Choose the linear systems solver method based on the problem data sizes.">
<polygon fill="white" stroke="#666666" points="250,-289.5 116,-289.5 116,-259.5 250,-259.5 250,-289.5"/>
<text text-anchor="start" x="124" y="-277.5" font-family="Helvetica,sans-Serif" font-size="10.00">qpalm_set_factorization</text>
<text text-anchor="middle" x="183" y="-266.5" font-family="Helvetica,sans-Serif" font-size="10.00">_method</text>
</a>
</g>
</g>
<!-- Node1&#45;&gt;Node5 -->
<g id="edge5" class="edge">
<title>Node1&#45;&gt;Node5</title>
<path fill="none" stroke="#63b8ff" d="M51.98,-204.34C66,-216.51 91.41,-237.22 116,-250.5 119.1,-252.17 122.34,-253.77 125.64,-255.3"/>
<polygon fill="#63b8ff" stroke="#63b8ff" points="124.53,-258.63 135.09,-259.38 127.3,-252.2 124.53,-258.63"/>
</g>
<!-- Node6 -->
<g id="node6" class="node">
<title>Node6</title>
<g id="a_node6"><a xlink:href="util_8h.html#aae57226ec767e15f27d88e97df093b41" target="_top" xlink:title="Start timer.">
<polygon fill="white" stroke="#666666" points="215.5,-241 150.5,-241 150.5,-222 215.5,-222 215.5,-241"/>
<text text-anchor="middle" x="183" y="-229" font-family="Helvetica,sans-Serif" font-size="10.00">qpalm_tic</text>
</a>
</g>
</g>
<!-- Node1&#45;&gt;Node6 -->
<g id="edge6" class="edge">
<title>Node1&#45;&gt;Node6</title>
<path fill="none" stroke="#63b8ff" d="M77.31,-204.03C96.58,-209.08 120.34,-215.32 140.35,-220.57"/>
<polygon fill="#63b8ff" stroke="#63b8ff" points="139.57,-223.98 150.13,-223.14 141.35,-217.21 139.57,-223.98"/>
</g>
<!-- Node7 -->
<g id="node7" class="node">
<title>Node7</title>
<g id="a_node7"><a xlink:href="util_8h.html#a6eecdaf6f3f1c4bf0ab1067a5e7e69da" target="_top" xlink:title="Report time in seconds since last call to qpalm_tic.">
<polygon fill="white" stroke="#666666" points="217,-204 149,-204 149,-185 217,-185 217,-204"/>
<text text-anchor="middle" x="183" y="-192" font-family="Helvetica,sans-Serif" font-size="10.00">qpalm_toc</text>
</a>
</g>
</g>
<!-- Node1&#45;&gt;Node7 -->
<g id="edge7" class="edge">
<title>Node1&#45;&gt;Node7</title>
<path fill="none" stroke="#63b8ff" d="M80.28,-194.5C98.34,-194.5 119.84,-194.5 138.41,-194.5"/>
<polygon fill="#63b8ff" stroke="#63b8ff" points="138.66,-198 148.66,-194.5 138.66,-191 138.66,-198"/>
</g>
<!-- Node8 -->
<g id="node8" class="node">
<title>Node8</title>
<g id="a_node8"><a xlink:href="util_8c.html#a14fe651105f1f38b2a3a49614f4b8ae2" target="_top" xlink:title="Update solver status (value and string).">
<polygon fill="white" stroke="#666666" points="226,-56 140,-56 140,-37 226,-37 226,-56"/>
<text text-anchor="middle" x="183" y="-44" font-family="Helvetica,sans-Serif" font-size="10.00">update_status</text>
</a>
</g>
</g>
<!-- Node1&#45;&gt;Node8 -->
<g id="edge8" class="edge">
<title>Node1&#45;&gt;Node8</title>
<path fill="none" stroke="#63b8ff" d="M43.71,-184.96C51.05,-160.86 73.7,-97.12 116,-64.5 120.35,-61.15 125.28,-58.42 130.44,-56.19"/>
<polygon fill="#63b8ff" stroke="#63b8ff" points="131.73,-59.45 139.91,-52.72 129.32,-52.88 131.73,-59.45"/>
</g>
<!-- Node10 -->
<g id="node10" class="node">
<title>Node10</title>
<g id="a_node10"><a xlink:href="validate_8c.html#a095cca2f68e07f3b0ebd35a2f4a12d9b" target="_top" xlink:title="Validate problem data.">
<polygon fill="white" stroke="#666666" points="224.5,-130 141.5,-130 141.5,-111 224.5,-111 224.5,-130"/>
<text text-anchor="middle" x="183" y="-118" font-family="Helvetica,sans-Serif" font-size="10.00">validate_data</text>
</a>
</g>
</g>
<!-- Node1&#45;&gt;Node10 -->
<g id="edge10" class="edge">
<title>Node1&#45;&gt;Node10</title>
<path fill="none" stroke="#63b8ff" d="M51.39,-185C65.2,-172.84 90.78,-151.89 116,-139.5 120.95,-137.07 126.27,-134.9 131.65,-132.97"/>
<polygon fill="#63b8ff" stroke="#63b8ff" points="132.97,-136.22 141.37,-129.76 130.77,-129.57 132.97,-136.22"/>
</g>
<!-- Node11 -->
<g id="node11" class="node">
<title>Node11</title>
<g id="a_node11"><a xlink:href="validate_8c.html#aa3fa0338cebc63078430fed1211df147" target="_top" xlink:title="Validate problem settings.">
<polygon fill="white" stroke="#666666" points="233.5,-93 132.5,-93 132.5,-74 233.5,-74 233.5,-93"/>
<text text-anchor="middle" x="183" y="-81" font-family="Helvetica,sans-Serif" font-size="10.00">validate_settings</text>
</a>
</g>
</g>
<!-- Node1&#45;&gt;Node11 -->
<g id="edge11" class="edge">
<title>Node1&#45;&gt;Node11</title>
<path fill="none" stroke="#63b8ff" d="M46.2,-184.8C56.77,-166 82.64,-124.53 116,-102.5 119.12,-100.44 122.46,-98.6 125.93,-96.96"/>
<polygon fill="#63b8ff" stroke="#63b8ff" points="127.44,-100.12 135.33,-93.05 124.75,-93.66 127.44,-100.12"/>
</g>
<!-- Node12 -->
<g id="node12" class="node">
<title>Node12</title>
<g id="a_node12"><a xlink:href="lin__alg_8c.html#a256ef6c2562ed296f3c1bd23bc712f25" target="_top" xlink:title="Copy vector a into output.">
<polygon fill="white" stroke="#666666" points="214,-364 152,-364 152,-345 214,-345 214,-364"/>
<text text-anchor="middle" x="183" y="-352" font-family="Helvetica,sans-Serif" font-size="10.00">vec_copy</text>
</a>
</g>
</g>
<!-- Node1&#45;&gt;Node12 -->
<g id="edge12" class="edge">
<title>Node1&#45;&gt;Node12</title>
<path fill="none" stroke="#63b8ff" d="M43.24,-204.15C49.72,-229.84 70.96,-300.41 116,-336.5 123.42,-342.45 132.65,-346.43 141.84,-349.1"/>
<polygon fill="#63b8ff" stroke="#63b8ff" points="141.15,-352.54 151.7,-351.52 142.82,-345.74 141.15,-352.54"/>
</g>
<!-- Node13 -->
<g id="node13" class="node">
<title>Node13</title>
<g id="a_node13"><a xlink:href="lin__alg_8c.html#a7e2e62d3c501d9f6df8410658c73a1ad" target="_top" xlink:title="Fill int vector with a scalar value.">
<polygon fill="white" stroke="#666666" points="236.5,-19 129.5,-19 129.5,0 236.5,0 236.5,-19"/>
<text text-anchor="middle" x="183" y="-7" font-family="Helvetica,sans-Serif" font-size="10.00">vec_set_scalar_int</text>
</a>
</g>
</g>
<!-- Node1&#45;&gt;Node13 -->
<g id="edge14" class="edge">
<title>Node1&#45;&gt;Node13</title>
<path fill="none" stroke="#63b8ff" d="M42.41,-184.87C47.13,-156.27 65.03,-71.08 116,-27.5 117.37,-26.33 118.8,-25.24 120.29,-24.22"/>
<polygon fill="#63b8ff" stroke="#63b8ff" points="122.36,-27.07 129.35,-19.1 118.92,-20.97 122.36,-27.07"/>
</g>
<!-- Node2&#45;&gt;Node3 -->
<g id="edge2" class="edge">
<title>Node2&#45;&gt;Node3</title>
<path fill="none" stroke="#63b8ff" d="M225.2,-163.4C234.14,-166.22 243,-170.37 250,-176.5 298.77,-219.2 318.27,-298.06 324.96,-334.76"/>
<polygon fill="#63b8ff" stroke="#63b8ff" points="321.53,-335.43 326.65,-344.71 328.43,-334.26 321.53,-335.43"/>
</g>
<!-- Node9 -->
<g id="node9" class="node">
<title>Node9</title>
<g id="a_node9"><a xlink:href="util_8c.html#a7645b56a91479fac2285909a25875b91" target="_top" xlink:title="Custom string copy to avoid string.h library.">
<polygon fill="white" stroke="#666666" points="357.5,-56 300.5,-56 300.5,-37 357.5,-37 357.5,-56"/>
<text text-anchor="middle" x="329" y="-44" font-family="Helvetica,sans-Serif" font-size="10.00">c_strcpy</text>
</a>
</g>
</g>
<!-- Node8&#45;&gt;Node9 -->
<g id="edge9" class="edge">
<title>Node8&#45;&gt;Node9</title>
<path fill="none" stroke="#63b8ff" d="M226.04,-46.5C246.3,-46.5 270.42,-46.5 290.12,-46.5"/>
<polygon fill="#63b8ff" stroke="#63b8ff" points="290.26,-50 300.26,-46.5 290.26,-43 290.26,-50"/>
</g>
<!-- Node12&#45;&gt;Node3 -->
<g id="edge13" class="edge">
<title>Node12&#45;&gt;Node3</title>
<path fill="none" stroke="#63b8ff" d="M214.19,-354.5C231.97,-354.5 254.95,-354.5 275.61,-354.5"/>
<polygon fill="#63b8ff" stroke="#63b8ff" points="275.84,-358 285.84,-354.5 275.84,-351 275.84,-358"/>
</g>
</g>
</svg>
