<?xml version="1.0" encoding="UTF-8" standalone="no"?>
<!DOCTYPE svg PUBLIC "-//W3C//DTD SVG 1.1//EN"
 "http://www.w3.org/Graphics/SVG/1.1/DTD/svg11.dtd">
<!-- Generated by graphviz version 2.43.0 (0)
 -->
<!-- Title: vec_ew_div Pages: 1 -->
<svg width="851pt" height="76pt"
 viewBox="0.00 0.00 851.00 75.50" xmlns="http://www.w3.org/2000/svg" xmlns:xlink="http://www.w3.org/1999/xlink">
<g id="graph0" class="graph" transform="scale(1 1) rotate(0) translate(4 71.5)">
<title>vec_ew_div</title>
<!-- Node1 -->
<g id="node1" class="node">
<title>Node1</title>
<g id="a_node1"><a xlink:title="Elementwise division, .">
<polygon fill="#999999" stroke="#666666" points="843,-45.5 769,-45.5 769,-26.5 843,-26.5 843,-45.5"/>
<text text-anchor="middle" x="806" y="-33.5" font-family="Helvetica,sans-Serif" font-size="10.00">vec_ew_div</text>
</a>
</g>
</g>
<!-- Node2 -->
<g id="node2" class="node">
<title>Node2</title>
<g id="a_node2"><a xlink:href="linesearch_8c.html#a647cabae1574f21e412110765ea1e70d" target="_top" xlink:title="Execute exact linesearch (using qsort)">
<polygon fill="white" stroke="#666666" points="712.5,-65.5 613.5,-65.5 613.5,-46.5 712.5,-46.5 712.5,-65.5"/>
<text text-anchor="middle" x="663" y="-53.5" font-family="Helvetica,sans-Serif" font-size="10.00">exact_linesearch</text>
</a>
</g>
</g>
<!-- Node1&#45;&gt;Node2 -->
<g id="edge1" class="edge">
<title>Node1&#45;&gt;Node2</title>
<path fill="none" stroke="#63b8ff" d="M758.76,-42.56C744,-44.65 727.61,-46.98 712.68,-49.1"/>
<polygon fill="#63b8ff" stroke="#63b8ff" points="759.28,-46.02 768.69,-41.15 758.3,-39.09 759.28,-46.02"/>
</g>
<!-- Node7 -->
<g id="node7" class="node">
<title>Node7</title>
<g id="a_node7"><a xlink:href="iteration_8c.html#a95e8560aaf51a2c4f68de9b65b0c6a15" target="_top" xlink:title=" ">
<polygon fill="white" stroke="#666666" points="733,-27.5 593,-27.5 593,-8.5 733,-8.5 733,-27.5"/>
<text text-anchor="middle" x="663" y="-15.5" font-family="Helvetica,sans-Serif" font-size="10.00">update_or_boost_gamma</text>
</a>
</g>
</g>
<!-- Node1&#45;&gt;Node7 -->
<g id="edge6" class="edge">
<title>Node1&#45;&gt;Node7</title>
<path fill="none" stroke="#63b8ff" d="M758.61,-30.08C750.41,-29.03 741.72,-27.92 733.05,-26.82"/>
<polygon fill="#63b8ff" stroke="#63b8ff" points="758.33,-33.57 768.69,-31.36 759.21,-26.63 758.33,-33.57"/>
</g>
<!-- Node3 -->
<g id="node3" class="node">
<title>Node3</title>
<g id="a_node3"><a xlink:href="iteration_8c.html#a9c9fafac9ce099122c5a594762e5a052" target="_top" xlink:title="Update the primal iterate.">
<polygon fill="white" stroke="#666666" points="392,-67.5 267,-67.5 267,-48.5 392,-48.5 392,-67.5"/>
<text text-anchor="middle" x="329.5" y="-55.5" font-family="Helvetica,sans-Serif" font-size="10.00">update_primal_iterate</text>
</a>
</g>
</g>
<!-- Node2&#45;&gt;Node3 -->
<g id="edge2" class="edge">
<title>Node2&#45;&gt;Node3</title>
<path fill="none" stroke="#63b8ff" d="M603.11,-56.36C543.75,-56.71 452.52,-57.26 392.18,-57.63"/>
<polygon fill="#63b8ff" stroke="#63b8ff" points="603.46,-59.85 613.44,-56.29 603.42,-52.85 603.46,-59.85"/>
</g>
<!-- Node4 -->
<g id="node4" class="node">
<title>Node4</title>
<g id="a_node4"><a xlink:href="group__solver-grp.html#ga9bbc8b47dfd2e86a81dd77feb4077bde" target="_top" xlink:title="Solve the quadratic program.">
<polygon fill="white" stroke="#666666" points="231,-45.5 152,-45.5 152,-26.5 231,-26.5 231,-45.5"/>
<text text-anchor="middle" x="191.5" y="-33.5" font-family="Helvetica,sans-Serif" font-size="10.00">qpalm_solve</text>
</a>
</g>
</g>
<!-- Node3&#45;&gt;Node4 -->
<g id="edge3" class="edge">
<title>Node3&#45;&gt;Node4</title>
<path fill="none" stroke="#63b8ff" d="M259.48,-46.83C249.7,-45.25 239.95,-43.68 231.04,-42.24"/>
<polygon fill="#63b8ff" stroke="#63b8ff" points="259.21,-50.34 269.64,-48.48 260.33,-43.43 259.21,-50.34"/>
</g>
<!-- Node5 -->
<g id="node5" class="node">
<title>Node5</title>
<g id="a_node5"><a xlink:href="qpalm__fortran_8c.html#abec01161fcee665e126347b862c404c4" target="_top" xlink:title=" ">
<polygon fill="white" stroke="#666666" points="106,-64.5 10,-64.5 10,-45.5 106,-45.5 106,-64.5"/>
<text text-anchor="middle" x="58" y="-52.5" font-family="Helvetica,sans-Serif" font-size="10.00">qpalm_fortran_c</text>
</a>
</g>
</g>
<!-- Node4&#45;&gt;Node5 -->
<g id="edge4" class="edge">
<title>Node4&#45;&gt;Node5</title>
<path fill="none" stroke="#63b8ff" d="M141.8,-43.04C130.2,-44.71 117.85,-46.5 106.31,-48.16"/>
<polygon fill="#63b8ff" stroke="#63b8ff" points="142.36,-46.49 151.76,-41.6 141.36,-39.56 142.36,-46.49"/>
</g>
<!-- Node6 -->
<g id="node6" class="node">
<title>Node6</title>
<g id="a_node6"><a xlink:href="classqpalm_1_1Solver.html#a7d723d189a812ffa19d688b7aa38ccca" target="_top" xlink:title="Solve the problem.">
<polygon fill="white" stroke="#666666" points="116,-27.5 0,-27.5 0,-8.5 116,-8.5 116,-27.5"/>
<text text-anchor="middle" x="58" y="-15.5" font-family="Helvetica,sans-Serif" font-size="10.00">qpalm::Solver::solve</text>
</a>
</g>
</g>
<!-- Node4&#45;&gt;Node6 -->
<g id="edge5" class="edge">
<title>Node4&#45;&gt;Node6</title>
<path fill="none" stroke="#63b8ff" d="M141.62,-29.31C133.43,-28.19 124.86,-27.02 116.47,-25.87"/>
<polygon fill="#63b8ff" stroke="#63b8ff" points="141.37,-32.81 151.76,-30.7 142.32,-25.87 141.37,-32.81"/>
</g>
<!-- Node8 -->
<g id="node8" class="node">
<title>Node8</title>
<g id="a_node8"><a xlink:href="iteration_8c.html#a786f2d2af82a141fe3825a3964659d50" target="_top" xlink:title=" ">
<polygon fill="white" stroke="#666666" points="557,-30 428,-30 428,0 557,0 557,-30"/>
<text text-anchor="start" x="436" y="-18" font-family="Helvetica,sans-Serif" font-size="10.00">update_proximal_point</text>
<text text-anchor="middle" x="492.5" y="-7" font-family="Helvetica,sans-Serif" font-size="10.00">_and_penalty</text>
</a>
</g>
</g>
<!-- Node7&#45;&gt;Node8 -->
<g id="edge7" class="edge">
<title>Node7&#45;&gt;Node8</title>
<path fill="none" stroke="#63b8ff" d="M582.93,-16.59C574.33,-16.44 565.65,-16.28 557.26,-16.14"/>
<polygon fill="#63b8ff" stroke="#63b8ff" points="582.92,-20.09 592.98,-16.77 583.04,-13.09 582.92,-20.09"/>
</g>
<!-- Node9 -->
<g id="node9" class="node">
<title>Node9</title>
<g id="a_node9"><a xlink:href="iteration_8c.html#a1ad7b6cb4924a8de3378ed35890b02e7" target="_top" xlink:title=" ">
<polygon fill="white" stroke="#666666" points="386.5,-30 272.5,-30 272.5,0 386.5,0 386.5,-30"/>
<text text-anchor="start" x="280.5" y="-18" font-family="Helvetica,sans-Serif" font-size="10.00">update_dual_iterate</text>
<text text-anchor="middle" x="329.5" y="-7" font-family="Helvetica,sans-Serif" font-size="10.00">_and_parameters</text>
</a>
</g>
</g>
<!-- Node8&#45;&gt;Node9 -->
<g id="edge8" class="edge">
<title>Node8&#45;&gt;Node9</title>
<path fill="none" stroke="#63b8ff" d="M417.55,-15C407.16,-15 396.62,-15 386.63,-15"/>
<polygon fill="#63b8ff" stroke="#63b8ff" points="417.87,-18.5 427.87,-15 417.87,-11.5 417.87,-18.5"/>
</g>
<!-- Node9&#45;&gt;Node4 -->
<g id="edge9" class="edge">
<title>Node9&#45;&gt;Node4</title>
<path fill="none" stroke="#63b8ff" d="M262.21,-25.24C251.53,-26.88 240.8,-28.54 231.06,-30.05"/>
<polygon fill="#63b8ff" stroke="#63b8ff" points="263.05,-28.65 272.4,-23.66 261.98,-21.73 263.05,-28.65"/>
</g>
</g>
</svg>
