<?xml version="1.0" encoding="UTF-8" standalone="no"?>
<!DOCTYPE svg PUBLIC "-//W3C//DTD SVG 1.1//EN"
 "http://www.w3.org/Graphics/SVG/1.1/DTD/svg11.dtd">
<!-- Generated by graphviz version 2.43.0 (0)
 -->
<!-- Title: QPALM/include/newton.h Pages: 1 -->
<svg width="153pt" height="192pt"
 viewBox="0.00 0.00 152.50 192.00" xmlns="http://www.w3.org/2000/svg" xmlns:xlink="http://www.w3.org/1999/xlink">
<g id="graph0" class="graph" transform="scale(1 1) rotate(0) translate(4 188)">
<title>QPALM/include/newton.h</title>
<!-- Node1 -->
<g id="node1" class="node">
<title>Node1</title>
<g id="a_node1"><a xlink:title="Functions to calculate the semismooth Newton direction.">
<polygon fill="#999999" stroke="#666666" points="137,-184 0,-184 0,-165 137,-165 137,-184"/>
<text text-anchor="middle" x="68.5" y="-172" font-family="Helvetica,sans-Serif" font-size="10.00">QPALM/include/newton.h</text>
</a>
</g>
</g>
<!-- Node2 -->
<g id="node2" class="node">
<title>Node2</title>
<g id="a_node2"><a xlink:href="types_8h.html" target="_top" xlink:title="Internal data structures used in QPALM.">
<polygon fill="white" stroke="#666666" points="95,-129 42,-129 42,-110 95,-110 95,-129"/>
<text text-anchor="middle" x="68.5" y="-117" font-family="Helvetica,sans-Serif" font-size="10.00">types.h</text>
</a>
</g>
</g>
<!-- Node1&#45;&gt;Node2 -->
<g id="edge1" class="edge">
<title>Node1&#45;&gt;Node2</title>
<path fill="none" stroke="#63b8ff" d="M68.5,-164.75C68.5,-157.8 68.5,-147.85 68.5,-139.13"/>
<polygon fill="#63b8ff" stroke="#63b8ff" points="72,-139.09 68.5,-129.09 65,-139.09 72,-139.09"/>
</g>
<!-- Node3 -->
<g id="node3" class="node">
<title>Node3</title>
<g id="a_node3"><a xlink:href="global__opts_8h.html" target="_top" xlink:title="Custom memory allocation, print and utility functions, and data types for floats and ints.">
<polygon fill="white" stroke="#666666" points="144.5,-74 62.5,-74 62.5,-55 144.5,-55 144.5,-74"/>
<text text-anchor="middle" x="103.5" y="-62" font-family="Helvetica,sans-Serif" font-size="10.00">global_opts.h</text>
</a>
</g>
</g>
<!-- Node2&#45;&gt;Node3 -->
<g id="edge2" class="edge">
<title>Node2&#45;&gt;Node3</title>
<path fill="none" stroke="#63b8ff" d="M74.28,-109.75C79.12,-102.42 86.18,-91.73 92.14,-82.7"/>
<polygon fill="#63b8ff" stroke="#63b8ff" points="95.24,-84.36 97.83,-74.09 89.4,-80.5 95.24,-84.36"/>
</g>
<!-- Node4 -->
<g id="node4" class="node">
<title>Node4</title>
<g id="a_node4"><a xlink:title=" ">
<polygon fill="#e0e0e0" stroke="#999999" points="59.5,-19 9.5,-19 9.5,0 59.5,0 59.5,-19"/>
<text text-anchor="middle" x="34.5" y="-7" font-family="Helvetica,sans-Serif" font-size="10.00">ladel.h</text>
</a>
</g>
</g>
<!-- Node2&#45;&gt;Node4 -->
<g id="edge5" class="edge">
<title>Node2&#45;&gt;Node4</title>
<path fill="none" stroke="#63b8ff" d="M65.54,-110C62.45,-101.06 57.5,-86.59 53.5,-74 48.7,-58.9 43.57,-41.68 39.85,-28.98"/>
<polygon fill="#63b8ff" stroke="#63b8ff" points="43.14,-27.78 36.99,-19.16 36.42,-29.74 43.14,-27.78"/>
</g>
<!-- Node3&#45;&gt;Node4 -->
<g id="edge3" class="edge">
<title>Node3&#45;&gt;Node4</title>
<path fill="none" stroke="#63b8ff" d="M92.41,-54.98C82.01,-47 66.24,-34.88 53.78,-25.31"/>
<polygon fill="#63b8ff" stroke="#63b8ff" points="55.85,-22.49 45.79,-19.17 51.59,-28.04 55.85,-22.49"/>
</g>
<!-- Node5 -->
<g id="node5" class="node">
<title>Node5</title>
<g id="a_node5"><a xlink:title=" ">
<polygon fill="#e0e0e0" stroke="#999999" points="129,-19 78,-19 78,0 129,0 129,-19"/>
<text text-anchor="middle" x="103.5" y="-7" font-family="Helvetica,sans-Serif" font-size="10.00">math.h</text>
</a>
</g>
</g>
<!-- Node3&#45;&gt;Node5 -->
<g id="edge4" class="edge">
<title>Node3&#45;&gt;Node5</title>
<path fill="none" stroke="#63b8ff" d="M103.5,-54.75C103.5,-47.8 103.5,-37.85 103.5,-29.13"/>
<polygon fill="#63b8ff" stroke="#63b8ff" points="107,-29.09 103.5,-19.09 100,-29.09 107,-29.09"/>
</g>
</g>
</svg>
