<?xml version="1.0" encoding="UTF-8" standalone="no"?>
<!DOCTYPE svg PUBLIC "-//W3C//DTD SVG 1.1//EN"
 "http://www.w3.org/Graphics/SVG/1.1/DTD/svg11.dtd">
<!-- Generated by graphviz version 2.43.0 (0)
 -->
<!-- Title: QPALM/src/termination.c Pages: 1 -->
<svg width="358pt" height="302pt"
 viewBox="0.00 0.00 358.25 302.00" xmlns="http://www.w3.org/2000/svg" xmlns:xlink="http://www.w3.org/1999/xlink">
<g id="graph0" class="graph" transform="scale(1 1) rotate(0) translate(4 298)">
<title>QPALM/src/termination.c</title>
<!-- Node1 -->
<g id="node1" class="node">
<title>Node1</title>
<g id="a_node1"><a xlink:title="Routines to check the termination and infeasibility criteria.">
<polygon fill="#999999" stroke="#666666" points="228.29,-294 92.29,-294 92.29,-275 228.29,-275 228.29,-294"/>
<text text-anchor="middle" x="160.29" y="-282" font-family="Helvetica,sans-Serif" font-size="10.00">QPALM/src/termination.c</text>
</a>
</g>
</g>
<!-- Node2 -->
<g id="node2" class="node">
<title>Node2</title>
<g id="a_node2"><a xlink:href="termination_8h.html" target="_top" xlink:title="Routines to check the termination and infeasibility criteria.">
<polygon fill="white" stroke="#666666" points="157.79,-239 74.79,-239 74.79,-220 157.79,-220 157.79,-239"/>
<text text-anchor="middle" x="116.29" y="-227" font-family="Helvetica,sans-Serif" font-size="10.00">termination.h</text>
</a>
</g>
</g>
<!-- Node1&#45;&gt;Node2 -->
<g id="edge1" class="edge">
<title>Node1&#45;&gt;Node2</title>
<path fill="none" stroke="#63b8ff" d="M153.03,-274.75C146.75,-267.18 137.5,-256.05 129.86,-246.84"/>
<polygon fill="#63b8ff" stroke="#63b8ff" points="132.5,-244.55 123.42,-239.09 127.12,-249.02 132.5,-244.55"/>
</g>
<!-- Node4 -->
<g id="node4" class="node">
<title>Node4</title>
<g id="a_node4"><a xlink:href="global__opts_8h.html" target="_top" xlink:title="Custom memory allocation, print and utility functions, and data types for floats and ints.">
<polygon fill="white" stroke="#666666" points="166.29,-74 84.29,-74 84.29,-55 166.29,-55 166.29,-74"/>
<text text-anchor="middle" x="125.29" y="-62" font-family="Helvetica,sans-Serif" font-size="10.00">global_opts.h</text>
</a>
</g>
</g>
<!-- Node1&#45;&gt;Node4 -->
<g id="edge16" class="edge">
<title>Node1&#45;&gt;Node4</title>
<path fill="none" stroke="#63b8ff" d="M126.27,-274.96C86.21,-262.71 22.67,-235.67 3.29,-184 -15.18,-134.75 51.12,-96.67 93.17,-78.05"/>
<polygon fill="#63b8ff" stroke="#63b8ff" points="94.68,-81.21 102.5,-74.06 91.93,-74.78 94.68,-81.21"/>
</g>
<!-- Node7 -->
<g id="node7" class="node">
<title>Node7</title>
<g id="a_node7"><a xlink:href="lin__alg_8h.html" target="_top" xlink:title="Linear algebra with vectors.">
<polygon fill="white" stroke="#666666" points="234.29,-239 176.29,-239 176.29,-220 234.29,-220 234.29,-239"/>
<text text-anchor="middle" x="205.29" y="-227" font-family="Helvetica,sans-Serif" font-size="10.00">lin_alg.h</text>
</a>
</g>
</g>
<!-- Node1&#45;&gt;Node7 -->
<g id="edge7" class="edge">
<title>Node1&#45;&gt;Node7</title>
<path fill="none" stroke="#63b8ff" d="M167.72,-274.75C174.15,-267.18 183.6,-256.05 191.41,-246.84"/>
<polygon fill="#63b8ff" stroke="#63b8ff" points="194.2,-248.98 198,-239.09 188.86,-244.45 194.2,-248.98"/>
</g>
<!-- Node9 -->
<g id="node9" class="node">
<title>Node9</title>
<g id="a_node9"><a xlink:href="constants_8h.html" target="_top" xlink:title="Constants used in QPALM.">
<polygon fill="white" stroke="#666666" points="346.79,-129 273.79,-129 273.79,-110 346.79,-110 346.79,-129"/>
<text text-anchor="middle" x="310.29" y="-117" font-family="Helvetica,sans-Serif" font-size="10.00">constants.h</text>
</a>
</g>
</g>
<!-- Node1&#45;&gt;Node9 -->
<g id="edge15" class="edge">
<title>Node1&#45;&gt;Node9</title>
<path fill="none" stroke="#63b8ff" d="M204.57,-274.9C250.48,-263.26 319.37,-237.46 347.29,-184 355.98,-167.36 342.46,-148.87 329.39,-136.16"/>
<polygon fill="#63b8ff" stroke="#63b8ff" points="331.68,-133.51 321.92,-129.4 326.99,-138.7 331.68,-133.51"/>
</g>
<!-- Node10 -->
<g id="node10" class="node">
<title>Node10</title>
<g id="a_node10"><a xlink:href="util_8h.html" target="_top" xlink:title="Utility functions.">
<polygon fill="white" stroke="#666666" points="337.79,-184 296.79,-184 296.79,-165 337.79,-165 337.79,-184"/>
<text text-anchor="middle" x="317.29" y="-172" font-family="Helvetica,sans-Serif" font-size="10.00">util.h</text>
</a>
</g>
</g>
<!-- Node1&#45;&gt;Node10 -->
<g id="edge17" class="edge">
<title>Node1&#45;&gt;Node10</title>
<path fill="none" stroke="#63b8ff" d="M179.09,-274.87C196.37,-266.62 222.39,-253.32 243.29,-239 264.31,-224.6 286.18,-205.19 300.65,-191.64"/>
<polygon fill="#63b8ff" stroke="#63b8ff" points="303.41,-193.84 308.25,-184.41 298.59,-188.77 303.41,-193.84"/>
</g>
<!-- Node11 -->
<g id="node11" class="node">
<title>Node11</title>
<g id="a_node11"><a xlink:href="iteration_8h.html" target="_top" xlink:title="QPALM main solver routines.">
<polygon fill="white" stroke="#666666" points="79.79,-184 12.79,-184 12.79,-165 79.79,-165 79.79,-184"/>
<text text-anchor="middle" x="46.29" y="-172" font-family="Helvetica,sans-Serif" font-size="10.00">iteration.h</text>
</a>
</g>
</g>
<!-- Node1&#45;&gt;Node11 -->
<g id="edge20" class="edge">
<title>Node1&#45;&gt;Node11</title>
<path fill="none" stroke="#63b8ff" d="M126.52,-274.94C106.45,-268.24 81.95,-256.97 66.29,-239 55.49,-226.61 50.52,-208.39 48.23,-194.65"/>
<polygon fill="#63b8ff" stroke="#63b8ff" points="51.66,-193.83 46.88,-184.38 44.72,-194.75 51.66,-193.83"/>
</g>
<!-- Node3 -->
<g id="node3" class="node">
<title>Node3</title>
<g id="a_node3"><a xlink:href="types_8h.html" target="_top" xlink:title="Internal data structures used in QPALM.">
<polygon fill="white" stroke="#666666" points="165.79,-129 112.79,-129 112.79,-110 165.79,-110 165.79,-129"/>
<text text-anchor="middle" x="139.29" y="-117" font-family="Helvetica,sans-Serif" font-size="10.00">types.h</text>
</a>
</g>
</g>
<!-- Node2&#45;&gt;Node3 -->
<g id="edge2" class="edge">
<title>Node2&#45;&gt;Node3</title>
<path fill="none" stroke="#63b8ff" d="M118.17,-219.66C121.92,-202.09 130.36,-162.45 135.36,-138.95"/>
<polygon fill="#63b8ff" stroke="#63b8ff" points="138.79,-139.67 137.45,-129.16 131.94,-138.21 138.79,-139.67"/>
</g>
<!-- Node3&#45;&gt;Node4 -->
<g id="edge3" class="edge">
<title>Node3&#45;&gt;Node4</title>
<path fill="none" stroke="#63b8ff" d="M136.98,-109.75C135.13,-102.72 132.46,-92.62 130.14,-83.84"/>
<polygon fill="#63b8ff" stroke="#63b8ff" points="133.5,-82.86 127.56,-74.09 126.73,-84.65 133.5,-82.86"/>
</g>
<!-- Node5 -->
<g id="node5" class="node">
<title>Node5</title>
<g id="a_node5"><a xlink:title=" ">
<polygon fill="#e0e0e0" stroke="#999999" points="238.29,-19 188.29,-19 188.29,0 238.29,0 238.29,-19"/>
<text text-anchor="middle" x="213.29" y="-7" font-family="Helvetica,sans-Serif" font-size="10.00">ladel.h</text>
</a>
</g>
</g>
<!-- Node3&#45;&gt;Node5 -->
<g id="edge6" class="edge">
<title>Node3&#45;&gt;Node5</title>
<path fill="none" stroke="#63b8ff" d="M146.84,-109.92C154.4,-101.16 166.19,-87.03 175.29,-74 185.73,-59.06 196.27,-41.18 203.59,-28.21"/>
<polygon fill="#63b8ff" stroke="#63b8ff" points="206.7,-29.81 208.51,-19.37 200.58,-26.41 206.7,-29.81"/>
</g>
<!-- Node4&#45;&gt;Node5 -->
<g id="edge4" class="edge">
<title>Node4&#45;&gt;Node5</title>
<path fill="none" stroke="#63b8ff" d="M139.43,-54.98C153.08,-46.77 173.98,-34.18 190.07,-24.49"/>
<polygon fill="#63b8ff" stroke="#63b8ff" points="192.14,-27.33 198.9,-19.17 188.52,-21.33 192.14,-27.33"/>
</g>
<!-- Node6 -->
<g id="node6" class="node">
<title>Node6</title>
<g id="a_node6"><a xlink:title=" ">
<polygon fill="#e0e0e0" stroke="#999999" points="150.79,-19 99.79,-19 99.79,0 150.79,0 150.79,-19"/>
<text text-anchor="middle" x="125.29" y="-7" font-family="Helvetica,sans-Serif" font-size="10.00">math.h</text>
</a>
</g>
</g>
<!-- Node4&#45;&gt;Node6 -->
<g id="edge5" class="edge">
<title>Node4&#45;&gt;Node6</title>
<path fill="none" stroke="#63b8ff" d="M125.29,-54.75C125.29,-47.8 125.29,-37.85 125.29,-29.13"/>
<polygon fill="#63b8ff" stroke="#63b8ff" points="128.79,-29.09 125.29,-19.09 121.79,-29.09 128.79,-29.09"/>
</g>
<!-- Node7&#45;&gt;Node3 -->
<g id="edge8" class="edge">
<title>Node7&#45;&gt;Node3</title>
<path fill="none" stroke="#63b8ff" d="M195.69,-219.72C186.88,-211.25 173.91,-197.73 165.29,-184 156.39,-169.81 149.42,-152.05 144.95,-138.92"/>
<polygon fill="#63b8ff" stroke="#63b8ff" points="148.2,-137.6 141.79,-129.16 141.54,-139.76 148.2,-137.6"/>
</g>
<!-- Node8 -->
<g id="node8" class="node">
<title>Node8</title>
<g id="a_node8"><a xlink:href="solver__interface_8h.html" target="_top" xlink:title="Interface and wrapper to matrix/factorization (ladel) functions.">
<polygon fill="white" stroke="#666666" points="278.29,-184 174.29,-184 174.29,-165 278.29,-165 278.29,-184"/>
<text text-anchor="middle" x="226.29" y="-172" font-family="Helvetica,sans-Serif" font-size="10.00">solver_interface.h</text>
</a>
</g>
</g>
<!-- Node7&#45;&gt;Node8 -->
<g id="edge9" class="edge">
<title>Node7&#45;&gt;Node8</title>
<path fill="none" stroke="#63b8ff" d="M208.76,-219.75C211.57,-212.65 215.63,-202.4 219.14,-193.56"/>
<polygon fill="#63b8ff" stroke="#63b8ff" points="222.46,-194.68 222.89,-184.09 215.95,-192.1 222.46,-194.68"/>
</g>
<!-- Node8&#45;&gt;Node3 -->
<g id="edge13" class="edge">
<title>Node8&#45;&gt;Node3</title>
<path fill="none" stroke="#63b8ff" d="M212.31,-164.98C198.82,-156.77 178.16,-144.18 162.25,-134.49"/>
<polygon fill="#63b8ff" stroke="#63b8ff" points="163.89,-131.38 153.52,-129.17 160.24,-137.36 163.89,-131.38"/>
</g>
<!-- Node8&#45;&gt;Node4 -->
<g id="edge10" class="edge">
<title>Node8&#45;&gt;Node4</title>
<path fill="none" stroke="#63b8ff" d="M220.11,-164.91C210.92,-152.35 192.83,-128.45 175.29,-110 165.51,-99.71 153.67,-89.1 143.97,-80.83"/>
<polygon fill="#63b8ff" stroke="#63b8ff" points="146.01,-77.97 136.1,-74.22 141.51,-83.33 146.01,-77.97"/>
</g>
<!-- Node8&#45;&gt;Node5 -->
<g id="edge14" class="edge">
<title>Node8&#45;&gt;Node5</title>
<path fill="none" stroke="#63b8ff" d="M225.59,-164.74C223.57,-139.31 217.65,-65.08 214.82,-29.69"/>
<polygon fill="#63b8ff" stroke="#63b8ff" points="218.28,-29 213.99,-19.31 211.3,-29.55 218.28,-29"/>
</g>
<!-- Node8&#45;&gt;Node9 -->
<g id="edge11" class="edge">
<title>Node8&#45;&gt;Node9</title>
<path fill="none" stroke="#63b8ff" d="M239.79,-164.98C252.69,-156.84 272.39,-144.41 287.69,-134.76"/>
<polygon fill="#63b8ff" stroke="#63b8ff" points="289.96,-137.47 296.55,-129.17 286.23,-131.55 289.96,-137.47"/>
</g>
<!-- Node9&#45;&gt;Node5 -->
<g id="edge12" class="edge">
<title>Node9&#45;&gt;Node5</title>
<path fill="none" stroke="#63b8ff" d="M302.35,-109.66C286.07,-91.54 248.69,-49.91 227.91,-26.77"/>
<polygon fill="#63b8ff" stroke="#63b8ff" points="230.35,-24.26 221.07,-19.16 225.15,-28.94 230.35,-24.26"/>
</g>
<!-- Node10&#45;&gt;Node3 -->
<g id="edge18" class="edge">
<title>Node10&#45;&gt;Node3</title>
<path fill="none" stroke="#63b8ff" d="M296.53,-167.32C266.93,-158.51 212.19,-142.21 175.76,-131.36"/>
<polygon fill="#63b8ff" stroke="#63b8ff" points="176.58,-127.95 166,-128.45 174.58,-134.66 176.58,-127.95"/>
</g>
<!-- Node10&#45;&gt;Node9 -->
<g id="edge19" class="edge">
<title>Node10&#45;&gt;Node9</title>
<path fill="none" stroke="#63b8ff" d="M316.14,-164.75C315.22,-157.8 313.9,-147.85 312.75,-139.13"/>
<polygon fill="#63b8ff" stroke="#63b8ff" points="316.21,-138.54 311.43,-129.09 309.27,-139.46 316.21,-138.54"/>
</g>
<!-- Node11&#45;&gt;Node3 -->
<g id="edge21" class="edge">
<title>Node11&#45;&gt;Node3</title>
<path fill="none" stroke="#63b8ff" d="M61.23,-164.98C75.79,-156.69 98.16,-143.94 115.23,-134.22"/>
<polygon fill="#63b8ff" stroke="#63b8ff" points="117.12,-137.16 124.08,-129.17 113.66,-131.08 117.12,-137.16"/>
</g>
<!-- Node11&#45;&gt;Node4 -->
<g id="edge22" class="edge">
<title>Node11&#45;&gt;Node4</title>
<path fill="none" stroke="#63b8ff" d="M52.76,-164.66C65.9,-146.69 95.93,-105.64 112.94,-82.38"/>
<polygon fill="#63b8ff" stroke="#63b8ff" points="115.88,-84.3 118.96,-74.16 110.23,-80.16 115.88,-84.3"/>
</g>
</g>
</svg>
