<?xml version="1.0" encoding="UTF-8" standalone="no"?>
<!DOCTYPE svg PUBLIC "-//W3C//DTD SVG 1.1//EN"
 "http://www.w3.org/Graphics/SVG/1.1/DTD/svg11.dtd">
<!-- Generated by graphviz version 2.43.0 (0)
 -->
<!-- Title: c_strcpy Pages: 1 -->
<svg width="543pt" height="124pt"
 viewBox="0.00 0.00 543.00 123.50" xmlns="http://www.w3.org/2000/svg" xmlns:xlink="http://www.w3.org/1999/xlink">
<g id="graph0" class="graph" transform="scale(1 1) rotate(0) translate(4 119.5)">
<title>c_strcpy</title>
<!-- Node1 -->
<g id="node1" class="node">
<title>Node1</title>
<g id="a_node1"><a xlink:title="Custom string copy to avoid string.h library.">
<polygon fill="#999999" stroke="#666666" points="535,-90.5 478,-90.5 478,-71.5 535,-71.5 535,-90.5"/>
<text text-anchor="middle" x="506.5" y="-78.5" font-family="Helvetica,sans-Serif" font-size="10.00">c_strcpy</text>
</a>
</g>
</g>
<!-- Node2 -->
<g id="node2" class="node">
<title>Node2</title>
<g id="a_node2"><a xlink:href="util_8c.html#ae4a3db21e55ea56c33c599e405771403" target="_top" xlink:title="Print final message as a box with info.">
<polygon fill="white" stroke="#666666" points="442,-109.5 327,-109.5 327,-90.5 442,-90.5 442,-109.5"/>
<text text-anchor="middle" x="384.5" y="-97.5" font-family="Helvetica,sans-Serif" font-size="10.00">print_final_message</text>
</a>
</g>
</g>
<!-- Node1&#45;&gt;Node2 -->
<g id="edge1" class="edge">
<title>Node1&#45;&gt;Node2</title>
<path fill="none" stroke="#63b8ff" d="M468.02,-86.93C459.84,-88.23 451.01,-89.63 442.28,-91.01"/>
<polygon fill="#63b8ff" stroke="#63b8ff" points="468.64,-90.38 477.97,-85.36 467.55,-83.47 468.64,-90.38"/>
</g>
<!-- Node3 -->
<g id="node3" class="node">
<title>Node3</title>
<g id="a_node3"><a xlink:href="util_8c.html#a14fe651105f1f38b2a3a49614f4b8ae2" target="_top" xlink:title="Update solver status (value and string).">
<polygon fill="white" stroke="#666666" points="427.5,-72.5 341.5,-72.5 341.5,-53.5 427.5,-53.5 427.5,-72.5"/>
<text text-anchor="middle" x="384.5" y="-60.5" font-family="Helvetica,sans-Serif" font-size="10.00">update_status</text>
</a>
</g>
</g>
<!-- Node1&#45;&gt;Node3 -->
<g id="edge2" class="edge">
<title>Node1&#45;&gt;Node3</title>
<path fill="none" stroke="#63b8ff" d="M467.77,-75.34C455.13,-73.44 440.94,-71.32 427.96,-69.37"/>
<polygon fill="#63b8ff" stroke="#63b8ff" points="467.56,-78.85 477.97,-76.87 468.6,-71.93 467.56,-78.85"/>
</g>
<!-- Node4 -->
<g id="node4" class="node">
<title>Node4</title>
<g id="a_node4"><a xlink:href="group__solver-grp.html#gaaff827465b1299909f394de8771baef9" target="_top" xlink:title="Initialize QPALM solver allocating memory.">
<polygon fill="white" stroke="#666666" points="265.5,-112.5 185.5,-112.5 185.5,-93.5 265.5,-93.5 265.5,-112.5"/>
<text text-anchor="middle" x="225.5" y="-100.5" font-family="Helvetica,sans-Serif" font-size="10.00">qpalm_setup</text>
</a>
</g>
</g>
<!-- Node3&#45;&gt;Node4 -->
<g id="edge3" class="edge">
<title>Node3&#45;&gt;Node4</title>
<path fill="none" stroke="#63b8ff" d="M335.94,-75.12C312.8,-81.01 285.4,-87.99 263.8,-93.5"/>
<polygon fill="#63b8ff" stroke="#63b8ff" points="337.07,-78.44 345.89,-72.58 335.34,-71.66 337.07,-78.44"/>
</g>
<!-- Node6 -->
<g id="node6" class="node">
<title>Node6</title>
<g id="a_node6"><a xlink:href="group__solver-grp.html#ga385f399d0fb6afaaa0da5f3a114bf922" target="_top" xlink:title="Update the lower and upper bounds.">
<polygon fill="white" stroke="#666666" points="289,-72.5 162,-72.5 162,-53.5 289,-53.5 289,-72.5"/>
<text text-anchor="middle" x="225.5" y="-60.5" font-family="Helvetica,sans-Serif" font-size="10.00">qpalm_update_bounds</text>
</a>
</g>
</g>
<!-- Node3&#45;&gt;Node6 -->
<g id="edge5" class="edge">
<title>Node3&#45;&gt;Node6</title>
<path fill="none" stroke="#63b8ff" d="M331.34,-63C317.8,-63 303.08,-63 289.07,-63"/>
<polygon fill="#63b8ff" stroke="#63b8ff" points="331.43,-66.5 341.43,-63 331.43,-59.5 331.43,-66.5"/>
</g>
<!-- Node8 -->
<g id="node8" class="node">
<title>Node8</title>
<g id="a_node8"><a xlink:href="group__solver-grp.html#ga581cf986cb484ec5721f76b025eda704" target="_top" xlink:title="Update the settings to the new settings.">
<polygon fill="white" stroke="#666666" points="291,-30.5 160,-30.5 160,-11.5 291,-11.5 291,-30.5"/>
<text text-anchor="middle" x="225.5" y="-18.5" font-family="Helvetica,sans-Serif" font-size="10.00">qpalm_update_settings</text>
</a>
</g>
</g>
<!-- Node3&#45;&gt;Node8 -->
<g id="edge7" class="edge">
<title>Node3&#45;&gt;Node8</title>
<path fill="none" stroke="#63b8ff" d="M337.9,-50.8C313.81,-44.36 284.69,-36.57 262.26,-30.57"/>
<polygon fill="#63b8ff" stroke="#63b8ff" points="337.31,-54.27 347.87,-53.47 339.12,-47.5 337.31,-54.27"/>
</g>
<!-- Node5 -->
<g id="node5" class="node">
<title>Node5</title>
<g id="a_node5"><a xlink:href="qpalm__fortran_8c.html#abec01161fcee665e126347b862c404c4" target="_top" xlink:title=" ">
<polygon fill="white" stroke="#666666" points="110,-115.5 14,-115.5 14,-96.5 110,-96.5 110,-115.5"/>
<text text-anchor="middle" x="62" y="-103.5" font-family="Helvetica,sans-Serif" font-size="10.00">qpalm_fortran_c</text>
</a>
</g>
</g>
<!-- Node4&#45;&gt;Node5 -->
<g id="edge4" class="edge">
<title>Node4&#45;&gt;Node5</title>
<path fill="none" stroke="#63b8ff" d="M175.22,-103.92C154.52,-104.3 130.54,-104.75 110.08,-105.13"/>
<polygon fill="#63b8ff" stroke="#63b8ff" points="175.47,-107.41 185.41,-103.73 175.34,-100.41 175.47,-107.41"/>
</g>
<!-- Node7 -->
<g id="node7" class="node">
<title>Node7</title>
<g id="a_node7"><a xlink:href="classqpalm_1_1Solver.html#a6df33bfd68c5b8caaaa6f726f1a9f517" target="_top" xlink:title=" ">
<polygon fill="white" stroke="#666666" points="124,-78 0,-78 0,-48 124,-48 124,-78"/>
<text text-anchor="start" x="8" y="-66" font-family="Helvetica,sans-Serif" font-size="10.00">qpalm::Solver::update</text>
<text text-anchor="middle" x="62" y="-55" font-family="Helvetica,sans-Serif" font-size="10.00">_bounds</text>
</a>
</g>
</g>
<!-- Node6&#45;&gt;Node7 -->
<g id="edge6" class="edge">
<title>Node6&#45;&gt;Node7</title>
<path fill="none" stroke="#63b8ff" d="M151.39,-63C142.28,-63 133.04,-63 124.14,-63"/>
<polygon fill="#63b8ff" stroke="#63b8ff" points="151.6,-66.5 161.6,-63 151.6,-59.5 151.6,-66.5"/>
</g>
<!-- Node9 -->
<g id="node9" class="node">
<title>Node9</title>
<g id="a_node9"><a xlink:href="classqpalm_1_1Solver.html#a895c0635d6fdd0a3026894697ea6903b" target="_top" xlink:title=" ">
<polygon fill="white" stroke="#666666" points="124,-30 0,-30 0,0 124,0 124,-30"/>
<text text-anchor="start" x="8" y="-18" font-family="Helvetica,sans-Serif" font-size="10.00">qpalm::Solver::update</text>
<text text-anchor="middle" x="62" y="-7" font-family="Helvetica,sans-Serif" font-size="10.00">_settings</text>
</a>
</g>
</g>
<!-- Node8&#45;&gt;Node9 -->
<g id="edge8" class="edge">
<title>Node8&#45;&gt;Node9</title>
<path fill="none" stroke="#63b8ff" d="M149.73,-18.22C141.15,-17.9 132.48,-17.58 124.1,-17.27"/>
<polygon fill="#63b8ff" stroke="#63b8ff" points="149.62,-21.72 159.74,-18.59 149.88,-14.73 149.62,-21.72"/>
</g>
</g>
</svg>
