<?xml version="1.0" encoding="UTF-8" standalone="no"?>
<!DOCTYPE svg PUBLIC "-//W3C//DTD SVG 1.1//EN"
 "http://www.w3.org/Graphics/SVG/1.1/DTD/svg11.dtd">
<!-- Generated by graphviz version 2.43.0 (0)
 -->
<!-- Title: qpalm_free Pages: 1 -->
<svg width="407pt" height="187pt"
 viewBox="0.00 0.00 407.00 186.50" xmlns="http://www.w3.org/2000/svg" xmlns:xlink="http://www.w3.org/1999/xlink">
<g id="graph0" class="graph" transform="scale(1 1) rotate(0) translate(4 182.5)">
<title>qpalm_free</title>
<polygon fill="white" stroke="transparent" points="-4,4 -4,-182.5 403,-182.5 403,4 -4,4"/>
<!-- Node1 -->
<g id="node1" class="node">
<title>Node1</title>
<g id="a_node1"><a xlink:title=" ">
<polygon fill="#bfbfbf" stroke="black" points="327,-74 327,-93 399,-93 399,-74 327,-74"/>
<text text-anchor="middle" x="363" y="-81" font-family="Helvetica,sans-Serif" font-size="10.00">qpalm_free</text>
</a>
</g>
</g>
<!-- Node2 -->
<g id="node2" class="node">
<title>Node2</title>
<g id="a_node2"><a xlink:href="group__solver-grp.html#ga95ac68ad137ef5e10acdab6819e4bcd9" target="_top" xlink:title="Cleanup the workspace by deallocating memory.">
<polygon fill="white" stroke="black" points="180,-131 180,-150 271,-150 271,-131 180,-131"/>
<text text-anchor="middle" x="225.5" y="-138" font-family="Helvetica,sans-Serif" font-size="10.00">qpalm_cleanup</text>
</a>
</g>
</g>
<!-- Node1&#45;&gt;Node2 -->
<g id="edge1" class="edge">
<title>Node1&#45;&gt;Node2</title>
<path fill="none" stroke="midnightblue" d="M333.34,-97.45C320.49,-103.54 305.09,-110.61 291,-116.5 278.87,-121.57 265.26,-126.71 253.67,-130.93"/>
<polygon fill="midnightblue" stroke="midnightblue" points="335.08,-100.49 342.6,-93.02 332.06,-94.18 335.08,-100.49"/>
</g>
<!-- Node4 -->
<g id="node4" class="node">
<title>Node4</title>
<g id="a_node4"><a xlink:href="qpalm__fortran_8c.html#abec01161fcee665e126347b862c404c4" target="_top" xlink:title=" ">
<polygon fill="white" stroke="black" points="14,-99 14,-118 110,-118 110,-99 14,-99"/>
<text text-anchor="middle" x="62" y="-106" font-family="Helvetica,sans-Serif" font-size="10.00">qpalm_fortran_c</text>
</a>
</g>
</g>
<!-- Node1&#45;&gt;Node4 -->
<g id="edge4" class="edge">
<title>Node1&#45;&gt;Node4</title>
<path fill="none" stroke="midnightblue" d="M316.53,-87.3C260.73,-91.97 166.59,-99.84 110.07,-104.56"/>
<polygon fill="midnightblue" stroke="midnightblue" points="317.15,-90.76 326.82,-86.44 316.56,-83.79 317.15,-90.76"/>
</g>
<!-- Node5 -->
<g id="node5" class="node">
<title>Node5</title>
<g id="a_node5"><a xlink:href="group__solver-grp.html#ga581cf986cb484ec5721f76b025eda704" target="_top" xlink:title="Update the settings to the new settings.">
<polygon fill="white" stroke="black" points="160,-55 160,-74 291,-74 291,-55 160,-55"/>
<text text-anchor="middle" x="225.5" y="-62" font-family="Helvetica,sans-Serif" font-size="10.00">qpalm_update_settings</text>
</a>
</g>
</g>
<!-- Node1&#45;&gt;Node5 -->
<g id="edge5" class="edge">
<title>Node1&#45;&gt;Node5</title>
<path fill="none" stroke="midnightblue" d="M316.7,-77.15C308.52,-76 299.85,-74.79 291.24,-73.58"/>
<polygon fill="midnightblue" stroke="midnightblue" points="316.36,-80.63 326.75,-78.56 317.34,-73.7 316.36,-80.63"/>
</g>
<!-- Node7 -->
<g id="node7" class="node">
<title>Node7</title>
<g id="a_node7"><a xlink:href="group__solver-grp.html#ga28824f01d01f181a6ad6b413f30a2609" target="_top" xlink:title="Warm start workspace variables x, x_0, x_prev, Ax, Qx, y and sigma.">
<polygon fill="white" stroke="black" points="171.5,-12 171.5,-31 279.5,-31 279.5,-12 171.5,-12"/>
<text text-anchor="middle" x="225.5" y="-19" font-family="Helvetica,sans-Serif" font-size="10.00">qpalm_warm_start</text>
</a>
</g>
</g>
<!-- Node1&#45;&gt;Node7 -->
<g id="edge7" class="edge">
<title>Node1&#45;&gt;Node7</title>
<path fill="none" stroke="midnightblue" d="M336.62,-68.84C323.27,-61.4 306.48,-52.49 291,-45.5 279.35,-40.24 266.17,-35.19 254.77,-31.08"/>
<polygon fill="midnightblue" stroke="midnightblue" points="335.25,-72.08 345.68,-73.95 338.69,-65.99 335.25,-72.08"/>
</g>
<!-- Node3 -->
<g id="node3" class="node">
<title>Node3</title>
<g id="a_node3"><a xlink:href="structqpalm_1_1alloc_1_1qpalm__workspace__cleaner.html#a0153941f8aa59d256f436151041815ef" target="_top" xlink:title=" ">
<polygon fill="white" stroke="black" points="1,-137 1,-178 123,-178 123,-137 1,-137"/>
<text text-anchor="start" x="9" y="-166" font-family="Helvetica,sans-Serif" font-size="10.00">qpalm::alloc::qpalm</text>
<text text-anchor="start" x="9" y="-155" font-family="Helvetica,sans-Serif" font-size="10.00">_workspace_cleaner::</text>
<text text-anchor="middle" x="62" y="-144" font-family="Helvetica,sans-Serif" font-size="10.00">operator()</text>
</a>
</g>
</g>
<!-- Node2&#45;&gt;Node3 -->
<g id="edge2" class="edge">
<title>Node2&#45;&gt;Node3</title>
<path fill="none" stroke="midnightblue" d="M169.79,-146.26C154.78,-147.84 138.43,-149.56 123.13,-151.17"/>
<polygon fill="midnightblue" stroke="midnightblue" points="170.36,-149.72 179.94,-145.19 169.63,-142.76 170.36,-149.72"/>
</g>
<!-- Node2&#45;&gt;Node4 -->
<g id="edge3" class="edge">
<title>Node2&#45;&gt;Node4</title>
<path fill="none" stroke="midnightblue" d="M170.03,-129.71C150.64,-125.87 128.97,-121.57 110.23,-117.86"/>
<polygon fill="midnightblue" stroke="midnightblue" points="169.45,-133.16 179.94,-131.67 170.81,-126.29 169.45,-133.16"/>
</g>
<!-- Node6 -->
<g id="node6" class="node">
<title>Node6</title>
<g id="a_node6"><a xlink:href="classqpalm_1_1Solver.html#a895c0635d6fdd0a3026894697ea6903b" target="_top" xlink:title=" ">
<polygon fill="white" stroke="black" points="0,-49.5 0,-79.5 124,-79.5 124,-49.5 0,-49.5"/>
<text text-anchor="start" x="8" y="-67.5" font-family="Helvetica,sans-Serif" font-size="10.00">qpalm::Solver::update</text>
<text text-anchor="middle" x="62" y="-56.5" font-family="Helvetica,sans-Serif" font-size="10.00">_settings</text>
</a>
</g>
</g>
<!-- Node5&#45;&gt;Node6 -->
<g id="edge6" class="edge">
<title>Node5&#45;&gt;Node6</title>
<path fill="none" stroke="midnightblue" d="M149.73,-64.5C141.15,-64.5 132.48,-64.5 124.1,-64.5"/>
<polygon fill="midnightblue" stroke="midnightblue" points="149.74,-68 159.74,-64.5 149.74,-61 149.74,-68"/>
</g>
<!-- Node8 -->
<g id="node8" class="node">
<title>Node8</title>
<g id="a_node8"><a xlink:href="classqpalm_1_1Solver.html#a693af99e39a9035bbbc4fb61fcb427d1" target="_top" xlink:title=" ">
<polygon fill="white" stroke="black" points="3,-0.5 3,-30.5 121,-30.5 121,-0.5 3,-0.5"/>
<text text-anchor="start" x="11" y="-18.5" font-family="Helvetica,sans-Serif" font-size="10.00">qpalm::Solver::warm</text>
<text text-anchor="middle" x="62" y="-7.5" font-family="Helvetica,sans-Serif" font-size="10.00">_start</text>
</a>
</g>
</g>
<!-- Node7&#45;&gt;Node8 -->
<g id="edge8" class="edge">
<title>Node7&#45;&gt;Node8</title>
<path fill="none" stroke="midnightblue" d="M160.81,-19.13C147.68,-18.65 133.92,-18.13 121,-17.65"/>
<polygon fill="midnightblue" stroke="midnightblue" points="161.05,-22.64 171.17,-19.52 161.31,-15.65 161.05,-22.64"/>
</g>
</g>
</svg>
