<?xml version="1.0" encoding="UTF-8" standalone="no"?>
<!DOCTYPE svg PUBLIC "-//W3C//DTD SVG 1.1//EN"
 "http://www.w3.org/Graphics/SVG/1.1/DTD/svg11.dtd">
<!-- Generated by graphviz version 2.43.0 (0)
 -->
<!-- Title: qpalm_update_settings Pages: 1 -->
<svg width="398pt" height="218pt"
 viewBox="0.00 0.00 398.00 218.00" xmlns="http://www.w3.org/2000/svg" xmlns:xlink="http://www.w3.org/1999/xlink">
<g id="graph0" class="graph" transform="scale(1 1) rotate(0) translate(4 214)">
<title>qpalm_update_settings</title>
<polygon fill="white" stroke="transparent" points="-4,4 -4,-214 394,-214 394,4 -4,4"/>
<!-- Node1 -->
<g id="node1" class="node">
<title>Node1</title>
<g id="a_node1"><a xlink:title="Update the settings to the new settings.">
<polygon fill="#bfbfbf" stroke="black" points="0,-95.5 0,-114.5 131,-114.5 131,-95.5 0,-95.5"/>
<text text-anchor="middle" x="65.5" y="-102.5" font-family="Helvetica,sans-Serif" font-size="10.00">qpalm_update_settings</text>
</a>
</g>
</g>
<!-- Node2 -->
<g id="node2" class="node">
<title>Node2</title>
<g id="a_node2"><a xlink:href="util_8c.html#a14436938f89e6b14f819c58af7d9f0fe" target="_top" xlink:title="Copy settings creating a new settings structure.">
<polygon fill="white" stroke="black" points="175.5,-190.5 175.5,-209.5 259.5,-209.5 259.5,-190.5 175.5,-190.5"/>
<text text-anchor="middle" x="217.5" y="-197.5" font-family="Helvetica,sans-Serif" font-size="10.00">copy_settings</text>
</a>
</g>
</g>
<!-- Node1&#45;&gt;Node2 -->
<g id="edge1" class="edge">
<title>Node1&#45;&gt;Node2</title>
<path fill="none" stroke="midnightblue" d="M76.95,-114.51C94.49,-130.08 131.43,-161.24 167,-181 170.52,-182.96 174.28,-184.8 178.1,-186.51"/>
<polygon fill="midnightblue" stroke="midnightblue" points="177.03,-189.85 187.61,-190.48 179.73,-183.39 177.03,-189.85"/>
</g>
<!-- Node4 -->
<g id="node4" class="node">
<title>Node4</title>
<g id="a_node4"><a xlink:href="global__opts_8c.html#a057129daf1349d96b074b9dca1994d09" target="_top" xlink:title=" ">
<polygon fill="white" stroke="black" points="181.5,-152.5 181.5,-171.5 253.5,-171.5 253.5,-152.5 181.5,-152.5"/>
<text text-anchor="middle" x="217.5" y="-159.5" font-family="Helvetica,sans-Serif" font-size="10.00">qpalm_free</text>
</a>
</g>
</g>
<!-- Node1&#45;&gt;Node4 -->
<g id="edge3" class="edge">
<title>Node1&#45;&gt;Node4</title>
<path fill="none" stroke="midnightblue" d="M91.61,-114.54C116.27,-123.91 154.1,-138.29 181.66,-148.76"/>
<polygon fill="midnightblue" stroke="midnightblue" points="180.72,-152.15 191.31,-152.43 183.21,-145.6 180.72,-152.15"/>
</g>
<!-- Node5 -->
<g id="node5" class="node">
<title>Node5</title>
<g id="a_node5"><a xlink:href="util_8h.html#aae57226ec767e15f27d88e97df093b41" target="_top" xlink:title="Start timer.">
<polygon fill="white" stroke="black" points="185,-114.5 185,-133.5 250,-133.5 250,-114.5 185,-114.5"/>
<text text-anchor="middle" x="217.5" y="-121.5" font-family="Helvetica,sans-Serif" font-size="10.00">qpalm_tic</text>
</a>
</g>
</g>
<!-- Node1&#45;&gt;Node5 -->
<g id="edge4" class="edge">
<title>Node1&#45;&gt;Node5</title>
<path fill="none" stroke="midnightblue" d="M131.42,-113.22C146.04,-115.07 161.18,-116.99 174.56,-118.69"/>
<polygon fill="midnightblue" stroke="midnightblue" points="174.52,-122.21 184.88,-119.99 175.4,-115.27 174.52,-122.21"/>
</g>
<!-- Node6 -->
<g id="node6" class="node">
<title>Node6</title>
<g id="a_node6"><a xlink:href="util_8h.html#a6eecdaf6f3f1c4bf0ab1067a5e7e69da" target="_top" xlink:title="Report time in seconds since last call to qpalm_tic.">
<polygon fill="white" stroke="black" points="183.5,-76.5 183.5,-95.5 251.5,-95.5 251.5,-76.5 183.5,-76.5"/>
<text text-anchor="middle" x="217.5" y="-83.5" font-family="Helvetica,sans-Serif" font-size="10.00">qpalm_toc</text>
</a>
</g>
</g>
<!-- Node1&#45;&gt;Node6 -->
<g id="edge5" class="edge">
<title>Node1&#45;&gt;Node6</title>
<path fill="none" stroke="midnightblue" d="M131.42,-96.78C145.54,-94.99 160.14,-93.14 173.18,-91.49"/>
<polygon fill="midnightblue" stroke="midnightblue" points="173.79,-94.94 183.27,-90.21 172.91,-87.99 173.79,-94.94"/>
</g>
<!-- Node7 -->
<g id="node7" class="node">
<title>Node7</title>
<g id="a_node7"><a xlink:href="util_8c.html#a14fe651105f1f38b2a3a49614f4b8ae2" target="_top" xlink:title="Update solver status (value and string).">
<polygon fill="white" stroke="black" points="174.5,-38.5 174.5,-57.5 260.5,-57.5 260.5,-38.5 174.5,-38.5"/>
<text text-anchor="middle" x="217.5" y="-45.5" font-family="Helvetica,sans-Serif" font-size="10.00">update_status</text>
</a>
</g>
</g>
<!-- Node1&#45;&gt;Node7 -->
<g id="edge6" class="edge">
<title>Node1&#45;&gt;Node7</title>
<path fill="none" stroke="midnightblue" d="M91.61,-95.46C116.27,-86.09 154.1,-71.71 181.66,-61.24"/>
<polygon fill="midnightblue" stroke="midnightblue" points="183.21,-64.4 191.31,-57.57 180.72,-57.85 183.21,-64.4"/>
</g>
<!-- Node9 -->
<g id="node9" class="node">
<title>Node9</title>
<g id="a_node9"><a xlink:href="validate_8c.html#aa3fa0338cebc63078430fed1211df147" target="_top" xlink:title="Validate problem settings.">
<polygon fill="white" stroke="black" points="167,-0.5 167,-19.5 268,-19.5 268,-0.5 167,-0.5"/>
<text text-anchor="middle" x="217.5" y="-7.5" font-family="Helvetica,sans-Serif" font-size="10.00">validate_settings</text>
</a>
</g>
</g>
<!-- Node1&#45;&gt;Node9 -->
<g id="edge8" class="edge">
<title>Node1&#45;&gt;Node9</title>
<path fill="none" stroke="midnightblue" d="M76.95,-95.49C94.49,-79.92 131.43,-48.76 167,-29 170.52,-27.04 174.28,-25.2 178.1,-23.49"/>
<polygon fill="midnightblue" stroke="midnightblue" points="179.73,-26.61 187.61,-19.52 177.03,-20.15 179.73,-26.61"/>
</g>
<!-- Node3 -->
<g id="node3" class="node">
<title>Node3</title>
<g id="a_node3"><a xlink:href="global__opts_8c.html#a9a15c13f16dd6467bcee00e8bf62666a" target="_top" xlink:title=" ">
<polygon fill="white" stroke="black" points="304,-190.5 304,-209.5 390,-209.5 390,-190.5 304,-190.5"/>
<text text-anchor="middle" x="347" y="-197.5" font-family="Helvetica,sans-Serif" font-size="10.00">qpalm_malloc</text>
</a>
</g>
</g>
<!-- Node2&#45;&gt;Node3 -->
<g id="edge2" class="edge">
<title>Node2&#45;&gt;Node3</title>
<path fill="none" stroke="midnightblue" d="M259.54,-200C270.36,-200 282.17,-200 293.5,-200"/>
<polygon fill="midnightblue" stroke="midnightblue" points="293.72,-203.5 303.72,-200 293.72,-196.5 293.72,-203.5"/>
</g>
<!-- Node8 -->
<g id="node8" class="node">
<title>Node8</title>
<g id="a_node8"><a xlink:href="util_8c.html#a7645b56a91479fac2285909a25875b91" target="_top" xlink:title="Custom string copy to avoid string.h library.">
<polygon fill="white" stroke="black" points="318.5,-38.5 318.5,-57.5 375.5,-57.5 375.5,-38.5 318.5,-38.5"/>
<text text-anchor="middle" x="347" y="-45.5" font-family="Helvetica,sans-Serif" font-size="10.00">c_strcpy</text>
</a>
</g>
</g>
<!-- Node7&#45;&gt;Node8 -->
<g id="edge7" class="edge">
<title>Node7&#45;&gt;Node8</title>
<path fill="none" stroke="midnightblue" d="M260.6,-48C275.89,-48 293.07,-48 307.99,-48"/>
<polygon fill="midnightblue" stroke="midnightblue" points="308.39,-51.5 318.39,-48 308.39,-44.5 308.39,-51.5"/>
</g>
</g>
</svg>
