<?xml version="1.0" encoding="UTF-8" standalone="no"?>
<!DOCTYPE svg PUBLIC "-//W3C//DTD SVG 1.1//EN"
 "http://www.w3.org/Graphics/SVG/1.1/DTD/svg11.dtd">
<!-- Generated by graphviz version 2.43.0 (0)
 -->
<!-- Title: QPALM/include/scaling.h Pages: 1 -->
<svg width="489pt" height="218pt"
 viewBox="0.00 0.00 488.50 218.00" xmlns="http://www.w3.org/2000/svg" xmlns:xlink="http://www.w3.org/1999/xlink">
<g id="graph0" class="graph" transform="scale(1 1) rotate(0) translate(4 214)">
<title>QPALM/include/scaling.h</title>
<polygon fill="white" stroke="transparent" points="-4,4 -4,-214 484.5,-214 484.5,4 -4,4"/>
<!-- Node1 -->
<g id="node1" class="node">
<title>Node1</title>
<g id="a_node1"><a xlink:title="Problem data scaling during setup.">
<polygon fill="#bfbfbf" stroke="black" points="271.5,-190.5 271.5,-209.5 406.5,-209.5 406.5,-190.5 271.5,-190.5"/>
<text text-anchor="middle" x="339" y="-197.5" font-family="Helvetica,sans-Serif" font-size="10.00">QPALM/include/scaling.h</text>
</a>
</g>
</g>
<!-- Node2 -->
<g id="node2" class="node">
<title>Node2</title>
<g id="a_node2"><a xlink:href="qpalm_8h.html" target="_top" xlink:title="QPALM main solver API.">
<polygon fill="white" stroke="black" points="167.5,-134.5 167.5,-153.5 298.5,-153.5 298.5,-134.5 167.5,-134.5"/>
<text text-anchor="middle" x="233" y="-141.5" font-family="Helvetica,sans-Serif" font-size="10.00">QPALM/include/qpalm.h</text>
</a>
</g>
</g>
<!-- Node1&#45;&gt;Node2 -->
<g id="edge1" class="edge">
<title>Node1&#45;&gt;Node2</title>
<path fill="none" stroke="midnightblue" d="M312.94,-185.73C293.32,-175.73 266.97,-162.31 249.99,-153.65"/>
<polygon fill="midnightblue" stroke="midnightblue" points="311.47,-188.9 321.97,-190.32 314.65,-182.67 311.47,-188.9"/>
</g>
<!-- Node6 -->
<g id="node6" class="node">
<title>Node6</title>
<g id="a_node6"><a xlink:href="qpalm_8c.html" target="_top" xlink:title="QPALM main solver API.">
<polygon fill="white" stroke="black" points="296,-73 296,-92 406,-92 406,-73 296,-73"/>
<text text-anchor="middle" x="351" y="-80" font-family="Helvetica,sans-Serif" font-size="10.00">QPALM/src/qpalm.c</text>
</a>
</g>
</g>
<!-- Node1&#45;&gt;Node6 -->
<g id="edge6" class="edge">
<title>Node1&#45;&gt;Node6</title>
<path fill="none" stroke="midnightblue" d="M340.96,-180.16C343.59,-154.87 348.15,-110.94 350.09,-92.28"/>
<polygon fill="midnightblue" stroke="midnightblue" points="337.45,-180.01 339.9,-190.32 344.42,-180.73 337.45,-180.01"/>
</g>
<!-- Node7 -->
<g id="node7" class="node">
<title>Node7</title>
<g id="a_node7"><a xlink:href="scaling_8c.html" target="_top" xlink:title="Problem data scaling during setup.">
<polygon fill="white" stroke="black" points="367.5,-134.5 367.5,-153.5 480.5,-153.5 480.5,-134.5 367.5,-134.5"/>
<text text-anchor="middle" x="424" y="-141.5" font-family="Helvetica,sans-Serif" font-size="10.00">QPALM/src/scaling.c</text>
</a>
</g>
</g>
<!-- Node1&#45;&gt;Node7 -->
<g id="edge7" class="edge">
<title>Node1&#45;&gt;Node7</title>
<path fill="none" stroke="midnightblue" d="M361.19,-184.9C376.78,-175 397.13,-162.07 410.38,-153.65"/>
<polygon fill="midnightblue" stroke="midnightblue" points="359.22,-182.01 352.66,-190.32 362.97,-187.92 359.22,-182.01"/>
</g>
<!-- Node3 -->
<g id="node3" class="node">
<title>Node3</title>
<g id="a_node3"><a xlink:href="qpalm_8cpp.html" target="_top" xlink:title=" ">
<polygon fill="white" stroke="black" points="0,-67.5 0,-97.5 122,-97.5 122,-67.5 0,-67.5"/>
<text text-anchor="start" x="8" y="-85.5" font-family="Helvetica,sans-Serif" font-size="10.00">QPALM/interfaces/cxx</text>
<text text-anchor="middle" x="61" y="-74.5" font-family="Helvetica,sans-Serif" font-size="10.00">/src/qpalm.cpp</text>
</a>
</g>
</g>
<!-- Node2&#45;&gt;Node3 -->
<g id="edge2" class="edge">
<title>Node2&#45;&gt;Node3</title>
<path fill="none" stroke="midnightblue" d="M198.61,-131.1C170.62,-121.42 131.06,-107.74 101.54,-97.52"/>
<polygon fill="midnightblue" stroke="midnightblue" points="197.76,-134.51 208.36,-134.48 200.05,-127.9 197.76,-134.51"/>
</g>
<!-- Node4 -->
<g id="node4" class="node">
<title>Node4</title>
<g id="a_node4"><a xlink:href="qpalm__fortran_8h.html" target="_top" xlink:title=" ">
<polygon fill="white" stroke="black" points="140,-67.5 140,-97.5 278,-97.5 278,-67.5 140,-67.5"/>
<text text-anchor="start" x="148" y="-85.5" font-family="Helvetica,sans-Serif" font-size="10.00">QPALM/interfaces/fortran</text>
<text text-anchor="middle" x="209" y="-74.5" font-family="Helvetica,sans-Serif" font-size="10.00">/qpalm_fortran.h</text>
</a>
</g>
</g>
<!-- Node2&#45;&gt;Node4 -->
<g id="edge3" class="edge">
<title>Node2&#45;&gt;Node4</title>
<path fill="none" stroke="midnightblue" d="M225.78,-125.1C222.22,-116.27 217.98,-105.77 214.66,-97.52"/>
<polygon fill="midnightblue" stroke="midnightblue" points="222.57,-126.51 229.56,-134.48 229.07,-123.89 222.57,-126.51"/>
</g>
<!-- Node2&#45;&gt;Node6 -->
<g id="edge5" class="edge">
<title>Node2&#45;&gt;Node6</title>
<path fill="none" stroke="midnightblue" d="M259.05,-129.87C281.92,-118.33 314.51,-101.9 334.12,-92.01"/>
<polygon fill="midnightblue" stroke="midnightblue" points="257.26,-126.85 249.91,-134.48 260.41,-133.1 257.26,-126.85"/>
</g>
<!-- Node5 -->
<g id="node5" class="node">
<title>Node5</title>
<g id="a_node5"><a xlink:href="qpalm__fortran_8c.html" target="_top" xlink:title=" ">
<polygon fill="white" stroke="black" points="140,-0.5 140,-30.5 278,-30.5 278,-0.5 140,-0.5"/>
<text text-anchor="start" x="148" y="-18.5" font-family="Helvetica,sans-Serif" font-size="10.00">QPALM/interfaces/fortran</text>
<text text-anchor="middle" x="209" y="-7.5" font-family="Helvetica,sans-Serif" font-size="10.00">/qpalm_fortran.c</text>
</a>
</g>
</g>
<!-- Node4&#45;&gt;Node5 -->
<g id="edge4" class="edge">
<title>Node4&#45;&gt;Node5</title>
<path fill="none" stroke="midnightblue" d="M209,-57.11C209,-48.15 209,-38.32 209,-30.58"/>
<polygon fill="midnightblue" stroke="midnightblue" points="205.5,-57.4 209,-67.4 212.5,-57.4 205.5,-57.4"/>
</g>
</g>
</svg>
