<?xml version="1.0" encoding="UTF-8" standalone="no"?>
<!DOCTYPE svg PUBLIC "-//W3C//DTD SVG 1.1//EN"
 "http://www.w3.org/Graphics/SVG/1.1/DTD/svg11.dtd">
<!-- Generated by graphviz version 2.43.0 (0)
 -->
<!-- Title: QPALM/src/solver_interface.c Pages: 1 -->
<svg width="339pt" height="308pt"
 viewBox="0.00 0.00 339.35 308.00" xmlns="http://www.w3.org/2000/svg" xmlns:xlink="http://www.w3.org/1999/xlink">
<g id="graph0" class="graph" transform="scale(1 1) rotate(0) translate(4 304)">
<title>QPALM/src/solver_interface.c</title>
<polygon fill="white" stroke="transparent" points="-4,4 -4,-304 335.35,-304 335.35,4 -4,4"/>
<!-- Node1 -->
<g id="node1" class="node">
<title>Node1</title>
<g id="a_node1"><a xlink:title="Interface and wrapper to matrix/factorization (ladel) functions.">
<polygon fill="#bfbfbf" stroke="black" points="138.35,-280.5 138.35,-299.5 296.35,-299.5 296.35,-280.5 138.35,-280.5"/>
<text text-anchor="middle" x="217.35" y="-287.5" font-family="Helvetica,sans-Serif" font-size="10.00">QPALM/src/solver_interface.c</text>
</a>
</g>
</g>
<!-- Node2 -->
<g id="node2" class="node">
<title>Node2</title>
<g id="a_node2"><a xlink:href="lin__alg_8h.html" target="_top" xlink:title="Linear algebra with vectors.">
<polygon fill="white" stroke="black" points="94.35,-224.5 94.35,-243.5 152.35,-243.5 152.35,-224.5 94.35,-224.5"/>
<text text-anchor="middle" x="123.35" y="-231.5" font-family="Helvetica,sans-Serif" font-size="10.00">lin_alg.h</text>
</a>
</g>
</g>
<!-- Node1&#45;&gt;Node2 -->
<g id="edge1" class="edge">
<title>Node1&#45;&gt;Node2</title>
<path fill="none" stroke="midnightblue" d="M202.25,-280.32C187.45,-271.82 164.65,-258.73 147.37,-248.8"/>
<polygon fill="midnightblue" stroke="midnightblue" points="148.83,-245.6 138.41,-243.65 145.34,-251.67 148.83,-245.6"/>
</g>
<!-- Node5 -->
<g id="node5" class="node">
<title>Node5</title>
<g id="a_node5"><a xlink:title=" ">
<polygon fill="white" stroke="#bfbfbf" points="98.35,-0.5 98.35,-19.5 148.35,-19.5 148.35,-0.5 98.35,-0.5"/>
<text text-anchor="middle" x="123.35" y="-7.5" font-family="Helvetica,sans-Serif" font-size="10.00">ladel.h</text>
</a>
</g>
</g>
<!-- Node1&#45;&gt;Node5 -->
<g id="edge15" class="edge">
<title>Node1&#45;&gt;Node5</title>
<path fill="none" stroke="midnightblue" d="M222.2,-280.47C232.03,-262.39 253.35,-218.59 253.35,-179 253.35,-179 253.35,-179 253.35,-121 253.35,-90.9 254.53,-78.33 234.35,-56 214.7,-34.27 183.07,-22.83 158.58,-16.93"/>
<polygon fill="midnightblue" stroke="midnightblue" points="159.1,-13.46 148.59,-14.73 157.6,-20.3 159.1,-13.46"/>
</g>
<!-- Node7 -->
<g id="node7" class="node">
<title>Node7</title>
<g id="a_node7"><a xlink:href="solver__interface_8h.html" target="_top" xlink:title="Interface and wrapper to matrix/factorization (ladel) functions.">
<polygon fill="white" stroke="black" points="71.35,-168.5 71.35,-187.5 175.35,-187.5 175.35,-168.5 71.35,-168.5"/>
<text text-anchor="middle" x="123.35" y="-175.5" font-family="Helvetica,sans-Serif" font-size="10.00">solver_interface.h</text>
</a>
</g>
</g>
<!-- Node1&#45;&gt;Node7 -->
<g id="edge13" class="edge">
<title>Node1&#45;&gt;Node7</title>
<path fill="none" stroke="midnightblue" d="M209.97,-280.37C194.32,-262.05 157.57,-219.05 137.33,-195.36"/>
<polygon fill="midnightblue" stroke="midnightblue" points="139.85,-192.92 130.69,-187.59 134.53,-197.47 139.85,-192.92"/>
</g>
<!-- Node9 -->
<g id="node9" class="node">
<title>Node9</title>
<g id="a_node9"><a xlink:title=" ">
<polygon fill="white" stroke="#bfbfbf" points="281.35,-224.5 281.35,-243.5 331.35,-243.5 331.35,-224.5 281.35,-224.5"/>
<text text-anchor="middle" x="306.35" y="-231.5" font-family="Helvetica,sans-Serif" font-size="10.00">stdio.h</text>
</a>
</g>
</g>
<!-- Node1&#45;&gt;Node9 -->
<g id="edge14" class="edge">
<title>Node1&#45;&gt;Node9</title>
<path fill="none" stroke="midnightblue" d="M231.65,-280.32C245.53,-271.9 266.84,-258.97 283.15,-249.07"/>
<polygon fill="midnightblue" stroke="midnightblue" points="285.35,-251.83 292.08,-243.65 281.72,-245.85 285.35,-251.83"/>
</g>
<!-- Node3 -->
<g id="node3" class="node">
<title>Node3</title>
<g id="a_node3"><a xlink:href="types_8h.html" target="_top" xlink:title="Internal data structures used in QPALM.">
<polygon fill="white" stroke="black" points="3.85,-112.5 3.85,-131.5 56.85,-131.5 56.85,-112.5 3.85,-112.5"/>
<text text-anchor="middle" x="30.35" y="-119.5" font-family="Helvetica,sans-Serif" font-size="10.00">types.h</text>
</a>
</g>
</g>
<!-- Node2&#45;&gt;Node3 -->
<g id="edge2" class="edge">
<title>Node2&#45;&gt;Node3</title>
<path fill="none" stroke="midnightblue" d="M107.68,-224.35C94.28,-216.33 75.18,-203.35 62.35,-188 50.65,-174 41.93,-155 36.58,-141.16"/>
<polygon fill="midnightblue" stroke="midnightblue" points="39.86,-139.95 33.14,-131.75 33.28,-142.35 39.86,-139.95"/>
</g>
<!-- Node2&#45;&gt;Node7 -->
<g id="edge7" class="edge">
<title>Node2&#45;&gt;Node7</title>
<path fill="none" stroke="midnightblue" d="M123.35,-224.08C123.35,-217.01 123.35,-206.86 123.35,-197.99"/>
<polygon fill="midnightblue" stroke="midnightblue" points="126.85,-197.75 123.35,-187.75 119.85,-197.75 126.85,-197.75"/>
</g>
<!-- Node4 -->
<g id="node4" class="node">
<title>Node4</title>
<g id="a_node4"><a xlink:href="global__opts_8h.html" target="_top" xlink:title="Custom memory allocation, print and utility functions, and data types for floats and ints.">
<polygon fill="white" stroke="black" points="13.35,-56.5 13.35,-75.5 95.35,-75.5 95.35,-56.5 13.35,-56.5"/>
<text text-anchor="middle" x="54.35" y="-63.5" font-family="Helvetica,sans-Serif" font-size="10.00">global_opts.h</text>
</a>
</g>
</g>
<!-- Node3&#45;&gt;Node4 -->
<g id="edge3" class="edge">
<title>Node3&#45;&gt;Node4</title>
<path fill="none" stroke="midnightblue" d="M34.31,-112.08C37.56,-104.77 42.27,-94.18 46.3,-85.1"/>
<polygon fill="midnightblue" stroke="midnightblue" points="49.6,-86.31 50.46,-75.75 43.2,-83.47 49.6,-86.31"/>
</g>
<!-- Node3&#45;&gt;Node5 -->
<g id="edge6" class="edge">
<title>Node3&#45;&gt;Node5</title>
<path fill="none" stroke="midnightblue" d="M21.93,-112.41C10.22,-99.37 -8.23,-74.2 4.35,-56 9.4,-48.69 55.09,-32.8 88.35,-22"/>
<polygon fill="midnightblue" stroke="midnightblue" points="89.77,-25.22 98.21,-18.82 87.62,-18.56 89.77,-25.22"/>
</g>
<!-- Node4&#45;&gt;Node5 -->
<g id="edge4" class="edge">
<title>Node4&#45;&gt;Node5</title>
<path fill="none" stroke="midnightblue" d="M65.43,-56.32C75.83,-48.18 91.61,-35.84 104.07,-26.09"/>
<polygon fill="midnightblue" stroke="midnightblue" points="106.34,-28.75 112.06,-19.83 102.03,-23.24 106.34,-28.75"/>
</g>
<!-- Node6 -->
<g id="node6" class="node">
<title>Node6</title>
<g id="a_node6"><a xlink:title=" ">
<polygon fill="white" stroke="#bfbfbf" points="28.85,-0.5 28.85,-19.5 79.85,-19.5 79.85,-0.5 28.85,-0.5"/>
<text text-anchor="middle" x="54.35" y="-7.5" font-family="Helvetica,sans-Serif" font-size="10.00">math.h</text>
</a>
</g>
</g>
<!-- Node4&#45;&gt;Node6 -->
<g id="edge5" class="edge">
<title>Node4&#45;&gt;Node6</title>
<path fill="none" stroke="midnightblue" d="M54.35,-56.08C54.35,-49.01 54.35,-38.86 54.35,-29.99"/>
<polygon fill="midnightblue" stroke="midnightblue" points="57.85,-29.75 54.35,-19.75 50.85,-29.75 57.85,-29.75"/>
</g>
<!-- Node7&#45;&gt;Node3 -->
<g id="edge11" class="edge">
<title>Node7&#45;&gt;Node3</title>
<path fill="none" stroke="midnightblue" d="M108.41,-168.32C93.76,-159.82 71.21,-146.73 54.11,-136.8"/>
<polygon fill="midnightblue" stroke="midnightblue" points="55.66,-133.65 45.25,-131.65 52.14,-139.7 55.66,-133.65"/>
</g>
<!-- Node7&#45;&gt;Node4 -->
<g id="edge8" class="edge">
<title>Node7&#45;&gt;Node4</title>
<path fill="none" stroke="midnightblue" d="M117.93,-168.37C106.6,-150.3 80.18,-108.18 65.2,-84.31"/>
<polygon fill="midnightblue" stroke="midnightblue" points="68.02,-82.2 59.74,-75.59 62.09,-85.92 68.02,-82.2"/>
</g>
<!-- Node7&#45;&gt;Node5 -->
<g id="edge12" class="edge">
<title>Node7&#45;&gt;Node5</title>
<path fill="none" stroke="midnightblue" d="M123.35,-168.08C123.35,-141.95 123.35,-65.21 123.35,-29.58"/>
<polygon fill="midnightblue" stroke="midnightblue" points="126.85,-29.57 123.35,-19.57 119.85,-29.57 126.85,-29.57"/>
</g>
<!-- Node8 -->
<g id="node8" class="node">
<title>Node8</title>
<g id="a_node8"><a xlink:href="constants_8h.html" target="_top" xlink:title="Constants used in QPALM.">
<polygon fill="white" stroke="black" points="151.85,-56.5 151.85,-75.5 224.85,-75.5 224.85,-56.5 151.85,-56.5"/>
<text text-anchor="middle" x="188.35" y="-63.5" font-family="Helvetica,sans-Serif" font-size="10.00">constants.h</text>
</a>
</g>
</g>
<!-- Node7&#45;&gt;Node8 -->
<g id="edge9" class="edge">
<title>Node7&#45;&gt;Node8</title>
<path fill="none" stroke="midnightblue" d="M128.45,-168.37C139.13,-150.3 164.02,-108.18 178.12,-84.31"/>
<polygon fill="midnightblue" stroke="midnightblue" points="181.2,-85.98 183.27,-75.59 175.17,-82.42 181.2,-85.98"/>
</g>
<!-- Node8&#45;&gt;Node5 -->
<g id="edge10" class="edge">
<title>Node8&#45;&gt;Node5</title>
<path fill="none" stroke="midnightblue" d="M177.91,-56.32C168.2,-48.26 153.53,-36.08 141.85,-26.37"/>
<polygon fill="midnightblue" stroke="midnightblue" points="143.91,-23.53 133.98,-19.83 139.44,-28.92 143.91,-23.53"/>
</g>
</g>
</svg>
