<?xml version="1.0" encoding="UTF-8" standalone="no"?>
<!DOCTYPE svg PUBLIC "-//W3C//DTD SVG 1.1//EN"
 "http://www.w3.org/Graphics/SVG/1.1/DTD/svg11.dtd">
<!-- Generated by graphviz version 2.43.0 (0)
 -->
<!-- Title: QPALM/src/util.c Pages: 1 -->
<svg width="436pt" height="308pt"
 viewBox="0.00 0.00 435.50 308.00" xmlns="http://www.w3.org/2000/svg" xmlns:xlink="http://www.w3.org/1999/xlink">
<g id="graph0" class="graph" transform="scale(1 1) rotate(0) translate(4 304)">
<title>QPALM/src/util.c</title>
<polygon fill="white" stroke="transparent" points="-4,4 -4,-304 431.5,-304 431.5,4 -4,4"/>
<!-- Node1 -->
<g id="node1" class="node">
<title>Node1</title>
<g id="a_node1"><a xlink:title="Utility functions.">
<polygon fill="#bfbfbf" stroke="black" points="190,-280.5 190,-299.5 285,-299.5 285,-280.5 190,-280.5"/>
<text text-anchor="middle" x="237.5" y="-287.5" font-family="Helvetica,sans-Serif" font-size="10.00">QPALM/src/util.c</text>
</a>
</g>
</g>
<!-- Node2 -->
<g id="node2" class="node">
<title>Node2</title>
<g id="a_node2"><a xlink:href="util_8h.html" target="_top" xlink:title="Utility functions.">
<polygon fill="white" stroke="black" points="10,-168.5 10,-187.5 51,-187.5 51,-168.5 10,-168.5"/>
<text text-anchor="middle" x="30.5" y="-175.5" font-family="Helvetica,sans-Serif" font-size="10.00">util.h</text>
</a>
</g>
</g>
<!-- Node1&#45;&gt;Node2 -->
<g id="edge1" class="edge">
<title>Node1&#45;&gt;Node2</title>
<path fill="none" stroke="midnightblue" d="M189.91,-286.73C152.59,-282.72 101.17,-272.05 65.5,-244 50.42,-232.14 41.01,-211.93 35.79,-197.19"/>
<polygon fill="midnightblue" stroke="midnightblue" points="39.11,-196.07 32.72,-187.62 32.45,-198.21 39.11,-196.07"/>
</g>
<!-- Node3 -->
<g id="node3" class="node">
<title>Node3</title>
<g id="a_node3"><a xlink:href="types_8h.html" target="_top" xlink:title="Internal data structures used in QPALM.">
<polygon fill="white" stroke="black" points="91,-112.5 91,-131.5 144,-131.5 144,-112.5 91,-112.5"/>
<text text-anchor="middle" x="117.5" y="-119.5" font-family="Helvetica,sans-Serif" font-size="10.00">types.h</text>
</a>
</g>
</g>
<!-- Node1&#45;&gt;Node3 -->
<g id="edge18" class="edge">
<title>Node1&#45;&gt;Node3</title>
<path fill="none" stroke="midnightblue" d="M216.9,-280.35C200.1,-272.59 176.46,-259.96 159.5,-244 137.78,-223.56 132.18,-216.22 122.5,-188 117.39,-173.09 116.36,-155.18 116.48,-141.93"/>
<polygon fill="midnightblue" stroke="midnightblue" points="119.99,-141.8 116.81,-131.69 112.99,-141.57 119.99,-141.8"/>
</g>
<!-- Node4 -->
<g id="node4" class="node">
<title>Node4</title>
<g id="a_node4"><a xlink:href="global__opts_8h.html" target="_top" xlink:title="Custom memory allocation, print and utility functions, and data types for floats and ints.">
<polygon fill="white" stroke="black" points="200.5,-56.5 200.5,-75.5 282.5,-75.5 282.5,-56.5 200.5,-56.5"/>
<text text-anchor="middle" x="241.5" y="-63.5" font-family="Helvetica,sans-Serif" font-size="10.00">global_opts.h</text>
</a>
</g>
</g>
<!-- Node1&#45;&gt;Node4 -->
<g id="edge16" class="edge">
<title>Node1&#45;&gt;Node4</title>
<path fill="none" stroke="midnightblue" d="M239.9,-280.45C244.61,-263.16 254.93,-222.74 258.5,-188 262.25,-151.57 253.21,-109.24 246.92,-85.54"/>
<polygon fill="midnightblue" stroke="midnightblue" points="250.26,-84.47 244.21,-75.78 243.52,-86.35 250.26,-84.47"/>
</g>
<!-- Node8 -->
<g id="node8" class="node">
<title>Node8</title>
<g id="a_node8"><a xlink:href="lin__alg_8h.html" target="_top" xlink:title="Linear algebra with vectors.">
<polygon fill="white" stroke="black" points="168.5,-224.5 168.5,-243.5 226.5,-243.5 226.5,-224.5 168.5,-224.5"/>
<text text-anchor="middle" x="197.5" y="-231.5" font-family="Helvetica,sans-Serif" font-size="10.00">lin_alg.h</text>
</a>
</g>
</g>
<!-- Node1&#45;&gt;Node8 -->
<g id="edge9" class="edge">
<title>Node1&#45;&gt;Node8</title>
<path fill="none" stroke="midnightblue" d="M230.89,-280.08C225.24,-272.46 216.96,-261.26 210.05,-251.94"/>
<polygon fill="midnightblue" stroke="midnightblue" points="212.75,-249.7 203.98,-243.75 207.12,-253.87 212.75,-249.7"/>
</g>
<!-- Node10 -->
<g id="node10" class="node">
<title>Node10</title>
<g id="a_node10"><a xlink:title=" ">
<polygon fill="white" stroke="#bfbfbf" points="306,-224.5 306,-243.5 359,-243.5 359,-224.5 306,-224.5"/>
<text text-anchor="middle" x="332.5" y="-231.5" font-family="Helvetica,sans-Serif" font-size="10.00">string.h</text>
</a>
</g>
</g>
<!-- Node1&#45;&gt;Node10 -->
<g id="edge17" class="edge">
<title>Node1&#45;&gt;Node10</title>
<path fill="none" stroke="midnightblue" d="M252.76,-280.32C267.72,-271.82 290.75,-258.73 308.23,-248.8"/>
<polygon fill="midnightblue" stroke="midnightblue" points="310.31,-251.64 317.27,-243.65 306.85,-245.55 310.31,-251.64"/>
</g>
<!-- Node11 -->
<g id="node11" class="node">
<title>Node11</title>
<g id="a_node11"><a xlink:title=" ">
<polygon fill="white" stroke="#bfbfbf" points="377.5,-224.5 377.5,-243.5 427.5,-243.5 427.5,-224.5 377.5,-224.5"/>
<text text-anchor="middle" x="402.5" y="-231.5" font-family="Helvetica,sans-Serif" font-size="10.00">stdio.h</text>
</a>
</g>
</g>
<!-- Node1&#45;&gt;Node11 -->
<g id="edge19" class="edge">
<title>Node1&#45;&gt;Node11</title>
<path fill="none" stroke="midnightblue" d="M263.64,-280.44C291.77,-271.24 336.63,-256.56 367.72,-246.38"/>
<polygon fill="midnightblue" stroke="midnightblue" points="368.87,-249.69 377.29,-243.25 366.7,-243.03 368.87,-249.69"/>
</g>
<!-- Node2&#45;&gt;Node3 -->
<g id="edge2" class="edge">
<title>Node2&#45;&gt;Node3</title>
<path fill="none" stroke="midnightblue" d="M44.48,-168.32C58.05,-159.9 78.88,-146.97 94.82,-137.07"/>
<polygon fill="midnightblue" stroke="midnightblue" points="96.91,-139.9 103.56,-131.65 93.21,-133.95 96.91,-139.9"/>
</g>
<!-- Node7 -->
<g id="node7" class="node">
<title>Node7</title>
<g id="a_node7"><a xlink:href="constants_8h.html" target="_top" xlink:title="Constants used in QPALM.">
<polygon fill="white" stroke="black" points="0,-112.5 0,-131.5 73,-131.5 73,-112.5 0,-112.5"/>
<text text-anchor="middle" x="36.5" y="-119.5" font-family="Helvetica,sans-Serif" font-size="10.00">constants.h</text>
</a>
</g>
</g>
<!-- Node2&#45;&gt;Node7 -->
<g id="edge7" class="edge">
<title>Node2&#45;&gt;Node7</title>
<path fill="none" stroke="midnightblue" d="M31.49,-168.08C32.29,-160.93 33.43,-150.64 34.42,-141.69"/>
<polygon fill="midnightblue" stroke="midnightblue" points="37.9,-142.08 35.53,-131.75 30.94,-141.3 37.9,-142.08"/>
</g>
<!-- Node3&#45;&gt;Node4 -->
<g id="edge3" class="edge">
<title>Node3&#45;&gt;Node4</title>
<path fill="none" stroke="midnightblue" d="M137.15,-112.44C157.46,-103.6 189.4,-89.69 212.6,-79.59"/>
<polygon fill="midnightblue" stroke="midnightblue" points="214.17,-82.72 221.94,-75.52 211.38,-76.3 214.17,-82.72"/>
</g>
<!-- Node5 -->
<g id="node5" class="node">
<title>Node5</title>
<g id="a_node5"><a xlink:title=" ">
<polygon fill="white" stroke="#bfbfbf" points="124.5,-0.5 124.5,-19.5 174.5,-19.5 174.5,-0.5 124.5,-0.5"/>
<text text-anchor="middle" x="149.5" y="-7.5" font-family="Helvetica,sans-Serif" font-size="10.00">ladel.h</text>
</a>
</g>
</g>
<!-- Node3&#45;&gt;Node5 -->
<g id="edge6" class="edge">
<title>Node3&#45;&gt;Node5</title>
<path fill="none" stroke="midnightblue" d="M120.01,-112.37C125.2,-94.54 137.2,-53.3 144.18,-29.27"/>
<polygon fill="midnightblue" stroke="midnightblue" points="147.57,-30.17 147,-19.59 140.85,-28.22 147.57,-30.17"/>
</g>
<!-- Node4&#45;&gt;Node5 -->
<g id="edge4" class="edge">
<title>Node4&#45;&gt;Node5</title>
<path fill="none" stroke="midnightblue" d="M226.72,-56.32C212.23,-47.82 189.93,-34.73 173.01,-24.8"/>
<polygon fill="midnightblue" stroke="midnightblue" points="174.64,-21.7 164.24,-19.65 171.1,-27.74 174.64,-21.7"/>
</g>
<!-- Node6 -->
<g id="node6" class="node">
<title>Node6</title>
<g id="a_node6"><a xlink:title=" ">
<polygon fill="white" stroke="#bfbfbf" points="216,-0.5 216,-19.5 267,-19.5 267,-0.5 216,-0.5"/>
<text text-anchor="middle" x="241.5" y="-7.5" font-family="Helvetica,sans-Serif" font-size="10.00">math.h</text>
</a>
</g>
</g>
<!-- Node4&#45;&gt;Node6 -->
<g id="edge5" class="edge">
<title>Node4&#45;&gt;Node6</title>
<path fill="none" stroke="midnightblue" d="M241.5,-56.08C241.5,-49.01 241.5,-38.86 241.5,-29.99"/>
<polygon fill="midnightblue" stroke="midnightblue" points="245,-29.75 241.5,-19.75 238,-29.75 245,-29.75"/>
</g>
<!-- Node7&#45;&gt;Node5 -->
<g id="edge8" class="edge">
<title>Node7&#45;&gt;Node5</title>
<path fill="none" stroke="midnightblue" d="M45.37,-112.37C64.35,-93.89 109.14,-50.29 133.33,-26.74"/>
<polygon fill="midnightblue" stroke="midnightblue" points="135.95,-29.07 140.67,-19.59 131.07,-24.06 135.95,-29.07"/>
</g>
<!-- Node8&#45;&gt;Node3 -->
<g id="edge10" class="edge">
<title>Node8&#45;&gt;Node3</title>
<path fill="none" stroke="midnightblue" d="M180.32,-224.41C166.55,-216.68 147.73,-204.07 136.5,-188 126.93,-174.3 122.13,-155.76 119.75,-141.99"/>
<polygon fill="midnightblue" stroke="midnightblue" points="123.17,-141.15 118.27,-131.76 116.24,-142.15 123.17,-141.15"/>
</g>
<!-- Node9 -->
<g id="node9" class="node">
<title>Node9</title>
<g id="a_node9"><a xlink:href="solver__interface_8h.html" target="_top" xlink:title="Interface and wrapper to matrix/factorization (ladel) functions.">
<polygon fill="white" stroke="black" points="145.5,-168.5 145.5,-187.5 249.5,-187.5 249.5,-168.5 145.5,-168.5"/>
<text text-anchor="middle" x="197.5" y="-175.5" font-family="Helvetica,sans-Serif" font-size="10.00">solver_interface.h</text>
</a>
</g>
</g>
<!-- Node8&#45;&gt;Node9 -->
<g id="edge11" class="edge">
<title>Node8&#45;&gt;Node9</title>
<path fill="none" stroke="midnightblue" d="M197.5,-224.08C197.5,-217.01 197.5,-206.86 197.5,-197.99"/>
<polygon fill="midnightblue" stroke="midnightblue" points="201,-197.75 197.5,-187.75 194,-197.75 201,-197.75"/>
</g>
<!-- Node9&#45;&gt;Node3 -->
<g id="edge14" class="edge">
<title>Node9&#45;&gt;Node3</title>
<path fill="none" stroke="midnightblue" d="M184.65,-168.32C172.28,-159.98 153.37,-147.21 138.76,-137.35"/>
<polygon fill="midnightblue" stroke="midnightblue" points="140.57,-134.35 130.32,-131.65 136.65,-140.15 140.57,-134.35"/>
</g>
<!-- Node9&#45;&gt;Node4 -->
<g id="edge12" class="edge">
<title>Node9&#45;&gt;Node4</title>
<path fill="none" stroke="midnightblue" d="M200.95,-168.37C208.12,-150.46 224.73,-108.92 234.32,-84.95"/>
<polygon fill="midnightblue" stroke="midnightblue" points="237.6,-86.18 238.06,-75.59 231.1,-83.58 237.6,-86.18"/>
</g>
<!-- Node9&#45;&gt;Node5 -->
<g id="edge15" class="edge">
<title>Node9&#45;&gt;Node5</title>
<path fill="none" stroke="midnightblue" d="M194.92,-168.08C187.36,-141.95 165.18,-65.21 154.87,-29.58"/>
<polygon fill="midnightblue" stroke="midnightblue" points="158.12,-28.2 151.98,-19.57 151.39,-30.15 158.12,-28.2"/>
</g>
<!-- Node9&#45;&gt;Node7 -->
<g id="edge13" class="edge">
<title>Node9&#45;&gt;Node7</title>
<path fill="none" stroke="midnightblue" d="M171.99,-168.44C144.9,-159.36 101.91,-144.94 71.63,-134.78"/>
<polygon fill="midnightblue" stroke="midnightblue" points="72.49,-131.38 61.89,-131.52 70.26,-138.01 72.49,-131.38"/>
</g>
</g>
</svg>
