<?xml version="1.0" encoding="UTF-8" standalone="no"?>
<!DOCTYPE svg PUBLIC "-//W3C//DTD SVG 1.1//EN"
 "http://www.w3.org/Graphics/SVG/1.1/DTD/svg11.dtd">
<!-- Generated by graphviz version 2.43.0 (0)
 -->
<!-- Title: qpalm::Solver::warm_start Pages: 1 -->
<svg width="395pt" height="138pt"
 viewBox="0.00 0.00 395.00 138.00" xmlns="http://www.w3.org/2000/svg" xmlns:xlink="http://www.w3.org/1999/xlink">

<svg id="main" version="1.1" xmlns="http://www.w3.org/2000/svg" xmlns:xlink="http://www.w3.org/1999/xlink" xml:space="preserve" onload="init(evt)">
<style type="text/css"><![CDATA[
.node, .edge {opacity: 0.7;}
.node.selected, .edge.selected {opacity: 1;}
.edge:hover path { stroke: red; }
.edge:hover polygon { stroke: red; fill: red; }
]]></style>
<script type="application/ecmascript" xlink:href="svg.min.js"/>
<svg id="graph" class="graph">
<g id="graph0" class="graph" transform="scale(1 1) rotate(0) translate(4 134)">
<title>qpalm::Solver::warm_start</title>
<!-- Node1 -->
<g id="Node000001" class="node">
<title>Node1</title>
<g id="a_Node000001"><a xlink:title=" ">
<polygon fill="#999999" stroke="#666666" points="118,-79.5 0,-79.5 0,-49.5 118,-49.5 118,-79.5"/>
<text text-anchor="start" x="8" y="-67.5" font-family="Helvetica,sans-Serif" font-size="10.00">qpalm::Solver::warm</text>
<text text-anchor="middle" x="59" y="-56.5" font-family="Helvetica,sans-Serif" font-size="10.00">_start</text>
</a>
</g>
</g>
<!-- Node2 -->
<g id="Node000002" class="node">
<title>Node2</title>
<g id="a_Node000002"><a xlink:href="group__solver-grp.html#ga647edc4e31481ccafe1813205a87ecbd" target="_top" xlink:title="Warm start workspace variables x, x_0, x_prev, Ax, Qx, y and sigma.">
<polygon fill="white" stroke="#666666" points="262,-74 154,-74 154,-55 262,-55 262,-74"/>
<text text-anchor="middle" x="208" y="-62" font-family="Helvetica,sans-Serif" font-size="10.00">qpalm_warm_start</text>
</a>
</g>
</g>
<!-- Node1&#45;&gt;Node2 -->
<g id="edge1_Node000001_Node000002" class="edge">
<title>Node1&#45;&gt;Node2</title>
<g id="a_edge1_Node000001_Node000002"><a xlink:title=" ">
<path fill="none" stroke="#63b8ff" d="M118.1,-64.5C126.43,-64.5 135.03,-64.5 143.46,-64.5"/>
<polygon fill="#63b8ff" stroke="#63b8ff" points="143.62,-68 153.62,-64.5 143.62,-61 143.62,-68"/>
</a>
</g>
</g>
<!-- Node3 -->
<g id="Node000003" class="node">
<title>Node3</title>
<g id="a_Node000003"><a xlink:href="lin__alg_8c.html#acf468a60c38fbc58b6de539acb6f0a3b" target="_top" xlink:title="Copy vector a into preallocated vector b.">
<polygon fill="white" stroke="#666666" points="387,-130 298,-130 298,-111 387,-111 387,-130"/>
<text text-anchor="middle" x="342.5" y="-118" font-family="Helvetica,sans-Serif" font-size="10.00">prea_vec_copy</text>
</a>
</g>
</g>
<!-- Node2&#45;&gt;Node3 -->
<g id="edge2_Node000002_Node000003" class="edge">
<title>Node2&#45;&gt;Node3</title>
<g id="a_edge2_Node000002_Node000003"><a xlink:title=" ">
<path fill="none" stroke="#63b8ff" d="M231.28,-74.1C249.27,-81.82 275.23,-92.93 298,-102.5 301.44,-103.95 305.04,-105.45 308.63,-106.95"/>
<polygon fill="#63b8ff" stroke="#63b8ff" points="307.42,-110.23 318,-110.83 310.11,-103.77 307.42,-110.23"/>
</a>
</g>
</g>
<!-- Node4 -->
<g id="Node000004" class="node">
<title>Node4</title>
<g id="a_Node000004"><a xlink:href="global__opts_8c.html#a057129daf1349d96b074b9dca1994d09" target="_top" xlink:title=" ">
<polygon fill="white" stroke="#666666" points="378.5,-93 306.5,-93 306.5,-74 378.5,-74 378.5,-93"/>
<text text-anchor="middle" x="342.5" y="-81" font-family="Helvetica,sans-Serif" font-size="10.00">qpalm_free</text>
</a>
</g>
</g>
<!-- Node2&#45;&gt;Node4 -->
<g id="edge3_Node000002_Node000004" class="edge">
<title>Node2&#45;&gt;Node4</title>
<g id="a_edge3_Node000002_Node000004"><a xlink:title=" ">
<path fill="none" stroke="#63b8ff" d="M262.13,-72.12C273.37,-73.73 285.13,-75.42 296.06,-76.98"/>
<polygon fill="#63b8ff" stroke="#63b8ff" points="295.83,-80.49 306.23,-78.44 296.83,-73.56 295.83,-80.49"/>
</a>
</g>
</g>
<!-- Node5 -->
<g id="Node000005" class="node">
<title>Node5</title>
<g id="a_Node000005"><a xlink:href="util_8h.html#aae57226ec767e15f27d88e97df093b41" target="_top" xlink:title="Start timer.">
<polygon fill="white" stroke="#666666" points="375,-56 310,-56 310,-37 375,-37 375,-56"/>
<text text-anchor="middle" x="342.5" y="-44" font-family="Helvetica,sans-Serif" font-size="10.00">qpalm_tic</text>
</a>
</g>
</g>
<!-- Node2&#45;&gt;Node5 -->
<g id="edge4_Node000002_Node000005" class="edge">
<title>Node2&#45;&gt;Node5</title>
<g id="a_edge4_Node000002_Node000005"><a xlink:title=" ">
<path fill="none" stroke="#63b8ff" d="M262.13,-57.28C274.6,-55.59 287.72,-53.81 299.62,-52.19"/>
<polygon fill="#63b8ff" stroke="#63b8ff" points="300.28,-55.63 309.72,-50.82 299.34,-48.7 300.28,-55.63"/>
</a>
</g>
</g>
<!-- Node6 -->
<g id="Node000006" class="node">
<title>Node6</title>
<g id="a_Node000006"><a xlink:href="util_8h.html#a6eecdaf6f3f1c4bf0ab1067a5e7e69da" target="_top" xlink:title="Report time in seconds since last call to qpalm_tic.">
<polygon fill="white" stroke="#666666" points="376.5,-19 308.5,-19 308.5,0 376.5,0 376.5,-19"/>
<text text-anchor="middle" x="342.5" y="-7" font-family="Helvetica,sans-Serif" font-size="10.00">qpalm_toc</text>
</a>
</g>
</g>
<!-- Node2&#45;&gt;Node6 -->
<g id="edge5_Node000002_Node000006" class="edge">
<title>Node2&#45;&gt;Node6</title>
<g id="a_edge5_Node000002_Node000006"><a xlink:title=" ">
<path fill="none" stroke="#63b8ff" d="M232.08,-54.92C253.32,-46.1 285.06,-32.93 308.89,-23.04"/>
<polygon fill="#63b8ff" stroke="#63b8ff" points="310.35,-26.22 318.24,-19.16 307.66,-19.76 310.35,-26.22"/>
</a>
</g>
</g>
</g>
</svg>
</svg>

<style type='text/css'>
<![CDATA[
[data-mouse-over-selected='false'] { opacity: 0.7; }
[data-mouse-over-selected='true']  { opacity: 1.0; }
]]>
</style>
<script type="application/ecmascript"><![CDATA[
document.addEventListener('DOMContentLoaded', (event) => {
  highlightEdges();
  highlightAdjacentNodes();
});
]]></script>
</svg>
