<?xml version="1.0" encoding="UTF-8" standalone="no"?>
<!DOCTYPE svg PUBLIC "-//W3C//DTD SVG 1.1//EN"
 "http://www.w3.org/Graphics/SVG/1.1/DTD/svg11.dtd">
<!-- Generated by graphviz version 2.43.0 (0)
 -->
<!-- Title: initialize_sigma Pages: 1 -->
<svg width="238pt" height="212pt"
 viewBox="0.00 0.00 238.00 212.00" xmlns="http://www.w3.org/2000/svg" xmlns:xlink="http://www.w3.org/1999/xlink">

<svg id="main" version="1.1" xmlns="http://www.w3.org/2000/svg" xmlns:xlink="http://www.w3.org/1999/xlink" xml:space="preserve" onload="init(evt)">
<style type="text/css"><![CDATA[
.node, .edge {opacity: 0.7;}
.node.selected, .edge.selected {opacity: 1;}
.edge:hover path { stroke: red; }
.edge:hover polygon { stroke: red; fill: red; }
]]></style>
<script type="application/ecmascript" xlink:href="svg.min.js"/>
<svg id="graph" class="graph">
<g id="graph0" class="graph" transform="scale(1 1) rotate(0) translate(4 208)">
<title>initialize_sigma</title>
<!-- Node1 -->
<g id="Node000001" class="node">
<title>Node1</title>
<g id="a_Node000001"><a xlink:title="Initialize penalty factors from initial x.">
<polygon fill="#999999" stroke="#666666" points="94,-111 0,-111 0,-92 94,-92 94,-111"/>
<text text-anchor="middle" x="47" y="-99" font-family="Helvetica,sans-Serif" font-size="10.00">initialize_sigma</text>
</a>
</g>
</g>
<!-- Node2 -->
<g id="Node000002" class="node">
<title>Node2</title>
<g id="a_Node000002"><a xlink:href="lin__alg_8c.html#a0fde1aeeea954e43db160ec6e3697cd5" target="_top" xlink:title="Scaled addition of one vector to another vector, .">
<polygon fill="white" stroke="#666666" points="227,-204 133,-204 133,-185 227,-185 227,-204"/>
<text text-anchor="middle" x="180" y="-192" font-family="Helvetica,sans-Serif" font-size="10.00">vec_add_scaled</text>
</a>
</g>
</g>
<!-- Node1&#45;&gt;Node2 -->
<g id="edge1_Node000001_Node000002" class="edge">
<title>Node1&#45;&gt;Node2</title>
<g id="a_edge1_Node000001_Node000002"><a xlink:title=" ">
<path fill="none" stroke="#63b8ff" d="M56.16,-111.07C69.95,-126.71 99.34,-157.85 130,-176.5 132.5,-178.02 135.16,-179.45 137.88,-180.78"/>
<polygon fill="#63b8ff" stroke="#63b8ff" points="136.75,-184.1 147.31,-184.92 139.56,-177.69 136.75,-184.1"/>
</a>
</g>
</g>
<!-- Node3 -->
<g id="Node000003" class="node">
<title>Node3</title>
<g id="a_Node000003"><a xlink:href="lin__alg_8c.html#a93df027e9826a479bf77a0770817c71a" target="_top" xlink:title="Elementwise mid between vectors, .">
<polygon fill="white" stroke="#666666" points="230,-167 130,-167 130,-148 230,-148 230,-167"/>
<text text-anchor="middle" x="180" y="-155" font-family="Helvetica,sans-Serif" font-size="10.00">vec_ew_mid_vec</text>
</a>
</g>
</g>
<!-- Node1&#45;&gt;Node3 -->
<g id="edge2_Node000001_Node000003" class="edge">
<title>Node1&#45;&gt;Node3</title>
<g id="a_edge2_Node000001_Node000003"><a xlink:title=" ">
<path fill="none" stroke="#63b8ff" d="M67.35,-111.01C83.84,-118.99 108.26,-130.49 130,-139.5 133.96,-141.14 138.12,-142.79 142.28,-144.38"/>
<polygon fill="#63b8ff" stroke="#63b8ff" points="141.3,-147.75 151.89,-147.99 143.76,-141.2 141.3,-147.75"/>
</a>
</g>
</g>
<!-- Node4 -->
<g id="Node000004" class="node">
<title>Node4</title>
<g id="a_Node000004"><a xlink:href="lin__alg_8c.html#aebb20e932bc52e918667db2a70cb0781" target="_top" xlink:title="Elementwise reciprocal .">
<polygon fill="white" stroke="#666666" points="223,-130 137,-130 137,-111 223,-111 223,-130"/>
<text text-anchor="middle" x="180" y="-118" font-family="Helvetica,sans-Serif" font-size="10.00">vec_ew_recipr</text>
</a>
</g>
</g>
<!-- Node1&#45;&gt;Node4 -->
<g id="edge3_Node000001_Node000004" class="edge">
<title>Node1&#45;&gt;Node4</title>
<g id="a_edge3_Node000001_Node000004"><a xlink:title=" ">
<path fill="none" stroke="#63b8ff" d="M94.19,-108.2C104.68,-109.72 115.9,-111.35 126.63,-112.9"/>
<polygon fill="#63b8ff" stroke="#63b8ff" points="126.33,-116.4 136.73,-114.37 127.34,-109.47 126.33,-116.4"/>
</a>
</g>
</g>
<!-- Node5 -->
<g id="Node000005" class="node">
<title>Node5</title>
<g id="a_Node000005"><a xlink:href="lin__alg_8c.html#aff49f7b83b7dc6ec1b18557c9f4ea995" target="_top" xlink:title="Elementwise square root, .">
<polygon fill="white" stroke="#666666" points="218.5,-93 141.5,-93 141.5,-74 218.5,-74 218.5,-93"/>
<text text-anchor="middle" x="180" y="-81" font-family="Helvetica,sans-Serif" font-size="10.00">vec_ew_sqrt</text>
</a>
</g>
</g>
<!-- Node1&#45;&gt;Node5 -->
<g id="edge4_Node000001_Node000005" class="edge">
<title>Node1&#45;&gt;Node5</title>
<g id="a_edge4_Node000001_Node000005"><a xlink:title=" ">
<path fill="none" stroke="#63b8ff" d="M94.19,-95.15C106.27,-93.49 119.32,-91.7 131.47,-90.03"/>
<polygon fill="#63b8ff" stroke="#63b8ff" points="132,-93.49 141.43,-88.66 131.05,-86.56 132,-93.49"/>
</a>
</g>
</g>
<!-- Node6 -->
<g id="Node000006" class="node">
<title>Node6</title>
<g id="a_Node000006"><a xlink:href="lin__alg_8c.html#ab83e787c2e0edb5803a860b1c894f53d" target="_top" xlink:title="Inner product between two vectors, .">
<polygon fill="white" stroke="#666666" points="210.5,-56 149.5,-56 149.5,-37 210.5,-37 210.5,-56"/>
<text text-anchor="middle" x="180" y="-44" font-family="Helvetica,sans-Serif" font-size="10.00">vec_prod</text>
</a>
</g>
</g>
<!-- Node1&#45;&gt;Node6 -->
<g id="edge5_Node000001_Node000006" class="edge">
<title>Node1&#45;&gt;Node6</title>
<g id="a_edge5_Node000001_Node000006"><a xlink:title=" ">
<path fill="none" stroke="#63b8ff" d="M69.13,-91.92C85.62,-84.51 109.16,-74.11 130,-65.5 134.56,-63.62 139.37,-61.68 144.13,-59.8"/>
<polygon fill="#63b8ff" stroke="#63b8ff" points="145.69,-62.95 153.74,-56.05 143.15,-56.43 145.69,-62.95"/>
</a>
</g>
</g>
<!-- Node7 -->
<g id="Node000007" class="node">
<title>Node7</title>
<g id="a_Node000007"><a xlink:href="lin__alg_8c.html#a67ead739705f515285526db604c5bb7d" target="_top" xlink:title="Fill float vector with a scalar value.">
<polygon fill="white" stroke="#666666" points="224.5,-19 135.5,-19 135.5,0 224.5,0 224.5,-19"/>
<text text-anchor="middle" x="180" y="-7" font-family="Helvetica,sans-Serif" font-size="10.00">vec_set_scalar</text>
</a>
</g>
</g>
<!-- Node1&#45;&gt;Node7 -->
<g id="edge6_Node000001_Node000007" class="edge">
<title>Node1&#45;&gt;Node7</title>
<g id="a_edge6_Node000001_Node000007"><a xlink:title=" ">
<path fill="none" stroke="#63b8ff" d="M56.71,-91.77C70.81,-76.5 100.08,-46.79 130,-28.5 133.18,-26.55 136.6,-24.74 140.1,-23.08"/>
<polygon fill="#63b8ff" stroke="#63b8ff" points="141.66,-26.21 149.42,-19 138.86,-19.8 141.66,-26.21"/>
</a>
</g>
</g>
</g>
</svg>
</svg>

<style type='text/css'>
<![CDATA[
[data-mouse-over-selected='false'] { opacity: 0.7; }
[data-mouse-over-selected='true']  { opacity: 1.0; }
]]>
</style>
<script type="application/ecmascript"><![CDATA[
document.addEventListener('DOMContentLoaded', (event) => {
  highlightEdges();
  highlightAdjacentNodes();
});
]]></script>
</svg>
