<?xml version="1.0" encoding="UTF-8" standalone="no"?>
<!DOCTYPE svg PUBLIC "-//W3C//DTD SVG 1.1//EN"
 "http://www.w3.org/Graphics/SVG/1.1/DTD/svg11.dtd">
<!-- Generated by graphviz version 2.43.0 (0)
 -->
<!-- Title: QPALM/src/nonconvex.c Pages: 1 -->
<svg width="480pt" height="302pt"
 viewBox="0.00 0.00 479.68 302.00" xmlns="http://www.w3.org/2000/svg" xmlns:xlink="http://www.w3.org/1999/xlink">

<svg id="main" version="1.1" xmlns="http://www.w3.org/2000/svg" xmlns:xlink="http://www.w3.org/1999/xlink" xml:space="preserve" onload="init(evt)">
<style type="text/css"><![CDATA[
.node, .edge {opacity: 0.7;}
.node.selected, .edge.selected {opacity: 1;}
.edge:hover path { stroke: red; }
.edge:hover polygon { stroke: red; fill: red; }
]]></style>
<script type="application/ecmascript" xlink:href="svg.min.js"/>
<svg id="graph" class="graph">
<g id="graph0" class="graph" transform="scale(1 1) rotate(0) translate(4 298)">
<title>QPALM/src/nonconvex.c</title>
<!-- Node1 -->
<g id="Node000001" class="node">
<title>Node1</title>
<g id="a_Node000001"><a xlink:title="Routines to deal with nonconvex QPs.">
<polygon fill="#999999" stroke="#666666" points="329.68,-294 197.68,-294 197.68,-275 329.68,-275 329.68,-294"/>
<text text-anchor="middle" x="263.68" y="-282" font-family="Helvetica,sans-Serif" font-size="10.00">QPALM/src/nonconvex.c</text>
</a>
</g>
</g>
<!-- Node2 -->
<g id="Node000002" class="node">
<title>Node2</title>
<g id="a_Node000002"><a xlink:href="nonconvex_8h.html" target="_top" xlink:title="Routines to deal with nonconvex QPs.">
<polygon fill="white" stroke="#666666" points="405.18,-239 292.18,-239 292.18,-220 405.18,-220 405.18,-239"/>
<text text-anchor="middle" x="348.68" y="-227" font-family="Helvetica,sans-Serif" font-size="10.00">qpalm/nonconvex.h</text>
</a>
</g>
</g>
<!-- Node1&#45;&gt;Node2 -->
<g id="edge1_Node000001_Node000002" class="edge">
<title>Node1&#45;&gt;Node2</title>
<g id="a_edge1_Node000001_Node000002"><a xlink:title=" ">
<path fill="none" stroke="#63b8ff" d="M277.33,-274.98C290.51,-266.77 310.7,-254.18 326.25,-244.49"/>
<polygon fill="#63b8ff" stroke="#63b8ff" points="328.14,-247.43 334.77,-239.17 324.43,-241.49 328.14,-247.43"/>
</a>
</g>
</g>
<!-- Node3 -->
<g id="Node000003" class="node">
<title>Node3</title>
<g id="a_Node000003"><a xlink:href="types_8h.html" target="_top" xlink:title="Internal data structures used in QPALM.">
<polygon fill="white" stroke="#666666" points="321.68,-129 235.68,-129 235.68,-110 321.68,-110 321.68,-129"/>
<text text-anchor="middle" x="278.68" y="-117" font-family="Helvetica,sans-Serif" font-size="10.00">qpalm/types.h</text>
</a>
</g>
</g>
<!-- Node1&#45;&gt;Node3 -->
<g id="edge7_Node000001_Node000003" class="edge">
<title>Node1&#45;&gt;Node3</title>
<g id="a_edge7_Node000001_Node000003"><a xlink:title=" ">
<path fill="none" stroke="#63b8ff" d="M264.59,-274.99C266.43,-257.8 270.65,-217.72 273.68,-184 275.02,-168.99 276.35,-151.97 277.3,-139.32"/>
<polygon fill="#63b8ff" stroke="#63b8ff" points="280.81,-139.36 278.06,-129.13 273.83,-138.85 280.81,-139.36"/>
</a>
</g>
</g>
<!-- Node4 -->
<g id="Node000004" class="node">
<title>Node4</title>
<g id="a_Node000004"><a xlink:href="global__opts_8h.html" target="_top" xlink:title="Custom memory allocation, print and utility functions, and data types for floats and ints.">
<polygon fill="white" stroke="#666666" points="351.68,-74 235.68,-74 235.68,-55 351.68,-55 351.68,-74"/>
<text text-anchor="middle" x="293.68" y="-62" font-family="Helvetica,sans-Serif" font-size="10.00">qpalm/global_opts.h</text>
</a>
</g>
</g>
<!-- Node1&#45;&gt;Node4 -->
<g id="edge10_Node000001_Node000004" class="edge">
<title>Node1&#45;&gt;Node4</title>
<g id="a_edge10_Node000001_Node000004"><a xlink:title=" ">
<path fill="none" stroke="#63b8ff" d="M330,-281.34C360.92,-276.59 395.12,-265.15 414.68,-239 458.08,-180.96 362.66,-109.3 316.66,-79.51"/>
<polygon fill="#63b8ff" stroke="#63b8ff" points="318.49,-76.53 308.17,-74.13 314.74,-82.44 318.49,-76.53"/>
</a>
</g>
</g>
<!-- Node6 -->
<g id="Node000006" class="node">
<title>Node6</title>
<g id="a_Node000006"><a xlink:title=" ">
<polygon fill="#e0e0e0" stroke="#999999" points="405.18,-19 354.18,-19 354.18,0 405.18,0 405.18,-19"/>
<text text-anchor="middle" x="379.68" y="-7" font-family="Helvetica,sans-Serif" font-size="10.00">math.h</text>
</a>
</g>
</g>
<!-- Node1&#45;&gt;Node6 -->
<g id="edge21_Node000001_Node000006" class="edge">
<title>Node1&#45;&gt;Node6</title>
<g id="a_edge21_Node000001_Node000006"><a xlink:title=" ">
<path fill="none" stroke="#63b8ff" d="M329.77,-276.74C390.68,-266.43 471.68,-240.5 471.68,-175.5 471.68,-175.5 471.68,-175.5 471.68,-118.5 471.68,-76.45 430.77,-42.46 403.51,-24.48"/>
<polygon fill="#63b8ff" stroke="#63b8ff" points="405.19,-21.4 394.87,-19 401.44,-27.31 405.19,-21.4"/>
</a>
</g>
</g>
<!-- Node7 -->
<g id="Node000007" class="node">
<title>Node7</title>
<g id="a_Node000007"><a xlink:href="constants_8h.html" target="_top" xlink:title="Constants used in QPALM.">
<polygon fill="white" stroke="#666666" points="120.18,-129 13.18,-129 13.18,-110 120.18,-110 120.18,-129"/>
<text text-anchor="middle" x="66.68" y="-117" font-family="Helvetica,sans-Serif" font-size="10.00">qpalm/constants.h</text>
</a>
</g>
</g>
<!-- Node1&#45;&gt;Node7 -->
<g id="edge8_Node000001_Node000007" class="edge">
<title>Node1&#45;&gt;Node7</title>
<g id="a_edge8_Node000001_Node000007"><a xlink:title=" ">
<path fill="none" stroke="#63b8ff" d="M197.6,-280.14C134.26,-272.85 42.69,-250.63 3.68,-184 -8.13,-163.83 15.72,-145.43 37.38,-133.69"/>
<polygon fill="#63b8ff" stroke="#63b8ff" points="39.1,-136.74 46.42,-129.08 35.92,-130.5 39.1,-136.74"/>
</a>
</g>
</g>
<!-- Node8 -->
<g id="Node000008" class="node">
<title>Node8</title>
<g id="a_Node000008"><a xlink:href="lin__alg_8h.html" target="_top" xlink:title="Linear algebra with vectors.">
<polygon fill="white" stroke="#666666" points="235.68,-239 143.68,-239 143.68,-220 235.68,-220 235.68,-239"/>
<text text-anchor="middle" x="189.68" y="-227" font-family="Helvetica,sans-Serif" font-size="10.00">qpalm/lin_alg.h</text>
</a>
</g>
</g>
<!-- Node1&#45;&gt;Node8 -->
<g id="edge11_Node000001_Node000008" class="edge">
<title>Node1&#45;&gt;Node8</title>
<g id="a_edge11_Node000001_Node000008"><a xlink:title=" ">
<path fill="none" stroke="#63b8ff" d="M251.79,-274.98C240.53,-266.92 223.39,-254.65 209.97,-245.03"/>
<polygon fill="#63b8ff" stroke="#63b8ff" points="211.95,-242.15 201.78,-239.17 207.87,-247.84 211.95,-242.15"/>
</a>
</g>
</g>
<!-- Node10 -->
<g id="Node000010" class="node">
<title>Node10</title>
<g id="a_Node000010"><a xlink:href="util_8h.html" target="_top" xlink:title="Utility functions.">
<polygon fill="white" stroke="#666666" points="88.18,-184 13.18,-184 13.18,-165 88.18,-165 88.18,-184"/>
<text text-anchor="middle" x="50.68" y="-172" font-family="Helvetica,sans-Serif" font-size="10.00">qpalm/util.h</text>
</a>
</g>
</g>
<!-- Node1&#45;&gt;Node10 -->
<g id="edge18_Node000001_Node000010" class="edge">
<title>Node1&#45;&gt;Node10</title>
<g id="a_edge18_Node000001_Node000010"><a xlink:title=" ">
<path fill="none" stroke="#63b8ff" d="M229.6,-274.92C202.86,-267.46 165.2,-255.27 134.68,-239 109.67,-225.67 84.16,-205.21 67.91,-191.13"/>
<polygon fill="#63b8ff" stroke="#63b8ff" points="70.13,-188.42 60.31,-184.43 65.5,-193.67 70.13,-188.42"/>
</a>
</g>
</g>
<!-- Node2&#45;&gt;Node3 -->
<g id="edge2_Node000002_Node000003" class="edge">
<title>Node2&#45;&gt;Node3</title>
<g id="a_edge2_Node000002_Node000003"><a xlink:title=" ">
<path fill="none" stroke="#63b8ff" d="M346.67,-219.72C343.46,-206.92 336.33,-182.73 324.68,-165 317.48,-154.05 307.15,-143.75 298.11,-135.82"/>
<polygon fill="#63b8ff" stroke="#63b8ff" points="300.2,-133 290.29,-129.25 295.69,-138.37 300.2,-133"/>
</a>
</g>
</g>
<!-- Node3&#45;&gt;Node4 -->
<g id="edge3_Node000003_Node000004" class="edge">
<title>Node3&#45;&gt;Node4</title>
<g id="a_edge3_Node000003_Node000004"><a xlink:title=" ">
<path fill="none" stroke="#63b8ff" d="M281.15,-109.75C283.14,-102.72 286,-92.62 288.48,-83.84"/>
<polygon fill="#63b8ff" stroke="#63b8ff" points="291.89,-84.66 291.24,-74.09 285.15,-82.76 291.89,-84.66"/>
</a>
</g>
</g>
<!-- Node5 -->
<g id="Node000005" class="node">
<title>Node5</title>
<g id="a_Node000005"><a xlink:title=" ">
<polygon fill="#e0e0e0" stroke="#999999" points="213.68,-19 163.68,-19 163.68,0 213.68,0 213.68,-19"/>
<text text-anchor="middle" x="188.68" y="-7" font-family="Helvetica,sans-Serif" font-size="10.00">ladel.h</text>
</a>
</g>
</g>
<!-- Node3&#45;&gt;Node5 -->
<g id="edge6_Node000003_Node000005" class="edge">
<title>Node3&#45;&gt;Node5</title>
<g id="a_edge6_Node000003_Node000005"><a xlink:title=" ">
<path fill="none" stroke="#63b8ff" d="M266.54,-109.92C255.33,-101.59 238.63,-88.16 226.68,-74 214.79,-59.92 204.29,-41.68 197.36,-28.37"/>
<polygon fill="#63b8ff" stroke="#63b8ff" points="200.42,-26.65 192.79,-19.29 194.16,-29.8 200.42,-26.65"/>
</a>
</g>
</g>
<!-- Node4&#45;&gt;Node5 -->
<g id="edge4_Node000004_Node000005" class="edge">
<title>Node4&#45;&gt;Node5</title>
<g id="a_edge4_Node000004_Node000005"><a xlink:title=" ">
<path fill="none" stroke="#63b8ff" d="M276.81,-54.98C260.07,-46.54 234.18,-33.47 214.78,-23.68"/>
<polygon fill="#63b8ff" stroke="#63b8ff" points="216.36,-20.55 205.85,-19.17 213.2,-26.8 216.36,-20.55"/>
</a>
</g>
</g>
<!-- Node4&#45;&gt;Node6 -->
<g id="edge5_Node000004_Node000006" class="edge">
<title>Node4&#45;&gt;Node6</title>
<g id="a_edge5_Node000004_Node000006"><a xlink:title=" ">
<path fill="none" stroke="#63b8ff" d="M307.49,-54.98C320.83,-46.77 341.26,-34.18 356.98,-24.49"/>
<polygon fill="#63b8ff" stroke="#63b8ff" points="358.93,-27.4 365.61,-19.17 355.26,-21.44 358.93,-27.4"/>
</a>
</g>
</g>
<!-- Node7&#45;&gt;Node5 -->
<g id="edge9_Node000007_Node000005" class="edge">
<title>Node7&#45;&gt;Node5</title>
<g id="a_edge9_Node000007_Node000005"><a xlink:title=" ">
<path fill="none" stroke="#63b8ff" d="M76.66,-109.66C97.41,-91.3 145.4,-48.81 171.32,-25.87"/>
<polygon fill="#63b8ff" stroke="#63b8ff" points="173.73,-28.41 178.9,-19.16 169.09,-23.17 173.73,-28.41"/>
</a>
</g>
</g>
<!-- Node8&#45;&gt;Node3 -->
<g id="edge12_Node000008_Node000003" class="edge">
<title>Node8&#45;&gt;Node3</title>
<g id="a_edge12_Node000008_Node000003"><a xlink:title=" ">
<path fill="none" stroke="#63b8ff" d="M207.32,-219.97C221.54,-212.3 241.17,-199.82 253.68,-184 264.13,-170.79 270.68,-152.66 274.44,-139.16"/>
<polygon fill="#63b8ff" stroke="#63b8ff" points="277.92,-139.66 276.97,-129.11 271.14,-137.95 277.92,-139.66"/>
</a>
</g>
</g>
<!-- Node9 -->
<g id="Node000009" class="node">
<title>Node9</title>
<g id="a_Node000009"><a xlink:href="solver__interface_8h.html" target="_top" xlink:title="Interface and wrapper to matrix/factorization (ladel) functions.">
<polygon fill="white" stroke="#666666" points="244.68,-184 106.68,-184 106.68,-165 244.68,-165 244.68,-184"/>
<text text-anchor="middle" x="175.68" y="-172" font-family="Helvetica,sans-Serif" font-size="10.00">qpalm/solver_interface.h</text>
</a>
</g>
</g>
<!-- Node8&#45;&gt;Node9 -->
<g id="edge13_Node000008_Node000009" class="edge">
<title>Node8&#45;&gt;Node9</title>
<g id="a_edge13_Node000008_Node000009"><a xlink:title=" ">
<path fill="none" stroke="#63b8ff" d="M187.36,-219.75C185.51,-212.72 182.84,-202.62 180.52,-193.84"/>
<polygon fill="#63b8ff" stroke="#63b8ff" points="183.88,-192.86 177.94,-184.09 177.11,-194.65 183.88,-192.86"/>
</a>
</g>
</g>
<!-- Node9&#45;&gt;Node3 -->
<g id="edge16_Node000009_Node000003" class="edge">
<title>Node9&#45;&gt;Node3</title>
<g id="a_edge16_Node000009_Node000003"><a xlink:title=" ">
<path fill="none" stroke="#63b8ff" d="M192.22,-164.98C208.57,-156.57 233.81,-143.59 252.81,-133.81"/>
<polygon fill="#63b8ff" stroke="#63b8ff" points="254.54,-136.86 261.83,-129.17 251.33,-130.63 254.54,-136.86"/>
</a>
</g>
</g>
<!-- Node9&#45;&gt;Node4 -->
<g id="edge14_Node000009_Node000004" class="edge">
<title>Node9&#45;&gt;Node4</title>
<g id="a_edge14_Node000009_Node000004"><a xlink:title=" ">
<path fill="none" stroke="#63b8ff" d="M181.52,-164.57C190.3,-151.59 207.88,-127.17 226.68,-110 239.58,-98.22 255.87,-87.32 269.16,-79.26"/>
<polygon fill="#63b8ff" stroke="#63b8ff" points="270.97,-82.26 277.8,-74.16 267.41,-76.23 270.97,-82.26"/>
</a>
</g>
</g>
<!-- Node9&#45;&gt;Node5 -->
<g id="edge17_Node000009_Node000005" class="edge">
<title>Node9&#45;&gt;Node5</title>
<g id="a_edge17_Node000009_Node000005"><a xlink:title=" ">
<path fill="none" stroke="#63b8ff" d="M176.37,-164.74C178.4,-139.31 184.32,-65.08 187.15,-29.69"/>
<polygon fill="#63b8ff" stroke="#63b8ff" points="190.67,-29.55 187.97,-19.31 183.69,-29 190.67,-29.55"/>
</a>
</g>
</g>
<!-- Node9&#45;&gt;Node7 -->
<g id="edge15_Node000009_Node000007" class="edge">
<title>Node9&#45;&gt;Node7</title>
<g id="a_edge15_Node000009_Node000007"><a xlink:title=" ">
<path fill="none" stroke="#63b8ff" d="M158.16,-164.98C140.71,-156.5 113.67,-143.35 93.5,-133.54"/>
<polygon fill="#63b8ff" stroke="#63b8ff" points="95.03,-130.4 84.51,-129.17 91.97,-136.69 95.03,-130.4"/>
</a>
</g>
</g>
<!-- Node10&#45;&gt;Node3 -->
<g id="edge19_Node000010_Node000003" class="edge">
<title>Node10&#45;&gt;Node3</title>
<g id="a_edge19_Node000010_Node000003"><a xlink:title=" ">
<path fill="none" stroke="#63b8ff" d="M87.31,-164.98C126.58,-155.86 189.05,-141.33 231.86,-131.38"/>
<polygon fill="#63b8ff" stroke="#63b8ff" points="232.81,-134.76 241.76,-129.08 231.22,-127.94 232.81,-134.76"/>
</a>
</g>
</g>
<!-- Node10&#45;&gt;Node7 -->
<g id="edge20_Node000010_Node000007" class="edge">
<title>Node10&#45;&gt;Node7</title>
<g id="a_edge20_Node000010_Node000007"><a xlink:title=" ">
<path fill="none" stroke="#63b8ff" d="M53.32,-164.75C55.44,-157.72 58.49,-147.62 61.14,-138.84"/>
<polygon fill="#63b8ff" stroke="#63b8ff" points="64.54,-139.67 64.08,-129.09 57.84,-137.65 64.54,-139.67"/>
</a>
</g>
</g>
</g>
</svg>
</svg>

<style type='text/css'>
<![CDATA[
[data-mouse-over-selected='false'] { opacity: 0.7; }
[data-mouse-over-selected='true']  { opacity: 1.0; }
]]>
</style>
<script type="application/ecmascript"><![CDATA[
document.addEventListener('DOMContentLoaded', (event) => {
  highlightEdges();
  highlightAdjacentNodes();
});
]]></script>
</svg>
