<?xml version="1.0" encoding="UTF-8" standalone="no"?>
<!DOCTYPE svg PUBLIC "-//W3C//DTD SVG 1.1//EN"
 "http://www.w3.org/Graphics/SVG/1.1/DTD/svg11.dtd">
<!-- Generated by graphviz version 2.43.0 (0)
 -->
<!-- Title: QPALM/interfaces/fortran/qpalm_fortran.c Pages: 1 -->
<svg width="919pt" height="478pt"
 viewBox="0.00 0.00 919.26 478.00" xmlns="http://www.w3.org/2000/svg" xmlns:xlink="http://www.w3.org/1999/xlink">
<g id="graph0" class="graph" transform="scale(1 1) rotate(0) translate(4 474)">
<title>QPALM/interfaces/fortran/qpalm_fortran.c</title>
<!-- Node1 -->
<g id="Node000001" class="node">
<title>Node1</title>
<g id="a_Node000001"><a xlink:title=" ">
<polygon fill="#999999" stroke="#666666" points="509.26,-470 371.26,-470 371.26,-440 509.26,-440 509.26,-470"/>
<text text-anchor="start" x="379.26" y="-458" font-family="Helvetica,sans-Serif" font-size="10.00">QPALM/interfaces/fortran</text>
<text text-anchor="middle" x="440.26" y="-447" font-family="Helvetica,sans-Serif" font-size="10.00">/qpalm_fortran.c</text>
</a>
</g>
</g>
<!-- Node2 -->
<g id="Node000002" class="node">
<title>Node2</title>
<g id="a_Node000002"><a xlink:href="qpalm__fortran_8h.html" target="_top" xlink:title=" ">
<polygon fill="white" stroke="#666666" points="487.76,-404 392.76,-404 392.76,-385 487.76,-385 487.76,-404"/>
<text text-anchor="middle" x="440.26" y="-392" font-family="Helvetica,sans-Serif" font-size="10.00">qpalm_fortran.h</text>
</a>
</g>
</g>
<!-- Node1&#45;&gt;Node2 -->
<g id="edge1_Node000001_Node000002" class="edge">
<title>Node1&#45;&gt;Node2</title>
<g id="a_edge1_Node000001_Node000002"><a xlink:title=" ">
<path fill="none" stroke="#63b8ff" d="M440.26,-439.84C440.26,-432.21 440.26,-422.7 440.26,-414.45"/>
<polygon fill="#63b8ff" stroke="#63b8ff" points="443.76,-414.27 440.26,-404.27 436.76,-414.27 443.76,-414.27"/>
</a>
</g>
</g>
<!-- Node3 -->
<g id="Node000003" class="node">
<title>Node3</title>
<g id="a_Node000003"><a xlink:href="qpalm_8h.html" target="_top" xlink:title="QPALM main solver API.">
<polygon fill="white" stroke="#666666" points="468.26,-349 412.26,-349 412.26,-330 468.26,-330 468.26,-349"/>
<text text-anchor="middle" x="440.26" y="-337" font-family="Helvetica,sans-Serif" font-size="10.00">qpalm.h</text>
</a>
</g>
</g>
<!-- Node2&#45;&gt;Node3 -->
<g id="edge2_Node000002_Node000003" class="edge">
<title>Node2&#45;&gt;Node3</title>
<g id="a_edge2_Node000002_Node000003"><a xlink:title=" ">
<path fill="none" stroke="#63b8ff" d="M440.26,-384.75C440.26,-377.8 440.26,-367.85 440.26,-359.13"/>
<polygon fill="#63b8ff" stroke="#63b8ff" points="443.76,-359.09 440.26,-349.09 436.76,-359.09 443.76,-359.09"/>
</a>
</g>
</g>
<!-- Node4 -->
<g id="Node000004" class="node">
<title>Node4</title>
<g id="a_Node000004"><a xlink:href="constants_8h.html" target="_top" xlink:title="Constants used in QPALM.">
<polygon fill="white" stroke="#666666" points="211.76,-129 104.76,-129 104.76,-110 211.76,-110 211.76,-129"/>
<text text-anchor="middle" x="158.26" y="-117" font-family="Helvetica,sans-Serif" font-size="10.00">qpalm/constants.h</text>
</a>
</g>
</g>
<!-- Node3&#45;&gt;Node4 -->
<g id="edge3_Node000003_Node000004" class="edge">
<title>Node3&#45;&gt;Node4</title>
<g id="a_edge3_Node000003_Node000004"><a xlink:title=" ">
<path fill="none" stroke="#63b8ff" d="M412.09,-336.72C344.23,-332.08 173.52,-318.29 122.26,-294 57.18,-263.15 32.12,-249.99 3.26,-184 -14.57,-143.25 44.25,-128.52 94.48,-123.27"/>
<polygon fill="#63b8ff" stroke="#63b8ff" points="95.08,-126.73 104.71,-122.32 94.43,-119.76 95.08,-126.73"/>
</a>
</g>
</g>
<!-- Node6 -->
<g id="Node000006" class="node">
<title>Node6</title>
<g id="a_Node000006"><a xlink:href="global__opts_8h.html" target="_top" xlink:title="Custom memory allocation, print and utility functions, and data types for floats and ints.">
<polygon fill="white" stroke="#666666" points="553.26,-74 437.26,-74 437.26,-55 553.26,-55 553.26,-74"/>
<text text-anchor="middle" x="495.26" y="-62" font-family="Helvetica,sans-Serif" font-size="10.00">qpalm/global_opts.h</text>
</a>
</g>
</g>
<!-- Node3&#45;&gt;Node6 -->
<g id="edge5_Node000003_Node000006" class="edge">
<title>Node3&#45;&gt;Node6</title>
<g id="a_edge5_Node000003_Node000006"><a xlink:title=" ">
<path fill="none" stroke="#63b8ff" d="M468.31,-338.11C569.71,-335.96 911.26,-321.94 911.26,-230.5 911.26,-230.5 911.26,-230.5 911.26,-173.5 911.26,-102.54 681.61,-77.4 563.57,-69.17"/>
<polygon fill="#63b8ff" stroke="#63b8ff" points="563.75,-65.68 553.54,-68.5 563.28,-72.66 563.75,-65.68"/>
</a>
</g>
</g>
<!-- Node8 -->
<g id="Node000008" class="node">
<title>Node8</title>
<g id="a_Node000008"><a xlink:href="iteration_8h.html" target="_top" xlink:title="QPALM main solver routines.">
<polygon fill="white" stroke="#666666" points="795.76,-184 694.76,-184 694.76,-165 795.76,-165 795.76,-184"/>
<text text-anchor="middle" x="745.26" y="-172" font-family="Helvetica,sans-Serif" font-size="10.00">qpalm/iteration.h</text>
</a>
</g>
</g>
<!-- Node3&#45;&gt;Node8 -->
<g id="edge8_Node000003_Node000008" class="edge">
<title>Node3&#45;&gt;Node8</title>
<g id="a_edge8_Node000003_Node000008"><a xlink:title=" ">
<path fill="none" stroke="#63b8ff" d="M468.55,-336.27C554.07,-328.86 806.85,-301.91 853.26,-239 871.97,-213.64 834.91,-196.65 799.21,-186.67"/>
<polygon fill="#63b8ff" stroke="#63b8ff" points="799.79,-183.2 789.23,-184.04 798.01,-189.97 799.79,-183.2"/>
</a>
</g>
</g>
<!-- Node9 -->
<g id="Node000009" class="node">
<title>Node9</title>
<g id="a_Node000009"><a xlink:href="types_8h.html" target="_top" xlink:title="Internal data structures used in QPALM.">
<polygon fill="white" stroke="#666666" points="538.26,-129 452.26,-129 452.26,-110 538.26,-110 538.26,-129"/>
<text text-anchor="middle" x="495.26" y="-117" font-family="Helvetica,sans-Serif" font-size="10.00">qpalm/types.h</text>
</a>
</g>
</g>
<!-- Node3&#45;&gt;Node9 -->
<g id="edge34_Node000003_Node000009" class="edge">
<title>Node3&#45;&gt;Node9</title>
<g id="a_edge34_Node000003_Node000009"><a xlink:title=" ">
<path fill="none" stroke="#63b8ff" d="M468.45,-338.34C500.54,-336.45 551.69,-327.89 576.26,-294 597.08,-265.29 626.85,-295.39 545.26,-165 538.01,-153.42 526.88,-143.09 516.95,-135.31"/>
<polygon fill="#63b8ff" stroke="#63b8ff" points="518.79,-132.31 508.67,-129.15 514.61,-137.93 518.79,-132.31"/>
</a>
</g>
</g>
<!-- Node10 -->
<g id="Node000010" class="node">
<title>Node10</title>
<g id="a_Node000010"><a xlink:href="lin__alg_8h.html" target="_top" xlink:title="Linear algebra with vectors.">
<polygon fill="white" stroke="#666666" points="486.26,-239 394.26,-239 394.26,-220 486.26,-220 486.26,-239"/>
<text text-anchor="middle" x="440.26" y="-227" font-family="Helvetica,sans-Serif" font-size="10.00">qpalm/lin_alg.h</text>
</a>
</g>
</g>
<!-- Node3&#45;&gt;Node10 -->
<g id="edge13_Node000003_Node000010" class="edge">
<title>Node3&#45;&gt;Node10</title>
<g id="a_edge13_Node000003_Node000010"><a xlink:title=" ">
<path fill="none" stroke="#63b8ff" d="M440.26,-329.66C440.26,-312.17 440.26,-272.8 440.26,-249.27"/>
<polygon fill="#63b8ff" stroke="#63b8ff" points="443.76,-249.16 440.26,-239.16 436.76,-249.16 443.76,-249.16"/>
</a>
</g>
</g>
<!-- Node11 -->
<g id="Node000011" class="node">
<title>Node11</title>
<g id="a_Node000011"><a xlink:href="solver__interface_8h.html" target="_top" xlink:title="Interface and wrapper to matrix/factorization (ladel) functions.">
<polygon fill="white" stroke="#666666" points="410.26,-184 272.26,-184 272.26,-165 410.26,-165 410.26,-184"/>
<text text-anchor="middle" x="341.26" y="-172" font-family="Helvetica,sans-Serif" font-size="10.00">qpalm/solver_interface.h</text>
</a>
</g>
</g>
<!-- Node3&#45;&gt;Node11 -->
<g id="edge31_Node000003_Node000011" class="edge">
<title>Node3&#45;&gt;Node11</title>
<g id="a_edge31_Node000003_Node000011"><a xlink:title=" ">
<path fill="none" stroke="#63b8ff" d="M412.09,-338.16C350.19,-336.74 205.39,-329.61 175.26,-294 133.45,-244.58 236.02,-205.31 298.07,-186.9"/>
<polygon fill="#63b8ff" stroke="#63b8ff" points="299.39,-190.16 308.03,-184.02 297.45,-183.43 299.39,-190.16"/>
</a>
</g>
</g>
<!-- Node12 -->
<g id="Node000012" class="node">
<title>Node12</title>
<g id="a_Node000012"><a xlink:href="linesearch_8h.html" target="_top" xlink:title="Routines to perform exact linesearch.">
<polygon fill="white" stroke="#666666" points="254.26,-184 144.26,-184 144.26,-165 254.26,-165 254.26,-184"/>
<text text-anchor="middle" x="199.26" y="-172" font-family="Helvetica,sans-Serif" font-size="10.00">qpalm/linesearch.h</text>
</a>
</g>
</g>
<!-- Node3&#45;&gt;Node12 -->
<g id="edge20_Node000003_Node000012" class="edge">
<title>Node3&#45;&gt;Node12</title>
<g id="a_edge20_Node000003_Node000012"><a xlink:title=" ">
<path fill="none" stroke="#63b8ff" d="M412.17,-338.4C348.1,-337.52 194.21,-331.47 162.26,-294 136.85,-264.2 166.15,-217.01 185.29,-192.13"/>
<polygon fill="#63b8ff" stroke="#63b8ff" points="188.25,-194.03 191.77,-184.04 182.79,-189.66 188.25,-194.03"/>
</a>
</g>
</g>
<!-- Node13 -->
<g id="Node000013" class="node">
<title>Node13</title>
<g id="a_Node000013"><a xlink:href="newton_8h.html" target="_top" xlink:title="Functions to calculate the semismooth Newton direction.">
<polygon fill="white" stroke="#666666" points="713.76,-239 618.76,-239 618.76,-220 713.76,-220 713.76,-239"/>
<text text-anchor="middle" x="666.26" y="-227" font-family="Helvetica,sans-Serif" font-size="10.00">qpalm/newton.h</text>
</a>
</g>
</g>
<!-- Node3&#45;&gt;Node13 -->
<g id="edge23_Node000003_Node000013" class="edge">
<title>Node3&#45;&gt;Node13</title>
<g id="a_edge23_Node000003_Node000013"><a xlink:title=" ">
<path fill="none" stroke="#63b8ff" d="M468.42,-336.19C503.84,-332.21 565.45,-321.6 610.26,-294 629.15,-282.36 645.23,-262.38 655.25,-247.93"/>
<polygon fill="#63b8ff" stroke="#63b8ff" points="658.31,-249.64 660.93,-239.38 652.48,-245.77 658.31,-249.64"/>
</a>
</g>
</g>
<!-- Node14 -->
<g id="Node000014" class="node">
<title>Node14</title>
<g id="a_Node000014"><a xlink:href="nonconvex_8h.html" target="_top" xlink:title="Routines to deal with nonconvex QPs.">
<polygon fill="white" stroke="#666666" points="844.76,-239 731.76,-239 731.76,-220 844.76,-220 844.76,-239"/>
<text text-anchor="middle" x="788.26" y="-227" font-family="Helvetica,sans-Serif" font-size="10.00">qpalm/nonconvex.h</text>
</a>
</g>
</g>
<!-- Node3&#45;&gt;Node14 -->
<g id="edge25_Node000003_Node000014" class="edge">
<title>Node3&#45;&gt;Node14</title>
<g id="a_edge25_Node000003_Node000014"><a xlink:title=" ">
<path fill="none" stroke="#63b8ff" d="M468.43,-333.62C506.7,-326.64 577.04,-312.58 635.26,-294 680.31,-279.63 730.6,-257.52 760.82,-243.55"/>
<polygon fill="#63b8ff" stroke="#63b8ff" points="762.68,-246.54 770.26,-239.14 759.72,-240.2 762.68,-246.54"/>
</a>
</g>
</g>
<!-- Node15 -->
<g id="Node000015" class="node">
<title>Node15</title>
<g id="a_Node000015"><a xlink:href="scaling_8h.html" target="_top" xlink:title="Problem data scaling during setup.">
<polygon fill="white" stroke="#666666" points="412.26,-294 318.26,-294 318.26,-275 412.26,-275 412.26,-294"/>
<text text-anchor="middle" x="365.26" y="-282" font-family="Helvetica,sans-Serif" font-size="10.00">qpalm/scaling.h</text>
</a>
</g>
</g>
<!-- Node3&#45;&gt;Node15 -->
<g id="edge27_Node000003_Node000015" class="edge">
<title>Node3&#45;&gt;Node15</title>
<g id="a_edge27_Node000003_Node000015"><a xlink:title=" ">
<path fill="none" stroke="#63b8ff" d="M428.21,-329.98C416.8,-321.92 399.43,-309.65 385.82,-300.03"/>
<polygon fill="#63b8ff" stroke="#63b8ff" points="387.71,-297.08 377.53,-294.17 383.68,-302.8 387.71,-297.08"/>
</a>
</g>
</g>
<!-- Node16 -->
<g id="Node000016" class="node">
<title>Node16</title>
<g id="a_Node000016"><a xlink:href="termination_8h.html" target="_top" xlink:title="Routines to check the termination and infeasibility criteria.">
<polygon fill="white" stroke="#666666" points="300.26,-294 184.26,-294 184.26,-275 300.26,-275 300.26,-294"/>
<text text-anchor="middle" x="242.26" y="-282" font-family="Helvetica,sans-Serif" font-size="10.00">qpalm/termination.h</text>
</a>
</g>
</g>
<!-- Node3&#45;&gt;Node16 -->
<g id="edge32_Node000003_Node000016" class="edge">
<title>Node3&#45;&gt;Node16</title>
<g id="a_edge32_Node000003_Node000016"><a xlink:title=" ">
<path fill="none" stroke="#63b8ff" d="M411.89,-330.91C378.42,-321.95 322.47,-306.97 284.04,-296.68"/>
<polygon fill="#63b8ff" stroke="#63b8ff" points="284.75,-293.25 274.18,-294.05 282.94,-300.01 284.75,-293.25"/>
</a>
</g>
</g>
<!-- Node17 -->
<g id="Node000017" class="node">
<title>Node17</title>
<g id="a_Node000017"><a xlink:href="util_8h.html" target="_top" xlink:title="Utility functions.">
<polygon fill="white" stroke="#666666" points="87.76,-184 12.76,-184 12.76,-165 87.76,-165 87.76,-184"/>
<text text-anchor="middle" x="50.26" y="-172" font-family="Helvetica,sans-Serif" font-size="10.00">qpalm/util.h</text>
</a>
</g>
</g>
<!-- Node3&#45;&gt;Node17 -->
<g id="edge35_Node000003_Node000017" class="edge">
<title>Node3&#45;&gt;Node17</title>
<g id="a_edge35_Node000003_Node000017"><a xlink:title=" ">
<path fill="none" stroke="#63b8ff" d="M412.04,-336.69C348.22,-332.19 194.91,-319.04 150.26,-294 107.37,-269.95 74.77,-219.89 59.62,-193.18"/>
<polygon fill="#63b8ff" stroke="#63b8ff" points="62.56,-191.27 54.68,-184.19 56.43,-194.64 62.56,-191.27"/>
</a>
</g>
</g>
<!-- Node18 -->
<g id="Node000018" class="node">
<title>Node18</title>
<g id="a_Node000018"><a xlink:href="validate_8h.html" target="_top" xlink:title="Validation of the user provided settings and data.">
<polygon fill="white" stroke="#666666" points="567.76,-294 468.76,-294 468.76,-275 567.76,-275 567.76,-294"/>
<text text-anchor="middle" x="518.26" y="-282" font-family="Helvetica,sans-Serif" font-size="10.00">qpalm/validate.h</text>
</a>
</g>
</g>
<!-- Node3&#45;&gt;Node18 -->
<g id="edge38_Node000003_Node000018" class="edge">
<title>Node3&#45;&gt;Node18</title>
<g id="a_edge38_Node000003_Node000018"><a xlink:title=" ">
<path fill="none" stroke="#63b8ff" d="M452.79,-329.98C464.66,-321.92 482.72,-309.65 496.87,-300.03"/>
<polygon fill="#63b8ff" stroke="#63b8ff" points="499.19,-302.69 505.5,-294.17 495.26,-296.9 499.19,-302.69"/>
</a>
</g>
</g>
<!-- Node5 -->
<g id="Node000005" class="node">
<title>Node5</title>
<g id="a_Node000005"><a xlink:title=" ">
<polygon fill="#e0e0e0" stroke="#999999" points="405.26,-19 355.26,-19 355.26,0 405.26,0 405.26,-19"/>
<text text-anchor="middle" x="380.26" y="-7" font-family="Helvetica,sans-Serif" font-size="10.00">ladel.h</text>
</a>
</g>
</g>
<!-- Node4&#45;&gt;Node5 -->
<g id="edge4_Node000004_Node000005" class="edge">
<title>Node4&#45;&gt;Node5</title>
<g id="a_edge4_Node000004_Node000005"><a xlink:title=" ">
<path fill="none" stroke="#63b8ff" d="M176.05,-109.84C214.95,-90.92 307.77,-45.77 353.65,-23.45"/>
<polygon fill="#63b8ff" stroke="#63b8ff" points="355.23,-26.57 362.69,-19.05 352.17,-20.27 355.23,-26.57"/>
</a>
</g>
</g>
<!-- Node6&#45;&gt;Node5 -->
<g id="edge6_Node000006_Node000005" class="edge">
<title>Node6&#45;&gt;Node5</title>
<g id="a_edge6_Node000006_Node000005"><a xlink:title=" ">
<path fill="none" stroke="#63b8ff" d="M476.78,-54.98C458.28,-46.46 429.58,-33.23 408.28,-23.41"/>
<polygon fill="#63b8ff" stroke="#63b8ff" points="409.62,-20.18 399.07,-19.17 406.69,-26.53 409.62,-20.18"/>
</a>
</g>
</g>
<!-- Node7 -->
<g id="Node000007" class="node">
<title>Node7</title>
<g id="a_Node000007"><a xlink:title=" ">
<polygon fill="#e0e0e0" stroke="#999999" points="520.76,-19 469.76,-19 469.76,0 520.76,0 520.76,-19"/>
<text text-anchor="middle" x="495.26" y="-7" font-family="Helvetica,sans-Serif" font-size="10.00">math.h</text>
</a>
</g>
</g>
<!-- Node6&#45;&gt;Node7 -->
<g id="edge7_Node000006_Node000007" class="edge">
<title>Node6&#45;&gt;Node7</title>
<g id="a_edge7_Node000006_Node000007"><a xlink:title=" ">
<path fill="none" stroke="#63b8ff" d="M495.26,-54.75C495.26,-47.8 495.26,-37.85 495.26,-29.13"/>
<polygon fill="#63b8ff" stroke="#63b8ff" points="498.76,-29.09 495.26,-19.09 491.76,-29.09 498.76,-29.09"/>
</a>
</g>
</g>
<!-- Node8&#45;&gt;Node6 -->
<g id="edge12_Node000008_Node000006" class="edge">
<title>Node8&#45;&gt;Node6</title>
<g id="a_edge12_Node000008_Node000006"><a xlink:title=" ">
<path fill="none" stroke="#63b8ff" d="M725.22,-164.84C681.14,-145.8 575.58,-100.2 524.26,-78.03"/>
<polygon fill="#63b8ff" stroke="#63b8ff" points="525.61,-74.8 515.04,-74.05 522.84,-81.23 525.61,-74.8"/>
</a>
</g>
</g>
<!-- Node8&#45;&gt;Node9 -->
<g id="edge9_Node000008_Node000009" class="edge">
<title>Node8&#45;&gt;Node9</title>
<g id="a_edge9_Node000008_Node000009"><a xlink:title=" ">
<path fill="none" stroke="#63b8ff" d="M705.09,-164.98C661.76,-155.8 592.67,-141.15 545.7,-131.19"/>
<polygon fill="#63b8ff" stroke="#63b8ff" points="546.25,-127.73 535.74,-129.08 544.8,-134.58 546.25,-127.73"/>
</a>
</g>
</g>
<!-- Node9&#45;&gt;Node5 -->
<g id="edge11_Node000009_Node000005" class="edge">
<title>Node9&#45;&gt;Node5</title>
<g id="a_edge11_Node000009_Node000005"><a xlink:title=" ">
<path fill="none" stroke="#63b8ff" d="M479.29,-109.95C464.99,-101.85 443.92,-88.74 428.26,-74 413.52,-60.13 399.93,-41.35 391.01,-27.81"/>
<polygon fill="#63b8ff" stroke="#63b8ff" points="393.72,-25.56 385.38,-19.03 387.83,-29.34 393.72,-25.56"/>
</a>
</g>
</g>
<!-- Node9&#45;&gt;Node6 -->
<g id="edge10_Node000009_Node000006" class="edge">
<title>Node9&#45;&gt;Node6</title>
<g id="a_edge10_Node000009_Node000006"><a xlink:title=" ">
<path fill="none" stroke="#63b8ff" d="M495.26,-109.75C495.26,-102.8 495.26,-92.85 495.26,-84.13"/>
<polygon fill="#63b8ff" stroke="#63b8ff" points="498.76,-84.09 495.26,-74.09 491.76,-84.09 498.76,-84.09"/>
</a>
</g>
</g>
<!-- Node10&#45;&gt;Node9 -->
<g id="edge14_Node000010_Node000009" class="edge">
<title>Node10&#45;&gt;Node9</title>
<g id="a_edge14_Node000010_Node000009"><a xlink:title=" ">
<path fill="none" stroke="#63b8ff" d="M444.76,-219.66C453.79,-201.93 474.26,-161.73 486.18,-138.32"/>
<polygon fill="#63b8ff" stroke="#63b8ff" points="489.43,-139.66 490.85,-129.16 483.19,-136.48 489.43,-139.66"/>
</a>
</g>
</g>
<!-- Node10&#45;&gt;Node11 -->
<g id="edge15_Node000010_Node000011" class="edge">
<title>Node10&#45;&gt;Node11</title>
<g id="a_edge15_Node000010_Node000011"><a xlink:title=" ">
<path fill="none" stroke="#63b8ff" d="M424.35,-219.98C408.71,-211.61 384.6,-198.7 366.38,-188.95"/>
<polygon fill="#63b8ff" stroke="#63b8ff" points="367.92,-185.8 357.45,-184.17 364.62,-191.98 367.92,-185.8"/>
</a>
</g>
</g>
<!-- Node11&#45;&gt;Node4 -->
<g id="edge17_Node000011_Node000004" class="edge">
<title>Node11&#45;&gt;Node4</title>
<g id="a_edge17_Node000011_Node000004"><a xlink:title=" ">
<path fill="none" stroke="#63b8ff" d="M311.86,-164.98C280.87,-156.01 231.88,-141.82 197.59,-131.89"/>
<polygon fill="#63b8ff" stroke="#63b8ff" points="198.47,-128.5 187.89,-129.08 196.52,-135.23 198.47,-128.5"/>
</a>
</g>
</g>
<!-- Node11&#45;&gt;Node5 -->
<g id="edge19_Node000011_Node000005" class="edge">
<title>Node11&#45;&gt;Node5</title>
<g id="a_edge19_Node000011_Node000005"><a xlink:title=" ">
<path fill="none" stroke="#63b8ff" d="M343.36,-164.74C349.47,-139.2 367.36,-64.43 375.78,-29.23"/>
<polygon fill="#63b8ff" stroke="#63b8ff" points="379.23,-29.85 378.15,-19.31 372.42,-28.22 379.23,-29.85"/>
</a>
</g>
</g>
<!-- Node11&#45;&gt;Node6 -->
<g id="edge16_Node000011_Node000006" class="edge">
<title>Node11&#45;&gt;Node6</title>
<g id="a_edge16_Node000011_Node000006"><a xlink:title=" ">
<path fill="none" stroke="#63b8ff" d="M353.6,-164.84C379.96,-146.36 441.99,-102.86 474.52,-80.05"/>
<polygon fill="#63b8ff" stroke="#63b8ff" points="476.68,-82.8 482.86,-74.2 472.66,-77.07 476.68,-82.8"/>
</a>
</g>
</g>
<!-- Node11&#45;&gt;Node9 -->
<g id="edge18_Node000011_Node000009" class="edge">
<title>Node11&#45;&gt;Node9</title>
<g id="a_edge18_Node000011_Node000009"><a xlink:title=" ">
<path fill="none" stroke="#63b8ff" d="M366,-164.98C391.63,-156.16 431.89,-142.31 460.67,-132.41"/>
<polygon fill="#63b8ff" stroke="#63b8ff" points="462.01,-135.65 470.32,-129.08 459.73,-129.03 462.01,-135.65"/>
</a>
</g>
</g>
<!-- Node12&#45;&gt;Node4 -->
<g id="edge22_Node000012_Node000004" class="edge">
<title>Node12&#45;&gt;Node4</title>
<g id="a_edge22_Node000012_Node000004"><a xlink:title=" ">
<path fill="none" stroke="#63b8ff" d="M192.49,-164.75C186.7,-157.26 178.2,-146.28 171.12,-137.13"/>
<polygon fill="#63b8ff" stroke="#63b8ff" points="173.79,-134.86 164.9,-129.09 168.25,-139.14 173.79,-134.86"/>
</a>
</g>
</g>
<!-- Node12&#45;&gt;Node9 -->
<g id="edge21_Node000012_Node000009" class="edge">
<title>Node12&#45;&gt;Node9</title>
<g id="a_edge21_Node000012_Node000009"><a xlink:title=" ">
<path fill="none" stroke="#63b8ff" d="M246.82,-164.98C300.2,-155.43 386.6,-139.96 442.15,-130.01"/>
<polygon fill="#63b8ff" stroke="#63b8ff" points="442.92,-133.43 452.15,-128.22 441.69,-126.54 442.92,-133.43"/>
</a>
</g>
</g>
<!-- Node13&#45;&gt;Node9 -->
<g id="edge24_Node000013_Node000009" class="edge">
<title>Node13&#45;&gt;Node9</title>
<g id="a_edge24_Node000013_Node000009"><a xlink:title=" ">
<path fill="none" stroke="#63b8ff" d="M659.54,-219.58C649.04,-206.15 627.52,-180.66 604.26,-165 582.94,-150.65 556.26,-139.66 534.64,-132.19"/>
<polygon fill="#63b8ff" stroke="#63b8ff" points="535.69,-128.85 525.1,-129.01 533.48,-135.49 535.69,-128.85"/>
</a>
</g>
</g>
<!-- Node14&#45;&gt;Node9 -->
<g id="edge26_Node000014_Node000009" class="edge">
<title>Node14&#45;&gt;Node9</title>
<g id="a_edge26_Node000014_Node000009"><a xlink:title=" ">
<path fill="none" stroke="#63b8ff" d="M767.97,-219.86C738.05,-207.24 680.24,-183.26 630.26,-165 597.58,-153.06 559.95,-140.77 532.73,-132.15"/>
<polygon fill="#63b8ff" stroke="#63b8ff" points="533.43,-128.7 522.84,-129.03 531.33,-135.37 533.43,-128.7"/>
</a>
</g>
</g>
<!-- Node15&#45;&gt;Node4 -->
<g id="edge30_Node000015_Node000004" class="edge">
<title>Node15&#45;&gt;Node4</title>
<g id="a_edge30_Node000015_Node000004"><a xlink:title=" ">
<path fill="none" stroke="#63b8ff" d="M334.96,-274.89C277.95,-258.02 158.37,-219.18 135.26,-184 125.84,-169.67 134.69,-150.99 144.01,-137.6"/>
<polygon fill="#63b8ff" stroke="#63b8ff" points="147.05,-139.38 150.32,-129.3 141.48,-135.15 147.05,-139.38"/>
</a>
</g>
</g>
<!-- Node15&#45;&gt;Node9 -->
<g id="edge28_Node000015_Node000009" class="edge">
<title>Node15&#45;&gt;Node9</title>
<g id="a_edge28_Node000015_Node000009"><a xlink:title=" ">
<path fill="none" stroke="#63b8ff" d="M412.38,-280.63C441.41,-276.14 476.53,-265.2 495.26,-239 516.41,-209.4 508.34,-164.15 501.33,-139"/>
<polygon fill="#63b8ff" stroke="#63b8ff" points="504.63,-137.82 498.38,-129.27 497.93,-139.85 504.63,-137.82"/>
</a>
</g>
</g>
<!-- Node15&#45;&gt;Node10 -->
<g id="edge29_Node000015_Node000010" class="edge">
<title>Node15&#45;&gt;Node10</title>
<g id="a_edge29_Node000015_Node000010"><a xlink:title=" ">
<path fill="none" stroke="#63b8ff" d="M377.31,-274.98C388.72,-266.92 406.09,-254.65 419.69,-245.03"/>
<polygon fill="#63b8ff" stroke="#63b8ff" points="421.84,-247.8 427.99,-239.17 417.8,-242.08 421.84,-247.8"/>
</a>
</g>
</g>
<!-- Node16&#45;&gt;Node9 -->
<g id="edge33_Node000016_Node000009" class="edge">
<title>Node16&#45;&gt;Node9</title>
<g id="a_edge33_Node000016_Node000009"><a xlink:title=" ">
<path fill="none" stroke="#63b8ff" d="M259.98,-274.91C292.59,-258.81 363.84,-222.24 419.26,-184 440.75,-169.17 463.49,-149.58 478.43,-136.11"/>
<polygon fill="#63b8ff" stroke="#63b8ff" points="480.85,-138.64 485.88,-129.32 476.13,-133.47 480.85,-138.64"/>
</a>
</g>
</g>
<!-- Node17&#45;&gt;Node4 -->
<g id="edge37_Node000017_Node000004" class="edge">
<title>Node17&#45;&gt;Node4</title>
<g id="a_edge37_Node000017_Node000004"><a xlink:title=" ">
<path fill="none" stroke="#63b8ff" d="M67.61,-164.98C84.83,-156.54 111.46,-143.47 131.41,-133.68"/>
<polygon fill="#63b8ff" stroke="#63b8ff" points="133.16,-136.72 140.59,-129.17 130.07,-130.43 133.16,-136.72"/>
</a>
</g>
</g>
<!-- Node17&#45;&gt;Node9 -->
<g id="edge36_Node000017_Node000009" class="edge">
<title>Node17&#45;&gt;Node9</title>
<g id="a_edge36_Node000017_Node000009"><a xlink:title=" ">
<path fill="none" stroke="#63b8ff" d="M87.82,-169.03C166.91,-159.61 350.82,-137.7 442.02,-126.84"/>
<polygon fill="#63b8ff" stroke="#63b8ff" points="442.63,-130.29 452.14,-125.64 441.8,-123.34 442.63,-130.29"/>
</a>
</g>
</g>
<!-- Node18&#45;&gt;Node9 -->
<g id="edge39_Node000018_Node000009" class="edge">
<title>Node18&#45;&gt;Node9</title>
<g id="a_edge39_Node000018_Node000009"><a xlink:title=" ">
<path fill="none" stroke="#63b8ff" d="M521.25,-274.9C527.69,-254.98 541.28,-204.4 528.26,-165 524.8,-154.54 517.83,-144.53 511.18,-136.66"/>
<polygon fill="#63b8ff" stroke="#63b8ff" points="513.59,-134.1 504.28,-129.04 508.4,-138.8 513.59,-134.1"/>
</a>
</g>
</g>
</g>
</svg>
