<?xml version="1.0" encoding="UTF-8" standalone="no"?>
<!DOCTYPE svg PUBLIC "-//W3C//DTD SVG 1.1//EN"
 "http://www.w3.org/Graphics/SVG/1.1/DTD/svg11.dtd">
<!-- Generated by graphviz version 2.43.0 (0)
 -->
<!-- Title: QPALM/include/qpalm/scaling.h Pages: 1 -->
<svg width="326pt" height="313pt"
 viewBox="0.00 0.00 325.50 313.00" xmlns="http://www.w3.org/2000/svg" xmlns:xlink="http://www.w3.org/1999/xlink">

<svg id="main" version="1.1" xmlns="http://www.w3.org/2000/svg" xmlns:xlink="http://www.w3.org/1999/xlink" xml:space="preserve" onload="init(evt)">
<style type="text/css"><![CDATA[
.node, .edge {opacity: 0.7;}
.node.selected, .edge.selected {opacity: 1;}
.edge:hover path { stroke: red; }
.edge:hover polygon { stroke: red; fill: red; }
]]></style>
<script type="application/ecmascript" xlink:href="svg.min.js"/>
<svg id="graph" class="graph">
<g id="graph0" class="graph" transform="scale(1 1) rotate(0) translate(4 309)">
<title>QPALM/include/qpalm/scaling.h</title>
<!-- Node1 -->
<g id="Node000001" class="node">
<title>Node1</title>
<g id="a_Node000001"><a xlink:title="Problem data scaling during setup.">
<polygon fill="#999999" stroke="#666666" points="197,-305 75,-305 75,-275 197,-275 197,-305"/>
<text text-anchor="start" x="83" y="-293" font-family="Helvetica,sans-Serif" font-size="10.00">QPALM/include/qpalm</text>
<text text-anchor="middle" x="136" y="-282" font-family="Helvetica,sans-Serif" font-size="10.00">/scaling.h</text>
</a>
</g>
</g>
<!-- Node2 -->
<g id="Node000002" class="node">
<title>Node2</title>
<g id="a_Node000002"><a xlink:href="types_8h.html" target="_top" xlink:title="Internal data structures used in QPALM.">
<polygon fill="white" stroke="#666666" points="104.5,-129 51.5,-129 51.5,-110 104.5,-110 104.5,-129"/>
<text text-anchor="middle" x="78" y="-117" font-family="Helvetica,sans-Serif" font-size="10.00">types.h</text>
</a>
</g>
</g>
<!-- Node1&#45;&gt;Node2 -->
<g id="edge1_Node000001_Node000002" class="edge">
<title>Node1&#45;&gt;Node2</title>
<g id="a_edge1_Node000001_Node000002"><a xlink:title=" ">
<path fill="none" stroke="#63b8ff" d="M122.58,-274.76C114.36,-265.29 104.24,-252.21 98,-239 82.54,-206.25 78.85,-163.42 78.08,-139.25"/>
<polygon fill="#63b8ff" stroke="#63b8ff" points="81.57,-138.94 77.89,-129.01 74.57,-139.07 81.57,-138.94"/>
</a>
</g>
</g>
<!-- Node6 -->
<g id="Node000006" class="node">
<title>Node6</title>
<g id="a_Node000006"><a xlink:href="lin__alg_8h.html" target="_top" xlink:title="Linear algebra with vectors.">
<polygon fill="white" stroke="#666666" points="165,-239 107,-239 107,-220 165,-220 165,-239"/>
<text text-anchor="middle" x="136" y="-227" font-family="Helvetica,sans-Serif" font-size="10.00">lin_alg.h</text>
</a>
</g>
</g>
<!-- Node1&#45;&gt;Node6 -->
<g id="edge6_Node000001_Node000006" class="edge">
<title>Node1&#45;&gt;Node6</title>
<g id="a_edge6_Node000001_Node000006"><a xlink:title=" ">
<path fill="none" stroke="#63b8ff" d="M136,-274.84C136,-267.21 136,-257.7 136,-249.45"/>
<polygon fill="#63b8ff" stroke="#63b8ff" points="139.5,-249.27 136,-239.27 132.5,-249.27 139.5,-249.27"/>
</a>
</g>
</g>
<!-- Node8 -->
<g id="Node000008" class="node">
<title>Node8</title>
<g id="a_Node000008"><a xlink:href="constants_8h.html" target="_top" xlink:title="Constants used in QPALM.">
<polygon fill="white" stroke="#666666" points="317.5,-129 210.5,-129 210.5,-110 317.5,-110 317.5,-129"/>
<text text-anchor="middle" x="264" y="-117" font-family="Helvetica,sans-Serif" font-size="10.00">qpalm/constants.h</text>
</a>
</g>
</g>
<!-- Node1&#45;&gt;Node8 -->
<g id="edge14_Node000001_Node000008" class="edge">
<title>Node1&#45;&gt;Node8</title>
<g id="a_edge14_Node000001_Node000008"><a xlink:title=" ">
<path fill="none" stroke="#63b8ff" d="M159.62,-274.84C186.83,-257.19 230.67,-224.36 253,-184 260.54,-170.37 263.13,-152.79 263.93,-139.58"/>
<polygon fill="#63b8ff" stroke="#63b8ff" points="267.44,-139.41 264.25,-129.31 260.44,-139.2 267.44,-139.41"/>
</a>
</g>
</g>
<!-- Node3 -->
<g id="Node000003" class="node">
<title>Node3</title>
<g id="a_Node000003"><a xlink:href="global__opts_8h.html" target="_top" xlink:title="Custom memory allocation, print and utility functions, and data types for floats and ints.">
<polygon fill="white" stroke="#666666" points="116,-74 0,-74 0,-55 116,-55 116,-74"/>
<text text-anchor="middle" x="58" y="-62" font-family="Helvetica,sans-Serif" font-size="10.00">qpalm/global_opts.h</text>
</a>
</g>
</g>
<!-- Node2&#45;&gt;Node3 -->
<g id="edge2_Node000002_Node000003" class="edge">
<title>Node2&#45;&gt;Node3</title>
<g id="a_edge2_Node000002_Node000003"><a xlink:title=" ">
<path fill="none" stroke="#63b8ff" d="M74.7,-109.75C72.02,-102.65 68.15,-92.4 64.81,-83.56"/>
<polygon fill="#63b8ff" stroke="#63b8ff" points="68.05,-82.21 61.24,-74.09 61.5,-84.68 68.05,-82.21"/>
</a>
</g>
</g>
<!-- Node4 -->
<g id="Node000004" class="node">
<title>Node4</title>
<g id="a_Node000004"><a xlink:title=" ">
<polygon fill="#e0e0e0" stroke="#999999" points="188,-19 138,-19 138,0 188,0 188,-19"/>
<text text-anchor="middle" x="163" y="-7" font-family="Helvetica,sans-Serif" font-size="10.00">ladel.h</text>
</a>
</g>
</g>
<!-- Node2&#45;&gt;Node4 -->
<g id="edge5_Node000002_Node000004" class="edge">
<title>Node2&#45;&gt;Node4</title>
<g id="a_edge5_Node000002_Node000004"><a xlink:title=" ">
<path fill="none" stroke="#63b8ff" d="M88.89,-109.69C98.98,-101.21 114.03,-87.67 125,-74 136.53,-59.62 147.07,-41.42 154.11,-28.2"/>
<polygon fill="#63b8ff" stroke="#63b8ff" points="157.28,-29.69 158.77,-19.2 151.06,-26.47 157.28,-29.69"/>
</a>
</g>
</g>
<!-- Node3&#45;&gt;Node4 -->
<g id="edge3_Node000003_Node000004" class="edge">
<title>Node3&#45;&gt;Node4</title>
<g id="a_edge3_Node000003_Node000004"><a xlink:title=" ">
<path fill="none" stroke="#63b8ff" d="M74.87,-54.98C91.61,-46.54 117.5,-33.47 136.89,-23.68"/>
<polygon fill="#63b8ff" stroke="#63b8ff" points="138.47,-26.8 145.82,-19.17 135.32,-20.55 138.47,-26.8"/>
</a>
</g>
</g>
<!-- Node5 -->
<g id="Node000005" class="node">
<title>Node5</title>
<g id="a_Node000005"><a xlink:title=" ">
<polygon fill="#e0e0e0" stroke="#999999" points="83.5,-19 32.5,-19 32.5,0 83.5,0 83.5,-19"/>
<text text-anchor="middle" x="58" y="-7" font-family="Helvetica,sans-Serif" font-size="10.00">math.h</text>
</a>
</g>
</g>
<!-- Node3&#45;&gt;Node5 -->
<g id="edge4_Node000003_Node000005" class="edge">
<title>Node3&#45;&gt;Node5</title>
<g id="a_edge4_Node000003_Node000005"><a xlink:title=" ">
<path fill="none" stroke="#63b8ff" d="M58,-54.75C58,-47.8 58,-37.85 58,-29.13"/>
<polygon fill="#63b8ff" stroke="#63b8ff" points="61.5,-29.09 58,-19.09 54.5,-29.09 61.5,-29.09"/>
</a>
</g>
</g>
<!-- Node6&#45;&gt;Node2 -->
<g id="edge7_Node000006_Node000002" class="edge">
<title>Node6&#45;&gt;Node2</title>
<g id="a_edge7_Node000006_Node000002"><a xlink:title=" ">
<path fill="none" stroke="#63b8ff" d="M126.35,-219.85C117.54,-211.48 104.76,-198.02 97,-184 89.25,-169.98 84.31,-152.43 81.41,-139.33"/>
<polygon fill="#63b8ff" stroke="#63b8ff" points="84.77,-138.29 79.38,-129.17 77.91,-139.67 84.77,-138.29"/>
</a>
</g>
</g>
<!-- Node7 -->
<g id="Node000007" class="node">
<title>Node7</title>
<g id="a_Node000007"><a xlink:href="solver__interface_8h.html" target="_top" xlink:title="Interface and wrapper to matrix/factorization (ladel) functions.">
<polygon fill="white" stroke="#666666" points="244,-184 106,-184 106,-165 244,-165 244,-184"/>
<text text-anchor="middle" x="175" y="-172" font-family="Helvetica,sans-Serif" font-size="10.00">qpalm/solver_interface.h</text>
</a>
</g>
</g>
<!-- Node6&#45;&gt;Node7 -->
<g id="edge8_Node000006_Node000007" class="edge">
<title>Node6&#45;&gt;Node7</title>
<g id="a_edge8_Node000006_Node000007"><a xlink:title=" ">
<path fill="none" stroke="#63b8ff" d="M142.44,-219.75C147.89,-212.34 155.86,-201.5 162.56,-192.41"/>
<polygon fill="#63b8ff" stroke="#63b8ff" points="165.57,-194.22 168.68,-184.09 159.93,-190.07 165.57,-194.22"/>
</a>
</g>
</g>
<!-- Node7&#45;&gt;Node2 -->
<g id="edge12_Node000007_Node000002" class="edge">
<title>Node7&#45;&gt;Node2</title>
<g id="a_edge12_Node000007_Node000002"><a xlink:title=" ">
<path fill="none" stroke="#63b8ff" d="M159.42,-164.98C144.23,-156.69 120.9,-143.94 103.1,-134.22"/>
<polygon fill="#63b8ff" stroke="#63b8ff" points="104.32,-130.89 93.87,-129.17 100.97,-137.04 104.32,-130.89"/>
</a>
</g>
</g>
<!-- Node7&#45;&gt;Node3 -->
<g id="edge9_Node000007_Node000003" class="edge">
<title>Node7&#45;&gt;Node3</title>
<g id="a_edge9_Node000007_Node000003"><a xlink:title=" ">
<path fill="none" stroke="#63b8ff" d="M167.27,-164.97C155.83,-152.48 133.5,-128.68 113,-110 101.68,-99.69 88.34,-88.87 77.63,-80.48"/>
<polygon fill="#63b8ff" stroke="#63b8ff" points="79.75,-77.69 69.7,-74.33 75.46,-83.22 79.75,-77.69"/>
</a>
</g>
</g>
<!-- Node7&#45;&gt;Node4 -->
<g id="edge13_Node000007_Node000004" class="edge">
<title>Node7&#45;&gt;Node4</title>
<g id="a_edge13_Node000007_Node000004"><a xlink:title=" ">
<path fill="none" stroke="#63b8ff" d="M174.35,-164.74C172.48,-139.31 167.02,-65.08 164.41,-29.69"/>
<polygon fill="#63b8ff" stroke="#63b8ff" points="167.87,-29.02 163.65,-19.31 160.89,-29.54 167.87,-29.02"/>
</a>
</g>
</g>
<!-- Node7&#45;&gt;Node8 -->
<g id="edge10_Node000007_Node000008" class="edge">
<title>Node7&#45;&gt;Node8</title>
<g id="a_edge10_Node000007_Node000008"><a xlink:title=" ">
<path fill="none" stroke="#63b8ff" d="M189.3,-164.98C203.1,-156.77 224.24,-144.18 240.51,-134.49"/>
<polygon fill="#63b8ff" stroke="#63b8ff" points="242.64,-137.29 249.44,-129.17 239.06,-131.28 242.64,-137.29"/>
</a>
</g>
</g>
<!-- Node8&#45;&gt;Node4 -->
<g id="edge11_Node000008_Node000004" class="edge">
<title>Node8&#45;&gt;Node4</title>
<g id="a_edge11_Node000008_Node000004"><a xlink:title=" ">
<path fill="none" stroke="#63b8ff" d="M255.73,-109.66C238.71,-91.46 199.52,-49.55 177.93,-26.47"/>
<polygon fill="#63b8ff" stroke="#63b8ff" points="180.48,-24.07 171.1,-19.16 175.37,-28.85 180.48,-24.07"/>
</a>
</g>
</g>
</g>
</svg>
</svg>

<style type='text/css'>
<![CDATA[
[data-mouse-over-selected='false'] { opacity: 0.7; }
[data-mouse-over-selected='true']  { opacity: 1.0; }
]]>
</style>
<script type="application/ecmascript"><![CDATA[
document.addEventListener('DOMContentLoaded', (event) => {
  highlightEdges();
  highlightAdjacentNodes();
});
]]></script>
</svg>
