<?xml version="1.0" encoding="UTF-8" standalone="no"?>
<!DOCTYPE svg PUBLIC "-//W3C//DTD SVG 1.1//EN"
 "http://www.w3.org/Graphics/SVG/1.1/DTD/svg11.dtd">
<!-- Generated by graphviz version 2.43.0 (0)
 -->
<!-- Title: mat_vec Pages: 1 -->
<svg width="652pt" height="64pt"
 viewBox="0.00 0.00 652.00 64.00" xmlns="http://www.w3.org/2000/svg" xmlns:xlink="http://www.w3.org/1999/xlink">
<g id="graph0" class="graph" transform="scale(1 1) rotate(0) translate(4 60)">
<title>mat_vec</title>
<!-- Node1 -->
<g id="Node000001" class="node">
<title>Node1</title>
<g id="a_Node000001"><a xlink:title="Matrix&#45;vector multiplication.">
<polygon fill="#999999" stroke="#666666" points="644,-37 585,-37 585,-18 644,-18 644,-37"/>
<text text-anchor="middle" x="614.5" y="-25" font-family="Helvetica,sans-Serif" font-size="10.00">mat_vec</text>
</a>
</g>
</g>
<!-- Node2 -->
<g id="Node000002" class="node">
<title>Node2</title>
<g id="a_Node000002"><a xlink:href="linesearch_8c.html#a647cabae1574f21e412110765ea1e70d" target="_top" xlink:title="Execute exact linesearch (using qsort)">
<polygon fill="white" stroke="#666666" points="538,-56 439,-56 439,-37 538,-37 538,-56"/>
<text text-anchor="middle" x="488.5" y="-44" font-family="Helvetica,sans-Serif" font-size="10.00">exact_linesearch</text>
</a>
</g>
</g>
<!-- Node1&#45;&gt;Node2 -->
<g id="edge1_Node000001_Node000002" class="edge">
<title>Node1&#45;&gt;Node2</title>
<g id="a_edge1_Node000001_Node000002"><a xlink:title=" ">
<path fill="none" stroke="#63b8ff" d="M574.52,-33.47C562.94,-35.25 550.12,-37.21 538.02,-39.07"/>
<polygon fill="#63b8ff" stroke="#63b8ff" points="575.39,-36.88 584.74,-31.91 574.33,-29.96 575.39,-36.88"/>
</a>
</g>
</g>
<!-- Node7 -->
<g id="Node000007" class="node">
<title>Node7</title>
<g id="a_Node000007"><a xlink:href="newton_8c.html#af1654e5597faac8b0ade25acf1fc1bc9" target="_top" xlink:title="Sets work&#45;&gt;d to the direction calculated by the semismooth Newton method.">
<polygon fill="white" stroke="#666666" points="549,-19 428,-19 428,0 549,0 549,-19"/>
<text text-anchor="middle" x="488.5" y="-7" font-family="Helvetica,sans-Serif" font-size="10.00">newton_set_direction</text>
</a>
</g>
</g>
<!-- Node1&#45;&gt;Node7 -->
<g id="edge6_Node000001_Node000007" class="edge">
<title>Node1&#45;&gt;Node7</title>
<g id="a_edge6_Node000001_Node000007"><a xlink:title=" ">
<path fill="none" stroke="#63b8ff" d="M574.61,-21.85C566.59,-20.69 557.97,-19.44 549.41,-18.2"/>
<polygon fill="#63b8ff" stroke="#63b8ff" points="574.34,-25.35 584.74,-23.33 575.35,-18.42 574.34,-25.35"/>
</a>
</g>
</g>
<!-- Node3 -->
<g id="Node000003" class="node">
<title>Node3</title>
<g id="a_Node000003"><a xlink:href="iteration_8c.html#a9c9fafac9ce099122c5a594762e5a052" target="_top" xlink:title="Update the primal iterate.">
<polygon fill="white" stroke="#666666" points="392,-37 267,-37 267,-18 392,-18 392,-37"/>
<text text-anchor="middle" x="329.5" y="-25" font-family="Helvetica,sans-Serif" font-size="10.00">update_primal_iterate</text>
</a>
</g>
</g>
<!-- Node2&#45;&gt;Node3 -->
<g id="edge2_Node000002_Node000003" class="edge">
<title>Node2&#45;&gt;Node3</title>
<g id="a_edge2_Node000002_Node000003"><a xlink:title=" ">
<path fill="none" stroke="#63b8ff" d="M428.43,-39.35C416.54,-37.91 404.01,-36.4 392.04,-34.95"/>
<polygon fill="#63b8ff" stroke="#63b8ff" points="428.34,-42.87 438.68,-40.59 429.18,-35.92 428.34,-42.87"/>
</a>
</g>
</g>
<!-- Node4 -->
<g id="Node000004" class="node">
<title>Node4</title>
<g id="a_Node000004"><a xlink:href="group__solver-grp.html#ga17fcba910c32b8518df93617591b1cf1" target="_top" xlink:title="Solve the quadratic program.">
<polygon fill="white" stroke="#666666" points="231,-37 152,-37 152,-18 231,-18 231,-37"/>
<text text-anchor="middle" x="191.5" y="-25" font-family="Helvetica,sans-Serif" font-size="10.00">qpalm_solve</text>
</a>
</g>
</g>
<!-- Node3&#45;&gt;Node4 -->
<g id="edge3_Node000003_Node000004" class="edge">
<title>Node3&#45;&gt;Node4</title>
<g id="a_edge3_Node000003_Node000004"><a xlink:title=" ">
<path fill="none" stroke="#63b8ff" d="M256.64,-27.5C247.93,-27.5 239.3,-27.5 231.34,-27.5"/>
<polygon fill="#63b8ff" stroke="#63b8ff" points="256.87,-31 266.87,-27.5 256.87,-24 256.87,-31"/>
</a>
</g>
</g>
<!-- Node5 -->
<g id="Node000005" class="node">
<title>Node5</title>
<g id="a_Node000005"><a xlink:href="qpalm__fortran_8c.html#abec01161fcee665e126347b862c404c4" target="_top" xlink:title=" ">
<polygon fill="white" stroke="#666666" points="106,-56 10,-56 10,-37 106,-37 106,-56"/>
<text text-anchor="middle" x="58" y="-44" font-family="Helvetica,sans-Serif" font-size="10.00">qpalm_fortran_c</text>
</a>
</g>
</g>
<!-- Node4&#45;&gt;Node5 -->
<g id="edge4_Node000004_Node000005" class="edge">
<title>Node4&#45;&gt;Node5</title>
<g id="a_edge4_Node000004_Node000005"><a xlink:title=" ">
<path fill="none" stroke="#63b8ff" d="M141.8,-34.54C130.2,-36.21 117.85,-38 106.31,-39.66"/>
<polygon fill="#63b8ff" stroke="#63b8ff" points="142.36,-37.99 151.76,-33.1 141.36,-31.06 142.36,-37.99"/>
</a>
</g>
</g>
<!-- Node6 -->
<g id="Node000006" class="node">
<title>Node6</title>
<g id="a_Node000006"><a xlink:href="classqpalm_1_1Solver.html#a7d723d189a812ffa19d688b7aa38ccca" target="_top" xlink:title="Solve the problem.">
<polygon fill="white" stroke="#666666" points="116,-19 0,-19 0,0 116,0 116,-19"/>
<text text-anchor="middle" x="58" y="-7" font-family="Helvetica,sans-Serif" font-size="10.00">qpalm::Solver::solve</text>
</a>
</g>
</g>
<!-- Node4&#45;&gt;Node6 -->
<g id="edge5_Node000004_Node000006" class="edge">
<title>Node4&#45;&gt;Node6</title>
<g id="a_edge5_Node000004_Node000006"><a xlink:title=" ">
<path fill="none" stroke="#63b8ff" d="M141.62,-20.81C133.43,-19.69 124.86,-18.52 116.47,-17.37"/>
<polygon fill="#63b8ff" stroke="#63b8ff" points="141.37,-24.31 151.76,-22.2 142.32,-17.37 141.37,-24.31"/>
</a>
</g>
</g>
<!-- Node7&#45;&gt;Node3 -->
<g id="edge7_Node000007_Node000003" class="edge">
<title>Node7&#45;&gt;Node3</title>
<g id="a_edge7_Node000007_Node000003"><a xlink:title=" ">
<path fill="none" stroke="#63b8ff" d="M417.51,-17.52C409.08,-18.49 400.52,-19.47 392.22,-20.42"/>
<polygon fill="#63b8ff" stroke="#63b8ff" points="418.16,-20.97 427.7,-16.36 417.36,-14.02 418.16,-20.97"/>
</a>
</g>
</g>
</g>
</svg>
