<?xml version="1.0" encoding="UTF-8" standalone="no"?>
<!DOCTYPE svg PUBLIC "-//W3C//DTD SVG 1.1//EN"
 "http://www.w3.org/Graphics/SVG/1.1/DTD/svg11.dtd">
<!-- Generated by graphviz version 2.43.0 (0)
 -->
<!-- Title: QPALM/src/util.c Pages: 1 -->
<svg width="510pt" height="302pt"
 viewBox="0.00 0.00 509.50 302.00" xmlns="http://www.w3.org/2000/svg" xmlns:xlink="http://www.w3.org/1999/xlink">
<g id="graph0" class="graph" transform="scale(1 1) rotate(0) translate(4 298)">
<title>QPALM/src/util.c</title>
<!-- Node1 -->
<g id="Node000001" class="node">
<title>Node1</title>
<g id="a_Node000001"><a xlink:title="Utility functions.">
<polygon fill="#999999" stroke="#666666" points="350,-294 255,-294 255,-275 350,-275 350,-294"/>
<text text-anchor="middle" x="302.5" y="-282" font-family="Helvetica,sans-Serif" font-size="10.00">QPALM/src/util.c</text>
</a>
</g>
</g>
<!-- Node2 -->
<g id="Node000002" class="node">
<title>Node2</title>
<g id="a_Node000002"><a xlink:href="util_8h.html" target="_top" xlink:title="Utility functions.">
<polygon fill="white" stroke="#666666" points="91,-184 16,-184 16,-165 91,-165 91,-184"/>
<text text-anchor="middle" x="53.5" y="-172" font-family="Helvetica,sans-Serif" font-size="10.00">qpalm/util.h</text>
</a>
</g>
</g>
<!-- Node1&#45;&gt;Node2 -->
<g id="edge1_Node000001_Node000002" class="edge">
<title>Node1&#45;&gt;Node2</title>
<g id="a_edge1_Node000001_Node000002"><a xlink:title=" ">
<path fill="none" stroke="#63b8ff" d="M254.65,-281.38C212.59,-277.58 151.14,-267.2 105.5,-239 87.18,-227.68 72.37,-207.6 63.31,-193.04"/>
<polygon fill="#63b8ff" stroke="#63b8ff" points="66.08,-190.85 57.98,-184.02 60.05,-194.41 66.08,-190.85"/>
</a>
</g>
</g>
<!-- Node3 -->
<g id="Node000003" class="node">
<title>Node3</title>
<g id="a_Node000003"><a xlink:href="types_8h.html" target="_top" xlink:title="Internal data structures used in QPALM.">
<polygon fill="white" stroke="#666666" points="211.5,-129 125.5,-129 125.5,-110 211.5,-110 211.5,-129"/>
<text text-anchor="middle" x="168.5" y="-117" font-family="Helvetica,sans-Serif" font-size="10.00">qpalm/types.h</text>
</a>
</g>
</g>
<!-- Node1&#45;&gt;Node3 -->
<g id="edge17_Node000001_Node000003" class="edge">
<title>Node1&#45;&gt;Node3</title>
<g id="a_edge17_Node000001_Node000003"><a xlink:title=" ">
<path fill="none" stroke="#63b8ff" d="M270.06,-274.97C248.29,-268.01 219.96,-256.44 199.5,-239 177.45,-220.2 172.6,-211.82 164.5,-184 160.25,-169.4 161.73,-152.14 164,-139.3"/>
<polygon fill="#63b8ff" stroke="#63b8ff" points="167.46,-139.84 166.08,-129.34 160.61,-138.41 167.46,-139.84"/>
</a>
</g>
</g>
<!-- Node4 -->
<g id="Node000004" class="node">
<title>Node4</title>
<g id="a_Node000004"><a xlink:href="global__opts_8h.html" target="_top" xlink:title="Custom memory allocation, print and utility functions, and data types for floats and ints.">
<polygon fill="white" stroke="#666666" points="383.5,-74 267.5,-74 267.5,-55 383.5,-55 383.5,-74"/>
<text text-anchor="middle" x="325.5" y="-62" font-family="Helvetica,sans-Serif" font-size="10.00">qpalm/global_opts.h</text>
</a>
</g>
</g>
<!-- Node1&#45;&gt;Node4 -->
<g id="edge16_Node000001_Node000004" class="edge">
<title>Node1&#45;&gt;Node4</title>
<g id="a_edge16_Node000001_Node000004"><a xlink:title=" ">
<path fill="none" stroke="#63b8ff" d="M306.03,-274.91C312.8,-257.91 327.39,-218.63 332.5,-184 337.67,-148.96 332.74,-107.55 328.95,-84.13"/>
<polygon fill="#63b8ff" stroke="#63b8ff" points="332.38,-83.43 327.22,-74.18 325.48,-84.63 332.38,-83.43"/>
</a>
</g>
</g>
<!-- Node8 -->
<g id="Node000008" class="node">
<title>Node8</title>
<g id="a_Node000008"><a xlink:href="lin__alg_8h.html" target="_top" xlink:title="Linear algebra with vectors.">
<polygon fill="white" stroke="#666666" points="300.5,-239 208.5,-239 208.5,-220 300.5,-220 300.5,-239"/>
<text text-anchor="middle" x="254.5" y="-227" font-family="Helvetica,sans-Serif" font-size="10.00">qpalm/lin_alg.h</text>
</a>
</g>
</g>
<!-- Node1&#45;&gt;Node8 -->
<g id="edge9_Node000001_Node000008" class="edge">
<title>Node1&#45;&gt;Node8</title>
<g id="a_edge9_Node000001_Node000008"><a xlink:title=" ">
<path fill="none" stroke="#63b8ff" d="M294.57,-274.75C287.65,-267.11 277.43,-255.82 269.05,-246.56"/>
<polygon fill="#63b8ff" stroke="#63b8ff" points="271.59,-244.15 262.28,-239.09 266.4,-248.85 271.59,-244.15"/>
</a>
</g>
</g>
<!-- Node10 -->
<g id="Node000010" class="node">
<title>Node10</title>
<g id="a_Node000010"><a xlink:title=" ">
<polygon fill="#e0e0e0" stroke="#999999" points="433,-239 380,-239 380,-220 433,-220 433,-239"/>
<text text-anchor="middle" x="406.5" y="-227" font-family="Helvetica,sans-Serif" font-size="10.00">string.h</text>
</a>
</g>
</g>
<!-- Node1&#45;&gt;Node10 -->
<g id="edge18_Node000001_Node000010" class="edge">
<title>Node1&#45;&gt;Node10</title>
<g id="a_edge18_Node000001_Node000010"><a xlink:title=" ">
<path fill="none" stroke="#63b8ff" d="M319.21,-274.98C335.71,-266.57 361.2,-253.59 380.38,-243.81"/>
<polygon fill="#63b8ff" stroke="#63b8ff" points="382.17,-246.83 389.49,-239.17 378.99,-240.59 382.17,-246.83"/>
</a>
</g>
</g>
<!-- Node11 -->
<g id="Node000011" class="node">
<title>Node11</title>
<g id="a_Node000011"><a xlink:title=" ">
<polygon fill="#e0e0e0" stroke="#999999" points="501.5,-239 451.5,-239 451.5,-220 501.5,-220 501.5,-239"/>
<text text-anchor="middle" x="476.5" y="-227" font-family="Helvetica,sans-Serif" font-size="10.00">stdio.h</text>
</a>
</g>
</g>
<!-- Node1&#45;&gt;Node11 -->
<g id="edge19_Node000001_Node000011" class="edge">
<title>Node1&#45;&gt;Node11</title>
<g id="a_edge19_Node000001_Node000011"><a xlink:title=" ">
<path fill="none" stroke="#63b8ff" d="M330.46,-274.98C360.75,-265.76 409.14,-251.02 441.83,-241.06"/>
<polygon fill="#63b8ff" stroke="#63b8ff" points="442.89,-244.4 451.44,-238.13 440.85,-237.7 442.89,-244.4"/>
</a>
</g>
</g>
<!-- Node2&#45;&gt;Node3 -->
<g id="edge2_Node000002_Node000003" class="edge">
<title>Node2&#45;&gt;Node3</title>
<g id="a_edge2_Node000002_Node000003"><a xlink:title=" ">
<path fill="none" stroke="#63b8ff" d="M71.98,-164.98C90.48,-156.46 119.18,-143.23 140.48,-133.41"/>
<polygon fill="#63b8ff" stroke="#63b8ff" points="142.07,-136.53 149.69,-129.17 139.14,-130.18 142.07,-136.53"/>
</a>
</g>
</g>
<!-- Node7 -->
<g id="Node000007" class="node">
<title>Node7</title>
<g id="a_Node000007"><a xlink:href="constants_8h.html" target="_top" xlink:title="Constants used in QPALM.">
<polygon fill="white" stroke="#666666" points="107,-129 0,-129 0,-110 107,-110 107,-129"/>
<text text-anchor="middle" x="53.5" y="-117" font-family="Helvetica,sans-Serif" font-size="10.00">qpalm/constants.h</text>
</a>
</g>
</g>
<!-- Node2&#45;&gt;Node7 -->
<g id="edge7_Node000002_Node000007" class="edge">
<title>Node2&#45;&gt;Node7</title>
<g id="a_edge7_Node000002_Node000007"><a xlink:title=" ">
<path fill="none" stroke="#63b8ff" d="M53.5,-164.75C53.5,-157.8 53.5,-147.85 53.5,-139.13"/>
<polygon fill="#63b8ff" stroke="#63b8ff" points="57,-139.09 53.5,-129.09 50,-139.09 57,-139.09"/>
</a>
</g>
</g>
<!-- Node3&#45;&gt;Node4 -->
<g id="edge3_Node000003_Node000004" class="edge">
<title>Node3&#45;&gt;Node4</title>
<g id="a_edge3_Node000003_Node000004"><a xlink:title=" ">
<path fill="none" stroke="#63b8ff" d="M193.72,-109.98C219.86,-101.16 260.9,-87.31 290.23,-77.41"/>
<polygon fill="#63b8ff" stroke="#63b8ff" points="291.72,-80.6 300.08,-74.08 289.48,-73.96 291.72,-80.6"/>
</a>
</g>
</g>
<!-- Node5 -->
<g id="Node000005" class="node">
<title>Node5</title>
<g id="a_Node000005"><a xlink:title=" ">
<polygon fill="#e0e0e0" stroke="#999999" points="245.5,-19 195.5,-19 195.5,0 245.5,0 245.5,-19"/>
<text text-anchor="middle" x="220.5" y="-7" font-family="Helvetica,sans-Serif" font-size="10.00">ladel.h</text>
</a>
</g>
</g>
<!-- Node3&#45;&gt;Node5 -->
<g id="edge6_Node000003_Node000005" class="edge">
<title>Node3&#45;&gt;Node5</title>
<g id="a_edge6_Node000003_Node000005"><a xlink:title=" ">
<path fill="none" stroke="#63b8ff" d="M172.76,-109.66C181.29,-91.93 200.65,-51.73 211.92,-28.32"/>
<polygon fill="#63b8ff" stroke="#63b8ff" points="215.15,-29.69 216.33,-19.16 208.84,-26.65 215.15,-29.69"/>
</a>
</g>
</g>
<!-- Node4&#45;&gt;Node5 -->
<g id="edge4_Node000004_Node000005" class="edge">
<title>Node4&#45;&gt;Node5</title>
<g id="a_edge4_Node000004_Node000005"><a xlink:title=" ">
<path fill="none" stroke="#63b8ff" d="M308.63,-54.98C291.89,-46.54 266,-33.47 246.61,-23.68"/>
<polygon fill="#63b8ff" stroke="#63b8ff" points="248.18,-20.55 237.68,-19.17 245.03,-26.8 248.18,-20.55"/>
</a>
</g>
</g>
<!-- Node6 -->
<g id="Node000006" class="node">
<title>Node6</title>
<g id="a_Node000006"><a xlink:title=" ">
<polygon fill="#e0e0e0" stroke="#999999" points="351,-19 300,-19 300,0 351,0 351,-19"/>
<text text-anchor="middle" x="325.5" y="-7" font-family="Helvetica,sans-Serif" font-size="10.00">math.h</text>
</a>
</g>
</g>
<!-- Node4&#45;&gt;Node6 -->
<g id="edge5_Node000004_Node000006" class="edge">
<title>Node4&#45;&gt;Node6</title>
<g id="a_edge5_Node000004_Node000006"><a xlink:title=" ">
<path fill="none" stroke="#63b8ff" d="M325.5,-54.75C325.5,-47.8 325.5,-37.85 325.5,-29.13"/>
<polygon fill="#63b8ff" stroke="#63b8ff" points="329,-29.09 325.5,-19.09 322,-29.09 329,-29.09"/>
</a>
</g>
</g>
<!-- Node7&#45;&gt;Node5 -->
<g id="edge8_Node000007_Node000005" class="edge">
<title>Node7&#45;&gt;Node5</title>
<g id="a_edge8_Node000007_Node000005"><a xlink:title=" ">
<path fill="none" stroke="#63b8ff" d="M66.88,-109.84C95.59,-91.28 163.31,-47.49 198.46,-24.75"/>
<polygon fill="#63b8ff" stroke="#63b8ff" points="200.56,-27.57 207.05,-19.2 196.75,-21.69 200.56,-27.57"/>
</a>
</g>
</g>
<!-- Node8&#45;&gt;Node3 -->
<g id="edge10_Node000008_Node000003" class="edge">
<title>Node8&#45;&gt;Node3</title>
<g id="a_edge10_Node000008_Node000003"><a xlink:title=" ">
<path fill="none" stroke="#63b8ff" d="M226.91,-219.96C209.55,-213.09 188.28,-201.63 176.5,-184 167.73,-170.86 166.23,-152.73 166.63,-139.2"/>
<polygon fill="#63b8ff" stroke="#63b8ff" points="170.13,-139.34 167.3,-129.13 163.15,-138.88 170.13,-139.34"/>
</a>
</g>
</g>
<!-- Node9 -->
<g id="Node000009" class="node">
<title>Node9</title>
<g id="a_Node000009"><a xlink:href="solver__interface_8h.html" target="_top" xlink:title="Interface and wrapper to matrix/factorization (ladel) functions.">
<polygon fill="white" stroke="#666666" points="323.5,-184 185.5,-184 185.5,-165 323.5,-165 323.5,-184"/>
<text text-anchor="middle" x="254.5" y="-172" font-family="Helvetica,sans-Serif" font-size="10.00">qpalm/solver_interface.h</text>
</a>
</g>
</g>
<!-- Node8&#45;&gt;Node9 -->
<g id="edge11_Node000008_Node000009" class="edge">
<title>Node8&#45;&gt;Node9</title>
<g id="a_edge11_Node000008_Node000009"><a xlink:title=" ">
<path fill="none" stroke="#63b8ff" d="M254.5,-219.75C254.5,-212.8 254.5,-202.85 254.5,-194.13"/>
<polygon fill="#63b8ff" stroke="#63b8ff" points="258,-194.09 254.5,-184.09 251,-194.09 258,-194.09"/>
</a>
</g>
</g>
<!-- Node9&#45;&gt;Node3 -->
<g id="edge14_Node000009_Node000003" class="edge">
<title>Node9&#45;&gt;Node3</title>
<g id="a_edge14_Node000009_Node000003"><a xlink:title=" ">
<path fill="none" stroke="#63b8ff" d="M240.68,-164.98C227.35,-156.77 206.92,-144.18 191.19,-134.49"/>
<polygon fill="#63b8ff" stroke="#63b8ff" points="192.92,-131.44 182.57,-129.17 189.25,-137.4 192.92,-131.44"/>
</a>
</g>
</g>
<!-- Node9&#45;&gt;Node4 -->
<g id="edge12_Node000009_Node000004" class="edge">
<title>Node9&#45;&gt;Node4</title>
<g id="a_edge12_Node000009_Node000004"><a xlink:title=" ">
<path fill="none" stroke="#63b8ff" d="M260.31,-164.66C272.07,-146.77 298.87,-106 314.2,-82.69"/>
<polygon fill="#63b8ff" stroke="#63b8ff" points="317.24,-84.44 319.81,-74.16 311.39,-80.59 317.24,-84.44"/>
</a>
</g>
</g>
<!-- Node9&#45;&gt;Node5 -->
<g id="edge15_Node000009_Node000005" class="edge">
<title>Node9&#45;&gt;Node5</title>
<g id="a_edge15_Node000009_Node000005"><a xlink:title=" ">
<path fill="none" stroke="#63b8ff" d="M252.67,-164.74C247.35,-139.2 231.75,-64.43 224.41,-29.23"/>
<polygon fill="#63b8ff" stroke="#63b8ff" points="227.81,-28.38 222.34,-19.31 220.95,-29.81 227.81,-28.38"/>
</a>
</g>
</g>
<!-- Node9&#45;&gt;Node7 -->
<g id="edge13_Node000009_Node000007" class="edge">
<title>Node9&#45;&gt;Node7</title>
<g id="a_edge13_Node000009_Node000007"><a xlink:title=" ">
<path fill="none" stroke="#63b8ff" d="M222.21,-164.98C187.88,-155.93 133.44,-141.58 95.73,-131.64"/>
<polygon fill="#63b8ff" stroke="#63b8ff" points="96.61,-128.25 86.05,-129.08 94.82,-135.02 96.61,-128.25"/>
</a>
</g>
</g>
</g>
</svg>
