<?xml version="1.0" encoding="UTF-8" standalone="no"?>
<!DOCTYPE svg PUBLIC "-//W3C//DTD SVG 1.1//EN"
 "http://www.w3.org/Graphics/SVG/1.1/DTD/svg11.dtd">
<!-- Generated by graphviz version 2.43.0 (0)
 -->
<!-- Title: qpalm::Solver::update_settings Pages: 1 -->
<svg width="558pt" height="218pt"
 viewBox="0.00 0.00 558.00 218.00" xmlns="http://www.w3.org/2000/svg" xmlns:xlink="http://www.w3.org/1999/xlink">
<g id="graph0" class="graph" transform="scale(1 1) rotate(0) translate(4 214)">
<title>qpalm::Solver::update_settings</title>
<polygon fill="white" stroke="transparent" points="-4,4 -4,-214 554,-214 554,4 -4,4"/>
<!-- Node1 -->
<g id="node1" class="node">
<title>Node1</title>
<g id="a_node1"><a xlink:title=" ">
<polygon fill="#bfbfbf" stroke="black" points="0,-90 0,-120 124,-120 124,-90 0,-90"/>
<text text-anchor="start" x="8" y="-108" font-family="Helvetica,sans-Serif" font-size="10.00">qpalm::Solver::update</text>
<text text-anchor="middle" x="62" y="-97" font-family="Helvetica,sans-Serif" font-size="10.00">_settings</text>
</a>
</g>
</g>
<!-- Node2 -->
<g id="node2" class="node">
<title>Node2</title>
<g id="a_node2"><a xlink:href="group__solver-grp.html#ga581cf986cb484ec5721f76b025eda704" target="_top" xlink:title="Update the settings to the new settings.">
<polygon fill="white" stroke="black" points="160,-95.5 160,-114.5 291,-114.5 291,-95.5 160,-95.5"/>
<text text-anchor="middle" x="225.5" y="-102.5" font-family="Helvetica,sans-Serif" font-size="10.00">qpalm_update_settings</text>
</a>
</g>
</g>
<!-- Node1&#45;&gt;Node2 -->
<g id="edge1" class="edge">
<title>Node1&#45;&gt;Node2</title>
<path fill="none" stroke="midnightblue" d="M124.06,-105C132.47,-105 141.18,-105 149.8,-105"/>
<polygon fill="midnightblue" stroke="midnightblue" points="149.86,-108.5 159.86,-105 149.86,-101.5 149.86,-108.5"/>
</g>
<!-- Node3 -->
<g id="node3" class="node">
<title>Node3</title>
<g id="a_node3"><a xlink:href="util_8c.html#a14436938f89e6b14f819c58af7d9f0fe" target="_top" xlink:title="Copy settings creating a new settings structure.">
<polygon fill="white" stroke="black" points="335.5,-190.5 335.5,-209.5 419.5,-209.5 419.5,-190.5 335.5,-190.5"/>
<text text-anchor="middle" x="377.5" y="-197.5" font-family="Helvetica,sans-Serif" font-size="10.00">copy_settings</text>
</a>
</g>
</g>
<!-- Node2&#45;&gt;Node3 -->
<g id="edge2" class="edge">
<title>Node2&#45;&gt;Node3</title>
<path fill="none" stroke="midnightblue" d="M236.95,-114.51C254.49,-130.08 291.43,-161.24 327,-181 330.52,-182.96 334.28,-184.8 338.1,-186.51"/>
<polygon fill="midnightblue" stroke="midnightblue" points="337.03,-189.85 347.61,-190.48 339.73,-183.39 337.03,-189.85"/>
</g>
<!-- Node5 -->
<g id="node5" class="node">
<title>Node5</title>
<g id="a_node5"><a xlink:href="global__opts_8c.html#a057129daf1349d96b074b9dca1994d09" target="_top" xlink:title=" ">
<polygon fill="white" stroke="black" points="341.5,-152.5 341.5,-171.5 413.5,-171.5 413.5,-152.5 341.5,-152.5"/>
<text text-anchor="middle" x="377.5" y="-159.5" font-family="Helvetica,sans-Serif" font-size="10.00">qpalm_free</text>
</a>
</g>
</g>
<!-- Node2&#45;&gt;Node5 -->
<g id="edge4" class="edge">
<title>Node2&#45;&gt;Node5</title>
<path fill="none" stroke="midnightblue" d="M251.61,-114.54C276.27,-123.91 314.1,-138.29 341.66,-148.76"/>
<polygon fill="midnightblue" stroke="midnightblue" points="340.72,-152.15 351.31,-152.43 343.21,-145.6 340.72,-152.15"/>
</g>
<!-- Node6 -->
<g id="node6" class="node">
<title>Node6</title>
<g id="a_node6"><a xlink:href="util_8h.html#aae57226ec767e15f27d88e97df093b41" target="_top" xlink:title="Start timer.">
<polygon fill="white" stroke="black" points="345,-114.5 345,-133.5 410,-133.5 410,-114.5 345,-114.5"/>
<text text-anchor="middle" x="377.5" y="-121.5" font-family="Helvetica,sans-Serif" font-size="10.00">qpalm_tic</text>
</a>
</g>
</g>
<!-- Node2&#45;&gt;Node6 -->
<g id="edge5" class="edge">
<title>Node2&#45;&gt;Node6</title>
<path fill="none" stroke="midnightblue" d="M291.42,-113.22C306.04,-115.07 321.18,-116.99 334.56,-118.69"/>
<polygon fill="midnightblue" stroke="midnightblue" points="334.52,-122.21 344.88,-119.99 335.4,-115.27 334.52,-122.21"/>
</g>
<!-- Node7 -->
<g id="node7" class="node">
<title>Node7</title>
<g id="a_node7"><a xlink:href="util_8h.html#a6eecdaf6f3f1c4bf0ab1067a5e7e69da" target="_top" xlink:title="Report time in seconds since last call to qpalm_tic.">
<polygon fill="white" stroke="black" points="343.5,-76.5 343.5,-95.5 411.5,-95.5 411.5,-76.5 343.5,-76.5"/>
<text text-anchor="middle" x="377.5" y="-83.5" font-family="Helvetica,sans-Serif" font-size="10.00">qpalm_toc</text>
</a>
</g>
</g>
<!-- Node2&#45;&gt;Node7 -->
<g id="edge6" class="edge">
<title>Node2&#45;&gt;Node7</title>
<path fill="none" stroke="midnightblue" d="M291.42,-96.78C305.54,-94.99 320.14,-93.14 333.18,-91.49"/>
<polygon fill="midnightblue" stroke="midnightblue" points="333.79,-94.94 343.27,-90.21 332.91,-87.99 333.79,-94.94"/>
</g>
<!-- Node8 -->
<g id="node8" class="node">
<title>Node8</title>
<g id="a_node8"><a xlink:href="util_8c.html#a14fe651105f1f38b2a3a49614f4b8ae2" target="_top" xlink:title="Update solver status (value and string).">
<polygon fill="white" stroke="black" points="334.5,-38.5 334.5,-57.5 420.5,-57.5 420.5,-38.5 334.5,-38.5"/>
<text text-anchor="middle" x="377.5" y="-45.5" font-family="Helvetica,sans-Serif" font-size="10.00">update_status</text>
</a>
</g>
</g>
<!-- Node2&#45;&gt;Node8 -->
<g id="edge7" class="edge">
<title>Node2&#45;&gt;Node8</title>
<path fill="none" stroke="midnightblue" d="M251.61,-95.46C276.27,-86.09 314.1,-71.71 341.66,-61.24"/>
<polygon fill="midnightblue" stroke="midnightblue" points="343.21,-64.4 351.31,-57.57 340.72,-57.85 343.21,-64.4"/>
</g>
<!-- Node10 -->
<g id="node10" class="node">
<title>Node10</title>
<g id="a_node10"><a xlink:href="validate_8c.html#aa3fa0338cebc63078430fed1211df147" target="_top" xlink:title="Validate problem settings.">
<polygon fill="white" stroke="black" points="327,-0.5 327,-19.5 428,-19.5 428,-0.5 327,-0.5"/>
<text text-anchor="middle" x="377.5" y="-7.5" font-family="Helvetica,sans-Serif" font-size="10.00">validate_settings</text>
</a>
</g>
</g>
<!-- Node2&#45;&gt;Node10 -->
<g id="edge9" class="edge">
<title>Node2&#45;&gt;Node10</title>
<path fill="none" stroke="midnightblue" d="M236.95,-95.49C254.49,-79.92 291.43,-48.76 327,-29 330.52,-27.04 334.28,-25.2 338.1,-23.49"/>
<polygon fill="midnightblue" stroke="midnightblue" points="339.73,-26.61 347.61,-19.52 337.03,-20.15 339.73,-26.61"/>
</g>
<!-- Node4 -->
<g id="node4" class="node">
<title>Node4</title>
<g id="a_node4"><a xlink:href="global__opts_8c.html#a9a15c13f16dd6467bcee00e8bf62666a" target="_top" xlink:title=" ">
<polygon fill="white" stroke="black" points="464,-190.5 464,-209.5 550,-209.5 550,-190.5 464,-190.5"/>
<text text-anchor="middle" x="507" y="-197.5" font-family="Helvetica,sans-Serif" font-size="10.00">qpalm_malloc</text>
</a>
</g>
</g>
<!-- Node3&#45;&gt;Node4 -->
<g id="edge3" class="edge">
<title>Node3&#45;&gt;Node4</title>
<path fill="none" stroke="midnightblue" d="M419.54,-200C430.36,-200 442.17,-200 453.5,-200"/>
<polygon fill="midnightblue" stroke="midnightblue" points="453.72,-203.5 463.72,-200 453.72,-196.5 453.72,-203.5"/>
</g>
<!-- Node9 -->
<g id="node9" class="node">
<title>Node9</title>
<g id="a_node9"><a xlink:href="util_8c.html#a7645b56a91479fac2285909a25875b91" target="_top" xlink:title="Custom string copy to avoid string.h library.">
<polygon fill="white" stroke="black" points="478.5,-38.5 478.5,-57.5 535.5,-57.5 535.5,-38.5 478.5,-38.5"/>
<text text-anchor="middle" x="507" y="-45.5" font-family="Helvetica,sans-Serif" font-size="10.00">c_strcpy</text>
</a>
</g>
</g>
<!-- Node8&#45;&gt;Node9 -->
<g id="edge8" class="edge">
<title>Node8&#45;&gt;Node9</title>
<path fill="none" stroke="midnightblue" d="M420.6,-48C435.89,-48 453.07,-48 467.99,-48"/>
<polygon fill="midnightblue" stroke="midnightblue" points="468.39,-51.5 478.39,-48 468.39,-44.5 468.39,-51.5"/>
</g>
</g>
</svg>
