<?xml version="1.0" encoding="UTF-8" standalone="no"?>
<!DOCTYPE svg PUBLIC "-//W3C//DTD SVG 1.1//EN"
 "http://www.w3.org/Graphics/SVG/1.1/DTD/svg11.dtd">
<!-- Generated by graphviz version 2.43.0 (0)
 -->
<!-- Title: QPALM/src Pages: 1 -->
<svg width="94pt" height="167pt"
 viewBox="0.00 0.00 94.00 167.00" xmlns="http://www.w3.org/2000/svg" xmlns:xlink="http://www.w3.org/1999/xlink">
<g id="graph0" class="graph" transform="scale(1 1) rotate(0) translate(4 163)">
<title>QPALM/src</title>
<polygon fill="white" stroke="transparent" points="-4,4 -4,-163 90,-163 90,4 -4,4"/>
<g id="clust1" class="cluster">
<title>clusterdir_4541c9856ab846cdae324de488ddad2d</title>
<g id="a_clust1"><a xlink:href="dir_4541c9856ab846cdae324de488ddad2d.html" target="_top" xlink:title="QPALM">
<polygon fill="#edf0f7" stroke="#404040" stroke-dasharray="5,2" points="8,-8 8,-151 78,-151 78,-8 8,-8"/>
<text text-anchor="middle" x="43" y="-139" font-family="Helvetica,sans-Serif" font-size="10.00">QPALM</text>
</a>
</g>
</g>
<!-- dir_ab6c2c68d98b9838edd2eccfd20c8bdb -->
<g id="node1" class="node">
<title>dir_ab6c2c68d98b9838edd2eccfd20c8bdb</title>
<g id="a_node1"><a xlink:href="dir_ab6c2c68d98b9838edd2eccfd20c8bdb.html" target="_top" xlink:title="include">
<polygon fill="#a2b4d6" stroke="#404040" points="70,-52 16,-52 16,-16 70,-16 70,-52"/>
<text text-anchor="middle" x="43" y="-31.5" font-family="Helvetica,sans-Serif" font-size="10.00">include</text>
</a>
</g>
</g>
<!-- dir_f8b4a62496cf3ede66d0d81285489fca -->
<g id="node2" class="node">
<title>dir_f8b4a62496cf3ede66d0d81285489fca</title>
<g id="a_node2"><a xlink:href="dir_f8b4a62496cf3ede66d0d81285489fca.html" target="_top" xlink:title="src">
<polygon fill="#edf0f7" stroke="#404040" stroke-width="2" points="70,-124 16,-124 16,-88 70,-88 70,-124"/>
<text text-anchor="middle" x="43" y="-103.5" font-family="Helvetica,sans-Serif" font-size="10.00">src</text>
</a>
</g>
</g>
<!-- dir_f8b4a62496cf3ede66d0d81285489fca&#45;&gt;dir_ab6c2c68d98b9838edd2eccfd20c8bdb -->
<g id="edge1" class="edge">
<title>dir_f8b4a62496cf3ede66d0d81285489fca&#45;&gt;dir_ab6c2c68d98b9838edd2eccfd20c8bdb</title>
<path fill="none" stroke="black" d="M43,-87.7C43,-79.98 43,-70.71 43,-62.11"/>
<polygon fill="black" stroke="black" points="46.5,-62.1 43,-52.1 39.5,-62.1 46.5,-62.1"/>
<g id="a_edge1&#45;headlabel"><a xlink:href="dir_000010_000005.html" target="_top" xlink:title="49">
<text text-anchor="middle" x="49.34" y="-63.2" font-family="Helvetica,sans-Serif" font-size="10.00">49</text>
</a>
</g>
</g>
</g>
</svg>
