<?xml version="1.0" encoding="UTF-8" standalone="no"?>
<!DOCTYPE svg PUBLIC "-//W3C//DTD SVG 1.1//EN"
 "http://www.w3.org/Graphics/SVG/1.1/DTD/svg11.dtd">
<!-- Generated by graphviz version 2.43.0 (0)
 -->
<!-- Title: QPALM/include/global_opts.h Pages: 1 -->
<!--zoomable 475 -->
<svg id="main" version="1.1" xmlns="http://www.w3.org/2000/svg" xmlns:xlink="http://www.w3.org/1999/xlink" xml:space="preserve" onload="init(evt)">
<style type="text/css"><![CDATA[
.edge:hover path { stroke: red; }
.edge:hover polygon { stroke: red; fill: red; }
]]></style>
<script type="text/javascript"><![CDATA[
var edges = document.getElementsByTagName('g');
if (edges && edges.length) {
  for (var i=0;i<edges.length;i++) {
    if (edges[i].id.substr(0,4)=='edge') {
      edges[i].setAttribute('class','edge');
    }
  }
}
]]></script>
        <defs>
                <circle id="rim" cx="0" cy="0" r="7"/>
                <circle id="rim2" cx="0" cy="0" r="3.5"/>
                <g id="zoomPlus">
                        <use xlink:href="#rim" fill="#404040">
                                <set attributeName="fill" to="#808080" begin="zoomplus.mouseover" end="zoomplus.mouseout"/>
                        </use>
                        <path d="M-4,0h8M0,-4v8" fill="none" stroke="white" stroke-width="1.5" pointer-events="none"/>
                </g>
                <g id="zoomMin">
                        <use xlink:href="#rim" fill="#404040">
                                <set attributeName="fill" to="#808080" begin="zoomminus.mouseover" end="zoomminus.mouseout"/>
                        </use>
                        <path d="M-4,0h8" fill="none" stroke="white" stroke-width="1.5" pointer-events="none"/>
                </g>
                <g id="dirArrow">
                        <path fill="none" stroke="white" stroke-width="1.5" d="M0,-3.0v7 M-2.5,-0.5L0,-3.0L2.5,-0.5"/>
                </g>
               <g id="resetDef">
                       <use xlink:href="#rim2" fill="#404040">
                               <set attributeName="fill" to="#808080" begin="reset.mouseover" end="reset.mouseout"/>
                       </use>
               </g>
        </defs>

<script type="text/javascript">
var viewWidth = 2525;
var viewHeight = 475;
var sectionId = 'dynsection-1';
</script>
<script xlink:href="svgpan.js"/>
<svg id="graph" class="graph">
<g id="viewport">
<title>QPALM/include/global_opts.h</title>
<polygon fill="white" stroke="transparent" points="-4,4 -4,-471 2520.5,-471 2520.5,4 -4,4"/>
<!-- Node1 -->
<g id="node1" class="node">
<title>Node1</title>
<g id="a_node1"><a xlink:title="Custom memory allocation, print and utility functions, and data types for floats and ints.">
<polygon fill="#bfbfbf" stroke="black" points="632,-436.5 632,-466.5 754,-466.5 754,-436.5 632,-436.5"/>
<text text-anchor="start" x="640" y="-454.5" font-family="Helvetica,sans-Serif" font-size="10.00">QPALM/include/global</text>
<text text-anchor="middle" x="693" y="-443.5" font-family="Helvetica,sans-Serif" font-size="10.00">_opts.h</text>
</a>
</g>
</g>
<!-- Node2 -->
<g id="node2" class="node">
<title>Node2</title>
<g id="a_node2"><a xlink:href="iteration_8h.html" target="_top" xlink:title="QPALM main solver routines.">
<polygon fill="white" stroke="black" points="242,-246.5 242,-265.5 384,-265.5 384,-246.5 242,-246.5"/>
<text text-anchor="middle" x="313" y="-253.5" font-family="Helvetica,sans-Serif" font-size="10.00">QPALM/include/iteration.h</text>
</a>
</g>
</g>
<!-- Node1&#45;&gt;Node2 -->
<g id="edge1" class="edge">
<title>Node1&#45;&gt;Node2</title>
<path fill="none" stroke="midnightblue" d="M621.38,-445.12C545.98,-438.28 433.38,-424.31 398,-400 347.77,-365.49 322.6,-290.72 315.3,-265.5"/>
<polygon fill="midnightblue" stroke="midnightblue" points="621.49,-448.65 631.76,-446.04 622.11,-441.67 621.49,-448.65"/>
</g>
<!-- Node3 -->
<g id="node3" class="node">
<title>Node3</title>
<g id="a_node3"><a xlink:href="qpalm_8h.html" target="_top" xlink:title="QPALM main solver API.">
<polygon fill="white" stroke="black" points="827.5,-134.5 827.5,-153.5 958.5,-153.5 958.5,-134.5 827.5,-134.5"/>
<text text-anchor="middle" x="893" y="-141.5" font-family="Helvetica,sans-Serif" font-size="10.00">QPALM/include/qpalm.h</text>
</a>
</g>
</g>
<!-- Node1&#45;&gt;Node3 -->
<g id="edge10" class="edge">
<title>Node1&#45;&gt;Node3</title>
<path fill="none" stroke="midnightblue" d="M621.82,-444.38C445.01,-428.22 0,-381.31 0,-318.5 0,-318.5 0,-318.5 0,-255 0,-188.81 69.96,-206.72 134,-190 264.11,-156.02 667.9,-147.63 827.31,-145.61"/>
<polygon fill="midnightblue" stroke="midnightblue" points="621.53,-447.87 631.8,-445.28 622.16,-440.9 621.53,-447.87"/>
</g>
<!-- Node7 -->
<g id="node7" class="node">
<title>Node7</title>
<g id="a_node7"><a xlink:href="qpalm_8c.html" target="_top" xlink:title="QPALM main solver API.">
<polygon fill="white" stroke="black" points="1114,-73 1114,-92 1224,-92 1224,-73 1114,-73"/>
<text text-anchor="middle" x="1169" y="-80" font-family="Helvetica,sans-Serif" font-size="10.00">QPALM/src/qpalm.c</text>
</a>
</g>
</g>
<!-- Node1&#45;&gt;Node7 -->
<g id="edge78" class="edge">
<title>Node1&#45;&gt;Node7</title>
<path fill="none" stroke="midnightblue" d="M764.32,-446.21C1044.44,-428.74 2059.06,-359.44 2166,-266 2191.93,-243.35 2198.6,-219.59 2181,-190 2154.37,-145.21 2128.12,-148.24 2078,-134 1996.13,-110.75 1408.63,-90.88 1224.22,-85.15"/>
<polygon fill="midnightblue" stroke="midnightblue" points="764.04,-442.72 754.28,-446.83 764.48,-449.71 764.04,-442.72"/>
</g>
<!-- Node9 -->
<g id="node9" class="node">
<title>Node9</title>
<g id="a_node9"><a xlink:href="termination_8c.html" target="_top" xlink:title="Routines to check the termination and infeasibility criteria.">
<polygon fill="white" stroke="black" points="173,-190.5 173,-209.5 309,-209.5 309,-190.5 173,-190.5"/>
<text text-anchor="middle" x="241" y="-197.5" font-family="Helvetica,sans-Serif" font-size="10.00">QPALM/src/termination.c</text>
</a>
</g>
</g>
<!-- Node1&#45;&gt;Node9 -->
<g id="edge79" class="edge">
<title>Node1&#45;&gt;Node9</title>
<path fill="none" stroke="midnightblue" d="M621.59,-445.06C537.93,-437.74 405.13,-422.95 361,-400 287.93,-362 263.64,-342.45 233,-266 225.39,-247 232.43,-222.59 237.29,-209.76"/>
<polygon fill="midnightblue" stroke="midnightblue" points="621.53,-448.56 631.79,-445.93 622.13,-441.59 621.53,-448.56"/>
</g>
<!-- Node10 -->
<g id="node10" class="node">
<title>Node10</title>
<g id="a_node10"><a xlink:href="solver__interface_8h.html" target="_top" xlink:title="Interface and wrapper to matrix/factorization (ladel) functions.">
<polygon fill="white" stroke="black" points="1377,-302.5 1377,-332.5 1499,-332.5 1499,-302.5 1377,-302.5"/>
<text text-anchor="start" x="1385" y="-320.5" font-family="Helvetica,sans-Serif" font-size="10.00">QPALM/include/solver</text>
<text text-anchor="middle" x="1438" y="-309.5" font-family="Helvetica,sans-Serif" font-size="10.00">_interface.h</text>
</a>
</g>
</g>
<!-- Node1&#45;&gt;Node10 -->
<g id="edge11" class="edge">
<title>Node1&#45;&gt;Node10</title>
<path fill="none" stroke="midnightblue" d="M764.03,-438.46C886.44,-417.62 1144.98,-373.19 1363,-333 1367.43,-332.18 1372.01,-331.33 1376.62,-330.46"/>
<polygon fill="midnightblue" stroke="midnightblue" points="763.31,-435.03 754.03,-440.16 764.48,-441.93 763.31,-435.03"/>
</g>
<!-- Node17 -->
<g id="node17" class="node">
<title>Node17</title>
<g id="a_node17"><a xlink:href="nonconvex_8c.html" target="_top" xlink:title="Routines to deal with nonconvex QPs.">
<polygon fill="white" stroke="black" points="593,-190.5 593,-209.5 725,-209.5 725,-190.5 593,-190.5"/>
<text text-anchor="middle" x="659" y="-197.5" font-family="Helvetica,sans-Serif" font-size="10.00">QPALM/src/nonconvex.c</text>
</a>
</g>
</g>
<!-- Node1&#45;&gt;Node17 -->
<g id="edge77" class="edge">
<title>Node1&#45;&gt;Node17</title>
<path fill="none" stroke="midnightblue" d="M689.71,-426.36C682.38,-372.56 664.97,-244.81 660.22,-209.93"/>
<polygon fill="midnightblue" stroke="midnightblue" points="686.26,-426.94 691.07,-436.37 693.19,-425.99 686.26,-426.94"/>
</g>
<!-- Node19 -->
<g id="node19" class="node">
<title>Node19</title>
<g id="a_node19"><a xlink:href="util_8c.html" target="_top" xlink:title="Utility functions.">
<polygon fill="white" stroke="black" points="365.5,-190.5 365.5,-209.5 460.5,-209.5 460.5,-190.5 365.5,-190.5"/>
<text text-anchor="middle" x="413" y="-197.5" font-family="Helvetica,sans-Serif" font-size="10.00">QPALM/src/util.c</text>
</a>
</g>
</g>
<!-- Node1&#45;&gt;Node19 -->
<g id="edge80" class="edge">
<title>Node1&#45;&gt;Node19</title>
<path fill="none" stroke="midnightblue" d="M655.83,-431.75C602.13,-402.94 502.87,-342.95 444,-266 430.17,-247.93 420.34,-222.7 415.81,-209.62"/>
<polygon fill="midnightblue" stroke="midnightblue" points="654.2,-434.85 664.67,-436.43 657.47,-428.66 654.2,-434.85"/>
</g>
<!-- Node21 -->
<g id="node21" class="node">
<title>Node21</title>
<g id="a_node21"><a xlink:href="types_8h.html" target="_top" xlink:title="Internal data structures used in QPALM.">
<polygon fill="white" stroke="black" points="739,-375 739,-394 867,-394 867,-375 739,-375"/>
<text text-anchor="middle" x="803" y="-382" font-family="Helvetica,sans-Serif" font-size="10.00">QPALM/include/types.h</text>
</a>
</g>
</g>
<!-- Node1&#45;&gt;Node21 -->
<g id="edge33" class="edge">
<title>Node1&#45;&gt;Node21</title>
<path fill="none" stroke="midnightblue" d="M725.48,-431.31C746.43,-418.93 772.66,-403.43 788.6,-394.01"/>
<polygon fill="midnightblue" stroke="midnightblue" points="723.7,-428.3 716.87,-436.4 727.26,-434.32 723.7,-428.3"/>
</g>
<!-- Node29 -->
<g id="node29" class="node">
<title>Node29</title>
<g id="a_node29"><a xlink:href="sparse_8hpp.html" target="_top" xlink:title=" ">
<polygon fill="white" stroke="black" points="2241,-369.5 2241,-399.5 2363,-399.5 2363,-369.5 2241,-369.5"/>
<text text-anchor="start" x="2249" y="-387.5" font-family="Helvetica,sans-Serif" font-size="10.00">QPALM/interfaces/cxx</text>
<text text-anchor="middle" x="2302" y="-376.5" font-family="Helvetica,sans-Serif" font-size="10.00">/include/sparse.hpp</text>
</a>
</g>
</g>
<!-- Node1&#45;&gt;Node29 -->
<g id="edge73" class="edge">
<title>Node1&#45;&gt;Node29</title>
<path fill="none" stroke="midnightblue" d="M764.53,-449.65C1027.17,-446.28 1938.09,-432.48 2227,-400 2231.48,-399.5 2236.09,-398.87 2240.73,-398.16"/>
<polygon fill="midnightblue" stroke="midnightblue" points="764.31,-446.15 754.35,-449.78 764.39,-453.15 764.31,-446.15"/>
</g>
<!-- Node31 -->
<g id="node31" class="node">
<title>Node31</title>
<g id="a_node31"><a xlink:href="global__opts_8c.html" target="_top" xlink:title=" ">
<polygon fill="white" stroke="black" points="2381.5,-375 2381.5,-394 2516.5,-394 2516.5,-375 2381.5,-375"/>
<text text-anchor="middle" x="2449" y="-382" font-family="Helvetica,sans-Serif" font-size="10.00">QPALM/src/global_opts.c</text>
</a>
</g>
</g>
<!-- Node1&#45;&gt;Node31 -->
<g id="edge76" class="edge">
<title>Node1&#45;&gt;Node31</title>
<path fill="none" stroke="midnightblue" d="M764.65,-449.84C1043.04,-447.02 2053.2,-434.6 2372,-400 2384.44,-398.65 2397.89,-396.4 2410,-394.07"/>
<polygon fill="midnightblue" stroke="midnightblue" points="764.24,-446.34 754.27,-449.94 764.31,-453.34 764.24,-446.34"/>
</g>
<!-- Node2&#45;&gt;Node3 -->
<g id="edge2" class="edge">
<title>Node2&#45;&gt;Node3</title>
<path fill="none" stroke="midnightblue" d="M319.93,-236.94C326.85,-221.63 339.04,-200.52 357,-190 396.71,-166.75 693.08,-152.62 827.29,-147.36"/>
<polygon fill="midnightblue" stroke="midnightblue" points="316.6,-235.84 315.98,-246.42 323.06,-238.53 316.6,-235.84"/>
</g>
<!-- Node2&#45;&gt;Node7 -->
<g id="edge8" class="edge">
<title>Node2&#45;&gt;Node7</title>
<path fill="none" stroke="midnightblue" d="M231.93,-245.09C184.23,-236.02 137.93,-219.37 164,-190 179.96,-172.02 905.75,-106.72 1113.8,-88.34"/>
<polygon fill="midnightblue" stroke="midnightblue" points="231.32,-248.54 241.78,-246.86 232.56,-241.65 231.32,-248.54"/>
</g>
<!-- Node8 -->
<g id="node8" class="node">
<title>Node8</title>
<g id="a_node8"><a xlink:href="iteration_8c.html" target="_top" xlink:title="QPALM main solver routines.">
<polygon fill="white" stroke="black" points="857,-190.5 857,-209.5 977,-209.5 977,-190.5 857,-190.5"/>
<text text-anchor="middle" x="917" y="-197.5" font-family="Helvetica,sans-Serif" font-size="10.00">QPALM/src/iteration.c</text>
</a>
</g>
</g>
<!-- Node2&#45;&gt;Node8 -->
<g id="edge7" class="edge">
<title>Node2&#45;&gt;Node8</title>
<path fill="none" stroke="midnightblue" d="M394.16,-247.74C517.02,-236.76 747.41,-216.16 856.62,-206.4"/>
<polygon fill="midnightblue" stroke="midnightblue" points="393.71,-244.27 384.06,-248.65 394.33,-251.24 393.71,-244.27"/>
</g>
<!-- Node2&#45;&gt;Node9 -->
<g id="edge9" class="edge">
<title>Node2&#45;&gt;Node9</title>
<path fill="none" stroke="midnightblue" d="M293.13,-240.1C280.18,-230.38 263.7,-218.03 252.78,-209.83"/>
<polygon fill="midnightblue" stroke="midnightblue" points="291.33,-243.12 301.43,-246.32 295.53,-237.52 291.33,-243.12"/>
</g>
<!-- Node4 -->
<g id="node4" class="node">
<title>Node4</title>
<g id="a_node4"><a xlink:href="qpalm_8cpp.html" target="_top" xlink:title=" ">
<polygon fill="white" stroke="black" points="1785,-67.5 1785,-97.5 1907,-97.5 1907,-67.5 1785,-67.5"/>
<text text-anchor="start" x="1793" y="-85.5" font-family="Helvetica,sans-Serif" font-size="10.00">QPALM/interfaces/cxx</text>
<text text-anchor="middle" x="1846" y="-74.5" font-family="Helvetica,sans-Serif" font-size="10.00">/src/qpalm.cpp</text>
</a>
</g>
</g>
<!-- Node3&#45;&gt;Node4 -->
<g id="edge3" class="edge">
<title>Node3&#45;&gt;Node4</title>
<path fill="none" stroke="midnightblue" d="M968.59,-138.28C1151.88,-126.84 1617.17,-97.79 1784.71,-87.33"/>
<polygon fill="midnightblue" stroke="midnightblue" points="968.27,-134.79 958.5,-138.91 968.7,-141.78 968.27,-134.79"/>
</g>
<!-- Node5 -->
<g id="node5" class="node">
<title>Node5</title>
<g id="a_node5"><a xlink:href="qpalm__fortran_8h.html" target="_top" xlink:title=" ">
<polygon fill="white" stroke="black" points="824,-67.5 824,-97.5 962,-97.5 962,-67.5 824,-67.5"/>
<text text-anchor="start" x="832" y="-85.5" font-family="Helvetica,sans-Serif" font-size="10.00">QPALM/interfaces/fortran</text>
<text text-anchor="middle" x="893" y="-74.5" font-family="Helvetica,sans-Serif" font-size="10.00">/qpalm_fortran.h</text>
</a>
</g>
</g>
<!-- Node3&#45;&gt;Node5 -->
<g id="edge4" class="edge">
<title>Node3&#45;&gt;Node5</title>
<path fill="none" stroke="midnightblue" d="M893,-124.23C893,-115.59 893,-105.5 893,-97.52"/>
<polygon fill="midnightblue" stroke="midnightblue" points="889.5,-124.48 893,-134.48 896.5,-124.48 889.5,-124.48"/>
</g>
<!-- Node3&#45;&gt;Node7 -->
<g id="edge6" class="edge">
<title>Node3&#45;&gt;Node7</title>
<path fill="none" stroke="midnightblue" d="M942.49,-132.33C996.02,-120.79 1080.27,-102.63 1129.53,-92.01"/>
<polygon fill="midnightblue" stroke="midnightblue" points="941.58,-128.95 932.54,-134.48 943.06,-135.79 941.58,-128.95"/>
</g>
<!-- Node6 -->
<g id="node6" class="node">
<title>Node6</title>
<g id="a_node6"><a xlink:href="qpalm__fortran_8c.html" target="_top" xlink:title=" ">
<polygon fill="white" stroke="black" points="824,-0.5 824,-30.5 962,-30.5 962,-0.5 824,-0.5"/>
<text text-anchor="start" x="832" y="-18.5" font-family="Helvetica,sans-Serif" font-size="10.00">QPALM/interfaces/fortran</text>
<text text-anchor="middle" x="893" y="-7.5" font-family="Helvetica,sans-Serif" font-size="10.00">/qpalm_fortran.c</text>
</a>
</g>
</g>
<!-- Node5&#45;&gt;Node6 -->
<g id="edge5" class="edge">
<title>Node5&#45;&gt;Node6</title>
<path fill="none" stroke="midnightblue" d="M893,-57.11C893,-48.15 893,-38.32 893,-30.58"/>
<polygon fill="midnightblue" stroke="midnightblue" points="889.5,-57.4 893,-67.4 896.5,-57.4 889.5,-57.4"/>
</g>
<!-- Node10&#45;&gt;Node3 -->
<g id="edge29" class="edge">
<title>Node10&#45;&gt;Node3</title>
<path fill="none" stroke="midnightblue" d="M1366.61,-313.21C1248.15,-307.1 1016.34,-292.17 939,-266 916.51,-258.39 859.58,-230.73 848,-210 836.15,-188.79 862.2,-165.84 879.4,-153.69"/>
<polygon fill="midnightblue" stroke="midnightblue" points="1366.51,-316.71 1376.67,-313.72 1366.86,-309.72 1366.51,-316.71"/>
</g>
<!-- Node10&#45;&gt;Node7 -->
<g id="edge31" class="edge">
<title>Node10&#45;&gt;Node7</title>
<path fill="none" stroke="midnightblue" d="M1509.07,-315.7C1677.79,-313.19 2092.13,-303.27 2142,-266 2170.07,-245.02 2183.19,-218.64 2163,-190 2120.31,-129.45 2078.59,-148.82 2006,-134 1855.7,-103.31 1385.61,-88.92 1224.12,-84.8"/>
<polygon fill="midnightblue" stroke="midnightblue" points="1508.99,-312.2 1499.04,-315.84 1509.09,-319.2 1508.99,-312.2"/>
</g>
<!-- Node10&#45;&gt;Node8 -->
<g id="edge30" class="edge">
<title>Node10&#45;&gt;Node8</title>
<path fill="none" stroke="midnightblue" d="M1366.88,-315.82C1252.02,-313.59 1031.77,-304.28 965,-266 942.12,-252.88 926.96,-223.98 920.52,-209.55"/>
<polygon fill="midnightblue" stroke="midnightblue" points="1366.93,-319.32 1376.99,-316 1367.06,-312.32 1366.93,-319.32"/>
</g>
<!-- Node11 -->
<g id="node11" class="node">
<title>Node11</title>
<g id="a_node11"><a xlink:href="lin__alg_8h.html" target="_top" xlink:title="Linear algebra with vectors.">
<polygon fill="white" stroke="black" points="1287.5,-246.5 1287.5,-265.5 1420.5,-265.5 1420.5,-246.5 1287.5,-246.5"/>
<text text-anchor="middle" x="1354" y="-253.5" font-family="Helvetica,sans-Serif" font-size="10.00">QPALM/include/lin_alg.h</text>
</a>
</g>
</g>
<!-- Node10&#45;&gt;Node11 -->
<g id="edge12" class="edge">
<title>Node10&#45;&gt;Node11</title>
<path fill="none" stroke="midnightblue" d="M1409.74,-296.48C1394.94,-286 1377.59,-273.71 1366.22,-265.66"/>
<polygon fill="midnightblue" stroke="midnightblue" points="1407.91,-299.48 1418.09,-302.4 1411.96,-293.76 1407.91,-299.48"/>
</g>
<!-- Node18 -->
<g id="node18" class="node">
<title>Node18</title>
<g id="a_node18"><a xlink:href="solver__interface_8c.html" target="_top" xlink:title="Interface and wrapper to matrix/factorization (ladel) functions.">
<polygon fill="white" stroke="black" points="1816,-190.5 1816,-209.5 1974,-209.5 1974,-190.5 1816,-190.5"/>
<text text-anchor="middle" x="1895" y="-197.5" font-family="Helvetica,sans-Serif" font-size="10.00">QPALM/src/solver_interface.c</text>
</a>
</g>
</g>
<!-- Node10&#45;&gt;Node18 -->
<g id="edge32" class="edge">
<title>Node10&#45;&gt;Node18</title>
<path fill="none" stroke="midnightblue" d="M1503.44,-299.96C1602.18,-275.01 1785.69,-228.63 1861.2,-209.54"/>
<polygon fill="midnightblue" stroke="midnightblue" points="1502.42,-296.61 1493.58,-302.45 1504.13,-303.4 1502.42,-296.61"/>
</g>
<!-- Node11&#45;&gt;Node3 -->
<g id="edge13" class="edge">
<title>Node11&#45;&gt;Node3</title>
<path fill="none" stroke="midnightblue" d="M1379.53,-241.22C1401,-227.91 1425.85,-207.29 1410,-190 1380.07,-157.35 1091.13,-148.31 958.7,-145.87"/>
<polygon fill="midnightblue" stroke="midnightblue" points="1377.51,-238.35 1370.67,-246.44 1381.06,-244.38 1377.51,-238.35"/>
</g>
<!-- Node11&#45;&gt;Node7 -->
<g id="edge23" class="edge">
<title>Node11&#45;&gt;Node7</title>
<path fill="none" stroke="midnightblue" d="M1431.13,-251.59C1539.6,-246 1726.38,-233.12 1747,-210 1757.88,-197.81 1770.03,-160.93 1744,-134 1708.31,-97.07 1361.06,-86.9 1224.12,-84.32"/>
<polygon fill="midnightblue" stroke="midnightblue" points="1430.7,-248.11 1420.88,-252.11 1431.05,-255.1 1430.7,-248.11"/>
</g>
<!-- Node11&#45;&gt;Node8 -->
<g id="edge18" class="edge">
<title>Node11&#45;&gt;Node8</title>
<path fill="none" stroke="midnightblue" d="M1276.98,-245.48C1191.46,-234.91 1055.2,-218.08 977.16,-208.43"/>
<polygon fill="midnightblue" stroke="midnightblue" points="1276.8,-248.99 1287.15,-246.74 1277.66,-242.04 1276.8,-248.99"/>
</g>
<!-- Node11&#45;&gt;Node9 -->
<g id="edge26" class="edge">
<title>Node11&#45;&gt;Node9</title>
<path fill="none" stroke="midnightblue" d="M1277.35,-245.93C868.5,-213.87 763.1,-233.67 357,-210 341.47,-209.09 324.79,-207.92 309.06,-206.72"/>
<polygon fill="midnightblue" stroke="midnightblue" points="1277.13,-249.42 1287.37,-246.72 1277.68,-242.45 1277.13,-249.42"/>
</g>
<!-- Node12 -->
<g id="node12" class="node">
<title>Node12</title>
<g id="a_node12"><a xlink:href="scaling_8h.html" target="_top" xlink:title="Problem data scaling during setup.">
<polygon fill="white" stroke="black" points="1586.5,-190.5 1586.5,-209.5 1721.5,-209.5 1721.5,-190.5 1586.5,-190.5"/>
<text text-anchor="middle" x="1654" y="-197.5" font-family="Helvetica,sans-Serif" font-size="10.00">QPALM/include/scaling.h</text>
</a>
</g>
</g>
<!-- Node11&#45;&gt;Node12 -->
<g id="edge14" class="edge">
<title>Node11&#45;&gt;Node12</title>
<path fill="none" stroke="midnightblue" d="M1411.42,-244.66C1468.12,-234.46 1553.79,-219.04 1606.69,-209.52"/>
<polygon fill="midnightblue" stroke="midnightblue" points="1410.76,-241.23 1401.54,-246.44 1412,-248.12 1410.76,-241.23"/>
</g>
<!-- Node13 -->
<g id="node13" class="node">
<title>Node13</title>
<g id="a_node13"><a xlink:href="scaling_8c.html" target="_top" xlink:title="Problem data scaling during setup.">
<polygon fill="white" stroke="black" points="1621.5,-134.5 1621.5,-153.5 1734.5,-153.5 1734.5,-134.5 1621.5,-134.5"/>
<text text-anchor="middle" x="1678" y="-141.5" font-family="Helvetica,sans-Serif" font-size="10.00">QPALM/src/scaling.c</text>
</a>
</g>
</g>
<!-- Node11&#45;&gt;Node13 -->
<g id="edge24" class="edge">
<title>Node11&#45;&gt;Node13</title>
<path fill="none" stroke="midnightblue" d="M1430.85,-251.2C1535.3,-245.24 1711.44,-232.03 1731,-210 1748.4,-190.4 1715.13,-166.23 1693.84,-153.6"/>
<polygon fill="midnightblue" stroke="midnightblue" points="1430.45,-247.72 1420.66,-251.77 1430.84,-254.71 1430.45,-247.72"/>
</g>
<!-- Node14 -->
<g id="node14" class="node">
<title>Node14</title>
<g id="a_node14"><a xlink:href="lin__alg_8c.html" target="_top" xlink:title="Linear algebra with vectors.">
<polygon fill="white" stroke="black" points="1457.5,-190.5 1457.5,-209.5 1568.5,-209.5 1568.5,-190.5 1457.5,-190.5"/>
<text text-anchor="middle" x="1513" y="-197.5" font-family="Helvetica,sans-Serif" font-size="10.00">QPALM/src/lin_alg.c</text>
</a>
</g>
</g>
<!-- Node11&#45;&gt;Node14 -->
<g id="edge19" class="edge">
<title>Node11&#45;&gt;Node14</title>
<path fill="none" stroke="midnightblue" d="M1388.83,-243.17C1418.77,-233 1461.22,-218.59 1487.92,-209.52"/>
<polygon fill="midnightblue" stroke="midnightblue" points="1387.54,-239.91 1379.19,-246.44 1389.79,-246.54 1387.54,-239.91"/>
</g>
<!-- Node15 -->
<g id="node15" class="node">
<title>Node15</title>
<g id="a_node15"><a xlink:href="linesearch_8c.html" target="_top" xlink:title="Routines to perform exact or backtracking linesearch.">
<polygon fill="white" stroke="black" points="1992.5,-190.5 1992.5,-209.5 2121.5,-209.5 2121.5,-190.5 1992.5,-190.5"/>
<text text-anchor="middle" x="2057" y="-197.5" font-family="Helvetica,sans-Serif" font-size="10.00">QPALM/src/linesearch.c</text>
</a>
</g>
</g>
<!-- Node11&#45;&gt;Node15 -->
<g id="edge20" class="edge">
<title>Node11&#45;&gt;Node15</title>
<path fill="none" stroke="midnightblue" d="M1430.73,-250.74C1549.31,-243.88 1784.2,-229.19 1983,-210 1986.09,-209.7 1989.25,-209.38 1992.45,-209.04"/>
<polygon fill="midnightblue" stroke="midnightblue" points="1430.44,-247.25 1420.66,-251.32 1430.84,-254.24 1430.44,-247.25"/>
</g>
<!-- Node16 -->
<g id="node16" class="node">
<title>Node16</title>
<g id="a_node16"><a xlink:href="newton_8c.html" target="_top" xlink:title="Functions to calculate the semismooth Newton direction.">
<polygon fill="white" stroke="black" points="1285.5,-190.5 1285.5,-209.5 1400.5,-209.5 1400.5,-190.5 1285.5,-190.5"/>
<text text-anchor="middle" x="1343" y="-197.5" font-family="Helvetica,sans-Serif" font-size="10.00">QPALM/src/newton.c</text>
</a>
</g>
</g>
<!-- Node11&#45;&gt;Node16 -->
<g id="edge21" class="edge">
<title>Node11&#45;&gt;Node16</title>
<path fill="none" stroke="midnightblue" d="M1350.15,-236.1C1348.32,-227.14 1346.23,-216.86 1344.78,-209.75"/>
<polygon fill="midnightblue" stroke="midnightblue" points="1346.76,-236.98 1352.18,-246.08 1353.62,-235.59 1346.76,-236.98"/>
</g>
<!-- Node11&#45;&gt;Node17 -->
<g id="edge22" class="edge">
<title>Node11&#45;&gt;Node17</title>
<path fill="none" stroke="midnightblue" d="M1277.2,-245.87C1069.91,-226.13 836.78,-211.38 725.15,-204.78"/>
<polygon fill="midnightblue" stroke="midnightblue" points="1277.07,-249.37 1287.36,-246.84 1277.74,-242.4 1277.07,-249.37"/>
</g>
<!-- Node11&#45;&gt;Node18 -->
<g id="edge25" class="edge">
<title>Node11&#45;&gt;Node18</title>
<path fill="none" stroke="midnightblue" d="M1430.85,-247.33C1533.02,-237.13 1712.64,-219.2 1815.92,-208.89"/>
<polygon fill="midnightblue" stroke="midnightblue" points="1430.21,-243.88 1420.61,-248.35 1430.91,-250.84 1430.21,-243.88"/>
</g>
<!-- Node11&#45;&gt;Node19 -->
<g id="edge27" class="edge">
<title>Node11&#45;&gt;Node19</title>
<path fill="none" stroke="midnightblue" d="M1277.25,-245.9C969.13,-219.7 889.56,-225.96 584,-210 542.29,-207.82 494.85,-205.32 460.54,-203.51"/>
<polygon fill="midnightblue" stroke="midnightblue" points="1277.11,-249.4 1287.37,-246.77 1277.7,-242.43 1277.11,-249.4"/>
</g>
<!-- Node20 -->
<g id="node20" class="node">
<title>Node20</title>
<g id="a_node20"><a xlink:href="validate_8c.html" target="_top" xlink:title="Validation of the user provided settings and data.">
<polygon fill="white" stroke="black" points="1109.5,-190.5 1109.5,-209.5 1228.5,-209.5 1228.5,-190.5 1109.5,-190.5"/>
<text text-anchor="middle" x="1169" y="-197.5" font-family="Helvetica,sans-Serif" font-size="10.00">QPALM/src/validate.c</text>
</a>
</g>
</g>
<!-- Node11&#45;&gt;Node20 -->
<g id="edge28" class="edge">
<title>Node11&#45;&gt;Node20</title>
<path fill="none" stroke="midnightblue" d="M1314.83,-243.57C1279.93,-233.38 1229.65,-218.7 1198.18,-209.52"/>
<polygon fill="midnightblue" stroke="midnightblue" points="1314.11,-247 1324.69,-246.44 1316.07,-240.28 1314.11,-247"/>
</g>
<!-- Node12&#45;&gt;Node3 -->
<g id="edge15" class="edge">
<title>Node12&#45;&gt;Node3</title>
<path fill="none" stroke="midnightblue" d="M1576.45,-189.9C1343.41,-168.7 1079.15,-154.24 958.74,-148.17"/>
<polygon fill="midnightblue" stroke="midnightblue" points="1576.2,-193.39 1586.47,-190.82 1576.84,-186.42 1576.2,-193.39"/>
</g>
<!-- Node12&#45;&gt;Node7 -->
<g id="edge16" class="edge">
<title>Node12&#45;&gt;Node7</title>
<path fill="none" stroke="midnightblue" d="M1607.94,-188.03C1511.82,-165.14 1291.61,-112.7 1204.97,-92.06"/>
<polygon fill="midnightblue" stroke="midnightblue" points="1607.4,-191.5 1617.94,-190.41 1609.03,-184.69 1607.4,-191.5"/>
</g>
<!-- Node12&#45;&gt;Node13 -->
<g id="edge17" class="edge">
<title>Node12&#45;&gt;Node13</title>
<path fill="none" stroke="midnightblue" d="M1662.14,-180.69C1666.18,-171.59 1670.88,-161.01 1674.11,-153.75"/>
<polygon fill="midnightblue" stroke="midnightblue" points="1658.83,-179.52 1657.96,-190.08 1665.22,-182.37 1658.83,-179.52"/>
</g>
<!-- Node21&#45;&gt;Node2 -->
<g id="edge34" class="edge">
<title>Node21&#45;&gt;Node2</title>
<path fill="none" stroke="midnightblue" d="M728.37,-382.24C652.66,-378.9 533.11,-367.91 436,-333 390.41,-316.61 343.65,-281.74 323.4,-265.57"/>
<polygon fill="midnightblue" stroke="midnightblue" points="728.63,-385.75 738.76,-382.66 728.91,-378.76 728.63,-385.75"/>
</g>
<!-- Node21&#45;&gt;Node3 -->
<g id="edge51" class="edge">
<title>Node21&#45;&gt;Node3</title>
<path fill="none" stroke="midnightblue" d="M778.99,-369.76C715.36,-332.54 549.51,-229.88 584,-190 599.69,-171.86 741.4,-157.29 827.37,-150.03"/>
<polygon fill="midnightblue" stroke="midnightblue" points="777.54,-372.96 787.94,-374.96 781.05,-366.91 777.54,-372.96"/>
</g>
<!-- Node21&#45;&gt;Node10 -->
<g id="edge53" class="edge">
<title>Node21&#45;&gt;Node10</title>
<path fill="none" stroke="midnightblue" d="M877.16,-379.21C984.63,-372.44 1189.78,-357.49 1363,-333 1367.46,-332.37 1372.07,-331.65 1376.69,-330.88"/>
<polygon fill="midnightblue" stroke="midnightblue" points="876.83,-375.72 867.07,-379.84 877.27,-382.71 876.83,-375.72"/>
</g>
<!-- Node21&#45;&gt;Node11 -->
<g id="edge35" class="edge">
<title>Node21&#45;&gt;Node11</title>
<path fill="none" stroke="midnightblue" d="M850.38,-372.62C958.13,-347.89 1219.73,-287.83 1316.87,-265.52"/>
<polygon fill="midnightblue" stroke="midnightblue" points="849.4,-369.26 840.44,-374.9 850.97,-376.08 849.4,-369.26"/>
</g>
<!-- Node21&#45;&gt;Node12 -->
<g id="edge52" class="edge">
<title>Node21&#45;&gt;Node12</title>
<path fill="none" stroke="midnightblue" d="M870.63,-373.38C986.14,-355.53 1228.53,-315.59 1430,-266 1501.95,-248.29 1585.5,-222.68 1627.3,-209.52"/>
<polygon fill="midnightblue" stroke="midnightblue" points="869.87,-369.96 860.52,-374.94 870.93,-376.87 869.87,-369.96"/>
</g>
<!-- Node21&#45;&gt;Node17 -->
<g id="edge71" class="edge">
<title>Node21&#45;&gt;Node17</title>
<path fill="none" stroke="midnightblue" d="M789.73,-366.68C759.89,-328.86 688.35,-238.19 665.88,-209.71"/>
<polygon fill="midnightblue" stroke="midnightblue" points="787.11,-369.02 796.05,-374.7 792.61,-364.68 787.11,-369.02"/>
</g>
<!-- Node21&#45;&gt;Node19 -->
<g id="edge72" class="edge">
<title>Node21&#45;&gt;Node19</title>
<path fill="none" stroke="midnightblue" d="M733.08,-373.12C660.41,-359.31 546.66,-328.92 469,-266 447.94,-248.93 428.52,-223.28 419.05,-209.88"/>
<polygon fill="midnightblue" stroke="midnightblue" points="732.58,-376.58 743.05,-374.96 733.85,-369.7 732.58,-376.58"/>
</g>
<!-- Node22 -->
<g id="node22" class="node">
<title>Node22</title>
<g id="a_node22"><a xlink:href="linesearch_8h.html" target="_top" xlink:title="Routines to perform exact linesearch.">
<polygon fill="white" stroke="black" points="1981.5,-246.5 1981.5,-265.5 2132.5,-265.5 2132.5,-246.5 1981.5,-246.5"/>
<text text-anchor="middle" x="2057" y="-253.5" font-family="Helvetica,sans-Serif" font-size="10.00">QPALM/include/linesearch.h</text>
</a>
</g>
</g>
<!-- Node21&#45;&gt;Node22 -->
<g id="edge36" class="edge">
<title>Node21&#45;&gt;Node22</title>
<path fill="none" stroke="midnightblue" d="M877.42,-379.79C1006.16,-373.01 1278.67,-357.06 1508,-333 1690.78,-313.82 1906.42,-280.96 2004.14,-265.5"/>
<polygon fill="midnightblue" stroke="midnightblue" points="877.08,-376.3 867.28,-380.32 877.45,-383.29 877.08,-376.3"/>
</g>
<!-- Node23 -->
<g id="node23" class="node">
<title>Node23</title>
<g id="a_node23"><a xlink:href="newton_8h.html" target="_top" xlink:title="Functions to calculate the semismooth Newton direction.">
<polygon fill="white" stroke="black" points="1132.5,-246.5 1132.5,-265.5 1269.5,-265.5 1269.5,-246.5 1132.5,-246.5"/>
<text text-anchor="middle" x="1201" y="-253.5" font-family="Helvetica,sans-Serif" font-size="10.00">QPALM/include/newton.h</text>
</a>
</g>
</g>
<!-- Node21&#45;&gt;Node23 -->
<g id="edge41" class="edge">
<title>Node21&#45;&gt;Node23</title>
<path fill="none" stroke="midnightblue" d="M839.61,-371.86C918.85,-346.68 1104.72,-287.6 1174.18,-265.52"/>
<polygon fill="midnightblue" stroke="midnightblue" points="838.51,-368.54 830.04,-374.9 840.63,-375.21 838.51,-368.54"/>
</g>
<!-- Node24 -->
<g id="node24" class="node">
<title>Node24</title>
<g id="a_node24"><a xlink:href="nonconvex_8h.html" target="_top" xlink:title="Routines to deal with nonconvex QPs.">
<polygon fill="white" stroke="black" points="726,-246.5 726,-265.5 880,-265.5 880,-246.5 726,-246.5"/>
<text text-anchor="middle" x="803" y="-253.5" font-family="Helvetica,sans-Serif" font-size="10.00">QPALM/include/nonconvex.h</text>
</a>
</g>
</g>
<!-- Node21&#45;&gt;Node24 -->
<g id="edge46" class="edge">
<title>Node21&#45;&gt;Node24</title>
<path fill="none" stroke="midnightblue" d="M803,-364.44C803,-336.62 803,-286.04 803,-265.76"/>
<polygon fill="midnightblue" stroke="midnightblue" points="799.5,-364.81 803,-374.81 806.5,-364.81 799.5,-364.81"/>
</g>
<!-- Node25 -->
<g id="node25" class="node">
<title>Node25</title>
<g id="a_node25"><a xlink:href="termination_8h.html" target="_top" xlink:title="Routines to check the termination and infeasibility criteria.">
<polygon fill="white" stroke="black" points="28,-246.5 28,-265.5 186,-265.5 186,-246.5 28,-246.5"/>
<text text-anchor="middle" x="107" y="-253.5" font-family="Helvetica,sans-Serif" font-size="10.00">QPALM/include/termination.h</text>
</a>
</g>
</g>
<!-- Node21&#45;&gt;Node25 -->
<g id="edge54" class="edge">
<title>Node21&#45;&gt;Node25</title>
<path fill="none" stroke="midnightblue" d="M728.73,-378.49C642.38,-371.81 495.86,-357.85 372,-333 282.14,-314.97 178.43,-281.39 131.88,-265.61"/>
<polygon fill="midnightblue" stroke="midnightblue" points="728.72,-382 738.96,-379.27 729.25,-375.02 728.72,-382"/>
</g>
<!-- Node26 -->
<g id="node26" class="node">
<title>Node26</title>
<g id="a_node26"><a xlink:href="util_8h.html" target="_top" xlink:title="Utility functions.">
<polygon fill="white" stroke="black" points="478,-246.5 478,-265.5 594,-265.5 594,-246.5 478,-246.5"/>
<text text-anchor="middle" x="536" y="-253.5" font-family="Helvetica,sans-Serif" font-size="10.00">QPALM/include/util.h</text>
</a>
</g>
</g>
<!-- Node21&#45;&gt;Node26 -->
<g id="edge58" class="edge">
<title>Node21&#45;&gt;Node26</title>
<path fill="none" stroke="midnightblue" d="M756.31,-372.35C724.33,-363.79 681.46,-350.47 646,-333 606.44,-313.5 565.01,-281.08 546.28,-265.66"/>
<polygon fill="midnightblue" stroke="midnightblue" points="755.73,-375.81 766.29,-374.96 757.5,-369.04 755.73,-375.81"/>
</g>
<!-- Node27 -->
<g id="node27" class="node">
<title>Node27</title>
<g id="a_node27"><a xlink:href="validate_8h.html" target="_top" xlink:title="Validation of the user provided settings and data.">
<polygon fill="white" stroke="black" points="974,-246.5 974,-265.5 1114,-265.5 1114,-246.5 974,-246.5"/>
<text text-anchor="middle" x="1044" y="-253.5" font-family="Helvetica,sans-Serif" font-size="10.00">QPALM/include/validate.h</text>
</a>
</g>
</g>
<!-- Node21&#45;&gt;Node27 -->
<g id="edge65" class="edge">
<title>Node21&#45;&gt;Node27</title>
<path fill="none" stroke="midnightblue" d="M828.69,-370.01C878.41,-343.92 986.48,-287.19 1027.64,-265.59"/>
<polygon fill="midnightblue" stroke="midnightblue" points="826.79,-367.06 819.56,-374.81 830.05,-373.26 826.79,-367.06"/>
</g>
<!-- Node28 -->
<g id="node28" class="node">
<title>Node28</title>
<g id="a_node28"><a xlink:href="qpalm_8hpp.html" target="_top" xlink:title=" ">
<polygon fill="white" stroke="black" points="2241,-302.5 2241,-332.5 2363,-332.5 2363,-302.5 2241,-302.5"/>
<text text-anchor="start" x="2249" y="-320.5" font-family="Helvetica,sans-Serif" font-size="10.00">QPALM/interfaces/cxx</text>
<text text-anchor="middle" x="2302" y="-309.5" font-family="Helvetica,sans-Serif" font-size="10.00">/include/qpalm.hpp</text>
</a>
</g>
</g>
<!-- Node21&#45;&gt;Node28 -->
<g id="edge69" class="edge">
<title>Node21&#45;&gt;Node28</title>
<path fill="none" stroke="midnightblue" d="M877.51,-380.27C1137.62,-368.99 2002.43,-331.49 2240.74,-321.16"/>
<polygon fill="midnightblue" stroke="midnightblue" points="877.25,-376.78 867.41,-380.71 877.55,-383.77 877.25,-376.78"/>
</g>
<!-- Node22&#45;&gt;Node3 -->
<g id="edge37" class="edge">
<title>Node22&#45;&gt;Node3</title>
<path fill="none" stroke="midnightblue" d="M2089.3,-242.35C2117.03,-229.73 2149.79,-209.49 2131,-190 2110.48,-168.72 1211.95,-150.8 958.77,-146.16"/>
<polygon fill="midnightblue" stroke="midnightblue" points="2087.57,-239.28 2079.79,-246.47 2090.36,-245.7 2087.57,-239.28"/>
</g>
<!-- Node22&#45;&gt;Node7 -->
<g id="edge40" class="edge">
<title>Node22&#45;&gt;Node7</title>
<path fill="none" stroke="midnightblue" d="M2097.4,-243.08C2129.65,-231.54 2166.48,-212.53 2147,-190 2086.23,-119.7 1422.01,-91.96 1224.24,-85.22"/>
<polygon fill="midnightblue" stroke="midnightblue" points="2095.94,-239.88 2087.6,-246.41 2098.2,-246.5 2095.94,-239.88"/>
</g>
<!-- Node22&#45;&gt;Node8 -->
<g id="edge38" class="edge">
<title>Node22&#45;&gt;Node8</title>
<path fill="none" stroke="midnightblue" d="M1971.17,-251.01C1803.79,-243.23 1422.06,-225.41 1101,-210 1059.63,-208.01 1013.03,-205.73 977.08,-203.97"/>
<polygon fill="midnightblue" stroke="midnightblue" points="1971.25,-254.52 1981.4,-251.49 1971.57,-247.53 1971.25,-254.52"/>
</g>
<!-- Node22&#45;&gt;Node15 -->
<g id="edge39" class="edge">
<title>Node22&#45;&gt;Node15</title>
<path fill="none" stroke="midnightblue" d="M2057,-235.8C2057,-226.91 2057,-216.78 2057,-209.75"/>
<polygon fill="midnightblue" stroke="midnightblue" points="2053.5,-236.08 2057,-246.08 2060.5,-236.08 2053.5,-236.08"/>
</g>
<!-- Node23&#45;&gt;Node3 -->
<g id="edge42" class="edge">
<title>Node23&#45;&gt;Node3</title>
<path fill="none" stroke="midnightblue" d="M1167.3,-242.97C1104.65,-220.59 971.66,-173.09 917.11,-153.61"/>
<polygon fill="midnightblue" stroke="midnightblue" points="1166.49,-246.39 1177.09,-246.46 1168.85,-239.8 1166.49,-246.39"/>
</g>
<!-- Node23&#45;&gt;Node7 -->
<g id="edge45" class="edge">
<title>Node23&#45;&gt;Node7</title>
<path fill="none" stroke="midnightblue" d="M1218.64,-239.15C1226.14,-231.23 1234.06,-221 1238,-210 1241,-201.63 1240.52,-198.52 1238,-190 1225.88,-149.01 1192.51,-108.99 1177.05,-92"/>
<polygon fill="midnightblue" stroke="midnightblue" points="1216.11,-236.73 1211.44,-246.24 1221.02,-241.72 1216.11,-236.73"/>
</g>
<!-- Node23&#45;&gt;Node8 -->
<g id="edge43" class="edge">
<title>Node23&#45;&gt;Node8</title>
<path fill="none" stroke="midnightblue" d="M1145.97,-244.54C1092.3,-234.33 1011.66,-219 961.79,-209.52"/>
<polygon fill="midnightblue" stroke="midnightblue" points="1145.52,-248.01 1156,-246.44 1146.83,-241.14 1145.52,-248.01"/>
</g>
<!-- Node23&#45;&gt;Node16 -->
<g id="edge44" class="edge">
<title>Node23&#45;&gt;Node16</title>
<path fill="none" stroke="midnightblue" d="M1233.16,-242.77C1259.83,-232.63 1297.07,-218.47 1320.6,-209.52"/>
<polygon fill="midnightblue" stroke="midnightblue" points="1231.6,-239.62 1223.5,-246.44 1234.09,-246.16 1231.6,-239.62"/>
</g>
<!-- Node24&#45;&gt;Node3 -->
<g id="edge47" class="edge">
<title>Node24&#45;&gt;Node3</title>
<path fill="none" stroke="midnightblue" d="M802.42,-235.78C802.93,-221.9 805.59,-203.33 815,-190 827.45,-172.38 849.14,-160.68 866.5,-153.64"/>
<polygon fill="midnightblue" stroke="midnightblue" points="798.92,-236.12 802.41,-246.12 805.92,-236.13 798.92,-236.12"/>
</g>
<!-- Node24&#45;&gt;Node7 -->
<g id="edge50" class="edge">
<title>Node24&#45;&gt;Node7</title>
<path fill="none" stroke="midnightblue" d="M798.83,-236.39C793.96,-209.16 789.9,-159 819,-134 840.98,-115.12 1020.81,-96.63 1113.78,-88.22"/>
<polygon fill="midnightblue" stroke="midnightblue" points="795.4,-237.1 800.8,-246.21 802.26,-235.72 795.4,-237.1"/>
</g>
<!-- Node24&#45;&gt;Node8 -->
<g id="edge48" class="edge">
<title>Node24&#45;&gt;Node8</title>
<path fill="none" stroke="midnightblue" d="M830.24,-242.1C851.54,-232.01 880.54,-218.27 899.02,-209.52"/>
<polygon fill="midnightblue" stroke="midnightblue" points="828.6,-239 821.06,-246.44 831.6,-245.33 828.6,-239"/>
</g>
<!-- Node24&#45;&gt;Node17 -->
<g id="edge49" class="edge">
<title>Node24&#45;&gt;Node17</title>
<path fill="none" stroke="midnightblue" d="M770.75,-242.91C743.68,-232.75 705.68,-218.51 681.71,-209.52"/>
<polygon fill="midnightblue" stroke="midnightblue" points="769.59,-246.21 780.18,-246.44 772.05,-239.66 769.59,-246.21"/>
</g>
<!-- Node25&#45;&gt;Node3 -->
<g id="edge55" class="edge">
<title>Node25&#45;&gt;Node3</title>
<path fill="none" stroke="midnightblue" d="M116.73,-237.62C126.48,-222.11 143.02,-200.3 164,-190 222.66,-161.21 659.47,-149.61 827.45,-146.18"/>
<polygon fill="midnightblue" stroke="midnightblue" points="113.67,-235.93 111.57,-246.31 119.69,-239.5 113.67,-235.93"/>
</g>
<!-- Node25&#45;&gt;Node7 -->
<g id="edge56" class="edge">
<title>Node25&#45;&gt;Node7</title>
<path fill="none" stroke="midnightblue" d="M109.87,-236.23C113.13,-221.43 119.97,-201.45 134,-190 235.02,-107.54 292.68,-150.74 422,-134 664.5,-102.6 727.06,-114.93 971,-98 1019.31,-94.65 1074.23,-90.61 1113.96,-87.64"/>
<polygon fill="midnightblue" stroke="midnightblue" points="106.38,-235.83 108,-246.3 113.26,-237.11 106.38,-235.83"/>
</g>
<!-- Node25&#45;&gt;Node9 -->
<g id="edge57" class="edge">
<title>Node25&#45;&gt;Node9</title>
<path fill="none" stroke="midnightblue" d="M137.68,-242.64C162.82,-232.5 197.75,-218.43 219.87,-209.52"/>
<polygon fill="midnightblue" stroke="midnightblue" points="136.2,-239.46 128.23,-246.44 138.82,-245.95 136.2,-239.46"/>
</g>
<!-- Node26&#45;&gt;Node3 -->
<g id="edge59" class="edge">
<title>Node26&#45;&gt;Node3</title>
<path fill="none" stroke="midnightblue" d="M534.98,-236.27C535.27,-221.51 538.29,-201.54 551,-190 590.34,-154.26 739.54,-146.45 827.35,-145.02"/>
<polygon fill="midnightblue" stroke="midnightblue" points="531.48,-236.4 535.17,-246.33 538.48,-236.26 531.48,-236.4"/>
</g>
<!-- Node26&#45;&gt;Node7 -->
<g id="edge62" class="edge">
<title>Node26&#45;&gt;Node7</title>
<path fill="none" stroke="midnightblue" d="M529.9,-236.58C526.42,-222.31 524.58,-202.85 535,-190 571.51,-144.97 966.3,-102.89 1113.81,-88.62"/>
<polygon fill="midnightblue" stroke="midnightblue" points="526.57,-237.66 532.7,-246.3 533.29,-235.72 526.57,-237.66"/>
</g>
<!-- Node26&#45;&gt;Node8 -->
<g id="edge60" class="edge">
<title>Node26&#45;&gt;Node8</title>
<path fill="none" stroke="midnightblue" d="M604.59,-245.28C676.47,-235.09 788.28,-219.24 856.84,-209.53"/>
<polygon fill="midnightblue" stroke="midnightblue" points="603.69,-241.87 594.28,-246.74 604.67,-248.8 603.69,-241.87"/>
</g>
<!-- Node26&#45;&gt;Node9 -->
<g id="edge63" class="edge">
<title>Node26&#45;&gt;Node9</title>
<path fill="none" stroke="midnightblue" d="M479.19,-244.6C423.44,-234.4 339.44,-219.02 287.52,-209.52"/>
<polygon fill="midnightblue" stroke="midnightblue" points="478.79,-248.09 489.26,-246.44 480.05,-241.2 478.79,-248.09"/>
</g>
<!-- Node26&#45;&gt;Node17 -->
<g id="edge61" class="edge">
<title>Node26&#45;&gt;Node17</title>
<path fill="none" stroke="midnightblue" d="M564.77,-242.37C587.81,-232.26 619.48,-218.35 639.6,-209.52"/>
<polygon fill="midnightblue" stroke="midnightblue" points="563.24,-239.22 555.49,-246.44 566.05,-245.63 563.24,-239.22"/>
</g>
<!-- Node26&#45;&gt;Node19 -->
<g id="edge64" class="edge">
<title>Node26&#45;&gt;Node19</title>
<path fill="none" stroke="midnightblue" d="M507.23,-242.37C484.19,-232.26 452.52,-218.35 432.4,-209.52"/>
<polygon fill="midnightblue" stroke="midnightblue" points="505.95,-245.63 516.51,-246.44 508.76,-239.22 505.95,-245.63"/>
</g>
<!-- Node27&#45;&gt;Node3 -->
<g id="edge66" class="edge">
<title>Node27&#45;&gt;Node3</title>
<path fill="none" stroke="midnightblue" d="M1031.92,-238.09C1021.12,-223.88 1004.22,-203.75 986,-190 964.67,-173.9 936.66,-161.3 916.98,-153.58"/>
<polygon fill="midnightblue" stroke="midnightblue" points="1029.33,-240.48 1038.09,-246.45 1034.96,-236.32 1029.33,-240.48"/>
</g>
<!-- Node27&#45;&gt;Node7 -->
<g id="edge67" class="edge">
<title>Node27&#45;&gt;Node7</title>
<path fill="none" stroke="midnightblue" d="M1056.58,-237.74C1082.97,-201.53 1143.28,-118.78 1162.79,-92.02"/>
<polygon fill="midnightblue" stroke="midnightblue" points="1053.43,-236.12 1050.37,-246.26 1059.09,-240.24 1053.43,-236.12"/>
</g>
<!-- Node27&#45;&gt;Node20 -->
<g id="edge68" class="edge">
<title>Node27&#45;&gt;Node20</title>
<path fill="none" stroke="midnightblue" d="M1073.24,-242.37C1096.65,-232.26 1128.84,-218.35 1149.29,-209.52"/>
<polygon fill="midnightblue" stroke="midnightblue" points="1071.6,-239.26 1063.81,-246.44 1074.37,-245.69 1071.6,-239.26"/>
</g>
<!-- Node28&#45;&gt;Node4 -->
<g id="edge70" class="edge">
<title>Node28&#45;&gt;Node4</title>
<path fill="none" stroke="midnightblue" d="M2307.09,-292.39C2313.82,-253.17 2320.33,-175.73 2278,-134 2252.09,-108.46 2020.29,-92.75 1907.34,-86.55"/>
<polygon fill="midnightblue" stroke="midnightblue" points="2303.62,-291.91 2305.23,-302.38 2310.5,-293.19 2303.62,-291.91"/>
</g>
<!-- Node29&#45;&gt;Node28 -->
<g id="edge74" class="edge">
<title>Node29&#45;&gt;Node28</title>
<path fill="none" stroke="midnightblue" d="M2302,-359.11C2302,-350.15 2302,-340.32 2302,-332.58"/>
<polygon fill="midnightblue" stroke="midnightblue" points="2298.5,-359.4 2302,-369.4 2305.5,-359.4 2298.5,-359.4"/>
</g>
<!-- Node30 -->
<g id="node30" class="node">
<title>Node30</title>
<g id="a_node30"><a xlink:href="sparse_8cpp.html" target="_top" xlink:title=" ">
<polygon fill="white" stroke="black" points="2381,-302.5 2381,-332.5 2503,-332.5 2503,-302.5 2381,-302.5"/>
<text text-anchor="start" x="2389" y="-320.5" font-family="Helvetica,sans-Serif" font-size="10.00">QPALM/interfaces/cxx</text>
<text text-anchor="middle" x="2442" y="-309.5" font-family="Helvetica,sans-Serif" font-size="10.00">/src/sparse.cpp</text>
</a>
</g>
</g>
<!-- Node29&#45;&gt;Node30 -->
<g id="edge75" class="edge">
<title>Node29&#45;&gt;Node30</title>
<path fill="none" stroke="midnightblue" d="M2341.57,-365.13C2363.81,-354.8 2391.15,-342.11 2411.68,-332.58"/>
<polygon fill="midnightblue" stroke="midnightblue" points="2339.97,-362.01 2332.38,-369.4 2342.92,-368.36 2339.97,-362.01"/>
</g>
</g>
</svg>
        <g id="navigator" transform="translate(0 0)" fill="#404254">
                <rect fill="#f2f5e9" fill-opacity="0.5" stroke="#606060" stroke-width=".5" x="0" y="0" width="60" height="60"/>
                <use id="zoomplus" xlink:href="#zoomPlus" x="17" y="9" onmousedown="handleZoom(evt,'in')"/>
                <use id="zoomminus" xlink:href="#zoomMin" x="42" y="9" onmousedown="handleZoom(evt,'out')"/>
                <use id="reset" xlink:href="#resetDef" x="30" y="36" onmousedown="handleReset()"/>
                <g id="arrowUp" xlink:href="#dirArrow" transform="translate(30 24)" onmousedown="handlePan(0,-1)">
                  <use xlink:href="#rim" fill="#404040">
                        <set attributeName="fill" to="#808080" begin="arrowUp.mouseover" end="arrowUp.mouseout"/>
                  </use>
                  <path fill="none" stroke="white" stroke-width="1.5" d="M0,-3.0v7 M-2.5,-0.5L0,-3.0L2.5,-0.5"/>
                </g>
                <g id="arrowRight" xlink:href="#dirArrow" transform="rotate(90) translate(36 -43)" onmousedown="handlePan(1,0)">
                  <use xlink:href="#rim" fill="#404040">
                        <set attributeName="fill" to="#808080" begin="arrowRight.mouseover" end="arrowRight.mouseout"/>
                  </use>
                  <path fill="none" stroke="white" stroke-width="1.5" d="M0,-3.0v7 M-2.5,-0.5L0,-3.0L2.5,-0.5"/>
                </g>
                <g id="arrowDown" xlink:href="#dirArrow" transform="rotate(180) translate(-30 -48)" onmousedown="handlePan(0,1)">
                  <use xlink:href="#rim" fill="#404040">
                        <set attributeName="fill" to="#808080" begin="arrowDown.mouseover" end="arrowDown.mouseout"/>
                  </use>
                  <path fill="none" stroke="white" stroke-width="1.5" d="M0,-3.0v7 M-2.5,-0.5L0,-3.0L2.5,-0.5"/>
                </g>
                <g id="arrowLeft" xlink:href="#dirArrow" transform="rotate(270) translate(-36 17)" onmousedown="handlePan(-1,0)">
                  <use xlink:href="#rim" fill="#404040">
                        <set attributeName="fill" to="#808080" begin="arrowLeft.mouseover" end="arrowLeft.mouseout"/>
                  </use>
                  <path fill="none" stroke="white" stroke-width="1.5" d="M0,-3.0v7 M-2.5,-0.5L0,-3.0L2.5,-0.5"/>
                </g>
        </g>
        <svg viewBox="0 0 15 15" width="100%" height="30px" preserveAspectRatio="xMaxYMin meet">
         <g id="arrow_out" transform="scale(0.3 0.3)">
          <a xlink:href="global__opts_8h__dep__incl_org.svg" target="_base">
           <rect id="button" ry="5" rx="5" y="6" x="6" height="38" width="38"
                fill="#f2f5e9" fill-opacity="0.5" stroke="#606060" stroke-width="1.0"/>
           <path id="arrow"
             d="M 11.500037,31.436501 C 11.940474,20.09759 22.043105,11.32322 32.158766,21.979434 L 37.068811,17.246167 C 37.068811,17.246167 37.088388,32 37.088388,32 L 22.160133,31.978069 C 22.160133,31.978069 26.997745,27.140456 26.997745,27.140456 C 18.528582,18.264221 13.291696,25.230495 11.500037,31.436501 z"
             style="fill:#404040;"/>
          </a>
         </g>
        </svg>
</svg>
