<?xml version="1.0" encoding="UTF-8" standalone="no"?>
<!DOCTYPE svg PUBLIC "-//W3C//DTD SVG 1.1//EN"
 "http://www.w3.org/Graphics/SVG/1.1/DTD/svg11.dtd">
<!-- Generated by graphviz version 2.43.0 (0)
 -->
<!-- Title: qpalm_cleanup Pages: 1 -->
<svg width="257pt" height="88pt"
 viewBox="0.00 0.00 257.00 88.00" xmlns="http://www.w3.org/2000/svg" xmlns:xlink="http://www.w3.org/1999/xlink">
<g id="graph0" class="graph" transform="scale(1 1) rotate(0) translate(4 84)">
<title>qpalm_cleanup</title>
<polygon fill="white" stroke="transparent" points="-4,4 -4,-84 253,-84 253,4 -4,4"/>
<!-- Node1 -->
<g id="node1" class="node">
<title>Node1</title>
<g id="a_node1"><a xlink:title="Cleanup the workspace by deallocating memory.">
<polygon fill="#bfbfbf" stroke="black" points="158,-24.5 158,-43.5 249,-43.5 249,-24.5 158,-24.5"/>
<text text-anchor="middle" x="203.5" y="-31.5" font-family="Helvetica,sans-Serif" font-size="10.00">qpalm_cleanup</text>
</a>
</g>
</g>
<!-- Node2 -->
<g id="node2" class="node">
<title>Node2</title>
<g id="a_node2"><a xlink:href="structqpalm_1_1alloc_1_1qpalm__workspace__cleaner.html#a0153941f8aa59d256f436151041815ef" target="_top" xlink:title=" ">
<polygon fill="white" stroke="black" points="0,-38.5 0,-79.5 122,-79.5 122,-38.5 0,-38.5"/>
<text text-anchor="start" x="8" y="-67.5" font-family="Helvetica,sans-Serif" font-size="10.00">qpalm::alloc::qpalm</text>
<text text-anchor="start" x="8" y="-56.5" font-family="Helvetica,sans-Serif" font-size="10.00">_workspace_cleaner::</text>
<text text-anchor="middle" x="61" y="-45.5" font-family="Helvetica,sans-Serif" font-size="10.00">operator()</text>
</a>
</g>
</g>
<!-- Node1&#45;&gt;Node2 -->
<g id="edge1" class="edge">
<title>Node1&#45;&gt;Node2</title>
<path fill="none" stroke="midnightblue" d="M147.62,-43.77C139.23,-45.26 130.54,-46.8 122.05,-48.31"/>
<polygon fill="midnightblue" stroke="midnightblue" points="148.43,-47.18 157.66,-41.98 147.2,-40.28 148.43,-47.18"/>
</g>
<!-- Node3 -->
<g id="node3" class="node">
<title>Node3</title>
<g id="a_node3"><a xlink:href="qpalm__fortran_8c.html#abec01161fcee665e126347b862c404c4" target="_top" xlink:title=" ">
<polygon fill="white" stroke="black" points="13,-0.5 13,-19.5 109,-19.5 109,-0.5 13,-0.5"/>
<text text-anchor="middle" x="61" y="-7.5" font-family="Helvetica,sans-Serif" font-size="10.00">qpalm_fortran_c</text>
</a>
</g>
</g>
<!-- Node1&#45;&gt;Node3 -->
<g id="edge2" class="edge">
<title>Node1&#45;&gt;Node3</title>
<path fill="none" stroke="midnightblue" d="M147.68,-24.64C135.01,-22.47 121.64,-20.19 109.32,-18.08"/>
<polygon fill="midnightblue" stroke="midnightblue" points="147.21,-28.11 157.66,-26.34 148.39,-21.21 147.21,-28.11"/>
</g>
</g>
</svg>
