<?xml version="1.0" encoding="UTF-8" standalone="no"?>
<!DOCTYPE svg PUBLIC "-//W3C//DTD SVG 1.1//EN"
 "http://www.w3.org/Graphics/SVG/1.1/DTD/svg11.dtd">
<!-- Generated by graphviz version 2.43.0 (0)
 -->
<!-- Title: vec_ew_prod Pages: 1 -->
<svg width="441pt" height="458pt"
 viewBox="0.00 0.00 441.00 457.50" xmlns="http://www.w3.org/2000/svg" xmlns:xlink="http://www.w3.org/1999/xlink">
<g id="graph0" class="graph" transform="scale(1 1) rotate(0) translate(4 453.5)">
<title>vec_ew_prod</title>
<polygon fill="white" stroke="transparent" points="-4,4 -4,-453.5 437,-453.5 437,4 -4,4"/>
<!-- Node1 -->
<g id="node1" class="node">
<title>Node1</title>
<g id="a_node1"><a xlink:title="Elementwise product, .">
<polygon fill="#bfbfbf" stroke="black" points="353,-221 353,-240 433,-240 433,-221 353,-221"/>
<text text-anchor="middle" x="393" y="-228" font-family="Helvetica,sans-Serif" font-size="10.00">vec_ew_prod</text>
</a>
</g>
</g>
<!-- Node2 -->
<g id="node2" class="node">
<title>Node2</title>
<g id="a_node2"><a xlink:href="termination_8c.html#af1889ad003b14a004d4560bedde40ce9" target="_top" xlink:title="Calculates the infinity norm of the dual residual and the residual of the subproblem and stores them ...">
<polygon fill="white" stroke="black" points="174,-430 174,-449 311,-449 311,-430 174,-430"/>
<text text-anchor="middle" x="242.5" y="-437" font-family="Helvetica,sans-Serif" font-size="10.00">calculate_dual_residuals</text>
</a>
</g>
</g>
<!-- Node1&#45;&gt;Node2 -->
<g id="edge1" class="edge">
<title>Node1&#45;&gt;Node2</title>
<path fill="none" stroke="midnightblue" d="M390.06,-250.06C385.17,-288.63 368.75,-374.75 317,-420.5 312.66,-424.34 307.63,-427.42 302.29,-429.89"/>
<polygon fill="midnightblue" stroke="midnightblue" points="393.54,-250.44 391.2,-240.11 386.59,-249.64 393.54,-250.44"/>
</g>
<!-- Node4 -->
<g id="node4" class="node">
<title>Node4</title>
<g id="a_node4"><a xlink:href="termination_8c.html#ad746ec6ec47a1240e5e910abfb01fee3" target="_top" xlink:title="Calculates the dual tolerance for the problem and current subproblem and stores them in work&#45;&gt;eps_dua...">
<polygon fill="white" stroke="black" points="171,-392 171,-411 314,-411 314,-392 171,-392"/>
<text text-anchor="middle" x="242.5" y="-399" font-family="Helvetica,sans-Serif" font-size="10.00">calculate_dual_tolerances</text>
</a>
</g>
</g>
<!-- Node1&#45;&gt;Node4 -->
<g id="edge3" class="edge">
<title>Node1&#45;&gt;Node4</title>
<path fill="none" stroke="midnightblue" d="M387.89,-250.13C380.02,-282.71 359.68,-347.79 317,-382.5 312.3,-386.32 306.91,-389.39 301.24,-391.84"/>
<polygon fill="midnightblue" stroke="midnightblue" points="391.38,-250.59 390.17,-240.07 384.55,-249.05 391.38,-250.59"/>
</g>
<!-- Node5 -->
<g id="node5" class="node">
<title>Node5</title>
<g id="a_node5"><a xlink:href="termination_8c.html#afc13c2c286796ec381cdb5c83d9f764f" target="_top" xlink:title="Calculates the infinity norm of the primal residual and stores it in work&#45;&gt;info&#45;&gt;pri_res_norm.">
<polygon fill="white" stroke="black" points="171.5,-354 171.5,-373 313.5,-373 313.5,-354 171.5,-354"/>
<text text-anchor="middle" x="242.5" y="-361" font-family="Helvetica,sans-Serif" font-size="10.00">calculate_primal_residual</text>
</a>
</g>
</g>
<!-- Node1&#45;&gt;Node5 -->
<g id="edge5" class="edge">
<title>Node1&#45;&gt;Node5</title>
<path fill="none" stroke="midnightblue" d="M384.66,-249.55C373.82,-275.12 351.04,-320.15 317,-344.5 311.53,-348.41 305.33,-351.52 298.89,-353.98"/>
<polygon fill="midnightblue" stroke="midnightblue" points="387.94,-250.77 388.47,-240.19 381.46,-248.14 387.94,-250.77"/>
</g>
<!-- Node6 -->
<g id="node6" class="node">
<title>Node6</title>
<g id="a_node6"><a xlink:href="termination_8c.html#ac638a8fe12bfee736c6832fa6140c92d" target="_top" xlink:title="Calculates the primal tolerance and stores it in work&#45;&gt;eps_pri.">
<polygon fill="white" stroke="black" points="168,-316 168,-335 317,-335 317,-316 168,-316"/>
<text text-anchor="middle" x="242.5" y="-323" font-family="Helvetica,sans-Serif" font-size="10.00">calculate_primal_tolerance</text>
</a>
</g>
</g>
<!-- Node1&#45;&gt;Node6 -->
<g id="edge7" class="edge">
<title>Node1&#45;&gt;Node6</title>
<path fill="none" stroke="midnightblue" d="M379.14,-248.27C365.6,-265.68 342.72,-291.69 317,-306.5 310.26,-310.38 302.72,-313.48 295.12,-315.96"/>
<polygon fill="midnightblue" stroke="midnightblue" points="382.1,-250.15 385.33,-240.06 376.51,-245.94 382.1,-250.15"/>
</g>
<!-- Node7 -->
<g id="node7" class="node">
<title>Node7</title>
<g id="a_node7"><a xlink:href="iteration_8c.html#ae21af0f956f1ccf8ee41c4cf68698279" target="_top" xlink:title="Compute the residuals (in vector form)">
<polygon fill="white" stroke="black" points="188,-278 188,-297 297,-297 297,-278 188,-278"/>
<text text-anchor="middle" x="242.5" y="-285" font-family="Helvetica,sans-Serif" font-size="10.00">compute_residuals</text>
</a>
</g>
</g>
<!-- Node1&#45;&gt;Node7 -->
<g id="edge9" class="edge">
<title>Node1&#45;&gt;Node7</title>
<path fill="none" stroke="midnightblue" d="M366.63,-245.08C352.39,-252.83 334.09,-262.05 317,-268.5 307.38,-272.13 296.8,-275.31 286.74,-277.98"/>
<polygon fill="midnightblue" stroke="midnightblue" points="368.74,-247.92 375.78,-240.01 365.34,-241.8 368.74,-247.92"/>
</g>
<!-- Node8 -->
<g id="node8" class="node">
<title>Node8</title>
<g id="a_node8"><a xlink:href="linesearch_8c.html#a647cabae1574f21e412110765ea1e70d" target="_top" xlink:title="Execute exact linesearch (using qsort)">
<polygon fill="white" stroke="black" points="193,-240 193,-259 292,-259 292,-240 193,-240"/>
<text text-anchor="middle" x="242.5" y="-247" font-family="Helvetica,sans-Serif" font-size="10.00">exact_linesearch</text>
</a>
</g>
</g>
<!-- Node1&#45;&gt;Node8 -->
<g id="edge10" class="edge">
<title>Node1&#45;&gt;Node8</title>
<path fill="none" stroke="midnightblue" d="M343.06,-236.76C326.68,-238.86 308.43,-241.19 292.08,-243.28"/>
<polygon fill="midnightblue" stroke="midnightblue" points="343.51,-240.23 352.98,-235.49 342.62,-233.29 343.51,-240.23"/>
</g>
<!-- Node10 -->
<g id="node10" class="node">
<title>Node10</title>
<g id="a_node10"><a xlink:href="termination_8c.html#a8cf01c07469436e7c562c9f3e162fd2b" target="_top" xlink:title="Check whether the problem is dual infeasible.">
<polygon fill="white" stroke="black" points="190.5,-202 190.5,-221 294.5,-221 294.5,-202 190.5,-202"/>
<text text-anchor="middle" x="242.5" y="-209" font-family="Helvetica,sans-Serif" font-size="10.00">is_dual_infeasible</text>
</a>
</g>
</g>
<!-- Node1&#45;&gt;Node10 -->
<g id="edge12" class="edge">
<title>Node1&#45;&gt;Node10</title>
<path fill="none" stroke="midnightblue" d="M343.04,-224.24C327.48,-222.25 310.25,-220.04 294.55,-218.03"/>
<polygon fill="midnightblue" stroke="midnightblue" points="342.62,-227.71 352.98,-225.51 343.51,-220.77 342.62,-227.71"/>
</g>
<!-- Node11 -->
<g id="node11" class="node">
<title>Node11</title>
<g id="a_node11"><a xlink:href="termination_8c.html#a4df388b37067a843cbb2c6b244496d9c" target="_top" xlink:title="Check whether the problem is primal infeasible.">
<polygon fill="white" stroke="black" points="185,-164 185,-183 300,-183 300,-164 185,-164"/>
<text text-anchor="middle" x="242.5" y="-171" font-family="Helvetica,sans-Serif" font-size="10.00">is_primal_infeasible</text>
</a>
</g>
</g>
<!-- Node1&#45;&gt;Node11 -->
<g id="edge13" class="edge">
<title>Node1&#45;&gt;Node11</title>
<path fill="none" stroke="midnightblue" d="M366.63,-215.92C352.39,-208.17 334.09,-198.95 317,-192.5 307.38,-188.87 296.8,-185.69 286.74,-183.02"/>
<polygon fill="midnightblue" stroke="midnightblue" points="365.34,-219.2 375.78,-220.99 368.74,-213.08 365.34,-219.2"/>
</g>
<!-- Node12 -->
<g id="node12" class="node">
<title>Node12</title>
<g id="a_node12"><a xlink:href="scaling_8c.html#a3735b6c9c3aeeddfb3bb0982ae5f70ba" target="_top" xlink:title="Scale problem matrices.">
<polygon fill="white" stroke="black" points="208,-126 208,-145 277,-145 277,-126 208,-126"/>
<text text-anchor="middle" x="242.5" y="-133" font-family="Helvetica,sans-Serif" font-size="10.00">scale_data</text>
</a>
</g>
</g>
<!-- Node1&#45;&gt;Node12 -->
<g id="edge14" class="edge">
<title>Node1&#45;&gt;Node12</title>
<path fill="none" stroke="midnightblue" d="M379.14,-212.73C365.6,-195.32 342.72,-169.31 317,-154.5 304.89,-147.53 290.21,-143.07 277.16,-140.24"/>
<polygon fill="midnightblue" stroke="midnightblue" points="376.51,-215.06 385.33,-220.94 382.1,-210.85 376.51,-215.06"/>
</g>
<!-- Node13 -->
<g id="node13" class="node">
<title>Node13</title>
<g id="a_node13"><a xlink:href="termination_8c.html#a59f3d4d2ea459665833cc3d5e9265d5e" target="_top" xlink:title="Helper function to store the (unscaled) solution in the solution struct.">
<polygon fill="white" stroke="black" points="199.5,-88 199.5,-107 285.5,-107 285.5,-88 199.5,-88"/>
<text text-anchor="middle" x="242.5" y="-95" font-family="Helvetica,sans-Serif" font-size="10.00">store_solution</text>
</a>
</g>
</g>
<!-- Node1&#45;&gt;Node13 -->
<g id="edge15" class="edge">
<title>Node1&#45;&gt;Node13</title>
<path fill="none" stroke="midnightblue" d="M384.66,-211.45C373.82,-185.88 351.04,-140.85 317,-116.5 307.89,-109.98 296.72,-105.7 285.88,-102.88"/>
<polygon fill="midnightblue" stroke="midnightblue" points="381.46,-212.86 388.47,-220.81 387.94,-210.23 381.46,-212.86"/>
</g>
<!-- Node14 -->
<g id="node14" class="node">
<title>Node14</title>
<g id="a_node14"><a xlink:href="scaling_8c.html#ade09374cb3567d09382e0bc68df5acba" target="_top" xlink:title="Unscale the problem data.">
<polygon fill="white" stroke="black" points="202,-50 202,-69 283,-69 283,-50 202,-50"/>
<text text-anchor="middle" x="242.5" y="-57" font-family="Helvetica,sans-Serif" font-size="10.00">unscale_data</text>
</a>
</g>
</g>
<!-- Node1&#45;&gt;Node14 -->
<g id="edge16" class="edge">
<title>Node1&#45;&gt;Node14</title>
<path fill="none" stroke="midnightblue" d="M387.89,-210.87C380.02,-178.29 359.68,-113.21 317,-78.5 307.39,-70.68 294.92,-66.05 283,-63.31"/>
<polygon fill="midnightblue" stroke="midnightblue" points="384.55,-211.95 390.17,-220.93 391.38,-210.41 384.55,-211.95"/>
</g>
<!-- Node15 -->
<g id="node15" class="node">
<title>Node15</title>
<g id="a_node15"><a xlink:href="iteration_8c.html#a786f2d2af82a141fe3825a3964659d50" target="_top" xlink:title=" ">
<polygon fill="white" stroke="black" points="178,-0.5 178,-30.5 307,-30.5 307,-0.5 178,-0.5"/>
<text text-anchor="start" x="186" y="-18.5" font-family="Helvetica,sans-Serif" font-size="10.00">update_proximal_point</text>
<text text-anchor="middle" x="242.5" y="-7.5" font-family="Helvetica,sans-Serif" font-size="10.00">_and_penalty</text>
</a>
</g>
</g>
<!-- Node1&#45;&gt;Node15 -->
<g id="edge17" class="edge">
<title>Node1&#45;&gt;Node15</title>
<path fill="none" stroke="midnightblue" d="M389.61,-210.24C384.02,-171.76 366.55,-87.73 317,-40.5 312.9,-36.59 308.17,-33.3 303.12,-30.51"/>
<polygon fill="midnightblue" stroke="midnightblue" points="386.21,-211.18 390.99,-220.63 393.15,-210.26 386.21,-211.18"/>
</g>
<!-- Node3 -->
<g id="node3" class="node">
<title>Node3</title>
<g id="a_node3"><a xlink:href="termination_8c.html#a50775fd01103420a3cfe7452a8be3874" target="_top" xlink:title="Calls the routines that compute the norm of the residuals and the tolerances.">
<polygon fill="white" stroke="black" points="0,-367.5 0,-397.5 132,-397.5 132,-367.5 0,-367.5"/>
<text text-anchor="start" x="8" y="-385.5" font-family="Helvetica,sans-Serif" font-size="10.00">calculate_residual</text>
<text text-anchor="middle" x="66" y="-374.5" font-family="Helvetica,sans-Serif" font-size="10.00">_norms_and_tolerances</text>
</a>
</g>
</g>
<!-- Node2&#45;&gt;Node3 -->
<g id="edge2" class="edge">
<title>Node2&#45;&gt;Node3</title>
<path fill="none" stroke="midnightblue" d="M191.39,-427.31C183.52,-425.18 175.51,-422.88 168,-420.5 146.57,-413.72 123.03,-404.95 104.08,-397.54"/>
<polygon fill="midnightblue" stroke="midnightblue" points="190.66,-430.74 201.23,-429.92 192.45,-423.97 190.66,-430.74"/>
</g>
<!-- Node4&#45;&gt;Node3 -->
<g id="edge4" class="edge">
<title>Node4&#45;&gt;Node3</title>
<path fill="none" stroke="midnightblue" d="M160.83,-392.72C151.24,-391.67 141.53,-390.62 132.19,-389.6"/>
<polygon fill="midnightblue" stroke="midnightblue" points="160.46,-396.2 170.78,-393.8 161.21,-389.24 160.46,-396.2"/>
</g>
<!-- Node5&#45;&gt;Node3 -->
<g id="edge6" class="edge">
<title>Node5&#45;&gt;Node3</title>
<path fill="none" stroke="midnightblue" d="M161.23,-372.24C151.54,-373.3 141.72,-374.36 132.28,-375.39"/>
<polygon fill="midnightblue" stroke="midnightblue" points="161.72,-375.71 171.28,-371.15 160.96,-368.75 161.72,-375.71"/>
</g>
<!-- Node6&#45;&gt;Node3 -->
<g id="edge8" class="edge">
<title>Node6&#45;&gt;Node3</title>
<path fill="none" stroke="midnightblue" d="M191.39,-337.69C183.52,-339.82 175.51,-342.12 168,-344.5 146.57,-351.28 123.03,-360.05 104.08,-367.46"/>
<polygon fill="midnightblue" stroke="midnightblue" points="192.45,-341.03 201.23,-335.08 190.66,-334.26 192.45,-341.03"/>
</g>
<!-- Node9 -->
<g id="node9" class="node">
<title>Node9</title>
<g id="a_node9"><a xlink:href="iteration_8c.html#a9c9fafac9ce099122c5a594762e5a052" target="_top" xlink:title="Update the primal iterate.">
<polygon fill="white" stroke="black" points="3.5,-240 3.5,-259 128.5,-259 128.5,-240 3.5,-240"/>
<text text-anchor="middle" x="66" y="-247" font-family="Helvetica,sans-Serif" font-size="10.00">update_primal_iterate</text>
</a>
</g>
</g>
<!-- Node8&#45;&gt;Node9 -->
<g id="edge11" class="edge">
<title>Node8&#45;&gt;Node9</title>
<path fill="none" stroke="midnightblue" d="M182.87,-249.5C165.47,-249.5 146.36,-249.5 128.76,-249.5"/>
<polygon fill="midnightblue" stroke="midnightblue" points="182.89,-253 192.89,-249.5 182.89,-246 182.89,-253"/>
</g>
<!-- Node16 -->
<g id="node16" class="node">
<title>Node16</title>
<g id="a_node16"><a xlink:href="iteration_8c.html#a1ad7b6cb4924a8de3378ed35890b02e7" target="_top" xlink:title=" ">
<polygon fill="white" stroke="black" points="9,-0.5 9,-30.5 123,-30.5 123,-0.5 9,-0.5"/>
<text text-anchor="start" x="17" y="-18.5" font-family="Helvetica,sans-Serif" font-size="10.00">update_dual_iterate</text>
<text text-anchor="middle" x="66" y="-7.5" font-family="Helvetica,sans-Serif" font-size="10.00">_and_parameters</text>
</a>
</g>
</g>
<!-- Node15&#45;&gt;Node16 -->
<g id="edge18" class="edge">
<title>Node15&#45;&gt;Node16</title>
<path fill="none" stroke="midnightblue" d="M167.38,-15.5C152.58,-15.5 137.27,-15.5 123.2,-15.5"/>
<polygon fill="midnightblue" stroke="midnightblue" points="167.51,-19 177.51,-15.5 167.51,-12 167.51,-19"/>
</g>
</g>
</svg>
