<?xml version="1.0" encoding="UTF-8" standalone="no"?>
<!DOCTYPE svg PUBLIC "-//W3C//DTD SVG 1.1//EN"
 "http://www.w3.org/Graphics/SVG/1.1/DTD/svg11.dtd">
<!-- Generated by graphviz version 2.43.0 (0)
 -->
<!-- Title: vec_add_scaled Pages: 1 -->
<!--zoomable 446 -->
<svg id="main" version="1.1" xmlns="http://www.w3.org/2000/svg" xmlns:xlink="http://www.w3.org/1999/xlink" xml:space="preserve" onload="init(evt)">
<style type="text/css"><![CDATA[
.edge:hover path { stroke: red; }
.edge:hover polygon { stroke: red; fill: red; }
]]></style>
<script type="text/javascript"><![CDATA[
var edges = document.getElementsByTagName('g');
if (edges && edges.length) {
  for (var i=0;i<edges.length;i++) {
    if (edges[i].id.substr(0,4)=='edge') {
      edges[i].setAttribute('class','edge');
    }
  }
}
]]></script>
        <defs>
                <circle id="rim" cx="0" cy="0" r="7"/>
                <circle id="rim2" cx="0" cy="0" r="3.5"/>
                <g id="zoomPlus">
                        <use xlink:href="#rim" fill="#404040">
                                <set attributeName="fill" to="#808080" begin="zoomplus.mouseover" end="zoomplus.mouseout"/>
                        </use>
                        <path d="M-4,0h8M0,-4v8" fill="none" stroke="white" stroke-width="1.5" pointer-events="none"/>
                </g>
                <g id="zoomMin">
                        <use xlink:href="#rim" fill="#404040">
                                <set attributeName="fill" to="#808080" begin="zoomminus.mouseover" end="zoomminus.mouseout"/>
                        </use>
                        <path d="M-4,0h8" fill="none" stroke="white" stroke-width="1.5" pointer-events="none"/>
                </g>
                <g id="dirArrow">
                        <path fill="none" stroke="white" stroke-width="1.5" d="M0,-3.0v7 M-2.5,-0.5L0,-3.0L2.5,-0.5"/>
                </g>
               <g id="resetDef">
                       <use xlink:href="#rim2" fill="#404040">
                               <set attributeName="fill" to="#808080" begin="reset.mouseover" end="reset.mouseout"/>
                       </use>
               </g>
        </defs>

<script type="text/javascript">
var viewWidth = 766;
var viewHeight = 446;
var sectionId = 'dynsection-4';
</script>
<script xlink:href="svgpan.js"/>
<svg id="graph" class="graph">
<g id="viewport">
<title>vec_add_scaled</title>
<polygon fill="white" stroke="transparent" points="-4,4 -4,-442 762,-442 762,4 -4,4"/>
<!-- Node1 -->
<g id="node1" class="node">
<title>Node1</title>
<g id="a_node1"><a xlink:title="Scaled addition of one vector to another vector, .">
<polygon fill="#bfbfbf" stroke="black" points="664,-209.5 664,-228.5 758,-228.5 758,-209.5 664,-209.5"/>
<text text-anchor="middle" x="711" y="-216.5" font-family="Helvetica,sans-Serif" font-size="10.00">vec_add_scaled</text>
</a>
</g>
</g>
<!-- Node2 -->
<g id="node2" class="node">
<title>Node2</title>
<g id="a_node2"><a xlink:href="iteration_8c.html#addf0e547cbd4fd4b3bda2c1adccf22c8" target="_top" xlink:title="Maximize the proximal penalty.">
<polygon fill="white" stroke="black" points="516.5,-418.5 516.5,-437.5 602.5,-437.5 602.5,-418.5 516.5,-418.5"/>
<text text-anchor="middle" x="559.5" y="-425.5" font-family="Helvetica,sans-Serif" font-size="10.00">boost_gamma</text>
</a>
</g>
</g>
<!-- Node1&#45;&gt;Node2 -->
<g id="edge1" class="edge">
<title>Node1&#45;&gt;Node2</title>
<path fill="none" stroke="midnightblue" d="M706.58,-238.7C699.09,-276.14 677.73,-357.89 628,-404 620.89,-410.6 611.84,-415.4 602.7,-418.89"/>
<polygon fill="midnightblue" stroke="midnightblue" points="710.08,-239.07 708.48,-228.6 703.2,-237.78 710.08,-239.07"/>
</g>
<!-- Node3 -->
<g id="node3" class="node">
<title>Node3</title>
<g id="a_node3"><a xlink:href="iteration_8c.html#a95e8560aaf51a2c4f68de9b65b0c6a15" target="_top" xlink:title=" ">
<polygon fill="white" stroke="black" points="315,-380.5 315,-399.5 455,-399.5 455,-380.5 315,-380.5"/>
<text text-anchor="middle" x="385" y="-387.5" font-family="Helvetica,sans-Serif" font-size="10.00">update_or_boost_gamma</text>
</a>
</g>
</g>
<!-- Node1&#45;&gt;Node3 -->
<g id="edge18" class="edge">
<title>Node1&#45;&gt;Node3</title>
<path fill="none" stroke="midnightblue" d="M705.8,-238.61C697.48,-272.2 675.41,-340.13 628,-371 571.5,-407.8 491.09,-406.02 438.73,-399.51"/>
<polygon fill="midnightblue" stroke="midnightblue" points="709.27,-239.16 708.12,-228.63 702.45,-237.58 709.27,-239.16"/>
</g>
<!-- Node6 -->
<g id="node6" class="node">
<title>Node6</title>
<g id="a_node6"><a xlink:href="termination_8c.html#af1889ad003b14a004d4560bedde40ce9" target="_top" xlink:title="Calculates the infinity norm of the dual residual and the residual of the subproblem and stores them ...">
<polygon fill="white" stroke="black" points="491,-228.5 491,-247.5 628,-247.5 628,-228.5 491,-228.5"/>
<text text-anchor="middle" x="559.5" y="-235.5" font-family="Helvetica,sans-Serif" font-size="10.00">calculate_dual_residuals</text>
</a>
</g>
</g>
<!-- Node1&#45;&gt;Node6 -->
<g id="edge5" class="edge">
<title>Node1&#45;&gt;Node6</title>
<path fill="none" stroke="midnightblue" d="M653.88,-226.13C645.48,-227.2 636.74,-228.31 628.13,-229.4"/>
<polygon fill="midnightblue" stroke="midnightblue" points="654.45,-229.59 663.93,-224.86 653.56,-222.64 654.45,-229.59"/>
</g>
<!-- Node8 -->
<g id="node8" class="node">
<title>Node8</title>
<g id="a_node8"><a xlink:href="iteration_8c.html#a1a0ad2638fa3206a6f671619f689364f" target="_top" xlink:title="Compute the (unscaled) dual objective value at the current iterate.">
<polygon fill="white" stroke="black" points="491.5,-304.5 491.5,-323.5 627.5,-323.5 627.5,-304.5 491.5,-304.5"/>
<text text-anchor="middle" x="559.5" y="-311.5" font-family="Helvetica,sans-Serif" font-size="10.00">compute_dual_objective</text>
</a>
</g>
</g>
<!-- Node1&#45;&gt;Node8 -->
<g id="edge7" class="edge">
<title>Node1&#45;&gt;Node8</title>
<path fill="none" stroke="midnightblue" d="M695.68,-236.41C680.57,-253.7 655.21,-279.75 628,-295 621.2,-298.81 613.59,-301.9 605.98,-304.4"/>
<polygon fill="midnightblue" stroke="midnightblue" points="698.42,-238.6 702.24,-228.72 693.09,-234.06 698.42,-238.6"/>
</g>
<!-- Node9 -->
<g id="node9" class="node">
<title>Node9</title>
<g id="a_node9"><a xlink:href="iteration_8c.html#ae21af0f956f1ccf8ee41c4cf68698279" target="_top" xlink:title="Compute the residuals (in vector form)">
<polygon fill="white" stroke="black" points="505,-266.5 505,-285.5 614,-285.5 614,-266.5 505,-266.5"/>
<text text-anchor="middle" x="559.5" y="-273.5" font-family="Helvetica,sans-Serif" font-size="10.00">compute_residuals</text>
</a>
</g>
</g>
<!-- Node1&#45;&gt;Node9 -->
<g id="edge8" class="edge">
<title>Node1&#45;&gt;Node9</title>
<path fill="none" stroke="midnightblue" d="M682.34,-233.16C666.66,-240.85 646.52,-250.15 628,-257 618.52,-260.5 608.1,-263.73 598.33,-266.5"/>
<polygon fill="midnightblue" stroke="midnightblue" points="684.07,-236.21 691.47,-228.62 680.96,-229.94 684.07,-236.21"/>
</g>
<!-- Node10 -->
<g id="node10" class="node">
<title>Node10</title>
<g id="a_node10"><a xlink:href="linesearch_8c.html#a647cabae1574f21e412110765ea1e70d" target="_top" xlink:title="Execute exact linesearch (using qsort)">
<polygon fill="white" stroke="black" points="510,-0.5 510,-19.5 609,-19.5 609,-0.5 510,-0.5"/>
<text text-anchor="middle" x="559.5" y="-7.5" font-family="Helvetica,sans-Serif" font-size="10.00">exact_linesearch</text>
</a>
</g>
</g>
<!-- Node1&#45;&gt;Node10 -->
<g id="edge9" class="edge">
<title>Node1&#45;&gt;Node10</title>
<path fill="none" stroke="midnightblue" d="M707.21,-199.5C700.66,-161.03 680.66,-75.08 628,-29 622.59,-24.27 616.1,-20.71 609.29,-18.03"/>
<polygon fill="midnightblue" stroke="midnightblue" points="703.76,-200.09 708.77,-209.42 710.67,-199 703.76,-200.09"/>
</g>
<!-- Node11 -->
<g id="node11" class="node">
<title>Node11</title>
<g id="a_node11"><a xlink:href="iteration_8c.html#a9c9fafac9ce099122c5a594762e5a052" target="_top" xlink:title="Update the primal iterate.">
<polygon fill="white" stroke="black" points="322.5,-38.5 322.5,-57.5 447.5,-57.5 447.5,-38.5 322.5,-38.5"/>
<text text-anchor="middle" x="385" y="-45.5" font-family="Helvetica,sans-Serif" font-size="10.00">update_primal_iterate</text>
</a>
</g>
</g>
<!-- Node1&#45;&gt;Node11 -->
<g id="edge19" class="edge">
<title>Node1&#45;&gt;Node11</title>
<path fill="none" stroke="midnightblue" d="M653.73,-220.07C607.09,-218.54 540.63,-210.56 491,-181 438.93,-149.99 402.67,-82.77 390.49,-57.69"/>
<polygon fill="midnightblue" stroke="midnightblue" points="653.88,-223.58 663.96,-220.32 654.05,-216.58 653.88,-223.58"/>
</g>
<!-- Node12 -->
<g id="node12" class="node">
<title>Node12</title>
<g id="a_node12"><a xlink:href="iteration_8c.html#a155f5c99c7a442c554cca914de34eba7" target="_top" xlink:title="Initialize penalty factors from initial x.">
<polygon fill="white" stroke="black" points="512.5,-152.5 512.5,-171.5 606.5,-171.5 606.5,-152.5 512.5,-152.5"/>
<text text-anchor="middle" x="559.5" y="-159.5" font-family="Helvetica,sans-Serif" font-size="10.00">initialize_sigma</text>
</a>
</g>
</g>
<!-- Node1&#45;&gt;Node12 -->
<g id="edge11" class="edge">
<title>Node1&#45;&gt;Node12</title>
<path fill="none" stroke="midnightblue" d="M677.41,-205.53C662.42,-199.42 644.36,-192.2 628,-186 614.97,-181.07 600.43,-175.85 588.18,-171.55"/>
<polygon fill="midnightblue" stroke="midnightblue" points="676.19,-208.81 686.77,-209.36 678.84,-202.33 676.19,-208.81"/>
</g>
<!-- Node13 -->
<g id="node13" class="node">
<title>Node13</title>
<g id="a_node13"><a xlink:href="termination_8c.html#a8cf01c07469436e7c562c9f3e162fd2b" target="_top" xlink:title="Check whether the problem is dual infeasible.">
<polygon fill="white" stroke="black" points="507.5,-114.5 507.5,-133.5 611.5,-133.5 611.5,-114.5 507.5,-114.5"/>
<text text-anchor="middle" x="559.5" y="-121.5" font-family="Helvetica,sans-Serif" font-size="10.00">is_dual_infeasible</text>
</a>
</g>
</g>
<!-- Node1&#45;&gt;Node13 -->
<g id="edge12" class="edge">
<title>Node1&#45;&gt;Node13</title>
<path fill="none" stroke="midnightblue" d="M695.68,-201.59C680.57,-184.3 655.21,-158.25 628,-143 621.2,-139.19 613.59,-136.1 605.98,-133.6"/>
<polygon fill="midnightblue" stroke="midnightblue" points="693.09,-203.94 702.24,-209.28 698.42,-199.4 693.09,-203.94"/>
</g>
<!-- Node14 -->
<g id="node14" class="node">
<title>Node14</title>
<g id="a_node14"><a xlink:href="termination_8c.html#a4df388b37067a843cbb2c6b244496d9c" target="_top" xlink:title="Check whether the problem is primal infeasible.">
<polygon fill="white" stroke="black" points="502,-76.5 502,-95.5 617,-95.5 617,-76.5 502,-76.5"/>
<text text-anchor="middle" x="559.5" y="-83.5" font-family="Helvetica,sans-Serif" font-size="10.00">is_primal_infeasible</text>
</a>
</g>
</g>
<!-- Node1&#45;&gt;Node14 -->
<g id="edge13" class="edge">
<title>Node1&#45;&gt;Node14</title>
<path fill="none" stroke="midnightblue" d="M701.42,-200.06C688.92,-174.6 663.28,-129.7 628,-105 622.42,-101.09 616.04,-97.98 609.5,-95.51"/>
<polygon fill="midnightblue" stroke="midnightblue" points="698.39,-201.83 705.83,-209.37 704.71,-198.83 698.39,-201.83"/>
</g>
<!-- Node15 -->
<g id="node15" class="node">
<title>Node15</title>
<g id="a_node15"><a xlink:href="newton_8c.html#af1654e5597faac8b0ade25acf1fc1bc9" target="_top" xlink:title="Sets work&#45;&gt;d to the direction calculated by the semismooth Newton method.">
<polygon fill="white" stroke="black" points="499,-38.5 499,-57.5 620,-57.5 620,-38.5 499,-38.5"/>
<text text-anchor="middle" x="559.5" y="-45.5" font-family="Helvetica,sans-Serif" font-size="10.00">newton_set_direction</text>
</a>
</g>
</g>
<!-- Node1&#45;&gt;Node15 -->
<g id="edge14" class="edge">
<title>Node1&#45;&gt;Node15</title>
<path fill="none" stroke="midnightblue" d="M704.87,-199.44C695.34,-166.97 671.76,-102.04 628,-67 623.15,-63.12 617.56,-60.03 611.71,-57.57"/>
<polygon fill="midnightblue" stroke="midnightblue" points="701.61,-200.78 707.67,-209.47 708.35,-198.9 701.61,-200.78"/>
</g>
<!-- Node16 -->
<g id="node16" class="node">
<title>Node16</title>
<g id="a_node16"><a xlink:href="iteration_8c.html#a2493eaf6f46fae7e188477e427acfece" target="_top" xlink:title="Update the proximal penalty.">
<polygon fill="white" stroke="black" points="513,-342.5 513,-361.5 606,-361.5 606,-342.5 513,-342.5"/>
<text text-anchor="middle" x="559.5" y="-349.5" font-family="Helvetica,sans-Serif" font-size="10.00">update_gamma</text>
</a>
</g>
</g>
<!-- Node1&#45;&gt;Node16 -->
<g id="edge16" class="edge">
<title>Node1&#45;&gt;Node16</title>
<path fill="none" stroke="midnightblue" d="M701.42,-237.94C688.92,-263.4 663.28,-308.3 628,-333 621.52,-337.54 613.98,-341 606.33,-343.63"/>
<polygon fill="midnightblue" stroke="midnightblue" points="704.71,-239.17 705.83,-228.63 698.39,-236.17 704.71,-239.17"/>
</g>
<!-- Node2&#45;&gt;Node3 -->
<g id="edge2" class="edge">
<title>Node2&#45;&gt;Node3</title>
<path fill="none" stroke="midnightblue" d="M506.39,-416.52C481.75,-411.09 452.67,-404.69 429.26,-399.53"/>
<polygon fill="midnightblue" stroke="midnightblue" points="505.78,-419.97 516.3,-418.7 507.29,-413.13 505.78,-419.97"/>
</g>
<!-- Node4 -->
<g id="node4" class="node">
<title>Node4</title>
<g id="a_node4"><a xlink:href="iteration_8c.html#a786f2d2af82a141fe3825a3964659d50" target="_top" xlink:title=" ">
<polygon fill="white" stroke="black" points="150,-375 150,-405 279,-405 279,-375 150,-375"/>
<text text-anchor="start" x="158" y="-393" font-family="Helvetica,sans-Serif" font-size="10.00">update_proximal_point</text>
<text text-anchor="middle" x="214.5" y="-382" font-family="Helvetica,sans-Serif" font-size="10.00">_and_penalty</text>
</a>
</g>
</g>
<!-- Node3&#45;&gt;Node4 -->
<g id="edge3" class="edge">
<title>Node3&#45;&gt;Node4</title>
<path fill="none" stroke="midnightblue" d="M304.93,-390C296.33,-390 287.65,-390 279.26,-390"/>
<polygon fill="midnightblue" stroke="midnightblue" points="304.98,-393.5 314.98,-390 304.98,-386.5 304.98,-393.5"/>
</g>
<!-- Node5 -->
<g id="node5" class="node">
<title>Node5</title>
<g id="a_node5"><a xlink:href="iteration_8c.html#a1ad7b6cb4924a8de3378ed35890b02e7" target="_top" xlink:title=" ">
<polygon fill="white" stroke="black" points="0,-375 0,-405 114,-405 114,-375 0,-375"/>
<text text-anchor="start" x="8" y="-393" font-family="Helvetica,sans-Serif" font-size="10.00">update_dual_iterate</text>
<text text-anchor="middle" x="57" y="-382" font-family="Helvetica,sans-Serif" font-size="10.00">_and_parameters</text>
</a>
</g>
</g>
<!-- Node4&#45;&gt;Node5 -->
<g id="edge4" class="edge">
<title>Node4&#45;&gt;Node5</title>
<path fill="none" stroke="midnightblue" d="M139.54,-390C131.07,-390 122.55,-390 114.37,-390"/>
<polygon fill="midnightblue" stroke="midnightblue" points="139.8,-393.5 149.8,-390 139.8,-386.5 139.8,-393.5"/>
</g>
<!-- Node7 -->
<g id="node7" class="node">
<title>Node7</title>
<g id="a_node7"><a xlink:href="termination_8c.html#a50775fd01103420a3cfe7452a8be3874" target="_top" xlink:title="Calls the routines that compute the norm of the residuals and the tolerances.">
<polygon fill="white" stroke="black" points="319,-223 319,-253 451,-253 451,-223 319,-223"/>
<text text-anchor="start" x="327" y="-241" font-family="Helvetica,sans-Serif" font-size="10.00">calculate_residual</text>
<text text-anchor="middle" x="385" y="-230" font-family="Helvetica,sans-Serif" font-size="10.00">_norms_and_tolerances</text>
</a>
</g>
</g>
<!-- Node6&#45;&gt;Node7 -->
<g id="edge6" class="edge">
<title>Node6&#45;&gt;Node7</title>
<path fill="none" stroke="midnightblue" d="M480.65,-238C470.82,-238 460.84,-238 451.23,-238"/>
<polygon fill="midnightblue" stroke="midnightblue" points="480.82,-241.5 490.82,-238 480.82,-234.5 480.82,-241.5"/>
</g>
<!-- Node10&#45;&gt;Node11 -->
<g id="edge10" class="edge">
<title>Node10&#45;&gt;Node11</title>
<path fill="none" stroke="midnightblue" d="M505.15,-21.75C480.76,-27.13 452.24,-33.41 429.22,-38.48"/>
<polygon fill="midnightblue" stroke="midnightblue" points="505.96,-25.16 514.97,-19.59 504.45,-18.32 505.96,-25.16"/>
</g>
<!-- Node15&#45;&gt;Node11 -->
<g id="edge15" class="edge">
<title>Node15&#45;&gt;Node11</title>
<path fill="none" stroke="midnightblue" d="M488.48,-48C475,-48 460.98,-48 447.79,-48"/>
<polygon fill="midnightblue" stroke="midnightblue" points="488.65,-51.5 498.65,-48 488.65,-44.5 488.65,-51.5"/>
</g>
<!-- Node16&#45;&gt;Node3 -->
<g id="edge17" class="edge">
<title>Node16&#45;&gt;Node3</title>
<path fill="none" stroke="midnightblue" d="M505.15,-363.75C480.76,-369.13 452.24,-375.41 429.22,-380.48"/>
<polygon fill="midnightblue" stroke="midnightblue" points="505.96,-367.16 514.97,-361.59 504.45,-360.32 505.96,-367.16"/>
</g>
</g>
</svg>
        <g id="navigator" transform="translate(0 0)" fill="#404254">
                <rect fill="#f2f5e9" fill-opacity="0.5" stroke="#606060" stroke-width=".5" x="0" y="0" width="60" height="60"/>
                <use id="zoomplus" xlink:href="#zoomPlus" x="17" y="9" onmousedown="handleZoom(evt,'in')"/>
                <use id="zoomminus" xlink:href="#zoomMin" x="42" y="9" onmousedown="handleZoom(evt,'out')"/>
                <use id="reset" xlink:href="#resetDef" x="30" y="36" onmousedown="handleReset()"/>
                <g id="arrowUp" xlink:href="#dirArrow" transform="translate(30 24)" onmousedown="handlePan(0,-1)">
                  <use xlink:href="#rim" fill="#404040">
                        <set attributeName="fill" to="#808080" begin="arrowUp.mouseover" end="arrowUp.mouseout"/>
                  </use>
                  <path fill="none" stroke="white" stroke-width="1.5" d="M0,-3.0v7 M-2.5,-0.5L0,-3.0L2.5,-0.5"/>
                </g>
                <g id="arrowRight" xlink:href="#dirArrow" transform="rotate(90) translate(36 -43)" onmousedown="handlePan(1,0)">
                  <use xlink:href="#rim" fill="#404040">
                        <set attributeName="fill" to="#808080" begin="arrowRight.mouseover" end="arrowRight.mouseout"/>
                  </use>
                  <path fill="none" stroke="white" stroke-width="1.5" d="M0,-3.0v7 M-2.5,-0.5L0,-3.0L2.5,-0.5"/>
                </g>
                <g id="arrowDown" xlink:href="#dirArrow" transform="rotate(180) translate(-30 -48)" onmousedown="handlePan(0,1)">
                  <use xlink:href="#rim" fill="#404040">
                        <set attributeName="fill" to="#808080" begin="arrowDown.mouseover" end="arrowDown.mouseout"/>
                  </use>
                  <path fill="none" stroke="white" stroke-width="1.5" d="M0,-3.0v7 M-2.5,-0.5L0,-3.0L2.5,-0.5"/>
                </g>
                <g id="arrowLeft" xlink:href="#dirArrow" transform="rotate(270) translate(-36 17)" onmousedown="handlePan(-1,0)">
                  <use xlink:href="#rim" fill="#404040">
                        <set attributeName="fill" to="#808080" begin="arrowLeft.mouseover" end="arrowLeft.mouseout"/>
                  </use>
                  <path fill="none" stroke="white" stroke-width="1.5" d="M0,-3.0v7 M-2.5,-0.5L0,-3.0L2.5,-0.5"/>
                </g>
        </g>
        <svg viewBox="0 0 15 15" width="100%" height="30px" preserveAspectRatio="xMaxYMin meet">
         <g id="arrow_out" transform="scale(0.3 0.3)">
          <a xlink:href="lin__alg_8h_a0fde1aeeea954e43db160ec6e3697cd5_icgraph_org.svg" target="_base">
           <rect id="button" ry="5" rx="5" y="6" x="6" height="38" width="38"
                fill="#f2f5e9" fill-opacity="0.5" stroke="#606060" stroke-width="1.0"/>
           <path id="arrow"
             d="M 11.500037,31.436501 C 11.940474,20.09759 22.043105,11.32322 32.158766,21.979434 L 37.068811,17.246167 C 37.068811,17.246167 37.088388,32 37.088388,32 L 22.160133,31.978069 C 22.160133,31.978069 26.997745,27.140456 26.997745,27.140456 C 18.528582,18.264221 13.291696,25.230495 11.500037,31.436501 z"
             style="fill:#404040;"/>
          </a>
         </g>
        </svg>
</svg>
