<?xml version="1.0" encoding="UTF-8" standalone="no"?>
<!DOCTYPE svg PUBLIC "-//W3C//DTD SVG 1.1//EN"
 "http://www.w3.org/Graphics/SVG/1.1/DTD/svg11.dtd">
<!-- Generated by graphviz version 2.43.0 (0)
 -->
<!-- Title: vec_copy Pages: 1 -->
<svg width="318pt" height="28pt"
 viewBox="0.00 0.00 318.00 28.00" xmlns="http://www.w3.org/2000/svg" xmlns:xlink="http://www.w3.org/1999/xlink">
<g id="graph0" class="graph" transform="scale(1 1) rotate(0) translate(4 24)">
<title>vec_copy</title>
<polygon fill="white" stroke="transparent" points="-4,4 -4,-24 314,-24 314,4 -4,4"/>
<!-- Node1 -->
<g id="node1" class="node">
<title>Node1</title>
<g id="a_node1"><a xlink:title="Copy vector a into output.">
<polygon fill="#bfbfbf" stroke="black" points="248,-0.5 248,-19.5 310,-19.5 310,-0.5 248,-0.5"/>
<text text-anchor="middle" x="279" y="-7.5" font-family="Helvetica,sans-Serif" font-size="10.00">vec_copy</text>
</a>
</g>
</g>
<!-- Node2 -->
<g id="node2" class="node">
<title>Node2</title>
<g id="a_node2"><a xlink:href="group__solver-grp.html#gaaff827465b1299909f394de8771baef9" target="_top" xlink:title="Initialize QPALM solver allocating memory.">
<polygon fill="white" stroke="black" points="132,-0.5 132,-19.5 212,-19.5 212,-0.5 132,-0.5"/>
<text text-anchor="middle" x="172" y="-7.5" font-family="Helvetica,sans-Serif" font-size="10.00">qpalm_setup</text>
</a>
</g>
</g>
<!-- Node1&#45;&gt;Node2 -->
<g id="edge1" class="edge">
<title>Node1&#45;&gt;Node2</title>
<path fill="none" stroke="midnightblue" d="M237.89,-10C229.44,-10 220.53,-10 212.11,-10"/>
<polygon fill="midnightblue" stroke="midnightblue" points="237.91,-13.5 247.91,-10 237.91,-6.5 237.91,-13.5"/>
</g>
<!-- Node3 -->
<g id="node3" class="node">
<title>Node3</title>
<g id="a_node3"><a xlink:href="qpalm__fortran_8c.html#abec01161fcee665e126347b862c404c4" target="_top" xlink:title=" ">
<polygon fill="white" stroke="black" points="0,-0.5 0,-19.5 96,-19.5 96,-0.5 0,-0.5"/>
<text text-anchor="middle" x="48" y="-7.5" font-family="Helvetica,sans-Serif" font-size="10.00">qpalm_fortran_c</text>
</a>
</g>
</g>
<!-- Node2&#45;&gt;Node3 -->
<g id="edge2" class="edge">
<title>Node2&#45;&gt;Node3</title>
<path fill="none" stroke="midnightblue" d="M121.7,-10C113.32,-10 104.63,-10 96.3,-10"/>
<polygon fill="midnightblue" stroke="midnightblue" points="121.73,-13.5 131.73,-10 121.73,-6.5 121.73,-13.5"/>
</g>
</g>
</svg>
