<?xml version="1.0" encoding="UTF-8" standalone="no"?>
<!DOCTYPE svg PUBLIC "-//W3C//DTD SVG 1.1//EN"
 "http://www.w3.org/Graphics/SVG/1.1/DTD/svg11.dtd">
<!-- Generated by graphviz version 2.43.0 (0)
 -->
<!-- Title: qpalm::eigen_to_ladel_copy Pages: 1 -->
<svg width="307pt" height="66pt"
 viewBox="0.00 0.00 307.00 66.00" xmlns="http://www.w3.org/2000/svg" xmlns:xlink="http://www.w3.org/1999/xlink">
<g id="graph0" class="graph" transform="scale(1 1) rotate(0) translate(4 62)">
<title>qpalm::eigen_to_ladel_copy</title>
<polygon fill="white" stroke="transparent" points="-4,4 -4,-62 303,-62 303,4 -4,4"/>
<!-- Node1 -->
<g id="node1" class="node">
<title>Node1</title>
<g id="a_node1"><a xlink:title="Similar to eigen_to_ladel, but creates a copy of all data, in such a way that the returned matrix is ...">
<polygon fill="#bfbfbf" stroke="black" points="146,-19.5 146,-38.5 299,-38.5 299,-19.5 146,-19.5"/>
<text text-anchor="middle" x="222.5" y="-26.5" font-family="Helvetica,sans-Serif" font-size="10.00">qpalm::eigen_to_ladel_copy</text>
</a>
</g>
</g>
<!-- Node2 -->
<g id="node2" class="node">
<title>Node2</title>
<g id="a_node2"><a xlink:href="classqpalm_1_1Data.html#a3b9ce1d16d0cabe8fccfdea1809968ba" target="_top" xlink:title="Set the sparse A matrix. Creates a copy.">
<polygon fill="white" stroke="black" points="0,-38.5 0,-57.5 110,-57.5 110,-38.5 0,-38.5"/>
<text text-anchor="middle" x="55" y="-45.5" font-family="Helvetica,sans-Serif" font-size="10.00">qpalm::Data::set_A</text>
</a>
</g>
</g>
<!-- Node1&#45;&gt;Node2 -->
<g id="edge1" class="edge">
<title>Node1&#45;&gt;Node2</title>
<path fill="none" stroke="midnightblue" d="M135.47,-38.88C126.9,-39.86 118.38,-40.84 110.27,-41.77"/>
<polygon fill="midnightblue" stroke="midnightblue" points="136,-42.34 145.53,-37.72 135.2,-35.38 136,-42.34"/>
</g>
<!-- Node3 -->
<g id="node3" class="node">
<title>Node3</title>
<g id="a_node3"><a xlink:href="classqpalm_1_1Data.html#adbdbd81f462dfeee7c29a51dfb08e48f" target="_top" xlink:title="Set the sparse Q matrix. Creates a copy.">
<polygon fill="white" stroke="black" points="0,-0.5 0,-19.5 110,-19.5 110,-0.5 0,-0.5"/>
<text text-anchor="middle" x="55" y="-7.5" font-family="Helvetica,sans-Serif" font-size="10.00">qpalm::Data::set_Q</text>
</a>
</g>
</g>
<!-- Node1&#45;&gt;Node3 -->
<g id="edge2" class="edge">
<title>Node1&#45;&gt;Node3</title>
<path fill="none" stroke="midnightblue" d="M135.47,-19.12C126.9,-18.14 118.38,-17.16 110.27,-16.23"/>
<polygon fill="midnightblue" stroke="midnightblue" points="135.2,-22.62 145.53,-20.28 136,-15.66 135.2,-22.62"/>
</g>
</g>
</svg>
