<?xml version="1.0" encoding="UTF-8" standalone="no"?>
<!DOCTYPE svg PUBLIC "-//W3C//DTD SVG 1.1//EN"
 "http://www.w3.org/Graphics/SVG/1.1/DTD/svg11.dtd">
<!-- Generated by graphviz version 2.43.0 (0)
 -->
<!-- Title: QPALM/src/newton.c Pages: 1 -->
<svg width="237pt" height="308pt"
 viewBox="0.00 0.00 236.62 308.00" xmlns="http://www.w3.org/2000/svg" xmlns:xlink="http://www.w3.org/1999/xlink">
<g id="graph0" class="graph" transform="scale(1 1) rotate(0) translate(4 304)">
<title>QPALM/src/newton.c</title>
<polygon fill="white" stroke="transparent" points="-4,4 -4,-304 232.62,-304 232.62,4 -4,4"/>
<!-- Node1 -->
<g id="node1" class="node">
<title>Node1</title>
<g id="a_node1"><a xlink:title="Functions to calculate the semismooth Newton direction.">
<polygon fill="#bfbfbf" stroke="black" points="32.5,-280.5 32.5,-299.5 147.5,-299.5 147.5,-280.5 32.5,-280.5"/>
<text text-anchor="middle" x="90" y="-287.5" font-family="Helvetica,sans-Serif" font-size="10.00">QPALM/src/newton.c</text>
</a>
</g>
</g>
<!-- Node2 -->
<g id="node2" class="node">
<title>Node2</title>
<g id="a_node2"><a xlink:href="newton_8h.html" target="_top" xlink:title="Functions to calculate the semismooth Newton direction.">
<polygon fill="white" stroke="black" points="0,-168.5 0,-187.5 62,-187.5 62,-168.5 0,-168.5"/>
<text text-anchor="middle" x="31" y="-175.5" font-family="Helvetica,sans-Serif" font-size="10.00">newton.h</text>
</a>
</g>
</g>
<!-- Node1&#45;&gt;Node2 -->
<g id="edge1" class="edge">
<title>Node1&#45;&gt;Node2</title>
<path fill="none" stroke="midnightblue" d="M81.01,-280.48C72.48,-271.96 59.84,-258.12 52,-244 43.9,-229.42 38.37,-211.24 35.02,-197.82"/>
<polygon fill="midnightblue" stroke="midnightblue" points="38.38,-196.81 32.71,-187.85 31.56,-198.38 38.38,-196.81"/>
</g>
<!-- Node7 -->
<g id="node7" class="node">
<title>Node7</title>
<g id="a_node7"><a xlink:href="lin__alg_8h.html" target="_top" xlink:title="Linear algebra with vectors.">
<polygon fill="white" stroke="black" points="61,-224.5 61,-243.5 119,-243.5 119,-224.5 61,-224.5"/>
<text text-anchor="middle" x="90" y="-231.5" font-family="Helvetica,sans-Serif" font-size="10.00">lin_alg.h</text>
</a>
</g>
</g>
<!-- Node1&#45;&gt;Node7 -->
<g id="edge7" class="edge">
<title>Node1&#45;&gt;Node7</title>
<path fill="none" stroke="midnightblue" d="M90,-280.08C90,-273.01 90,-262.86 90,-253.99"/>
<polygon fill="midnightblue" stroke="midnightblue" points="93.5,-253.75 90,-243.75 86.5,-253.75 93.5,-253.75"/>
</g>
<!-- Node10 -->
<g id="node10" class="node">
<title>Node10</title>
<g id="a_node10"><a xlink:title=" ">
<polygon fill="white" stroke="#bfbfbf" points="137,-224.5 137,-243.5 187,-243.5 187,-224.5 137,-224.5"/>
<text text-anchor="middle" x="162" y="-231.5" font-family="Helvetica,sans-Serif" font-size="10.00">stdio.h</text>
</a>
</g>
</g>
<!-- Node1&#45;&gt;Node10 -->
<g id="edge15" class="edge">
<title>Node1&#45;&gt;Node10</title>
<path fill="none" stroke="midnightblue" d="M101.57,-280.32C112.42,-272.18 128.88,-259.84 141.88,-250.09"/>
<polygon fill="midnightblue" stroke="midnightblue" points="144.32,-252.63 150.22,-243.83 140.12,-247.03 144.32,-252.63"/>
</g>
<!-- Node3 -->
<g id="node3" class="node">
<title>Node3</title>
<g id="a_node3"><a xlink:href="types_8h.html" target="_top" xlink:title="Internal data structures used in QPALM.">
<polygon fill="white" stroke="black" points="56.5,-112.5 56.5,-131.5 109.5,-131.5 109.5,-112.5 56.5,-112.5"/>
<text text-anchor="middle" x="83" y="-119.5" font-family="Helvetica,sans-Serif" font-size="10.00">types.h</text>
</a>
</g>
</g>
<!-- Node2&#45;&gt;Node3 -->
<g id="edge2" class="edge">
<title>Node2&#45;&gt;Node3</title>
<path fill="none" stroke="midnightblue" d="M39.59,-168.08C47.16,-160.22 58.38,-148.57 67.51,-139.08"/>
<polygon fill="midnightblue" stroke="midnightblue" points="70.16,-141.38 74.57,-131.75 65.12,-136.53 70.16,-141.38"/>
</g>
<!-- Node4 -->
<g id="node4" class="node">
<title>Node4</title>
<g id="a_node4"><a xlink:href="global__opts_8h.html" target="_top" xlink:title="Custom memory allocation, print and utility functions, and data types for floats and ints.">
<polygon fill="white" stroke="black" points="1,-56.5 1,-75.5 83,-75.5 83,-56.5 1,-56.5"/>
<text text-anchor="middle" x="42" y="-63.5" font-family="Helvetica,sans-Serif" font-size="10.00">global_opts.h</text>
</a>
</g>
</g>
<!-- Node3&#45;&gt;Node4 -->
<g id="edge3" class="edge">
<title>Node3&#45;&gt;Node4</title>
<path fill="none" stroke="midnightblue" d="M76.23,-112.08C70.44,-104.46 61.94,-93.26 54.86,-83.94"/>
<polygon fill="midnightblue" stroke="midnightblue" points="57.48,-81.6 48.64,-75.75 51.9,-85.83 57.48,-81.6"/>
</g>
<!-- Node5 -->
<g id="node5" class="node">
<title>Node5</title>
<g id="a_node5"><a xlink:title=" ">
<polygon fill="white" stroke="#bfbfbf" points="118,-0.5 118,-19.5 168,-19.5 168,-0.5 118,-0.5"/>
<text text-anchor="middle" x="143" y="-7.5" font-family="Helvetica,sans-Serif" font-size="10.00">ladel.h</text>
</a>
</g>
</g>
<!-- Node3&#45;&gt;Node5 -->
<g id="edge6" class="edge">
<title>Node3&#45;&gt;Node5</title>
<path fill="none" stroke="midnightblue" d="M87.71,-112.37C97.52,-94.38 120.34,-52.55 133.39,-28.63"/>
<polygon fill="midnightblue" stroke="midnightblue" points="136.6,-30.05 138.31,-19.59 130.45,-26.69 136.6,-30.05"/>
</g>
<!-- Node4&#45;&gt;Node5 -->
<g id="edge4" class="edge">
<title>Node4&#45;&gt;Node5</title>
<path fill="none" stroke="midnightblue" d="M58.23,-56.32C74.35,-47.7 99.3,-34.36 117.96,-24.39"/>
<polygon fill="midnightblue" stroke="midnightblue" points="119.64,-27.46 126.81,-19.65 116.34,-21.28 119.64,-27.46"/>
</g>
<!-- Node6 -->
<g id="node6" class="node">
<title>Node6</title>
<g id="a_node6"><a xlink:title=" ">
<polygon fill="white" stroke="#bfbfbf" points="16.5,-0.5 16.5,-19.5 67.5,-19.5 67.5,-0.5 16.5,-0.5"/>
<text text-anchor="middle" x="42" y="-7.5" font-family="Helvetica,sans-Serif" font-size="10.00">math.h</text>
</a>
</g>
</g>
<!-- Node4&#45;&gt;Node6 -->
<g id="edge5" class="edge">
<title>Node4&#45;&gt;Node6</title>
<path fill="none" stroke="midnightblue" d="M42,-56.08C42,-49.01 42,-38.86 42,-29.99"/>
<polygon fill="midnightblue" stroke="midnightblue" points="45.5,-29.75 42,-19.75 38.5,-29.75 45.5,-29.75"/>
</g>
<!-- Node7&#45;&gt;Node3 -->
<g id="edge8" class="edge">
<title>Node7&#45;&gt;Node3</title>
<path fill="none" stroke="midnightblue" d="M89.45,-224.37C88.32,-206.62 85.72,-165.67 84.18,-141.6"/>
<polygon fill="midnightblue" stroke="midnightblue" points="87.67,-141.35 83.55,-131.59 80.69,-141.79 87.67,-141.35"/>
</g>
<!-- Node8 -->
<g id="node8" class="node">
<title>Node8</title>
<g id="a_node8"><a xlink:href="solver__interface_8h.html" target="_top" xlink:title="Interface and wrapper to matrix/factorization (ladel) functions.">
<polygon fill="white" stroke="black" points="118,-168.5 118,-187.5 222,-187.5 222,-168.5 118,-168.5"/>
<text text-anchor="middle" x="170" y="-175.5" font-family="Helvetica,sans-Serif" font-size="10.00">solver_interface.h</text>
</a>
</g>
</g>
<!-- Node7&#45;&gt;Node8 -->
<g id="edge9" class="edge">
<title>Node7&#45;&gt;Node8</title>
<path fill="none" stroke="midnightblue" d="M102.85,-224.32C115.22,-215.98 134.13,-203.21 148.74,-193.35"/>
<polygon fill="midnightblue" stroke="midnightblue" points="150.85,-196.15 157.18,-187.65 146.93,-190.35 150.85,-196.15"/>
</g>
<!-- Node8&#45;&gt;Node3 -->
<g id="edge13" class="edge">
<title>Node8&#45;&gt;Node3</title>
<path fill="none" stroke="midnightblue" d="M156.02,-168.32C142.45,-159.9 121.62,-146.97 105.68,-137.07"/>
<polygon fill="midnightblue" stroke="midnightblue" points="107.29,-133.95 96.94,-131.65 103.59,-139.9 107.29,-133.95"/>
</g>
<!-- Node8&#45;&gt;Node4 -->
<g id="edge10" class="edge">
<title>Node8&#45;&gt;Node4</title>
<path fill="none" stroke="midnightblue" d="M164.45,-168.17C155.76,-154.83 137.85,-129.25 118,-112 103.33,-99.26 84.57,-88.11 69.35,-80.09"/>
<polygon fill="midnightblue" stroke="midnightblue" points="70.91,-76.95 60.41,-75.52 67.72,-83.19 70.91,-76.95"/>
</g>
<!-- Node8&#45;&gt;Node5 -->
<g id="edge14" class="edge">
<title>Node8&#45;&gt;Node5</title>
<path fill="none" stroke="midnightblue" d="M179.06,-168.45C199.42,-148.18 245.21,-95.93 222,-56 212.39,-39.46 194.17,-28.49 177.64,-21.53"/>
<polygon fill="midnightblue" stroke="midnightblue" points="178.78,-18.22 168.19,-17.88 176.26,-24.75 178.78,-18.22"/>
</g>
<!-- Node9 -->
<g id="node9" class="node">
<title>Node9</title>
<g id="a_node9"><a xlink:href="constants_8h.html" target="_top" xlink:title="Constants used in QPALM.">
<polygon fill="white" stroke="black" points="139.5,-56.5 139.5,-75.5 212.5,-75.5 212.5,-56.5 139.5,-56.5"/>
<text text-anchor="middle" x="176" y="-63.5" font-family="Helvetica,sans-Serif" font-size="10.00">constants.h</text>
</a>
</g>
</g>
<!-- Node8&#45;&gt;Node9 -->
<g id="edge11" class="edge">
<title>Node8&#45;&gt;Node9</title>
<path fill="none" stroke="midnightblue" d="M170.47,-168.37C171.44,-150.62 173.67,-109.67 174.99,-85.6"/>
<polygon fill="midnightblue" stroke="midnightblue" points="178.48,-85.77 175.53,-75.59 171.49,-85.39 178.48,-85.77"/>
</g>
<!-- Node9&#45;&gt;Node5 -->
<g id="edge12" class="edge">
<title>Node9&#45;&gt;Node5</title>
<path fill="none" stroke="midnightblue" d="M170.55,-56.08C165.99,-48.61 159.33,-37.72 153.71,-28.52"/>
<polygon fill="midnightblue" stroke="midnightblue" points="156.55,-26.46 148.35,-19.75 150.58,-30.11 156.55,-26.46"/>
</g>
</g>
</svg>
