<?xml version="1.0" encoding="UTF-8" standalone="no"?>
<!DOCTYPE svg PUBLIC "-//W3C//DTD SVG 1.1//EN"
 "http://www.w3.org/Graphics/SVG/1.1/DTD/svg11.dtd">
<!-- Generated by graphviz version 2.43.0 (0)
 -->
<!-- Title: QPALM/interfaces/cxx/include/sparse.hpp Pages: 1 -->
<svg width="270pt" height="173pt"
 viewBox="0.00 0.00 270.00 173.00" xmlns="http://www.w3.org/2000/svg" xmlns:xlink="http://www.w3.org/1999/xlink">
<g id="graph0" class="graph" transform="scale(1 1) rotate(0) translate(4 169)">
<title>QPALM/interfaces/cxx/include/sparse.hpp</title>
<polygon fill="white" stroke="transparent" points="-4,4 -4,-169 266,-169 266,4 -4,4"/>
<!-- Node1 -->
<g id="node1" class="node">
<title>Node1</title>
<g id="a_node1"><a xlink:title=" ">
<polygon fill="#bfbfbf" stroke="black" points="70,-134.5 70,-164.5 192,-164.5 192,-134.5 70,-134.5"/>
<text text-anchor="start" x="78" y="-152.5" font-family="Helvetica,sans-Serif" font-size="10.00">QPALM/interfaces/cxx</text>
<text text-anchor="middle" x="131" y="-141.5" font-family="Helvetica,sans-Serif" font-size="10.00">/include/sparse.hpp</text>
</a>
</g>
</g>
<!-- Node2 -->
<g id="node2" class="node">
<title>Node2</title>
<g id="a_node2"><a xlink:href="qpalm_8hpp.html" target="_top" xlink:title=" ">
<polygon fill="white" stroke="black" points="0,-67.5 0,-97.5 122,-97.5 122,-67.5 0,-67.5"/>
<text text-anchor="start" x="8" y="-85.5" font-family="Helvetica,sans-Serif" font-size="10.00">QPALM/interfaces/cxx</text>
<text text-anchor="middle" x="61" y="-74.5" font-family="Helvetica,sans-Serif" font-size="10.00">/include/qpalm.hpp</text>
</a>
</g>
</g>
<!-- Node1&#45;&gt;Node2 -->
<g id="edge1" class="edge">
<title>Node1&#45;&gt;Node2</title>
<path fill="none" stroke="midnightblue" d="M108.18,-127.31C97.68,-117.56 85.51,-106.26 76.16,-97.58"/>
<polygon fill="midnightblue" stroke="midnightblue" points="106.1,-130.16 115.81,-134.4 110.86,-125.03 106.1,-130.16"/>
</g>
<!-- Node4 -->
<g id="node4" class="node">
<title>Node4</title>
<g id="a_node4"><a xlink:href="sparse_8cpp.html" target="_top" xlink:title=" ">
<polygon fill="white" stroke="black" points="140,-67.5 140,-97.5 262,-97.5 262,-67.5 140,-67.5"/>
<text text-anchor="start" x="148" y="-85.5" font-family="Helvetica,sans-Serif" font-size="10.00">QPALM/interfaces/cxx</text>
<text text-anchor="middle" x="201" y="-74.5" font-family="Helvetica,sans-Serif" font-size="10.00">/src/sparse.cpp</text>
</a>
</g>
</g>
<!-- Node1&#45;&gt;Node4 -->
<g id="edge3" class="edge">
<title>Node1&#45;&gt;Node4</title>
<path fill="none" stroke="midnightblue" d="M153.82,-127.31C164.32,-117.56 176.49,-106.26 185.84,-97.58"/>
<polygon fill="midnightblue" stroke="midnightblue" points="151.14,-125.03 146.19,-134.4 155.9,-130.16 151.14,-125.03"/>
</g>
<!-- Node3 -->
<g id="node3" class="node">
<title>Node3</title>
<g id="a_node3"><a xlink:href="qpalm_8cpp.html" target="_top" xlink:title=" ">
<polygon fill="white" stroke="black" points="0,-0.5 0,-30.5 122,-30.5 122,-0.5 0,-0.5"/>
<text text-anchor="start" x="8" y="-18.5" font-family="Helvetica,sans-Serif" font-size="10.00">QPALM/interfaces/cxx</text>
<text text-anchor="middle" x="61" y="-7.5" font-family="Helvetica,sans-Serif" font-size="10.00">/src/qpalm.cpp</text>
</a>
</g>
</g>
<!-- Node2&#45;&gt;Node3 -->
<g id="edge2" class="edge">
<title>Node2&#45;&gt;Node3</title>
<path fill="none" stroke="midnightblue" d="M61,-57.11C61,-48.15 61,-38.32 61,-30.58"/>
<polygon fill="midnightblue" stroke="midnightblue" points="57.5,-57.4 61,-67.4 64.5,-57.4 57.5,-57.4"/>
</g>
</g>
</svg>
