<?xml version="1.0" encoding="UTF-8" standalone="no"?>
<!DOCTYPE svg PUBLIC "-//W3C//DTD SVG 1.1//EN"
 "http://www.w3.org/Graphics/SVG/1.1/DTD/svg11.dtd">
<!-- Generated by graphviz version 2.43.0 (0)
 -->
<!-- Title: calculate_residual_norms_and_tolerances Pages: 1 -->
<svg width="455pt" height="142pt"
 viewBox="0.00 0.00 455.00 142.00" xmlns="http://www.w3.org/2000/svg" xmlns:xlink="http://www.w3.org/1999/xlink">
<g id="graph0" class="graph" transform="scale(1 1) rotate(0) translate(4 138)">
<title>calculate_residual_norms_and_tolerances</title>
<polygon fill="white" stroke="transparent" points="-4,4 -4,-138 451,-138 451,4 -4,4"/>
<!-- Node1 -->
<g id="node1" class="node">
<title>Node1</title>
<g id="a_node1"><a xlink:title="Calls the routines that compute the norm of the residuals and the tolerances.">
<polygon fill="#bfbfbf" stroke="black" points="0,-52 0,-82 132,-82 132,-52 0,-52"/>
<text text-anchor="start" x="8" y="-70" font-family="Helvetica,sans-Serif" font-size="10.00">calculate_residual</text>
<text text-anchor="middle" x="66" y="-59" font-family="Helvetica,sans-Serif" font-size="10.00">_norms_and_tolerances</text>
</a>
</g>
</g>
<!-- Node2 -->
<g id="node2" class="node">
<title>Node2</title>
<g id="a_node2"><a xlink:href="termination_8c.html#af1889ad003b14a004d4560bedde40ce9" target="_top" xlink:title="Calculates the infinity norm of the dual residual and the residual of the subproblem and stores them ...">
<polygon fill="white" stroke="black" points="174,-114.5 174,-133.5 311,-133.5 311,-114.5 174,-114.5"/>
<text text-anchor="middle" x="242.5" y="-121.5" font-family="Helvetica,sans-Serif" font-size="10.00">calculate_dual_residuals</text>
</a>
</g>
</g>
<!-- Node1&#45;&gt;Node2 -->
<g id="edge1" class="edge">
<title>Node1&#45;&gt;Node2</title>
<path fill="none" stroke="midnightblue" d="M104.08,-82.04C123.03,-89.45 146.57,-98.22 168,-105 175.51,-107.38 183.52,-109.68 191.39,-111.81"/>
<polygon fill="midnightblue" stroke="midnightblue" points="190.66,-115.24 201.23,-114.42 192.45,-108.47 190.66,-115.24"/>
</g>
<!-- Node6 -->
<g id="node6" class="node">
<title>Node6</title>
<g id="a_node6"><a xlink:href="termination_8c.html#ad746ec6ec47a1240e5e910abfb01fee3" target="_top" xlink:title="Calculates the dual tolerance for the problem and current subproblem and stores them in work&#45;&gt;eps_dua...">
<polygon fill="white" stroke="black" points="171,-76.5 171,-95.5 314,-95.5 314,-76.5 171,-76.5"/>
<text text-anchor="middle" x="242.5" y="-83.5" font-family="Helvetica,sans-Serif" font-size="10.00">calculate_dual_tolerances</text>
</a>
</g>
</g>
<!-- Node1&#45;&gt;Node6 -->
<g id="edge5" class="edge">
<title>Node1&#45;&gt;Node6</title>
<path fill="none" stroke="midnightblue" d="M132.47,-74.13C141.71,-75.13 151.29,-76.18 160.76,-77.21"/>
<polygon fill="midnightblue" stroke="midnightblue" points="160.67,-80.72 170.99,-78.32 161.42,-73.76 160.67,-80.72"/>
</g>
<!-- Node7 -->
<g id="node7" class="node">
<title>Node7</title>
<g id="a_node7"><a xlink:href="termination_8c.html#afc13c2c286796ec381cdb5c83d9f764f" target="_top" xlink:title="Calculates the infinity norm of the primal residual and stores it in work&#45;&gt;info&#45;&gt;pri_res_norm.">
<polygon fill="white" stroke="black" points="171.5,-38.5 171.5,-57.5 313.5,-57.5 313.5,-38.5 171.5,-38.5"/>
<text text-anchor="middle" x="242.5" y="-45.5" font-family="Helvetica,sans-Serif" font-size="10.00">calculate_primal_residual</text>
</a>
</g>
</g>
<!-- Node1&#45;&gt;Node7 -->
<g id="edge8" class="edge">
<title>Node1&#45;&gt;Node7</title>
<path fill="none" stroke="midnightblue" d="M132.47,-59.87C141.88,-58.85 151.64,-57.78 161.29,-56.73"/>
<polygon fill="midnightblue" stroke="midnightblue" points="161.72,-60.21 171.28,-55.65 160.96,-53.25 161.72,-60.21"/>
</g>
<!-- Node8 -->
<g id="node8" class="node">
<title>Node8</title>
<g id="a_node8"><a xlink:href="termination_8c.html#ac638a8fe12bfee736c6832fa6140c92d" target="_top" xlink:title="Calculates the primal tolerance and stores it in work&#45;&gt;eps_pri.">
<polygon fill="white" stroke="black" points="168,-0.5 168,-19.5 317,-19.5 317,-0.5 168,-0.5"/>
<text text-anchor="middle" x="242.5" y="-7.5" font-family="Helvetica,sans-Serif" font-size="10.00">calculate_primal_tolerance</text>
</a>
</g>
</g>
<!-- Node1&#45;&gt;Node8 -->
<g id="edge11" class="edge">
<title>Node1&#45;&gt;Node8</title>
<path fill="none" stroke="midnightblue" d="M104.08,-51.96C123.03,-44.55 146.57,-35.78 168,-29 175.51,-26.62 183.52,-24.32 191.39,-22.19"/>
<polygon fill="midnightblue" stroke="midnightblue" points="192.45,-25.53 201.23,-19.58 190.66,-18.76 192.45,-25.53"/>
</g>
<!-- Node3 -->
<g id="node3" class="node">
<title>Node3</title>
<g id="a_node3"><a xlink:href="lin__alg_8c.html#a0fde1aeeea954e43db160ec6e3697cd5" target="_top" xlink:title="Scaled addition of one vector to another vector, .">
<polygon fill="white" stroke="black" points="353,-114.5 353,-133.5 447,-133.5 447,-114.5 353,-114.5"/>
<text text-anchor="middle" x="400" y="-121.5" font-family="Helvetica,sans-Serif" font-size="10.00">vec_add_scaled</text>
</a>
</g>
</g>
<!-- Node2&#45;&gt;Node3 -->
<g id="edge2" class="edge">
<title>Node2&#45;&gt;Node3</title>
<path fill="none" stroke="midnightblue" d="M311.25,-124C321.81,-124 332.62,-124 342.88,-124"/>
<polygon fill="midnightblue" stroke="midnightblue" points="342.93,-127.5 352.93,-124 342.93,-120.5 342.93,-127.5"/>
</g>
<!-- Node4 -->
<g id="node4" class="node">
<title>Node4</title>
<g id="a_node4"><a xlink:href="lin__alg_8c.html#ab48ddb2d35dd1a04bd27f06cb49400cb" target="_top" xlink:title="Elementwise product, .">
<polygon fill="white" stroke="black" points="360,-38.5 360,-57.5 440,-57.5 440,-38.5 360,-38.5"/>
<text text-anchor="middle" x="400" y="-45.5" font-family="Helvetica,sans-Serif" font-size="10.00">vec_ew_prod</text>
</a>
</g>
</g>
<!-- Node2&#45;&gt;Node4 -->
<g id="edge3" class="edge">
<title>Node2&#45;&gt;Node4</title>
<path fill="none" stroke="midnightblue" d="M295.57,-114.45C303.04,-111.98 310.41,-108.88 317,-105 337.04,-93.19 333.83,-80.18 353,-67 355.55,-65.25 358.29,-63.61 361.12,-62.1"/>
<polygon fill="midnightblue" stroke="midnightblue" points="362.81,-65.16 370.3,-57.66 359.77,-58.86 362.81,-65.16"/>
</g>
<!-- Node5 -->
<g id="node5" class="node">
<title>Node5</title>
<g id="a_node5"><a xlink:href="lin__alg_8c.html#ad69e3ef3b7360cd1d6262ee2f32fce83" target="_top" xlink:title="Infinity norm of a vector, .">
<polygon fill="white" stroke="black" points="358.5,-76.5 358.5,-95.5 441.5,-95.5 441.5,-76.5 358.5,-76.5"/>
<text text-anchor="middle" x="400" y="-83.5" font-family="Helvetica,sans-Serif" font-size="10.00">vec_norm_inf</text>
</a>
</g>
</g>
<!-- Node2&#45;&gt;Node5 -->
<g id="edge4" class="edge">
<title>Node2&#45;&gt;Node5</title>
<path fill="none" stroke="midnightblue" d="M282.74,-114.41C303.26,-109.4 328.57,-103.21 350.33,-97.89"/>
<polygon fill="midnightblue" stroke="midnightblue" points="351.16,-101.29 360.04,-95.52 349.5,-94.49 351.16,-101.29"/>
</g>
<!-- Node6&#45;&gt;Node4 -->
<g id="edge6" class="edge">
<title>Node6&#45;&gt;Node4</title>
<path fill="none" stroke="midnightblue" d="M282.74,-76.41C303.26,-71.4 328.57,-65.21 350.33,-59.89"/>
<polygon fill="midnightblue" stroke="midnightblue" points="351.16,-63.29 360.04,-57.52 349.5,-56.49 351.16,-63.29"/>
</g>
<!-- Node6&#45;&gt;Node5 -->
<g id="edge7" class="edge">
<title>Node6&#45;&gt;Node5</title>
<path fill="none" stroke="midnightblue" d="M314.42,-86C325.84,-86 337.45,-86 348.26,-86"/>
<polygon fill="midnightblue" stroke="midnightblue" points="348.35,-89.5 358.35,-86 348.35,-82.5 348.35,-89.5"/>
</g>
<!-- Node7&#45;&gt;Node4 -->
<g id="edge9" class="edge">
<title>Node7&#45;&gt;Node4</title>
<path fill="none" stroke="midnightblue" d="M313.52,-48C325.74,-48 338.21,-48 349.73,-48"/>
<polygon fill="midnightblue" stroke="midnightblue" points="349.99,-51.5 359.99,-48 349.99,-44.5 349.99,-51.5"/>
</g>
<!-- Node7&#45;&gt;Node5 -->
<g id="edge10" class="edge">
<title>Node7&#45;&gt;Node5</title>
<path fill="none" stroke="midnightblue" d="M282.74,-57.59C303.26,-62.6 328.57,-68.79 350.33,-74.11"/>
<polygon fill="midnightblue" stroke="midnightblue" points="349.5,-77.51 360.04,-76.48 351.16,-70.71 349.5,-77.51"/>
</g>
<!-- Node8&#45;&gt;Node4 -->
<g id="edge12" class="edge">
<title>Node8&#45;&gt;Node4</title>
<path fill="none" stroke="midnightblue" d="M282.74,-19.59C303.26,-24.6 328.57,-30.79 350.33,-36.11"/>
<polygon fill="midnightblue" stroke="midnightblue" points="349.5,-39.51 360.04,-38.48 351.16,-32.71 349.5,-39.51"/>
</g>
<!-- Node8&#45;&gt;Node5 -->
<g id="edge13" class="edge">
<title>Node8&#45;&gt;Node5</title>
<path fill="none" stroke="midnightblue" d="M295.57,-19.55C303.04,-22.02 310.41,-25.12 317,-29 337.04,-40.81 333.83,-53.82 353,-67 355.55,-68.75 358.29,-70.39 361.12,-71.9"/>
<polygon fill="midnightblue" stroke="midnightblue" points="359.77,-75.14 370.3,-76.34 362.81,-68.84 359.77,-75.14"/>
</g>
</g>
</svg>
