<?xml version="1.0" encoding="UTF-8" standalone="no"?>
<!DOCTYPE svg PUBLIC "-//W3C//DTD SVG 1.1//EN"
 "http://www.w3.org/Graphics/SVG/1.1/DTD/svg11.dtd">
<!-- Generated by graphviz version 2.43.0 (0)
 -->
<!-- Title: QPALM/include/types.h Pages: 1 -->
<!--zoomable 397 -->
<svg id="main" version="1.1" xmlns="http://www.w3.org/2000/svg" xmlns:xlink="http://www.w3.org/1999/xlink" xml:space="preserve" onload="init(evt)">
<style type="text/css"><![CDATA[
.edge:hover path { stroke: red; }
.edge:hover polygon { stroke: red; fill: red; }
]]></style>
<script type="text/javascript"><![CDATA[
var edges = document.getElementsByTagName('g');
if (edges && edges.length) {
  for (var i=0;i<edges.length;i++) {
    if (edges[i].id.substr(0,4)=='edge') {
      edges[i].setAttribute('class','edge');
    }
  }
}
]]></script>
        <defs>
                <circle id="rim" cx="0" cy="0" r="7"/>
                <circle id="rim2" cx="0" cy="0" r="3.5"/>
                <g id="zoomPlus">
                        <use xlink:href="#rim" fill="#404040">
                                <set attributeName="fill" to="#808080" begin="zoomplus.mouseover" end="zoomplus.mouseout"/>
                        </use>
                        <path d="M-4,0h8M0,-4v8" fill="none" stroke="white" stroke-width="1.5" pointer-events="none"/>
                </g>
                <g id="zoomMin">
                        <use xlink:href="#rim" fill="#404040">
                                <set attributeName="fill" to="#808080" begin="zoomminus.mouseover" end="zoomminus.mouseout"/>
                        </use>
                        <path d="M-4,0h8" fill="none" stroke="white" stroke-width="1.5" pointer-events="none"/>
                </g>
                <g id="dirArrow">
                        <path fill="none" stroke="white" stroke-width="1.5" d="M0,-3.0v7 M-2.5,-0.5L0,-3.0L2.5,-0.5"/>
                </g>
               <g id="resetDef">
                       <use xlink:href="#rim2" fill="#404040">
                               <set attributeName="fill" to="#808080" begin="reset.mouseover" end="reset.mouseout"/>
                       </use>
               </g>
        </defs>

<script type="text/javascript">
var viewWidth = 2231;
var viewHeight = 397;
var sectionId = 'dynsection-1';
</script>
<script xlink:href="svgpan.js"/>
<svg id="graph" class="graph">
<g id="viewport">
<title>QPALM/include/types.h</title>
<polygon fill="white" stroke="transparent" points="-4,4 -4,-393 2226.94,-393 2226.94,4 -4,4"/>
<!-- Node1 -->
<g id="node1" class="node">
<title>Node1</title>
<g id="a_node1"><a xlink:title="Internal data structures used in QPALM.">
<polygon fill="#bfbfbf" stroke="black" points="1383.94,-369.5 1383.94,-388.5 1511.94,-388.5 1511.94,-369.5 1383.94,-369.5"/>
<text text-anchor="middle" x="1447.94" y="-376.5" font-family="Helvetica,sans-Serif" font-size="10.00">QPALM/include/types.h</text>
</a>
</g>
</g>
<!-- Node2 -->
<g id="node2" class="node">
<title>Node2</title>
<g id="a_node2"><a xlink:href="iteration_8h.html" target="_top" xlink:title="QPALM main solver routines.">
<polygon fill="white" stroke="black" points="1804.94,-246.5 1804.94,-265.5 1946.94,-265.5 1946.94,-246.5 1804.94,-246.5"/>
<text text-anchor="middle" x="1875.94" y="-253.5" font-family="Helvetica,sans-Serif" font-size="10.00">QPALM/include/iteration.h</text>
</a>
</g>
</g>
<!-- Node1&#45;&gt;Node2 -->
<g id="edge1" class="edge">
<title>Node1&#45;&gt;Node2</title>
<path fill="none" stroke="midnightblue" d="M1522.04,-368.23C1570.41,-360.88 1634.63,-349.26 1689.94,-333 1753.87,-314.21 1825.94,-281.15 1858.42,-265.58"/>
<polygon fill="midnightblue" stroke="midnightblue" points="1521.33,-364.8 1511.96,-369.74 1522.37,-371.72 1521.33,-364.8"/>
</g>
<!-- Node3 -->
<g id="node3" class="node">
<title>Node3</title>
<g id="a_node3"><a xlink:href="qpalm_8h.html" target="_top" xlink:title="QPALM main solver API.">
<polygon fill="white" stroke="black" points="1511.44,-134.5 1511.44,-153.5 1642.44,-153.5 1642.44,-134.5 1511.44,-134.5"/>
<text text-anchor="middle" x="1576.94" y="-141.5" font-family="Helvetica,sans-Serif" font-size="10.00">QPALM/include/qpalm.h</text>
</a>
</g>
</g>
<!-- Node1&#45;&gt;Node3 -->
<g id="edge42" class="edge">
<title>Node1&#45;&gt;Node3</title>
<path fill="none" stroke="midnightblue" d="M1522.42,-372.32C1649.57,-360.95 1900.23,-330.73 1955.94,-266 1978.13,-240.22 1987.57,-215.4 1964.94,-190 1943.91,-166.39 1747.6,-153.3 1642.56,-147.93"/>
<polygon fill="midnightblue" stroke="midnightblue" points="1522.02,-368.84 1512.37,-373.2 1522.64,-375.81 1522.02,-368.84"/>
</g>
<!-- Node10 -->
<g id="node10" class="node">
<title>Node10</title>
<g id="a_node10"><a xlink:href="lin__alg_8h.html" target="_top" xlink:title="Linear algebra with vectors.">
<polygon fill="white" stroke="black" points="777.44,-246.5 777.44,-265.5 910.44,-265.5 910.44,-246.5 777.44,-246.5"/>
<text text-anchor="middle" x="843.94" y="-253.5" font-family="Helvetica,sans-Serif" font-size="10.00">QPALM/include/lin_alg.h</text>
</a>
</g>
</g>
<!-- Node1&#45;&gt;Node10 -->
<g id="edge10" class="edge">
<title>Node1&#45;&gt;Node10</title>
<path fill="none" stroke="midnightblue" d="M1373.81,-377.12C1287.12,-374.51 1139.94,-365.2 1017.94,-333 956.43,-316.76 888.77,-281.81 859.19,-265.59"/>
<polygon fill="midnightblue" stroke="midnightblue" points="1373.73,-380.61 1383.82,-377.39 1373.92,-373.62 1373.73,-380.61"/>
</g>
<!-- Node11 -->
<g id="node11" class="node">
<title>Node11</title>
<g id="a_node11"><a xlink:href="scaling_8h.html" target="_top" xlink:title="Problem data scaling during setup.">
<polygon fill="white" stroke="black" points="458.44,-190.5 458.44,-209.5 593.44,-209.5 593.44,-190.5 458.44,-190.5"/>
<text text-anchor="middle" x="525.94" y="-197.5" font-family="Helvetica,sans-Serif" font-size="10.00">QPALM/include/scaling.h</text>
</a>
</g>
</g>
<!-- Node1&#45;&gt;Node11 -->
<g id="edge43" class="edge">
<title>Node1&#45;&gt;Node11</title>
<path fill="none" stroke="midnightblue" d="M1373.57,-376.59C1225.33,-373.17 898.03,-362.45 789.94,-333 686.12,-304.72 574.98,-234.01 538.4,-209.51"/>
<polygon fill="midnightblue" stroke="midnightblue" points="1373.85,-380.09 1383.92,-376.82 1374.01,-373.1 1373.85,-380.09"/>
</g>
<!-- Node16 -->
<g id="node16" class="node">
<title>Node16</title>
<g id="a_node16"><a xlink:href="nonconvex_8c.html" target="_top" xlink:title="Routines to deal with nonconvex QPs.">
<polygon fill="white" stroke="black" points="1576.94,-190.5 1576.94,-209.5 1708.94,-209.5 1708.94,-190.5 1576.94,-190.5"/>
<text text-anchor="middle" x="1642.94" y="-197.5" font-family="Helvetica,sans-Serif" font-size="10.00">QPALM/src/nonconvex.c</text>
</a>
</g>
</g>
<!-- Node1&#45;&gt;Node16 -->
<g id="edge67" class="edge">
<title>Node1&#45;&gt;Node16</title>
<path fill="none" stroke="midnightblue" d="M1480.96,-365.54C1520.71,-348.86 1586.75,-315.52 1623.94,-266 1636.8,-248.89 1640.98,-223.26 1642.32,-209.87"/>
<polygon fill="midnightblue" stroke="midnightblue" points="1479.39,-362.4 1471.46,-369.42 1482.04,-368.88 1479.39,-362.4"/>
</g>
<!-- Node18 -->
<g id="node18" class="node">
<title>Node18</title>
<g id="a_node18"><a xlink:href="util_8c.html" target="_top" xlink:title="Utility functions.">
<polygon fill="white" stroke="black" points="1059.44,-190.5 1059.44,-209.5 1154.44,-209.5 1154.44,-190.5 1059.44,-190.5"/>
<text text-anchor="middle" x="1106.94" y="-197.5" font-family="Helvetica,sans-Serif" font-size="10.00">QPALM/src/util.c</text>
</a>
</g>
</g>
<!-- Node1&#45;&gt;Node18 -->
<g id="edge68" class="edge">
<title>Node1&#45;&gt;Node18</title>
<path fill="none" stroke="midnightblue" d="M1373.72,-368.08C1269.58,-352.44 1088.59,-318.32 1050.94,-266 1035.54,-244.6 1068.21,-221.72 1089.84,-209.64"/>
<polygon fill="midnightblue" stroke="midnightblue" points="1373.45,-371.58 1383.85,-369.58 1374.47,-364.66 1373.45,-371.58"/>
</g>
<!-- Node20 -->
<g id="node20" class="node">
<title>Node20</title>
<g id="a_node20"><a xlink:href="linesearch_8h.html" target="_top" xlink:title="Routines to perform exact linesearch.">
<polygon fill="white" stroke="black" points="1060.44,-246.5 1060.44,-265.5 1211.44,-265.5 1211.44,-246.5 1060.44,-246.5"/>
<text text-anchor="middle" x="1135.94" y="-253.5" font-family="Helvetica,sans-Serif" font-size="10.00">QPALM/include/linesearch.h</text>
</a>
</g>
</g>
<!-- Node1&#45;&gt;Node20 -->
<g id="edge27" class="edge">
<title>Node1&#45;&gt;Node20</title>
<path fill="none" stroke="midnightblue" d="M1416.58,-365.84C1353.57,-341.4 1212.94,-286.86 1158.28,-265.66"/>
<polygon fill="midnightblue" stroke="midnightblue" points="1415.42,-369.14 1426.01,-369.49 1417.95,-362.61 1415.42,-369.14"/>
</g>
<!-- Node21 -->
<g id="node21" class="node">
<title>Node21</title>
<g id="a_node21"><a xlink:href="newton_8h.html" target="_top" xlink:title="Functions to calculate the semismooth Newton direction.">
<polygon fill="white" stroke="black" points="1229.44,-246.5 1229.44,-265.5 1366.44,-265.5 1366.44,-246.5 1229.44,-246.5"/>
<text text-anchor="middle" x="1297.94" y="-253.5" font-family="Helvetica,sans-Serif" font-size="10.00">QPALM/include/newton.h</text>
</a>
</g>
</g>
<!-- Node1&#45;&gt;Node21 -->
<g id="edge32" class="edge">
<title>Node1&#45;&gt;Node21</title>
<path fill="none" stroke="midnightblue" d="M1429.07,-362.77C1397.22,-337.09 1333.83,-285.95 1308.63,-265.62"/>
<polygon fill="midnightblue" stroke="midnightblue" points="1427.18,-365.74 1437.16,-369.3 1431.57,-360.3 1427.18,-365.74"/>
</g>
<!-- Node22 -->
<g id="node22" class="node">
<title>Node22</title>
<g id="a_node22"><a xlink:href="nonconvex_8h.html" target="_top" xlink:title="Routines to deal with nonconvex QPs.">
<polygon fill="white" stroke="black" points="1460.94,-246.5 1460.94,-265.5 1614.94,-265.5 1614.94,-246.5 1460.94,-246.5"/>
<text text-anchor="middle" x="1537.94" y="-253.5" font-family="Helvetica,sans-Serif" font-size="10.00">QPALM/include/nonconvex.h</text>
</a>
</g>
</g>
<!-- Node1&#45;&gt;Node22 -->
<g id="edge37" class="edge">
<title>Node1&#45;&gt;Node22</title>
<path fill="none" stroke="midnightblue" d="M1460.52,-361.09C1479.99,-334.91 1516.73,-285.52 1531.53,-265.62"/>
<polygon fill="midnightblue" stroke="midnightblue" points="1457.58,-359.19 1454.42,-369.3 1463.19,-363.36 1457.58,-359.19"/>
</g>
<!-- Node23 -->
<g id="node23" class="node">
<title>Node23</title>
<g id="a_node23"><a xlink:href="solver__interface_8h.html" target="_top" xlink:title="Interface and wrapper to matrix/factorization (ladel) functions.">
<polygon fill="white" stroke="black" points="798.94,-302.5 798.94,-332.5 920.94,-332.5 920.94,-302.5 798.94,-302.5"/>
<text text-anchor="start" x="806.94" y="-320.5" font-family="Helvetica,sans-Serif" font-size="10.00">QPALM/include/solver</text>
<text text-anchor="middle" x="859.94" y="-309.5" font-family="Helvetica,sans-Serif" font-size="10.00">_interface.h</text>
</a>
</g>
</g>
<!-- Node1&#45;&gt;Node23 -->
<g id="edge44" class="edge">
<title>Node1&#45;&gt;Node23</title>
<path fill="none" stroke="midnightblue" d="M1373.71,-372.11C1278.8,-364.35 1109.43,-349.7 964.94,-333 950.69,-331.35 935.37,-329.36 920.96,-327.39"/>
<polygon fill="midnightblue" stroke="midnightblue" points="1373.53,-375.61 1383.78,-372.93 1374.1,-368.63 1373.53,-375.61"/>
</g>
<!-- Node24 -->
<g id="node24" class="node">
<title>Node24</title>
<g id="a_node24"><a xlink:href="termination_8h.html" target="_top" xlink:title="Routines to check the termination and infeasibility criteria.">
<polygon fill="white" stroke="black" points="2002.94,-246.5 2002.94,-265.5 2160.94,-265.5 2160.94,-246.5 2002.94,-246.5"/>
<text text-anchor="middle" x="2081.94" y="-253.5" font-family="Helvetica,sans-Serif" font-size="10.00">QPALM/include/termination.h</text>
</a>
</g>
</g>
<!-- Node1&#45;&gt;Node24 -->
<g id="edge50" class="edge">
<title>Node1&#45;&gt;Node24</title>
<path fill="none" stroke="midnightblue" d="M1522.49,-377.23C1650.5,-375.01 1906.31,-366.39 1988.94,-333 2026.45,-317.84 2060.52,-282.01 2074.82,-265.55"/>
<polygon fill="midnightblue" stroke="midnightblue" points="1522.32,-373.73 1512.38,-377.4 1522.43,-380.73 1522.32,-373.73"/>
</g>
<!-- Node25 -->
<g id="node25" class="node">
<title>Node25</title>
<g id="a_node25"><a xlink:href="util_8h.html" target="_top" xlink:title="Utility functions.">
<polygon fill="white" stroke="black" points="1670.94,-246.5 1670.94,-265.5 1786.94,-265.5 1786.94,-246.5 1670.94,-246.5"/>
<text text-anchor="middle" x="1728.94" y="-253.5" font-family="Helvetica,sans-Serif" font-size="10.00">QPALM/include/util.h</text>
</a>
</g>
</g>
<!-- Node1&#45;&gt;Node25 -->
<g id="edge54" class="edge">
<title>Node1&#45;&gt;Node25</title>
<path fill="none" stroke="midnightblue" d="M1522.34,-372.84C1564.08,-367.36 1615.85,-356.11 1656.94,-333 1687.36,-315.9 1712.65,-281.7 1723.4,-265.67"/>
<polygon fill="midnightblue" stroke="midnightblue" points="1521.74,-369.39 1512.24,-374.08 1522.59,-376.34 1521.74,-369.39"/>
</g>
<!-- Node26 -->
<g id="node26" class="node">
<title>Node26</title>
<g id="a_node26"><a xlink:href="validate_8h.html" target="_top" xlink:title="Validation of the user provided settings and data.">
<polygon fill="white" stroke="black" points="170.94,-246.5 170.94,-265.5 310.94,-265.5 310.94,-246.5 170.94,-246.5"/>
<text text-anchor="middle" x="240.94" y="-253.5" font-family="Helvetica,sans-Serif" font-size="10.00">QPALM/include/validate.h</text>
</a>
</g>
</g>
<!-- Node1&#45;&gt;Node26 -->
<g id="edge61" class="edge">
<title>Node1&#45;&gt;Node26</title>
<path fill="none" stroke="midnightblue" d="M1373.35,-376.42C1235.83,-372.9 933.23,-362.25 679.94,-333 532.03,-315.92 358.34,-281.55 281.27,-265.56"/>
<polygon fill="midnightblue" stroke="midnightblue" points="1373.68,-379.93 1383.76,-376.69 1373.85,-372.94 1373.68,-379.93"/>
</g>
<!-- Node27 -->
<g id="node27" class="node">
<title>Node27</title>
<g id="a_node27"><a xlink:href="qpalm_8hpp.html" target="_top" xlink:title=" ">
<polygon fill="white" stroke="black" points="2100.94,-302.5 2100.94,-332.5 2222.94,-332.5 2222.94,-302.5 2100.94,-302.5"/>
<text text-anchor="start" x="2108.94" y="-320.5" font-family="Helvetica,sans-Serif" font-size="10.00">QPALM/interfaces/cxx</text>
<text text-anchor="middle" x="2161.94" y="-309.5" font-family="Helvetica,sans-Serif" font-size="10.00">/include/qpalm.hpp</text>
</a>
</g>
</g>
<!-- Node1&#45;&gt;Node27 -->
<g id="edge65" class="edge">
<title>Node1&#45;&gt;Node27</title>
<path fill="none" stroke="midnightblue" d="M1522.2,-374.21C1637.64,-367.95 1867.08,-354.01 2060.94,-333 2073.89,-331.6 2087.73,-329.8 2100.88,-327.96"/>
<polygon fill="midnightblue" stroke="midnightblue" points="1521.86,-370.73 1512.06,-374.76 1522.23,-377.72 1521.86,-370.73"/>
</g>
<!-- Node2&#45;&gt;Node3 -->
<g id="edge2" class="edge">
<title>Node2&#45;&gt;Node3</title>
<path fill="none" stroke="midnightblue" d="M1907.56,-242.34C1934.25,-229.86 1965.53,-209.84 1947.94,-190 1928.07,-167.57 1743.66,-154.08 1642.54,-148.3"/>
<polygon fill="midnightblue" stroke="midnightblue" points="1906.11,-239.15 1898.4,-246.42 1908.96,-245.55 1906.11,-239.15"/>
</g>
<!-- Node7 -->
<g id="node7" class="node">
<title>Node7</title>
<g id="a_node7"><a xlink:href="qpalm_8c.html" target="_top" xlink:title="QPALM main solver API.">
<polygon fill="white" stroke="black" points="1203.94,-73 1203.94,-92 1313.94,-92 1313.94,-73 1203.94,-73"/>
<text text-anchor="middle" x="1258.94" y="-80" font-family="Helvetica,sans-Serif" font-size="10.00">QPALM/src/qpalm.c</text>
</a>
</g>
</g>
<!-- Node2&#45;&gt;Node7 -->
<g id="edge8" class="edge">
<title>Node2&#45;&gt;Node7</title>
<path fill="none" stroke="midnightblue" d="M1915.9,-243.15C1947.55,-231.73 1983.58,-212.84 1964.94,-190 1923.71,-139.45 1472.95,-100.02 1314.02,-87.61"/>
<polygon fill="midnightblue" stroke="midnightblue" points="1914.61,-239.9 1906.29,-246.46 1916.88,-246.52 1914.61,-239.9"/>
</g>
<!-- Node8 -->
<g id="node8" class="node">
<title>Node8</title>
<g id="a_node8"><a xlink:href="iteration_8c.html" target="_top" xlink:title="QPALM main solver routines.">
<polygon fill="white" stroke="black" points="1324.94,-190.5 1324.94,-209.5 1444.94,-209.5 1444.94,-190.5 1324.94,-190.5"/>
<text text-anchor="middle" x="1384.94" y="-197.5" font-family="Helvetica,sans-Serif" font-size="10.00">QPALM/src/iteration.c</text>
</a>
</g>
</g>
<!-- Node2&#45;&gt;Node8 -->
<g id="edge7" class="edge">
<title>Node2&#45;&gt;Node8</title>
<path fill="none" stroke="midnightblue" d="M1794.65,-245.86C1663.9,-231.36 1523.26,-216.03 1445.19,-207.54"/>
<polygon fill="midnightblue" stroke="midnightblue" points="1794.52,-249.37 1804.85,-246.99 1795.29,-242.41 1794.52,-249.37"/>
</g>
<!-- Node9 -->
<g id="node9" class="node">
<title>Node9</title>
<g id="a_node9"><a xlink:href="termination_8c.html" target="_top" xlink:title="Routines to check the termination and infeasibility criteria.">
<polygon fill="white" stroke="black" points="1802.94,-190.5 1802.94,-209.5 1938.94,-209.5 1938.94,-190.5 1802.94,-190.5"/>
<text text-anchor="middle" x="1870.94" y="-197.5" font-family="Helvetica,sans-Serif" font-size="10.00">QPALM/src/termination.c</text>
</a>
</g>
</g>
<!-- Node2&#45;&gt;Node9 -->
<g id="edge9" class="edge">
<title>Node2&#45;&gt;Node9</title>
<path fill="none" stroke="midnightblue" d="M1874.19,-236.1C1873.36,-227.14 1872.41,-216.86 1871.75,-209.75"/>
<polygon fill="midnightblue" stroke="midnightblue" points="1870.71,-236.45 1875.12,-246.08 1877.68,-235.8 1870.71,-236.45"/>
</g>
<!-- Node4 -->
<g id="node4" class="node">
<title>Node4</title>
<g id="a_node4"><a xlink:href="qpalm_8cpp.html" target="_top" xlink:title=" ">
<polygon fill="white" stroke="black" points="1909.94,-67.5 1909.94,-97.5 2031.94,-97.5 2031.94,-67.5 1909.94,-67.5"/>
<text text-anchor="start" x="1917.94" y="-85.5" font-family="Helvetica,sans-Serif" font-size="10.00">QPALM/interfaces/cxx</text>
<text text-anchor="middle" x="1970.94" y="-74.5" font-family="Helvetica,sans-Serif" font-size="10.00">/src/qpalm.cpp</text>
</a>
</g>
</g>
<!-- Node3&#45;&gt;Node4 -->
<g id="edge3" class="edge">
<title>Node3&#45;&gt;Node4</title>
<path fill="none" stroke="midnightblue" d="M1643.59,-132.94C1718.05,-121.69 1837.57,-103.64 1909.74,-92.74"/>
<polygon fill="midnightblue" stroke="midnightblue" points="1642.76,-129.52 1633.39,-134.48 1643.81,-136.44 1642.76,-129.52"/>
</g>
<!-- Node5 -->
<g id="node5" class="node">
<title>Node5</title>
<g id="a_node5"><a xlink:href="qpalm__fortran_8h.html" target="_top" xlink:title=" ">
<polygon fill="white" stroke="black" points="1507.94,-67.5 1507.94,-97.5 1645.94,-97.5 1645.94,-67.5 1507.94,-67.5"/>
<text text-anchor="start" x="1515.94" y="-85.5" font-family="Helvetica,sans-Serif" font-size="10.00">QPALM/interfaces/fortran</text>
<text text-anchor="middle" x="1576.94" y="-74.5" font-family="Helvetica,sans-Serif" font-size="10.00">/qpalm_fortran.h</text>
</a>
</g>
</g>
<!-- Node3&#45;&gt;Node5 -->
<g id="edge4" class="edge">
<title>Node3&#45;&gt;Node5</title>
<path fill="none" stroke="midnightblue" d="M1576.94,-124.23C1576.94,-115.59 1576.94,-105.5 1576.94,-97.52"/>
<polygon fill="midnightblue" stroke="midnightblue" points="1573.44,-124.48 1576.94,-134.48 1580.44,-124.48 1573.44,-124.48"/>
</g>
<!-- Node3&#45;&gt;Node7 -->
<g id="edge6" class="edge">
<title>Node3&#45;&gt;Node7</title>
<path fill="none" stroke="midnightblue" d="M1521.45,-132.62C1459.87,-121.09 1361.65,-102.72 1304.42,-92.01"/>
<polygon fill="midnightblue" stroke="midnightblue" points="1520.91,-136.08 1531.38,-134.48 1522.2,-129.2 1520.91,-136.08"/>
</g>
<!-- Node6 -->
<g id="node6" class="node">
<title>Node6</title>
<g id="a_node6"><a xlink:href="qpalm__fortran_8c.html" target="_top" xlink:title=" ">
<polygon fill="white" stroke="black" points="1507.94,-0.5 1507.94,-30.5 1645.94,-30.5 1645.94,-0.5 1507.94,-0.5"/>
<text text-anchor="start" x="1515.94" y="-18.5" font-family="Helvetica,sans-Serif" font-size="10.00">QPALM/interfaces/fortran</text>
<text text-anchor="middle" x="1576.94" y="-7.5" font-family="Helvetica,sans-Serif" font-size="10.00">/qpalm_fortran.c</text>
</a>
</g>
</g>
<!-- Node5&#45;&gt;Node6 -->
<g id="edge5" class="edge">
<title>Node5&#45;&gt;Node6</title>
<path fill="none" stroke="midnightblue" d="M1576.94,-57.11C1576.94,-48.15 1576.94,-38.32 1576.94,-30.58"/>
<polygon fill="midnightblue" stroke="midnightblue" points="1573.44,-57.4 1576.94,-67.4 1580.44,-57.4 1573.44,-57.4"/>
</g>
<!-- Node10&#45;&gt;Node3 -->
<g id="edge11" class="edge">
<title>Node10&#45;&gt;Node3</title>
<path fill="none" stroke="midnightblue" d="M811.26,-242.21C783.69,-229.64 751.45,-209.56 769.94,-190 795.28,-163.21 1323.34,-150.07 1511.26,-146.23"/>
<polygon fill="midnightblue" stroke="midnightblue" points="810.16,-245.55 820.72,-246.33 812.95,-239.13 810.16,-245.55"/>
</g>
<!-- Node10&#45;&gt;Node7 -->
<g id="edge21" class="edge">
<title>Node10&#45;&gt;Node7</title>
<path fill="none" stroke="midnightblue" d="M767.12,-255.54C664.53,-254.75 489.91,-247.67 439.94,-210 411.76,-188.75 392.75,-159.69 416.94,-134 443.96,-105.32 1020.82,-89.17 1203.79,-84.75"/>
<polygon fill="midnightblue" stroke="midnightblue" points="767.1,-259.04 777.12,-255.59 767.14,-252.04 767.1,-259.04"/>
</g>
<!-- Node10&#45;&gt;Node8 -->
<g id="edge16" class="edge">
<title>Node10&#45;&gt;Node8</title>
<path fill="none" stroke="midnightblue" d="M920.79,-247.33C1029.52,-236.48 1226,-216.87 1324.79,-207"/>
<polygon fill="midnightblue" stroke="midnightblue" points="920.16,-243.88 910.55,-248.35 920.85,-250.84 920.16,-243.88"/>
</g>
<!-- Node10&#45;&gt;Node9 -->
<g id="edge24" class="edge">
<title>Node10&#45;&gt;Node9</title>
<path fill="none" stroke="midnightblue" d="M920.73,-251.24C1072.88,-243.73 1423.39,-226.25 1717.94,-210 1745.71,-208.47 1776.3,-206.69 1802.78,-205.12"/>
<polygon fill="midnightblue" stroke="midnightblue" points="920.38,-247.75 910.56,-251.74 920.72,-254.74 920.38,-247.75"/>
</g>
<!-- Node10&#45;&gt;Node11 -->
<g id="edge12" class="edge">
<title>Node10&#45;&gt;Node11</title>
<path fill="none" stroke="midnightblue" d="M783.45,-244.73C723.36,-234.52 632.29,-219.06 576.1,-209.52"/>
<polygon fill="midnightblue" stroke="midnightblue" points="783.11,-248.22 793.56,-246.44 784.28,-241.32 783.11,-248.22"/>
</g>
<!-- Node12 -->
<g id="node12" class="node">
<title>Node12</title>
<g id="a_node12"><a xlink:href="scaling_8c.html" target="_top" xlink:title="Problem data scaling during setup.">
<polygon fill="white" stroke="black" points="426.44,-134.5 426.44,-153.5 539.44,-153.5 539.44,-134.5 426.44,-134.5"/>
<text text-anchor="middle" x="482.94" y="-141.5" font-family="Helvetica,sans-Serif" font-size="10.00">QPALM/src/scaling.c</text>
</a>
</g>
</g>
<!-- Node10&#45;&gt;Node12 -->
<g id="edge22" class="edge">
<title>Node10&#45;&gt;Node12</title>
<path fill="none" stroke="midnightblue" d="M766.86,-251.65C657.9,-246.1 469.7,-233.26 448.94,-210 433.51,-192.71 457.21,-167.15 472.2,-153.82"/>
<polygon fill="midnightblue" stroke="midnightblue" points="766.99,-255.16 777.15,-252.16 767.34,-248.16 766.99,-255.16"/>
</g>
<!-- Node13 -->
<g id="node13" class="node">
<title>Node13</title>
<g id="a_node13"><a xlink:href="lin__alg_8c.html" target="_top" xlink:title="Linear algebra with vectors.">
<polygon fill="white" stroke="black" points="611.44,-190.5 611.44,-209.5 722.44,-209.5 722.44,-190.5 611.44,-190.5"/>
<text text-anchor="middle" x="666.94" y="-197.5" font-family="Helvetica,sans-Serif" font-size="10.00">QPALM/src/lin_alg.c</text>
</a>
</g>
</g>
<!-- Node10&#45;&gt;Node13 -->
<g id="edge17" class="edge">
<title>Node10&#45;&gt;Node13</title>
<path fill="none" stroke="midnightblue" d="M806.04,-243.44C772.67,-233.26 724.84,-218.66 694.86,-209.52"/>
<polygon fill="midnightblue" stroke="midnightblue" points="805.31,-246.87 815.9,-246.44 807.35,-240.18 805.31,-246.87"/>
</g>
<!-- Node14 -->
<g id="node14" class="node">
<title>Node14</title>
<g id="a_node14"><a xlink:href="linesearch_8c.html" target="_top" xlink:title="Routines to perform exact or backtracking linesearch.">
<polygon fill="white" stroke="black" points="779.44,-190.5 779.44,-209.5 908.44,-209.5 908.44,-190.5 779.44,-190.5"/>
<text text-anchor="middle" x="843.94" y="-197.5" font-family="Helvetica,sans-Serif" font-size="10.00">QPALM/src/linesearch.c</text>
</a>
</g>
</g>
<!-- Node10&#45;&gt;Node14 -->
<g id="edge18" class="edge">
<title>Node10&#45;&gt;Node14</title>
<path fill="none" stroke="midnightblue" d="M843.94,-235.8C843.94,-226.91 843.94,-216.78 843.94,-209.75"/>
<polygon fill="midnightblue" stroke="midnightblue" points="840.44,-236.08 843.94,-246.08 847.44,-236.08 840.44,-236.08"/>
</g>
<!-- Node15 -->
<g id="node15" class="node">
<title>Node15</title>
<g id="a_node15"><a xlink:href="newton_8c.html" target="_top" xlink:title="Functions to calculate the semismooth Newton direction.">
<polygon fill="white" stroke="black" points="926.44,-190.5 926.44,-209.5 1041.44,-209.5 1041.44,-190.5 926.44,-190.5"/>
<text text-anchor="middle" x="983.94" y="-197.5" font-family="Helvetica,sans-Serif" font-size="10.00">QPALM/src/newton.c</text>
</a>
</g>
</g>
<!-- Node10&#45;&gt;Node15 -->
<g id="edge19" class="edge">
<title>Node10&#45;&gt;Node15</title>
<path fill="none" stroke="midnightblue" d="M875.65,-242.77C901.94,-232.63 938.66,-218.47 961.86,-209.52"/>
<polygon fill="midnightblue" stroke="midnightblue" points="874.2,-239.58 866.13,-246.44 876.72,-246.11 874.2,-239.58"/>
</g>
<!-- Node10&#45;&gt;Node16 -->
<g id="edge20" class="edge">
<title>Node10&#45;&gt;Node16</title>
<path fill="none" stroke="midnightblue" d="M920.7,-249.81C1076.96,-239.25 1429.66,-215.41 1576.67,-205.48"/>
<polygon fill="midnightblue" stroke="midnightblue" points="920.43,-246.32 910.69,-250.49 920.91,-253.31 920.43,-246.32"/>
</g>
<!-- Node17 -->
<g id="node17" class="node">
<title>Node17</title>
<g id="a_node17"><a xlink:href="solver__interface_8c.html" target="_top" xlink:title="Interface and wrapper to matrix/factorization (ladel) functions.">
<polygon fill="white" stroke="black" points="167.94,-190.5 167.94,-209.5 325.94,-209.5 325.94,-190.5 167.94,-190.5"/>
<text text-anchor="middle" x="246.94" y="-197.5" font-family="Helvetica,sans-Serif" font-size="10.00">QPALM/src/solver_interface.c</text>
</a>
</g>
</g>
<!-- Node10&#45;&gt;Node17 -->
<g id="edge23" class="edge">
<title>Node10&#45;&gt;Node17</title>
<path fill="none" stroke="midnightblue" d="M766.88,-248.3C667.99,-239.66 491.16,-224.07 339.94,-210 335.42,-209.58 330.78,-209.14 326.09,-208.7"/>
<polygon fill="midnightblue" stroke="midnightblue" points="766.81,-251.81 777.08,-249.19 767.42,-244.83 766.81,-251.81"/>
</g>
<!-- Node10&#45;&gt;Node18 -->
<g id="edge25" class="edge">
<title>Node10&#45;&gt;Node18</title>
<path fill="none" stroke="midnightblue" d="M895.52,-244.41C945.23,-234.2 1019.47,-218.96 1065.47,-209.52"/>
<polygon fill="midnightblue" stroke="midnightblue" points="894.71,-241 885.62,-246.44 896.12,-247.86 894.71,-241"/>
</g>
<!-- Node19 -->
<g id="node19" class="node">
<title>Node19</title>
<g id="a_node19"><a xlink:href="validate_8c.html" target="_top" xlink:title="Validation of the user provided settings and data.">
<polygon fill="white" stroke="black" points="30.44,-190.5 30.44,-209.5 149.44,-209.5 149.44,-190.5 30.44,-190.5"/>
<text text-anchor="middle" x="89.94" y="-197.5" font-family="Helvetica,sans-Serif" font-size="10.00">QPALM/src/validate.c</text>
</a>
</g>
</g>
<!-- Node10&#45;&gt;Node19 -->
<g id="edge26" class="edge">
<title>Node10&#45;&gt;Node19</title>
<path fill="none" stroke="midnightblue" d="M767.22,-251.57C640.42,-245.53 379.23,-231.58 158.94,-210 155.94,-209.71 152.86,-209.38 149.76,-209.04"/>
<polygon fill="midnightblue" stroke="midnightblue" points="767.07,-255.06 777.22,-252.04 767.4,-248.07 767.07,-255.06"/>
</g>
<!-- Node11&#45;&gt;Node3 -->
<g id="edge13" class="edge">
<title>Node11&#45;&gt;Node3</title>
<path fill="none" stroke="midnightblue" d="M603.48,-189.93C951.3,-161.71 1355.43,-150.09 1511.22,-146.41"/>
<polygon fill="midnightblue" stroke="midnightblue" points="603.15,-186.45 593.46,-190.75 603.72,-193.42 603.15,-186.45"/>
</g>
<!-- Node11&#45;&gt;Node7 -->
<g id="edge14" class="edge">
<title>Node11&#45;&gt;Node7</title>
<path fill="none" stroke="midnightblue" d="M590.03,-188.9C732.19,-166.5 1071.85,-112.98 1204.53,-92.07"/>
<polygon fill="midnightblue" stroke="midnightblue" points="589.47,-185.45 580.14,-190.46 590.56,-192.36 589.47,-185.45"/>
</g>
<!-- Node11&#45;&gt;Node12 -->
<g id="edge15" class="edge">
<title>Node11&#45;&gt;Node12</title>
<path fill="none" stroke="midnightblue" d="M512.52,-182.14C505.03,-172.74 496.01,-161.4 489.91,-153.75"/>
<polygon fill="midnightblue" stroke="midnightblue" points="509.88,-184.44 518.84,-190.08 515.35,-180.08 509.88,-184.44"/>
</g>
<!-- Node20&#45;&gt;Node3 -->
<g id="edge28" class="edge">
<title>Node20&#45;&gt;Node3</title>
<path fill="none" stroke="midnightblue" d="M1162.85,-242.24C1194.85,-227.56 1250.18,-203.73 1299.94,-190 1370.86,-170.43 1454.49,-158.29 1511.16,-151.63"/>
<polygon fill="midnightblue" stroke="midnightblue" points="1161.31,-239.1 1153.71,-246.48 1164.25,-245.45 1161.31,-239.1"/>
</g>
<!-- Node20&#45;&gt;Node7 -->
<g id="edge31" class="edge">
<title>Node20&#45;&gt;Node7</title>
<path fill="none" stroke="midnightblue" d="M1148.32,-237.74C1174.29,-201.53 1233.64,-118.78 1252.83,-92.02"/>
<polygon fill="midnightblue" stroke="midnightblue" points="1145.2,-236.09 1142.21,-246.26 1150.89,-240.17 1145.2,-236.09"/>
</g>
<!-- Node20&#45;&gt;Node8 -->
<g id="edge29" class="edge">
<title>Node20&#45;&gt;Node8</title>
<path fill="none" stroke="midnightblue" d="M1185.37,-244.28C1232.42,-234.08 1302.31,-218.92 1345.67,-209.52"/>
<polygon fill="midnightblue" stroke="midnightblue" points="1184.43,-240.9 1175.4,-246.44 1185.91,-247.74 1184.43,-240.9"/>
</g>
<!-- Node20&#45;&gt;Node14 -->
<g id="edge30" class="edge">
<title>Node20&#45;&gt;Node14</title>
<path fill="none" stroke="midnightblue" d="M1079.71,-244.6C1024.53,-234.4 941.38,-219.02 890,-209.52"/>
<polygon fill="midnightblue" stroke="midnightblue" points="1079.21,-248.07 1089.68,-246.44 1080.48,-241.18 1079.21,-248.07"/>
</g>
<!-- Node21&#45;&gt;Node3 -->
<g id="edge33" class="edge">
<title>Node21&#45;&gt;Node3</title>
<path fill="none" stroke="midnightblue" d="M1297.99,-236.33C1299.08,-221.6 1303.08,-201.65 1315.94,-190 1343.94,-164.66 1443.45,-153.31 1511.19,-148.43"/>
<polygon fill="midnightblue" stroke="midnightblue" points="1294.49,-236.24 1297.62,-246.36 1301.48,-236.49 1294.49,-236.24"/>
</g>
<!-- Node21&#45;&gt;Node7 -->
<g id="edge36" class="edge">
<title>Node21&#45;&gt;Node7</title>
<path fill="none" stroke="midnightblue" d="M1293.7,-236.33C1285.31,-199.43 1266.89,-118.44 1260.88,-92.02"/>
<polygon fill="midnightblue" stroke="midnightblue" points="1290.33,-237.28 1295.96,-246.26 1297.15,-235.73 1290.33,-237.28"/>
</g>
<!-- Node21&#45;&gt;Node8 -->
<g id="edge34" class="edge">
<title>Node21&#45;&gt;Node8</title>
<path fill="none" stroke="midnightblue" d="M1320.66,-240.9C1336.61,-231 1357.44,-218.07 1371,-209.65"/>
<polygon fill="midnightblue" stroke="midnightblue" points="1318.57,-238.08 1311.92,-246.32 1322.26,-244.02 1318.57,-238.08"/>
</g>
<!-- Node21&#45;&gt;Node15 -->
<g id="edge35" class="edge">
<title>Node21&#45;&gt;Node15</title>
<path fill="none" stroke="midnightblue" d="M1238.21,-244.73C1178.87,-234.52 1088.95,-219.06 1033.47,-209.52"/>
<polygon fill="midnightblue" stroke="midnightblue" points="1237.74,-248.2 1248.19,-246.44 1238.93,-241.3 1237.74,-248.2"/>
</g>
<!-- Node22&#45;&gt;Node3 -->
<g id="edge38" class="edge">
<title>Node22&#45;&gt;Node3</title>
<path fill="none" stroke="midnightblue" d="M1544.44,-236.67C1552.97,-212.62 1567.59,-171.39 1573.9,-153.59"/>
<polygon fill="midnightblue" stroke="midnightblue" points="1541.05,-235.77 1541,-246.37 1547.65,-238.11 1541.05,-235.77"/>
</g>
<!-- Node22&#45;&gt;Node7 -->
<g id="edge41" class="edge">
<title>Node22&#45;&gt;Node7</title>
<path fill="none" stroke="midnightblue" d="M1520.2,-239.93C1503.61,-226.17 1477.86,-205.64 1453.94,-190 1391.32,-149.04 1311.62,-109 1276.7,-92.01"/>
<polygon fill="midnightblue" stroke="midnightblue" points="1518.07,-242.71 1527.99,-246.45 1522.57,-237.35 1518.07,-242.71"/>
</g>
<!-- Node22&#45;&gt;Node8 -->
<g id="edge39" class="edge">
<title>Node22&#45;&gt;Node8</title>
<path fill="none" stroke="midnightblue" d="M1504.06,-243.04C1475.27,-232.88 1434.66,-218.55 1409.07,-209.52"/>
<polygon fill="midnightblue" stroke="midnightblue" points="1503.11,-246.42 1513.7,-246.44 1505.44,-239.81 1503.11,-246.42"/>
</g>
<!-- Node22&#45;&gt;Node16 -->
<g id="edge40" class="edge">
<title>Node22&#45;&gt;Node16</title>
<path fill="none" stroke="midnightblue" d="M1563.75,-241.73C1583.2,-231.73 1609.29,-218.31 1626.12,-209.65"/>
<polygon fill="midnightblue" stroke="midnightblue" points="1562.11,-238.64 1554.81,-246.32 1565.31,-244.86 1562.11,-238.64"/>
</g>
<!-- Node23&#45;&gt;Node3 -->
<g id="edge46" class="edge">
<title>Node23&#45;&gt;Node3</title>
<path fill="none" stroke="midnightblue" d="M931.32,-314.07C1056.75,-309.1 1311.33,-295.62 1394.94,-266 1468.98,-239.78 1542.28,-176.85 1567.63,-153.72"/>
<polygon fill="midnightblue" stroke="midnightblue" points="930.92,-310.59 921.06,-314.47 931.19,-317.58 930.92,-310.59"/>
</g>
<!-- Node23&#45;&gt;Node7 -->
<g id="edge48" class="edge">
<title>Node23&#45;&gt;Node7</title>
<path fill="none" stroke="midnightblue" d="M788.68,-313.84C635.67,-307.73 280.05,-291.23 161.94,-266 87.3,-250.05 -31.45,-255.37 7.94,-190 35.45,-144.37 62.52,-147.96 113.94,-134 219.56,-105.33 989.26,-88.64 1203.65,-84.51"/>
<polygon fill="midnightblue" stroke="midnightblue" points="788.77,-317.35 798.9,-314.25 789.05,-310.35 788.77,-317.35"/>
</g>
<!-- Node23&#45;&gt;Node8 -->
<g id="edge47" class="edge">
<title>Node23&#45;&gt;Node8</title>
<path fill="none" stroke="midnightblue" d="M931.48,-314.28C1065.42,-309.43 1343.39,-295.87 1374.94,-266 1390.37,-251.4 1388.66,-223.7 1386.57,-209.65"/>
<polygon fill="midnightblue" stroke="midnightblue" points="931.19,-310.79 921.32,-314.64 931.43,-317.78 931.19,-310.79"/>
</g>
<!-- Node23&#45;&gt;Node10 -->
<g id="edge45" class="edge">
<title>Node23&#45;&gt;Node10</title>
<path fill="none" stroke="midnightblue" d="M853.52,-292.59C850.96,-283.08 848.17,-272.73 846.27,-265.66"/>
<polygon fill="midnightblue" stroke="midnightblue" points="850.18,-293.65 856.15,-302.4 856.94,-291.83 850.18,-293.65"/>
</g>
<!-- Node23&#45;&gt;Node17 -->
<g id="edge49" class="edge">
<title>Node23&#45;&gt;Node17</title>
<path fill="none" stroke="midnightblue" d="M788.89,-303.11C661.59,-279.13 398.07,-229.47 292.32,-209.55"/>
<polygon fill="midnightblue" stroke="midnightblue" points="788.45,-306.59 798.93,-305 789.75,-299.71 788.45,-306.59"/>
</g>
<!-- Node24&#45;&gt;Node3 -->
<g id="edge51" class="edge">
<title>Node24&#45;&gt;Node3</title>
<path fill="none" stroke="midnightblue" d="M2079.98,-235.89C2077.35,-220.9 2071.23,-200.82 2056.94,-190 2024.63,-165.51 1766.29,-152.31 1642.56,-147.34"/>
<polygon fill="midnightblue" stroke="midnightblue" points="2076.55,-236.69 2081.38,-246.12 2083.49,-235.74 2076.55,-236.69"/>
</g>
<!-- Node24&#45;&gt;Node7 -->
<g id="edge52" class="edge">
<title>Node24&#45;&gt;Node7</title>
<path fill="none" stroke="midnightblue" d="M2086.68,-236.06C2089.05,-221.78 2089.5,-202.55 2078.94,-190 2005.11,-102.18 1940.32,-151.56 1826.94,-134 1728.99,-118.83 1436.73,-96.49 1314.09,-87.48"/>
<polygon fill="midnightblue" stroke="midnightblue" points="2083.17,-235.74 2084.54,-246.24 2090.02,-237.18 2083.17,-235.74"/>
</g>
<!-- Node24&#45;&gt;Node9 -->
<g id="edge53" class="edge">
<title>Node24&#45;&gt;Node9</title>
<path fill="none" stroke="midnightblue" d="M2038.8,-243.96C1998.95,-233.76 1940.58,-218.82 1904.22,-209.52"/>
<polygon fill="midnightblue" stroke="midnightblue" points="2037.96,-247.35 2048.51,-246.44 2039.69,-240.57 2037.96,-247.35"/>
</g>
<!-- Node25&#45;&gt;Node3 -->
<g id="edge55" class="edge">
<title>Node25&#45;&gt;Node3</title>
<path fill="none" stroke="midnightblue" d="M1730.67,-236.06C1730.91,-221.77 1728.84,-202.55 1717.94,-190 1699.08,-168.26 1669.74,-156.93 1642.69,-151.06"/>
<polygon fill="midnightblue" stroke="midnightblue" points="1727.16,-236.06 1730.1,-246.24 1734.15,-236.45 1727.16,-236.06"/>
</g>
<!-- Node25&#45;&gt;Node7 -->
<g id="edge58" class="edge">
<title>Node25&#45;&gt;Node7</title>
<path fill="none" stroke="midnightblue" d="M1736.72,-236.72C1741.26,-223.06 1744.73,-204.35 1736.94,-190 1715.21,-149.9 1693.75,-149.75 1650.94,-134 1590.33,-111.69 1406.89,-94.89 1314.04,-87.55"/>
<polygon fill="midnightblue" stroke="midnightblue" points="1733.31,-235.82 1733.04,-246.41 1739.86,-238.3 1733.31,-235.82"/>
</g>
<!-- Node25&#45;&gt;Node8 -->
<g id="edge56" class="edge">
<title>Node25&#45;&gt;Node8</title>
<path fill="none" stroke="midnightblue" d="M1664.31,-244.85C1599.31,-234.65 1500.23,-219.1 1439.2,-209.52"/>
<polygon fill="midnightblue" stroke="midnightblue" points="1664.01,-248.35 1674.44,-246.44 1665.1,-241.44 1664.01,-248.35"/>
</g>
<!-- Node25&#45;&gt;Node9 -->
<g id="edge59" class="edge">
<title>Node25&#45;&gt;Node9</title>
<path fill="none" stroke="midnightblue" d="M1761.1,-242.77C1787.77,-232.63 1825.01,-218.47 1848.55,-209.52"/>
<polygon fill="midnightblue" stroke="midnightblue" points="1759.55,-239.62 1751.44,-246.44 1762.04,-246.16 1759.55,-239.62"/>
</g>
<!-- Node25&#45;&gt;Node16 -->
<g id="edge57" class="edge">
<title>Node25&#45;&gt;Node16</title>
<path fill="none" stroke="midnightblue" d="M1706.49,-240.9C1690.72,-231 1670.13,-218.07 1656.73,-209.65"/>
<polygon fill="midnightblue" stroke="midnightblue" points="1704.8,-243.97 1715.13,-246.32 1708.52,-238.04 1704.8,-243.97"/>
</g>
<!-- Node25&#45;&gt;Node18 -->
<g id="edge60" class="edge">
<title>Node25&#45;&gt;Node18</title>
<path fill="none" stroke="midnightblue" d="M1660.71,-249.08C1533.67,-238.05 1263.87,-214.62 1154.49,-205.13"/>
<polygon fill="midnightblue" stroke="midnightblue" points="1660.44,-252.57 1670.71,-249.94 1661.05,-245.59 1660.44,-252.57"/>
</g>
<!-- Node26&#45;&gt;Node3 -->
<g id="edge62" class="edge">
<title>Node26&#45;&gt;Node3</title>
<path fill="none" stroke="midnightblue" d="M271.17,-242.78C311.1,-227.29 383.99,-201.24 448.94,-190 655.22,-154.3 1302.71,-146.85 1511.41,-145.36"/>
<polygon fill="midnightblue" stroke="midnightblue" points="269.78,-239.57 261.75,-246.48 272.34,-246.08 269.78,-239.57"/>
</g>
<!-- Node26&#45;&gt;Node7 -->
<g id="edge63" class="edge">
<title>Node26&#45;&gt;Node7</title>
<path fill="none" stroke="midnightblue" d="M160.6,-255.03C81.42,-252.31 -21.94,-239.63 20.94,-190 99.27,-99.36 973.71,-85.83 1203.76,-83.84"/>
<polygon fill="midnightblue" stroke="midnightblue" points="160.51,-258.53 170.61,-255.33 160.72,-251.54 160.51,-258.53"/>
</g>
<!-- Node26&#45;&gt;Node19 -->
<g id="edge64" class="edge">
<title>Node26&#45;&gt;Node19</title>
<path fill="none" stroke="midnightblue" d="M207.5,-243.04C179.09,-232.88 139.01,-218.55 113.76,-209.52"/>
<polygon fill="midnightblue" stroke="midnightblue" points="206.42,-246.37 217.02,-246.44 208.78,-239.78 206.42,-246.37"/>
</g>
<!-- Node27&#45;&gt;Node4 -->
<g id="edge66" class="edge">
<title>Node27&#45;&gt;Node4</title>
<path fill="none" stroke="midnightblue" d="M2170.92,-292.29C2174.67,-278.17 2176.76,-260.37 2169.94,-246 2134.95,-172.25 2048.3,-120.9 2001.72,-97.62"/>
<polygon fill="midnightblue" stroke="midnightblue" points="2167.45,-291.67 2167.85,-302.26 2174.14,-293.73 2167.45,-291.67"/>
</g>
</g>
</svg>
        <g id="navigator" transform="translate(0 0)" fill="#404254">
                <rect fill="#f2f5e9" fill-opacity="0.5" stroke="#606060" stroke-width=".5" x="0" y="0" width="60" height="60"/>
                <use id="zoomplus" xlink:href="#zoomPlus" x="17" y="9" onmousedown="handleZoom(evt,'in')"/>
                <use id="zoomminus" xlink:href="#zoomMin" x="42" y="9" onmousedown="handleZoom(evt,'out')"/>
                <use id="reset" xlink:href="#resetDef" x="30" y="36" onmousedown="handleReset()"/>
                <g id="arrowUp" xlink:href="#dirArrow" transform="translate(30 24)" onmousedown="handlePan(0,-1)">
                  <use xlink:href="#rim" fill="#404040">
                        <set attributeName="fill" to="#808080" begin="arrowUp.mouseover" end="arrowUp.mouseout"/>
                  </use>
                  <path fill="none" stroke="white" stroke-width="1.5" d="M0,-3.0v7 M-2.5,-0.5L0,-3.0L2.5,-0.5"/>
                </g>
                <g id="arrowRight" xlink:href="#dirArrow" transform="rotate(90) translate(36 -43)" onmousedown="handlePan(1,0)">
                  <use xlink:href="#rim" fill="#404040">
                        <set attributeName="fill" to="#808080" begin="arrowRight.mouseover" end="arrowRight.mouseout"/>
                  </use>
                  <path fill="none" stroke="white" stroke-width="1.5" d="M0,-3.0v7 M-2.5,-0.5L0,-3.0L2.5,-0.5"/>
                </g>
                <g id="arrowDown" xlink:href="#dirArrow" transform="rotate(180) translate(-30 -48)" onmousedown="handlePan(0,1)">
                  <use xlink:href="#rim" fill="#404040">
                        <set attributeName="fill" to="#808080" begin="arrowDown.mouseover" end="arrowDown.mouseout"/>
                  </use>
                  <path fill="none" stroke="white" stroke-width="1.5" d="M0,-3.0v7 M-2.5,-0.5L0,-3.0L2.5,-0.5"/>
                </g>
                <g id="arrowLeft" xlink:href="#dirArrow" transform="rotate(270) translate(-36 17)" onmousedown="handlePan(-1,0)">
                  <use xlink:href="#rim" fill="#404040">
                        <set attributeName="fill" to="#808080" begin="arrowLeft.mouseover" end="arrowLeft.mouseout"/>
                  </use>
                  <path fill="none" stroke="white" stroke-width="1.5" d="M0,-3.0v7 M-2.5,-0.5L0,-3.0L2.5,-0.5"/>
                </g>
        </g>
        <svg viewBox="0 0 15 15" width="100%" height="30px" preserveAspectRatio="xMaxYMin meet">
         <g id="arrow_out" transform="scale(0.3 0.3)">
          <a xlink:href="types_8h__dep__incl_org.svg" target="_base">
           <rect id="button" ry="5" rx="5" y="6" x="6" height="38" width="38"
                fill="#f2f5e9" fill-opacity="0.5" stroke="#606060" stroke-width="1.0"/>
           <path id="arrow"
             d="M 11.500037,31.436501 C 11.940474,20.09759 22.043105,11.32322 32.158766,21.979434 L 37.068811,17.246167 C 37.068811,17.246167 37.088388,32 37.088388,32 L 22.160133,31.978069 C 22.160133,31.978069 26.997745,27.140456 26.997745,27.140456 C 18.528582,18.264221 13.291696,25.230495 11.500037,31.436501 z"
             style="fill:#404040;"/>
          </a>
         </g>
        </svg>
</svg>
