<?xml version="1.0" encoding="UTF-8" standalone="no"?>
<!DOCTYPE svg PUBLIC "-//W3C//DTD SVG 1.1//EN"
 "http://www.w3.org/Graphics/SVG/1.1/DTD/svg11.dtd">
<!-- Generated by graphviz version 2.43.0 (0)
 -->
<!-- Title: qpalm_tic Pages: 1 -->
<svg width="425pt" height="253pt"
 viewBox="0.00 0.00 425.00 252.50" xmlns="http://www.w3.org/2000/svg" xmlns:xlink="http://www.w3.org/1999/xlink">
<g id="graph0" class="graph" transform="scale(1 1) rotate(0) translate(4 248.5)">
<title>qpalm_tic</title>
<polygon fill="white" stroke="transparent" points="-4,4 -4,-248.5 421,-248.5 421,4 -4,4"/>
<!-- Node1 -->
<g id="node1" class="node">
<title>Node1</title>
<g id="a_node1"><a xlink:title="Start timer.">
<polygon fill="#bfbfbf" stroke="black" points="352,-118 352,-137 417,-137 417,-118 352,-118"/>
<text text-anchor="middle" x="384.5" y="-125" font-family="Helvetica,sans-Serif" font-size="10.00">qpalm_tic</text>
</a>
</g>
</g>
<!-- Node2 -->
<g id="node2" class="node">
<title>Node2</title>
<g id="a_node2"><a xlink:href="group__solver-grp.html#gaaff827465b1299909f394de8771baef9" target="_top" xlink:title="Initialize QPALM solver allocating memory.">
<polygon fill="white" stroke="black" points="210.5,-220 210.5,-239 290.5,-239 290.5,-220 210.5,-220"/>
<text text-anchor="middle" x="250.5" y="-227" font-family="Helvetica,sans-Serif" font-size="10.00">qpalm_setup</text>
</a>
</g>
</g>
<!-- Node1&#45;&gt;Node2 -->
<g id="edge1" class="edge">
<title>Node1&#45;&gt;Node2</title>
<path fill="none" stroke="midnightblue" d="M371.86,-146.05C359.84,-163.82 339.57,-190.27 316,-206.5 307.78,-212.16 298,-216.59 288.59,-219.98"/>
<polygon fill="midnightblue" stroke="midnightblue" points="375.11,-147.47 377.65,-137.19 369.25,-143.64 375.11,-147.47"/>
</g>
<!-- Node4 -->
<g id="node4" class="node">
<title>Node4</title>
<g id="a_node4"><a xlink:href="group__solver-grp.html#ga385f399d0fb6afaaa0da5f3a114bf922" target="_top" xlink:title="Update the lower and upper bounds.">
<polygon fill="white" stroke="black" points="187,-178 187,-197 314,-197 314,-178 187,-178"/>
<text text-anchor="middle" x="250.5" y="-185" font-family="Helvetica,sans-Serif" font-size="10.00">qpalm_update_bounds</text>
</a>
</g>
</g>
<!-- Node1&#45;&gt;Node4 -->
<g id="edge3" class="edge">
<title>Node1&#45;&gt;Node4</title>
<path fill="none" stroke="midnightblue" d="M359.79,-142.27C347.09,-149.81 331.01,-158.78 316,-165.5 305.63,-170.14 293.97,-174.39 283.44,-177.9"/>
<polygon fill="midnightblue" stroke="midnightblue" points="361.62,-145.25 368.37,-137.09 358,-139.26 361.62,-145.25"/>
</g>
<!-- Node6 -->
<g id="node6" class="node">
<title>Node6</title>
<g id="a_node6"><a xlink:href="group__solver-grp.html#gadc1a41812270a2a9539558e7eec403fe" target="_top" xlink:title="Update the linear part of the cost.">
<polygon fill="white" stroke="black" points="201.5,-137 201.5,-156 299.5,-156 299.5,-137 201.5,-137"/>
<text text-anchor="middle" x="250.5" y="-144" font-family="Helvetica,sans-Serif" font-size="10.00">qpalm_update_q</text>
</a>
</g>
</g>
<!-- Node1&#45;&gt;Node6 -->
<g id="edge5" class="edge">
<title>Node1&#45;&gt;Node6</title>
<path fill="none" stroke="midnightblue" d="M341.96,-133.48C328.52,-135.41 313.5,-137.58 299.63,-139.57"/>
<polygon fill="midnightblue" stroke="midnightblue" points="342.48,-136.94 351.88,-132.05 341.49,-130.01 342.48,-136.94"/>
</g>
<!-- Node8 -->
<g id="node8" class="node">
<title>Node8</title>
<g id="a_node8"><a xlink:href="group__solver-grp.html#ga327c43b0d2f129fc32e8ef2a47e289af" target="_top" xlink:title="Update the matrix entries of Q and A.">
<polygon fill="white" stroke="black" points="195,-99 195,-118 306,-118 306,-99 195,-99"/>
<text text-anchor="middle" x="250.5" y="-106" font-family="Helvetica,sans-Serif" font-size="10.00">qpalm_update_Q_A</text>
</a>
</g>
</g>
<!-- Node1&#45;&gt;Node8 -->
<g id="edge7" class="edge">
<title>Node1&#45;&gt;Node8</title>
<path fill="none" stroke="midnightblue" d="M341.82,-121.5C330.48,-119.87 318.01,-118.07 306.07,-116.35"/>
<polygon fill="midnightblue" stroke="midnightblue" points="341.49,-124.99 351.88,-122.95 342.48,-118.06 341.49,-124.99"/>
</g>
<!-- Node10 -->
<g id="node10" class="node">
<title>Node10</title>
<g id="a_node10"><a xlink:href="group__solver-grp.html#ga581cf986cb484ec5721f76b025eda704" target="_top" xlink:title="Update the settings to the new settings.">
<polygon fill="white" stroke="black" points="185,-58 185,-77 316,-77 316,-58 185,-58"/>
<text text-anchor="middle" x="250.5" y="-65" font-family="Helvetica,sans-Serif" font-size="10.00">qpalm_update_settings</text>
</a>
</g>
</g>
<!-- Node1&#45;&gt;Node10 -->
<g id="edge9" class="edge">
<title>Node1&#45;&gt;Node10</title>
<path fill="none" stroke="midnightblue" d="M359.79,-112.73C347.09,-105.19 331.01,-96.22 316,-89.5 305.63,-84.86 293.97,-80.61 283.44,-77.1"/>
<polygon fill="midnightblue" stroke="midnightblue" points="358,-115.74 368.37,-117.91 361.62,-109.75 358,-115.74"/>
</g>
<!-- Node12 -->
<g id="node12" class="node">
<title>Node12</title>
<g id="a_node12"><a xlink:href="group__solver-grp.html#ga28824f01d01f181a6ad6b413f30a2609" target="_top" xlink:title="Warm start workspace variables x, x_0, x_prev, Ax, Qx, y and sigma.">
<polygon fill="white" stroke="black" points="196.5,-15 196.5,-34 304.5,-34 304.5,-15 196.5,-15"/>
<text text-anchor="middle" x="250.5" y="-22" font-family="Helvetica,sans-Serif" font-size="10.00">qpalm_warm_start</text>
</a>
</g>
</g>
<!-- Node1&#45;&gt;Node12 -->
<g id="edge11" class="edge">
<title>Node1&#45;&gt;Node12</title>
<path fill="none" stroke="midnightblue" d="M371.81,-109.02C359.76,-91.3 339.46,-64.89 316,-48.5 307.28,-42.41 296.83,-37.65 286.91,-34.04"/>
<polygon fill="midnightblue" stroke="midnightblue" points="369.2,-111.42 377.63,-117.85 375.05,-107.57 369.2,-111.42"/>
</g>
<!-- Node3 -->
<g id="node3" class="node">
<title>Node3</title>
<g id="a_node3"><a xlink:href="qpalm__fortran_8c.html#abec01161fcee665e126347b862c404c4" target="_top" xlink:title=" ">
<polygon fill="white" stroke="black" points="26.5,-225 26.5,-244 122.5,-244 122.5,-225 26.5,-225"/>
<text text-anchor="middle" x="74.5" y="-232" font-family="Helvetica,sans-Serif" font-size="10.00">qpalm_fortran_c</text>
</a>
</g>
</g>
<!-- Node2&#45;&gt;Node3 -->
<g id="edge2" class="edge">
<title>Node2&#45;&gt;Node3</title>
<path fill="none" stroke="midnightblue" d="M200.36,-230.91C176.05,-231.61 146.83,-232.45 122.78,-233.14"/>
<polygon fill="midnightblue" stroke="midnightblue" points="200.56,-234.41 210.45,-230.62 200.35,-227.41 200.56,-234.41"/>
</g>
<!-- Node5 -->
<g id="node5" class="node">
<title>Node5</title>
<g id="a_node5"><a xlink:href="classqpalm_1_1Solver.html#a6df33bfd68c5b8caaaa6f726f1a9f517" target="_top" xlink:title=" ">
<polygon fill="white" stroke="black" points="12.5,-175.5 12.5,-205.5 136.5,-205.5 136.5,-175.5 12.5,-175.5"/>
<text text-anchor="start" x="20.5" y="-193.5" font-family="Helvetica,sans-Serif" font-size="10.00">qpalm::Solver::update</text>
<text text-anchor="middle" x="74.5" y="-182.5" font-family="Helvetica,sans-Serif" font-size="10.00">_bounds</text>
</a>
</g>
</g>
<!-- Node4&#45;&gt;Node5 -->
<g id="edge4" class="edge">
<title>Node4&#45;&gt;Node5</title>
<path fill="none" stroke="midnightblue" d="M176.65,-188.76C163.38,-188.98 149.66,-189.22 136.77,-189.44"/>
<polygon fill="midnightblue" stroke="midnightblue" points="176.74,-192.26 186.68,-188.58 176.62,-185.26 176.74,-192.26"/>
</g>
<!-- Node7 -->
<g id="node7" class="node">
<title>Node7</title>
<g id="a_node7"><a xlink:href="classqpalm_1_1Solver.html#a43cbe4e495be0898c733d9589531e63c" target="_top" xlink:title=" ">
<polygon fill="white" stroke="black" points="7,-137 7,-156 142,-156 142,-137 7,-137"/>
<text text-anchor="middle" x="74.5" y="-144" font-family="Helvetica,sans-Serif" font-size="10.00">qpalm::Solver::update_q</text>
</a>
</g>
</g>
<!-- Node6&#45;&gt;Node7 -->
<g id="edge6" class="edge">
<title>Node6&#45;&gt;Node7</title>
<path fill="none" stroke="midnightblue" d="M191.37,-146.5C175.61,-146.5 158.43,-146.5 142.23,-146.5"/>
<polygon fill="midnightblue" stroke="midnightblue" points="191.49,-150 201.49,-146.5 191.49,-143 191.49,-150"/>
</g>
<!-- Node9 -->
<g id="node9" class="node">
<title>Node9</title>
<g id="a_node9"><a xlink:href="classqpalm_1_1Solver.html#a11e9742322ad77345b32d806b8b3b81c" target="_top" xlink:title=" ">
<polygon fill="white" stroke="black" points="0,-99 0,-118 149,-118 149,-99 0,-99"/>
<text text-anchor="middle" x="74.5" y="-106" font-family="Helvetica,sans-Serif" font-size="10.00">qpalm::Solver::update_Q_A</text>
</a>
</g>
</g>
<!-- Node8&#45;&gt;Node9 -->
<g id="edge8" class="edge">
<title>Node8&#45;&gt;Node9</title>
<path fill="none" stroke="midnightblue" d="M184.84,-108.5C173.17,-108.5 160.92,-108.5 149.02,-108.5"/>
<polygon fill="midnightblue" stroke="midnightblue" points="184.92,-112 194.92,-108.5 184.92,-105 184.92,-112"/>
</g>
<!-- Node11 -->
<g id="node11" class="node">
<title>Node11</title>
<g id="a_node11"><a xlink:href="classqpalm_1_1Solver.html#a895c0635d6fdd0a3026894697ea6903b" target="_top" xlink:title=" ">
<polygon fill="white" stroke="black" points="12.5,-49.5 12.5,-79.5 136.5,-79.5 136.5,-49.5 12.5,-49.5"/>
<text text-anchor="start" x="20.5" y="-67.5" font-family="Helvetica,sans-Serif" font-size="10.00">qpalm::Solver::update</text>
<text text-anchor="middle" x="74.5" y="-56.5" font-family="Helvetica,sans-Serif" font-size="10.00">_settings</text>
</a>
</g>
</g>
<!-- Node10&#45;&gt;Node11 -->
<g id="edge10" class="edge">
<title>Node10&#45;&gt;Node11</title>
<path fill="none" stroke="midnightblue" d="M174.62,-66.21C161.93,-65.99 148.88,-65.77 136.6,-65.55"/>
<polygon fill="midnightblue" stroke="midnightblue" points="174.65,-69.71 184.71,-66.38 174.77,-62.71 174.65,-69.71"/>
</g>
<!-- Node13 -->
<g id="node13" class="node">
<title>Node13</title>
<g id="a_node13"><a xlink:href="classqpalm_1_1Solver.html#a693af99e39a9035bbbc4fb61fcb427d1" target="_top" xlink:title=" ">
<polygon fill="white" stroke="black" points="15.5,-0.5 15.5,-30.5 133.5,-30.5 133.5,-0.5 15.5,-0.5"/>
<text text-anchor="start" x="23.5" y="-18.5" font-family="Helvetica,sans-Serif" font-size="10.00">qpalm::Solver::warm</text>
<text text-anchor="middle" x="74.5" y="-7.5" font-family="Helvetica,sans-Serif" font-size="10.00">_start</text>
</a>
</g>
</g>
<!-- Node12&#45;&gt;Node13 -->
<g id="edge12" class="edge">
<title>Node12&#45;&gt;Node13</title>
<path fill="none" stroke="midnightblue" d="M185.93,-21.21C168.88,-20.33 150.53,-19.38 133.78,-18.51"/>
<polygon fill="midnightblue" stroke="midnightblue" points="186.18,-24.73 196.35,-21.75 186.54,-17.74 186.18,-24.73"/>
</g>
</g>
</svg>
