<?xml version="1.0" encoding="UTF-8" standalone="no"?>
<!DOCTYPE svg PUBLIC "-//W3C//DTD SVG 1.1//EN"
 "http://www.w3.org/Graphics/SVG/1.1/DTD/svg11.dtd">
<!-- Generated by graphviz version 2.43.0 (0)
 -->
<!-- Title: update_gamma Pages: 1 -->
<svg width="859pt" height="73pt"
 viewBox="0.00 0.00 859.00 72.50" xmlns="http://www.w3.org/2000/svg" xmlns:xlink="http://www.w3.org/1999/xlink">
<g id="graph0" class="graph" transform="scale(1 1) rotate(0) translate(4 68.5)">
<title>update_gamma</title>
<!-- Node1 -->
<g id="Node000001" class="node">
<title>Node1</title>
<g id="a_Node000001"><a xlink:title="Update the proximal penalty.">
<polygon fill="#999999" stroke="#666666" points="851,-46.5 758,-46.5 758,-27.5 851,-27.5 851,-46.5"/>
<text text-anchor="middle" x="804.5" y="-34.5" font-family="Helvetica,sans-Serif" font-size="10.00">update_gamma</text>
</a>
</g>
</g>
<!-- Node2 -->
<g id="Node000002" class="node">
<title>Node2</title>
<g id="a_Node000002"><a xlink:href="group__solver-grp.html#ga17fcba910c32b8518df93617591b1cf1" target="_top" xlink:title="Solve the quadratic program.">
<polygon fill="white" stroke="#666666" points="231,-45.5 152,-45.5 152,-26.5 231,-26.5 231,-45.5"/>
<text text-anchor="middle" x="191.5" y="-33.5" font-family="Helvetica,sans-Serif" font-size="10.00">qpalm_solve</text>
</a>
</g>
</g>
<!-- Node1&#45;&gt;Node2 -->
<g id="edge1_Node000001_Node000002" class="edge">
<title>Node1&#45;&gt;Node2</title>
<g id="a_edge1_Node000001_Node000002"><a xlink:title=" ">
<path fill="none" stroke="#63b8ff" d="M747.71,-38.08C650.2,-39.78 442.43,-42.53 267,-39 255.35,-38.77 242.69,-38.33 231.16,-37.85"/>
<polygon fill="#63b8ff" stroke="#63b8ff" points="747.98,-41.58 757.92,-37.9 747.86,-34.58 747.98,-41.58"/>
</a>
</g>
</g>
<!-- Node5 -->
<g id="Node000005" class="node">
<title>Node5</title>
<g id="a_Node000005"><a xlink:href="iteration_8c.html#a95e8560aaf51a2c4f68de9b65b0c6a15" target="_top" xlink:title=" ">
<polygon fill="white" stroke="#666666" points="722,-27.5 582,-27.5 582,-8.5 722,-8.5 722,-27.5"/>
<text text-anchor="middle" x="652" y="-15.5" font-family="Helvetica,sans-Serif" font-size="10.00">update_or_boost_gamma</text>
</a>
</g>
</g>
<!-- Node1&#45;&gt;Node5 -->
<g id="edge4_Node000001_Node000005" class="edge">
<title>Node1&#45;&gt;Node5</title>
<g id="a_edge4_Node000001_Node000005"><a xlink:title=" ">
<path fill="none" stroke="#63b8ff" d="M747.87,-29.98C739.45,-28.91 730.68,-27.81 722.02,-26.71"/>
<polygon fill="#63b8ff" stroke="#63b8ff" points="747.58,-33.47 757.94,-31.25 748.45,-26.52 747.58,-33.47"/>
</a>
</g>
</g>
<!-- Node3 -->
<g id="Node000003" class="node">
<title>Node3</title>
<g id="a_Node000003"><a xlink:href="qpalm__fortran_8c.html#abec01161fcee665e126347b862c404c4" target="_top" xlink:title=" ">
<polygon fill="white" stroke="#666666" points="106,-64.5 10,-64.5 10,-45.5 106,-45.5 106,-64.5"/>
<text text-anchor="middle" x="58" y="-52.5" font-family="Helvetica,sans-Serif" font-size="10.00">qpalm_fortran_c</text>
</a>
</g>
</g>
<!-- Node2&#45;&gt;Node3 -->
<g id="edge2_Node000002_Node000003" class="edge">
<title>Node2&#45;&gt;Node3</title>
<g id="a_edge2_Node000002_Node000003"><a xlink:title=" ">
<path fill="none" stroke="#63b8ff" d="M141.8,-43.04C130.2,-44.71 117.85,-46.5 106.31,-48.16"/>
<polygon fill="#63b8ff" stroke="#63b8ff" points="142.36,-46.49 151.76,-41.6 141.36,-39.56 142.36,-46.49"/>
</a>
</g>
</g>
<!-- Node4 -->
<g id="Node000004" class="node">
<title>Node4</title>
<g id="a_Node000004"><a xlink:href="classqpalm_1_1Solver.html#a7d723d189a812ffa19d688b7aa38ccca" target="_top" xlink:title="Solve the problem.">
<polygon fill="white" stroke="#666666" points="116,-27.5 0,-27.5 0,-8.5 116,-8.5 116,-27.5"/>
<text text-anchor="middle" x="58" y="-15.5" font-family="Helvetica,sans-Serif" font-size="10.00">qpalm::Solver::solve</text>
</a>
</g>
</g>
<!-- Node2&#45;&gt;Node4 -->
<g id="edge3_Node000002_Node000004" class="edge">
<title>Node2&#45;&gt;Node4</title>
<g id="a_edge3_Node000002_Node000004"><a xlink:title=" ">
<path fill="none" stroke="#63b8ff" d="M141.62,-29.31C133.43,-28.19 124.86,-27.02 116.47,-25.87"/>
<polygon fill="#63b8ff" stroke="#63b8ff" points="141.37,-32.81 151.76,-30.7 142.32,-25.87 141.37,-32.81"/>
</a>
</g>
</g>
<!-- Node6 -->
<g id="Node000006" class="node">
<title>Node6</title>
<g id="a_Node000006"><a xlink:href="iteration_8c.html#a786f2d2af82a141fe3825a3964659d50" target="_top" xlink:title=" ">
<polygon fill="white" stroke="#666666" points="546,-30 417,-30 417,0 546,0 546,-30"/>
<text text-anchor="start" x="425" y="-18" font-family="Helvetica,sans-Serif" font-size="10.00">update_proximal_point</text>
<text text-anchor="middle" x="481.5" y="-7" font-family="Helvetica,sans-Serif" font-size="10.00">_and_penalty</text>
</a>
</g>
</g>
<!-- Node5&#45;&gt;Node6 -->
<g id="edge5_Node000005_Node000006" class="edge">
<title>Node5&#45;&gt;Node6</title>
<g id="a_edge5_Node000005_Node000006"><a xlink:title=" ">
<path fill="none" stroke="#63b8ff" d="M571.93,-16.59C563.33,-16.44 554.65,-16.28 546.26,-16.14"/>
<polygon fill="#63b8ff" stroke="#63b8ff" points="571.92,-20.09 581.98,-16.77 572.04,-13.09 571.92,-20.09"/>
</a>
</g>
</g>
<!-- Node7 -->
<g id="Node000007" class="node">
<title>Node7</title>
<g id="a_Node000007"><a xlink:href="iteration_8c.html#a1ad7b6cb4924a8de3378ed35890b02e7" target="_top" xlink:title=" ">
<polygon fill="white" stroke="#666666" points="381,-30 267,-30 267,0 381,0 381,-30"/>
<text text-anchor="start" x="275" y="-18" font-family="Helvetica,sans-Serif" font-size="10.00">update_dual_iterate</text>
<text text-anchor="middle" x="324" y="-7" font-family="Helvetica,sans-Serif" font-size="10.00">_and_parameters</text>
</a>
</g>
</g>
<!-- Node6&#45;&gt;Node7 -->
<g id="edge6_Node000006_Node000007" class="edge">
<title>Node6&#45;&gt;Node7</title>
<g id="a_edge6_Node000006_Node000007"><a xlink:title=" ">
<path fill="none" stroke="#63b8ff" d="M406.54,-15C398.07,-15 389.55,-15 381.37,-15"/>
<polygon fill="#63b8ff" stroke="#63b8ff" points="406.8,-18.5 416.8,-15 406.8,-11.5 406.8,-18.5"/>
</a>
</g>
</g>
<!-- Node7&#45;&gt;Node2 -->
<g id="edge7_Node000007_Node000002" class="edge">
<title>Node7&#45;&gt;Node2</title>
<g id="a_edge7_Node000007_Node000002"><a xlink:title=" ">
<path fill="none" stroke="#63b8ff" d="M256.98,-25.62C248.17,-27.04 239.38,-28.46 231.25,-29.77"/>
<polygon fill="#63b8ff" stroke="#63b8ff" points="257.58,-29.07 266.9,-24.03 256.47,-22.16 257.58,-29.07"/>
</a>
</g>
</g>
</g>
</svg>
