<?xml version="1.0" encoding="UTF-8" standalone="no"?>
<!DOCTYPE svg PUBLIC "-//W3C//DTD SVG 1.1//EN"
 "http://www.w3.org/Graphics/SVG/1.1/DTD/svg11.dtd">
<!-- Generated by graphviz version 2.43.0 (0)
 -->
<!-- Title: QPALM/src/linesearch.c Pages: 1 -->
<svg width="419pt" height="302pt"
 viewBox="0.00 0.00 419.00 302.00" xmlns="http://www.w3.org/2000/svg" xmlns:xlink="http://www.w3.org/1999/xlink">
<g id="graph0" class="graph" transform="scale(1 1) rotate(0) translate(4 298)">
<title>QPALM/src/linesearch.c</title>
<!-- Node1 -->
<g id="Node000001" class="node">
<title>Node1</title>
<g id="a_Node000001"><a xlink:title="Routines to perform exact or backtracking linesearch.">
<polygon fill="#999999" stroke="#666666" points="261.5,-294 132.5,-294 132.5,-275 261.5,-275 261.5,-294"/>
<text text-anchor="middle" x="197" y="-282" font-family="Helvetica,sans-Serif" font-size="10.00">QPALM/src/linesearch.c</text>
</a>
</g>
</g>
<!-- Node2 -->
<g id="Node000002" class="node">
<title>Node2</title>
<g id="a_Node000002"><a xlink:href="linesearch_8h.html" target="_top" xlink:title="Routines to perform exact linesearch.">
<polygon fill="white" stroke="#666666" points="110,-184 0,-184 0,-165 110,-165 110,-184"/>
<text text-anchor="middle" x="55" y="-172" font-family="Helvetica,sans-Serif" font-size="10.00">qpalm/linesearch.h</text>
</a>
</g>
</g>
<!-- Node1&#45;&gt;Node2 -->
<g id="edge1_Node000001_Node000002" class="edge">
<title>Node1&#45;&gt;Node2</title>
<g id="a_edge1_Node000001_Node000002"><a xlink:title=" ">
<path fill="none" stroke="#63b8ff" d="M185.38,-274.66C161.02,-256.14 104.41,-213.08 74.43,-190.28"/>
<polygon fill="#63b8ff" stroke="#63b8ff" points="76.46,-187.43 66.38,-184.16 72.22,-193 76.46,-187.43"/>
</a>
</g>
</g>
<!-- Node9 -->
<g id="Node000009" class="node">
<title>Node9</title>
<g id="a_Node000009"><a xlink:href="lin__alg_8h.html" target="_top" xlink:title="Linear algebra with vectors.">
<polygon fill="white" stroke="#666666" points="243,-239 151,-239 151,-220 243,-220 243,-239"/>
<text text-anchor="middle" x="197" y="-227" font-family="Helvetica,sans-Serif" font-size="10.00">qpalm/lin_alg.h</text>
</a>
</g>
</g>
<!-- Node1&#45;&gt;Node9 -->
<g id="edge10_Node000001_Node000009" class="edge">
<title>Node1&#45;&gt;Node9</title>
<g id="a_edge10_Node000001_Node000009"><a xlink:title=" ">
<path fill="none" stroke="#63b8ff" d="M197,-274.75C197,-267.8 197,-257.85 197,-249.13"/>
<polygon fill="#63b8ff" stroke="#63b8ff" points="200.5,-249.09 197,-239.09 193.5,-249.09 200.5,-249.09"/>
</a>
</g>
</g>
<!-- Node11 -->
<g id="Node000011" class="node">
<title>Node11</title>
<g id="a_Node000011"><a xlink:title=" ">
<polygon fill="#e0e0e0" stroke="#999999" points="314.5,-239 261.5,-239 261.5,-220 314.5,-220 314.5,-239"/>
<text text-anchor="middle" x="288" y="-227" font-family="Helvetica,sans-Serif" font-size="10.00">stdlib.h</text>
</a>
</g>
</g>
<!-- Node1&#45;&gt;Node11 -->
<g id="edge17_Node000001_Node000011" class="edge">
<title>Node1&#45;&gt;Node11</title>
<g id="a_edge17_Node000001_Node000011"><a xlink:title=" ">
<path fill="none" stroke="#63b8ff" d="M211.62,-274.98C225.86,-266.69 247.75,-253.94 264.45,-244.22"/>
<polygon fill="#63b8ff" stroke="#63b8ff" points="266.23,-247.23 273.11,-239.17 262.71,-241.18 266.23,-247.23"/>
</a>
</g>
</g>
<!-- Node3 -->
<g id="Node000003" class="node">
<title>Node3</title>
<g id="a_Node000003"><a xlink:href="types_8h.html" target="_top" xlink:title="Internal data structures used in QPALM.">
<polygon fill="white" stroke="#666666" points="280,-129 194,-129 194,-110 280,-110 280,-129"/>
<text text-anchor="middle" x="237" y="-117" font-family="Helvetica,sans-Serif" font-size="10.00">qpalm/types.h</text>
</a>
</g>
</g>
<!-- Node2&#45;&gt;Node3 -->
<g id="edge2_Node000002_Node000003" class="edge">
<title>Node2&#45;&gt;Node3</title>
<g id="a_edge2_Node000002_Node000003"><a xlink:title=" ">
<path fill="none" stroke="#63b8ff" d="M84.24,-164.98C115.06,-156.01 163.78,-141.82 197.89,-131.89"/>
<polygon fill="#63b8ff" stroke="#63b8ff" points="198.91,-135.24 207.53,-129.08 196.95,-128.52 198.91,-135.24"/>
</a>
</g>
</g>
<!-- Node8 -->
<g id="Node000008" class="node">
<title>Node8</title>
<g id="a_Node000008"><a xlink:href="constants_8h.html" target="_top" xlink:title="Constants used in QPALM.">
<polygon fill="white" stroke="#666666" points="108.5,-129 1.5,-129 1.5,-110 108.5,-110 108.5,-129"/>
<text text-anchor="middle" x="55" y="-117" font-family="Helvetica,sans-Serif" font-size="10.00">qpalm/constants.h</text>
</a>
</g>
</g>
<!-- Node2&#45;&gt;Node8 -->
<g id="edge8_Node000002_Node000008" class="edge">
<title>Node2&#45;&gt;Node8</title>
<g id="a_edge8_Node000002_Node000008"><a xlink:title=" ">
<path fill="none" stroke="#63b8ff" d="M55,-164.75C55,-157.8 55,-147.85 55,-139.13"/>
<polygon fill="#63b8ff" stroke="#63b8ff" points="58.5,-139.09 55,-129.09 51.5,-139.09 58.5,-139.09"/>
</a>
</g>
</g>
<!-- Node4 -->
<g id="Node000004" class="node">
<title>Node4</title>
<g id="a_Node000004"><a xlink:title=" ">
<polygon fill="#e0e0e0" stroke="#999999" points="239,-74 165,-74 165,-55 239,-55 239,-74"/>
<text text-anchor="middle" x="202" y="-62" font-family="Helvetica,sans-Serif" font-size="10.00">stdatomic.h</text>
</a>
</g>
</g>
<!-- Node3&#45;&gt;Node4 -->
<g id="edge3_Node000003_Node000004" class="edge">
<title>Node3&#45;&gt;Node4</title>
<g id="a_edge3_Node000003_Node000004"><a xlink:title=" ">
<path fill="none" stroke="#63b8ff" d="M231.22,-109.75C226.38,-102.42 219.32,-91.73 213.36,-82.7"/>
<polygon fill="#63b8ff" stroke="#63b8ff" points="216.1,-80.5 207.67,-74.09 210.26,-84.36 216.1,-80.5"/>
</a>
</g>
</g>
<!-- Node5 -->
<g id="Node000005" class="node">
<title>Node5</title>
<g id="a_Node000005"><a xlink:href="global__opts_8h.html" target="_top" xlink:title="Custom memory allocation, print and utility functions, and data types for floats and ints.">
<polygon fill="white" stroke="#666666" points="411,-74 295,-74 295,-55 411,-55 411,-74"/>
<text text-anchor="middle" x="353" y="-62" font-family="Helvetica,sans-Serif" font-size="10.00">qpalm/global_opts.h</text>
</a>
</g>
</g>
<!-- Node3&#45;&gt;Node5 -->
<g id="edge4_Node000003_Node000005" class="edge">
<title>Node3&#45;&gt;Node5</title>
<g id="a_edge4_Node000003_Node000005"><a xlink:title=" ">
<path fill="none" stroke="#63b8ff" d="M255.64,-109.98C274.3,-101.46 303.25,-88.23 324.74,-78.41"/>
<polygon fill="#63b8ff" stroke="#63b8ff" points="326.38,-81.51 334.02,-74.17 323.47,-75.14 326.38,-81.51"/>
</a>
</g>
</g>
<!-- Node6 -->
<g id="Node000006" class="node">
<title>Node6</title>
<g id="a_Node000006"><a xlink:title=" ">
<polygon fill="#e0e0e0" stroke="#999999" points="227,-19 177,-19 177,0 227,0 227,-19"/>
<text text-anchor="middle" x="202" y="-7" font-family="Helvetica,sans-Serif" font-size="10.00">ladel.h</text>
</a>
</g>
</g>
<!-- Node3&#45;&gt;Node6 -->
<g id="edge7_Node000003_Node000006" class="edge">
<title>Node3&#45;&gt;Node6</title>
<g id="a_edge7_Node000003_Node000006"><a xlink:title=" ">
<path fill="none" stroke="#63b8ff" d="M241.41,-109.94C247.23,-97.4 255.86,-73.54 248,-55 243.02,-43.25 233.25,-33.09 223.99,-25.45"/>
<polygon fill="#63b8ff" stroke="#63b8ff" points="225.85,-22.47 215.78,-19.18 221.6,-28.03 225.85,-22.47"/>
</a>
</g>
</g>
<!-- Node5&#45;&gt;Node6 -->
<g id="edge5_Node000005_Node000006" class="edge">
<title>Node5&#45;&gt;Node6</title>
<g id="a_edge5_Node000005_Node000006"><a xlink:title=" ">
<path fill="none" stroke="#63b8ff" d="M328.74,-54.98C303.68,-46.19 264.37,-32.39 236.17,-22.49"/>
<polygon fill="#63b8ff" stroke="#63b8ff" points="237.3,-19.18 226.7,-19.17 234.98,-25.78 237.3,-19.18"/>
</a>
</g>
</g>
<!-- Node7 -->
<g id="Node000007" class="node">
<title>Node7</title>
<g id="a_Node000007"><a xlink:title=" ">
<polygon fill="#e0e0e0" stroke="#999999" points="378.5,-19 327.5,-19 327.5,0 378.5,0 378.5,-19"/>
<text text-anchor="middle" x="353" y="-7" font-family="Helvetica,sans-Serif" font-size="10.00">math.h</text>
</a>
</g>
</g>
<!-- Node5&#45;&gt;Node7 -->
<g id="edge6_Node000005_Node000007" class="edge">
<title>Node5&#45;&gt;Node7</title>
<g id="a_edge6_Node000005_Node000007"><a xlink:title=" ">
<path fill="none" stroke="#63b8ff" d="M353,-54.75C353,-47.8 353,-37.85 353,-29.13"/>
<polygon fill="#63b8ff" stroke="#63b8ff" points="356.5,-29.09 353,-19.09 349.5,-29.09 356.5,-29.09"/>
</a>
</g>
</g>
<!-- Node8&#45;&gt;Node6 -->
<g id="edge9_Node000008_Node000006" class="edge">
<title>Node8&#45;&gt;Node6</title>
<g id="a_edge9_Node000008_Node000006"><a xlink:title=" ">
<path fill="none" stroke="#63b8ff" d="M63.22,-109.58C75.45,-96.59 99.54,-72.18 123,-55 139.3,-43.06 159.12,-31.91 174.82,-23.75"/>
<polygon fill="#63b8ff" stroke="#63b8ff" points="176.68,-26.74 184,-19.08 173.5,-20.5 176.68,-26.74"/>
</a>
</g>
</g>
<!-- Node9&#45;&gt;Node3 -->
<g id="edge11_Node000009_Node000003" class="edge">
<title>Node9&#45;&gt;Node3</title>
<g id="a_edge11_Node000009_Node000003"><a xlink:title=" ">
<path fill="none" stroke="#63b8ff" d="M226.5,-219.97C243.94,-213.24 264.59,-201.93 275,-184 284.6,-167.47 270.2,-148.7 256.46,-135.88"/>
<polygon fill="#63b8ff" stroke="#63b8ff" points="258.48,-133 248.63,-129.09 253.89,-138.28 258.48,-133"/>
</a>
</g>
</g>
<!-- Node10 -->
<g id="Node000010" class="node">
<title>Node10</title>
<g id="a_Node000010"><a xlink:href="solver__interface_8h.html" target="_top" xlink:title="Interface and wrapper to matrix/factorization (ladel) functions.">
<polygon fill="white" stroke="#666666" points="266,-184 128,-184 128,-165 266,-165 266,-184"/>
<text text-anchor="middle" x="197" y="-172" font-family="Helvetica,sans-Serif" font-size="10.00">qpalm/solver_interface.h</text>
</a>
</g>
</g>
<!-- Node9&#45;&gt;Node10 -->
<g id="edge12_Node000009_Node000010" class="edge">
<title>Node9&#45;&gt;Node10</title>
<g id="a_edge12_Node000009_Node000010"><a xlink:title=" ">
<path fill="none" stroke="#63b8ff" d="M197,-219.75C197,-212.8 197,-202.85 197,-194.13"/>
<polygon fill="#63b8ff" stroke="#63b8ff" points="200.5,-194.09 197,-184.09 193.5,-194.09 200.5,-194.09"/>
</a>
</g>
</g>
<!-- Node10&#45;&gt;Node3 -->
<g id="edge15_Node000010_Node000003" class="edge">
<title>Node10&#45;&gt;Node3</title>
<g id="a_edge15_Node000010_Node000003"><a xlink:title=" ">
<path fill="none" stroke="#63b8ff" d="M203.61,-164.75C209.26,-157.26 217.54,-146.28 224.45,-137.13"/>
<polygon fill="#63b8ff" stroke="#63b8ff" points="227.29,-139.18 230.52,-129.09 221.7,-134.96 227.29,-139.18"/>
</a>
</g>
</g>
<!-- Node10&#45;&gt;Node5 -->
<g id="edge13_Node000010_Node000005" class="edge">
<title>Node10&#45;&gt;Node5</title>
<g id="a_edge13_Node000010_Node000005"><a xlink:title=" ">
<path fill="none" stroke="#63b8ff" d="M219.7,-164.99C239.05,-157.18 267.13,-144.48 289,-129 308.25,-115.37 327.02,-95.78 339.2,-81.97"/>
<polygon fill="#63b8ff" stroke="#63b8ff" points="342,-84.08 345.88,-74.22 336.7,-79.51 342,-84.08"/>
</a>
</g>
</g>
<!-- Node10&#45;&gt;Node6 -->
<g id="edge16_Node000010_Node000006" class="edge">
<title>Node10&#45;&gt;Node6</title>
<g id="a_edge16_Node000010_Node000006"><a xlink:title=" ">
<path fill="none" stroke="#63b8ff" d="M189.53,-164.72C173.59,-144.86 139.01,-95.09 156,-55 160.98,-43.25 170.75,-33.09 180.01,-25.45"/>
<polygon fill="#63b8ff" stroke="#63b8ff" points="182.4,-28.03 188.22,-19.18 178.15,-22.47 182.4,-28.03"/>
</a>
</g>
</g>
<!-- Node10&#45;&gt;Node8 -->
<g id="edge14_Node000010_Node000008" class="edge">
<title>Node10&#45;&gt;Node8</title>
<g id="a_edge14_Node000010_Node000008"><a xlink:title=" ">
<path fill="none" stroke="#63b8ff" d="M174.19,-164.98C150.83,-156.27 114.3,-142.63 87.83,-132.75"/>
<polygon fill="#63b8ff" stroke="#63b8ff" points="88.82,-129.39 78.23,-129.17 86.37,-135.95 88.82,-129.39"/>
</a>
</g>
</g>
</g>
</svg>
