<?xml version="1.0" encoding="UTF-8" standalone="no"?>
<!DOCTYPE svg PUBLIC "-//W3C//DTD SVG 1.1//EN"
 "http://www.w3.org/Graphics/SVG/1.1/DTD/svg11.dtd">
<!-- Generated by graphviz version 2.43.0 (0)
 -->
<!-- Title: QPALM/src/qpalm.c Pages: 1 -->
<!--zoomable 412 -->

<svg id="main" version="1.1" xmlns="http://www.w3.org/2000/svg" xmlns:xlink="http://www.w3.org/1999/xlink" xml:space="preserve" onload="init(evt)">
<style type="text/css"><![CDATA[
.node, .edge {opacity: 0.7;}
.node.selected, .edge.selected {opacity: 1;}
.edge:hover path { stroke: red; }
.edge:hover polygon { stroke: red; fill: red; }
]]></style>

<defs>
  <circle id="rim" cx="0" cy="0" r="7"/>
  <circle id="rim2" cx="0" cy="0" r="3.5"/>
  <g id="zoomPlus">
    <use xlink:href="#rim" fill="#404040"><set attributeName="fill" to="#808080" begin="zoomplus.mouseover" end="zoomplus.mouseout"/></use>
    <path d="M-4,0h8M0,-4v8" fill="none" stroke="white" stroke-width="1.5" pointer-events="none"/>
  </g>
  <g id="zoomMin">
    <use xlink:href="#rim" fill="#404040"><set attributeName="fill" to="#808080" begin="zoomminus.mouseover" end="zoomminus.mouseout"/></use>
    <path d="M-4,0h8" fill="none" stroke="white" stroke-width="1.5" pointer-events="none"/>
  </g>
  <g id="arrowUp" transform="translate(30 24)">
    <use xlink:href="#rim"/>
    <path pointer-events="none" fill="none" stroke="white" stroke-width="1.5" d="M0,-3.0v7 M-2.5,-0.5L0,-3.0L2.5,-0.5"/>
  </g>
  <g id="arrowRight" transform="rotate(90) translate(36 -43)">
    <use xlink:href="#rim"/>
    <path pointer-events="none" fill="none" stroke="white" stroke-width="1.5" d="M0,-3.0v7 M-2.5,-0.5L0,-3.0L2.5,-0.5"/>
  </g>
  <g id="arrowDown" transform="rotate(180) translate(-30 -48)">
    <use xlink:href="#rim"/>
    <path pointer-events="none" fill="none" stroke="white" stroke-width="1.5" d="M0,-3.0v7 M-2.5,-0.5L0,-3.0L2.5,-0.5"/>
  </g>
  <g id="arrowLeft" transform="rotate(270) translate(-36 17)">
    <use xlink:href="#rim"/>
    <path pointer-events="none" fill="none" stroke="white" stroke-width="1.5" d="M0,-3.0v7 M-2.5,-0.5L0,-3.0L2.5,-0.5"/>
  </g>
  <g id="resetDef">
    <use xlink:href="#rim2" fill="#404040"><set attributeName="fill" to="#808080" begin="reset.mouseover" end="reset.mouseout"/></use>
  </g>
</defs>
<script type="application/ecmascript">
var viewWidth = 1186;
var viewHeight = 412;
var sectionId = 'dynsection-0';
</script>
<script type="application/ecmascript" xlink:href="svg.min.js"/>
<svg id="graph" class="graph">
<g id="viewport">
<title>QPALM/src/qpalm.c</title>
<!-- Node1 -->
<g id="Node000001" class="node">
<title>Node1</title>
<g id="a_Node000001"><a xlink:title="QPALM main solver API.">
<polygon fill="#999999" stroke="#666666" points="581,-404 471,-404 471,-385 581,-385 581,-404"/>
<text text-anchor="middle" x="526" y="-392" font-family="Helvetica,sans-Serif" font-size="10.00">QPALM/src/qpalm.c</text>
</a>
</g>
</g>
<!-- Node2 -->
<g id="Node000002" class="node">
<title>Node2</title>
<g id="a_Node000002"><a xlink:href="qpalm_8h.html" target="_top" xlink:title="QPALM main solver API.">
<polygon fill="white" stroke="#666666" points="588,-349 532,-349 532,-330 588,-330 588,-349"/>
<text text-anchor="middle" x="560" y="-337" font-family="Helvetica,sans-Serif" font-size="10.00">qpalm.h</text>
</a>
</g>
</g>
<!-- Node1&#45;&gt;Node2 -->
<g id="edge1_Node000001_Node000002" class="edge">
<title>Node1&#45;&gt;Node2</title>
<g id="a_edge1_Node000001_Node000002"><a xlink:title=" ">
<path fill="none" stroke="#63b8ff" d="M531.61,-384.75C536.32,-377.42 543.17,-366.73 548.97,-357.7"/>
<polygon fill="#63b8ff" stroke="#63b8ff" points="552.04,-359.4 554.49,-349.09 546.14,-355.62 552.04,-359.4"/>
</a>
</g>
</g>
<!-- Node3 -->
<g id="Node000003" class="node">
<title>Node3</title>
<g id="a_Node000003"><a xlink:href="constants_8h.html" target="_top" xlink:title="Constants used in QPALM.">
<polygon fill="white" stroke="#666666" points="288.5,-129 181.5,-129 181.5,-110 288.5,-110 288.5,-129"/>
<text text-anchor="middle" x="235" y="-117" font-family="Helvetica,sans-Serif" font-size="10.00">qpalm/constants.h</text>
</a>
</g>
</g>
<!-- Node1&#45;&gt;Node3 -->
<g id="edge41_Node000001_Node000003" class="edge">
<title>Node1&#45;&gt;Node3</title>
<g id="a_edge41_Node000001_Node000003"><a xlink:title=" ">
<path fill="none" stroke="#63b8ff" d="M470.97,-392.83C343.34,-389.8 38,-373.36 38,-285.5 38,-285.5 38,-285.5 38,-228.5 38,-166.59 113.73,-139.94 171.28,-128.62"/>
<polygon fill="#63b8ff" stroke="#63b8ff" points="172.23,-132 181.43,-126.74 170.96,-125.12 172.23,-132"/>
</a>
</g>
</g>
<!-- Node4 -->
<g id="Node000004" class="node">
<title>Node4</title>
<g id="a_Node000004"><a xlink:title=" ">
<polygon fill="#e0e0e0" stroke="#999999" points="440,-19 390,-19 390,0 440,0 440,-19"/>
<text text-anchor="middle" x="415" y="-7" font-family="Helvetica,sans-Serif" font-size="10.00">ladel.h</text>
</a>
</g>
</g>
<!-- Node1&#45;&gt;Node4 -->
<g id="edge52_Node000001_Node000004" class="edge">
<title>Node1&#45;&gt;Node4</title>
<g id="a_edge52_Node000001_Node000004"><a xlink:title=" ">
<path fill="none" stroke="#63b8ff" d="M470.71,-392.6C364.82,-390.16 137.67,-381.21 67,-349 29.67,-331.99 0,-326.53 0,-285.5 0,-285.5 0,-285.5 0,-118.5 0,-40.29 279.51,-17.71 379.75,-12.13"/>
<polygon fill="#63b8ff" stroke="#63b8ff" points="380.17,-15.61 389.97,-11.58 379.8,-8.62 380.17,-15.61"/>
</a>
</g>
</g>
<!-- Node5 -->
<g id="Node000005" class="node">
<title>Node5</title>
<g id="a_Node000005"><a xlink:href="global__opts_8h.html" target="_top" xlink:title="Custom memory allocation, print and utility functions, and data types for floats and ints.">
<polygon fill="white" stroke="#666666" points="797,-74 681,-74 681,-55 797,-55 797,-74"/>
<text text-anchor="middle" x="739" y="-62" font-family="Helvetica,sans-Serif" font-size="10.00">qpalm/global_opts.h</text>
</a>
</g>
</g>
<!-- Node1&#45;&gt;Node5 -->
<g id="edge40_Node000001_Node000005" class="edge">
<title>Node1&#45;&gt;Node5</title>
<g id="a_edge40_Node000001_Node000005"><a xlink:title=" ">
<path fill="none" stroke="#63b8ff" d="M581.32,-391.48C697.78,-386.81 964.69,-373.69 1052,-349 1112.34,-331.93 1178,-348.21 1178,-285.5 1178,-285.5 1178,-285.5 1178,-173.5 1178,-98.11 930.81,-75.05 807.4,-68.24"/>
<polygon fill="#63b8ff" stroke="#63b8ff" points="807.47,-64.74 797.3,-67.7 807.1,-71.73 807.47,-64.74"/>
</a>
</g>
</g>
<!-- Node7 -->
<g id="Node000007" class="node">
<title>Node7</title>
<g id="a_Node000007"><a xlink:href="iteration_8h.html" target="_top" xlink:title="QPALM main solver routines.">
<polygon fill="white" stroke="#666666" points="945.5,-239 844.5,-239 844.5,-220 945.5,-220 945.5,-239"/>
<text text-anchor="middle" x="895" y="-227" font-family="Helvetica,sans-Serif" font-size="10.00">qpalm/iteration.h</text>
</a>
</g>
</g>
<!-- Node1&#45;&gt;Node7 -->
<g id="edge51_Node000001_Node000007" class="edge">
<title>Node1&#45;&gt;Node7</title>
<g id="a_edge51_Node000001_Node000007"><a xlink:title=" ">
<path fill="none" stroke="#63b8ff" d="M581.16,-392.97C715.23,-390.39 1052.22,-375.74 1121,-294 1126.44,-287.54 1126.36,-281.52 1121,-275 1100.44,-250 1015.51,-238.82 955.84,-233.98"/>
<polygon fill="#63b8ff" stroke="#63b8ff" points="956,-230.49 945.76,-233.21 955.46,-237.46 956,-230.49"/>
</a>
</g>
</g>
<!-- Node10 -->
<g id="Node000010" class="node">
<title>Node10</title>
<g id="a_Node000010"><a xlink:href="lin__alg_8h.html" target="_top" xlink:title="Linear algebra with vectors.">
<polygon fill="white" stroke="#666666" points="636,-239 544,-239 544,-220 636,-220 636,-239"/>
<text text-anchor="middle" x="590" y="-227" font-family="Helvetica,sans-Serif" font-size="10.00">qpalm/lin_alg.h</text>
</a>
</g>
</g>
<!-- Node1&#45;&gt;Node10 -->
<g id="edge43_Node000001_Node000010" class="edge">
<title>Node1&#45;&gt;Node10</title>
<g id="a_edge43_Node000001_Node000010"><a xlink:title=" ">
<path fill="none" stroke="#63b8ff" d="M551.51,-384.9C567.69,-377.96 587.35,-366.44 597,-349 614.56,-317.27 604.67,-273.18 596.77,-248.7"/>
<polygon fill="#63b8ff" stroke="#63b8ff" points="600.07,-247.54 593.49,-239.23 593.46,-249.83 600.07,-247.54"/>
</a>
</g>
</g>
<!-- Node11 -->
<g id="Node000011" class="node">
<title>Node11</title>
<g id="a_Node000011"><a xlink:href="solver__interface_8h.html" target="_top" xlink:title="Interface and wrapper to matrix/factorization (ladel) functions.">
<polygon fill="white" stroke="#666666" points="484,-184 346,-184 346,-165 484,-165 484,-184"/>
<text text-anchor="middle" x="415" y="-172" font-family="Helvetica,sans-Serif" font-size="10.00">qpalm/solver_interface.h</text>
</a>
</g>
</g>
<!-- Node1&#45;&gt;Node11 -->
<g id="edge48_Node000001_Node000011" class="edge">
<title>Node1&#45;&gt;Node11</title>
<g id="a_edge48_Node000001_Node000011"><a xlink:title=" ">
<path fill="none" stroke="#63b8ff" d="M470.91,-391.65C405.13,-386.12 297.67,-365.87 247,-294 242.13,-287.1 242.82,-282.34 247,-275 273.83,-227.93 332.64,-200.85 373.04,-187.15"/>
<polygon fill="#63b8ff" stroke="#63b8ff" points="374.2,-190.45 382.63,-184.03 372.04,-183.79 374.2,-190.45"/>
</a>
</g>
</g>
<!-- Node12 -->
<g id="Node000012" class="node">
<title>Node12</title>
<g id="a_Node000012"><a xlink:href="linesearch_8h.html" target="_top" xlink:title="Routines to perform exact linesearch.">
<polygon fill="white" stroke="#666666" points="290,-184 180,-184 180,-165 290,-165 290,-184"/>
<text text-anchor="middle" x="235" y="-172" font-family="Helvetica,sans-Serif" font-size="10.00">qpalm/linesearch.h</text>
</a>
</g>
</g>
<!-- Node1&#45;&gt;Node12 -->
<g id="edge46_Node000001_Node000012" class="edge">
<title>Node1&#45;&gt;Node12</title>
<g id="a_edge46_Node000001_Node000012"><a xlink:title=" ">
<path fill="none" stroke="#63b8ff" d="M470.85,-393.09C418.62,-390.58 339.4,-381.12 279,-349 218.78,-316.98 197.66,-302.19 172,-239 168.82,-231.18 168.12,-227.5 172,-220 179.04,-206.41 192.34,-196.09 204.92,-188.82"/>
<polygon fill="#63b8ff" stroke="#63b8ff" points="206.67,-191.86 213.85,-184.07 203.38,-185.68 206.67,-191.86"/>
</a>
</g>
</g>
<!-- Node13 -->
<g id="Node000013" class="node">
<title>Node13</title>
<g id="a_Node000013"><a xlink:href="newton_8h.html" target="_top" xlink:title="Functions to calculate the semismooth Newton direction.">
<polygon fill="white" stroke="#666666" points="980.5,-294 885.5,-294 885.5,-275 980.5,-275 980.5,-294"/>
<text text-anchor="middle" x="933" y="-282" font-family="Helvetica,sans-Serif" font-size="10.00">qpalm/newton.h</text>
</a>
</g>
</g>
<!-- Node1&#45;&gt;Node13 -->
<g id="edge49_Node000001_Node000013" class="edge">
<title>Node1&#45;&gt;Node13</title>
<g id="a_edge49_Node000001_Node000013"><a xlink:title=" ">
<path fill="none" stroke="#63b8ff" d="M558.28,-384.94C631.3,-365.56 809.16,-318.36 890.79,-296.7"/>
<polygon fill="#63b8ff" stroke="#63b8ff" points="891.95,-300.01 900.72,-294.07 890.16,-293.25 891.95,-300.01"/>
</a>
</g>
</g>
<!-- Node14 -->
<g id="Node000014" class="node">
<title>Node14</title>
<g id="a_Node000014"><a xlink:href="nonconvex_8h.html" target="_top" xlink:title="Routines to deal with nonconvex QPs.">
<polygon fill="white" stroke="#666666" points="1111.5,-294 998.5,-294 998.5,-275 1111.5,-275 1111.5,-294"/>
<text text-anchor="middle" x="1055" y="-282" font-family="Helvetica,sans-Serif" font-size="10.00">qpalm/nonconvex.h</text>
</a>
</g>
</g>
<!-- Node1&#45;&gt;Node14 -->
<g id="edge50_Node000001_Node000014" class="edge">
<title>Node1&#45;&gt;Node14</title>
<g id="a_edge50_Node000001_Node000014"><a xlink:title=" ">
<path fill="none" stroke="#63b8ff" d="M567.95,-384.94C663.73,-365.38 898.29,-317.49 1003.02,-296.11"/>
<polygon fill="#63b8ff" stroke="#63b8ff" points="1003.95,-299.5 1013.04,-294.07 1002.55,-292.64 1003.95,-299.5"/>
</a>
</g>
</g>
<!-- Node15 -->
<g id="Node000015" class="node">
<title>Node15</title>
<g id="a_Node000015"><a xlink:href="scaling_8h.html" target="_top" xlink:title="Problem data scaling during setup.">
<polygon fill="white" stroke="#666666" points="522,-294 428,-294 428,-275 522,-275 522,-294"/>
<text text-anchor="middle" x="475" y="-282" font-family="Helvetica,sans-Serif" font-size="10.00">qpalm/scaling.h</text>
</a>
</g>
</g>
<!-- Node1&#45;&gt;Node15 -->
<g id="edge45_Node000001_Node000015" class="edge">
<title>Node1&#45;&gt;Node15</title>
<g id="a_edge45_Node000001_Node000015"><a xlink:title=" ">
<path fill="none" stroke="#63b8ff" d="M521.83,-384.66C513.45,-366.93 494.47,-326.73 483.41,-303.32"/>
<polygon fill="#63b8ff" stroke="#63b8ff" points="486.52,-301.71 479.09,-294.16 480.19,-304.7 486.52,-301.71"/>
</a>
</g>
</g>
<!-- Node16 -->
<g id="Node000016" class="node">
<title>Node16</title>
<g id="a_Node000016"><a xlink:href="termination_8h.html" target="_top" xlink:title="Routines to check the termination and infeasibility criteria.">
<polygon fill="white" stroke="#666666" points="372,-294 256,-294 256,-275 372,-275 372,-294"/>
<text text-anchor="middle" x="314" y="-282" font-family="Helvetica,sans-Serif" font-size="10.00">qpalm/termination.h</text>
</a>
</g>
</g>
<!-- Node1&#45;&gt;Node16 -->
<g id="edge47_Node000001_Node000016" class="edge">
<title>Node1&#45;&gt;Node16</title>
<g id="a_edge47_Node000001_Node000016"><a xlink:title=" ">
<path fill="none" stroke="#63b8ff" d="M509.01,-384.84C471.94,-365.96 383.6,-320.96 339.69,-298.59"/>
<polygon fill="#63b8ff" stroke="#63b8ff" points="341.28,-295.47 330.78,-294.05 338.1,-301.7 341.28,-295.47"/>
</a>
</g>
</g>
<!-- Node17 -->
<g id="Node000017" class="node">
<title>Node17</title>
<g id="a_Node000017"><a xlink:href="util_8h.html" target="_top" xlink:title="Utility functions.">
<polygon fill="white" stroke="#666666" points="255.5,-239 180.5,-239 180.5,-220 255.5,-220 255.5,-239"/>
<text text-anchor="middle" x="218" y="-227" font-family="Helvetica,sans-Serif" font-size="10.00">qpalm/util.h</text>
</a>
</g>
</g>
<!-- Node1&#45;&gt;Node17 -->
<g id="edge44_Node000001_Node000017" class="edge">
<title>Node1&#45;&gt;Node17</title>
<g id="a_edge44_Node000001_Node000017"><a xlink:title=" ">
<path fill="none" stroke="#63b8ff" d="M470.71,-393.92C390.16,-393.22 246.58,-386.56 214,-349 189.92,-321.24 201.37,-274.58 210.5,-248.87"/>
<polygon fill="#63b8ff" stroke="#63b8ff" points="213.88,-249.85 214.17,-239.26 207.34,-247.35 213.88,-249.85"/>
</a>
</g>
</g>
<!-- Node18 -->
<g id="Node000018" class="node">
<title>Node18</title>
<g id="a_Node000018"><a xlink:href="validate_8h.html" target="_top" xlink:title="Validation of the user provided settings and data.">
<polygon fill="white" stroke="#666666" points="867.5,-294 768.5,-294 768.5,-275 867.5,-275 867.5,-294"/>
<text text-anchor="middle" x="818" y="-282" font-family="Helvetica,sans-Serif" font-size="10.00">qpalm/validate.h</text>
</a>
</g>
</g>
<!-- Node1&#45;&gt;Node18 -->
<g id="edge42_Node000001_Node000018" class="edge">
<title>Node1&#45;&gt;Node18</title>
<g id="a_edge42_Node000001_Node000018"><a xlink:title=" ">
<path fill="none" stroke="#63b8ff" d="M549.4,-384.84C601.21,-365.68 725.72,-319.63 785.24,-297.62"/>
<polygon fill="#63b8ff" stroke="#63b8ff" points="786.73,-300.8 794.89,-294.05 784.3,-294.23 786.73,-300.8"/>
</a>
</g>
</g>
<!-- Node2&#45;&gt;Node3 -->
<g id="edge2_Node000002_Node000003" class="edge">
<title>Node2&#45;&gt;Node3</title>
<g id="a_edge2_Node000002_Node000003"><a xlink:title=" ">
<path fill="none" stroke="#63b8ff" d="M532,-337.06C461.89,-333.09 280.59,-320.49 227,-294 169.8,-265.72 133.1,-220.83 164,-165 171.84,-150.83 186.29,-140.57 200.11,-133.5"/>
<polygon fill="#63b8ff" stroke="#63b8ff" points="201.92,-136.52 209.49,-129.1 198.95,-130.18 201.92,-136.52"/>
</a>
</g>
</g>
<!-- Node2&#45;&gt;Node5 -->
<g id="edge4_Node000002_Node000005" class="edge">
<title>Node2&#45;&gt;Node5</title>
<g id="a_edge4_Node000002_Node000005"><a xlink:title=" ">
<path fill="none" stroke="#63b8ff" d="M579.06,-329.95C594.53,-322.27 616.14,-309.78 631,-294 691.33,-229.9 723.43,-125.95 734.49,-83.96"/>
<polygon fill="#63b8ff" stroke="#63b8ff" points="737.94,-84.61 737.01,-74.05 731.16,-82.88 737.94,-84.61"/>
</a>
</g>
</g>
<!-- Node2&#45;&gt;Node7 -->
<g id="edge7_Node000002_Node000007" class="edge">
<title>Node2&#45;&gt;Node7</title>
<g id="a_edge7_Node000002_Node000007"><a xlink:title=" ">
<path fill="none" stroke="#63b8ff" d="M588.24,-331.62C619.76,-323.67 672.1,-309.67 716,-294 736.06,-286.84 740.09,-282.56 760,-275 792.22,-262.76 829.46,-250.63 856.66,-242.14"/>
<polygon fill="#63b8ff" stroke="#63b8ff" points="858.05,-245.37 866.56,-239.06 855.97,-238.68 858.05,-245.37"/>
</a>
</g>
</g>
<!-- Node8 -->
<g id="Node000008" class="node">
<title>Node8</title>
<g id="a_Node000008"><a xlink:href="types_8h.html" target="_top" xlink:title="Internal data structures used in QPALM.">
<polygon fill="white" stroke="#666666" points="669,-129 583,-129 583,-110 669,-110 669,-129"/>
<text text-anchor="middle" x="626" y="-117" font-family="Helvetica,sans-Serif" font-size="10.00">qpalm/types.h</text>
</a>
</g>
</g>
<!-- Node2&#45;&gt;Node8 -->
<g id="edge34_Node000002_Node000008" class="edge">
<title>Node2&#45;&gt;Node8</title>
<g id="a_edge34_Node000002_Node000008"><a xlink:title=" ">
<path fill="none" stroke="#63b8ff" d="M571.36,-329.9C590.89,-314.32 630.14,-279.28 645,-239 657.57,-204.93 644.22,-162.32 634.41,-138.59"/>
<polygon fill="#63b8ff" stroke="#63b8ff" points="637.48,-136.87 630.26,-129.12 631.07,-139.68 637.48,-136.87"/>
</a>
</g>
</g>
<!-- Node2&#45;&gt;Node10 -->
<g id="edge13_Node000002_Node000010" class="edge">
<title>Node2&#45;&gt;Node10</title>
<g id="a_edge13_Node000002_Node000010"><a xlink:title=" ">
<path fill="none" stroke="#63b8ff" d="M562.46,-329.66C567.34,-312.09 578.35,-272.45 584.87,-248.95"/>
<polygon fill="#63b8ff" stroke="#63b8ff" points="588.29,-249.73 587.59,-239.16 581.55,-247.86 588.29,-249.73"/>
</a>
</g>
</g>
<!-- Node2&#45;&gt;Node11 -->
<g id="edge31_Node000002_Node000011" class="edge">
<title>Node2&#45;&gt;Node11</title>
<g id="a_edge31_Node000002_Node000011"><a xlink:title=" ">
<path fill="none" stroke="#63b8ff" d="M557.32,-329.64C553.13,-316.74 544.12,-292.43 531,-275 504.15,-239.31 462.45,-207.54 437.05,-189.96"/>
<polygon fill="#63b8ff" stroke="#63b8ff" points="438.72,-186.87 428.48,-184.15 434.79,-192.66 438.72,-186.87"/>
</a>
</g>
</g>
<!-- Node2&#45;&gt;Node12 -->
<g id="edge20_Node000002_Node000012" class="edge">
<title>Node2&#45;&gt;Node12</title>
<g id="a_edge20_Node000002_Node000012"><a xlink:title=" ">
<path fill="none" stroke="#63b8ff" d="M531.89,-331.99C502.82,-324.72 456.53,-311.62 419,-294 354.87,-263.89 286.54,-214.77 254.15,-190.31"/>
<polygon fill="#63b8ff" stroke="#63b8ff" points="256.08,-187.38 246.01,-184.1 251.84,-192.95 256.08,-187.38"/>
</a>
</g>
</g>
<!-- Node2&#45;&gt;Node13 -->
<g id="edge23_Node000002_Node000013" class="edge">
<title>Node2&#45;&gt;Node13</title>
<g id="a_edge23_Node000002_Node000013"><a xlink:title=" ">
<path fill="none" stroke="#63b8ff" d="M588,-334.68C641.66,-327.33 762.94,-310.6 875.21,-294.25"/>
<polygon fill="#63b8ff" stroke="#63b8ff" points="875.96,-297.68 885.35,-292.77 874.95,-290.75 875.96,-297.68"/>
</a>
</g>
</g>
<!-- Node2&#45;&gt;Node14 -->
<g id="edge25_Node000002_Node000014" class="edge">
<title>Node2&#45;&gt;Node14</title>
<g id="a_edge25_Node000002_Node000014"><a xlink:title=" ">
<path fill="none" stroke="#63b8ff" d="M588.2,-335.85C655.48,-329.46 830.92,-312.47 987.97,-294.21"/>
<polygon fill="#63b8ff" stroke="#63b8ff" points="988.76,-297.64 998.29,-293.01 987.95,-290.69 988.76,-297.64"/>
</a>
</g>
</g>
<!-- Node2&#45;&gt;Node15 -->
<g id="edge27_Node000002_Node000015" class="edge">
<title>Node2&#45;&gt;Node15</title>
<g id="a_edge27_Node000002_Node000015"><a xlink:title=" ">
<path fill="none" stroke="#63b8ff" d="M546.34,-329.98C533.16,-321.77 512.97,-309.18 497.43,-299.49"/>
<polygon fill="#63b8ff" stroke="#63b8ff" points="499.24,-296.49 488.91,-294.17 495.54,-302.43 499.24,-296.49"/>
</a>
</g>
</g>
<!-- Node2&#45;&gt;Node16 -->
<g id="edge32_Node000002_Node000016" class="edge">
<title>Node2&#45;&gt;Node16</title>
<g id="a_edge32_Node000002_Node000016"><a xlink:title=" ">
<path fill="none" stroke="#63b8ff" d="M531.78,-332.42C490.81,-323.59 414.24,-307.1 363.69,-296.21"/>
<polygon fill="#63b8ff" stroke="#63b8ff" points="364.14,-292.72 353.63,-294.04 362.67,-299.57 364.14,-292.72"/>
</a>
</g>
</g>
<!-- Node2&#45;&gt;Node17 -->
<g id="edge35_Node000002_Node000017" class="edge">
<title>Node2&#45;&gt;Node17</title>
<g id="a_edge35_Node000002_Node000017"><a xlink:title=" ">
<path fill="none" stroke="#63b8ff" d="M531.8,-337.88C463.55,-335.85 291.79,-327.47 247,-294 232.61,-283.25 225.16,-263.66 221.44,-249.07"/>
<polygon fill="#63b8ff" stroke="#63b8ff" points="224.82,-248.14 219.27,-239.12 217.98,-249.64 224.82,-248.14"/>
</a>
</g>
</g>
<!-- Node2&#45;&gt;Node18 -->
<g id="edge38_Node000002_Node000018" class="edge">
<title>Node2&#45;&gt;Node18</title>
<g id="a_edge38_Node000002_Node000018"><a xlink:title=" ">
<path fill="none" stroke="#63b8ff" d="M588.1,-332.73C630.8,-323.96 712.7,-307.13 766.34,-296.11"/>
<polygon fill="#63b8ff" stroke="#63b8ff" points="767.25,-299.5 776.34,-294.06 765.84,-292.64 767.25,-299.5"/>
</a>
</g>
</g>
<!-- Node3&#45;&gt;Node4 -->
<g id="edge3_Node000003_Node000004" class="edge">
<title>Node3&#45;&gt;Node4</title>
<g id="a_edge3_Node000003_Node000004"><a xlink:title=" ">
<path fill="none" stroke="#63b8ff" d="M249.43,-109.84C280.5,-91.2 353.98,-47.11 391.73,-24.46"/>
<polygon fill="#63b8ff" stroke="#63b8ff" points="393.73,-27.34 400.51,-19.2 390.13,-21.34 393.73,-27.34"/>
</a>
</g>
</g>
<!-- Node5&#45;&gt;Node4 -->
<g id="edge5_Node000005_Node000004" class="edge">
<title>Node5&#45;&gt;Node4</title>
<g id="a_edge5_Node000005_Node000004"><a xlink:title=" ">
<path fill="none" stroke="#63b8ff" d="M686.94,-54.98C620.43,-44.1 507.08,-25.56 450.02,-16.23"/>
<polygon fill="#63b8ff" stroke="#63b8ff" points="450.48,-12.76 440.04,-14.6 449.35,-19.67 450.48,-12.76"/>
</a>
</g>
</g>
<!-- Node6 -->
<g id="Node000006" class="node">
<title>Node6</title>
<g id="a_Node000006"><a xlink:title=" ">
<polygon fill="#e0e0e0" stroke="#999999" points="764.5,-19 713.5,-19 713.5,0 764.5,0 764.5,-19"/>
<text text-anchor="middle" x="739" y="-7" font-family="Helvetica,sans-Serif" font-size="10.00">math.h</text>
</a>
</g>
</g>
<!-- Node5&#45;&gt;Node6 -->
<g id="edge6_Node000005_Node000006" class="edge">
<title>Node5&#45;&gt;Node6</title>
<g id="a_edge6_Node000005_Node000006"><a xlink:title=" ">
<path fill="none" stroke="#63b8ff" d="M739,-54.75C739,-47.8 739,-37.85 739,-29.13"/>
<polygon fill="#63b8ff" stroke="#63b8ff" points="742.5,-29.09 739,-19.09 735.5,-29.09 742.5,-29.09"/>
</a>
</g>
</g>
<!-- Node7&#45;&gt;Node5 -->
<g id="edge12_Node000007_Node000005" class="edge">
<title>Node7&#45;&gt;Node5</title>
<g id="a_edge12_Node000007_Node000005"><a xlink:title=" ">
<path fill="none" stroke="#63b8ff" d="M890.9,-219.69C884.68,-206.85 871.98,-182.62 857,-165 827.62,-130.46 785.52,-98.11 760.36,-80.14"/>
<polygon fill="#63b8ff" stroke="#63b8ff" points="762.1,-77.09 751.91,-74.2 758.07,-82.81 762.1,-77.09"/>
</a>
</g>
</g>
<!-- Node7&#45;&gt;Node8 -->
<g id="edge8_Node000007_Node000008" class="edge">
<title>Node7&#45;&gt;Node8</title>
<g id="a_edge8_Node000007_Node000008"><a xlink:title=" ">
<path fill="none" stroke="#63b8ff" d="M888.87,-219.98C878.44,-206.13 855.83,-178.92 830,-165 782.73,-139.53 721.87,-128.64 678.96,-123.98"/>
<polygon fill="#63b8ff" stroke="#63b8ff" points="679.31,-120.49 669.01,-122.97 678.6,-127.46 679.31,-120.49"/>
</a>
</g>
</g>
<!-- Node8&#45;&gt;Node4 -->
<g id="edge11_Node000008_Node000004" class="edge">
<title>Node8&#45;&gt;Node4</title>
<g id="a_edge11_Node000008_Node000004"><a xlink:title=" ">
<path fill="none" stroke="#63b8ff" d="M609.09,-109.84C572.27,-91 484.64,-46.14 440.84,-23.73"/>
<polygon fill="#63b8ff" stroke="#63b8ff" points="442.19,-20.49 431.7,-19.05 439,-26.72 442.19,-20.49"/>
</a>
</g>
</g>
<!-- Node8&#45;&gt;Node5 -->
<g id="edge10_Node000008_Node000005" class="edge">
<title>Node8&#45;&gt;Node5</title>
<g id="a_edge10_Node000008_Node000005"><a xlink:title=" ">
<path fill="none" stroke="#63b8ff" d="M644.16,-109.98C662.25,-101.5 690.28,-88.35 711.19,-78.54"/>
<polygon fill="#63b8ff" stroke="#63b8ff" points="712.95,-81.59 720.51,-74.17 709.97,-75.25 712.95,-81.59"/>
</a>
</g>
</g>
<!-- Node9 -->
<g id="Node000009" class="node">
<title>Node9</title>
<g id="a_Node000009"><a xlink:title=" ">
<polygon fill="#e0e0e0" stroke="#999999" points="663,-74 589,-74 589,-55 663,-55 663,-74"/>
<text text-anchor="middle" x="626" y="-62" font-family="Helvetica,sans-Serif" font-size="10.00">stdatomic.h</text>
</a>
</g>
</g>
<!-- Node8&#45;&gt;Node9 -->
<g id="edge9_Node000008_Node000009" class="edge">
<title>Node8&#45;&gt;Node9</title>
<g id="a_edge9_Node000008_Node000009"><a xlink:title=" ">
<path fill="none" stroke="#63b8ff" d="M626,-109.75C626,-102.8 626,-92.85 626,-84.13"/>
<polygon fill="#63b8ff" stroke="#63b8ff" points="629.5,-84.09 626,-74.09 622.5,-84.09 629.5,-84.09"/>
</a>
</g>
</g>
<!-- Node10&#45;&gt;Node8 -->
<g id="edge14_Node000010_Node000008" class="edge">
<title>Node10&#45;&gt;Node8</title>
<g id="a_edge14_Node000010_Node000008"><a xlink:title=" ">
<path fill="none" stroke="#63b8ff" d="M592.95,-219.66C598.8,-202.09 612.02,-162.45 619.85,-138.95"/>
<polygon fill="#63b8ff" stroke="#63b8ff" points="623.27,-139.75 623.11,-129.16 616.63,-137.54 623.27,-139.75"/>
</a>
</g>
</g>
<!-- Node10&#45;&gt;Node11 -->
<g id="edge15_Node000010_Node000011" class="edge">
<title>Node10&#45;&gt;Node11</title>
<g id="a_edge15_Node000010_Node000011"><a xlink:title=" ">
<path fill="none" stroke="#63b8ff" d="M561.88,-219.98C532.38,-211.05 485.81,-196.94 453.03,-187.02"/>
<polygon fill="#63b8ff" stroke="#63b8ff" points="453.92,-183.63 443.34,-184.08 451.89,-190.33 453.92,-183.63"/>
</a>
</g>
</g>
<!-- Node11&#45;&gt;Node3 -->
<g id="edge17_Node000011_Node000003" class="edge">
<title>Node11&#45;&gt;Node3</title>
<g id="a_edge17_Node000011_Node000003"><a xlink:title=" ">
<path fill="none" stroke="#63b8ff" d="M386.08,-164.98C355.73,-156.05 307.83,-141.94 274.12,-132.02"/>
<polygon fill="#63b8ff" stroke="#63b8ff" points="274.73,-128.55 264.15,-129.08 272.75,-135.26 274.73,-128.55"/>
</a>
</g>
</g>
<!-- Node11&#45;&gt;Node4 -->
<g id="edge19_Node000011_Node000004" class="edge">
<title>Node11&#45;&gt;Node4</title>
<g id="a_edge19_Node000011_Node000004"><a xlink:title=" ">
<path fill="none" stroke="#63b8ff" d="M415,-164.74C415,-139.31 415,-65.08 415,-29.69"/>
<polygon fill="#63b8ff" stroke="#63b8ff" points="418.5,-29.31 415,-19.31 411.5,-29.31 418.5,-29.31"/>
</a>
</g>
</g>
<!-- Node11&#45;&gt;Node5 -->
<g id="edge16_Node000011_Node000005" class="edge">
<title>Node11&#45;&gt;Node5</title>
<g id="a_edge16_Node000011_Node000005"><a xlink:title=" ">
<path fill="none" stroke="#63b8ff" d="M434.31,-164.94C463.97,-151.98 522.68,-127.1 574,-110 613.54,-96.82 659.36,-84.71 692.67,-76.46"/>
<polygon fill="#63b8ff" stroke="#63b8ff" points="693.71,-79.81 702.59,-74.02 692.04,-73.01 693.71,-79.81"/>
</a>
</g>
</g>
<!-- Node11&#45;&gt;Node8 -->
<g id="edge18_Node000011_Node000008" class="edge">
<title>Node11&#45;&gt;Node8</title>
<g id="a_edge18_Node000011_Node000008"><a xlink:title=" ">
<path fill="none" stroke="#63b8ff" d="M448.9,-164.98C485.02,-155.91 542.32,-141.52 581.92,-131.57"/>
<polygon fill="#63b8ff" stroke="#63b8ff" points="582.99,-134.91 591.83,-129.08 581.28,-128.12 582.99,-134.91"/>
</a>
</g>
</g>
<!-- Node12&#45;&gt;Node3 -->
<g id="edge22_Node000012_Node000003" class="edge">
<title>Node12&#45;&gt;Node3</title>
<g id="a_edge22_Node000012_Node000003"><a xlink:title=" ">
<path fill="none" stroke="#63b8ff" d="M235,-164.75C235,-157.8 235,-147.85 235,-139.13"/>
<polygon fill="#63b8ff" stroke="#63b8ff" points="238.5,-139.09 235,-129.09 231.5,-139.09 238.5,-139.09"/>
</a>
</g>
</g>
<!-- Node12&#45;&gt;Node8 -->
<g id="edge21_Node000012_Node000008" class="edge">
<title>Node12&#45;&gt;Node8</title>
<g id="a_edge21_Node000012_Node000008"><a xlink:title=" ">
<path fill="none" stroke="#63b8ff" d="M290.19,-166.02C365.28,-155.84 498.75,-137.75 572.79,-127.71"/>
<polygon fill="#63b8ff" stroke="#63b8ff" points="573.4,-131.16 582.84,-126.35 572.46,-124.23 573.4,-131.16"/>
</a>
</g>
</g>
<!-- Node13&#45;&gt;Node8 -->
<g id="edge24_Node000013_Node000008" class="edge">
<title>Node13&#45;&gt;Node8</title>
<g id="a_edge24_Node000013_Node000008"><a xlink:title=" ">
<path fill="none" stroke="#63b8ff" d="M898.71,-275C871.57,-267.53 833.18,-255.32 802,-239 753.02,-213.36 748.15,-195.46 702,-165 685.2,-153.91 665.57,-142.46 650.48,-133.95"/>
<polygon fill="#63b8ff" stroke="#63b8ff" points="652.16,-130.88 641.73,-129.06 648.75,-136.99 652.16,-130.88"/>
</a>
</g>
</g>
<!-- Node14&#45;&gt;Node8 -->
<g id="edge26_Node000014_Node000008" class="edge">
<title>Node14&#45;&gt;Node8</title>
<g id="a_edge26_Node000014_Node000008"><a xlink:title=" ">
<path fill="none" stroke="#63b8ff" d="M1000.57,-274.99C945.69,-265.95 865.07,-251.31 836,-239 782.42,-216.31 778.89,-193.2 728,-165 705.49,-152.53 678.79,-140.98 658.35,-132.78"/>
<polygon fill="#63b8ff" stroke="#63b8ff" points="659.46,-129.46 648.87,-129.04 656.89,-135.97 659.46,-129.46"/>
</a>
</g>
</g>
<!-- Node15&#45;&gt;Node3 -->
<g id="edge30_Node000015_Node000003" class="edge">
<title>Node15&#45;&gt;Node3</title>
<g id="a_edge30_Node000015_Node000003"><a xlink:title=" ">
<path fill="none" stroke="#63b8ff" d="M462.43,-274.97C423.56,-248.57 304.96,-168.02 256.24,-134.93"/>
<polygon fill="#63b8ff" stroke="#63b8ff" points="257.97,-131.87 247.73,-129.15 254.04,-137.66 257.97,-131.87"/>
</a>
</g>
</g>
<!-- Node15&#45;&gt;Node8 -->
<g id="edge28_Node000015_Node000008" class="edge">
<title>Node15&#45;&gt;Node8</title>
<g id="a_edge28_Node000015_Node000008"><a xlink:title=" ">
<path fill="none" stroke="#63b8ff" d="M483.12,-274.74C507.29,-248.65 579.06,-171.17 610.71,-137"/>
<polygon fill="#63b8ff" stroke="#63b8ff" points="613.61,-139.02 617.84,-129.31 608.48,-134.26 613.61,-139.02"/>
</a>
</g>
</g>
<!-- Node15&#45;&gt;Node10 -->
<g id="edge29_Node000015_Node000010" class="edge">
<title>Node15&#45;&gt;Node10</title>
<g id="a_edge29_Node000015_Node000010"><a xlink:title=" ">
<path fill="none" stroke="#63b8ff" d="M493.48,-274.98C511.98,-266.46 540.68,-253.23 561.98,-243.41"/>
<polygon fill="#63b8ff" stroke="#63b8ff" points="563.57,-246.53 571.19,-239.17 560.64,-240.18 563.57,-246.53"/>
</a>
</g>
</g>
<!-- Node16&#45;&gt;Node8 -->
<g id="edge33_Node000016_Node000008" class="edge">
<title>Node16&#45;&gt;Node8</title>
<g id="a_edge33_Node000016_Node000008"><a xlink:title=" ">
<path fill="none" stroke="#63b8ff" d="M334.3,-275C372.54,-258.76 457.58,-221.58 526,-184 554.29,-168.46 585.48,-148.1 605.38,-134.68"/>
<polygon fill="#63b8ff" stroke="#63b8ff" points="607.38,-137.56 613.68,-129.04 603.44,-131.77 607.38,-137.56"/>
</a>
</g>
</g>
<!-- Node17&#45;&gt;Node3 -->
<g id="edge37_Node000017_Node000003" class="edge">
<title>Node17&#45;&gt;Node3</title>
<g id="a_edge37_Node000017_Node000003"><a xlink:title=" ">
<path fill="none" stroke="#63b8ff" d="M203.52,-219.84C185.93,-208.13 159.88,-186.27 171,-165 178.11,-151.39 191.49,-141.1 204.19,-133.87"/>
<polygon fill="#63b8ff" stroke="#63b8ff" points="205.98,-136.88 213.21,-129.13 202.73,-130.68 205.98,-136.88"/>
</a>
</g>
</g>
<!-- Node17&#45;&gt;Node8 -->
<g id="edge36_Node000017_Node000008" class="edge">
<title>Node17&#45;&gt;Node8</title>
<g id="a_edge36_Node000017_Node000008"><a xlink:title=" ">
<path fill="none" stroke="#63b8ff" d="M255.69,-225.82C309.41,-221.23 410.6,-209.75 493,-184 503.85,-180.61 563.78,-151.3 599.38,-133.71"/>
<polygon fill="#63b8ff" stroke="#63b8ff" points="601.31,-136.66 608.72,-129.09 598.2,-130.39 601.31,-136.66"/>
</a>
</g>
</g>
<!-- Node18&#45;&gt;Node8 -->
<g id="edge39_Node000018_Node000008" class="edge">
<title>Node18&#45;&gt;Node8</title>
<g id="a_edge39_Node000018_Node000008"><a xlink:title=" ">
<path fill="none" stroke="#63b8ff" d="M807.19,-274.7C796.24,-265.77 778.87,-251.52 764,-239 725.43,-206.52 716.27,-197.84 678,-165 666.59,-155.21 653.75,-144.22 643.69,-135.61"/>
<polygon fill="#63b8ff" stroke="#63b8ff" points="645.85,-132.86 635.98,-129.02 641.3,-138.18 645.85,-132.86"/>
</a>
</g>
</g>
</g>
</svg>

<g id="navigator" transform="translate(0 0)" fill="#404254">
  <rect fill="#f2f5e9" fill-opacity="0.5" stroke="#606060" stroke-width=".5" x="0" y="0" width="60" height="60"/>
  <use id="zoomplus" xlink:href="#zoomPlus" x="17" y="9" onmousedown="handleZoom(evt,'in')"/>
  <use id="zoomminus" xlink:href="#zoomMin" x="42" y="9" onmousedown="handleZoom(evt,'out')"/>
  <use id="reset" xlink:href="#resetDef" x="30" y="36" onmousedown="handleReset()"/>
   <use id="arrowup" xlink:href="#arrowUp" x="0" y="0" onmousedown="handlePan(0,-1)"/>
  <use id="arrowright" xlink:href="#arrowRight" x="0" y="0" onmousedown="handlePan(1,0)"/>
  <use id="arrowdown" xlink:href="#arrowDown" x="0" y="0" onmousedown="handlePan(0,1)"/>
  <use id="arrowleft" xlink:href="#arrowLeft" x="0" y="0" onmousedown="handlePan(-1,0)"/>
</g>
<svg viewBox="0 0 15 15" width="100%" height="30px" preserveAspectRatio="xMaxYMin meet">
 <g id="arrow_out" transform="scale(0.3 0.3)">
  <a xlink:href="qpalm_8c__incl_org.svg" target="_base">
   <rect id="button" ry="5" rx="5" y="6" x="6" height="38" width="38"
        fill="#f2f5e9" fill-opacity="0.5" stroke="#606060" stroke-width="1.0"/>
   <path id="arrow"
     d="M 11.500037,31.436501 C 11.940474,20.09759 22.043105,11.32322 32.158766,21.979434 L 37.068811,17.246167 C 37.068811,17.246167 37.088388,32 37.088388,32 L 22.160133,31.978069 C 22.160133,31.978069 26.997745,27.140456 26.997745,27.140456 C 18.528582,18.264221 13.291696,25.230495 11.500037,31.436501 z"
     style="fill:#404040;"/>
  </a>
 </g>
</svg>

<style type='text/css'>
<![CDATA[
[data-mouse-over-selected='false'] { opacity: 0.7; }
[data-mouse-over-selected='true']  { opacity: 1.0; }
]]>
</style>
<script type="application/ecmascript"><![CDATA[
document.addEventListener('DOMContentLoaded', (event) => {
  highlightEdges();
  highlightAdjacentNodes();
});
]]></script>
</svg>
