<?xml version="1.0" encoding="UTF-8" standalone="no"?>
<!DOCTYPE svg PUBLIC "-//W3C//DTD SVG 1.1//EN"
 "http://www.w3.org/Graphics/SVG/1.1/DTD/svg11.dtd">
<!-- Generated by graphviz version 2.43.0 (0)
 -->
<!-- Title: qpalm::Solver::update_Q_A Pages: 1 -->
<svg width="429pt" height="101pt"
 viewBox="0.00 0.00 429.00 101.00" xmlns="http://www.w3.org/2000/svg" xmlns:xlink="http://www.w3.org/1999/xlink">
<g id="graph0" class="graph" transform="scale(1 1) rotate(0) translate(4 97)">
<title>qpalm::Solver::update_Q_A</title>
<!-- Node1 -->
<g id="node1" class="node">
<title>Node1</title>
<g id="a_node1"><a xlink:title=" ">
<polygon fill="#999999" stroke="#666666" points="149,-56 0,-56 0,-37 149,-37 149,-56"/>
<text text-anchor="middle" x="74.5" y="-44" font-family="Helvetica,sans-Serif" font-size="10.00">qpalm::Solver::update_Q_A</text>
</a>
</g>
</g>
<!-- Node2 -->
<g id="node2" class="node">
<title>Node2</title>
<g id="a_node2"><a xlink:href="group__solver-grp.html#ga327c43b0d2f129fc32e8ef2a47e289af" target="_top" xlink:title="Update the matrix entries of Q and A.">
<polygon fill="white" stroke="#666666" points="296,-56 185,-56 185,-37 296,-37 296,-56"/>
<text text-anchor="middle" x="240.5" y="-44" font-family="Helvetica,sans-Serif" font-size="10.00">qpalm_update_Q_A</text>
</a>
</g>
</g>
<!-- Node1&#45;&gt;Node2 -->
<g id="edge1" class="edge">
<title>Node1&#45;&gt;Node2</title>
<path fill="none" stroke="#63b8ff" d="M149.34,-46.5C157.81,-46.5 166.39,-46.5 174.72,-46.5"/>
<polygon fill="#63b8ff" stroke="#63b8ff" points="174.73,-50 184.73,-46.5 174.73,-43 174.73,-50"/>
</g>
<!-- Node3 -->
<g id="node3" class="node">
<title>Node3</title>
<g id="a_node3"><a xlink:href="lin__alg_8c.html#acf468a60c38fbc58b6de539acb6f0a3b" target="_top" xlink:title="Copy vector a into preallocated vector b.">
<polygon fill="white" stroke="#666666" points="421,-93 332,-93 332,-74 421,-74 421,-93"/>
<text text-anchor="middle" x="376.5" y="-81" font-family="Helvetica,sans-Serif" font-size="10.00">prea_vec_copy</text>
</a>
</g>
</g>
<!-- Node2&#45;&gt;Node3 -->
<g id="edge2" class="edge">
<title>Node2&#45;&gt;Node3</title>
<path fill="none" stroke="#63b8ff" d="M276.01,-56.03C292.76,-60.65 313.08,-66.27 330.98,-71.21"/>
<polygon fill="#63b8ff" stroke="#63b8ff" points="330.07,-74.59 340.64,-73.88 331.94,-67.84 330.07,-74.59"/>
</g>
<!-- Node4 -->
<g id="node4" class="node">
<title>Node4</title>
<g id="a_node4"><a xlink:href="util_8h.html#aae57226ec767e15f27d88e97df093b41" target="_top" xlink:title="Start timer.">
<polygon fill="white" stroke="#666666" points="409,-56 344,-56 344,-37 409,-37 409,-56"/>
<text text-anchor="middle" x="376.5" y="-44" font-family="Helvetica,sans-Serif" font-size="10.00">qpalm_tic</text>
</a>
</g>
</g>
<!-- Node2&#45;&gt;Node4 -->
<g id="edge3" class="edge">
<title>Node2&#45;&gt;Node4</title>
<path fill="none" stroke="#63b8ff" d="M296,-46.5C308.56,-46.5 321.72,-46.5 333.64,-46.5"/>
<polygon fill="#63b8ff" stroke="#63b8ff" points="333.74,-50 343.74,-46.5 333.74,-43 333.74,-50"/>
</g>
<!-- Node5 -->
<g id="node5" class="node">
<title>Node5</title>
<g id="a_node5"><a xlink:href="util_8h.html#a6eecdaf6f3f1c4bf0ab1067a5e7e69da" target="_top" xlink:title="Report time in seconds since last call to qpalm_tic.">
<polygon fill="white" stroke="#666666" points="410.5,-19 342.5,-19 342.5,0 410.5,0 410.5,-19"/>
<text text-anchor="middle" x="376.5" y="-7" font-family="Helvetica,sans-Serif" font-size="10.00">qpalm_toc</text>
</a>
</g>
</g>
<!-- Node2&#45;&gt;Node5 -->
<g id="edge4" class="edge">
<title>Node2&#45;&gt;Node5</title>
<path fill="none" stroke="#63b8ff" d="M276.01,-36.97C293.28,-32.2 314.36,-26.38 332.66,-21.33"/>
<polygon fill="#63b8ff" stroke="#63b8ff" points="333.79,-24.65 342.49,-18.61 331.92,-17.9 333.79,-24.65"/>
</g>
</g>
</svg>
