<?xml version="1.0" encoding="UTF-8" standalone="no"?>
<!DOCTYPE svg PUBLIC "-//W3C//DTD SVG 1.1//EN"
 "http://www.w3.org/Graphics/SVG/1.1/DTD/svg11.dtd">
<!-- Generated by graphviz version 2.43.0 (0)
 -->
<!-- Title: update_proximal_point_and_penalty Pages: 1 -->
<svg width="606pt" height="226pt"
 viewBox="0.00 0.00 606.00 226.00" xmlns="http://www.w3.org/2000/svg" xmlns:xlink="http://www.w3.org/1999/xlink">
<g id="graph0" class="graph" transform="scale(1 1) rotate(0) translate(4 222)">
<title>update_proximal_point_and_penalty</title>
<!-- Node1 -->
<g id="node1" class="node">
<title>Node1</title>
<g id="a_node1"><a xlink:title=" ">
<polygon fill="#999999" stroke="#666666" points="129,-106.5 0,-106.5 0,-76.5 129,-76.5 129,-106.5"/>
<text text-anchor="start" x="8" y="-94.5" font-family="Helvetica,sans-Serif" font-size="10.00">update_proximal_point</text>
<text text-anchor="middle" x="64.5" y="-83.5" font-family="Helvetica,sans-Serif" font-size="10.00">_and_penalty</text>
</a>
</g>
</g>
<!-- Node2 -->
<g id="node2" class="node">
<title>Node2</title>
<g id="a_node2"><a xlink:href="lin__alg_8c.html#acf468a60c38fbc58b6de539acb6f0a3b" target="_top" xlink:title="Copy vector a into preallocated vector b.">
<polygon fill="white" stroke="#666666" points="279.5,-157 190.5,-157 190.5,-138 279.5,-138 279.5,-157"/>
<text text-anchor="middle" x="235" y="-145" font-family="Helvetica,sans-Serif" font-size="10.00">prea_vec_copy</text>
</a>
</g>
</g>
<!-- Node1&#45;&gt;Node2 -->
<g id="edge1" class="edge">
<title>Node1&#45;&gt;Node2</title>
<path fill="none" stroke="#63b8ff" d="M102.02,-106.55C120.68,-113.96 143.87,-122.73 165,-129.5 171.34,-131.53 178.05,-133.5 184.71,-135.35"/>
<polygon fill="#63b8ff" stroke="#63b8ff" points="183.81,-138.73 194.38,-137.96 185.64,-131.97 183.81,-138.73"/>
</g>
<!-- Node3 -->
<g id="node3" class="node">
<title>Node3</title>
<g id="a_node3"><a xlink:href="iteration_8c.html#a95e8560aaf51a2c4f68de9b65b0c6a15" target="_top" xlink:title=" ">
<polygon fill="white" stroke="#666666" points="305,-120 165,-120 165,-101 305,-101 305,-120"/>
<text text-anchor="middle" x="235" y="-108" font-family="Helvetica,sans-Serif" font-size="10.00">update_or_boost_gamma</text>
</a>
</g>
</g>
<!-- Node1&#45;&gt;Node3 -->
<g id="edge2" class="edge">
<title>Node1&#45;&gt;Node3</title>
<path fill="none" stroke="#63b8ff" d="M129.2,-98.68C137.58,-99.63 146.24,-100.6 154.83,-101.57"/>
<polygon fill="#63b8ff" stroke="#63b8ff" points="154.53,-105.06 164.86,-102.7 155.31,-98.11 154.53,-105.06"/>
</g>
<!-- Node11 -->
<g id="node11" class="node">
<title>Node11</title>
<g id="a_node11"><a xlink:href="lin__alg_8c.html#ab48ddb2d35dd1a04bd27f06cb49400cb" target="_top" xlink:title="Elementwise product, .">
<polygon fill="white" stroke="#666666" points="275,-83 195,-83 195,-64 275,-64 275,-83"/>
<text text-anchor="middle" x="235" y="-71" font-family="Helvetica,sans-Serif" font-size="10.00">vec_ew_prod</text>
</a>
</g>
</g>
<!-- Node1&#45;&gt;Node11 -->
<g id="edge12" class="edge">
<title>Node1&#45;&gt;Node11</title>
<path fill="none" stroke="#63b8ff" d="M129.2,-84.69C147.42,-82.75 167,-80.66 184.24,-78.82"/>
<polygon fill="#63b8ff" stroke="#63b8ff" points="185.08,-82.25 194.65,-77.7 184.33,-75.29 185.08,-82.25"/>
</g>
<!-- Node12 -->
<g id="node12" class="node">
<title>Node12</title>
<g id="a_node12"><a xlink:href="lin__alg_8c.html#ad69e3ef3b7360cd1d6262ee2f32fce83" target="_top" xlink:title="Infinity norm of a vector, .">
<polygon fill="white" stroke="#666666" points="276.5,-46 193.5,-46 193.5,-27 276.5,-27 276.5,-46"/>
<text text-anchor="middle" x="235" y="-34" font-family="Helvetica,sans-Serif" font-size="10.00">vec_norm_inf</text>
</a>
</g>
</g>
<!-- Node1&#45;&gt;Node12 -->
<g id="edge13" class="edge">
<title>Node1&#45;&gt;Node12</title>
<path fill="none" stroke="#63b8ff" d="M103.46,-76.36C121.89,-69.27 144.44,-60.99 165,-54.5 171.43,-52.47 178.24,-50.49 184.98,-48.64"/>
<polygon fill="#63b8ff" stroke="#63b8ff" points="186.01,-51.98 194.76,-46 184.19,-45.22 186.01,-51.98"/>
</g>
<!-- Node4 -->
<g id="node4" class="node">
<title>Node4</title>
<g id="a_node4"><a xlink:href="iteration_8c.html#addf0e547cbd4fd4b3bda2c1adccf22c8" target="_top" xlink:title="Maximize the proximal penalty.">
<polygon fill="white" stroke="#666666" points="447,-218 361,-218 361,-199 447,-199 447,-218"/>
<text text-anchor="middle" x="404" y="-206" font-family="Helvetica,sans-Serif" font-size="10.00">boost_gamma</text>
</a>
</g>
</g>
<!-- Node3&#45;&gt;Node4 -->
<g id="edge3" class="edge">
<title>Node3&#45;&gt;Node4</title>
<path fill="none" stroke="#63b8ff" d="M287.31,-120.08C293.6,-122.53 299.68,-125.62 305,-129.5 328.61,-146.71 318.29,-166.12 341,-184.5 346.01,-188.55 351.77,-191.97 357.73,-194.85"/>
<polygon fill="#63b8ff" stroke="#63b8ff" points="356.61,-198.18 367.18,-198.94 359.39,-191.76 356.61,-198.18"/>
</g>
<!-- Node6 -->
<g id="node6" class="node">
<title>Node6</title>
<g id="a_node6"><a xlink:href="lin__alg_8c.html#a0fde1aeeea954e43db160ec6e3697cd5" target="_top" xlink:title="Scaled addition of one vector to another vector, .">
<polygon fill="white" stroke="#666666" points="597.5,-180 503.5,-180 503.5,-161 597.5,-161 597.5,-180"/>
<text text-anchor="middle" x="550.5" y="-168" font-family="Helvetica,sans-Serif" font-size="10.00">vec_add_scaled</text>
</a>
</g>
</g>
<!-- Node3&#45;&gt;Node6 -->
<g id="edge10" class="edge">
<title>Node3&#45;&gt;Node6</title>
<path fill="none" stroke="#63b8ff" d="M277.88,-120.01C286.99,-122.63 296.45,-125.8 305,-129.5 322.21,-136.95 323.2,-145.61 341,-151.5 390.57,-167.91 450.16,-171.89 492.92,-172.22"/>
<polygon fill="#63b8ff" stroke="#63b8ff" points="493.13,-175.72 503.14,-172.23 493.14,-168.72 493.13,-175.72"/>
</g>
<!-- Node7 -->
<g id="node7" class="node">
<title>Node7</title>
<g id="a_node7"><a xlink:href="newton_8c.html#ae27a99e2b3249e8455b72c2e2a977dd8" target="_top" xlink:title="Computes the set of active constraints and stores it in work&#45;&gt;solver&#45;&gt;active_constraints.">
<polygon fill="white" stroke="#666666" points="467,-142 341,-142 341,-123 467,-123 467,-142"/>
<text text-anchor="middle" x="404" y="-130" font-family="Helvetica,sans-Serif" font-size="10.00">set_active_constraints</text>
</a>
</g>
</g>
<!-- Node3&#45;&gt;Node7 -->
<g id="edge6" class="edge">
<title>Node3&#45;&gt;Node7</title>
<path fill="none" stroke="#63b8ff" d="M305.37,-119.64C313.72,-120.74 322.26,-121.86 330.65,-122.97"/>
<polygon fill="#63b8ff" stroke="#63b8ff" points="330.41,-126.47 340.78,-124.3 331.32,-119.53 330.41,-126.47"/>
</g>
<!-- Node8 -->
<g id="node8" class="node">
<title>Node8</title>
<g id="a_node8"><a xlink:href="newton_8c.html#a43d518127e8561034e35ba18d0e15b31" target="_top" xlink:title="Determines the entering and leaving constraints and stores them in work&#45;&gt;solver&#45;&gt;enter and work&#45;&gt;solv...">
<polygon fill="white" stroke="#666666" points="463.5,-104.5 344.5,-104.5 344.5,-74.5 463.5,-74.5 463.5,-104.5"/>
<text text-anchor="start" x="352.5" y="-92.5" font-family="Helvetica,sans-Serif" font-size="10.00">set_entering_leaving</text>
<text text-anchor="middle" x="404" y="-81.5" font-family="Helvetica,sans-Serif" font-size="10.00">_constraints</text>
</a>
</g>
</g>
<!-- Node3&#45;&gt;Node8 -->
<g id="edge7" class="edge">
<title>Node3&#45;&gt;Node8</title>
<path fill="none" stroke="#63b8ff" d="M305.37,-101.78C314.91,-100.58 324.71,-99.34 334.24,-98.15"/>
<polygon fill="#63b8ff" stroke="#63b8ff" points="334.97,-101.58 344.46,-96.86 334.1,-94.64 334.97,-101.58"/>
</g>
<!-- Node9 -->
<g id="node9" class="node">
<title>Node9</title>
<g id="a_node9"><a xlink:href="iteration_8c.html#a2493eaf6f46fae7e188477e427acfece" target="_top" xlink:title="Update the proximal penalty.">
<polygon fill="white" stroke="#666666" points="450.5,-56 357.5,-56 357.5,-37 450.5,-37 450.5,-56"/>
<text text-anchor="middle" x="404" y="-44" font-family="Helvetica,sans-Serif" font-size="10.00">update_gamma</text>
</a>
</g>
</g>
<!-- Node3&#45;&gt;Node9 -->
<g id="edge8" class="edge">
<title>Node3&#45;&gt;Node9</title>
<path fill="none" stroke="#63b8ff" d="M282.91,-100.9C290.47,-98.61 298.09,-95.83 305,-92.5 323.01,-83.81 323.17,-74.57 341,-65.5 345.35,-63.29 350,-61.28 354.73,-59.47"/>
<polygon fill="#63b8ff" stroke="#63b8ff" points="356.21,-62.66 364.48,-56.04 353.88,-56.06 356.21,-62.66"/>
</g>
<!-- Node10 -->
<g id="node10" class="node">
<title>Node10</title>
<g id="a_node10"><a xlink:href="lin__alg_8c.html#a7b3d3b23f9254b8dc1bf53823ef42b42" target="_top" xlink:title="Elementwise division, .">
<polygon fill="white" stroke="#666666" points="441,-19 367,-19 367,0 441,0 441,-19"/>
<text text-anchor="middle" x="404" y="-7" font-family="Helvetica,sans-Serif" font-size="10.00">vec_ew_div</text>
</a>
</g>
</g>
<!-- Node3&#45;&gt;Node10 -->
<g id="edge11" class="edge">
<title>Node3&#45;&gt;Node10</title>
<path fill="none" stroke="#63b8ff" d="M290.38,-100.94C295.61,-98.69 300.6,-95.92 305,-92.5 331.09,-72.25 315.19,-48.1 341,-27.5 345.77,-23.69 351.32,-20.69 357.09,-18.32"/>
<polygon fill="#63b8ff" stroke="#63b8ff" points="358.63,-21.49 366.93,-14.91 356.34,-14.88 358.63,-21.49"/>
</g>
<!-- Node5 -->
<g id="node5" class="node">
<title>Node5</title>
<g id="a_node5"><a xlink:href="nonconvex_8c.html#ab2a80b1d0a937afe2f6731b182ed63ac" target="_top" xlink:title="Calculate the Gershgorin upper bound for the eigenvalues of a symmetric matrix.">
<polygon fill="white" stroke="#666666" points="598,-218 503,-218 503,-199 598,-199 598,-218"/>
<text text-anchor="middle" x="550.5" y="-206" font-family="Helvetica,sans-Serif" font-size="10.00">gershgorin_max</text>
</a>
</g>
</g>
<!-- Node4&#45;&gt;Node5 -->
<g id="edge4" class="edge">
<title>Node4&#45;&gt;Node5</title>
<path fill="none" stroke="#63b8ff" d="M447.18,-208.5C461.4,-208.5 477.5,-208.5 492.66,-208.5"/>
<polygon fill="#63b8ff" stroke="#63b8ff" points="492.96,-212 502.96,-208.5 492.96,-205 492.96,-212"/>
</g>
<!-- Node4&#45;&gt;Node6 -->
<g id="edge5" class="edge">
<title>Node4&#45;&gt;Node6</title>
<path fill="none" stroke="#63b8ff" d="M441.46,-198.91C460.27,-193.96 483.41,-187.88 503.45,-182.61"/>
<polygon fill="#63b8ff" stroke="#63b8ff" points="504.52,-185.95 513.3,-180.02 502.74,-179.18 504.52,-185.95"/>
</g>
<!-- Node9&#45;&gt;Node6 -->
<g id="edge9" class="edge">
<title>Node9&#45;&gt;Node6</title>
<path fill="none" stroke="#63b8ff" d="M448.26,-56.02C454.85,-58.5 461.34,-61.62 467,-65.5 500.12,-88.21 526.2,-128.27 539.6,-151.8"/>
<polygon fill="#63b8ff" stroke="#63b8ff" points="536.65,-153.71 544.54,-160.77 542.78,-150.32 536.65,-153.71"/>
</g>
</g>
</svg>
