<?xml version="1.0" encoding="UTF-8" standalone="no"?>
<!DOCTYPE svg PUBLIC "-//W3C//DTD SVG 1.1//EN"
 "http://www.w3.org/Graphics/SVG/1.1/DTD/svg11.dtd">
<!-- Generated by graphviz version 2.43.0 (0)
 -->
<!-- Title: initialize_sigma Pages: 1 -->
<svg width="238pt" height="212pt"
 viewBox="0.00 0.00 238.00 212.00" xmlns="http://www.w3.org/2000/svg" xmlns:xlink="http://www.w3.org/1999/xlink">
<g id="graph0" class="graph" transform="scale(1 1) rotate(0) translate(4 208)">
<title>initialize_sigma</title>
<!-- Node1 -->
<g id="node1" class="node">
<title>Node1</title>
<g id="a_node1"><a xlink:title="Initialize penalty factors from initial x.">
<polygon fill="#999999" stroke="#666666" points="94,-111 0,-111 0,-92 94,-92 94,-111"/>
<text text-anchor="middle" x="47" y="-99" font-family="Helvetica,sans-Serif" font-size="10.00">initialize_sigma</text>
</a>
</g>
</g>
<!-- Node2 -->
<g id="node2" class="node">
<title>Node2</title>
<g id="a_node2"><a xlink:href="lin__alg_8c.html#a0fde1aeeea954e43db160ec6e3697cd5" target="_top" xlink:title="Scaled addition of one vector to another vector, .">
<polygon fill="white" stroke="#666666" points="227,-204 133,-204 133,-185 227,-185 227,-204"/>
<text text-anchor="middle" x="180" y="-192" font-family="Helvetica,sans-Serif" font-size="10.00">vec_add_scaled</text>
</a>
</g>
</g>
<!-- Node1&#45;&gt;Node2 -->
<g id="edge1" class="edge">
<title>Node1&#45;&gt;Node2</title>
<path fill="none" stroke="#63b8ff" d="M56.16,-111.07C69.95,-126.71 99.34,-157.85 130,-176.5 132.5,-178.02 135.16,-179.45 137.88,-180.78"/>
<polygon fill="#63b8ff" stroke="#63b8ff" points="136.75,-184.1 147.31,-184.92 139.56,-177.69 136.75,-184.1"/>
</g>
<!-- Node3 -->
<g id="node3" class="node">
<title>Node3</title>
<g id="a_node3"><a xlink:href="lin__alg_8c.html#a93df027e9826a479bf77a0770817c71a" target="_top" xlink:title="Elementwise mid between vectors, .">
<polygon fill="white" stroke="#666666" points="230,-167 130,-167 130,-148 230,-148 230,-167"/>
<text text-anchor="middle" x="180" y="-155" font-family="Helvetica,sans-Serif" font-size="10.00">vec_ew_mid_vec</text>
</a>
</g>
</g>
<!-- Node1&#45;&gt;Node3 -->
<g id="edge2" class="edge">
<title>Node1&#45;&gt;Node3</title>
<path fill="none" stroke="#63b8ff" d="M67.35,-111.01C83.84,-118.99 108.26,-130.49 130,-139.5 133.96,-141.14 138.12,-142.79 142.28,-144.38"/>
<polygon fill="#63b8ff" stroke="#63b8ff" points="141.3,-147.75 151.89,-147.99 143.76,-141.2 141.3,-147.75"/>
</g>
<!-- Node4 -->
<g id="node4" class="node">
<title>Node4</title>
<g id="a_node4"><a xlink:href="lin__alg_8c.html#aebb20e932bc52e918667db2a70cb0781" target="_top" xlink:title="Elementwise reciprocal .">
<polygon fill="white" stroke="#666666" points="223,-130 137,-130 137,-111 223,-111 223,-130"/>
<text text-anchor="middle" x="180" y="-118" font-family="Helvetica,sans-Serif" font-size="10.00">vec_ew_recipr</text>
</a>
</g>
</g>
<!-- Node1&#45;&gt;Node4 -->
<g id="edge3" class="edge">
<title>Node1&#45;&gt;Node4</title>
<path fill="none" stroke="#63b8ff" d="M94.19,-108.2C104.68,-109.72 115.9,-111.35 126.63,-112.9"/>
<polygon fill="#63b8ff" stroke="#63b8ff" points="126.33,-116.4 136.73,-114.37 127.34,-109.47 126.33,-116.4"/>
</g>
<!-- Node5 -->
<g id="node5" class="node">
<title>Node5</title>
<g id="a_node5"><a xlink:href="lin__alg_8c.html#aff49f7b83b7dc6ec1b18557c9f4ea995" target="_top" xlink:title="Elementwise square root, .">
<polygon fill="white" stroke="#666666" points="218.5,-93 141.5,-93 141.5,-74 218.5,-74 218.5,-93"/>
<text text-anchor="middle" x="180" y="-81" font-family="Helvetica,sans-Serif" font-size="10.00">vec_ew_sqrt</text>
</a>
</g>
</g>
<!-- Node1&#45;&gt;Node5 -->
<g id="edge4" class="edge">
<title>Node1&#45;&gt;Node5</title>
<path fill="none" stroke="#63b8ff" d="M94.19,-95.15C106.27,-93.49 119.32,-91.7 131.47,-90.03"/>
<polygon fill="#63b8ff" stroke="#63b8ff" points="132,-93.49 141.43,-88.66 131.05,-86.56 132,-93.49"/>
</g>
<!-- Node6 -->
<g id="node6" class="node">
<title>Node6</title>
<g id="a_node6"><a xlink:href="lin__alg_8c.html#ab83e787c2e0edb5803a860b1c894f53d" target="_top" xlink:title="Inner product between two vectors, .">
<polygon fill="white" stroke="#666666" points="210.5,-56 149.5,-56 149.5,-37 210.5,-37 210.5,-56"/>
<text text-anchor="middle" x="180" y="-44" font-family="Helvetica,sans-Serif" font-size="10.00">vec_prod</text>
</a>
</g>
</g>
<!-- Node1&#45;&gt;Node6 -->
<g id="edge5" class="edge">
<title>Node1&#45;&gt;Node6</title>
<path fill="none" stroke="#63b8ff" d="M69.13,-91.92C85.62,-84.51 109.16,-74.11 130,-65.5 134.56,-63.62 139.37,-61.68 144.13,-59.8"/>
<polygon fill="#63b8ff" stroke="#63b8ff" points="145.69,-62.95 153.74,-56.05 143.15,-56.43 145.69,-62.95"/>
</g>
<!-- Node7 -->
<g id="node7" class="node">
<title>Node7</title>
<g id="a_node7"><a xlink:href="lin__alg_8c.html#a67ead739705f515285526db604c5bb7d" target="_top" xlink:title="Fill float vector with a scalar value.">
<polygon fill="white" stroke="#666666" points="224.5,-19 135.5,-19 135.5,0 224.5,0 224.5,-19"/>
<text text-anchor="middle" x="180" y="-7" font-family="Helvetica,sans-Serif" font-size="10.00">vec_set_scalar</text>
</a>
</g>
</g>
<!-- Node1&#45;&gt;Node7 -->
<g id="edge6" class="edge">
<title>Node1&#45;&gt;Node7</title>
<path fill="none" stroke="#63b8ff" d="M56.71,-91.77C70.81,-76.5 100.08,-46.79 130,-28.5 133.18,-26.55 136.6,-24.74 140.1,-23.08"/>
<polygon fill="#63b8ff" stroke="#63b8ff" points="141.66,-26.21 149.42,-19 138.86,-19.8 141.66,-26.21"/>
</g>
</g>
</svg>
