<?xml version="1.0" encoding="UTF-8" standalone="no"?>
<!DOCTYPE svg PUBLIC "-//W3C//DTD SVG 1.1//EN"
 "http://www.w3.org/Graphics/SVG/1.1/DTD/svg11.dtd">
<!-- Generated by graphviz version 2.43.0 (0)
 -->
<!-- Title: vec_ew_mid_vec Pages: 1 -->
<svg width="520pt" height="83pt"
 viewBox="0.00 0.00 520.00 83.00" xmlns="http://www.w3.org/2000/svg" xmlns:xlink="http://www.w3.org/1999/xlink">
<g id="graph0" class="graph" transform="scale(1 1) rotate(0) translate(4 79)">
<title>vec_ew_mid_vec</title>
<!-- Node1 -->
<g id="node1" class="node">
<title>Node1</title>
<g id="a_node1"><a xlink:title="Elementwise mid between vectors, .">
<polygon fill="#999999" stroke="#666666" points="512,-37 412,-37 412,-18 512,-18 512,-37"/>
<text text-anchor="middle" x="462" y="-25" font-family="Helvetica,sans-Serif" font-size="10.00">vec_ew_mid_vec</text>
</a>
</g>
</g>
<!-- Node2 -->
<g id="node2" class="node">
<title>Node2</title>
<g id="a_node2"><a xlink:href="iteration_8c.html#ae21af0f956f1ccf8ee41c4cf68698279" target="_top" xlink:title="Compute the residuals (in vector form)">
<polygon fill="white" stroke="#666666" points="376,-56 267,-56 267,-37 376,-37 376,-56"/>
<text text-anchor="middle" x="321.5" y="-44" font-family="Helvetica,sans-Serif" font-size="10.00">compute_residuals</text>
</a>
</g>
</g>
<!-- Node1&#45;&gt;Node2 -->
<g id="edge1" class="edge">
<title>Node1&#45;&gt;Node2</title>
<path fill="none" stroke="#63b8ff" d="M401.63,-35.64C393.21,-36.8 384.58,-37.98 376.26,-39.12"/>
<polygon fill="#63b8ff" stroke="#63b8ff" points="402.35,-39.08 411.78,-34.25 401.4,-32.14 402.35,-39.08"/>
</g>
<!-- Node6 -->
<g id="node6" class="node">
<title>Node6</title>
<g id="a_node6"><a xlink:href="iteration_8c.html#a155f5c99c7a442c554cca914de34eba7" target="_top" xlink:title="Initialize penalty factors from initial x.">
<polygon fill="white" stroke="#666666" points="368.5,-19 274.5,-19 274.5,0 368.5,0 368.5,-19"/>
<text text-anchor="middle" x="321.5" y="-7" font-family="Helvetica,sans-Serif" font-size="10.00">initialize_sigma</text>
</a>
</g>
</g>
<!-- Node1&#45;&gt;Node6 -->
<g id="edge5" class="edge">
<title>Node1&#45;&gt;Node6</title>
<path fill="none" stroke="#63b8ff" d="M401.78,-19.8C390.74,-18.37 379.36,-16.89 368.78,-15.51"/>
<polygon fill="#63b8ff" stroke="#63b8ff" points="401.41,-23.29 411.78,-21.1 402.31,-16.34 401.41,-23.29"/>
</g>
<!-- Node3 -->
<g id="node3" class="node">
<title>Node3</title>
<g id="a_node3"><a xlink:href="group__solver-grp.html#ga9bbc8b47dfd2e86a81dd77feb4077bde" target="_top" xlink:title="Solve the quadratic program.">
<polygon fill="white" stroke="#666666" points="231,-56 152,-56 152,-37 231,-37 231,-56"/>
<text text-anchor="middle" x="191.5" y="-44" font-family="Helvetica,sans-Serif" font-size="10.00">qpalm_solve</text>
</a>
</g>
</g>
<!-- Node2&#45;&gt;Node3 -->
<g id="edge2" class="edge">
<title>Node2&#45;&gt;Node3</title>
<path fill="none" stroke="#63b8ff" d="M256.7,-46.5C247.93,-46.5 239.16,-46.5 231.03,-46.5"/>
<polygon fill="#63b8ff" stroke="#63b8ff" points="256.96,-50 266.96,-46.5 256.96,-43 256.96,-50"/>
</g>
<!-- Node4 -->
<g id="node4" class="node">
<title>Node4</title>
<g id="a_node4"><a xlink:href="qpalm__fortran_8c.html#abec01161fcee665e126347b862c404c4" target="_top" xlink:title=" ">
<polygon fill="white" stroke="#666666" points="106,-75 10,-75 10,-56 106,-56 106,-75"/>
<text text-anchor="middle" x="58" y="-63" font-family="Helvetica,sans-Serif" font-size="10.00">qpalm_fortran_c</text>
</a>
</g>
</g>
<!-- Node3&#45;&gt;Node4 -->
<g id="edge3" class="edge">
<title>Node3&#45;&gt;Node4</title>
<path fill="none" stroke="#63b8ff" d="M141.8,-53.54C130.2,-55.21 117.85,-57 106.31,-58.66"/>
<polygon fill="#63b8ff" stroke="#63b8ff" points="142.36,-56.99 151.76,-52.1 141.36,-50.06 142.36,-56.99"/>
</g>
<!-- Node5 -->
<g id="node5" class="node">
<title>Node5</title>
<g id="a_node5"><a xlink:href="classqpalm_1_1Solver.html#a7d723d189a812ffa19d688b7aa38ccca" target="_top" xlink:title="Solve the problem.">
<polygon fill="white" stroke="#666666" points="116,-38 0,-38 0,-19 116,-19 116,-38"/>
<text text-anchor="middle" x="58" y="-26" font-family="Helvetica,sans-Serif" font-size="10.00">qpalm::Solver::solve</text>
</a>
</g>
</g>
<!-- Node3&#45;&gt;Node5 -->
<g id="edge4" class="edge">
<title>Node3&#45;&gt;Node5</title>
<path fill="none" stroke="#63b8ff" d="M141.62,-39.81C133.43,-38.69 124.86,-37.52 116.47,-36.37"/>
<polygon fill="#63b8ff" stroke="#63b8ff" points="141.37,-43.31 151.76,-41.2 142.32,-36.37 141.37,-43.31"/>
</g>
</g>
</svg>
