<?xml version="1.0" encoding="UTF-8" standalone="no"?>
<!DOCTYPE svg PUBLIC "-//W3C//DTD SVG 1.1//EN"
 "http://www.w3.org/Graphics/SVG/1.1/DTD/svg11.dtd">
<!-- Generated by graphviz version 2.43.0 (0)
 -->
<!-- Title: QPALM/src/nonconvex.c Pages: 1 -->
<svg width="394pt" height="302pt"
 viewBox="0.00 0.00 394.09 302.00" xmlns="http://www.w3.org/2000/svg" xmlns:xlink="http://www.w3.org/1999/xlink">
<g id="graph0" class="graph" transform="scale(1 1) rotate(0) translate(4 298)">
<title>QPALM/src/nonconvex.c</title>
<!-- Node1 -->
<g id="node1" class="node">
<title>Node1</title>
<g id="a_node1"><a xlink:title="Routines to deal with nonconvex QPs.">
<polygon fill="#999999" stroke="#666666" points="278.09,-294 146.09,-294 146.09,-275 278.09,-275 278.09,-294"/>
<text text-anchor="middle" x="212.09" y="-282" font-family="Helvetica,sans-Serif" font-size="10.00">QPALM/src/nonconvex.c</text>
</a>
</g>
</g>
<!-- Node2 -->
<g id="node2" class="node">
<title>Node2</title>
<g id="a_node2"><a xlink:href="nonconvex_8h.html" target="_top" xlink:title="Routines to deal with nonconvex QPs.">
<polygon fill="white" stroke="#666666" points="319.59,-239 240.59,-239 240.59,-220 319.59,-220 319.59,-239"/>
<text text-anchor="middle" x="280.09" y="-227" font-family="Helvetica,sans-Serif" font-size="10.00">nonconvex.h</text>
</a>
</g>
</g>
<!-- Node1&#45;&gt;Node2 -->
<g id="edge1" class="edge">
<title>Node1&#45;&gt;Node2</title>
<path fill="none" stroke="#63b8ff" d="M223.01,-274.98C233.16,-267.07 248.51,-255.11 260.73,-245.58"/>
<polygon fill="#63b8ff" stroke="#63b8ff" points="263.23,-248.08 268.96,-239.17 258.92,-242.56 263.23,-248.08"/>
</g>
<!-- Node3 -->
<g id="node3" class="node">
<title>Node3</title>
<g id="a_node3"><a xlink:href="types_8h.html" target="_top" xlink:title="Internal data structures used in QPALM.">
<polygon fill="white" stroke="#666666" points="237.59,-129 184.59,-129 184.59,-110 237.59,-110 237.59,-129"/>
<text text-anchor="middle" x="211.09" y="-117" font-family="Helvetica,sans-Serif" font-size="10.00">types.h</text>
</a>
</g>
</g>
<!-- Node1&#45;&gt;Node3 -->
<g id="edge7" class="edge">
<title>Node1&#45;&gt;Node3</title>
<path fill="none" stroke="#63b8ff" d="M212.03,-274.74C211.88,-249.31 211.42,-175.08 211.2,-139.69"/>
<polygon fill="#63b8ff" stroke="#63b8ff" points="214.7,-139.29 211.14,-129.31 207.7,-139.33 214.7,-139.29"/>
</g>
<!-- Node4 -->
<g id="node4" class="node">
<title>Node4</title>
<g id="a_node4"><a xlink:href="global__opts_8h.html" target="_top" xlink:title="Custom memory allocation, print and utility functions, and data types for floats and ints.">
<polygon fill="white" stroke="#666666" points="266.09,-74 184.09,-74 184.09,-55 266.09,-55 266.09,-74"/>
<text text-anchor="middle" x="225.09" y="-62" font-family="Helvetica,sans-Serif" font-size="10.00">global_opts.h</text>
</a>
</g>
</g>
<!-- Node1&#45;&gt;Node4 -->
<g id="edge10" class="edge">
<title>Node1&#45;&gt;Node4</title>
<path fill="none" stroke="#63b8ff" d="M272.66,-274.92C294.12,-268.65 316.13,-257.79 329.09,-239 368.28,-182.17 285.96,-110.31 245.63,-80.02"/>
<polygon fill="#63b8ff" stroke="#63b8ff" points="247.63,-77.14 237.5,-74.04 243.48,-82.78 247.63,-77.14"/>
</g>
<!-- Node6 -->
<g id="node6" class="node">
<title>Node6</title>
<g id="a_node6"><a xlink:title=" ">
<polygon fill="#e0e0e0" stroke="#999999" points="259.59,-19 208.59,-19 208.59,0 259.59,0 259.59,-19"/>
<text text-anchor="middle" x="234.09" y="-7" font-family="Helvetica,sans-Serif" font-size="10.00">math.h</text>
</a>
</g>
</g>
<!-- Node1&#45;&gt;Node6 -->
<g id="edge21" class="edge">
<title>Node1&#45;&gt;Node6</title>
<path fill="none" stroke="#63b8ff" d="M260.55,-274.95C312.04,-262.74 386.09,-234.88 386.09,-175.5 386.09,-175.5 386.09,-175.5 386.09,-118.5 386.09,-61.62 314.48,-31.94 269.56,-18.92"/>
<polygon fill="#63b8ff" stroke="#63b8ff" points="270.44,-15.53 259.87,-16.25 268.58,-22.28 270.44,-15.53"/>
</g>
<!-- Node7 -->
<g id="node7" class="node">
<title>Node7</title>
<g id="a_node7"><a xlink:href="constants_8h.html" target="_top" xlink:title="Constants used in QPALM.">
<polygon fill="white" stroke="#666666" points="79.59,-129 6.59,-129 6.59,-110 79.59,-110 79.59,-129"/>
<text text-anchor="middle" x="43.09" y="-117" font-family="Helvetica,sans-Serif" font-size="10.00">constants.h</text>
</a>
</g>
</g>
<!-- Node1&#45;&gt;Node7 -->
<g id="edge8" class="edge">
<title>Node1&#45;&gt;Node7</title>
<path fill="none" stroke="#63b8ff" d="M154.48,-274.95C103.53,-263.87 32.8,-238.97 3.09,-184 -6.08,-167.04 8.71,-148.47 22.83,-135.82"/>
<polygon fill="#63b8ff" stroke="#63b8ff" points="25.44,-138.2 30.88,-129.11 20.95,-132.83 25.44,-138.2"/>
</g>
<!-- Node8 -->
<g id="node8" class="node">
<title>Node8</title>
<g id="a_node8"><a xlink:href="lin__alg_8h.html" target="_top" xlink:title="Linear algebra with vectors.">
<polygon fill="white" stroke="#666666" points="184.09,-239 126.09,-239 126.09,-220 184.09,-220 184.09,-239"/>
<text text-anchor="middle" x="155.09" y="-227" font-family="Helvetica,sans-Serif" font-size="10.00">lin_alg.h</text>
</a>
</g>
</g>
<!-- Node1&#45;&gt;Node8 -->
<g id="edge11" class="edge">
<title>Node1&#45;&gt;Node8</title>
<path fill="none" stroke="#63b8ff" d="M202.93,-274.98C194.58,-267.23 182.05,-255.58 171.91,-246.14"/>
<polygon fill="#63b8ff" stroke="#63b8ff" points="174.12,-243.42 164.41,-239.17 169.35,-248.54 174.12,-243.42"/>
</g>
<!-- Node10 -->
<g id="node10" class="node">
<title>Node10</title>
<g id="a_node10"><a xlink:href="util_8h.html" target="_top" xlink:title="Utility functions.">
<polygon fill="white" stroke="#666666" points="53.59,-184 12.59,-184 12.59,-165 53.59,-165 53.59,-184"/>
<text text-anchor="middle" x="33.09" y="-172" font-family="Helvetica,sans-Serif" font-size="10.00">util.h</text>
</a>
</g>
</g>
<!-- Node1&#45;&gt;Node10 -->
<g id="edge18" class="edge">
<title>Node1&#45;&gt;Node10</title>
<path fill="none" stroke="#63b8ff" d="M190.68,-274.99C170.99,-266.82 141.26,-253.58 117.09,-239 92.82,-224.37 67.15,-204.18 50.67,-190.52"/>
<polygon fill="#63b8ff" stroke="#63b8ff" points="52.85,-187.79 42.94,-184.04 48.35,-193.15 52.85,-187.79"/>
</g>
<!-- Node2&#45;&gt;Node3 -->
<g id="edge2" class="edge">
<title>Node2&#45;&gt;Node3</title>
<path fill="none" stroke="#63b8ff" d="M278.05,-219.74C274.81,-206.96 267.64,-182.79 256.09,-165 249.03,-154.14 238.93,-143.84 230.08,-135.89"/>
<polygon fill="#63b8ff" stroke="#63b8ff" points="232.3,-133.18 222.43,-129.31 227.73,-138.48 232.3,-133.18"/>
</g>
<!-- Node3&#45;&gt;Node4 -->
<g id="edge3" class="edge">
<title>Node3&#45;&gt;Node4</title>
<path fill="none" stroke="#63b8ff" d="M213.4,-109.75C215.25,-102.72 217.92,-92.62 220.24,-83.84"/>
<polygon fill="#63b8ff" stroke="#63b8ff" points="223.65,-84.65 222.82,-74.09 216.88,-82.86 223.65,-84.65"/>
</g>
<!-- Node5 -->
<g id="node5" class="node">
<title>Node5</title>
<g id="a_node5"><a xlink:title=" ">
<polygon fill="#e0e0e0" stroke="#999999" points="171.09,-19 121.09,-19 121.09,0 171.09,0 171.09,-19"/>
<text text-anchor="middle" x="146.09" y="-7" font-family="Helvetica,sans-Serif" font-size="10.00">ladel.h</text>
</a>
</g>
</g>
<!-- Node3&#45;&gt;Node5 -->
<g id="edge6" class="edge">
<title>Node3&#45;&gt;Node5</title>
<path fill="none" stroke="#63b8ff" d="M202.93,-109.8C195.13,-101.17 183.35,-87.35 175.09,-74 166.12,-59.51 158.25,-41.78 152.98,-28.74"/>
<polygon fill="#63b8ff" stroke="#63b8ff" points="156.1,-27.1 149.2,-19.06 149.58,-29.65 156.1,-27.1"/>
</g>
<!-- Node4&#45;&gt;Node5 -->
<g id="edge4" class="edge">
<title>Node4&#45;&gt;Node5</title>
<path fill="none" stroke="#63b8ff" d="M212.39,-54.98C200.26,-46.84 181.73,-34.41 167.34,-24.76"/>
<polygon fill="#63b8ff" stroke="#63b8ff" points="169.26,-21.84 159.01,-19.17 165.36,-27.65 169.26,-21.84"/>
</g>
<!-- Node4&#45;&gt;Node6 -->
<g id="edge5" class="edge">
<title>Node4&#45;&gt;Node6</title>
<path fill="none" stroke="#63b8ff" d="M226.57,-54.75C227.75,-47.8 229.44,-37.85 230.92,-29.13"/>
<polygon fill="#63b8ff" stroke="#63b8ff" points="234.4,-29.53 232.63,-19.09 227.5,-28.36 234.4,-29.53"/>
</g>
<!-- Node7&#45;&gt;Node5 -->
<g id="edge9" class="edge">
<title>Node7&#45;&gt;Node5</title>
<path fill="none" stroke="#63b8ff" d="M51.51,-109.66C68.88,-91.46 108.85,-49.55 130.86,-26.47"/>
<polygon fill="#63b8ff" stroke="#63b8ff" points="133.46,-28.81 137.83,-19.16 128.39,-23.98 133.46,-28.81"/>
</g>
<!-- Node8&#45;&gt;Node3 -->
<g id="edge12" class="edge">
<title>Node8&#45;&gt;Node3</title>
<path fill="none" stroke="#63b8ff" d="M161.61,-219.97C168.1,-211.24 178.06,-197.15 185.09,-184 192.9,-169.39 199.89,-151.92 204.66,-139"/>
<polygon fill="#63b8ff" stroke="#63b8ff" points="208.02,-139.98 208.1,-129.38 201.43,-137.62 208.02,-139.98"/>
</g>
<!-- Node9 -->
<g id="node9" class="node">
<title>Node9</title>
<g id="a_node9"><a xlink:href="solver__interface_8h.html" target="_top" xlink:title="Interface and wrapper to matrix/factorization (ladel) functions.">
<polygon fill="white" stroke="#666666" points="176.09,-184 72.09,-184 72.09,-165 176.09,-165 176.09,-184"/>
<text text-anchor="middle" x="124.09" y="-172" font-family="Helvetica,sans-Serif" font-size="10.00">solver_interface.h</text>
</a>
</g>
</g>
<!-- Node8&#45;&gt;Node9 -->
<g id="edge13" class="edge">
<title>Node8&#45;&gt;Node9</title>
<path fill="none" stroke="#63b8ff" d="M149.97,-219.75C145.72,-212.49 139.56,-201.95 134.31,-192.98"/>
<polygon fill="#63b8ff" stroke="#63b8ff" points="137.18,-190.95 129.11,-184.09 131.14,-194.49 137.18,-190.95"/>
</g>
<!-- Node9&#45;&gt;Node3 -->
<g id="edge16" class="edge">
<title>Node9&#45;&gt;Node3</title>
<path fill="none" stroke="#63b8ff" d="M138.06,-164.98C151.56,-156.77 172.22,-144.18 188.13,-134.49"/>
<polygon fill="#63b8ff" stroke="#63b8ff" points="190.13,-137.36 196.85,-129.17 186.49,-131.38 190.13,-137.36"/>
</g>
<!-- Node9&#45;&gt;Node4 -->
<g id="edge14" class="edge">
<title>Node9&#45;&gt;Node4</title>
<path fill="none" stroke="#63b8ff" d="M130.27,-164.91C139.46,-152.35 157.55,-128.45 175.09,-110 184.87,-99.71 196.71,-89.1 206.41,-80.83"/>
<polygon fill="#63b8ff" stroke="#63b8ff" points="208.87,-83.33 214.28,-74.22 204.37,-77.97 208.87,-83.33"/>
</g>
<!-- Node9&#45;&gt;Node5 -->
<g id="edge17" class="edge">
<title>Node9&#45;&gt;Node5</title>
<path fill="none" stroke="#63b8ff" d="M125.27,-164.74C128.72,-139.2 138.81,-64.43 143.56,-29.23"/>
<polygon fill="#63b8ff" stroke="#63b8ff" points="147.03,-29.69 144.9,-19.31 140.09,-28.75 147.03,-29.69"/>
</g>
<!-- Node9&#45;&gt;Node7 -->
<g id="edge15" class="edge">
<title>Node9&#45;&gt;Node7</title>
<path fill="none" stroke="#63b8ff" d="M111.07,-164.98C98.63,-156.84 79.63,-144.41 64.88,-134.76"/>
<polygon fill="#63b8ff" stroke="#63b8ff" points="66.62,-131.72 56.34,-129.17 62.79,-137.57 66.62,-131.72"/>
</g>
<!-- Node10&#45;&gt;Node3 -->
<g id="edge19" class="edge">
<title>Node10&#45;&gt;Node3</title>
<path fill="none" stroke="#63b8ff" d="M53.85,-167.32C83.44,-158.51 138.18,-142.21 174.62,-131.36"/>
<polygon fill="#63b8ff" stroke="#63b8ff" points="175.79,-134.66 184.38,-128.45 173.8,-127.95 175.79,-134.66"/>
</g>
<!-- Node10&#45;&gt;Node7 -->
<g id="edge20" class="edge">
<title>Node10&#45;&gt;Node7</title>
<path fill="none" stroke="#63b8ff" d="M34.74,-164.75C36.05,-157.8 37.93,-147.85 39.57,-139.13"/>
<polygon fill="#63b8ff" stroke="#63b8ff" points="43.05,-139.56 41.47,-129.09 36.17,-138.27 43.05,-139.56"/>
</g>
</g>
</svg>
