<?xml version="1.0" encoding="UTF-8" standalone="no"?>
<!DOCTYPE svg PUBLIC "-//W3C//DTD SVG 1.1//EN"
 "http://www.w3.org/Graphics/SVG/1.1/DTD/svg11.dtd">
<!-- Generated by graphviz version 2.43.0 (0)
 -->
<!-- Title: QPALM/include/scaling.h Pages: 1 -->
<svg width="258pt" height="302pt"
 viewBox="0.00 0.00 257.50 302.00" xmlns="http://www.w3.org/2000/svg" xmlns:xlink="http://www.w3.org/1999/xlink">
<g id="graph0" class="graph" transform="scale(1 1) rotate(0) translate(4 298)">
<title>QPALM/include/scaling.h</title>
<!-- Node1 -->
<g id="node1" class="node">
<title>Node1</title>
<g id="a_node1"><a xlink:title="Problem data scaling during setup.">
<polygon fill="#999999" stroke="#666666" points="170.5,-294 35.5,-294 35.5,-275 170.5,-275 170.5,-294"/>
<text text-anchor="middle" x="103" y="-282" font-family="Helvetica,sans-Serif" font-size="10.00">QPALM/include/scaling.h</text>
</a>
</g>
</g>
<!-- Node2 -->
<g id="node2" class="node">
<title>Node2</title>
<g id="a_node2"><a xlink:href="types_8h.html" target="_top" xlink:title="Internal data structures used in QPALM.">
<polygon fill="white" stroke="#666666" points="80.5,-129 27.5,-129 27.5,-110 80.5,-110 80.5,-129"/>
<text text-anchor="middle" x="54" y="-117" font-family="Helvetica,sans-Serif" font-size="10.00">types.h</text>
</a>
</g>
</g>
<!-- Node1&#45;&gt;Node2 -->
<g id="edge1" class="edge">
<title>Node1&#45;&gt;Node2</title>
<path fill="none" stroke="#63b8ff" d="M92.61,-274.8C83.6,-266.59 71.09,-253.41 65,-239 51.11,-206.12 50.96,-163.66 52.33,-139.52"/>
<polygon fill="#63b8ff" stroke="#63b8ff" points="55.84,-139.49 53.07,-129.26 48.86,-138.98 55.84,-139.49"/>
</g>
<!-- Node6 -->
<g id="node6" class="node">
<title>Node6</title>
<g id="a_node6"><a xlink:href="lin__alg_8h.html" target="_top" xlink:title="Linear algebra with vectors.">
<polygon fill="white" stroke="#666666" points="132,-239 74,-239 74,-220 132,-220 132,-239"/>
<text text-anchor="middle" x="103" y="-227" font-family="Helvetica,sans-Serif" font-size="10.00">lin_alg.h</text>
</a>
</g>
</g>
<!-- Node1&#45;&gt;Node6 -->
<g id="edge6" class="edge">
<title>Node1&#45;&gt;Node6</title>
<path fill="none" stroke="#63b8ff" d="M103,-274.75C103,-267.8 103,-257.85 103,-249.13"/>
<polygon fill="#63b8ff" stroke="#63b8ff" points="106.5,-249.09 103,-239.09 99.5,-249.09 106.5,-249.09"/>
</g>
<!-- Node8 -->
<g id="node8" class="node">
<title>Node8</title>
<g id="a_node8"><a xlink:href="constants_8h.html" target="_top" xlink:title="Constants used in QPALM.">
<polygon fill="white" stroke="#666666" points="249.5,-129 176.5,-129 176.5,-110 249.5,-110 249.5,-129"/>
<text text-anchor="middle" x="213" y="-117" font-family="Helvetica,sans-Serif" font-size="10.00">constants.h</text>
</a>
</g>
</g>
<!-- Node1&#45;&gt;Node8 -->
<g id="edge14" class="edge">
<title>Node1&#45;&gt;Node8</title>
<path fill="none" stroke="#63b8ff" d="M113.83,-274.84C133.05,-258.91 173.13,-222.99 195,-184 202.8,-170.09 207.44,-152.53 210.05,-139.4"/>
<polygon fill="#63b8ff" stroke="#63b8ff" points="213.56,-139.67 211.85,-129.21 206.67,-138.45 213.56,-139.67"/>
</g>
<!-- Node3 -->
<g id="node3" class="node">
<title>Node3</title>
<g id="a_node3"><a xlink:href="global__opts_8h.html" target="_top" xlink:title="Custom memory allocation, print and utility functions, and data types for floats and ints.">
<polygon fill="white" stroke="#666666" points="82,-74 0,-74 0,-55 82,-55 82,-74"/>
<text text-anchor="middle" x="41" y="-62" font-family="Helvetica,sans-Serif" font-size="10.00">global_opts.h</text>
</a>
</g>
</g>
<!-- Node2&#45;&gt;Node3 -->
<g id="edge2" class="edge">
<title>Node2&#45;&gt;Node3</title>
<path fill="none" stroke="#63b8ff" d="M51.85,-109.75C50.13,-102.72 47.65,-92.62 45.5,-83.84"/>
<polygon fill="#63b8ff" stroke="#63b8ff" points="48.89,-82.97 43.11,-74.09 42.09,-84.63 48.89,-82.97"/>
</g>
<!-- Node4 -->
<g id="node4" class="node">
<title>Node4</title>
<g id="a_node4"><a xlink:title=" ">
<polygon fill="#e0e0e0" stroke="#999999" points="154,-19 104,-19 104,0 154,0 154,-19"/>
<text text-anchor="middle" x="129" y="-7" font-family="Helvetica,sans-Serif" font-size="10.00">ladel.h</text>
</a>
</g>
</g>
<!-- Node2&#45;&gt;Node4 -->
<g id="edge5" class="edge">
<title>Node2&#45;&gt;Node4</title>
<path fill="none" stroke="#63b8ff" d="M61.79,-109.95C69.58,-101.22 81.71,-87.12 91,-74 101.54,-59.13 112.06,-41.24 119.36,-28.25"/>
<polygon fill="#63b8ff" stroke="#63b8ff" points="122.47,-29.84 124.25,-19.4 116.35,-26.45 122.47,-29.84"/>
</g>
<!-- Node3&#45;&gt;Node4 -->
<g id="edge3" class="edge">
<title>Node3&#45;&gt;Node4</title>
<path fill="none" stroke="#63b8ff" d="M55.14,-54.98C68.79,-46.77 89.69,-34.18 105.78,-24.49"/>
<polygon fill="#63b8ff" stroke="#63b8ff" points="107.84,-27.33 114.6,-19.17 104.23,-21.33 107.84,-27.33"/>
</g>
<!-- Node5 -->
<g id="node5" class="node">
<title>Node5</title>
<g id="a_node5"><a xlink:title=" ">
<polygon fill="#e0e0e0" stroke="#999999" points="66.5,-19 15.5,-19 15.5,0 66.5,0 66.5,-19"/>
<text text-anchor="middle" x="41" y="-7" font-family="Helvetica,sans-Serif" font-size="10.00">math.h</text>
</a>
</g>
</g>
<!-- Node3&#45;&gt;Node5 -->
<g id="edge4" class="edge">
<title>Node3&#45;&gt;Node5</title>
<path fill="none" stroke="#63b8ff" d="M41,-54.75C41,-47.8 41,-37.85 41,-29.13"/>
<polygon fill="#63b8ff" stroke="#63b8ff" points="44.5,-29.09 41,-19.09 37.5,-29.09 44.5,-29.09"/>
</g>
<!-- Node6&#45;&gt;Node2 -->
<g id="edge7" class="edge">
<title>Node6&#45;&gt;Node2</title>
<path fill="none" stroke="#63b8ff" d="M95.95,-219.78C89.25,-211.14 79.3,-197.31 73,-184 66.15,-169.52 61.13,-152.01 57.98,-139.05"/>
<polygon fill="#63b8ff" stroke="#63b8ff" points="61.32,-137.99 55.69,-129.02 54.5,-139.54 61.32,-137.99"/>
</g>
<!-- Node7 -->
<g id="node7" class="node">
<title>Node7</title>
<g id="a_node7"><a xlink:href="solver__interface_8h.html" target="_top" xlink:title="Interface and wrapper to matrix/factorization (ladel) functions.">
<polygon fill="white" stroke="#666666" points="186,-184 82,-184 82,-165 186,-165 186,-184"/>
<text text-anchor="middle" x="134" y="-172" font-family="Helvetica,sans-Serif" font-size="10.00">solver_interface.h</text>
</a>
</g>
</g>
<!-- Node6&#45;&gt;Node7 -->
<g id="edge8" class="edge">
<title>Node6&#45;&gt;Node7</title>
<path fill="none" stroke="#63b8ff" d="M108.12,-219.75C112.36,-212.49 118.53,-201.95 123.78,-192.98"/>
<polygon fill="#63b8ff" stroke="#63b8ff" points="126.95,-194.49 128.98,-184.09 120.91,-190.95 126.95,-194.49"/>
</g>
<!-- Node7&#45;&gt;Node2 -->
<g id="edge12" class="edge">
<title>Node7&#45;&gt;Node2</title>
<path fill="none" stroke="#63b8ff" d="M121.15,-164.98C108.86,-156.84 90.09,-144.41 75.52,-134.76"/>
<polygon fill="#63b8ff" stroke="#63b8ff" points="77.36,-131.78 67.09,-129.17 73.49,-137.61 77.36,-131.78"/>
</g>
<!-- Node7&#45;&gt;Node3 -->
<g id="edge9" class="edge">
<title>Node7&#45;&gt;Node3</title>
<path fill="none" stroke="#63b8ff" d="M128.7,-164.87C120.77,-152.25 105.03,-128.29 89,-110 79.84,-99.56 68.49,-88.95 59.13,-80.7"/>
<polygon fill="#63b8ff" stroke="#63b8ff" points="61.37,-78.02 51.51,-74.14 56.8,-83.32 61.37,-78.02"/>
</g>
<!-- Node7&#45;&gt;Node4 -->
<g id="edge13" class="edge">
<title>Node7&#45;&gt;Node4</title>
<path fill="none" stroke="#63b8ff" d="M133.73,-164.74C132.95,-139.31 130.67,-65.08 129.59,-29.69"/>
<polygon fill="#63b8ff" stroke="#63b8ff" points="133.08,-29.19 129.27,-19.31 126.08,-29.41 133.08,-29.19"/>
</g>
<!-- Node7&#45;&gt;Node8 -->
<g id="edge10" class="edge">
<title>Node7&#45;&gt;Node8</title>
<path fill="none" stroke="#63b8ff" d="M146.69,-164.98C158.83,-156.84 177.36,-144.41 191.75,-134.76"/>
<polygon fill="#63b8ff" stroke="#63b8ff" points="193.72,-137.65 200.08,-129.17 189.82,-131.84 193.72,-137.65"/>
</g>
<!-- Node8&#45;&gt;Node4 -->
<g id="edge11" class="edge">
<title>Node8&#45;&gt;Node4</title>
<path fill="none" stroke="#63b8ff" d="M206.13,-109.66C192.09,-91.61 159.94,-50.28 141.89,-27.08"/>
<polygon fill="#63b8ff" stroke="#63b8ff" points="144.64,-24.9 135.73,-19.16 139.11,-29.2 144.64,-24.9"/>
</g>
</g>
</svg>
