<?xml version="1.0" encoding="UTF-8" standalone="no"?>
<!DOCTYPE svg PUBLIC "-//W3C//DTD SVG 1.1//EN"
 "http://www.w3.org/Graphics/SVG/1.1/DTD/svg11.dtd">
<!-- Generated by graphviz version 2.43.0 (0)
 -->
<!-- Title: kkt_solve Pages: 1 -->
<svg width="227pt" height="101pt"
 viewBox="0.00 0.00 227.00 101.00" xmlns="http://www.w3.org/2000/svg" xmlns:xlink="http://www.w3.org/1999/xlink">
<g id="graph0" class="graph" transform="scale(1 1) rotate(0) translate(4 97)">
<title>kkt_solve</title>
<!-- Node1 -->
<g id="node1" class="node">
<title>Node1</title>
<g id="a_node1"><a xlink:title="Solve the KKT system &#160;.">
<polygon fill="#999999" stroke="#666666" points="64,-56 0,-56 0,-37 64,-37 64,-56"/>
<text text-anchor="middle" x="32" y="-44" font-family="Helvetica,sans-Serif" font-size="10.00">kkt_solve</text>
</a>
</g>
</g>
<!-- Node2 -->
<g id="node2" class="node">
<title>Node2</title>
<g id="a_node2"><a xlink:href="lin__alg_8c.html#acf468a60c38fbc58b6de539acb6f0a3b" target="_top" xlink:title="Copy vector a into preallocated vector b.">
<polygon fill="white" stroke="#666666" points="204,-93 115,-93 115,-74 204,-74 204,-93"/>
<text text-anchor="middle" x="159.5" y="-81" font-family="Helvetica,sans-Serif" font-size="10.00">prea_vec_copy</text>
</a>
</g>
</g>
<!-- Node1&#45;&gt;Node2 -->
<g id="edge1" class="edge">
<title>Node1&#45;&gt;Node2</title>
<path fill="none" stroke="#63b8ff" d="M64.02,-55.65C79.8,-60.3 99.21,-66.02 116.32,-71.06"/>
<polygon fill="#63b8ff" stroke="#63b8ff" points="115.5,-74.47 126.08,-73.94 117.48,-67.76 115.5,-74.47"/>
</g>
<!-- Node3 -->
<g id="node3" class="node">
<title>Node3</title>
<g id="a_node3"><a xlink:href="lin__alg_8c.html#a932b289ad07aea70e64b417ef9160674" target="_top" xlink:title="Mulitply vector with a constant scale factor.">
<polygon fill="white" stroke="#666666" points="219,-56 100,-56 100,-37 219,-37 219,-56"/>
<text text-anchor="middle" x="159.5" y="-44" font-family="Helvetica,sans-Serif" font-size="10.00">vec_self_mult_scalar</text>
</a>
</g>
</g>
<!-- Node1&#45;&gt;Node3 -->
<g id="edge2" class="edge">
<title>Node1&#45;&gt;Node3</title>
<path fill="none" stroke="#63b8ff" d="M64.02,-46.5C71.93,-46.5 80.76,-46.5 89.75,-46.5"/>
<polygon fill="#63b8ff" stroke="#63b8ff" points="89.93,-50 99.93,-46.5 89.93,-43 89.93,-50"/>
</g>
<!-- Node4 -->
<g id="node4" class="node">
<title>Node4</title>
<g id="a_node4"><a xlink:href="lin__alg_8c.html#a67ead739705f515285526db604c5bb7d" target="_top" xlink:title="Fill float vector with a scalar value.">
<polygon fill="white" stroke="#666666" points="204,-19 115,-19 115,0 204,0 204,-19"/>
<text text-anchor="middle" x="159.5" y="-7" font-family="Helvetica,sans-Serif" font-size="10.00">vec_set_scalar</text>
</a>
</g>
</g>
<!-- Node1&#45;&gt;Node4 -->
<g id="edge3" class="edge">
<title>Node1&#45;&gt;Node4</title>
<path fill="none" stroke="#63b8ff" d="M64.02,-37.35C79.8,-32.7 99.21,-26.98 116.32,-21.94"/>
<polygon fill="#63b8ff" stroke="#63b8ff" points="117.48,-25.24 126.08,-19.06 115.5,-18.53 117.48,-25.24"/>
</g>
</g>
</svg>
