<?xml version="1.0" encoding="UTF-8" standalone="no"?>
<!DOCTYPE svg PUBLIC "-//W3C//DTD SVG 1.1//EN"
 "http://www.w3.org/Graphics/SVG/1.1/DTD/svg11.dtd">
<!-- Generated by graphviz version 2.43.0 (0)
 -->
<!-- Title: QPALM/include/solver_interface.h Pages: 1 -->
<svg width="258pt" height="203pt"
 viewBox="0.00 0.00 257.50 203.00" xmlns="http://www.w3.org/2000/svg" xmlns:xlink="http://www.w3.org/1999/xlink">
<g id="graph0" class="graph" transform="scale(1 1) rotate(0) translate(4 199)">
<title>QPALM/include/solver_interface.h</title>
<!-- Node1 -->
<g id="node1" class="node">
<title>Node1</title>
<g id="a_node1"><a xlink:title="Interface and wrapper to matrix/factorization (ladel) functions.">
<polygon fill="#999999" stroke="#666666" points="189.5,-195 67.5,-195 67.5,-165 189.5,-165 189.5,-195"/>
<text text-anchor="start" x="75.5" y="-183" font-family="Helvetica,sans-Serif" font-size="10.00">QPALM/include/solver</text>
<text text-anchor="middle" x="128.5" y="-172" font-family="Helvetica,sans-Serif" font-size="10.00">_interface.h</text>
</a>
</g>
</g>
<!-- Node2 -->
<g id="node2" class="node">
<title>Node2</title>
<g id="a_node2"><a xlink:href="global__opts_8h.html" target="_top" xlink:title="Custom memory allocation, print and utility functions, and data types for floats and ints.">
<polygon fill="white" stroke="#666666" points="249.5,-74 167.5,-74 167.5,-55 249.5,-55 249.5,-74"/>
<text text-anchor="middle" x="208.5" y="-62" font-family="Helvetica,sans-Serif" font-size="10.00">global_opts.h</text>
</a>
</g>
</g>
<!-- Node1&#45;&gt;Node2 -->
<g id="edge1" class="edge">
<title>Node1&#45;&gt;Node2</title>
<path fill="none" stroke="#63b8ff" d="M153.75,-164.93C167.15,-156.23 182.81,-143.89 192.5,-129 201.32,-115.45 205.28,-97.37 207.06,-83.96"/>
<polygon fill="#63b8ff" stroke="#63b8ff" points="210.54,-84.31 208.09,-74 203.58,-83.59 210.54,-84.31"/>
</g>
<!-- Node3 -->
<g id="node3" class="node">
<title>Node3</title>
<g id="a_node3"><a xlink:title=" ">
<polygon fill="#e0e0e0" stroke="#999999" points="145.5,-19 95.5,-19 95.5,0 145.5,0 145.5,-19"/>
<text text-anchor="middle" x="120.5" y="-7" font-family="Helvetica,sans-Serif" font-size="10.00">ladel.h</text>
</a>
</g>
</g>
<!-- Node1&#45;&gt;Node3 -->
<g id="edge9" class="edge">
<title>Node1&#45;&gt;Node3</title>
<path fill="none" stroke="#63b8ff" d="M125.98,-164.61C124.36,-154.65 122.39,-141.06 121.5,-129 118.91,-93.9 119.33,-52.78 119.9,-29.37"/>
<polygon fill="#63b8ff" stroke="#63b8ff" points="123.41,-29.23 120.19,-19.14 116.41,-29.04 123.41,-29.23"/>
</g>
<!-- Node5 -->
<g id="node5" class="node">
<title>Node5</title>
<g id="a_node5"><a xlink:href="constants_8h.html" target="_top" xlink:title="Constants used in QPALM.">
<polygon fill="white" stroke="#666666" points="73,-74 0,-74 0,-55 73,-55 73,-74"/>
<text text-anchor="middle" x="36.5" y="-62" font-family="Helvetica,sans-Serif" font-size="10.00">constants.h</text>
</a>
</g>
</g>
<!-- Node1&#45;&gt;Node5 -->
<g id="edge4" class="edge">
<title>Node1&#45;&gt;Node5</title>
<path fill="none" stroke="#63b8ff" d="M116.62,-164.59C108.41,-154.62 97.26,-141.03 87.5,-129 74.61,-113.12 60.01,-94.92 49.74,-82.08"/>
<polygon fill="#63b8ff" stroke="#63b8ff" points="52.38,-79.78 43.4,-74.15 46.91,-84.15 52.38,-79.78"/>
</g>
<!-- Node6 -->
<g id="node6" class="node">
<title>Node6</title>
<g id="a_node6"><a xlink:href="types_8h.html" target="_top" xlink:title="Internal data structures used in QPALM.">
<polygon fill="white" stroke="#666666" points="183,-129 130,-129 130,-110 183,-110 183,-129"/>
<text text-anchor="middle" x="156.5" y="-117" font-family="Helvetica,sans-Serif" font-size="10.00">types.h</text>
</a>
</g>
</g>
<!-- Node1&#45;&gt;Node6 -->
<g id="edge6" class="edge">
<title>Node1&#45;&gt;Node6</title>
<path fill="none" stroke="#63b8ff" d="M135.28,-164.84C139.09,-156.87 143.89,-146.84 147.96,-138.33"/>
<polygon fill="#63b8ff" stroke="#63b8ff" points="151.14,-139.8 152.3,-129.27 144.83,-136.77 151.14,-139.8"/>
</g>
<!-- Node2&#45;&gt;Node3 -->
<g id="edge2" class="edge">
<title>Node2&#45;&gt;Node3</title>
<path fill="none" stroke="#63b8ff" d="M194.36,-54.98C180.71,-46.77 159.81,-34.18 143.72,-24.49"/>
<polygon fill="#63b8ff" stroke="#63b8ff" points="145.27,-21.33 134.9,-19.17 141.66,-27.33 145.27,-21.33"/>
</g>
<!-- Node4 -->
<g id="node4" class="node">
<title>Node4</title>
<g id="a_node4"><a xlink:title=" ">
<polygon fill="#e0e0e0" stroke="#999999" points="234,-19 183,-19 183,0 234,0 234,-19"/>
<text text-anchor="middle" x="208.5" y="-7" font-family="Helvetica,sans-Serif" font-size="10.00">math.h</text>
</a>
</g>
</g>
<!-- Node2&#45;&gt;Node4 -->
<g id="edge3" class="edge">
<title>Node2&#45;&gt;Node4</title>
<path fill="none" stroke="#63b8ff" d="M208.5,-54.75C208.5,-47.8 208.5,-37.85 208.5,-29.13"/>
<polygon fill="#63b8ff" stroke="#63b8ff" points="212,-29.09 208.5,-19.09 205,-29.09 212,-29.09"/>
</g>
<!-- Node5&#45;&gt;Node3 -->
<g id="edge5" class="edge">
<title>Node5&#45;&gt;Node3</title>
<path fill="none" stroke="#63b8ff" d="M50,-54.98C62.9,-46.84 82.6,-34.41 97.9,-24.76"/>
<polygon fill="#63b8ff" stroke="#63b8ff" points="100.17,-27.47 106.76,-19.17 96.43,-21.55 100.17,-27.47"/>
</g>
<!-- Node6&#45;&gt;Node2 -->
<g id="edge7" class="edge">
<title>Node6&#45;&gt;Node2</title>
<path fill="none" stroke="#63b8ff" d="M165.09,-109.75C172.66,-102.03 183.88,-90.6 193.01,-81.28"/>
<polygon fill="#63b8ff" stroke="#63b8ff" points="195.57,-83.68 200.07,-74.09 190.57,-78.78 195.57,-83.68"/>
</g>
<!-- Node6&#45;&gt;Node3 -->
<g id="edge8" class="edge">
<title>Node6&#45;&gt;Node3</title>
<path fill="none" stroke="#63b8ff" d="M153.55,-109.66C147.7,-92.09 134.48,-52.45 126.65,-28.95"/>
<polygon fill="#63b8ff" stroke="#63b8ff" points="129.87,-27.54 123.39,-19.16 123.23,-29.75 129.87,-27.54"/>
</g>
</g>
</svg>
