<?xml version="1.0" encoding="UTF-8" standalone="no"?>
<!DOCTYPE svg PUBLIC "-//W3C//DTD SVG 1.1//EN"
 "http://www.w3.org/Graphics/SVG/1.1/DTD/svg11.dtd">
<!-- Generated by graphviz version 2.43.0 (0)
 -->
<!-- Title: QPALM/src/solver_interface.c Pages: 1 -->
<svg width="339pt" height="302pt"
 viewBox="0.00 0.00 339.23 302.00" xmlns="http://www.w3.org/2000/svg" xmlns:xlink="http://www.w3.org/1999/xlink">
<g id="graph0" class="graph" transform="scale(1 1) rotate(0) translate(4 298)">
<title>QPALM/src/solver_interface.c</title>
<!-- Node1 -->
<g id="node1" class="node">
<title>Node1</title>
<g id="a_node1"><a xlink:title="Interface and wrapper to matrix/factorization (ladel) functions.">
<polygon fill="#999999" stroke="#666666" points="296.23,-294 138.23,-294 138.23,-275 296.23,-275 296.23,-294"/>
<text text-anchor="middle" x="217.23" y="-282" font-family="Helvetica,sans-Serif" font-size="10.00">QPALM/src/solver_interface.c</text>
</a>
</g>
</g>
<!-- Node2 -->
<g id="node2" class="node">
<title>Node2</title>
<g id="a_node2"><a xlink:href="lin__alg_8h.html" target="_top" xlink:title="Linear algebra with vectors.">
<polygon fill="white" stroke="#666666" points="152.23,-239 94.23,-239 94.23,-220 152.23,-220 152.23,-239"/>
<text text-anchor="middle" x="123.23" y="-227" font-family="Helvetica,sans-Serif" font-size="10.00">lin_alg.h</text>
</a>
</g>
</g>
<!-- Node1&#45;&gt;Node2 -->
<g id="edge1" class="edge">
<title>Node1&#45;&gt;Node2</title>
<path fill="none" stroke="#63b8ff" d="M202.13,-274.98C187.42,-266.69 164.81,-253.94 147.56,-244.22"/>
<polygon fill="#63b8ff" stroke="#63b8ff" points="149.04,-241.03 138.61,-239.17 145.6,-247.13 149.04,-241.03"/>
</g>
<!-- Node5 -->
<g id="node5" class="node">
<title>Node5</title>
<g id="a_node5"><a xlink:title=" ">
<polygon fill="#e0e0e0" stroke="#999999" points="148.23,-19 98.23,-19 98.23,0 148.23,0 148.23,-19"/>
<text text-anchor="middle" x="123.23" y="-7" font-family="Helvetica,sans-Serif" font-size="10.00">ladel.h</text>
</a>
</g>
</g>
<!-- Node1&#45;&gt;Node5 -->
<g id="edge15" class="edge">
<title>Node1&#45;&gt;Node5</title>
<path fill="none" stroke="#63b8ff" d="M222.24,-274.87C232.13,-256.97 253.23,-214.24 253.23,-175.5 253.23,-175.5 253.23,-175.5 253.23,-118.5 253.23,-89.04 254.1,-76.75 234.23,-55 214.51,-33.4 182.88,-22.1 158.42,-16.3"/>
<polygon fill="#63b8ff" stroke="#63b8ff" points="158.95,-12.83 148.43,-14.14 157.47,-19.68 158.95,-12.83"/>
</g>
<!-- Node7 -->
<g id="node7" class="node">
<title>Node7</title>
<g id="a_node7"><a xlink:href="solver__interface_8h.html" target="_top" xlink:title="Interface and wrapper to matrix/factorization (ladel) functions.">
<polygon fill="white" stroke="#666666" points="175.23,-184 71.23,-184 71.23,-165 175.23,-165 175.23,-184"/>
<text text-anchor="middle" x="123.23" y="-172" font-family="Helvetica,sans-Serif" font-size="10.00">solver_interface.h</text>
</a>
</g>
</g>
<!-- Node1&#45;&gt;Node7 -->
<g id="edge13" class="edge">
<title>Node1&#45;&gt;Node7</title>
<path fill="none" stroke="#63b8ff" d="M209.54,-274.66C193.76,-256.54 157.54,-214.91 137.39,-191.77"/>
<polygon fill="#63b8ff" stroke="#63b8ff" points="139.97,-189.4 130.77,-184.16 134.69,-194 139.97,-189.4"/>
</g>
<!-- Node9 -->
<g id="node9" class="node">
<title>Node9</title>
<g id="a_node9"><a xlink:title=" ">
<polygon fill="#e0e0e0" stroke="#999999" points="331.23,-239 281.23,-239 281.23,-220 331.23,-220 331.23,-239"/>
<text text-anchor="middle" x="306.23" y="-227" font-family="Helvetica,sans-Serif" font-size="10.00">stdio.h</text>
</a>
</g>
</g>
<!-- Node1&#45;&gt;Node9 -->
<g id="edge14" class="edge">
<title>Node1&#45;&gt;Node9</title>
<path fill="none" stroke="#63b8ff" d="M231.53,-274.98C245.33,-266.77 266.47,-254.18 282.75,-244.49"/>
<polygon fill="#63b8ff" stroke="#63b8ff" points="284.87,-247.29 291.67,-239.17 281.29,-241.28 284.87,-247.29"/>
</g>
<!-- Node3 -->
<g id="node3" class="node">
<title>Node3</title>
<g id="a_node3"><a xlink:href="types_8h.html" target="_top" xlink:title="Internal data structures used in QPALM.">
<polygon fill="white" stroke="#666666" points="56.73,-129 3.73,-129 3.73,-110 56.73,-110 56.73,-129"/>
<text text-anchor="middle" x="30.23" y="-117" font-family="Helvetica,sans-Serif" font-size="10.00">types.h</text>
</a>
</g>
</g>
<!-- Node2&#45;&gt;Node3 -->
<g id="edge2" class="edge">
<title>Node2&#45;&gt;Node3</title>
<path fill="none" stroke="#63b8ff" d="M107.59,-219.96C94.21,-212.03 75.13,-199.19 62.23,-184 50.76,-170.48 42.09,-152.15 36.69,-138.65"/>
<polygon fill="#63b8ff" stroke="#63b8ff" points="39.87,-137.18 33.06,-129.06 33.32,-139.65 39.87,-137.18"/>
</g>
<!-- Node2&#45;&gt;Node7 -->
<g id="edge7" class="edge">
<title>Node2&#45;&gt;Node7</title>
<path fill="none" stroke="#63b8ff" d="M123.23,-219.75C123.23,-212.8 123.23,-202.85 123.23,-194.13"/>
<polygon fill="#63b8ff" stroke="#63b8ff" points="126.73,-194.09 123.23,-184.09 119.73,-194.09 126.73,-194.09"/>
</g>
<!-- Node4 -->
<g id="node4" class="node">
<title>Node4</title>
<g id="a_node4"><a xlink:href="global__opts_8h.html" target="_top" xlink:title="Custom memory allocation, print and utility functions, and data types for floats and ints.">
<polygon fill="white" stroke="#666666" points="95.23,-74 13.23,-74 13.23,-55 95.23,-55 95.23,-74"/>
<text text-anchor="middle" x="54.23" y="-62" font-family="Helvetica,sans-Serif" font-size="10.00">global_opts.h</text>
</a>
</g>
</g>
<!-- Node3&#45;&gt;Node4 -->
<g id="edge3" class="edge">
<title>Node3&#45;&gt;Node4</title>
<path fill="none" stroke="#63b8ff" d="M34.2,-109.75C37.45,-102.57 42.15,-92.18 46.19,-83.27"/>
<polygon fill="#63b8ff" stroke="#63b8ff" points="49.41,-84.64 50.34,-74.09 43.03,-81.75 49.41,-84.64"/>
</g>
<!-- Node3&#45;&gt;Node5 -->
<g id="edge6" class="edge">
<title>Node3&#45;&gt;Node5</title>
<path fill="none" stroke="#63b8ff" d="M21.49,-109.69C9.83,-96.85 -7.99,-72.62 4.23,-55 9.29,-47.71 54.98,-32.01 88.24,-21.35"/>
<polygon fill="#63b8ff" stroke="#63b8ff" points="89.63,-24.58 98.1,-18.22 87.51,-17.91 89.63,-24.58"/>
</g>
<!-- Node4&#45;&gt;Node5 -->
<g id="edge4" class="edge">
<title>Node4&#45;&gt;Node5</title>
<path fill="none" stroke="#63b8ff" d="M65.32,-54.98C75.72,-47 91.49,-34.88 103.95,-25.31"/>
<polygon fill="#63b8ff" stroke="#63b8ff" points="106.15,-28.04 111.95,-19.17 101.88,-22.49 106.15,-28.04"/>
</g>
<!-- Node6 -->
<g id="node6" class="node">
<title>Node6</title>
<g id="a_node6"><a xlink:title=" ">
<polygon fill="#e0e0e0" stroke="#999999" points="79.73,-19 28.73,-19 28.73,0 79.73,0 79.73,-19"/>
<text text-anchor="middle" x="54.23" y="-7" font-family="Helvetica,sans-Serif" font-size="10.00">math.h</text>
</a>
</g>
</g>
<!-- Node4&#45;&gt;Node6 -->
<g id="edge5" class="edge">
<title>Node4&#45;&gt;Node6</title>
<path fill="none" stroke="#63b8ff" d="M54.23,-54.75C54.23,-47.8 54.23,-37.85 54.23,-29.13"/>
<polygon fill="#63b8ff" stroke="#63b8ff" points="57.73,-29.09 54.23,-19.09 50.73,-29.09 57.73,-29.09"/>
</g>
<!-- Node7&#45;&gt;Node3 -->
<g id="edge11" class="edge">
<title>Node7&#45;&gt;Node3</title>
<path fill="none" stroke="#63b8ff" d="M108.29,-164.98C93.73,-156.69 71.37,-143.94 54.3,-134.22"/>
<polygon fill="#63b8ff" stroke="#63b8ff" points="55.87,-131.08 45.45,-129.17 52.4,-137.16 55.87,-131.08"/>
</g>
<!-- Node7&#45;&gt;Node4 -->
<g id="edge8" class="edge">
<title>Node7&#45;&gt;Node4</title>
<path fill="none" stroke="#63b8ff" d="M117.59,-164.66C106.16,-146.77 80.11,-106 65.22,-82.69"/>
<polygon fill="#63b8ff" stroke="#63b8ff" points="68.1,-80.7 59.77,-74.16 62.2,-84.47 68.1,-80.7"/>
</g>
<!-- Node7&#45;&gt;Node5 -->
<g id="edge12" class="edge">
<title>Node7&#45;&gt;Node5</title>
<path fill="none" stroke="#63b8ff" d="M123.23,-164.74C123.23,-139.31 123.23,-65.08 123.23,-29.69"/>
<polygon fill="#63b8ff" stroke="#63b8ff" points="126.73,-29.31 123.23,-19.31 119.73,-29.31 126.73,-29.31"/>
</g>
<!-- Node8 -->
<g id="node8" class="node">
<title>Node8</title>
<g id="a_node8"><a xlink:href="constants_8h.html" target="_top" xlink:title="Constants used in QPALM.">
<polygon fill="white" stroke="#666666" points="224.73,-74 151.73,-74 151.73,-55 224.73,-55 224.73,-74"/>
<text text-anchor="middle" x="188.23" y="-62" font-family="Helvetica,sans-Serif" font-size="10.00">constants.h</text>
</a>
</g>
</g>
<!-- Node7&#45;&gt;Node8 -->
<g id="edge9" class="edge">
<title>Node7&#45;&gt;Node8</title>
<path fill="none" stroke="#63b8ff" d="M128.55,-164.66C139.27,-146.85 163.64,-106.37 177.7,-83.01"/>
<polygon fill="#63b8ff" stroke="#63b8ff" points="180.86,-84.53 183.02,-74.16 174.87,-80.92 180.86,-84.53"/>
</g>
<!-- Node8&#45;&gt;Node5 -->
<g id="edge10" class="edge">
<title>Node8&#45;&gt;Node5</title>
<path fill="none" stroke="#63b8ff" d="M177.79,-54.98C168.09,-47.07 153.42,-35.11 141.73,-25.58"/>
<polygon fill="#63b8ff" stroke="#63b8ff" points="143.83,-22.78 133.87,-19.17 139.41,-28.2 143.83,-22.78"/>
</g>
</g>
</svg>
