<?xml version="1.0" encoding="UTF-8" standalone="no"?>
<!DOCTYPE svg PUBLIC "-//W3C//DTD SVG 1.1//EN"
 "http://www.w3.org/Graphics/SVG/1.1/DTD/svg11.dtd">
<!-- Generated by graphviz version 2.43.0 (0)
 -->
<!-- Title: QPALM/interfaces/cxx/include/sparse.hpp Pages: 1 -->
<!--zoomable 148 -->
<svg id="main" version="1.1" xmlns="http://www.w3.org/2000/svg" xmlns:xlink="http://www.w3.org/1999/xlink" xml:space="preserve" onload="init(evt)">
<style type="text/css"><![CDATA[
.edge:hover path { stroke: red; }
.edge:hover polygon { stroke: red; fill: red; }
]]></style>
<script type="text/javascript"><![CDATA[
var edges = document.getElementsByTagName('g');
if (edges && edges.length) {
  for (var i=0;i<edges.length;i++) {
    if (edges[i].id.substr(0,4)=='edge') {
      edges[i].setAttribute('class','edge');
    }
  }
}
]]></script>
        <defs>
                <circle id="rim" cx="0" cy="0" r="7"/>
                <circle id="rim2" cx="0" cy="0" r="3.5"/>
                <g id="zoomPlus">
                        <use xlink:href="#rim" fill="#404040">
                                <set attributeName="fill" to="#808080" begin="zoomplus.mouseover" end="zoomplus.mouseout"/>
                        </use>
                        <path d="M-4,0h8M0,-4v8" fill="none" stroke="white" stroke-width="1.5" pointer-events="none"/>
                </g>
                <g id="zoomMin">
                        <use xlink:href="#rim" fill="#404040">
                                <set attributeName="fill" to="#808080" begin="zoomminus.mouseover" end="zoomminus.mouseout"/>
                        </use>
                        <path d="M-4,0h8" fill="none" stroke="white" stroke-width="1.5" pointer-events="none"/>
                </g>
                <g id="dirArrow">
                        <path fill="none" stroke="white" stroke-width="1.5" d="M0,-3.0v7 M-2.5,-0.5L0,-3.0L2.5,-0.5"/>
                </g>
               <g id="resetDef">
                       <use xlink:href="#rim2" fill="#404040">
                               <set attributeName="fill" to="#808080" begin="reset.mouseover" end="reset.mouseout"/>
                       </use>
               </g>
        </defs>

<script type="text/javascript">
var viewWidth = 914;
var viewHeight = 148;
var sectionId = 'dynsection-0';
</script>
<script xlink:href="svgpan.js"/>
<svg id="graph" class="graph">
<g id="viewport">
<title>QPALM/interfaces/cxx/include/sparse.hpp</title>
<!-- Node1 -->
<g id="node1" class="node">
<title>Node1</title>
<g id="a_node1"><a xlink:title=" ">
<polygon fill="#999999" stroke="#666666" points="541,-140 419,-140 419,-110 541,-110 541,-140"/>
<text text-anchor="start" x="427" y="-128" font-family="Helvetica,sans-Serif" font-size="10.00">QPALM/interfaces/cxx</text>
<text text-anchor="middle" x="480" y="-117" font-family="Helvetica,sans-Serif" font-size="10.00">/include/sparse.hpp</text>
</a>
</g>
</g>
<!-- Node2 -->
<g id="node2" class="node">
<title>Node2</title>
<g id="a_node2"><a xlink:title=" ">
<polygon fill="#e0e0e0" stroke="#999999" points="80,-74 0,-74 0,-55 80,-55 80,-74"/>
<text text-anchor="middle" x="40" y="-62" font-family="Helvetica,sans-Serif" font-size="10.00">Eigen/Sparse</text>
</a>
</g>
</g>
<!-- Node1&#45;&gt;Node2 -->
<g id="edge1" class="edge">
<title>Node1&#45;&gt;Node2</title>
<path fill="none" stroke="#63b8ff" d="M418.93,-117.04C343.92,-108.31 212.55,-92.4 90.02,-74.1"/>
<polygon fill="#63b8ff" stroke="#63b8ff" points="90.5,-70.63 80.09,-72.6 89.46,-77.55 90.5,-70.63"/>
</g>
<!-- Node3 -->
<g id="node3" class="node">
<title>Node3</title>
<g id="a_node3"><a xlink:title=" ">
<polygon fill="#e0e0e0" stroke="#999999" points="217.5,-74 98.5,-74 98.5,-55 217.5,-55 217.5,-74"/>
<text text-anchor="middle" x="158" y="-62" font-family="Helvetica,sans-Serif" font-size="10.00">Eigen/src/Core/Map.h</text>
</a>
</g>
</g>
<!-- Node1&#45;&gt;Node3 -->
<g id="edge2" class="edge">
<title>Node1&#45;&gt;Node3</title>
<path fill="none" stroke="#63b8ff" d="M418.68,-112.86C359.98,-102.19 272.14,-86.24 214.94,-75.85"/>
<polygon fill="#63b8ff" stroke="#63b8ff" points="215.45,-72.38 204.99,-74.04 214.2,-79.27 215.45,-72.38"/>
</g>
<!-- Node4 -->
<g id="node4" class="node">
<title>Node4</title>
<g id="a_node4"><a xlink:title=" ">
<polygon fill="#e0e0e0" stroke="#999999" points="366,-74 236,-74 236,-55 366,-55 366,-74"/>
<text text-anchor="middle" x="301" y="-62" font-family="Helvetica,sans-Serif" font-size="10.00">Eigen/src/Core/Matrix.h</text>
</a>
</g>
</g>
<!-- Node1&#45;&gt;Node4 -->
<g id="edge3" class="edge">
<title>Node1&#45;&gt;Node4</title>
<path fill="none" stroke="#63b8ff" d="M437.13,-109.99C406.5,-99.98 365.77,-86.67 336.87,-77.22"/>
<polygon fill="#63b8ff" stroke="#63b8ff" points="337.77,-73.83 327.17,-74.05 335.59,-80.49 337.77,-73.83"/>
</g>
<!-- Node5 -->
<g id="node5" class="node">
<title>Node5</title>
<g id="a_node5"><a xlink:href="global__opts_8h.html" target="_top" xlink:title="Custom memory allocation, print and utility functions, and data types for floats and ints.">
<polygon fill="white" stroke="#666666" points="466,-74 384,-74 384,-55 466,-55 466,-74"/>
<text text-anchor="middle" x="425" y="-62" font-family="Helvetica,sans-Serif" font-size="10.00">global_opts.h</text>
</a>
</g>
</g>
<!-- Node1&#45;&gt;Node5 -->
<g id="edge4" class="edge">
<title>Node1&#45;&gt;Node5</title>
<path fill="none" stroke="#63b8ff" d="M466.69,-109.84C458.7,-101.35 448.52,-90.52 440.22,-81.69"/>
<polygon fill="#63b8ff" stroke="#63b8ff" points="442.64,-79.15 433.24,-74.27 437.54,-83.95 442.64,-79.15"/>
</g>
<!-- Node8 -->
<g id="node8" class="node">
<title>Node8</title>
<g id="a_node8"><a xlink:title=" ">
<polygon fill="#e0e0e0" stroke="#999999" points="586,-74 484,-74 484,-55 586,-55 586,-74"/>
<text text-anchor="middle" x="535" y="-62" font-family="Helvetica,sans-Serif" font-size="10.00">ladel_constants.h</text>
</a>
</g>
</g>
<!-- Node1&#45;&gt;Node8 -->
<g id="edge7" class="edge">
<title>Node1&#45;&gt;Node8</title>
<path fill="none" stroke="#63b8ff" d="M493.31,-109.84C501.3,-101.35 511.48,-90.52 519.78,-81.69"/>
<polygon fill="#63b8ff" stroke="#63b8ff" points="522.46,-83.95 526.76,-74.27 517.36,-79.15 522.46,-83.95"/>
</g>
<!-- Node9 -->
<g id="node9" class="node">
<title>Node9</title>
<g id="a_node9"><a xlink:title=" ">
<polygon fill="#e0e0e0" stroke="#999999" points="686,-74 604,-74 604,-55 686,-55 686,-74"/>
<text text-anchor="middle" x="645" y="-62" font-family="Helvetica,sans-Serif" font-size="10.00">ladel_types.h</text>
</a>
</g>
</g>
<!-- Node1&#45;&gt;Node9 -->
<g id="edge8" class="edge">
<title>Node1&#45;&gt;Node9</title>
<path fill="none" stroke="#63b8ff" d="M519.52,-109.99C547.42,-100.1 584.41,-86.98 611,-77.56"/>
<polygon fill="#63b8ff" stroke="#63b8ff" points="612.38,-80.78 620.63,-74.14 610.04,-74.18 612.38,-80.78"/>
</g>
<!-- Node10 -->
<g id="node10" class="node">
<title>Node10</title>
<g id="a_node10"><a xlink:title=" ">
<polygon fill="#e0e0e0" stroke="#999999" points="762,-74 704,-74 704,-55 762,-55 762,-74"/>
<text text-anchor="middle" x="733" y="-62" font-family="Helvetica,sans-Serif" font-size="10.00">memory</text>
</a>
</g>
</g>
<!-- Node1&#45;&gt;Node10 -->
<g id="edge9" class="edge">
<title>Node1&#45;&gt;Node10</title>
<path fill="none" stroke="#63b8ff" d="M540.6,-109.99C588.17,-98.99 653,-84 693.92,-74.54"/>
<polygon fill="#63b8ff" stroke="#63b8ff" points="694.84,-77.92 703.79,-72.25 693.26,-71.1 694.84,-77.92"/>
</g>
<!-- Node11 -->
<g id="node11" class="node">
<title>Node11</title>
<g id="a_node11"><a xlink:href="qpalm__cxx-export_8hpp.html" target="_top" xlink:title=" ">
<polygon fill="white" stroke="#666666" points="906,-74 780,-74 780,-55 906,-55 906,-74"/>
<text text-anchor="middle" x="843" y="-62" font-family="Helvetica,sans-Serif" font-size="10.00">qpalm_cxx&#45;export.hpp</text>
</a>
</g>
</g>
<!-- Node1&#45;&gt;Node11 -->
<g id="edge10" class="edge">
<title>Node1&#45;&gt;Node11</title>
<path fill="none" stroke="#63b8ff" d="M541.17,-114.14C607.57,-103.44 713.08,-86.44 780.14,-75.63"/>
<polygon fill="#63b8ff" stroke="#63b8ff" points="780.83,-79.06 790.15,-74.02 779.72,-72.15 780.83,-79.06"/>
</g>
<!-- Node6 -->
<g id="node6" class="node">
<title>Node6</title>
<g id="a_node6"><a xlink:title=" ">
<polygon fill="#e0e0e0" stroke="#999999" points="415,-19 365,-19 365,0 415,0 415,-19"/>
<text text-anchor="middle" x="390" y="-7" font-family="Helvetica,sans-Serif" font-size="10.00">ladel.h</text>
</a>
</g>
</g>
<!-- Node5&#45;&gt;Node6 -->
<g id="edge5" class="edge">
<title>Node5&#45;&gt;Node6</title>
<path fill="none" stroke="#63b8ff" d="M419.22,-54.75C414.38,-47.42 407.32,-36.73 401.36,-27.7"/>
<polygon fill="#63b8ff" stroke="#63b8ff" points="404.1,-25.5 395.67,-19.09 398.26,-29.36 404.1,-25.5"/>
</g>
<!-- Node7 -->
<g id="node7" class="node">
<title>Node7</title>
<g id="a_node7"><a xlink:title=" ">
<polygon fill="#e0e0e0" stroke="#999999" points="484.5,-19 433.5,-19 433.5,0 484.5,0 484.5,-19"/>
<text text-anchor="middle" x="459" y="-7" font-family="Helvetica,sans-Serif" font-size="10.00">math.h</text>
</a>
</g>
</g>
<!-- Node5&#45;&gt;Node7 -->
<g id="edge6" class="edge">
<title>Node5&#45;&gt;Node7</title>
<path fill="none" stroke="#63b8ff" d="M430.61,-54.75C435.32,-47.42 442.17,-36.73 447.97,-27.7"/>
<polygon fill="#63b8ff" stroke="#63b8ff" points="451.04,-29.4 453.49,-19.09 445.14,-25.62 451.04,-29.4"/>
</g>
</g>
</svg>
        <g id="navigator" transform="translate(0 0)" fill="#404254">
                <rect fill="#f2f5e9" fill-opacity="0.5" stroke="#606060" stroke-width=".5" x="0" y="0" width="60" height="60"/>
                <use id="zoomplus" xlink:href="#zoomPlus" x="17" y="9" onmousedown="handleZoom(evt,'in')"/>
                <use id="zoomminus" xlink:href="#zoomMin" x="42" y="9" onmousedown="handleZoom(evt,'out')"/>
                <use id="reset" xlink:href="#resetDef" x="30" y="36" onmousedown="handleReset()"/>
                <g id="arrowUp" xlink:href="#dirArrow" transform="translate(30 24)" onmousedown="handlePan(0,-1)">
                  <use xlink:href="#rim" fill="#404040">
                        <set attributeName="fill" to="#808080" begin="arrowUp.mouseover" end="arrowUp.mouseout"/>
                  </use>
                  <path fill="none" stroke="white" stroke-width="1.5" d="M0,-3.0v7 M-2.5,-0.5L0,-3.0L2.5,-0.5"/>
                </g>
                <g id="arrowRight" xlink:href="#dirArrow" transform="rotate(90) translate(36 -43)" onmousedown="handlePan(1,0)">
                  <use xlink:href="#rim" fill="#404040">
                        <set attributeName="fill" to="#808080" begin="arrowRight.mouseover" end="arrowRight.mouseout"/>
                  </use>
                  <path fill="none" stroke="white" stroke-width="1.5" d="M0,-3.0v7 M-2.5,-0.5L0,-3.0L2.5,-0.5"/>
                </g>
                <g id="arrowDown" xlink:href="#dirArrow" transform="rotate(180) translate(-30 -48)" onmousedown="handlePan(0,1)">
                  <use xlink:href="#rim" fill="#404040">
                        <set attributeName="fill" to="#808080" begin="arrowDown.mouseover" end="arrowDown.mouseout"/>
                  </use>
                  <path fill="none" stroke="white" stroke-width="1.5" d="M0,-3.0v7 M-2.5,-0.5L0,-3.0L2.5,-0.5"/>
                </g>
                <g id="arrowLeft" xlink:href="#dirArrow" transform="rotate(270) translate(-36 17)" onmousedown="handlePan(-1,0)">
                  <use xlink:href="#rim" fill="#404040">
                        <set attributeName="fill" to="#808080" begin="arrowLeft.mouseover" end="arrowLeft.mouseout"/>
                  </use>
                  <path fill="none" stroke="white" stroke-width="1.5" d="M0,-3.0v7 M-2.5,-0.5L0,-3.0L2.5,-0.5"/>
                </g>
        </g>
        <svg viewBox="0 0 15 15" width="100%" height="30px" preserveAspectRatio="xMaxYMin meet">
         <g id="arrow_out" transform="scale(0.3 0.3)">
          <a xlink:href="sparse_8hpp__incl_org.svg" target="_base">
           <rect id="button" ry="5" rx="5" y="6" x="6" height="38" width="38"
                fill="#f2f5e9" fill-opacity="0.5" stroke="#606060" stroke-width="1.0"/>
           <path id="arrow"
             d="M 11.500037,31.436501 C 11.940474,20.09759 22.043105,11.32322 32.158766,21.979434 L 37.068811,17.246167 C 37.068811,17.246167 37.088388,32 37.088388,32 L 22.160133,31.978069 C 22.160133,31.978069 26.997745,27.140456 26.997745,27.140456 C 18.528582,18.264221 13.291696,25.230495 11.500037,31.436501 z"
             style="fill:#404040;"/>
          </a>
         </g>
        </svg>
</svg>
