<?xml version="1.0" encoding="UTF-8" standalone="no"?>
<!DOCTYPE svg PUBLIC "-//W3C//DTD SVG 1.1//EN"
 "http://www.w3.org/Graphics/SVG/1.1/DTD/svg11.dtd">
<!-- Generated by graphviz version 2.43.0 (0)
 -->
<!-- Title: QPALM/src/util.c Pages: 1 -->
<svg width="436pt" height="302pt"
 viewBox="0.00 0.00 435.50 302.00" xmlns="http://www.w3.org/2000/svg" xmlns:xlink="http://www.w3.org/1999/xlink">
<g id="graph0" class="graph" transform="scale(1 1) rotate(0) translate(4 298)">
<title>QPALM/src/util.c</title>
<!-- Node1 -->
<g id="node1" class="node">
<title>Node1</title>
<g id="a_node1"><a xlink:title="Utility functions.">
<polygon fill="#999999" stroke="#666666" points="285,-294 190,-294 190,-275 285,-275 285,-294"/>
<text text-anchor="middle" x="237.5" y="-282" font-family="Helvetica,sans-Serif" font-size="10.00">QPALM/src/util.c</text>
</a>
</g>
</g>
<!-- Node2 -->
<g id="node2" class="node">
<title>Node2</title>
<g id="a_node2"><a xlink:href="util_8h.html" target="_top" xlink:title="Utility functions.">
<polygon fill="white" stroke="#666666" points="51,-184 10,-184 10,-165 51,-165 51,-184"/>
<text text-anchor="middle" x="30.5" y="-172" font-family="Helvetica,sans-Serif" font-size="10.00">util.h</text>
</a>
</g>
</g>
<!-- Node1&#45;&gt;Node2 -->
<g id="edge1" class="edge">
<title>Node1&#45;&gt;Node2</title>
<path fill="none" stroke="#63b8ff" d="M189.99,-281.29C152.71,-277.35 101.32,-266.8 65.5,-239 50.92,-227.68 41.56,-208.5 36.22,-194.17"/>
<polygon fill="#63b8ff" stroke="#63b8ff" points="39.43,-192.72 32.91,-184.37 32.8,-194.97 39.43,-192.72"/>
</g>
<!-- Node3 -->
<g id="node3" class="node">
<title>Node3</title>
<g id="a_node3"><a xlink:href="types_8h.html" target="_top" xlink:title="Internal data structures used in QPALM.">
<polygon fill="white" stroke="#666666" points="144,-129 91,-129 91,-110 144,-110 144,-129"/>
<text text-anchor="middle" x="117.5" y="-117" font-family="Helvetica,sans-Serif" font-size="10.00">types.h</text>
</a>
</g>
</g>
<!-- Node1&#45;&gt;Node3 -->
<g id="edge18" class="edge">
<title>Node1&#45;&gt;Node3</title>
<path fill="none" stroke="#63b8ff" d="M216.93,-274.96C200.15,-267.29 176.52,-254.81 159.5,-239 137.91,-218.95 132.2,-211.82 122.5,-184 117.49,-169.62 116.42,-152.35 116.51,-139.44"/>
<polygon fill="#63b8ff" stroke="#63b8ff" points="120,-139.52 116.81,-129.42 113.01,-139.31 120,-139.52"/>
</g>
<!-- Node4 -->
<g id="node4" class="node">
<title>Node4</title>
<g id="a_node4"><a xlink:href="global__opts_8h.html" target="_top" xlink:title="Custom memory allocation, print and utility functions, and data types for floats and ints.">
<polygon fill="white" stroke="#666666" points="282.5,-74 200.5,-74 200.5,-55 282.5,-55 282.5,-74"/>
<text text-anchor="middle" x="241.5" y="-62" font-family="Helvetica,sans-Serif" font-size="10.00">global_opts.h</text>
</a>
</g>
</g>
<!-- Node1&#45;&gt;Node4 -->
<g id="edge16" class="edge">
<title>Node1&#45;&gt;Node4</title>
<path fill="none" stroke="#63b8ff" d="M239.97,-274.81C244.72,-257.64 254.94,-218.07 258.5,-184 262.21,-148.47 253.27,-107.23 247,-83.97"/>
<polygon fill="#63b8ff" stroke="#63b8ff" points="250.3,-82.76 244.2,-74.1 243.56,-84.67 250.3,-82.76"/>
</g>
<!-- Node8 -->
<g id="node8" class="node">
<title>Node8</title>
<g id="a_node8"><a xlink:href="lin__alg_8h.html" target="_top" xlink:title="Linear algebra with vectors.">
<polygon fill="white" stroke="#666666" points="226.5,-239 168.5,-239 168.5,-220 226.5,-220 226.5,-239"/>
<text text-anchor="middle" x="197.5" y="-227" font-family="Helvetica,sans-Serif" font-size="10.00">lin_alg.h</text>
</a>
</g>
</g>
<!-- Node1&#45;&gt;Node8 -->
<g id="edge9" class="edge">
<title>Node1&#45;&gt;Node8</title>
<path fill="none" stroke="#63b8ff" d="M230.89,-274.75C225.24,-267.26 216.96,-256.28 210.05,-247.13"/>
<polygon fill="#63b8ff" stroke="#63b8ff" points="212.8,-244.96 203.98,-239.09 207.21,-249.18 212.8,-244.96"/>
</g>
<!-- Node10 -->
<g id="node10" class="node">
<title>Node10</title>
<g id="a_node10"><a xlink:title=" ">
<polygon fill="#e0e0e0" stroke="#999999" points="359,-239 306,-239 306,-220 359,-220 359,-239"/>
<text text-anchor="middle" x="332.5" y="-227" font-family="Helvetica,sans-Serif" font-size="10.00">string.h</text>
</a>
</g>
</g>
<!-- Node1&#45;&gt;Node10 -->
<g id="edge17" class="edge">
<title>Node1&#45;&gt;Node10</title>
<path fill="none" stroke="#63b8ff" d="M252.76,-274.98C267.63,-266.69 290.48,-253.94 307.92,-244.22"/>
<polygon fill="#63b8ff" stroke="#63b8ff" points="309.93,-247.1 316.96,-239.17 306.52,-240.99 309.93,-247.1"/>
</g>
<!-- Node11 -->
<g id="node11" class="node">
<title>Node11</title>
<g id="a_node11"><a xlink:title=" ">
<polygon fill="#e0e0e0" stroke="#999999" points="427.5,-239 377.5,-239 377.5,-220 427.5,-220 427.5,-239"/>
<text text-anchor="middle" x="402.5" y="-227" font-family="Helvetica,sans-Serif" font-size="10.00">stdio.h</text>
</a>
</g>
</g>
<!-- Node1&#45;&gt;Node11 -->
<g id="edge19" class="edge">
<title>Node1&#45;&gt;Node11</title>
<path fill="none" stroke="#63b8ff" d="M264.01,-274.98C292.2,-265.93 336.92,-251.57 367.88,-241.62"/>
<polygon fill="#63b8ff" stroke="#63b8ff" points="368.96,-244.95 377.41,-238.56 366.82,-238.29 368.96,-244.95"/>
</g>
<!-- Node2&#45;&gt;Node3 -->
<g id="edge2" class="edge">
<title>Node2&#45;&gt;Node3</title>
<path fill="none" stroke="#63b8ff" d="M44.48,-164.98C57.97,-156.77 78.63,-144.18 94.54,-134.49"/>
<polygon fill="#63b8ff" stroke="#63b8ff" points="96.55,-137.36 103.27,-129.17 92.91,-131.38 96.55,-137.36"/>
</g>
<!-- Node7 -->
<g id="node7" class="node">
<title>Node7</title>
<g id="a_node7"><a xlink:href="constants_8h.html" target="_top" xlink:title="Constants used in QPALM.">
<polygon fill="white" stroke="#666666" points="73,-129 0,-129 0,-110 73,-110 73,-129"/>
<text text-anchor="middle" x="36.5" y="-117" font-family="Helvetica,sans-Serif" font-size="10.00">constants.h</text>
</a>
</g>
</g>
<!-- Node2&#45;&gt;Node7 -->
<g id="edge7" class="edge">
<title>Node2&#45;&gt;Node7</title>
<path fill="none" stroke="#63b8ff" d="M31.49,-164.75C32.28,-157.8 33.4,-147.85 34.39,-139.13"/>
<polygon fill="#63b8ff" stroke="#63b8ff" points="37.88,-139.42 35.53,-129.09 30.92,-138.63 37.88,-139.42"/>
</g>
<!-- Node3&#45;&gt;Node4 -->
<g id="edge3" class="edge">
<title>Node3&#45;&gt;Node4</title>
<path fill="none" stroke="#63b8ff" d="M137.42,-109.98C157.55,-101.38 188.88,-87.99 211.91,-78.15"/>
<polygon fill="#63b8ff" stroke="#63b8ff" points="213.4,-81.32 221.21,-74.17 210.64,-74.88 213.4,-81.32"/>
</g>
<!-- Node5 -->
<g id="node5" class="node">
<title>Node5</title>
<g id="a_node5"><a xlink:title=" ">
<polygon fill="#e0e0e0" stroke="#999999" points="174.5,-19 124.5,-19 124.5,0 174.5,0 174.5,-19"/>
<text text-anchor="middle" x="149.5" y="-7" font-family="Helvetica,sans-Serif" font-size="10.00">ladel.h</text>
</a>
</g>
</g>
<!-- Node3&#45;&gt;Node5 -->
<g id="edge6" class="edge">
<title>Node3&#45;&gt;Node5</title>
<path fill="none" stroke="#63b8ff" d="M120.12,-109.66C125.32,-92.09 137.07,-52.45 144.03,-28.95"/>
<polygon fill="#63b8ff" stroke="#63b8ff" points="147.45,-29.74 146.93,-19.16 140.74,-27.75 147.45,-29.74"/>
</g>
<!-- Node4&#45;&gt;Node5 -->
<g id="edge4" class="edge">
<title>Node4&#45;&gt;Node5</title>
<path fill="none" stroke="#63b8ff" d="M226.72,-54.98C212.32,-46.69 190.19,-33.94 173.31,-24.22"/>
<polygon fill="#63b8ff" stroke="#63b8ff" points="174.96,-21.13 164.55,-19.17 171.47,-27.19 174.96,-21.13"/>
</g>
<!-- Node6 -->
<g id="node6" class="node">
<title>Node6</title>
<g id="a_node6"><a xlink:title=" ">
<polygon fill="#e0e0e0" stroke="#999999" points="267,-19 216,-19 216,0 267,0 267,-19"/>
<text text-anchor="middle" x="241.5" y="-7" font-family="Helvetica,sans-Serif" font-size="10.00">math.h</text>
</a>
</g>
</g>
<!-- Node4&#45;&gt;Node6 -->
<g id="edge5" class="edge">
<title>Node4&#45;&gt;Node6</title>
<path fill="none" stroke="#63b8ff" d="M241.5,-54.75C241.5,-47.8 241.5,-37.85 241.5,-29.13"/>
<polygon fill="#63b8ff" stroke="#63b8ff" points="245,-29.09 241.5,-19.09 238,-29.09 245,-29.09"/>
</g>
<!-- Node7&#45;&gt;Node5 -->
<g id="edge8" class="edge">
<title>Node7&#45;&gt;Node5</title>
<path fill="none" stroke="#63b8ff" d="M45.75,-109.66C64.88,-91.38 109.03,-49.18 133.11,-26.17"/>
<polygon fill="#63b8ff" stroke="#63b8ff" points="135.63,-28.6 140.44,-19.16 130.79,-23.54 135.63,-28.6"/>
</g>
<!-- Node8&#45;&gt;Node3 -->
<g id="edge10" class="edge">
<title>Node8&#45;&gt;Node3</title>
<path fill="none" stroke="#63b8ff" d="M180.07,-219.88C166.34,-212.24 147.7,-199.84 136.5,-184 127.05,-170.64 122.24,-152.53 119.82,-139.07"/>
<polygon fill="#63b8ff" stroke="#63b8ff" points="123.27,-138.43 118.31,-129.06 116.35,-139.47 123.27,-138.43"/>
</g>
<!-- Node9 -->
<g id="node9" class="node">
<title>Node9</title>
<g id="a_node9"><a xlink:href="solver__interface_8h.html" target="_top" xlink:title="Interface and wrapper to matrix/factorization (ladel) functions.">
<polygon fill="white" stroke="#666666" points="249.5,-184 145.5,-184 145.5,-165 249.5,-165 249.5,-184"/>
<text text-anchor="middle" x="197.5" y="-172" font-family="Helvetica,sans-Serif" font-size="10.00">solver_interface.h</text>
</a>
</g>
</g>
<!-- Node8&#45;&gt;Node9 -->
<g id="edge11" class="edge">
<title>Node8&#45;&gt;Node9</title>
<path fill="none" stroke="#63b8ff" d="M197.5,-219.75C197.5,-212.8 197.5,-202.85 197.5,-194.13"/>
<polygon fill="#63b8ff" stroke="#63b8ff" points="201,-194.09 197.5,-184.09 194,-194.09 201,-194.09"/>
</g>
<!-- Node9&#45;&gt;Node3 -->
<g id="edge14" class="edge">
<title>Node9&#45;&gt;Node3</title>
<path fill="none" stroke="#63b8ff" d="M184.65,-164.98C172.36,-156.84 153.59,-144.41 139.02,-134.76"/>
<polygon fill="#63b8ff" stroke="#63b8ff" points="140.86,-131.78 130.59,-129.17 136.99,-137.61 140.86,-131.78"/>
</g>
<!-- Node9&#45;&gt;Node4 -->
<g id="edge12" class="edge">
<title>Node9&#45;&gt;Node4</title>
<path fill="none" stroke="#63b8ff" d="M201.1,-164.66C208.29,-147.01 224.56,-107.09 234.11,-83.64"/>
<polygon fill="#63b8ff" stroke="#63b8ff" points="237.44,-84.74 237.97,-74.16 230.96,-82.1 237.44,-84.74"/>
</g>
<!-- Node9&#45;&gt;Node5 -->
<g id="edge15" class="edge">
<title>Node9&#45;&gt;Node5</title>
<path fill="none" stroke="#63b8ff" d="M194.92,-164.74C187.4,-139.2 165.38,-64.43 155.02,-29.23"/>
<polygon fill="#63b8ff" stroke="#63b8ff" points="158.28,-27.91 152.09,-19.31 151.56,-29.89 158.28,-27.91"/>
</g>
<!-- Node9&#45;&gt;Node7 -->
<g id="edge13" class="edge">
<title>Node9&#45;&gt;Node7</title>
<path fill="none" stroke="#63b8ff" d="M171.63,-164.98C144.72,-156.13 102.38,-142.19 72.27,-132.28"/>
<polygon fill="#63b8ff" stroke="#63b8ff" points="73.16,-128.88 62.57,-129.08 70.97,-135.53 73.16,-128.88"/>
</g>
</g>
</svg>
