<?xml version="1.0" encoding="UTF-8" standalone="no"?>
<!DOCTYPE svg PUBLIC "-//W3C//DTD SVG 1.1//EN"
 "http://www.w3.org/Graphics/SVG/1.1/DTD/svg11.dtd">
<!-- Generated by graphviz version 2.43.0 (0)
 -->
<!-- Title: vec_self_mult_scalar Pages: 1 -->
<svg width="865pt" height="290pt"
 viewBox="0.00 0.00 865.00 290.00" xmlns="http://www.w3.org/2000/svg" xmlns:xlink="http://www.w3.org/1999/xlink">
<g id="graph0" class="graph" transform="scale(1 1) rotate(0) translate(4 286)">
<title>vec_self_mult_scalar</title>
<!-- Node1 -->
<g id="Node000001" class="node">
<title>Node1</title>
<g id="a_Node000001"><a xlink:title="Mulitply vector with a constant scale factor.">
<polygon fill="#999999" stroke="#666666" points="857,-149 738,-149 738,-130 857,-130 857,-149"/>
<text text-anchor="middle" x="797.5" y="-137" font-family="Helvetica,sans-Serif" font-size="10.00">vec_self_mult_scalar</text>
</a>
</g>
</g>
<!-- Node2 -->
<g id="Node000002" class="node">
<title>Node2</title>
<g id="a_Node000002"><a xlink:href="linesearch_8c.html#a647cabae1574f21e412110765ea1e70d" target="_top" xlink:title="Execute exact linesearch (using qsort)">
<polygon fill="white" stroke="#666666" points="538,-282 439,-282 439,-263 538,-263 538,-282"/>
<text text-anchor="middle" x="488.5" y="-270" font-family="Helvetica,sans-Serif" font-size="10.00">exact_linesearch</text>
</a>
</g>
</g>
<!-- Node1&#45;&gt;Node2 -->
<g id="edge1_Node000001_Node000002" class="edge">
<title>Node1&#45;&gt;Node2</title>
<g id="a_edge1_Node000001_Node000002"><a xlink:title=" ">
<path fill="none" stroke="#63b8ff" d="M786.38,-158.14C771.54,-183.43 741.33,-227.8 702,-248.5 650.91,-275.39 583.48,-278.47 538.42,-276.74"/>
<polygon fill="#63b8ff" stroke="#63b8ff" points="789.57,-159.61 791.46,-149.18 783.48,-156.16 789.57,-159.61"/>
</a>
</g>
</g>
<!-- Node3 -->
<g id="Node000003" class="node">
<title>Node3</title>
<g id="a_Node000003"><a xlink:href="iteration_8c.html#a9c9fafac9ce099122c5a594762e5a052" target="_top" xlink:title="Update the primal iterate.">
<polygon fill="white" stroke="#666666" points="392,-244 267,-244 267,-225 392,-225 392,-244"/>
<text text-anchor="middle" x="329.5" y="-232" font-family="Helvetica,sans-Serif" font-size="10.00">update_primal_iterate</text>
</a>
</g>
</g>
<!-- Node1&#45;&gt;Node3 -->
<g id="edge15_Node000001_Node000003" class="edge">
<title>Node1&#45;&gt;Node3</title>
<g id="a_edge15_Node000001_Node000003"><a xlink:title=" ">
<path fill="none" stroke="#63b8ff" d="M781.4,-156.87C764.25,-175.21 734.41,-203.14 702,-215.5 598.81,-254.84 467.72,-250.1 392.04,-242.62"/>
<polygon fill="#63b8ff" stroke="#63b8ff" points="784.22,-158.97 788.35,-149.21 779.04,-154.26 784.22,-158.97"/>
</a>
</g>
</g>
<!-- Node7 -->
<g id="Node000007" class="node">
<title>Node7</title>
<g id="a_Node000007"><a xlink:href="solver__interface_8c.html#aca80eaf7b897030273f1a6820b7e6d38" target="_top" xlink:title="Solve the KKT system &#160;.">
<polygon fill="white" stroke="#666666" points="675.5,-206 611.5,-206 611.5,-187 675.5,-187 675.5,-206"/>
<text text-anchor="middle" x="643.5" y="-194" font-family="Helvetica,sans-Serif" font-size="10.00">kkt_solve</text>
</a>
</g>
</g>
<!-- Node1&#45;&gt;Node7 -->
<g id="edge6_Node000001_Node000007" class="edge">
<title>Node1&#45;&gt;Node7</title>
<g id="a_edge6_Node000001_Node000007"><a xlink:title=" ">
<path fill="none" stroke="#63b8ff" d="M761.66,-152.57C733.72,-163.04 695.15,-177.51 670.02,-186.93"/>
<polygon fill="#63b8ff" stroke="#63b8ff" points="762.92,-155.83 771.06,-149.04 760.47,-149.27 762.92,-155.83"/>
</a>
</g>
</g>
<!-- Node8 -->
<g id="Node000008" class="node">
<title>Node8</title>
<g id="a_Node000008"><a xlink:href="newton_8c.html#af1654e5597faac8b0ade25acf1fc1bc9" target="_top" xlink:title="Sets work&#45;&gt;d to the direction calculated by the semismooth Newton method.">
<polygon fill="white" stroke="#666666" points="549,-187 428,-187 428,-168 549,-168 549,-187"/>
<text text-anchor="middle" x="488.5" y="-175" font-family="Helvetica,sans-Serif" font-size="10.00">newton_set_direction</text>
</a>
</g>
</g>
<!-- Node1&#45;&gt;Node8 -->
<g id="edge11_Node000001_Node000008" class="edge">
<title>Node1&#45;&gt;Node8</title>
<g id="a_edge11_Node000001_Node000008"><a xlink:title=" ">
<path fill="none" stroke="#63b8ff" d="M727.56,-148.03C673.94,-154.67 600.3,-163.79 549.18,-170.11"/>
<polygon fill="#63b8ff" stroke="#63b8ff" points="728.18,-151.48 737.67,-146.78 727.32,-144.54 728.18,-151.48"/>
</a>
</g>
</g>
<!-- Node9 -->
<g id="Node000009" class="node">
<title>Node9</title>
<g id="a_Node000009"><a xlink:href="solver__interface_8c.html#a03ad73d0e41054e90232d141e73474ab" target="_top" xlink:title="Solve the linear system .">
<polygon fill="white" stroke="#666666" points="702,-130 585,-130 585,-111 702,-111 702,-130"/>
<text text-anchor="middle" x="643.5" y="-118" font-family="Helvetica,sans-Serif" font-size="10.00">ldlsolveLD_neg_dphi</text>
</a>
</g>
</g>
<!-- Node1&#45;&gt;Node9 -->
<g id="edge9_Node000001_Node000009" class="edge">
<title>Node1&#45;&gt;Node9</title>
<g id="a_edge9_Node000001_Node000009"><a xlink:title=" ">
<path fill="none" stroke="#63b8ff" d="M727.75,-130.91C719.18,-129.84 710.49,-128.75 702.11,-127.7"/>
<polygon fill="#63b8ff" stroke="#63b8ff" points="727.38,-134.39 737.73,-132.15 728.24,-127.44 727.38,-134.39"/>
</a>
</g>
</g>
<!-- Node10 -->
<g id="Node000010" class="node">
<title>Node10</title>
<g id="a_Node000010"><a xlink:href="scaling_8c.html#a3735b6c9c3aeeddfb3bb0982ae5f70ba" target="_top" xlink:title="Scale problem matrices.">
<polygon fill="white" stroke="#666666" points="678,-93 609,-93 609,-74 678,-74 678,-93"/>
<text text-anchor="middle" x="643.5" y="-81" font-family="Helvetica,sans-Serif" font-size="10.00">scale_data</text>
</a>
</g>
</g>
<!-- Node1&#45;&gt;Node10 -->
<g id="edge12_Node000001_Node000010" class="edge">
<title>Node1&#45;&gt;Node10</title>
<g id="a_edge12_Node000001_Node000010"><a xlink:title=" ">
<path fill="none" stroke="#63b8ff" d="M764.87,-126.05C746.63,-118.48 723.18,-109.06 702,-101.5 693.82,-98.58 684.9,-95.66 676.58,-93.05"/>
<polygon fill="#63b8ff" stroke="#63b8ff" points="763.58,-129.31 774.16,-129.94 766.28,-122.85 763.58,-129.31"/>
</a>
</g>
</g>
<!-- Node11 -->
<g id="Node000011" class="node">
<title>Node11</title>
<g id="a_Node000011"><a xlink:href="termination_8c.html#a59f3d4d2ea459665833cc3d5e9265d5e" target="_top" xlink:title="Helper function to store the (unscaled) solution in the solution struct.">
<polygon fill="white" stroke="#666666" points="686.5,-56 600.5,-56 600.5,-37 686.5,-37 686.5,-56"/>
<text text-anchor="middle" x="643.5" y="-44" font-family="Helvetica,sans-Serif" font-size="10.00">store_solution</text>
</a>
</g>
</g>
<!-- Node1&#45;&gt;Node11 -->
<g id="edge13_Node000001_Node000011" class="edge">
<title>Node1&#45;&gt;Node11</title>
<g id="a_edge13_Node000001_Node000011"><a xlink:title=" ">
<path fill="none" stroke="#63b8ff" d="M779.53,-122.79C761.6,-105.97 731.85,-80.31 702,-64.5 695.81,-61.22 688.92,-58.42 682.12,-56.08"/>
<polygon fill="#63b8ff" stroke="#63b8ff" points="777.24,-125.45 786.89,-129.83 782.08,-120.39 777.24,-125.45"/>
</a>
</g>
</g>
<!-- Node12 -->
<g id="Node000012" class="node">
<title>Node12</title>
<g id="a_Node000012"><a xlink:href="scaling_8c.html#ade09374cb3567d09382e0bc68df5acba" target="_top" xlink:title="Unscale the problem data.">
<polygon fill="white" stroke="#666666" points="684,-19 603,-19 603,0 684,0 684,-19"/>
<text text-anchor="middle" x="643.5" y="-7" font-family="Helvetica,sans-Serif" font-size="10.00">unscale_data</text>
</a>
</g>
</g>
<!-- Node1&#45;&gt;Node12 -->
<g id="edge14_Node000001_Node000012" class="edge">
<title>Node1&#45;&gt;Node12</title>
<g id="a_edge14_Node000001_Node000012"><a xlink:title=" ">
<path fill="none" stroke="#63b8ff" d="M785.66,-121.02C770.17,-96.21 739.41,-52.37 702,-27.5 696.6,-23.91 690.44,-21 684.21,-18.66"/>
<polygon fill="#63b8ff" stroke="#63b8ff" points="782.81,-123.08 791,-129.81 788.79,-119.45 782.81,-123.08"/>
</a>
</g>
</g>
<!-- Node2&#45;&gt;Node3 -->
<g id="edge2_Node000002_Node000003" class="edge">
<title>Node2&#45;&gt;Node3</title>
<g id="a_edge2_Node000002_Node000003"><a xlink:title=" ">
<path fill="none" stroke="#63b8ff" d="M438.05,-260.53C416.05,-255.21 390.51,-249.02 369.83,-244.02"/>
<polygon fill="#63b8ff" stroke="#63b8ff" points="437.34,-263.96 447.88,-262.91 438.99,-257.16 437.34,-263.96"/>
</a>
</g>
</g>
<!-- Node4 -->
<g id="Node000004" class="node">
<title>Node4</title>
<g id="a_Node000004"><a xlink:href="group__solver-grp.html#ga17fcba910c32b8518df93617591b1cf1" target="_top" xlink:title="Solve the quadratic program.">
<polygon fill="white" stroke="#666666" points="231,-244 152,-244 152,-225 231,-225 231,-244"/>
<text text-anchor="middle" x="191.5" y="-232" font-family="Helvetica,sans-Serif" font-size="10.00">qpalm_solve</text>
</a>
</g>
</g>
<!-- Node3&#45;&gt;Node4 -->
<g id="edge3_Node000003_Node000004" class="edge">
<title>Node3&#45;&gt;Node4</title>
<g id="a_edge3_Node000003_Node000004"><a xlink:title=" ">
<path fill="none" stroke="#63b8ff" d="M256.64,-234.5C247.93,-234.5 239.3,-234.5 231.34,-234.5"/>
<polygon fill="#63b8ff" stroke="#63b8ff" points="256.87,-238 266.87,-234.5 256.87,-231 256.87,-238"/>
</a>
</g>
</g>
<!-- Node5 -->
<g id="Node000005" class="node">
<title>Node5</title>
<g id="a_Node000005"><a xlink:href="qpalm__fortran_8c.html#abec01161fcee665e126347b862c404c4" target="_top" xlink:title=" ">
<polygon fill="white" stroke="#666666" points="106,-263 10,-263 10,-244 106,-244 106,-263"/>
<text text-anchor="middle" x="58" y="-251" font-family="Helvetica,sans-Serif" font-size="10.00">qpalm_fortran_c</text>
</a>
</g>
</g>
<!-- Node4&#45;&gt;Node5 -->
<g id="edge4_Node000004_Node000005" class="edge">
<title>Node4&#45;&gt;Node5</title>
<g id="a_edge4_Node000004_Node000005"><a xlink:title=" ">
<path fill="none" stroke="#63b8ff" d="M141.8,-241.54C130.2,-243.21 117.85,-245 106.31,-246.66"/>
<polygon fill="#63b8ff" stroke="#63b8ff" points="142.36,-244.99 151.76,-240.1 141.36,-238.06 142.36,-244.99"/>
</a>
</g>
</g>
<!-- Node6 -->
<g id="Node000006" class="node">
<title>Node6</title>
<g id="a_Node000006"><a xlink:href="classqpalm_1_1Solver.html#a7d723d189a812ffa19d688b7aa38ccca" target="_top" xlink:title="Solve the problem.">
<polygon fill="white" stroke="#666666" points="116,-226 0,-226 0,-207 116,-207 116,-226"/>
<text text-anchor="middle" x="58" y="-214" font-family="Helvetica,sans-Serif" font-size="10.00">qpalm::Solver::solve</text>
</a>
</g>
</g>
<!-- Node4&#45;&gt;Node6 -->
<g id="edge5_Node000004_Node000006" class="edge">
<title>Node4&#45;&gt;Node6</title>
<g id="a_edge5_Node000004_Node000006"><a xlink:title=" ">
<path fill="none" stroke="#63b8ff" d="M141.62,-227.81C133.43,-226.69 124.86,-225.52 116.47,-224.37"/>
<polygon fill="#63b8ff" stroke="#63b8ff" points="141.37,-231.31 151.76,-229.2 142.32,-224.37 141.37,-231.31"/>
</a>
</g>
</g>
<!-- Node7&#45;&gt;Node8 -->
<g id="edge7_Node000007_Node000008" class="edge">
<title>Node7&#45;&gt;Node8</title>
<g id="a_edge7_Node000007_Node000008"><a xlink:title=" ">
<path fill="none" stroke="#63b8ff" d="M601.1,-191.36C585.15,-189.38 566.6,-187.07 549.25,-184.92"/>
<polygon fill="#63b8ff" stroke="#63b8ff" points="600.81,-194.85 611.17,-192.61 601.68,-187.9 600.81,-194.85"/>
</a>
</g>
</g>
<!-- Node8&#45;&gt;Node3 -->
<g id="edge8_Node000008_Node000003" class="edge">
<title>Node8&#45;&gt;Node3</title>
<g id="a_edge8_Node000008_Node000003"><a xlink:title=" ">
<path fill="none" stroke="#63b8ff" d="M451.51,-190.57C422.65,-201.04 382.82,-215.51 356.86,-224.93"/>
<polygon fill="#63b8ff" stroke="#63b8ff" points="453.02,-193.74 461.22,-187.04 450.63,-187.16 453.02,-193.74"/>
</a>
</g>
</g>
<!-- Node9&#45;&gt;Node8 -->
<g id="edge10_Node000009_Node000008" class="edge">
<title>Node9&#45;&gt;Node8</title>
<g id="a_edge10_Node000009_Node000008"><a xlink:title=" ">
<path fill="none" stroke="#63b8ff" d="M607.43,-133.57C579.31,-144.04 540.49,-158.51 515.19,-167.93"/>
<polygon fill="#63b8ff" stroke="#63b8ff" points="608.74,-136.81 616.89,-130.04 606.3,-130.25 608.74,-136.81"/>
</a>
</g>
</g>
</g>
</svg>
