<?xml version="1.0" encoding="UTF-8" standalone="no"?>
<!DOCTYPE svg PUBLIC "-//W3C//DTD SVG 1.1//EN"
 "http://www.w3.org/Graphics/SVG/1.1/DTD/svg11.dtd">
<!-- Generated by graphviz version 2.43.0 (0)
 -->
<!-- Title: set_active_constraints Pages: 1 -->
<svg width="903pt" height="76pt"
 viewBox="0.00 0.00 903.00 75.50" xmlns="http://www.w3.org/2000/svg" xmlns:xlink="http://www.w3.org/1999/xlink">
<g id="graph0" class="graph" transform="scale(1 1) rotate(0) translate(4 71.5)">
<title>set_active_constraints</title>
<!-- Node1 -->
<g id="Node000001" class="node">
<title>Node1</title>
<g id="a_Node000001"><a xlink:title="Computes the set of active constraints and stores it in work&#45;&gt;solver&#45;&gt;active_constraints.">
<polygon fill="#999999" stroke="#666666" points="895,-45.5 769,-45.5 769,-26.5 895,-26.5 895,-45.5"/>
<text text-anchor="middle" x="832" y="-33.5" font-family="Helvetica,sans-Serif" font-size="10.00">set_active_constraints</text>
</a>
</g>
</g>
<!-- Node2 -->
<g id="Node000002" class="node">
<title>Node2</title>
<g id="a_Node000002"><a xlink:href="newton_8c.html#af1654e5597faac8b0ade25acf1fc1bc9" target="_top" xlink:title="Sets work&#45;&gt;d to the direction calculated by the semismooth Newton method.">
<polygon fill="white" stroke="#666666" points="723.5,-65.5 602.5,-65.5 602.5,-46.5 723.5,-46.5 723.5,-65.5"/>
<text text-anchor="middle" x="663" y="-53.5" font-family="Helvetica,sans-Serif" font-size="10.00">newton_set_direction</text>
</a>
</g>
</g>
<!-- Node1&#45;&gt;Node2 -->
<g id="edge1_Node000001_Node000002" class="edge">
<title>Node1&#45;&gt;Node2</title>
<g id="a_edge1_Node000001_Node000002"><a xlink:title=" ">
<path fill="none" stroke="#63b8ff" d="M758.67,-44.66C747.01,-46.06 735.06,-47.49 723.74,-48.85"/>
<polygon fill="#63b8ff" stroke="#63b8ff" points="759.3,-48.11 768.82,-43.45 758.47,-41.16 759.3,-48.11"/>
</a>
</g>
</g>
<!-- Node7 -->
<g id="Node000007" class="node">
<title>Node7</title>
<g id="a_Node000007"><a xlink:href="iteration_8c.html#a95e8560aaf51a2c4f68de9b65b0c6a15" target="_top" xlink:title=" ">
<polygon fill="white" stroke="#666666" points="733,-27.5 593,-27.5 593,-8.5 733,-8.5 733,-27.5"/>
<text text-anchor="middle" x="663" y="-15.5" font-family="Helvetica,sans-Serif" font-size="10.00">update_or_boost_gamma</text>
</a>
</g>
</g>
<!-- Node1&#45;&gt;Node7 -->
<g id="edge6_Node000001_Node000007" class="edge">
<title>Node1&#45;&gt;Node7</title>
<g id="a_edge6_Node000001_Node000007"><a xlink:title=" ">
<path fill="none" stroke="#63b8ff" d="M758.64,-28.2C750.21,-27.29 741.64,-26.37 733.26,-25.46"/>
<polygon fill="#63b8ff" stroke="#63b8ff" points="758.5,-31.71 768.82,-29.3 759.25,-24.75 758.5,-31.71"/>
</a>
</g>
</g>
<!-- Node3 -->
<g id="Node000003" class="node">
<title>Node3</title>
<g id="a_Node000003"><a xlink:href="iteration_8c.html#a9c9fafac9ce099122c5a594762e5a052" target="_top" xlink:title="Update the primal iterate.">
<polygon fill="white" stroke="#666666" points="392,-67.5 267,-67.5 267,-48.5 392,-48.5 392,-67.5"/>
<text text-anchor="middle" x="329.5" y="-55.5" font-family="Helvetica,sans-Serif" font-size="10.00">update_primal_iterate</text>
</a>
</g>
</g>
<!-- Node2&#45;&gt;Node3 -->
<g id="edge2_Node000002_Node000003" class="edge">
<title>Node2&#45;&gt;Node3</title>
<g id="a_edge2_Node000002_Node000003"><a xlink:title=" ">
<path fill="none" stroke="#63b8ff" d="M592.34,-56.42C533.15,-56.78 448.99,-57.29 392.2,-57.63"/>
<polygon fill="#63b8ff" stroke="#63b8ff" points="592.37,-59.92 602.35,-56.36 592.33,-52.92 592.37,-59.92"/>
</a>
</g>
</g>
<!-- Node4 -->
<g id="Node000004" class="node">
<title>Node4</title>
<g id="a_Node000004"><a xlink:href="group__solver-grp.html#ga17fcba910c32b8518df93617591b1cf1" target="_top" xlink:title="Solve the quadratic program.">
<polygon fill="white" stroke="#666666" points="231,-45.5 152,-45.5 152,-26.5 231,-26.5 231,-45.5"/>
<text text-anchor="middle" x="191.5" y="-33.5" font-family="Helvetica,sans-Serif" font-size="10.00">qpalm_solve</text>
</a>
</g>
</g>
<!-- Node3&#45;&gt;Node4 -->
<g id="edge3_Node000003_Node000004" class="edge">
<title>Node3&#45;&gt;Node4</title>
<g id="a_edge3_Node000003_Node000004"><a xlink:title=" ">
<path fill="none" stroke="#63b8ff" d="M259.48,-46.83C249.7,-45.25 239.95,-43.68 231.04,-42.24"/>
<polygon fill="#63b8ff" stroke="#63b8ff" points="259.21,-50.34 269.64,-48.48 260.33,-43.43 259.21,-50.34"/>
</a>
</g>
</g>
<!-- Node5 -->
<g id="Node000005" class="node">
<title>Node5</title>
<g id="a_Node000005"><a xlink:href="qpalm__fortran_8c.html#abec01161fcee665e126347b862c404c4" target="_top" xlink:title=" ">
<polygon fill="white" stroke="#666666" points="106,-64.5 10,-64.5 10,-45.5 106,-45.5 106,-64.5"/>
<text text-anchor="middle" x="58" y="-52.5" font-family="Helvetica,sans-Serif" font-size="10.00">qpalm_fortran_c</text>
</a>
</g>
</g>
<!-- Node4&#45;&gt;Node5 -->
<g id="edge4_Node000004_Node000005" class="edge">
<title>Node4&#45;&gt;Node5</title>
<g id="a_edge4_Node000004_Node000005"><a xlink:title=" ">
<path fill="none" stroke="#63b8ff" d="M141.8,-43.04C130.2,-44.71 117.85,-46.5 106.31,-48.16"/>
<polygon fill="#63b8ff" stroke="#63b8ff" points="142.36,-46.49 151.76,-41.6 141.36,-39.56 142.36,-46.49"/>
</a>
</g>
</g>
<!-- Node6 -->
<g id="Node000006" class="node">
<title>Node6</title>
<g id="a_Node000006"><a xlink:href="classqpalm_1_1Solver.html#a7d723d189a812ffa19d688b7aa38ccca" target="_top" xlink:title="Solve the problem.">
<polygon fill="white" stroke="#666666" points="116,-27.5 0,-27.5 0,-8.5 116,-8.5 116,-27.5"/>
<text text-anchor="middle" x="58" y="-15.5" font-family="Helvetica,sans-Serif" font-size="10.00">qpalm::Solver::solve</text>
</a>
</g>
</g>
<!-- Node4&#45;&gt;Node6 -->
<g id="edge5_Node000004_Node000006" class="edge">
<title>Node4&#45;&gt;Node6</title>
<g id="a_edge5_Node000004_Node000006"><a xlink:title=" ">
<path fill="none" stroke="#63b8ff" d="M141.62,-29.31C133.43,-28.19 124.86,-27.02 116.47,-25.87"/>
<polygon fill="#63b8ff" stroke="#63b8ff" points="141.37,-32.81 151.76,-30.7 142.32,-25.87 141.37,-32.81"/>
</a>
</g>
</g>
<!-- Node8 -->
<g id="Node000008" class="node">
<title>Node8</title>
<g id="a_Node000008"><a xlink:href="iteration_8c.html#a786f2d2af82a141fe3825a3964659d50" target="_top" xlink:title=" ">
<polygon fill="white" stroke="#666666" points="557,-30 428,-30 428,0 557,0 557,-30"/>
<text text-anchor="start" x="436" y="-18" font-family="Helvetica,sans-Serif" font-size="10.00">update_proximal_point</text>
<text text-anchor="middle" x="492.5" y="-7" font-family="Helvetica,sans-Serif" font-size="10.00">_and_penalty</text>
</a>
</g>
</g>
<!-- Node7&#45;&gt;Node8 -->
<g id="edge7_Node000007_Node000008" class="edge">
<title>Node7&#45;&gt;Node8</title>
<g id="a_edge7_Node000007_Node000008"><a xlink:title=" ">
<path fill="none" stroke="#63b8ff" d="M582.93,-16.59C574.33,-16.44 565.65,-16.28 557.26,-16.14"/>
<polygon fill="#63b8ff" stroke="#63b8ff" points="582.92,-20.09 592.98,-16.77 583.04,-13.09 582.92,-20.09"/>
</a>
</g>
</g>
<!-- Node9 -->
<g id="Node000009" class="node">
<title>Node9</title>
<g id="a_Node000009"><a xlink:href="iteration_8c.html#a1ad7b6cb4924a8de3378ed35890b02e7" target="_top" xlink:title=" ">
<polygon fill="white" stroke="#666666" points="386.5,-30 272.5,-30 272.5,0 386.5,0 386.5,-30"/>
<text text-anchor="start" x="280.5" y="-18" font-family="Helvetica,sans-Serif" font-size="10.00">update_dual_iterate</text>
<text text-anchor="middle" x="329.5" y="-7" font-family="Helvetica,sans-Serif" font-size="10.00">_and_parameters</text>
</a>
</g>
</g>
<!-- Node8&#45;&gt;Node9 -->
<g id="edge8_Node000008_Node000009" class="edge">
<title>Node8&#45;&gt;Node9</title>
<g id="a_edge8_Node000008_Node000009"><a xlink:title=" ">
<path fill="none" stroke="#63b8ff" d="M417.55,-15C407.16,-15 396.62,-15 386.63,-15"/>
<polygon fill="#63b8ff" stroke="#63b8ff" points="417.87,-18.5 427.87,-15 417.87,-11.5 417.87,-18.5"/>
</a>
</g>
</g>
<!-- Node9&#45;&gt;Node4 -->
<g id="edge9_Node000009_Node000004" class="edge">
<title>Node9&#45;&gt;Node4</title>
<g id="a_edge9_Node000009_Node000004"><a xlink:title=" ">
<path fill="none" stroke="#63b8ff" d="M262.21,-25.24C251.53,-26.88 240.8,-28.54 231.06,-30.05"/>
<polygon fill="#63b8ff" stroke="#63b8ff" points="263.05,-28.65 272.4,-23.66 261.98,-21.73 263.05,-28.65"/>
</a>
</g>
</g>
</g>
</svg>
