<?xml version="1.0" encoding="UTF-8" standalone="no"?>
<!DOCTYPE svg PUBLIC "-//W3C//DTD SVG 1.1//EN"
 "http://www.w3.org/Graphics/SVG/1.1/DTD/svg11.dtd">
<!-- Generated by graphviz version 2.43.0 (0)
 -->
<!-- Title: QPALM/interfaces/cxx/src/qpalm.cpp Pages: 1 -->
<!--zoomable 423 -->

<svg id="main" version="1.1" xmlns="http://www.w3.org/2000/svg" xmlns:xlink="http://www.w3.org/1999/xlink" xml:space="preserve" onload="init(evt)">
<style type="text/css"><![CDATA[
.node, .edge {opacity: 0.7;}
.node.selected, .edge.selected {opacity: 1;}
.edge:hover path { stroke: red; }
.edge:hover polygon { stroke: red; fill: red; }
]]></style>

<defs>
  <circle id="rim" cx="0" cy="0" r="7"/>
  <circle id="rim2" cx="0" cy="0" r="3.5"/>
  <g id="zoomPlus">
    <use xlink:href="#rim" fill="#404040"><set attributeName="fill" to="#808080" begin="zoomplus.mouseover" end="zoomplus.mouseout"/></use>
    <path d="M-4,0h8M0,-4v8" fill="none" stroke="white" stroke-width="1.5" pointer-events="none"/>
  </g>
  <g id="zoomMin">
    <use xlink:href="#rim" fill="#404040"><set attributeName="fill" to="#808080" begin="zoomminus.mouseover" end="zoomminus.mouseout"/></use>
    <path d="M-4,0h8" fill="none" stroke="white" stroke-width="1.5" pointer-events="none"/>
  </g>
  <g id="arrowUp" transform="translate(30 24)">
    <use xlink:href="#rim"/>
    <path pointer-events="none" fill="none" stroke="white" stroke-width="1.5" d="M0,-3.0v7 M-2.5,-0.5L0,-3.0L2.5,-0.5"/>
  </g>
  <g id="arrowRight" transform="rotate(90) translate(36 -43)">
    <use xlink:href="#rim"/>
    <path pointer-events="none" fill="none" stroke="white" stroke-width="1.5" d="M0,-3.0v7 M-2.5,-0.5L0,-3.0L2.5,-0.5"/>
  </g>
  <g id="arrowDown" transform="rotate(180) translate(-30 -48)">
    <use xlink:href="#rim"/>
    <path pointer-events="none" fill="none" stroke="white" stroke-width="1.5" d="M0,-3.0v7 M-2.5,-0.5L0,-3.0L2.5,-0.5"/>
  </g>
  <g id="arrowLeft" transform="rotate(270) translate(-36 17)">
    <use xlink:href="#rim"/>
    <path pointer-events="none" fill="none" stroke="white" stroke-width="1.5" d="M0,-3.0v7 M-2.5,-0.5L0,-3.0L2.5,-0.5"/>
  </g>
  <g id="resetDef">
    <use xlink:href="#rim2" fill="#404040"><set attributeName="fill" to="#808080" begin="reset.mouseover" end="reset.mouseout"/></use>
  </g>
</defs>
<script type="application/ecmascript">
var viewWidth = 1542;
var viewHeight = 423;
var sectionId = 'dynsection-0';
</script>
<script type="application/ecmascript" xlink:href="svg.min.js"/>
<svg id="graph" class="graph">
<g id="viewport">
<title>QPALM/interfaces/cxx/src/qpalm.cpp</title>
<!-- Node1 -->
<g id="Node000001" class="node">
<title>Node1</title>
<g id="a_Node000001"><a xlink:title=" ">
<polygon fill="#999999" stroke="#666666" points="1085,-415 963,-415 963,-385 1085,-385 1085,-415"/>
<text text-anchor="start" x="971" y="-403" font-family="Helvetica,sans-Serif" font-size="10.00">QPALM/interfaces/cxx</text>
<text text-anchor="middle" x="1024" y="-392" font-family="Helvetica,sans-Serif" font-size="10.00">/src/qpalm.cpp</text>
</a>
</g>
</g>
<!-- Node2 -->
<g id="Node000002" class="node">
<title>Node2</title>
<g id="a_Node000002"><a xlink:href="qpalm_8hpp.html" target="_top" xlink:title=" ">
<polygon fill="white" stroke="#666666" points="681,-184 613,-184 613,-165 681,-165 681,-184"/>
<text text-anchor="middle" x="647" y="-172" font-family="Helvetica,sans-Serif" font-size="10.00">qpalm.hpp</text>
</a>
</g>
</g>
<!-- Node1&#45;&gt;Node2 -->
<g id="edge1_Node000001_Node000002" class="edge">
<title>Node1&#45;&gt;Node2</title>
<g id="a_edge1_Node000001_Node000002"><a xlink:title=" ">
<path fill="none" stroke="#63b8ff" d="M962.87,-394.87C890.31,-386.85 769.76,-363.28 695,-294 665.93,-267.06 654.06,-220.04 649.54,-194.07"/>
<polygon fill="#63b8ff" stroke="#63b8ff" points="652.98,-193.4 647.98,-184.05 646.06,-194.47 652.98,-193.4"/>
</a>
</g>
</g>
<!-- Node18 -->
<g id="Node000018" class="node">
<title>Node18</title>
<g id="a_Node000018"><a xlink:href="qpalm_8h.html" target="_top" xlink:title="QPALM main solver API.">
<polygon fill="white" stroke="#666666" points="1052,-349 996,-349 996,-330 1052,-330 1052,-349"/>
<text text-anchor="middle" x="1024" y="-337" font-family="Helvetica,sans-Serif" font-size="10.00">qpalm.h</text>
</a>
</g>
</g>
<!-- Node1&#45;&gt;Node18 -->
<g id="edge19_Node000001_Node000018" class="edge">
<title>Node1&#45;&gt;Node18</title>
<g id="a_edge19_Node000001_Node000018"><a xlink:title=" ">
<path fill="none" stroke="#63b8ff" d="M1024,-384.84C1024,-377.21 1024,-367.7 1024,-359.45"/>
<polygon fill="#63b8ff" stroke="#63b8ff" points="1027.5,-359.27 1024,-349.27 1020.5,-359.27 1027.5,-359.27"/>
</a>
</g>
</g>
<!-- Node30 -->
<g id="Node000030" class="node">
<title>Node30</title>
<g id="a_Node000030"><a xlink:title=" ">
<polygon fill="#e0e0e0" stroke="#999999" points="1135.5,-349 1070.5,-349 1070.5,-330 1135.5,-330 1135.5,-349"/>
<text text-anchor="middle" x="1103" y="-337" font-family="Helvetica,sans-Serif" font-size="10.00">stdexcept</text>
</a>
</g>
</g>
<!-- Node1&#45;&gt;Node30 -->
<g id="edge53_Node000001_Node000030" class="edge">
<title>Node1&#45;&gt;Node30</title>
<g id="a_edge53_Node000001_Node000030"><a xlink:title=" ">
<path fill="none" stroke="#63b8ff" d="M1043.12,-384.84C1055.18,-375.91 1070.71,-364.41 1082.94,-355.35"/>
<polygon fill="#63b8ff" stroke="#63b8ff" points="1085.21,-358.03 1091.16,-349.27 1081.04,-352.4 1085.21,-358.03"/>
</a>
</g>
</g>
<!-- Node3 -->
<g id="Node000003" class="node">
<title>Node3</title>
<g id="a_Node000003"><a xlink:href="sparse_8hpp.html" target="_top" xlink:title=" ">
<polygon fill="white" stroke="#666666" points="537,-129 433,-129 433,-110 537,-110 537,-129"/>
<text text-anchor="middle" x="485" y="-117" font-family="Helvetica,sans-Serif" font-size="10.00">qpalm/sparse.hpp</text>
</a>
</g>
</g>
<!-- Node2&#45;&gt;Node3 -->
<g id="edge2_Node000002_Node000003" class="edge">
<title>Node2&#45;&gt;Node3</title>
<g id="a_edge2_Node000002_Node000003"><a xlink:title=" ">
<path fill="none" stroke="#63b8ff" d="M620.97,-164.98C593.89,-156.13 551.29,-142.19 520.99,-132.28"/>
<polygon fill="#63b8ff" stroke="#63b8ff" points="521.82,-128.87 511.23,-129.08 519.65,-135.52 521.82,-128.87"/>
</a>
</g>
</g>
<!-- Node14 -->
<g id="Node000014" class="node">
<title>Node14</title>
<g id="a_Node000014"><a xlink:href="types_8h.html" target="_top" xlink:title="Internal data structures used in QPALM.">
<polygon fill="white" stroke="#666666" points="1142,-129 1056,-129 1056,-110 1142,-110 1142,-129"/>
<text text-anchor="middle" x="1099" y="-117" font-family="Helvetica,sans-Serif" font-size="10.00">qpalm/types.h</text>
</a>
</g>
</g>
<!-- Node2&#45;&gt;Node14 -->
<g id="edge13_Node000002_Node000014" class="edge">
<title>Node2&#45;&gt;Node14</title>
<g id="a_edge13_Node000002_Node000014"><a xlink:title=" ">
<path fill="none" stroke="#63b8ff" d="M681.34,-169.47C759.68,-160.29 952.02,-137.73 1045.83,-126.74"/>
<polygon fill="#63b8ff" stroke="#63b8ff" points="1046.42,-130.19 1055.95,-125.55 1045.61,-123.24 1046.42,-130.19"/>
</a>
</g>
</g>
<!-- Node16 -->
<g id="Node000016" class="node">
<title>Node16</title>
<g id="a_Node000016"><a xlink:title=" ">
<polygon fill="#e0e0e0" stroke="#999999" points="607,-129 555,-129 555,-110 607,-110 607,-129"/>
<text text-anchor="middle" x="581" y="-117" font-family="Helvetica,sans-Serif" font-size="10.00">cassert</text>
</a>
</g>
</g>
<!-- Node2&#45;&gt;Node16 -->
<g id="edge17_Node000002_Node000016" class="edge">
<title>Node2&#45;&gt;Node16</title>
<g id="a_edge17_Node000002_Node000016"><a xlink:title=" ">
<path fill="none" stroke="#63b8ff" d="M636.4,-164.98C626.54,-157.07 611.65,-145.11 599.78,-135.58"/>
<polygon fill="#63b8ff" stroke="#63b8ff" points="601.79,-132.7 591.8,-129.17 597.4,-138.16 601.79,-132.7"/>
</a>
</g>
</g>
<!-- Node17 -->
<g id="Node000017" class="node">
<title>Node17</title>
<g id="a_Node000017"><a xlink:title=" ">
<polygon fill="#e0e0e0" stroke="#999999" points="681,-129 625,-129 625,-110 681,-110 681,-129"/>
<text text-anchor="middle" x="653" y="-117" font-family="Helvetica,sans-Serif" font-size="10.00">optional</text>
</a>
</g>
</g>
<!-- Node2&#45;&gt;Node17 -->
<g id="edge18_Node000002_Node000017" class="edge">
<title>Node2&#45;&gt;Node17</title>
<g id="a_edge18_Node000002_Node000017"><a xlink:title=" ">
<path fill="none" stroke="#63b8ff" d="M647.99,-164.75C648.78,-157.8 649.9,-147.85 650.89,-139.13"/>
<polygon fill="#63b8ff" stroke="#63b8ff" points="654.38,-139.42 652.03,-129.09 647.42,-138.63 654.38,-139.42"/>
</a>
</g>
</g>
<!-- Node4 -->
<g id="Node000004" class="node">
<title>Node4</title>
<g id="a_Node000004"><a xlink:title=" ">
<polygon fill="#e0e0e0" stroke="#999999" points="258,-74 178,-74 178,-55 258,-55 258,-74"/>
<text text-anchor="middle" x="218" y="-62" font-family="Helvetica,sans-Serif" font-size="10.00">Eigen/Sparse</text>
</a>
</g>
</g>
<!-- Node3&#45;&gt;Node4 -->
<g id="edge3_Node000003_Node000004" class="edge">
<title>Node3&#45;&gt;Node4</title>
<g id="a_edge3_Node000003_Node000004"><a xlink:title=" ">
<path fill="none" stroke="#63b8ff" d="M442.1,-109.98C394.66,-100.57 318.32,-85.41 268.15,-75.45"/>
<polygon fill="#63b8ff" stroke="#63b8ff" points="268.66,-71.99 258.17,-73.47 267.3,-78.85 268.66,-71.99"/>
</a>
</g>
</g>
<!-- Node5 -->
<g id="Node000005" class="node">
<title>Node5</title>
<g id="a_Node000005"><a xlink:title=" ">
<polygon fill="#e0e0e0" stroke="#999999" points="395.5,-74 276.5,-74 276.5,-55 395.5,-55 395.5,-74"/>
<text text-anchor="middle" x="336" y="-62" font-family="Helvetica,sans-Serif" font-size="10.00">Eigen/src/Core/Map.h</text>
</a>
</g>
</g>
<!-- Node3&#45;&gt;Node5 -->
<g id="edge4_Node000003_Node000005" class="edge">
<title>Node3&#45;&gt;Node5</title>
<g id="a_edge4_Node000003_Node000005"><a xlink:title=" ">
<path fill="none" stroke="#63b8ff" d="M461.06,-109.98C436.44,-101.23 397.88,-87.51 370.08,-77.62"/>
<polygon fill="#63b8ff" stroke="#63b8ff" points="370.97,-74.22 360.38,-74.17 368.62,-80.82 370.97,-74.22"/>
</a>
</g>
</g>
<!-- Node6 -->
<g id="Node000006" class="node">
<title>Node6</title>
<g id="a_Node000006"><a xlink:title=" ">
<polygon fill="#e0e0e0" stroke="#999999" points="544,-74 414,-74 414,-55 544,-55 544,-74"/>
<text text-anchor="middle" x="479" y="-62" font-family="Helvetica,sans-Serif" font-size="10.00">Eigen/src/Core/Matrix.h</text>
</a>
</g>
</g>
<!-- Node3&#45;&gt;Node6 -->
<g id="edge5_Node000003_Node000006" class="edge">
<title>Node3&#45;&gt;Node6</title>
<g id="a_edge5_Node000003_Node000006"><a xlink:title=" ">
<path fill="none" stroke="#63b8ff" d="M484.01,-109.75C483.22,-102.8 482.1,-92.85 481.11,-84.13"/>
<polygon fill="#63b8ff" stroke="#63b8ff" points="484.58,-83.63 479.97,-74.09 477.62,-84.42 484.58,-83.63"/>
</a>
</g>
</g>
<!-- Node7 -->
<g id="Node000007" class="node">
<title>Node7</title>
<g id="a_Node000007"><a xlink:title=" ">
<polygon fill="#e0e0e0" stroke="#999999" points="664,-74 562,-74 562,-55 664,-55 664,-74"/>
<text text-anchor="middle" x="613" y="-62" font-family="Helvetica,sans-Serif" font-size="10.00">ladel_constants.h</text>
</a>
</g>
</g>
<!-- Node3&#45;&gt;Node7 -->
<g id="edge6_Node000003_Node000007" class="edge">
<title>Node3&#45;&gt;Node7</title>
<g id="a_edge6_Node000003_Node000007"><a xlink:title=" ">
<path fill="none" stroke="#63b8ff" d="M505.57,-109.98C526.43,-101.34 558.97,-87.87 582.77,-78.02"/>
<polygon fill="#63b8ff" stroke="#63b8ff" points="584.16,-81.23 592.06,-74.17 581.48,-74.76 584.16,-81.23"/>
</a>
</g>
</g>
<!-- Node8 -->
<g id="Node000008" class="node">
<title>Node8</title>
<g id="a_Node000008"><a xlink:title=" ">
<polygon fill="#e0e0e0" stroke="#999999" points="764,-74 682,-74 682,-55 764,-55 764,-74"/>
<text text-anchor="middle" x="723" y="-62" font-family="Helvetica,sans-Serif" font-size="10.00">ladel_types.h</text>
</a>
</g>
</g>
<!-- Node3&#45;&gt;Node8 -->
<g id="edge7_Node000003_Node000008" class="edge">
<title>Node3&#45;&gt;Node8</title>
<g id="a_edge7_Node000003_Node000008"><a xlink:title=" ">
<path fill="none" stroke="#63b8ff" d="M523.24,-109.98C564.41,-100.82 629.99,-86.21 674.7,-76.26"/>
<polygon fill="#63b8ff" stroke="#63b8ff" points="675.46,-79.67 684.46,-74.08 673.94,-72.84 675.46,-79.67"/>
</a>
</g>
</g>
<!-- Node9 -->
<g id="Node000009" class="node">
<title>Node9</title>
<g id="a_Node000009"><a xlink:href="global__opts_8h.html" target="_top" xlink:title="Custom memory allocation, print and utility functions, and data types for floats and ints.">
<polygon fill="white" stroke="#666666" points="974,-74 858,-74 858,-55 974,-55 974,-74"/>
<text text-anchor="middle" x="916" y="-62" font-family="Helvetica,sans-Serif" font-size="10.00">qpalm/global_opts.h</text>
</a>
</g>
</g>
<!-- Node3&#45;&gt;Node9 -->
<g id="edge8_Node000003_Node000009" class="edge">
<title>Node3&#45;&gt;Node9</title>
<g id="a_edge8_Node000003_Node000009"><a xlink:title=" ">
<path fill="none" stroke="#63b8ff" d="M537.23,-111.15C540.2,-110.76 543.14,-110.37 546,-110 677.21,-93.06 712.68,-90.65 847.58,-74.16"/>
<polygon fill="#63b8ff" stroke="#63b8ff" points="848.4,-77.59 857.9,-72.9 847.55,-70.64 848.4,-77.59"/>
</a>
</g>
</g>
<!-- Node12 -->
<g id="Node000012" class="node">
<title>Node12</title>
<g id="a_Node000012"><a xlink:title=" ">
<polygon fill="#e0e0e0" stroke="#999999" points="840,-74 782,-74 782,-55 840,-55 840,-74"/>
<text text-anchor="middle" x="811" y="-62" font-family="Helvetica,sans-Serif" font-size="10.00">memory</text>
</a>
</g>
</g>
<!-- Node3&#45;&gt;Node12 -->
<g id="edge11_Node000003_Node000012" class="edge">
<title>Node3&#45;&gt;Node12</title>
<g id="a_edge11_Node000003_Node000012"><a xlink:title=" ">
<path fill="none" stroke="#63b8ff" d="M537.19,-110.86C603.37,-101.11 714.83,-84.44 771.98,-74.06"/>
<polygon fill="#63b8ff" stroke="#63b8ff" points="772.8,-77.47 782,-72.2 771.52,-70.58 772.8,-77.47"/>
</a>
</g>
</g>
<!-- Node13 -->
<g id="Node000013" class="node">
<title>Node13</title>
<g id="a_Node000013"><a xlink:title=" ">
<polygon fill="#e0e0e0" stroke="#999999" points="160,-74 0,-74 0,-55 160,-55 160,-74"/>
<text text-anchor="middle" x="80" y="-62" font-family="Helvetica,sans-Serif" font-size="10.00">qpalm/qpalm_cxx&#45;export.hpp</text>
</a>
</g>
</g>
<!-- Node3&#45;&gt;Node13 -->
<g id="edge12_Node000003_Node000013" class="edge">
<title>Node3&#45;&gt;Node13</title>
<g id="a_edge12_Node000003_Node000013"><a xlink:title=" ">
<path fill="none" stroke="#63b8ff" d="M432.88,-111.68C362.3,-102.44 235.88,-85.9 155.07,-75.32"/>
<polygon fill="#63b8ff" stroke="#63b8ff" points="155.33,-71.83 144.96,-74 154.42,-78.77 155.33,-71.83"/>
</a>
</g>
</g>
<!-- Node10 -->
<g id="Node000010" class="node">
<title>Node10</title>
<g id="a_Node000010"><a xlink:title=" ">
<polygon fill="#e0e0e0" stroke="#999999" points="1046,-19 996,-19 996,0 1046,0 1046,-19"/>
<text text-anchor="middle" x="1021" y="-7" font-family="Helvetica,sans-Serif" font-size="10.00">ladel.h</text>
</a>
</g>
</g>
<!-- Node9&#45;&gt;Node10 -->
<g id="edge9_Node000009_Node000010" class="edge">
<title>Node9&#45;&gt;Node10</title>
<g id="a_edge9_Node000009_Node000010"><a xlink:title=" ">
<path fill="none" stroke="#63b8ff" d="M932.87,-54.98C949.61,-46.54 975.5,-33.47 994.89,-23.68"/>
<polygon fill="#63b8ff" stroke="#63b8ff" points="996.47,-26.8 1003.82,-19.17 993.32,-20.55 996.47,-26.8"/>
</a>
</g>
</g>
<!-- Node11 -->
<g id="Node000011" class="node">
<title>Node11</title>
<g id="a_Node000011"><a xlink:title=" ">
<polygon fill="#e0e0e0" stroke="#999999" points="941.5,-19 890.5,-19 890.5,0 941.5,0 941.5,-19"/>
<text text-anchor="middle" x="916" y="-7" font-family="Helvetica,sans-Serif" font-size="10.00">math.h</text>
</a>
</g>
</g>
<!-- Node9&#45;&gt;Node11 -->
<g id="edge10_Node000009_Node000011" class="edge">
<title>Node9&#45;&gt;Node11</title>
<g id="a_edge10_Node000009_Node000011"><a xlink:title=" ">
<path fill="none" stroke="#63b8ff" d="M916,-54.75C916,-47.8 916,-37.85 916,-29.13"/>
<polygon fill="#63b8ff" stroke="#63b8ff" points="919.5,-29.09 916,-19.09 912.5,-29.09 919.5,-29.09"/>
</a>
</g>
</g>
<!-- Node14&#45;&gt;Node9 -->
<g id="edge15_Node000014_Node000009" class="edge">
<title>Node14&#45;&gt;Node9</title>
<g id="a_edge15_Node000014_Node000009"><a xlink:title=" ">
<path fill="none" stroke="#63b8ff" d="M1069.6,-109.98C1038.61,-101.01 989.62,-86.82 955.33,-76.89"/>
<polygon fill="#63b8ff" stroke="#63b8ff" points="956.21,-73.5 945.63,-74.08 954.26,-80.23 956.21,-73.5"/>
</a>
</g>
</g>
<!-- Node14&#45;&gt;Node10 -->
<g id="edge16_Node000014_Node000010" class="edge">
<title>Node14&#45;&gt;Node10</title>
<g id="a_edge16_Node000014_Node000010"><a xlink:title=" ">
<path fill="none" stroke="#63b8ff" d="M1090.19,-109.74C1081.7,-101.06 1068.75,-87.21 1059,-74 1048.06,-59.17 1037.45,-41.03 1030.23,-27.93"/>
<polygon fill="#63b8ff" stroke="#63b8ff" points="1033.26,-26.18 1025.43,-19.05 1027.11,-29.51 1033.26,-26.18"/>
</a>
</g>
</g>
<!-- Node15 -->
<g id="Node000015" class="node">
<title>Node15</title>
<g id="a_Node000015"><a xlink:title=" ">
<polygon fill="#e0e0e0" stroke="#999999" points="1142,-74 1068,-74 1068,-55 1142,-55 1142,-74"/>
<text text-anchor="middle" x="1105" y="-62" font-family="Helvetica,sans-Serif" font-size="10.00">stdatomic.h</text>
</a>
</g>
</g>
<!-- Node14&#45;&gt;Node15 -->
<g id="edge14_Node000014_Node000015" class="edge">
<title>Node14&#45;&gt;Node15</title>
<g id="a_edge14_Node000014_Node000015"><a xlink:title=" ">
<path fill="none" stroke="#63b8ff" d="M1099.99,-109.75C1100.78,-102.8 1101.9,-92.85 1102.89,-84.13"/>
<polygon fill="#63b8ff" stroke="#63b8ff" points="1106.38,-84.42 1104.03,-74.09 1099.42,-83.63 1106.38,-84.42"/>
</a>
</g>
</g>
<!-- Node18&#45;&gt;Node9 -->
<g id="edge22_Node000018_Node000009" class="edge">
<title>Node18&#45;&gt;Node9</title>
<g id="a_edge22_Node000018_Node000009"><a xlink:title=" ">
<path fill="none" stroke="#63b8ff" d="M995.77,-336.59C935,-332.05 794.08,-319.06 754,-294 724.67,-275.66 709,-265.09 709,-230.5 709,-230.5 709,-230.5 709,-173.5 709,-136.04 816.88,-96.38 876.88,-77.22"/>
<polygon fill="#63b8ff" stroke="#63b8ff" points="878.29,-80.45 886.78,-74.11 876.19,-73.77 878.29,-80.45"/>
</a>
</g>
</g>
<!-- Node18&#45;&gt;Node14 -->
<g id="edge47_Node000018_Node000014" class="edge">
<title>Node18&#45;&gt;Node14</title>
<g id="a_edge47_Node000018_Node000014"><a xlink:title=" ">
<path fill="none" stroke="#63b8ff" d="M1027.61,-329.86C1033.39,-316.81 1045.73,-291.8 1062,-275 1082.58,-253.75 1103.82,-264.97 1118,-239 1135.65,-206.68 1119.87,-162.5 1108.41,-138.24"/>
<polygon fill="#63b8ff" stroke="#63b8ff" points="1111.47,-136.54 1103.87,-129.16 1105.21,-139.67 1111.47,-136.54"/>
</a>
</g>
</g>
<!-- Node19 -->
<g id="Node000019" class="node">
<title>Node19</title>
<g id="a_Node000019"><a xlink:href="constants_8h.html" target="_top" xlink:title="Constants used in QPALM.">
<polygon fill="white" stroke="#666666" points="1428.5,-129 1321.5,-129 1321.5,-110 1428.5,-110 1428.5,-129"/>
<text text-anchor="middle" x="1375" y="-117" font-family="Helvetica,sans-Serif" font-size="10.00">qpalm/constants.h</text>
</a>
</g>
</g>
<!-- Node18&#45;&gt;Node19 -->
<g id="edge20_Node000018_Node000019" class="edge">
<title>Node18&#45;&gt;Node19</title>
<g id="a_edge20_Node000018_Node000019"><a xlink:title=" ">
<path fill="none" stroke="#63b8ff" d="M1052.16,-331.85C1055.46,-331.18 1058.8,-330.54 1062,-330 1200.51,-306.64 1244.89,-344.43 1376,-294 1454.5,-263.8 1491.51,-258.79 1530,-184 1550.52,-144.12 1490.07,-129.25 1438.75,-123.72"/>
<polygon fill="#63b8ff" stroke="#63b8ff" points="1438.93,-120.22 1428.64,-122.74 1438.25,-127.19 1438.93,-120.22"/>
</a>
</g>
</g>
<!-- Node20 -->
<g id="Node000020" class="node">
<title>Node20</title>
<g id="a_Node000020"><a xlink:href="iteration_8h.html" target="_top" xlink:title="QPALM main solver routines.">
<polygon fill="white" stroke="#666666" points="838.5,-184 737.5,-184 737.5,-165 838.5,-165 838.5,-184"/>
<text text-anchor="middle" x="788" y="-172" font-family="Helvetica,sans-Serif" font-size="10.00">qpalm/iteration.h</text>
</a>
</g>
</g>
<!-- Node18&#45;&gt;Node20 -->
<g id="edge23_Node000018_Node000020" class="edge">
<title>Node18&#45;&gt;Node20</title>
<g id="a_edge23_Node000018_Node000020"><a xlink:title=" ">
<path fill="none" stroke="#63b8ff" d="M995.77,-337.99C935.22,-336.24 796.01,-328.47 767,-294 742.77,-265.21 763.02,-218.28 777.17,-192.98"/>
<polygon fill="#63b8ff" stroke="#63b8ff" points="780.31,-194.54 782.36,-184.15 774.27,-191 780.31,-194.54"/>
</a>
</g>
</g>
<!-- Node21 -->
<g id="Node000021" class="node">
<title>Node21</title>
<g id="a_Node000021"><a xlink:href="lin__alg_8h.html" target="_top" xlink:title="Linear algebra with vectors.">
<polygon fill="white" stroke="#666666" points="1109,-239 1017,-239 1017,-220 1109,-220 1109,-239"/>
<text text-anchor="middle" x="1063" y="-227" font-family="Helvetica,sans-Serif" font-size="10.00">qpalm/lin_alg.h</text>
</a>
</g>
</g>
<!-- Node18&#45;&gt;Node21 -->
<g id="edge26_Node000018_Node000021" class="edge">
<title>Node18&#45;&gt;Node21</title>
<g id="a_edge26_Node000018_Node000021"><a xlink:title=" ">
<path fill="none" stroke="#63b8ff" d="M1023.18,-329.95C1022.3,-317.43 1021.89,-293.59 1029,-275 1033.02,-264.49 1040.36,-254.38 1047.19,-246.46"/>
<polygon fill="#63b8ff" stroke="#63b8ff" points="1049.79,-248.82 1053.97,-239.08 1044.63,-244.08 1049.79,-248.82"/>
</a>
</g>
</g>
<!-- Node22 -->
<g id="Node000022" class="node">
<title>Node22</title>
<g id="a_Node000022"><a xlink:href="solver__interface_8h.html" target="_top" xlink:title="Interface and wrapper to matrix/factorization (ladel) functions.">
<polygon fill="white" stroke="#666666" points="1033,-184 895,-184 895,-165 1033,-165 1033,-184"/>
<text text-anchor="middle" x="964" y="-172" font-family="Helvetica,sans-Serif" font-size="10.00">qpalm/solver_interface.h</text>
</a>
</g>
</g>
<!-- Node18&#45;&gt;Node22 -->
<g id="edge44_Node000018_Node000022" class="edge">
<title>Node18&#45;&gt;Node22</title>
<g id="a_edge44_Node000018_Node000022"><a xlink:title=" ">
<path fill="none" stroke="#63b8ff" d="M998.54,-329.91C963.74,-316.63 902.71,-287.45 877,-239 864.3,-215.06 893.85,-197.88 921.9,-187.47"/>
<polygon fill="#63b8ff" stroke="#63b8ff" points="923.38,-190.66 931.68,-184.07 921.09,-184.05 923.38,-190.66"/>
</a>
</g>
</g>
<!-- Node23 -->
<g id="Node000023" class="node">
<title>Node23</title>
<g id="a_Node000023"><a xlink:href="linesearch_8h.html" target="_top" xlink:title="Routines to perform exact linesearch.">
<polygon fill="white" stroke="#666666" points="1389,-184 1279,-184 1279,-165 1389,-165 1389,-184"/>
<text text-anchor="middle" x="1334" y="-172" font-family="Helvetica,sans-Serif" font-size="10.00">qpalm/linesearch.h</text>
</a>
</g>
</g>
<!-- Node18&#45;&gt;Node23 -->
<g id="edge33_Node000018_Node000023" class="edge">
<title>Node18&#45;&gt;Node23</title>
<g id="a_edge33_Node000018_Node000023"><a xlink:title=" ">
<path fill="none" stroke="#63b8ff" d="M1052.17,-331.92C1055.47,-331.23 1058.81,-330.58 1062,-330 1119.84,-319.58 1277.7,-330.19 1324,-294 1351.03,-272.87 1350.51,-254.01 1346,-220 1344.84,-211.27 1342.47,-201.83 1340.13,-193.9"/>
<polygon fill="#63b8ff" stroke="#63b8ff" points="1343.43,-192.72 1337.09,-184.23 1336.75,-194.82 1343.43,-192.72"/>
</a>
</g>
</g>
<!-- Node24 -->
<g id="Node000024" class="node">
<title>Node24</title>
<g id="a_Node000024"><a xlink:href="newton_8h.html" target="_top" xlink:title="Functions to calculate the semismooth Newton direction.">
<polygon fill="white" stroke="#666666" points="1336.5,-239 1241.5,-239 1241.5,-220 1336.5,-220 1336.5,-239"/>
<text text-anchor="middle" x="1289" y="-227" font-family="Helvetica,sans-Serif" font-size="10.00">qpalm/newton.h</text>
</a>
</g>
</g>
<!-- Node18&#45;&gt;Node24 -->
<g id="edge36_Node000018_Node000024" class="edge">
<title>Node18&#45;&gt;Node24</title>
<g id="a_edge36_Node000018_Node000024"><a xlink:title=" ">
<path fill="none" stroke="#63b8ff" d="M1052.17,-331.95C1055.48,-331.26 1058.81,-330.59 1062,-330 1116.33,-319.96 1271.87,-335.8 1308,-294 1319.23,-281 1310.9,-261.57 1302.01,-247.62"/>
<polygon fill="#63b8ff" stroke="#63b8ff" points="1304.86,-245.59 1296.28,-239.38 1299.11,-249.59 1304.86,-245.59"/>
</a>
</g>
</g>
<!-- Node25 -->
<g id="Node000025" class="node">
<title>Node25</title>
<g id="a_Node000025"><a xlink:href="nonconvex_8h.html" target="_top" xlink:title="Routines to deal with nonconvex QPs.">
<polygon fill="white" stroke="#666666" points="998.5,-239 885.5,-239 885.5,-220 998.5,-220 998.5,-239"/>
<text text-anchor="middle" x="942" y="-227" font-family="Helvetica,sans-Serif" font-size="10.00">qpalm/nonconvex.h</text>
</a>
</g>
</g>
<!-- Node18&#45;&gt;Node25 -->
<g id="edge38_Node000018_Node000025" class="edge">
<title>Node18&#45;&gt;Node25</title>
<g id="a_edge38_Node000018_Node000025"><a xlink:title=" ">
<path fill="none" stroke="#63b8ff" d="M1017.29,-329.66C1003.65,-311.69 972.48,-270.64 954.82,-247.38"/>
<polygon fill="#63b8ff" stroke="#63b8ff" points="957.41,-245.01 948.57,-239.16 951.83,-249.24 957.41,-245.01"/>
</a>
</g>
</g>
<!-- Node26 -->
<g id="Node000026" class="node">
<title>Node26</title>
<g id="a_Node000026"><a xlink:href="scaling_8h.html" target="_top" xlink:title="Problem data scaling during setup.">
<polygon fill="white" stroke="#666666" points="1165,-294 1071,-294 1071,-275 1165,-275 1165,-294"/>
<text text-anchor="middle" x="1118" y="-282" font-family="Helvetica,sans-Serif" font-size="10.00">qpalm/scaling.h</text>
</a>
</g>
</g>
<!-- Node18&#45;&gt;Node26 -->
<g id="edge40_Node000018_Node000026" class="edge">
<title>Node18&#45;&gt;Node26</title>
<g id="a_edge40_Node000018_Node000026"><a xlink:title=" ">
<path fill="none" stroke="#63b8ff" d="M1039.1,-329.98C1053.82,-321.69 1076.42,-308.94 1093.67,-299.22"/>
<polygon fill="#63b8ff" stroke="#63b8ff" points="1095.63,-302.13 1102.62,-294.17 1092.19,-296.03 1095.63,-302.13"/>
</a>
</g>
</g>
<!-- Node27 -->
<g id="Node000027" class="node">
<title>Node27</title>
<g id="a_Node000027"><a xlink:href="termination_8h.html" target="_top" xlink:title="Routines to check the termination and infeasibility criteria.">
<polygon fill="white" stroke="#666666" points="1299,-294 1183,-294 1183,-275 1299,-275 1299,-294"/>
<text text-anchor="middle" x="1241" y="-282" font-family="Helvetica,sans-Serif" font-size="10.00">qpalm/termination.h</text>
</a>
</g>
</g>
<!-- Node18&#45;&gt;Node27 -->
<g id="edge45_Node000018_Node000027" class="edge">
<title>Node18&#45;&gt;Node27</title>
<g id="a_edge45_Node000018_Node000027"><a xlink:title=" ">
<path fill="none" stroke="#63b8ff" d="M1052.37,-331.57C1088.96,-322.64 1153.01,-306.99 1196.2,-296.44"/>
<polygon fill="#63b8ff" stroke="#63b8ff" points="1197.28,-299.78 1206.17,-294.01 1195.62,-292.98 1197.28,-299.78"/>
</a>
</g>
</g>
<!-- Node28 -->
<g id="Node000028" class="node">
<title>Node28</title>
<g id="a_Node000028"><a xlink:href="util_8h.html" target="_top" xlink:title="Utility functions.">
<polygon fill="white" stroke="#666666" points="1520.5,-184 1445.5,-184 1445.5,-165 1520.5,-165 1520.5,-184"/>
<text text-anchor="middle" x="1483" y="-172" font-family="Helvetica,sans-Serif" font-size="10.00">qpalm/util.h</text>
</a>
</g>
</g>
<!-- Node18&#45;&gt;Node28 -->
<g id="edge48_Node000018_Node000028" class="edge">
<title>Node18&#45;&gt;Node28</title>
<g id="a_edge48_Node000018_Node000028"><a xlink:title=" ">
<path fill="none" stroke="#63b8ff" d="M1052.16,-331.89C1055.47,-331.21 1058.8,-330.56 1062,-330 1187.33,-308.09 1229.81,-345.83 1346,-294 1399.15,-270.29 1447.06,-218.93 1469.52,-192.29"/>
<polygon fill="#63b8ff" stroke="#63b8ff" points="1472.47,-194.22 1476.13,-184.28 1467.07,-189.76 1472.47,-194.22"/>
</a>
</g>
</g>
<!-- Node29 -->
<g id="Node000029" class="node">
<title>Node29</title>
<g id="a_Node000029"><a xlink:href="validate_8h.html" target="_top" xlink:title="Validation of the user provided settings and data.">
<polygon fill="white" stroke="#666666" points="874.5,-294 775.5,-294 775.5,-275 874.5,-275 874.5,-294"/>
<text text-anchor="middle" x="825" y="-282" font-family="Helvetica,sans-Serif" font-size="10.00">qpalm/validate.h</text>
</a>
</g>
</g>
<!-- Node18&#45;&gt;Node29 -->
<g id="edge51_Node000018_Node000029" class="edge">
<title>Node18&#45;&gt;Node29</title>
<g id="a_edge51_Node000018_Node000029"><a xlink:title=" ">
<path fill="none" stroke="#63b8ff" d="M995.91,-331.02C962.37,-322.09 905.96,-307.06 867.18,-296.73"/>
<polygon fill="#63b8ff" stroke="#63b8ff" points="867.8,-293.28 857.23,-294.08 866,-300.04 867.8,-293.28"/>
</a>
</g>
</g>
<!-- Node19&#45;&gt;Node10 -->
<g id="edge21_Node000019_Node000010" class="edge">
<title>Node19&#45;&gt;Node10</title>
<g id="a_edge21_Node000019_Node000010"><a xlink:title=" ">
<path fill="none" stroke="#63b8ff" d="M1346.93,-109.94C1282.87,-90.39 1126.04,-42.55 1055.9,-21.15"/>
<polygon fill="#63b8ff" stroke="#63b8ff" points="1056.78,-17.76 1046.2,-18.19 1054.74,-24.45 1056.78,-17.76"/>
</a>
</g>
</g>
<!-- Node20&#45;&gt;Node9 -->
<g id="edge25_Node000020_Node000009" class="edge">
<title>Node20&#45;&gt;Node9</title>
<g id="a_edge25_Node000020_Node000009"><a xlink:title=" ">
<path fill="none" stroke="#63b8ff" d="M798.47,-164.66C820.24,-146.3 870.59,-103.81 897.79,-80.87"/>
<polygon fill="#63b8ff" stroke="#63b8ff" points="900.35,-83.28 905.74,-74.16 895.84,-77.93 900.35,-83.28"/>
</a>
</g>
</g>
<!-- Node20&#45;&gt;Node14 -->
<g id="edge24_Node000020_Node000014" class="edge">
<title>Node20&#45;&gt;Node14</title>
<g id="a_edge24_Node000020_Node000014"><a xlink:title=" ">
<path fill="none" stroke="#63b8ff" d="M837.97,-164.98C894.82,-155.3 987.31,-139.53 1045.57,-129.61"/>
<polygon fill="#63b8ff" stroke="#63b8ff" points="1046.41,-133.01 1055.68,-127.88 1045.23,-126.11 1046.41,-133.01"/>
</a>
</g>
</g>
<!-- Node21&#45;&gt;Node14 -->
<g id="edge27_Node000021_Node000014" class="edge">
<title>Node21&#45;&gt;Node14</title>
<g id="a_edge27_Node000021_Node000014"><a xlink:title=" ">
<path fill="none" stroke="#63b8ff" d="M1065.95,-219.66C1071.8,-202.09 1085.02,-162.45 1092.85,-138.95"/>
<polygon fill="#63b8ff" stroke="#63b8ff" points="1096.27,-139.75 1096.11,-129.16 1089.63,-137.54 1096.27,-139.75"/>
</a>
</g>
</g>
<!-- Node21&#45;&gt;Node22 -->
<g id="edge28_Node000021_Node000022" class="edge">
<title>Node21&#45;&gt;Node22</title>
<g id="a_edge28_Node000021_Node000022"><a xlink:title=" ">
<path fill="none" stroke="#63b8ff" d="M1047.09,-219.98C1031.45,-211.61 1007.34,-198.7 989.12,-188.95"/>
<polygon fill="#63b8ff" stroke="#63b8ff" points="990.66,-185.8 980.2,-184.17 987.36,-191.98 990.66,-185.8"/>
</a>
</g>
</g>
<!-- Node22&#45;&gt;Node9 -->
<g id="edge29_Node000022_Node000009" class="edge">
<title>Node22&#45;&gt;Node9</title>
<g id="a_edge29_Node000022_Node000009"><a xlink:title=" ">
<path fill="none" stroke="#63b8ff" d="M960.07,-164.66C952.19,-146.93 934.32,-106.73 923.92,-83.32"/>
<polygon fill="#63b8ff" stroke="#63b8ff" points="927.11,-81.87 919.85,-74.16 920.71,-84.72 927.11,-81.87"/>
</a>
</g>
</g>
<!-- Node22&#45;&gt;Node10 -->
<g id="edge32_Node000022_Node000010" class="edge">
<title>Node22&#45;&gt;Node10</title>
<g id="a_edge32_Node000022_Node000010"><a xlink:title=" ">
<path fill="none" stroke="#63b8ff" d="M967.06,-164.74C976.03,-139.09 1002.37,-63.78 1014.61,-28.78"/>
<polygon fill="#63b8ff" stroke="#63b8ff" points="1017.92,-29.9 1017.92,-19.31 1011.32,-27.59 1017.92,-29.9"/>
</a>
</g>
</g>
<!-- Node22&#45;&gt;Node14 -->
<g id="edge31_Node000022_Node000014" class="edge">
<title>Node22&#45;&gt;Node14</title>
<g id="a_edge31_Node000022_Node000014"><a xlink:title=" ">
<path fill="none" stroke="#63b8ff" d="M985.69,-164.98C1007.8,-156.3 1042.32,-142.75 1067.45,-132.88"/>
<polygon fill="#63b8ff" stroke="#63b8ff" points="1068.89,-136.08 1076.92,-129.17 1066.33,-129.57 1068.89,-136.08"/>
</a>
</g>
</g>
<!-- Node22&#45;&gt;Node19 -->
<g id="edge30_Node000022_Node000019" class="edge">
<title>Node22&#45;&gt;Node19</title>
<g id="a_edge30_Node000022_Node000019"><a xlink:title=" ">
<path fill="none" stroke="#63b8ff" d="M1030.03,-164.98C1107.45,-155 1234.87,-138.57 1311.28,-128.72"/>
<polygon fill="#63b8ff" stroke="#63b8ff" points="1311.78,-132.18 1321.25,-127.43 1310.89,-125.24 1311.78,-132.18"/>
</a>
</g>
</g>
<!-- Node23&#45;&gt;Node14 -->
<g id="edge34_Node000023_Node000014" class="edge">
<title>Node23&#45;&gt;Node14</title>
<g id="a_edge34_Node000023_Node000014"><a xlink:title=" ">
<path fill="none" stroke="#63b8ff" d="M1296.24,-164.98C1255.68,-155.84 1191.11,-141.27 1146.97,-131.32"/>
<polygon fill="#63b8ff" stroke="#63b8ff" points="1147.58,-127.87 1137.05,-129.08 1146.04,-134.7 1147.58,-127.87"/>
</a>
</g>
</g>
<!-- Node23&#45;&gt;Node19 -->
<g id="edge35_Node000023_Node000019" class="edge">
<title>Node23&#45;&gt;Node19</title>
<g id="a_edge35_Node000023_Node000019"><a xlink:title=" ">
<path fill="none" stroke="#63b8ff" d="M1340.77,-164.75C1346.56,-157.26 1355.06,-146.28 1362.14,-137.13"/>
<polygon fill="#63b8ff" stroke="#63b8ff" points="1365.01,-139.14 1368.36,-129.09 1359.47,-134.86 1365.01,-139.14"/>
</a>
</g>
</g>
<!-- Node24&#45;&gt;Node14 -->
<g id="edge37_Node000024_Node000014" class="edge">
<title>Node24&#45;&gt;Node14</title>
<g id="a_edge37_Node000024_Node000014"><a xlink:title=" ">
<path fill="none" stroke="#63b8ff" d="M1282.72,-219.86C1272.49,-206.36 1250.93,-180.2 1227,-165 1202.91,-149.7 1172.92,-138.91 1148.02,-131.79"/>
<polygon fill="#63b8ff" stroke="#63b8ff" points="1148.62,-128.32 1138.05,-129.05 1146.77,-135.07 1148.62,-128.32"/>
</a>
</g>
</g>
<!-- Node25&#45;&gt;Node14 -->
<g id="edge39_Node000025_Node000014" class="edge">
<title>Node25&#45;&gt;Node14</title>
<g id="a_edge39_Node000025_Node000014"><a xlink:title=" ">
<path fill="none" stroke="#63b8ff" d="M969.1,-219.95C990.2,-212.5 1019.57,-200.32 1042,-184 1059.88,-170.99 1076.3,-151.56 1086.87,-137.62"/>
<polygon fill="#63b8ff" stroke="#63b8ff" points="1089.83,-139.5 1092.93,-129.37 1084.19,-135.36 1089.83,-139.5"/>
</a>
</g>
</g>
<!-- Node26&#45;&gt;Node14 -->
<g id="edge41_Node000026_Node000014" class="edge">
<title>Node26&#45;&gt;Node14</title>
<g id="a_edge41_Node000026_Node000014"><a xlink:title=" ">
<path fill="none" stroke="#63b8ff" d="M1127.02,-274.96C1135.07,-266.66 1146.29,-253.25 1151,-239 1161.32,-207.77 1164.75,-194.87 1151,-165 1145.25,-152.52 1134.09,-142.24 1123.58,-134.71"/>
<polygon fill="#63b8ff" stroke="#63b8ff" points="1125.3,-131.65 1115.03,-129.05 1121.43,-137.49 1125.3,-131.65"/>
</a>
</g>
</g>
<!-- Node26&#45;&gt;Node19 -->
<g id="edge43_Node000026_Node000019" class="edge">
<title>Node26&#45;&gt;Node19</title>
<g id="a_edge43_Node000026_Node000019"><a xlink:title=" ">
<path fill="none" stroke="#63b8ff" d="M1165.01,-275.9C1227.07,-265.63 1330.34,-247.62 1346,-239 1375.47,-222.78 1385.56,-215.26 1398,-184 1404.21,-168.4 1396.27,-150.37 1388.07,-137.53"/>
<polygon fill="#63b8ff" stroke="#63b8ff" points="1390.85,-135.39 1382.25,-129.19 1385.11,-139.4 1390.85,-135.39"/>
</a>
</g>
</g>
<!-- Node26&#45;&gt;Node21 -->
<g id="edge42_Node000026_Node000021" class="edge">
<title>Node26&#45;&gt;Node21</title>
<g id="a_edge42_Node000026_Node000021"><a xlink:title=" ">
<path fill="none" stroke="#63b8ff" d="M1108.92,-274.75C1100.91,-267.03 1089.04,-255.6 1079.38,-246.28"/>
<polygon fill="#63b8ff" stroke="#63b8ff" points="1081.54,-243.51 1071.91,-239.09 1076.69,-248.55 1081.54,-243.51"/>
</a>
</g>
</g>
<!-- Node27&#45;&gt;Node14 -->
<g id="edge46_Node000027_Node000014" class="edge">
<title>Node27&#45;&gt;Node14</title>
<g id="a_edge46_Node000027_Node000014"><a xlink:title=" ">
<path fill="none" stroke="#63b8ff" d="M1237.32,-274.87C1228.11,-254.02 1202.32,-200.04 1168,-165 1155.76,-152.51 1139.41,-141.77 1125.69,-133.97"/>
<polygon fill="#63b8ff" stroke="#63b8ff" points="1127.15,-130.78 1116.7,-129.06 1123.8,-136.92 1127.15,-130.78"/>
</a>
</g>
</g>
<!-- Node28&#45;&gt;Node14 -->
<g id="edge49_Node000028_Node000014" class="edge">
<title>Node28&#45;&gt;Node14</title>
<g id="a_edge49_Node000028_Node000014"><a xlink:title=" ">
<path fill="none" stroke="#63b8ff" d="M1445.48,-168.32C1376.94,-158.86 1231.29,-138.76 1152.42,-127.87"/>
<polygon fill="#63b8ff" stroke="#63b8ff" points="1152.6,-124.36 1142.21,-126.46 1151.64,-131.3 1152.6,-124.36"/>
</a>
</g>
</g>
<!-- Node28&#45;&gt;Node19 -->
<g id="edge50_Node000028_Node000019" class="edge">
<title>Node28&#45;&gt;Node19</title>
<g id="a_edge50_Node000028_Node000019"><a xlink:title=" ">
<path fill="none" stroke="#63b8ff" d="M1465.65,-164.98C1448.43,-156.54 1421.8,-143.47 1401.85,-133.68"/>
<polygon fill="#63b8ff" stroke="#63b8ff" points="1403.19,-130.43 1392.67,-129.17 1400.1,-136.72 1403.19,-130.43"/>
</a>
</g>
</g>
<!-- Node29&#45;&gt;Node14 -->
<g id="edge52_Node000029_Node000014" class="edge">
<title>Node29&#45;&gt;Node14</title>
<g id="a_edge52_Node000029_Node000014"><a xlink:title=" ">
<path fill="none" stroke="#63b8ff" d="M826.8,-274.69C831.85,-252.44 848.26,-193.73 886,-165 910.64,-146.24 991.07,-133.26 1045.73,-126.35"/>
<polygon fill="#63b8ff" stroke="#63b8ff" points="1046.46,-129.79 1055.96,-125.09 1045.6,-122.84 1046.46,-129.79"/>
</a>
</g>
</g>
</g>
</svg>

<g id="navigator" transform="translate(0 0)" fill="#404254">
  <rect fill="#f2f5e9" fill-opacity="0.5" stroke="#606060" stroke-width=".5" x="0" y="0" width="60" height="60"/>
  <use id="zoomplus" xlink:href="#zoomPlus" x="17" y="9" onmousedown="handleZoom(evt,'in')"/>
  <use id="zoomminus" xlink:href="#zoomMin" x="42" y="9" onmousedown="handleZoom(evt,'out')"/>
  <use id="reset" xlink:href="#resetDef" x="30" y="36" onmousedown="handleReset()"/>
   <use id="arrowup" xlink:href="#arrowUp" x="0" y="0" onmousedown="handlePan(0,-1)"/>
  <use id="arrowright" xlink:href="#arrowRight" x="0" y="0" onmousedown="handlePan(1,0)"/>
  <use id="arrowdown" xlink:href="#arrowDown" x="0" y="0" onmousedown="handlePan(0,1)"/>
  <use id="arrowleft" xlink:href="#arrowLeft" x="0" y="0" onmousedown="handlePan(-1,0)"/>
</g>
<svg viewBox="0 0 15 15" width="100%" height="30px" preserveAspectRatio="xMaxYMin meet">
 <g id="arrow_out" transform="scale(0.3 0.3)">
  <a xlink:href="qpalm_8cpp__incl_org.svg" target="_base">
   <rect id="button" ry="5" rx="5" y="6" x="6" height="38" width="38"
        fill="#f2f5e9" fill-opacity="0.5" stroke="#606060" stroke-width="1.0"/>
   <path id="arrow"
     d="M 11.500037,31.436501 C 11.940474,20.09759 22.043105,11.32322 32.158766,21.979434 L 37.068811,17.246167 C 37.068811,17.246167 37.088388,32 37.088388,32 L 22.160133,31.978069 C 22.160133,31.978069 26.997745,27.140456 26.997745,27.140456 C 18.528582,18.264221 13.291696,25.230495 11.500037,31.436501 z"
     style="fill:#404040;"/>
  </a>
 </g>
</svg>

<style type='text/css'>
<![CDATA[
[data-mouse-over-selected='false'] { opacity: 0.7; }
[data-mouse-over-selected='true']  { opacity: 1.0; }
]]>
</style>
<script type="application/ecmascript"><![CDATA[
document.addEventListener('DOMContentLoaded', (event) => {
  highlightEdges();
  highlightAdjacentNodes();
});
]]></script>
</svg>
