<?xml version="1.0" encoding="UTF-8" standalone="no"?>
<!DOCTYPE svg PUBLIC "-//W3C//DTD SVG 1.1//EN"
 "http://www.w3.org/Graphics/SVG/1.1/DTD/svg11.dtd">
<!-- Generated by graphviz version 2.43.0 (0)
 -->
<!-- Title: copy_settings Pages: 1 -->
<svg width="419pt" height="76pt"
 viewBox="0.00 0.00 419.00 75.50" xmlns="http://www.w3.org/2000/svg" xmlns:xlink="http://www.w3.org/1999/xlink">

<svg id="main" version="1.1" xmlns="http://www.w3.org/2000/svg" xmlns:xlink="http://www.w3.org/1999/xlink" xml:space="preserve" onload="init(evt)">
<style type="text/css"><![CDATA[
.node, .edge {opacity: 0.7;}
.node.selected, .edge.selected {opacity: 1;}
.edge:hover path { stroke: red; }
.edge:hover polygon { stroke: red; fill: red; }
]]></style>
<script type="application/ecmascript" xlink:href="svg.min.js"/>
<svg id="graph" class="graph">
<g id="graph0" class="graph" transform="scale(1 1) rotate(0) translate(4 71.5)">
<title>copy_settings</title>
<!-- Node1 -->
<g id="Node000001" class="node">
<title>Node1</title>
<g id="a_Node000001"><a xlink:title="Copy settings creating a new settings structure.">
<polygon fill="#999999" stroke="#666666" points="411,-45.5 327,-45.5 327,-26.5 411,-26.5 411,-45.5"/>
<text text-anchor="middle" x="369" y="-33.5" font-family="Helvetica,sans-Serif" font-size="10.00">copy_settings</text>
</a>
</g>
</g>
<!-- Node2 -->
<g id="Node000002" class="node">
<title>Node2</title>
<g id="a_Node000002"><a xlink:href="group__solver-grp.html#ga2496e6b7b64f611e920c3c4a740d9ecd" target="_top" xlink:title="Initialize QPALM solver allocating memory.">
<polygon fill="white" stroke="#666666" points="265.5,-65.5 185.5,-65.5 185.5,-46.5 265.5,-46.5 265.5,-65.5"/>
<text text-anchor="middle" x="225.5" y="-53.5" font-family="Helvetica,sans-Serif" font-size="10.00">qpalm_setup</text>
</a>
</g>
</g>
<!-- Node1&#45;&gt;Node2 -->
<g id="edge1_Node000001_Node000002" class="edge">
<title>Node1&#45;&gt;Node2</title>
<g id="a_edge1_Node000001_Node000002"><a xlink:title=" ">
<path fill="none" stroke="#63b8ff" d="M316.49,-43.28C299.72,-45.65 281.39,-48.24 265.67,-50.46"/>
<polygon fill="#63b8ff" stroke="#63b8ff" points="317.28,-46.7 326.69,-41.84 316.3,-39.77 317.28,-46.7"/>
</a>
</g>
</g>
<!-- Node4 -->
<g id="Node000004" class="node">
<title>Node4</title>
<g id="a_Node000004"><a xlink:href="group__solver-grp.html#ga349f4343b96fb674a823ae6e03634ff7" target="_top" xlink:title="Update the settings to the new settings.">
<polygon fill="white" stroke="#666666" points="291,-27.5 160,-27.5 160,-8.5 291,-8.5 291,-27.5"/>
<text text-anchor="middle" x="225.5" y="-15.5" font-family="Helvetica,sans-Serif" font-size="10.00">qpalm_update_settings</text>
</a>
</g>
</g>
<!-- Node1&#45;&gt;Node4 -->
<g id="edge3_Node000001_Node000004" class="edge">
<title>Node1&#45;&gt;Node4</title>
<g id="a_edge3_Node000001_Node000004"><a xlink:title=" ">
<path fill="none" stroke="#63b8ff" d="M316.74,-29.48C308.39,-28.42 299.64,-27.3 291.03,-26.21"/>
<polygon fill="#63b8ff" stroke="#63b8ff" points="316.33,-32.96 326.69,-30.75 317.21,-26.01 316.33,-32.96"/>
</a>
</g>
</g>
<!-- Node3 -->
<g id="Node000003" class="node">
<title>Node3</title>
<g id="a_Node000003"><a xlink:href="qpalm__fortran_8c.html#abec01161fcee665e126347b862c404c4" target="_top" xlink:title=" ">
<polygon fill="white" stroke="#666666" points="110,-67.5 14,-67.5 14,-48.5 110,-48.5 110,-67.5"/>
<text text-anchor="middle" x="62" y="-55.5" font-family="Helvetica,sans-Serif" font-size="10.00">qpalm_fortran_c</text>
</a>
</g>
</g>
<!-- Node2&#45;&gt;Node3 -->
<g id="edge2_Node000002_Node000003" class="edge">
<title>Node2&#45;&gt;Node3</title>
<g id="a_edge2_Node000002_Node000003"><a xlink:title=" ">
<path fill="none" stroke="#63b8ff" d="M175.22,-56.61C154.52,-56.87 130.54,-57.16 110.08,-57.42"/>
<polygon fill="#63b8ff" stroke="#63b8ff" points="175.45,-60.11 185.41,-56.48 175.36,-53.11 175.45,-60.11"/>
</a>
</g>
</g>
<!-- Node5 -->
<g id="Node000005" class="node">
<title>Node5</title>
<g id="a_Node000005"><a xlink:href="classqpalm_1_1Solver.html#a895c0635d6fdd0a3026894697ea6903b" target="_top" xlink:title=" ">
<polygon fill="white" stroke="#666666" points="124,-30 0,-30 0,0 124,0 124,-30"/>
<text text-anchor="start" x="8" y="-18" font-family="Helvetica,sans-Serif" font-size="10.00">qpalm::Solver::update</text>
<text text-anchor="middle" x="62" y="-7" font-family="Helvetica,sans-Serif" font-size="10.00">_settings</text>
</a>
</g>
</g>
<!-- Node4&#45;&gt;Node5 -->
<g id="edge4_Node000004_Node000005" class="edge">
<title>Node4&#45;&gt;Node5</title>
<g id="a_edge4_Node000004_Node000005"><a xlink:title=" ">
<path fill="none" stroke="#63b8ff" d="M149.73,-16.61C141.15,-16.45 132.48,-16.29 124.1,-16.14"/>
<polygon fill="#63b8ff" stroke="#63b8ff" points="149.68,-20.11 159.74,-16.8 149.81,-13.11 149.68,-20.11"/>
</a>
</g>
</g>
</g>
</svg>
</svg>

<style type='text/css'>
<![CDATA[
[data-mouse-over-selected='false'] { opacity: 0.7; }
[data-mouse-over-selected='true']  { opacity: 1.0; }
]]>
</style>
<script type="application/ecmascript"><![CDATA[
document.addEventListener('DOMContentLoaded', (event) => {
  highlightEdges();
  highlightAdjacentNodes();
});
]]></script>
</svg>
