<?xml version="1.0" encoding="UTF-8" standalone="no"?>
<!DOCTYPE svg PUBLIC "-//W3C//DTD SVG 1.1//EN"
 "http://www.w3.org/Graphics/SVG/1.1/DTD/svg11.dtd">
<!-- Generated by graphviz version 2.43.0 (0)
 -->
<!-- Title: QPALM/include/constants.h Pages: 1 -->
<!--zoomable 397 -->
<svg id="main" version="1.1" xmlns="http://www.w3.org/2000/svg" xmlns:xlink="http://www.w3.org/1999/xlink" xml:space="preserve" onload="init(evt)">
<style type="text/css"><![CDATA[
.edge:hover path { stroke: red; }
.edge:hover polygon { stroke: red; fill: red; }
]]></style>
<script type="text/javascript"><![CDATA[
var edges = document.getElementsByTagName('g');
if (edges && edges.length) {
  for (var i=0;i<edges.length;i++) {
    if (edges[i].id.substr(0,4)=='edge') {
      edges[i].setAttribute('class','edge');
    }
  }
}
]]></script>
        <defs>
                <circle id="rim" cx="0" cy="0" r="7"/>
                <circle id="rim2" cx="0" cy="0" r="3.5"/>
                <g id="zoomPlus">
                        <use xlink:href="#rim" fill="#404040">
                                <set attributeName="fill" to="#808080" begin="zoomplus.mouseover" end="zoomplus.mouseout"/>
                        </use>
                        <path d="M-4,0h8M0,-4v8" fill="none" stroke="white" stroke-width="1.5" pointer-events="none"/>
                </g>
                <g id="zoomMin">
                        <use xlink:href="#rim" fill="#404040">
                                <set attributeName="fill" to="#808080" begin="zoomminus.mouseover" end="zoomminus.mouseout"/>
                        </use>
                        <path d="M-4,0h8" fill="none" stroke="white" stroke-width="1.5" pointer-events="none"/>
                </g>
                <g id="dirArrow">
                        <path fill="none" stroke="white" stroke-width="1.5" d="M0,-3.0v7 M-2.5,-0.5L0,-3.0L2.5,-0.5"/>
                </g>
               <g id="resetDef">
                       <use xlink:href="#rim2" fill="#404040">
                               <set attributeName="fill" to="#808080" begin="reset.mouseover" end="reset.mouseout"/>
                       </use>
               </g>
        </defs>

<script type="text/javascript">
var viewWidth = 1907;
var viewHeight = 397;
var sectionId = 'dynsection-1';
</script>
<script xlink:href="svgpan.js"/>
<svg id="graph" class="graph">
<g id="viewport">
<title>QPALM/include/constants.h</title>
<polygon fill="white" stroke="transparent" points="-4,4 -4,-393 1903,-393 1903,4 -4,4"/>
<!-- Node1 -->
<g id="node1" class="node">
<title>Node1</title>
<g id="a_node1"><a xlink:title="Constants used in QPALM.">
<polygon fill="#bfbfbf" stroke="black" points="1206,-369.5 1206,-388.5 1354,-388.5 1354,-369.5 1206,-369.5"/>
<text text-anchor="middle" x="1280" y="-376.5" font-family="Helvetica,sans-Serif" font-size="10.00">QPALM/include/constants.h</text>
</a>
</g>
</g>
<!-- Node2 -->
<g id="node2" class="node">
<title>Node2</title>
<g id="a_node2"><a xlink:href="linesearch_8h.html" target="_top" xlink:title="Routines to perform exact linesearch.">
<polygon fill="white" stroke="black" points="217.5,-246.5 217.5,-265.5 368.5,-265.5 368.5,-246.5 217.5,-246.5"/>
<text text-anchor="middle" x="293" y="-253.5" font-family="Helvetica,sans-Serif" font-size="10.00">QPALM/include/linesearch.h</text>
</a>
</g>
</g>
<!-- Node1&#45;&gt;Node2 -->
<g id="edge1" class="edge">
<title>Node1&#45;&gt;Node2</title>
<path fill="none" stroke="midnightblue" d="M1195.65,-375.18C1077.3,-370.45 855.42,-358.78 668,-333 541.48,-315.6 393.5,-281.47 327.65,-265.55"/>
<polygon fill="midnightblue" stroke="midnightblue" points="1195.6,-378.68 1205.73,-375.57 1195.88,-371.68 1195.6,-378.68"/>
</g>
<!-- Node3 -->
<g id="node3" class="node">
<title>Node3</title>
<g id="a_node3"><a xlink:href="qpalm_8h.html" target="_top" xlink:title="QPALM main solver API.">
<polygon fill="white" stroke="black" points="77.5,-134.5 77.5,-153.5 208.5,-153.5 208.5,-134.5 77.5,-134.5"/>
<text text-anchor="middle" x="143" y="-141.5" font-family="Helvetica,sans-Serif" font-size="10.00">QPALM/include/qpalm.h</text>
</a>
</g>
</g>
<!-- Node1&#45;&gt;Node3 -->
<g id="edge10" class="edge">
<title>Node1&#45;&gt;Node3</title>
<path fill="none" stroke="midnightblue" d="M1195.75,-377.56C1050.58,-375.83 744.2,-367.92 488,-333 349.19,-314.08 291.81,-350.4 180,-266 143.71,-238.6 141.92,-176.4 142.56,-153.59"/>
<polygon fill="midnightblue" stroke="midnightblue" points="1195.89,-381.06 1205.92,-377.67 1195.96,-374.06 1195.89,-381.06"/>
</g>
<!-- Node7 -->
<g id="node7" class="node">
<title>Node7</title>
<g id="a_node7"><a xlink:href="qpalm_8c.html" target="_top" xlink:title="QPALM main solver API.">
<polygon fill="white" stroke="black" points="961,-73 961,-92 1071,-92 1071,-73 961,-73"/>
<text text-anchor="middle" x="1016" y="-80" font-family="Helvetica,sans-Serif" font-size="10.00">QPALM/src/qpalm.c</text>
</a>
</g>
</g>
<!-- Node1&#45;&gt;Node7 -->
<g id="edge42" class="edge">
<title>Node1&#45;&gt;Node7</title>
<path fill="none" stroke="midnightblue" d="M1364.17,-378.87C1533.44,-378.33 1899,-364.71 1899,-257 1899,-257 1899,-257 1899,-199 1899,-115.13 1264.55,-90.46 1071.24,-84.89"/>
<polygon fill="midnightblue" stroke="midnightblue" points="1364.05,-375.37 1354.05,-378.88 1364.06,-382.37 1364.05,-375.37"/>
</g>
<!-- Node10 -->
<g id="node10" class="node">
<title>Node10</title>
<g id="a_node10"><a xlink:href="scaling_8h.html" target="_top" xlink:title="Problem data scaling during setup.">
<polygon fill="white" stroke="black" points="552.5,-190.5 552.5,-209.5 687.5,-209.5 687.5,-190.5 552.5,-190.5"/>
<text text-anchor="middle" x="620" y="-197.5" font-family="Helvetica,sans-Serif" font-size="10.00">QPALM/include/scaling.h</text>
</a>
</g>
</g>
<!-- Node1&#45;&gt;Node10 -->
<g id="edge11" class="edge">
<title>Node1&#45;&gt;Node10</title>
<path fill="none" stroke="midnightblue" d="M1195.74,-370.44C1133.74,-363.72 1047.77,-351.95 974,-333 841.86,-299.05 690.75,-233.13 638.73,-209.6"/>
<polygon fill="midnightblue" stroke="midnightblue" points="1195.55,-373.94 1205.87,-371.52 1196.29,-366.98 1195.55,-373.94"/>
</g>
<!-- Node12 -->
<g id="node12" class="node">
<title>Node12</title>
<g id="a_node12"><a xlink:href="solver__interface_8h.html" target="_top" xlink:title="Interface and wrapper to matrix/factorization (ladel) functions.">
<polygon fill="white" stroke="black" points="983,-302.5 983,-332.5 1105,-332.5 1105,-302.5 983,-302.5"/>
<text text-anchor="start" x="991" y="-320.5" font-family="Helvetica,sans-Serif" font-size="10.00">QPALM/include/solver</text>
<text text-anchor="middle" x="1044" y="-309.5" font-family="Helvetica,sans-Serif" font-size="10.00">_interface.h</text>
</a>
</g>
</g>
<!-- Node1&#45;&gt;Node12 -->
<g id="edge15" class="edge">
<title>Node1&#45;&gt;Node12</title>
<path fill="none" stroke="midnightblue" d="M1236.3,-366.98C1197.76,-357.27 1141.38,-343.05 1099.62,-332.52"/>
<polygon fill="midnightblue" stroke="midnightblue" points="1235.63,-370.42 1246.19,-369.48 1237.35,-363.64 1235.63,-370.42"/>
</g>
<!-- Node16 -->
<g id="node16" class="node">
<title>Node16</title>
<g id="a_node16"><a xlink:href="nonconvex_8c.html" target="_top" xlink:title="Routines to deal with nonconvex QPs.">
<polygon fill="white" stroke="black" points="1471,-190.5 1471,-209.5 1603,-209.5 1603,-190.5 1471,-190.5"/>
<text text-anchor="middle" x="1537" y="-197.5" font-family="Helvetica,sans-Serif" font-size="10.00">QPALM/src/nonconvex.c</text>
</a>
</g>
</g>
<!-- Node1&#45;&gt;Node16 -->
<g id="edge41" class="edge">
<title>Node1&#45;&gt;Node16</title>
<path fill="none" stroke="midnightblue" d="M1300.82,-363.38C1335.69,-338.92 1408.2,-288.22 1470,-246 1488.74,-233.2 1510.6,-218.58 1524.12,-209.57"/>
<polygon fill="midnightblue" stroke="midnightblue" points="1298.58,-360.67 1292.4,-369.28 1302.6,-366.4 1298.58,-360.67"/>
</g>
<!-- Node18 -->
<g id="node18" class="node">
<title>Node18</title>
<g id="a_node18"><a xlink:href="termination_8c.html" target="_top" xlink:title="Routines to check the termination and infeasibility criteria.">
<polygon fill="white" stroke="black" points="1697,-190.5 1697,-209.5 1833,-209.5 1833,-190.5 1697,-190.5"/>
<text text-anchor="middle" x="1765" y="-197.5" font-family="Helvetica,sans-Serif" font-size="10.00">QPALM/src/termination.c</text>
</a>
</g>
</g>
<!-- Node1&#45;&gt;Node18 -->
<g id="edge43" class="edge">
<title>Node1&#45;&gt;Node18</title>
<path fill="none" stroke="midnightblue" d="M1325,-366.9C1357.52,-358.51 1402.35,-346.23 1441,-333 1559.38,-292.49 1697.04,-231.7 1746.3,-209.5"/>
<polygon fill="midnightblue" stroke="midnightblue" points="1323.72,-363.61 1314.9,-369.48 1325.45,-370.39 1323.72,-363.61"/>
</g>
<!-- Node20 -->
<g id="node20" class="node">
<title>Node20</title>
<g id="a_node20"><a xlink:href="validate_8c.html" target="_top" xlink:title="Validation of the user provided settings and data.">
<polygon fill="white" stroke="black" points="1220.5,-190.5 1220.5,-209.5 1339.5,-209.5 1339.5,-190.5 1220.5,-190.5"/>
<text text-anchor="middle" x="1280" y="-197.5" font-family="Helvetica,sans-Serif" font-size="10.00">QPALM/src/validate.c</text>
</a>
</g>
</g>
<!-- Node1&#45;&gt;Node20 -->
<g id="edge44" class="edge">
<title>Node1&#45;&gt;Node20</title>
<path fill="none" stroke="midnightblue" d="M1280,-359.35C1280,-321.6 1280,-237.36 1280,-209.87"/>
<polygon fill="midnightblue" stroke="midnightblue" points="1276.5,-359.46 1280,-369.46 1283.5,-359.46 1276.5,-359.46"/>
</g>
<!-- Node21 -->
<g id="node21" class="node">
<title>Node21</title>
<g id="a_node21"><a xlink:href="util_8h.html" target="_top" xlink:title="Utility functions.">
<polygon fill="white" stroke="black" points="1479,-246.5 1479,-265.5 1595,-265.5 1595,-246.5 1479,-246.5"/>
<text text-anchor="middle" x="1537" y="-253.5" font-family="Helvetica,sans-Serif" font-size="10.00">QPALM/include/util.h</text>
</a>
</g>
</g>
<!-- Node1&#45;&gt;Node21 -->
<g id="edge34" class="edge">
<title>Node1&#45;&gt;Node21</title>
<path fill="none" stroke="midnightblue" d="M1315.69,-366C1339.61,-357.59 1371.63,-345.64 1399,-333 1445.69,-311.45 1498.23,-280.56 1522.84,-265.68"/>
<polygon fill="midnightblue" stroke="midnightblue" points="1314.26,-362.79 1305.97,-369.38 1316.56,-369.4 1314.26,-362.79"/>
</g>
<!-- Node2&#45;&gt;Node3 -->
<g id="edge2" class="edge">
<title>Node2&#45;&gt;Node3</title>
<path fill="none" stroke="midnightblue" d="M249.8,-243.31C228.93,-236.13 204.48,-225.32 186,-210 166.83,-194.11 153.01,-167.48 146.74,-153.76"/>
<polygon fill="midnightblue" stroke="midnightblue" points="248.81,-246.66 259.4,-246.45 250.99,-240.01 248.81,-246.66"/>
</g>
<!-- Node2&#45;&gt;Node7 -->
<g id="edge9" class="edge">
<title>Node2&#45;&gt;Node7</title>
<path fill="none" stroke="midnightblue" d="M260.58,-242.24C233.7,-229.84 202.51,-209.99 220,-190 268.95,-134.06 788.69,-97.42 960.92,-86.74"/>
<polygon fill="midnightblue" stroke="midnightblue" points="259.26,-245.48 269.83,-246.31 262.08,-239.08 259.26,-245.48"/>
</g>
<!-- Node8 -->
<g id="node8" class="node">
<title>Node8</title>
<g id="a_node8"><a xlink:href="iteration_8c.html" target="_top" xlink:title="QPALM main solver routines.">
<polygon fill="white" stroke="black" points="376,-190.5 376,-209.5 496,-209.5 496,-190.5 376,-190.5"/>
<text text-anchor="middle" x="436" y="-197.5" font-family="Helvetica,sans-Serif" font-size="10.00">QPALM/src/iteration.c</text>
</a>
</g>
</g>
<!-- Node2&#45;&gt;Node8 -->
<g id="edge7" class="edge">
<title>Node2&#45;&gt;Node8</title>
<path fill="none" stroke="midnightblue" d="M325.03,-242.91C351.91,-232.75 389.64,-218.51 413.45,-209.52"/>
<polygon fill="midnightblue" stroke="midnightblue" points="323.78,-239.64 315.66,-246.44 326.25,-246.19 323.78,-239.64"/>
</g>
<!-- Node9 -->
<g id="node9" class="node">
<title>Node9</title>
<g id="a_node9"><a xlink:href="linesearch_8c.html" target="_top" xlink:title="Routines to perform exact or backtracking linesearch.">
<polygon fill="white" stroke="black" points="228.5,-190.5 228.5,-209.5 357.5,-209.5 357.5,-190.5 228.5,-190.5"/>
<text text-anchor="middle" x="293" y="-197.5" font-family="Helvetica,sans-Serif" font-size="10.00">QPALM/src/linesearch.c</text>
</a>
</g>
</g>
<!-- Node2&#45;&gt;Node9 -->
<g id="edge8" class="edge">
<title>Node2&#45;&gt;Node9</title>
<path fill="none" stroke="midnightblue" d="M293,-235.8C293,-226.91 293,-216.78 293,-209.75"/>
<polygon fill="midnightblue" stroke="midnightblue" points="289.5,-236.08 293,-246.08 296.5,-236.08 289.5,-236.08"/>
</g>
<!-- Node4 -->
<g id="node4" class="node">
<title>Node4</title>
<g id="a_node4"><a xlink:href="qpalm_8cpp.html" target="_top" xlink:title=" ">
<polygon fill="white" stroke="black" points="156,-67.5 156,-97.5 278,-97.5 278,-67.5 156,-67.5"/>
<text text-anchor="start" x="164" y="-85.5" font-family="Helvetica,sans-Serif" font-size="10.00">QPALM/interfaces/cxx</text>
<text text-anchor="middle" x="217" y="-74.5" font-family="Helvetica,sans-Serif" font-size="10.00">/src/qpalm.cpp</text>
</a>
</g>
</g>
<!-- Node3&#45;&gt;Node4 -->
<g id="edge3" class="edge">
<title>Node3&#45;&gt;Node4</title>
<path fill="none" stroke="midnightblue" d="M161.41,-128.2C173.08,-118.81 188.08,-106.75 199.56,-97.52"/>
<polygon fill="midnightblue" stroke="midnightblue" points="159.2,-125.48 153.6,-134.48 163.59,-130.94 159.2,-125.48"/>
</g>
<!-- Node5 -->
<g id="node5" class="node">
<title>Node5</title>
<g id="a_node5"><a xlink:href="qpalm__fortran_8h.html" target="_top" xlink:title=" ">
<polygon fill="white" stroke="black" points="0,-67.5 0,-97.5 138,-97.5 138,-67.5 0,-67.5"/>
<text text-anchor="start" x="8" y="-85.5" font-family="Helvetica,sans-Serif" font-size="10.00">QPALM/interfaces/fortran</text>
<text text-anchor="middle" x="69" y="-74.5" font-family="Helvetica,sans-Serif" font-size="10.00">/qpalm_fortran.h</text>
</a>
</g>
</g>
<!-- Node3&#45;&gt;Node5 -->
<g id="edge4" class="edge">
<title>Node3&#45;&gt;Node5</title>
<path fill="none" stroke="midnightblue" d="M124.59,-128.2C112.92,-118.81 97.92,-106.75 86.44,-97.52"/>
<polygon fill="midnightblue" stroke="midnightblue" points="122.41,-130.94 132.4,-134.48 126.8,-125.48 122.41,-130.94"/>
</g>
<!-- Node3&#45;&gt;Node7 -->
<g id="edge6" class="edge">
<title>Node3&#45;&gt;Node7</title>
<path fill="none" stroke="midnightblue" d="M219.09,-134.35C220.4,-134.23 221.71,-134.11 223,-134 499.56,-109.65 831.37,-92.38 960.65,-86.1"/>
<polygon fill="midnightblue" stroke="midnightblue" points="218.52,-130.89 208.9,-135.33 219.18,-137.86 218.52,-130.89"/>
</g>
<!-- Node6 -->
<g id="node6" class="node">
<title>Node6</title>
<g id="a_node6"><a xlink:href="qpalm__fortran_8c.html" target="_top" xlink:title=" ">
<polygon fill="white" stroke="black" points="0,-0.5 0,-30.5 138,-30.5 138,-0.5 0,-0.5"/>
<text text-anchor="start" x="8" y="-18.5" font-family="Helvetica,sans-Serif" font-size="10.00">QPALM/interfaces/fortran</text>
<text text-anchor="middle" x="69" y="-7.5" font-family="Helvetica,sans-Serif" font-size="10.00">/qpalm_fortran.c</text>
</a>
</g>
</g>
<!-- Node5&#45;&gt;Node6 -->
<g id="edge5" class="edge">
<title>Node5&#45;&gt;Node6</title>
<path fill="none" stroke="midnightblue" d="M69,-57.11C69,-48.15 69,-38.32 69,-30.58"/>
<polygon fill="midnightblue" stroke="midnightblue" points="65.5,-57.4 69,-67.4 72.5,-57.4 65.5,-57.4"/>
</g>
<!-- Node10&#45;&gt;Node3 -->
<g id="edge12" class="edge">
<title>Node10&#45;&gt;Node3</title>
<path fill="none" stroke="midnightblue" d="M542.24,-190.2C449.45,-179.69 295.91,-162.31 208.76,-152.44"/>
<polygon fill="midnightblue" stroke="midnightblue" points="542.09,-193.7 552.42,-191.35 542.87,-186.75 542.09,-193.7"/>
</g>
<!-- Node10&#45;&gt;Node7 -->
<g id="edge13" class="edge">
<title>Node10&#45;&gt;Node7</title>
<path fill="none" stroke="midnightblue" d="M652.31,-186.96C689.89,-173.19 753.95,-150.42 810,-134 867.42,-117.18 934.95,-101.36 976.61,-92.06"/>
<polygon fill="midnightblue" stroke="midnightblue" points="651.07,-183.69 642.89,-190.43 653.49,-190.26 651.07,-183.69"/>
</g>
<!-- Node11 -->
<g id="node11" class="node">
<title>Node11</title>
<g id="a_node11"><a xlink:href="scaling_8c.html" target="_top" xlink:title="Problem data scaling during setup.">
<polygon fill="white" stroke="black" points="818.5,-134.5 818.5,-153.5 931.5,-153.5 931.5,-134.5 818.5,-134.5"/>
<text text-anchor="middle" x="875" y="-141.5" font-family="Helvetica,sans-Serif" font-size="10.00">QPALM/src/scaling.c</text>
</a>
</g>
</g>
<!-- Node10&#45;&gt;Node11 -->
<g id="edge14" class="edge">
<title>Node10&#45;&gt;Node11</title>
<path fill="none" stroke="midnightblue" d="M670.31,-188.35C718.5,-178.14 790.28,-162.94 834.78,-153.52"/>
<polygon fill="midnightblue" stroke="midnightblue" points="669.46,-184.95 660.41,-190.44 670.91,-191.8 669.46,-184.95"/>
</g>
<!-- Node12&#45;&gt;Node3 -->
<g id="edge30" class="edge">
<title>Node12&#45;&gt;Node3</title>
<path fill="none" stroke="midnightblue" d="M972.81,-315.48C783.22,-312.29 275.94,-300.61 209,-266 164.79,-243.14 148.85,-177.55 144.43,-153.76"/>
<polygon fill="midnightblue" stroke="midnightblue" points="972.89,-318.98 982.94,-315.64 973,-311.98 972.89,-318.98"/>
</g>
<!-- Node12&#45;&gt;Node7 -->
<g id="edge32" class="edge">
<title>Node12&#45;&gt;Node7</title>
<path fill="none" stroke="midnightblue" d="M1115.28,-316.75C1327.76,-316.21 1936.42,-304.78 1842,-190 1792.83,-130.23 1248.04,-95.94 1071.13,-86.32"/>
<polygon fill="midnightblue" stroke="midnightblue" points="1115.15,-313.25 1105.16,-316.77 1115.17,-320.25 1115.15,-313.25"/>
</g>
<!-- Node12&#45;&gt;Node8 -->
<g id="edge31" class="edge">
<title>Node12&#45;&gt;Node8</title>
<path fill="none" stroke="midnightblue" d="M972.94,-303C846.42,-278.97 585.56,-229.41 480.9,-209.53"/>
<polygon fill="midnightblue" stroke="midnightblue" points="972.44,-306.47 982.92,-304.9 973.75,-299.59 972.44,-306.47"/>
</g>
<!-- Node13 -->
<g id="node13" class="node">
<title>Node13</title>
<g id="a_node13"><a xlink:href="lin__alg_8h.html" target="_top" xlink:title="Linear algebra with vectors.">
<polygon fill="white" stroke="black" points="923.5,-246.5 923.5,-265.5 1056.5,-265.5 1056.5,-246.5 923.5,-246.5"/>
<text text-anchor="middle" x="990" y="-253.5" font-family="Helvetica,sans-Serif" font-size="10.00">QPALM/include/lin_alg.h</text>
</a>
</g>
</g>
<!-- Node12&#45;&gt;Node13 -->
<g id="edge16" class="edge">
<title>Node12&#45;&gt;Node13</title>
<path fill="none" stroke="midnightblue" d="M1024.22,-294.7C1015.08,-284.64 1004.75,-273.26 997.86,-265.66"/>
<polygon fill="midnightblue" stroke="midnightblue" points="1021.89,-297.35 1031.2,-302.4 1027.07,-292.64 1021.89,-297.35"/>
</g>
<!-- Node17 -->
<g id="node17" class="node">
<title>Node17</title>
<g id="a_node17"><a xlink:href="solver__interface_8c.html" target="_top" xlink:title="Interface and wrapper to matrix/factorization (ladel) functions.">
<polygon fill="white" stroke="black" points="1044,-190.5 1044,-209.5 1202,-209.5 1202,-190.5 1044,-190.5"/>
<text text-anchor="middle" x="1123" y="-197.5" font-family="Helvetica,sans-Serif" font-size="10.00">QPALM/src/solver_interface.c</text>
</a>
</g>
</g>
<!-- Node12&#45;&gt;Node17 -->
<g id="edge33" class="edge">
<title>Node12&#45;&gt;Node17</title>
<path fill="none" stroke="midnightblue" d="M1059.44,-293.92C1077.05,-268.18 1104.96,-227.37 1117.07,-209.67"/>
<polygon fill="midnightblue" stroke="midnightblue" points="1056.44,-292.11 1053.69,-302.34 1062.22,-296.06 1056.44,-292.11"/>
</g>
<!-- Node13&#45;&gt;Node3 -->
<g id="edge17" class="edge">
<title>Node13&#45;&gt;Node3</title>
<path fill="none" stroke="midnightblue" d="M913.08,-250.7C804.26,-244.02 611.15,-229.83 544,-210 525.32,-204.48 523.62,-195.73 505,-190 404.53,-159.06 282.14,-149.32 208.51,-146.3"/>
<polygon fill="midnightblue" stroke="midnightblue" points="913.14,-254.21 923.34,-251.32 913.57,-247.22 913.14,-254.21"/>
</g>
<!-- Node13&#45;&gt;Node7 -->
<g id="edge24" class="edge">
<title>Node13&#45;&gt;Node7</title>
<path fill="none" stroke="midnightblue" d="M992.83,-236.33C998.42,-199.43 1010.7,-118.44 1014.71,-92.02"/>
<polygon fill="midnightblue" stroke="midnightblue" points="989.36,-235.85 991.33,-246.26 996.28,-236.9 989.36,-235.85"/>
</g>
<!-- Node13&#45;&gt;Node8 -->
<g id="edge19" class="edge">
<title>Node13&#45;&gt;Node8</title>
<path fill="none" stroke="midnightblue" d="M913.08,-248.45C818.23,-240.21 652.12,-225.3 510,-210 505.5,-209.52 500.84,-208.99 496.16,-208.46"/>
<polygon fill="midnightblue" stroke="midnightblue" points="912.9,-251.94 923.16,-249.32 913.5,-244.97 912.9,-251.94"/>
</g>
<!-- Node13&#45;&gt;Node9 -->
<g id="edge21" class="edge">
<title>Node13&#45;&gt;Node9</title>
<path fill="none" stroke="midnightblue" d="M913.07,-250.66C795.32,-243.74 563.39,-229.02 367,-210 363.91,-209.7 360.75,-209.38 357.55,-209.04"/>
<polygon fill="midnightblue" stroke="midnightblue" points="912.88,-254.15 923.07,-251.24 913.29,-247.16 912.88,-254.15"/>
</g>
<!-- Node13&#45;&gt;Node10 -->
<g id="edge18" class="edge">
<title>Node13&#45;&gt;Node10</title>
<path fill="none" stroke="midnightblue" d="M921.34,-244.98C851.45,-234.78 744.27,-219.14 678.35,-209.52"/>
<polygon fill="midnightblue" stroke="midnightblue" points="920.97,-248.46 931.37,-246.44 921.98,-241.54 920.97,-248.46"/>
</g>
<!-- Node13&#45;&gt;Node11 -->
<g id="edge25" class="edge">
<title>Node13&#45;&gt;Node11</title>
<path fill="none" stroke="midnightblue" d="M984.79,-236.81C979.98,-222.66 971.66,-203.26 959,-190 942.67,-172.88 918.37,-160.85 900.1,-153.56"/>
<polygon fill="midnightblue" stroke="midnightblue" points="981.47,-237.92 987.79,-246.42 988.15,-235.83 981.47,-237.92"/>
</g>
<!-- Node14 -->
<g id="node14" class="node">
<title>Node14</title>
<g id="a_node14"><a xlink:href="lin__alg_8c.html" target="_top" xlink:title="Linear algebra with vectors.">
<polygon fill="white" stroke="black" points="705.5,-190.5 705.5,-209.5 816.5,-209.5 816.5,-190.5 705.5,-190.5"/>
<text text-anchor="middle" x="761" y="-197.5" font-family="Helvetica,sans-Serif" font-size="10.00">QPALM/src/lin_alg.c</text>
</a>
</g>
</g>
<!-- Node13&#45;&gt;Node14 -->
<g id="edge20" class="edge">
<title>Node13&#45;&gt;Node14</title>
<path fill="none" stroke="midnightblue" d="M943.73,-244.09C900.46,-233.89 836.74,-218.86 797.12,-209.52"/>
<polygon fill="midnightblue" stroke="midnightblue" points="943.18,-247.55 953.71,-246.44 944.78,-240.74 943.18,-247.55"/>
</g>
<!-- Node15 -->
<g id="node15" class="node">
<title>Node15</title>
<g id="a_node15"><a xlink:href="newton_8c.html" target="_top" xlink:title="Functions to calculate the semismooth Newton direction.">
<polygon fill="white" stroke="black" points="834.5,-190.5 834.5,-209.5 949.5,-209.5 949.5,-190.5 834.5,-190.5"/>
<text text-anchor="middle" x="892" y="-197.5" font-family="Helvetica,sans-Serif" font-size="10.00">QPALM/src/newton.c</text>
</a>
</g>
</g>
<!-- Node13&#45;&gt;Node15 -->
<g id="edge22" class="edge">
<title>Node13&#45;&gt;Node15</title>
<path fill="none" stroke="midnightblue" d="M965.41,-241.45C947.32,-231.48 923.27,-218.23 907.71,-209.65"/>
<polygon fill="midnightblue" stroke="midnightblue" points="963.81,-244.56 974.25,-246.32 967.19,-238.43 963.81,-244.56"/>
</g>
<!-- Node13&#45;&gt;Node16 -->
<g id="edge23" class="edge">
<title>Node13&#45;&gt;Node16</title>
<path fill="none" stroke="midnightblue" d="M1067.1,-248.23C1160.6,-239.89 1322.96,-224.97 1462,-210 1464.87,-209.69 1467.8,-209.37 1470.76,-209.04"/>
<polygon fill="midnightblue" stroke="midnightblue" points="1066.53,-244.77 1056.88,-249.14 1067.15,-251.74 1066.53,-244.77"/>
</g>
<!-- Node13&#45;&gt;Node17 -->
<g id="edge26" class="edge">
<title>Node13&#45;&gt;Node17</title>
<path fill="none" stroke="midnightblue" d="M1020.45,-242.64C1045.41,-232.5 1080.08,-218.43 1102.02,-209.52"/>
<polygon fill="midnightblue" stroke="midnightblue" points="1019.02,-239.44 1011.07,-246.44 1021.66,-245.92 1019.02,-239.44"/>
</g>
<!-- Node13&#45;&gt;Node18 -->
<g id="edge27" class="edge">
<title>Node13&#45;&gt;Node18</title>
<path fill="none" stroke="midnightblue" d="M1066.89,-249.64C1218.25,-239.1 1552.67,-215.79 1696.76,-205.76"/>
<polygon fill="midnightblue" stroke="midnightblue" points="1066.48,-246.16 1056.75,-250.35 1066.97,-253.15 1066.48,-246.16"/>
</g>
<!-- Node19 -->
<g id="node19" class="node">
<title>Node19</title>
<g id="a_node19"><a xlink:href="util_8c.html" target="_top" xlink:title="Utility functions.">
<polygon fill="white" stroke="black" points="1357.5,-190.5 1357.5,-209.5 1452.5,-209.5 1452.5,-190.5 1357.5,-190.5"/>
<text text-anchor="middle" x="1405" y="-197.5" font-family="Helvetica,sans-Serif" font-size="10.00">QPALM/src/util.c</text>
</a>
</g>
</g>
<!-- Node13&#45;&gt;Node19 -->
<g id="edge28" class="edge">
<title>Node13&#45;&gt;Node19</title>
<path fill="none" stroke="midnightblue" d="M1066.59,-246.18C1139.34,-237.62 1251.75,-223.91 1349,-210 1351.73,-209.61 1354.53,-209.2 1357.36,-208.77"/>
<polygon fill="midnightblue" stroke="midnightblue" points="1066.11,-242.71 1056.59,-247.35 1066.93,-249.66 1066.11,-242.71"/>
</g>
<!-- Node13&#45;&gt;Node20 -->
<g id="edge29" class="edge">
<title>Node13&#45;&gt;Node20</title>
<path fill="none" stroke="midnightblue" d="M1045.85,-244.6C1100.65,-234.4 1183.23,-219.02 1234.26,-209.52"/>
<polygon fill="midnightblue" stroke="midnightblue" points="1045.14,-241.17 1035.95,-246.44 1046.42,-248.05 1045.14,-241.17"/>
</g>
<!-- Node21&#45;&gt;Node3 -->
<g id="edge35" class="edge">
<title>Node21&#45;&gt;Node3</title>
<path fill="none" stroke="midnightblue" d="M1569.82,-242.34C1597.89,-229.75 1630.97,-209.56 1612,-190 1587.24,-164.47 490.93,-149.27 208.7,-145.78"/>
<polygon fill="midnightblue" stroke="midnightblue" points="1568.39,-239.14 1560.58,-246.3 1571.15,-245.58 1568.39,-239.14"/>
</g>
<!-- Node21&#45;&gt;Node7 -->
<g id="edge38" class="edge">
<title>Node21&#45;&gt;Node7</title>
<path fill="none" stroke="midnightblue" d="M1577.95,-243.18C1610.37,-231.77 1647.25,-212.89 1628,-190 1556.94,-105.5 1208.06,-88.04 1071.22,-84.44"/>
<polygon fill="midnightblue" stroke="midnightblue" points="1576.47,-239.98 1568.1,-246.47 1578.7,-246.62 1576.47,-239.98"/>
</g>
<!-- Node21&#45;&gt;Node8 -->
<g id="edge36" class="edge">
<title>Node21&#45;&gt;Node8</title>
<path fill="none" stroke="midnightblue" d="M1468.51,-252.79C1307.26,-247.39 891.15,-232.32 544,-210 528.51,-209 511.79,-207.72 496.23,-206.43"/>
<polygon fill="midnightblue" stroke="midnightblue" points="1468.65,-256.3 1478.76,-253.13 1468.88,-249.3 1468.65,-256.3"/>
</g>
<!-- Node21&#45;&gt;Node16 -->
<g id="edge37" class="edge">
<title>Node21&#45;&gt;Node16</title>
<path fill="none" stroke="midnightblue" d="M1537,-235.8C1537,-226.91 1537,-216.78 1537,-209.75"/>
<polygon fill="midnightblue" stroke="midnightblue" points="1533.5,-236.08 1537,-246.08 1540.5,-236.08 1533.5,-236.08"/>
</g>
<!-- Node21&#45;&gt;Node18 -->
<g id="edge39" class="edge">
<title>Node21&#45;&gt;Node18</title>
<path fill="none" stroke="midnightblue" d="M1583.07,-244.09C1626.15,-233.89 1689.59,-218.86 1729.04,-209.52"/>
<polygon fill="midnightblue" stroke="midnightblue" points="1582.05,-240.73 1573.13,-246.44 1583.66,-247.54 1582.05,-240.73"/>
</g>
<!-- Node21&#45;&gt;Node19 -->
<g id="edge40" class="edge">
<title>Node21&#45;&gt;Node19</title>
<path fill="none" stroke="midnightblue" d="M1506.78,-242.64C1482.01,-232.5 1447.6,-218.43 1425.82,-209.52"/>
<polygon fill="midnightblue" stroke="midnightblue" points="1505.5,-245.9 1516.08,-246.44 1508.15,-239.42 1505.5,-245.9"/>
</g>
</g>
</svg>
        <g id="navigator" transform="translate(0 0)" fill="#404254">
                <rect fill="#f2f5e9" fill-opacity="0.5" stroke="#606060" stroke-width=".5" x="0" y="0" width="60" height="60"/>
                <use id="zoomplus" xlink:href="#zoomPlus" x="17" y="9" onmousedown="handleZoom(evt,'in')"/>
                <use id="zoomminus" xlink:href="#zoomMin" x="42" y="9" onmousedown="handleZoom(evt,'out')"/>
                <use id="reset" xlink:href="#resetDef" x="30" y="36" onmousedown="handleReset()"/>
                <g id="arrowUp" xlink:href="#dirArrow" transform="translate(30 24)" onmousedown="handlePan(0,-1)">
                  <use xlink:href="#rim" fill="#404040">
                        <set attributeName="fill" to="#808080" begin="arrowUp.mouseover" end="arrowUp.mouseout"/>
                  </use>
                  <path fill="none" stroke="white" stroke-width="1.5" d="M0,-3.0v7 M-2.5,-0.5L0,-3.0L2.5,-0.5"/>
                </g>
                <g id="arrowRight" xlink:href="#dirArrow" transform="rotate(90) translate(36 -43)" onmousedown="handlePan(1,0)">
                  <use xlink:href="#rim" fill="#404040">
                        <set attributeName="fill" to="#808080" begin="arrowRight.mouseover" end="arrowRight.mouseout"/>
                  </use>
                  <path fill="none" stroke="white" stroke-width="1.5" d="M0,-3.0v7 M-2.5,-0.5L0,-3.0L2.5,-0.5"/>
                </g>
                <g id="arrowDown" xlink:href="#dirArrow" transform="rotate(180) translate(-30 -48)" onmousedown="handlePan(0,1)">
                  <use xlink:href="#rim" fill="#404040">
                        <set attributeName="fill" to="#808080" begin="arrowDown.mouseover" end="arrowDown.mouseout"/>
                  </use>
                  <path fill="none" stroke="white" stroke-width="1.5" d="M0,-3.0v7 M-2.5,-0.5L0,-3.0L2.5,-0.5"/>
                </g>
                <g id="arrowLeft" xlink:href="#dirArrow" transform="rotate(270) translate(-36 17)" onmousedown="handlePan(-1,0)">
                  <use xlink:href="#rim" fill="#404040">
                        <set attributeName="fill" to="#808080" begin="arrowLeft.mouseover" end="arrowLeft.mouseout"/>
                  </use>
                  <path fill="none" stroke="white" stroke-width="1.5" d="M0,-3.0v7 M-2.5,-0.5L0,-3.0L2.5,-0.5"/>
                </g>
        </g>
        <svg viewBox="0 0 15 15" width="100%" height="30px" preserveAspectRatio="xMaxYMin meet">
         <g id="arrow_out" transform="scale(0.3 0.3)">
          <a xlink:href="constants_8h__dep__incl_org.svg" target="_base">
           <rect id="button" ry="5" rx="5" y="6" x="6" height="38" width="38"
                fill="#f2f5e9" fill-opacity="0.5" stroke="#606060" stroke-width="1.0"/>
           <path id="arrow"
             d="M 11.500037,31.436501 C 11.940474,20.09759 22.043105,11.32322 32.158766,21.979434 L 37.068811,17.246167 C 37.068811,17.246167 37.088388,32 37.088388,32 L 22.160133,31.978069 C 22.160133,31.978069 26.997745,27.140456 26.997745,27.140456 C 18.528582,18.264221 13.291696,25.230495 11.500037,31.436501 z"
             style="fill:#404040;"/>
          </a>
         </g>
        </svg>
</svg>
