<?xml version="1.0" encoding="UTF-8" standalone="no"?>
<!DOCTYPE svg PUBLIC "-//W3C//DTD SVG 1.1//EN"
 "http://www.w3.org/Graphics/SVG/1.1/DTD/svg11.dtd">
<!-- Generated by graphviz version 2.43.0 (0)
 -->
<!-- Title: qpalm_malloc Pages: 1 -->
<svg width="541pt" height="129pt"
 viewBox="0.00 0.00 541.00 128.51" xmlns="http://www.w3.org/2000/svg" xmlns:xlink="http://www.w3.org/1999/xlink">
<g id="graph0" class="graph" transform="scale(1 1) rotate(0) translate(4 124.51)">
<title>qpalm_malloc</title>
<polygon fill="white" stroke="transparent" points="-4,4 -4,-124.51 537,-124.51 537,4 -4,4"/>
<!-- Node1 -->
<g id="node1" class="node">
<title>Node1</title>
<g id="a_node1"><a xlink:title=" ">
<polygon fill="#bfbfbf" stroke="black" points="447,-63 447,-82 533,-82 533,-63 447,-63"/>
<text text-anchor="middle" x="490" y="-70" font-family="Helvetica,sans-Serif" font-size="10.00">qpalm_malloc</text>
</a>
</g>
</g>
<!-- Node2 -->
<g id="node2" class="node">
<title>Node2</title>
<g id="a_node2"><a xlink:href="util_8c.html#a14436938f89e6b14f819c58af7d9f0fe" target="_top" xlink:title="Copy settings creating a new settings structure.">
<polygon fill="white" stroke="black" points="327,-6 327,-25 411,-25 411,-6 327,-6"/>
<text text-anchor="middle" x="369" y="-13" font-family="Helvetica,sans-Serif" font-size="10.00">copy_settings</text>
</a>
</g>
</g>
<!-- Node1&#45;&gt;Node2 -->
<g id="edge1" class="edge">
<title>Node1&#45;&gt;Node2</title>
<path fill="none" stroke="midnightblue" d="M459.99,-58.6C438.27,-48.2 409.14,-34.25 389.98,-25.07"/>
<polygon fill="midnightblue" stroke="midnightblue" points="458.55,-61.8 469.08,-62.96 461.58,-55.48 458.55,-61.8"/>
</g>
<!-- Node3 -->
<g id="node3" class="node">
<title>Node3</title>
<g id="a_node3"><a xlink:href="group__solver-grp.html#gaaff827465b1299909f394de8771baef9" target="_top" xlink:title="Initialize QPALM solver allocating memory.">
<polygon fill="white" stroke="black" points="185.5,-64 185.5,-83 265.5,-83 265.5,-64 185.5,-64"/>
<text text-anchor="middle" x="225.5" y="-71" font-family="Helvetica,sans-Serif" font-size="10.00">qpalm_setup</text>
</a>
</g>
</g>
<!-- Node1&#45;&gt;Node3 -->
<g id="edge7" class="edge">
<title>Node1&#45;&gt;Node3</title>
<path fill="none" stroke="midnightblue" d="M436.34,-72.37C404.65,-72.32 363.51,-72.32 327,-72.5 306.76,-72.6 284.23,-72.82 265.64,-73.02"/>
<polygon fill="midnightblue" stroke="midnightblue" points="436.7,-75.87 446.7,-72.38 436.71,-68.87 436.7,-75.87"/>
</g>
<!-- Node4 -->
<g id="node4" class="node">
<title>Node4</title>
<g id="a_node4"><a xlink:href="qpalm__fortran_8c.html#abec01161fcee665e126347b862c404c4" target="_top" xlink:title=" ">
<polygon fill="white" stroke="black" points="14,-67 14,-86 110,-86 110,-67 14,-67"/>
<text text-anchor="middle" x="62" y="-74" font-family="Helvetica,sans-Serif" font-size="10.00">qpalm_fortran_c</text>
</a>
</g>
</g>
<!-- Node1&#45;&gt;Node4 -->
<g id="edge6" class="edge">
<title>Node1&#45;&gt;Node4</title>
<path fill="none" stroke="midnightblue" d="M465.91,-87.21C450.91,-95.87 430.57,-105.99 411,-110.5 295.95,-137.03 154.84,-103.62 93.68,-86.04"/>
<polygon fill="midnightblue" stroke="midnightblue" points="467.73,-90.2 474.51,-82.06 464.13,-84.19 467.73,-90.2"/>
</g>
<!-- Node7 -->
<g id="node7" class="node">
<title>Node7</title>
<g id="a_node7"><a xlink:href="lin__alg_8c.html#a256ef6c2562ed296f3c1bd23bc712f25" target="_top" xlink:title="Copy vector a into output.">
<polygon fill="white" stroke="black" points="338,-82 338,-101 400,-101 400,-82 338,-82"/>
<text text-anchor="middle" x="369" y="-89" font-family="Helvetica,sans-Serif" font-size="10.00">vec_copy</text>
</a>
</g>
</g>
<!-- Node1&#45;&gt;Node7 -->
<g id="edge8" class="edge">
<title>Node1&#45;&gt;Node7</title>
<path fill="none" stroke="midnightblue" d="M436.81,-80.83C424.29,-82.83 411.33,-84.9 400.19,-86.68"/>
<polygon fill="midnightblue" stroke="midnightblue" points="437.39,-84.29 446.71,-79.25 436.28,-77.37 437.39,-84.29"/>
</g>
<!-- Node2&#45;&gt;Node3 -->
<g id="edge2" class="edge">
<title>Node2&#45;&gt;Node3</title>
<path fill="none" stroke="midnightblue" d="M335.15,-28.96C309.04,-39.67 273.16,-54.37 249.9,-63.91"/>
<polygon fill="midnightblue" stroke="midnightblue" points="336.71,-32.11 344.63,-25.08 334.05,-25.63 336.71,-32.11"/>
</g>
<!-- Node5 -->
<g id="node5" class="node">
<title>Node5</title>
<g id="a_node5"><a xlink:href="group__solver-grp.html#ga581cf986cb484ec5721f76b025eda704" target="_top" xlink:title="Update the settings to the new settings.">
<polygon fill="white" stroke="black" points="160,-6 160,-25 291,-25 291,-6 160,-6"/>
<text text-anchor="middle" x="225.5" y="-13" font-family="Helvetica,sans-Serif" font-size="10.00">qpalm_update_settings</text>
</a>
</g>
</g>
<!-- Node2&#45;&gt;Node5 -->
<g id="edge4" class="edge">
<title>Node2&#45;&gt;Node5</title>
<path fill="none" stroke="midnightblue" d="M316.46,-15.5C308.19,-15.5 299.55,-15.5 291.03,-15.5"/>
<polygon fill="midnightblue" stroke="midnightblue" points="316.69,-19 326.69,-15.5 316.69,-12 316.69,-19"/>
</g>
<!-- Node3&#45;&gt;Node4 -->
<g id="edge3" class="edge">
<title>Node3&#45;&gt;Node4</title>
<path fill="none" stroke="midnightblue" d="M175.22,-74.42C154.52,-74.8 130.54,-75.25 110.08,-75.63"/>
<polygon fill="midnightblue" stroke="midnightblue" points="175.47,-77.91 185.41,-74.23 175.34,-70.91 175.47,-77.91"/>
</g>
<!-- Node6 -->
<g id="node6" class="node">
<title>Node6</title>
<g id="a_node6"><a xlink:href="classqpalm_1_1Solver.html#a895c0635d6fdd0a3026894697ea6903b" target="_top" xlink:title=" ">
<polygon fill="white" stroke="black" points="0,-0.5 0,-30.5 124,-30.5 124,-0.5 0,-0.5"/>
<text text-anchor="start" x="8" y="-18.5" font-family="Helvetica,sans-Serif" font-size="10.00">qpalm::Solver::update</text>
<text text-anchor="middle" x="62" y="-7.5" font-family="Helvetica,sans-Serif" font-size="10.00">_settings</text>
</a>
</g>
</g>
<!-- Node5&#45;&gt;Node6 -->
<g id="edge5" class="edge">
<title>Node5&#45;&gt;Node6</title>
<path fill="none" stroke="midnightblue" d="M149.73,-15.5C141.15,-15.5 132.48,-15.5 124.1,-15.5"/>
<polygon fill="midnightblue" stroke="midnightblue" points="149.74,-19 159.74,-15.5 149.74,-12 149.74,-19"/>
</g>
<!-- Node7&#45;&gt;Node3 -->
<g id="edge9" class="edge">
<title>Node7&#45;&gt;Node3</title>
<path fill="none" stroke="midnightblue" d="M327.89,-86.4C308.37,-83.91 284.99,-80.94 265.61,-78.48"/>
<polygon fill="midnightblue" stroke="midnightblue" points="327.63,-89.89 337.99,-87.68 328.51,-82.95 327.63,-89.89"/>
</g>
</g>
</svg>
