<?xml version="1.0" encoding="UTF-8" standalone="no"?>
<!DOCTYPE svg PUBLIC "-//W3C//DTD SVG 1.1//EN"
 "http://www.w3.org/Graphics/SVG/1.1/DTD/svg11.dtd">
<!-- Generated by graphviz version 2.43.0 (0)
 -->
<!-- Title: qpalm_update_Q_A Pages: 1 -->
<svg width="244pt" height="104pt"
 viewBox="0.00 0.00 244.00 104.00" xmlns="http://www.w3.org/2000/svg" xmlns:xlink="http://www.w3.org/1999/xlink">
<g id="graph0" class="graph" transform="scale(1 1) rotate(0) translate(4 100)">
<title>qpalm_update_Q_A</title>
<polygon fill="white" stroke="transparent" points="-4,4 -4,-100 240,-100 240,4 -4,4"/>
<!-- Node1 -->
<g id="node1" class="node">
<title>Node1</title>
<g id="a_node1"><a xlink:title="Update the matrix entries of Q and A.">
<polygon fill="#bfbfbf" stroke="black" points="0,-38.5 0,-57.5 111,-57.5 111,-38.5 0,-38.5"/>
<text text-anchor="middle" x="55.5" y="-45.5" font-family="Helvetica,sans-Serif" font-size="10.00">qpalm_update_Q_A</text>
</a>
</g>
</g>
<!-- Node2 -->
<g id="node2" class="node">
<title>Node2</title>
<g id="a_node2"><a xlink:href="lin__alg_8c.html#acf468a60c38fbc58b6de539acb6f0a3b" target="_top" xlink:title="Copy vector a into preallocated vector b.">
<polygon fill="white" stroke="black" points="147,-76.5 147,-95.5 236,-95.5 236,-76.5 147,-76.5"/>
<text text-anchor="middle" x="191.5" y="-83.5" font-family="Helvetica,sans-Serif" font-size="10.00">prea_vec_copy</text>
</a>
</g>
</g>
<!-- Node1&#45;&gt;Node2 -->
<g id="edge1" class="edge">
<title>Node1&#45;&gt;Node2</title>
<path fill="none" stroke="midnightblue" d="M90.31,-57.59C107.53,-62.47 128.66,-68.46 147.07,-73.68"/>
<polygon fill="midnightblue" stroke="midnightblue" points="146.12,-77.05 156.7,-76.41 148.03,-70.32 146.12,-77.05"/>
</g>
<!-- Node3 -->
<g id="node3" class="node">
<title>Node3</title>
<g id="a_node3"><a xlink:href="util_8h.html#aae57226ec767e15f27d88e97df093b41" target="_top" xlink:title="Start timer.">
<polygon fill="white" stroke="black" points="159,-38.5 159,-57.5 224,-57.5 224,-38.5 159,-38.5"/>
<text text-anchor="middle" x="191.5" y="-45.5" font-family="Helvetica,sans-Serif" font-size="10.00">qpalm_tic</text>
</a>
</g>
</g>
<!-- Node1&#45;&gt;Node3 -->
<g id="edge2" class="edge">
<title>Node1&#45;&gt;Node3</title>
<path fill="none" stroke="midnightblue" d="M111,-48C123.56,-48 136.72,-48 148.64,-48"/>
<polygon fill="midnightblue" stroke="midnightblue" points="148.74,-51.5 158.74,-48 148.74,-44.5 148.74,-51.5"/>
</g>
<!-- Node4 -->
<g id="node4" class="node">
<title>Node4</title>
<g id="a_node4"><a xlink:href="util_8h.html#a6eecdaf6f3f1c4bf0ab1067a5e7e69da" target="_top" xlink:title="Report time in seconds since last call to qpalm_tic.">
<polygon fill="white" stroke="black" points="157.5,-0.5 157.5,-19.5 225.5,-19.5 225.5,-0.5 157.5,-0.5"/>
<text text-anchor="middle" x="191.5" y="-7.5" font-family="Helvetica,sans-Serif" font-size="10.00">qpalm_toc</text>
</a>
</g>
</g>
<!-- Node1&#45;&gt;Node4 -->
<g id="edge3" class="edge">
<title>Node1&#45;&gt;Node4</title>
<path fill="none" stroke="midnightblue" d="M90.31,-38.41C107.66,-33.49 128.99,-27.44 147.49,-22.2"/>
<polygon fill="midnightblue" stroke="midnightblue" points="148.5,-25.55 157.16,-19.45 146.59,-18.82 148.5,-25.55"/>
</g>
</g>
</svg>
