<?xml version="1.0" encoding="UTF-8" standalone="no"?>
<!DOCTYPE svg PUBLIC "-//W3C//DTD SVG 1.1//EN"
 "http://www.w3.org/Graphics/SVG/1.1/DTD/svg11.dtd">
<!-- Generated by graphviz version 2.43.0 (0)
 -->
<!-- Title: update_dual_iterate_and_parameters Pages: 1 -->
<!--zoomable 240 -->
<svg id="main" version="1.1" xmlns="http://www.w3.org/2000/svg" xmlns:xlink="http://www.w3.org/1999/xlink" xml:space="preserve" onload="init(evt)">
<style type="text/css"><![CDATA[
.edge:hover path { stroke: red; }
.edge:hover polygon { stroke: red; fill: red; }
]]></style>
<script type="text/javascript"><![CDATA[
var edges = document.getElementsByTagName('g');
if (edges && edges.length) {
  for (var i=0;i<edges.length;i++) {
    if (edges[i].id.substr(0,4)=='edge') {
      edges[i].setAttribute('class','edge');
    }
  }
}
]]></script>
        <defs>
                <circle id="rim" cx="0" cy="0" r="7"/>
                <circle id="rim2" cx="0" cy="0" r="3.5"/>
                <g id="zoomPlus">
                        <use xlink:href="#rim" fill="#404040">
                                <set attributeName="fill" to="#808080" begin="zoomplus.mouseover" end="zoomplus.mouseout"/>
                        </use>
                        <path d="M-4,0h8M0,-4v8" fill="none" stroke="white" stroke-width="1.5" pointer-events="none"/>
                </g>
                <g id="zoomMin">
                        <use xlink:href="#rim" fill="#404040">
                                <set attributeName="fill" to="#808080" begin="zoomminus.mouseover" end="zoomminus.mouseout"/>
                        </use>
                        <path d="M-4,0h8" fill="none" stroke="white" stroke-width="1.5" pointer-events="none"/>
                </g>
                <g id="dirArrow">
                        <path fill="none" stroke="white" stroke-width="1.5" d="M0,-3.0v7 M-2.5,-0.5L0,-3.0L2.5,-0.5"/>
                </g>
               <g id="resetDef">
                       <use xlink:href="#rim2" fill="#404040">
                               <set attributeName="fill" to="#808080" begin="reset.mouseover" end="reset.mouseout"/>
                       </use>
               </g>
        </defs>

<script type="text/javascript">
var viewWidth = 760;
var viewHeight = 240;
var sectionId = 'dynsection-7';
</script>
<script xlink:href="svgpan.js"/>
<svg id="graph" class="graph">
<g id="viewport">
<title>update_dual_iterate_and_parameters</title>
<polygon fill="white" stroke="transparent" points="-4,4 -4,-236 756,-236 756,4 -4,4"/>
<!-- Node1 -->
<g id="node1" class="node">
<title>Node1</title>
<g id="a_node1"><a xlink:title=" ">
<polygon fill="#bfbfbf" stroke="black" points="0,-90 0,-120 114,-120 114,-90 0,-90"/>
<text text-anchor="start" x="8" y="-108" font-family="Helvetica,sans-Serif" font-size="10.00">update_dual_iterate</text>
<text text-anchor="middle" x="57" y="-97" font-family="Helvetica,sans-Serif" font-size="10.00">_and_parameters</text>
</a>
</g>
</g>
<!-- Node2 -->
<g id="node2" class="node">
<title>Node2</title>
<g id="a_node2"><a xlink:href="lin__alg_8c.html#acf468a60c38fbc58b6de539acb6f0a3b" target="_top" xlink:title="Copy vector a into preallocated vector b.">
<polygon fill="white" stroke="black" points="342.5,-152.5 342.5,-171.5 431.5,-171.5 431.5,-152.5 342.5,-152.5"/>
<text text-anchor="middle" x="387" y="-159.5" font-family="Helvetica,sans-Serif" font-size="10.00">prea_vec_copy</text>
</a>
</g>
</g>
<!-- Node1&#45;&gt;Node2 -->
<g id="edge1" class="edge">
<title>Node1&#45;&gt;Node2</title>
<path fill="none" stroke="midnightblue" d="M111.27,-120.02C123.9,-123.27 137.37,-126.48 150,-129 211.99,-141.38 284.05,-150.73 332.08,-156.27"/>
<polygon fill="midnightblue" stroke="midnightblue" points="331.92,-159.77 342.25,-157.42 332.71,-152.82 331.92,-159.77"/>
</g>
<!-- Node3 -->
<g id="node3" class="node">
<title>Node3</title>
<g id="a_node3"><a xlink:href="iteration_8c.html#a786f2d2af82a141fe3825a3964659d50" target="_top" xlink:title=" ">
<polygon fill="white" stroke="black" points="150,-90 150,-120 279,-120 279,-90 150,-90"/>
<text text-anchor="start" x="158" y="-108" font-family="Helvetica,sans-Serif" font-size="10.00">update_proximal_point</text>
<text text-anchor="middle" x="214.5" y="-97" font-family="Helvetica,sans-Serif" font-size="10.00">_and_penalty</text>
</a>
</g>
</g>
<!-- Node1&#45;&gt;Node3 -->
<g id="edge2" class="edge">
<title>Node1&#45;&gt;Node3</title>
<path fill="none" stroke="midnightblue" d="M114.14,-105C122.46,-105 131.13,-105 139.74,-105"/>
<polygon fill="midnightblue" stroke="midnightblue" points="139.79,-108.5 149.79,-105 139.79,-101.5 139.79,-108.5"/>
</g>
<!-- Node14 -->
<g id="node14" class="node">
<title>Node14</title>
<g id="a_node14"><a xlink:href="iteration_8c.html#a8ea42d3c9ff0d6d8dc8f144d0b03dc0d" target="_top" xlink:title="Update the penalty factors.">
<polygon fill="white" stroke="black" points="171.5,-38.5 171.5,-57.5 257.5,-57.5 257.5,-38.5 171.5,-38.5"/>
<text text-anchor="middle" x="214.5" y="-45.5" font-family="Helvetica,sans-Serif" font-size="10.00">update_sigma</text>
</a>
</g>
</g>
<!-- Node1&#45;&gt;Node14 -->
<g id="edge16" class="edge">
<title>Node1&#45;&gt;Node14</title>
<path fill="none" stroke="midnightblue" d="M99.26,-89.87C123.67,-80.93 154.28,-69.71 177.67,-61.13"/>
<polygon fill="midnightblue" stroke="midnightblue" points="179.03,-64.36 187.21,-57.64 176.62,-57.79 179.03,-64.36"/>
</g>
<!-- Node3&#45;&gt;Node2 -->
<g id="edge3" class="edge">
<title>Node3&#45;&gt;Node2</title>
<path fill="none" stroke="midnightblue" d="M252.5,-120.18C271.09,-127.53 294.07,-136.22 315,-143 322.26,-145.35 330,-147.64 337.6,-149.77"/>
<polygon fill="midnightblue" stroke="midnightblue" points="336.9,-153.2 347.47,-152.46 338.74,-146.45 336.9,-153.2"/>
</g>
<!-- Node4 -->
<g id="node4" class="node">
<title>Node4</title>
<g id="a_node4"><a xlink:href="iteration_8c.html#a95e8560aaf51a2c4f68de9b65b0c6a15" target="_top" xlink:title=" ">
<polygon fill="white" stroke="black" points="317,-114.5 317,-133.5 457,-133.5 457,-114.5 317,-114.5"/>
<text text-anchor="middle" x="387" y="-121.5" font-family="Helvetica,sans-Serif" font-size="10.00">update_or_boost_gamma</text>
</a>
</g>
</g>
<!-- Node3&#45;&gt;Node4 -->
<g id="edge4" class="edge">
<title>Node3&#45;&gt;Node4</title>
<path fill="none" stroke="midnightblue" d="M279.47,-112.13C288.33,-113.12 297.51,-114.14 306.61,-115.15"/>
<polygon fill="midnightblue" stroke="midnightblue" points="306.49,-118.66 316.82,-116.29 307.26,-111.7 306.49,-118.66"/>
</g>
<!-- Node12 -->
<g id="node12" class="node">
<title>Node12</title>
<g id="a_node12"><a xlink:href="lin__alg_8c.html#ab48ddb2d35dd1a04bd27f06cb49400cb" target="_top" xlink:title="Elementwise product, .">
<polygon fill="white" stroke="black" points="347,-76.5 347,-95.5 427,-95.5 427,-76.5 347,-76.5"/>
<text text-anchor="middle" x="387" y="-83.5" font-family="Helvetica,sans-Serif" font-size="10.00">vec_ew_prod</text>
</a>
</g>
</g>
<!-- Node3&#45;&gt;Node12 -->
<g id="edge14" class="edge">
<title>Node3&#45;&gt;Node12</title>
<path fill="none" stroke="midnightblue" d="M279.47,-97.87C298.52,-95.75 319.08,-93.46 337.01,-91.46"/>
<polygon fill="midnightblue" stroke="midnightblue" points="337.4,-94.94 346.95,-90.35 336.62,-87.98 337.4,-94.94"/>
</g>
<!-- Node13 -->
<g id="node13" class="node">
<title>Node13</title>
<g id="a_node13"><a xlink:href="lin__alg_8c.html#ad69e3ef3b7360cd1d6262ee2f32fce83" target="_top" xlink:title="Infinity norm of a vector, .">
<polygon fill="white" stroke="black" points="345.5,-38.5 345.5,-57.5 428.5,-57.5 428.5,-38.5 345.5,-38.5"/>
<text text-anchor="middle" x="387" y="-45.5" font-family="Helvetica,sans-Serif" font-size="10.00">vec_norm_inf</text>
</a>
</g>
</g>
<!-- Node3&#45;&gt;Node13 -->
<g id="edge15" class="edge">
<title>Node3&#45;&gt;Node13</title>
<path fill="none" stroke="midnightblue" d="M252.5,-89.82C271.09,-82.47 294.07,-73.78 315,-67 322.26,-64.65 330,-62.36 337.6,-60.23"/>
<polygon fill="midnightblue" stroke="midnightblue" points="338.74,-63.55 347.47,-57.54 336.9,-56.8 338.74,-63.55"/>
</g>
<!-- Node5 -->
<g id="node5" class="node">
<title>Node5</title>
<g id="a_node5"><a xlink:href="iteration_8c.html#addf0e547cbd4fd4b3bda2c1adccf22c8" target="_top" xlink:title="Maximize the proximal penalty.">
<polygon fill="white" stroke="black" points="515,-212.5 515,-231.5 601,-231.5 601,-212.5 515,-212.5"/>
<text text-anchor="middle" x="558" y="-219.5" font-family="Helvetica,sans-Serif" font-size="10.00">boost_gamma</text>
</a>
</g>
</g>
<!-- Node4&#45;&gt;Node5 -->
<g id="edge5" class="edge">
<title>Node4&#45;&gt;Node5</title>
<path fill="none" stroke="midnightblue" d="M441.16,-133.56C447.5,-136.02 453.62,-139.11 459,-143 482.67,-160.13 472.29,-179.62 495,-198 500.01,-202.05 505.77,-205.47 511.73,-208.35"/>
<polygon fill="midnightblue" stroke="midnightblue" points="510.61,-211.68 521.18,-212.44 513.39,-205.26 510.61,-211.68"/>
</g>
<!-- Node7 -->
<g id="node7" class="node">
<title>Node7</title>
<g id="a_node7"><a xlink:href="lin__alg_8c.html#a0fde1aeeea954e43db160ec6e3697cd5" target="_top" xlink:title="Scaled addition of one vector to another vector, .">
<polygon fill="white" stroke="black" points="657.5,-174.5 657.5,-193.5 751.5,-193.5 751.5,-174.5 657.5,-174.5"/>
<text text-anchor="middle" x="704.5" y="-181.5" font-family="Helvetica,sans-Serif" font-size="10.00">vec_add_scaled</text>
</a>
</g>
</g>
<!-- Node4&#45;&gt;Node7 -->
<g id="edge12" class="edge">
<title>Node4&#45;&gt;Node7</title>
<path fill="none" stroke="midnightblue" d="M431.47,-133.51C440.73,-136.12 450.32,-139.28 459,-143 476.23,-150.39 477.2,-159.11 495,-165 544.57,-181.41 604.16,-185.39 646.92,-185.72"/>
<polygon fill="midnightblue" stroke="midnightblue" points="647.13,-189.22 657.14,-185.73 647.14,-182.22 647.13,-189.22"/>
</g>
<!-- Node8 -->
<g id="node8" class="node">
<title>Node8</title>
<g id="a_node8"><a xlink:href="newton_8c.html#ae27a99e2b3249e8455b72c2e2a977dd8" target="_top" xlink:title="Computes the set of active constraints and stores it in work&#45;&gt;solver&#45;&gt;active_constraints.">
<polygon fill="white" stroke="black" points="495,-136.5 495,-155.5 621,-155.5 621,-136.5 495,-136.5"/>
<text text-anchor="middle" x="558" y="-143.5" font-family="Helvetica,sans-Serif" font-size="10.00">set_active_constraints</text>
</a>
</g>
</g>
<!-- Node4&#45;&gt;Node8 -->
<g id="edge8" class="edge">
<title>Node4&#45;&gt;Node8</title>
<path fill="none" stroke="midnightblue" d="M457.23,-133.01C466.3,-134.19 475.62,-135.41 484.74,-136.59"/>
<polygon fill="midnightblue" stroke="midnightblue" points="484.56,-140.1 494.93,-137.92 485.47,-133.16 484.56,-140.1"/>
</g>
<!-- Node9 -->
<g id="node9" class="node">
<title>Node9</title>
<g id="a_node9"><a xlink:href="newton_8c.html#a43d518127e8561034e35ba18d0e15b31" target="_top" xlink:title="Determines the entering and leaving constraints and stores them in work&#45;&gt;solver&#45;&gt;enter and work&#45;&gt;solv...">
<polygon fill="white" stroke="black" points="498.5,-87 498.5,-117 617.5,-117 617.5,-87 498.5,-87"/>
<text text-anchor="start" x="506.5" y="-105" font-family="Helvetica,sans-Serif" font-size="10.00">set_entering_leaving</text>
<text text-anchor="middle" x="558" y="-94" font-family="Helvetica,sans-Serif" font-size="10.00">_constraints</text>
</a>
</g>
</g>
<!-- Node4&#45;&gt;Node9 -->
<g id="edge9" class="edge">
<title>Node4&#45;&gt;Node9</title>
<path fill="none" stroke="midnightblue" d="M457.23,-114.99C467.48,-113.65 478.05,-112.28 488.29,-110.94"/>
<polygon fill="midnightblue" stroke="midnightblue" points="488.94,-114.39 498.41,-109.63 488.04,-107.45 488.94,-114.39"/>
</g>
<!-- Node10 -->
<g id="node10" class="node">
<title>Node10</title>
<g id="a_node10"><a xlink:href="iteration_8c.html#a2493eaf6f46fae7e188477e427acfece" target="_top" xlink:title="Update the proximal penalty.">
<polygon fill="white" stroke="black" points="511.5,-48.5 511.5,-67.5 604.5,-67.5 604.5,-48.5 511.5,-48.5"/>
<text text-anchor="middle" x="558" y="-55.5" font-family="Helvetica,sans-Serif" font-size="10.00">update_gamma</text>
</a>
</g>
</g>
<!-- Node4&#45;&gt;Node10 -->
<g id="edge10" class="edge">
<title>Node4&#45;&gt;Node10</title>
<path fill="none" stroke="midnightblue" d="M434.44,-114.45C442.83,-111.92 451.34,-108.81 459,-105 477.15,-95.98 477.01,-86.35 495,-77 499.27,-74.78 503.84,-72.77 508.5,-70.97"/>
<polygon fill="midnightblue" stroke="midnightblue" points="509.86,-74.2 518.1,-67.54 507.51,-67.61 509.86,-74.2"/>
</g>
<!-- Node11 -->
<g id="node11" class="node">
<title>Node11</title>
<g id="a_node11"><a xlink:href="lin__alg_8c.html#a7b3d3b23f9254b8dc1bf53823ef42b42" target="_top" xlink:title="Elementwise division, .">
<polygon fill="white" stroke="black" points="521,-10.5 521,-29.5 595,-29.5 595,-10.5 521,-10.5"/>
<text text-anchor="middle" x="558" y="-17.5" font-family="Helvetica,sans-Serif" font-size="10.00">vec_ew_div</text>
</a>
</g>
</g>
<!-- Node4&#45;&gt;Node11 -->
<g id="edge13" class="edge">
<title>Node4&#45;&gt;Node11</title>
<path fill="none" stroke="midnightblue" d="M442.55,-114.4C448.45,-111.95 454.09,-108.87 459,-105 485.26,-84.34 469.11,-60.12 495,-39 499.87,-35.03 505.55,-31.89 511.48,-29.4"/>
<polygon fill="midnightblue" stroke="midnightblue" points="512.67,-32.69 520.89,-26.01 510.3,-26.11 512.67,-32.69"/>
</g>
<!-- Node6 -->
<g id="node6" class="node">
<title>Node6</title>
<g id="a_node6"><a xlink:href="nonconvex_8c.html#ab2a80b1d0a937afe2f6731b182ed63ac" target="_top" xlink:title="Calculate the Gershgorin upper bound for the eigenvalues of a symmetric matrix.">
<polygon fill="white" stroke="black" points="657,-212.5 657,-231.5 752,-231.5 752,-212.5 657,-212.5"/>
<text text-anchor="middle" x="704.5" y="-219.5" font-family="Helvetica,sans-Serif" font-size="10.00">gershgorin_max</text>
</a>
</g>
</g>
<!-- Node5&#45;&gt;Node6 -->
<g id="edge6" class="edge">
<title>Node5&#45;&gt;Node6</title>
<path fill="none" stroke="midnightblue" d="M601.18,-222C615.4,-222 631.5,-222 646.66,-222"/>
<polygon fill="midnightblue" stroke="midnightblue" points="646.96,-225.5 656.96,-222 646.96,-218.5 646.96,-225.5"/>
</g>
<!-- Node5&#45;&gt;Node7 -->
<g id="edge7" class="edge">
<title>Node5&#45;&gt;Node7</title>
<path fill="none" stroke="midnightblue" d="M595.46,-212.41C614.27,-207.46 637.41,-201.38 657.45,-196.11"/>
<polygon fill="midnightblue" stroke="midnightblue" points="658.52,-199.45 667.3,-193.52 656.74,-192.68 658.52,-199.45"/>
</g>
<!-- Node10&#45;&gt;Node7 -->
<g id="edge11" class="edge">
<title>Node10&#45;&gt;Node7</title>
<path fill="none" stroke="midnightblue" d="M602.61,-67.6C609.09,-70.07 615.45,-73.15 621,-77 654.58,-100.25 680.65,-141.38 693.89,-165.3"/>
<polygon fill="midnightblue" stroke="midnightblue" points="690.95,-167.24 698.76,-174.4 697.12,-163.93 690.95,-167.24"/>
</g>
<!-- Node14&#45;&gt;Node13 -->
<g id="edge18" class="edge">
<title>Node14&#45;&gt;Node13</title>
<path fill="none" stroke="midnightblue" d="M257.65,-48C281.03,-48 310.28,-48 334.96,-48"/>
<polygon fill="midnightblue" stroke="midnightblue" points="335.22,-51.5 345.22,-48 335.22,-44.5 335.22,-51.5"/>
</g>
<!-- Node15 -->
<g id="node15" class="node">
<title>Node15</title>
<g id="a_node15"><a xlink:href="solver__interface_8c.html#a759f2a0d608b6cd90863e5871d6f8474" target="_top" xlink:title="Update the &#160;factorization given a set of indexes where &#160;has been updated.">
<polygon fill="white" stroke="black" points="315,-0.5 315,-19.5 459,-19.5 459,-0.5 315,-0.5"/>
<text text-anchor="middle" x="387" y="-7.5" font-family="Helvetica,sans-Serif" font-size="10.00">ldlupdate_sigma_changed</text>
</a>
</g>
</g>
<!-- Node14&#45;&gt;Node15 -->
<g id="edge17" class="edge">
<title>Node14&#45;&gt;Node15</title>
<path fill="none" stroke="midnightblue" d="M257.65,-38.61C280.53,-33.51 309.03,-27.15 333.36,-21.73"/>
<polygon fill="midnightblue" stroke="midnightblue" points="334.16,-25.14 343.15,-19.55 332.63,-18.31 334.16,-25.14"/>
</g>
</g>
</svg>
        <g id="navigator" transform="translate(0 0)" fill="#404254">
                <rect fill="#f2f5e9" fill-opacity="0.5" stroke="#606060" stroke-width=".5" x="0" y="0" width="60" height="60"/>
                <use id="zoomplus" xlink:href="#zoomPlus" x="17" y="9" onmousedown="handleZoom(evt,'in')"/>
                <use id="zoomminus" xlink:href="#zoomMin" x="42" y="9" onmousedown="handleZoom(evt,'out')"/>
                <use id="reset" xlink:href="#resetDef" x="30" y="36" onmousedown="handleReset()"/>
                <g id="arrowUp" xlink:href="#dirArrow" transform="translate(30 24)" onmousedown="handlePan(0,-1)">
                  <use xlink:href="#rim" fill="#404040">
                        <set attributeName="fill" to="#808080" begin="arrowUp.mouseover" end="arrowUp.mouseout"/>
                  </use>
                  <path fill="none" stroke="white" stroke-width="1.5" d="M0,-3.0v7 M-2.5,-0.5L0,-3.0L2.5,-0.5"/>
                </g>
                <g id="arrowRight" xlink:href="#dirArrow" transform="rotate(90) translate(36 -43)" onmousedown="handlePan(1,0)">
                  <use xlink:href="#rim" fill="#404040">
                        <set attributeName="fill" to="#808080" begin="arrowRight.mouseover" end="arrowRight.mouseout"/>
                  </use>
                  <path fill="none" stroke="white" stroke-width="1.5" d="M0,-3.0v7 M-2.5,-0.5L0,-3.0L2.5,-0.5"/>
                </g>
                <g id="arrowDown" xlink:href="#dirArrow" transform="rotate(180) translate(-30 -48)" onmousedown="handlePan(0,1)">
                  <use xlink:href="#rim" fill="#404040">
                        <set attributeName="fill" to="#808080" begin="arrowDown.mouseover" end="arrowDown.mouseout"/>
                  </use>
                  <path fill="none" stroke="white" stroke-width="1.5" d="M0,-3.0v7 M-2.5,-0.5L0,-3.0L2.5,-0.5"/>
                </g>
                <g id="arrowLeft" xlink:href="#dirArrow" transform="rotate(270) translate(-36 17)" onmousedown="handlePan(-1,0)">
                  <use xlink:href="#rim" fill="#404040">
                        <set attributeName="fill" to="#808080" begin="arrowLeft.mouseover" end="arrowLeft.mouseout"/>
                  </use>
                  <path fill="none" stroke="white" stroke-width="1.5" d="M0,-3.0v7 M-2.5,-0.5L0,-3.0L2.5,-0.5"/>
                </g>
        </g>
        <svg viewBox="0 0 15 15" width="100%" height="30px" preserveAspectRatio="xMaxYMin meet">
         <g id="arrow_out" transform="scale(0.3 0.3)">
          <a xlink:href="iteration_8c_a1ad7b6cb4924a8de3378ed35890b02e7_cgraph_org.svg" target="_base">
           <rect id="button" ry="5" rx="5" y="6" x="6" height="38" width="38"
                fill="#f2f5e9" fill-opacity="0.5" stroke="#606060" stroke-width="1.0"/>
           <path id="arrow"
             d="M 11.500037,31.436501 C 11.940474,20.09759 22.043105,11.32322 32.158766,21.979434 L 37.068811,17.246167 C 37.068811,17.246167 37.088388,32 37.088388,32 L 22.160133,31.978069 C 22.160133,31.978069 26.997745,27.140456 26.997745,27.140456 C 18.528582,18.264221 13.291696,25.230495 11.500037,31.436501 z"
             style="fill:#404040;"/>
          </a>
         </g>
        </svg>
</svg>
