<?xml version="1.0" encoding="UTF-8" standalone="no"?>
<!DOCTYPE svg PUBLIC "-//W3C//DTD SVG 1.1//EN"
 "http://www.w3.org/Graphics/SVG/1.1/DTD/svg11.dtd">
<!-- Generated by graphviz version 2.43.0 (0)
 -->
<!-- Title: vec_ew_sqrt Pages: 1 -->
<svg width="215pt" height="66pt"
 viewBox="0.00 0.00 215.00 66.00" xmlns="http://www.w3.org/2000/svg" xmlns:xlink="http://www.w3.org/1999/xlink">
<g id="graph0" class="graph" transform="scale(1 1) rotate(0) translate(4 62)">
<title>vec_ew_sqrt</title>
<polygon fill="white" stroke="transparent" points="-4,4 -4,-62 211,-62 211,4 -4,4"/>
<!-- Node1 -->
<g id="node1" class="node">
<title>Node1</title>
<g id="a_node1"><a xlink:title="Elementwise square root, .">
<polygon fill="#bfbfbf" stroke="black" points="130,-19.5 130,-38.5 207,-38.5 207,-19.5 130,-19.5"/>
<text text-anchor="middle" x="168.5" y="-26.5" font-family="Helvetica,sans-Serif" font-size="10.00">vec_ew_sqrt</text>
</a>
</g>
</g>
<!-- Node2 -->
<g id="node2" class="node">
<title>Node2</title>
<g id="a_node2"><a xlink:href="iteration_8c.html#a155f5c99c7a442c554cca914de34eba7" target="_top" xlink:title="Initialize penalty factors from initial x.">
<polygon fill="white" stroke="black" points="0,-38.5 0,-57.5 94,-57.5 94,-38.5 0,-38.5"/>
<text text-anchor="middle" x="47" y="-45.5" font-family="Helvetica,sans-Serif" font-size="10.00">initialize_sigma</text>
</a>
</g>
</g>
<!-- Node1&#45;&gt;Node2 -->
<g id="edge1" class="edge">
<title>Node1&#45;&gt;Node2</title>
<path fill="none" stroke="midnightblue" d="M119.71,-36.6C111.36,-37.93 102.68,-39.31 94.37,-40.63"/>
<polygon fill="midnightblue" stroke="midnightblue" points="120.36,-40.04 129.69,-35.01 119.26,-33.13 120.36,-40.04"/>
</g>
<!-- Node3 -->
<g id="node3" class="node">
<title>Node3</title>
<g id="a_node3"><a xlink:href="scaling_8c.html#a3735b6c9c3aeeddfb3bb0982ae5f70ba" target="_top" xlink:title="Scale problem matrices.">
<polygon fill="white" stroke="black" points="12.5,-0.5 12.5,-19.5 81.5,-19.5 81.5,-0.5 12.5,-0.5"/>
<text text-anchor="middle" x="47" y="-7.5" font-family="Helvetica,sans-Serif" font-size="10.00">scale_data</text>
</a>
</g>
</g>
<!-- Node1&#45;&gt;Node3 -->
<g id="edge2" class="edge">
<title>Node1&#45;&gt;Node3</title>
<path fill="none" stroke="midnightblue" d="M119.65,-21.39C106.88,-19.36 93.35,-17.21 81.53,-15.33"/>
<polygon fill="midnightblue" stroke="midnightblue" points="119.26,-24.87 129.69,-22.99 120.36,-17.96 119.26,-24.87"/>
</g>
</g>
</svg>
