<?xml version="1.0" encoding="UTF-8" standalone="no"?>
<!DOCTYPE svg PUBLIC "-//W3C//DTD SVG 1.1//EN"
 "http://www.w3.org/Graphics/SVG/1.1/DTD/svg11.dtd">
<!-- Generated by graphviz version 2.43.0 (0)
 -->
<!-- Title: vec_self_mult_scalar Pages: 1 -->
<svg width="598pt" height="294pt"
 viewBox="0.00 0.00 598.00 294.00" xmlns="http://www.w3.org/2000/svg" xmlns:xlink="http://www.w3.org/1999/xlink">
<g id="graph0" class="graph" transform="scale(1 1) rotate(0) translate(4 290)">
<title>vec_self_mult_scalar</title>
<polygon fill="white" stroke="transparent" points="-4,4 -4,-290 594,-290 594,4 -4,4"/>
<!-- Node1 -->
<g id="node1" class="node">
<title>Node1</title>
<g id="a_node1"><a xlink:title="Mulitply vector with a constant scale factor.">
<polygon fill="#bfbfbf" stroke="black" points="471,-133.5 471,-152.5 590,-152.5 590,-133.5 471,-133.5"/>
<text text-anchor="middle" x="530.5" y="-140.5" font-family="Helvetica,sans-Serif" font-size="10.00">vec_self_mult_scalar</text>
</a>
</g>
</g>
<!-- Node2 -->
<g id="node2" class="node">
<title>Node2</title>
<g id="a_node2"><a xlink:href="linesearch_8c.html#a647cabae1574f21e412110765ea1e70d" target="_top" xlink:title="Execute exact linesearch (using qsort)">
<polygon fill="white" stroke="black" points="172,-266.5 172,-285.5 271,-285.5 271,-266.5 172,-266.5"/>
<text text-anchor="middle" x="221.5" y="-273.5" font-family="Helvetica,sans-Serif" font-size="10.00">exact_linesearch</text>
</a>
</g>
</g>
<!-- Node1&#45;&gt;Node2 -->
<g id="edge1" class="edge">
<title>Node1&#45;&gt;Node2</title>
<path fill="none" stroke="midnightblue" d="M519.38,-161.64C504.54,-186.93 474.33,-231.3 435,-252 383.91,-278.89 316.48,-281.97 271.42,-280.24"/>
<polygon fill="midnightblue" stroke="midnightblue" points="522.57,-163.11 524.46,-152.68 516.48,-159.66 522.57,-163.11"/>
</g>
<!-- Node3 -->
<g id="node3" class="node">
<title>Node3</title>
<g id="a_node3"><a xlink:href="iteration_8c.html#a9c9fafac9ce099122c5a594762e5a052" target="_top" xlink:title="Update the primal iterate.">
<polygon fill="white" stroke="black" points="0,-228.5 0,-247.5 125,-247.5 125,-228.5 0,-228.5"/>
<text text-anchor="middle" x="62.5" y="-235.5" font-family="Helvetica,sans-Serif" font-size="10.00">update_primal_iterate</text>
</a>
</g>
</g>
<!-- Node1&#45;&gt;Node3 -->
<g id="edge12" class="edge">
<title>Node1&#45;&gt;Node3</title>
<path fill="none" stroke="midnightblue" d="M514.4,-160.37C497.25,-178.71 467.41,-206.64 435,-219 331.81,-258.34 200.72,-253.6 125.04,-246.12"/>
<polygon fill="midnightblue" stroke="midnightblue" points="517.22,-162.47 521.35,-152.71 512.04,-157.76 517.22,-162.47"/>
</g>
<!-- Node4 -->
<g id="node4" class="node">
<title>Node4</title>
<g id="a_node4"><a xlink:href="solver__interface_8c.html#aca80eaf7b897030273f1a6820b7e6d38" target="_top" xlink:title="Solve the KKT system .">
<polygon fill="white" stroke="black" points="344.5,-190.5 344.5,-209.5 408.5,-209.5 408.5,-190.5 344.5,-190.5"/>
<text text-anchor="middle" x="376.5" y="-197.5" font-family="Helvetica,sans-Serif" font-size="10.00">kkt_solve</text>
</a>
</g>
</g>
<!-- Node1&#45;&gt;Node4 -->
<g id="edge3" class="edge">
<title>Node1&#45;&gt;Node4</title>
<path fill="none" stroke="midnightblue" d="M494.66,-156.07C466.72,-166.54 428.15,-181.01 403.02,-190.43"/>
<polygon fill="midnightblue" stroke="midnightblue" points="495.92,-159.33 504.06,-152.54 493.47,-152.77 495.92,-159.33"/>
</g>
<!-- Node5 -->
<g id="node5" class="node">
<title>Node5</title>
<g id="a_node5"><a xlink:href="newton_8c.html#af1654e5597faac8b0ade25acf1fc1bc9" target="_top" xlink:title="Sets work&#45;&gt;d to the direction calculated by the semismooth Newton method.">
<polygon fill="white" stroke="black" points="161,-171.5 161,-190.5 282,-190.5 282,-171.5 161,-171.5"/>
<text text-anchor="middle" x="221.5" y="-178.5" font-family="Helvetica,sans-Serif" font-size="10.00">newton_set_direction</text>
</a>
</g>
</g>
<!-- Node1&#45;&gt;Node5 -->
<g id="edge8" class="edge">
<title>Node1&#45;&gt;Node5</title>
<path fill="none" stroke="midnightblue" d="M460.56,-151.53C406.94,-158.17 333.3,-167.29 282.18,-173.61"/>
<polygon fill="midnightblue" stroke="midnightblue" points="461.18,-154.98 470.67,-150.28 460.32,-148.04 461.18,-154.98"/>
</g>
<!-- Node6 -->
<g id="node6" class="node">
<title>Node6</title>
<g id="a_node6"><a xlink:href="solver__interface_8c.html#a03ad73d0e41054e90232d141e73474ab" target="_top" xlink:title="Solve the linear system .">
<polygon fill="white" stroke="black" points="318,-114.5 318,-133.5 435,-133.5 435,-114.5 318,-114.5"/>
<text text-anchor="middle" x="376.5" y="-121.5" font-family="Helvetica,sans-Serif" font-size="10.00">ldlsolveLD_neg_dphi</text>
</a>
</g>
</g>
<!-- Node1&#45;&gt;Node6 -->
<g id="edge6" class="edge">
<title>Node1&#45;&gt;Node6</title>
<path fill="none" stroke="midnightblue" d="M460.75,-134.41C452.18,-133.34 443.49,-132.25 435.11,-131.2"/>
<polygon fill="midnightblue" stroke="midnightblue" points="460.38,-137.89 470.73,-135.65 461.24,-130.94 460.38,-137.89"/>
</g>
<!-- Node7 -->
<g id="node7" class="node">
<title>Node7</title>
<g id="a_node7"><a xlink:href="scaling_8c.html#a3735b6c9c3aeeddfb3bb0982ae5f70ba" target="_top" xlink:title="Scale problem matrices.">
<polygon fill="white" stroke="black" points="342,-76.5 342,-95.5 411,-95.5 411,-76.5 342,-76.5"/>
<text text-anchor="middle" x="376.5" y="-83.5" font-family="Helvetica,sans-Serif" font-size="10.00">scale_data</text>
</a>
</g>
</g>
<!-- Node1&#45;&gt;Node7 -->
<g id="edge9" class="edge">
<title>Node1&#45;&gt;Node7</title>
<path fill="none" stroke="midnightblue" d="M497.46,-129.53C479.25,-122.02 455.97,-112.67 435,-105 426.11,-101.75 416.37,-98.44 407.47,-95.51"/>
<polygon fill="midnightblue" stroke="midnightblue" points="496.16,-132.78 506.74,-133.38 498.84,-126.32 496.16,-132.78"/>
</g>
<!-- Node8 -->
<g id="node8" class="node">
<title>Node8</title>
<g id="a_node8"><a xlink:href="termination_8c.html#a59f3d4d2ea459665833cc3d5e9265d5e" target="_top" xlink:title="Helper function to store the (unscaled) solution in the solution struct.">
<polygon fill="white" stroke="black" points="333.5,-38.5 333.5,-57.5 419.5,-57.5 419.5,-38.5 333.5,-38.5"/>
<text text-anchor="middle" x="376.5" y="-45.5" font-family="Helvetica,sans-Serif" font-size="10.00">store_solution</text>
</a>
</g>
</g>
<!-- Node1&#45;&gt;Node8 -->
<g id="edge10" class="edge">
<title>Node1&#45;&gt;Node8</title>
<path fill="none" stroke="midnightblue" d="M512.52,-126.16C494.59,-109.18 464.83,-83.23 435,-67 428.17,-63.28 420.48,-60.13 413,-57.52"/>
<polygon fill="midnightblue" stroke="midnightblue" points="510.26,-128.84 519.88,-133.26 515.11,-123.8 510.26,-128.84"/>
</g>
<!-- Node9 -->
<g id="node9" class="node">
<title>Node9</title>
<g id="a_node9"><a xlink:href="scaling_8c.html#ade09374cb3567d09382e0bc68df5acba" target="_top" xlink:title="Unscale the problem data.">
<polygon fill="white" stroke="black" points="336,-0.5 336,-19.5 417,-19.5 417,-0.5 336,-0.5"/>
<text text-anchor="middle" x="376.5" y="-7.5" font-family="Helvetica,sans-Serif" font-size="10.00">unscale_data</text>
</a>
</g>
</g>
<!-- Node1&#45;&gt;Node9 -->
<g id="edge11" class="edge">
<title>Node1&#45;&gt;Node9</title>
<path fill="none" stroke="midnightblue" d="M518.68,-124.27C503.22,-99.11 472.49,-54.59 435,-29 429.36,-25.15 422.87,-22.03 416.34,-19.51"/>
<polygon fill="midnightblue" stroke="midnightblue" points="515.87,-126.4 524.01,-133.18 521.88,-122.8 515.87,-126.4"/>
</g>
<!-- Node2&#45;&gt;Node3 -->
<g id="edge2" class="edge">
<title>Node2&#45;&gt;Node3</title>
<path fill="none" stroke="midnightblue" d="M171.05,-264.03C149.05,-258.71 123.51,-252.52 102.83,-247.52"/>
<polygon fill="midnightblue" stroke="midnightblue" points="170.34,-267.46 180.88,-266.41 171.99,-260.66 170.34,-267.46"/>
</g>
<!-- Node4&#45;&gt;Node5 -->
<g id="edge4" class="edge">
<title>Node4&#45;&gt;Node5</title>
<path fill="none" stroke="midnightblue" d="M334.1,-194.86C318.15,-192.88 299.6,-190.57 282.25,-188.42"/>
<polygon fill="midnightblue" stroke="midnightblue" points="333.81,-198.35 344.17,-196.11 334.68,-191.4 333.81,-198.35"/>
</g>
<!-- Node5&#45;&gt;Node3 -->
<g id="edge5" class="edge">
<title>Node5&#45;&gt;Node3</title>
<path fill="none" stroke="midnightblue" d="M184.51,-194.07C155.65,-204.54 115.82,-219.01 89.86,-228.43"/>
<polygon fill="midnightblue" stroke="midnightblue" points="186.02,-197.24 194.22,-190.54 183.63,-190.66 186.02,-197.24"/>
</g>
<!-- Node6&#45;&gt;Node5 -->
<g id="edge7" class="edge">
<title>Node6&#45;&gt;Node5</title>
<path fill="none" stroke="midnightblue" d="M340.43,-137.07C312.31,-147.54 273.49,-162.01 248.19,-171.43"/>
<polygon fill="midnightblue" stroke="midnightblue" points="341.74,-140.31 349.89,-133.54 339.3,-133.75 341.74,-140.31"/>
</g>
</g>
</svg>
