<?xml version="1.0" encoding="UTF-8" standalone="no"?>
<!DOCTYPE svg PUBLIC "-//W3C//DTD SVG 1.1//EN"
 "http://www.w3.org/Graphics/SVG/1.1/DTD/svg11.dtd">
<!-- Generated by graphviz version 2.43.0 (0)
 -->
<!-- Title: vec_norm_inf Pages: 1 -->
<svg width="444pt" height="382pt"
 viewBox="0.00 0.00 444.00 382.00" xmlns="http://www.w3.org/2000/svg" xmlns:xlink="http://www.w3.org/1999/xlink">
<g id="graph0" class="graph" transform="scale(1 1) rotate(0) translate(4 378)">
<title>vec_norm_inf</title>
<polygon fill="white" stroke="transparent" points="-4,4 -4,-378 440,-378 440,4 -4,4"/>
<!-- Node1 -->
<g id="node1" class="node">
<title>Node1</title>
<g id="a_node1"><a xlink:title="Infinity norm of a vector, .">
<polygon fill="#bfbfbf" stroke="black" points="353,-183.5 353,-202.5 436,-202.5 436,-183.5 353,-183.5"/>
<text text-anchor="middle" x="394.5" y="-190.5" font-family="Helvetica,sans-Serif" font-size="10.00">vec_norm_inf</text>
</a>
</g>
</g>
<!-- Node2 -->
<g id="node2" class="node">
<title>Node2</title>
<g id="a_node2"><a xlink:href="termination_8c.html#af1889ad003b14a004d4560bedde40ce9" target="_top" xlink:title="Calculates the infinity norm of the dual residual and the residual of the subproblem and stores them ...">
<polygon fill="white" stroke="black" points="174,-354.5 174,-373.5 311,-373.5 311,-354.5 174,-354.5"/>
<text text-anchor="middle" x="242.5" y="-361.5" font-family="Helvetica,sans-Serif" font-size="10.00">calculate_dual_residuals</text>
</a>
</g>
</g>
<!-- Node1&#45;&gt;Node2 -->
<g id="edge1" class="edge">
<title>Node1&#45;&gt;Node2</title>
<path fill="none" stroke="midnightblue" d="M389.19,-212.64C380.99,-245.23 359.99,-310.32 317,-345 312.18,-348.89 306.65,-351.99 300.84,-354.46"/>
<polygon fill="midnightblue" stroke="midnightblue" points="392.67,-213.11 391.57,-202.57 385.86,-211.49 392.67,-213.11"/>
</g>
<!-- Node4 -->
<g id="node4" class="node">
<title>Node4</title>
<g id="a_node4"><a xlink:href="termination_8c.html#ad746ec6ec47a1240e5e910abfb01fee3" target="_top" xlink:title="Calculates the dual tolerance for the problem and current subproblem and stores them in work&#45;&gt;eps_dua...">
<polygon fill="white" stroke="black" points="171,-316.5 171,-335.5 314,-335.5 314,-316.5 171,-316.5"/>
<text text-anchor="middle" x="242.5" y="-323.5" font-family="Helvetica,sans-Serif" font-size="10.00">calculate_dual_tolerances</text>
</a>
</g>
</g>
<!-- Node1&#45;&gt;Node4 -->
<g id="edge3" class="edge">
<title>Node1&#45;&gt;Node4</title>
<path fill="none" stroke="midnightblue" d="M385.91,-212.05C374.73,-237.62 351.36,-282.66 317,-307 311.52,-310.89 305.3,-313.98 298.86,-316.44"/>
<polygon fill="midnightblue" stroke="midnightblue" points="389.2,-213.27 389.84,-202.69 382.74,-210.56 389.2,-213.27"/>
</g>
<!-- Node5 -->
<g id="node5" class="node">
<title>Node5</title>
<g id="a_node5"><a xlink:href="termination_8c.html#afc13c2c286796ec381cdb5c83d9f764f" target="_top" xlink:title="Calculates the infinity norm of the primal residual and stores it in work&#45;&gt;info&#45;&gt;pri_res_norm.">
<polygon fill="white" stroke="black" points="171.5,-278.5 171.5,-297.5 313.5,-297.5 313.5,-278.5 171.5,-278.5"/>
<text text-anchor="middle" x="242.5" y="-285.5" font-family="Helvetica,sans-Serif" font-size="10.00">calculate_primal_residual</text>
</a>
</g>
</g>
<!-- Node1&#45;&gt;Node5 -->
<g id="edge5" class="edge">
<title>Node1&#45;&gt;Node5</title>
<path fill="none" stroke="midnightblue" d="M380.3,-210.76C366.43,-228.17 343.05,-254.17 317,-269 310.24,-272.85 302.7,-275.93 295.08,-278.4"/>
<polygon fill="midnightblue" stroke="midnightblue" points="383.3,-212.6 386.65,-202.55 377.76,-208.32 383.3,-212.6"/>
</g>
<!-- Node6 -->
<g id="node6" class="node">
<title>Node6</title>
<g id="a_node6"><a xlink:href="termination_8c.html#ac638a8fe12bfee736c6832fa6140c92d" target="_top" xlink:title="Calculates the primal tolerance and stores it in work&#45;&gt;eps_pri.">
<polygon fill="white" stroke="black" points="168,-240.5 168,-259.5 317,-259.5 317,-240.5 168,-240.5"/>
<text text-anchor="middle" x="242.5" y="-247.5" font-family="Helvetica,sans-Serif" font-size="10.00">calculate_primal_tolerance</text>
</a>
</g>
</g>
<!-- Node1&#45;&gt;Node6 -->
<g id="edge7" class="edge">
<title>Node1&#45;&gt;Node6</title>
<path fill="none" stroke="midnightblue" d="M367.73,-207.48C353.17,-215.24 334.44,-224.5 317,-231 307.37,-234.59 296.78,-237.76 286.72,-240.43"/>
<polygon fill="midnightblue" stroke="midnightblue" points="369.51,-210.5 376.64,-202.65 366.18,-204.34 369.51,-210.5"/>
</g>
<!-- Node7 -->
<g id="node7" class="node">
<title>Node7</title>
<g id="a_node7"><a xlink:href="termination_8c.html#a8cf01c07469436e7c562c9f3e162fd2b" target="_top" xlink:title="Check whether the problem is dual infeasible.">
<polygon fill="white" stroke="black" points="190.5,-202.5 190.5,-221.5 294.5,-221.5 294.5,-202.5 190.5,-202.5"/>
<text text-anchor="middle" x="242.5" y="-209.5" font-family="Helvetica,sans-Serif" font-size="10.00">is_dual_infeasible</text>
</a>
</g>
</g>
<!-- Node1&#45;&gt;Node7 -->
<g id="edge9" class="edge">
<title>Node1&#45;&gt;Node7</title>
<path fill="none" stroke="midnightblue" d="M342.93,-199.41C327.36,-201.38 310.21,-203.55 294.6,-205.53"/>
<polygon fill="midnightblue" stroke="midnightblue" points="343.43,-202.87 352.91,-198.14 342.55,-195.93 343.43,-202.87"/>
</g>
<!-- Node8 -->
<g id="node8" class="node">
<title>Node8</title>
<g id="a_node8"><a xlink:href="termination_8c.html#a4df388b37067a843cbb2c6b244496d9c" target="_top" xlink:title="Check whether the problem is primal infeasible.">
<polygon fill="white" stroke="black" points="185,-164.5 185,-183.5 300,-183.5 300,-164.5 185,-164.5"/>
<text text-anchor="middle" x="242.5" y="-171.5" font-family="Helvetica,sans-Serif" font-size="10.00">is_primal_infeasible</text>
</a>
</g>
</g>
<!-- Node1&#45;&gt;Node8 -->
<g id="edge10" class="edge">
<title>Node1&#45;&gt;Node8</title>
<path fill="none" stroke="midnightblue" d="M342.72,-186.57C329.04,-184.83 314.15,-182.95 300.17,-181.18"/>
<polygon fill="midnightblue" stroke="midnightblue" points="342.55,-190.07 352.91,-187.86 343.43,-183.13 342.55,-190.07"/>
</g>
<!-- Node9 -->
<g id="node9" class="node">
<title>Node9</title>
<g id="a_node9"><a xlink:href="newton_8c.html#af1654e5597faac8b0ade25acf1fc1bc9" target="_top" xlink:title="Sets work&#45;&gt;d to the direction calculated by the semismooth Newton method.">
<polygon fill="white" stroke="black" points="182,-126.5 182,-145.5 303,-145.5 303,-126.5 182,-126.5"/>
<text text-anchor="middle" x="242.5" y="-133.5" font-family="Helvetica,sans-Serif" font-size="10.00">newton_set_direction</text>
</a>
</g>
</g>
<!-- Node1&#45;&gt;Node9 -->
<g id="edge11" class="edge">
<title>Node1&#45;&gt;Node9</title>
<path fill="none" stroke="midnightblue" d="M367.73,-178.52C353.17,-170.76 334.44,-161.5 317,-155 307.37,-151.41 296.78,-148.24 286.72,-145.57"/>
<polygon fill="midnightblue" stroke="midnightblue" points="366.18,-181.66 376.64,-183.35 369.51,-175.5 366.18,-181.66"/>
</g>
<!-- Node11 -->
<g id="node11" class="node">
<title>Node11</title>
<g id="a_node11"><a xlink:href="scaling_8c.html#a3735b6c9c3aeeddfb3bb0982ae5f70ba" target="_top" xlink:title="Scale problem matrices.">
<polygon fill="white" stroke="black" points="208,-88.5 208,-107.5 277,-107.5 277,-88.5 208,-88.5"/>
<text text-anchor="middle" x="242.5" y="-95.5" font-family="Helvetica,sans-Serif" font-size="10.00">scale_data</text>
</a>
</g>
</g>
<!-- Node1&#45;&gt;Node11 -->
<g id="edge13" class="edge">
<title>Node1&#45;&gt;Node11</title>
<path fill="none" stroke="midnightblue" d="M380.3,-175.24C366.43,-157.83 343.05,-131.83 317,-117 304.86,-110.09 290.17,-105.64 277.13,-102.81"/>
<polygon fill="midnightblue" stroke="midnightblue" points="377.76,-177.68 386.65,-183.45 383.3,-173.4 377.76,-177.68"/>
</g>
<!-- Node12 -->
<g id="node12" class="node">
<title>Node12</title>
<g id="a_node12"><a xlink:href="iteration_8c.html#a786f2d2af82a141fe3825a3964659d50" target="_top" xlink:title=" ">
<polygon fill="white" stroke="black" points="178,-39 178,-69 307,-69 307,-39 178,-39"/>
<text text-anchor="start" x="186" y="-57" font-family="Helvetica,sans-Serif" font-size="10.00">update_proximal_point</text>
<text text-anchor="middle" x="242.5" y="-46" font-family="Helvetica,sans-Serif" font-size="10.00">_and_penalty</text>
</a>
</g>
</g>
<!-- Node1&#45;&gt;Node12 -->
<g id="edge14" class="edge">
<title>Node1&#45;&gt;Node12</title>
<path fill="none" stroke="midnightblue" d="M385.47,-173.94C373.91,-148.72 350.26,-104.48 317,-79 311.97,-75.15 306.31,-71.87 300.42,-69.08"/>
<polygon fill="midnightblue" stroke="midnightblue" points="382.31,-175.45 389.55,-183.18 388.71,-172.62 382.31,-175.45"/>
</g>
<!-- Node14 -->
<g id="node14" class="node">
<title>Node14</title>
<g id="a_node14"><a xlink:href="iteration_8c.html#a8ea42d3c9ff0d6d8dc8f144d0b03dc0d" target="_top" xlink:title="Update the penalty factors.">
<polygon fill="white" stroke="black" points="199.5,-0.5 199.5,-19.5 285.5,-19.5 285.5,-0.5 199.5,-0.5"/>
<text text-anchor="middle" x="242.5" y="-7.5" font-family="Helvetica,sans-Serif" font-size="10.00">update_sigma</text>
</a>
</g>
</g>
<!-- Node1&#45;&gt;Node14 -->
<g id="edge16" class="edge">
<title>Node1&#45;&gt;Node14</title>
<path fill="none" stroke="midnightblue" d="M389.96,-173.25C382.7,-138.63 362.78,-67.06 317,-29 308.18,-21.67 296.87,-17.13 285.78,-14.32"/>
<polygon fill="midnightblue" stroke="midnightblue" points="386.53,-173.96 391.89,-183.1 393.4,-172.62 386.53,-173.96"/>
</g>
<!-- Node3 -->
<g id="node3" class="node">
<title>Node3</title>
<g id="a_node3"><a xlink:href="termination_8c.html#a50775fd01103420a3cfe7452a8be3874" target="_top" xlink:title="Calls the routines that compute the norm of the residuals and the tolerances.">
<polygon fill="white" stroke="black" points="0,-292 0,-322 132,-322 132,-292 0,-292"/>
<text text-anchor="start" x="8" y="-310" font-family="Helvetica,sans-Serif" font-size="10.00">calculate_residual</text>
<text text-anchor="middle" x="66" y="-299" font-family="Helvetica,sans-Serif" font-size="10.00">_norms_and_tolerances</text>
</a>
</g>
</g>
<!-- Node2&#45;&gt;Node3 -->
<g id="edge2" class="edge">
<title>Node2&#45;&gt;Node3</title>
<path fill="none" stroke="midnightblue" d="M191.39,-351.81C183.52,-349.68 175.51,-347.38 168,-345 146.57,-338.22 123.03,-329.45 104.08,-322.04"/>
<polygon fill="midnightblue" stroke="midnightblue" points="190.66,-355.24 201.23,-354.42 192.45,-348.47 190.66,-355.24"/>
</g>
<!-- Node4&#45;&gt;Node3 -->
<g id="edge4" class="edge">
<title>Node4&#45;&gt;Node3</title>
<path fill="none" stroke="midnightblue" d="M160.83,-317.22C151.24,-316.17 141.53,-315.12 132.19,-314.1"/>
<polygon fill="midnightblue" stroke="midnightblue" points="160.46,-320.7 170.78,-318.3 161.21,-313.74 160.46,-320.7"/>
</g>
<!-- Node5&#45;&gt;Node3 -->
<g id="edge6" class="edge">
<title>Node5&#45;&gt;Node3</title>
<path fill="none" stroke="midnightblue" d="M161.23,-296.74C151.54,-297.8 141.72,-298.86 132.28,-299.89"/>
<polygon fill="midnightblue" stroke="midnightblue" points="161.72,-300.21 171.28,-295.65 160.96,-293.25 161.72,-300.21"/>
</g>
<!-- Node6&#45;&gt;Node3 -->
<g id="edge8" class="edge">
<title>Node6&#45;&gt;Node3</title>
<path fill="none" stroke="midnightblue" d="M191.39,-262.19C183.52,-264.32 175.51,-266.62 168,-269 146.57,-275.78 123.03,-284.55 104.08,-291.96"/>
<polygon fill="midnightblue" stroke="midnightblue" points="192.45,-265.53 201.23,-259.58 190.66,-258.76 192.45,-265.53"/>
</g>
<!-- Node10 -->
<g id="node10" class="node">
<title>Node10</title>
<g id="a_node10"><a xlink:href="iteration_8c.html#a9c9fafac9ce099122c5a594762e5a052" target="_top" xlink:title="Update the primal iterate.">
<polygon fill="white" stroke="black" points="3.5,-126.5 3.5,-145.5 128.5,-145.5 128.5,-126.5 3.5,-126.5"/>
<text text-anchor="middle" x="66" y="-133.5" font-family="Helvetica,sans-Serif" font-size="10.00">update_primal_iterate</text>
</a>
</g>
</g>
<!-- Node9&#45;&gt;Node10 -->
<g id="edge12" class="edge">
<title>Node9&#45;&gt;Node10</title>
<path fill="none" stroke="midnightblue" d="M171.71,-136C157.48,-136 142.6,-136 128.67,-136"/>
<polygon fill="midnightblue" stroke="midnightblue" points="171.94,-139.5 181.94,-136 171.94,-132.5 171.94,-139.5"/>
</g>
<!-- Node13 -->
<g id="node13" class="node">
<title>Node13</title>
<g id="a_node13"><a xlink:href="iteration_8c.html#a1ad7b6cb4924a8de3378ed35890b02e7" target="_top" xlink:title=" ">
<polygon fill="white" stroke="black" points="9,-17 9,-47 123,-47 123,-17 9,-17"/>
<text text-anchor="start" x="17" y="-35" font-family="Helvetica,sans-Serif" font-size="10.00">update_dual_iterate</text>
<text text-anchor="middle" x="66" y="-24" font-family="Helvetica,sans-Serif" font-size="10.00">_and_parameters</text>
</a>
</g>
</g>
<!-- Node12&#45;&gt;Node13 -->
<g id="edge15" class="edge">
<title>Node12&#45;&gt;Node13</title>
<path fill="none" stroke="midnightblue" d="M167.38,-44.65C152.58,-42.79 137.27,-40.86 123.2,-39.09"/>
<polygon fill="midnightblue" stroke="midnightblue" points="167.15,-48.15 177.51,-45.93 168.03,-41.21 167.15,-48.15"/>
</g>
<!-- Node14&#45;&gt;Node13 -->
<g id="edge17" class="edge">
<title>Node14&#45;&gt;Node13</title>
<path fill="none" stroke="midnightblue" d="M189.29,-16.58C168.4,-19.22 144.29,-22.26 123.03,-24.94"/>
<polygon fill="midnightblue" stroke="midnightblue" points="189.77,-20.05 199.26,-15.33 188.9,-13.1 189.77,-20.05"/>
</g>
</g>
</svg>
