<?xml version="1.0" encoding="UTF-8" standalone="no"?>
<!DOCTYPE svg PUBLIC "-//W3C//DTD SVG 1.1//EN"
 "http://www.w3.org/Graphics/SVG/1.1/DTD/svg11.dtd">
<!-- Generated by graphviz version 2.43.0 (0)
 -->
<!-- Title: QPALM/src/nonconvex.c Pages: 1 -->
<svg width="394pt" height="308pt"
 viewBox="0.00 0.00 394.10 308.00" xmlns="http://www.w3.org/2000/svg" xmlns:xlink="http://www.w3.org/1999/xlink">
<g id="graph0" class="graph" transform="scale(1 1) rotate(0) translate(4 304)">
<title>QPALM/src/nonconvex.c</title>
<polygon fill="white" stroke="transparent" points="-4,4 -4,-304 390.1,-304 390.1,4 -4,4"/>
<!-- Node1 -->
<g id="node1" class="node">
<title>Node1</title>
<g id="a_node1"><a xlink:title="Routines to deal with nonconvex QPs.">
<polygon fill="#bfbfbf" stroke="black" points="146.1,-280.5 146.1,-299.5 278.1,-299.5 278.1,-280.5 146.1,-280.5"/>
<text text-anchor="middle" x="212.1" y="-287.5" font-family="Helvetica,sans-Serif" font-size="10.00">QPALM/src/nonconvex.c</text>
</a>
</g>
</g>
<!-- Node2 -->
<g id="node2" class="node">
<title>Node2</title>
<g id="a_node2"><a xlink:href="nonconvex_8h.html" target="_top" xlink:title="Routines to deal with nonconvex QPs.">
<polygon fill="white" stroke="black" points="240.6,-224.5 240.6,-243.5 319.6,-243.5 319.6,-224.5 240.6,-224.5"/>
<text text-anchor="middle" x="280.1" y="-231.5" font-family="Helvetica,sans-Serif" font-size="10.00">nonconvex.h</text>
</a>
</g>
</g>
<!-- Node1&#45;&gt;Node2 -->
<g id="edge1" class="edge">
<title>Node1&#45;&gt;Node2</title>
<path fill="none" stroke="midnightblue" d="M223.03,-280.32C233.28,-272.18 248.82,-259.84 261.11,-250.09"/>
<polygon fill="midnightblue" stroke="midnightblue" points="263.33,-252.79 268.98,-243.83 258.97,-247.31 263.33,-252.79"/>
</g>
<!-- Node3 -->
<g id="node3" class="node">
<title>Node3</title>
<g id="a_node3"><a xlink:href="types_8h.html" target="_top" xlink:title="Internal data structures used in QPALM.">
<polygon fill="white" stroke="black" points="184.6,-112.5 184.6,-131.5 237.6,-131.5 237.6,-112.5 184.6,-112.5"/>
<text text-anchor="middle" x="211.1" y="-119.5" font-family="Helvetica,sans-Serif" font-size="10.00">types.h</text>
</a>
</g>
</g>
<!-- Node1&#45;&gt;Node3 -->
<g id="edge7" class="edge">
<title>Node1&#45;&gt;Node3</title>
<path fill="none" stroke="midnightblue" d="M212.05,-280.08C211.89,-253.95 211.43,-177.21 211.22,-141.58"/>
<polygon fill="midnightblue" stroke="midnightblue" points="214.72,-141.55 211.16,-131.57 207.72,-141.59 214.72,-141.55"/>
</g>
<!-- Node4 -->
<g id="node4" class="node">
<title>Node4</title>
<g id="a_node4"><a xlink:href="global__opts_8h.html" target="_top" xlink:title="Custom memory allocation, print and utility functions, and data types for floats and ints.">
<polygon fill="white" stroke="black" points="184.1,-56.5 184.1,-75.5 266.1,-75.5 266.1,-56.5 184.1,-56.5"/>
<text text-anchor="middle" x="225.1" y="-63.5" font-family="Helvetica,sans-Serif" font-size="10.00">global_opts.h</text>
</a>
</g>
</g>
<!-- Node1&#45;&gt;Node4 -->
<g id="edge10" class="edge">
<title>Node1&#45;&gt;Node4</title>
<path fill="none" stroke="midnightblue" d="M271.78,-280.43C293.53,-274.1 315.98,-263.11 329.1,-244 368.86,-186.11 285.8,-112.48 245.44,-81.63"/>
<polygon fill="midnightblue" stroke="midnightblue" points="247.41,-78.74 237.31,-75.55 243.22,-84.34 247.41,-78.74"/>
</g>
<!-- Node6 -->
<g id="node6" class="node">
<title>Node6</title>
<g id="a_node6"><a xlink:title=" ">
<polygon fill="white" stroke="#bfbfbf" points="208.6,-0.5 208.6,-19.5 259.6,-19.5 259.6,-0.5 208.6,-0.5"/>
<text text-anchor="middle" x="234.1" y="-7.5" font-family="Helvetica,sans-Serif" font-size="10.00">math.h</text>
</a>
</g>
</g>
<!-- Node1&#45;&gt;Node6 -->
<g id="edge21" class="edge">
<title>Node1&#45;&gt;Node6</title>
<path fill="none" stroke="midnightblue" d="M258.73,-280.45C310.27,-267.99 386.1,-239.4 386.1,-179 386.1,-179 386.1,-179 386.1,-121 386.1,-63.76 314.5,-33.28 269.58,-19.78"/>
<polygon fill="midnightblue" stroke="midnightblue" points="270.47,-16.4 259.89,-17.01 268.54,-23.13 270.47,-16.4"/>
</g>
<!-- Node7 -->
<g id="node7" class="node">
<title>Node7</title>
<g id="a_node7"><a xlink:href="constants_8h.html" target="_top" xlink:title="Constants used in QPALM.">
<polygon fill="white" stroke="black" points="6.6,-112.5 6.6,-131.5 79.6,-131.5 79.6,-112.5 6.6,-112.5"/>
<text text-anchor="middle" x="43.1" y="-119.5" font-family="Helvetica,sans-Serif" font-size="10.00">constants.h</text>
</a>
</g>
</g>
<!-- Node1&#45;&gt;Node7 -->
<g id="edge8" class="edge">
<title>Node1&#45;&gt;Node7</title>
<path fill="none" stroke="midnightblue" d="M155.76,-280.47C104.56,-269.26 32.65,-243.95 3.1,-188 -6.19,-170.4 9.19,-151.08 23.49,-138.12"/>
<polygon fill="midnightblue" stroke="midnightblue" points="25.79,-140.75 31.16,-131.62 21.27,-135.41 25.79,-140.75"/>
</g>
<!-- Node8 -->
<g id="node8" class="node">
<title>Node8</title>
<g id="a_node8"><a xlink:href="lin__alg_8h.html" target="_top" xlink:title="Linear algebra with vectors.">
<polygon fill="white" stroke="black" points="126.1,-224.5 126.1,-243.5 184.1,-243.5 184.1,-224.5 126.1,-224.5"/>
<text text-anchor="middle" x="155.1" y="-231.5" font-family="Helvetica,sans-Serif" font-size="10.00">lin_alg.h</text>
</a>
</g>
</g>
<!-- Node1&#45;&gt;Node8 -->
<g id="edge11" class="edge">
<title>Node1&#45;&gt;Node8</title>
<path fill="none" stroke="midnightblue" d="M202.95,-280.32C194.6,-272.42 182.07,-260.55 171.93,-250.94"/>
<polygon fill="midnightblue" stroke="midnightblue" points="174.1,-248.17 164.43,-243.83 169.28,-253.25 174.1,-248.17"/>
</g>
<!-- Node10 -->
<g id="node10" class="node">
<title>Node10</title>
<g id="a_node10"><a xlink:href="util_8h.html" target="_top" xlink:title="Utility functions.">
<polygon fill="white" stroke="black" points="12.6,-168.5 12.6,-187.5 53.6,-187.5 53.6,-168.5 12.6,-168.5"/>
<text text-anchor="middle" x="33.1" y="-175.5" font-family="Helvetica,sans-Serif" font-size="10.00">util.h</text>
</a>
</g>
</g>
<!-- Node1&#45;&gt;Node10 -->
<g id="edge18" class="edge">
<title>Node1&#45;&gt;Node10</title>
<path fill="none" stroke="midnightblue" d="M190.67,-280.42C170.95,-272.17 141.21,-258.8 117.1,-244 92.61,-228.97 66.81,-208.15 50.37,-194.16"/>
<polygon fill="midnightblue" stroke="midnightblue" points="52.54,-191.41 42.68,-187.54 47.97,-196.72 52.54,-191.41"/>
</g>
<!-- Node2&#45;&gt;Node3 -->
<g id="edge2" class="edge">
<title>Node2&#45;&gt;Node3</title>
<path fill="none" stroke="midnightblue" d="M278.21,-224.47C275.06,-211.51 267.91,-186.44 256.1,-168 248.99,-156.89 238.72,-146.35 229.78,-138.27"/>
<polygon fill="midnightblue" stroke="midnightblue" points="231.93,-135.5 222.08,-131.59 227.35,-140.79 231.93,-135.5"/>
</g>
<!-- Node3&#45;&gt;Node4 -->
<g id="edge3" class="edge">
<title>Node3&#45;&gt;Node4</title>
<path fill="none" stroke="midnightblue" d="M213.42,-112.08C215.27,-104.93 217.94,-94.64 220.26,-85.69"/>
<polygon fill="midnightblue" stroke="midnightblue" points="223.71,-86.31 222.84,-75.75 216.94,-84.55 223.71,-86.31"/>
</g>
<!-- Node5 -->
<g id="node5" class="node">
<title>Node5</title>
<g id="a_node5"><a xlink:title=" ">
<polygon fill="white" stroke="#bfbfbf" points="121.1,-0.5 121.1,-19.5 171.1,-19.5 171.1,-0.5 121.1,-0.5"/>
<text text-anchor="middle" x="146.1" y="-7.5" font-family="Helvetica,sans-Serif" font-size="10.00">ladel.h</text>
</a>
</g>
</g>
<!-- Node3&#45;&gt;Node5 -->
<g id="edge6" class="edge">
<title>Node3&#45;&gt;Node5</title>
<path fill="none" stroke="midnightblue" d="M202.93,-112.2C195.11,-103.48 183.33,-89.5 175.1,-76 165.97,-61.01 158.05,-42.65 152.8,-29.27"/>
<polygon fill="midnightblue" stroke="midnightblue" points="156.01,-27.87 149.19,-19.76 149.47,-30.35 156.01,-27.87"/>
</g>
<!-- Node4&#45;&gt;Node5 -->
<g id="edge4" class="edge">
<title>Node4&#45;&gt;Node5</title>
<path fill="none" stroke="midnightblue" d="M212.41,-56.32C200.2,-47.98 181.53,-35.21 167.1,-25.35"/>
<polygon fill="midnightblue" stroke="midnightblue" points="169,-22.41 158.77,-19.65 165.05,-28.19 169,-22.41"/>
</g>
<!-- Node4&#45;&gt;Node6 -->
<g id="edge5" class="edge">
<title>Node4&#45;&gt;Node6</title>
<path fill="none" stroke="midnightblue" d="M226.59,-56.08C227.78,-48.93 229.5,-38.64 230.99,-29.69"/>
<polygon fill="midnightblue" stroke="midnightblue" points="234.45,-30.19 232.65,-19.75 227.55,-29.04 234.45,-30.19"/>
</g>
<!-- Node7&#45;&gt;Node5 -->
<g id="edge9" class="edge">
<title>Node7&#45;&gt;Node5</title>
<path fill="none" stroke="midnightblue" d="M51.19,-112.37C68.41,-93.97 108.96,-50.67 131.07,-27.05"/>
<polygon fill="midnightblue" stroke="midnightblue" points="133.78,-29.28 138.06,-19.59 128.67,-24.5 133.78,-29.28"/>
</g>
<!-- Node8&#45;&gt;Node3 -->
<g id="edge12" class="edge">
<title>Node8&#45;&gt;Node3</title>
<path fill="none" stroke="midnightblue" d="M161.65,-224.37C168.14,-215.55 178.11,-201.3 185.1,-188 193.06,-172.87 200.12,-154.75 204.87,-141.49"/>
<polygon fill="midnightblue" stroke="midnightblue" points="208.31,-142.26 208.28,-131.67 201.7,-139.96 208.31,-142.26"/>
</g>
<!-- Node9 -->
<g id="node9" class="node">
<title>Node9</title>
<g id="a_node9"><a xlink:href="solver__interface_8h.html" target="_top" xlink:title="Interface and wrapper to matrix/factorization (ladel) functions.">
<polygon fill="white" stroke="black" points="72.1,-168.5 72.1,-187.5 176.1,-187.5 176.1,-168.5 72.1,-168.5"/>
<text text-anchor="middle" x="124.1" y="-175.5" font-family="Helvetica,sans-Serif" font-size="10.00">solver_interface.h</text>
</a>
</g>
</g>
<!-- Node8&#45;&gt;Node9 -->
<g id="edge13" class="edge">
<title>Node8&#45;&gt;Node9</title>
<path fill="none" stroke="midnightblue" d="M149.99,-224.08C145.7,-216.61 139.45,-205.72 134.16,-196.52"/>
<polygon fill="midnightblue" stroke="midnightblue" points="137.14,-194.68 129.13,-187.75 131.07,-198.17 137.14,-194.68"/>
</g>
<!-- Node9&#45;&gt;Node3 -->
<g id="edge16" class="edge">
<title>Node9&#45;&gt;Node3</title>
<path fill="none" stroke="midnightblue" d="M138.08,-168.32C151.65,-159.9 172.48,-146.97 188.43,-137.07"/>
<polygon fill="midnightblue" stroke="midnightblue" points="190.51,-139.9 197.16,-131.65 186.82,-133.95 190.51,-139.9"/>
</g>
<!-- Node9&#45;&gt;Node4 -->
<g id="edge14" class="edge">
<title>Node9&#45;&gt;Node4</title>
<path fill="none" stroke="midnightblue" d="M130.26,-168.2C139.42,-155.33 157.47,-130.86 175.1,-112 184.85,-101.57 196.68,-90.85 206.39,-82.48"/>
<polygon fill="midnightblue" stroke="midnightblue" points="208.9,-84.94 214.27,-75.81 204.38,-79.6 208.9,-84.94"/>
</g>
<!-- Node9&#45;&gt;Node5 -->
<g id="edge17" class="edge">
<title>Node9&#45;&gt;Node5</title>
<path fill="none" stroke="midnightblue" d="M125.29,-168.08C128.75,-141.95 138.92,-65.21 143.64,-29.58"/>
<polygon fill="midnightblue" stroke="midnightblue" points="147.12,-29.94 144.97,-19.57 140.19,-29.02 147.12,-29.94"/>
</g>
<!-- Node9&#45;&gt;Node7 -->
<g id="edge15" class="edge">
<title>Node9&#45;&gt;Node7</title>
<path fill="none" stroke="midnightblue" d="M111.09,-168.32C98.57,-159.98 79.42,-147.21 64.63,-137.35"/>
<polygon fill="midnightblue" stroke="midnightblue" points="66.35,-134.29 56.09,-131.65 62.46,-140.11 66.35,-134.29"/>
</g>
<!-- Node10&#45;&gt;Node3 -->
<g id="edge19" class="edge">
<title>Node10&#45;&gt;Node3</title>
<path fill="none" stroke="midnightblue" d="M53.87,-170.7C83.46,-161.72 138.2,-145.12 174.64,-134.06"/>
<polygon fill="midnightblue" stroke="midnightblue" points="175.84,-137.35 184.4,-131.1 173.81,-130.66 175.84,-137.35"/>
</g>
<!-- Node10&#45;&gt;Node7 -->
<g id="edge20" class="edge">
<title>Node10&#45;&gt;Node7</title>
<path fill="none" stroke="midnightblue" d="M34.76,-168.08C36.08,-160.93 37.99,-150.64 39.64,-141.69"/>
<polygon fill="midnightblue" stroke="midnightblue" points="43.1,-142.22 41.48,-131.75 36.22,-140.95 43.1,-142.22"/>
</g>
</g>
</svg>
