<?xml version="1.0" encoding="UTF-8" standalone="no"?>
<!DOCTYPE svg PUBLIC "-//W3C//DTD SVG 1.1//EN"
 "http://www.w3.org/Graphics/SVG/1.1/DTD/svg11.dtd">
<!-- Generated by graphviz version 2.43.0 (0)
 -->
<!-- Title: QPALM/interfaces/cxx/src/qpalm.cpp Pages: 1 -->
<!--zoomable 431 -->
<svg id="main" version="1.1" xmlns="http://www.w3.org/2000/svg" xmlns:xlink="http://www.w3.org/1999/xlink" xml:space="preserve" onload="init(evt)">
<style type="text/css"><![CDATA[
.edge:hover path { stroke: red; }
.edge:hover polygon { stroke: red; fill: red; }
]]></style>
<script type="text/javascript"><![CDATA[
var edges = document.getElementsByTagName('g');
if (edges && edges.length) {
  for (var i=0;i<edges.length;i++) {
    if (edges[i].id.substr(0,4)=='edge') {
      edges[i].setAttribute('class','edge');
    }
  }
}
]]></script>
        <defs>
                <circle id="rim" cx="0" cy="0" r="7"/>
                <circle id="rim2" cx="0" cy="0" r="3.5"/>
                <g id="zoomPlus">
                        <use xlink:href="#rim" fill="#404040">
                                <set attributeName="fill" to="#808080" begin="zoomplus.mouseover" end="zoomplus.mouseout"/>
                        </use>
                        <path d="M-4,0h8M0,-4v8" fill="none" stroke="white" stroke-width="1.5" pointer-events="none"/>
                </g>
                <g id="zoomMin">
                        <use xlink:href="#rim" fill="#404040">
                                <set attributeName="fill" to="#808080" begin="zoomminus.mouseover" end="zoomminus.mouseout"/>
                        </use>
                        <path d="M-4,0h8" fill="none" stroke="white" stroke-width="1.5" pointer-events="none"/>
                </g>
                <g id="dirArrow">
                        <path fill="none" stroke="white" stroke-width="1.5" d="M0,-3.0v7 M-2.5,-0.5L0,-3.0L2.5,-0.5"/>
                </g>
               <g id="resetDef">
                       <use xlink:href="#rim2" fill="#404040">
                               <set attributeName="fill" to="#808080" begin="reset.mouseover" end="reset.mouseout"/>
                       </use>
               </g>
        </defs>

<script type="text/javascript">
var viewWidth = 1286;
var viewHeight = 431;
var sectionId = 'dynsection-0';
</script>
<script xlink:href="svgpan.js"/>
<svg id="graph" class="graph">
<g id="viewport">
<title>QPALM/interfaces/cxx/src/qpalm.cpp</title>
<polygon fill="white" stroke="transparent" points="-4,4 -4,-427 1281.88,-427 1281.88,4 -4,4"/>
<!-- Node1 -->
<g id="node1" class="node">
<title>Node1</title>
<g id="a_node1"><a xlink:title=" ">
<polygon fill="#bfbfbf" stroke="black" points="621,-392.5 621,-422.5 743,-422.5 743,-392.5 621,-392.5"/>
<text text-anchor="start" x="629" y="-410.5" font-family="Helvetica,sans-Serif" font-size="10.00">QPALM/interfaces/cxx</text>
<text text-anchor="middle" x="682" y="-399.5" font-family="Helvetica,sans-Serif" font-size="10.00">/src/qpalm.cpp</text>
</a>
</g>
</g>
<!-- Node2 -->
<g id="node2" class="node">
<title>Node2</title>
<g id="a_node2"><a xlink:href="qpalm_8hpp.html" target="_top" xlink:title=" ">
<polygon fill="white" stroke="black" points="449,-168.5 449,-187.5 517,-187.5 517,-168.5 449,-168.5"/>
<text text-anchor="middle" x="483" y="-175.5" font-family="Helvetica,sans-Serif" font-size="10.00">qpalm.hpp</text>
</a>
</g>
</g>
<!-- Node1&#45;&gt;Node2 -->
<g id="edge1" class="edge">
<title>Node1&#45;&gt;Node2</title>
<path fill="none" stroke="midnightblue" d="M652.56,-392.41C618.95,-374.97 564.34,-342.34 531,-300 506.27,-268.6 492.8,-222.85 486.84,-197.55"/>
<polygon fill="midnightblue" stroke="midnightblue" points="490.25,-196.78 484.67,-187.78 483.42,-198.3 490.25,-196.78"/>
</g>
<!-- Node16 -->
<g id="node16" class="node">
<title>Node16</title>
<g id="a_node16"><a xlink:href="qpalm_8h.html" target="_top" xlink:title="QPALM main solver API.">
<polygon fill="white" stroke="black" points="873,-336.5 873,-355.5 929,-355.5 929,-336.5 873,-336.5"/>
<text text-anchor="middle" x="901" y="-343.5" font-family="Helvetica,sans-Serif" font-size="10.00">qpalm.h</text>
</a>
</g>
</g>
<!-- Node1&#45;&gt;Node16 -->
<g id="edge17" class="edge">
<title>Node1&#45;&gt;Node16</title>
<path fill="none" stroke="midnightblue" d="M733.62,-392.47C773.22,-381.72 826.98,-367.11 862.77,-357.39"/>
<polygon fill="midnightblue" stroke="midnightblue" points="864.08,-360.66 872.81,-354.66 862.25,-353.9 864.08,-360.66"/>
</g>
<!-- Node3 -->
<g id="node3" class="node">
<title>Node3</title>
<g id="a_node3"><a xlink:href="sparse_8hpp.html" target="_top" xlink:title=" ">
<polygon fill="white" stroke="black" points="370,-112.5 370,-131.5 440,-131.5 440,-112.5 370,-112.5"/>
<text text-anchor="middle" x="405" y="-119.5" font-family="Helvetica,sans-Serif" font-size="10.00">sparse.hpp</text>
</a>
</g>
</g>
<!-- Node2&#45;&gt;Node3 -->
<g id="edge2" class="edge">
<title>Node2&#45;&gt;Node3</title>
<path fill="none" stroke="midnightblue" d="M470.47,-168.32C458.41,-159.98 439.97,-147.21 425.73,-137.35"/>
<polygon fill="midnightblue" stroke="midnightblue" points="427.72,-134.47 417.5,-131.65 423.73,-140.22 427.72,-134.47"/>
</g>
<!-- Node14 -->
<g id="node14" class="node">
<title>Node14</title>
<g id="a_node14"><a xlink:href="types_8h.html" target="_top" xlink:title="Internal data structures used in QPALM.">
<polygon fill="white" stroke="black" points="838.5,-112.5 838.5,-131.5 891.5,-131.5 891.5,-112.5 838.5,-112.5"/>
<text text-anchor="middle" x="865" y="-119.5" font-family="Helvetica,sans-Serif" font-size="10.00">types.h</text>
</a>
</g>
</g>
<!-- Node2&#45;&gt;Node14 -->
<g id="edge13" class="edge">
<title>Node2&#45;&gt;Node14</title>
<path fill="none" stroke="midnightblue" d="M517.24,-172.16C588.8,-162.04 753.71,-138.73 827.78,-128.26"/>
<polygon fill="midnightblue" stroke="midnightblue" points="828.62,-131.68 838.03,-126.81 827.64,-124.75 828.62,-131.68"/>
</g>
<!-- Node15 -->
<g id="node15" class="node">
<title>Node15</title>
<g id="a_node15"><a xlink:title=" ">
<polygon fill="white" stroke="#bfbfbf" points="458,-112.5 458,-131.5 514,-131.5 514,-112.5 458,-112.5"/>
<text text-anchor="middle" x="486" y="-119.5" font-family="Helvetica,sans-Serif" font-size="10.00">optional</text>
</a>
</g>
</g>
<!-- Node2&#45;&gt;Node15 -->
<g id="edge16" class="edge">
<title>Node2&#45;&gt;Node15</title>
<path fill="none" stroke="midnightblue" d="M483.5,-168.08C483.89,-161.01 484.45,-150.86 484.95,-141.99"/>
<polygon fill="midnightblue" stroke="midnightblue" points="488.45,-141.93 485.51,-131.75 481.46,-141.54 488.45,-141.93"/>
</g>
<!-- Node4 -->
<g id="node4" class="node">
<title>Node4</title>
<g id="a_node4"><a xlink:title=" ">
<polygon fill="white" stroke="#bfbfbf" points="320,-56.5 320,-75.5 400,-75.5 400,-56.5 320,-56.5"/>
<text text-anchor="middle" x="360" y="-63.5" font-family="Helvetica,sans-Serif" font-size="10.00">Eigen/Sparse</text>
</a>
</g>
</g>
<!-- Node3&#45;&gt;Node4 -->
<g id="edge3" class="edge">
<title>Node3&#45;&gt;Node4</title>
<path fill="none" stroke="midnightblue" d="M397.57,-112.08C391.15,-104.38 381.69,-93.03 373.88,-83.65"/>
<polygon fill="midnightblue" stroke="midnightblue" points="376.38,-81.19 367.29,-75.75 371.01,-85.67 376.38,-81.19"/>
</g>
<!-- Node5 -->
<g id="node5" class="node">
<title>Node5</title>
<g id="a_node5"><a xlink:title=" ">
<polygon fill="white" stroke="#bfbfbf" points="418.5,-56.5 418.5,-75.5 537.5,-75.5 537.5,-56.5 418.5,-56.5"/>
<text text-anchor="middle" x="478" y="-63.5" font-family="Helvetica,sans-Serif" font-size="10.00">Eigen/src/Core/Map.h</text>
</a>
</g>
</g>
<!-- Node3&#45;&gt;Node5 -->
<g id="edge4" class="edge">
<title>Node3&#45;&gt;Node5</title>
<path fill="none" stroke="midnightblue" d="M416.73,-112.32C427.84,-104.11 444.74,-91.6 457.98,-81.81"/>
<polygon fill="midnightblue" stroke="midnightblue" points="460.1,-84.59 466.06,-75.83 455.94,-78.97 460.1,-84.59"/>
</g>
<!-- Node6 -->
<g id="node6" class="node">
<title>Node6</title>
<g id="a_node6"><a xlink:title=" ">
<polygon fill="white" stroke="#bfbfbf" points="556,-56.5 556,-75.5 686,-75.5 686,-56.5 556,-56.5"/>
<text text-anchor="middle" x="621" y="-63.5" font-family="Helvetica,sans-Serif" font-size="10.00">Eigen/src/Core/Matrix.h</text>
</a>
</g>
</g>
<!-- Node3&#45;&gt;Node6 -->
<g id="edge5" class="edge">
<title>Node3&#45;&gt;Node6</title>
<path fill="none" stroke="midnightblue" d="M439.23,-112.44C476.51,-103.12 536.27,-88.18 577.01,-78"/>
<polygon fill="midnightblue" stroke="midnightblue" points="578.08,-81.34 586.93,-75.52 576.38,-74.55 578.08,-81.34"/>
</g>
<!-- Node7 -->
<g id="node7" class="node">
<title>Node7</title>
<g id="a_node7"><a xlink:href="global__opts_8h.html" target="_top" xlink:title="Custom memory allocation, print and utility functions, and data types for floats and ints.">
<polygon fill="white" stroke="black" points="824,-56.5 824,-75.5 906,-75.5 906,-56.5 824,-56.5"/>
<text text-anchor="middle" x="865" y="-63.5" font-family="Helvetica,sans-Serif" font-size="10.00">global_opts.h</text>
</a>
</g>
</g>
<!-- Node3&#45;&gt;Node7 -->
<g id="edge6" class="edge">
<title>Node3&#45;&gt;Node7</title>
<path fill="none" stroke="midnightblue" d="M440.01,-113.5C443.04,-112.95 446.07,-112.44 449,-112 607.3,-88.09 651.31,-98.06 813.5,-76.1"/>
<polygon fill="midnightblue" stroke="midnightblue" points="814.41,-79.51 823.84,-74.68 813.46,-72.57 814.41,-79.51"/>
</g>
<!-- Node10 -->
<g id="node10" class="node">
<title>Node10</title>
<g id="a_node10"><a xlink:title=" ">
<polygon fill="white" stroke="#bfbfbf" points="704,-56.5 704,-75.5 806,-75.5 806,-56.5 704,-56.5"/>
<text text-anchor="middle" x="755" y="-63.5" font-family="Helvetica,sans-Serif" font-size="10.00">ladel_constants.h</text>
</a>
</g>
</g>
<!-- Node3&#45;&gt;Node10 -->
<g id="edge9" class="edge">
<title>Node3&#45;&gt;Node10</title>
<path fill="none" stroke="midnightblue" d="M440.03,-113.65C443.06,-113.07 446.08,-112.51 449,-112 554.65,-93.48 583.99,-92.25 693.77,-76.17"/>
<polygon fill="midnightblue" stroke="midnightblue" points="694.56,-79.59 703.94,-74.67 693.54,-72.67 694.56,-79.59"/>
</g>
<!-- Node11 -->
<g id="node11" class="node">
<title>Node11</title>
<g id="a_node11"><a xlink:title=" ">
<polygon fill="white" stroke="#bfbfbf" points="0,-56.5 0,-75.5 82,-75.5 82,-56.5 0,-56.5"/>
<text text-anchor="middle" x="41" y="-63.5" font-family="Helvetica,sans-Serif" font-size="10.00">ladel_types.h</text>
</a>
</g>
</g>
<!-- Node3&#45;&gt;Node11 -->
<g id="edge10" class="edge">
<title>Node3&#45;&gt;Node11</title>
<path fill="none" stroke="midnightblue" d="M369.62,-116.35C313.18,-108.84 199.03,-93.28 92.17,-76.14"/>
<polygon fill="midnightblue" stroke="midnightblue" points="92.61,-72.67 82.18,-74.53 91.5,-79.58 92.61,-72.67"/>
</g>
<!-- Node12 -->
<g id="node12" class="node">
<title>Node12</title>
<g id="a_node12"><a xlink:title=" ">
<polygon fill="white" stroke="#bfbfbf" points="100,-56.5 100,-75.5 158,-75.5 158,-56.5 100,-56.5"/>
<text text-anchor="middle" x="129" y="-63.5" font-family="Helvetica,sans-Serif" font-size="10.00">memory</text>
</a>
</g>
</g>
<!-- Node3&#45;&gt;Node12 -->
<g id="edge11" class="edge">
<title>Node3&#45;&gt;Node12</title>
<path fill="none" stroke="midnightblue" d="M369.82,-114.87C325.19,-106.97 245.64,-92.52 167.97,-76.13"/>
<polygon fill="midnightblue" stroke="midnightblue" points="168.52,-72.67 158.02,-74.02 167.07,-79.52 168.52,-72.67"/>
</g>
<!-- Node13 -->
<g id="node13" class="node">
<title>Node13</title>
<g id="a_node13"><a xlink:href="qpalm__cxx-export_8hpp.html" target="_top" xlink:title=" ">
<polygon fill="white" stroke="black" points="176,-56.5 176,-75.5 302,-75.5 302,-56.5 176,-56.5"/>
<text text-anchor="middle" x="239" y="-63.5" font-family="Helvetica,sans-Serif" font-size="10.00">qpalm_cxx&#45;export.hpp</text>
</a>
</g>
</g>
<!-- Node3&#45;&gt;Node13 -->
<g id="edge12" class="edge">
<title>Node3&#45;&gt;Node13</title>
<path fill="none" stroke="midnightblue" d="M378.7,-112.44C350.65,-103.32 306.06,-88.81 274.82,-78.65"/>
<polygon fill="midnightblue" stroke="midnightblue" points="275.77,-75.28 265.18,-75.52 273.61,-81.94 275.77,-75.28"/>
</g>
<!-- Node8 -->
<g id="node8" class="node">
<title>Node8</title>
<g id="a_node8"><a xlink:title=" ">
<polygon fill="white" stroke="#bfbfbf" points="953,-0.5 953,-19.5 1003,-19.5 1003,-0.5 953,-0.5"/>
<text text-anchor="middle" x="978" y="-7.5" font-family="Helvetica,sans-Serif" font-size="10.00">ladel.h</text>
</a>
</g>
</g>
<!-- Node7&#45;&gt;Node8 -->
<g id="edge7" class="edge">
<title>Node7&#45;&gt;Node8</title>
<path fill="none" stroke="midnightblue" d="M882.91,-56.44C901.25,-47.68 930.01,-33.94 951.09,-23.86"/>
<polygon fill="midnightblue" stroke="midnightblue" points="952.67,-26.99 960.18,-19.52 949.65,-20.67 952.67,-26.99"/>
</g>
<!-- Node9 -->
<g id="node9" class="node">
<title>Node9</title>
<g id="a_node9"><a xlink:title=" ">
<polygon fill="white" stroke="#bfbfbf" points="839.5,-0.5 839.5,-19.5 890.5,-19.5 890.5,-0.5 839.5,-0.5"/>
<text text-anchor="middle" x="865" y="-7.5" font-family="Helvetica,sans-Serif" font-size="10.00">math.h</text>
</a>
</g>
</g>
<!-- Node7&#45;&gt;Node9 -->
<g id="edge8" class="edge">
<title>Node7&#45;&gt;Node9</title>
<path fill="none" stroke="midnightblue" d="M865,-56.08C865,-49.01 865,-38.86 865,-29.99"/>
<polygon fill="midnightblue" stroke="midnightblue" points="868.5,-29.75 865,-19.75 861.5,-29.75 868.5,-29.75"/>
</g>
<!-- Node14&#45;&gt;Node7 -->
<g id="edge14" class="edge">
<title>Node14&#45;&gt;Node7</title>
<path fill="none" stroke="midnightblue" d="M865,-112.08C865,-105.01 865,-94.86 865,-85.99"/>
<polygon fill="midnightblue" stroke="midnightblue" points="868.5,-85.75 865,-75.75 861.5,-85.75 868.5,-85.75"/>
</g>
<!-- Node14&#45;&gt;Node8 -->
<g id="edge15" class="edge">
<title>Node14&#45;&gt;Node8</title>
<path fill="none" stroke="midnightblue" d="M875.14,-112.23C885.38,-103.3 901.55,-88.97 915,-76 931.87,-59.74 950.45,-40.38 963.03,-27.04"/>
<polygon fill="midnightblue" stroke="midnightblue" points="965.73,-29.28 970.02,-19.59 960.63,-24.49 965.73,-29.28"/>
</g>
<!-- Node16&#45;&gt;Node7 -->
<g id="edge20" class="edge">
<title>Node16&#45;&gt;Node7</title>
<path fill="none" stroke="midnightblue" d="M872.74,-345.04C821.36,-344.12 710.18,-337.51 626,-300 583.84,-281.21 545,-281.16 545,-235 545,-235 545,-235 545,-177 545,-148.36 730.64,-99.54 819.13,-77.89"/>
<polygon fill="midnightblue" stroke="midnightblue" points="820.02,-81.27 828.91,-75.51 818.37,-74.47 820.02,-81.27"/>
</g>
<!-- Node16&#45;&gt;Node14 -->
<g id="edge45" class="edge">
<title>Node16&#45;&gt;Node14</title>
<path fill="none" stroke="midnightblue" d="M872.79,-343.6C818.41,-340.26 702.33,-329.72 678,-300 621.74,-231.25 765.51,-162.58 832.66,-135.29"/>
<polygon fill="midnightblue" stroke="midnightblue" points="833.99,-138.53 841.98,-131.57 831.39,-132.03 833.99,-138.53"/>
</g>
<!-- Node17 -->
<g id="node17" class="node">
<title>Node17</title>
<g id="a_node17"><a xlink:href="constants_8h.html" target="_top" xlink:title="Constants used in QPALM.">
<polygon fill="white" stroke="black" points="1088.5,-112.5 1088.5,-131.5 1161.5,-131.5 1161.5,-112.5 1088.5,-112.5"/>
<text text-anchor="middle" x="1125" y="-119.5" font-family="Helvetica,sans-Serif" font-size="10.00">constants.h</text>
</a>
</g>
</g>
<!-- Node16&#45;&gt;Node17 -->
<g id="edge18" class="edge">
<title>Node16&#45;&gt;Node17</title>
<path fill="none" stroke="midnightblue" d="M929.08,-344.27C1004.27,-340.57 1208.87,-318.43 1274,-188 1295.35,-145.24 1223.26,-130.61 1172.01,-125.6"/>
<polygon fill="midnightblue" stroke="midnightblue" points="1172.02,-122.09 1161.75,-124.7 1171.4,-129.06 1172.02,-122.09"/>
</g>
<!-- Node18 -->
<g id="node18" class="node">
<title>Node18</title>
<g id="a_node18"><a xlink:href="iteration_8h.html" target="_top" xlink:title="QPALM main solver routines.">
<polygon fill="white" stroke="black" points="573.5,-168.5 573.5,-187.5 640.5,-187.5 640.5,-168.5 573.5,-168.5"/>
<text text-anchor="middle" x="607" y="-175.5" font-family="Helvetica,sans-Serif" font-size="10.00">iteration.h</text>
</a>
</g>
</g>
<!-- Node16&#45;&gt;Node18 -->
<g id="edge21" class="edge">
<title>Node16&#45;&gt;Node18</title>
<path fill="none" stroke="midnightblue" d="M872.7,-343.65C813.36,-340.27 678.58,-329.47 645,-300 615.17,-273.82 608.51,-224.52 607.18,-197.64"/>
<polygon fill="midnightblue" stroke="midnightblue" points="610.67,-197.51 606.88,-187.62 603.68,-197.72 610.67,-197.51"/>
</g>
<!-- Node19 -->
<g id="node19" class="node">
<title>Node19</title>
<g id="a_node19"><a xlink:href="lin__alg_8h.html" target="_top" xlink:title="Linear algebra with vectors.">
<polygon fill="white" stroke="black" points="950,-224.5 950,-243.5 1008,-243.5 1008,-224.5 950,-224.5"/>
<text text-anchor="middle" x="979" y="-231.5" font-family="Helvetica,sans-Serif" font-size="10.00">lin_alg.h</text>
</a>
</g>
</g>
<!-- Node16&#45;&gt;Node19 -->
<g id="edge24" class="edge">
<title>Node16&#45;&gt;Node19</title>
<path fill="none" stroke="midnightblue" d="M907.12,-336.37C919.99,-318.22 950.07,-275.8 966.95,-251.99"/>
<polygon fill="midnightblue" stroke="midnightblue" points="969.98,-253.77 972.91,-243.59 964.27,-249.72 969.98,-253.77"/>
</g>
<!-- Node20 -->
<g id="node20" class="node">
<title>Node20</title>
<g id="a_node20"><a xlink:href="solver__interface_8h.html" target="_top" xlink:title="Interface and wrapper to matrix/factorization (ladel) functions.">
<polygon fill="white" stroke="black" points="969,-168.5 969,-187.5 1073,-187.5 1073,-168.5 969,-168.5"/>
<text text-anchor="middle" x="1021" y="-175.5" font-family="Helvetica,sans-Serif" font-size="10.00">solver_interface.h</text>
</a>
</g>
</g>
<!-- Node16&#45;&gt;Node20 -->
<g id="edge42" class="edge">
<title>Node16&#45;&gt;Node20</title>
<path fill="none" stroke="midnightblue" d="M929.02,-340.87C969.16,-334.31 1039.88,-320.17 1055,-300 1078.78,-268.28 1051.68,-220.64 1033.94,-195.65"/>
<polygon fill="midnightblue" stroke="midnightblue" points="1036.7,-193.5 1027.94,-187.54 1031.08,-197.66 1036.7,-193.5"/>
</g>
<!-- Node21 -->
<g id="node21" class="node">
<title>Node21</title>
<g id="a_node21"><a xlink:href="linesearch_8h.html" target="_top" xlink:title="Routines to perform exact linesearch.">
<polygon fill="white" stroke="black" points="1189,-168.5 1189,-187.5 1265,-187.5 1265,-168.5 1189,-168.5"/>
<text text-anchor="middle" x="1227" y="-175.5" font-family="Helvetica,sans-Serif" font-size="10.00">linesearch.h</text>
</a>
</g>
</g>
<!-- Node16&#45;&gt;Node21 -->
<g id="edge31" class="edge">
<title>Node16&#45;&gt;Node21</title>
<path fill="none" stroke="midnightblue" d="M929.21,-343.12C968.79,-339.5 1042.1,-329.12 1097,-300 1147.41,-273.26 1192.88,-221.94 1214.2,-195.56"/>
<polygon fill="midnightblue" stroke="midnightblue" points="1217.01,-197.65 1220.48,-187.64 1211.53,-193.3 1217.01,-197.65"/>
</g>
<!-- Node22 -->
<g id="node22" class="node">
<title>Node22</title>
<g id="a_node22"><a xlink:href="newton_8h.html" target="_top" xlink:title="Functions to calculate the semismooth Newton direction.">
<polygon fill="white" stroke="black" points="773,-224.5 773,-243.5 835,-243.5 835,-224.5 773,-224.5"/>
<text text-anchor="middle" x="804" y="-231.5" font-family="Helvetica,sans-Serif" font-size="10.00">newton.h</text>
</a>
</g>
</g>
<!-- Node16&#45;&gt;Node22 -->
<g id="edge34" class="edge">
<title>Node16&#45;&gt;Node22</title>
<path fill="none" stroke="midnightblue" d="M897.26,-336.31C891.32,-323.16 878.76,-297.82 863,-280 852.53,-268.16 838.54,-257.33 826.81,-249.26"/>
<polygon fill="midnightblue" stroke="midnightblue" points="828.64,-246.28 818.38,-243.66 824.77,-252.11 828.64,-246.28"/>
</g>
<!-- Node23 -->
<g id="node23" class="node">
<title>Node23</title>
<g id="a_node23"><a xlink:href="nonconvex_8h.html" target="_top" xlink:title="Routines to deal with nonconvex QPs.">
<polygon fill="white" stroke="black" points="853.5,-224.5 853.5,-243.5 932.5,-243.5 932.5,-224.5 853.5,-224.5"/>
<text text-anchor="middle" x="893" y="-231.5" font-family="Helvetica,sans-Serif" font-size="10.00">nonconvex.h</text>
</a>
</g>
</g>
<!-- Node16&#45;&gt;Node23 -->
<g id="edge36" class="edge">
<title>Node16&#45;&gt;Node23</title>
<path fill="none" stroke="midnightblue" d="M900.37,-336.37C899.08,-318.62 896.1,-277.67 894.35,-253.6"/>
<polygon fill="midnightblue" stroke="midnightblue" points="897.84,-253.31 893.62,-243.59 890.86,-253.82 897.84,-253.31"/>
</g>
<!-- Node24 -->
<g id="node24" class="node">
<title>Node24</title>
<g id="a_node24"><a xlink:href="scaling_8h.html" target="_top" xlink:title="Problem data scaling during setup.">
<polygon fill="white" stroke="black" points="986,-280.5 986,-299.5 1046,-299.5 1046,-280.5 986,-280.5"/>
<text text-anchor="middle" x="1016" y="-287.5" font-family="Helvetica,sans-Serif" font-size="10.00">scaling.h</text>
</a>
</g>
</g>
<!-- Node16&#45;&gt;Node24 -->
<g id="edge38" class="edge">
<title>Node16&#45;&gt;Node24</title>
<path fill="none" stroke="midnightblue" d="M919.22,-336.44C937.9,-327.68 967.16,-313.94 988.62,-303.86"/>
<polygon fill="midnightblue" stroke="midnightblue" points="990.3,-306.93 997.86,-299.52 987.32,-300.6 990.3,-306.93"/>
</g>
<!-- Node25 -->
<g id="node25" class="node">
<title>Node25</title>
<g id="a_node25"><a xlink:href="termination_8h.html" target="_top" xlink:title="Routines to check the termination and infeasibility criteria.">
<polygon fill="white" stroke="black" points="687.5,-280.5 687.5,-299.5 770.5,-299.5 770.5,-280.5 687.5,-280.5"/>
<text text-anchor="middle" x="729" y="-287.5" font-family="Helvetica,sans-Serif" font-size="10.00">termination.h</text>
</a>
</g>
</g>
<!-- Node16&#45;&gt;Node25 -->
<g id="edge43" class="edge">
<title>Node16&#45;&gt;Node25</title>
<path fill="none" stroke="midnightblue" d="M873.75,-336.44C844.56,-327.28 798.08,-312.69 765.69,-302.52"/>
<polygon fill="midnightblue" stroke="midnightblue" points="766.72,-299.17 756.13,-299.52 764.62,-305.85 766.72,-299.17"/>
</g>
<!-- Node26 -->
<g id="node26" class="node">
<title>Node26</title>
<g id="a_node26"><a xlink:href="util_8h.html" target="_top" xlink:title="Utility functions.">
<polygon fill="white" stroke="black" points="1129.5,-168.5 1129.5,-187.5 1170.5,-187.5 1170.5,-168.5 1129.5,-168.5"/>
<text text-anchor="middle" x="1150" y="-175.5" font-family="Helvetica,sans-Serif" font-size="10.00">util.h</text>
</a>
</g>
</g>
<!-- Node16&#45;&gt;Node26 -->
<g id="edge46" class="edge">
<title>Node16&#45;&gt;Node26</title>
<path fill="none" stroke="midnightblue" d="M929.28,-343.85C965.74,-341.06 1029.6,-331.64 1073,-300 1109.43,-273.44 1132.84,-223.93 1143.43,-197.21"/>
<polygon fill="midnightblue" stroke="midnightblue" points="1146.81,-198.18 1147.08,-187.59 1140.26,-195.7 1146.81,-198.18"/>
</g>
<!-- Node27 -->
<g id="node27" class="node">
<title>Node27</title>
<g id="a_node27"><a xlink:href="validate_8h.html" target="_top" xlink:title="Validation of the user provided settings and data.">
<polygon fill="white" stroke="black" points="788.5,-280.5 788.5,-299.5 853.5,-299.5 853.5,-280.5 788.5,-280.5"/>
<text text-anchor="middle" x="821" y="-287.5" font-family="Helvetica,sans-Serif" font-size="10.00">validate.h</text>
</a>
</g>
</g>
<!-- Node16&#45;&gt;Node27 -->
<g id="edge49" class="edge">
<title>Node16&#45;&gt;Node27</title>
<path fill="none" stroke="midnightblue" d="M888.15,-336.32C875.78,-327.98 856.87,-315.21 842.26,-305.35"/>
<polygon fill="midnightblue" stroke="midnightblue" points="844.07,-302.35 833.82,-299.65 840.15,-308.15 844.07,-302.35"/>
</g>
<!-- Node17&#45;&gt;Node8 -->
<g id="edge19" class="edge">
<title>Node17&#45;&gt;Node8</title>
<path fill="none" stroke="midnightblue" d="M1113.47,-112.37C1088.45,-93.65 1028.98,-49.15 997.82,-25.83"/>
<polygon fill="midnightblue" stroke="midnightblue" points="999.58,-22.78 989.48,-19.59 995.39,-28.39 999.58,-22.78"/>
</g>
<!-- Node18&#45;&gt;Node7 -->
<g id="edge23" class="edge">
<title>Node18&#45;&gt;Node7</title>
<path fill="none" stroke="midnightblue" d="M627.24,-168.37C672.55,-149.05 782.3,-102.26 835.33,-79.65"/>
<polygon fill="midnightblue" stroke="midnightblue" points="837.02,-82.73 844.85,-75.59 834.28,-76.29 837.02,-82.73"/>
</g>
<!-- Node18&#45;&gt;Node14 -->
<g id="edge22" class="edge">
<title>Node18&#45;&gt;Node14</title>
<path fill="none" stroke="midnightblue" d="M640.73,-169.94C689.19,-159.8 778.17,-141.17 828.25,-130.69"/>
<polygon fill="midnightblue" stroke="midnightblue" points="829.25,-134.06 838.32,-128.59 827.81,-127.21 829.25,-134.06"/>
</g>
<!-- Node19&#45;&gt;Node14 -->
<g id="edge25" class="edge">
<title>Node19&#45;&gt;Node14</title>
<path fill="none" stroke="midnightblue" d="M968.38,-224.32C957.69,-215.46 940.83,-201.18 927,-188 910.17,-171.97 891.92,-152.57 879.61,-139.16"/>
<polygon fill="midnightblue" stroke="midnightblue" points="882.1,-136.7 872.77,-131.67 876.93,-141.41 882.1,-136.7"/>
</g>
<!-- Node19&#45;&gt;Node20 -->
<g id="edge26" class="edge">
<title>Node19&#45;&gt;Node20</title>
<path fill="none" stroke="midnightblue" d="M985.94,-224.08C991.93,-216.38 1000.75,-205.03 1008.05,-195.65"/>
<polygon fill="midnightblue" stroke="midnightblue" points="1010.82,-197.79 1014.19,-187.75 1005.29,-193.5 1010.82,-197.79"/>
</g>
<!-- Node20&#45;&gt;Node7 -->
<g id="edge27" class="edge">
<title>Node20&#45;&gt;Node7</title>
<path fill="none" stroke="midnightblue" d="M1008.76,-168.37C982.1,-149.57 918.56,-104.77 885.61,-81.53"/>
<polygon fill="midnightblue" stroke="midnightblue" points="887.37,-78.49 877.18,-75.59 883.34,-84.21 887.37,-78.49"/>
</g>
<!-- Node20&#45;&gt;Node8 -->
<g id="edge30" class="edge">
<title>Node20&#45;&gt;Node8</title>
<path fill="none" stroke="midnightblue" d="M1018.69,-168.08C1011.92,-141.95 992.04,-65.21 982.81,-29.58"/>
<polygon fill="midnightblue" stroke="midnightblue" points="986.12,-28.37 980.22,-19.57 979.34,-30.13 986.12,-28.37"/>
</g>
<!-- Node20&#45;&gt;Node14 -->
<g id="edge29" class="edge">
<title>Node20&#45;&gt;Node14</title>
<path fill="none" stroke="midnightblue" d="M996.28,-168.44C970.15,-159.4 928.74,-145.06 899.42,-134.92"/>
<polygon fill="midnightblue" stroke="midnightblue" points="900.2,-131.48 889.6,-131.52 897.91,-138.1 900.2,-131.48"/>
</g>
<!-- Node20&#45;&gt;Node17 -->
<g id="edge28" class="edge">
<title>Node20&#45;&gt;Node17</title>
<path fill="none" stroke="midnightblue" d="M1037.71,-168.32C1054.31,-159.7 1080,-146.36 1099.22,-136.39"/>
<polygon fill="midnightblue" stroke="midnightblue" points="1101.07,-139.37 1108.33,-131.65 1097.84,-133.16 1101.07,-139.37"/>
</g>
<!-- Node21&#45;&gt;Node14 -->
<g id="edge32" class="edge">
<title>Node21&#45;&gt;Node14</title>
<path fill="none" stroke="midnightblue" d="M1188.81,-169.53C1185.83,-169 1182.87,-168.48 1180,-168 1079.51,-151.21 960.32,-135.26 901.53,-127.65"/>
<polygon fill="midnightblue" stroke="midnightblue" points="901.98,-124.18 891.62,-126.37 901.09,-131.12 901.98,-124.18"/>
</g>
<!-- Node21&#45;&gt;Node17 -->
<g id="edge33" class="edge">
<title>Node21&#45;&gt;Node17</title>
<path fill="none" stroke="midnightblue" d="M1210.61,-168.32C1194.33,-159.7 1169.13,-146.36 1150.28,-136.39"/>
<polygon fill="midnightblue" stroke="midnightblue" points="1151.82,-133.24 1141.35,-131.65 1148.55,-139.43 1151.82,-133.24"/>
</g>
<!-- Node22&#45;&gt;Node14 -->
<g id="edge35" class="edge">
<title>Node22&#45;&gt;Node14</title>
<path fill="none" stroke="midnightblue" d="M808.79,-224.37C818.76,-206.38 841.96,-164.55 855.23,-140.63"/>
<polygon fill="midnightblue" stroke="midnightblue" points="858.45,-142.03 860.24,-131.59 852.33,-138.64 858.45,-142.03"/>
</g>
<!-- Node23&#45;&gt;Node14 -->
<g id="edge37" class="edge">
<title>Node23&#45;&gt;Node14</title>
<path fill="none" stroke="midnightblue" d="M890.8,-224.37C886.28,-206.62 875.86,-165.67 869.73,-141.6"/>
<polygon fill="midnightblue" stroke="midnightblue" points="873.05,-140.42 867.19,-131.59 866.26,-142.15 873.05,-140.42"/>
</g>
<!-- Node24&#45;&gt;Node14 -->
<g id="edge39" class="edge">
<title>Node24&#45;&gt;Node14</title>
<path fill="none" stroke="midnightblue" d="M1018.69,-280.36C1022.23,-267.25 1026.92,-241.99 1017,-224 1002.54,-197.76 985.04,-204.46 960,-188 934.05,-170.94 904.6,-150.64 885.46,-137.32"/>
<polygon fill="midnightblue" stroke="midnightblue" points="887.4,-134.41 877.2,-131.56 883.4,-140.15 887.4,-134.41"/>
</g>
<!-- Node24&#45;&gt;Node17 -->
<g id="edge41" class="edge">
<title>Node24&#45;&gt;Node17</title>
<path fill="none" stroke="midnightblue" d="M1023.02,-280.21C1030.07,-271.27 1041.14,-256.92 1050,-244 1074.58,-208.15 1100.78,-164.45 1114.78,-140.6"/>
<polygon fill="midnightblue" stroke="midnightblue" points="1117.97,-142.08 1119.99,-131.68 1111.93,-138.55 1117.97,-142.08"/>
</g>
<!-- Node24&#45;&gt;Node19 -->
<g id="edge40" class="edge">
<title>Node24&#45;&gt;Node19</title>
<path fill="none" stroke="midnightblue" d="M1009.89,-280.08C1004.72,-272.53 997.15,-261.49 990.81,-252.23"/>
<polygon fill="midnightblue" stroke="midnightblue" points="993.54,-250.02 985,-243.75 987.76,-253.98 993.54,-250.02"/>
</g>
<!-- Node25&#45;&gt;Node14 -->
<g id="edge44" class="edge">
<title>Node25&#45;&gt;Node14</title>
<path fill="none" stroke="midnightblue" d="M730.81,-280.29C735.69,-258.76 750.95,-202.28 783,-168 796.26,-153.82 815.01,-143.07 831.24,-135.64"/>
<polygon fill="midnightblue" stroke="midnightblue" points="832.66,-138.84 840.44,-131.65 829.88,-132.42 832.66,-138.84"/>
</g>
<!-- Node26&#45;&gt;Node14 -->
<g id="edge47" class="edge">
<title>Node26&#45;&gt;Node14</title>
<path fill="none" stroke="midnightblue" d="M1129.04,-173.03C1080.92,-163.91 962.02,-141.38 901.56,-129.93"/>
<polygon fill="midnightblue" stroke="midnightblue" points="902.16,-126.48 891.68,-128.06 900.85,-133.36 902.16,-126.48"/>
</g>
<!-- Node26&#45;&gt;Node17 -->
<g id="edge48" class="edge">
<title>Node26&#45;&gt;Node17</title>
<path fill="none" stroke="midnightblue" d="M1145.87,-168.08C1142.49,-160.77 1137.58,-150.18 1133.38,-141.1"/>
<polygon fill="midnightblue" stroke="midnightblue" points="1136.43,-139.36 1129.05,-131.75 1130.08,-142.3 1136.43,-139.36"/>
</g>
<!-- Node27&#45;&gt;Node14 -->
<g id="edge50" class="edge">
<title>Node27&#45;&gt;Node14</title>
<path fill="none" stroke="midnightblue" d="M802.92,-280.39C789.44,-272.87 772.03,-260.57 764,-244 760.12,-236 760.6,-232.21 764,-224 779.8,-185.84 817.79,-154.59 842.41,-137.4"/>
<polygon fill="midnightblue" stroke="midnightblue" points="844.49,-140.22 850.81,-131.72 840.57,-134.42 844.49,-140.22"/>
</g>
</g>
</svg>
        <g id="navigator" transform="translate(0 0)" fill="#404254">
                <rect fill="#f2f5e9" fill-opacity="0.5" stroke="#606060" stroke-width=".5" x="0" y="0" width="60" height="60"/>
                <use id="zoomplus" xlink:href="#zoomPlus" x="17" y="9" onmousedown="handleZoom(evt,'in')"/>
                <use id="zoomminus" xlink:href="#zoomMin" x="42" y="9" onmousedown="handleZoom(evt,'out')"/>
                <use id="reset" xlink:href="#resetDef" x="30" y="36" onmousedown="handleReset()"/>
                <g id="arrowUp" xlink:href="#dirArrow" transform="translate(30 24)" onmousedown="handlePan(0,-1)">
                  <use xlink:href="#rim" fill="#404040">
                        <set attributeName="fill" to="#808080" begin="arrowUp.mouseover" end="arrowUp.mouseout"/>
                  </use>
                  <path fill="none" stroke="white" stroke-width="1.5" d="M0,-3.0v7 M-2.5,-0.5L0,-3.0L2.5,-0.5"/>
                </g>
                <g id="arrowRight" xlink:href="#dirArrow" transform="rotate(90) translate(36 -43)" onmousedown="handlePan(1,0)">
                  <use xlink:href="#rim" fill="#404040">
                        <set attributeName="fill" to="#808080" begin="arrowRight.mouseover" end="arrowRight.mouseout"/>
                  </use>
                  <path fill="none" stroke="white" stroke-width="1.5" d="M0,-3.0v7 M-2.5,-0.5L0,-3.0L2.5,-0.5"/>
                </g>
                <g id="arrowDown" xlink:href="#dirArrow" transform="rotate(180) translate(-30 -48)" onmousedown="handlePan(0,1)">
                  <use xlink:href="#rim" fill="#404040">
                        <set attributeName="fill" to="#808080" begin="arrowDown.mouseover" end="arrowDown.mouseout"/>
                  </use>
                  <path fill="none" stroke="white" stroke-width="1.5" d="M0,-3.0v7 M-2.5,-0.5L0,-3.0L2.5,-0.5"/>
                </g>
                <g id="arrowLeft" xlink:href="#dirArrow" transform="rotate(270) translate(-36 17)" onmousedown="handlePan(-1,0)">
                  <use xlink:href="#rim" fill="#404040">
                        <set attributeName="fill" to="#808080" begin="arrowLeft.mouseover" end="arrowLeft.mouseout"/>
                  </use>
                  <path fill="none" stroke="white" stroke-width="1.5" d="M0,-3.0v7 M-2.5,-0.5L0,-3.0L2.5,-0.5"/>
                </g>
        </g>
        <svg viewBox="0 0 15 15" width="100%" height="30px" preserveAspectRatio="xMaxYMin meet">
         <g id="arrow_out" transform="scale(0.3 0.3)">
          <a xlink:href="qpalm_8cpp__incl_org.svg" target="_base">
           <rect id="button" ry="5" rx="5" y="6" x="6" height="38" width="38"
                fill="#f2f5e9" fill-opacity="0.5" stroke="#606060" stroke-width="1.0"/>
           <path id="arrow"
             d="M 11.500037,31.436501 C 11.940474,20.09759 22.043105,11.32322 32.158766,21.979434 L 37.068811,17.246167 C 37.068811,17.246167 37.088388,32 37.088388,32 L 22.160133,31.978069 C 22.160133,31.978069 26.997745,27.140456 26.997745,27.140456 C 18.528582,18.264221 13.291696,25.230495 11.500037,31.436501 z"
             style="fill:#404040;"/>
          </a>
         </g>
        </svg>
</svg>
