<?xml version="1.0" encoding="UTF-8" standalone="no"?>
<!DOCTYPE svg PUBLIC "-//W3C//DTD SVG 1.1//EN"
 "http://www.w3.org/Graphics/SVG/1.1/DTD/svg11.dtd">
<!-- Generated by graphviz version 2.43.0 (0)
 -->
<!-- Title: qpalm_fortran_c Pages: 1 -->
<svg width="523pt" height="534pt"
 viewBox="0.00 0.00 523.00 534.00" xmlns="http://www.w3.org/2000/svg" xmlns:xlink="http://www.w3.org/1999/xlink">
<g id="graph0" class="graph" transform="scale(1 1) rotate(0) translate(4 530)">
<title>qpalm_fortran_c</title>
<polygon fill="white" stroke="transparent" points="-4,4 -4,-530 519,-530 519,4 -4,4"/>
<!-- Node1 -->
<g id="node1" class="node">
<title>Node1</title>
<g id="a_node1"><a xlink:title=" ">
<polygon fill="#bfbfbf" stroke="black" points="0,-430.5 0,-449.5 96,-449.5 96,-430.5 0,-430.5"/>
<text text-anchor="middle" x="48" y="-437.5" font-family="Helvetica,sans-Serif" font-size="10.00">qpalm_fortran_c</text>
</a>
</g>
</g>
<!-- Node2 -->
<g id="node2" class="node">
<title>Node2</title>
<g id="a_node2"><a xlink:href="group__solver-grp.html#ga95ac68ad137ef5e10acdab6819e4bcd9" target="_top" xlink:title="Cleanup the workspace by deallocating memory.">
<polygon fill="white" stroke="black" points="132,-506.5 132,-525.5 223,-525.5 223,-506.5 132,-506.5"/>
<text text-anchor="middle" x="177.5" y="-513.5" font-family="Helvetica,sans-Serif" font-size="10.00">qpalm_cleanup</text>
</a>
</g>
</g>
<!-- Node1&#45;&gt;Node2 -->
<g id="edge1" class="edge">
<title>Node1&#45;&gt;Node2</title>
<path fill="none" stroke="midnightblue" d="M63.82,-449.69C80.28,-460.36 107.75,-477.89 132,-492 137.44,-495.17 143.33,-498.45 148.99,-501.52"/>
<polygon fill="midnightblue" stroke="midnightblue" points="147.7,-504.8 158.16,-506.46 151.01,-498.64 147.7,-504.8"/>
</g>
<!-- Node3 -->
<g id="node3" class="node">
<title>Node3</title>
<g id="a_node3"><a xlink:href="global__opts_8c.html#a057129daf1349d96b074b9dca1994d09" target="_top" xlink:title=" ">
<polygon fill="white" stroke="black" points="290,-487.5 290,-506.5 362,-506.5 362,-487.5 290,-487.5"/>
<text text-anchor="middle" x="326" y="-494.5" font-family="Helvetica,sans-Serif" font-size="10.00">qpalm_free</text>
</a>
</g>
</g>
<!-- Node1&#45;&gt;Node3 -->
<g id="edge3" class="edge">
<title>Node1&#45;&gt;Node3</title>
<path fill="none" stroke="midnightblue" d="M95.2,-449.54C146.45,-460.13 228.62,-477.1 279.57,-487.62"/>
<polygon fill="midnightblue" stroke="midnightblue" points="279.13,-491.1 289.63,-489.7 280.55,-484.25 279.13,-491.1"/>
</g>
<!-- Node4 -->
<g id="node4" class="node">
<title>Node4</title>
<g id="a_node4"><a xlink:href="global__opts_8c.html#a9a15c13f16dd6467bcee00e8bf62666a" target="_top" xlink:title=" ">
<polygon fill="white" stroke="black" points="429,-354.5 429,-373.5 515,-373.5 515,-354.5 429,-354.5"/>
<text text-anchor="middle" x="472" y="-361.5" font-family="Helvetica,sans-Serif" font-size="10.00">qpalm_malloc</text>
</a>
</g>
</g>
<!-- Node1&#45;&gt;Node4 -->
<g id="edge4" class="edge">
<title>Node1&#45;&gt;Node4</title>
<path fill="none" stroke="midnightblue" d="M96.28,-445.65C164.16,-451.96 292.18,-457.02 393,-421 416.72,-412.53 439.46,-394.38 454.2,-380.82"/>
<polygon fill="midnightblue" stroke="midnightblue" points="456.69,-383.28 461.52,-373.85 451.86,-378.21 456.69,-383.28"/>
</g>
<!-- Node5 -->
<g id="node5" class="node">
<title>Node5</title>
<g id="a_node5"><a xlink:href="group__solver-grp.html#gaaff827465b1299909f394de8771baef9" target="_top" xlink:title="Initialize QPALM solver allocating memory.">
<polygon fill="white" stroke="black" points="137.5,-240.5 137.5,-259.5 217.5,-259.5 217.5,-240.5 137.5,-240.5"/>
<text text-anchor="middle" x="177.5" y="-247.5" font-family="Helvetica,sans-Serif" font-size="10.00">qpalm_setup</text>
</a>
</g>
</g>
<!-- Node1&#45;&gt;Node5 -->
<g id="edge5" class="edge">
<title>Node1&#45;&gt;Node5</title>
<path fill="none" stroke="midnightblue" d="M55.5,-430.32C75.7,-400.21 137.64,-307.92 164.2,-268.34"/>
<polygon fill="midnightblue" stroke="midnightblue" points="167.2,-270.15 169.86,-259.89 161.38,-266.25 167.2,-270.15"/>
</g>
<!-- Node17 -->
<g id="node17" class="node">
<title>Node17</title>
<g id="a_node17"><a xlink:href="group__solver-grp.html#ga9bbc8b47dfd2e86a81dd77feb4077bde" target="_top" xlink:title="Solve the quadratic program.">
<polygon fill="white" stroke="black" points="138,-202.5 138,-221.5 217,-221.5 217,-202.5 138,-202.5"/>
<text text-anchor="middle" x="177.5" y="-209.5" font-family="Helvetica,sans-Serif" font-size="10.00">qpalm_solve</text>
</a>
</g>
</g>
<!-- Node1&#45;&gt;Node17 -->
<g id="edge20" class="edge">
<title>Node1&#45;&gt;Node17</title>
<path fill="none" stroke="midnightblue" d="M50.2,-430.26C54.69,-397.67 73.41,-291.11 132,-231 133.41,-229.56 134.94,-228.22 136.57,-226.97"/>
<polygon fill="midnightblue" stroke="midnightblue" points="138.65,-229.8 145.29,-221.53 134.95,-223.86 138.65,-229.8"/>
</g>
<!-- Node2&#45;&gt;Node3 -->
<g id="edge2" class="edge">
<title>Node2&#45;&gt;Node3</title>
<path fill="none" stroke="midnightblue" d="M223.25,-510.2C241.2,-507.87 261.86,-505.19 279.85,-502.86"/>
<polygon fill="midnightblue" stroke="midnightblue" points="280.34,-506.32 289.81,-501.56 279.44,-499.38 280.34,-506.32"/>
</g>
<!-- Node5&#45;&gt;Node4 -->
<g id="edge9" class="edge">
<title>Node5&#45;&gt;Node4</title>
<path fill="none" stroke="midnightblue" d="M189.43,-259.68C204.22,-272.3 231.88,-294.25 259,-307 273.85,-313.98 364.61,-337.35 422.46,-351.91"/>
<polygon fill="midnightblue" stroke="midnightblue" points="421.95,-355.39 432.5,-354.43 423.65,-348.6 421.95,-355.39"/>
</g>
<!-- Node6 -->
<g id="node6" class="node">
<title>Node6</title>
<g id="a_node6"><a xlink:href="util_8c.html#a14436938f89e6b14f819c58af7d9f0fe" target="_top" xlink:title="Copy settings creating a new settings structure.">
<polygon fill="white" stroke="black" points="284,-278.5 284,-297.5 368,-297.5 368,-278.5 284,-278.5"/>
<text text-anchor="middle" x="326" y="-285.5" font-family="Helvetica,sans-Serif" font-size="10.00">copy_settings</text>
</a>
</g>
</g>
<!-- Node5&#45;&gt;Node6 -->
<g id="edge6" class="edge">
<title>Node5&#45;&gt;Node6</title>
<path fill="none" stroke="midnightblue" d="M215.47,-259.59C234.63,-264.56 258.21,-270.68 278.59,-275.96"/>
<polygon fill="midnightblue" stroke="midnightblue" points="277.74,-279.36 288.3,-278.48 279.5,-272.58 277.74,-279.36"/>
</g>
<!-- Node7 -->
<g id="node7" class="node">
<title>Node7</title>
<g id="a_node7"><a xlink:href="global__opts_8c.html#aa314b2eeaa0227e26c26bae34424f36f" target="_top" xlink:title=" ">
<polygon fill="white" stroke="black" points="285.5,-240.5 285.5,-259.5 366.5,-259.5 366.5,-240.5 285.5,-240.5"/>
<text text-anchor="middle" x="326" y="-247.5" font-family="Helvetica,sans-Serif" font-size="10.00">qpalm_calloc</text>
</a>
</g>
</g>
<!-- Node5&#45;&gt;Node7 -->
<g id="edge8" class="edge">
<title>Node5&#45;&gt;Node7</title>
<path fill="none" stroke="midnightblue" d="M217.76,-250C235.42,-250 256.48,-250 275.23,-250"/>
<polygon fill="midnightblue" stroke="midnightblue" points="275.38,-253.5 285.38,-250 275.38,-246.5 275.38,-253.5"/>
</g>
<!-- Node8 -->
<g id="node8" class="node">
<title>Node8</title>
<g id="a_node8"><a xlink:href="solver__interface_8c.html#a5b96b0c905b3ac7ef76d6b780d462ec7" target="_top" xlink:title="Choose the linear systems solver method based on the problem data sizes.">
<polygon fill="white" stroke="black" points="259,-191 259,-221 393,-221 393,-191 259,-191"/>
<text text-anchor="start" x="267" y="-209" font-family="Helvetica,sans-Serif" font-size="10.00">qpalm_set_factorization</text>
<text text-anchor="middle" x="326" y="-198" font-family="Helvetica,sans-Serif" font-size="10.00">_method</text>
</a>
</g>
</g>
<!-- Node5&#45;&gt;Node8 -->
<g id="edge10" class="edge">
<title>Node5&#45;&gt;Node8</title>
<path fill="none" stroke="midnightblue" d="M210.29,-240.45C226.34,-235.63 246.35,-229.62 265.15,-223.98"/>
<polygon fill="midnightblue" stroke="midnightblue" points="266.27,-227.29 274.84,-221.07 264.26,-220.59 266.27,-227.29"/>
</g>
<!-- Node9 -->
<g id="node9" class="node">
<title>Node9</title>
<g id="a_node9"><a xlink:href="util_8h.html#aae57226ec767e15f27d88e97df093b41" target="_top" xlink:title="Start timer.">
<polygon fill="white" stroke="black" points="293.5,-152.5 293.5,-171.5 358.5,-171.5 358.5,-152.5 293.5,-152.5"/>
<text text-anchor="middle" x="326" y="-159.5" font-family="Helvetica,sans-Serif" font-size="10.00">qpalm_tic</text>
</a>
</g>
</g>
<!-- Node5&#45;&gt;Node9 -->
<g id="edge11" class="edge">
<title>Node5&#45;&gt;Node9</title>
<path fill="none" stroke="midnightblue" d="M207.57,-240.31C213,-237.76 218.41,-234.68 223,-231 244.38,-213.89 236.61,-196.77 259,-181 266.22,-175.92 274.78,-172.19 283.31,-169.45"/>
<polygon fill="midnightblue" stroke="midnightblue" points="284.53,-172.74 293.22,-166.67 282.64,-166 284.53,-172.74"/>
</g>
<!-- Node10 -->
<g id="node10" class="node">
<title>Node10</title>
<g id="a_node10"><a xlink:href="util_8h.html#a6eecdaf6f3f1c4bf0ab1067a5e7e69da" target="_top" xlink:title="Report time in seconds since last call to qpalm_tic.">
<polygon fill="white" stroke="black" points="292,-114.5 292,-133.5 360,-133.5 360,-114.5 292,-114.5"/>
<text text-anchor="middle" x="326" y="-121.5" font-family="Helvetica,sans-Serif" font-size="10.00">qpalm_toc</text>
</a>
</g>
</g>
<!-- Node5&#45;&gt;Node10 -->
<g id="edge12" class="edge">
<title>Node5&#45;&gt;Node10</title>
<path fill="none" stroke="midnightblue" d="M209.68,-240.43C214.56,-237.93 219.23,-234.83 223,-231 252.65,-200.89 227.55,-171.22 259,-143 265.51,-137.16 273.7,-133.11 282.08,-130.3"/>
<polygon fill="midnightblue" stroke="midnightblue" points="283.23,-133.61 291.91,-127.54 281.34,-126.87 283.23,-133.61"/>
</g>
<!-- Node11 -->
<g id="node11" class="node">
<title>Node11</title>
<g id="a_node11"><a xlink:href="util_8c.html#a14fe651105f1f38b2a3a49614f4b8ae2" target="_top" xlink:title="Update solver status (value and string).">
<polygon fill="white" stroke="black" points="283,-76.5 283,-95.5 369,-95.5 369,-76.5 283,-76.5"/>
<text text-anchor="middle" x="326" y="-83.5" font-family="Helvetica,sans-Serif" font-size="10.00">update_status</text>
</a>
</g>
</g>
<!-- Node5&#45;&gt;Node11 -->
<g id="edge13" class="edge">
<title>Node5&#45;&gt;Node11</title>
<path fill="none" stroke="midnightblue" d="M210.95,-240.29C215.45,-237.83 219.67,-234.78 223,-231 261.52,-187.32 217.86,-146.22 259,-105 263.15,-100.84 268.16,-97.57 273.53,-95.02"/>
<polygon fill="midnightblue" stroke="midnightblue" points="274.82,-98.27 282.83,-91.35 272.25,-91.76 274.82,-98.27"/>
</g>
<!-- Node13 -->
<g id="node13" class="node">
<title>Node13</title>
<g id="a_node13"><a xlink:href="validate_8c.html#a095cca2f68e07f3b0ebd35a2f4a12d9b" target="_top" xlink:title="Validate problem data.">
<polygon fill="white" stroke="black" points="284.5,-38.5 284.5,-57.5 367.5,-57.5 367.5,-38.5 284.5,-38.5"/>
<text text-anchor="middle" x="326" y="-45.5" font-family="Helvetica,sans-Serif" font-size="10.00">validate_data</text>
</a>
</g>
</g>
<!-- Node5&#45;&gt;Node13 -->
<g id="edge15" class="edge">
<title>Node5&#45;&gt;Node13</title>
<path fill="none" stroke="midnightblue" d="M211.16,-240.47C215.63,-237.99 219.79,-234.88 223,-231 270.6,-173.53 207.95,-121.43 259,-67 263.39,-62.32 268.85,-58.77 274.74,-56.08"/>
<polygon fill="midnightblue" stroke="midnightblue" points="276.11,-59.3 284.25,-52.52 273.65,-52.74 276.11,-59.3"/>
</g>
<!-- Node14 -->
<g id="node14" class="node">
<title>Node14</title>
<g id="a_node14"><a xlink:href="validate_8c.html#aa3fa0338cebc63078430fed1211df147" target="_top" xlink:title="Validate problem settings.">
<polygon fill="white" stroke="black" points="275.5,-0.5 275.5,-19.5 376.5,-19.5 376.5,-0.5 275.5,-0.5"/>
<text text-anchor="middle" x="326" y="-7.5" font-family="Helvetica,sans-Serif" font-size="10.00">validate_settings</text>
</a>
</g>
</g>
<!-- Node5&#45;&gt;Node14 -->
<g id="edge16" class="edge">
<title>Node5&#45;&gt;Node14</title>
<path fill="none" stroke="midnightblue" d="M211.74,-240.33C216.02,-237.87 219.97,-234.81 223,-231 279.76,-159.62 197.95,-96.75 259,-29 261.23,-26.52 263.77,-24.35 266.51,-22.47"/>
<polygon fill="midnightblue" stroke="midnightblue" points="268.24,-25.51 275.28,-17.59 264.84,-19.39 268.24,-25.51"/>
</g>
<!-- Node15 -->
<g id="node15" class="node">
<title>Node15</title>
<g id="a_node15"><a xlink:href="lin__alg_8c.html#a256ef6c2562ed296f3c1bd23bc712f25" target="_top" xlink:title="Copy vector a into output.">
<polygon fill="white" stroke="black" points="295,-392.5 295,-411.5 357,-411.5 357,-392.5 295,-392.5"/>
<text text-anchor="middle" x="326" y="-399.5" font-family="Helvetica,sans-Serif" font-size="10.00">vec_copy</text>
</a>
</g>
</g>
<!-- Node5&#45;&gt;Node15 -->
<g id="edge17" class="edge">
<title>Node5&#45;&gt;Node15</title>
<path fill="none" stroke="midnightblue" d="M181.58,-259.73C189.87,-284.31 215.07,-349.36 259,-383 266.58,-388.8 275.87,-392.83 285.06,-395.63"/>
<polygon fill="midnightblue" stroke="midnightblue" points="284.35,-399.07 294.91,-398.22 286.13,-392.29 284.35,-399.07"/>
</g>
<!-- Node16 -->
<g id="node16" class="node">
<title>Node16</title>
<g id="a_node16"><a xlink:href="lin__alg_8c.html#a7e2e62d3c501d9f6df8410658c73a1ad" target="_top" xlink:title="Fill int vector with a scalar value.">
<polygon fill="white" stroke="black" points="272.5,-354.5 272.5,-373.5 379.5,-373.5 379.5,-354.5 272.5,-354.5"/>
<text text-anchor="middle" x="326" y="-361.5" font-family="Helvetica,sans-Serif" font-size="10.00">vec_set_scalar_int</text>
</a>
</g>
</g>
<!-- Node5&#45;&gt;Node16 -->
<g id="edge19" class="edge">
<title>Node5&#45;&gt;Node16</title>
<path fill="none" stroke="midnightblue" d="M184.64,-259.55C196.75,-277.69 225.49,-317.33 259,-340 265.18,-344.18 272.17,-347.73 279.24,-350.72"/>
<polygon fill="midnightblue" stroke="midnightblue" points="278.27,-354.1 288.86,-354.45 280.8,-347.57 278.27,-354.1"/>
</g>
<!-- Node6&#45;&gt;Node4 -->
<g id="edge7" class="edge">
<title>Node6&#45;&gt;Node4</title>
<path fill="none" stroke="midnightblue" d="M357.87,-297.51C369.17,-301.44 381.9,-306.39 393,-312 413.52,-322.38 435.14,-337.14 450.41,-348.28"/>
<polygon fill="midnightblue" stroke="midnightblue" points="448.49,-351.22 458.6,-354.37 452.66,-345.6 448.49,-351.22"/>
</g>
<!-- Node12 -->
<g id="node12" class="node">
<title>Node12</title>
<g id="a_node12"><a xlink:href="util_8c.html#a7645b56a91479fac2285909a25875b91" target="_top" xlink:title="Custom string copy to avoid string.h library.">
<polygon fill="white" stroke="black" points="443.5,-76.5 443.5,-95.5 500.5,-95.5 500.5,-76.5 443.5,-76.5"/>
<text text-anchor="middle" x="472" y="-83.5" font-family="Helvetica,sans-Serif" font-size="10.00">c_strcpy</text>
</a>
</g>
</g>
<!-- Node11&#45;&gt;Node12 -->
<g id="edge14" class="edge">
<title>Node11&#45;&gt;Node12</title>
<path fill="none" stroke="midnightblue" d="M369.04,-86C389.3,-86 413.42,-86 433.12,-86"/>
<polygon fill="midnightblue" stroke="midnightblue" points="433.26,-89.5 443.26,-86 433.26,-82.5 433.26,-89.5"/>
</g>
<!-- Node15&#45;&gt;Node4 -->
<g id="edge18" class="edge">
<title>Node15&#45;&gt;Node4</title>
<path fill="none" stroke="midnightblue" d="M357.19,-394.03C376.85,-388.84 402.89,-381.97 425.1,-376.11"/>
<polygon fill="midnightblue" stroke="midnightblue" points="426.22,-379.44 435,-373.5 424.43,-372.67 426.22,-379.44"/>
</g>
</g>
</svg>
