<?xml version="1.0" encoding="UTF-8" standalone="no"?>
<!DOCTYPE svg PUBLIC "-//W3C//DTD SVG 1.1//EN"
 "http://www.w3.org/Graphics/SVG/1.1/DTD/svg11.dtd">
<!-- Generated by graphviz version 2.43.0 (0)
 -->
<!-- Title: QPALM/src/termination.c Pages: 1 -->
<svg width="358pt" height="308pt"
 viewBox="0.00 0.00 358.22 308.00" xmlns="http://www.w3.org/2000/svg" xmlns:xlink="http://www.w3.org/1999/xlink">
<g id="graph0" class="graph" transform="scale(1 1) rotate(0) translate(4 304)">
<title>QPALM/src/termination.c</title>
<polygon fill="white" stroke="transparent" points="-4,4 -4,-304 354.22,-304 354.22,4 -4,4"/>
<!-- Node1 -->
<g id="node1" class="node">
<title>Node1</title>
<g id="a_node1"><a xlink:title="Routines to check the termination and infeasibility criteria.">
<polygon fill="#bfbfbf" stroke="black" points="92.24,-280.5 92.24,-299.5 228.24,-299.5 228.24,-280.5 92.24,-280.5"/>
<text text-anchor="middle" x="160.24" y="-287.5" font-family="Helvetica,sans-Serif" font-size="10.00">QPALM/src/termination.c</text>
</a>
</g>
</g>
<!-- Node2 -->
<g id="node2" class="node">
<title>Node2</title>
<g id="a_node2"><a xlink:href="termination_8h.html" target="_top" xlink:title="Routines to check the termination and infeasibility criteria.">
<polygon fill="white" stroke="black" points="74.74,-224.5 74.74,-243.5 157.74,-243.5 157.74,-224.5 74.74,-224.5"/>
<text text-anchor="middle" x="116.24" y="-231.5" font-family="Helvetica,sans-Serif" font-size="10.00">termination.h</text>
</a>
</g>
</g>
<!-- Node1&#45;&gt;Node2 -->
<g id="edge1" class="edge">
<title>Node1&#45;&gt;Node2</title>
<path fill="none" stroke="midnightblue" d="M152.97,-280.08C146.69,-272.38 137.45,-261.03 129.81,-251.65"/>
<polygon fill="midnightblue" stroke="midnightblue" points="132.4,-249.29 123.37,-243.75 126.97,-253.71 132.4,-249.29"/>
</g>
<!-- Node4 -->
<g id="node4" class="node">
<title>Node4</title>
<g id="a_node4"><a xlink:href="global__opts_8h.html" target="_top" xlink:title="Custom memory allocation, print and utility functions, and data types for floats and ints.">
<polygon fill="white" stroke="black" points="84.24,-56.5 84.24,-75.5 166.24,-75.5 166.24,-56.5 84.24,-56.5"/>
<text text-anchor="middle" x="125.24" y="-63.5" font-family="Helvetica,sans-Serif" font-size="10.00">global_opts.h</text>
</a>
</g>
</g>
<!-- Node1&#45;&gt;Node4 -->
<g id="edge16" class="edge">
<title>Node1&#45;&gt;Node4</title>
<path fill="none" stroke="midnightblue" d="M126.78,-280.43C86.62,-267.97 22.3,-240.38 3.24,-188 -15.04,-137.81 51.93,-98.63 93.84,-79.62"/>
<polygon fill="midnightblue" stroke="midnightblue" points="95.38,-82.77 103.13,-75.55 92.56,-76.36 95.38,-82.77"/>
</g>
<!-- Node7 -->
<g id="node7" class="node">
<title>Node7</title>
<g id="a_node7"><a xlink:href="lin__alg_8h.html" target="_top" xlink:title="Linear algebra with vectors.">
<polygon fill="white" stroke="black" points="176.24,-224.5 176.24,-243.5 234.24,-243.5 234.24,-224.5 176.24,-224.5"/>
<text text-anchor="middle" x="205.24" y="-231.5" font-family="Helvetica,sans-Serif" font-size="10.00">lin_alg.h</text>
</a>
</g>
</g>
<!-- Node1&#45;&gt;Node7 -->
<g id="edge7" class="edge">
<title>Node1&#45;&gt;Node7</title>
<path fill="none" stroke="midnightblue" d="M167.67,-280.08C174.09,-272.38 183.54,-261.03 191.36,-251.65"/>
<polygon fill="midnightblue" stroke="midnightblue" points="194.23,-253.67 197.94,-243.75 188.85,-249.19 194.23,-253.67"/>
</g>
<!-- Node9 -->
<g id="node9" class="node">
<title>Node9</title>
<g id="a_node9"><a xlink:href="constants_8h.html" target="_top" xlink:title="Constants used in QPALM.">
<polygon fill="white" stroke="black" points="273.74,-112.5 273.74,-131.5 346.74,-131.5 346.74,-112.5 273.74,-112.5"/>
<text text-anchor="middle" x="310.24" y="-119.5" font-family="Helvetica,sans-Serif" font-size="10.00">constants.h</text>
</a>
</g>
</g>
<!-- Node1&#45;&gt;Node9 -->
<g id="edge15" class="edge">
<title>Node1&#45;&gt;Node9</title>
<path fill="none" stroke="midnightblue" d="M203.37,-280.43C249.37,-268.63 319.36,-242.33 347.24,-188 356.06,-170.81 342.12,-151.64 328.91,-138.61"/>
<polygon fill="midnightblue" stroke="midnightblue" points="331.12,-135.88 321.39,-131.7 326.38,-141.04 331.12,-135.88"/>
</g>
<!-- Node10 -->
<g id="node10" class="node">
<title>Node10</title>
<g id="a_node10"><a xlink:href="util_8h.html" target="_top" xlink:title="Utility functions.">
<polygon fill="white" stroke="black" points="296.74,-168.5 296.74,-187.5 337.74,-187.5 337.74,-168.5 296.74,-168.5"/>
<text text-anchor="middle" x="317.24" y="-175.5" font-family="Helvetica,sans-Serif" font-size="10.00">util.h</text>
</a>
</g>
</g>
<!-- Node1&#45;&gt;Node10 -->
<g id="edge17" class="edge">
<title>Node1&#45;&gt;Node10</title>
<path fill="none" stroke="midnightblue" d="M178.73,-280.46C196.03,-272.13 222.26,-258.62 243.24,-244 264.58,-229.12 286.69,-208.97 301.12,-195.07"/>
<polygon fill="midnightblue" stroke="midnightblue" points="303.96,-197.19 308.66,-187.69 299.06,-192.18 303.96,-197.19"/>
</g>
<!-- Node11 -->
<g id="node11" class="node">
<title>Node11</title>
<g id="a_node11"><a xlink:href="iteration_8h.html" target="_top" xlink:title="QPALM main solver routines.">
<polygon fill="white" stroke="black" points="12.74,-168.5 12.74,-187.5 79.74,-187.5 79.74,-168.5 12.74,-168.5"/>
<text text-anchor="middle" x="46.24" y="-175.5" font-family="Helvetica,sans-Serif" font-size="10.00">iteration.h</text>
</a>
</g>
</g>
<!-- Node1&#45;&gt;Node11 -->
<g id="edge20" class="edge">
<title>Node1&#45;&gt;Node11</title>
<path fill="none" stroke="midnightblue" d="M126.87,-280.44C106.71,-273.66 81.95,-262.23 66.24,-244 55.04,-231.02 50.11,-211.85 47.94,-197.69"/>
<polygon fill="midnightblue" stroke="midnightblue" points="51.4,-197.14 46.73,-187.63 44.45,-197.98 51.4,-197.14"/>
</g>
<!-- Node3 -->
<g id="node3" class="node">
<title>Node3</title>
<g id="a_node3"><a xlink:href="types_8h.html" target="_top" xlink:title="Internal data structures used in QPALM.">
<polygon fill="white" stroke="black" points="112.74,-112.5 112.74,-131.5 165.74,-131.5 165.74,-112.5 112.74,-112.5"/>
<text text-anchor="middle" x="139.24" y="-119.5" font-family="Helvetica,sans-Serif" font-size="10.00">types.h</text>
</a>
</g>
</g>
<!-- Node2&#45;&gt;Node3 -->
<g id="edge2" class="edge">
<title>Node2&#45;&gt;Node3</title>
<path fill="none" stroke="midnightblue" d="M118.04,-224.37C121.75,-206.62 130.31,-165.67 135.35,-141.6"/>
<polygon fill="midnightblue" stroke="midnightblue" points="138.82,-142.1 137.44,-131.59 131.97,-140.66 138.82,-142.1"/>
</g>
<!-- Node3&#45;&gt;Node4 -->
<g id="edge3" class="edge">
<title>Node3&#45;&gt;Node4</title>
<path fill="none" stroke="midnightblue" d="M136.92,-112.08C135.07,-104.93 132.4,-94.64 130.08,-85.69"/>
<polygon fill="midnightblue" stroke="midnightblue" points="133.4,-84.55 127.5,-75.75 126.63,-86.31 133.4,-84.55"/>
</g>
<!-- Node5 -->
<g id="node5" class="node">
<title>Node5</title>
<g id="a_node5"><a xlink:title=" ">
<polygon fill="white" stroke="#bfbfbf" points="188.24,-0.5 188.24,-19.5 238.24,-19.5 238.24,-0.5 188.24,-0.5"/>
<text text-anchor="middle" x="213.24" y="-7.5" font-family="Helvetica,sans-Serif" font-size="10.00">ladel.h</text>
</a>
</g>
</g>
<!-- Node3&#45;&gt;Node5 -->
<g id="edge6" class="edge">
<title>Node3&#45;&gt;Node5</title>
<path fill="none" stroke="midnightblue" d="M146.8,-112.33C154.38,-103.47 166.17,-89.19 175.24,-76 185.85,-60.55 196.5,-42 203.81,-28.69"/>
<polygon fill="midnightblue" stroke="midnightblue" points="207.02,-30.12 208.7,-19.66 200.86,-26.79 207.02,-30.12"/>
</g>
<!-- Node4&#45;&gt;Node5 -->
<g id="edge4" class="edge">
<title>Node4&#45;&gt;Node5</title>
<path fill="none" stroke="midnightblue" d="M139.37,-56.32C153.1,-47.9 174.17,-34.97 190.3,-25.07"/>
<polygon fill="midnightblue" stroke="midnightblue" points="192.44,-27.87 199.13,-19.65 188.78,-21.9 192.44,-27.87"/>
</g>
<!-- Node6 -->
<g id="node6" class="node">
<title>Node6</title>
<g id="a_node6"><a xlink:title=" ">
<polygon fill="white" stroke="#bfbfbf" points="99.74,-0.5 99.74,-19.5 150.74,-19.5 150.74,-0.5 99.74,-0.5"/>
<text text-anchor="middle" x="125.24" y="-7.5" font-family="Helvetica,sans-Serif" font-size="10.00">math.h</text>
</a>
</g>
</g>
<!-- Node4&#45;&gt;Node6 -->
<g id="edge5" class="edge">
<title>Node4&#45;&gt;Node6</title>
<path fill="none" stroke="midnightblue" d="M125.24,-56.08C125.24,-49.01 125.24,-38.86 125.24,-29.99"/>
<polygon fill="midnightblue" stroke="midnightblue" points="128.74,-29.75 125.24,-19.75 121.74,-29.75 128.74,-29.75"/>
</g>
<!-- Node7&#45;&gt;Node3 -->
<g id="edge8" class="edge">
<title>Node7&#45;&gt;Node3</title>
<path fill="none" stroke="midnightblue" d="M195.96,-224.44C187.12,-215.9 173.92,-202.05 165.24,-188 156.16,-173.32 149.15,-154.92 144.71,-141.45"/>
<polygon fill="midnightblue" stroke="midnightblue" points="148.04,-140.36 141.71,-131.86 141.36,-142.45 148.04,-140.36"/>
</g>
<!-- Node8 -->
<g id="node8" class="node">
<title>Node8</title>
<g id="a_node8"><a xlink:href="solver__interface_8h.html" target="_top" xlink:title="Interface and wrapper to matrix/factorization (ladel) functions.">
<polygon fill="white" stroke="black" points="174.24,-168.5 174.24,-187.5 278.24,-187.5 278.24,-168.5 174.24,-168.5"/>
<text text-anchor="middle" x="226.24" y="-175.5" font-family="Helvetica,sans-Serif" font-size="10.00">solver_interface.h</text>
</a>
</g>
</g>
<!-- Node7&#45;&gt;Node8 -->
<g id="edge9" class="edge">
<title>Node7&#45;&gt;Node8</title>
<path fill="none" stroke="midnightblue" d="M208.7,-224.08C211.55,-216.77 215.67,-206.18 219.2,-197.1"/>
<polygon fill="midnightblue" stroke="midnightblue" points="222.47,-198.34 222.83,-187.75 215.95,-195.8 222.47,-198.34"/>
</g>
<!-- Node8&#45;&gt;Node3 -->
<g id="edge13" class="edge">
<title>Node8&#45;&gt;Node3</title>
<path fill="none" stroke="midnightblue" d="M212.26,-168.32C198.69,-159.9 177.86,-146.97 161.91,-137.07"/>
<polygon fill="midnightblue" stroke="midnightblue" points="163.52,-133.95 153.18,-131.65 159.83,-139.9 163.52,-133.95"/>
</g>
<!-- Node8&#45;&gt;Node4 -->
<g id="edge10" class="edge">
<title>Node8&#45;&gt;Node4</title>
<path fill="none" stroke="midnightblue" d="M220.08,-168.2C210.92,-155.33 192.87,-130.86 175.24,-112 165.49,-101.57 153.66,-90.85 143.95,-82.48"/>
<polygon fill="midnightblue" stroke="midnightblue" points="145.96,-79.6 136.07,-75.81 141.44,-84.94 145.96,-79.6"/>
</g>
<!-- Node8&#45;&gt;Node5 -->
<g id="edge14" class="edge">
<title>Node8&#45;&gt;Node5</title>
<path fill="none" stroke="midnightblue" d="M225.54,-168.08C223.49,-141.95 217.48,-65.21 214.69,-29.58"/>
<polygon fill="midnightblue" stroke="midnightblue" points="218.18,-29.26 213.91,-19.57 211.2,-29.81 218.18,-29.26"/>
</g>
<!-- Node8&#45;&gt;Node9 -->
<g id="edge11" class="edge">
<title>Node8&#45;&gt;Node9</title>
<path fill="none" stroke="midnightblue" d="M239.73,-168.32C252.84,-159.9 272.95,-146.97 288.34,-137.07"/>
<polygon fill="midnightblue" stroke="midnightblue" points="290.25,-140.01 296.77,-131.65 286.47,-134.12 290.25,-140.01"/>
</g>
<!-- Node9&#45;&gt;Node5 -->
<g id="edge12" class="edge">
<title>Node9&#45;&gt;Node5</title>
<path fill="none" stroke="midnightblue" d="M302.62,-112.37C286.48,-94.05 248.55,-51.05 227.66,-27.36"/>
<polygon fill="midnightblue" stroke="midnightblue" points="230.05,-24.78 220.81,-19.59 224.8,-29.41 230.05,-24.78"/>
</g>
<!-- Node10&#45;&gt;Node3 -->
<g id="edge18" class="edge">
<title>Node10&#45;&gt;Node3</title>
<path fill="none" stroke="midnightblue" d="M296.47,-170.7C266.88,-161.72 212.14,-145.12 175.7,-134.06"/>
<polygon fill="midnightblue" stroke="midnightblue" points="176.53,-130.66 165.94,-131.1 174.5,-137.35 176.53,-130.66"/>
</g>
<!-- Node10&#45;&gt;Node9 -->
<g id="edge19" class="edge">
<title>Node10&#45;&gt;Node9</title>
<path fill="none" stroke="midnightblue" d="M316.08,-168.08C315.15,-160.93 313.82,-150.64 312.66,-141.69"/>
<polygon fill="midnightblue" stroke="midnightblue" points="316.13,-141.22 311.37,-131.75 309.19,-142.12 316.13,-141.22"/>
</g>
<!-- Node11&#45;&gt;Node3 -->
<g id="edge21" class="edge">
<title>Node11&#45;&gt;Node3</title>
<path fill="none" stroke="midnightblue" d="M61.18,-168.32C75.82,-159.82 98.37,-146.73 115.47,-136.8"/>
<polygon fill="midnightblue" stroke="midnightblue" points="117.44,-139.7 124.33,-131.65 113.93,-133.65 117.44,-139.7"/>
</g>
<!-- Node11&#45;&gt;Node4 -->
<g id="edge22" class="edge">
<title>Node11&#45;&gt;Node4</title>
<path fill="none" stroke="midnightblue" d="M52.43,-168.37C65.47,-150.22 95.93,-107.8 113.03,-83.99"/>
<polygon fill="midnightblue" stroke="midnightblue" points="116.08,-85.76 119.07,-75.59 110.39,-81.67 116.08,-85.76"/>
</g>
</g>
</svg>
