<?xml version="1.0" encoding="UTF-8" standalone="no"?>
<!DOCTYPE svg PUBLIC "-//W3C//DTD SVG 1.1//EN"
 "http://www.w3.org/Graphics/SVG/1.1/DTD/svg11.dtd">
<!-- Generated by graphviz version 2.43.0 (0)
 -->
<!-- Title: QPALM/include/termination.h Pages: 1 -->
<svg width="166pt" height="196pt"
 viewBox="0.00 0.00 166.00 196.00" xmlns="http://www.w3.org/2000/svg" xmlns:xlink="http://www.w3.org/1999/xlink">
<g id="graph0" class="graph" transform="scale(1 1) rotate(0) translate(4 192)">
<title>QPALM/include/termination.h</title>
<polygon fill="white" stroke="transparent" points="-4,4 -4,-192 162,-192 162,4 -4,4"/>
<!-- Node1 -->
<g id="node1" class="node">
<title>Node1</title>
<g id="a_node1"><a xlink:title="Routines to check the termination and infeasibility criteria.">
<polygon fill="#bfbfbf" stroke="black" points="0,-168.5 0,-187.5 158,-187.5 158,-168.5 0,-168.5"/>
<text text-anchor="middle" x="79" y="-175.5" font-family="Helvetica,sans-Serif" font-size="10.00">QPALM/include/termination.h</text>
</a>
</g>
</g>
<!-- Node2 -->
<g id="node2" class="node">
<title>Node2</title>
<g id="a_node2"><a xlink:href="types_8h.html" target="_top" xlink:title="Internal data structures used in QPALM.">
<polygon fill="white" stroke="black" points="52.5,-112.5 52.5,-131.5 105.5,-131.5 105.5,-112.5 52.5,-112.5"/>
<text text-anchor="middle" x="79" y="-119.5" font-family="Helvetica,sans-Serif" font-size="10.00">types.h</text>
</a>
</g>
</g>
<!-- Node1&#45;&gt;Node2 -->
<g id="edge1" class="edge">
<title>Node1&#45;&gt;Node2</title>
<path fill="none" stroke="midnightblue" d="M79,-168.08C79,-161.01 79,-150.86 79,-141.99"/>
<polygon fill="midnightblue" stroke="midnightblue" points="82.5,-141.75 79,-131.75 75.5,-141.75 82.5,-141.75"/>
</g>
<!-- Node3 -->
<g id="node3" class="node">
<title>Node3</title>
<g id="a_node3"><a xlink:href="global__opts_8h.html" target="_top" xlink:title="Custom memory allocation, print and utility functions, and data types for floats and ints.">
<polygon fill="white" stroke="black" points="73,-56.5 73,-75.5 155,-75.5 155,-56.5 73,-56.5"/>
<text text-anchor="middle" x="114" y="-63.5" font-family="Helvetica,sans-Serif" font-size="10.00">global_opts.h</text>
</a>
</g>
</g>
<!-- Node2&#45;&gt;Node3 -->
<g id="edge2" class="edge">
<title>Node2&#45;&gt;Node3</title>
<path fill="none" stroke="midnightblue" d="M84.78,-112.08C89.67,-104.53 96.83,-93.49 102.83,-84.23"/>
<polygon fill="midnightblue" stroke="midnightblue" points="105.83,-86.05 108.33,-75.75 99.95,-82.24 105.83,-86.05"/>
</g>
<!-- Node4 -->
<g id="node4" class="node">
<title>Node4</title>
<g id="a_node4"><a xlink:title=" ">
<polygon fill="white" stroke="#bfbfbf" points="20,-0.5 20,-19.5 70,-19.5 70,-0.5 20,-0.5"/>
<text text-anchor="middle" x="45" y="-7.5" font-family="Helvetica,sans-Serif" font-size="10.00">ladel.h</text>
</a>
</g>
</g>
<!-- Node2&#45;&gt;Node4 -->
<g id="edge5" class="edge">
<title>Node2&#45;&gt;Node4</title>
<path fill="none" stroke="midnightblue" d="M76.03,-112.4C72.93,-103.37 67.98,-88.73 64,-76 59.12,-60.4 53.94,-42.56 50.22,-29.53"/>
<polygon fill="midnightblue" stroke="midnightblue" points="53.57,-28.53 47.48,-19.86 46.84,-30.44 53.57,-28.53"/>
</g>
<!-- Node3&#45;&gt;Node4 -->
<g id="edge3" class="edge">
<title>Node3&#45;&gt;Node4</title>
<path fill="none" stroke="midnightblue" d="M102.91,-56.32C92.51,-48.18 76.74,-35.84 64.28,-26.09"/>
<polygon fill="midnightblue" stroke="midnightblue" points="66.32,-23.24 56.29,-19.83 62.01,-28.75 66.32,-23.24"/>
</g>
<!-- Node5 -->
<g id="node5" class="node">
<title>Node5</title>
<g id="a_node5"><a xlink:title=" ">
<polygon fill="white" stroke="#bfbfbf" points="88.5,-0.5 88.5,-19.5 139.5,-19.5 139.5,-0.5 88.5,-0.5"/>
<text text-anchor="middle" x="114" y="-7.5" font-family="Helvetica,sans-Serif" font-size="10.00">math.h</text>
</a>
</g>
</g>
<!-- Node3&#45;&gt;Node5 -->
<g id="edge4" class="edge">
<title>Node3&#45;&gt;Node5</title>
<path fill="none" stroke="midnightblue" d="M114,-56.08C114,-49.01 114,-38.86 114,-29.99"/>
<polygon fill="midnightblue" stroke="midnightblue" points="117.5,-29.75 114,-19.75 110.5,-29.75 117.5,-29.75"/>
</g>
</g>
</svg>
