<?xml version="1.0" encoding="UTF-8" standalone="no"?>
<!DOCTYPE svg PUBLIC "-//W3C//DTD SVG 1.1//EN"
 "http://www.w3.org/Graphics/SVG/1.1/DTD/svg11.dtd">
<!-- Generated by graphviz version 2.43.0 (0)
 -->
<!-- Title: qpalm::Solver::warm_start Pages: 1 -->
<svg width="395pt" height="142pt"
 viewBox="0.00 0.00 395.00 142.00" xmlns="http://www.w3.org/2000/svg" xmlns:xlink="http://www.w3.org/1999/xlink">
<g id="graph0" class="graph" transform="scale(1 1) rotate(0) translate(4 138)">
<title>qpalm::Solver::warm_start</title>
<polygon fill="white" stroke="transparent" points="-4,4 -4,-138 391,-138 391,4 -4,4"/>
<!-- Node1 -->
<g id="node1" class="node">
<title>Node1</title>
<g id="a_node1"><a xlink:title=" ">
<polygon fill="#bfbfbf" stroke="black" points="0,-52 0,-82 118,-82 118,-52 0,-52"/>
<text text-anchor="start" x="8" y="-70" font-family="Helvetica,sans-Serif" font-size="10.00">qpalm::Solver::warm</text>
<text text-anchor="middle" x="59" y="-59" font-family="Helvetica,sans-Serif" font-size="10.00">_start</text>
</a>
</g>
</g>
<!-- Node2 -->
<g id="node2" class="node">
<title>Node2</title>
<g id="a_node2"><a xlink:href="group__solver-grp.html#ga28824f01d01f181a6ad6b413f30a2609" target="_top" xlink:title="Warm start workspace variables x, x_0, x_prev, Ax, Qx, y and sigma.">
<polygon fill="white" stroke="black" points="154,-57.5 154,-76.5 262,-76.5 262,-57.5 154,-57.5"/>
<text text-anchor="middle" x="208" y="-64.5" font-family="Helvetica,sans-Serif" font-size="10.00">qpalm_warm_start</text>
</a>
</g>
</g>
<!-- Node1&#45;&gt;Node2 -->
<g id="edge1" class="edge">
<title>Node1&#45;&gt;Node2</title>
<path fill="none" stroke="midnightblue" d="M118.1,-67C126.43,-67 135.03,-67 143.46,-67"/>
<polygon fill="midnightblue" stroke="midnightblue" points="143.62,-70.5 153.62,-67 143.62,-63.5 143.62,-70.5"/>
</g>
<!-- Node3 -->
<g id="node3" class="node">
<title>Node3</title>
<g id="a_node3"><a xlink:href="lin__alg_8c.html#acf468a60c38fbc58b6de539acb6f0a3b" target="_top" xlink:title="Copy vector a into preallocated vector b.">
<polygon fill="white" stroke="black" points="298,-114.5 298,-133.5 387,-133.5 387,-114.5 298,-114.5"/>
<text text-anchor="middle" x="342.5" y="-121.5" font-family="Helvetica,sans-Serif" font-size="10.00">prea_vec_copy</text>
</a>
</g>
</g>
<!-- Node2&#45;&gt;Node3 -->
<g id="edge2" class="edge">
<title>Node2&#45;&gt;Node3</title>
<path fill="none" stroke="midnightblue" d="M231.18,-76.54C252.67,-85.79 285.5,-99.91 309.76,-110.35"/>
<polygon fill="midnightblue" stroke="midnightblue" points="308.68,-113.69 319.25,-114.43 311.45,-107.26 308.68,-113.69"/>
</g>
<!-- Node4 -->
<g id="node4" class="node">
<title>Node4</title>
<g id="a_node4"><a xlink:href="global__opts_8c.html#a057129daf1349d96b074b9dca1994d09" target="_top" xlink:title=" ">
<polygon fill="white" stroke="black" points="306.5,-76.5 306.5,-95.5 378.5,-95.5 378.5,-76.5 306.5,-76.5"/>
<text text-anchor="middle" x="342.5" y="-83.5" font-family="Helvetica,sans-Serif" font-size="10.00">qpalm_free</text>
</a>
</g>
</g>
<!-- Node2&#45;&gt;Node4 -->
<g id="edge3" class="edge">
<title>Node2&#45;&gt;Node4</title>
<path fill="none" stroke="midnightblue" d="M262.13,-74.62C273.37,-76.23 285.13,-77.92 296.06,-79.48"/>
<polygon fill="midnightblue" stroke="midnightblue" points="295.83,-82.99 306.23,-80.94 296.83,-76.06 295.83,-82.99"/>
</g>
<!-- Node5 -->
<g id="node5" class="node">
<title>Node5</title>
<g id="a_node5"><a xlink:href="util_8h.html#aae57226ec767e15f27d88e97df093b41" target="_top" xlink:title="Start timer.">
<polygon fill="white" stroke="black" points="310,-38.5 310,-57.5 375,-57.5 375,-38.5 310,-38.5"/>
<text text-anchor="middle" x="342.5" y="-45.5" font-family="Helvetica,sans-Serif" font-size="10.00">qpalm_tic</text>
</a>
</g>
</g>
<!-- Node2&#45;&gt;Node5 -->
<g id="edge4" class="edge">
<title>Node2&#45;&gt;Node5</title>
<path fill="none" stroke="midnightblue" d="M262.13,-59.38C274.6,-57.59 287.72,-55.71 299.62,-54"/>
<polygon fill="midnightblue" stroke="midnightblue" points="300.32,-57.44 309.72,-52.56 299.33,-50.51 300.32,-57.44"/>
</g>
<!-- Node6 -->
<g id="node6" class="node">
<title>Node6</title>
<g id="a_node6"><a xlink:href="util_8h.html#a6eecdaf6f3f1c4bf0ab1067a5e7e69da" target="_top" xlink:title="Report time in seconds since last call to qpalm_tic.">
<polygon fill="white" stroke="black" points="308.5,-0.5 308.5,-19.5 376.5,-19.5 376.5,-0.5 308.5,-0.5"/>
<text text-anchor="middle" x="342.5" y="-7.5" font-family="Helvetica,sans-Serif" font-size="10.00">qpalm_toc</text>
</a>
</g>
</g>
<!-- Node2&#45;&gt;Node6 -->
<g id="edge5" class="edge">
<title>Node2&#45;&gt;Node6</title>
<path fill="none" stroke="midnightblue" d="M231.18,-57.46C252.67,-48.21 285.5,-34.09 309.76,-23.65"/>
<polygon fill="midnightblue" stroke="midnightblue" points="311.45,-26.74 319.25,-19.57 308.68,-20.31 311.45,-26.74"/>
</g>
</g>
</svg>
