<?xml version="1.0" encoding="UTF-8" standalone="no"?>
<!DOCTYPE svg PUBLIC "-//W3C//DTD SVG 1.1//EN"
 "http://www.w3.org/Graphics/SVG/1.1/DTD/svg11.dtd">
<!-- Generated by graphviz version 2.43.0 (0)
 -->
<!-- Title: QPALM/include/constants.h Pages: 1 -->
<svg width="1830pt" height="330pt"
 viewBox="0.00 0.00 1829.50 330.00" xmlns="http://www.w3.org/2000/svg" xmlns:xlink="http://www.w3.org/1999/xlink">
<g id="graph0" class="graph" transform="scale(1 1) rotate(0) translate(4 326)">
<title>QPALM/include/constants.h</title>
<polygon fill="white" stroke="transparent" points="-4,4 -4,-326 1825.5,-326 1825.5,4 -4,4"/>
<!-- Node1 -->
<g id="node1" class="node">
<title>Node1</title>
<g id="a_node1"><a xlink:title="Constants used in QPALM.">
<polygon fill="#bfbfbf" stroke="black" points="1128.5,-302.5 1128.5,-321.5 1276.5,-321.5 1276.5,-302.5 1128.5,-302.5"/>
<text text-anchor="middle" x="1202.5" y="-309.5" font-family="Helvetica,sans-Serif" font-size="10.00">QPALM/include/constants.h</text>
</a>
</g>
</g>
<!-- Node2 -->
<g id="node2" class="node">
<title>Node2</title>
<g id="a_node2"><a xlink:href="linesearch_8h.html" target="_top" xlink:title="Routines to perform exact linesearch.">
<polygon fill="white" stroke="black" points="140,-179.5 140,-198.5 291,-198.5 291,-179.5 140,-179.5"/>
<text text-anchor="middle" x="215.5" y="-186.5" font-family="Helvetica,sans-Serif" font-size="10.00">QPALM/include/linesearch.h</text>
</a>
</g>
</g>
<!-- Node1&#45;&gt;Node2 -->
<g id="edge1" class="edge">
<title>Node1&#45;&gt;Node2</title>
<path fill="none" stroke="midnightblue" d="M1118.15,-308.18C999.8,-303.45 777.92,-291.78 590.5,-266 463.98,-248.6 316,-214.47 250.15,-198.55"/>
<polygon fill="midnightblue" stroke="midnightblue" points="1118.1,-311.68 1128.23,-308.57 1118.38,-304.68 1118.1,-311.68"/>
</g>
<!-- Node3 -->
<g id="node3" class="node">
<title>Node3</title>
<g id="a_node3"><a xlink:href="qpalm_8h.html" target="_top" xlink:title="QPALM main solver API.">
<polygon fill="white" stroke="black" points="0,-67.5 0,-86.5 131,-86.5 131,-67.5 0,-67.5"/>
<text text-anchor="middle" x="65.5" y="-74.5" font-family="Helvetica,sans-Serif" font-size="10.00">QPALM/include/qpalm.h</text>
</a>
</g>
</g>
<!-- Node1&#45;&gt;Node3 -->
<g id="edge8" class="edge">
<title>Node1&#45;&gt;Node3</title>
<path fill="none" stroke="midnightblue" d="M1118.25,-310.56C973.08,-308.83 666.7,-300.92 410.5,-266 271.69,-247.08 214.31,-283.4 102.5,-199 66.21,-171.6 64.42,-109.4 65.06,-86.59"/>
<polygon fill="midnightblue" stroke="midnightblue" points="1118.39,-314.06 1128.42,-310.67 1118.46,-307.06 1118.39,-314.06"/>
</g>
<!-- Node5 -->
<g id="node5" class="node">
<title>Node5</title>
<g id="a_node5"><a xlink:href="qpalm_8c.html" target="_top" xlink:title="QPALM main solver API.">
<polygon fill="white" stroke="black" points="883.5,-6 883.5,-25 993.5,-25 993.5,-6 883.5,-6"/>
<text text-anchor="middle" x="938.5" y="-13" font-family="Helvetica,sans-Serif" font-size="10.00">QPALM/src/qpalm.c</text>
</a>
</g>
</g>
<!-- Node1&#45;&gt;Node5 -->
<g id="edge40" class="edge">
<title>Node1&#45;&gt;Node5</title>
<path fill="none" stroke="midnightblue" d="M1286.67,-311.87C1455.94,-311.33 1821.5,-297.71 1821.5,-190 1821.5,-190 1821.5,-190 1821.5,-132 1821.5,-48.13 1187.05,-23.46 993.74,-17.89"/>
<polygon fill="midnightblue" stroke="midnightblue" points="1286.55,-308.37 1276.55,-311.88 1286.56,-315.37 1286.55,-308.37"/>
</g>
<!-- Node8 -->
<g id="node8" class="node">
<title>Node8</title>
<g id="a_node8"><a xlink:href="scaling_8h.html" target="_top" xlink:title="Problem data scaling during setup.">
<polygon fill="white" stroke="black" points="475,-123.5 475,-142.5 610,-142.5 610,-123.5 475,-123.5"/>
<text text-anchor="middle" x="542.5" y="-130.5" font-family="Helvetica,sans-Serif" font-size="10.00">QPALM/include/scaling.h</text>
</a>
</g>
</g>
<!-- Node1&#45;&gt;Node8 -->
<g id="edge9" class="edge">
<title>Node1&#45;&gt;Node8</title>
<path fill="none" stroke="midnightblue" d="M1118.24,-303.44C1056.24,-296.72 970.27,-284.95 896.5,-266 764.36,-232.05 613.25,-166.13 561.23,-142.6"/>
<polygon fill="midnightblue" stroke="midnightblue" points="1118.05,-306.94 1128.37,-304.52 1118.79,-299.98 1118.05,-306.94"/>
</g>
<!-- Node10 -->
<g id="node10" class="node">
<title>Node10</title>
<g id="a_node10"><a xlink:href="solver__interface_8h.html" target="_top" xlink:title="Interface and wrapper to matrix/factorization (ladel) functions.">
<polygon fill="white" stroke="black" points="905.5,-235.5 905.5,-265.5 1027.5,-265.5 1027.5,-235.5 905.5,-235.5"/>
<text text-anchor="start" x="913.5" y="-253.5" font-family="Helvetica,sans-Serif" font-size="10.00">QPALM/include/solver</text>
<text text-anchor="middle" x="966.5" y="-242.5" font-family="Helvetica,sans-Serif" font-size="10.00">_interface.h</text>
</a>
</g>
</g>
<!-- Node1&#45;&gt;Node10 -->
<g id="edge13" class="edge">
<title>Node1&#45;&gt;Node10</title>
<path fill="none" stroke="midnightblue" d="M1158.8,-299.98C1120.26,-290.27 1063.88,-276.05 1022.12,-265.52"/>
<polygon fill="midnightblue" stroke="midnightblue" points="1158.13,-303.42 1168.69,-302.48 1159.85,-296.64 1158.13,-303.42"/>
</g>
<!-- Node14 -->
<g id="node14" class="node">
<title>Node14</title>
<g id="a_node14"><a xlink:href="nonconvex_8c.html" target="_top" xlink:title="Routines to deal with nonconvex QPs.">
<polygon fill="white" stroke="black" points="1393.5,-123.5 1393.5,-142.5 1525.5,-142.5 1525.5,-123.5 1393.5,-123.5"/>
<text text-anchor="middle" x="1459.5" y="-130.5" font-family="Helvetica,sans-Serif" font-size="10.00">QPALM/src/nonconvex.c</text>
</a>
</g>
</g>
<!-- Node1&#45;&gt;Node14 -->
<g id="edge39" class="edge">
<title>Node1&#45;&gt;Node14</title>
<path fill="none" stroke="midnightblue" d="M1223.32,-296.38C1258.19,-271.92 1330.7,-221.22 1392.5,-179 1411.24,-166.2 1433.1,-151.58 1446.62,-142.57"/>
<polygon fill="midnightblue" stroke="midnightblue" points="1221.08,-293.67 1214.9,-302.28 1225.1,-299.4 1221.08,-293.67"/>
</g>
<!-- Node16 -->
<g id="node16" class="node">
<title>Node16</title>
<g id="a_node16"><a xlink:href="termination_8c.html" target="_top" xlink:title="Routines to check the termination and infeasibility criteria.">
<polygon fill="white" stroke="black" points="1619.5,-123.5 1619.5,-142.5 1755.5,-142.5 1755.5,-123.5 1619.5,-123.5"/>
<text text-anchor="middle" x="1687.5" y="-130.5" font-family="Helvetica,sans-Serif" font-size="10.00">QPALM/src/termination.c</text>
</a>
</g>
</g>
<!-- Node1&#45;&gt;Node16 -->
<g id="edge41" class="edge">
<title>Node1&#45;&gt;Node16</title>
<path fill="none" stroke="midnightblue" d="M1247.5,-299.9C1280.02,-291.51 1324.85,-279.23 1363.5,-266 1481.88,-225.49 1619.54,-164.7 1668.8,-142.5"/>
<polygon fill="midnightblue" stroke="midnightblue" points="1246.22,-296.61 1237.4,-302.48 1247.95,-303.39 1246.22,-296.61"/>
</g>
<!-- Node18 -->
<g id="node18" class="node">
<title>Node18</title>
<g id="a_node18"><a xlink:href="validate_8c.html" target="_top" xlink:title="Validation of the user provided settings and data.">
<polygon fill="white" stroke="black" points="1143,-123.5 1143,-142.5 1262,-142.5 1262,-123.5 1143,-123.5"/>
<text text-anchor="middle" x="1202.5" y="-130.5" font-family="Helvetica,sans-Serif" font-size="10.00">QPALM/src/validate.c</text>
</a>
</g>
</g>
<!-- Node1&#45;&gt;Node18 -->
<g id="edge42" class="edge">
<title>Node1&#45;&gt;Node18</title>
<path fill="none" stroke="midnightblue" d="M1202.5,-292.35C1202.5,-254.6 1202.5,-170.36 1202.5,-142.87"/>
<polygon fill="midnightblue" stroke="midnightblue" points="1199,-292.46 1202.5,-302.46 1206,-292.46 1199,-292.46"/>
</g>
<!-- Node19 -->
<g id="node19" class="node">
<title>Node19</title>
<g id="a_node19"><a xlink:href="util_8h.html" target="_top" xlink:title="Utility functions.">
<polygon fill="white" stroke="black" points="1401.5,-179.5 1401.5,-198.5 1517.5,-198.5 1517.5,-179.5 1401.5,-179.5"/>
<text text-anchor="middle" x="1459.5" y="-186.5" font-family="Helvetica,sans-Serif" font-size="10.00">QPALM/include/util.h</text>
</a>
</g>
</g>
<!-- Node1&#45;&gt;Node19 -->
<g id="edge32" class="edge">
<title>Node1&#45;&gt;Node19</title>
<path fill="none" stroke="midnightblue" d="M1238.19,-299C1262.11,-290.59 1294.13,-278.64 1321.5,-266 1368.19,-244.45 1420.73,-213.56 1445.34,-198.68"/>
<polygon fill="midnightblue" stroke="midnightblue" points="1236.76,-295.79 1228.47,-302.38 1239.06,-302.4 1236.76,-295.79"/>
</g>
<!-- Node2&#45;&gt;Node3 -->
<g id="edge2" class="edge">
<title>Node2&#45;&gt;Node3</title>
<path fill="none" stroke="midnightblue" d="M172.3,-176.31C151.43,-169.13 126.98,-158.32 108.5,-143 89.33,-127.11 75.51,-100.48 69.24,-86.76"/>
<polygon fill="midnightblue" stroke="midnightblue" points="171.31,-179.66 181.9,-179.45 173.49,-173.01 171.31,-179.66"/>
</g>
<!-- Node2&#45;&gt;Node5 -->
<g id="edge7" class="edge">
<title>Node2&#45;&gt;Node5</title>
<path fill="none" stroke="midnightblue" d="M183.08,-175.24C156.2,-162.84 125.01,-142.99 142.5,-123 191.45,-67.06 711.19,-30.42 883.42,-19.74"/>
<polygon fill="midnightblue" stroke="midnightblue" points="181.76,-178.48 192.33,-179.31 184.58,-172.08 181.76,-178.48"/>
</g>
<!-- Node6 -->
<g id="node6" class="node">
<title>Node6</title>
<g id="a_node6"><a xlink:href="iteration_8c.html" target="_top" xlink:title="QPALM main solver routines.">
<polygon fill="white" stroke="black" points="298.5,-123.5 298.5,-142.5 418.5,-142.5 418.5,-123.5 298.5,-123.5"/>
<text text-anchor="middle" x="358.5" y="-130.5" font-family="Helvetica,sans-Serif" font-size="10.00">QPALM/src/iteration.c</text>
</a>
</g>
</g>
<!-- Node2&#45;&gt;Node6 -->
<g id="edge5" class="edge">
<title>Node2&#45;&gt;Node6</title>
<path fill="none" stroke="midnightblue" d="M247.53,-175.91C274.41,-165.75 312.14,-151.51 335.95,-142.52"/>
<polygon fill="midnightblue" stroke="midnightblue" points="246.28,-172.64 238.16,-179.44 248.75,-179.19 246.28,-172.64"/>
</g>
<!-- Node7 -->
<g id="node7" class="node">
<title>Node7</title>
<g id="a_node7"><a xlink:href="linesearch_8c.html" target="_top" xlink:title="Routines to perform exact or backtracking linesearch.">
<polygon fill="white" stroke="black" points="151,-123.5 151,-142.5 280,-142.5 280,-123.5 151,-123.5"/>
<text text-anchor="middle" x="215.5" y="-130.5" font-family="Helvetica,sans-Serif" font-size="10.00">QPALM/src/linesearch.c</text>
</a>
</g>
</g>
<!-- Node2&#45;&gt;Node7 -->
<g id="edge6" class="edge">
<title>Node2&#45;&gt;Node7</title>
<path fill="none" stroke="midnightblue" d="M215.5,-168.8C215.5,-159.91 215.5,-149.78 215.5,-142.75"/>
<polygon fill="midnightblue" stroke="midnightblue" points="212,-169.08 215.5,-179.08 219,-169.08 212,-169.08"/>
</g>
<!-- Node4 -->
<g id="node4" class="node">
<title>Node4</title>
<g id="a_node4"><a xlink:href="qpalm_8cpp.html" target="_top" xlink:title=" ">
<polygon fill="white" stroke="black" points="4.5,-0.5 4.5,-30.5 126.5,-30.5 126.5,-0.5 4.5,-0.5"/>
<text text-anchor="start" x="12.5" y="-18.5" font-family="Helvetica,sans-Serif" font-size="10.00">QPALM/interfaces/cxx</text>
<text text-anchor="middle" x="65.5" y="-7.5" font-family="Helvetica,sans-Serif" font-size="10.00">/src/qpalm.cpp</text>
</a>
</g>
</g>
<!-- Node3&#45;&gt;Node4 -->
<g id="edge3" class="edge">
<title>Node3&#45;&gt;Node4</title>
<path fill="none" stroke="midnightblue" d="M65.5,-57.23C65.5,-48.59 65.5,-38.5 65.5,-30.52"/>
<polygon fill="midnightblue" stroke="midnightblue" points="62,-57.48 65.5,-67.48 69,-57.48 62,-57.48"/>
</g>
<!-- Node3&#45;&gt;Node5 -->
<g id="edge4" class="edge">
<title>Node3&#45;&gt;Node5</title>
<path fill="none" stroke="midnightblue" d="M141.59,-67.35C142.9,-67.23 144.21,-67.11 145.5,-67 422.06,-42.65 753.87,-25.38 883.15,-19.1"/>
<polygon fill="midnightblue" stroke="midnightblue" points="141.02,-63.89 131.4,-68.33 141.68,-70.86 141.02,-63.89"/>
</g>
<!-- Node8&#45;&gt;Node3 -->
<g id="edge10" class="edge">
<title>Node8&#45;&gt;Node3</title>
<path fill="none" stroke="midnightblue" d="M464.74,-123.2C371.95,-112.69 218.41,-95.31 131.26,-85.44"/>
<polygon fill="midnightblue" stroke="midnightblue" points="464.59,-126.7 474.92,-124.35 465.37,-119.75 464.59,-126.7"/>
</g>
<!-- Node8&#45;&gt;Node5 -->
<g id="edge11" class="edge">
<title>Node8&#45;&gt;Node5</title>
<path fill="none" stroke="midnightblue" d="M574.81,-119.96C612.39,-106.19 676.45,-83.42 732.5,-67 789.92,-50.18 857.45,-34.36 899.11,-25.06"/>
<polygon fill="midnightblue" stroke="midnightblue" points="573.57,-116.69 565.39,-123.43 575.99,-123.26 573.57,-116.69"/>
</g>
<!-- Node9 -->
<g id="node9" class="node">
<title>Node9</title>
<g id="a_node9"><a xlink:href="scaling_8c.html" target="_top" xlink:title="Problem data scaling during setup.">
<polygon fill="white" stroke="black" points="741,-67.5 741,-86.5 854,-86.5 854,-67.5 741,-67.5"/>
<text text-anchor="middle" x="797.5" y="-74.5" font-family="Helvetica,sans-Serif" font-size="10.00">QPALM/src/scaling.c</text>
</a>
</g>
</g>
<!-- Node8&#45;&gt;Node9 -->
<g id="edge12" class="edge">
<title>Node8&#45;&gt;Node9</title>
<path fill="none" stroke="midnightblue" d="M592.81,-121.35C641,-111.14 712.78,-95.94 757.28,-86.52"/>
<polygon fill="midnightblue" stroke="midnightblue" points="591.96,-117.95 582.91,-123.44 593.41,-124.8 591.96,-117.95"/>
</g>
<!-- Node10&#45;&gt;Node3 -->
<g id="edge28" class="edge">
<title>Node10&#45;&gt;Node3</title>
<path fill="none" stroke="midnightblue" d="M895.31,-248.48C705.72,-245.29 198.44,-233.61 131.5,-199 87.29,-176.14 71.35,-110.55 66.93,-86.76"/>
<polygon fill="midnightblue" stroke="midnightblue" points="895.39,-251.98 905.44,-248.64 895.5,-244.98 895.39,-251.98"/>
</g>
<!-- Node10&#45;&gt;Node5 -->
<g id="edge30" class="edge">
<title>Node10&#45;&gt;Node5</title>
<path fill="none" stroke="midnightblue" d="M1037.78,-249.75C1250.26,-249.21 1858.92,-237.78 1764.5,-123 1715.33,-63.23 1170.54,-28.94 993.63,-19.32"/>
<polygon fill="midnightblue" stroke="midnightblue" points="1037.65,-246.25 1027.66,-249.77 1037.67,-253.25 1037.65,-246.25"/>
</g>
<!-- Node10&#45;&gt;Node6 -->
<g id="edge29" class="edge">
<title>Node10&#45;&gt;Node6</title>
<path fill="none" stroke="midnightblue" d="M895.44,-236C768.92,-211.97 508.06,-162.41 403.4,-142.53"/>
<polygon fill="midnightblue" stroke="midnightblue" points="894.94,-239.47 905.42,-237.9 896.25,-232.59 894.94,-239.47"/>
</g>
<!-- Node11 -->
<g id="node11" class="node">
<title>Node11</title>
<g id="a_node11"><a xlink:href="lin__alg_8h.html" target="_top" xlink:title="Linear algebra with vectors.">
<polygon fill="white" stroke="black" points="846,-179.5 846,-198.5 979,-198.5 979,-179.5 846,-179.5"/>
<text text-anchor="middle" x="912.5" y="-186.5" font-family="Helvetica,sans-Serif" font-size="10.00">QPALM/include/lin_alg.h</text>
</a>
</g>
</g>
<!-- Node10&#45;&gt;Node11 -->
<g id="edge14" class="edge">
<title>Node10&#45;&gt;Node11</title>
<path fill="none" stroke="midnightblue" d="M946.72,-227.7C937.58,-217.64 927.25,-206.26 920.36,-198.66"/>
<polygon fill="midnightblue" stroke="midnightblue" points="944.39,-230.35 953.7,-235.4 949.57,-225.64 944.39,-230.35"/>
</g>
<!-- Node15 -->
<g id="node15" class="node">
<title>Node15</title>
<g id="a_node15"><a xlink:href="solver__interface_8c.html" target="_top" xlink:title="Interface and wrapper to matrix/factorization (ladel) functions.">
<polygon fill="white" stroke="black" points="966.5,-123.5 966.5,-142.5 1124.5,-142.5 1124.5,-123.5 966.5,-123.5"/>
<text text-anchor="middle" x="1045.5" y="-130.5" font-family="Helvetica,sans-Serif" font-size="10.00">QPALM/src/solver_interface.c</text>
</a>
</g>
</g>
<!-- Node10&#45;&gt;Node15 -->
<g id="edge31" class="edge">
<title>Node10&#45;&gt;Node15</title>
<path fill="none" stroke="midnightblue" d="M981.94,-226.92C999.55,-201.18 1027.46,-160.37 1039.57,-142.67"/>
<polygon fill="midnightblue" stroke="midnightblue" points="978.94,-225.11 976.19,-235.34 984.72,-229.06 978.94,-225.11"/>
</g>
<!-- Node11&#45;&gt;Node3 -->
<g id="edge15" class="edge">
<title>Node11&#45;&gt;Node3</title>
<path fill="none" stroke="midnightblue" d="M835.58,-183.7C726.76,-177.02 533.65,-162.83 466.5,-143 447.82,-137.48 446.12,-128.73 427.5,-123 327.03,-92.06 204.64,-82.32 131.01,-79.3"/>
<polygon fill="midnightblue" stroke="midnightblue" points="835.64,-187.21 845.84,-184.32 836.07,-180.22 835.64,-187.21"/>
</g>
<!-- Node11&#45;&gt;Node5 -->
<g id="edge22" class="edge">
<title>Node11&#45;&gt;Node5</title>
<path fill="none" stroke="midnightblue" d="M915.33,-169.33C920.92,-132.43 933.2,-51.44 937.21,-25.02"/>
<polygon fill="midnightblue" stroke="midnightblue" points="911.86,-168.85 913.83,-179.26 918.78,-169.9 911.86,-168.85"/>
</g>
<!-- Node11&#45;&gt;Node6 -->
<g id="edge17" class="edge">
<title>Node11&#45;&gt;Node6</title>
<path fill="none" stroke="midnightblue" d="M835.58,-181.45C740.73,-173.21 574.62,-158.3 432.5,-143 428,-142.52 423.34,-141.99 418.66,-141.46"/>
<polygon fill="midnightblue" stroke="midnightblue" points="835.4,-184.94 845.66,-182.32 836,-177.97 835.4,-184.94"/>
</g>
<!-- Node11&#45;&gt;Node7 -->
<g id="edge19" class="edge">
<title>Node11&#45;&gt;Node7</title>
<path fill="none" stroke="midnightblue" d="M835.57,-183.66C717.82,-176.74 485.89,-162.02 289.5,-143 286.41,-142.7 283.25,-142.38 280.05,-142.04"/>
<polygon fill="midnightblue" stroke="midnightblue" points="835.38,-187.15 845.57,-184.24 835.79,-180.16 835.38,-187.15"/>
</g>
<!-- Node11&#45;&gt;Node8 -->
<g id="edge16" class="edge">
<title>Node11&#45;&gt;Node8</title>
<path fill="none" stroke="midnightblue" d="M843.84,-177.98C773.95,-167.78 666.77,-152.14 600.85,-142.52"/>
<polygon fill="midnightblue" stroke="midnightblue" points="843.47,-181.46 853.87,-179.44 844.48,-174.54 843.47,-181.46"/>
</g>
<!-- Node11&#45;&gt;Node9 -->
<g id="edge23" class="edge">
<title>Node11&#45;&gt;Node9</title>
<path fill="none" stroke="midnightblue" d="M907.29,-169.81C902.48,-155.66 894.16,-136.26 881.5,-123 865.17,-105.88 840.87,-93.85 822.6,-86.56"/>
<polygon fill="midnightblue" stroke="midnightblue" points="903.97,-170.92 910.29,-179.42 910.65,-168.83 903.97,-170.92"/>
</g>
<!-- Node12 -->
<g id="node12" class="node">
<title>Node12</title>
<g id="a_node12"><a xlink:href="lin__alg_8c.html" target="_top" xlink:title="Linear algebra with vectors.">
<polygon fill="white" stroke="black" points="628,-123.5 628,-142.5 739,-142.5 739,-123.5 628,-123.5"/>
<text text-anchor="middle" x="683.5" y="-130.5" font-family="Helvetica,sans-Serif" font-size="10.00">QPALM/src/lin_alg.c</text>
</a>
</g>
</g>
<!-- Node11&#45;&gt;Node12 -->
<g id="edge18" class="edge">
<title>Node11&#45;&gt;Node12</title>
<path fill="none" stroke="midnightblue" d="M866.23,-177.09C822.96,-166.89 759.24,-151.86 719.62,-142.52"/>
<polygon fill="midnightblue" stroke="midnightblue" points="865.68,-180.55 876.21,-179.44 867.28,-173.74 865.68,-180.55"/>
</g>
<!-- Node13 -->
<g id="node13" class="node">
<title>Node13</title>
<g id="a_node13"><a xlink:href="newton_8c.html" target="_top" xlink:title="Functions to calculate the semismooth Newton direction.">
<polygon fill="white" stroke="black" points="757,-123.5 757,-142.5 872,-142.5 872,-123.5 757,-123.5"/>
<text text-anchor="middle" x="814.5" y="-130.5" font-family="Helvetica,sans-Serif" font-size="10.00">QPALM/src/newton.c</text>
</a>
</g>
</g>
<!-- Node11&#45;&gt;Node13 -->
<g id="edge20" class="edge">
<title>Node11&#45;&gt;Node13</title>
<path fill="none" stroke="midnightblue" d="M887.91,-174.45C869.82,-164.48 845.77,-151.23 830.21,-142.65"/>
<polygon fill="midnightblue" stroke="midnightblue" points="886.31,-177.56 896.75,-179.32 889.69,-171.43 886.31,-177.56"/>
</g>
<!-- Node11&#45;&gt;Node14 -->
<g id="edge21" class="edge">
<title>Node11&#45;&gt;Node14</title>
<path fill="none" stroke="midnightblue" d="M989.6,-181.23C1083.1,-172.89 1245.46,-157.97 1384.5,-143 1387.37,-142.69 1390.3,-142.37 1393.26,-142.04"/>
<polygon fill="midnightblue" stroke="midnightblue" points="989.03,-177.77 979.38,-182.14 989.65,-184.74 989.03,-177.77"/>
</g>
<!-- Node11&#45;&gt;Node15 -->
<g id="edge24" class="edge">
<title>Node11&#45;&gt;Node15</title>
<path fill="none" stroke="midnightblue" d="M942.95,-175.64C967.91,-165.5 1002.58,-151.43 1024.52,-142.52"/>
<polygon fill="midnightblue" stroke="midnightblue" points="941.52,-172.44 933.57,-179.44 944.16,-178.92 941.52,-172.44"/>
</g>
<!-- Node11&#45;&gt;Node16 -->
<g id="edge25" class="edge">
<title>Node11&#45;&gt;Node16</title>
<path fill="none" stroke="midnightblue" d="M989.39,-182.64C1140.75,-172.1 1475.17,-148.79 1619.26,-138.76"/>
<polygon fill="midnightblue" stroke="midnightblue" points="988.98,-179.16 979.25,-183.35 989.47,-186.15 988.98,-179.16"/>
</g>
<!-- Node17 -->
<g id="node17" class="node">
<title>Node17</title>
<g id="a_node17"><a xlink:href="util_8c.html" target="_top" xlink:title="Utility functions.">
<polygon fill="white" stroke="black" points="1280,-123.5 1280,-142.5 1375,-142.5 1375,-123.5 1280,-123.5"/>
<text text-anchor="middle" x="1327.5" y="-130.5" font-family="Helvetica,sans-Serif" font-size="10.00">QPALM/src/util.c</text>
</a>
</g>
</g>
<!-- Node11&#45;&gt;Node17 -->
<g id="edge26" class="edge">
<title>Node11&#45;&gt;Node17</title>
<path fill="none" stroke="midnightblue" d="M989.09,-179.18C1061.84,-170.62 1174.25,-156.91 1271.5,-143 1274.23,-142.61 1277.03,-142.2 1279.86,-141.77"/>
<polygon fill="midnightblue" stroke="midnightblue" points="988.61,-175.71 979.09,-180.35 989.43,-182.66 988.61,-175.71"/>
</g>
<!-- Node11&#45;&gt;Node18 -->
<g id="edge27" class="edge">
<title>Node11&#45;&gt;Node18</title>
<path fill="none" stroke="midnightblue" d="M968.35,-177.6C1023.15,-167.4 1105.73,-152.02 1156.76,-142.52"/>
<polygon fill="midnightblue" stroke="midnightblue" points="967.64,-174.17 958.45,-179.44 968.92,-181.05 967.64,-174.17"/>
</g>
<!-- Node19&#45;&gt;Node3 -->
<g id="edge33" class="edge">
<title>Node19&#45;&gt;Node3</title>
<path fill="none" stroke="midnightblue" d="M1492.32,-175.34C1520.39,-162.75 1553.47,-142.56 1534.5,-123 1509.74,-97.47 413.43,-82.27 131.2,-78.78"/>
<polygon fill="midnightblue" stroke="midnightblue" points="1490.89,-172.14 1483.08,-179.3 1493.65,-178.58 1490.89,-172.14"/>
</g>
<!-- Node19&#45;&gt;Node5 -->
<g id="edge36" class="edge">
<title>Node19&#45;&gt;Node5</title>
<path fill="none" stroke="midnightblue" d="M1500.45,-176.18C1532.87,-164.77 1569.75,-145.89 1550.5,-123 1479.44,-38.5 1130.56,-21.04 993.72,-17.44"/>
<polygon fill="midnightblue" stroke="midnightblue" points="1498.97,-172.98 1490.6,-179.47 1501.2,-179.62 1498.97,-172.98"/>
</g>
<!-- Node19&#45;&gt;Node6 -->
<g id="edge34" class="edge">
<title>Node19&#45;&gt;Node6</title>
<path fill="none" stroke="midnightblue" d="M1391.01,-185.79C1229.76,-180.39 813.65,-165.32 466.5,-143 451.01,-142 434.29,-140.72 418.73,-139.43"/>
<polygon fill="midnightblue" stroke="midnightblue" points="1391.15,-189.3 1401.26,-186.13 1391.38,-182.3 1391.15,-189.3"/>
</g>
<!-- Node19&#45;&gt;Node14 -->
<g id="edge35" class="edge">
<title>Node19&#45;&gt;Node14</title>
<path fill="none" stroke="midnightblue" d="M1459.5,-168.8C1459.5,-159.91 1459.5,-149.78 1459.5,-142.75"/>
<polygon fill="midnightblue" stroke="midnightblue" points="1456,-169.08 1459.5,-179.08 1463,-169.08 1456,-169.08"/>
</g>
<!-- Node19&#45;&gt;Node16 -->
<g id="edge37" class="edge">
<title>Node19&#45;&gt;Node16</title>
<path fill="none" stroke="midnightblue" d="M1505.57,-177.09C1548.65,-166.89 1612.09,-151.86 1651.54,-142.52"/>
<polygon fill="midnightblue" stroke="midnightblue" points="1504.55,-173.73 1495.63,-179.44 1506.16,-180.54 1504.55,-173.73"/>
</g>
<!-- Node19&#45;&gt;Node17 -->
<g id="edge38" class="edge">
<title>Node19&#45;&gt;Node17</title>
<path fill="none" stroke="midnightblue" d="M1429.28,-175.64C1404.51,-165.5 1370.1,-151.43 1348.32,-142.52"/>
<polygon fill="midnightblue" stroke="midnightblue" points="1428,-178.9 1438.58,-179.44 1430.65,-172.42 1428,-178.9"/>
</g>
</g>
</svg>
