<?xml version="1.0" encoding="UTF-8" standalone="no"?>
<!DOCTYPE svg PUBLIC "-//W3C//DTD SVG 1.1//EN"
 "http://www.w3.org/Graphics/SVG/1.1/DTD/svg11.dtd">
<!-- Generated by graphviz version 2.43.0 (0)
 -->
<!-- Title: QPALM Pages: 1 -->
<svg width="250pt" height="148pt"
 viewBox="0.00 0.00 250.00 148.00" xmlns="http://www.w3.org/2000/svg" xmlns:xlink="http://www.w3.org/1999/xlink">
<g id="graph0" class="graph" transform="scale(1 1) rotate(0) translate(4 144)">
<title>QPALM</title>
<polygon fill="white" stroke="transparent" points="-4,4 -4,-144 246,-144 246,4 -4,4"/>
<g id="clust1" class="cluster">
<title>clusterdir_4541c9856ab846cdae324de488ddad2d</title>
<g id="a_clust1"><a xlink:href="dir_4541c9856ab846cdae324de488ddad2d.html" target="_top">
<polygon fill="#eeeeff" stroke="black" points="8,-8 8,-132 234,-132 234,-8 8,-8"/>
</a>
</g>
</g>
<!-- dir_4541c9856ab846cdae324de488ddad2d -->
<g id="node1" class="node">
<title>dir_4541c9856ab846cdae324de488ddad2d</title>
<text text-anchor="middle" x="199" y="-103.5" font-family="Helvetica,sans-Serif" font-size="10.00">QPALM</text>
</g>
<!-- dir_ab6c2c68d98b9838edd2eccfd20c8bdb -->
<g id="node2" class="node">
<title>dir_ab6c2c68d98b9838edd2eccfd20c8bdb</title>
<g id="a_node2"><a xlink:href="dir_ab6c2c68d98b9838edd2eccfd20c8bdb.html" target="_top" xlink:title="include">
<polygon fill="white" stroke="black" points="109,-52 55,-52 55,-16 109,-16 109,-52"/>
<text text-anchor="middle" x="82" y="-31.5" font-family="Helvetica,sans-Serif" font-size="10.00">include</text>
</a>
</g>
</g>
<!-- dir_8b15fb9d6dffcbc1d5093abc1af0be36 -->
<g id="node3" class="node">
<title>dir_8b15fb9d6dffcbc1d5093abc1af0be36</title>
<g id="a_node3"><a xlink:href="dir_8b15fb9d6dffcbc1d5093abc1af0be36.html" target="_top" xlink:title="interfaces">
<polygon fill="white" stroke="red" points="153.5,-124 88.5,-124 88.5,-88 153.5,-88 153.5,-124"/>
<text text-anchor="middle" x="121" y="-103.5" font-family="Helvetica,sans-Serif" font-size="10.00">interfaces</text>
</a>
</g>
</g>
<!-- dir_8b15fb9d6dffcbc1d5093abc1af0be36&#45;&gt;dir_ab6c2c68d98b9838edd2eccfd20c8bdb -->
<g id="edge1" class="edge">
<title>dir_8b15fb9d6dffcbc1d5093abc1af0be36&#45;&gt;dir_ab6c2c68d98b9838edd2eccfd20c8bdb</title>
<path fill="none" stroke="black" d="M111.36,-87.7C106.87,-79.64 101.44,-69.89 96.48,-60.98"/>
<polygon fill="black" stroke="black" points="99.45,-59.14 91.53,-52.1 93.34,-62.54 99.45,-59.14"/>
<g id="a_edge1&#45;headlabel"><a xlink:href="dir_000005_000004.html" target="_top" xlink:title="3">
<text text-anchor="middle" x="103.68" y="-58.39" font-family="Helvetica,sans-Serif" font-size="10.00">3</text>
</a>
</g>
</g>
<!-- dir_f8b4a62496cf3ede66d0d81285489fca -->
<g id="node4" class="node">
<title>dir_f8b4a62496cf3ede66d0d81285489fca</title>
<g id="a_node4"><a xlink:href="dir_f8b4a62496cf3ede66d0d81285489fca.html" target="_top" xlink:title="src">
<polygon fill="white" stroke="black" points="70,-124 16,-124 16,-88 70,-88 70,-124"/>
<text text-anchor="middle" x="43" y="-103.5" font-family="Helvetica,sans-Serif" font-size="10.00">src</text>
</a>
</g>
</g>
<!-- dir_f8b4a62496cf3ede66d0d81285489fca&#45;&gt;dir_ab6c2c68d98b9838edd2eccfd20c8bdb -->
<g id="edge2" class="edge">
<title>dir_f8b4a62496cf3ede66d0d81285489fca&#45;&gt;dir_ab6c2c68d98b9838edd2eccfd20c8bdb</title>
<path fill="none" stroke="black" d="M52.64,-87.7C57.13,-79.64 62.56,-69.89 67.52,-60.98"/>
<polygon fill="black" stroke="black" points="70.66,-62.54 72.47,-52.1 64.55,-59.14 70.66,-62.54"/>
<g id="a_edge2&#45;headlabel"><a xlink:href="dir_000009_000004.html" target="_top" xlink:title="49">
<text text-anchor="middle" x="71.39" y="-64.57" font-family="Helvetica,sans-Serif" font-size="10.00">49</text>
</a>
</g>
</g>
</g>
</svg>
