<?xml version="1.0" encoding="UTF-8" standalone="no"?>
<!DOCTYPE svg PUBLIC "-//W3C//DTD SVG 1.1//EN"
 "http://www.w3.org/Graphics/SVG/1.1/DTD/svg11.dtd">
<!-- Generated by graphviz version 2.43.0 (0)
 -->
<!-- Title: QPALM/interfaces Pages: 1 -->
<svg width="194pt" height="175pt"
 viewBox="0.00 0.00 194.00 175.00" xmlns="http://www.w3.org/2000/svg" xmlns:xlink="http://www.w3.org/1999/xlink">
<g id="graph0" class="graph" transform="scale(1 1) rotate(0) translate(4 171)">
<title>QPALM/interfaces</title>
<polygon fill="white" stroke="transparent" points="-4,4 -4,-171 190,-171 190,4 -4,4"/>
<g id="clust1" class="cluster">
<title>clusterdir_4541c9856ab846cdae324de488ddad2d</title>
<g id="a_clust1"><a xlink:href="dir_4541c9856ab846cdae324de488ddad2d.html" target="_top" xlink:title="QPALM">
<polygon fill="#ddddee" stroke="black" points="8,-8 8,-159 178,-159 178,-8 8,-8"/>
<text text-anchor="middle" x="93" y="-147" font-family="Helvetica,sans-Serif" font-size="10.00">QPALM</text>
</a>
</g>
</g>
<g id="clust2" class="cluster">
<title>clusterdir_8b15fb9d6dffcbc1d5093abc1af0be36</title>
<g id="a_clust2"><a xlink:href="dir_8b15fb9d6dffcbc1d5093abc1af0be36.html" target="_top">
<polygon fill="#eeeeff" stroke="black" points="16,-80 16,-132 170,-132 170,-80 16,-80"/>
</a>
</g>
</g>
<!-- dir_ab6c2c68d98b9838edd2eccfd20c8bdb -->
<g id="node1" class="node">
<title>dir_ab6c2c68d98b9838edd2eccfd20c8bdb</title>
<g id="a_node1"><a xlink:href="dir_ab6c2c68d98b9838edd2eccfd20c8bdb.html" target="_top" xlink:title="include">
<polygon fill="none" stroke="black" points="78,-52 24,-52 24,-16 78,-16 78,-52"/>
<text text-anchor="middle" x="51" y="-31.5" font-family="Helvetica,sans-Serif" font-size="10.00">include</text>
</a>
</g>
</g>
<!-- dir_8b15fb9d6dffcbc1d5093abc1af0be36 -->
<g id="node2" class="node">
<title>dir_8b15fb9d6dffcbc1d5093abc1af0be36</title>
<text text-anchor="middle" x="129" y="-103.5" font-family="Helvetica,sans-Serif" font-size="10.00">interfaces</text>
</g>
<!-- dir_a7b370e73e7f9092687d114874d9816a -->
<g id="node3" class="node">
<title>dir_a7b370e73e7f9092687d114874d9816a</title>
<g id="a_node3"><a xlink:href="dir_a7b370e73e7f9092687d114874d9816a.html" target="_top" xlink:title="cxx">
<polygon fill="white" stroke="red" points="78,-124 24,-124 24,-88 78,-88 78,-124"/>
<text text-anchor="middle" x="51" y="-103.5" font-family="Helvetica,sans-Serif" font-size="10.00">cxx</text>
</a>
</g>
</g>
<!-- dir_a7b370e73e7f9092687d114874d9816a&#45;&gt;dir_ab6c2c68d98b9838edd2eccfd20c8bdb -->
<g id="edge1" class="edge">
<title>dir_a7b370e73e7f9092687d114874d9816a&#45;&gt;dir_ab6c2c68d98b9838edd2eccfd20c8bdb</title>
<path fill="none" stroke="black" d="M51,-87.7C51,-79.98 51,-70.71 51,-62.11"/>
<polygon fill="black" stroke="black" points="54.5,-62.1 51,-52.1 47.5,-62.1 54.5,-62.1"/>
<g id="a_edge1&#45;headlabel"><a xlink:href="dir_000006_000004.html" target="_top" xlink:title="3">
<text text-anchor="middle" x="57.34" y="-63.2" font-family="Helvetica,sans-Serif" font-size="10.00">3</text>
</a>
</g>
</g>
</g>
</svg>
