<?xml version="1.0" encoding="UTF-8" standalone="no"?>
<!DOCTYPE svg PUBLIC "-//W3C//DTD SVG 1.1//EN"
 "http://www.w3.org/Graphics/SVG/1.1/DTD/svg11.dtd">
<!-- Generated by graphviz version 2.43.0 (0)
 -->
<!-- Title: qpalm_malloc Pages: 1 -->
<svg width="541pt" height="84pt"
 viewBox="0.00 0.00 541.00 83.60" xmlns="http://www.w3.org/2000/svg" xmlns:xlink="http://www.w3.org/1999/xlink">
<g id="graph0" class="graph" transform="scale(1 1) rotate(0) translate(4 79.6)">
<title>qpalm_malloc</title>
<polygon fill="white" stroke="transparent" points="-4,4 -4,-79.6 537,-79.6 537,4 -4,4"/>
<!-- Node1 -->
<g id="node1" class="node">
<title>Node1</title>
<g id="a_node1"><a xlink:title=" ">
<polygon fill="#bfbfbf" stroke="black" points="447,-44 447,-63 533,-63 533,-44 447,-44"/>
<text text-anchor="middle" x="490" y="-51" font-family="Helvetica,sans-Serif" font-size="10.00">qpalm_malloc</text>
</a>
</g>
</g>
<!-- Node2 -->
<g id="node2" class="node">
<title>Node2</title>
<g id="a_node2"><a xlink:href="util_8c.html#a14436938f89e6b14f819c58af7d9f0fe" target="_top" xlink:title="Copy settings creating a new settings structure.">
<polygon fill="white" stroke="black" points="327,-6 327,-25 411,-25 411,-6 327,-6"/>
<text text-anchor="middle" x="369" y="-13" font-family="Helvetica,sans-Serif" font-size="10.00">copy_settings</text>
</a>
</g>
</g>
<!-- Node1&#45;&gt;Node2 -->
<g id="edge1" class="edge">
<title>Node1&#45;&gt;Node2</title>
<path fill="none" stroke="midnightblue" d="M449.29,-40.82C433.21,-35.69 414.96,-29.86 400.02,-25.09"/>
<polygon fill="midnightblue" stroke="midnightblue" points="448.38,-44.2 458.97,-43.91 450.51,-37.53 448.38,-44.2"/>
</g>
<!-- Node3 -->
<g id="node3" class="node">
<title>Node3</title>
<g id="a_node3"><a xlink:href="group__solver-grp.html#gaaff827465b1299909f394de8771baef9" target="_top" xlink:title="Initialize QPALM solver allocating memory.">
<polygon fill="white" stroke="black" points="185.5,-44 185.5,-63 265.5,-63 265.5,-44 185.5,-44"/>
<text text-anchor="middle" x="225.5" y="-51" font-family="Helvetica,sans-Serif" font-size="10.00">qpalm_setup</text>
</a>
</g>
</g>
<!-- Node1&#45;&gt;Node3 -->
<g id="edge5" class="edge">
<title>Node1&#45;&gt;Node3</title>
<path fill="none" stroke="midnightblue" d="M447.49,-65.56C435.79,-68.42 422.99,-71.06 411,-72.5 373.93,-76.95 364.17,-75.98 327,-72.5 306.67,-70.59 284.32,-66.57 265.88,-62.71"/>
<polygon fill="midnightblue" stroke="midnightblue" points="448.62,-68.88 457.44,-63.01 446.88,-62.1 448.62,-68.88"/>
</g>
<!-- Node6 -->
<g id="node6" class="node">
<title>Node6</title>
<g id="a_node6"><a xlink:href="lin__alg_8c.html#a256ef6c2562ed296f3c1bd23bc712f25" target="_top" xlink:title="Copy vector a into output.">
<polygon fill="white" stroke="black" points="338,-44 338,-63 400,-63 400,-44 338,-44"/>
<text text-anchor="middle" x="369" y="-51" font-family="Helvetica,sans-Serif" font-size="10.00">vec_copy</text>
</a>
</g>
</g>
<!-- Node1&#45;&gt;Node6 -->
<g id="edge6" class="edge">
<title>Node1&#45;&gt;Node6</title>
<path fill="none" stroke="midnightblue" d="M436.43,-53.5C424.03,-53.5 411.22,-53.5 400.19,-53.5"/>
<polygon fill="midnightblue" stroke="midnightblue" points="436.71,-57 446.71,-53.5 436.71,-50 436.71,-57"/>
</g>
<!-- Node2&#45;&gt;Node3 -->
<g id="edge2" class="edge">
<title>Node2&#45;&gt;Node3</title>
<path fill="none" stroke="midnightblue" d="M322.4,-27.75C302.89,-32.98 280.46,-39.01 262.2,-43.91"/>
<polygon fill="midnightblue" stroke="midnightblue" points="323.54,-31.06 332.29,-25.09 321.73,-24.3 323.54,-31.06"/>
</g>
<!-- Node4 -->
<g id="node4" class="node">
<title>Node4</title>
<g id="a_node4"><a xlink:href="group__solver-grp.html#ga581cf986cb484ec5721f76b025eda704" target="_top" xlink:title="Update the settings to the new settings.">
<polygon fill="white" stroke="black" points="160,-6 160,-25 291,-25 291,-6 160,-6"/>
<text text-anchor="middle" x="225.5" y="-13" font-family="Helvetica,sans-Serif" font-size="10.00">qpalm_update_settings</text>
</a>
</g>
</g>
<!-- Node2&#45;&gt;Node4 -->
<g id="edge3" class="edge">
<title>Node2&#45;&gt;Node4</title>
<path fill="none" stroke="midnightblue" d="M316.46,-15.5C308.19,-15.5 299.55,-15.5 291.03,-15.5"/>
<polygon fill="midnightblue" stroke="midnightblue" points="316.69,-19 326.69,-15.5 316.69,-12 316.69,-19"/>
</g>
<!-- Node5 -->
<g id="node5" class="node">
<title>Node5</title>
<g id="a_node5"><a xlink:href="classqpalm_1_1Solver.html#a895c0635d6fdd0a3026894697ea6903b" target="_top" xlink:title=" ">
<polygon fill="white" stroke="black" points="0,-0.5 0,-30.5 124,-30.5 124,-0.5 0,-0.5"/>
<text text-anchor="start" x="8" y="-18.5" font-family="Helvetica,sans-Serif" font-size="10.00">qpalm::Solver::update</text>
<text text-anchor="middle" x="62" y="-7.5" font-family="Helvetica,sans-Serif" font-size="10.00">_settings</text>
</a>
</g>
</g>
<!-- Node4&#45;&gt;Node5 -->
<g id="edge4" class="edge">
<title>Node4&#45;&gt;Node5</title>
<path fill="none" stroke="midnightblue" d="M149.73,-15.5C141.15,-15.5 132.48,-15.5 124.1,-15.5"/>
<polygon fill="midnightblue" stroke="midnightblue" points="149.74,-19 159.74,-15.5 149.74,-12 149.74,-19"/>
</g>
<!-- Node6&#45;&gt;Node3 -->
<g id="edge7" class="edge">
<title>Node6&#45;&gt;Node3</title>
<path fill="none" stroke="midnightblue" d="M327.89,-53.5C308.37,-53.5 284.99,-53.5 265.61,-53.5"/>
<polygon fill="midnightblue" stroke="midnightblue" points="327.99,-57 337.99,-53.5 327.99,-50 327.99,-57"/>
</g>
</g>
</svg>
