<?xml version="1.0" encoding="UTF-8" standalone="no"?>
<!DOCTYPE svg PUBLIC "-//W3C//DTD SVG 1.1//EN"
 "http://www.w3.org/Graphics/SVG/1.1/DTD/svg11.dtd">
<!-- Generated by graphviz version 2.43.0 (0)
 -->
<!-- Title: QPALM/include/global_opts.h Pages: 1 -->
<!--zoomable 408 -->
<svg id="main" version="1.1" xmlns="http://www.w3.org/2000/svg" xmlns:xlink="http://www.w3.org/1999/xlink" xml:space="preserve" onload="init(evt)">
<style type="text/css"><![CDATA[
.edge:hover path { stroke: red; }
.edge:hover polygon { stroke: red; fill: red; }
]]></style>
<script type="text/javascript"><![CDATA[
var edges = document.getElementsByTagName('g');
if (edges && edges.length) {
  for (var i=0;i<edges.length;i++) {
    if (edges[i].id.substr(0,4)=='edge') {
      edges[i].setAttribute('class','edge');
    }
  }
}
]]></script>
        <defs>
                <circle id="rim" cx="0" cy="0" r="7"/>
                <circle id="rim2" cx="0" cy="0" r="3.5"/>
                <g id="zoomPlus">
                        <use xlink:href="#rim" fill="#404040">
                                <set attributeName="fill" to="#808080" begin="zoomplus.mouseover" end="zoomplus.mouseout"/>
                        </use>
                        <path d="M-4,0h8M0,-4v8" fill="none" stroke="white" stroke-width="1.5" pointer-events="none"/>
                </g>
                <g id="zoomMin">
                        <use xlink:href="#rim" fill="#404040">
                                <set attributeName="fill" to="#808080" begin="zoomminus.mouseover" end="zoomminus.mouseout"/>
                        </use>
                        <path d="M-4,0h8" fill="none" stroke="white" stroke-width="1.5" pointer-events="none"/>
                </g>
                <g id="dirArrow">
                        <path fill="none" stroke="white" stroke-width="1.5" d="M0,-3.0v7 M-2.5,-0.5L0,-3.0L2.5,-0.5"/>
                </g>
               <g id="resetDef">
                       <use xlink:href="#rim2" fill="#404040">
                               <set attributeName="fill" to="#808080" begin="reset.mouseover" end="reset.mouseout"/>
                       </use>
               </g>
        </defs>

<script type="text/javascript">
var viewWidth = 2422;
var viewHeight = 408;
var sectionId = 'dynsection-1';
</script>
<script xlink:href="svgpan.js"/>
<svg id="graph" class="graph">
<g id="viewport">
<title>QPALM/include/global_opts.h</title>
<polygon fill="white" stroke="transparent" points="-4,4 -4,-404 2417.5,-404 2417.5,4 -4,4"/>
<!-- Node1 -->
<g id="node1" class="node">
<title>Node1</title>
<g id="a_node1"><a xlink:title="Custom memory allocation, print and utility functions, and data types for floats and ints.">
<polygon fill="#bfbfbf" stroke="black" points="1613,-369.5 1613,-399.5 1735,-399.5 1735,-369.5 1613,-369.5"/>
<text text-anchor="start" x="1621" y="-387.5" font-family="Helvetica,sans-Serif" font-size="10.00">QPALM/include/global</text>
<text text-anchor="middle" x="1674" y="-376.5" font-family="Helvetica,sans-Serif" font-size="10.00">_opts.h</text>
</a>
</g>
</g>
<!-- Node2 -->
<g id="node2" class="node">
<title>Node2</title>
<g id="a_node2"><a xlink:href="iteration_8h.html" target="_top" xlink:title="QPALM main solver routines.">
<polygon fill="white" stroke="black" points="1204,-179.5 1204,-198.5 1346,-198.5 1346,-179.5 1204,-179.5"/>
<text text-anchor="middle" x="1275" y="-186.5" font-family="Helvetica,sans-Serif" font-size="10.00">QPALM/include/iteration.h</text>
</a>
</g>
</g>
<!-- Node1&#45;&gt;Node2 -->
<g id="edge1" class="edge">
<title>Node1&#45;&gt;Node2</title>
<path fill="none" stroke="midnightblue" d="M1621.38,-366.25C1594.63,-357.08 1561.79,-345.2 1533,-333 1470.96,-306.71 1455.89,-298.74 1397,-266 1356.22,-243.32 1309.92,-213.22 1287.92,-198.65"/>
<polygon fill="midnightblue" stroke="midnightblue" points="1620.34,-369.59 1630.94,-369.5 1622.6,-362.97 1620.34,-369.59"/>
</g>
<!-- Node3 -->
<g id="node3" class="node">
<title>Node3</title>
<g id="a_node3"><a xlink:href="qpalm_8h.html" target="_top" xlink:title="QPALM main solver API.">
<polygon fill="white" stroke="black" points="1327.5,-67.5 1327.5,-86.5 1458.5,-86.5 1458.5,-67.5 1327.5,-67.5"/>
<text text-anchor="middle" x="1393" y="-74.5" font-family="Helvetica,sans-Serif" font-size="10.00">QPALM/include/qpalm.h</text>
</a>
</g>
</g>
<!-- Node1&#45;&gt;Node3 -->
<g id="edge8" class="edge">
<title>Node1&#45;&gt;Node3</title>
<path fill="none" stroke="midnightblue" d="M1602.78,-381.26C1297.39,-371.18 114,-327.25 114,-251.5 114,-251.5 114,-251.5 114,-188 114,-153.36 126.79,-139.95 157,-123 169.87,-115.78 1073.44,-87.73 1327.31,-79.99"/>
<polygon fill="midnightblue" stroke="midnightblue" points="1602.74,-384.76 1612.85,-381.59 1602.97,-377.76 1602.74,-384.76"/>
</g>
<!-- Node5 -->
<g id="node5" class="node">
<title>Node5</title>
<g id="a_node5"><a xlink:href="qpalm_8c.html" target="_top" xlink:title="QPALM main solver API.">
<polygon fill="white" stroke="black" points="1204,-6 1204,-25 1314,-25 1314,-6 1204,-6"/>
<text text-anchor="middle" x="1259" y="-13" font-family="Helvetica,sans-Serif" font-size="10.00">QPALM/src/qpalm.c</text>
</a>
</g>
</g>
<!-- Node1&#45;&gt;Node5 -->
<g id="edge76" class="edge">
<title>Node1&#45;&gt;Node5</title>
<path fill="none" stroke="midnightblue" d="M1602.75,-383C1358.68,-380.95 557.38,-371.39 303,-333 165.11,-312.19 0,-390.95 0,-251.5 0,-251.5 0,-251.5 0,-132 0,-41.49 104.05,-83.75 193,-67 389.76,-29.96 1014.07,-19.47 1203.79,-17.1"/>
<polygon fill="midnightblue" stroke="midnightblue" points="1602.89,-386.5 1612.92,-383.08 1602.95,-379.5 1602.89,-386.5"/>
</g>
<!-- Node7 -->
<g id="node7" class="node">
<title>Node7</title>
<g id="a_node7"><a xlink:href="termination_8c.html" target="_top" xlink:title="Routines to check the termination and infeasibility criteria.">
<polygon fill="white" stroke="black" points="1804,-123.5 1804,-142.5 1940,-142.5 1940,-123.5 1804,-123.5"/>
<text text-anchor="middle" x="1872" y="-130.5" font-family="Helvetica,sans-Serif" font-size="10.00">QPALM/src/termination.c</text>
</a>
</g>
</g>
<!-- Node1&#45;&gt;Node7 -->
<g id="edge77" class="edge">
<title>Node1&#45;&gt;Node7</title>
<path fill="none" stroke="midnightblue" d="M1745.63,-379.25C1876.61,-369.7 2145.65,-341.15 2193,-266 2200.34,-254.34 2202.25,-245.21 2193,-235 2138.43,-174.76 1883.57,-259.24 1829,-199 1812.47,-180.75 1841.17,-155.6 1859.15,-142.58"/>
<polygon fill="midnightblue" stroke="midnightblue" points="1745.03,-375.79 1735.3,-379.99 1745.52,-382.77 1745.03,-375.79"/>
</g>
<!-- Node8 -->
<g id="node8" class="node">
<title>Node8</title>
<g id="a_node8"><a xlink:href="solver__interface_8h.html" target="_top" xlink:title="Interface and wrapper to matrix/factorization (ladel) functions.">
<polygon fill="white" stroke="black" points="796,-235.5 796,-265.5 918,-265.5 918,-235.5 796,-235.5"/>
<text text-anchor="start" x="804" y="-253.5" font-family="Helvetica,sans-Serif" font-size="10.00">QPALM/include/solver</text>
<text text-anchor="middle" x="857" y="-242.5" font-family="Helvetica,sans-Serif" font-size="10.00">_interface.h</text>
</a>
</g>
</g>
<!-- Node1&#45;&gt;Node8 -->
<g id="edge9" class="edge">
<title>Node1&#45;&gt;Node8</title>
<path fill="none" stroke="midnightblue" d="M1602.58,-381.6C1497.03,-377.75 1293.6,-366.31 1124,-333 1040.3,-316.56 945.49,-284.21 894.4,-265.59"/>
<polygon fill="midnightblue" stroke="midnightblue" points="1602.67,-385.11 1612.79,-381.96 1602.92,-378.11 1602.67,-385.11"/>
</g>
<!-- Node15 -->
<g id="node15" class="node">
<title>Node15</title>
<g id="a_node15"><a xlink:href="nonconvex_8c.html" target="_top" xlink:title="Routines to deal with nonconvex QPs.">
<polygon fill="white" stroke="black" points="1654,-123.5 1654,-142.5 1786,-142.5 1786,-123.5 1654,-123.5"/>
<text text-anchor="middle" x="1720" y="-130.5" font-family="Helvetica,sans-Serif" font-size="10.00">QPALM/src/nonconvex.c</text>
</a>
</g>
</g>
<!-- Node1&#45;&gt;Node15 -->
<g id="edge75" class="edge">
<title>Node1&#45;&gt;Node15</title>
<path fill="none" stroke="midnightblue" d="M1678.45,-359.36C1688.37,-305.56 1711.92,-177.81 1718.35,-142.93"/>
<polygon fill="midnightblue" stroke="midnightblue" points="1674.98,-358.9 1676.6,-369.37 1681.86,-360.17 1674.98,-358.9"/>
</g>
<!-- Node17 -->
<g id="node17" class="node">
<title>Node17</title>
<g id="a_node17"><a xlink:href="util_8c.html" target="_top" xlink:title="Utility functions.">
<polygon fill="white" stroke="black" points="2034.5,-123.5 2034.5,-142.5 2129.5,-142.5 2129.5,-123.5 2034.5,-123.5"/>
<text text-anchor="middle" x="2082" y="-130.5" font-family="Helvetica,sans-Serif" font-size="10.00">QPALM/src/util.c</text>
</a>
</g>
</g>
<!-- Node1&#45;&gt;Node17 -->
<g id="edge78" class="edge">
<title>Node1&#45;&gt;Node17</title>
<path fill="none" stroke="midnightblue" d="M1745.17,-379.89C1853.1,-373.68 2052.65,-359.03 2119,-333 2165.76,-314.66 2187.34,-310.82 2210,-266 2228.66,-229.09 2207.53,-206.9 2177,-179 2158,-161.64 2131.11,-149.75 2110.79,-142.58"/>
<polygon fill="midnightblue" stroke="midnightblue" points="1744.8,-376.41 1735.02,-380.47 1745.2,-383.4 1744.8,-376.41"/>
</g>
<!-- Node19 -->
<g id="node19" class="node">
<title>Node19</title>
<g id="a_node19"><a xlink:href="types_8h.html" target="_top" xlink:title="Internal data structures used in QPALM.">
<polygon fill="white" stroke="black" points="1542,-308 1542,-327 1670,-327 1670,-308 1542,-308"/>
<text text-anchor="middle" x="1606" y="-315" font-family="Helvetica,sans-Serif" font-size="10.00">QPALM/include/types.h</text>
</a>
</g>
</g>
<!-- Node1&#45;&gt;Node19 -->
<g id="edge31" class="edge">
<title>Node1&#45;&gt;Node19</title>
<path fill="none" stroke="midnightblue" d="M1651.86,-362.34C1639.37,-350.4 1624.45,-336.14 1615.1,-327.19"/>
<polygon fill="midnightblue" stroke="midnightblue" points="1649.6,-365.02 1659.25,-369.4 1654.43,-359.96 1649.6,-365.02"/>
</g>
<!-- Node27 -->
<g id="node27" class="node">
<title>Node27</title>
<g id="a_node27"><a xlink:href="sparse_8hpp.html" target="_top" xlink:title=" ">
<polygon fill="white" stroke="black" points="1922,-302.5 1922,-332.5 2044,-332.5 2044,-302.5 1922,-302.5"/>
<text text-anchor="start" x="1930" y="-320.5" font-family="Helvetica,sans-Serif" font-size="10.00">QPALM/interfaces/cxx</text>
<text text-anchor="middle" x="1983" y="-309.5" font-family="Helvetica,sans-Serif" font-size="10.00">/include/sparse.hpp</text>
</a>
</g>
</g>
<!-- Node1&#45;&gt;Node27 -->
<g id="edge71" class="edge">
<title>Node1&#45;&gt;Node27</title>
<path fill="none" stroke="midnightblue" d="M1745.13,-368.54C1798.56,-357.3 1870.97,-342.07 1921.81,-331.37"/>
<polygon fill="midnightblue" stroke="midnightblue" points="1744.11,-365.17 1735.05,-370.66 1745.55,-372.02 1744.11,-365.17"/>
</g>
<!-- Node29 -->
<g id="node29" class="node">
<title>Node29</title>
<g id="a_node29"><a xlink:href="global__opts_8c.html" target="_top" xlink:title=" ">
<polygon fill="white" stroke="black" points="2278.5,-308 2278.5,-327 2413.5,-327 2413.5,-308 2278.5,-308"/>
<text text-anchor="middle" x="2346" y="-315" font-family="Helvetica,sans-Serif" font-size="10.00">QPALM/src/global_opts.c</text>
</a>
</g>
</g>
<!-- Node1&#45;&gt;Node29 -->
<g id="edge74" class="edge">
<title>Node1&#45;&gt;Node29</title>
<path fill="none" stroke="midnightblue" d="M1745.44,-379.46C1856.62,-372.7 2077.67,-357.4 2264,-333 2276.33,-331.39 2289.63,-329.22 2301.85,-327.05"/>
<polygon fill="midnightblue" stroke="midnightblue" points="1745.12,-375.97 1735.35,-380.07 1745.54,-382.96 1745.12,-375.97"/>
</g>
<!-- Node2&#45;&gt;Node3 -->
<g id="edge2" class="edge">
<title>Node2&#45;&gt;Node3</title>
<path fill="none" stroke="midnightblue" d="M1354.81,-177.8C1396.83,-170.62 1442.25,-159.34 1455,-143 1471.99,-121.24 1435.85,-98.5 1411.92,-86.53"/>
<polygon fill="midnightblue" stroke="midnightblue" points="1354.09,-174.37 1344.79,-179.45 1355.23,-181.28 1354.09,-174.37"/>
</g>
<!-- Node2&#45;&gt;Node5 -->
<g id="edge6" class="edge">
<title>Node2&#45;&gt;Node5</title>
<path fill="none" stroke="midnightblue" d="M1277.04,-169.22C1277.82,-161.16 1278.62,-151.63 1279,-143 1279.39,-134.12 1279.82,-131.85 1279,-123 1275.58,-86.29 1265.67,-43.36 1261.22,-25.26"/>
<polygon fill="midnightblue" stroke="midnightblue" points="1273.54,-169.08 1275.99,-179.39 1280.5,-169.8 1273.54,-169.08"/>
</g>
<!-- Node6 -->
<g id="node6" class="node">
<title>Node6</title>
<g id="a_node6"><a xlink:href="iteration_8c.html" target="_top" xlink:title="QPALM main solver routines.">
<polygon fill="white" stroke="black" points="1150,-123.5 1150,-142.5 1270,-142.5 1270,-123.5 1150,-123.5"/>
<text text-anchor="middle" x="1210" y="-130.5" font-family="Helvetica,sans-Serif" font-size="10.00">QPALM/src/iteration.c</text>
</a>
</g>
</g>
<!-- Node2&#45;&gt;Node6 -->
<g id="edge5" class="edge">
<title>Node2&#45;&gt;Node6</title>
<path fill="none" stroke="midnightblue" d="M1256.73,-172.82C1245.08,-163.15 1230.4,-150.95 1220.63,-142.83"/>
<polygon fill="midnightblue" stroke="midnightblue" points="1254.63,-175.63 1264.56,-179.32 1259.1,-170.24 1254.63,-175.63"/>
</g>
<!-- Node2&#45;&gt;Node7 -->
<g id="edge7" class="edge">
<title>Node2&#45;&gt;Node7</title>
<path fill="none" stroke="midnightblue" d="M1356.13,-178.92C1551.97,-160.1 1602.99,-162.07 1795,-143 1797.95,-142.71 1800.96,-142.4 1803.99,-142.08"/>
<polygon fill="midnightblue" stroke="midnightblue" points="1355.71,-175.44 1346.09,-179.89 1356.38,-182.41 1355.71,-175.44"/>
</g>
<!-- Node4 -->
<g id="node4" class="node">
<title>Node4</title>
<g id="a_node4"><a xlink:href="qpalm_8cpp.html" target="_top" xlink:title=" ">
<polygon fill="white" stroke="black" points="1370,-0.5 1370,-30.5 1492,-30.5 1492,-0.5 1370,-0.5"/>
<text text-anchor="start" x="1378" y="-18.5" font-family="Helvetica,sans-Serif" font-size="10.00">QPALM/interfaces/cxx</text>
<text text-anchor="middle" x="1431" y="-7.5" font-family="Helvetica,sans-Serif" font-size="10.00">/src/qpalm.cpp</text>
</a>
</g>
</g>
<!-- Node3&#45;&gt;Node4 -->
<g id="edge3" class="edge">
<title>Node3&#45;&gt;Node4</title>
<path fill="none" stroke="midnightblue" d="M1403.88,-58.96C1409.63,-49.96 1416.61,-39.03 1422.04,-30.52"/>
<polygon fill="midnightblue" stroke="midnightblue" points="1400.88,-57.16 1398.44,-67.48 1406.78,-60.93 1400.88,-57.16"/>
</g>
<!-- Node3&#45;&gt;Node5 -->
<g id="edge4" class="edge">
<title>Node3&#45;&gt;Node5</title>
<path fill="none" stroke="midnightblue" d="M1364.46,-63.33C1338.45,-51.78 1300.74,-35.03 1278.16,-25.01"/>
<polygon fill="midnightblue" stroke="midnightblue" points="1363.24,-66.62 1373.8,-67.48 1366.08,-60.22 1363.24,-66.62"/>
</g>
<!-- Node8&#45;&gt;Node3 -->
<g id="edge27" class="edge">
<title>Node8&#45;&gt;Node3</title>
<path fill="none" stroke="midnightblue" d="M785.92,-247.44C593.63,-240.65 83.38,-213.91 171,-123 176.06,-117.75 1073.88,-88.32 1327.17,-80.12"/>
<polygon fill="midnightblue" stroke="midnightblue" points="785.81,-250.94 795.93,-247.79 786.05,-243.94 785.81,-250.94"/>
</g>
<!-- Node8&#45;&gt;Node5 -->
<g id="edge29" class="edge">
<title>Node8&#45;&gt;Node5</title>
<path fill="none" stroke="midnightblue" d="M785.74,-247.66C625.42,-242.99 246.42,-228.91 197,-199 165.19,-179.74 142.93,-154.93 162,-123 188.92,-77.93 215.44,-81.12 266,-67 444.52,-17.14 1022.3,-15.39 1203.87,-16.13"/>
<polygon fill="midnightblue" stroke="midnightblue" points="785.88,-251.16 795.98,-247.95 786.08,-244.16 785.88,-251.16"/>
</g>
<!-- Node8&#45;&gt;Node6 -->
<g id="edge28" class="edge">
<title>Node8&#45;&gt;Node6</title>
<path fill="none" stroke="midnightblue" d="M928.4,-244.06C982.49,-237.99 1057.71,-225.3 1119,-199 1152.19,-184.76 1185.19,-156.9 1200.75,-142.73"/>
<polygon fill="midnightblue" stroke="midnightblue" points="927.78,-240.61 918.21,-245.15 928.53,-247.57 927.78,-240.61"/>
</g>
<!-- Node9 -->
<g id="node9" class="node">
<title>Node9</title>
<g id="a_node9"><a xlink:href="lin__alg_8h.html" target="_top" xlink:title="Linear algebra with vectors.">
<polygon fill="white" stroke="black" points="790.5,-179.5 790.5,-198.5 923.5,-198.5 923.5,-179.5 790.5,-179.5"/>
<text text-anchor="middle" x="857" y="-186.5" font-family="Helvetica,sans-Serif" font-size="10.00">QPALM/include/lin_alg.h</text>
</a>
</g>
</g>
<!-- Node8&#45;&gt;Node9 -->
<g id="edge10" class="edge">
<title>Node8&#45;&gt;Node9</title>
<path fill="none" stroke="midnightblue" d="M857,-225.29C857,-215.86 857,-205.65 857,-198.66"/>
<polygon fill="midnightblue" stroke="midnightblue" points="853.5,-225.4 857,-235.4 860.5,-225.4 853.5,-225.4"/>
</g>
<!-- Node16 -->
<g id="node16" class="node">
<title>Node16</title>
<g id="a_node16"><a xlink:href="solver__interface_8c.html" target="_top" xlink:title="Interface and wrapper to matrix/factorization (ladel) functions.">
<polygon fill="white" stroke="black" points="180,-123.5 180,-142.5 338,-142.5 338,-123.5 180,-123.5"/>
<text text-anchor="middle" x="259" y="-130.5" font-family="Helvetica,sans-Serif" font-size="10.00">QPALM/src/solver_interface.c</text>
</a>
</g>
</g>
<!-- Node8&#45;&gt;Node16 -->
<g id="edge30" class="edge">
<title>Node8&#45;&gt;Node16</title>
<path fill="none" stroke="midnightblue" d="M785.57,-245.57C670.54,-238.64 449.63,-222.71 375,-199 333.64,-185.86 290.47,-156.96 270.45,-142.54"/>
<polygon fill="midnightblue" stroke="midnightblue" points="785.5,-249.07 795.69,-246.17 785.91,-242.08 785.5,-249.07"/>
</g>
<!-- Node9&#45;&gt;Node3 -->
<g id="edge11" class="edge">
<title>Node9&#45;&gt;Node3</title>
<path fill="none" stroke="midnightblue" d="M822.3,-175.57C793.13,-163.3 758.99,-143.45 778,-123 796.51,-103.09 1172.83,-86.44 1327.5,-80.42"/>
<polygon fill="midnightblue" stroke="midnightblue" points="821.34,-178.96 831.92,-179.43 823.95,-172.46 821.34,-178.96"/>
</g>
<!-- Node9&#45;&gt;Node5 -->
<g id="edge21" class="edge">
<title>Node9&#45;&gt;Node5</title>
<path fill="none" stroke="midnightblue" d="M780.37,-185.08C713.46,-180.74 623.6,-169.91 601,-143 595.28,-136.19 595.25,-129.78 601,-123 678.39,-31.78 1059.95,-18.44 1203.9,-16.68"/>
<polygon fill="midnightblue" stroke="midnightblue" points="780.29,-188.59 790.49,-185.7 780.72,-181.6 780.29,-188.59"/>
</g>
<!-- Node9&#45;&gt;Node6 -->
<g id="edge16" class="edge">
<title>Node9&#45;&gt;Node6</title>
<path fill="none" stroke="midnightblue" d="M922.92,-177.92C989.6,-167.71 1091.57,-152.12 1154.33,-142.52"/>
<polygon fill="midnightblue" stroke="midnightblue" points="922.29,-174.47 912.93,-179.44 923.35,-181.39 922.29,-174.47"/>
</g>
<!-- Node9&#45;&gt;Node7 -->
<g id="edge24" class="edge">
<title>Node9&#45;&gt;Node7</title>
<path fill="none" stroke="midnightblue" d="M933.83,-181.16C943.97,-180.37 954.23,-179.62 964,-179 1332.93,-155.5 1426.5,-172.48 1795,-143 1797.82,-142.77 1800.69,-142.53 1803.59,-142.26"/>
<polygon fill="midnightblue" stroke="midnightblue" points="933.44,-177.68 923.75,-181.96 934,-184.66 933.44,-177.68"/>
</g>
<!-- Node10 -->
<g id="node10" class="node">
<title>Node10</title>
<g id="a_node10"><a xlink:href="scaling_8h.html" target="_top" xlink:title="Problem data scaling during setup.">
<polygon fill="white" stroke="black" points="958.5,-123.5 958.5,-142.5 1093.5,-142.5 1093.5,-123.5 958.5,-123.5"/>
<text text-anchor="middle" x="1026" y="-130.5" font-family="Helvetica,sans-Serif" font-size="10.00">QPALM/include/scaling.h</text>
</a>
</g>
</g>
<!-- Node9&#45;&gt;Node10 -->
<g id="edge12" class="edge">
<title>Node9&#45;&gt;Node10</title>
<path fill="none" stroke="midnightblue" d="M893.6,-176.3C925.45,-166.13 970.84,-151.62 999.35,-142.52"/>
<polygon fill="midnightblue" stroke="midnightblue" points="892.24,-173.07 883.78,-179.44 894.37,-179.73 892.24,-173.07"/>
</g>
<!-- Node11 -->
<g id="node11" class="node">
<title>Node11</title>
<g id="a_node11"><a xlink:href="scaling_8c.html" target="_top" xlink:title="Problem data scaling during setup.">
<polygon fill="white" stroke="black" points="963.5,-67.5 963.5,-86.5 1076.5,-86.5 1076.5,-67.5 963.5,-67.5"/>
<text text-anchor="middle" x="1020" y="-74.5" font-family="Helvetica,sans-Serif" font-size="10.00">QPALM/src/scaling.c</text>
</a>
</g>
</g>
<!-- Node9&#45;&gt;Node11 -->
<g id="edge22" class="edge">
<title>Node9&#45;&gt;Node11</title>
<path fill="none" stroke="midnightblue" d="M780.27,-184.49C716.01,-179.75 631.44,-168.69 610,-143 604.31,-136.17 604.07,-129.62 610,-123 633.15,-97.17 856.11,-84.66 963.17,-80.11"/>
<polygon fill="midnightblue" stroke="midnightblue" points="780.18,-187.99 790.4,-185.2 780.66,-181.01 780.18,-187.99"/>
</g>
<!-- Node12 -->
<g id="node12" class="node">
<title>Node12</title>
<g id="a_node12"><a xlink:href="lin__alg_8c.html" target="_top" xlink:title="Linear algebra with vectors.">
<polygon fill="white" stroke="black" points="618.5,-123.5 618.5,-142.5 729.5,-142.5 729.5,-123.5 618.5,-123.5"/>
<text text-anchor="middle" x="674" y="-130.5" font-family="Helvetica,sans-Serif" font-size="10.00">QPALM/src/lin_alg.c</text>
</a>
</g>
</g>
<!-- Node9&#45;&gt;Node12 -->
<g id="edge17" class="edge">
<title>Node9&#45;&gt;Node12</title>
<path fill="none" stroke="midnightblue" d="M818.26,-176.57C783.74,-166.38 733.99,-151.7 702.86,-142.52"/>
<polygon fill="midnightblue" stroke="midnightblue" points="817.42,-179.97 828,-179.44 819.4,-173.26 817.42,-179.97"/>
</g>
<!-- Node13 -->
<g id="node13" class="node">
<title>Node13</title>
<g id="a_node13"><a xlink:href="linesearch_8c.html" target="_top" xlink:title="Routines to perform exact or backtracking linesearch.">
<polygon fill="white" stroke="black" points="394.5,-123.5 394.5,-142.5 523.5,-142.5 523.5,-123.5 394.5,-123.5"/>
<text text-anchor="middle" x="459" y="-130.5" font-family="Helvetica,sans-Serif" font-size="10.00">QPALM/src/linesearch.c</text>
</a>
</g>
</g>
<!-- Node9&#45;&gt;Node13 -->
<g id="edge18" class="edge">
<title>Node9&#45;&gt;Node13</title>
<path fill="none" stroke="midnightblue" d="M783.61,-178.04C708.44,-167.84 592.82,-152.16 521.77,-142.52"/>
<polygon fill="midnightblue" stroke="midnightblue" points="783.56,-181.57 793.94,-179.44 784.5,-174.63 783.56,-181.57"/>
</g>
<!-- Node14 -->
<g id="node14" class="node">
<title>Node14</title>
<g id="a_node14"><a xlink:href="newton_8c.html" target="_top" xlink:title="Functions to calculate the semismooth Newton direction.">
<polygon fill="white" stroke="black" points="786.5,-123.5 786.5,-142.5 901.5,-142.5 901.5,-123.5 786.5,-123.5"/>
<text text-anchor="middle" x="844" y="-130.5" font-family="Helvetica,sans-Serif" font-size="10.00">QPALM/src/newton.c</text>
</a>
</g>
</g>
<!-- Node9&#45;&gt;Node14 -->
<g id="edge19" class="edge">
<title>Node9&#45;&gt;Node14</title>
<path fill="none" stroke="midnightblue" d="M852.45,-169.1C850.29,-160.14 847.82,-149.86 846.11,-142.75"/>
<polygon fill="midnightblue" stroke="midnightblue" points="849.11,-170.18 854.85,-179.08 855.92,-168.54 849.11,-170.18"/>
</g>
<!-- Node9&#45;&gt;Node15 -->
<g id="edge20" class="edge">
<title>Node9&#45;&gt;Node15</title>
<path fill="none" stroke="midnightblue" d="M933.84,-181.31C943.98,-180.49 954.24,-179.7 964,-179 1218.91,-160.7 1522.56,-144.24 1653.98,-137.39"/>
<polygon fill="midnightblue" stroke="midnightblue" points="933.44,-177.83 923.76,-182.13 934.01,-184.81 933.44,-177.83"/>
</g>
<!-- Node9&#45;&gt;Node16 -->
<g id="edge23" class="edge">
<title>Node9&#45;&gt;Node16</title>
<path fill="none" stroke="midnightblue" d="M780.4,-181.08C666.53,-170.8 453.67,-151.58 338.28,-141.16"/>
<polygon fill="midnightblue" stroke="midnightblue" points="780.16,-184.58 790.43,-181.99 780.79,-177.6 780.16,-184.58"/>
</g>
<!-- Node9&#45;&gt;Node17 -->
<g id="edge25" class="edge">
<title>Node9&#45;&gt;Node17</title>
<path fill="none" stroke="midnightblue" d="M933.83,-181.1C943.97,-180.32 954.23,-179.59 964,-179 1401.28,-152.63 1511.52,-165.79 1949,-143 1977.31,-141.53 2008.98,-139.4 2034.31,-137.59"/>
<polygon fill="midnightblue" stroke="midnightblue" points="933.44,-177.62 923.75,-181.89 933.99,-184.59 933.44,-177.62"/>
</g>
<!-- Node18 -->
<g id="node18" class="node">
<title>Node18</title>
<g id="a_node18"><a xlink:href="validate_8c.html" target="_top" xlink:title="Validation of the user provided settings and data.">
<polygon fill="white" stroke="black" points="1326.5,-123.5 1326.5,-142.5 1445.5,-142.5 1445.5,-123.5 1326.5,-123.5"/>
<text text-anchor="middle" x="1386" y="-130.5" font-family="Helvetica,sans-Serif" font-size="10.00">QPALM/src/validate.c</text>
</a>
</g>
</g>
<!-- Node9&#45;&gt;Node18 -->
<g id="edge26" class="edge">
<title>Node9&#45;&gt;Node18</title>
<path fill="none" stroke="midnightblue" d="M933.75,-180.16C1040.1,-169.31 1230.03,-149.92 1326.39,-140.08"/>
<polygon fill="midnightblue" stroke="midnightblue" points="933.32,-176.69 923.73,-181.19 934.03,-183.65 933.32,-176.69"/>
</g>
<!-- Node10&#45;&gt;Node3 -->
<g id="edge13" class="edge">
<title>Node10&#45;&gt;Node3</title>
<path fill="none" stroke="midnightblue" d="M1094.1,-121.98C1163.43,-111.78 1269.73,-96.14 1335.12,-86.52"/>
<polygon fill="midnightblue" stroke="midnightblue" points="1093.54,-118.53 1084.15,-123.44 1094.56,-125.45 1093.54,-118.53"/>
</g>
<!-- Node10&#45;&gt;Node5 -->
<g id="edge14" class="edge">
<title>Node10&#45;&gt;Node5</title>
<path fill="none" stroke="midnightblue" d="M1052.7,-118.77C1100.91,-94.87 1201.22,-45.14 1241.6,-25.12"/>
<polygon fill="midnightblue" stroke="midnightblue" points="1050.92,-115.74 1043.51,-123.32 1054.03,-122.01 1050.92,-115.74"/>
</g>
<!-- Node10&#45;&gt;Node11 -->
<g id="edge15" class="edge">
<title>Node10&#45;&gt;Node11</title>
<path fill="none" stroke="midnightblue" d="M1023.9,-113.1C1022.9,-104.14 1021.76,-93.86 1020.97,-86.75"/>
<polygon fill="midnightblue" stroke="midnightblue" points="1020.43,-113.53 1025.01,-123.08 1027.38,-112.76 1020.43,-113.53"/>
</g>
<!-- Node19&#45;&gt;Node2 -->
<g id="edge32" class="edge">
<title>Node19&#45;&gt;Node2</title>
<path fill="none" stroke="midnightblue" d="M1573.94,-304.25C1507.24,-278.76 1354.99,-220.57 1297.52,-198.61"/>
<polygon fill="midnightblue" stroke="midnightblue" points="1572.92,-307.6 1583.51,-307.9 1575.42,-301.07 1572.92,-307.6"/>
</g>
<!-- Node19&#45;&gt;Node3 -->
<g id="edge49" class="edge">
<title>Node19&#45;&gt;Node3</title>
<path fill="none" stroke="midnightblue" d="M1680.39,-310.96C1734.72,-304.86 1809.21,-292.19 1870,-266 1891.64,-256.68 1891.12,-243.74 1913,-235 1967.98,-213.03 2138.06,-243.61 2177,-199 2182.85,-192.3 2178.65,-187.73 2177,-179 2172.02,-152.73 2176.64,-138.7 2155,-123 2099.36,-82.63 1633.29,-78.14 1458.7,-77.89"/>
<polygon fill="midnightblue" stroke="midnightblue" points="1679.72,-307.51 1670.15,-312.05 1680.46,-314.47 1679.72,-307.51"/>
</g>
<!-- Node19&#45;&gt;Node8 -->
<g id="edge51" class="edge">
<title>Node19&#45;&gt;Node8</title>
<path fill="none" stroke="midnightblue" d="M1531.51,-312.93C1408.9,-306.57 1157,-291.52 945,-266 936.39,-264.96 927.34,-263.69 918.45,-262.32"/>
<polygon fill="midnightblue" stroke="midnightblue" points="1531.38,-316.42 1541.54,-313.44 1531.74,-309.43 1531.38,-316.42"/>
</g>
<!-- Node19&#45;&gt;Node9 -->
<g id="edge33" class="edge">
<title>Node19&#45;&gt;Node9</title>
<path fill="none" stroke="midnightblue" d="M1531.34,-313.9C1431.65,-309.33 1249.99,-297.17 1098,-266 1015.27,-249.03 920.69,-214.61 878.86,-198.58"/>
<polygon fill="midnightblue" stroke="midnightblue" points="1531.46,-317.4 1541.61,-314.35 1531.77,-310.41 1531.46,-317.4"/>
</g>
<!-- Node19&#45;&gt;Node10 -->
<g id="edge50" class="edge">
<title>Node19&#45;&gt;Node10</title>
<path fill="none" stroke="midnightblue" d="M1556.63,-305.79C1514.09,-296.27 1451.16,-281.5 1397,-266 1306.06,-239.98 1284.05,-230.88 1195,-199 1141.43,-179.83 1079.13,-155.27 1047.22,-142.53"/>
<polygon fill="midnightblue" stroke="midnightblue" points="1555.93,-309.22 1566.45,-307.98 1557.45,-302.39 1555.93,-309.22"/>
</g>
<!-- Node19&#45;&gt;Node15 -->
<g id="edge69" class="edge">
<title>Node19&#45;&gt;Node15</title>
<path fill="none" stroke="midnightblue" d="M1618.07,-299.68C1634.05,-277.17 1662.79,-235.81 1685,-199 1696.92,-179.25 1709.38,-155.14 1715.73,-142.56"/>
<polygon fill="midnightblue" stroke="midnightblue" points="1615.2,-297.67 1612.25,-307.85 1620.9,-301.74 1615.2,-297.67"/>
</g>
<!-- Node19&#45;&gt;Node17 -->
<g id="edge70" class="edge">
<title>Node19&#45;&gt;Node17</title>
<path fill="none" stroke="midnightblue" d="M1648.85,-305.21C1682.1,-295.98 1729.09,-281.89 1769,-266 1797.99,-254.46 1802.82,-246.07 1832,-235 1888.45,-213.58 1907.02,-221.62 1963,-199 1968.35,-196.84 2035.26,-159.89 2066.33,-142.68"/>
<polygon fill="midnightblue" stroke="midnightblue" points="1647.71,-301.89 1638.99,-307.92 1649.56,-308.64 1647.71,-301.89"/>
</g>
<!-- Node20 -->
<g id="node20" class="node">
<title>Node20</title>
<g id="a_node20"><a xlink:href="linesearch_8h.html" target="_top" xlink:title="Routines to perform exact linesearch.">
<polygon fill="white" stroke="black" points="383.5,-179.5 383.5,-198.5 534.5,-198.5 534.5,-179.5 383.5,-179.5"/>
<text text-anchor="middle" x="459" y="-186.5" font-family="Helvetica,sans-Serif" font-size="10.00">QPALM/include/linesearch.h</text>
</a>
</g>
</g>
<!-- Node19&#45;&gt;Node20 -->
<g id="edge34" class="edge">
<title>Node19&#45;&gt;Node20</title>
<path fill="none" stroke="midnightblue" d="M1531.43,-314.64C1388.43,-310.38 1080.9,-297.75 980,-266 953.97,-257.81 952.97,-243.39 927,-235 856.03,-212.07 647.89,-198.94 534.59,-193.31"/>
<polygon fill="midnightblue" stroke="midnightblue" points="1531.75,-318.15 1541.85,-314.94 1531.95,-311.15 1531.75,-318.15"/>
</g>
<!-- Node21 -->
<g id="node21" class="node">
<title>Node21</title>
<g id="a_node21"><a xlink:href="newton_8h.html" target="_top" xlink:title="Functions to calculate the semismooth Newton direction.">
<polygon fill="white" stroke="black" points="972.5,-179.5 972.5,-198.5 1109.5,-198.5 1109.5,-179.5 972.5,-179.5"/>
<text text-anchor="middle" x="1041" y="-186.5" font-family="Helvetica,sans-Serif" font-size="10.00">QPALM/include/newton.h</text>
</a>
</g>
</g>
<!-- Node19&#45;&gt;Node21 -->
<g id="edge39" class="edge">
<title>Node19&#45;&gt;Node21</title>
<path fill="none" stroke="midnightblue" d="M1531.78,-312.06C1423.63,-304.92 1228.41,-289.27 1162,-266 1116.82,-250.17 1070.99,-215.01 1051.17,-198.67"/>
<polygon fill="midnightblue" stroke="midnightblue" points="1531.76,-315.57 1541.96,-312.73 1532.21,-308.58 1531.76,-315.57"/>
</g>
<!-- Node22 -->
<g id="node22" class="node">
<title>Node22</title>
<g id="a_node22"><a xlink:href="nonconvex_8h.html" target="_top" xlink:title="Routines to deal with nonconvex QPs.">
<polygon fill="white" stroke="black" points="1364,-179.5 1364,-198.5 1518,-198.5 1518,-179.5 1364,-179.5"/>
<text text-anchor="middle" x="1441" y="-186.5" font-family="Helvetica,sans-Serif" font-size="10.00">QPALM/include/nonconvex.h</text>
</a>
</g>
</g>
<!-- Node19&#45;&gt;Node22 -->
<g id="edge44" class="edge">
<title>Node19&#45;&gt;Node22</title>
<path fill="none" stroke="midnightblue" d="M1586.7,-301.7C1552.04,-275.13 1480.29,-220.12 1452.42,-198.76"/>
<polygon fill="midnightblue" stroke="midnightblue" points="1584.59,-304.5 1594.66,-307.81 1588.85,-298.94 1584.59,-304.5"/>
</g>
<!-- Node23 -->
<g id="node23" class="node">
<title>Node23</title>
<g id="a_node23"><a xlink:href="termination_8h.html" target="_top" xlink:title="Routines to check the termination and infeasibility criteria.">
<polygon fill="white" stroke="black" points="2010,-179.5 2010,-198.5 2168,-198.5 2168,-179.5 2010,-179.5"/>
<text text-anchor="middle" x="2089" y="-186.5" font-family="Helvetica,sans-Serif" font-size="10.00">QPALM/include/termination.h</text>
</a>
</g>
</g>
<!-- Node19&#45;&gt;Node23 -->
<g id="edge52" class="edge">
<title>Node19&#45;&gt;Node23</title>
<path fill="none" stroke="midnightblue" d="M1680.19,-306.71C1725.3,-299.11 1783.39,-286.36 1832,-266 1855.42,-256.19 1856.54,-244.72 1880,-235 1924.58,-216.53 1977.78,-205.22 2019.35,-198.55"/>
<polygon fill="midnightblue" stroke="midnightblue" points="1679.49,-303.27 1670.19,-308.34 1680.62,-310.18 1679.49,-303.27"/>
</g>
<!-- Node24 -->
<g id="node24" class="node">
<title>Node24</title>
<g id="a_node24"><a xlink:href="util_8h.html" target="_top" xlink:title="Utility functions.">
<polygon fill="white" stroke="black" points="1838,-179.5 1838,-198.5 1954,-198.5 1954,-179.5 1838,-179.5"/>
<text text-anchor="middle" x="1896" y="-186.5" font-family="Helvetica,sans-Serif" font-size="10.00">QPALM/include/util.h</text>
</a>
</g>
</g>
<!-- Node19&#45;&gt;Node24 -->
<g id="edge56" class="edge">
<title>Node19&#45;&gt;Node24</title>
<path fill="none" stroke="midnightblue" d="M1635.44,-303.66C1694.56,-277.87 1826.37,-220.37 1876.31,-198.59"/>
<polygon fill="midnightblue" stroke="midnightblue" points="1633.7,-300.6 1625.93,-307.81 1636.5,-307.01 1633.7,-300.6"/>
</g>
<!-- Node25 -->
<g id="node25" class="node">
<title>Node25</title>
<g id="a_node25"><a xlink:href="validate_8h.html" target="_top" xlink:title="Validation of the user provided settings and data.">
<polygon fill="white" stroke="black" points="1536,-179.5 1536,-198.5 1676,-198.5 1676,-179.5 1536,-179.5"/>
<text text-anchor="middle" x="1606" y="-186.5" font-family="Helvetica,sans-Serif" font-size="10.00">QPALM/include/validate.h</text>
</a>
</g>
</g>
<!-- Node19&#45;&gt;Node25 -->
<g id="edge63" class="edge">
<title>Node19&#45;&gt;Node25</title>
<path fill="none" stroke="midnightblue" d="M1606,-297.44C1606,-269.62 1606,-219.04 1606,-198.76"/>
<polygon fill="midnightblue" stroke="midnightblue" points="1602.5,-297.81 1606,-307.81 1609.5,-297.81 1602.5,-297.81"/>
</g>
<!-- Node26 -->
<g id="node26" class="node">
<title>Node26</title>
<g id="a_node26"><a xlink:href="qpalm_8hpp.html" target="_top" xlink:title=" ">
<polygon fill="white" stroke="black" points="1922,-235.5 1922,-265.5 2044,-265.5 2044,-235.5 1922,-235.5"/>
<text text-anchor="start" x="1930" y="-253.5" font-family="Helvetica,sans-Serif" font-size="10.00">QPALM/interfaces/cxx</text>
<text text-anchor="middle" x="1983" y="-242.5" font-family="Helvetica,sans-Serif" font-size="10.00">/include/qpalm.hpp</text>
</a>
</g>
</g>
<!-- Node19&#45;&gt;Node26 -->
<g id="edge67" class="edge">
<title>Node19&#45;&gt;Node26</title>
<path fill="none" stroke="midnightblue" d="M1669.42,-306.37C1730.59,-296.49 1825.74,-280.83 1908,-266 1912.44,-265.2 1917.02,-264.36 1921.63,-263.5"/>
<polygon fill="midnightblue" stroke="midnightblue" points="1668.85,-302.92 1659.53,-307.97 1669.96,-309.83 1668.85,-302.92"/>
</g>
<!-- Node20&#45;&gt;Node3 -->
<g id="edge35" class="edge">
<title>Node20&#45;&gt;Node3</title>
<path fill="none" stroke="midnightblue" d="M427.12,-175.32C399.75,-162.68 367.43,-142.42 386,-123 394.16,-114.47 1104.63,-88.33 1327.14,-80.34"/>
<polygon fill="midnightblue" stroke="midnightblue" points="425.94,-178.62 436.5,-179.45 428.77,-172.21 425.94,-178.62"/>
</g>
<!-- Node20&#45;&gt;Node5 -->
<g id="edge38" class="edge">
<title>Node20&#45;&gt;Node5</title>
<path fill="none" stroke="midnightblue" d="M372.78,-186.47C297.58,-183.1 196.61,-172.93 171,-143 165.22,-136.25 165.09,-129.64 171,-123 240.35,-45.14 992.33,-22.48 1203.9,-17.62"/>
<polygon fill="midnightblue" stroke="midnightblue" points="373.07,-189.99 383.21,-186.9 373.36,-182.99 373.07,-189.99"/>
</g>
<!-- Node20&#45;&gt;Node6 -->
<g id="edge36" class="edge">
<title>Node20&#45;&gt;Node6</title>
<path fill="none" stroke="midnightblue" d="M545.02,-182.38C668.54,-174.22 903.28,-158.38 1103,-143 1118.15,-141.83 1134.5,-140.5 1149.74,-139.22"/>
<polygon fill="midnightblue" stroke="midnightblue" points="544.61,-178.9 534.87,-183.05 545.08,-185.88 544.61,-178.9"/>
</g>
<!-- Node20&#45;&gt;Node13 -->
<g id="edge37" class="edge">
<title>Node20&#45;&gt;Node13</title>
<path fill="none" stroke="midnightblue" d="M459,-168.8C459,-159.91 459,-149.78 459,-142.75"/>
<polygon fill="midnightblue" stroke="midnightblue" points="455.5,-169.08 459,-179.08 462.5,-169.08 455.5,-169.08"/>
</g>
<!-- Node21&#45;&gt;Node3 -->
<g id="edge40" class="edge">
<title>Node21&#45;&gt;Node3</title>
<path fill="none" stroke="midnightblue" d="M1061.25,-173.45C1085.39,-156.37 1124.52,-129.52 1141,-123 1201.55,-99.06 1275.32,-87.78 1327.36,-82.52"/>
<polygon fill="midnightblue" stroke="midnightblue" points="1058.93,-170.81 1052.81,-179.46 1062.99,-176.51 1058.93,-170.81"/>
</g>
<!-- Node21&#45;&gt;Node5 -->
<g id="edge43" class="edge">
<title>Node21&#45;&gt;Node5</title>
<path fill="none" stroke="midnightblue" d="M993.32,-175.81C976.66,-169.02 959.72,-158.64 950,-143 940.77,-128.15 936.52,-86.93 955,-67 987.83,-31.59 1125.49,-21.01 1203.84,-17.85"/>
<polygon fill="midnightblue" stroke="midnightblue" points="992.44,-179.22 1003.03,-179.41 994.87,-172.65 992.44,-179.22"/>
</g>
<!-- Node21&#45;&gt;Node6 -->
<g id="edge41" class="edge">
<title>Node21&#45;&gt;Node6</title>
<path fill="none" stroke="midnightblue" d="M1077.6,-176.3C1109.45,-166.13 1154.84,-151.62 1183.35,-142.52"/>
<polygon fill="midnightblue" stroke="midnightblue" points="1076.24,-173.07 1067.78,-179.44 1078.37,-179.73 1076.24,-173.07"/>
</g>
<!-- Node21&#45;&gt;Node14 -->
<g id="edge42" class="edge">
<title>Node21&#45;&gt;Node14</title>
<path fill="none" stroke="midnightblue" d="M999.77,-176.7C962.59,-166.51 908.73,-151.74 875.07,-142.52"/>
<polygon fill="midnightblue" stroke="midnightblue" points="999.22,-180.18 1009.78,-179.44 1001.07,-173.42 999.22,-180.18"/>
</g>
<!-- Node22&#45;&gt;Node3 -->
<g id="edge45" class="edge">
<title>Node22&#45;&gt;Node3</title>
<path fill="none" stroke="midnightblue" d="M1463.71,-173.28C1480.73,-160.34 1499.29,-140.84 1488,-123 1476.09,-104.19 1453.96,-93.08 1434.05,-86.62"/>
<polygon fill="midnightblue" stroke="midnightblue" points="1461.23,-170.75 1455.12,-179.41 1465.3,-176.45 1461.23,-170.75"/>
</g>
<!-- Node22&#45;&gt;Node5 -->
<g id="edge48" class="edge">
<title>Node22&#45;&gt;Node5</title>
<path fill="none" stroke="midnightblue" d="M1470.1,-174.65C1482.63,-167.25 1496,-156.73 1503,-143 1518.78,-112.04 1468.74,-67.53 1468,-67 1443.7,-49.48 1367.72,-34.08 1314.41,-25.03"/>
<polygon fill="midnightblue" stroke="midnightblue" points="1468.33,-171.63 1461.22,-179.49 1471.68,-177.78 1468.33,-171.63"/>
</g>
<!-- Node22&#45;&gt;Node6 -->
<g id="edge46" class="edge">
<title>Node22&#45;&gt;Node6</title>
<path fill="none" stroke="midnightblue" d="M1394.6,-177.15C1350.95,-166.95 1286.49,-151.88 1246.43,-142.52"/>
<polygon fill="midnightblue" stroke="midnightblue" points="1393.86,-180.58 1404.4,-179.44 1395.46,-173.76 1393.86,-180.58"/>
</g>
<!-- Node22&#45;&gt;Node15 -->
<g id="edge47" class="edge">
<title>Node22&#45;&gt;Node15</title>
<path fill="none" stroke="midnightblue" d="M1495.06,-177.54C1547.79,-167.33 1627,-152 1676,-142.52"/>
<polygon fill="midnightblue" stroke="midnightblue" points="1494.36,-174.11 1485.21,-179.44 1495.69,-180.98 1494.36,-174.11"/>
</g>
<!-- Node23&#45;&gt;Node3 -->
<g id="edge53" class="edge">
<title>Node23&#45;&gt;Node3</title>
<path fill="none" stroke="midnightblue" d="M2112.27,-173.83C2131.85,-160.21 2154.39,-139.34 2139,-123 2115.85,-98.41 1636.7,-84.05 1458.76,-79.55"/>
<polygon fill="midnightblue" stroke="midnightblue" points="2110.32,-170.93 2103.91,-179.36 2114.18,-176.77 2110.32,-170.93"/>
</g>
<!-- Node23&#45;&gt;Node5 -->
<g id="edge54" class="edge">
<title>Node23&#45;&gt;Node5</title>
<path fill="none" stroke="midnightblue" d="M2118.51,-174.83C2143.14,-162.06 2171.73,-141.9 2155,-123 2037.27,10 1537.26,-52.96 1361,-31 1345.74,-29.1 1329.22,-26.84 1314.01,-24.67"/>
<polygon fill="midnightblue" stroke="midnightblue" points="2116.78,-171.77 2109.37,-179.34 2119.88,-178.05 2116.78,-171.77"/>
</g>
<!-- Node23&#45;&gt;Node7 -->
<g id="edge55" class="edge">
<title>Node23&#45;&gt;Node7</title>
<path fill="none" stroke="midnightblue" d="M2044.89,-177.02C2003.9,-166.82 1943.7,-151.84 1906.22,-142.52"/>
<polygon fill="midnightblue" stroke="midnightblue" points="2044.07,-180.43 2054.62,-179.44 2045.76,-173.63 2044.07,-180.43"/>
</g>
<!-- Node24&#45;&gt;Node3 -->
<g id="edge57" class="edge">
<title>Node24&#45;&gt;Node3</title>
<path fill="none" stroke="midnightblue" d="M1920.68,-173.84C1941.11,-160.39 1964.48,-139.78 1949,-123 1916.33,-87.58 1598.48,-80.04 1458.56,-78.43"/>
<polygon fill="midnightblue" stroke="midnightblue" points="1918.56,-171.04 1911.94,-179.31 1922.27,-176.98 1918.56,-171.04"/>
</g>
<!-- Node24&#45;&gt;Node5 -->
<g id="edge60" class="edge">
<title>Node24&#45;&gt;Node5</title>
<path fill="none" stroke="midnightblue" d="M1926.66,-175.08C1952.18,-162.53 1981.83,-142.55 1965,-123 1959.65,-116.78 1479.56,-47.9 1314.22,-24.35"/>
<polygon fill="midnightblue" stroke="midnightblue" points="1925.11,-171.94 1917.54,-179.36 1928.08,-178.28 1925.11,-171.94"/>
</g>
<!-- Node24&#45;&gt;Node6 -->
<g id="edge58" class="edge">
<title>Node24&#45;&gt;Node6</title>
<path fill="none" stroke="midnightblue" d="M1827.62,-182.8C1719.43,-174.54 1502.18,-157.84 1318,-143 1302.53,-141.75 1285.81,-140.38 1270.26,-139.08"/>
<polygon fill="midnightblue" stroke="midnightblue" points="1827.5,-186.3 1837.74,-183.57 1828.04,-179.32 1827.5,-186.3"/>
</g>
<!-- Node24&#45;&gt;Node7 -->
<g id="edge61" class="edge">
<title>Node24&#45;&gt;Node7</title>
<path fill="none" stroke="midnightblue" d="M1887.86,-169.69C1883.82,-160.59 1879.12,-150.01 1875.89,-142.75"/>
<polygon fill="midnightblue" stroke="midnightblue" points="1884.78,-171.37 1892.04,-179.08 1891.17,-168.52 1884.78,-171.37"/>
</g>
<!-- Node24&#45;&gt;Node15 -->
<g id="edge59" class="edge">
<title>Node24&#45;&gt;Node15</title>
<path fill="none" stroke="midnightblue" d="M1858.31,-176.44C1825.13,-166.26 1777.57,-151.66 1747.76,-142.52"/>
<polygon fill="midnightblue" stroke="midnightblue" points="1857.53,-179.86 1868.11,-179.44 1859.58,-173.16 1857.53,-179.86"/>
</g>
<!-- Node24&#45;&gt;Node17 -->
<g id="edge62" class="edge">
<title>Node24&#45;&gt;Node17</title>
<path fill="none" stroke="midnightblue" d="M1935.38,-176.57C1970.47,-166.38 2021.02,-151.7 2052.67,-142.52"/>
<polygon fill="midnightblue" stroke="midnightblue" points="1934.1,-173.29 1925.47,-179.44 1936.05,-180.02 1934.1,-173.29"/>
</g>
<!-- Node25&#45;&gt;Node3 -->
<g id="edge64" class="edge">
<title>Node25&#45;&gt;Node3</title>
<path fill="none" stroke="midnightblue" d="M1585.6,-173.63C1565.26,-159.66 1532.83,-138.37 1503,-123 1474.57,-108.36 1440.24,-94.95 1417.58,-86.65"/>
<polygon fill="midnightblue" stroke="midnightblue" points="1583.83,-176.66 1594.04,-179.48 1587.82,-170.91 1583.83,-176.66"/>
</g>
<!-- Node25&#45;&gt;Node5 -->
<g id="edge65" class="edge">
<title>Node25&#45;&gt;Node5</title>
<path fill="none" stroke="midnightblue" d="M1594.94,-170.99C1576.67,-144.37 1537.54,-93.19 1491,-67 1461.23,-50.25 1372.75,-34.02 1314.07,-24.66"/>
<polygon fill="midnightblue" stroke="midnightblue" points="1592.03,-172.95 1600.51,-179.31 1597.85,-169.05 1592.03,-172.95"/>
</g>
<!-- Node25&#45;&gt;Node18 -->
<g id="edge66" class="edge">
<title>Node25&#45;&gt;Node18</title>
<path fill="none" stroke="midnightblue" d="M1561.28,-177.02C1519.72,-166.82 1458.69,-151.84 1420.7,-142.52"/>
<polygon fill="midnightblue" stroke="midnightblue" points="1560.59,-180.46 1571.14,-179.44 1562.26,-173.66 1560.59,-180.46"/>
</g>
<!-- Node26&#45;&gt;Node4 -->
<g id="edge68" class="edge">
<title>Node26&#45;&gt;Node4</title>
<path fill="none" stroke="midnightblue" d="M2054.15,-234.49C2112.97,-221.74 2187.56,-204.64 2192,-199 2207.2,-179.69 2185.34,-141.49 2171,-123 2144.41,-88.7 2131.86,-81.62 2091,-67 1981.71,-27.91 1633.97,-19.06 1492.12,-17.07"/>
<polygon fill="midnightblue" stroke="midnightblue" points="2053.16,-231.12 2044.12,-236.66 2054.63,-237.97 2053.16,-231.12"/>
</g>
<!-- Node27&#45;&gt;Node26 -->
<g id="edge72" class="edge">
<title>Node27&#45;&gt;Node26</title>
<path fill="none" stroke="midnightblue" d="M1983,-292.11C1983,-283.15 1983,-273.32 1983,-265.58"/>
<polygon fill="midnightblue" stroke="midnightblue" points="1979.5,-292.4 1983,-302.4 1986.5,-292.4 1979.5,-292.4"/>
</g>
<!-- Node28 -->
<g id="node28" class="node">
<title>Node28</title>
<g id="a_node28"><a xlink:href="sparse_8cpp.html" target="_top" xlink:title=" ">
<polygon fill="white" stroke="black" points="2062,-235.5 2062,-265.5 2184,-265.5 2184,-235.5 2062,-235.5"/>
<text text-anchor="start" x="2070" y="-253.5" font-family="Helvetica,sans-Serif" font-size="10.00">QPALM/interfaces/cxx</text>
<text text-anchor="middle" x="2123" y="-242.5" font-family="Helvetica,sans-Serif" font-size="10.00">/src/sparse.cpp</text>
</a>
</g>
</g>
<!-- Node27&#45;&gt;Node28 -->
<g id="edge73" class="edge">
<title>Node27&#45;&gt;Node28</title>
<path fill="none" stroke="midnightblue" d="M2022.57,-298.13C2044.81,-287.8 2072.15,-275.11 2092.68,-265.58"/>
<polygon fill="midnightblue" stroke="midnightblue" points="2020.97,-295.01 2013.38,-302.4 2023.92,-301.36 2020.97,-295.01"/>
</g>
</g>
</svg>
        <g id="navigator" transform="translate(0 0)" fill="#404254">
                <rect fill="#f2f5e9" fill-opacity="0.5" stroke="#606060" stroke-width=".5" x="0" y="0" width="60" height="60"/>
                <use id="zoomplus" xlink:href="#zoomPlus" x="17" y="9" onmousedown="handleZoom(evt,'in')"/>
                <use id="zoomminus" xlink:href="#zoomMin" x="42" y="9" onmousedown="handleZoom(evt,'out')"/>
                <use id="reset" xlink:href="#resetDef" x="30" y="36" onmousedown="handleReset()"/>
                <g id="arrowUp" xlink:href="#dirArrow" transform="translate(30 24)" onmousedown="handlePan(0,-1)">
                  <use xlink:href="#rim" fill="#404040">
                        <set attributeName="fill" to="#808080" begin="arrowUp.mouseover" end="arrowUp.mouseout"/>
                  </use>
                  <path fill="none" stroke="white" stroke-width="1.5" d="M0,-3.0v7 M-2.5,-0.5L0,-3.0L2.5,-0.5"/>
                </g>
                <g id="arrowRight" xlink:href="#dirArrow" transform="rotate(90) translate(36 -43)" onmousedown="handlePan(1,0)">
                  <use xlink:href="#rim" fill="#404040">
                        <set attributeName="fill" to="#808080" begin="arrowRight.mouseover" end="arrowRight.mouseout"/>
                  </use>
                  <path fill="none" stroke="white" stroke-width="1.5" d="M0,-3.0v7 M-2.5,-0.5L0,-3.0L2.5,-0.5"/>
                </g>
                <g id="arrowDown" xlink:href="#dirArrow" transform="rotate(180) translate(-30 -48)" onmousedown="handlePan(0,1)">
                  <use xlink:href="#rim" fill="#404040">
                        <set attributeName="fill" to="#808080" begin="arrowDown.mouseover" end="arrowDown.mouseout"/>
                  </use>
                  <path fill="none" stroke="white" stroke-width="1.5" d="M0,-3.0v7 M-2.5,-0.5L0,-3.0L2.5,-0.5"/>
                </g>
                <g id="arrowLeft" xlink:href="#dirArrow" transform="rotate(270) translate(-36 17)" onmousedown="handlePan(-1,0)">
                  <use xlink:href="#rim" fill="#404040">
                        <set attributeName="fill" to="#808080" begin="arrowLeft.mouseover" end="arrowLeft.mouseout"/>
                  </use>
                  <path fill="none" stroke="white" stroke-width="1.5" d="M0,-3.0v7 M-2.5,-0.5L0,-3.0L2.5,-0.5"/>
                </g>
        </g>
        <svg viewBox="0 0 15 15" width="100%" height="30px" preserveAspectRatio="xMaxYMin meet">
         <g id="arrow_out" transform="scale(0.3 0.3)">
          <a xlink:href="global__opts_8h__dep__incl_org.svg" target="_base">
           <rect id="button" ry="5" rx="5" y="6" x="6" height="38" width="38"
                fill="#f2f5e9" fill-opacity="0.5" stroke="#606060" stroke-width="1.0"/>
           <path id="arrow"
             d="M 11.500037,31.436501 C 11.940474,20.09759 22.043105,11.32322 32.158766,21.979434 L 37.068811,17.246167 C 37.068811,17.246167 37.088388,32 37.088388,32 L 22.160133,31.978069 C 22.160133,31.978069 26.997745,27.140456 26.997745,27.140456 C 18.528582,18.264221 13.291696,25.230495 11.500037,31.436501 z"
             style="fill:#404040;"/>
          </a>
         </g>
        </svg>
</svg>
