<?xml version="1.0" encoding="UTF-8" standalone="no"?>
<!DOCTYPE svg PUBLIC "-//W3C//DTD SVG 1.1//EN"
 "http://www.w3.org/Graphics/SVG/1.1/DTD/svg11.dtd">
<!-- Generated by graphviz version 2.43.0 (0)
 -->
<!-- Title: qpalm_update_bounds Pages: 1 -->
<svg width="353pt" height="142pt"
 viewBox="0.00 0.00 353.00 142.00" xmlns="http://www.w3.org/2000/svg" xmlns:xlink="http://www.w3.org/1999/xlink">
<g id="graph0" class="graph" transform="scale(1 1) rotate(0) translate(4 138)">
<title>qpalm_update_bounds</title>
<polygon fill="white" stroke="transparent" points="-4,4 -4,-138 349,-138 349,4 -4,4"/>
<!-- Node1 -->
<g id="node1" class="node">
<title>Node1</title>
<g id="a_node1"><a xlink:title="Update the lower and upper bounds.">
<polygon fill="#bfbfbf" stroke="black" points="0,-57.5 0,-76.5 127,-76.5 127,-57.5 0,-57.5"/>
<text text-anchor="middle" x="63.5" y="-64.5" font-family="Helvetica,sans-Serif" font-size="10.00">qpalm_update_bounds</text>
</a>
</g>
</g>
<!-- Node2 -->
<g id="node2" class="node">
<title>Node2</title>
<g id="a_node2"><a xlink:href="lin__alg_8c.html#acf468a60c38fbc58b6de539acb6f0a3b" target="_top" xlink:title="Copy vector a into preallocated vector b.">
<polygon fill="white" stroke="black" points="163,-114.5 163,-133.5 252,-133.5 252,-114.5 163,-114.5"/>
<text text-anchor="middle" x="207.5" y="-121.5" font-family="Helvetica,sans-Serif" font-size="10.00">prea_vec_copy</text>
</a>
</g>
</g>
<!-- Node1&#45;&gt;Node2 -->
<g id="edge1" class="edge">
<title>Node1&#45;&gt;Node2</title>
<path fill="none" stroke="midnightblue" d="M88.27,-76.54C111.51,-85.87 147.11,-100.16 173.18,-110.62"/>
<polygon fill="midnightblue" stroke="midnightblue" points="172.07,-113.95 182.65,-114.43 174.68,-107.46 172.07,-113.95"/>
</g>
<!-- Node3 -->
<g id="node3" class="node">
<title>Node3</title>
<g id="a_node3"><a xlink:href="util_8h.html#aae57226ec767e15f27d88e97df093b41" target="_top" xlink:title="Start timer.">
<polygon fill="white" stroke="black" points="175,-76.5 175,-95.5 240,-95.5 240,-76.5 175,-76.5"/>
<text text-anchor="middle" x="207.5" y="-83.5" font-family="Helvetica,sans-Serif" font-size="10.00">qpalm_tic</text>
</a>
</g>
</g>
<!-- Node1&#45;&gt;Node3 -->
<g id="edge2" class="edge">
<title>Node1&#45;&gt;Node3</title>
<path fill="none" stroke="midnightblue" d="M127.2,-75.39C139.95,-77.1 153.07,-78.85 164.88,-80.43"/>
<polygon fill="midnightblue" stroke="midnightblue" points="164.49,-83.91 174.87,-81.77 165.42,-76.97 164.49,-83.91"/>
</g>
<!-- Node4 -->
<g id="node4" class="node">
<title>Node4</title>
<g id="a_node4"><a xlink:href="util_8h.html#a6eecdaf6f3f1c4bf0ab1067a5e7e69da" target="_top" xlink:title="Report time in seconds since last call to qpalm_tic.">
<polygon fill="white" stroke="black" points="173.5,-38.5 173.5,-57.5 241.5,-57.5 241.5,-38.5 173.5,-38.5"/>
<text text-anchor="middle" x="207.5" y="-45.5" font-family="Helvetica,sans-Serif" font-size="10.00">qpalm_toc</text>
</a>
</g>
</g>
<!-- Node1&#45;&gt;Node4 -->
<g id="edge3" class="edge">
<title>Node1&#45;&gt;Node4</title>
<path fill="none" stroke="midnightblue" d="M127.2,-58.61C139.37,-56.98 151.87,-55.31 163.25,-53.79"/>
<polygon fill="midnightblue" stroke="midnightblue" points="163.89,-57.23 173.34,-52.44 162.96,-50.29 163.89,-57.23"/>
</g>
<!-- Node5 -->
<g id="node5" class="node">
<title>Node5</title>
<g id="a_node5"><a xlink:href="util_8c.html#a14fe651105f1f38b2a3a49614f4b8ae2" target="_top" xlink:title="Update solver status (value and string).">
<polygon fill="white" stroke="black" points="164.5,-0.5 164.5,-19.5 250.5,-19.5 250.5,-0.5 164.5,-0.5"/>
<text text-anchor="middle" x="207.5" y="-7.5" font-family="Helvetica,sans-Serif" font-size="10.00">update_status</text>
</a>
</g>
</g>
<!-- Node1&#45;&gt;Node5 -->
<g id="edge4" class="edge">
<title>Node1&#45;&gt;Node5</title>
<path fill="none" stroke="midnightblue" d="M88.27,-57.46C111.51,-48.13 147.11,-33.84 173.18,-23.38"/>
<polygon fill="midnightblue" stroke="midnightblue" points="174.68,-26.54 182.65,-19.57 172.07,-20.05 174.68,-26.54"/>
</g>
<!-- Node6 -->
<g id="node6" class="node">
<title>Node6</title>
<g id="a_node6"><a xlink:href="util_8c.html#a7645b56a91479fac2285909a25875b91" target="_top" xlink:title="Custom string copy to avoid string.h library.">
<polygon fill="white" stroke="black" points="288,-0.5 288,-19.5 345,-19.5 345,-0.5 288,-0.5"/>
<text text-anchor="middle" x="316.5" y="-7.5" font-family="Helvetica,sans-Serif" font-size="10.00">c_strcpy</text>
</a>
</g>
</g>
<!-- Node5&#45;&gt;Node6 -->
<g id="edge5" class="edge">
<title>Node5&#45;&gt;Node6</title>
<path fill="none" stroke="midnightblue" d="M250.79,-10C259.68,-10 269,-10 277.71,-10"/>
<polygon fill="midnightblue" stroke="midnightblue" points="277.96,-13.5 287.96,-10 277.96,-6.5 277.96,-13.5"/>
</g>
</g>
</svg>
