<?xml version="1.0" encoding="UTF-8" standalone="no"?>
<!DOCTYPE svg PUBLIC "-//W3C//DTD SVG 1.1//EN"
 "http://www.w3.org/Graphics/SVG/1.1/DTD/svg11.dtd">
<!-- Generated by graphviz version 2.43.0 (0)
 -->
<!-- Title: compute_dual_objective Pages: 1 -->
<svg width="274pt" height="66pt"
 viewBox="0.00 0.00 274.00 66.00" xmlns="http://www.w3.org/2000/svg" xmlns:xlink="http://www.w3.org/1999/xlink">
<g id="graph0" class="graph" transform="scale(1 1) rotate(0) translate(4 62)">
<title>compute_dual_objective</title>
<polygon fill="white" stroke="transparent" points="-4,4 -4,-62 270,-62 270,4 -4,4"/>
<!-- Node1 -->
<g id="node1" class="node">
<title>Node1</title>
<g id="a_node1"><a xlink:title="Compute the (unscaled) dual objective value at the current iterate.">
<polygon fill="#bfbfbf" stroke="black" points="0,-19.5 0,-38.5 136,-38.5 136,-19.5 0,-19.5"/>
<text text-anchor="middle" x="68" y="-26.5" font-family="Helvetica,sans-Serif" font-size="10.00">compute_dual_objective</text>
</a>
</g>
</g>
<!-- Node2 -->
<g id="node2" class="node">
<title>Node2</title>
<g id="a_node2"><a xlink:href="lin__alg_8c.html#a0fde1aeeea954e43db160ec6e3697cd5" target="_top" xlink:title="Scaled addition of one vector to another vector, .">
<polygon fill="white" stroke="black" points="172,-38.5 172,-57.5 266,-57.5 266,-38.5 172,-38.5"/>
<text text-anchor="middle" x="219" y="-45.5" font-family="Helvetica,sans-Serif" font-size="10.00">vec_add_scaled</text>
</a>
</g>
</g>
<!-- Node1&#45;&gt;Node2 -->
<g id="edge1" class="edge">
<title>Node1&#45;&gt;Node2</title>
<path fill="none" stroke="midnightblue" d="M136.09,-37.56C144.66,-38.65 153.36,-39.76 161.73,-40.82"/>
<polygon fill="midnightblue" stroke="midnightblue" points="161.38,-44.31 171.75,-42.1 162.27,-37.36 161.38,-44.31"/>
</g>
<!-- Node3 -->
<g id="node3" class="node">
<title>Node3</title>
<g id="a_node3"><a xlink:href="lin__alg_8c.html#ab83e787c2e0edb5803a860b1c894f53d" target="_top" xlink:title="Inner product between two vectors, .">
<polygon fill="white" stroke="black" points="188.5,-0.5 188.5,-19.5 249.5,-19.5 249.5,-0.5 188.5,-0.5"/>
<text text-anchor="middle" x="219" y="-7.5" font-family="Helvetica,sans-Serif" font-size="10.00">vec_prod</text>
</a>
</g>
</g>
<!-- Node1&#45;&gt;Node3 -->
<g id="edge2" class="edge">
<title>Node1&#45;&gt;Node3</title>
<path fill="none" stroke="midnightblue" d="M136.09,-20.44C150.47,-18.61 165.23,-16.73 178.19,-15.08"/>
<polygon fill="midnightblue" stroke="midnightblue" points="178.67,-18.54 188.15,-13.81 177.78,-11.6 178.67,-18.54"/>
</g>
</g>
</svg>
