<?xml version="1.0" encoding="UTF-8" standalone="no"?>
<!DOCTYPE svg PUBLIC "-//W3C//DTD SVG 1.1//EN"
 "http://www.w3.org/Graphics/SVG/1.1/DTD/svg11.dtd">
<!-- Generated by graphviz version 2.43.0 (0)
 -->
<!-- Title: vec_prod Pages: 1 -->
<svg width="402pt" height="180pt"
 viewBox="0.00 0.00 402.00 180.00" xmlns="http://www.w3.org/2000/svg" xmlns:xlink="http://www.w3.org/1999/xlink">
<g id="graph0" class="graph" transform="scale(1 1) rotate(0) translate(4 176)">
<title>vec_prod</title>
<polygon fill="white" stroke="transparent" points="-4,4 -4,-176 398,-176 398,4 -4,4"/>
<!-- Node1 -->
<g id="node1" class="node">
<title>Node1</title>
<g id="a_node1"><a xlink:title="Inner product between two vectors, .">
<polygon fill="#bfbfbf" stroke="black" points="333,-76.5 333,-95.5 394,-95.5 394,-76.5 333,-76.5"/>
<text text-anchor="middle" x="363.5" y="-83.5" font-family="Helvetica,sans-Serif" font-size="10.00">vec_prod</text>
</a>
</g>
</g>
<!-- Node2 -->
<g id="node2" class="node">
<title>Node2</title>
<g id="a_node2"><a xlink:href="iteration_8c.html#a1a0ad2638fa3206a6f671619f689364f" target="_top" xlink:title="Compute the (unscaled) dual objective value at the current iterate.">
<polygon fill="white" stroke="black" points="161,-152.5 161,-171.5 297,-171.5 297,-152.5 161,-152.5"/>
<text text-anchor="middle" x="229" y="-159.5" font-family="Helvetica,sans-Serif" font-size="10.00">compute_dual_objective</text>
</a>
</g>
</g>
<!-- Node1&#45;&gt;Node2 -->
<g id="edge1" class="edge">
<title>Node1&#45;&gt;Node2</title>
<path fill="none" stroke="midnightblue" d="M347.27,-102.79C334.87,-115.51 316.32,-132.54 297,-143 289.98,-146.8 282.13,-149.9 274.34,-152.42"/>
<polygon fill="midnightblue" stroke="midnightblue" points="349.82,-105.19 354.14,-95.52 344.73,-100.38 349.82,-105.19"/>
</g>
<!-- Node3 -->
<g id="node3" class="node">
<title>Node3</title>
<g id="a_node3"><a xlink:href="linesearch_8c.html#a647cabae1574f21e412110765ea1e70d" target="_top" xlink:title="Execute exact linesearch (using qsort)">
<polygon fill="white" stroke="black" points="179.5,-114.5 179.5,-133.5 278.5,-133.5 278.5,-114.5 179.5,-114.5"/>
<text text-anchor="middle" x="229" y="-121.5" font-family="Helvetica,sans-Serif" font-size="10.00">exact_linesearch</text>
</a>
</g>
</g>
<!-- Node1&#45;&gt;Node3 -->
<g id="edge2" class="edge">
<title>Node1&#45;&gt;Node3</title>
<path fill="none" stroke="midnightblue" d="M323.04,-97.49C314.46,-99.98 305.43,-102.58 297,-105 286.19,-108.1 274.39,-111.46 263.75,-114.47"/>
<polygon fill="midnightblue" stroke="midnightblue" points="324.21,-100.79 332.84,-94.64 322.26,-94.07 324.21,-100.79"/>
</g>
<!-- Node5 -->
<g id="node5" class="node">
<title>Node5</title>
<g id="a_node5"><a xlink:href="iteration_8c.html#a155f5c99c7a442c554cca914de34eba7" target="_top" xlink:title="Initialize penalty factors from initial x.">
<polygon fill="white" stroke="black" points="182,-76.5 182,-95.5 276,-95.5 276,-76.5 182,-76.5"/>
<text text-anchor="middle" x="229" y="-83.5" font-family="Helvetica,sans-Serif" font-size="10.00">initialize_sigma</text>
</a>
</g>
</g>
<!-- Node1&#45;&gt;Node5 -->
<g id="edge4" class="edge">
<title>Node1&#45;&gt;Node5</title>
<path fill="none" stroke="midnightblue" d="M322.51,-86C307.86,-86 291.16,-86 276.03,-86"/>
<polygon fill="midnightblue" stroke="midnightblue" points="322.76,-89.5 332.76,-86 322.76,-82.5 322.76,-89.5"/>
</g>
<!-- Node6 -->
<g id="node6" class="node">
<title>Node6</title>
<g id="a_node6"><a xlink:href="termination_8c.html#a8cf01c07469436e7c562c9f3e162fd2b" target="_top" xlink:title="Check whether the problem is dual infeasible.">
<polygon fill="white" stroke="black" points="177,-38.5 177,-57.5 281,-57.5 281,-38.5 177,-38.5"/>
<text text-anchor="middle" x="229" y="-45.5" font-family="Helvetica,sans-Serif" font-size="10.00">is_dual_infeasible</text>
</a>
</g>
</g>
<!-- Node1&#45;&gt;Node6 -->
<g id="edge5" class="edge">
<title>Node1&#45;&gt;Node6</title>
<path fill="none" stroke="midnightblue" d="M323.04,-74.51C314.46,-72.02 305.43,-69.42 297,-67 286.19,-63.9 274.39,-60.54 263.75,-57.53"/>
<polygon fill="midnightblue" stroke="midnightblue" points="322.26,-77.93 332.84,-77.36 324.21,-71.21 322.26,-77.93"/>
</g>
<!-- Node7 -->
<g id="node7" class="node">
<title>Node7</title>
<g id="a_node7"><a xlink:href="lin__alg_8c.html#ac9c437da6c40c86a70915aa0efd8af7d" target="_top" xlink:title="2&#45;norm of a vector, .">
<polygon fill="white" stroke="black" points="185,-0.5 185,-19.5 273,-19.5 273,-0.5 185,-0.5"/>
<text text-anchor="middle" x="229" y="-7.5" font-family="Helvetica,sans-Serif" font-size="10.00">vec_norm_two</text>
</a>
</g>
</g>
<!-- Node1&#45;&gt;Node7 -->
<g id="edge6" class="edge">
<title>Node1&#45;&gt;Node7</title>
<path fill="none" stroke="midnightblue" d="M347.27,-69.21C334.87,-56.49 316.32,-39.46 297,-29 289.66,-25.03 281.41,-21.82 273.28,-19.25"/>
<polygon fill="midnightblue" stroke="midnightblue" points="344.73,-71.62 354.14,-76.48 349.82,-66.81 344.73,-71.62"/>
</g>
<!-- Node4 -->
<g id="node4" class="node">
<title>Node4</title>
<g id="a_node4"><a xlink:href="iteration_8c.html#a9c9fafac9ce099122c5a594762e5a052" target="_top" xlink:title="Update the primal iterate.">
<polygon fill="white" stroke="black" points="0,-114.5 0,-133.5 125,-133.5 125,-114.5 0,-114.5"/>
<text text-anchor="middle" x="62.5" y="-121.5" font-family="Helvetica,sans-Serif" font-size="10.00">update_primal_iterate</text>
</a>
</g>
</g>
<!-- Node3&#45;&gt;Node4 -->
<g id="edge3" class="edge">
<title>Node3&#45;&gt;Node4</title>
<path fill="none" stroke="midnightblue" d="M168.92,-124C154.68,-124 139.43,-124 125.07,-124"/>
<polygon fill="midnightblue" stroke="midnightblue" points="169.09,-127.5 179.09,-124 169.09,-120.5 169.09,-127.5"/>
</g>
</g>
</svg>
