<?xml version="1.0" encoding="UTF-8" standalone="no"?>
<!DOCTYPE svg PUBLIC "-//W3C//DTD SVG 1.1//EN"
 "http://www.w3.org/Graphics/SVG/1.1/DTD/svg11.dtd">
<!-- Generated by graphviz version 2.43.0 (0)
 -->
<!-- Title: QPALM/include/lin_alg.h Pages: 1 -->
<!--zoomable 207 -->
<svg id="main" version="1.1" xmlns="http://www.w3.org/2000/svg" xmlns:xlink="http://www.w3.org/1999/xlink" xml:space="preserve" onload="init(evt)">
<style type="text/css"><![CDATA[
.edge:hover path { stroke: red; }
.edge:hover polygon { stroke: red; fill: red; }
]]></style>
<script type="text/javascript"><![CDATA[
var edges = document.getElementsByTagName('g');
if (edges && edges.length) {
  for (var i=0;i<edges.length;i++) {
    if (edges[i].id.substr(0,4)=='edge') {
      edges[i].setAttribute('class','edge');
    }
  }
}
]]></script>
        <defs>
                <circle id="rim" cx="0" cy="0" r="7"/>
                <circle id="rim2" cx="0" cy="0" r="3.5"/>
                <g id="zoomPlus">
                        <use xlink:href="#rim" fill="#404040">
                                <set attributeName="fill" to="#808080" begin="zoomplus.mouseover" end="zoomplus.mouseout"/>
                        </use>
                        <path d="M-4,0h8M0,-4v8" fill="none" stroke="white" stroke-width="1.5" pointer-events="none"/>
                </g>
                <g id="zoomMin">
                        <use xlink:href="#rim" fill="#404040">
                                <set attributeName="fill" to="#808080" begin="zoomminus.mouseover" end="zoomminus.mouseout"/>
                        </use>
                        <path d="M-4,0h8" fill="none" stroke="white" stroke-width="1.5" pointer-events="none"/>
                </g>
                <g id="dirArrow">
                        <path fill="none" stroke="white" stroke-width="1.5" d="M0,-3.0v7 M-2.5,-0.5L0,-3.0L2.5,-0.5"/>
                </g>
               <g id="resetDef">
                       <use xlink:href="#rim2" fill="#404040">
                               <set attributeName="fill" to="#808080" begin="reset.mouseover" end="reset.mouseout"/>
                       </use>
               </g>
        </defs>

<script type="text/javascript">
var viewWidth = 1664;
var viewHeight = 207;
var sectionId = 'dynsection-1';
</script>
<script xlink:href="svgpan.js"/>
<svg id="graph" class="graph">
<g id="viewport">
<title>QPALM/include/lin_alg.h</title>
<polygon fill="white" stroke="transparent" points="-4,4 -4,-203 1659.5,-203 1659.5,4 -4,4"/>
<!-- Node1 -->
<g id="node1" class="node">
<title>Node1</title>
<g id="a_node1"><a xlink:title="Linear algebra with vectors.">
<polygon fill="#bfbfbf" stroke="black" points="660.5,-179.5 660.5,-198.5 793.5,-198.5 793.5,-179.5 660.5,-179.5"/>
<text text-anchor="middle" x="727" y="-186.5" font-family="Helvetica,sans-Serif" font-size="10.00">QPALM/include/lin_alg.h</text>
</a>
</g>
</g>
<!-- Node2 -->
<g id="node2" class="node">
<title>Node2</title>
<g id="a_node2"><a xlink:href="qpalm_8h.html" target="_top" xlink:title="QPALM main solver API.">
<polygon fill="white" stroke="black" points="15.5,-67.5 15.5,-86.5 146.5,-86.5 146.5,-67.5 15.5,-67.5"/>
<text text-anchor="middle" x="81" y="-74.5" font-family="Helvetica,sans-Serif" font-size="10.00">QPALM/include/qpalm.h</text>
</a>
</g>
</g>
<!-- Node1&#45;&gt;Node2 -->
<g id="edge1" class="edge">
<title>Node1&#45;&gt;Node2</title>
<path fill="none" stroke="midnightblue" d="M649.95,-187.5C516.36,-185.7 247.74,-177.73 161,-143 129.77,-130.5 101.26,-101.3 88.32,-86.68"/>
<polygon fill="midnightblue" stroke="midnightblue" points="650.06,-191 660.11,-187.63 650.15,-184 650.06,-191"/>
</g>
<!-- Node4 -->
<g id="node4" class="node">
<title>Node4</title>
<g id="a_node4"><a xlink:href="qpalm_8c.html" target="_top" xlink:title="QPALM main solver API.">
<polygon fill="white" stroke="black" points="140,-6 140,-25 250,-25 250,-6 140,-6"/>
<text text-anchor="middle" x="195" y="-13" font-family="Helvetica,sans-Serif" font-size="10.00">QPALM/src/qpalm.c</text>
</a>
</g>
</g>
<!-- Node1&#45;&gt;Node4 -->
<g id="edge13" class="edge">
<title>Node1&#45;&gt;Node4</title>
<path fill="none" stroke="midnightblue" d="M650.06,-187.13C509.82,-184.75 224.21,-175.87 194,-143 163.38,-109.69 182.69,-48.08 191.4,-25.28"/>
<polygon fill="midnightblue" stroke="midnightblue" points="650.25,-190.64 660.31,-187.3 650.37,-183.64 650.25,-190.64"/>
</g>
<!-- Node5 -->
<g id="node5" class="node">
<title>Node5</title>
<g id="a_node5"><a xlink:href="scaling_8h.html" target="_top" xlink:title="Problem data scaling during setup.">
<polygon fill="white" stroke="black" points="203.5,-123.5 203.5,-142.5 338.5,-142.5 338.5,-123.5 203.5,-123.5"/>
<text text-anchor="middle" x="271" y="-130.5" font-family="Helvetica,sans-Serif" font-size="10.00">QPALM/include/scaling.h</text>
</a>
</g>
</g>
<!-- Node1&#45;&gt;Node5 -->
<g id="edge4" class="edge">
<title>Node1&#45;&gt;Node5</title>
<path fill="none" stroke="midnightblue" d="M650.1,-178.89C562.87,-168.56 421.96,-151.88 338.72,-142.02"/>
<polygon fill="midnightblue" stroke="midnightblue" points="649.86,-182.39 660.21,-180.09 650.69,-175.44 649.86,-182.39"/>
</g>
<!-- Node6 -->
<g id="node6" class="node">
<title>Node6</title>
<g id="a_node6"><a xlink:href="scaling_8c.html" target="_top" xlink:title="Problem data scaling during setup.">
<polygon fill="white" stroke="black" points="276.5,-67.5 276.5,-86.5 389.5,-86.5 389.5,-67.5 276.5,-67.5"/>
<text text-anchor="middle" x="333" y="-74.5" font-family="Helvetica,sans-Serif" font-size="10.00">QPALM/src/scaling.c</text>
</a>
</g>
</g>
<!-- Node1&#45;&gt;Node6 -->
<g id="edge14" class="edge">
<title>Node1&#45;&gt;Node6</title>
<path fill="none" stroke="midnightblue" d="M650.23,-184.42C563.88,-179.26 429.95,-167.53 386,-143 362.35,-129.8 345.09,-101.47 337.42,-86.96"/>
<polygon fill="midnightblue" stroke="midnightblue" points="650.07,-187.92 660.26,-185 650.48,-180.93 650.07,-187.92"/>
</g>
<!-- Node7 -->
<g id="node7" class="node">
<title>Node7</title>
<g id="a_node7"><a xlink:href="iteration_8c.html" target="_top" xlink:title="QPALM main solver routines.">
<polygon fill="white" stroke="black" points="395,-123.5 395,-142.5 515,-142.5 515,-123.5 395,-123.5"/>
<text text-anchor="middle" x="455" y="-130.5" font-family="Helvetica,sans-Serif" font-size="10.00">QPALM/src/iteration.c</text>
</a>
</g>
</g>
<!-- Node1&#45;&gt;Node7 -->
<g id="edge8" class="edge">
<title>Node1&#45;&gt;Node7</title>
<path fill="none" stroke="midnightblue" d="M673.98,-177.47C622.57,-167.27 545.56,-151.98 497.9,-142.52"/>
<polygon fill="midnightblue" stroke="midnightblue" points="673.41,-180.93 683.9,-179.44 674.77,-174.06 673.41,-180.93"/>
</g>
<!-- Node8 -->
<g id="node8" class="node">
<title>Node8</title>
<g id="a_node8"><a xlink:href="lin__alg_8c.html" target="_top" xlink:title="Linear algebra with vectors.">
<polygon fill="white" stroke="black" points="533.5,-123.5 533.5,-142.5 644.5,-142.5 644.5,-123.5 533.5,-123.5"/>
<text text-anchor="middle" x="589" y="-130.5" font-family="Helvetica,sans-Serif" font-size="10.00">QPALM/src/lin_alg.c</text>
</a>
</g>
</g>
<!-- Node1&#45;&gt;Node8 -->
<g id="edge9" class="edge">
<title>Node1&#45;&gt;Node8</title>
<path fill="none" stroke="midnightblue" d="M695.75,-175.77C669.83,-165.63 633.64,-151.47 610.76,-142.52"/>
<polygon fill="midnightblue" stroke="midnightblue" points="694.55,-179.06 705.13,-179.44 697.1,-172.54 694.55,-179.06"/>
</g>
<!-- Node9 -->
<g id="node9" class="node">
<title>Node9</title>
<g id="a_node9"><a xlink:href="linesearch_8c.html" target="_top" xlink:title="Routines to perform exact or backtracking linesearch.">
<polygon fill="white" stroke="black" points="662.5,-123.5 662.5,-142.5 791.5,-142.5 791.5,-123.5 662.5,-123.5"/>
<text text-anchor="middle" x="727" y="-130.5" font-family="Helvetica,sans-Serif" font-size="10.00">QPALM/src/linesearch.c</text>
</a>
</g>
</g>
<!-- Node1&#45;&gt;Node9 -->
<g id="edge10" class="edge">
<title>Node1&#45;&gt;Node9</title>
<path fill="none" stroke="midnightblue" d="M727,-168.8C727,-159.91 727,-149.78 727,-142.75"/>
<polygon fill="midnightblue" stroke="midnightblue" points="723.5,-169.08 727,-179.08 730.5,-169.08 723.5,-169.08"/>
</g>
<!-- Node10 -->
<g id="node10" class="node">
<title>Node10</title>
<g id="a_node10"><a xlink:href="newton_8c.html" target="_top" xlink:title="Functions to calculate the semismooth Newton direction.">
<polygon fill="white" stroke="black" points="809.5,-123.5 809.5,-142.5 924.5,-142.5 924.5,-123.5 809.5,-123.5"/>
<text text-anchor="middle" x="867" y="-130.5" font-family="Helvetica,sans-Serif" font-size="10.00">QPALM/src/newton.c</text>
</a>
</g>
</g>
<!-- Node1&#45;&gt;Node10 -->
<g id="edge11" class="edge">
<title>Node1&#45;&gt;Node10</title>
<path fill="none" stroke="midnightblue" d="M758.7,-175.77C785,-165.63 821.72,-151.47 844.92,-142.52"/>
<polygon fill="midnightblue" stroke="midnightblue" points="757.25,-172.58 749.18,-179.44 759.77,-179.11 757.25,-172.58"/>
</g>
<!-- Node11 -->
<g id="node11" class="node">
<title>Node11</title>
<g id="a_node11"><a xlink:href="nonconvex_8c.html" target="_top" xlink:title="Routines to deal with nonconvex QPs.">
<polygon fill="white" stroke="black" points="943,-123.5 943,-142.5 1075,-142.5 1075,-123.5 943,-123.5"/>
<text text-anchor="middle" x="1009" y="-130.5" font-family="Helvetica,sans-Serif" font-size="10.00">QPALM/src/nonconvex.c</text>
</a>
</g>
</g>
<!-- Node1&#45;&gt;Node11 -->
<g id="edge12" class="edge">
<title>Node1&#45;&gt;Node11</title>
<path fill="none" stroke="midnightblue" d="M781.64,-177.54C834.94,-167.33 915,-152 964.53,-142.52"/>
<polygon fill="midnightblue" stroke="midnightblue" points="780.85,-174.13 771.68,-179.44 782.16,-181 780.85,-174.13"/>
</g>
<!-- Node12 -->
<g id="node12" class="node">
<title>Node12</title>
<g id="a_node12"><a xlink:href="solver__interface_8c.html" target="_top" xlink:title="Interface and wrapper to matrix/factorization (ladel) functions.">
<polygon fill="white" stroke="black" points="1093,-123.5 1093,-142.5 1251,-142.5 1251,-123.5 1093,-123.5"/>
<text text-anchor="middle" x="1172" y="-130.5" font-family="Helvetica,sans-Serif" font-size="10.00">QPALM/src/solver_interface.c</text>
</a>
</g>
</g>
<!-- Node1&#45;&gt;Node12 -->
<g id="edge15" class="edge">
<title>Node1&#45;&gt;Node12</title>
<path fill="none" stroke="midnightblue" d="M803.58,-178.71C887.33,-168.54 1020.4,-152.4 1101.61,-142.54"/>
<polygon fill="midnightblue" stroke="midnightblue" points="803.13,-175.24 793.62,-179.92 803.97,-182.19 803.13,-175.24"/>
</g>
<!-- Node13 -->
<g id="node13" class="node">
<title>Node13</title>
<g id="a_node13"><a xlink:href="termination_8c.html" target="_top" xlink:title="Routines to check the termination and infeasibility criteria.">
<polygon fill="white" stroke="black" points="1269,-123.5 1269,-142.5 1405,-142.5 1405,-123.5 1269,-123.5"/>
<text text-anchor="middle" x="1337" y="-130.5" font-family="Helvetica,sans-Serif" font-size="10.00">QPALM/src/termination.c</text>
</a>
</g>
</g>
<!-- Node1&#45;&gt;Node13 -->
<g id="edge16" class="edge">
<title>Node1&#45;&gt;Node13</title>
<path fill="none" stroke="midnightblue" d="M803.59,-182.31C907.19,-174.44 1097.7,-159.33 1260,-143 1262.95,-142.7 1265.95,-142.39 1268.99,-142.07"/>
<polygon fill="midnightblue" stroke="midnightblue" points="803.25,-178.83 793.54,-183.07 803.77,-185.81 803.25,-178.83"/>
</g>
<!-- Node14 -->
<g id="node14" class="node">
<title>Node14</title>
<g id="a_node14"><a xlink:href="util_8c.html" target="_top" xlink:title="Utility functions.">
<polygon fill="white" stroke="black" points="1423.5,-123.5 1423.5,-142.5 1518.5,-142.5 1518.5,-123.5 1423.5,-123.5"/>
<text text-anchor="middle" x="1471" y="-130.5" font-family="Helvetica,sans-Serif" font-size="10.00">QPALM/src/util.c</text>
</a>
</g>
</g>
<!-- Node1&#45;&gt;Node14 -->
<g id="edge17" class="edge">
<title>Node1&#45;&gt;Node14</title>
<path fill="none" stroke="midnightblue" d="M804.02,-185.25C931.29,-180.19 1193.38,-167.59 1414,-143 1417.09,-142.66 1420.26,-142.26 1423.46,-141.84"/>
<polygon fill="midnightblue" stroke="midnightblue" points="803.83,-181.75 793.98,-185.64 804.11,-188.75 803.83,-181.75"/>
</g>
<!-- Node15 -->
<g id="node15" class="node">
<title>Node15</title>
<g id="a_node15"><a xlink:href="validate_8c.html" target="_top" xlink:title="Validation of the user provided settings and data.">
<polygon fill="white" stroke="black" points="1536.5,-123.5 1536.5,-142.5 1655.5,-142.5 1655.5,-123.5 1536.5,-123.5"/>
<text text-anchor="middle" x="1596" y="-130.5" font-family="Helvetica,sans-Serif" font-size="10.00">QPALM/src/validate.c</text>
</a>
</g>
</g>
<!-- Node1&#45;&gt;Node15 -->
<g id="edge18" class="edge">
<title>Node1&#45;&gt;Node15</title>
<path fill="none" stroke="midnightblue" d="M803.99,-185.61C946.91,-180.74 1262.84,-167.96 1528,-143 1530.73,-142.74 1533.51,-142.46 1536.32,-142.16"/>
<polygon fill="midnightblue" stroke="midnightblue" points="803.46,-182.12 793.59,-185.96 803.7,-189.12 803.46,-182.12"/>
</g>
<!-- Node3 -->
<g id="node3" class="node">
<title>Node3</title>
<g id="a_node3"><a xlink:href="qpalm_8cpp.html" target="_top" xlink:title=" ">
<polygon fill="white" stroke="black" points="0,-0.5 0,-30.5 122,-30.5 122,-0.5 0,-0.5"/>
<text text-anchor="start" x="8" y="-18.5" font-family="Helvetica,sans-Serif" font-size="10.00">QPALM/interfaces/cxx</text>
<text text-anchor="middle" x="61" y="-7.5" font-family="Helvetica,sans-Serif" font-size="10.00">/src/qpalm.cpp</text>
</a>
</g>
</g>
<!-- Node2&#45;&gt;Node3 -->
<g id="edge2" class="edge">
<title>Node2&#45;&gt;Node3</title>
<path fill="none" stroke="midnightblue" d="M74.89,-57.82C71.94,-49.04 68.45,-38.68 65.71,-30.52"/>
<polygon fill="midnightblue" stroke="midnightblue" points="71.63,-59.11 78.13,-67.48 78.27,-56.88 71.63,-59.11"/>
</g>
<!-- Node2&#45;&gt;Node4 -->
<g id="edge3" class="edge">
<title>Node2&#45;&gt;Node4</title>
<path fill="none" stroke="midnightblue" d="M106.46,-62.71C128.54,-51.19 159.83,-34.86 178.7,-25.01"/>
<polygon fill="midnightblue" stroke="midnightblue" points="104.58,-59.75 97.33,-67.48 107.82,-65.95 104.58,-59.75"/>
</g>
<!-- Node5&#45;&gt;Node2 -->
<g id="edge5" class="edge">
<title>Node5&#45;&gt;Node2</title>
<path fill="none" stroke="midnightblue" d="M231.24,-120.7C195.38,-110.51 143.43,-95.74 110.97,-86.52"/>
<polygon fill="midnightblue" stroke="midnightblue" points="230.32,-124.08 240.89,-123.44 232.23,-117.34 230.32,-124.08"/>
</g>
<!-- Node5&#45;&gt;Node4 -->
<g id="edge6" class="edge">
<title>Node5&#45;&gt;Node4</title>
<path fill="none" stroke="midnightblue" d="M259.71,-114.84C243.27,-89.86 213.33,-44.36 200.78,-25.28"/>
<polygon fill="midnightblue" stroke="midnightblue" points="256.87,-116.89 265.29,-123.32 262.71,-113.04 256.87,-116.89"/>
</g>
<!-- Node5&#45;&gt;Node6 -->
<g id="edge7" class="edge">
<title>Node5&#45;&gt;Node6</title>
<path fill="none" stroke="midnightblue" d="M288.75,-116.54C299.81,-106.91 313.63,-94.87 322.86,-86.83"/>
<polygon fill="midnightblue" stroke="midnightblue" points="286.2,-114.12 280.96,-123.32 290.8,-119.4 286.2,-114.12"/>
</g>
</g>
</svg>
        <g id="navigator" transform="translate(0 0)" fill="#404254">
                <rect fill="#f2f5e9" fill-opacity="0.5" stroke="#606060" stroke-width=".5" x="0" y="0" width="60" height="60"/>
                <use id="zoomplus" xlink:href="#zoomPlus" x="17" y="9" onmousedown="handleZoom(evt,'in')"/>
                <use id="zoomminus" xlink:href="#zoomMin" x="42" y="9" onmousedown="handleZoom(evt,'out')"/>
                <use id="reset" xlink:href="#resetDef" x="30" y="36" onmousedown="handleReset()"/>
                <g id="arrowUp" xlink:href="#dirArrow" transform="translate(30 24)" onmousedown="handlePan(0,-1)">
                  <use xlink:href="#rim" fill="#404040">
                        <set attributeName="fill" to="#808080" begin="arrowUp.mouseover" end="arrowUp.mouseout"/>
                  </use>
                  <path fill="none" stroke="white" stroke-width="1.5" d="M0,-3.0v7 M-2.5,-0.5L0,-3.0L2.5,-0.5"/>
                </g>
                <g id="arrowRight" xlink:href="#dirArrow" transform="rotate(90) translate(36 -43)" onmousedown="handlePan(1,0)">
                  <use xlink:href="#rim" fill="#404040">
                        <set attributeName="fill" to="#808080" begin="arrowRight.mouseover" end="arrowRight.mouseout"/>
                  </use>
                  <path fill="none" stroke="white" stroke-width="1.5" d="M0,-3.0v7 M-2.5,-0.5L0,-3.0L2.5,-0.5"/>
                </g>
                <g id="arrowDown" xlink:href="#dirArrow" transform="rotate(180) translate(-30 -48)" onmousedown="handlePan(0,1)">
                  <use xlink:href="#rim" fill="#404040">
                        <set attributeName="fill" to="#808080" begin="arrowDown.mouseover" end="arrowDown.mouseout"/>
                  </use>
                  <path fill="none" stroke="white" stroke-width="1.5" d="M0,-3.0v7 M-2.5,-0.5L0,-3.0L2.5,-0.5"/>
                </g>
                <g id="arrowLeft" xlink:href="#dirArrow" transform="rotate(270) translate(-36 17)" onmousedown="handlePan(-1,0)">
                  <use xlink:href="#rim" fill="#404040">
                        <set attributeName="fill" to="#808080" begin="arrowLeft.mouseover" end="arrowLeft.mouseout"/>
                  </use>
                  <path fill="none" stroke="white" stroke-width="1.5" d="M0,-3.0v7 M-2.5,-0.5L0,-3.0L2.5,-0.5"/>
                </g>
        </g>
        <svg viewBox="0 0 15 15" width="100%" height="30px" preserveAspectRatio="xMaxYMin meet">
         <g id="arrow_out" transform="scale(0.3 0.3)">
          <a xlink:href="lin__alg_8h__dep__incl_org.svg" target="_base">
           <rect id="button" ry="5" rx="5" y="6" x="6" height="38" width="38"
                fill="#f2f5e9" fill-opacity="0.5" stroke="#606060" stroke-width="1.0"/>
           <path id="arrow"
             d="M 11.500037,31.436501 C 11.940474,20.09759 22.043105,11.32322 32.158766,21.979434 L 37.068811,17.246167 C 37.068811,17.246167 37.088388,32 37.088388,32 L 22.160133,31.978069 C 22.160133,31.978069 26.997745,27.140456 26.997745,27.140456 C 18.528582,18.264221 13.291696,25.230495 11.500037,31.436501 z"
             style="fill:#404040;"/>
          </a>
         </g>
        </svg>
</svg>
