<?xml version="1.0" encoding="UTF-8" standalone="no"?>
<!DOCTYPE svg PUBLIC "-//W3C//DTD SVG 1.1//EN"
 "http://www.w3.org/Graphics/SVG/1.1/DTD/svg11.dtd">
<!-- Generated by graphviz version 2.43.0 (0)
 -->
<!-- Title: QPALM/include/linesearch.h Pages: 1 -->
<svg width="499pt" height="151pt"
 viewBox="0.00 0.00 498.50 151.00" xmlns="http://www.w3.org/2000/svg" xmlns:xlink="http://www.w3.org/1999/xlink">
<g id="graph0" class="graph" transform="scale(1 1) rotate(0) translate(4 147)">
<title>QPALM/include/linesearch.h</title>
<polygon fill="white" stroke="transparent" points="-4,4 -4,-147 494.5,-147 494.5,4 -4,4"/>
<!-- Node1 -->
<g id="node1" class="node">
<title>Node1</title>
<g id="a_node1"><a xlink:title="Routines to perform exact linesearch.">
<polygon fill="#bfbfbf" stroke="black" points="163.5,-123.5 163.5,-142.5 314.5,-142.5 314.5,-123.5 163.5,-123.5"/>
<text text-anchor="middle" x="239" y="-130.5" font-family="Helvetica,sans-Serif" font-size="10.00">QPALM/include/linesearch.h</text>
</a>
</g>
</g>
<!-- Node2 -->
<g id="node2" class="node">
<title>Node2</title>
<g id="a_node2"><a xlink:href="qpalm_8h.html" target="_top" xlink:title="QPALM main solver API.">
<polygon fill="white" stroke="black" points="35.5,-67.5 35.5,-86.5 166.5,-86.5 166.5,-67.5 35.5,-67.5"/>
<text text-anchor="middle" x="101" y="-74.5" font-family="Helvetica,sans-Serif" font-size="10.00">QPALM/include/qpalm.h</text>
</a>
</g>
</g>
<!-- Node1&#45;&gt;Node2 -->
<g id="edge1" class="edge">
<title>Node1&#45;&gt;Node2</title>
<path fill="none" stroke="midnightblue" d="M207.75,-119.77C181.83,-109.63 145.64,-95.47 122.76,-86.52"/>
<polygon fill="midnightblue" stroke="midnightblue" points="206.55,-123.06 217.13,-123.44 209.1,-116.54 206.55,-123.06"/>
</g>
<!-- Node4 -->
<g id="node4" class="node">
<title>Node4</title>
<g id="a_node4"><a xlink:href="qpalm_8c.html" target="_top" xlink:title="QPALM main solver API.">
<polygon fill="white" stroke="black" points="140,-6 140,-25 250,-25 250,-6 140,-6"/>
<text text-anchor="middle" x="195" y="-13" font-family="Helvetica,sans-Serif" font-size="10.00">QPALM/src/qpalm.c</text>
</a>
</g>
</g>
<!-- Node1&#45;&gt;Node4 -->
<g id="edge6" class="edge">
<title>Node1&#45;&gt;Node4</title>
<path fill="none" stroke="midnightblue" d="M228.12,-114.75C223.3,-106.57 217.86,-96.52 214,-87 205.33,-65.62 199.39,-39.01 196.67,-25.41"/>
<polygon fill="midnightblue" stroke="midnightblue" points="225.16,-116.63 233.36,-123.35 231.14,-112.99 225.16,-116.63"/>
</g>
<!-- Node5 -->
<g id="node5" class="node">
<title>Node5</title>
<g id="a_node5"><a xlink:href="iteration_8c.html" target="_top" xlink:title="QPALM main solver routines.">
<polygon fill="white" stroke="black" points="223,-67.5 223,-86.5 343,-86.5 343,-67.5 223,-67.5"/>
<text text-anchor="middle" x="283" y="-74.5" font-family="Helvetica,sans-Serif" font-size="10.00">QPALM/src/iteration.c</text>
</a>
</g>
</g>
<!-- Node1&#45;&gt;Node5 -->
<g id="edge4" class="edge">
<title>Node1&#45;&gt;Node5</title>
<path fill="none" stroke="midnightblue" d="M252.73,-115.14C260.4,-105.74 269.63,-94.4 275.87,-86.75"/>
<polygon fill="midnightblue" stroke="midnightblue" points="249.87,-113.12 246.27,-123.08 255.3,-117.54 249.87,-113.12"/>
</g>
<!-- Node6 -->
<g id="node6" class="node">
<title>Node6</title>
<g id="a_node6"><a xlink:href="linesearch_8c.html" target="_top" xlink:title="Routines to perform exact or backtracking linesearch.">
<polygon fill="white" stroke="black" points="361.5,-67.5 361.5,-86.5 490.5,-86.5 490.5,-67.5 361.5,-67.5"/>
<text text-anchor="middle" x="426" y="-74.5" font-family="Helvetica,sans-Serif" font-size="10.00">QPALM/src/linesearch.c</text>
</a>
</g>
</g>
<!-- Node1&#45;&gt;Node6 -->
<g id="edge5" class="edge">
<title>Node1&#45;&gt;Node6</title>
<path fill="none" stroke="midnightblue" d="M278.59,-120.57C313.87,-110.38 364.69,-95.7 396.51,-86.52"/>
<polygon fill="midnightblue" stroke="midnightblue" points="277.27,-117.31 268.63,-123.44 279.21,-124.03 277.27,-117.31"/>
</g>
<!-- Node3 -->
<g id="node3" class="node">
<title>Node3</title>
<g id="a_node3"><a xlink:href="qpalm_8cpp.html" target="_top" xlink:title=" ">
<polygon fill="white" stroke="black" points="0,-0.5 0,-30.5 122,-30.5 122,-0.5 0,-0.5"/>
<text text-anchor="start" x="8" y="-18.5" font-family="Helvetica,sans-Serif" font-size="10.00">QPALM/interfaces/cxx</text>
<text text-anchor="middle" x="61" y="-7.5" font-family="Helvetica,sans-Serif" font-size="10.00">/src/qpalm.cpp</text>
</a>
</g>
</g>
<!-- Node2&#45;&gt;Node3 -->
<g id="edge2" class="edge">
<title>Node2&#45;&gt;Node3</title>
<path fill="none" stroke="midnightblue" d="M89.55,-58.96C83.49,-49.96 76.15,-39.03 70.43,-30.52"/>
<polygon fill="midnightblue" stroke="midnightblue" points="86.79,-61.13 95.27,-67.48 92.59,-57.22 86.79,-61.13"/>
</g>
<!-- Node2&#45;&gt;Node4 -->
<g id="edge3" class="edge">
<title>Node2&#45;&gt;Node4</title>
<path fill="none" stroke="midnightblue" d="M123.23,-61.93C141.35,-50.46 166.35,-34.63 181.56,-25.01"/>
<polygon fill="midnightblue" stroke="midnightblue" points="121.05,-59.17 114.47,-67.48 124.79,-65.08 121.05,-59.17"/>
</g>
</g>
</svg>
