<?xml version="1.0" encoding="UTF-8" standalone="no"?>
<!DOCTYPE svg PUBLIC "-//W3C//DTD SVG 1.1//EN"
 "http://www.w3.org/Graphics/SVG/1.1/DTD/svg11.dtd">
<!-- Generated by graphviz version 2.43.0 (0)
 -->
<!-- Title: newton_set_direction Pages: 1 -->
<!--zoomable 770 -->
<svg id="main" version="1.1" xmlns="http://www.w3.org/2000/svg" xmlns:xlink="http://www.w3.org/1999/xlink" xml:space="preserve" onload="init(evt)">
<style type="text/css"><![CDATA[
.edge:hover path { stroke: red; }
.edge:hover polygon { stroke: red; fill: red; }
]]></style>
<script type="text/javascript"><![CDATA[
var edges = document.getElementsByTagName('g');
if (edges && edges.length) {
  for (var i=0;i<edges.length;i++) {
    if (edges[i].id.substr(0,4)=='edge') {
      edges[i].setAttribute('class','edge');
    }
  }
}
]]></script>
        <defs>
                <circle id="rim" cx="0" cy="0" r="7"/>
                <circle id="rim2" cx="0" cy="0" r="3.5"/>
                <g id="zoomPlus">
                        <use xlink:href="#rim" fill="#404040">
                                <set attributeName="fill" to="#808080" begin="zoomplus.mouseover" end="zoomplus.mouseout"/>
                        </use>
                        <path d="M-4,0h8M0,-4v8" fill="none" stroke="white" stroke-width="1.5" pointer-events="none"/>
                </g>
                <g id="zoomMin">
                        <use xlink:href="#rim" fill="#404040">
                                <set attributeName="fill" to="#808080" begin="zoomminus.mouseover" end="zoomminus.mouseout"/>
                        </use>
                        <path d="M-4,0h8" fill="none" stroke="white" stroke-width="1.5" pointer-events="none"/>
                </g>
                <g id="dirArrow">
                        <path fill="none" stroke="white" stroke-width="1.5" d="M0,-3.0v7 M-2.5,-0.5L0,-3.0L2.5,-0.5"/>
                </g>
               <g id="resetDef">
                       <use xlink:href="#rim2" fill="#404040">
                               <set attributeName="fill" to="#808080" begin="reset.mouseover" end="reset.mouseout"/>
                       </use>
               </g>
        </defs>

<script type="text/javascript">
var viewWidth = 446;
var viewHeight = 770;
var sectionId = 'dynsection-2';
</script>
<script xlink:href="svgpan.js"/>
<svg id="graph" class="graph">
<g id="viewport">
<title>newton_set_direction</title>
<polygon fill="white" stroke="transparent" points="-4,4 -4,-766 442,-766 442,4 -4,4"/>
<!-- Node1 -->
<g id="node1" class="node">
<title>Node1</title>
<g id="a_node1"><a xlink:title="Sets work&#45;&gt;d to the direction calculated by the semismooth Newton method.">
<polygon fill="#bfbfbf" stroke="black" points="0,-360.5 0,-379.5 121,-379.5 121,-360.5 0,-360.5"/>
<text text-anchor="middle" x="60.5" y="-367.5" font-family="Helvetica,sans-Serif" font-size="10.00">newton_set_direction</text>
</a>
</g>
</g>
<!-- Node2 -->
<g id="node2" class="node">
<title>Node2</title>
<g id="a_node2"><a xlink:href="solver__interface_8c.html#aca80eaf7b897030273f1a6820b7e6d38" target="_top" xlink:title="Solve the KKT system .">
<polygon fill="white" stroke="black" points="188,-704.5 188,-723.5 252,-723.5 252,-704.5 188,-704.5"/>
<text text-anchor="middle" x="220" y="-711.5" font-family="Helvetica,sans-Serif" font-size="10.00">kkt_solve</text>
</a>
</g>
</g>
<!-- Node1&#45;&gt;Node2 -->
<g id="edge1" class="edge">
<title>Node1&#45;&gt;Node2</title>
<path fill="none" stroke="midnightblue" d="M61.26,-379.57C60.73,-422.75 64.39,-601.31 157,-695 162.8,-700.86 170.35,-704.93 178.18,-707.74"/>
<polygon fill="midnightblue" stroke="midnightblue" points="177.19,-711.1 187.77,-710.59 179.18,-704.39 177.19,-711.1"/>
</g>
<!-- Node3 -->
<g id="node3" class="node">
<title>Node3</title>
<g id="a_node3"><a xlink:href="lin__alg_8c.html#acf468a60c38fbc58b6de539acb6f0a3b" target="_top" xlink:title="Copy vector a into preallocated vector b.">
<polygon fill="white" stroke="black" points="334,-704.5 334,-723.5 423,-723.5 423,-704.5 334,-704.5"/>
<text text-anchor="middle" x="378.5" y="-711.5" font-family="Helvetica,sans-Serif" font-size="10.00">prea_vec_copy</text>
</a>
</g>
</g>
<!-- Node1&#45;&gt;Node3 -->
<g id="edge17" class="edge">
<title>Node1&#45;&gt;Node3</title>
<path fill="none" stroke="midnightblue" d="M62.49,-379.74C68.12,-432.92 97.91,-687.44 157,-733 182.91,-752.97 271.9,-737.97 328.6,-725.68"/>
<polygon fill="midnightblue" stroke="midnightblue" points="329.43,-729.08 338.44,-723.51 327.92,-722.25 329.43,-729.08"/>
</g>
<!-- Node4 -->
<g id="node4" class="node">
<title>Node4</title>
<g id="a_node4"><a xlink:href="lin__alg_8c.html#a932b289ad07aea70e64b417ef9160674" target="_top" xlink:title="Mulitply vector with a constant scale factor.">
<polygon fill="white" stroke="black" points="319,-666.5 319,-685.5 438,-685.5 438,-666.5 319,-666.5"/>
<text text-anchor="middle" x="378.5" y="-673.5" font-family="Helvetica,sans-Serif" font-size="10.00">vec_self_mult_scalar</text>
</a>
</g>
</g>
<!-- Node1&#45;&gt;Node4 -->
<g id="edge25" class="edge">
<title>Node1&#45;&gt;Node4</title>
<path fill="none" stroke="midnightblue" d="M62.15,-379.61C65.17,-416.64 81.19,-551.32 157,-619 169.38,-630.05 260.37,-651.13 321.53,-664.32"/>
<polygon fill="midnightblue" stroke="midnightblue" points="320.94,-667.77 331.45,-666.45 322.41,-660.93 320.94,-667.77"/>
</g>
<!-- Node6 -->
<g id="node6" class="node">
<title>Node6</title>
<g id="a_node6"><a xlink:href="solver__interface_8c.html#a7ab6022f2624a8f13bf8f54067c9f2cd" target="_top" xlink:title="Perform a factorization update for the entering constraints.">
<polygon fill="white" stroke="black" points="161.5,-579 161.5,-609 278.5,-609 278.5,-579 161.5,-579"/>
<text text-anchor="start" x="169.5" y="-597" font-family="Helvetica,sans-Serif" font-size="10.00">kkt_update_entering</text>
<text text-anchor="middle" x="220" y="-586" font-family="Helvetica,sans-Serif" font-size="10.00">_constraints</text>
</a>
</g>
</g>
<!-- Node1&#45;&gt;Node6 -->
<g id="edge5" class="edge">
<title>Node1&#45;&gt;Node6</title>
<path fill="none" stroke="midnightblue" d="M63.49,-379.86C70.45,-411.88 96.6,-514.03 157,-570 158.28,-571.19 159.63,-572.32 161.02,-573.39"/>
<polygon fill="midnightblue" stroke="midnightblue" points="159.25,-576.42 169.53,-578.98 163.1,-570.57 159.25,-576.42"/>
</g>
<!-- Node7 -->
<g id="node7" class="node">
<title>Node7</title>
<g id="a_node7"><a xlink:href="solver__interface_8c.html#a172614d18d4dd82e001245d7ceea389f" target="_top" xlink:title="Perform a factorization update for the leaving constraints.">
<polygon fill="white" stroke="black" points="163.5,-530 163.5,-560 276.5,-560 276.5,-530 163.5,-530"/>
<text text-anchor="start" x="171.5" y="-548" font-family="Helvetica,sans-Serif" font-size="10.00">kkt_update_leaving</text>
<text text-anchor="middle" x="220" y="-537" font-family="Helvetica,sans-Serif" font-size="10.00">_constraints</text>
</a>
</g>
</g>
<!-- Node1&#45;&gt;Node7 -->
<g id="edge6" class="edge">
<title>Node1&#45;&gt;Node7</title>
<path fill="none" stroke="midnightblue" d="M65.11,-379.51C75.44,-405.58 107.62,-478.95 157,-520 158.99,-521.66 161.11,-523.21 163.31,-524.68"/>
<polygon fill="midnightblue" stroke="midnightblue" points="161.76,-527.82 172.16,-529.86 165.3,-521.78 161.76,-527.82"/>
</g>
<!-- Node8 -->
<g id="node8" class="node">
<title>Node8</title>
<g id="a_node8"><a xlink:href="solver__interface_8c.html#ab4921dab7206bd333c9e7dc679dce0b1" target="_top" xlink:title="Calculate &#160;factorization of a matrix .">
<polygon fill="white" stroke="black" points="354,-472.5 354,-491.5 403,-491.5 403,-472.5 354,-472.5"/>
<text text-anchor="middle" x="378.5" y="-479.5" font-family="Helvetica,sans-Serif" font-size="10.00">ldlchol</text>
</a>
</g>
</g>
<!-- Node1&#45;&gt;Node8 -->
<g id="edge7" class="edge">
<title>Node1&#45;&gt;Node8</title>
<path fill="none" stroke="midnightblue" d="M70.79,-379.63C86.78,-395.59 121.27,-427.31 157,-443 219.15,-470.3 299.09,-478.5 343.65,-480.96"/>
<polygon fill="midnightblue" stroke="midnightblue" points="343.76,-484.47 353.92,-481.46 344.1,-477.48 343.76,-484.47"/>
</g>
<!-- Node9 -->
<g id="node9" class="node">
<title>Node9</title>
<g id="a_node9"><a xlink:href="solver__interface_8c.html#a972c4868a7391f4b18d836f1ca0810d9" target="_top" xlink:title="Calculate &#160;factorization of , with &#160;and &#160;the set of active constraints.">
<polygon fill="white" stroke="black" points="168,-491.5 168,-510.5 272,-510.5 272,-491.5 168,-491.5"/>
<text text-anchor="middle" x="220" y="-498.5" font-family="Helvetica,sans-Serif" font-size="10.00">ldlcholQAtsigmaA</text>
</a>
</g>
</g>
<!-- Node1&#45;&gt;Node9 -->
<g id="edge8" class="edge">
<title>Node1&#45;&gt;Node9</title>
<path fill="none" stroke="midnightblue" d="M67.74,-379.67C81.51,-400.27 116.47,-448.93 157,-477 162.8,-481.02 169.37,-484.49 176,-487.44"/>
<polygon fill="midnightblue" stroke="midnightblue" points="175.11,-490.85 185.69,-491.39 177.76,-484.37 175.11,-490.85"/>
</g>
<!-- Node10 -->
<g id="node10" class="node">
<title>Node10</title>
<g id="a_node10"><a xlink:href="solver__interface_8c.html#a6892fee611934ae5337f1be0235bfc80" target="_top" xlink:title="Downdate the &#160;factorization given a set of leaving constraints.">
<polygon fill="white" stroke="black" points="161,-404 161,-434 279,-434 279,-404 161,-404"/>
<text text-anchor="start" x="169" y="-422" font-family="Helvetica,sans-Serif" font-size="10.00">ldldowndate_leaving</text>
<text text-anchor="middle" x="220" y="-411" font-family="Helvetica,sans-Serif" font-size="10.00">_constraints</text>
</a>
</g>
</g>
<!-- Node1&#45;&gt;Node10 -->
<g id="edge10" class="edge">
<title>Node1&#45;&gt;Node10</title>
<path fill="none" stroke="midnightblue" d="M92.24,-379.56C111.75,-385.63 137.6,-393.68 160.88,-400.92"/>
<polygon fill="midnightblue" stroke="midnightblue" points="160.08,-404.33 170.67,-403.96 162.16,-397.65 160.08,-404.33"/>
</g>
<!-- Node11 -->
<g id="node11" class="node">
<title>Node11</title>
<g id="a_node11"><a xlink:href="solver__interface_8c.html#a03ad73d0e41054e90232d141e73474ab" target="_top" xlink:title="Solve the linear system .">
<polygon fill="white" stroke="black" points="161.5,-666.5 161.5,-685.5 278.5,-685.5 278.5,-666.5 161.5,-666.5"/>
<text text-anchor="middle" x="220" y="-673.5" font-family="Helvetica,sans-Serif" font-size="10.00">ldlsolveLD_neg_dphi</text>
</a>
</g>
</g>
<!-- Node1&#45;&gt;Node11 -->
<g id="edge11" class="edge">
<title>Node1&#45;&gt;Node11</title>
<path fill="none" stroke="midnightblue" d="M61.94,-379.75C64.22,-419.28 77.97,-569.51 157,-652 160.79,-655.96 165.31,-659.27 170.16,-662.05"/>
<polygon fill="midnightblue" stroke="midnightblue" points="168.63,-665.2 179.15,-666.48 171.73,-658.92 168.63,-665.2"/>
</g>
<!-- Node12 -->
<g id="node12" class="node">
<title>Node12</title>
<g id="a_node12"><a xlink:href="solver__interface_8c.html#adee67b7c00941da3be82394e4f58c47e" target="_top" xlink:title="Update the &#160;factorization given a set of entering constraints.">
<polygon fill="white" stroke="black" points="166,-355 166,-385 274,-385 274,-355 166,-355"/>
<text text-anchor="start" x="174" y="-373" font-family="Helvetica,sans-Serif" font-size="10.00">ldlupdate_entering</text>
<text text-anchor="middle" x="220" y="-362" font-family="Helvetica,sans-Serif" font-size="10.00">_constraints</text>
</a>
</g>
</g>
<!-- Node1&#45;&gt;Node12 -->
<g id="edge14" class="edge">
<title>Node1&#45;&gt;Node12</title>
<path fill="none" stroke="midnightblue" d="M121.04,-370C132.32,-370 144.15,-370 155.53,-370"/>
<polygon fill="midnightblue" stroke="midnightblue" points="155.84,-373.5 165.84,-370 155.84,-366.5 155.84,-373.5"/>
</g>
<!-- Node13 -->
<g id="node13" class="node">
<title>Node13</title>
<g id="a_node13"><a xlink:href="solver__interface_8c.html#a4824fb035d8cdb8ba46e4ac5c4049d5d" target="_top" xlink:title="Matrix&#45;vector multiplication.">
<polygon fill="white" stroke="black" points="190.5,-316.5 190.5,-335.5 249.5,-335.5 249.5,-316.5 190.5,-316.5"/>
<text text-anchor="middle" x="220" y="-323.5" font-family="Helvetica,sans-Serif" font-size="10.00">mat_vec</text>
</a>
</g>
</g>
<!-- Node1&#45;&gt;Node13 -->
<g id="edge15" class="edge">
<title>Node1&#45;&gt;Node13</title>
<path fill="none" stroke="midnightblue" d="M95.68,-360.45C120.67,-353.47 154.61,-343.99 180.56,-336.74"/>
<polygon fill="midnightblue" stroke="midnightblue" points="181.74,-340.04 190.43,-333.98 179.85,-333.3 181.74,-340.04"/>
</g>
<!-- Node14 -->
<g id="node14" class="node">
<title>Node14</title>
<g id="a_node14"><a xlink:href="lin__alg_8c.html#ade8612cfab1bef397f1ff7a36f202e73" target="_top" xlink:title="Copy integer vector a into preallocated vector b.">
<polygon fill="white" stroke="black" points="166.5,-278.5 166.5,-297.5 273.5,-297.5 273.5,-278.5 166.5,-278.5"/>
<text text-anchor="middle" x="220" y="-285.5" font-family="Helvetica,sans-Serif" font-size="10.00">prea_int_vec_copy</text>
</a>
</g>
</g>
<!-- Node1&#45;&gt;Node14 -->
<g id="edge16" class="edge">
<title>Node1&#45;&gt;Node14</title>
<path fill="none" stroke="midnightblue" d="M73.49,-360.44C90.96,-346.92 124.84,-322.15 157,-307 161.72,-304.78 166.76,-302.74 171.85,-300.89"/>
<polygon fill="midnightblue" stroke="midnightblue" points="173.29,-304.09 181.63,-297.56 171.03,-297.47 173.29,-304.09"/>
</g>
<!-- Node15 -->
<g id="node15" class="node">
<title>Node15</title>
<g id="a_node15"><a xlink:href="solver__interface_8c.html#a1d321f8b340db936d2f62a9abb350600" target="_top" xlink:title="Form the KKT system .">
<polygon fill="white" stroke="black" points="171.5,-240.5 171.5,-259.5 268.5,-259.5 268.5,-240.5 171.5,-240.5"/>
<text text-anchor="middle" x="220" y="-247.5" font-family="Helvetica,sans-Serif" font-size="10.00">qpalm_form_kkt</text>
</a>
</g>
</g>
<!-- Node1&#45;&gt;Node15 -->
<g id="edge18" class="edge">
<title>Node1&#45;&gt;Node15</title>
<path fill="none" stroke="midnightblue" d="M67.94,-360.37C81.83,-340.36 116.6,-294.07 157,-269 160.4,-266.89 164.05,-265 167.82,-263.31"/>
<polygon fill="midnightblue" stroke="midnightblue" points="169.36,-266.46 177.35,-259.5 166.76,-259.96 169.36,-266.46"/>
</g>
<!-- Node16 -->
<g id="node16" class="node">
<title>Node16</title>
<g id="a_node16"><a xlink:href="solver__interface_8c.html#ad0f4712f4b0ab25ecca938a1f4b1e0a1" target="_top" xlink:title="Reform the KKT system (i.e.">
<polygon fill="white" stroke="black" points="166.5,-202.5 166.5,-221.5 273.5,-221.5 273.5,-202.5 166.5,-202.5"/>
<text text-anchor="middle" x="220" y="-209.5" font-family="Helvetica,sans-Serif" font-size="10.00">qpalm_reform_kkt</text>
</a>
</g>
</g>
<!-- Node1&#45;&gt;Node16 -->
<g id="edge19" class="edge">
<title>Node1&#45;&gt;Node16</title>
<path fill="none" stroke="midnightblue" d="M65.44,-360.25C76.17,-334.94 108.37,-266.68 157,-231 159.63,-229.07 162.46,-227.33 165.42,-225.77"/>
<polygon fill="midnightblue" stroke="midnightblue" points="166.92,-228.93 174.55,-221.58 164,-222.56 166.92,-228.93"/>
</g>
<!-- Node17 -->
<g id="node17" class="node">
<title>Node17</title>
<g id="a_node17"><a xlink:href="newton_8c.html#ae27a99e2b3249e8455b72c2e2a977dd8" target="_top" xlink:title="Computes the set of active constraints and stores it in work&#45;&gt;solver&#45;&gt;active_constraints.">
<polygon fill="white" stroke="black" points="157,-164.5 157,-183.5 283,-183.5 283,-164.5 157,-164.5"/>
<text text-anchor="middle" x="220" y="-171.5" font-family="Helvetica,sans-Serif" font-size="10.00">set_active_constraints</text>
</a>
</g>
</g>
<!-- Node1&#45;&gt;Node17 -->
<g id="edge20" class="edge">
<title>Node1&#45;&gt;Node17</title>
<path fill="none" stroke="midnightblue" d="M63.92,-360.27C71.83,-330.52 99.75,-239.93 157,-193 159.06,-191.31 161.26,-189.78 163.57,-188.38"/>
<polygon fill="midnightblue" stroke="midnightblue" points="165.58,-191.28 172.89,-183.62 162.4,-185.05 165.58,-191.28"/>
</g>
<!-- Node18 -->
<g id="node18" class="node">
<title>Node18</title>
<g id="a_node18"><a xlink:href="newton_8c.html#a43d518127e8561034e35ba18d0e15b31" target="_top" xlink:title="Determines the entering and leaving constraints and stores them in work&#45;&gt;solver&#45;&gt;enter and work&#45;&gt;solv...">
<polygon fill="white" stroke="black" points="160.5,-115 160.5,-145 279.5,-145 279.5,-115 160.5,-115"/>
<text text-anchor="start" x="168.5" y="-133" font-family="Helvetica,sans-Serif" font-size="10.00">set_entering_leaving</text>
<text text-anchor="middle" x="220" y="-122" font-family="Helvetica,sans-Serif" font-size="10.00">_constraints</text>
</a>
</g>
</g>
<!-- Node1&#45;&gt;Node18 -->
<g id="edge21" class="edge">
<title>Node1&#45;&gt;Node18</title>
<path fill="none" stroke="midnightblue" d="M63.12,-360.38C69.18,-327.21 93.54,-216.29 157,-155 158.63,-153.43 160.37,-151.95 162.19,-150.56"/>
<polygon fill="midnightblue" stroke="midnightblue" points="164.2,-153.43 170.66,-145.03 160.37,-147.57 164.2,-153.43"/>
</g>
<!-- Node19 -->
<g id="node19" class="node">
<title>Node19</title>
<g id="a_node19"><a xlink:href="lin__alg_8c.html#a0fde1aeeea954e43db160ec6e3697cd5" target="_top" xlink:title="Scaled addition of one vector to another vector, .">
<polygon fill="white" stroke="black" points="173,-76.5 173,-95.5 267,-95.5 267,-76.5 173,-76.5"/>
<text text-anchor="middle" x="220" y="-83.5" font-family="Helvetica,sans-Serif" font-size="10.00">vec_add_scaled</text>
</a>
</g>
</g>
<!-- Node1&#45;&gt;Node19 -->
<g id="edge22" class="edge">
<title>Node1&#45;&gt;Node19</title>
<path fill="none" stroke="midnightblue" d="M62,-360.42C64.5,-322.23 78.92,-179.38 157,-105 159.14,-102.96 161.49,-101.14 163.99,-99.52"/>
<polygon fill="midnightblue" stroke="midnightblue" points="165.8,-102.52 172.96,-94.71 162.49,-96.35 165.8,-102.52"/>
</g>
<!-- Node20 -->
<g id="node20" class="node">
<title>Node20</title>
<g id="a_node20"><a xlink:href="lin__alg_8c.html#a863f6634d67489350855e97c36c8c59c" target="_top" xlink:title="Scaled addition of one vector to another vector, both being scaled, .">
<polygon fill="white" stroke="black" points="159,-38.5 159,-57.5 281,-57.5 281,-38.5 159,-38.5"/>
<text text-anchor="middle" x="220" y="-45.5" font-family="Helvetica,sans-Serif" font-size="10.00">vec_mult_add_scaled</text>
</a>
</g>
</g>
<!-- Node1&#45;&gt;Node20 -->
<g id="edge23" class="edge">
<title>Node1&#45;&gt;Node20</title>
<path fill="none" stroke="midnightblue" d="M61.5,-360.23C62.06,-318.51 69.88,-153.43 157,-67 158.47,-65.54 160.05,-64.2 161.71,-62.95"/>
<polygon fill="midnightblue" stroke="midnightblue" points="163.88,-65.73 170.63,-57.56 160.26,-59.74 163.88,-65.73"/>
</g>
<!-- Node21 -->
<g id="node21" class="node">
<title>Node21</title>
<g id="a_node21"><a xlink:href="lin__alg_8c.html#ad69e3ef3b7360cd1d6262ee2f32fce83" target="_top" xlink:title="Infinity norm of a vector, .">
<polygon fill="white" stroke="black" points="178.5,-0.5 178.5,-19.5 261.5,-19.5 261.5,-0.5 178.5,-0.5"/>
<text text-anchor="middle" x="220" y="-7.5" font-family="Helvetica,sans-Serif" font-size="10.00">vec_norm_inf</text>
</a>
</g>
</g>
<!-- Node1&#45;&gt;Node21 -->
<g id="edge24" class="edge">
<title>Node1&#45;&gt;Node21</title>
<path fill="none" stroke="midnightblue" d="M61.1,-360.27C59.83,-315.55 60.6,-127.77 157,-29 160.45,-25.46 164.55,-22.58 168.96,-20.23"/>
<polygon fill="midnightblue" stroke="midnightblue" points="170.61,-23.33 178.37,-16.11 167.8,-16.91 170.61,-23.33"/>
</g>
<!-- Node2&#45;&gt;Node3 -->
<g id="edge2" class="edge">
<title>Node2&#45;&gt;Node3</title>
<path fill="none" stroke="midnightblue" d="M252.29,-714C272.65,-714 299.74,-714 323.51,-714"/>
<polygon fill="midnightblue" stroke="midnightblue" points="323.81,-717.5 333.81,-714 323.81,-710.5 323.81,-717.5"/>
</g>
<!-- Node2&#45;&gt;Node4 -->
<g id="edge3" class="edge">
<title>Node2&#45;&gt;Node4</title>
<path fill="none" stroke="midnightblue" d="M252.29,-706.4C274.01,-701.13 303.38,-694 328.22,-687.97"/>
<polygon fill="midnightblue" stroke="midnightblue" points="329.31,-691.3 338.2,-685.54 327.66,-684.5 329.31,-691.3"/>
</g>
<!-- Node5 -->
<g id="node5" class="node">
<title>Node5</title>
<g id="a_node5"><a xlink:href="lin__alg_8c.html#a67ead739705f515285526db604c5bb7d" target="_top" xlink:title="Fill float vector with a scalar value.">
<polygon fill="white" stroke="black" points="334,-742.5 334,-761.5 423,-761.5 423,-742.5 334,-742.5"/>
<text text-anchor="middle" x="378.5" y="-749.5" font-family="Helvetica,sans-Serif" font-size="10.00">vec_set_scalar</text>
</a>
</g>
</g>
<!-- Node2&#45;&gt;Node5 -->
<g id="edge4" class="edge">
<title>Node2&#45;&gt;Node5</title>
<path fill="none" stroke="midnightblue" d="M252.29,-721.6C274.01,-726.87 303.38,-734 328.22,-740.03"/>
<polygon fill="midnightblue" stroke="midnightblue" points="327.66,-743.5 338.2,-742.46 329.31,-736.7 327.66,-743.5"/>
</g>
<!-- Node9&#45;&gt;Node8 -->
<g id="edge9" class="edge">
<title>Node9&#45;&gt;Node8</title>
<path fill="none" stroke="midnightblue" d="M272.24,-494.78C295.73,-491.93 322.92,-488.63 343.78,-486.09"/>
<polygon fill="midnightblue" stroke="midnightblue" points="344.26,-489.56 353.76,-484.88 343.41,-482.61 344.26,-489.56"/>
</g>
<!-- Node11&#45;&gt;Node3 -->
<g id="edge12" class="edge">
<title>Node11&#45;&gt;Node3</title>
<path fill="none" stroke="midnightblue" d="M260.49,-685.59C281.14,-690.6 306.61,-696.79 328.51,-702.11"/>
<polygon fill="midnightblue" stroke="midnightblue" points="327.75,-705.52 338.29,-704.48 329.4,-698.72 327.75,-705.52"/>
</g>
<!-- Node11&#45;&gt;Node4 -->
<g id="edge13" class="edge">
<title>Node11&#45;&gt;Node4</title>
<path fill="none" stroke="midnightblue" d="M278.83,-676C288.52,-676 298.67,-676 308.61,-676"/>
<polygon fill="midnightblue" stroke="midnightblue" points="308.86,-679.5 318.86,-676 308.86,-672.5 308.86,-679.5"/>
</g>
</g>
</svg>
        <g id="navigator" transform="translate(0 0)" fill="#404254">
                <rect fill="#f2f5e9" fill-opacity="0.5" stroke="#606060" stroke-width=".5" x="0" y="0" width="60" height="60"/>
                <use id="zoomplus" xlink:href="#zoomPlus" x="17" y="9" onmousedown="handleZoom(evt,'in')"/>
                <use id="zoomminus" xlink:href="#zoomMin" x="42" y="9" onmousedown="handleZoom(evt,'out')"/>
                <use id="reset" xlink:href="#resetDef" x="30" y="36" onmousedown="handleReset()"/>
                <g id="arrowUp" xlink:href="#dirArrow" transform="translate(30 24)" onmousedown="handlePan(0,-1)">
                  <use xlink:href="#rim" fill="#404040">
                        <set attributeName="fill" to="#808080" begin="arrowUp.mouseover" end="arrowUp.mouseout"/>
                  </use>
                  <path fill="none" stroke="white" stroke-width="1.5" d="M0,-3.0v7 M-2.5,-0.5L0,-3.0L2.5,-0.5"/>
                </g>
                <g id="arrowRight" xlink:href="#dirArrow" transform="rotate(90) translate(36 -43)" onmousedown="handlePan(1,0)">
                  <use xlink:href="#rim" fill="#404040">
                        <set attributeName="fill" to="#808080" begin="arrowRight.mouseover" end="arrowRight.mouseout"/>
                  </use>
                  <path fill="none" stroke="white" stroke-width="1.5" d="M0,-3.0v7 M-2.5,-0.5L0,-3.0L2.5,-0.5"/>
                </g>
                <g id="arrowDown" xlink:href="#dirArrow" transform="rotate(180) translate(-30 -48)" onmousedown="handlePan(0,1)">
                  <use xlink:href="#rim" fill="#404040">
                        <set attributeName="fill" to="#808080" begin="arrowDown.mouseover" end="arrowDown.mouseout"/>
                  </use>
                  <path fill="none" stroke="white" stroke-width="1.5" d="M0,-3.0v7 M-2.5,-0.5L0,-3.0L2.5,-0.5"/>
                </g>
                <g id="arrowLeft" xlink:href="#dirArrow" transform="rotate(270) translate(-36 17)" onmousedown="handlePan(-1,0)">
                  <use xlink:href="#rim" fill="#404040">
                        <set attributeName="fill" to="#808080" begin="arrowLeft.mouseover" end="arrowLeft.mouseout"/>
                  </use>
                  <path fill="none" stroke="white" stroke-width="1.5" d="M0,-3.0v7 M-2.5,-0.5L0,-3.0L2.5,-0.5"/>
                </g>
        </g>
        <svg viewBox="0 0 15 15" width="100%" height="30px" preserveAspectRatio="xMaxYMin meet">
         <g id="arrow_out" transform="scale(0.3 0.3)">
          <a xlink:href="newton_8h_af1654e5597faac8b0ade25acf1fc1bc9_cgraph_org.svg" target="_base">
           <rect id="button" ry="5" rx="5" y="6" x="6" height="38" width="38"
                fill="#f2f5e9" fill-opacity="0.5" stroke="#606060" stroke-width="1.0"/>
           <path id="arrow"
             d="M 11.500037,31.436501 C 11.940474,20.09759 22.043105,11.32322 32.158766,21.979434 L 37.068811,17.246167 C 37.068811,17.246167 37.088388,32 37.088388,32 L 22.160133,31.978069 C 22.160133,31.978069 26.997745,27.140456 26.997745,27.140456 C 18.528582,18.264221 13.291696,25.230495 11.500037,31.436501 z"
             style="fill:#404040;"/>
          </a>
         </g>
        </svg>
</svg>
