<?xml version="1.0" encoding="UTF-8" standalone="no"?>
<!DOCTYPE svg PUBLIC "-//W3C//DTD SVG 1.1//EN"
 "http://www.w3.org/Graphics/SVG/1.1/DTD/svg11.dtd">
<!-- Generated by graphviz version 2.43.0 (0)
 -->
<!-- Title: QPALM/include/scaling.h Pages: 1 -->
<svg width="345pt" height="151pt"
 viewBox="0.00 0.00 344.50 151.00" xmlns="http://www.w3.org/2000/svg" xmlns:xlink="http://www.w3.org/1999/xlink">
<g id="graph0" class="graph" transform="scale(1 1) rotate(0) translate(4 147)">
<title>QPALM/include/scaling.h</title>
<polygon fill="white" stroke="transparent" points="-4,4 -4,-147 340.5,-147 340.5,4 -4,4"/>
<!-- Node1 -->
<g id="node1" class="node">
<title>Node1</title>
<g id="a_node1"><a xlink:title="Problem data scaling during setup.">
<polygon fill="#bfbfbf" stroke="black" points="127.5,-123.5 127.5,-142.5 262.5,-142.5 262.5,-123.5 127.5,-123.5"/>
<text text-anchor="middle" x="195" y="-130.5" font-family="Helvetica,sans-Serif" font-size="10.00">QPALM/include/scaling.h</text>
</a>
</g>
</g>
<!-- Node2 -->
<g id="node2" class="node">
<title>Node2</title>
<g id="a_node2"><a xlink:href="qpalm_8h.html" target="_top" xlink:title="QPALM main solver API.">
<polygon fill="white" stroke="black" points="35.5,-67.5 35.5,-86.5 166.5,-86.5 166.5,-67.5 35.5,-67.5"/>
<text text-anchor="middle" x="101" y="-74.5" font-family="Helvetica,sans-Serif" font-size="10.00">QPALM/include/qpalm.h</text>
</a>
</g>
</g>
<!-- Node1&#45;&gt;Node2 -->
<g id="edge1" class="edge">
<title>Node1&#45;&gt;Node2</title>
<path fill="none" stroke="midnightblue" d="M170.94,-118.18C153.64,-108.24 130.85,-95.15 116.07,-86.65"/>
<polygon fill="midnightblue" stroke="midnightblue" points="169.48,-121.38 179.9,-123.32 172.97,-115.31 169.48,-121.38"/>
</g>
<!-- Node4 -->
<g id="node4" class="node">
<title>Node4</title>
<g id="a_node4"><a xlink:href="qpalm_8c.html" target="_top" xlink:title="QPALM main solver API.">
<polygon fill="white" stroke="black" points="140,-6 140,-25 250,-25 250,-6 140,-6"/>
<text text-anchor="middle" x="195" y="-13" font-family="Helvetica,sans-Serif" font-size="10.00">QPALM/src/qpalm.c</text>
</a>
</g>
</g>
<!-- Node1&#45;&gt;Node4 -->
<g id="edge4" class="edge">
<title>Node1&#45;&gt;Node4</title>
<path fill="none" stroke="midnightblue" d="M195,-113.16C195,-87.87 195,-43.94 195,-25.28"/>
<polygon fill="midnightblue" stroke="midnightblue" points="191.5,-113.32 195,-123.32 198.5,-113.32 191.5,-113.32"/>
</g>
<!-- Node5 -->
<g id="node5" class="node">
<title>Node5</title>
<g id="a_node5"><a xlink:href="scaling_8c.html" target="_top" xlink:title="Problem data scaling during setup.">
<polygon fill="white" stroke="black" points="223.5,-67.5 223.5,-86.5 336.5,-86.5 336.5,-67.5 223.5,-67.5"/>
<text text-anchor="middle" x="280" y="-74.5" font-family="Helvetica,sans-Serif" font-size="10.00">QPALM/src/scaling.c</text>
</a>
</g>
</g>
<!-- Node1&#45;&gt;Node5 -->
<g id="edge5" class="edge">
<title>Node1&#45;&gt;Node5</title>
<path fill="none" stroke="midnightblue" d="M217.19,-117.9C232.78,-108 253.13,-95.07 266.38,-86.65"/>
<polygon fill="midnightblue" stroke="midnightblue" points="215.22,-115.01 208.66,-123.32 218.97,-120.92 215.22,-115.01"/>
</g>
<!-- Node3 -->
<g id="node3" class="node">
<title>Node3</title>
<g id="a_node3"><a xlink:href="qpalm_8cpp.html" target="_top" xlink:title=" ">
<polygon fill="white" stroke="black" points="0,-0.5 0,-30.5 122,-30.5 122,-0.5 0,-0.5"/>
<text text-anchor="start" x="8" y="-18.5" font-family="Helvetica,sans-Serif" font-size="10.00">QPALM/interfaces/cxx</text>
<text text-anchor="middle" x="61" y="-7.5" font-family="Helvetica,sans-Serif" font-size="10.00">/src/qpalm.cpp</text>
</a>
</g>
</g>
<!-- Node2&#45;&gt;Node3 -->
<g id="edge2" class="edge">
<title>Node2&#45;&gt;Node3</title>
<path fill="none" stroke="midnightblue" d="M89.55,-58.96C83.49,-49.96 76.15,-39.03 70.43,-30.52"/>
<polygon fill="midnightblue" stroke="midnightblue" points="86.79,-61.13 95.27,-67.48 92.59,-57.22 86.79,-61.13"/>
</g>
<!-- Node2&#45;&gt;Node4 -->
<g id="edge3" class="edge">
<title>Node2&#45;&gt;Node4</title>
<path fill="none" stroke="midnightblue" d="M123.23,-61.93C141.35,-50.46 166.35,-34.63 181.56,-25.01"/>
<polygon fill="midnightblue" stroke="midnightblue" points="121.05,-59.17 114.47,-67.48 124.79,-65.08 121.05,-59.17"/>
</g>
</g>
</svg>
