<?xml version="1.0" encoding="UTF-8" standalone="no"?>
<!DOCTYPE svg PUBLIC "-//W3C//DTD SVG 1.1//EN"
 "http://www.w3.org/Graphics/SVG/1.1/DTD/svg11.dtd">
<!-- Generated by graphviz version 2.43.0 (0)
 -->
<!-- Title: scale_data Pages: 1 -->
<svg width="232pt" height="294pt"
 viewBox="0.00 0.00 232.00 294.00" xmlns="http://www.w3.org/2000/svg" xmlns:xlink="http://www.w3.org/1999/xlink">
<g id="graph0" class="graph" transform="scale(1 1) rotate(0) translate(4 290)">
<title>scale_data</title>
<polygon fill="white" stroke="transparent" points="-4,4 -4,-290 228,-290 228,4 -4,4"/>
<!-- Node1 -->
<g id="node1" class="node">
<title>Node1</title>
<g id="a_node1"><a xlink:title="Scale problem matrices.">
<polygon fill="#bfbfbf" stroke="black" points="0,-133.5 0,-152.5 69,-152.5 69,-133.5 0,-133.5"/>
<text text-anchor="middle" x="34.5" y="-140.5" font-family="Helvetica,sans-Serif" font-size="10.00">scale_data</text>
</a>
</g>
</g>
<!-- Node2 -->
<g id="node2" class="node">
<title>Node2</title>
<g id="a_node2"><a xlink:href="scaling_8c.html#a6d8255033fe7895a885af496fc510407" target="_top" xlink:title=" ">
<polygon fill="white" stroke="black" points="125,-266.5 125,-285.5 204,-285.5 204,-266.5 125,-266.5"/>
<text text-anchor="middle" x="164.5" y="-273.5" font-family="Helvetica,sans-Serif" font-size="10.00">limit_scaling</text>
</a>
</g>
</g>
<!-- Node1&#45;&gt;Node2 -->
<g id="edge1" class="edge">
<title>Node1&#45;&gt;Node2</title>
<path fill="none" stroke="midnightblue" d="M38.68,-152.53C46.45,-174.31 68.44,-228.12 105,-257 108.16,-259.5 111.66,-261.67 115.33,-263.56"/>
<polygon fill="midnightblue" stroke="midnightblue" points="114.15,-266.87 124.71,-267.71 116.98,-260.47 114.15,-266.87"/>
</g>
<!-- Node3 -->
<g id="node3" class="node">
<title>Node3</title>
<g id="a_node3"><a xlink:href="lin__alg_8c.html#acf468a60c38fbc58b6de539acb6f0a3b" target="_top" xlink:title="Copy vector a into preallocated vector b.">
<polygon fill="white" stroke="black" points="120,-228.5 120,-247.5 209,-247.5 209,-228.5 120,-228.5"/>
<text text-anchor="middle" x="164.5" y="-235.5" font-family="Helvetica,sans-Serif" font-size="10.00">prea_vec_copy</text>
</a>
</g>
</g>
<!-- Node1&#45;&gt;Node3 -->
<g id="edge2" class="edge">
<title>Node1&#45;&gt;Node3</title>
<path fill="none" stroke="midnightblue" d="M41.8,-152.64C52.76,-168.69 76.89,-200.9 105,-219 108.15,-221.03 111.53,-222.85 115.03,-224.5"/>
<polygon fill="midnightblue" stroke="midnightblue" points="113.88,-227.81 124.45,-228.44 116.58,-221.36 113.88,-227.81"/>
</g>
<!-- Node4 -->
<g id="node4" class="node">
<title>Node4</title>
<g id="a_node4"><a xlink:href="lin__alg_8c.html#ab48ddb2d35dd1a04bd27f06cb49400cb" target="_top" xlink:title="Elementwise product, .">
<polygon fill="white" stroke="black" points="124.5,-190.5 124.5,-209.5 204.5,-209.5 204.5,-190.5 124.5,-190.5"/>
<text text-anchor="middle" x="164.5" y="-197.5" font-family="Helvetica,sans-Serif" font-size="10.00">vec_ew_prod</text>
</a>
</g>
</g>
<!-- Node1&#45;&gt;Node4 -->
<g id="edge3" class="edge">
<title>Node1&#45;&gt;Node4</title>
<path fill="none" stroke="midnightblue" d="M51.09,-152.62C64.9,-160.88 85.81,-172.72 105,-181 110.03,-183.17 115.38,-185.23 120.74,-187.14"/>
<polygon fill="midnightblue" stroke="midnightblue" points="119.71,-190.49 130.3,-190.41 121.97,-183.86 119.71,-190.49"/>
</g>
<!-- Node5 -->
<g id="node5" class="node">
<title>Node5</title>
<g id="a_node5"><a xlink:href="lin__alg_8c.html#aebb20e932bc52e918667db2a70cb0781" target="_top" xlink:title="Elementwise reciprocal .">
<polygon fill="white" stroke="black" points="121.5,-152.5 121.5,-171.5 207.5,-171.5 207.5,-152.5 121.5,-152.5"/>
<text text-anchor="middle" x="164.5" y="-159.5" font-family="Helvetica,sans-Serif" font-size="10.00">vec_ew_recipr</text>
</a>
</g>
</g>
<!-- Node1&#45;&gt;Node5 -->
<g id="edge4" class="edge">
<title>Node1&#45;&gt;Node5</title>
<path fill="none" stroke="midnightblue" d="M69.13,-147.99C82,-149.9 97.01,-152.13 111.22,-154.24"/>
<polygon fill="midnightblue" stroke="midnightblue" points="110.98,-157.74 121.39,-155.75 112.01,-150.82 110.98,-157.74"/>
</g>
<!-- Node6 -->
<g id="node6" class="node">
<title>Node6</title>
<g id="a_node6"><a xlink:href="lin__alg_8c.html#aff49f7b83b7dc6ec1b18557c9f4ea995" target="_top" xlink:title="Elementwise square root, .">
<polygon fill="white" stroke="black" points="126,-114.5 126,-133.5 203,-133.5 203,-114.5 126,-114.5"/>
<text text-anchor="middle" x="164.5" y="-121.5" font-family="Helvetica,sans-Serif" font-size="10.00">vec_ew_sqrt</text>
</a>
</g>
</g>
<!-- Node1&#45;&gt;Node6 -->
<g id="edge5" class="edge">
<title>Node1&#45;&gt;Node6</title>
<path fill="none" stroke="midnightblue" d="M69.13,-138.01C83.35,-135.9 100.17,-133.4 115.64,-131.1"/>
<polygon fill="midnightblue" stroke="midnightblue" points="116.2,-134.56 125.58,-129.63 115.17,-127.64 116.2,-134.56"/>
</g>
<!-- Node7 -->
<g id="node7" class="node">
<title>Node7</title>
<g id="a_node7"><a xlink:href="lin__alg_8c.html#ad69e3ef3b7360cd1d6262ee2f32fce83" target="_top" xlink:title="Infinity norm of a vector, .">
<polygon fill="white" stroke="black" points="123,-76.5 123,-95.5 206,-95.5 206,-76.5 123,-76.5"/>
<text text-anchor="middle" x="164.5" y="-83.5" font-family="Helvetica,sans-Serif" font-size="10.00">vec_norm_inf</text>
</a>
</g>
</g>
<!-- Node1&#45;&gt;Node7 -->
<g id="edge6" class="edge">
<title>Node1&#45;&gt;Node7</title>
<path fill="none" stroke="midnightblue" d="M51.09,-133.38C64.9,-125.12 85.81,-113.28 105,-105 110.03,-102.83 115.38,-100.77 120.74,-98.86"/>
<polygon fill="midnightblue" stroke="midnightblue" points="121.97,-102.14 130.3,-95.59 119.71,-95.51 121.97,-102.14"/>
</g>
<!-- Node8 -->
<g id="node8" class="node">
<title>Node8</title>
<g id="a_node8"><a xlink:href="lin__alg_8c.html#a932b289ad07aea70e64b417ef9160674" target="_top" xlink:title="Mulitply vector with a constant scale factor.">
<polygon fill="white" stroke="black" points="105,-38.5 105,-57.5 224,-57.5 224,-38.5 105,-38.5"/>
<text text-anchor="middle" x="164.5" y="-45.5" font-family="Helvetica,sans-Serif" font-size="10.00">vec_self_mult_scalar</text>
</a>
</g>
</g>
<!-- Node1&#45;&gt;Node8 -->
<g id="edge7" class="edge">
<title>Node1&#45;&gt;Node8</title>
<path fill="none" stroke="midnightblue" d="M41.8,-133.36C52.76,-117.31 76.89,-85.1 105,-67 108.15,-64.97 111.53,-63.15 115.03,-61.5"/>
<polygon fill="midnightblue" stroke="midnightblue" points="116.58,-64.64 124.45,-57.56 113.88,-58.19 116.58,-64.64"/>
</g>
<!-- Node9 -->
<g id="node9" class="node">
<title>Node9</title>
<g id="a_node9"><a xlink:href="lin__alg_8c.html#a67ead739705f515285526db604c5bb7d" target="_top" xlink:title="Fill float vector with a scalar value.">
<polygon fill="white" stroke="black" points="120,-0.5 120,-19.5 209,-19.5 209,-0.5 120,-0.5"/>
<text text-anchor="middle" x="164.5" y="-7.5" font-family="Helvetica,sans-Serif" font-size="10.00">vec_set_scalar</text>
</a>
</g>
</g>
<!-- Node1&#45;&gt;Node9 -->
<g id="edge8" class="edge">
<title>Node1&#45;&gt;Node9</title>
<path fill="none" stroke="midnightblue" d="M38.68,-133.47C46.45,-111.69 68.44,-57.88 105,-29 107.28,-27.2 109.73,-25.57 112.3,-24.09"/>
<polygon fill="midnightblue" stroke="midnightblue" points="113.94,-27.18 121.37,-19.63 110.85,-20.9 113.94,-27.18"/>
</g>
</g>
</svg>
