<?xml version="1.0" encoding="UTF-8" standalone="no"?>
<!DOCTYPE svg PUBLIC "-//W3C//DTD SVG 1.1//EN"
 "http://www.w3.org/Graphics/SVG/1.1/DTD/svg11.dtd">
<!-- Generated by graphviz version 2.43.0 (0)
 -->
<!-- Title: unscale_data Pages: 1 -->
<svg width="244pt" height="66pt"
 viewBox="0.00 0.00 244.00 66.00" xmlns="http://www.w3.org/2000/svg" xmlns:xlink="http://www.w3.org/1999/xlink">
<g id="graph0" class="graph" transform="scale(1 1) rotate(0) translate(4 62)">
<title>unscale_data</title>
<polygon fill="white" stroke="transparent" points="-4,4 -4,-62 240,-62 240,4 -4,4"/>
<!-- Node1 -->
<g id="node1" class="node">
<title>Node1</title>
<g id="a_node1"><a xlink:title="Unscale the problem data.">
<polygon fill="#bfbfbf" stroke="black" points="0,-19.5 0,-38.5 81,-38.5 81,-19.5 0,-19.5"/>
<text text-anchor="middle" x="40.5" y="-26.5" font-family="Helvetica,sans-Serif" font-size="10.00">unscale_data</text>
</a>
</g>
</g>
<!-- Node2 -->
<g id="node2" class="node">
<title>Node2</title>
<g id="a_node2"><a xlink:href="lin__alg_8c.html#ab48ddb2d35dd1a04bd27f06cb49400cb" target="_top" xlink:title="Elementwise product, .">
<polygon fill="white" stroke="black" points="136.5,-38.5 136.5,-57.5 216.5,-57.5 216.5,-38.5 136.5,-38.5"/>
<text text-anchor="middle" x="176.5" y="-45.5" font-family="Helvetica,sans-Serif" font-size="10.00">vec_ew_prod</text>
</a>
</g>
</g>
<!-- Node1&#45;&gt;Node2 -->
<g id="edge1" class="edge">
<title>Node1&#45;&gt;Node2</title>
<path fill="none" stroke="midnightblue" d="M81.34,-34.65C95.38,-36.64 111.34,-38.9 126.07,-40.99"/>
<polygon fill="midnightblue" stroke="midnightblue" points="125.65,-44.47 136.04,-42.41 126.63,-37.54 125.65,-44.47"/>
</g>
<!-- Node3 -->
<g id="node3" class="node">
<title>Node3</title>
<g id="a_node3"><a xlink:href="lin__alg_8c.html#a932b289ad07aea70e64b417ef9160674" target="_top" xlink:title="Mulitply vector with a constant scale factor.">
<polygon fill="white" stroke="black" points="117,-0.5 117,-19.5 236,-19.5 236,-0.5 117,-0.5"/>
<text text-anchor="middle" x="176.5" y="-7.5" font-family="Helvetica,sans-Serif" font-size="10.00">vec_self_mult_scalar</text>
</a>
</g>
</g>
<!-- Node1&#45;&gt;Node3 -->
<g id="edge2" class="edge">
<title>Node1&#45;&gt;Node3</title>
<path fill="none" stroke="midnightblue" d="M81.34,-23.35C89.33,-22.22 97.93,-21 106.58,-19.77"/>
<polygon fill="midnightblue" stroke="midnightblue" points="107.3,-23.2 116.71,-18.34 106.32,-16.27 107.3,-23.2"/>
</g>
</g>
</svg>
