<?xml version="1.0" encoding="UTF-8" standalone="no"?>
<!DOCTYPE svg PUBLIC "-//W3C//DTD SVG 1.1//EN"
 "http://www.w3.org/Graphics/SVG/1.1/DTD/svg11.dtd">
<!-- Generated by graphviz version 2.43.0 (0)
 -->
<!-- Title: mat_vec Pages: 1 -->
<svg width="385pt" height="66pt"
 viewBox="0.00 0.00 385.00 66.00" xmlns="http://www.w3.org/2000/svg" xmlns:xlink="http://www.w3.org/1999/xlink">
<g id="graph0" class="graph" transform="scale(1 1) rotate(0) translate(4 62)">
<title>mat_vec</title>
<polygon fill="white" stroke="transparent" points="-4,4 -4,-62 381,-62 381,4 -4,4"/>
<!-- Node1 -->
<g id="node1" class="node">
<title>Node1</title>
<g id="a_node1"><a xlink:title="Matrix&#45;vector multiplication.">
<polygon fill="#bfbfbf" stroke="black" points="318,-19.5 318,-38.5 377,-38.5 377,-19.5 318,-19.5"/>
<text text-anchor="middle" x="347.5" y="-26.5" font-family="Helvetica,sans-Serif" font-size="10.00">mat_vec</text>
</a>
</g>
</g>
<!-- Node2 -->
<g id="node2" class="node">
<title>Node2</title>
<g id="a_node2"><a xlink:href="linesearch_8c.html#a647cabae1574f21e412110765ea1e70d" target="_top" xlink:title="Execute exact linesearch (using qsort)">
<polygon fill="white" stroke="black" points="172,-38.5 172,-57.5 271,-57.5 271,-38.5 172,-38.5"/>
<text text-anchor="middle" x="221.5" y="-45.5" font-family="Helvetica,sans-Serif" font-size="10.00">exact_linesearch</text>
</a>
</g>
</g>
<!-- Node1&#45;&gt;Node2 -->
<g id="edge1" class="edge">
<title>Node1&#45;&gt;Node2</title>
<path fill="none" stroke="midnightblue" d="M307.52,-34.97C295.94,-36.75 283.12,-38.71 271.02,-40.57"/>
<polygon fill="midnightblue" stroke="midnightblue" points="308.39,-38.38 317.74,-33.41 307.33,-31.46 308.39,-38.38"/>
</g>
<!-- Node4 -->
<g id="node4" class="node">
<title>Node4</title>
<g id="a_node4"><a xlink:href="newton_8c.html#af1654e5597faac8b0ade25acf1fc1bc9" target="_top" xlink:title="Sets work&#45;&gt;d to the direction calculated by the semismooth Newton method.">
<polygon fill="white" stroke="black" points="161,-0.5 161,-19.5 282,-19.5 282,-0.5 161,-0.5"/>
<text text-anchor="middle" x="221.5" y="-7.5" font-family="Helvetica,sans-Serif" font-size="10.00">newton_set_direction</text>
</a>
</g>
</g>
<!-- Node1&#45;&gt;Node4 -->
<g id="edge3" class="edge">
<title>Node1&#45;&gt;Node4</title>
<path fill="none" stroke="midnightblue" d="M307.61,-23.04C299.59,-21.81 290.97,-20.49 282.41,-19.18"/>
<polygon fill="midnightblue" stroke="midnightblue" points="307.33,-26.54 317.74,-24.59 308.39,-19.62 307.33,-26.54"/>
</g>
<!-- Node3 -->
<g id="node3" class="node">
<title>Node3</title>
<g id="a_node3"><a xlink:href="iteration_8c.html#a9c9fafac9ce099122c5a594762e5a052" target="_top" xlink:title="Update the primal iterate.">
<polygon fill="white" stroke="black" points="0,-19.5 0,-38.5 125,-38.5 125,-19.5 0,-19.5"/>
<text text-anchor="middle" x="62.5" y="-26.5" font-family="Helvetica,sans-Serif" font-size="10.00">update_primal_iterate</text>
</a>
</g>
</g>
<!-- Node2&#45;&gt;Node3 -->
<g id="edge2" class="edge">
<title>Node2&#45;&gt;Node3</title>
<path fill="none" stroke="midnightblue" d="M161.43,-40.85C149.54,-39.41 137.01,-37.9 125.04,-36.45"/>
<polygon fill="midnightblue" stroke="midnightblue" points="161.34,-44.37 171.68,-42.09 162.18,-37.42 161.34,-44.37"/>
</g>
<!-- Node4&#45;&gt;Node3 -->
<g id="edge4" class="edge">
<title>Node4&#45;&gt;Node3</title>
<path fill="none" stroke="midnightblue" d="M150.51,-18.47C142.08,-19.49 133.52,-20.53 125.22,-21.53"/>
<polygon fill="midnightblue" stroke="midnightblue" points="151.19,-21.91 160.7,-17.24 150.35,-14.96 151.19,-21.91"/>
</g>
</g>
</svg>
