<?xml version="1.0" encoding="UTF-8" standalone="no"?>
<!DOCTYPE svg PUBLIC "-//W3C//DTD SVG 1.1//EN"
 "http://www.w3.org/Graphics/SVG/1.1/DTD/svg11.dtd">
<!-- Generated by graphviz version 2.43.0 (0)
 -->
<!-- Title: QPALM/include/solver_interface.h Pages: 1 -->
<svg width="1581pt" height="274pt"
 viewBox="0.00 0.00 1581.30 274.00" xmlns="http://www.w3.org/2000/svg" xmlns:xlink="http://www.w3.org/1999/xlink">
<g id="graph0" class="graph" transform="scale(1 1) rotate(0) translate(4 270)">
<title>QPALM/include/solver_interface.h</title>
<polygon fill="white" stroke="transparent" points="-4,4 -4,-270 1577.3,-270 1577.3,4 -4,4"/>
<!-- Node1 -->
<g id="node1" class="node">
<title>Node1</title>
<g id="a_node1"><a xlink:title="Interface and wrapper to matrix/factorization (ladel) functions.">
<polygon fill="#bfbfbf" stroke="black" points="763.91,-235.5 763.91,-265.5 885.91,-265.5 885.91,-235.5 763.91,-235.5"/>
<text text-anchor="start" x="771.91" y="-253.5" font-family="Helvetica,sans-Serif" font-size="10.00">QPALM/include/solver</text>
<text text-anchor="middle" x="824.91" y="-242.5" font-family="Helvetica,sans-Serif" font-size="10.00">_interface.h</text>
</a>
</g>
</g>
<!-- Node2 -->
<g id="node2" class="node">
<title>Node2</title>
<g id="a_node2"><a xlink:href="lin__alg_8h.html" target="_top" xlink:title="Linear algebra with vectors.">
<polygon fill="white" stroke="black" points="758.41,-179.5 758.41,-198.5 891.41,-198.5 891.41,-179.5 758.41,-179.5"/>
<text text-anchor="middle" x="824.91" y="-186.5" font-family="Helvetica,sans-Serif" font-size="10.00">QPALM/include/lin_alg.h</text>
</a>
</g>
</g>
<!-- Node1&#45;&gt;Node2 -->
<g id="edge1" class="edge">
<title>Node1&#45;&gt;Node2</title>
<path fill="none" stroke="midnightblue" d="M824.91,-225.29C824.91,-215.86 824.91,-205.65 824.91,-198.66"/>
<polygon fill="midnightblue" stroke="midnightblue" points="821.41,-225.4 824.91,-235.4 828.41,-225.4 821.41,-225.4"/>
</g>
<!-- Node3 -->
<g id="node3" class="node">
<title>Node3</title>
<g id="a_node3"><a xlink:href="qpalm_8h.html" target="_top" xlink:title="QPALM main solver API.">
<polygon fill="white" stroke="black" points="981.41,-67.5 981.41,-86.5 1112.41,-86.5 1112.41,-67.5 981.41,-67.5"/>
<text text-anchor="middle" x="1046.91" y="-74.5" font-family="Helvetica,sans-Serif" font-size="10.00">QPALM/include/qpalm.h</text>
</a>
</g>
</g>
<!-- Node1&#45;&gt;Node3 -->
<g id="edge20" class="edge">
<title>Node1&#45;&gt;Node3</title>
<path fill="none" stroke="midnightblue" d="M753.43,-249.28C536.53,-247.42 -93.07,-232.64 11.91,-123 45.47,-87.94 758.41,-80.01 981.07,-78.39"/>
<polygon fill="midnightblue" stroke="midnightblue" points="753.72,-252.78 763.75,-249.36 753.78,-245.78 753.72,-252.78"/>
</g>
<!-- Node5 -->
<g id="node5" class="node">
<title>Node5</title>
<g id="a_node5"><a xlink:href="qpalm_8c.html" target="_top" xlink:title="QPALM main solver API.">
<polygon fill="white" stroke="black" points="1190.91,-6 1190.91,-25 1300.91,-25 1300.91,-6 1190.91,-6"/>
<text text-anchor="middle" x="1245.91" y="-13" font-family="Helvetica,sans-Serif" font-size="10.00">QPALM/src/qpalm.c</text>
</a>
</g>
</g>
<!-- Node1&#45;&gt;Node5 -->
<g id="edge22" class="edge">
<title>Node1&#45;&gt;Node5</title>
<path fill="none" stroke="midnightblue" d="M896.07,-250.39C1063.12,-250.8 1472.66,-241.53 1557.91,-143 1632.96,-56.25 1409.58,-28.17 1301.23,-19.78"/>
<polygon fill="midnightblue" stroke="midnightblue" points="895.92,-246.89 885.91,-250.35 895.89,-253.89 895.92,-246.89"/>
</g>
<!-- Node8 -->
<g id="node8" class="node">
<title>Node8</title>
<g id="a_node8"><a xlink:href="iteration_8c.html" target="_top" xlink:title="QPALM main solver routines.">
<polygon fill="white" stroke="black" points="20.91,-123.5 20.91,-142.5 140.91,-142.5 140.91,-123.5 20.91,-123.5"/>
<text text-anchor="middle" x="80.91" y="-130.5" font-family="Helvetica,sans-Serif" font-size="10.00">QPALM/src/iteration.c</text>
</a>
</g>
</g>
<!-- Node1&#45;&gt;Node8 -->
<g id="edge21" class="edge">
<title>Node1&#45;&gt;Node8</title>
<path fill="none" stroke="midnightblue" d="M753.38,-238.4C605.42,-215.43 268.47,-163.12 135.92,-142.54"/>
<polygon fill="midnightblue" stroke="midnightblue" points="753.29,-241.92 763.7,-240 754.36,-235.01 753.29,-241.92"/>
</g>
<!-- Node13 -->
<g id="node13" class="node">
<title>Node13</title>
<g id="a_node13"><a xlink:href="solver__interface_8c.html" target="_top" xlink:title="Interface and wrapper to matrix/factorization (ladel) functions.">
<polygon fill="white" stroke="black" points="1390.91,-123.5 1390.91,-142.5 1548.91,-142.5 1548.91,-123.5 1390.91,-123.5"/>
<text text-anchor="middle" x="1469.91" y="-130.5" font-family="Helvetica,sans-Serif" font-size="10.00">QPALM/src/solver_interface.c</text>
</a>
</g>
</g>
<!-- Node1&#45;&gt;Node13 -->
<g id="edge23" class="edge">
<title>Node1&#45;&gt;Node13</title>
<path fill="none" stroke="midnightblue" d="M896.22,-236.73C1028.75,-213 1309.73,-162.68 1422.05,-142.57"/>
<polygon fill="midnightblue" stroke="midnightblue" points="895.39,-233.32 886.17,-238.53 896.63,-240.21 895.39,-233.32"/>
</g>
<!-- Node2&#45;&gt;Node3 -->
<g id="edge2" class="edge">
<title>Node2&#45;&gt;Node3</title>
<path fill="none" stroke="midnightblue" d="M748.14,-185.34C582.89,-179.25 206.75,-163.22 187.91,-143 181.85,-136.5 181.79,-129.45 187.91,-123 215.11,-94.33 785.02,-82.3 981.22,-79"/>
<polygon fill="midnightblue" stroke="midnightblue" points="748.12,-188.84 758.24,-185.71 748.38,-181.85 748.12,-188.84"/>
</g>
<!-- Node2&#45;&gt;Node5 -->
<g id="edge14" class="edge">
<title>Node2&#45;&gt;Node5</title>
<path fill="none" stroke="midnightblue" d="M902.22,-185.42C1033.52,-180.4 1289.13,-167.57 1321.91,-143 1350.04,-121.9 1362.21,-97.02 1343.91,-67 1330.55,-45.1 1304.33,-32.29 1282.37,-25.06"/>
<polygon fill="midnightblue" stroke="midnightblue" points="901.69,-181.94 891.83,-185.81 901.95,-188.94 901.69,-181.94"/>
</g>
<!-- Node6 -->
<g id="node6" class="node">
<title>Node6</title>
<g id="a_node6"><a xlink:href="scaling_8h.html" target="_top" xlink:title="Problem data scaling during setup.">
<polygon fill="white" stroke="black" points="1161.41,-123.5 1161.41,-142.5 1296.41,-142.5 1296.41,-123.5 1161.41,-123.5"/>
<text text-anchor="middle" x="1228.91" y="-130.5" font-family="Helvetica,sans-Serif" font-size="10.00">QPALM/include/scaling.h</text>
</a>
</g>
</g>
<!-- Node2&#45;&gt;Node6 -->
<g id="edge5" class="edge">
<title>Node2&#45;&gt;Node6</title>
<path fill="none" stroke="midnightblue" d="M898.94,-178.1C975.23,-167.91 1092.92,-152.18 1165.19,-142.52"/>
<polygon fill="midnightblue" stroke="midnightblue" points="898.37,-174.65 888.92,-179.44 899.3,-181.59 898.37,-174.65"/>
</g>
<!-- Node7 -->
<g id="node7" class="node">
<title>Node7</title>
<g id="a_node7"><a xlink:href="scaling_8c.html" target="_top" xlink:title="Problem data scaling during setup.">
<polygon fill="white" stroke="black" points="1221.41,-67.5 1221.41,-86.5 1334.41,-86.5 1334.41,-67.5 1221.41,-67.5"/>
<text text-anchor="middle" x="1277.91" y="-74.5" font-family="Helvetica,sans-Serif" font-size="10.00">QPALM/src/scaling.c</text>
</a>
</g>
</g>
<!-- Node2&#45;&gt;Node7 -->
<g id="edge15" class="edge">
<title>Node2&#45;&gt;Node7</title>
<path fill="none" stroke="midnightblue" d="M901.75,-186.37C1030.71,-182.82 1279.27,-172.24 1305.91,-143 1321.13,-126.29 1300,-100.02 1286.92,-86.57"/>
<polygon fill="midnightblue" stroke="midnightblue" points="901.45,-182.87 891.54,-186.64 901.63,-189.87 901.45,-182.87"/>
</g>
<!-- Node2&#45;&gt;Node8 -->
<g id="edge9" class="edge">
<title>Node2&#45;&gt;Node8</title>
<path fill="none" stroke="midnightblue" d="M748.04,-184.19C623.37,-177.7 369.4,-163.23 154.91,-143 150.4,-142.57 145.74,-142.1 141.05,-141.59"/>
<polygon fill="midnightblue" stroke="midnightblue" points="748.07,-187.7 758.24,-184.72 748.44,-180.7 748.07,-187.7"/>
</g>
<!-- Node9 -->
<g id="node9" class="node">
<title>Node9</title>
<g id="a_node9"><a xlink:href="lin__alg_8c.html" target="_top" xlink:title="Linear algebra with vectors.">
<polygon fill="white" stroke="black" points="197.41,-123.5 197.41,-142.5 308.41,-142.5 308.41,-123.5 197.41,-123.5"/>
<text text-anchor="middle" x="252.91" y="-130.5" font-family="Helvetica,sans-Serif" font-size="10.00">QPALM/src/lin_alg.c</text>
</a>
</g>
</g>
<!-- Node2&#45;&gt;Node9 -->
<g id="edge10" class="edge">
<title>Node2&#45;&gt;Node9</title>
<path fill="none" stroke="midnightblue" d="M748.25,-182.44C648.69,-174.94 469.56,-160.48 316.91,-143 314.23,-142.69 311.49,-142.37 308.73,-142.02"/>
<polygon fill="midnightblue" stroke="midnightblue" points="747.99,-185.93 758.23,-183.19 748.52,-178.95 747.99,-185.93"/>
</g>
<!-- Node10 -->
<g id="node10" class="node">
<title>Node10</title>
<g id="a_node10"><a xlink:href="linesearch_8c.html" target="_top" xlink:title="Routines to perform exact or backtracking linesearch.">
<polygon fill="white" stroke="black" points="326.41,-123.5 326.41,-142.5 455.41,-142.5 455.41,-123.5 326.41,-123.5"/>
<text text-anchor="middle" x="390.91" y="-130.5" font-family="Helvetica,sans-Serif" font-size="10.00">QPALM/src/linesearch.c</text>
</a>
</g>
</g>
<!-- Node2&#45;&gt;Node10 -->
<g id="edge11" class="edge">
<title>Node2&#45;&gt;Node10</title>
<path fill="none" stroke="midnightblue" d="M747.9,-178.42C664.76,-168.07 533.78,-151.78 455.71,-142.06"/>
<polygon fill="midnightblue" stroke="midnightblue" points="747.69,-181.92 758.04,-179.68 748.55,-174.97 747.69,-181.92"/>
</g>
<!-- Node11 -->
<g id="node11" class="node">
<title>Node11</title>
<g id="a_node11"><a xlink:href="newton_8c.html" target="_top" xlink:title="Functions to calculate the semismooth Newton direction.">
<polygon fill="white" stroke="black" points="473.41,-123.5 473.41,-142.5 588.41,-142.5 588.41,-123.5 473.41,-123.5"/>
<text text-anchor="middle" x="530.91" y="-130.5" font-family="Helvetica,sans-Serif" font-size="10.00">QPALM/src/newton.c</text>
</a>
</g>
</g>
<!-- Node2&#45;&gt;Node11 -->
<g id="edge12" class="edge">
<title>Node2&#45;&gt;Node11</title>
<path fill="none" stroke="midnightblue" d="M768.29,-177.6C712.72,-167.4 629.01,-152.02 577.27,-142.52"/>
<polygon fill="midnightblue" stroke="midnightblue" points="767.85,-181.08 778.32,-179.44 769.12,-174.19 767.85,-181.08"/>
</g>
<!-- Node12 -->
<g id="node12" class="node">
<title>Node12</title>
<g id="a_node12"><a xlink:href="nonconvex_8c.html" target="_top" xlink:title="Routines to deal with nonconvex QPs.">
<polygon fill="white" stroke="black" points="606.91,-123.5 606.91,-142.5 738.91,-142.5 738.91,-123.5 606.91,-123.5"/>
<text text-anchor="middle" x="672.91" y="-130.5" font-family="Helvetica,sans-Serif" font-size="10.00">QPALM/src/nonconvex.c</text>
</a>
</g>
</g>
<!-- Node2&#45;&gt;Node12 -->
<g id="edge13" class="edge">
<title>Node2&#45;&gt;Node12</title>
<path fill="none" stroke="midnightblue" d="M791.24,-176.04C762.64,-165.88 722.29,-151.55 696.88,-142.52"/>
<polygon fill="midnightblue" stroke="midnightblue" points="790.23,-179.39 800.82,-179.44 792.57,-172.8 790.23,-179.39"/>
</g>
<!-- Node2&#45;&gt;Node13 -->
<g id="edge16" class="edge">
<title>Node2&#45;&gt;Node13</title>
<path fill="none" stroke="midnightblue" d="M901.66,-182.11C1008.31,-173.85 1207.35,-158.11 1376.91,-143 1381.43,-142.6 1386.08,-142.17 1390.76,-141.74"/>
<polygon fill="midnightblue" stroke="midnightblue" points="901.33,-178.63 891.63,-182.89 901.87,-185.61 901.33,-178.63"/>
</g>
<!-- Node14 -->
<g id="node14" class="node">
<title>Node14</title>
<g id="a_node14"><a xlink:href="termination_8c.html" target="_top" xlink:title="Routines to check the termination and infeasibility criteria.">
<polygon fill="white" stroke="black" points="756.91,-123.5 756.91,-142.5 892.91,-142.5 892.91,-123.5 756.91,-123.5"/>
<text text-anchor="middle" x="824.91" y="-130.5" font-family="Helvetica,sans-Serif" font-size="10.00">QPALM/src/termination.c</text>
</a>
</g>
</g>
<!-- Node2&#45;&gt;Node14 -->
<g id="edge17" class="edge">
<title>Node2&#45;&gt;Node14</title>
<path fill="none" stroke="midnightblue" d="M824.91,-168.8C824.91,-159.91 824.91,-149.78 824.91,-142.75"/>
<polygon fill="midnightblue" stroke="midnightblue" points="821.41,-169.08 824.91,-179.08 828.41,-169.08 821.41,-169.08"/>
</g>
<!-- Node15 -->
<g id="node15" class="node">
<title>Node15</title>
<g id="a_node15"><a xlink:href="util_8c.html" target="_top" xlink:title="Utility functions.">
<polygon fill="white" stroke="black" points="911.41,-123.5 911.41,-142.5 1006.41,-142.5 1006.41,-123.5 911.41,-123.5"/>
<text text-anchor="middle" x="958.91" y="-130.5" font-family="Helvetica,sans-Serif" font-size="10.00">QPALM/src/util.c</text>
</a>
</g>
</g>
<!-- Node2&#45;&gt;Node15 -->
<g id="edge18" class="edge">
<title>Node2&#45;&gt;Node15</title>
<path fill="none" stroke="midnightblue" d="M855.58,-175.64C880.73,-165.5 915.66,-151.43 937.77,-142.52"/>
<polygon fill="midnightblue" stroke="midnightblue" points="854.1,-172.46 846.14,-179.44 856.72,-178.95 854.1,-172.46"/>
</g>
<!-- Node16 -->
<g id="node16" class="node">
<title>Node16</title>
<g id="a_node16"><a xlink:href="validate_8c.html" target="_top" xlink:title="Validation of the user provided settings and data.">
<polygon fill="white" stroke="black" points="1024.41,-123.5 1024.41,-142.5 1143.41,-142.5 1143.41,-123.5 1024.41,-123.5"/>
<text text-anchor="middle" x="1083.91" y="-130.5" font-family="Helvetica,sans-Serif" font-size="10.00">QPALM/src/validate.c</text>
</a>
</g>
</g>
<!-- Node2&#45;&gt;Node16 -->
<g id="edge19" class="edge">
<title>Node2&#45;&gt;Node16</title>
<path fill="none" stroke="midnightblue" d="M876.01,-177.35C924.95,-167.14 997.86,-151.94 1043.06,-142.52"/>
<polygon fill="midnightblue" stroke="midnightblue" points="875.02,-173.98 865.94,-179.44 876.45,-180.83 875.02,-173.98"/>
</g>
<!-- Node4 -->
<g id="node4" class="node">
<title>Node4</title>
<g id="a_node4"><a xlink:href="qpalm_8cpp.html" target="_top" xlink:title=" ">
<polygon fill="white" stroke="black" points="985.91,-0.5 985.91,-30.5 1107.91,-30.5 1107.91,-0.5 985.91,-0.5"/>
<text text-anchor="start" x="993.91" y="-18.5" font-family="Helvetica,sans-Serif" font-size="10.00">QPALM/interfaces/cxx</text>
<text text-anchor="middle" x="1046.91" y="-7.5" font-family="Helvetica,sans-Serif" font-size="10.00">/src/qpalm.cpp</text>
</a>
</g>
</g>
<!-- Node3&#45;&gt;Node4 -->
<g id="edge3" class="edge">
<title>Node3&#45;&gt;Node4</title>
<path fill="none" stroke="midnightblue" d="M1046.91,-57.23C1046.91,-48.59 1046.91,-38.5 1046.91,-30.52"/>
<polygon fill="midnightblue" stroke="midnightblue" points="1043.41,-57.48 1046.91,-67.48 1050.41,-57.48 1043.41,-57.48"/>
</g>
<!-- Node3&#45;&gt;Node5 -->
<g id="edge4" class="edge">
<title>Node3&#45;&gt;Node5</title>
<path fill="none" stroke="midnightblue" d="M1085.27,-64.53C1123.95,-52.96 1182.74,-35.38 1217.45,-25.01"/>
<polygon fill="midnightblue" stroke="midnightblue" points="1084,-61.26 1075.42,-67.48 1086,-67.96 1084,-61.26"/>
</g>
<!-- Node6&#45;&gt;Node3 -->
<g id="edge6" class="edge">
<title>Node6&#45;&gt;Node3</title>
<path fill="none" stroke="midnightblue" d="M1190.37,-120.57C1156.04,-110.38 1106.57,-95.7 1075.61,-86.52"/>
<polygon fill="midnightblue" stroke="midnightblue" points="1189.48,-123.95 1200.07,-123.44 1191.48,-117.24 1189.48,-123.95"/>
</g>
<!-- Node6&#45;&gt;Node5 -->
<g id="edge7" class="edge">
<title>Node6&#45;&gt;Node5</title>
<path fill="none" stroke="midnightblue" d="M1219.22,-113.79C1213.52,-100.69 1208.25,-82.64 1212.91,-67 1217.81,-50.54 1229.97,-34.44 1238.08,-25"/>
<polygon fill="midnightblue" stroke="midnightblue" points="1216.21,-115.61 1223.71,-123.1 1222.52,-112.57 1216.21,-115.61"/>
</g>
<!-- Node6&#45;&gt;Node7 -->
<g id="edge8" class="edge">
<title>Node6&#45;&gt;Node7</title>
<path fill="none" stroke="midnightblue" d="M1243.94,-115.43C1252.53,-105.97 1262.95,-94.48 1269.96,-86.75"/>
<polygon fill="midnightblue" stroke="midnightblue" points="1241.12,-113.33 1237,-123.08 1246.31,-118.03 1241.12,-113.33"/>
</g>
</g>
</svg>
