<?xml version="1.0" encoding="UTF-8" standalone="no"?>
<!DOCTYPE svg PUBLIC "-//W3C//DTD SVG 1.1//EN"
 "http://www.w3.org/Graphics/SVG/1.1/DTD/svg11.dtd">
<!-- Generated by graphviz version 2.43.0 (0)
 -->
<!-- Title: store_solution Pages: 1 -->
<svg width="249pt" height="142pt"
 viewBox="0.00 0.00 249.00 142.00" xmlns="http://www.w3.org/2000/svg" xmlns:xlink="http://www.w3.org/1999/xlink">
<g id="graph0" class="graph" transform="scale(1 1) rotate(0) translate(4 138)">
<title>store_solution</title>
<polygon fill="white" stroke="transparent" points="-4,4 -4,-138 245,-138 245,4 -4,4"/>
<!-- Node1 -->
<g id="node1" class="node">
<title>Node1</title>
<g id="a_node1"><a xlink:title="Helper function to store the (unscaled) solution in the solution struct.">
<polygon fill="#bfbfbf" stroke="black" points="0,-57.5 0,-76.5 86,-76.5 86,-57.5 0,-57.5"/>
<text text-anchor="middle" x="43" y="-64.5" font-family="Helvetica,sans-Serif" font-size="10.00">store_solution</text>
</a>
</g>
</g>
<!-- Node2 -->
<g id="node2" class="node">
<title>Node2</title>
<g id="a_node2"><a xlink:href="iteration_8c.html#ad071efc96075a8506c9c45448b9d48e6" target="_top" xlink:title="Compute the (unscaled) primal objective value at the current iterate.">
<polygon fill="white" stroke="black" points="126.5,-114.5 126.5,-133.5 236.5,-133.5 236.5,-114.5 126.5,-114.5"/>
<text text-anchor="middle" x="181.5" y="-121.5" font-family="Helvetica,sans-Serif" font-size="10.00">compute_objective</text>
</a>
</g>
</g>
<!-- Node1&#45;&gt;Node2 -->
<g id="edge1" class="edge">
<title>Node1&#45;&gt;Node2</title>
<path fill="none" stroke="midnightblue" d="M61.96,-76.64C77.56,-84.79 100.91,-96.49 122,-105 127.39,-107.18 133.14,-109.29 138.84,-111.26"/>
<polygon fill="midnightblue" stroke="midnightblue" points="137.74,-114.58 148.33,-114.44 139.96,-107.95 137.74,-114.58"/>
</g>
<!-- Node3 -->
<g id="node3" class="node">
<title>Node3</title>
<g id="a_node3"><a xlink:href="lin__alg_8c.html#acf468a60c38fbc58b6de539acb6f0a3b" target="_top" xlink:title="Copy vector a into preallocated vector b.">
<polygon fill="white" stroke="black" points="137,-76.5 137,-95.5 226,-95.5 226,-76.5 137,-76.5"/>
<text text-anchor="middle" x="181.5" y="-83.5" font-family="Helvetica,sans-Serif" font-size="10.00">prea_vec_copy</text>
</a>
</g>
</g>
<!-- Node1&#45;&gt;Node3 -->
<g id="edge2" class="edge">
<title>Node1&#45;&gt;Node3</title>
<path fill="none" stroke="midnightblue" d="M86.07,-72.86C98.93,-74.65 113.25,-76.64 126.77,-78.52"/>
<polygon fill="midnightblue" stroke="midnightblue" points="126.53,-82.02 136.92,-79.93 127.5,-75.09 126.53,-82.02"/>
</g>
<!-- Node4 -->
<g id="node4" class="node">
<title>Node4</title>
<g id="a_node4"><a xlink:href="lin__alg_8c.html#ab48ddb2d35dd1a04bd27f06cb49400cb" target="_top" xlink:title="Elementwise product, .">
<polygon fill="white" stroke="black" points="141.5,-38.5 141.5,-57.5 221.5,-57.5 221.5,-38.5 141.5,-38.5"/>
<text text-anchor="middle" x="181.5" y="-45.5" font-family="Helvetica,sans-Serif" font-size="10.00">vec_ew_prod</text>
</a>
</g>
</g>
<!-- Node1&#45;&gt;Node4 -->
<g id="edge3" class="edge">
<title>Node1&#45;&gt;Node4</title>
<path fill="none" stroke="midnightblue" d="M86.07,-61.14C100.33,-59.16 116.38,-56.93 131.15,-54.87"/>
<polygon fill="midnightblue" stroke="midnightblue" points="131.71,-58.32 141.13,-53.48 130.75,-51.39 131.71,-58.32"/>
</g>
<!-- Node5 -->
<g id="node5" class="node">
<title>Node5</title>
<g id="a_node5"><a xlink:href="lin__alg_8c.html#a932b289ad07aea70e64b417ef9160674" target="_top" xlink:title="Mulitply vector with a constant scale factor.">
<polygon fill="white" stroke="black" points="122,-0.5 122,-19.5 241,-19.5 241,-0.5 122,-0.5"/>
<text text-anchor="middle" x="181.5" y="-7.5" font-family="Helvetica,sans-Serif" font-size="10.00">vec_self_mult_scalar</text>
</a>
</g>
</g>
<!-- Node1&#45;&gt;Node5 -->
<g id="edge4" class="edge">
<title>Node1&#45;&gt;Node5</title>
<path fill="none" stroke="midnightblue" d="M61.96,-57.36C77.56,-49.21 100.91,-37.51 122,-29 127.39,-26.82 133.14,-24.71 138.84,-22.74"/>
<polygon fill="midnightblue" stroke="midnightblue" points="139.96,-26.05 148.33,-19.56 137.74,-19.42 139.96,-26.05"/>
</g>
</g>
</svg>
