<?xml version="1.0" encoding="UTF-8" standalone="no"?>
<!DOCTYPE svg PUBLIC "-//W3C//DTD SVG 1.1//EN"
 "http://www.w3.org/Graphics/SVG/1.1/DTD/svg11.dtd">
<!-- Generated by graphviz version 2.43.0 (0)
 -->
<!-- Title: is_primal_infeasible Pages: 1 -->
<svg width="253pt" height="104pt"
 viewBox="0.00 0.00 253.00 104.00" xmlns="http://www.w3.org/2000/svg" xmlns:xlink="http://www.w3.org/1999/xlink">
<g id="graph0" class="graph" transform="scale(1 1) rotate(0) translate(4 100)">
<title>is_primal_infeasible</title>
<polygon fill="white" stroke="transparent" points="-4,4 -4,-100 249,-100 249,4 -4,4"/>
<!-- Node1 -->
<g id="node1" class="node">
<title>Node1</title>
<g id="a_node1"><a xlink:title="Check whether the problem is primal infeasible.">
<polygon fill="#bfbfbf" stroke="black" points="0,-38.5 0,-57.5 115,-57.5 115,-38.5 0,-38.5"/>
<text text-anchor="middle" x="57.5" y="-45.5" font-family="Helvetica,sans-Serif" font-size="10.00">is_primal_infeasible</text>
</a>
</g>
</g>
<!-- Node2 -->
<g id="node2" class="node">
<title>Node2</title>
<g id="a_node2"><a xlink:href="lin__alg_8c.html#a0fde1aeeea954e43db160ec6e3697cd5" target="_top" xlink:title="Scaled addition of one vector to another vector, .">
<polygon fill="white" stroke="black" points="151,-76.5 151,-95.5 245,-95.5 245,-76.5 151,-76.5"/>
<text text-anchor="middle" x="198" y="-83.5" font-family="Helvetica,sans-Serif" font-size="10.00">vec_add_scaled</text>
</a>
</g>
</g>
<!-- Node1&#45;&gt;Node2 -->
<g id="edge1" class="edge">
<title>Node1&#45;&gt;Node2</title>
<path fill="none" stroke="midnightblue" d="M93.45,-57.59C111.33,-62.49 133.29,-68.52 152.38,-73.76"/>
<polygon fill="midnightblue" stroke="midnightblue" points="151.49,-77.14 162.06,-76.41 153.34,-70.39 151.49,-77.14"/>
</g>
<!-- Node3 -->
<g id="node3" class="node">
<title>Node3</title>
<g id="a_node3"><a xlink:href="lin__alg_8c.html#ab48ddb2d35dd1a04bd27f06cb49400cb" target="_top" xlink:title="Elementwise product, .">
<polygon fill="white" stroke="black" points="158,-38.5 158,-57.5 238,-57.5 238,-38.5 158,-38.5"/>
<text text-anchor="middle" x="198" y="-45.5" font-family="Helvetica,sans-Serif" font-size="10.00">vec_ew_prod</text>
</a>
</g>
</g>
<!-- Node1&#45;&gt;Node3 -->
<g id="edge2" class="edge">
<title>Node1&#45;&gt;Node3</title>
<path fill="none" stroke="midnightblue" d="M115.23,-48C125.99,-48 137.16,-48 147.67,-48"/>
<polygon fill="midnightblue" stroke="midnightblue" points="147.91,-51.5 157.91,-48 147.91,-44.5 147.91,-51.5"/>
</g>
<!-- Node4 -->
<g id="node4" class="node">
<title>Node4</title>
<g id="a_node4"><a xlink:href="lin__alg_8c.html#ad69e3ef3b7360cd1d6262ee2f32fce83" target="_top" xlink:title="Infinity norm of a vector, .">
<polygon fill="white" stroke="black" points="156.5,-0.5 156.5,-19.5 239.5,-19.5 239.5,-0.5 156.5,-0.5"/>
<text text-anchor="middle" x="198" y="-7.5" font-family="Helvetica,sans-Serif" font-size="10.00">vec_norm_inf</text>
</a>
</g>
</g>
<!-- Node1&#45;&gt;Node4 -->
<g id="edge3" class="edge">
<title>Node1&#45;&gt;Node4</title>
<path fill="none" stroke="midnightblue" d="M93.45,-38.41C111.33,-33.51 133.29,-27.48 152.38,-22.24"/>
<polygon fill="midnightblue" stroke="midnightblue" points="153.34,-25.61 162.06,-19.59 151.49,-18.86 153.34,-25.61"/>
</g>
</g>
</svg>
