<?xml version="1.0" encoding="UTF-8" standalone="no"?>
<!DOCTYPE svg PUBLIC "-//W3C//DTD SVG 1.1//EN"
 "http://www.w3.org/Graphics/SVG/1.1/DTD/svg11.dtd">
<!-- Generated by graphviz version 2.43.0 (0)
 -->
<!-- Title: QPALM/include/types.h Pages: 1 -->
<svg width="2139pt" height="330pt"
 viewBox="0.00 0.00 2139.41 330.00" xmlns="http://www.w3.org/2000/svg" xmlns:xlink="http://www.w3.org/1999/xlink">
<g id="graph0" class="graph" transform="scale(1 1) rotate(0) translate(4 326)">
<title>QPALM/include/types.h</title>
<polygon fill="white" stroke="transparent" points="-4,4 -4,-326 2135.41,-326 2135.41,4 -4,4"/>
<!-- Node1 -->
<g id="node1" class="node">
<title>Node1</title>
<g id="a_node1"><a xlink:title="Internal data structures used in QPALM.">
<polygon fill="#bfbfbf" stroke="black" points="1267.41,-302.5 1267.41,-321.5 1395.41,-321.5 1395.41,-302.5 1267.41,-302.5"/>
<text text-anchor="middle" x="1331.41" y="-309.5" font-family="Helvetica,sans-Serif" font-size="10.00">QPALM/include/types.h</text>
</a>
</g>
</g>
<!-- Node2 -->
<g id="node2" class="node">
<title>Node2</title>
<g id="a_node2"><a xlink:href="iteration_8h.html" target="_top" xlink:title="QPALM main solver routines.">
<polygon fill="white" stroke="black" points="1555.41,-179.5 1555.41,-198.5 1697.41,-198.5 1697.41,-179.5 1555.41,-179.5"/>
<text text-anchor="middle" x="1626.41" y="-186.5" font-family="Helvetica,sans-Serif" font-size="10.00">QPALM/include/iteration.h</text>
</a>
</g>
</g>
<!-- Node1&#45;&gt;Node2 -->
<g id="edge1" class="edge">
<title>Node1&#45;&gt;Node2</title>
<path fill="none" stroke="midnightblue" d="M1361.43,-298.69C1421.19,-274.17 1553.72,-219.82 1605.29,-198.66"/>
<polygon fill="midnightblue" stroke="midnightblue" points="1360.08,-295.46 1352.15,-302.49 1362.73,-301.93 1360.08,-295.46"/>
</g>
<!-- Node3 -->
<g id="node3" class="node">
<title>Node3</title>
<g id="a_node3"><a xlink:href="qpalm_8h.html" target="_top" xlink:title="QPALM main solver API.">
<polygon fill="white" stroke="black" points="1253.91,-67.5 1253.91,-86.5 1384.91,-86.5 1384.91,-67.5 1253.91,-67.5"/>
<text text-anchor="middle" x="1319.41" y="-74.5" font-family="Helvetica,sans-Serif" font-size="10.00">QPALM/include/qpalm.h</text>
</a>
</g>
</g>
<!-- Node1&#45;&gt;Node3 -->
<g id="edge40" class="edge">
<title>Node1&#45;&gt;Node3</title>
<path fill="none" stroke="midnightblue" d="M1390.53,-300.66C1439.4,-291.94 1510.55,-278.87 1572.41,-266 1704.99,-238.42 1897.37,-310.34 1864.41,-179 1857.53,-151.61 1857.98,-138.55 1834.41,-123 1797.7,-98.79 1515.32,-85.27 1384.97,-80.27"/>
<polygon fill="midnightblue" stroke="midnightblue" points="1389.68,-297.25 1380.45,-302.45 1390.91,-304.14 1389.68,-297.25"/>
</g>
<!-- Node8 -->
<g id="node8" class="node">
<title>Node8</title>
<g id="a_node8"><a xlink:href="lin__alg_8h.html" target="_top" xlink:title="Linear algebra with vectors.">
<polygon fill="white" stroke="black" points="814.91,-179.5 814.91,-198.5 947.91,-198.5 947.91,-179.5 814.91,-179.5"/>
<text text-anchor="middle" x="881.41" y="-186.5" font-family="Helvetica,sans-Serif" font-size="10.00">QPALM/include/lin_alg.h</text>
</a>
</g>
</g>
<!-- Node1&#45;&gt;Node8 -->
<g id="edge8" class="edge">
<title>Node1&#45;&gt;Node8</title>
<path fill="none" stroke="midnightblue" d="M1257.18,-306.71C1195.09,-301.52 1104.82,-290.25 1029.41,-266 976.61,-249.02 919.76,-214.76 894.63,-198.69"/>
<polygon fill="midnightblue" stroke="midnightblue" points="1257.03,-310.21 1267.28,-307.52 1257.59,-303.23 1257.03,-310.21"/>
</g>
<!-- Node9 -->
<g id="node9" class="node">
<title>Node9</title>
<g id="a_node9"><a xlink:href="scaling_8h.html" target="_top" xlink:title="Problem data scaling during setup.">
<polygon fill="white" stroke="black" points="909.91,-123.5 909.91,-142.5 1044.91,-142.5 1044.91,-123.5 909.91,-123.5"/>
<text text-anchor="middle" x="977.41" y="-130.5" font-family="Helvetica,sans-Serif" font-size="10.00">QPALM/include/scaling.h</text>
</a>
</g>
</g>
<!-- Node1&#45;&gt;Node9 -->
<g id="edge41" class="edge">
<title>Node1&#45;&gt;Node9</title>
<path fill="none" stroke="midnightblue" d="M1289.93,-299.61C1262.99,-291.59 1227.44,-279.85 1197.41,-266 1114.09,-227.57 1022.41,-165.51 989.77,-142.74"/>
<polygon fill="midnightblue" stroke="midnightblue" points="1289.22,-303.04 1299.8,-302.49 1291.18,-296.33 1289.22,-303.04"/>
</g>
<!-- Node14 -->
<g id="node14" class="node">
<title>Node14</title>
<g id="a_node14"><a xlink:href="nonconvex_8c.html" target="_top" xlink:title="Routines to deal with nonconvex QPs.">
<polygon fill="white" stroke="black" points="1291.41,-123.5 1291.41,-142.5 1423.41,-142.5 1423.41,-123.5 1291.41,-123.5"/>
<text text-anchor="middle" x="1357.41" y="-130.5" font-family="Helvetica,sans-Serif" font-size="10.00">QPALM/src/nonconvex.c</text>
</a>
</g>
</g>
<!-- Node1&#45;&gt;Node14 -->
<g id="edge65" class="edge">
<title>Node1&#45;&gt;Node14</title>
<path fill="none" stroke="midnightblue" d="M1334.15,-292.35C1339.69,-254.6 1352.07,-170.36 1356.11,-142.87"/>
<polygon fill="midnightblue" stroke="midnightblue" points="1330.65,-292.06 1332.66,-302.46 1337.58,-293.08 1330.65,-292.06"/>
</g>
<!-- Node16 -->
<g id="node16" class="node">
<title>Node16</title>
<g id="a_node16"><a xlink:href="util_8c.html" target="_top" xlink:title="Utility functions.">
<polygon fill="white" stroke="black" points="1101.91,-123.5 1101.91,-142.5 1196.91,-142.5 1196.91,-123.5 1101.91,-123.5"/>
<text text-anchor="middle" x="1149.41" y="-130.5" font-family="Helvetica,sans-Serif" font-size="10.00">QPALM/src/util.c</text>
</a>
</g>
</g>
<!-- Node1&#45;&gt;Node16 -->
<g id="edge66" class="edge">
<title>Node1&#45;&gt;Node16</title>
<path fill="none" stroke="midnightblue" d="M1300.95,-298.22C1263.83,-281.08 1201.84,-247.14 1167.41,-199 1155.01,-181.67 1151.14,-156.13 1149.94,-142.81"/>
<polygon fill="midnightblue" stroke="midnightblue" points="1299.71,-301.5 1310.26,-302.41 1302.58,-295.11 1299.71,-301.5"/>
</g>
<!-- Node18 -->
<g id="node18" class="node">
<title>Node18</title>
<g id="a_node18"><a xlink:href="linesearch_8h.html" target="_top" xlink:title="Routines to perform exact linesearch.">
<polygon fill="white" stroke="black" points="26.91,-179.5 26.91,-198.5 177.91,-198.5 177.91,-179.5 26.91,-179.5"/>
<text text-anchor="middle" x="102.41" y="-186.5" font-family="Helvetica,sans-Serif" font-size="10.00">QPALM/include/linesearch.h</text>
</a>
</g>
</g>
<!-- Node1&#45;&gt;Node18 -->
<g id="edge25" class="edge">
<title>Node1&#45;&gt;Node18</title>
<path fill="none" stroke="midnightblue" d="M1257.2,-309.59C1064.04,-305.6 548.91,-292.69 380.41,-266 284.53,-250.82 174.32,-215 126.56,-198.54"/>
<polygon fill="midnightblue" stroke="midnightblue" points="1257.19,-313.09 1267.26,-309.8 1257.33,-306.1 1257.19,-313.09"/>
</g>
<!-- Node19 -->
<g id="node19" class="node">
<title>Node19</title>
<g id="a_node19"><a xlink:href="newton_8h.html" target="_top" xlink:title="Functions to calculate the semismooth Newton direction.">
<polygon fill="white" stroke="black" points="195.91,-179.5 195.91,-198.5 332.91,-198.5 332.91,-179.5 195.91,-179.5"/>
<text text-anchor="middle" x="264.41" y="-186.5" font-family="Helvetica,sans-Serif" font-size="10.00">QPALM/include/newton.h</text>
</a>
</g>
</g>
<!-- Node1&#45;&gt;Node19 -->
<g id="edge30" class="edge">
<title>Node1&#45;&gt;Node19</title>
<path fill="none" stroke="midnightblue" d="M1257.18,-309.58C1080.15,-305.79 637.06,-293.75 491.41,-266 412.21,-250.91 322.68,-215.04 283.97,-198.56"/>
<polygon fill="midnightblue" stroke="midnightblue" points="1257.11,-313.08 1267.18,-309.79 1257.26,-306.08 1257.11,-313.08"/>
</g>
<!-- Node20 -->
<g id="node20" class="node">
<title>Node20</title>
<g id="a_node20"><a xlink:href="nonconvex_8h.html" target="_top" xlink:title="Routines to deal with nonconvex QPs.">
<polygon fill="white" stroke="black" points="1176.41,-179.5 1176.41,-198.5 1330.41,-198.5 1330.41,-179.5 1176.41,-179.5"/>
<text text-anchor="middle" x="1253.41" y="-186.5" font-family="Helvetica,sans-Serif" font-size="10.00">QPALM/include/nonconvex.h</text>
</a>
</g>
</g>
<!-- Node1&#45;&gt;Node20 -->
<g id="edge35" class="edge">
<title>Node1&#45;&gt;Node20</title>
<path fill="none" stroke="midnightblue" d="M1320.29,-293.75C1303.36,-267.48 1271.73,-218.43 1258.97,-198.62"/>
<polygon fill="midnightblue" stroke="midnightblue" points="1317.44,-295.79 1325.8,-302.3 1323.32,-292 1317.44,-295.79"/>
</g>
<!-- Node21 -->
<g id="node21" class="node">
<title>Node21</title>
<g id="a_node21"><a xlink:href="solver__interface_8h.html" target="_top" xlink:title="Interface and wrapper to matrix/factorization (ladel) functions.">
<polygon fill="white" stroke="black" points="500.41,-235.5 500.41,-265.5 622.41,-265.5 622.41,-235.5 500.41,-235.5"/>
<text text-anchor="start" x="508.41" y="-253.5" font-family="Helvetica,sans-Serif" font-size="10.00">QPALM/include/solver</text>
<text text-anchor="middle" x="561.41" y="-242.5" font-family="Helvetica,sans-Serif" font-size="10.00">_interface.h</text>
</a>
</g>
</g>
<!-- Node1&#45;&gt;Node21 -->
<g id="edge42" class="edge">
<title>Node1&#45;&gt;Node21</title>
<path fill="none" stroke="midnightblue" d="M1256.92,-305.24C1105.11,-293.51 762.46,-267.04 622.6,-256.23"/>
<polygon fill="midnightblue" stroke="midnightblue" points="1256.84,-308.75 1267.08,-306.03 1257.38,-301.77 1256.84,-308.75"/>
</g>
<!-- Node22 -->
<g id="node22" class="node">
<title>Node22</title>
<g id="a_node22"><a xlink:href="termination_8h.html" target="_top" xlink:title="Routines to check the termination and infeasibility criteria.">
<polygon fill="white" stroke="black" points="1911.41,-179.5 1911.41,-198.5 2069.41,-198.5 2069.41,-179.5 1911.41,-179.5"/>
<text text-anchor="middle" x="1990.41" y="-186.5" font-family="Helvetica,sans-Serif" font-size="10.00">QPALM/include/termination.h</text>
</a>
</g>
</g>
<!-- Node1&#45;&gt;Node22 -->
<g id="edge48" class="edge">
<title>Node1&#45;&gt;Node22</title>
<path fill="none" stroke="midnightblue" d="M1405.91,-310.56C1538.61,-308.86 1810.16,-301.07 1897.41,-266 1934.94,-250.91 1969,-215.05 1983.29,-198.56"/>
<polygon fill="midnightblue" stroke="midnightblue" points="1405.79,-307.06 1395.83,-310.68 1405.87,-314.06 1405.79,-307.06"/>
</g>
<!-- Node23 -->
<g id="node23" class="node">
<title>Node23</title>
<g id="a_node23"><a xlink:href="util_8h.html" target="_top" xlink:title="Utility functions.">
<polygon fill="white" stroke="black" points="1386.41,-179.5 1386.41,-198.5 1502.41,-198.5 1502.41,-179.5 1386.41,-179.5"/>
<text text-anchor="middle" x="1444.41" y="-186.5" font-family="Helvetica,sans-Serif" font-size="10.00">QPALM/include/util.h</text>
</a>
</g>
</g>
<!-- Node1&#45;&gt;Node23 -->
<g id="edge52" class="edge">
<title>Node1&#45;&gt;Node23</title>
<path fill="none" stroke="midnightblue" d="M1346.56,-294.77C1370.84,-268.78 1417.61,-218.69 1436.35,-198.62"/>
<polygon fill="midnightblue" stroke="midnightblue" points="1343.8,-292.6 1339.53,-302.3 1348.92,-297.38 1343.8,-292.6"/>
</g>
<!-- Node24 -->
<g id="node24" class="node">
<title>Node24</title>
<g id="a_node24"><a xlink:href="validate_8h.html" target="_top" xlink:title="Validation of the user provided settings and data.">
<polygon fill="white" stroke="black" points="1715.41,-179.5 1715.41,-198.5 1855.41,-198.5 1855.41,-179.5 1715.41,-179.5"/>
<text text-anchor="middle" x="1785.41" y="-186.5" font-family="Helvetica,sans-Serif" font-size="10.00">QPALM/include/validate.h</text>
</a>
</g>
</g>
<!-- Node1&#45;&gt;Node24 -->
<g id="edge59" class="edge">
<title>Node1&#45;&gt;Node24</title>
<path fill="none" stroke="midnightblue" d="M1373.16,-299.87C1462.95,-275.94 1672.76,-220.02 1753.22,-198.58"/>
<polygon fill="midnightblue" stroke="midnightblue" points="1372.09,-296.53 1363.33,-302.49 1373.9,-303.3 1372.09,-296.53"/>
</g>
<!-- Node25 -->
<g id="node25" class="node">
<title>Node25</title>
<g id="a_node25"><a xlink:href="qpalm_8hpp.html" target="_top" xlink:title=" ">
<polygon fill="white" stroke="black" points="2009.41,-235.5 2009.41,-265.5 2131.41,-265.5 2131.41,-235.5 2009.41,-235.5"/>
<text text-anchor="start" x="2017.41" y="-253.5" font-family="Helvetica,sans-Serif" font-size="10.00">QPALM/interfaces/cxx</text>
<text text-anchor="middle" x="2070.41" y="-242.5" font-family="Helvetica,sans-Serif" font-size="10.00">/include/qpalm.hpp</text>
</a>
</g>
</g>
<!-- Node1&#45;&gt;Node25 -->
<g id="edge63" class="edge">
<title>Node1&#45;&gt;Node25</title>
<path fill="none" stroke="midnightblue" d="M1405.95,-307.49C1525.19,-301.48 1766.11,-287.73 1969.41,-266 1982.35,-264.62 1996.19,-262.83 2009.34,-260.99"/>
<polygon fill="midnightblue" stroke="midnightblue" points="1405.65,-304 1395.84,-308 1406,-310.99 1405.65,-304"/>
</g>
<!-- Node2&#45;&gt;Node3 -->
<g id="edge2" class="edge">
<title>Node2&#45;&gt;Node3</title>
<path fill="none" stroke="midnightblue" d="M1702.1,-177.73C1743.14,-170.44 1787.97,-159.07 1800.41,-143 1805.85,-135.97 1806.39,-129.57 1800.41,-123 1772.98,-92.89 1510.24,-82.56 1385.08,-79.34"/>
<polygon fill="midnightblue" stroke="midnightblue" points="1701.31,-174.31 1692.05,-179.45 1702.49,-181.21 1701.31,-174.31"/>
</g>
<!-- Node5 -->
<g id="node5" class="node">
<title>Node5</title>
<g id="a_node5"><a xlink:href="qpalm_8c.html" target="_top" xlink:title="QPALM main solver API.">
<polygon fill="white" stroke="black" points="1170.41,-6 1170.41,-25 1280.41,-25 1280.41,-6 1170.41,-6"/>
<text text-anchor="middle" x="1225.41" y="-13" font-family="Helvetica,sans-Serif" font-size="10.00">QPALM/src/qpalm.c</text>
</a>
</g>
</g>
<!-- Node2&#45;&gt;Node5 -->
<g id="edge6" class="edge">
<title>Node2&#45;&gt;Node5</title>
<path fill="none" stroke="midnightblue" d="M1686.87,-177.61C1739.67,-167.93 1809.14,-153.44 1817.41,-143 1822.93,-136.03 1823.08,-129.84 1817.41,-123 1749.48,-41.12 1414.68,-22.11 1280.84,-17.77"/>
<polygon fill="midnightblue" stroke="midnightblue" points="1686.11,-174.19 1676.89,-179.42 1687.36,-181.08 1686.11,-174.19"/>
</g>
<!-- Node6 -->
<g id="node6" class="node">
<title>Node6</title>
<g id="a_node6"><a xlink:href="iteration_8c.html" target="_top" xlink:title="QPALM main solver routines.">
<polygon fill="white" stroke="black" points="565.41,-123.5 565.41,-142.5 685.41,-142.5 685.41,-123.5 565.41,-123.5"/>
<text text-anchor="middle" x="625.41" y="-130.5" font-family="Helvetica,sans-Serif" font-size="10.00">QPALM/src/iteration.c</text>
</a>
</g>
</g>
<!-- Node2&#45;&gt;Node6 -->
<g id="edge5" class="edge">
<title>Node2&#45;&gt;Node6</title>
<path fill="none" stroke="midnightblue" d="M1544.98,-181.3C1533.71,-180.47 1522.27,-179.68 1511.41,-179 1165.49,-157.48 1078.27,-165.53 732.41,-143 717.25,-142.01 700.89,-140.74 685.65,-139.47"/>
<polygon fill="midnightblue" stroke="midnightblue" points="1545.04,-184.82 1555.27,-182.08 1545.56,-177.84 1545.04,-184.82"/>
</g>
<!-- Node7 -->
<g id="node7" class="node">
<title>Node7</title>
<g id="a_node7"><a xlink:href="termination_8c.html" target="_top" xlink:title="Routines to check the termination and infeasibility criteria.">
<polygon fill="white" stroke="black" points="1655.41,-123.5 1655.41,-142.5 1791.41,-142.5 1791.41,-123.5 1655.41,-123.5"/>
<text text-anchor="middle" x="1723.41" y="-130.5" font-family="Helvetica,sans-Serif" font-size="10.00">QPALM/src/termination.c</text>
</a>
</g>
</g>
<!-- Node2&#45;&gt;Node7 -->
<g id="edge7" class="edge">
<title>Node2&#45;&gt;Node7</title>
<path fill="none" stroke="midnightblue" d="M1650.74,-174.45C1668.65,-164.48 1692.46,-151.23 1707.86,-142.65"/>
<polygon fill="midnightblue" stroke="midnightblue" points="1649.03,-171.4 1641.99,-179.32 1652.43,-177.52 1649.03,-171.4"/>
</g>
<!-- Node4 -->
<g id="node4" class="node">
<title>Node4</title>
<g id="a_node4"><a xlink:href="qpalm_8cpp.html" target="_top" xlink:title=" ">
<polygon fill="white" stroke="black" points="1667.41,-0.5 1667.41,-30.5 1789.41,-30.5 1789.41,-0.5 1667.41,-0.5"/>
<text text-anchor="start" x="1675.41" y="-18.5" font-family="Helvetica,sans-Serif" font-size="10.00">QPALM/interfaces/cxx</text>
<text text-anchor="middle" x="1728.41" y="-7.5" font-family="Helvetica,sans-Serif" font-size="10.00">/src/qpalm.cpp</text>
</a>
</g>
</g>
<!-- Node3&#45;&gt;Node4 -->
<g id="edge3" class="edge">
<title>Node3&#45;&gt;Node4</title>
<path fill="none" stroke="midnightblue" d="M1388.23,-65.99C1466.31,-54.63 1592.48,-36.27 1667.25,-25.4"/>
<polygon fill="midnightblue" stroke="midnightblue" points="1387.4,-62.57 1378.01,-67.48 1388.41,-69.5 1387.4,-62.57"/>
</g>
<!-- Node3&#45;&gt;Node5 -->
<g id="edge4" class="edge">
<title>Node3&#45;&gt;Node5</title>
<path fill="none" stroke="midnightblue" d="M1297.18,-61.93C1279.06,-50.46 1254.06,-34.63 1238.85,-25.01"/>
<polygon fill="midnightblue" stroke="midnightblue" points="1295.62,-65.08 1305.94,-67.48 1299.36,-59.17 1295.62,-65.08"/>
</g>
<!-- Node8&#45;&gt;Node3 -->
<g id="edge9" class="edge">
<title>Node8&#45;&gt;Node3</title>
<path fill="none" stroke="midnightblue" d="M934.5,-177.26C968.98,-169.52 1014.57,-157.84 1053.41,-143 1071.61,-136.05 1074.01,-129.4 1092.41,-123 1145.15,-104.65 1207.54,-92.96 1253.55,-86.11"/>
<polygon fill="midnightblue" stroke="midnightblue" points="933.64,-173.86 924.63,-179.43 935.15,-180.7 933.64,-173.86"/>
</g>
<!-- Node8&#45;&gt;Node5 -->
<g id="edge19" class="edge">
<title>Node8&#45;&gt;Node5</title>
<path fill="none" stroke="midnightblue" d="M879.31,-169.14C877.47,-142.35 878.56,-93.57 906.41,-67 943.32,-31.77 1088.98,-21.11 1170.11,-17.89"/>
<polygon fill="midnightblue" stroke="midnightblue" points="875.85,-169.8 880.24,-179.45 882.82,-169.17 875.85,-169.8"/>
</g>
<!-- Node8&#45;&gt;Node6 -->
<g id="edge14" class="edge">
<title>Node8&#45;&gt;Node6</title>
<path fill="none" stroke="midnightblue" d="M830.9,-177.35C782.52,-167.14 710.46,-151.94 665.78,-142.52"/>
<polygon fill="midnightblue" stroke="midnightblue" points="830.34,-180.8 840.84,-179.44 831.78,-173.95 830.34,-180.8"/>
</g>
<!-- Node8&#45;&gt;Node7 -->
<g id="edge22" class="edge">
<title>Node8&#45;&gt;Node7</title>
<path fill="none" stroke="midnightblue" d="M958.62,-183.05C1121.94,-172.57 1500.07,-148.32 1655.16,-138.38"/>
<polygon fill="midnightblue" stroke="midnightblue" points="957.94,-179.58 948.18,-183.72 958.39,-186.57 957.94,-179.58"/>
</g>
<!-- Node8&#45;&gt;Node9 -->
<g id="edge10" class="edge">
<title>Node8&#45;&gt;Node9</title>
<path fill="none" stroke="midnightblue" d="M905.98,-174.18C923.65,-164.24 946.92,-151.15 962.02,-142.65"/>
<polygon fill="midnightblue" stroke="midnightblue" points="903.83,-171.37 896.83,-179.32 907.26,-177.47 903.83,-171.37"/>
</g>
<!-- Node10 -->
<g id="node10" class="node">
<title>Node10</title>
<g id="a_node10"><a xlink:href="scaling_8c.html" target="_top" xlink:title="Problem data scaling during setup.">
<polygon fill="white" stroke="black" points="915.91,-67.5 915.91,-86.5 1028.91,-86.5 1028.91,-67.5 915.91,-67.5"/>
<text text-anchor="middle" x="972.41" y="-74.5" font-family="Helvetica,sans-Serif" font-size="10.00">QPALM/src/scaling.c</text>
</a>
</g>
</g>
<!-- Node8&#45;&gt;Node10 -->
<g id="edge20" class="edge">
<title>Node8&#45;&gt;Node10</title>
<path fill="none" stroke="midnightblue" d="M804.78,-179.32C756.08,-170.68 706.65,-154.04 732.41,-123 755.25,-95.48 852.26,-84.68 915.74,-80.53"/>
<polygon fill="midnightblue" stroke="midnightblue" points="804.37,-182.8 814.81,-181 805.52,-175.9 804.37,-182.8"/>
</g>
<!-- Node11 -->
<g id="node11" class="node">
<title>Node11</title>
<g id="a_node11"><a xlink:href="lin__alg_8c.html" target="_top" xlink:title="Linear algebra with vectors.">
<polygon fill="white" stroke="black" points="741.91,-123.5 741.91,-142.5 852.91,-142.5 852.91,-123.5 741.91,-123.5"/>
<text text-anchor="middle" x="797.41" y="-130.5" font-family="Helvetica,sans-Serif" font-size="10.00">QPALM/src/lin_alg.c</text>
</a>
</g>
</g>
<!-- Node8&#45;&gt;Node11 -->
<g id="edge15" class="edge">
<title>Node8&#45;&gt;Node11</title>
<path fill="none" stroke="midnightblue" d="M859.48,-173.9C844.07,-164 823.96,-151.07 810.87,-142.65"/>
<polygon fill="midnightblue" stroke="midnightblue" points="857.61,-176.86 867.91,-179.32 861.39,-170.97 857.61,-176.86"/>
</g>
<!-- Node12 -->
<g id="node12" class="node">
<title>Node12</title>
<g id="a_node12"><a xlink:href="linesearch_8c.html" target="_top" xlink:title="Routines to perform exact or backtracking linesearch.">
<polygon fill="white" stroke="black" points="70.91,-123.5 70.91,-142.5 199.91,-142.5 199.91,-123.5 70.91,-123.5"/>
<text text-anchor="middle" x="135.41" y="-130.5" font-family="Helvetica,sans-Serif" font-size="10.00">QPALM/src/linesearch.c</text>
</a>
</g>
</g>
<!-- Node8&#45;&gt;Node12 -->
<g id="edge16" class="edge">
<title>Node8&#45;&gt;Node12</title>
<path fill="none" stroke="midnightblue" d="M804.19,-184.24C678.96,-177.83 423.85,-163.47 208.41,-143 205.74,-142.75 203.02,-142.47 200.27,-142.19"/>
<polygon fill="midnightblue" stroke="midnightblue" points="804.28,-187.75 814.44,-184.77 804.63,-180.76 804.28,-187.75"/>
</g>
<!-- Node13 -->
<g id="node13" class="node">
<title>Node13</title>
<g id="a_node13"><a xlink:href="newton_8c.html" target="_top" xlink:title="Functions to calculate the semismooth Newton direction.">
<polygon fill="white" stroke="black" points="217.91,-123.5 217.91,-142.5 332.91,-142.5 332.91,-123.5 217.91,-123.5"/>
<text text-anchor="middle" x="275.41" y="-130.5" font-family="Helvetica,sans-Serif" font-size="10.00">QPALM/src/newton.c</text>
</a>
</g>
</g>
<!-- Node8&#45;&gt;Node13 -->
<g id="edge17" class="edge">
<title>Node8&#45;&gt;Node13</title>
<path fill="none" stroke="midnightblue" d="M804.73,-181.17C681.69,-170.2 442.9,-148.92 333.14,-139.14"/>
<polygon fill="midnightblue" stroke="midnightblue" points="804.55,-184.67 814.82,-182.07 805.17,-177.69 804.55,-184.67"/>
</g>
<!-- Node8&#45;&gt;Node14 -->
<g id="edge18" class="edge">
<title>Node8&#45;&gt;Node14</title>
<path fill="none" stroke="midnightblue" d="M958.21,-179.29C1050.52,-168.82 1203.85,-151.42 1291.17,-141.51"/>
<polygon fill="midnightblue" stroke="midnightblue" points="957.64,-175.83 948.09,-180.43 958.43,-182.79 957.64,-175.83"/>
</g>
<!-- Node15 -->
<g id="node15" class="node">
<title>Node15</title>
<g id="a_node15"><a xlink:href="solver__interface_8c.html" target="_top" xlink:title="Interface and wrapper to matrix/factorization (ladel) functions.">
<polygon fill="white" stroke="black" points="389.41,-123.5 389.41,-142.5 547.41,-142.5 547.41,-123.5 389.41,-123.5"/>
<text text-anchor="middle" x="468.41" y="-130.5" font-family="Helvetica,sans-Serif" font-size="10.00">QPALM/src/solver_interface.c</text>
</a>
</g>
</g>
<!-- Node8&#45;&gt;Node15 -->
<g id="edge21" class="edge">
<title>Node8&#45;&gt;Node15</title>
<path fill="none" stroke="midnightblue" d="M805.73,-178.1C727.74,-167.91 607.43,-152.18 533.54,-142.52"/>
<polygon fill="midnightblue" stroke="midnightblue" points="805.6,-181.62 815.97,-179.44 806.5,-174.68 805.6,-181.62"/>
</g>
<!-- Node8&#45;&gt;Node16 -->
<g id="edge23" class="edge">
<title>Node8&#45;&gt;Node16</title>
<path fill="none" stroke="midnightblue" d="M933.97,-177.41C984.62,-167.2 1060.27,-151.96 1107.14,-142.52"/>
<polygon fill="midnightblue" stroke="midnightblue" points="932.98,-174.04 923.87,-179.44 934.37,-180.9 932.98,-174.04"/>
</g>
<!-- Node17 -->
<g id="node17" class="node">
<title>Node17</title>
<g id="a_node17"><a xlink:href="validate_8c.html" target="_top" xlink:title="Validation of the user provided settings and data.">
<polygon fill="white" stroke="black" points="1441.91,-123.5 1441.91,-142.5 1560.91,-142.5 1560.91,-123.5 1441.91,-123.5"/>
<text text-anchor="middle" x="1501.41" y="-130.5" font-family="Helvetica,sans-Serif" font-size="10.00">QPALM/src/validate.c</text>
</a>
</g>
</g>
<!-- Node8&#45;&gt;Node17 -->
<g id="edge24" class="edge">
<title>Node8&#45;&gt;Node17</title>
<path fill="none" stroke="midnightblue" d="M958.1,-182.91C1064.65,-175.57 1263.44,-160.91 1432.41,-143 1435.41,-142.68 1438.49,-142.34 1441.59,-141.98"/>
<polygon fill="midnightblue" stroke="midnightblue" points="957.82,-179.42 948.09,-183.6 958.3,-186.4 957.82,-179.42"/>
</g>
<!-- Node9&#45;&gt;Node3 -->
<g id="edge11" class="edge">
<title>Node9&#45;&gt;Node3</title>
<path fill="none" stroke="midnightblue" d="M1041.67,-121.85C1106.29,-111.65 1204.79,-96.1 1265.47,-86.52"/>
<polygon fill="midnightblue" stroke="midnightblue" points="1040.93,-118.43 1031.6,-123.44 1042.02,-125.34 1040.93,-118.43"/>
</g>
<!-- Node9&#45;&gt;Node5 -->
<g id="edge12" class="edge">
<title>Node9&#45;&gt;Node5</title>
<path fill="none" stroke="midnightblue" d="M1005.18,-119.06C1056.24,-95.28 1163.73,-45.23 1206.89,-25.12"/>
<polygon fill="midnightblue" stroke="midnightblue" points="1003.64,-115.92 996.05,-123.32 1006.59,-122.27 1003.64,-115.92"/>
</g>
<!-- Node9&#45;&gt;Node10 -->
<g id="edge13" class="edge">
<title>Node9&#45;&gt;Node10</title>
<path fill="none" stroke="midnightblue" d="M975.66,-113.1C974.83,-104.14 973.88,-93.86 973.22,-86.75"/>
<polygon fill="midnightblue" stroke="midnightblue" points="972.17,-113.45 976.58,-123.08 979.15,-112.8 972.17,-113.45"/>
</g>
<!-- Node18&#45;&gt;Node3 -->
<g id="edge26" class="edge">
<title>Node18&#45;&gt;Node3</title>
<path fill="none" stroke="midnightblue" d="M79.48,-173.74C60.15,-160.02 37.92,-139.05 53.41,-123 56.04,-120.27 994.43,-88.82 1253.72,-80.18"/>
<polygon fill="midnightblue" stroke="midnightblue" points="77.77,-176.8 88.01,-179.49 81.68,-170.99 77.77,-176.8"/>
</g>
<!-- Node18&#45;&gt;Node5 -->
<g id="edge29" class="edge">
<title>Node18&#45;&gt;Node5</title>
<path fill="none" stroke="midnightblue" d="M75.93,-174.49C55.61,-162.18 32.84,-142.94 44.41,-123 69.59,-79.61 94.24,-81 142.41,-67 241.37,-38.24 963.58,-21.73 1170.28,-17.56"/>
<polygon fill="midnightblue" stroke="midnightblue" points="74.25,-177.56 84.67,-179.47 77.72,-171.48 74.25,-177.56"/>
</g>
<!-- Node18&#45;&gt;Node6 -->
<g id="edge27" class="edge">
<title>Node18&#45;&gt;Node6</title>
<path fill="none" stroke="midnightblue" d="M187.94,-178.85C352.44,-162.17 395.45,-161.32 556.41,-143 559.29,-142.67 562.24,-142.33 565.21,-141.97"/>
<polygon fill="midnightblue" stroke="midnightblue" points="187.55,-175.37 177.96,-179.87 188.26,-182.34 187.55,-175.37"/>
</g>
<!-- Node18&#45;&gt;Node12 -->
<g id="edge28" class="edge">
<title>Node18&#45;&gt;Node12</title>
<path fill="none" stroke="midnightblue" d="M113.24,-170.27C118.88,-161.05 125.53,-150.17 130.06,-142.75"/>
<polygon fill="midnightblue" stroke="midnightblue" points="110.09,-168.73 107.86,-179.08 116.06,-172.38 110.09,-168.73"/>
</g>
<!-- Node19&#45;&gt;Node3 -->
<g id="edge31" class="edge">
<title>Node19&#45;&gt;Node3</title>
<path fill="none" stroke="midnightblue" d="M199.85,-177.81C143.79,-168.31 70.23,-153.99 61.41,-143 55.84,-136.07 55.24,-129.4 61.41,-123 64.02,-120.29 995.43,-88.86 1253.69,-80.2"/>
<polygon fill="midnightblue" stroke="midnightblue" points="199.3,-181.27 209.74,-179.47 200.46,-174.37 199.3,-181.27"/>
</g>
<!-- Node19&#45;&gt;Node5 -->
<g id="edge34" class="edge">
<title>Node19&#45;&gt;Node5</title>
<path fill="none" stroke="midnightblue" d="M196.89,-177.92C138.68,-168.53 62.58,-154.34 53.41,-143 47.82,-136.09 47.41,-129.56 53.41,-123 129.57,-39.6 948.59,-20.82 1170.32,-17.25"/>
<polygon fill="midnightblue" stroke="midnightblue" points="196.37,-181.38 206.79,-179.49 197.47,-174.46 196.37,-181.38"/>
</g>
<!-- Node19&#45;&gt;Node6 -->
<g id="edge32" class="edge">
<title>Node19&#45;&gt;Node6</title>
<path fill="none" stroke="midnightblue" d="M331.82,-177.92C400.02,-167.71 504.29,-152.12 568.47,-142.52"/>
<polygon fill="midnightblue" stroke="midnightblue" points="330.98,-174.5 321.61,-179.44 332.02,-181.43 330.98,-174.5"/>
</g>
<!-- Node19&#45;&gt;Node13 -->
<g id="edge33" class="edge">
<title>Node19&#45;&gt;Node13</title>
<path fill="none" stroke="midnightblue" d="M268.26,-169.1C270.08,-160.14 272.18,-149.86 273.63,-142.75"/>
<polygon fill="midnightblue" stroke="midnightblue" points="264.79,-168.59 266.22,-179.08 271.65,-169.98 264.79,-168.59"/>
</g>
<!-- Node20&#45;&gt;Node3 -->
<g id="edge36" class="edge">
<title>Node20&#45;&gt;Node3</title>
<path fill="none" stroke="midnightblue" d="M1260.04,-169.7C1265.26,-156.3 1273.18,-137.93 1282.41,-123 1290.81,-109.41 1302.94,-95.45 1310.99,-86.76"/>
<polygon fill="midnightblue" stroke="midnightblue" points="1256.71,-168.62 1256.46,-179.22 1263.26,-171.09 1256.71,-168.62"/>
</g>
<!-- Node20&#45;&gt;Node5 -->
<g id="edge39" class="edge">
<title>Node20&#45;&gt;Node5</title>
<path fill="none" stroke="midnightblue" d="M1250.36,-169.33C1244.34,-132.43 1231.11,-51.44 1226.8,-25.02"/>
<polygon fill="midnightblue" stroke="midnightblue" points="1246.92,-169.95 1251.98,-179.26 1253.82,-168.83 1246.92,-169.95"/>
</g>
<!-- Node20&#45;&gt;Node6 -->
<g id="edge37" class="edge">
<title>Node20&#45;&gt;Node6</title>
<path fill="none" stroke="midnightblue" d="M1166.14,-180.5C1036.75,-169.37 797.34,-148.78 685.68,-139.18"/>
<polygon fill="midnightblue" stroke="midnightblue" points="1166.14,-184.01 1176.4,-181.38 1166.74,-177.03 1166.14,-184.01"/>
</g>
<!-- Node20&#45;&gt;Node14 -->
<g id="edge38" class="edge">
<title>Node20&#45;&gt;Node14</title>
<path fill="none" stroke="midnightblue" d="M1279.24,-174.59C1298.46,-164.61 1324.15,-151.27 1340.74,-142.65"/>
<polygon fill="midnightblue" stroke="midnightblue" points="1277.38,-171.61 1270.12,-179.32 1280.61,-177.82 1277.38,-171.61"/>
</g>
<!-- Node21&#45;&gt;Node3 -->
<g id="edge44" class="edge">
<title>Node21&#45;&gt;Node3</title>
<path fill="none" stroke="midnightblue" d="M499.08,-232.38C430.43,-210.66 335.34,-170.28 380.41,-123 387.95,-115.09 1041.33,-88.87 1253.6,-80.55"/>
<polygon fill="midnightblue" stroke="midnightblue" points="498.41,-235.83 508.99,-235.45 500.47,-229.15 498.41,-235.83"/>
</g>
<!-- Node21&#45;&gt;Node5 -->
<g id="edge46" class="edge">
<title>Node21&#45;&gt;Node5</title>
<path fill="none" stroke="midnightblue" d="M490.08,-248.12C349.75,-244.66 48.65,-233.28 17.41,-199 -25.88,-151.51 20.11,-97.99 76.41,-67 172.72,-13.98 953.8,-14.81 1170.08,-16.08"/>
<polygon fill="midnightblue" stroke="midnightblue" points="490.22,-251.62 500.3,-248.36 490.39,-244.62 490.22,-251.62"/>
</g>
<!-- Node21&#45;&gt;Node6 -->
<g id="edge45" class="edge">
<title>Node21&#45;&gt;Node6</title>
<path fill="none" stroke="midnightblue" d="M574.11,-226.58C588.38,-200.82 610.84,-160.3 620.6,-142.67"/>
<polygon fill="midnightblue" stroke="midnightblue" points="571.04,-224.89 569.26,-235.34 577.16,-228.29 571.04,-224.89"/>
</g>
<!-- Node21&#45;&gt;Node8 -->
<g id="edge43" class="edge">
<title>Node21&#45;&gt;Node8</title>
<path fill="none" stroke="midnightblue" d="M632.81,-236.22C694.66,-224.72 782.31,-208.43 835.32,-198.57"/>
<polygon fill="midnightblue" stroke="midnightblue" points="631.92,-232.83 622.73,-238.1 633.2,-239.71 631.92,-232.83"/>
</g>
<!-- Node21&#45;&gt;Node15 -->
<g id="edge47" class="edge">
<title>Node21&#45;&gt;Node15</title>
<path fill="none" stroke="midnightblue" d="M543.5,-227.26C522.79,-201.54 489.71,-160.45 475.39,-142.67"/>
<polygon fill="midnightblue" stroke="midnightblue" points="541.01,-229.74 550,-235.34 546.46,-225.35 541.01,-229.74"/>
</g>
<!-- Node22&#45;&gt;Node3 -->
<g id="edge49" class="edge">
<title>Node22&#45;&gt;Node3</title>
<path fill="none" stroke="midnightblue" d="M1976.12,-171.93C1961.2,-156.37 1936.25,-133.6 1909.41,-123 1815.54,-85.92 1518.16,-79.25 1384.99,-78.15"/>
<polygon fill="midnightblue" stroke="midnightblue" points="1973.61,-174.36 1982.97,-179.31 1978.74,-169.6 1973.61,-174.36"/>
</g>
<!-- Node22&#45;&gt;Node5 -->
<g id="edge50" class="edge">
<title>Node22&#45;&gt;Node5</title>
<path fill="none" stroke="midnightblue" d="M1972,-172.81C1938.37,-146.04 1863.69,-91.01 1790.41,-67 1696.7,-36.3 1403.88,-22.73 1280.79,-18.27"/>
<polygon fill="midnightblue" stroke="midnightblue" points="1970.02,-175.72 1980,-179.27 1974.42,-170.27 1970.02,-175.72"/>
</g>
<!-- Node22&#45;&gt;Node7 -->
<g id="edge51" class="edge">
<title>Node22&#45;&gt;Node7</title>
<path fill="none" stroke="midnightblue" d="M1938.04,-177.41C1887.58,-167.2 1812.21,-151.96 1765.52,-142.52"/>
<polygon fill="midnightblue" stroke="midnightblue" points="1937.61,-180.89 1948.1,-179.44 1938.99,-174.03 1937.61,-180.89"/>
</g>
<!-- Node23&#45;&gt;Node3 -->
<g id="edge53" class="edge">
<title>Node23&#45;&gt;Node3</title>
<path fill="none" stroke="midnightblue" d="M1507.46,-177.26C1549.1,-167.42 1592.14,-150.19 1569.41,-123 1546.32,-95.38 1451.01,-84.69 1384.98,-80.57"/>
<polygon fill="midnightblue" stroke="midnightblue" points="1506.5,-173.89 1497.51,-179.48 1508.03,-180.72 1506.5,-173.89"/>
</g>
<!-- Node23&#45;&gt;Node5 -->
<g id="edge56" class="edge">
<title>Node23&#45;&gt;Node5</title>
<path fill="none" stroke="midnightblue" d="M1512.67,-180.23C1560.36,-171.88 1611.51,-155.21 1587.41,-123 1550.52,-73.69 1372.58,-39.37 1280.65,-24.61"/>
<polygon fill="midnightblue" stroke="midnightblue" points="1511.88,-176.81 1502.58,-181.88 1513.01,-183.72 1511.88,-176.81"/>
</g>
<!-- Node23&#45;&gt;Node6 -->
<g id="edge54" class="edge">
<title>Node23&#45;&gt;Node6</title>
<path fill="none" stroke="midnightblue" d="M1376.22,-181.89C1363.97,-180.87 1351.31,-179.86 1339.41,-179 1069.86,-159.46 1001.97,-162.33 732.41,-143 717.25,-141.91 700.9,-140.61 685.65,-139.33"/>
<polygon fill="midnightblue" stroke="midnightblue" points="1376.13,-185.4 1386.39,-182.75 1376.72,-178.42 1376.13,-185.4"/>
</g>
<!-- Node23&#45;&gt;Node7 -->
<g id="edge57" class="edge">
<title>Node23&#45;&gt;Node7</title>
<path fill="none" stroke="midnightblue" d="M1498.47,-177.54C1551.19,-167.33 1630.41,-152 1679.41,-142.52"/>
<polygon fill="midnightblue" stroke="midnightblue" points="1497.77,-174.11 1488.62,-179.44 1499.1,-180.98 1497.77,-174.11"/>
</g>
<!-- Node23&#45;&gt;Node14 -->
<g id="edge55" class="edge">
<title>Node23&#45;&gt;Node14</title>
<path fill="none" stroke="midnightblue" d="M1421.69,-173.9C1405.74,-164 1384.91,-151.07 1371.35,-142.65"/>
<polygon fill="midnightblue" stroke="midnightblue" points="1420.09,-177.02 1430.43,-179.32 1423.78,-171.08 1420.09,-177.02"/>
</g>
<!-- Node23&#45;&gt;Node16 -->
<g id="edge58" class="edge">
<title>Node23&#45;&gt;Node16</title>
<path fill="none" stroke="midnightblue" d="M1387.6,-177.6C1331.85,-167.4 1247.84,-152.02 1195.93,-142.52"/>
<polygon fill="midnightblue" stroke="midnightblue" points="1387.2,-181.09 1397.66,-179.44 1388.46,-174.2 1387.2,-181.09"/>
</g>
<!-- Node24&#45;&gt;Node3 -->
<g id="edge60" class="edge">
<title>Node24&#45;&gt;Node3</title>
<path fill="none" stroke="midnightblue" d="M1802.94,-171.96C1816.32,-157.8 1830.44,-137.26 1817.41,-123 1788.82,-91.72 1514.15,-81.98 1385.4,-79.11"/>
<polygon fill="midnightblue" stroke="midnightblue" points="1800.39,-169.55 1795.75,-179.08 1805.32,-174.52 1800.39,-169.55"/>
</g>
<!-- Node24&#45;&gt;Node5 -->
<g id="edge61" class="edge">
<title>Node24&#45;&gt;Node5</title>
<path fill="none" stroke="midnightblue" d="M1808.84,-173.38C1825.9,-160.76 1844.4,-141.67 1834.41,-123 1813.24,-83.44 1792.68,-82.05 1750.41,-67 1664.9,-36.56 1396.98,-22.98 1280.45,-18.4"/>
<polygon fill="midnightblue" stroke="midnightblue" points="1806.44,-170.78 1800.21,-179.35 1810.43,-176.54 1806.44,-170.78"/>
</g>
<!-- Node24&#45;&gt;Node17 -->
<g id="edge62" class="edge">
<title>Node24&#45;&gt;Node17</title>
<path fill="none" stroke="midnightblue" d="M1730.38,-177.54C1676.71,-167.33 1596.07,-152 1546.2,-142.52"/>
<polygon fill="midnightblue" stroke="midnightblue" points="1729.93,-181.01 1740.41,-179.44 1731.24,-174.14 1729.93,-181.01"/>
</g>
<!-- Node25&#45;&gt;Node4 -->
<g id="edge64" class="edge">
<title>Node25&#45;&gt;Node4</title>
<path fill="none" stroke="midnightblue" d="M2080.38,-225.54C2084.76,-211.01 2087.15,-192.7 2078.41,-179 2014.61,-79.04 1871.72,-39.63 1789.6,-24.82"/>
<polygon fill="midnightblue" stroke="midnightblue" points="2076.96,-224.73 2076.98,-235.33 2083.57,-227.03 2076.96,-224.73"/>
</g>
</g>
</svg>
