<?xml version="1.0" encoding="UTF-8" standalone="no"?>
<!DOCTYPE svg PUBLIC "-//W3C//DTD SVG 1.1//EN"
 "http://www.w3.org/Graphics/SVG/1.1/DTD/svg11.dtd">
<!-- Generated by graphviz version 2.43.0 (0)
 -->
<!-- Title: QPALM/include/util.h Pages: 1 -->
<svg width="769pt" height="151pt"
 viewBox="0.00 0.00 768.50 151.00" xmlns="http://www.w3.org/2000/svg" xmlns:xlink="http://www.w3.org/1999/xlink">
<g id="graph0" class="graph" transform="scale(1 1) rotate(0) translate(4 147)">
<title>QPALM/include/util.h</title>
<polygon fill="white" stroke="transparent" points="-4,4 -4,-147 764.5,-147 764.5,4 -4,4"/>
<!-- Node1 -->
<g id="node1" class="node">
<title>Node1</title>
<g id="a_node1"><a xlink:title="Utility functions.">
<polygon fill="#bfbfbf" stroke="black" points="297,-123.5 297,-142.5 413,-142.5 413,-123.5 297,-123.5"/>
<text text-anchor="middle" x="355" y="-130.5" font-family="Helvetica,sans-Serif" font-size="10.00">QPALM/include/util.h</text>
</a>
</g>
</g>
<!-- Node2 -->
<g id="node2" class="node">
<title>Node2</title>
<g id="a_node2"><a xlink:href="qpalm_8h.html" target="_top" xlink:title="QPALM main solver API.">
<polygon fill="white" stroke="black" points="35.5,-67.5 35.5,-86.5 166.5,-86.5 166.5,-67.5 35.5,-67.5"/>
<text text-anchor="middle" x="101" y="-74.5" font-family="Helvetica,sans-Serif" font-size="10.00">QPALM/include/qpalm.h</text>
</a>
</g>
</g>
<!-- Node1&#45;&gt;Node2 -->
<g id="edge1" class="edge">
<title>Node1&#45;&gt;Node2</title>
<path fill="none" stroke="midnightblue" d="M304.88,-121.35C256.88,-111.14 185.38,-95.94 141.06,-86.52"/>
<polygon fill="midnightblue" stroke="midnightblue" points="304.24,-124.79 314.75,-123.44 305.7,-117.94 304.24,-124.79"/>
</g>
<!-- Node4 -->
<g id="node4" class="node">
<title>Node4</title>
<g id="a_node4"><a xlink:href="qpalm_8c.html" target="_top" xlink:title="QPALM main solver API.">
<polygon fill="white" stroke="black" points="140,-6 140,-25 250,-25 250,-6 140,-6"/>
<text text-anchor="middle" x="195" y="-13" font-family="Helvetica,sans-Serif" font-size="10.00">QPALM/src/qpalm.c</text>
</a>
</g>
</g>
<!-- Node1&#45;&gt;Node4 -->
<g id="edge6" class="edge">
<title>Node1&#45;&gt;Node4</title>
<path fill="none" stroke="midnightblue" d="M287.14,-124.34C261.12,-118.16 233.12,-107.02 214,-87 197.54,-69.77 195.01,-39.82 194.83,-25.13"/>
<polygon fill="midnightblue" stroke="midnightblue" points="286.48,-127.78 296.99,-126.48 287.96,-120.94 286.48,-127.78"/>
</g>
<!-- Node5 -->
<g id="node5" class="node">
<title>Node5</title>
<g id="a_node5"><a xlink:href="iteration_8c.html" target="_top" xlink:title="QPALM main solver routines.">
<polygon fill="white" stroke="black" points="223,-67.5 223,-86.5 343,-86.5 343,-67.5 223,-67.5"/>
<text text-anchor="middle" x="283" y="-74.5" font-family="Helvetica,sans-Serif" font-size="10.00">QPALM/src/iteration.c</text>
</a>
</g>
</g>
<!-- Node1&#45;&gt;Node5 -->
<g id="edge4" class="edge">
<title>Node1&#45;&gt;Node5</title>
<path fill="none" stroke="midnightblue" d="M335.13,-117.1C322.18,-107.38 305.7,-95.03 294.78,-86.83"/>
<polygon fill="midnightblue" stroke="midnightblue" points="333.33,-120.12 343.43,-123.32 337.53,-114.52 333.33,-120.12"/>
</g>
<!-- Node6 -->
<g id="node6" class="node">
<title>Node6</title>
<g id="a_node6"><a xlink:href="nonconvex_8c.html" target="_top" xlink:title="Routines to deal with nonconvex QPs.">
<polygon fill="white" stroke="black" points="361,-67.5 361,-86.5 493,-86.5 493,-67.5 361,-67.5"/>
<text text-anchor="middle" x="427" y="-74.5" font-family="Helvetica,sans-Serif" font-size="10.00">QPALM/src/nonconvex.c</text>
</a>
</g>
</g>
<!-- Node1&#45;&gt;Node6 -->
<g id="edge5" class="edge">
<title>Node1&#45;&gt;Node6</title>
<path fill="none" stroke="midnightblue" d="M374.87,-117.1C387.82,-107.38 404.3,-95.03 415.22,-86.83"/>
<polygon fill="midnightblue" stroke="midnightblue" points="372.47,-114.52 366.57,-123.32 376.67,-120.12 372.47,-114.52"/>
</g>
<!-- Node7 -->
<g id="node7" class="node">
<title>Node7</title>
<g id="a_node7"><a xlink:href="termination_8c.html" target="_top" xlink:title="Routines to check the termination and infeasibility criteria.">
<polygon fill="white" stroke="black" points="511,-67.5 511,-86.5 647,-86.5 647,-67.5 511,-67.5"/>
<text text-anchor="middle" x="579" y="-74.5" font-family="Helvetica,sans-Serif" font-size="10.00">QPALM/src/termination.c</text>
</a>
</g>
</g>
<!-- Node1&#45;&gt;Node7 -->
<g id="edge7" class="edge">
<title>Node1&#45;&gt;Node7</title>
<path fill="none" stroke="midnightblue" d="M400.26,-121.09C442.58,-110.89 504.91,-95.86 543.67,-86.52"/>
<polygon fill="midnightblue" stroke="midnightblue" points="399.39,-117.7 390.49,-123.44 401.04,-124.5 399.39,-117.7"/>
</g>
<!-- Node8 -->
<g id="node8" class="node">
<title>Node8</title>
<g id="a_node8"><a xlink:href="util_8c.html" target="_top" xlink:title="Utility functions.">
<polygon fill="white" stroke="black" points="665.5,-67.5 665.5,-86.5 760.5,-86.5 760.5,-67.5 665.5,-67.5"/>
<text text-anchor="middle" x="713" y="-74.5" font-family="Helvetica,sans-Serif" font-size="10.00">QPALM/src/util.c</text>
</a>
</g>
</g>
<!-- Node1&#45;&gt;Node8 -->
<g id="edge8" class="edge">
<title>Node1&#45;&gt;Node8</title>
<path fill="none" stroke="midnightblue" d="M422.9,-122.01C483.92,-113 575.98,-99.3 656,-87 659.07,-86.53 662.23,-86.04 665.42,-85.54"/>
<polygon fill="midnightblue" stroke="midnightblue" points="422.39,-118.55 413.01,-123.47 423.41,-125.47 422.39,-118.55"/>
</g>
<!-- Node3 -->
<g id="node3" class="node">
<title>Node3</title>
<g id="a_node3"><a xlink:href="qpalm_8cpp.html" target="_top" xlink:title=" ">
<polygon fill="white" stroke="black" points="0,-0.5 0,-30.5 122,-30.5 122,-0.5 0,-0.5"/>
<text text-anchor="start" x="8" y="-18.5" font-family="Helvetica,sans-Serif" font-size="10.00">QPALM/interfaces/cxx</text>
<text text-anchor="middle" x="61" y="-7.5" font-family="Helvetica,sans-Serif" font-size="10.00">/src/qpalm.cpp</text>
</a>
</g>
</g>
<!-- Node2&#45;&gt;Node3 -->
<g id="edge2" class="edge">
<title>Node2&#45;&gt;Node3</title>
<path fill="none" stroke="midnightblue" d="M89.55,-58.96C83.49,-49.96 76.15,-39.03 70.43,-30.52"/>
<polygon fill="midnightblue" stroke="midnightblue" points="86.79,-61.13 95.27,-67.48 92.59,-57.22 86.79,-61.13"/>
</g>
<!-- Node2&#45;&gt;Node4 -->
<g id="edge3" class="edge">
<title>Node2&#45;&gt;Node4</title>
<path fill="none" stroke="midnightblue" d="M123.23,-61.93C141.35,-50.46 166.35,-34.63 181.56,-25.01"/>
<polygon fill="midnightblue" stroke="midnightblue" points="121.05,-59.17 114.47,-67.48 124.79,-65.08 121.05,-59.17"/>
</g>
</g>
</svg>
