<?xml version="1.0" encoding="UTF-8" standalone="no"?>
<!DOCTYPE svg PUBLIC "-//W3C//DTD SVG 1.1//EN"
 "http://www.w3.org/Graphics/SVG/1.1/DTD/svg11.dtd">
<!-- Generated by graphviz version 2.43.0 (0)
 -->
<!-- Title: qpalm_toc Pages: 1 -->
<svg width="428pt" height="241pt"
 viewBox="0.00 0.00 428.00 240.50" xmlns="http://www.w3.org/2000/svg" xmlns:xlink="http://www.w3.org/1999/xlink">
<g id="graph0" class="graph" transform="scale(1 1) rotate(0) translate(4 236.5)">
<title>qpalm_toc</title>
<polygon fill="white" stroke="transparent" points="-4,4 -4,-236.5 424,-236.5 424,4 -4,4"/>
<!-- Node1 -->
<g id="node1" class="node">
<title>Node1</title>
<g id="a_node1"><a xlink:title="Report time in seconds since last call to qpalm_tic.">
<polygon fill="#bfbfbf" stroke="black" points="352,-118 352,-137 420,-137 420,-118 352,-118"/>
<text text-anchor="middle" x="386" y="-125" font-family="Helvetica,sans-Serif" font-size="10.00">qpalm_toc</text>
</a>
</g>
</g>
<!-- Node2 -->
<g id="node2" class="node">
<title>Node2</title>
<g id="a_node2"><a xlink:href="group__solver-grp.html#gaaff827465b1299909f394de8771baef9" target="_top" xlink:title="Initialize QPALM solver allocating memory.">
<polygon fill="white" stroke="black" points="210.5,-213 210.5,-232 290.5,-232 290.5,-213 210.5,-213"/>
<text text-anchor="middle" x="250.5" y="-220" font-family="Helvetica,sans-Serif" font-size="10.00">qpalm_setup</text>
</a>
</g>
</g>
<!-- Node1&#45;&gt;Node2 -->
<g id="edge1" class="edge">
<title>Node1&#45;&gt;Node2</title>
<path fill="none" stroke="midnightblue" d="M372.84,-145.88C360.49,-163.17 339.82,-188.56 316,-203.5 308.38,-208.28 299.51,-211.9 290.83,-214.63"/>
<polygon fill="midnightblue" stroke="midnightblue" points="376.02,-147.45 378.82,-137.23 370.26,-143.47 376.02,-147.45"/>
</g>
<!-- Node3 -->
<g id="node3" class="node">
<title>Node3</title>
<g id="a_node3"><a xlink:href="group__solver-grp.html#ga385f399d0fb6afaaa0da5f3a114bf922" target="_top" xlink:title="Update the lower and upper bounds.">
<polygon fill="white" stroke="black" points="187,-175 187,-194 314,-194 314,-175 187,-175"/>
<text text-anchor="middle" x="250.5" y="-182" font-family="Helvetica,sans-Serif" font-size="10.00">qpalm_update_bounds</text>
</a>
</g>
</g>
<!-- Node1&#45;&gt;Node3 -->
<g id="edge2" class="edge">
<title>Node1&#45;&gt;Node3</title>
<path fill="none" stroke="midnightblue" d="M361.09,-142.35C348.09,-149.99 331.54,-159.02 316,-165.5 307.49,-169.05 298.09,-172.22 289.16,-174.9"/>
<polygon fill="midnightblue" stroke="midnightblue" points="363.08,-145.24 369.86,-137.09 359.48,-139.23 363.08,-145.24"/>
</g>
<!-- Node5 -->
<g id="node5" class="node">
<title>Node5</title>
<g id="a_node5"><a xlink:href="group__solver-grp.html#gadc1a41812270a2a9539558e7eec403fe" target="_top" xlink:title="Update the linear part of the cost.">
<polygon fill="white" stroke="black" points="201.5,-137 201.5,-156 299.5,-156 299.5,-137 201.5,-137"/>
<text text-anchor="middle" x="250.5" y="-144" font-family="Helvetica,sans-Serif" font-size="10.00">qpalm_update_q</text>
</a>
</g>
</g>
<!-- Node1&#45;&gt;Node5 -->
<g id="edge4" class="edge">
<title>Node1&#45;&gt;Node5</title>
<path fill="none" stroke="midnightblue" d="M342.02,-133.62C328.54,-135.54 313.57,-137.67 299.75,-139.63"/>
<polygon fill="midnightblue" stroke="midnightblue" points="342.59,-137.07 352,-132.2 341.61,-130.14 342.59,-137.07"/>
</g>
<!-- Node7 -->
<g id="node7" class="node">
<title>Node7</title>
<g id="a_node7"><a xlink:href="group__solver-grp.html#ga327c43b0d2f129fc32e8ef2a47e289af" target="_top" xlink:title="Update the matrix entries of Q and A.">
<polygon fill="white" stroke="black" points="195,-99 195,-118 306,-118 306,-99 195,-99"/>
<text text-anchor="middle" x="250.5" y="-106" font-family="Helvetica,sans-Serif" font-size="10.00">qpalm_update_Q_A</text>
</a>
</g>
</g>
<!-- Node1&#45;&gt;Node7 -->
<g id="edge6" class="edge">
<title>Node1&#45;&gt;Node7</title>
<path fill="none" stroke="midnightblue" d="M341.9,-121.37C330.52,-119.75 318.1,-117.98 306.2,-116.28"/>
<polygon fill="midnightblue" stroke="midnightblue" points="341.61,-124.86 352,-122.8 342.59,-117.93 341.61,-124.86"/>
</g>
<!-- Node9 -->
<g id="node9" class="node">
<title>Node9</title>
<g id="a_node9"><a xlink:href="group__solver-grp.html#ga581cf986cb484ec5721f76b025eda704" target="_top" xlink:title="Update the settings to the new settings.">
<polygon fill="white" stroke="black" points="185,-58 185,-77 316,-77 316,-58 185,-58"/>
<text text-anchor="middle" x="250.5" y="-65" font-family="Helvetica,sans-Serif" font-size="10.00">qpalm_update_settings</text>
</a>
</g>
</g>
<!-- Node1&#45;&gt;Node9 -->
<g id="edge8" class="edge">
<title>Node1&#45;&gt;Node9</title>
<path fill="none" stroke="midnightblue" d="M360.72,-112.77C347.73,-105.24 331.3,-96.26 316,-89.5 305.5,-84.86 293.7,-80.58 283.09,-77.05"/>
<polygon fill="midnightblue" stroke="midnightblue" points="359.11,-115.88 369.5,-117.94 362.66,-109.85 359.11,-115.88"/>
</g>
<!-- Node11 -->
<g id="node11" class="node">
<title>Node11</title>
<g id="a_node11"><a xlink:href="group__solver-grp.html#ga28824f01d01f181a6ad6b413f30a2609" target="_top" xlink:title="Warm start workspace variables x, x_0, x_prev, Ax, Qx, y and sigma.">
<polygon fill="white" stroke="black" points="196.5,-15 196.5,-34 304.5,-34 304.5,-15 196.5,-15"/>
<text text-anchor="middle" x="250.5" y="-22" font-family="Helvetica,sans-Serif" font-size="10.00">qpalm_warm_start</text>
</a>
</g>
</g>
<!-- Node1&#45;&gt;Node11 -->
<g id="edge10" class="edge">
<title>Node1&#45;&gt;Node11</title>
<path fill="none" stroke="midnightblue" d="M373.3,-109.52C360.96,-91.81 339.99,-65.07 316,-48.5 307.25,-42.46 296.79,-37.71 286.86,-34.1"/>
<polygon fill="midnightblue" stroke="midnightblue" points="370.44,-111.54 378.94,-117.86 376.24,-107.61 370.44,-111.54"/>
</g>
<!-- Node4 -->
<g id="node4" class="node">
<title>Node4</title>
<g id="a_node4"><a xlink:href="classqpalm_1_1Solver.html#a6df33bfd68c5b8caaaa6f726f1a9f517" target="_top" xlink:title=" ">
<polygon fill="white" stroke="black" points="12.5,-175.5 12.5,-205.5 136.5,-205.5 136.5,-175.5 12.5,-175.5"/>
<text text-anchor="start" x="20.5" y="-193.5" font-family="Helvetica,sans-Serif" font-size="10.00">qpalm::Solver::update</text>
<text text-anchor="middle" x="74.5" y="-182.5" font-family="Helvetica,sans-Serif" font-size="10.00">_bounds</text>
</a>
</g>
</g>
<!-- Node3&#45;&gt;Node4 -->
<g id="edge3" class="edge">
<title>Node3&#45;&gt;Node4</title>
<path fill="none" stroke="midnightblue" d="M176.65,-187.01C163.38,-187.47 149.66,-187.94 136.77,-188.39"/>
<polygon fill="midnightblue" stroke="midnightblue" points="176.81,-190.51 186.68,-186.67 176.57,-183.51 176.81,-190.51"/>
</g>
<!-- Node6 -->
<g id="node6" class="node">
<title>Node6</title>
<g id="a_node6"><a xlink:href="classqpalm_1_1Solver.html#a43cbe4e495be0898c733d9589531e63c" target="_top" xlink:title=" ">
<polygon fill="white" stroke="black" points="7,-137 7,-156 142,-156 142,-137 7,-137"/>
<text text-anchor="middle" x="74.5" y="-144" font-family="Helvetica,sans-Serif" font-size="10.00">qpalm::Solver::update_q</text>
</a>
</g>
</g>
<!-- Node5&#45;&gt;Node6 -->
<g id="edge5" class="edge">
<title>Node5&#45;&gt;Node6</title>
<path fill="none" stroke="midnightblue" d="M191.37,-146.5C175.61,-146.5 158.43,-146.5 142.23,-146.5"/>
<polygon fill="midnightblue" stroke="midnightblue" points="191.49,-150 201.49,-146.5 191.49,-143 191.49,-150"/>
</g>
<!-- Node8 -->
<g id="node8" class="node">
<title>Node8</title>
<g id="a_node8"><a xlink:href="classqpalm_1_1Solver.html#a11e9742322ad77345b32d806b8b3b81c" target="_top" xlink:title=" ">
<polygon fill="white" stroke="black" points="0,-99 0,-118 149,-118 149,-99 0,-99"/>
<text text-anchor="middle" x="74.5" y="-106" font-family="Helvetica,sans-Serif" font-size="10.00">qpalm::Solver::update_Q_A</text>
</a>
</g>
</g>
<!-- Node7&#45;&gt;Node8 -->
<g id="edge7" class="edge">
<title>Node7&#45;&gt;Node8</title>
<path fill="none" stroke="midnightblue" d="M184.84,-108.5C173.17,-108.5 160.92,-108.5 149.02,-108.5"/>
<polygon fill="midnightblue" stroke="midnightblue" points="184.92,-112 194.92,-108.5 184.92,-105 184.92,-112"/>
</g>
<!-- Node10 -->
<g id="node10" class="node">
<title>Node10</title>
<g id="a_node10"><a xlink:href="classqpalm_1_1Solver.html#a895c0635d6fdd0a3026894697ea6903b" target="_top" xlink:title=" ">
<polygon fill="white" stroke="black" points="12.5,-49.5 12.5,-79.5 136.5,-79.5 136.5,-49.5 12.5,-49.5"/>
<text text-anchor="start" x="20.5" y="-67.5" font-family="Helvetica,sans-Serif" font-size="10.00">qpalm::Solver::update</text>
<text text-anchor="middle" x="74.5" y="-56.5" font-family="Helvetica,sans-Serif" font-size="10.00">_settings</text>
</a>
</g>
</g>
<!-- Node9&#45;&gt;Node10 -->
<g id="edge9" class="edge">
<title>Node9&#45;&gt;Node10</title>
<path fill="none" stroke="midnightblue" d="M174.62,-66.21C161.93,-65.99 148.88,-65.77 136.6,-65.55"/>
<polygon fill="midnightblue" stroke="midnightblue" points="174.65,-69.71 184.71,-66.38 174.77,-62.71 174.65,-69.71"/>
</g>
<!-- Node12 -->
<g id="node12" class="node">
<title>Node12</title>
<g id="a_node12"><a xlink:href="classqpalm_1_1Solver.html#a693af99e39a9035bbbc4fb61fcb427d1" target="_top" xlink:title=" ">
<polygon fill="white" stroke="black" points="15.5,-0.5 15.5,-30.5 133.5,-30.5 133.5,-0.5 15.5,-0.5"/>
<text text-anchor="start" x="23.5" y="-18.5" font-family="Helvetica,sans-Serif" font-size="10.00">qpalm::Solver::warm</text>
<text text-anchor="middle" x="74.5" y="-7.5" font-family="Helvetica,sans-Serif" font-size="10.00">_start</text>
</a>
</g>
</g>
<!-- Node11&#45;&gt;Node12 -->
<g id="edge11" class="edge">
<title>Node11&#45;&gt;Node12</title>
<path fill="none" stroke="midnightblue" d="M185.93,-21.21C168.88,-20.33 150.53,-19.38 133.78,-18.51"/>
<polygon fill="midnightblue" stroke="midnightblue" points="186.18,-24.73 196.35,-21.75 186.54,-17.74 186.18,-24.73"/>
</g>
</g>
</svg>
