<?xml version="1.0" encoding="UTF-8" standalone="no"?>
<!DOCTYPE svg PUBLIC "-//W3C//DTD SVG 1.1//EN"
 "http://www.w3.org/Graphics/SVG/1.1/DTD/svg11.dtd">
<!-- Generated by graphviz version 2.43.0 (0)
 -->
<!-- Title: update_status Pages: 1 -->
<svg width="421pt" height="118pt"
 viewBox="0.00 0.00 421.00 117.50" xmlns="http://www.w3.org/2000/svg" xmlns:xlink="http://www.w3.org/1999/xlink">
<g id="graph0" class="graph" transform="scale(1 1) rotate(0) translate(4 113.5)">
<title>update_status</title>
<polygon fill="white" stroke="transparent" points="-4,4 -4,-113.5 417,-113.5 417,4 -4,4"/>
<!-- Node1 -->
<g id="node1" class="node">
<title>Node1</title>
<g id="a_node1"><a xlink:title="Update solver status (value and string).">
<polygon fill="#bfbfbf" stroke="black" points="327,-52 327,-71 413,-71 413,-52 327,-52"/>
<text text-anchor="middle" x="370" y="-59" font-family="Helvetica,sans-Serif" font-size="10.00">update_status</text>
</a>
</g>
</g>
<!-- Node2 -->
<g id="node2" class="node">
<title>Node2</title>
<g id="a_node2"><a xlink:href="group__solver-grp.html#gaaff827465b1299909f394de8771baef9" target="_top" xlink:title="Initialize QPALM solver allocating memory.">
<polygon fill="white" stroke="black" points="185.5,-90 185.5,-109 265.5,-109 265.5,-90 185.5,-90"/>
<text text-anchor="middle" x="225.5" y="-97" font-family="Helvetica,sans-Serif" font-size="10.00">qpalm_setup</text>
</a>
</g>
</g>
<!-- Node1&#45;&gt;Node2 -->
<g id="edge1" class="edge">
<title>Node1&#45;&gt;Node2</title>
<path fill="none" stroke="midnightblue" d="M323.35,-73.67C303.64,-78.93 280.93,-84.99 262.45,-89.91"/>
<polygon fill="midnightblue" stroke="midnightblue" points="324.28,-77.05 333.04,-71.09 322.48,-70.28 324.28,-77.05"/>
</g>
<!-- Node3 -->
<g id="node3" class="node">
<title>Node3</title>
<g id="a_node3"><a xlink:href="group__solver-grp.html#ga385f399d0fb6afaaa0da5f3a114bf922" target="_top" xlink:title="Update the lower and upper bounds.">
<polygon fill="white" stroke="black" points="162,-52 162,-71 289,-71 289,-52 162,-52"/>
<text text-anchor="middle" x="225.5" y="-59" font-family="Helvetica,sans-Serif" font-size="10.00">qpalm_update_bounds</text>
</a>
</g>
</g>
<!-- Node1&#45;&gt;Node3 -->
<g id="edge2" class="edge">
<title>Node1&#45;&gt;Node3</title>
<path fill="none" stroke="midnightblue" d="M316.4,-61.5C307.48,-61.5 298.15,-61.5 289.02,-61.5"/>
<polygon fill="midnightblue" stroke="midnightblue" points="316.63,-65 326.63,-61.5 316.63,-58 316.63,-65"/>
</g>
<!-- Node5 -->
<g id="node5" class="node">
<title>Node5</title>
<g id="a_node5"><a xlink:href="group__solver-grp.html#ga581cf986cb484ec5721f76b025eda704" target="_top" xlink:title="Update the settings to the new settings.">
<polygon fill="white" stroke="black" points="160,-11 160,-30 291,-30 291,-11 160,-11"/>
<text text-anchor="middle" x="225.5" y="-18" font-family="Helvetica,sans-Serif" font-size="10.00">qpalm_update_settings</text>
</a>
</g>
</g>
<!-- Node1&#45;&gt;Node5 -->
<g id="edge4" class="edge">
<title>Node1&#45;&gt;Node5</title>
<path fill="none" stroke="midnightblue" d="M326.19,-49.18C304.94,-43.07 279.66,-35.79 259.86,-30.1"/>
<polygon fill="midnightblue" stroke="midnightblue" points="325.37,-52.59 335.95,-51.99 327.31,-45.86 325.37,-52.59"/>
</g>
<!-- Node4 -->
<g id="node4" class="node">
<title>Node4</title>
<g id="a_node4"><a xlink:href="classqpalm_1_1Solver.html#a6df33bfd68c5b8caaaa6f726f1a9f517" target="_top" xlink:title=" ">
<polygon fill="white" stroke="black" points="0,-49.5 0,-79.5 124,-79.5 124,-49.5 0,-49.5"/>
<text text-anchor="start" x="8" y="-67.5" font-family="Helvetica,sans-Serif" font-size="10.00">qpalm::Solver::update</text>
<text text-anchor="middle" x="62" y="-56.5" font-family="Helvetica,sans-Serif" font-size="10.00">_bounds</text>
</a>
</g>
</g>
<!-- Node3&#45;&gt;Node4 -->
<g id="edge3" class="edge">
<title>Node3&#45;&gt;Node4</title>
<path fill="none" stroke="midnightblue" d="M151.39,-62.86C142.28,-63.03 133.04,-63.2 124.14,-63.36"/>
<polygon fill="midnightblue" stroke="midnightblue" points="151.66,-66.35 161.6,-62.67 151.53,-59.35 151.66,-66.35"/>
</g>
<!-- Node6 -->
<g id="node6" class="node">
<title>Node6</title>
<g id="a_node6"><a xlink:href="classqpalm_1_1Solver.html#a895c0635d6fdd0a3026894697ea6903b" target="_top" xlink:title=" ">
<polygon fill="white" stroke="black" points="0,-0.5 0,-30.5 124,-30.5 124,-0.5 0,-0.5"/>
<text text-anchor="start" x="8" y="-18.5" font-family="Helvetica,sans-Serif" font-size="10.00">qpalm::Solver::update</text>
<text text-anchor="middle" x="62" y="-7.5" font-family="Helvetica,sans-Serif" font-size="10.00">_settings</text>
</a>
</g>
</g>
<!-- Node5&#45;&gt;Node6 -->
<g id="edge5" class="edge">
<title>Node5&#45;&gt;Node6</title>
<path fill="none" stroke="midnightblue" d="M149.73,-18.19C141.15,-17.92 132.48,-17.65 124.1,-17.39"/>
<polygon fill="midnightblue" stroke="midnightblue" points="149.64,-21.68 159.74,-18.5 149.86,-14.69 149.64,-21.68"/>
</g>
</g>
</svg>
