<?xml version="1.0" encoding="UTF-8" standalone="no"?>
<!DOCTYPE svg PUBLIC "-//W3C//DTD SVG 1.1//EN"
 "http://www.w3.org/Graphics/SVG/1.1/DTD/svg11.dtd">
<!-- Generated by graphviz version 2.43.0 (0)
 -->
<!-- Title: copy_settings Pages: 1 -->
<svg width="419pt" height="72pt"
 viewBox="0.00 0.00 419.00 71.50" xmlns="http://www.w3.org/2000/svg" xmlns:xlink="http://www.w3.org/1999/xlink">
<g id="graph0" class="graph" transform="scale(1 1) rotate(0) translate(4 67.5)">
<title>copy_settings</title>
<polygon fill="white" stroke="transparent" points="-4,4 -4,-67.5 415,-67.5 415,4 -4,4"/>
<!-- Node1 -->
<g id="node1" class="node">
<title>Node1</title>
<g id="a_node1"><a xlink:title="Copy settings creating a new settings structure.">
<polygon fill="#bfbfbf" stroke="black" points="327,-25 327,-44 411,-44 411,-25 327,-25"/>
<text text-anchor="middle" x="369" y="-32" font-family="Helvetica,sans-Serif" font-size="10.00">copy_settings</text>
</a>
</g>
</g>
<!-- Node2 -->
<g id="node2" class="node">
<title>Node2</title>
<g id="a_node2"><a xlink:href="group__solver-grp.html#gaaff827465b1299909f394de8771baef9" target="_top" xlink:title="Initialize QPALM solver allocating memory.">
<polygon fill="white" stroke="black" points="185.5,-44 185.5,-63 265.5,-63 265.5,-44 185.5,-44"/>
<text text-anchor="middle" x="225.5" y="-51" font-family="Helvetica,sans-Serif" font-size="10.00">qpalm_setup</text>
</a>
</g>
</g>
<!-- Node1&#45;&gt;Node2 -->
<g id="edge1" class="edge">
<title>Node1&#45;&gt;Node2</title>
<path fill="none" stroke="midnightblue" d="M316.49,-41.42C299.72,-43.67 281.39,-46.13 265.67,-48.24"/>
<polygon fill="midnightblue" stroke="midnightblue" points="317.25,-44.85 326.69,-40.05 316.32,-37.91 317.25,-44.85"/>
</g>
<!-- Node3 -->
<g id="node3" class="node">
<title>Node3</title>
<g id="a_node3"><a xlink:href="group__solver-grp.html#ga581cf986cb484ec5721f76b025eda704" target="_top" xlink:title="Update the settings to the new settings.">
<polygon fill="white" stroke="black" points="160,-6 160,-25 291,-25 291,-6 160,-6"/>
<text text-anchor="middle" x="225.5" y="-13" font-family="Helvetica,sans-Serif" font-size="10.00">qpalm_update_settings</text>
</a>
</g>
</g>
<!-- Node1&#45;&gt;Node3 -->
<g id="edge2" class="edge">
<title>Node1&#45;&gt;Node3</title>
<path fill="none" stroke="midnightblue" d="M316.74,-27.62C308.39,-26.5 299.64,-25.32 291.03,-24.16"/>
<polygon fill="midnightblue" stroke="midnightblue" points="316.32,-31.09 326.69,-28.95 317.25,-24.15 316.32,-31.09"/>
</g>
<!-- Node4 -->
<g id="node4" class="node">
<title>Node4</title>
<g id="a_node4"><a xlink:href="classqpalm_1_1Solver.html#a895c0635d6fdd0a3026894697ea6903b" target="_top" xlink:title=" ">
<polygon fill="white" stroke="black" points="0,-0.5 0,-30.5 124,-30.5 124,-0.5 0,-0.5"/>
<text text-anchor="start" x="8" y="-18.5" font-family="Helvetica,sans-Serif" font-size="10.00">qpalm::Solver::update</text>
<text text-anchor="middle" x="62" y="-7.5" font-family="Helvetica,sans-Serif" font-size="10.00">_settings</text>
</a>
</g>
</g>
<!-- Node3&#45;&gt;Node4 -->
<g id="edge3" class="edge">
<title>Node3&#45;&gt;Node4</title>
<path fill="none" stroke="midnightblue" d="M149.73,-15.5C141.15,-15.5 132.48,-15.5 124.1,-15.5"/>
<polygon fill="midnightblue" stroke="midnightblue" points="149.74,-19 159.74,-15.5 149.74,-12 149.74,-19"/>
</g>
</g>
</svg>
