<?xml version="1.0" encoding="UTF-8" standalone="no"?>
<!DOCTYPE svg PUBLIC "-//W3C//DTD SVG 1.1//EN"
 "http://www.w3.org/Graphics/SVG/1.1/DTD/svg11.dtd">
<!-- Generated by graphviz version 2.43.0 (0)
 -->
<!-- Title: QPALM/src/iteration.c Pages: 1 -->
<!--zoomable 302 -->

<svg id="main" version="1.1" xmlns="http://www.w3.org/2000/svg" xmlns:xlink="http://www.w3.org/1999/xlink" xml:space="preserve" onload="init(evt)">
<style type="text/css"><![CDATA[
.node, .edge {opacity: 0.7;}
.node.selected, .edge.selected {opacity: 1;}
.edge:hover path { stroke: red; }
.edge:hover polygon { stroke: red; fill: red; }
]]></style>

<defs>
  <circle id="rim" cx="0" cy="0" r="7"/>
  <circle id="rim2" cx="0" cy="0" r="3.5"/>
  <g id="zoomPlus">
    <use xlink:href="#rim" fill="#404040"><set attributeName="fill" to="#808080" begin="zoomplus.mouseover" end="zoomplus.mouseout"/></use>
    <path d="M-4,0h8M0,-4v8" fill="none" stroke="white" stroke-width="1.5" pointer-events="none"/>
  </g>
  <g id="zoomMin">
    <use xlink:href="#rim" fill="#404040"><set attributeName="fill" to="#808080" begin="zoomminus.mouseover" end="zoomminus.mouseout"/></use>
    <path d="M-4,0h8" fill="none" stroke="white" stroke-width="1.5" pointer-events="none"/>
  </g>
  <g id="arrowUp" transform="translate(30 24)">
    <use xlink:href="#rim"/>
    <path pointer-events="none" fill="none" stroke="white" stroke-width="1.5" d="M0,-3.0v7 M-2.5,-0.5L0,-3.0L2.5,-0.5"/>
  </g>
  <g id="arrowRight" transform="rotate(90) translate(36 -43)">
    <use xlink:href="#rim"/>
    <path pointer-events="none" fill="none" stroke="white" stroke-width="1.5" d="M0,-3.0v7 M-2.5,-0.5L0,-3.0L2.5,-0.5"/>
  </g>
  <g id="arrowDown" transform="rotate(180) translate(-30 -48)">
    <use xlink:href="#rim"/>
    <path pointer-events="none" fill="none" stroke="white" stroke-width="1.5" d="M0,-3.0v7 M-2.5,-0.5L0,-3.0L2.5,-0.5"/>
  </g>
  <g id="arrowLeft" transform="rotate(270) translate(-36 17)">
    <use xlink:href="#rim"/>
    <path pointer-events="none" fill="none" stroke="white" stroke-width="1.5" d="M0,-3.0v7 M-2.5,-0.5L0,-3.0L2.5,-0.5"/>
  </g>
  <g id="resetDef">
    <use xlink:href="#rim2" fill="#404040"><set attributeName="fill" to="#808080" begin="reset.mouseover" end="reset.mouseout"/></use>
  </g>
</defs>
<script type="application/ecmascript">
var viewWidth = 630;
var viewHeight = 302;
var sectionId = 'dynsection-0';
</script>
<script type="application/ecmascript" xlink:href="svg.min.js"/>
<svg id="graph" class="graph">
<g id="viewport">
<title>QPALM/src/iteration.c</title>
<!-- Node1 -->
<g id="Node000001" class="node">
<title>Node1</title>
<g id="a_Node000001"><a xlink:title="QPALM main solver routines.">
<polygon fill="#999999" stroke="#666666" points="335,-294 215,-294 215,-275 335,-275 335,-294"/>
<text text-anchor="middle" x="275" y="-282" font-family="Helvetica,sans-Serif" font-size="10.00">QPALM/src/iteration.c</text>
</a>
</g>
</g>
<!-- Node2 -->
<g id="Node000002" class="node">
<title>Node2</title>
<g id="a_Node000002"><a xlink:href="iteration_8h.html" target="_top" xlink:title="QPALM main solver routines.">
<polygon fill="white" stroke="#666666" points="621.5,-184 520.5,-184 520.5,-165 621.5,-165 621.5,-184"/>
<text text-anchor="middle" x="571" y="-172" font-family="Helvetica,sans-Serif" font-size="10.00">qpalm/iteration.h</text>
</a>
</g>
</g>
<!-- Node1&#45;&gt;Node2 -->
<g id="edge1_Node000001_Node000002" class="edge">
<title>Node1&#45;&gt;Node2</title>
<g id="a_edge1_Node000001_Node000002"><a xlink:title=" ">
<path fill="none" stroke="#63b8ff" d="M335.14,-281.87C408.59,-278.59 526.89,-268.71 558,-239 569.82,-227.72 572.41,-208.81 572.44,-194.55"/>
<polygon fill="#63b8ff" stroke="#63b8ff" points="575.93,-194.21 572.05,-184.35 568.94,-194.48 575.93,-194.21"/>
</a>
</g>
</g>
<!-- Node6 -->
<g id="Node000006" class="node">
<title>Node6</title>
<g id="a_Node000006"><a xlink:title=" ">
<polygon fill="#e0e0e0" stroke="#999999" points="221,-19 171,-19 171,0 221,0 221,-19"/>
<text text-anchor="middle" x="196" y="-7" font-family="Helvetica,sans-Serif" font-size="10.00">ladel.h</text>
</a>
</g>
</g>
<!-- Node1&#45;&gt;Node6 -->
<g id="edge28_Node000001_Node000006" class="edge">
<title>Node1&#45;&gt;Node6</title>
<g id="a_edge28_Node000001_Node000006"><a xlink:title=" ">
<path fill="none" stroke="#63b8ff" d="M227.41,-274.96C148.7,-259.45 0,-223.78 0,-175.5 0,-175.5 0,-175.5 0,-118.5 0,-45.9 104.44,-21.74 160.84,-13.99"/>
<polygon fill="#63b8ff" stroke="#63b8ff" points="161.3,-17.46 170.78,-12.73 160.42,-10.52 161.3,-17.46"/>
</a>
</g>
</g>
<!-- Node8 -->
<g id="Node000008" class="node">
<title>Node8</title>
<g id="a_Node000008"><a xlink:href="lin__alg_8h.html" target="_top" xlink:title="Linear algebra with vectors.">
<polygon fill="white" stroke="#666666" points="228,-239 136,-239 136,-220 228,-220 228,-239"/>
<text text-anchor="middle" x="182" y="-227" font-family="Helvetica,sans-Serif" font-size="10.00">qpalm/lin_alg.h</text>
</a>
</g>
</g>
<!-- Node1&#45;&gt;Node8 -->
<g id="edge9_Node000001_Node000008" class="edge">
<title>Node1&#45;&gt;Node8</title>
<g id="a_edge9_Node000001_Node000008"><a xlink:title=" ">
<path fill="none" stroke="#63b8ff" d="M260.06,-274.98C245.5,-266.69 223.13,-253.94 206.07,-244.22"/>
<polygon fill="#63b8ff" stroke="#63b8ff" points="207.64,-241.08 197.21,-239.17 204.17,-247.16 207.64,-241.08"/>
</a>
</g>
</g>
<!-- Node9 -->
<g id="Node000009" class="node">
<title>Node9</title>
<g id="a_Node000009"><a xlink:href="solver__interface_8h.html" target="_top" xlink:title="Interface and wrapper to matrix/factorization (ladel) functions.">
<polygon fill="white" stroke="#666666" points="166,-184 28,-184 28,-165 166,-165 166,-184"/>
<text text-anchor="middle" x="97" y="-172" font-family="Helvetica,sans-Serif" font-size="10.00">qpalm/solver_interface.h</text>
</a>
</g>
</g>
<!-- Node1&#45;&gt;Node9 -->
<g id="edge17_Node000001_Node000009" class="edge">
<title>Node1&#45;&gt;Node9</title>
<g id="a_edge17_Node000001_Node000009"><a xlink:title=" ">
<path fill="none" stroke="#63b8ff" d="M214.73,-276.95C185.45,-271.1 151.4,-260.01 127,-239 113.45,-227.34 105.58,-208.2 101.33,-193.98"/>
<polygon fill="#63b8ff" stroke="#63b8ff" points="104.7,-193.04 98.75,-184.27 97.93,-194.83 104.7,-193.04"/>
</a>
</g>
</g>
<!-- Node11 -->
<g id="Node000011" class="node">
<title>Node11</title>
<g id="a_Node000011"><a xlink:href="newton_8h.html" target="_top" xlink:title="Functions to calculate the semismooth Newton direction.">
<polygon fill="white" stroke="#666666" points="417.5,-239 322.5,-239 322.5,-220 417.5,-220 417.5,-239"/>
<text text-anchor="middle" x="370" y="-227" font-family="Helvetica,sans-Serif" font-size="10.00">qpalm/newton.h</text>
</a>
</g>
</g>
<!-- Node1&#45;&gt;Node11 -->
<g id="edge18_Node000001_Node000011" class="edge">
<title>Node1&#45;&gt;Node11</title>
<g id="a_edge18_Node000001_Node000011"><a xlink:title=" ">
<path fill="none" stroke="#63b8ff" d="M290.26,-274.98C305.13,-266.69 327.98,-253.94 345.42,-244.22"/>
<polygon fill="#63b8ff" stroke="#63b8ff" points="347.43,-247.1 354.46,-239.17 344.02,-240.99 347.43,-247.1"/>
</a>
</g>
</g>
<!-- Node12 -->
<g id="Node000012" class="node">
<title>Node12</title>
<g id="a_Node000012"><a xlink:href="linesearch_8h.html" target="_top" xlink:title="Routines to perform exact linesearch.">
<polygon fill="white" stroke="#666666" points="332,-184 222,-184 222,-165 332,-165 332,-184"/>
<text text-anchor="middle" x="277" y="-172" font-family="Helvetica,sans-Serif" font-size="10.00">qpalm/linesearch.h</text>
</a>
</g>
</g>
<!-- Node1&#45;&gt;Node12 -->
<g id="edge20_Node000001_Node000012" class="edge">
<title>Node1&#45;&gt;Node12</title>
<g id="a_edge20_Node000001_Node000012"><a xlink:title=" ">
<path fill="none" stroke="#63b8ff" d="M275.16,-274.66C275.49,-257.17 276.22,-217.8 276.65,-194.27"/>
<polygon fill="#63b8ff" stroke="#63b8ff" points="280.15,-194.22 276.84,-184.16 273.16,-194.09 280.15,-194.22"/>
</a>
</g>
</g>
<!-- Node13 -->
<g id="Node000013" class="node">
<title>Node13</title>
<g id="a_Node000013"><a xlink:href="nonconvex_8h.html" target="_top" xlink:title="Routines to deal with nonconvex QPs.">
<polygon fill="white" stroke="#666666" points="548.5,-239 435.5,-239 435.5,-220 548.5,-220 548.5,-239"/>
<text text-anchor="middle" x="492" y="-227" font-family="Helvetica,sans-Serif" font-size="10.00">qpalm/nonconvex.h</text>
</a>
</g>
</g>
<!-- Node1&#45;&gt;Node13 -->
<g id="edge23_Node000001_Node000013" class="edge">
<title>Node1&#45;&gt;Node13</title>
<g id="a_edge23_Node000001_Node000013"><a xlink:title=" ">
<path fill="none" stroke="#63b8ff" d="M309.86,-274.98C347.09,-265.89 406.2,-251.46 446.93,-241.51"/>
<polygon fill="#63b8ff" stroke="#63b8ff" points="447.98,-244.85 456.86,-239.08 446.32,-238.05 447.98,-244.85"/>
</a>
</g>
</g>
<!-- Node14 -->
<g id="Node000014" class="node">
<title>Node14</title>
<g id="a_Node000014"><a xlink:href="util_8h.html" target="_top" xlink:title="Utility functions.">
<polygon fill="white" stroke="#666666" points="425.5,-184 350.5,-184 350.5,-165 425.5,-165 425.5,-184"/>
<text text-anchor="middle" x="388" y="-172" font-family="Helvetica,sans-Serif" font-size="10.00">qpalm/util.h</text>
</a>
</g>
</g>
<!-- Node1&#45;&gt;Node14 -->
<g id="edge25_Node000001_Node000014" class="edge">
<title>Node1&#45;&gt;Node14</title>
<g id="a_edge25_Node000001_Node000014"><a xlink:title=" ">
<path fill="none" stroke="#63b8ff" d="M278.54,-274.79C284.22,-261.64 296.44,-236.5 313,-220 326.02,-207.03 343.56,-196.35 358.4,-188.71"/>
<polygon fill="#63b8ff" stroke="#63b8ff" points="360.27,-191.69 367.69,-184.13 357.18,-185.41 360.27,-191.69"/>
</a>
</g>
</g>
<!-- Node3 -->
<g id="Node000003" class="node">
<title>Node3</title>
<g id="a_Node000003"><a xlink:href="types_8h.html" target="_top" xlink:title="Internal data structures used in QPALM.">
<polygon fill="white" stroke="#666666" points="411,-129 325,-129 325,-110 411,-110 411,-129"/>
<text text-anchor="middle" x="368" y="-117" font-family="Helvetica,sans-Serif" font-size="10.00">qpalm/types.h</text>
</a>
</g>
</g>
<!-- Node2&#45;&gt;Node3 -->
<g id="edge2_Node000002_Node000003" class="edge">
<title>Node2&#45;&gt;Node3</title>
<g id="a_edge2_Node000002_Node000003"><a xlink:title=" ">
<path fill="none" stroke="#63b8ff" d="M538.38,-164.98C503.71,-155.93 448.74,-141.58 410.65,-131.64"/>
<polygon fill="#63b8ff" stroke="#63b8ff" points="411.43,-128.22 400.87,-129.08 409.66,-134.99 411.43,-128.22"/>
</a>
</g>
</g>
<!-- Node5 -->
<g id="Node000005" class="node">
<title>Node5</title>
<g id="a_Node000005"><a xlink:href="global__opts_8h.html" target="_top" xlink:title="Custom memory allocation, print and utility functions, and data types for floats and ints.">
<polygon fill="white" stroke="#666666" points="470,-74 354,-74 354,-55 470,-55 470,-74"/>
<text text-anchor="middle" x="412" y="-62" font-family="Helvetica,sans-Serif" font-size="10.00">qpalm/global_opts.h</text>
</a>
</g>
</g>
<!-- Node2&#45;&gt;Node5 -->
<g id="edge8_Node000002_Node000005" class="edge">
<title>Node2&#45;&gt;Node5</title>
<g id="a_edge8_Node000002_Node000005"><a xlink:title=" ">
<path fill="none" stroke="#63b8ff" d="M558.26,-164.84C531.04,-146.36 467,-102.86 433.41,-80.05"/>
<polygon fill="#63b8ff" stroke="#63b8ff" points="435.04,-76.92 424.8,-74.2 431.11,-82.71 435.04,-76.92"/>
</a>
</g>
</g>
<!-- Node4 -->
<g id="Node000004" class="node">
<title>Node4</title>
<g id="a_Node000004"><a xlink:title=" ">
<polygon fill="#e0e0e0" stroke="#999999" points="298,-74 224,-74 224,-55 298,-55 298,-74"/>
<text text-anchor="middle" x="261" y="-62" font-family="Helvetica,sans-Serif" font-size="10.00">stdatomic.h</text>
</a>
</g>
</g>
<!-- Node3&#45;&gt;Node4 -->
<g id="edge3_Node000003_Node000004" class="edge">
<title>Node3&#45;&gt;Node4</title>
<g id="a_edge3_Node000003_Node000004"><a xlink:title=" ">
<path fill="none" stroke="#63b8ff" d="M350.81,-109.98C333.75,-101.54 307.37,-88.47 287.6,-78.68"/>
<polygon fill="#63b8ff" stroke="#63b8ff" points="289.02,-75.47 278.5,-74.17 285.91,-81.75 289.02,-75.47"/>
</a>
</g>
</g>
<!-- Node3&#45;&gt;Node5 -->
<g id="edge4_Node000003_Node000005" class="edge">
<title>Node3&#45;&gt;Node5</title>
<g id="a_edge4_Node000003_Node000005"><a xlink:title=" ">
<path fill="none" stroke="#63b8ff" d="M375.27,-109.75C381.54,-102.18 390.79,-91.05 398.43,-81.84"/>
<polygon fill="#63b8ff" stroke="#63b8ff" points="401.17,-84.02 404.87,-74.09 395.79,-79.55 401.17,-84.02"/>
</a>
</g>
</g>
<!-- Node3&#45;&gt;Node6 -->
<g id="edge7_Node000003_Node000006" class="edge">
<title>Node3&#45;&gt;Node6</title>
<g id="a_edge7_Node000003_Node000006"><a xlink:title=" ">
<path fill="none" stroke="#63b8ff" d="M361.77,-109.99C351.63,-96.65 330.32,-70.73 307,-55 283.61,-39.22 253.77,-27.66 230.93,-20.28"/>
<polygon fill="#63b8ff" stroke="#63b8ff" points="231.88,-16.91 221.29,-17.28 229.8,-23.59 231.88,-16.91"/>
</a>
</g>
</g>
<!-- Node5&#45;&gt;Node6 -->
<g id="edge5_Node000005_Node000006" class="edge">
<title>Node5&#45;&gt;Node6</title>
<g id="a_edge5_Node000005_Node000006"><a xlink:title=" ">
<path fill="none" stroke="#63b8ff" d="M377.3,-54.98C337.14,-45.13 271.4,-29 231.09,-19.11"/>
<polygon fill="#63b8ff" stroke="#63b8ff" points="231.72,-15.66 221.17,-16.68 230.05,-22.46 231.72,-15.66"/>
</a>
</g>
</g>
<!-- Node7 -->
<g id="Node000007" class="node">
<title>Node7</title>
<g id="a_Node000007"><a xlink:title=" ">
<polygon fill="#e0e0e0" stroke="#999999" points="437.5,-19 386.5,-19 386.5,0 437.5,0 437.5,-19"/>
<text text-anchor="middle" x="412" y="-7" font-family="Helvetica,sans-Serif" font-size="10.00">math.h</text>
</a>
</g>
</g>
<!-- Node5&#45;&gt;Node7 -->
<g id="edge6_Node000005_Node000007" class="edge">
<title>Node5&#45;&gt;Node7</title>
<g id="a_edge6_Node000005_Node000007"><a xlink:title=" ">
<path fill="none" stroke="#63b8ff" d="M412,-54.75C412,-47.8 412,-37.85 412,-29.13"/>
<polygon fill="#63b8ff" stroke="#63b8ff" points="415.5,-29.09 412,-19.09 408.5,-29.09 415.5,-29.09"/>
</a>
</g>
</g>
<!-- Node8&#45;&gt;Node3 -->
<g id="edge10_Node000008_Node000003" class="edge">
<title>Node8&#45;&gt;Node3</title>
<g id="a_edge10_Node000008_Node000003"><a xlink:title=" ">
<path fill="none" stroke="#63b8ff" d="M183.87,-219.7C187.26,-205.97 195.71,-179.51 213,-165 228.55,-151.95 276.24,-139.4 314.65,-130.98"/>
<polygon fill="#63b8ff" stroke="#63b8ff" points="315.65,-134.34 324.7,-128.82 314.18,-127.5 315.65,-134.34"/>
</a>
</g>
</g>
<!-- Node8&#45;&gt;Node9 -->
<g id="edge11_Node000008_Node000009" class="edge">
<title>Node8&#45;&gt;Node9</title>
<g id="a_edge11_Node000008_Node000009"><a xlink:title=" ">
<path fill="none" stroke="#63b8ff" d="M168.34,-219.98C155.16,-211.77 134.97,-199.18 119.43,-189.49"/>
<polygon fill="#63b8ff" stroke="#63b8ff" points="121.24,-186.49 110.91,-184.17 117.54,-192.43 121.24,-186.49"/>
</a>
</g>
</g>
<!-- Node9&#45;&gt;Node3 -->
<g id="edge15_Node000009_Node000003" class="edge">
<title>Node9&#45;&gt;Node3</title>
<g id="a_edge15_Node000009_Node000003"><a xlink:title=" ">
<path fill="none" stroke="#63b8ff" d="M140.54,-164.98C187.95,-155.71 263.8,-140.88 314.73,-130.92"/>
<polygon fill="#63b8ff" stroke="#63b8ff" points="315.42,-134.35 324.57,-128.99 314.08,-127.48 315.42,-134.35"/>
</a>
</g>
</g>
<!-- Node9&#45;&gt;Node5 -->
<g id="edge12_Node000009_Node000005" class="edge">
<title>Node9&#45;&gt;Node5</title>
<g id="a_edge12_Node000009_Node000005"><a xlink:title=" ">
<path fill="none" stroke="#63b8ff" d="M106.81,-164.55C122.65,-150.62 155.39,-123.89 188,-110 237.85,-88.77 298.31,-77.52 343.85,-71.65"/>
<polygon fill="#63b8ff" stroke="#63b8ff" points="344.42,-75.11 353.92,-70.41 343.56,-68.16 344.42,-75.11"/>
</a>
</g>
</g>
<!-- Node9&#45;&gt;Node6 -->
<g id="edge16_Node000009_Node000006" class="edge">
<title>Node9&#45;&gt;Node6</title>
<g id="a_edge16_Node000009_Node000006"><a xlink:title=" ">
<path fill="none" stroke="#63b8ff" d="M102.32,-164.74C118.04,-138.87 164.43,-62.48 185.44,-27.88"/>
<polygon fill="#63b8ff" stroke="#63b8ff" points="188.45,-29.67 190.65,-19.31 182.47,-26.04 188.45,-29.67"/>
</a>
</g>
</g>
<!-- Node10 -->
<g id="Node000010" class="node">
<title>Node10</title>
<g id="a_Node000010"><a xlink:href="constants_8h.html" target="_top" xlink:title="Constants used in QPALM.">
<polygon fill="white" stroke="#666666" points="304.5,-129 197.5,-129 197.5,-110 304.5,-110 304.5,-129"/>
<text text-anchor="middle" x="251" y="-117" font-family="Helvetica,sans-Serif" font-size="10.00">qpalm/constants.h</text>
</a>
</g>
</g>
<!-- Node9&#45;&gt;Node10 -->
<g id="edge13_Node000009_Node000010" class="edge">
<title>Node9&#45;&gt;Node10</title>
<g id="a_edge13_Node000009_Node000010"><a xlink:title=" ">
<path fill="none" stroke="#63b8ff" d="M121.74,-164.98C147.37,-156.16 187.63,-142.31 216.41,-132.41"/>
<polygon fill="#63b8ff" stroke="#63b8ff" points="217.75,-135.65 226.06,-129.08 215.47,-129.03 217.75,-135.65"/>
</a>
</g>
</g>
<!-- Node10&#45;&gt;Node6 -->
<g id="edge14_Node000010_Node000006" class="edge">
<title>Node10&#45;&gt;Node6</title>
<g id="a_edge14_Node000010_Node000006"><a xlink:title=" ">
<path fill="none" stroke="#63b8ff" d="M242.12,-109.71C234.02,-101.24 222.23,-87.71 215,-74 207.52,-59.83 202.56,-42.29 199.59,-29.24"/>
<polygon fill="#63b8ff" stroke="#63b8ff" points="202.94,-28.2 197.47,-19.12 196.09,-29.63 202.94,-28.2"/>
</a>
</g>
</g>
<!-- Node11&#45;&gt;Node3 -->
<g id="edge19_Node000011_Node000003" class="edge">
<title>Node11&#45;&gt;Node3</title>
<g id="a_edge19_Node000011_Node000003"><a xlink:title=" ">
<path fill="none" stroke="#63b8ff" d="M391.37,-219.82C414.85,-208.88 447.68,-188.63 435,-165 427.49,-151 413.43,-140.66 400.12,-133.48"/>
<polygon fill="#63b8ff" stroke="#63b8ff" points="401.63,-130.33 391.11,-129.02 398.52,-136.6 401.63,-130.33"/>
</a>
</g>
</g>
<!-- Node12&#45;&gt;Node3 -->
<g id="edge21_Node000012_Node000003" class="edge">
<title>Node12&#45;&gt;Node3</title>
<g id="a_edge21_Node000012_Node000003"><a xlink:title=" ">
<path fill="none" stroke="#63b8ff" d="M291.62,-164.98C305.86,-156.69 327.75,-143.94 344.45,-134.22"/>
<polygon fill="#63b8ff" stroke="#63b8ff" points="346.23,-137.23 353.11,-129.17 342.71,-131.18 346.23,-137.23"/>
</a>
</g>
</g>
<!-- Node12&#45;&gt;Node10 -->
<g id="edge22_Node000012_Node000010" class="edge">
<title>Node12&#45;&gt;Node10</title>
<g id="a_edge22_Node000012_Node000010"><a xlink:title=" ">
<path fill="none" stroke="#63b8ff" d="M272.71,-164.75C269.19,-157.57 264.09,-147.18 259.72,-138.27"/>
<polygon fill="#63b8ff" stroke="#63b8ff" points="262.76,-136.53 255.21,-129.09 256.48,-139.61 262.76,-136.53"/>
</a>
</g>
</g>
<!-- Node13&#45;&gt;Node3 -->
<g id="edge24_Node000013_Node000003" class="edge">
<title>Node13&#45;&gt;Node3</title>
<g id="a_edge24_Node000013_Node000003"><a xlink:title=" ">
<path fill="none" stroke="#63b8ff" d="M487.95,-219.72C481.48,-206.49 467.73,-181.25 450,-165 435.33,-151.55 415.85,-140.76 399.55,-133.18"/>
<polygon fill="#63b8ff" stroke="#63b8ff" points="400.95,-129.97 390.39,-129.08 398.09,-136.36 400.95,-129.97"/>
</a>
</g>
</g>
<!-- Node14&#45;&gt;Node3 -->
<g id="edge26_Node000014_Node000003" class="edge">
<title>Node14&#45;&gt;Node3</title>
<g id="a_edge26_Node000014_Node000003"><a xlink:title=" ">
<path fill="none" stroke="#63b8ff" d="M384.7,-164.75C382.02,-157.65 378.15,-147.4 374.81,-138.56"/>
<polygon fill="#63b8ff" stroke="#63b8ff" points="378.05,-137.21 371.24,-129.09 371.5,-139.68 378.05,-137.21"/>
</a>
</g>
</g>
<!-- Node14&#45;&gt;Node10 -->
<g id="edge27_Node000014_Node000010" class="edge">
<title>Node14&#45;&gt;Node10</title>
<g id="a_edge27_Node000014_Node000010"><a xlink:title=" ">
<path fill="none" stroke="#63b8ff" d="M365.99,-164.98C343.55,-156.3 308.52,-142.75 283.01,-132.88"/>
<polygon fill="#63b8ff" stroke="#63b8ff" points="284,-129.51 273.41,-129.17 281.48,-136.04 284,-129.51"/>
</a>
</g>
</g>
</g>
</svg>

<g id="navigator" transform="translate(0 0)" fill="#404254">
  <rect fill="#f2f5e9" fill-opacity="0.5" stroke="#606060" stroke-width=".5" x="0" y="0" width="60" height="60"/>
  <use id="zoomplus" xlink:href="#zoomPlus" x="17" y="9" onmousedown="handleZoom(evt,'in')"/>
  <use id="zoomminus" xlink:href="#zoomMin" x="42" y="9" onmousedown="handleZoom(evt,'out')"/>
  <use id="reset" xlink:href="#resetDef" x="30" y="36" onmousedown="handleReset()"/>
   <use id="arrowup" xlink:href="#arrowUp" x="0" y="0" onmousedown="handlePan(0,-1)"/>
  <use id="arrowright" xlink:href="#arrowRight" x="0" y="0" onmousedown="handlePan(1,0)"/>
  <use id="arrowdown" xlink:href="#arrowDown" x="0" y="0" onmousedown="handlePan(0,1)"/>
  <use id="arrowleft" xlink:href="#arrowLeft" x="0" y="0" onmousedown="handlePan(-1,0)"/>
</g>
<svg viewBox="0 0 15 15" width="100%" height="30px" preserveAspectRatio="xMaxYMin meet">
 <g id="arrow_out" transform="scale(0.3 0.3)">
  <a xlink:href="iteration_8c__incl_org.svg" target="_base">
   <rect id="button" ry="5" rx="5" y="6" x="6" height="38" width="38"
        fill="#f2f5e9" fill-opacity="0.5" stroke="#606060" stroke-width="1.0"/>
   <path id="arrow"
     d="M 11.500037,31.436501 C 11.940474,20.09759 22.043105,11.32322 32.158766,21.979434 L 37.068811,17.246167 C 37.068811,17.246167 37.088388,32 37.088388,32 L 22.160133,31.978069 C 22.160133,31.978069 26.997745,27.140456 26.997745,27.140456 C 18.528582,18.264221 13.291696,25.230495 11.500037,31.436501 z"
     style="fill:#404040;"/>
  </a>
 </g>
</svg>

<style type='text/css'>
<![CDATA[
[data-mouse-over-selected='false'] { opacity: 0.7; }
[data-mouse-over-selected='true']  { opacity: 1.0; }
]]>
</style>
<script type="application/ecmascript"><![CDATA[
document.addEventListener('DOMContentLoaded', (event) => {
  highlightEdges();
  highlightAdjacentNodes();
});
]]></script>
</svg>
