<?xml version="1.0" encoding="UTF-8" standalone="no"?>
<!DOCTYPE svg PUBLIC "-//W3C//DTD SVG 1.1//EN"
 "http://www.w3.org/Graphics/SVG/1.1/DTD/svg11.dtd">
<!-- Generated by graphviz version 2.43.0 (0)
 -->
<!-- Title: exact_linesearch Pages: 1 -->
<svg width="262pt" height="397pt"
 viewBox="0.00 0.00 262.00 397.00" xmlns="http://www.w3.org/2000/svg" xmlns:xlink="http://www.w3.org/1999/xlink">
<g id="graph0" class="graph" transform="scale(1 1) rotate(0) translate(4 393)">
<title>exact_linesearch</title>
<!-- Node1 -->
<g id="Node000001" class="node">
<title>Node1</title>
<g id="a_Node000001"><a xlink:title="Execute exact linesearch (using qsort)">
<polygon fill="#999999" stroke="#666666" points="99,-204 0,-204 0,-185 99,-185 99,-204"/>
<text text-anchor="middle" x="49.5" y="-192" font-family="Helvetica,sans-Serif" font-size="10.00">exact_linesearch</text>
</a>
</g>
</g>
<!-- Node2 -->
<g id="Node000002" class="node">
<title>Node2</title>
<g id="a_Node000002"><a xlink:href="linesearch_8c.html#ac70138609ef6aa6fabca57aca8681e83" target="_top" xlink:title="Helper function for qsort.">
<polygon fill="white" stroke="#666666" points="224,-389 165,-389 165,-370 224,-370 224,-389"/>
<text text-anchor="middle" x="194.5" y="-377" font-family="Helvetica,sans-Serif" font-size="10.00">compare</text>
</a>
</g>
</g>
<!-- Node1&#45;&gt;Node2 -->
<g id="edge1_Node000001_Node000002" class="edge">
<title>Node1&#45;&gt;Node2</title>
<g id="a_edge1_Node000001_Node000002"><a xlink:title=" ">
<path fill="none" stroke="#63b8ff" d="M52.56,-204.07C59.17,-232.51 82.58,-317.31 135,-361.5 140.75,-366.35 147.8,-369.89 154.98,-372.48"/>
<polygon fill="#63b8ff" stroke="#63b8ff" points="154.17,-375.89 164.76,-375.46 156.21,-369.2 154.17,-375.89"/>
</a>
</g>
</g>
<!-- Node3 -->
<g id="Node000003" class="node">
<title>Node3</title>
<g id="a_Node000003"><a xlink:href="solver__interface_8c.html#a4824fb035d8cdb8ba46e4ac5c4049d5d" target="_top" xlink:title="Matrix&#45;vector multiplication.">
<polygon fill="white" stroke="#666666" points="224,-352 165,-352 165,-333 224,-333 224,-352"/>
<text text-anchor="middle" x="194.5" y="-340" font-family="Helvetica,sans-Serif" font-size="10.00">mat_vec</text>
</a>
</g>
</g>
<!-- Node1&#45;&gt;Node3 -->
<g id="edge2_Node000001_Node000003" class="edge">
<title>Node1&#45;&gt;Node3</title>
<g id="a_edge2_Node000001_Node000003"><a xlink:title=" ">
<path fill="none" stroke="#63b8ff" d="M54.12,-204.32C63.53,-228.51 91.17,-291.42 135,-324.5 140.95,-328.99 148.03,-332.37 155.17,-334.91"/>
<polygon fill="#63b8ff" stroke="#63b8ff" points="154.27,-338.29 164.85,-337.88 156.32,-331.6 154.27,-338.29"/>
</a>
</g>
</g>
<!-- Node4 -->
<g id="Node000004" class="node">
<title>Node4</title>
<g id="a_Node000004"><a xlink:href="lin__alg_8c.html#acf468a60c38fbc58b6de539acb6f0a3b" target="_top" xlink:title="Copy vector a into preallocated vector b.">
<polygon fill="white" stroke="#666666" points="239,-315 150,-315 150,-296 239,-296 239,-315"/>
<text text-anchor="middle" x="194.5" y="-303" font-family="Helvetica,sans-Serif" font-size="10.00">prea_vec_copy</text>
</a>
</g>
</g>
<!-- Node1&#45;&gt;Node4 -->
<g id="edge3_Node000001_Node000004" class="edge">
<title>Node1&#45;&gt;Node4</title>
<g id="a_edge3_Node000001_Node000004"><a xlink:title=" ">
<path fill="none" stroke="#63b8ff" d="M56.68,-204.23C69.17,-223.1 99.28,-264.81 135,-287.5 137.48,-289.08 140.11,-290.52 142.82,-291.85"/>
<polygon fill="#63b8ff" stroke="#63b8ff" points="141.72,-295.18 152.29,-295.9 144.48,-288.75 141.72,-295.18"/>
</a>
</g>
</g>
<!-- Node5 -->
<g id="Node000005" class="node">
<title>Node5</title>
<g id="a_Node000005"><a xlink:href="linesearch_8c.html#a33a2554aa831be51296f2dafedd076d4" target="_top" xlink:title="Select subsequence based on a set of indices, .">
<polygon fill="white" stroke="#666666" points="252,-278 137,-278 137,-259 252,-259 252,-278"/>
<text text-anchor="middle" x="194.5" y="-266" font-family="Helvetica,sans-Serif" font-size="10.00">select_subsequence</text>
</a>
</g>
</g>
<!-- Node1&#45;&gt;Node5 -->
<g id="edge4_Node000001_Node000005" class="edge">
<title>Node1&#45;&gt;Node5</title>
<g id="a_edge4_Node000001_Node000005"><a xlink:title=" ">
<path fill="none" stroke="#63b8ff" d="M62.43,-204.03C78.23,-216.24 107.32,-237.4 135,-250.5 138.84,-252.31 142.9,-254 147.02,-255.56"/>
<polygon fill="#63b8ff" stroke="#63b8ff" points="146.09,-258.94 156.69,-258.94 148.41,-252.33 146.09,-258.94"/>
</a>
</g>
</g>
<!-- Node6 -->
<g id="Node000006" class="node">
<title>Node6</title>
<g id="a_Node000006"><a xlink:href="lin__alg_8c.html#a0fde1aeeea954e43db160ec6e3697cd5" target="_top" xlink:title="Scaled addition of one vector to another vector, .">
<polygon fill="white" stroke="#666666" points="241.5,-241 147.5,-241 147.5,-222 241.5,-222 241.5,-241"/>
<text text-anchor="middle" x="194.5" y="-229" font-family="Helvetica,sans-Serif" font-size="10.00">vec_add_scaled</text>
</a>
</g>
</g>
<!-- Node1&#45;&gt;Node6 -->
<g id="edge5_Node000001_Node000006" class="edge">
<title>Node1&#45;&gt;Node6</title>
<g id="a_edge5_Node000001_Node000006"><a xlink:title=" ">
<path fill="none" stroke="#63b8ff" d="M87.33,-204.03C105.37,-208.7 127.29,-214.37 146.52,-219.35"/>
<polygon fill="#63b8ff" stroke="#63b8ff" points="145.74,-222.76 156.3,-221.88 147.5,-215.98 145.74,-222.76"/>
</a>
</g>
</g>
<!-- Node7 -->
<g id="Node000007" class="node">
<title>Node7</title>
<g id="a_Node000007"><a xlink:href="linesearch_8c.html#a21cd94f0684dd9e1bfe7236260e9e8d5" target="_top" xlink:title="Helper function to copy vector a in array b (with indices)">
<polygon fill="white" stroke="#666666" points="241,-204 148,-204 148,-185 241,-185 241,-204"/>
<text text-anchor="middle" x="194.5" y="-192" font-family="Helvetica,sans-Serif" font-size="10.00">vec_array_copy</text>
</a>
</g>
</g>
<!-- Node1&#45;&gt;Node7 -->
<g id="edge6_Node000001_Node000007" class="edge">
<title>Node1&#45;&gt;Node7</title>
<g id="a_edge6_Node000001_Node000007"><a xlink:title=" ">
<path fill="none" stroke="#63b8ff" d="M99.31,-194.5C111.7,-194.5 125.1,-194.5 137.8,-194.5"/>
<polygon fill="#63b8ff" stroke="#63b8ff" points="137.8,-198 147.8,-194.5 137.8,-191 137.8,-198"/>
</a>
</g>
</g>
<!-- Node8 -->
<g id="Node000008" class="node">
<title>Node8</title>
<g id="a_Node000008"><a xlink:href="lin__alg_8c.html#a7b3d3b23f9254b8dc1bf53823ef42b42" target="_top" xlink:title="Elementwise division, .">
<polygon fill="white" stroke="#666666" points="231.5,-167 157.5,-167 157.5,-148 231.5,-148 231.5,-167"/>
<text text-anchor="middle" x="194.5" y="-155" font-family="Helvetica,sans-Serif" font-size="10.00">vec_ew_div</text>
</a>
</g>
</g>
<!-- Node1&#45;&gt;Node8 -->
<g id="edge7_Node000001_Node000008" class="edge">
<title>Node1&#45;&gt;Node8</title>
<g id="a_edge7_Node000001_Node000008"><a xlink:title=" ">
<path fill="none" stroke="#63b8ff" d="M87.33,-184.97C105.65,-180.23 127.98,-174.45 147.42,-169.42"/>
<polygon fill="#63b8ff" stroke="#63b8ff" points="148.49,-172.76 157.29,-166.87 146.74,-165.98 148.49,-172.76"/>
</a>
</g>
</g>
<!-- Node9 -->
<g id="Node000009" class="node">
<title>Node9</title>
<g id="a_Node000009"><a xlink:href="lin__alg_8c.html#ab48ddb2d35dd1a04bd27f06cb49400cb" target="_top" xlink:title="Elementwise product, .">
<polygon fill="white" stroke="#666666" points="234.5,-130 154.5,-130 154.5,-111 234.5,-111 234.5,-130"/>
<text text-anchor="middle" x="194.5" y="-118" font-family="Helvetica,sans-Serif" font-size="10.00">vec_ew_prod</text>
</a>
</g>
</g>
<!-- Node1&#45;&gt;Node9 -->
<g id="edge8_Node000001_Node000009" class="edge">
<title>Node1&#45;&gt;Node9</title>
<g id="a_edge8_Node000001_Node000009"><a xlink:title=" ">
<path fill="none" stroke="#63b8ff" d="M63.05,-184.81C79.03,-172.84 107.83,-152.47 135,-139.5 139.58,-137.31 144.48,-135.28 149.41,-133.43"/>
<polygon fill="#63b8ff" stroke="#63b8ff" points="150.62,-136.71 158.88,-130.08 148.29,-130.11 150.62,-136.71"/>
</a>
</g>
</g>
<!-- Node10 -->
<g id="Node000010" class="node">
<title>Node10</title>
<g id="a_Node000010"><a xlink:href="lin__alg_8c.html#ab83e787c2e0edb5803a860b1c894f53d" target="_top" xlink:title="Inner product between two vectors, .">
<polygon fill="white" stroke="#666666" points="225,-93 164,-93 164,-74 225,-74 225,-93"/>
<text text-anchor="middle" x="194.5" y="-81" font-family="Helvetica,sans-Serif" font-size="10.00">vec_prod</text>
</a>
</g>
</g>
<!-- Node1&#45;&gt;Node10 -->
<g id="edge9_Node000001_Node000010" class="edge">
<title>Node1&#45;&gt;Node10</title>
<g id="a_edge9_Node000001_Node000010"><a xlink:title=" ">
<path fill="none" stroke="#63b8ff" d="M56.74,-184.93C69.33,-166.35 99.6,-125.24 135,-102.5 140.86,-98.74 147.52,-95.66 154.2,-93.16"/>
<polygon fill="#63b8ff" stroke="#63b8ff" points="155.55,-96.4 163.92,-89.91 153.32,-89.77 155.55,-96.4"/>
</a>
</g>
</g>
<!-- Node11 -->
<g id="Node000011" class="node">
<title>Node11</title>
<g id="a_Node000011"><a xlink:href="linesearch_8c.html#ac4bdfc80a644d8c75a672963c7682af9" target="_top" xlink:title="Inner product over index set, .">
<polygon fill="white" stroke="#666666" points="235,-56 154,-56 154,-37 235,-37 235,-56"/>
<text text-anchor="middle" x="194.5" y="-44" font-family="Helvetica,sans-Serif" font-size="10.00">vec_prod_ind</text>
</a>
</g>
</g>
<!-- Node1&#45;&gt;Node11 -->
<g id="edge10_Node000001_Node000011" class="edge">
<title>Node1&#45;&gt;Node11</title>
<g id="a_edge10_Node000001_Node000011"><a xlink:title=" ">
<path fill="none" stroke="#63b8ff" d="M54.17,-184.8C63.71,-160.89 91.6,-98.66 135,-65.5 137.98,-63.23 141.23,-61.22 144.64,-59.45"/>
<polygon fill="#63b8ff" stroke="#63b8ff" points="146.22,-62.58 153.91,-55.29 143.36,-56.19 146.22,-62.58"/>
</a>
</g>
</g>
<!-- Node12 -->
<g id="Node000012" class="node">
<title>Node12</title>
<g id="a_Node000012"><a xlink:href="lin__alg_8c.html#a932b289ad07aea70e64b417ef9160674" target="_top" xlink:title="Mulitply vector with a constant scale factor.">
<polygon fill="white" stroke="#666666" points="254,-19 135,-19 135,0 254,0 254,-19"/>
<text text-anchor="middle" x="194.5" y="-7" font-family="Helvetica,sans-Serif" font-size="10.00">vec_self_mult_scalar</text>
</a>
</g>
</g>
<!-- Node1&#45;&gt;Node12 -->
<g id="edge11_Node000001_Node000012" class="edge">
<title>Node1&#45;&gt;Node12</title>
<g id="a_edge11_Node000001_Node000012"><a xlink:title=" ">
<path fill="none" stroke="#63b8ff" d="M52.7,-184.62C59.58,-156.06 83.37,-72.61 135,-28.5 136.99,-26.8 139.13,-25.25 141.38,-23.84"/>
<polygon fill="#63b8ff" stroke="#63b8ff" points="143.27,-26.8 150.5,-19.06 140.02,-20.61 143.27,-26.8"/>
</a>
</g>
</g>
</g>
</svg>
