<?xml version="1.0" encoding="UTF-8" standalone="no"?>
<!DOCTYPE svg PUBLIC "-//W3C//DTD SVG 1.1//EN"
 "http://www.w3.org/Graphics/SVG/1.1/DTD/svg11.dtd">
<!-- Generated by graphviz version 2.43.0 (0)
 -->
<!-- Title: QPALM/src/newton.c Pages: 1 -->
<svg width="344pt" height="302pt"
 viewBox="0.00 0.00 343.73 302.00" xmlns="http://www.w3.org/2000/svg" xmlns:xlink="http://www.w3.org/1999/xlink">

<svg id="main" version="1.1" xmlns="http://www.w3.org/2000/svg" xmlns:xlink="http://www.w3.org/1999/xlink" xml:space="preserve" onload="init(evt)">
<style type="text/css"><![CDATA[
.node, .edge {opacity: 0.7;}
.node.selected, .edge.selected {opacity: 1;}
.edge:hover path { stroke: red; }
.edge:hover polygon { stroke: red; fill: red; }
]]></style>
<script type="application/ecmascript" xlink:href="svg.min.js"/>
<svg id="graph" class="graph">
<g id="graph0" class="graph" transform="scale(1 1) rotate(0) translate(4 298)">
<title>QPALM/src/newton.c</title>
<!-- Node1 -->
<g id="Node000001" class="node">
<title>Node1</title>
<g id="a_Node000001"><a xlink:title="Functions to calculate the semismooth Newton direction.">
<polygon fill="#999999" stroke="#666666" points="196.5,-294 81.5,-294 81.5,-275 196.5,-275 196.5,-294"/>
<text text-anchor="middle" x="139" y="-282" font-family="Helvetica,sans-Serif" font-size="10.00">QPALM/src/newton.c</text>
</a>
</g>
</g>
<!-- Node2 -->
<g id="Node000002" class="node">
<title>Node2</title>
<g id="a_Node000002"><a xlink:href="newton_8h.html" target="_top" xlink:title="Functions to calculate the semismooth Newton direction.">
<polygon fill="white" stroke="#666666" points="110.5,-184 15.5,-184 15.5,-165 110.5,-165 110.5,-184"/>
<text text-anchor="middle" x="63" y="-172" font-family="Helvetica,sans-Serif" font-size="10.00">qpalm/newton.h</text>
</a>
</g>
</g>
<!-- Node1&#45;&gt;Node2 -->
<g id="edge1_Node000001_Node000002" class="edge">
<title>Node1&#45;&gt;Node2</title>
<g id="a_edge1_Node000001_Node000002"><a xlink:title=" ">
<path fill="none" stroke="#63b8ff" d="M123.91,-274.72C111.56,-266.83 94.48,-254.15 84,-239 74.71,-225.57 69.29,-207.73 66.29,-194.38"/>
<polygon fill="#63b8ff" stroke="#63b8ff" points="69.69,-193.55 64.31,-184.42 62.83,-194.91 69.69,-193.55"/>
</a>
</g>
</g>
<!-- Node8 -->
<g id="Node000008" class="node">
<title>Node8</title>
<g id="a_Node000008"><a xlink:href="lin__alg_8h.html" target="_top" xlink:title="Linear algebra with vectors.">
<polygon fill="white" stroke="#666666" points="185,-239 93,-239 93,-220 185,-220 185,-239"/>
<text text-anchor="middle" x="139" y="-227" font-family="Helvetica,sans-Serif" font-size="10.00">qpalm/lin_alg.h</text>
</a>
</g>
</g>
<!-- Node1&#45;&gt;Node8 -->
<g id="edge8_Node000001_Node000008" class="edge">
<title>Node1&#45;&gt;Node8</title>
<g id="a_edge8_Node000001_Node000008"><a xlink:title=" ">
<path fill="none" stroke="#63b8ff" d="M139,-274.75C139,-267.8 139,-257.85 139,-249.13"/>
<polygon fill="#63b8ff" stroke="#63b8ff" points="142.5,-249.09 139,-239.09 135.5,-249.09 142.5,-249.09"/>
</a>
</g>
</g>
<!-- Node11 -->
<g id="Node000011" class="node">
<title>Node11</title>
<g id="a_Node000011"><a xlink:title=" ">
<polygon fill="#e0e0e0" stroke="#999999" points="253,-239 203,-239 203,-220 253,-220 253,-239"/>
<text text-anchor="middle" x="228" y="-227" font-family="Helvetica,sans-Serif" font-size="10.00">stdio.h</text>
</a>
</g>
</g>
<!-- Node1&#45;&gt;Node11 -->
<g id="edge16_Node000001_Node000011" class="edge">
<title>Node1&#45;&gt;Node11</title>
<g id="a_edge16_Node000001_Node000011"><a xlink:title=" ">
<path fill="none" stroke="#63b8ff" d="M153.3,-274.98C167.1,-266.77 188.24,-254.18 204.51,-244.49"/>
<polygon fill="#63b8ff" stroke="#63b8ff" points="206.64,-247.29 213.44,-239.17 203.06,-241.28 206.64,-247.29"/>
</a>
</g>
</g>
<!-- Node3 -->
<g id="Node000003" class="node">
<title>Node3</title>
<g id="a_Node000003"><a xlink:href="types_8h.html" target="_top" xlink:title="Internal data structures used in QPALM.">
<polygon fill="white" stroke="#666666" points="152,-129 66,-129 66,-110 152,-110 152,-129"/>
<text text-anchor="middle" x="109" y="-117" font-family="Helvetica,sans-Serif" font-size="10.00">qpalm/types.h</text>
</a>
</g>
</g>
<!-- Node2&#45;&gt;Node3 -->
<g id="edge2_Node000002_Node000003" class="edge">
<title>Node2&#45;&gt;Node3</title>
<g id="a_edge2_Node000002_Node000003"><a xlink:title=" ">
<path fill="none" stroke="#63b8ff" d="M70.6,-164.75C77.16,-157.18 86.82,-146.05 94.81,-136.84"/>
<polygon fill="#63b8ff" stroke="#63b8ff" points="97.63,-138.94 101.55,-129.09 92.35,-134.35 97.63,-138.94"/>
</a>
</g>
</g>
<!-- Node4 -->
<g id="Node000004" class="node">
<title>Node4</title>
<g id="a_Node000004"><a xlink:title=" ">
<polygon fill="#e0e0e0" stroke="#999999" points="74,-74 0,-74 0,-55 74,-55 74,-74"/>
<text text-anchor="middle" x="37" y="-62" font-family="Helvetica,sans-Serif" font-size="10.00">stdatomic.h</text>
</a>
</g>
</g>
<!-- Node3&#45;&gt;Node4 -->
<g id="edge3_Node000003_Node000004" class="edge">
<title>Node3&#45;&gt;Node4</title>
<g id="a_edge3_Node000003_Node000004"><a xlink:title=" ">
<path fill="none" stroke="#63b8ff" d="M97.43,-109.98C86.58,-102 70.12,-89.88 57.12,-80.31"/>
<polygon fill="#63b8ff" stroke="#63b8ff" points="58.91,-77.28 48.78,-74.17 54.76,-82.92 58.91,-77.28"/>
</a>
</g>
</g>
<!-- Node5 -->
<g id="Node000005" class="node">
<title>Node5</title>
<g id="a_Node000005"><a xlink:href="global__opts_8h.html" target="_top" xlink:title="Custom memory allocation, print and utility functions, and data types for floats and ints.">
<polygon fill="white" stroke="#666666" points="246,-74 130,-74 130,-55 246,-55 246,-74"/>
<text text-anchor="middle" x="188" y="-62" font-family="Helvetica,sans-Serif" font-size="10.00">qpalm/global_opts.h</text>
</a>
</g>
</g>
<!-- Node3&#45;&gt;Node5 -->
<g id="edge4_Node000003_Node000005" class="edge">
<title>Node3&#45;&gt;Node5</title>
<g id="a_edge4_Node000003_Node000005"><a xlink:title=" ">
<path fill="none" stroke="#63b8ff" d="M121.69,-109.98C133.83,-101.84 152.36,-89.41 166.75,-79.76"/>
<polygon fill="#63b8ff" stroke="#63b8ff" points="168.72,-82.65 175.08,-74.17 164.82,-76.84 168.72,-82.65"/>
</a>
</g>
</g>
<!-- Node6 -->
<g id="Node000006" class="node">
<title>Node6</title>
<g id="a_Node000006"><a xlink:title=" ">
<polygon fill="#e0e0e0" stroke="#999999" points="290,-19 240,-19 240,0 290,0 290,-19"/>
<text text-anchor="middle" x="265" y="-7" font-family="Helvetica,sans-Serif" font-size="10.00">ladel.h</text>
</a>
</g>
</g>
<!-- Node3&#45;&gt;Node6 -->
<g id="edge7_Node000003_Node000006" class="edge">
<title>Node3&#45;&gt;Node6</title>
<g id="a_edge7_Node000003_Node000006"><a xlink:title=" ">
<path fill="none" stroke="#63b8ff" d="M108.05,-109.91C107.07,-96.47 107.25,-70.4 121,-55 128.43,-46.68 189.87,-29.69 230.06,-19.28"/>
<polygon fill="#63b8ff" stroke="#63b8ff" points="230.96,-22.67 239.77,-16.79 229.22,-15.89 230.96,-22.67"/>
</a>
</g>
</g>
<!-- Node5&#45;&gt;Node6 -->
<g id="edge5_Node000005_Node000006" class="edge">
<title>Node5&#45;&gt;Node6</title>
<g id="a_edge5_Node000005_Node000006"><a xlink:title=" ">
<path fill="none" stroke="#63b8ff" d="M200.37,-54.98C212.09,-46.92 229.92,-34.65 243.89,-25.03"/>
<polygon fill="#63b8ff" stroke="#63b8ff" points="246.15,-27.72 252.4,-19.17 242.18,-21.96 246.15,-27.72"/>
</a>
</g>
</g>
<!-- Node7 -->
<g id="Node000007" class="node">
<title>Node7</title>
<g id="a_Node000007"><a xlink:title=" ">
<polygon fill="#e0e0e0" stroke="#999999" points="213.5,-19 162.5,-19 162.5,0 213.5,0 213.5,-19"/>
<text text-anchor="middle" x="188" y="-7" font-family="Helvetica,sans-Serif" font-size="10.00">math.h</text>
</a>
</g>
</g>
<!-- Node5&#45;&gt;Node7 -->
<g id="edge6_Node000005_Node000007" class="edge">
<title>Node5&#45;&gt;Node7</title>
<g id="a_edge6_Node000005_Node000007"><a xlink:title=" ">
<path fill="none" stroke="#63b8ff" d="M188,-54.75C188,-47.8 188,-37.85 188,-29.13"/>
<polygon fill="#63b8ff" stroke="#63b8ff" points="191.5,-29.09 188,-19.09 184.5,-29.09 191.5,-29.09"/>
</a>
</g>
</g>
<!-- Node8&#45;&gt;Node3 -->
<g id="edge9_Node000008_Node000003" class="edge">
<title>Node8&#45;&gt;Node3</title>
<g id="a_edge9_Node000008_Node000003"><a xlink:title=" ">
<path fill="none" stroke="#63b8ff" d="M136.54,-219.66C131.66,-202.09 120.65,-162.45 114.13,-138.95"/>
<polygon fill="#63b8ff" stroke="#63b8ff" points="117.45,-137.86 111.41,-129.16 110.71,-139.73 117.45,-137.86"/>
</a>
</g>
</g>
<!-- Node9 -->
<g id="Node000009" class="node">
<title>Node9</title>
<g id="a_Node000009"><a xlink:href="solver__interface_8h.html" target="_top" xlink:title="Interface and wrapper to matrix/factorization (ladel) functions.">
<polygon fill="white" stroke="#666666" points="305,-184 167,-184 167,-165 305,-165 305,-184"/>
<text text-anchor="middle" x="236" y="-172" font-family="Helvetica,sans-Serif" font-size="10.00">qpalm/solver_interface.h</text>
</a>
</g>
</g>
<!-- Node8&#45;&gt;Node9 -->
<g id="edge10_Node000008_Node000009" class="edge">
<title>Node8&#45;&gt;Node9</title>
<g id="a_edge10_Node000008_Node000009"><a xlink:title=" ">
<path fill="none" stroke="#63b8ff" d="M154.58,-219.98C169.77,-211.69 193.1,-198.94 210.9,-189.22"/>
<polygon fill="#63b8ff" stroke="#63b8ff" points="213.03,-192.04 220.13,-184.17 209.68,-185.89 213.03,-192.04"/>
</a>
</g>
</g>
<!-- Node9&#45;&gt;Node3 -->
<g id="edge14_Node000009_Node000003" class="edge">
<title>Node9&#45;&gt;Node3</title>
<g id="a_edge14_Node000009_Node000003"><a xlink:title=" ">
<path fill="none" stroke="#63b8ff" d="M215.6,-164.98C194.98,-156.38 162.89,-142.99 139.31,-133.15"/>
<polygon fill="#63b8ff" stroke="#63b8ff" points="140.35,-129.79 129.78,-129.17 137.66,-136.25 140.35,-129.79"/>
</a>
</g>
</g>
<!-- Node9&#45;&gt;Node5 -->
<g id="edge11_Node000009_Node000005" class="edge">
<title>Node9&#45;&gt;Node5</title>
<g id="a_edge11_Node000009_Node000005"><a xlink:title=" ">
<path fill="none" stroke="#63b8ff" d="M228.31,-164.92C221.04,-156.39 210.34,-142.63 204,-129 197.33,-114.65 193.18,-97.13 190.79,-84.13"/>
<polygon fill="#63b8ff" stroke="#63b8ff" points="194.2,-83.35 189.11,-74.06 187.3,-84.5 194.2,-83.35"/>
</a>
</g>
</g>
<!-- Node9&#45;&gt;Node6 -->
<g id="edge15_Node000009_Node000006" class="edge">
<title>Node9&#45;&gt;Node6</title>
<g id="a_edge15_Node000009_Node000006"><a xlink:title=" ">
<path fill="none" stroke="#63b8ff" d="M276.2,-164.87C295.69,-158.45 317.36,-147.48 329,-129 351.61,-93.12 310.06,-48.6 283.91,-25.69"/>
<polygon fill="#63b8ff" stroke="#63b8ff" points="285.96,-22.84 276.06,-19.05 281.44,-28.18 285.96,-22.84"/>
</a>
</g>
</g>
<!-- Node10 -->
<g id="Node000010" class="node">
<title>Node10</title>
<g id="a_Node000010"><a xlink:href="constants_8h.html" target="_top" xlink:title="Constants used in QPALM.">
<polygon fill="white" stroke="#666666" points="319.5,-129 212.5,-129 212.5,-110 319.5,-110 319.5,-129"/>
<text text-anchor="middle" x="266" y="-117" font-family="Helvetica,sans-Serif" font-size="10.00">qpalm/constants.h</text>
</a>
</g>
</g>
<!-- Node9&#45;&gt;Node10 -->
<g id="edge12_Node000009_Node000010" class="edge">
<title>Node9&#45;&gt;Node10</title>
<g id="a_edge12_Node000009_Node000010"><a xlink:title=" ">
<path fill="none" stroke="#63b8ff" d="M240.95,-164.75C245.06,-157.49 251.03,-146.95 256.1,-137.98"/>
<polygon fill="#63b8ff" stroke="#63b8ff" points="259.26,-139.52 261.14,-129.09 253.17,-136.07 259.26,-139.52"/>
</a>
</g>
</g>
<!-- Node10&#45;&gt;Node6 -->
<g id="edge13_Node000010_Node000006" class="edge">
<title>Node10&#45;&gt;Node6</title>
<g id="a_edge13_Node000010_Node000006"><a xlink:title=" ">
<path fill="none" stroke="#63b8ff" d="M265.92,-109.66C265.76,-92.17 265.39,-52.8 265.17,-29.27"/>
<polygon fill="#63b8ff" stroke="#63b8ff" points="268.67,-29.13 265.08,-19.16 261.67,-29.19 268.67,-29.13"/>
</a>
</g>
</g>
</g>
</svg>
</svg>

<style type='text/css'>
<![CDATA[
[data-mouse-over-selected='false'] { opacity: 0.7; }
[data-mouse-over-selected='true']  { opacity: 1.0; }
]]>
</style>
<script type="application/ecmascript"><![CDATA[
document.addEventListener('DOMContentLoaded', (event) => {
  highlightEdges();
  highlightAdjacentNodes();
});
]]></script>
</svg>
