<?xml version="1.0" encoding="UTF-8" standalone="no"?>
<!DOCTYPE svg PUBLIC "-//W3C//DTD SVG 1.1//EN"
 "http://www.w3.org/Graphics/SVG/1.1/DTD/svg11.dtd">
<!-- Generated by graphviz version 2.43.0 (0)
 -->
<!-- Title: QPALM/src/scaling.c Pages: 1 -->
<svg width="492pt" height="357pt"
 viewBox="0.00 0.00 492.00 357.00" xmlns="http://www.w3.org/2000/svg" xmlns:xlink="http://www.w3.org/1999/xlink">
<g id="graph0" class="graph" transform="scale(1 1) rotate(0) translate(4 353)">
<title>QPALM/src/scaling.c</title>
<!-- Node1 -->
<g id="Node000001" class="node">
<title>Node1</title>
<g id="a_Node000001"><a xlink:title="Problem data scaling during setup.">
<polygon fill="#999999" stroke="#666666" points="209.5,-349 96.5,-349 96.5,-330 209.5,-330 209.5,-349"/>
<text text-anchor="middle" x="153" y="-337" font-family="Helvetica,sans-Serif" font-size="10.00">QPALM/src/scaling.c</text>
</a>
</g>
</g>
<!-- Node2 -->
<g id="Node000002" class="node">
<title>Node2</title>
<g id="a_Node000002"><a xlink:title=" ">
<polygon fill="#e0e0e0" stroke="#999999" points="50,-294 0,-294 0,-275 50,-275 50,-294"/>
<text text-anchor="middle" x="25" y="-282" font-family="Helvetica,sans-Serif" font-size="10.00">stdio.h</text>
</a>
</g>
</g>
<!-- Node1&#45;&gt;Node2 -->
<g id="edge1_Node000001_Node000002" class="edge">
<title>Node1&#45;&gt;Node2</title>
<g id="a_edge1_Node000001_Node000002"><a xlink:title=" ">
<path fill="none" stroke="#63b8ff" d="M132.43,-329.98C111.57,-321.34 79.03,-307.87 55.23,-298.02"/>
<polygon fill="#63b8ff" stroke="#63b8ff" points="56.52,-294.76 45.94,-294.17 53.84,-301.23 56.52,-294.76"/>
</a>
</g>
</g>
<!-- Node3 -->
<g id="Node000003" class="node">
<title>Node3</title>
<g id="a_Node000003"><a xlink:href="scaling_8h.html" target="_top" xlink:title="Problem data scaling during setup.">
<polygon fill="white" stroke="#666666" points="238,-294 144,-294 144,-275 238,-275 238,-294"/>
<text text-anchor="middle" x="191" y="-282" font-family="Helvetica,sans-Serif" font-size="10.00">qpalm/scaling.h</text>
</a>
</g>
</g>
<!-- Node1&#45;&gt;Node3 -->
<g id="edge2_Node000001_Node000003" class="edge">
<title>Node1&#45;&gt;Node3</title>
<g id="a_edge2_Node000001_Node000003"><a xlink:title=" ">
<path fill="none" stroke="#63b8ff" d="M159.27,-329.75C164.59,-322.34 172.36,-311.5 178.88,-302.41"/>
<polygon fill="#63b8ff" stroke="#63b8ff" points="181.86,-304.26 184.84,-294.09 176.17,-300.18 181.86,-304.26"/>
</a>
</g>
</g>
<!-- Node7 -->
<g id="Node000007" class="node">
<title>Node7</title>
<g id="a_Node000007"><a xlink:title=" ">
<polygon fill="#e0e0e0" stroke="#999999" points="235,-19 185,-19 185,0 235,0 235,-19"/>
<text text-anchor="middle" x="210" y="-7" font-family="Helvetica,sans-Serif" font-size="10.00">ladel.h</text>
</a>
</g>
</g>
<!-- Node1&#45;&gt;Node7 -->
<g id="edge19_Node000001_Node000007" class="edge">
<title>Node1&#45;&gt;Node7</title>
<g id="a_edge19_Node000001_Node000007"><a xlink:title=" ">
<path fill="none" stroke="#63b8ff" d="M141.28,-329.84C120.19,-313.16 78,-274.33 78,-230.5 78,-230.5 78,-230.5 78,-118.5 78,-68.14 136.27,-37.02 175.38,-21.81"/>
<polygon fill="#63b8ff" stroke="#63b8ff" points="176.71,-25.05 184.86,-18.28 174.27,-18.49 176.71,-25.05"/>
</a>
</g>
</g>
<!-- Node9 -->
<g id="Node000009" class="node">
<title>Node9</title>
<g id="a_Node000009"><a xlink:href="lin__alg_8h.html" target="_top" xlink:title="Linear algebra with vectors.">
<polygon fill="white" stroke="#666666" points="406,-239 348,-239 348,-220 406,-220 406,-239"/>
<text text-anchor="middle" x="377" y="-227" font-family="Helvetica,sans-Serif" font-size="10.00">lin_alg.h</text>
</a>
</g>
</g>
<!-- Node1&#45;&gt;Node9 -->
<g id="edge18_Node000001_Node000009" class="edge">
<title>Node1&#45;&gt;Node9</title>
<g id="a_edge18_Node000001_Node000009"><a xlink:title=" ">
<path fill="none" stroke="#63b8ff" d="M171.4,-329.87C190.38,-320.95 220.8,-306.6 247,-294 282.73,-276.82 323.82,-256.68 350.08,-243.77"/>
<polygon fill="#63b8ff" stroke="#63b8ff" points="351.94,-246.75 359.37,-239.2 348.85,-240.47 351.94,-246.75"/>
</a>
</g>
</g>
<!-- Node4 -->
<g id="Node000004" class="node">
<title>Node4</title>
<g id="a_Node000004"><a xlink:href="types_8h.html" target="_top" xlink:title="Internal data structures used in QPALM.">
<polygon fill="white" stroke="#666666" points="393.5,-129 340.5,-129 340.5,-110 393.5,-110 393.5,-129"/>
<text text-anchor="middle" x="367" y="-117" font-family="Helvetica,sans-Serif" font-size="10.00">types.h</text>
</a>
</g>
</g>
<!-- Node3&#45;&gt;Node4 -->
<g id="edge3_Node000003_Node000004" class="edge">
<title>Node3&#45;&gt;Node4</title>
<g id="a_edge3_Node000003_Node000004"><a xlink:title=" ">
<path fill="none" stroke="#63b8ff" d="M204.41,-274.97C228.99,-258.98 282.18,-222.58 320,-184 333.91,-169.81 347.12,-151.35 355.98,-138"/>
<polygon fill="#63b8ff" stroke="#63b8ff" points="359.11,-139.6 361.6,-129.31 353.23,-135.8 359.11,-139.6"/>
</a>
</g>
</g>
<!-- Node3&#45;&gt;Node9 -->
<g id="edge9_Node000003_Node000009" class="edge">
<title>Node3&#45;&gt;Node9</title>
<g id="a_edge9_Node000003_Node000009"><a xlink:title=" ">
<path fill="none" stroke="#63b8ff" d="M220.88,-274.98C252.66,-265.93 303.06,-251.57 337.95,-241.63"/>
<polygon fill="#63b8ff" stroke="#63b8ff" points="339.15,-244.93 347.8,-238.82 337.23,-238.19 339.15,-244.93"/>
</a>
</g>
</g>
<!-- Node11 -->
<g id="Node000011" class="node">
<title>Node11</title>
<g id="a_Node000011"><a xlink:href="constants_8h.html" target="_top" xlink:title="Constants used in QPALM.">
<polygon fill="white" stroke="#666666" points="213.5,-129 106.5,-129 106.5,-110 213.5,-110 213.5,-129"/>
<text text-anchor="middle" x="160" y="-117" font-family="Helvetica,sans-Serif" font-size="10.00">qpalm/constants.h</text>
</a>
</g>
</g>
<!-- Node3&#45;&gt;Node11 -->
<g id="edge17_Node000003_Node000011" class="edge">
<title>Node3&#45;&gt;Node11</title>
<g id="a_edge17_Node000003_Node000011"><a xlink:title=" ">
<path fill="none" stroke="#63b8ff" d="M188.01,-274.85C182.25,-257.73 169.67,-218.26 164,-184 161.54,-169.15 160.57,-152.11 160.19,-139.43"/>
<polygon fill="#63b8ff" stroke="#63b8ff" points="163.69,-139.12 159.99,-129.19 156.69,-139.26 163.69,-139.12"/>
</a>
</g>
</g>
<!-- Node5 -->
<g id="Node000005" class="node">
<title>Node5</title>
<g id="a_Node000005"><a xlink:title=" ">
<polygon fill="#e0e0e0" stroke="#999999" points="484,-74 410,-74 410,-55 484,-55 484,-74"/>
<text text-anchor="middle" x="447" y="-62" font-family="Helvetica,sans-Serif" font-size="10.00">stdatomic.h</text>
</a>
</g>
</g>
<!-- Node4&#45;&gt;Node5 -->
<g id="edge4_Node000004_Node000005" class="edge">
<title>Node4&#45;&gt;Node5</title>
<g id="a_edge4_Node000004_Node000005"><a xlink:title=" ">
<path fill="none" stroke="#63b8ff" d="M379.85,-109.98C392.14,-101.84 410.91,-89.41 425.48,-79.76"/>
<polygon fill="#63b8ff" stroke="#63b8ff" points="427.51,-82.61 433.91,-74.17 423.64,-76.78 427.51,-82.61"/>
</a>
</g>
</g>
<!-- Node6 -->
<g id="Node000006" class="node">
<title>Node6</title>
<g id="a_Node000006"><a xlink:href="global__opts_8h.html" target="_top" xlink:title="Custom memory allocation, print and utility functions, and data types for floats and ints.">
<polygon fill="white" stroke="#666666" points="354,-74 238,-74 238,-55 354,-55 354,-74"/>
<text text-anchor="middle" x="296" y="-62" font-family="Helvetica,sans-Serif" font-size="10.00">qpalm/global_opts.h</text>
</a>
</g>
</g>
<!-- Node4&#45;&gt;Node6 -->
<g id="edge5_Node000004_Node000006" class="edge">
<title>Node4&#45;&gt;Node6</title>
<g id="a_edge5_Node000004_Node000006"><a xlink:title=" ">
<path fill="none" stroke="#63b8ff" d="M355.59,-109.98C344.89,-102 328.66,-89.88 315.84,-80.31"/>
<polygon fill="#63b8ff" stroke="#63b8ff" points="317.72,-77.35 307.61,-74.17 313.53,-82.96 317.72,-77.35"/>
</a>
</g>
</g>
<!-- Node4&#45;&gt;Node7 -->
<g id="edge8_Node000004_Node000007" class="edge">
<title>Node4&#45;&gt;Node7</title>
<g id="a_edge8_Node000004_Node000007"><a xlink:title=" ">
<path fill="none" stroke="#63b8ff" d="M369.34,-109.58C372.29,-96.17 375.57,-70.69 363,-55 355.5,-45.63 287.82,-28.51 245.03,-18.45"/>
<polygon fill="#63b8ff" stroke="#63b8ff" points="245.79,-15.04 235.26,-16.18 244.21,-21.86 245.79,-15.04"/>
</a>
</g>
</g>
<!-- Node6&#45;&gt;Node7 -->
<g id="edge6_Node000006_Node000007" class="edge">
<title>Node6&#45;&gt;Node7</title>
<g id="a_edge6_Node000006_Node000007"><a xlink:title=" ">
<path fill="none" stroke="#63b8ff" d="M282.18,-54.98C268.85,-46.77 248.42,-34.18 232.69,-24.49"/>
<polygon fill="#63b8ff" stroke="#63b8ff" points="234.42,-21.44 224.07,-19.17 230.75,-27.4 234.42,-21.44"/>
</a>
</g>
</g>
<!-- Node8 -->
<g id="Node000008" class="node">
<title>Node8</title>
<g id="a_Node000008"><a xlink:title=" ">
<polygon fill="#e0e0e0" stroke="#999999" points="321.5,-19 270.5,-19 270.5,0 321.5,0 321.5,-19"/>
<text text-anchor="middle" x="296" y="-7" font-family="Helvetica,sans-Serif" font-size="10.00">math.h</text>
</a>
</g>
</g>
<!-- Node6&#45;&gt;Node8 -->
<g id="edge7_Node000006_Node000008" class="edge">
<title>Node6&#45;&gt;Node8</title>
<g id="a_edge7_Node000006_Node000008"><a xlink:title=" ">
<path fill="none" stroke="#63b8ff" d="M296,-54.75C296,-47.8 296,-37.85 296,-29.13"/>
<polygon fill="#63b8ff" stroke="#63b8ff" points="299.5,-29.09 296,-19.09 292.5,-29.09 299.5,-29.09"/>
</a>
</g>
</g>
<!-- Node9&#45;&gt;Node4 -->
<g id="edge10_Node000009_Node000004" class="edge">
<title>Node9&#45;&gt;Node4</title>
<g id="a_edge10_Node000009_Node000004"><a xlink:title=" ">
<path fill="none" stroke="#63b8ff" d="M376.18,-219.66C374.56,-202.17 370.92,-162.8 368.74,-139.27"/>
<polygon fill="#63b8ff" stroke="#63b8ff" points="372.21,-138.79 367.8,-129.16 365.24,-139.44 372.21,-138.79"/>
</a>
</g>
</g>
<!-- Node10 -->
<g id="Node000010" class="node">
<title>Node10</title>
<g id="a_Node000010"><a xlink:href="solver__interface_8h.html" target="_top" xlink:title="Interface and wrapper to matrix/factorization (ladel) functions.">
<polygon fill="white" stroke="#666666" points="311,-184 173,-184 173,-165 311,-165 311,-184"/>
<text text-anchor="middle" x="242" y="-172" font-family="Helvetica,sans-Serif" font-size="10.00">qpalm/solver_interface.h</text>
</a>
</g>
</g>
<!-- Node9&#45;&gt;Node10 -->
<g id="edge11_Node000009_Node000010" class="edge">
<title>Node9&#45;&gt;Node10</title>
<g id="a_edge11_Node000009_Node000010"><a xlink:title=" ">
<path fill="none" stroke="#63b8ff" d="M355.31,-219.98C333.2,-211.3 298.68,-197.75 273.55,-187.88"/>
<polygon fill="#63b8ff" stroke="#63b8ff" points="274.67,-184.57 264.08,-184.17 272.11,-191.08 274.67,-184.57"/>
</a>
</g>
</g>
<!-- Node10&#45;&gt;Node4 -->
<g id="edge15_Node000010_Node000004" class="edge">
<title>Node10&#45;&gt;Node4</title>
<g id="a_edge15_Node000010_Node000004"><a xlink:title=" ">
<path fill="none" stroke="#63b8ff" d="M262.08,-164.98C282.37,-156.38 313.96,-142.99 337.17,-133.15"/>
<polygon fill="#63b8ff" stroke="#63b8ff" points="338.71,-136.3 346.55,-129.17 335.98,-129.85 338.71,-136.3"/>
</a>
</g>
</g>
<!-- Node10&#45;&gt;Node6 -->
<g id="edge12_Node000010_Node000006" class="edge">
<title>Node10&#45;&gt;Node6</title>
<g id="a_edge12_Node000010_Node000006"><a xlink:title=" ">
<path fill="none" stroke="#63b8ff" d="M246.42,-164.66C255.28,-146.93 275.39,-106.73 287.09,-83.32"/>
<polygon fill="#63b8ff" stroke="#63b8ff" points="290.33,-84.67 291.67,-74.16 284.07,-81.54 290.33,-84.67"/>
</a>
</g>
</g>
<!-- Node10&#45;&gt;Node7 -->
<g id="edge16_Node000010_Node000007" class="edge">
<title>Node10&#45;&gt;Node7</title>
<g id="a_edge16_Node000010_Node000007"><a xlink:title=" ">
<path fill="none" stroke="#63b8ff" d="M240.28,-164.74C235.27,-139.2 220.59,-64.43 213.68,-29.23"/>
<polygon fill="#63b8ff" stroke="#63b8ff" points="217.09,-28.45 211.73,-19.31 210.22,-29.79 217.09,-28.45"/>
</a>
</g>
</g>
<!-- Node10&#45;&gt;Node11 -->
<g id="edge13_Node000010_Node000011" class="edge">
<title>Node10&#45;&gt;Node11</title>
<g id="a_edge13_Node000010_Node000011"><a xlink:title=" ">
<path fill="none" stroke="#63b8ff" d="M228.83,-164.98C216.23,-156.84 197,-144.41 182.06,-134.76"/>
<polygon fill="#63b8ff" stroke="#63b8ff" points="183.71,-131.66 173.41,-129.17 179.91,-137.54 183.71,-131.66"/>
</a>
</g>
</g>
<!-- Node11&#45;&gt;Node7 -->
<g id="edge14_Node000011_Node000007" class="edge">
<title>Node11&#45;&gt;Node7</title>
<g id="a_edge14_Node000011_Node000007"><a xlink:title=" ">
<path fill="none" stroke="#63b8ff" d="M164.09,-109.66C172.3,-91.93 190.91,-51.73 201.75,-28.32"/>
<polygon fill="#63b8ff" stroke="#63b8ff" points="204.97,-29.7 205.99,-19.16 198.61,-26.76 204.97,-29.7"/>
</a>
</g>
</g>
</g>
</svg>
