<?xml version="1.0" encoding="UTF-8" standalone="no"?>
<!DOCTYPE svg PUBLIC "-//W3C//DTD SVG 1.1//EN"
 "http://www.w3.org/Graphics/SVG/1.1/DTD/svg11.dtd">
<!-- Generated by graphviz version 2.43.0 (0)
 -->
<!-- Title: unscale_data Pages: 1 -->
<svg width="244pt" height="64pt"
 viewBox="0.00 0.00 244.00 64.00" xmlns="http://www.w3.org/2000/svg" xmlns:xlink="http://www.w3.org/1999/xlink">
<g id="graph0" class="graph" transform="scale(1 1) rotate(0) translate(4 60)">
<title>unscale_data</title>
<!-- Node1 -->
<g id="Node000001" class="node">
<title>Node1</title>
<g id="a_Node000001"><a xlink:title="Unscale the problem data.">
<polygon fill="#999999" stroke="#666666" points="81,-37 0,-37 0,-18 81,-18 81,-37"/>
<text text-anchor="middle" x="40.5" y="-25" font-family="Helvetica,sans-Serif" font-size="10.00">unscale_data</text>
</a>
</g>
</g>
<!-- Node2 -->
<g id="Node000002" class="node">
<title>Node2</title>
<g id="a_Node000002"><a xlink:href="lin__alg_8c.html#ab48ddb2d35dd1a04bd27f06cb49400cb" target="_top" xlink:title="Elementwise product, .">
<polygon fill="white" stroke="#666666" points="216.5,-56 136.5,-56 136.5,-37 216.5,-37 216.5,-56"/>
<text text-anchor="middle" x="176.5" y="-44" font-family="Helvetica,sans-Serif" font-size="10.00">vec_ew_prod</text>
</a>
</g>
</g>
<!-- Node1&#45;&gt;Node2 -->
<g id="edge1_Node000001_Node000002" class="edge">
<title>Node1&#45;&gt;Node2</title>
<g id="a_edge1_Node000001_Node000002"><a xlink:title=" ">
<path fill="none" stroke="#63b8ff" d="M81.34,-33.15C95.38,-35.14 111.34,-37.4 126.07,-39.49"/>
<polygon fill="#63b8ff" stroke="#63b8ff" points="125.65,-42.97 136.04,-40.91 126.63,-36.04 125.65,-42.97"/>
</a>
</g>
</g>
<!-- Node3 -->
<g id="Node000003" class="node">
<title>Node3</title>
<g id="a_Node000003"><a xlink:href="lin__alg_8c.html#a932b289ad07aea70e64b417ef9160674" target="_top" xlink:title="Mulitply vector with a constant scale factor.">
<polygon fill="white" stroke="#666666" points="236,-19 117,-19 117,0 236,0 236,-19"/>
<text text-anchor="middle" x="176.5" y="-7" font-family="Helvetica,sans-Serif" font-size="10.00">vec_self_mult_scalar</text>
</a>
</g>
</g>
<!-- Node1&#45;&gt;Node3 -->
<g id="edge2_Node000001_Node000003" class="edge">
<title>Node1&#45;&gt;Node3</title>
<g id="a_edge2_Node000001_Node000003"><a xlink:title=" ">
<path fill="none" stroke="#63b8ff" d="M81.34,-22.15C89.33,-21.08 97.93,-19.92 106.58,-18.76"/>
<polygon fill="#63b8ff" stroke="#63b8ff" points="107.27,-22.2 116.71,-17.4 106.34,-15.26 107.27,-22.2"/>
</a>
</g>
</g>
</g>
</svg>
