<?xml version="1.0" encoding="UTF-8" standalone="no"?>
<!DOCTYPE svg PUBLIC "-//W3C//DTD SVG 1.1//EN"
 "http://www.w3.org/Graphics/SVG/1.1/DTD/svg11.dtd">
<!-- Generated by graphviz version 2.43.0 (0)
 -->
<!-- Title: QPALM/src/termination.c Pages: 1 -->
<svg width="462pt" height="302pt"
 viewBox="0.00 0.00 461.80 302.00" xmlns="http://www.w3.org/2000/svg" xmlns:xlink="http://www.w3.org/1999/xlink">
<g id="graph0" class="graph" transform="scale(1 1) rotate(0) translate(4 298)">
<title>QPALM/src/termination.c</title>
<!-- Node1 -->
<g id="Node000001" class="node">
<title>Node1</title>
<g id="a_Node000001"><a xlink:title="Routines to check the termination and infeasibility criteria.">
<polygon fill="#999999" stroke="#666666" points="310.56,-294 174.56,-294 174.56,-275 310.56,-275 310.56,-294"/>
<text text-anchor="middle" x="242.56" y="-282" font-family="Helvetica,sans-Serif" font-size="10.00">QPALM/src/termination.c</text>
</a>
</g>
</g>
<!-- Node2 -->
<g id="Node000002" class="node">
<title>Node2</title>
<g id="a_Node000002"><a xlink:href="termination_8h.html" target="_top" xlink:title="Routines to check the termination and infeasibility criteria.">
<polygon fill="white" stroke="#666666" points="361.56,-239 245.56,-239 245.56,-220 361.56,-220 361.56,-239"/>
<text text-anchor="middle" x="303.56" y="-227" font-family="Helvetica,sans-Serif" font-size="10.00">qpalm/termination.h</text>
</a>
</g>
</g>
<!-- Node1&#45;&gt;Node2 -->
<g id="edge1_Node000001_Node000002" class="edge">
<title>Node1&#45;&gt;Node2</title>
<g id="a_edge1_Node000001_Node000002"><a xlink:title=" ">
<path fill="none" stroke="#63b8ff" d="M252.36,-274.98C261.38,-267.15 274.97,-255.34 285.88,-245.86"/>
<polygon fill="#63b8ff" stroke="#63b8ff" points="288.33,-248.37 293.58,-239.17 283.74,-243.09 288.33,-248.37"/>
</a>
</g>
</g>
<!-- Node5 -->
<g id="Node000005" class="node">
<title>Node5</title>
<g id="a_Node000005"><a xlink:href="global__opts_8h.html" target="_top" xlink:title="Custom memory allocation, print and utility functions, and data types for floats and ints.">
<polygon fill="white" stroke="#666666" points="426.56,-74 310.56,-74 310.56,-55 426.56,-55 426.56,-74"/>
<text text-anchor="middle" x="368.56" y="-62" font-family="Helvetica,sans-Serif" font-size="10.00">qpalm/global_opts.h</text>
</a>
</g>
</g>
<!-- Node1&#45;&gt;Node5 -->
<g id="edge17_Node000001_Node000005" class="edge">
<title>Node1&#45;&gt;Node5</title>
<g id="a_edge17_Node000001_Node000005"><a xlink:title=" ">
<path fill="none" stroke="#63b8ff" d="M305.46,-274.99C356.98,-264.07 425.2,-239.39 449.56,-184 467.57,-143.07 420.54,-101.3 390.79,-79.97"/>
<polygon fill="#63b8ff" stroke="#63b8ff" points="392.43,-76.85 382.21,-74.04 388.44,-82.6 392.43,-76.85"/>
</a>
</g>
</g>
<!-- Node8 -->
<g id="Node000008" class="node">
<title>Node8</title>
<g id="a_Node000008"><a xlink:href="lin__alg_8h.html" target="_top" xlink:title="Linear algebra with vectors.">
<polygon fill="white" stroke="#666666" points="227.56,-239 135.56,-239 135.56,-220 227.56,-220 227.56,-239"/>
<text text-anchor="middle" x="181.56" y="-227" font-family="Helvetica,sans-Serif" font-size="10.00">qpalm/lin_alg.h</text>
</a>
</g>
</g>
<!-- Node1&#45;&gt;Node8 -->
<g id="edge8_Node000001_Node000008" class="edge">
<title>Node1&#45;&gt;Node8</title>
<g id="a_edge8_Node000001_Node000008"><a xlink:title=" ">
<path fill="none" stroke="#63b8ff" d="M232.76,-274.98C223.74,-267.15 210.15,-255.34 199.24,-245.86"/>
<polygon fill="#63b8ff" stroke="#63b8ff" points="201.38,-243.09 191.54,-239.17 196.79,-248.37 201.38,-243.09"/>
</a>
</g>
</g>
<!-- Node10 -->
<g id="Node000010" class="node">
<title>Node10</title>
<g id="a_Node000010"><a xlink:href="constants_8h.html" target="_top" xlink:title="Constants used in QPALM.">
<polygon fill="white" stroke="#666666" points="119.06,-129 12.06,-129 12.06,-110 119.06,-110 119.06,-129"/>
<text text-anchor="middle" x="65.56" y="-117" font-family="Helvetica,sans-Serif" font-size="10.00">qpalm/constants.h</text>
</a>
</g>
</g>
<!-- Node1&#45;&gt;Node10 -->
<g id="edge16_Node000001_Node000010" class="edge">
<title>Node1&#45;&gt;Node10</title>
<g id="a_edge16_Node000001_Node000010"><a xlink:title=" ">
<path fill="none" stroke="#63b8ff" d="M174.46,-277.2C116.6,-267.68 37.69,-243.83 3.56,-184 -7.93,-163.86 15.52,-145.45 36.8,-133.7"/>
<polygon fill="#63b8ff" stroke="#63b8ff" points="38.42,-136.81 45.67,-129.09 35.19,-130.59 38.42,-136.81"/>
</a>
</g>
</g>
<!-- Node11 -->
<g id="Node000011" class="node">
<title>Node11</title>
<g id="a_Node000011"><a xlink:href="util_8h.html" target="_top" xlink:title="Utility functions.">
<polygon fill="white" stroke="#666666" points="88.06,-184 13.06,-184 13.06,-165 88.06,-165 88.06,-184"/>
<text text-anchor="middle" x="50.56" y="-172" font-family="Helvetica,sans-Serif" font-size="10.00">qpalm/util.h</text>
</a>
</g>
</g>
<!-- Node1&#45;&gt;Node11 -->
<g id="edge18_Node000001_Node000011" class="edge">
<title>Node1&#45;&gt;Node11</title>
<g id="a_edge18_Node000001_Node000011"><a xlink:title=" ">
<path fill="none" stroke="#63b8ff" d="M212.25,-274.9C188.09,-267.35 153.9,-255.06 126.56,-239 103.8,-225.63 81,-205.45 66.39,-191.44"/>
<polygon fill="#63b8ff" stroke="#63b8ff" points="68.77,-188.87 59.18,-184.38 63.87,-193.87 68.77,-188.87"/>
</a>
</g>
</g>
<!-- Node12 -->
<g id="Node000012" class="node">
<title>Node12</title>
<g id="a_Node000012"><a xlink:href="iteration_8h.html" target="_top" xlink:title="QPALM main solver routines.">
<polygon fill="white" stroke="#666666" points="440.06,-184 339.06,-184 339.06,-165 440.06,-165 440.06,-184"/>
<text text-anchor="middle" x="389.56" y="-172" font-family="Helvetica,sans-Serif" font-size="10.00">qpalm/iteration.h</text>
</a>
</g>
</g>
<!-- Node1&#45;&gt;Node12 -->
<g id="edge21_Node000001_Node000012" class="edge">
<title>Node1&#45;&gt;Node12</title>
<g id="a_edge21_Node000001_Node000012"><a xlink:title=" ">
<path fill="none" stroke="#63b8ff" d="M302.18,-274.92C326.28,-268.64 352.59,-257.78 370.56,-239 382.11,-226.93 386.67,-208.13 388.46,-194.11"/>
<polygon fill="#63b8ff" stroke="#63b8ff" points="391.94,-194.39 389.37,-184.11 384.97,-193.75 391.94,-194.39"/>
</a>
</g>
</g>
<!-- Node3 -->
<g id="Node000003" class="node">
<title>Node3</title>
<g id="a_Node000003"><a xlink:href="types_8h.html" target="_top" xlink:title="Internal data structures used in QPALM.">
<polygon fill="white" stroke="#666666" points="320.56,-129 234.56,-129 234.56,-110 320.56,-110 320.56,-129"/>
<text text-anchor="middle" x="277.56" y="-117" font-family="Helvetica,sans-Serif" font-size="10.00">qpalm/types.h</text>
</a>
</g>
</g>
<!-- Node2&#45;&gt;Node3 -->
<g id="edge2_Node000002_Node000003" class="edge">
<title>Node2&#45;&gt;Node3</title>
<g id="a_edge2_Node000002_Node000003"><a xlink:title=" ">
<path fill="none" stroke="#63b8ff" d="M301.43,-219.66C297.2,-202.09 287.66,-162.45 282,-138.95"/>
<polygon fill="#63b8ff" stroke="#63b8ff" points="285.39,-138.06 279.65,-129.16 278.58,-139.7 285.39,-138.06"/>
</a>
</g>
</g>
<!-- Node4 -->
<g id="Node000004" class="node">
<title>Node4</title>
<g id="a_Node000004"><a xlink:title=" ">
<polygon fill="#e0e0e0" stroke="#999999" points="254.56,-74 180.56,-74 180.56,-55 254.56,-55 254.56,-74"/>
<text text-anchor="middle" x="217.56" y="-62" font-family="Helvetica,sans-Serif" font-size="10.00">stdatomic.h</text>
</a>
</g>
</g>
<!-- Node3&#45;&gt;Node4 -->
<g id="edge3_Node000003_Node000004" class="edge">
<title>Node3&#45;&gt;Node4</title>
<g id="a_edge3_Node000003_Node000004"><a xlink:title=" ">
<path fill="none" stroke="#63b8ff" d="M267.92,-109.98C259.05,-102.15 245.69,-90.34 234.95,-80.86"/>
<polygon fill="#63b8ff" stroke="#63b8ff" points="237.19,-78.17 227.38,-74.17 232.55,-83.41 237.19,-78.17"/>
</a>
</g>
</g>
<!-- Node3&#45;&gt;Node5 -->
<g id="edge4_Node000003_Node000005" class="edge">
<title>Node3&#45;&gt;Node5</title>
<g id="a_edge4_Node000003_Node000005"><a xlink:title=" ">
<path fill="none" stroke="#63b8ff" d="M292.18,-109.98C306.43,-101.69 328.31,-88.94 345.01,-79.22"/>
<polygon fill="#63b8ff" stroke="#63b8ff" points="346.79,-82.23 353.67,-74.17 343.27,-76.18 346.79,-82.23"/>
</a>
</g>
</g>
<!-- Node6 -->
<g id="Node000006" class="node">
<title>Node6</title>
<g id="a_Node000006"><a xlink:title=" ">
<polygon fill="#e0e0e0" stroke="#999999" points="242.56,-19 192.56,-19 192.56,0 242.56,0 242.56,-19"/>
<text text-anchor="middle" x="217.56" y="-7" font-family="Helvetica,sans-Serif" font-size="10.00">ladel.h</text>
</a>
</g>
</g>
<!-- Node3&#45;&gt;Node6 -->
<g id="edge7_Node000003_Node000006" class="edge">
<title>Node3&#45;&gt;Node6</title>
<g id="a_edge7_Node000003_Node000006"><a xlink:title=" ">
<path fill="none" stroke="#63b8ff" d="M277.21,-109.72C276.37,-96.93 273.47,-72.74 263.56,-55 257.25,-43.71 247.18,-33.49 238.06,-25.7"/>
<polygon fill="#63b8ff" stroke="#63b8ff" points="240.07,-22.82 230.09,-19.27 235.67,-28.27 240.07,-22.82"/>
</a>
</g>
</g>
<!-- Node5&#45;&gt;Node6 -->
<g id="edge5_Node000005_Node000006" class="edge">
<title>Node5&#45;&gt;Node6</title>
<g id="a_edge5_Node000005_Node000006"><a xlink:title=" ">
<path fill="none" stroke="#63b8ff" d="M344.3,-54.98C319.24,-46.19 279.93,-32.39 251.73,-22.49"/>
<polygon fill="#63b8ff" stroke="#63b8ff" points="252.86,-19.18 242.26,-19.17 250.54,-25.78 252.86,-19.18"/>
</a>
</g>
</g>
<!-- Node7 -->
<g id="Node000007" class="node">
<title>Node7</title>
<g id="a_Node000007"><a xlink:title=" ">
<polygon fill="#e0e0e0" stroke="#999999" points="394.06,-19 343.06,-19 343.06,0 394.06,0 394.06,-19"/>
<text text-anchor="middle" x="368.56" y="-7" font-family="Helvetica,sans-Serif" font-size="10.00">math.h</text>
</a>
</g>
</g>
<!-- Node5&#45;&gt;Node7 -->
<g id="edge6_Node000005_Node000007" class="edge">
<title>Node5&#45;&gt;Node7</title>
<g id="a_edge6_Node000005_Node000007"><a xlink:title=" ">
<path fill="none" stroke="#63b8ff" d="M368.56,-54.75C368.56,-47.8 368.56,-37.85 368.56,-29.13"/>
<polygon fill="#63b8ff" stroke="#63b8ff" points="372.06,-29.09 368.56,-19.09 365.06,-29.09 372.06,-29.09"/>
</a>
</g>
</g>
<!-- Node8&#45;&gt;Node3 -->
<g id="edge9_Node000008_Node000003" class="edge">
<title>Node8&#45;&gt;Node3</title>
<g id="a_edge9_Node000008_Node000003"><a xlink:title=" ">
<path fill="none" stroke="#63b8ff" d="M202.79,-219.93C218.71,-212.54 240.01,-200.44 253.56,-184 264.22,-171.07 270.44,-152.91 273.87,-139.32"/>
<polygon fill="#63b8ff" stroke="#63b8ff" points="277.36,-139.72 276.12,-129.2 270.53,-138.2 277.36,-139.72"/>
</a>
</g>
</g>
<!-- Node9 -->
<g id="Node000009" class="node">
<title>Node9</title>
<g id="a_Node000009"><a xlink:href="solver__interface_8h.html" target="_top" xlink:title="Interface and wrapper to matrix/factorization (ladel) functions.">
<polygon fill="white" stroke="#666666" points="244.56,-184 106.56,-184 106.56,-165 244.56,-165 244.56,-184"/>
<text text-anchor="middle" x="175.56" y="-172" font-family="Helvetica,sans-Serif" font-size="10.00">qpalm/solver_interface.h</text>
</a>
</g>
</g>
<!-- Node8&#45;&gt;Node9 -->
<g id="edge10_Node000008_Node000009" class="edge">
<title>Node8&#45;&gt;Node9</title>
<g id="a_edge10_Node000008_Node000009"><a xlink:title=" ">
<path fill="none" stroke="#63b8ff" d="M180.57,-219.75C179.78,-212.8 178.66,-202.85 177.67,-194.13"/>
<polygon fill="#63b8ff" stroke="#63b8ff" points="181.14,-193.63 176.53,-184.09 174.18,-194.42 181.14,-193.63"/>
</a>
</g>
</g>
<!-- Node9&#45;&gt;Node3 -->
<g id="edge14_Node000009_Node000003" class="edge">
<title>Node9&#45;&gt;Node3</title>
<g id="a_edge14_Node000009_Node000003"><a xlink:title=" ">
<path fill="none" stroke="#63b8ff" d="M191.95,-164.98C208.14,-156.57 233.13,-143.59 251.94,-133.81"/>
<polygon fill="#63b8ff" stroke="#63b8ff" points="253.61,-136.89 260.87,-129.17 250.39,-130.68 253.61,-136.89"/>
</a>
</g>
</g>
<!-- Node9&#45;&gt;Node5 -->
<g id="edge11_Node000009_Node000005" class="edge">
<title>Node9&#45;&gt;Node5</title>
<g id="a_edge11_Node000009_Node000005"><a xlink:title=" ">
<path fill="none" stroke="#63b8ff" d="M180.15,-164.73C187.77,-151.04 204.29,-124.64 225.56,-110 249.3,-93.66 279.29,-83.13 305.67,-76.44"/>
<polygon fill="#63b8ff" stroke="#63b8ff" points="306.67,-79.8 315.58,-74.06 305.04,-72.99 306.67,-79.8"/>
</a>
</g>
</g>
<!-- Node9&#45;&gt;Node6 -->
<g id="edge15_Node000009_Node000006" class="edge">
<title>Node9&#45;&gt;Node6</title>
<g id="a_edge15_Node000009_Node000006"><a xlink:title=" ">
<path fill="none" stroke="#63b8ff" d="M172.85,-164.72C167.09,-144.42 155.41,-93.09 171.56,-55 176.54,-43.25 186.31,-33.09 195.57,-25.45"/>
<polygon fill="#63b8ff" stroke="#63b8ff" points="197.96,-28.03 203.78,-19.18 193.71,-22.47 197.96,-28.03"/>
</a>
</g>
</g>
<!-- Node9&#45;&gt;Node10 -->
<g id="edge12_Node000009_Node000010" class="edge">
<title>Node9&#45;&gt;Node10</title>
<g id="a_edge12_Node000009_Node000010"><a xlink:title=" ">
<path fill="none" stroke="#63b8ff" d="M157.89,-164.98C140.27,-156.5 112.98,-143.35 92.64,-133.54"/>
<polygon fill="#63b8ff" stroke="#63b8ff" points="94.08,-130.36 83.56,-129.17 91.05,-136.66 94.08,-130.36"/>
</a>
</g>
</g>
<!-- Node10&#45;&gt;Node6 -->
<g id="edge13_Node000010_Node000006" class="edge">
<title>Node10&#45;&gt;Node6</title>
<g id="a_edge13_Node000010_Node000006"><a xlink:title=" ">
<path fill="none" stroke="#63b8ff" d="M74.51,-109.64C87.8,-96.74 113.86,-72.43 138.56,-55 155.18,-43.28 175.14,-32.05 190.84,-23.81"/>
<polygon fill="#63b8ff" stroke="#63b8ff" points="192.72,-26.78 200,-19.09 189.51,-20.56 192.72,-26.78"/>
</a>
</g>
</g>
<!-- Node11&#45;&gt;Node3 -->
<g id="edge19_Node000011_Node000003" class="edge">
<title>Node11&#45;&gt;Node3</title>
<g id="a_edge19_Node000011_Node000003"><a xlink:title=" ">
<path fill="none" stroke="#63b8ff" d="M87.03,-164.98C126.13,-155.86 188.33,-141.33 230.95,-131.38"/>
<polygon fill="#63b8ff" stroke="#63b8ff" points="231.86,-134.76 240.8,-129.08 230.27,-127.95 231.86,-134.76"/>
</a>
</g>
</g>
<!-- Node11&#45;&gt;Node10 -->
<g id="edge20_Node000011_Node000010" class="edge">
<title>Node11&#45;&gt;Node10</title>
<g id="a_edge20_Node000011_Node000010"><a xlink:title=" ">
<path fill="none" stroke="#63b8ff" d="M53.04,-164.75C55.03,-157.72 57.88,-147.62 60.37,-138.84"/>
<polygon fill="#63b8ff" stroke="#63b8ff" points="63.77,-139.66 63.13,-129.09 57.04,-137.76 63.77,-139.66"/>
</a>
</g>
</g>
<!-- Node12&#45;&gt;Node3 -->
<g id="edge22_Node000012_Node000003" class="edge">
<title>Node12&#45;&gt;Node3</title>
<g id="a_edge22_Node000012_Node000003"><a xlink:title=" ">
<path fill="none" stroke="#63b8ff" d="M371.57,-164.98C353.63,-156.5 325.85,-143.35 305.13,-133.54"/>
<polygon fill="#63b8ff" stroke="#63b8ff" points="306.42,-130.28 295.88,-129.17 303.43,-136.61 306.42,-130.28"/>
</a>
</g>
</g>
<!-- Node12&#45;&gt;Node5 -->
<g id="edge23_Node000012_Node000005" class="edge">
<title>Node12&#45;&gt;Node5</title>
<g id="a_edge23_Node000012_Node000005"><a xlink:title=" ">
<path fill="none" stroke="#63b8ff" d="M387.84,-164.66C384.44,-147.17 376.79,-107.8 372.21,-84.27"/>
<polygon fill="#63b8ff" stroke="#63b8ff" points="375.59,-83.31 370.24,-74.16 368.72,-84.64 375.59,-83.31"/>
</a>
</g>
</g>
</g>
</svg>
