<?xml version="1.0" encoding="UTF-8" standalone="no"?>
<!DOCTYPE svg PUBLIC "-//W3C//DTD SVG 1.1//EN"
 "http://www.w3.org/Graphics/SVG/1.1/DTD/svg11.dtd">
<!-- Generated by graphviz version 2.43.0 (0)
 -->
<!-- Title: calculate_residual_norms_and_tolerances Pages: 1 -->
<svg width="455pt" height="138pt"
 viewBox="0.00 0.00 455.00 138.00" xmlns="http://www.w3.org/2000/svg" xmlns:xlink="http://www.w3.org/1999/xlink">
<g id="graph0" class="graph" transform="scale(1 1) rotate(0) translate(4 134)">
<title>calculate_residual_norms_and_tolerances</title>
<!-- Node1 -->
<g id="Node000001" class="node">
<title>Node1</title>
<g id="a_Node000001"><a xlink:title="Calls the routines that compute the norm of the residuals and the tolerances.">
<polygon fill="#999999" stroke="#666666" points="132,-79.5 0,-79.5 0,-49.5 132,-49.5 132,-79.5"/>
<text text-anchor="start" x="8" y="-67.5" font-family="Helvetica,sans-Serif" font-size="10.00">calculate_residual</text>
<text text-anchor="middle" x="66" y="-56.5" font-family="Helvetica,sans-Serif" font-size="10.00">_norms_and_tolerances</text>
</a>
</g>
</g>
<!-- Node2 -->
<g id="Node000002" class="node">
<title>Node2</title>
<g id="a_Node000002"><a xlink:href="termination_8c.html#af1889ad003b14a004d4560bedde40ce9" target="_top" xlink:title="Calculates the infinity norm of the dual residual and the residual of the subproblem and stores them ...">
<polygon fill="white" stroke="#666666" points="311,-130 174,-130 174,-111 311,-111 311,-130"/>
<text text-anchor="middle" x="242.5" y="-118" font-family="Helvetica,sans-Serif" font-size="10.00">calculate_dual_residuals</text>
</a>
</g>
</g>
<!-- Node1&#45;&gt;Node2 -->
<g id="edge1_Node000001_Node000002" class="edge">
<title>Node1&#45;&gt;Node2</title>
<g id="a_edge1_Node000001_Node000002"><a xlink:title=" ">
<path fill="none" stroke="#63b8ff" d="M104.04,-79.65C122.99,-87.09 146.52,-95.86 168,-102.5 174.66,-104.56 181.72,-106.54 188.73,-108.38"/>
<polygon fill="#63b8ff" stroke="#63b8ff" points="188.34,-111.9 198.9,-110.98 190.08,-105.12 188.34,-111.9"/>
</a>
</g>
</g>
<!-- Node6 -->
<g id="Node000006" class="node">
<title>Node6</title>
<g id="a_Node000006"><a xlink:href="termination_8c.html#ad746ec6ec47a1240e5e910abfb01fee3" target="_top" xlink:title="Calculates the dual tolerance for the problem and current subproblem and stores them in work&#45;&gt;eps_dua...">
<polygon fill="white" stroke="#666666" points="314,-93 171,-93 171,-74 314,-74 314,-93"/>
<text text-anchor="middle" x="242.5" y="-81" font-family="Helvetica,sans-Serif" font-size="10.00">calculate_dual_tolerances</text>
</a>
</g>
</g>
<!-- Node1&#45;&gt;Node6 -->
<g id="edge5_Node000001_Node000006" class="edge">
<title>Node1&#45;&gt;Node6</title>
<g id="a_edge5_Node000001_Node000006"><a xlink:title=" ">
<path fill="none" stroke="#63b8ff" d="M132.47,-71.63C141.71,-72.63 151.29,-73.68 160.76,-74.71"/>
<polygon fill="#63b8ff" stroke="#63b8ff" points="160.67,-78.22 170.99,-75.82 161.42,-71.26 160.67,-78.22"/>
</a>
</g>
</g>
<!-- Node7 -->
<g id="Node000007" class="node">
<title>Node7</title>
<g id="a_Node000007"><a xlink:href="termination_8c.html#afc13c2c286796ec381cdb5c83d9f764f" target="_top" xlink:title="Calculates the infinity norm of the primal residual and stores it in work&#45;&gt;info&#45;&gt;pri_res_norm.">
<polygon fill="white" stroke="#666666" points="313.5,-56 171.5,-56 171.5,-37 313.5,-37 313.5,-56"/>
<text text-anchor="middle" x="242.5" y="-44" font-family="Helvetica,sans-Serif" font-size="10.00">calculate_primal_residual</text>
</a>
</g>
</g>
<!-- Node1&#45;&gt;Node7 -->
<g id="edge8_Node000001_Node000007" class="edge">
<title>Node1&#45;&gt;Node7</title>
<g id="a_edge8_Node000001_Node000007"><a xlink:title=" ">
<path fill="none" stroke="#63b8ff" d="M132.47,-57.75C141.88,-56.78 151.64,-55.77 161.29,-54.77"/>
<polygon fill="#63b8ff" stroke="#63b8ff" points="161.69,-58.25 171.28,-53.74 160.97,-51.29 161.69,-58.25"/>
</a>
</g>
</g>
<!-- Node8 -->
<g id="Node000008" class="node">
<title>Node8</title>
<g id="a_Node000008"><a xlink:href="termination_8c.html#ac638a8fe12bfee736c6832fa6140c92d" target="_top" xlink:title="Calculates the primal tolerance and stores it in work&#45;&gt;eps_pri.">
<polygon fill="white" stroke="#666666" points="317,-19 168,-19 168,0 317,0 317,-19"/>
<text text-anchor="middle" x="242.5" y="-7" font-family="Helvetica,sans-Serif" font-size="10.00">calculate_primal_tolerance</text>
</a>
</g>
</g>
<!-- Node1&#45;&gt;Node8 -->
<g id="edge11_Node000001_Node000008" class="edge">
<title>Node1&#45;&gt;Node8</title>
<g id="a_edge11_Node000001_Node000008"><a xlink:title=" ">
<path fill="none" stroke="#63b8ff" d="M106.54,-49.48C125.07,-42.68 147.53,-34.78 168,-28.5 175.79,-26.11 184.11,-23.76 192.25,-21.58"/>
<polygon fill="#63b8ff" stroke="#63b8ff" points="193.25,-24.94 202.03,-19.01 191.47,-18.17 193.25,-24.94"/>
</a>
</g>
</g>
<!-- Node3 -->
<g id="Node000003" class="node">
<title>Node3</title>
<g id="a_Node000003"><a xlink:href="lin__alg_8c.html#a0fde1aeeea954e43db160ec6e3697cd5" target="_top" xlink:title="Scaled addition of one vector to another vector, .">
<polygon fill="white" stroke="#666666" points="447,-130 353,-130 353,-111 447,-111 447,-130"/>
<text text-anchor="middle" x="400" y="-118" font-family="Helvetica,sans-Serif" font-size="10.00">vec_add_scaled</text>
</a>
</g>
</g>
<!-- Node2&#45;&gt;Node3 -->
<g id="edge2_Node000002_Node000003" class="edge">
<title>Node2&#45;&gt;Node3</title>
<g id="a_edge2_Node000002_Node000003"><a xlink:title=" ">
<path fill="none" stroke="#63b8ff" d="M311.25,-120.5C321.81,-120.5 332.62,-120.5 342.88,-120.5"/>
<polygon fill="#63b8ff" stroke="#63b8ff" points="342.93,-124 352.93,-120.5 342.93,-117 342.93,-124"/>
</a>
</g>
</g>
<!-- Node4 -->
<g id="Node000004" class="node">
<title>Node4</title>
<g id="a_Node000004"><a xlink:href="lin__alg_8c.html#ab48ddb2d35dd1a04bd27f06cb49400cb" target="_top" xlink:title="Elementwise product, .">
<polygon fill="white" stroke="#666666" points="440,-56 360,-56 360,-37 440,-37 440,-56"/>
<text text-anchor="middle" x="400" y="-44" font-family="Helvetica,sans-Serif" font-size="10.00">vec_ew_prod</text>
</a>
</g>
</g>
<!-- Node2&#45;&gt;Node4 -->
<g id="edge3_Node000002_Node000004" class="edge">
<title>Node2&#45;&gt;Node4</title>
<g id="a_edge3_Node000002_Node000004"><a xlink:title=" ">
<path fill="none" stroke="#63b8ff" d="M297.84,-110.89C304.52,-108.65 311.07,-105.89 317,-102.5 336.92,-91.11 334,-78.37 353,-65.5 355.72,-63.66 358.64,-61.95 361.65,-60.36"/>
<polygon fill="#63b8ff" stroke="#63b8ff" points="363.29,-63.46 370.82,-56.01 360.28,-57.14 363.29,-63.46"/>
</a>
</g>
</g>
<!-- Node5 -->
<g id="Node000005" class="node">
<title>Node5</title>
<g id="a_Node000005"><a xlink:href="lin__alg_8c.html#ad69e3ef3b7360cd1d6262ee2f32fce83" target="_top" xlink:title="Infinity norm of a vector, .">
<polygon fill="white" stroke="#666666" points="441.5,-93 358.5,-93 358.5,-74 441.5,-74 441.5,-93"/>
<text text-anchor="middle" x="400" y="-81" font-family="Helvetica,sans-Serif" font-size="10.00">vec_norm_inf</text>
</a>
</g>
</g>
<!-- Node2&#45;&gt;Node5 -->
<g id="edge4_Node000002_Node000005" class="edge">
<title>Node2&#45;&gt;Node5</title>
<g id="a_edge4_Node000002_Node000005"><a xlink:title=" ">
<path fill="none" stroke="#63b8ff" d="M283.55,-110.97C303.51,-106.22 327.85,-100.43 349.03,-95.39"/>
<polygon fill="#63b8ff" stroke="#63b8ff" points="349.9,-98.78 358.82,-93.06 348.28,-91.97 349.9,-98.78"/>
</a>
</g>
</g>
<!-- Node6&#45;&gt;Node4 -->
<g id="edge6_Node000006_Node000004" class="edge">
<title>Node6&#45;&gt;Node4</title>
<g id="a_edge6_Node000006_Node000004"><a xlink:title=" ">
<path fill="none" stroke="#63b8ff" d="M283.55,-73.97C303.82,-69.15 328.61,-63.25 350.01,-58.16"/>
<polygon fill="#63b8ff" stroke="#63b8ff" points="350.98,-61.52 359.9,-55.8 349.36,-54.71 350.98,-61.52"/>
</a>
</g>
</g>
<!-- Node6&#45;&gt;Node5 -->
<g id="edge7_Node000006_Node000005" class="edge">
<title>Node6&#45;&gt;Node5</title>
<g id="a_edge7_Node000006_Node000005"><a xlink:title=" ">
<path fill="none" stroke="#63b8ff" d="M314.42,-83.5C325.84,-83.5 337.45,-83.5 348.26,-83.5"/>
<polygon fill="#63b8ff" stroke="#63b8ff" points="348.35,-87 358.35,-83.5 348.35,-80 348.35,-87"/>
</a>
</g>
</g>
<!-- Node7&#45;&gt;Node4 -->
<g id="edge9_Node000007_Node000004" class="edge">
<title>Node7&#45;&gt;Node4</title>
<g id="a_edge9_Node000007_Node000004"><a xlink:title=" ">
<path fill="none" stroke="#63b8ff" d="M313.52,-46.5C325.74,-46.5 338.21,-46.5 349.73,-46.5"/>
<polygon fill="#63b8ff" stroke="#63b8ff" points="349.99,-50 359.99,-46.5 349.99,-43 349.99,-50"/>
</a>
</g>
</g>
<!-- Node7&#45;&gt;Node5 -->
<g id="edge10_Node000007_Node000005" class="edge">
<title>Node7&#45;&gt;Node5</title>
<g id="a_edge10_Node000007_Node000005"><a xlink:title=" ">
<path fill="none" stroke="#63b8ff" d="M283.55,-56.03C303.51,-60.78 327.85,-66.57 349.03,-71.61"/>
<polygon fill="#63b8ff" stroke="#63b8ff" points="348.28,-75.03 358.82,-73.94 349.9,-68.22 348.28,-75.03"/>
</a>
</g>
</g>
<!-- Node8&#45;&gt;Node4 -->
<g id="edge12_Node000008_Node000004" class="edge">
<title>Node8&#45;&gt;Node4</title>
<g id="a_edge12_Node000008_Node000004"><a xlink:title=" ">
<path fill="none" stroke="#63b8ff" d="M283.55,-19.03C303.82,-23.85 328.61,-29.75 350.01,-34.84"/>
<polygon fill="#63b8ff" stroke="#63b8ff" points="349.36,-38.29 359.9,-37.2 350.98,-31.48 349.36,-38.29"/>
</a>
</g>
</g>
<!-- Node8&#45;&gt;Node5 -->
<g id="edge13_Node000008_Node000005" class="edge">
<title>Node8&#45;&gt;Node5</title>
<g id="a_edge13_Node000008_Node000005"><a xlink:title=" ">
<path fill="none" stroke="#63b8ff" d="M295.14,-19C302.75,-21.48 310.28,-24.6 317,-28.5 336.84,-40.02 333.88,-52.81 353,-65.5 355.13,-66.91 357.38,-68.24 359.7,-69.48"/>
<polygon fill="#63b8ff" stroke="#63b8ff" points="358.34,-72.71 368.87,-73.85 361.35,-66.39 358.34,-72.71"/>
</a>
</g>
</g>
</g>
</svg>
