<?xml version="1.0" encoding="UTF-8" standalone="no"?>
<!DOCTYPE svg PUBLIC "-//W3C//DTD SVG 1.1//EN"
 "http://www.w3.org/Graphics/SVG/1.1/DTD/svg11.dtd">
<!-- Generated by graphviz version 2.43.0 (0)
 -->
<!-- Title: QPALM/include/qpalm/constants.h Pages: 1 -->
<!--zoomable 423 -->

<svg id="main" version="1.1" xmlns="http://www.w3.org/2000/svg" xmlns:xlink="http://www.w3.org/1999/xlink" xml:space="preserve" onload="init(evt)">
<style type="text/css"><![CDATA[
.node, .edge {opacity: 0.7;}
.node.selected, .edge.selected {opacity: 1;}
.edge:hover path { stroke: red; }
.edge:hover polygon { stroke: red; fill: red; }
]]></style>

<defs>
  <circle id="rim" cx="0" cy="0" r="7"/>
  <circle id="rim2" cx="0" cy="0" r="3.5"/>
  <g id="zoomPlus">
    <use xlink:href="#rim" fill="#404040"><set attributeName="fill" to="#808080" begin="zoomplus.mouseover" end="zoomplus.mouseout"/></use>
    <path d="M-4,0h8M0,-4v8" fill="none" stroke="white" stroke-width="1.5" pointer-events="none"/>
  </g>
  <g id="zoomMin">
    <use xlink:href="#rim" fill="#404040"><set attributeName="fill" to="#808080" begin="zoomminus.mouseover" end="zoomminus.mouseout"/></use>
    <path d="M-4,0h8" fill="none" stroke="white" stroke-width="1.5" pointer-events="none"/>
  </g>
  <g id="arrowUp" transform="translate(30 24)">
    <use xlink:href="#rim"/>
    <path pointer-events="none" fill="none" stroke="white" stroke-width="1.5" d="M0,-3.0v7 M-2.5,-0.5L0,-3.0L2.5,-0.5"/>
  </g>
  <g id="arrowRight" transform="rotate(90) translate(36 -43)">
    <use xlink:href="#rim"/>
    <path pointer-events="none" fill="none" stroke="white" stroke-width="1.5" d="M0,-3.0v7 M-2.5,-0.5L0,-3.0L2.5,-0.5"/>
  </g>
  <g id="arrowDown" transform="rotate(180) translate(-30 -48)">
    <use xlink:href="#rim"/>
    <path pointer-events="none" fill="none" stroke="white" stroke-width="1.5" d="M0,-3.0v7 M-2.5,-0.5L0,-3.0L2.5,-0.5"/>
  </g>
  <g id="arrowLeft" transform="rotate(270) translate(-36 17)">
    <use xlink:href="#rim"/>
    <path pointer-events="none" fill="none" stroke="white" stroke-width="1.5" d="M0,-3.0v7 M-2.5,-0.5L0,-3.0L2.5,-0.5"/>
  </g>
  <g id="resetDef">
    <use xlink:href="#rim2" fill="#404040"><set attributeName="fill" to="#808080" begin="reset.mouseover" end="reset.mouseout"/></use>
  </g>
</defs>
<script type="application/ecmascript">
var viewWidth = 1894;
var viewHeight = 423;
var sectionId = 'dynsection-1';
</script>
<script type="application/ecmascript" xlink:href="svg.min.js"/>
<svg id="graph" class="graph">
<g id="viewport">
<title>QPALM/include/qpalm/constants.h</title>
<!-- Node1 -->
<g id="Node000001" class="node">
<title>Node1</title>
<g id="a_Node000001"><a xlink:title="Constants used in QPALM.">
<polygon fill="#999999" stroke="#666666" points="1328,-415 1206,-415 1206,-385 1328,-385 1328,-415"/>
<text text-anchor="start" x="1214" y="-403" font-family="Helvetica,sans-Serif" font-size="10.00">QPALM/include/qpalm</text>
<text text-anchor="middle" x="1267" y="-392" font-family="Helvetica,sans-Serif" font-size="10.00">/constants.h</text>
</a>
</g>
</g>
<!-- Node2 -->
<g id="Node000002" class="node">
<title>Node2</title>
<g id="a_Node000002"><a xlink:href="qpalm_8h.html" target="_top" xlink:title="QPALM main solver API.">
<polygon fill="white" stroke="#666666" points="208.5,-151 77.5,-151 77.5,-132 208.5,-132 208.5,-151"/>
<text text-anchor="middle" x="143" y="-139" font-family="Helvetica,sans-Serif" font-size="10.00">QPALM/include/qpalm.h</text>
</a>
</g>
</g>
<!-- Node1&#45;&gt;Node2 -->
<g id="edge1_Node000001_Node000002" class="edge">
<title>Node1&#45;&gt;Node2</title>
<g id="a_edge1_Node000001_Node000002"><a xlink:title=" ">
<path fill="none" stroke="#63b8ff" d="M1195.63,-397.41C1060.89,-393.71 760.03,-382.16 509,-349 360.28,-329.35 296.68,-374.74 178,-283 136.23,-250.71 139.44,-176.85 141.94,-151.35"/>
<polygon fill="#63b8ff" stroke="#63b8ff" points="1195.73,-400.91 1205.82,-397.68 1195.91,-393.91 1195.73,-400.91"/>
</a>
</g>
</g>
<!-- Node6 -->
<g id="Node000006" class="node">
<title>Node6</title>
<g id="a_Node000006"><a xlink:href="qpalm_8c.html" target="_top" xlink:title="QPALM main solver API.">
<polygon fill="white" stroke="#666666" points="1058,-90.5 948,-90.5 948,-71.5 1058,-71.5 1058,-90.5"/>
<text text-anchor="middle" x="1003" y="-78.5" font-family="Helvetica,sans-Serif" font-size="10.00">QPALM/src/qpalm.c</text>
</a>
</g>
</g>
<!-- Node1&#45;&gt;Node6 -->
<g id="edge42_Node000001_Node000006" class="edge">
<title>Node1&#45;&gt;Node6</title>
<g id="a_edge42_Node000001_Node000006"><a xlink:title=" ">
<path fill="none" stroke="#63b8ff" d="M1338.45,-398.89C1501.29,-396.7 1886,-379.81 1886,-269 1886,-269 1886,-269 1886,-201 1886,-117.08 1251.55,-89.93 1058.24,-83.6"/>
<polygon fill="#63b8ff" stroke="#63b8ff" points="1338,-395.39 1328.05,-399.01 1338.09,-402.39 1338,-395.39"/>
</a>
</g>
</g>
<!-- Node7 -->
<g id="Node000007" class="node">
<title>Node7</title>
<g id="a_Node000007"><a xlink:href="linesearch_8h.html" target="_top" xlink:title="Routines to perform exact linesearch.">
<polygon fill="white" stroke="#666666" points="354,-283 232,-283 232,-253 354,-253 354,-283"/>
<text text-anchor="start" x="240" y="-271" font-family="Helvetica,sans-Serif" font-size="10.00">QPALM/include/qpalm</text>
<text text-anchor="middle" x="293" y="-260" font-family="Helvetica,sans-Serif" font-size="10.00">/linesearch.h</text>
</a>
</g>
</g>
<!-- Node1&#45;&gt;Node7 -->
<g id="edge6_Node000001_Node000007" class="edge">
<title>Node1&#45;&gt;Node7</title>
<g id="a_edge6_Node000001_Node000007"><a xlink:title=" ">
<path fill="none" stroke="#63b8ff" d="M1195.5,-395.92C1083.14,-390.42 858.59,-376.79 670,-349 554.66,-332 421.67,-301.08 348.49,-283.06"/>
<polygon fill="#63b8ff" stroke="#63b8ff" points="1195.53,-399.42 1205.69,-396.41 1195.87,-392.43 1195.53,-399.42"/>
</a>
</g>
</g>
<!-- Node10 -->
<g id="Node000010" class="node">
<title>Node10</title>
<g id="a_Node000010"><a xlink:href="scaling_8h.html" target="_top" xlink:title="Problem data scaling during setup.">
<polygon fill="white" stroke="#666666" points="674,-217 552,-217 552,-187 674,-187 674,-217"/>
<text text-anchor="start" x="560" y="-205" font-family="Helvetica,sans-Serif" font-size="10.00">QPALM/include/qpalm</text>
<text text-anchor="middle" x="613" y="-194" font-family="Helvetica,sans-Serif" font-size="10.00">/scaling.h</text>
</a>
</g>
</g>
<!-- Node1&#45;&gt;Node10 -->
<g id="edge11_Node000001_Node000010" class="edge">
<title>Node1&#45;&gt;Node10</title>
<g id="a_edge11_Node000001_Node000010"><a xlink:title=" ">
<path fill="none" stroke="#63b8ff" d="M1195.8,-391.73C1134.37,-384.37 1043.71,-370.91 967,-349 841.39,-313.13 700.04,-246.31 641.12,-217.18"/>
<polygon fill="#63b8ff" stroke="#63b8ff" points="1195.43,-395.21 1205.77,-392.9 1196.25,-388.26 1195.43,-395.21"/>
</a>
</g>
</g>
<!-- Node12 -->
<g id="Node000012" class="node">
<title>Node12</title>
<g id="a_Node000012"><a xlink:href="solver__interface_8h.html" target="_top" xlink:title="Interface and wrapper to matrix/factorization (ladel) functions.">
<polygon fill="white" stroke="#666666" points="1098,-349 976,-349 976,-319 1098,-319 1098,-349"/>
<text text-anchor="start" x="984" y="-337" font-family="Helvetica,sans-Serif" font-size="10.00">QPALM/include/qpalm</text>
<text text-anchor="middle" x="1037" y="-326" font-family="Helvetica,sans-Serif" font-size="10.00">/solver_interface.h</text>
</a>
</g>
</g>
<!-- Node1&#45;&gt;Node12 -->
<g id="edge15_Node000001_Node000012" class="edge">
<title>Node1&#45;&gt;Node12</title>
<g id="a_edge15_Node000001_Node000012"><a xlink:title=" ">
<path fill="none" stroke="#63b8ff" d="M1206.82,-382.25C1169.66,-371.91 1122.53,-358.8 1087.36,-349.01"/>
<polygon fill="#63b8ff" stroke="#63b8ff" points="1205.95,-385.65 1216.53,-384.95 1207.83,-378.9 1205.95,-385.65"/>
</a>
</g>
</g>
<!-- Node16 -->
<g id="Node000016" class="node">
<title>Node16</title>
<g id="a_Node000016"><a xlink:href="nonconvex_8c.html" target="_top" xlink:title="Routines to deal with nonconvex QPs.">
<polygon fill="white" stroke="#666666" points="1590,-211.5 1458,-211.5 1458,-192.5 1590,-192.5 1590,-211.5"/>
<text text-anchor="middle" x="1524" y="-199.5" font-family="Helvetica,sans-Serif" font-size="10.00">QPALM/src/nonconvex.c</text>
</a>
</g>
</g>
<!-- Node1&#45;&gt;Node16 -->
<g id="edge41_Node000001_Node000016" class="edge">
<title>Node1&#45;&gt;Node16</title>
<g id="a_edge41_Node000001_Node000016"><a xlink:title=" ">
<path fill="none" stroke="#63b8ff" d="M1292.57,-378.47C1328.34,-349.89 1395.5,-296.7 1454,-253 1473.98,-238.07 1497.68,-221.34 1511.75,-211.52"/>
<polygon fill="#63b8ff" stroke="#63b8ff" points="1290.22,-375.88 1284.6,-384.86 1294.59,-381.34 1290.22,-375.88"/>
</a>
</g>
</g>
<!-- Node18 -->
<g id="Node000018" class="node">
<title>Node18</title>
<g id="a_Node000018"><a xlink:href="termination_8c.html" target="_top" xlink:title="Routines to check the termination and infeasibility criteria.">
<polygon fill="white" stroke="#666666" points="1820,-211.5 1684,-211.5 1684,-192.5 1820,-192.5 1820,-211.5"/>
<text text-anchor="middle" x="1752" y="-199.5" font-family="Helvetica,sans-Serif" font-size="10.00">QPALM/src/termination.c</text>
</a>
</g>
</g>
<!-- Node1&#45;&gt;Node18 -->
<g id="edge43_Node000001_Node000018" class="edge">
<title>Node1&#45;&gt;Node18</title>
<g id="a_edge43_Node000001_Node000018"><a xlink:title=" ">
<path fill="none" stroke="#63b8ff" d="M1324.21,-381.89C1354.35,-372.63 1391.85,-360.7 1425,-349 1501.04,-322.15 1520.39,-315.92 1594,-283 1647.05,-259.28 1707.89,-226.98 1736.1,-211.7"/>
<polygon fill="#63b8ff" stroke="#63b8ff" points="1322.82,-378.66 1314.28,-384.93 1324.87,-385.35 1322.82,-378.66"/>
</a>
</g>
</g>
<!-- Node20 -->
<g id="Node000020" class="node">
<title>Node20</title>
<g id="a_Node000020"><a xlink:href="validate_8c.html" target="_top" xlink:title="Validation of the user provided settings and data.">
<polygon fill="white" stroke="#666666" points="1326.5,-211.5 1207.5,-211.5 1207.5,-192.5 1326.5,-192.5 1326.5,-211.5"/>
<text text-anchor="middle" x="1267" y="-199.5" font-family="Helvetica,sans-Serif" font-size="10.00">QPALM/src/validate.c</text>
</a>
</g>
</g>
<!-- Node1&#45;&gt;Node20 -->
<g id="edge44_Node000001_Node000020" class="edge">
<title>Node1&#45;&gt;Node20</title>
<g id="a_edge44_Node000001_Node000020"><a xlink:title=" ">
<path fill="none" stroke="#63b8ff" d="M1267,-374.83C1267,-330.97 1267,-240.18 1267,-211.73"/>
<polygon fill="#63b8ff" stroke="#63b8ff" points="1263.5,-374.9 1267,-384.9 1270.5,-374.9 1263.5,-374.9"/>
</a>
</g>
</g>
<!-- Node21 -->
<g id="Node000021" class="node">
<title>Node21</title>
<g id="a_Node000021"><a xlink:href="util_8h.html" target="_top" xlink:title="Utility functions.">
<polygon fill="white" stroke="#666666" points="1585,-283 1463,-283 1463,-253 1585,-253 1585,-283"/>
<text text-anchor="start" x="1471" y="-271" font-family="Helvetica,sans-Serif" font-size="10.00">QPALM/include/qpalm</text>
<text text-anchor="middle" x="1524" y="-260" font-family="Helvetica,sans-Serif" font-size="10.00">/util.h</text>
</a>
</g>
</g>
<!-- Node1&#45;&gt;Node21 -->
<g id="edge34_Node000001_Node000021" class="edge">
<title>Node1&#45;&gt;Node21</title>
<g id="a_edge34_Node000001_Node000021"><a xlink:title=" ">
<path fill="none" stroke="#63b8ff" d="M1312.22,-381.1C1334.16,-372.06 1360.74,-360.57 1384,-349 1426.36,-327.93 1473.8,-299.82 1501.16,-283.14"/>
<polygon fill="#63b8ff" stroke="#63b8ff" points="1310.74,-377.92 1302.81,-384.95 1313.39,-384.4 1310.74,-377.92"/>
</a>
</g>
</g>
<!-- Node3 -->
<g id="Node000003" class="node">
<title>Node3</title>
<g id="a_Node000003"><a xlink:href="qpalm_8cpp.html" target="_top" xlink:title=" ">
<polygon fill="white" stroke="#666666" points="278,-96 156,-96 156,-66 278,-66 278,-96"/>
<text text-anchor="start" x="164" y="-84" font-family="Helvetica,sans-Serif" font-size="10.00">QPALM/interfaces/cxx</text>
<text text-anchor="middle" x="217" y="-73" font-family="Helvetica,sans-Serif" font-size="10.00">/src/qpalm.cpp</text>
</a>
</g>
</g>
<!-- Node2&#45;&gt;Node3 -->
<g id="edge2_Node000002_Node000003" class="edge">
<title>Node2&#45;&gt;Node3</title>
<g id="a_edge2_Node000002_Node000003"><a xlink:title=" ">
<path fill="none" stroke="#63b8ff" d="M161.97,-125.5C173.42,-116.45 187.91,-105 199.15,-96.11"/>
<polygon fill="#63b8ff" stroke="#63b8ff" points="159.59,-122.92 153.92,-131.87 163.93,-128.41 159.59,-122.92"/>
</a>
</g>
</g>
<!-- Node4 -->
<g id="Node000004" class="node">
<title>Node4</title>
<g id="a_Node000004"><a xlink:href="qpalm__fortran_8h.html" target="_top" xlink:title=" ">
<polygon fill="white" stroke="#666666" points="138,-96 0,-96 0,-66 138,-66 138,-96"/>
<text text-anchor="start" x="8" y="-84" font-family="Helvetica,sans-Serif" font-size="10.00">QPALM/interfaces/fortran</text>
<text text-anchor="middle" x="69" y="-73" font-family="Helvetica,sans-Serif" font-size="10.00">/qpalm_fortran.h</text>
</a>
</g>
</g>
<!-- Node2&#45;&gt;Node4 -->
<g id="edge3_Node000002_Node000004" class="edge">
<title>Node2&#45;&gt;Node4</title>
<g id="a_edge3_Node000002_Node000004"><a xlink:title=" ">
<path fill="none" stroke="#63b8ff" d="M124.03,-125.5C112.58,-116.45 98.09,-105 86.85,-96.11"/>
<polygon fill="#63b8ff" stroke="#63b8ff" points="122.07,-128.41 132.08,-131.87 126.41,-122.92 122.07,-128.41"/>
</a>
</g>
</g>
<!-- Node2&#45;&gt;Node6 -->
<g id="edge5_Node000002_Node000006" class="edge">
<title>Node2&#45;&gt;Node6</title>
<g id="a_edge5_Node000002_Node000006"><a xlink:title=" ">
<path fill="none" stroke="#63b8ff" d="M219.09,-132.34C220.41,-132.22 221.71,-132.11 223,-132 494.42,-108.89 819.81,-91.28 947.62,-84.75"/>
<polygon fill="#63b8ff" stroke="#63b8ff" points="218.54,-128.88 208.9,-133.28 219.18,-135.85 218.54,-128.88"/>
</a>
</g>
</g>
<!-- Node5 -->
<g id="Node000005" class="node">
<title>Node5</title>
<g id="a_Node000005"><a xlink:href="qpalm__fortran_8c.html" target="_top" xlink:title=" ">
<polygon fill="white" stroke="#666666" points="138,-30 0,-30 0,0 138,0 138,-30"/>
<text text-anchor="start" x="8" y="-18" font-family="Helvetica,sans-Serif" font-size="10.00">QPALM/interfaces/fortran</text>
<text text-anchor="middle" x="69" y="-7" font-family="Helvetica,sans-Serif" font-size="10.00">/qpalm_fortran.c</text>
</a>
</g>
</g>
<!-- Node4&#45;&gt;Node5 -->
<g id="edge4_Node000004_Node000005" class="edge">
<title>Node4&#45;&gt;Node5</title>
<g id="a_edge4_Node000004_Node000005"><a xlink:title=" ">
<path fill="none" stroke="#63b8ff" d="M69,-55.54C69,-46.96 69,-37.61 69,-30.16"/>
<polygon fill="#63b8ff" stroke="#63b8ff" points="65.5,-55.8 69,-65.8 72.5,-55.8 65.5,-55.8"/>
</a>
</g>
</g>
<!-- Node7&#45;&gt;Node2 -->
<g id="edge7_Node000007_Node000002" class="edge">
<title>Node7&#45;&gt;Node2</title>
<g id="a_edge7_Node000007_Node000002"><a xlink:title=" ">
<path fill="none" stroke="#63b8ff" d="M238.39,-249.08C220.27,-241.26 200.93,-230.69 186,-217 165.31,-198.02 151.82,-166.74 146.11,-151.46"/>
<polygon fill="#63b8ff" stroke="#63b8ff" points="237.15,-252.35 247.73,-252.92 239.81,-245.88 237.15,-252.35"/>
</a>
</g>
</g>
<!-- Node7&#45;&gt;Node6 -->
<g id="edge10_Node000007_Node000006" class="edge">
<title>Node7&#45;&gt;Node6</title>
<g id="a_edge10_Node000007_Node000006"><a xlink:title=" ">
<path fill="none" stroke="#63b8ff" d="M255.13,-247.77C228.43,-231.74 200.48,-208.17 219,-187 267.13,-132 777.32,-95.87 947.85,-85.25"/>
<polygon fill="#63b8ff" stroke="#63b8ff" points="253.65,-250.96 264.06,-252.91 257.14,-244.89 253.65,-250.96"/>
</a>
</g>
</g>
<!-- Node8 -->
<g id="Node000008" class="node">
<title>Node8</title>
<g id="a_Node000008"><a xlink:href="iteration_8c.html" target="_top" xlink:title="QPALM main solver routines.">
<polygon fill="white" stroke="#666666" points="496,-211.5 376,-211.5 376,-192.5 496,-192.5 496,-211.5"/>
<text text-anchor="middle" x="436" y="-199.5" font-family="Helvetica,sans-Serif" font-size="10.00">QPALM/src/iteration.c</text>
</a>
</g>
</g>
<!-- Node7&#45;&gt;Node8 -->
<g id="edge8_Node000007_Node000008" class="edge">
<title>Node7&#45;&gt;Node8</title>
<g id="a_edge8_Node000007_Node000008"><a xlink:title=" ">
<path fill="none" stroke="#63b8ff" d="M333.71,-248.78C361.05,-236.54 395.82,-220.98 416.97,-211.52"/>
<polygon fill="#63b8ff" stroke="#63b8ff" points="332.08,-245.68 324.38,-252.95 334.94,-252.06 332.08,-245.68"/>
</a>
</g>
</g>
<!-- Node9 -->
<g id="Node000009" class="node">
<title>Node9</title>
<g id="a_Node000009"><a xlink:href="linesearch_8c.html" target="_top" xlink:title="Routines to perform exact or backtracking linesearch.">
<polygon fill="white" stroke="#666666" points="357.5,-211.5 228.5,-211.5 228.5,-192.5 357.5,-192.5 357.5,-211.5"/>
<text text-anchor="middle" x="293" y="-199.5" font-family="Helvetica,sans-Serif" font-size="10.00">QPALM/src/linesearch.c</text>
</a>
</g>
</g>
<!-- Node7&#45;&gt;Node9 -->
<g id="edge9_Node000007_Node000009" class="edge">
<title>Node7&#45;&gt;Node9</title>
<g id="a_edge9_Node000007_Node000009"><a xlink:title=" ">
<path fill="none" stroke="#63b8ff" d="M293,-242.6C293,-231.8 293,-219.78 293,-211.84"/>
<polygon fill="#63b8ff" stroke="#63b8ff" points="289.5,-242.8 293,-252.8 296.5,-242.8 289.5,-242.8"/>
</a>
</g>
</g>
<!-- Node10&#45;&gt;Node2 -->
<g id="edge12_Node000010_Node000002" class="edge">
<title>Node10&#45;&gt;Node2</title>
<g id="a_edge12_Node000010_Node000002"><a xlink:title=" ">
<path fill="none" stroke="#63b8ff" d="M541.79,-187.58C540.52,-187.38 539.25,-187.19 538,-187 422.48,-169.73 287.06,-155.85 208.54,-148.42"/>
<polygon fill="#63b8ff" stroke="#63b8ff" points="541.24,-191.03 551.67,-189.18 542.35,-184.12 541.24,-191.03"/>
</a>
</g>
</g>
<!-- Node10&#45;&gt;Node6 -->
<g id="edge13_Node000010_Node000006" class="edge">
<title>Node10&#45;&gt;Node6</title>
<g id="a_edge13_Node000010_Node000006"><a xlink:title=" ">
<path fill="none" stroke="#63b8ff" d="M656.54,-183.1C693.72,-168.22 748.82,-147.11 798,-132 854.03,-114.78 920.1,-99.56 961.77,-90.56"/>
<polygon fill="#63b8ff" stroke="#63b8ff" points="654.99,-179.95 647.02,-186.93 657.61,-186.45 654.99,-179.95"/>
</a>
</g>
</g>
<!-- Node11 -->
<g id="Node000011" class="node">
<title>Node11</title>
<g id="a_Node000011"><a xlink:href="scaling_8c.html" target="_top" xlink:title="Problem data scaling during setup.">
<polygon fill="white" stroke="#666666" points="919.5,-151 806.5,-151 806.5,-132 919.5,-132 919.5,-151"/>
<text text-anchor="middle" x="863" y="-139" font-family="Helvetica,sans-Serif" font-size="10.00">QPALM/src/scaling.c</text>
</a>
</g>
</g>
<!-- Node10&#45;&gt;Node11 -->
<g id="edge14_Node000010_Node000011" class="edge">
<title>Node10&#45;&gt;Node11</title>
<g id="a_edge14_Node000010_Node000011"><a xlink:title=" ">
<path fill="none" stroke="#63b8ff" d="M682.63,-184.71C729.28,-173.79 788.82,-159.86 826.45,-151.05"/>
<polygon fill="#63b8ff" stroke="#63b8ff" points="681.82,-181.3 672.88,-186.99 683.42,-188.12 681.82,-181.3"/>
</a>
</g>
</g>
<!-- Node12&#45;&gt;Node2 -->
<g id="edge16_Node000012_Node000002" class="edge">
<title>Node12&#45;&gt;Node2</title>
<g id="a_edge16_Node000012_Node000002"><a xlink:title=" ">
<path fill="none" stroke="#63b8ff" d="M965.49,-331.58C779.31,-327.47 289.36,-313.83 223,-283 186.22,-265.91 179.2,-252.72 160,-217 148.32,-195.27 144.64,-165.79 143.5,-151.29"/>
<polygon fill="#63b8ff" stroke="#63b8ff" points="965.65,-335.09 975.72,-331.81 965.8,-328.09 965.65,-335.09"/>
</a>
</g>
</g>
<!-- Node12&#45;&gt;Node6 -->
<g id="edge32_Node000012_Node000006" class="edge">
<title>Node12&#45;&gt;Node6</title>
<g id="a_edge32_Node000012_Node000006"><a xlink:title=" ">
<path fill="none" stroke="#63b8ff" d="M1108.16,-331.66C1319.52,-326.37 1923.21,-301.21 1829,-187 1779.76,-127.31 1235.01,-94.01 1058.12,-84.72"/>
<polygon fill="#63b8ff" stroke="#63b8ff" points="1108.01,-328.16 1098.09,-331.9 1108.18,-335.16 1108.01,-328.16"/>
</a>
</g>
</g>
<!-- Node12&#45;&gt;Node8 -->
<g id="edge31_Node000012_Node000008" class="edge">
<title>Node12&#45;&gt;Node8</title>
<g id="a_edge31_Node000012_Node000008"><a xlink:title=" ">
<path fill="none" stroke="#63b8ff" d="M965.74,-317.59C838.33,-290.03 575.47,-233.17 475.64,-211.57"/>
<polygon fill="#63b8ff" stroke="#63b8ff" points="965.27,-321.07 975.79,-319.76 966.75,-314.22 965.27,-321.07"/>
</a>
</g>
</g>
<!-- Node13 -->
<g id="Node000013" class="node">
<title>Node13</title>
<g id="a_Node000013"><a xlink:href="lin__alg_8h.html" target="_top" xlink:title="Linear algebra with vectors.">
<polygon fill="white" stroke="#666666" points="1040,-283 918,-283 918,-253 1040,-253 1040,-283"/>
<text text-anchor="start" x="926" y="-271" font-family="Helvetica,sans-Serif" font-size="10.00">QPALM/include/qpalm</text>
<text text-anchor="middle" x="979" y="-260" font-family="Helvetica,sans-Serif" font-size="10.00">/lin_alg.h</text>
</a>
</g>
</g>
<!-- Node12&#45;&gt;Node13 -->
<g id="edge17_Node000012_Node000013" class="edge">
<title>Node12&#45;&gt;Node13</title>
<g id="a_edge17_Node000012_Node000013"><a xlink:title=" ">
<path fill="none" stroke="#63b8ff" d="M1017.4,-311.37C1008.96,-302.06 999.34,-291.44 991.84,-283.16"/>
<polygon fill="#63b8ff" stroke="#63b8ff" points="1014.82,-313.74 1024.13,-318.8 1020.01,-309.04 1014.82,-313.74"/>
</a>
</g>
</g>
<!-- Node17 -->
<g id="Node000017" class="node">
<title>Node17</title>
<g id="a_Node000017"><a xlink:href="solver__interface_8c.html" target="_top" xlink:title="Interface and wrapper to matrix/factorization (ladel) functions.">
<polygon fill="white" stroke="#666666" points="1189,-211.5 1031,-211.5 1031,-192.5 1189,-192.5 1189,-211.5"/>
<text text-anchor="middle" x="1110" y="-199.5" font-family="Helvetica,sans-Serif" font-size="10.00">QPALM/src/solver_interface.c</text>
</a>
</g>
</g>
<!-- Node12&#45;&gt;Node17 -->
<g id="edge33_Node000012_Node000017" class="edge">
<title>Node12&#45;&gt;Node17</title>
<g id="a_edge33_Node000012_Node000017"><a xlink:title=" ">
<path fill="none" stroke="#63b8ff" d="M1049.85,-310.11C1066.28,-280.86 1093.91,-231.65 1105.09,-211.75"/>
<polygon fill="#63b8ff" stroke="#63b8ff" points="1046.8,-308.41 1044.95,-318.84 1052.9,-311.83 1046.8,-308.41"/>
</a>
</g>
</g>
<!-- Node13&#45;&gt;Node2 -->
<g id="edge18_Node000013_Node000002" class="edge">
<title>Node13&#45;&gt;Node2</title>
<g id="a_edge18_Node000013_Node000002"><a xlink:title=" ">
<path fill="none" stroke="#63b8ff" d="M907.9,-263.57C801.72,-257.65 607.31,-243.53 543,-217 523.11,-208.79 524.86,-195.29 505,-187 452.99,-165.3 298.29,-152.26 208.85,-146.33"/>
<polygon fill="#63b8ff" stroke="#63b8ff" points="907.72,-267.06 917.89,-264.12 908.1,-260.07 907.72,-267.06"/>
</a>
</g>
</g>
<!-- Node13&#45;&gt;Node6 -->
<g id="edge25_Node000013_Node000006" class="edge">
<title>Node13&#45;&gt;Node6</title>
<g id="a_edge25_Node000013_Node000006"><a xlink:title=" ">
<path fill="none" stroke="#63b8ff" d="M982.16,-242.66C987.58,-200.87 998.41,-117.38 1001.89,-90.53"/>
<polygon fill="#63b8ff" stroke="#63b8ff" points="978.66,-242.42 980.84,-252.79 985.6,-243.32 978.66,-242.42"/>
</a>
</g>
</g>
<!-- Node13&#45;&gt;Node8 -->
<g id="edge20_Node000013_Node000008" class="edge">
<title>Node13&#45;&gt;Node8</title>
<g id="a_edge20_Node000013_Node000008"><a xlink:title=" ">
<path fill="none" stroke="#63b8ff" d="M907.72,-259.38C888.35,-257.31 867.37,-255.07 848,-253 697.78,-236.97 659.45,-239.06 510,-217 499.52,-215.45 488.27,-213.48 477.77,-211.51"/>
<polygon fill="#63b8ff" stroke="#63b8ff" points="907.37,-262.86 917.69,-260.44 908.12,-255.9 907.37,-262.86"/>
</a>
</g>
</g>
<!-- Node13&#45;&gt;Node9 -->
<g id="edge22_Node000013_Node000009" class="edge">
<title>Node13&#45;&gt;Node9</title>
<g id="a_edge22_Node000013_Node000009"><a xlink:title=" ">
<path fill="none" stroke="#63b8ff" d="M907.94,-263.63C793.59,-257.67 561.84,-243.32 367,-217 356.25,-215.55 344.69,-213.57 333.97,-211.55"/>
<polygon fill="#63b8ff" stroke="#63b8ff" points="907.8,-267.13 917.97,-264.15 908.16,-260.14 907.8,-267.13"/>
</a>
</g>
</g>
<!-- Node13&#45;&gt;Node10 -->
<g id="edge19_Node000013_Node000010" class="edge">
<title>Node13&#45;&gt;Node10</title>
<g id="a_edge19_Node000013_Node000010"><a xlink:title=" ">
<path fill="none" stroke="#63b8ff" d="M907.8,-255.48C848,-245.67 760.31,-230.99 684,-217 680.79,-216.41 677.49,-215.8 674.17,-215.17"/>
<polygon fill="#63b8ff" stroke="#63b8ff" points="907.46,-258.97 917.9,-257.13 908.59,-252.06 907.46,-258.97"/>
</a>
</g>
</g>
<!-- Node13&#45;&gt;Node11 -->
<g id="edge26_Node000013_Node000011" class="edge">
<title>Node13&#45;&gt;Node11</title>
<g id="a_edge26_Node000013_Node000011"><a xlink:title=" ">
<path fill="none" stroke="#63b8ff" d="M973.67,-242.81C968.85,-225.58 960.27,-202.78 946,-187 930.54,-169.9 906.93,-158.13 888.84,-151.02"/>
<polygon fill="#63b8ff" stroke="#63b8ff" points="970.33,-243.88 976.2,-252.7 977.11,-242.15 970.33,-243.88"/>
</a>
</g>
</g>
<!-- Node14 -->
<g id="Node000014" class="node">
<title>Node14</title>
<g id="a_Node000014"><a xlink:href="lin__alg_8c.html" target="_top" xlink:title="Linear algebra with vectors.">
<polygon fill="white" stroke="#666666" points="803.5,-211.5 692.5,-211.5 692.5,-192.5 803.5,-192.5 803.5,-211.5"/>
<text text-anchor="middle" x="748" y="-199.5" font-family="Helvetica,sans-Serif" font-size="10.00">QPALM/src/lin_alg.c</text>
</a>
</g>
</g>
<!-- Node13&#45;&gt;Node14 -->
<g id="edge21_Node000013_Node000014" class="edge">
<title>Node13&#45;&gt;Node14</title>
<g id="a_edge21_Node000013_Node000014"><a xlink:title=" ">
<path fill="none" stroke="#63b8ff" d="M918.39,-250.21C873.52,-237.78 814.25,-221.35 778.74,-211.52"/>
<polygon fill="#63b8ff" stroke="#63b8ff" points="917.73,-253.66 928.31,-252.95 919.6,-246.91 917.73,-253.66"/>
</a>
</g>
</g>
<!-- Node15 -->
<g id="Node000015" class="node">
<title>Node15</title>
<g id="a_Node000015"><a xlink:href="newton_8c.html" target="_top" xlink:title="Functions to calculate the semismooth Newton direction.">
<polygon fill="white" stroke="#666666" points="936.5,-211.5 821.5,-211.5 821.5,-192.5 936.5,-192.5 936.5,-211.5"/>
<text text-anchor="middle" x="879" y="-199.5" font-family="Helvetica,sans-Serif" font-size="10.00">QPALM/src/newton.c</text>
</a>
</g>
</g>
<!-- Node13&#45;&gt;Node15 -->
<g id="edge23_Node000013_Node000015" class="edge">
<title>Node13&#45;&gt;Node15</title>
<g id="a_edge23_Node000013_Node000015"><a xlink:title=" ">
<path fill="none" stroke="#63b8ff" d="M948.31,-247.36C929.66,-235.42 906.77,-220.77 892.53,-211.66"/>
<polygon fill="#63b8ff" stroke="#63b8ff" points="946.5,-250.35 956.81,-252.8 950.27,-244.46 946.5,-250.35"/>
</a>
</g>
</g>
<!-- Node13&#45;&gt;Node16 -->
<g id="edge24_Node000013_Node000016" class="edge">
<title>Node13&#45;&gt;Node16</title>
<g id="a_edge24_Node000013_Node000016"><a xlink:title=" ">
<path fill="none" stroke="#63b8ff" d="M1050.09,-261.19C1142.33,-253.25 1308.13,-237.61 1449,-217 1459.62,-215.45 1471.02,-213.48 1481.66,-211.5"/>
<polygon fill="#63b8ff" stroke="#63b8ff" points="1049.7,-257.71 1040.03,-262.05 1050.29,-264.68 1049.7,-257.71"/>
</a>
</g>
</g>
<!-- Node13&#45;&gt;Node17 -->
<g id="edge27_Node000013_Node000017" class="edge">
<title>Node13&#45;&gt;Node17</title>
<g id="a_edge27_Node000013_Node000017"><a xlink:title=" ">
<path fill="none" stroke="#63b8ff" d="M1016.95,-248.46C1041.9,-236.27 1073.36,-220.9 1092.57,-211.52"/>
<polygon fill="#63b8ff" stroke="#63b8ff" points="1015.2,-245.42 1007.75,-252.95 1018.27,-251.71 1015.2,-245.42"/>
</a>
</g>
</g>
<!-- Node13&#45;&gt;Node18 -->
<g id="edge28_Node000013_Node000018" class="edge">
<title>Node13&#45;&gt;Node18</title>
<g id="a_edge28_Node000013_Node000018"><a xlink:title=" ">
<path fill="none" stroke="#63b8ff" d="M1050.29,-261.5C1165.63,-252.55 1400.31,-234.1 1599,-217 1626.77,-214.61 1657.36,-211.84 1683.85,-209.39"/>
<polygon fill="#63b8ff" stroke="#63b8ff" points="1049.88,-258.02 1040.18,-262.29 1050.42,-265 1049.88,-258.02"/>
</a>
</g>
</g>
<!-- Node19 -->
<g id="Node000019" class="node">
<title>Node19</title>
<g id="a_Node000019"><a xlink:href="util_8c.html" target="_top" xlink:title="Utility functions.">
<polygon fill="white" stroke="#666666" points="1439.5,-211.5 1344.5,-211.5 1344.5,-192.5 1439.5,-192.5 1439.5,-211.5"/>
<text text-anchor="middle" x="1392" y="-199.5" font-family="Helvetica,sans-Serif" font-size="10.00">QPALM/src/util.c</text>
</a>
</g>
</g>
<!-- Node13&#45;&gt;Node19 -->
<g id="edge29_Node000013_Node000019" class="edge">
<title>Node13&#45;&gt;Node19</title>
<g id="a_edge29_Node000013_Node000019"><a xlink:title=" ">
<path fill="none" stroke="#63b8ff" d="M1050.64,-259.23C1122.99,-250.85 1237.78,-236.1 1336,-217 1343.97,-215.45 1352.5,-213.48 1360.44,-211.51"/>
<polygon fill="#63b8ff" stroke="#63b8ff" points="1049.82,-255.8 1040.28,-260.42 1050.62,-262.75 1049.82,-255.8"/>
</a>
</g>
</g>
<!-- Node13&#45;&gt;Node20 -->
<g id="edge30_Node000013_Node000020" class="edge">
<title>Node13&#45;&gt;Node20</title>
<g id="a_edge30_Node000013_Node000020"><a xlink:title=" ">
<path fill="none" stroke="#63b8ff" d="M1050,-251.22C1106.36,-238.7 1183,-221.67 1228.5,-211.55"/>
<polygon fill="#63b8ff" stroke="#63b8ff" points="1049.08,-247.84 1040.08,-253.43 1050.6,-254.67 1049.08,-247.84"/>
</a>
</g>
</g>
<!-- Node21&#45;&gt;Node2 -->
<g id="edge35_Node000021_Node000002" class="edge">
<title>Node21&#45;&gt;Node2</title>
<g id="a_edge35_Node000021_Node000002"><a xlink:title=" ">
<path fill="none" stroke="#63b8ff" d="M1561.77,-247.98C1589.45,-231.66 1618.97,-207.59 1599,-187 1574.47,-161.71 489.07,-146.73 208.59,-143.27"/>
<polygon fill="#63b8ff" stroke="#63b8ff" points="1559.9,-245.02 1552.92,-252.99 1563.34,-251.11 1559.9,-245.02"/>
</a>
</g>
</g>
<!-- Node21&#45;&gt;Node6 -->
<g id="edge38_Node000021_Node000006" class="edge">
<title>Node21&#45;&gt;Node6</title>
<g id="a_edge38_Node000021_Node000006"><a xlink:title=" ">
<path fill="none" stroke="#63b8ff" d="M1571.05,-248.63C1602.96,-233.49 1635.99,-210.71 1616,-187 1544.7,-102.45 1194.91,-85.98 1058.05,-82.77"/>
<polygon fill="#63b8ff" stroke="#63b8ff" points="1569.34,-245.57 1561.68,-252.89 1572.23,-251.94 1569.34,-245.57"/>
</a>
</g>
</g>
<!-- Node21&#45;&gt;Node8 -->
<g id="edge36_Node000021_Node000008" class="edge">
<title>Node21&#45;&gt;Node8</title>
<g id="a_edge36_Node000021_Node000008"><a xlink:title=" ">
<path fill="none" stroke="#63b8ff" d="M1452.43,-265.29C1290.3,-261 882.64,-247.83 543,-217 527.23,-215.57 510.22,-213.56 494.5,-211.5"/>
<polygon fill="#63b8ff" stroke="#63b8ff" points="1452.67,-268.8 1462.75,-265.56 1452.85,-261.8 1452.67,-268.8"/>
</a>
</g>
</g>
<!-- Node21&#45;&gt;Node16 -->
<g id="edge37_Node000021_Node000016" class="edge">
<title>Node21&#45;&gt;Node16</title>
<g id="a_edge37_Node000021_Node000016"><a xlink:title=" ">
<path fill="none" stroke="#63b8ff" d="M1524,-242.6C1524,-231.8 1524,-219.78 1524,-211.84"/>
<polygon fill="#63b8ff" stroke="#63b8ff" points="1520.5,-242.8 1524,-252.8 1527.5,-242.8 1520.5,-242.8"/>
</a>
</g>
</g>
<!-- Node21&#45;&gt;Node18 -->
<g id="edge39_Node000021_Node000018" class="edge">
<title>Node21&#45;&gt;Node18</title>
<g id="a_edge39_Node000021_Node000018"><a xlink:title=" ">
<path fill="none" stroke="#63b8ff" d="M1583.82,-250.21C1628.11,-237.78 1686.61,-221.35 1721.66,-211.52"/>
<polygon fill="#63b8ff" stroke="#63b8ff" points="1582.72,-246.88 1574.04,-252.95 1584.61,-253.62 1582.72,-246.88"/>
</a>
</g>
</g>
<!-- Node21&#45;&gt;Node19 -->
<g id="edge40_Node000021_Node000019" class="edge">
<title>Node21&#45;&gt;Node19</title>
<g id="a_edge40_Node000021_Node000019"><a xlink:title=" ">
<path fill="none" stroke="#63b8ff" d="M1485.76,-248.46C1460.62,-236.27 1428.92,-220.9 1409.57,-211.52"/>
<polygon fill="#63b8ff" stroke="#63b8ff" points="1484.51,-251.74 1495.03,-252.95 1487.56,-245.44 1484.51,-251.74"/>
</a>
</g>
</g>
</g>
</svg>

<g id="navigator" transform="translate(0 0)" fill="#404254">
  <rect fill="#f2f5e9" fill-opacity="0.5" stroke="#606060" stroke-width=".5" x="0" y="0" width="60" height="60"/>
  <use id="zoomplus" xlink:href="#zoomPlus" x="17" y="9" onmousedown="handleZoom(evt,'in')"/>
  <use id="zoomminus" xlink:href="#zoomMin" x="42" y="9" onmousedown="handleZoom(evt,'out')"/>
  <use id="reset" xlink:href="#resetDef" x="30" y="36" onmousedown="handleReset()"/>
   <use id="arrowup" xlink:href="#arrowUp" x="0" y="0" onmousedown="handlePan(0,-1)"/>
  <use id="arrowright" xlink:href="#arrowRight" x="0" y="0" onmousedown="handlePan(1,0)"/>
  <use id="arrowdown" xlink:href="#arrowDown" x="0" y="0" onmousedown="handlePan(0,1)"/>
  <use id="arrowleft" xlink:href="#arrowLeft" x="0" y="0" onmousedown="handlePan(-1,0)"/>
</g>
<svg viewBox="0 0 15 15" width="100%" height="30px" preserveAspectRatio="xMaxYMin meet">
 <g id="arrow_out" transform="scale(0.3 0.3)">
  <a xlink:href="constants_8h__dep__incl_org.svg" target="_base">
   <rect id="button" ry="5" rx="5" y="6" x="6" height="38" width="38"
        fill="#f2f5e9" fill-opacity="0.5" stroke="#606060" stroke-width="1.0"/>
   <path id="arrow"
     d="M 11.500037,31.436501 C 11.940474,20.09759 22.043105,11.32322 32.158766,21.979434 L 37.068811,17.246167 C 37.068811,17.246167 37.088388,32 37.088388,32 L 22.160133,31.978069 C 22.160133,31.978069 26.997745,27.140456 26.997745,27.140456 C 18.528582,18.264221 13.291696,25.230495 11.500037,31.436501 z"
     style="fill:#404040;"/>
  </a>
 </g>
</svg>

<style type='text/css'>
<![CDATA[
[data-mouse-over-selected='false'] { opacity: 0.7; }
[data-mouse-over-selected='true']  { opacity: 1.0; }
]]>
</style>
<script type="application/ecmascript"><![CDATA[
document.addEventListener('DOMContentLoaded', (event) => {
  highlightEdges();
  highlightAdjacentNodes();
});
]]></script>
</svg>
