<?xml version="1.0" encoding="UTF-8" standalone="no"?>
<!DOCTYPE svg PUBLIC "-//W3C//DTD SVG 1.1//EN"
 "http://www.w3.org/Graphics/SVG/1.1/DTD/svg11.dtd">
<!-- Generated by graphviz version 2.43.0 (0)
 -->
<!-- Title: QPALM/include/qpalm/lin_alg.h Pages: 1 -->
<svg width="418pt" height="258pt"
 viewBox="0.00 0.00 417.50 258.00" xmlns="http://www.w3.org/2000/svg" xmlns:xlink="http://www.w3.org/1999/xlink">
<g id="graph0" class="graph" transform="scale(1 1) rotate(0) translate(4 254)">
<title>QPALM/include/qpalm/lin_alg.h</title>
<!-- Node1 -->
<g id="Node000001" class="node">
<title>Node1</title>
<g id="a_Node000001"><a xlink:title="Linear algebra with vectors.">
<polygon fill="#999999" stroke="#666666" points="263,-250 141,-250 141,-220 263,-220 263,-250"/>
<text text-anchor="start" x="149" y="-238" font-family="Helvetica,sans-Serif" font-size="10.00">QPALM/include/qpalm</text>
<text text-anchor="middle" x="202" y="-227" font-family="Helvetica,sans-Serif" font-size="10.00">/lin_alg.h</text>
</a>
</g>
</g>
<!-- Node2 -->
<g id="Node000002" class="node">
<title>Node2</title>
<g id="a_Node000002"><a xlink:href="types_8h.html" target="_top" xlink:title="Internal data structures used in QPALM.">
<polygon fill="white" stroke="#666666" points="180.5,-129 127.5,-129 127.5,-110 180.5,-110 180.5,-129"/>
<text text-anchor="middle" x="154" y="-117" font-family="Helvetica,sans-Serif" font-size="10.00">types.h</text>
</a>
</g>
</g>
<!-- Node1&#45;&gt;Node2 -->
<g id="edge1_Node000001_Node000002" class="edge">
<title>Node1&#45;&gt;Node2</title>
<g id="a_edge1_Node000001_Node000002"><a xlink:title=" ">
<path fill="none" stroke="#63b8ff" d="M192.43,-219.6C186.26,-209.85 178.42,-196.53 173,-184 166.71,-169.46 161.69,-152.19 158.4,-139.34"/>
<polygon fill="#63b8ff" stroke="#63b8ff" points="161.73,-138.24 155.95,-129.36 154.93,-139.9 161.73,-138.24"/>
</a>
</g>
</g>
<!-- Node7 -->
<g id="Node000007" class="node">
<title>Node7</title>
<g id="a_Node000007"><a xlink:href="solver__interface_8h.html" target="_top" xlink:title="Interface and wrapper to matrix/factorization (ladel) functions.">
<polygon fill="white" stroke="#666666" points="320,-184 182,-184 182,-165 320,-165 320,-184"/>
<text text-anchor="middle" x="251" y="-172" font-family="Helvetica,sans-Serif" font-size="10.00">qpalm/solver_interface.h</text>
</a>
</g>
</g>
<!-- Node1&#45;&gt;Node7 -->
<g id="edge7_Node000001_Node000007" class="edge">
<title>Node1&#45;&gt;Node7</title>
<g id="a_edge7_Node000001_Node000007"><a xlink:title=" ">
<path fill="none" stroke="#63b8ff" d="M213.86,-219.84C220.9,-211.43 229.86,-200.74 237.21,-191.96"/>
<polygon fill="#63b8ff" stroke="#63b8ff" points="239.92,-194.18 243.66,-184.27 234.55,-189.68 239.92,-194.18"/>
</a>
</g>
</g>
<!-- Node3 -->
<g id="Node000003" class="node">
<title>Node3</title>
<g id="a_Node000003"><a xlink:title=" ">
<polygon fill="#e0e0e0" stroke="#999999" points="74,-74 0,-74 0,-55 74,-55 74,-74"/>
<text text-anchor="middle" x="37" y="-62" font-family="Helvetica,sans-Serif" font-size="10.00">stdatomic.h</text>
</a>
</g>
</g>
<!-- Node2&#45;&gt;Node3 -->
<g id="edge2_Node000002_Node000003" class="edge">
<title>Node2&#45;&gt;Node3</title>
<g id="a_edge2_Node000002_Node000003"><a xlink:title=" ">
<path fill="none" stroke="#63b8ff" d="M135.2,-109.98C116.38,-101.46 87.18,-88.23 65.5,-78.41"/>
<polygon fill="#63b8ff" stroke="#63b8ff" points="66.69,-75.11 56.14,-74.17 63.8,-81.48 66.69,-75.11"/>
</a>
</g>
</g>
<!-- Node4 -->
<g id="Node000004" class="node">
<title>Node4</title>
<g id="a_Node000004"><a xlink:href="global__opts_8h.html" target="_top" xlink:title="Custom memory allocation, print and utility functions, and data types for floats and ints.">
<polygon fill="white" stroke="#666666" points="246,-74 130,-74 130,-55 246,-55 246,-74"/>
<text text-anchor="middle" x="188" y="-62" font-family="Helvetica,sans-Serif" font-size="10.00">qpalm/global_opts.h</text>
</a>
</g>
</g>
<!-- Node2&#45;&gt;Node4 -->
<g id="edge3_Node000002_Node000004" class="edge">
<title>Node2&#45;&gt;Node4</title>
<g id="a_edge3_Node000002_Node000004"><a xlink:title=" ">
<path fill="none" stroke="#63b8ff" d="M159.61,-109.75C164.32,-102.42 171.17,-91.73 176.97,-82.7"/>
<polygon fill="#63b8ff" stroke="#63b8ff" points="180.04,-84.4 182.49,-74.09 174.14,-80.62 180.04,-84.4"/>
</a>
</g>
</g>
<!-- Node5 -->
<g id="Node000005" class="node">
<title>Node5</title>
<g id="a_Node000005"><a xlink:title=" ">
<polygon fill="#e0e0e0" stroke="#999999" points="290,-19 240,-19 240,0 290,0 290,-19"/>
<text text-anchor="middle" x="265" y="-7" font-family="Helvetica,sans-Serif" font-size="10.00">ladel.h</text>
</a>
</g>
</g>
<!-- Node2&#45;&gt;Node5 -->
<g id="edge6_Node000002_Node000005" class="edge">
<title>Node2&#45;&gt;Node5</title>
<g id="a_edge6_Node000002_Node000005"><a xlink:title=" ">
<path fill="none" stroke="#63b8ff" d="M143.49,-109.79C129.43,-97.08 107.72,-73 121,-55 127.64,-46 189.67,-29.17 230.12,-18.98"/>
<polygon fill="#63b8ff" stroke="#63b8ff" points="231.04,-22.36 239.89,-16.54 229.34,-15.57 231.04,-22.36"/>
</a>
</g>
</g>
<!-- Node4&#45;&gt;Node5 -->
<g id="edge4_Node000004_Node000005" class="edge">
<title>Node4&#45;&gt;Node5</title>
<g id="a_edge4_Node000004_Node000005"><a xlink:title=" ">
<path fill="none" stroke="#63b8ff" d="M200.37,-54.98C212.09,-46.92 229.92,-34.65 243.89,-25.03"/>
<polygon fill="#63b8ff" stroke="#63b8ff" points="246.15,-27.72 252.4,-19.17 242.18,-21.96 246.15,-27.72"/>
</a>
</g>
</g>
<!-- Node6 -->
<g id="Node000006" class="node">
<title>Node6</title>
<g id="a_Node000006"><a xlink:title=" ">
<polygon fill="#e0e0e0" stroke="#999999" points="213.5,-19 162.5,-19 162.5,0 213.5,0 213.5,-19"/>
<text text-anchor="middle" x="188" y="-7" font-family="Helvetica,sans-Serif" font-size="10.00">math.h</text>
</a>
</g>
</g>
<!-- Node4&#45;&gt;Node6 -->
<g id="edge5_Node000004_Node000006" class="edge">
<title>Node4&#45;&gt;Node6</title>
<g id="a_edge5_Node000004_Node000006"><a xlink:title=" ">
<path fill="none" stroke="#63b8ff" d="M188,-54.75C188,-47.8 188,-37.85 188,-29.13"/>
<polygon fill="#63b8ff" stroke="#63b8ff" points="191.5,-29.09 188,-19.09 184.5,-29.09 191.5,-29.09"/>
</a>
</g>
</g>
<!-- Node7&#45;&gt;Node2 -->
<g id="edge11_Node000007_Node000002" class="edge">
<title>Node7&#45;&gt;Node2</title>
<g id="a_edge11_Node000007_Node000002"><a xlink:title=" ">
<path fill="none" stroke="#63b8ff" d="M235.42,-164.98C220.23,-156.69 196.9,-143.94 179.1,-134.22"/>
<polygon fill="#63b8ff" stroke="#63b8ff" points="180.32,-130.89 169.87,-129.17 176.97,-137.04 180.32,-130.89"/>
</a>
</g>
</g>
<!-- Node7&#45;&gt;Node4 -->
<g id="edge8_Node000007_Node000004" class="edge">
<title>Node7&#45;&gt;Node4</title>
<g id="a_edge8_Node000007_Node000004"><a xlink:title=" ">
<path fill="none" stroke="#63b8ff" d="M245.84,-164.66C235.46,-146.85 211.84,-106.37 198.21,-83.01"/>
<polygon fill="#63b8ff" stroke="#63b8ff" points="201.11,-81.03 193.05,-74.16 195.07,-84.56 201.11,-81.03"/>
</a>
</g>
</g>
<!-- Node7&#45;&gt;Node5 -->
<g id="edge12_Node000007_Node000005" class="edge">
<title>Node7&#45;&gt;Node5</title>
<g id="a_edge12_Node000007_Node000005"><a xlink:title=" ">
<path fill="none" stroke="#63b8ff" d="M251.75,-164.74C253.94,-139.31 260.31,-65.08 263.35,-29.69"/>
<polygon fill="#63b8ff" stroke="#63b8ff" points="266.87,-29.57 264.24,-19.31 259.9,-28.97 266.87,-29.57"/>
</a>
</g>
</g>
<!-- Node8 -->
<g id="Node000008" class="node">
<title>Node8</title>
<g id="a_Node000008"><a xlink:href="constants_8h.html" target="_top" xlink:title="Constants used in QPALM.">
<polygon fill="white" stroke="#666666" points="409.5,-129 302.5,-129 302.5,-110 409.5,-110 409.5,-129"/>
<text text-anchor="middle" x="356" y="-117" font-family="Helvetica,sans-Serif" font-size="10.00">qpalm/constants.h</text>
</a>
</g>
</g>
<!-- Node7&#45;&gt;Node8 -->
<g id="edge9_Node000007_Node000008" class="edge">
<title>Node7&#45;&gt;Node8</title>
<g id="a_edge9_Node000007_Node000008"><a xlink:title=" ">
<path fill="none" stroke="#63b8ff" d="M267.87,-164.98C284.61,-156.54 310.5,-143.47 329.89,-133.68"/>
<polygon fill="#63b8ff" stroke="#63b8ff" points="331.47,-136.8 338.82,-129.17 328.32,-130.55 331.47,-136.8"/>
</a>
</g>
</g>
<!-- Node8&#45;&gt;Node5 -->
<g id="edge10_Node000008_Node000005" class="edge">
<title>Node8&#45;&gt;Node5</title>
<g id="a_edge10_Node000008_Node000005"><a xlink:title=" ">
<path fill="none" stroke="#63b8ff" d="M348.55,-109.66C333.35,-91.61 298.52,-50.28 278.97,-27.08"/>
<polygon fill="#63b8ff" stroke="#63b8ff" points="281.42,-24.55 272.3,-19.16 276.06,-29.06 281.42,-24.55"/>
</a>
</g>
</g>
</g>
</svg>
