<?xml version="1.0" encoding="UTF-8" standalone="no"?>
<!DOCTYPE svg PUBLIC "-//W3C//DTD SVG 1.1//EN"
 "http://www.w3.org/Graphics/SVG/1.1/DTD/svg11.dtd">
<!-- Generated by graphviz version 2.43.0 (0)
 -->
<!-- Title: vec_set_scalar Pages: 1 -->
<svg width="812pt" height="101pt"
 viewBox="0.00 0.00 812.00 101.00" xmlns="http://www.w3.org/2000/svg" xmlns:xlink="http://www.w3.org/1999/xlink">
<g id="graph0" class="graph" transform="scale(1 1) rotate(0) translate(4 97)">
<title>vec_set_scalar</title>
<!-- Node1 -->
<g id="Node000001" class="node">
<title>Node1</title>
<g id="a_Node000001"><a xlink:title="Fill float vector with a scalar value.">
<polygon fill="#999999" stroke="#666666" points="804,-56 715,-56 715,-37 804,-37 804,-56"/>
<text text-anchor="middle" x="759.5" y="-44" font-family="Helvetica,sans-Serif" font-size="10.00">vec_set_scalar</text>
</a>
</g>
</g>
<!-- Node2 -->
<g id="Node000002" class="node">
<title>Node2</title>
<g id="a_Node000002"><a xlink:href="iteration_8c.html#a155f5c99c7a442c554cca914de34eba7" target="_top" xlink:title="Initialize penalty factors from initial x.">
<polygon fill="white" stroke="#666666" points="679,-93 585,-93 585,-74 679,-74 679,-93"/>
<text text-anchor="middle" x="632" y="-81" font-family="Helvetica,sans-Serif" font-size="10.00">initialize_sigma</text>
</a>
</g>
</g>
<!-- Node1&#45;&gt;Node2 -->
<g id="edge1_Node000001_Node000002" class="edge">
<title>Node1&#45;&gt;Node2</title>
<g id="a_edge1_Node000001_Node000002"><a xlink:title=" ">
<path fill="none" stroke="#63b8ff" d="M716.22,-58.96C699.72,-63.83 681.09,-69.32 665.65,-73.88"/>
<polygon fill="#63b8ff" stroke="#63b8ff" points="717.58,-62.21 726.18,-56.03 715.6,-55.5 717.58,-62.21"/>
</a>
</g>
</g>
<!-- Node3 -->
<g id="Node000003" class="node">
<title>Node3</title>
<g id="a_Node000003"><a xlink:href="solver__interface_8c.html#aca80eaf7b897030273f1a6820b7e6d38" target="_top" xlink:title="Solve the KKT system &#160;.">
<polygon fill="white" stroke="#666666" points="664,-56 600,-56 600,-37 664,-37 664,-56"/>
<text text-anchor="middle" x="632" y="-44" font-family="Helvetica,sans-Serif" font-size="10.00">kkt_solve</text>
</a>
</g>
</g>
<!-- Node1&#45;&gt;Node3 -->
<g id="edge2_Node000001_Node000003" class="edge">
<title>Node1&#45;&gt;Node3</title>
<g id="a_edge2_Node000001_Node000003"><a xlink:title=" ">
<path fill="none" stroke="#63b8ff" d="M704.57,-46.5C690.79,-46.5 676.42,-46.5 664.21,-46.5"/>
<polygon fill="#63b8ff" stroke="#63b8ff" points="704.96,-50 714.96,-46.5 704.96,-43 704.96,-50"/>
</a>
</g>
</g>
<!-- Node9 -->
<g id="Node000009" class="node">
<title>Node9</title>
<g id="a_Node000009"><a xlink:href="scaling_8c.html#a3735b6c9c3aeeddfb3bb0982ae5f70ba" target="_top" xlink:title="Scale problem matrices.">
<polygon fill="white" stroke="#666666" points="666.5,-19 597.5,-19 597.5,0 666.5,0 666.5,-19"/>
<text text-anchor="middle" x="632" y="-7" font-family="Helvetica,sans-Serif" font-size="10.00">scale_data</text>
</a>
</g>
</g>
<!-- Node1&#45;&gt;Node9 -->
<g id="edge8_Node000001_Node000009" class="edge">
<title>Node1&#45;&gt;Node9</title>
<g id="a_edge8_Node000001_Node000009"><a xlink:title=" ">
<path fill="none" stroke="#63b8ff" d="M716.22,-34.04C699.72,-29.17 681.09,-23.68 665.65,-19.12"/>
<polygon fill="#63b8ff" stroke="#63b8ff" points="715.6,-37.5 726.18,-36.97 717.58,-30.79 715.6,-37.5"/>
</a>
</g>
</g>
<!-- Node4 -->
<g id="Node000004" class="node">
<title>Node4</title>
<g id="a_Node000004"><a xlink:href="newton_8c.html#af1654e5597faac8b0ade25acf1fc1bc9" target="_top" xlink:title="Sets work&#45;&gt;d to the direction calculated by the semismooth Newton method.">
<polygon fill="white" stroke="#666666" points="549,-56 428,-56 428,-37 549,-37 549,-56"/>
<text text-anchor="middle" x="488.5" y="-44" font-family="Helvetica,sans-Serif" font-size="10.00">newton_set_direction</text>
</a>
</g>
</g>
<!-- Node3&#45;&gt;Node4 -->
<g id="edge3_Node000003_Node000004" class="edge">
<title>Node3&#45;&gt;Node4</title>
<g id="a_edge3_Node000003_Node000004"><a xlink:title=" ">
<path fill="none" stroke="#63b8ff" d="M589.73,-46.5C577.07,-46.5 562.89,-46.5 549.26,-46.5"/>
<polygon fill="#63b8ff" stroke="#63b8ff" points="589.95,-50 599.95,-46.5 589.95,-43 589.95,-50"/>
</a>
</g>
</g>
<!-- Node5 -->
<g id="Node000005" class="node">
<title>Node5</title>
<g id="a_Node000005"><a xlink:href="iteration_8c.html#a9c9fafac9ce099122c5a594762e5a052" target="_top" xlink:title="Update the primal iterate.">
<polygon fill="white" stroke="#666666" points="392,-56 267,-56 267,-37 392,-37 392,-56"/>
<text text-anchor="middle" x="329.5" y="-44" font-family="Helvetica,sans-Serif" font-size="10.00">update_primal_iterate</text>
</a>
</g>
</g>
<!-- Node4&#45;&gt;Node5 -->
<g id="edge4_Node000004_Node000005" class="edge">
<title>Node4&#45;&gt;Node5</title>
<g id="a_edge4_Node000004_Node000005"><a xlink:title=" ">
<path fill="none" stroke="#63b8ff" d="M417.51,-46.5C409.08,-46.5 400.52,-46.5 392.22,-46.5"/>
<polygon fill="#63b8ff" stroke="#63b8ff" points="417.7,-50 427.7,-46.5 417.7,-43 417.7,-50"/>
</a>
</g>
</g>
<!-- Node6 -->
<g id="Node000006" class="node">
<title>Node6</title>
<g id="a_Node000006"><a xlink:href="group__solver-grp.html#ga17fcba910c32b8518df93617591b1cf1" target="_top" xlink:title="Solve the quadratic program.">
<polygon fill="white" stroke="#666666" points="231,-56 152,-56 152,-37 231,-37 231,-56"/>
<text text-anchor="middle" x="191.5" y="-44" font-family="Helvetica,sans-Serif" font-size="10.00">qpalm_solve</text>
</a>
</g>
</g>
<!-- Node5&#45;&gt;Node6 -->
<g id="edge5_Node000005_Node000006" class="edge">
<title>Node5&#45;&gt;Node6</title>
<g id="a_edge5_Node000005_Node000006"><a xlink:title=" ">
<path fill="none" stroke="#63b8ff" d="M256.64,-46.5C247.93,-46.5 239.3,-46.5 231.34,-46.5"/>
<polygon fill="#63b8ff" stroke="#63b8ff" points="256.87,-50 266.87,-46.5 256.87,-43 256.87,-50"/>
</a>
</g>
</g>
<!-- Node7 -->
<g id="Node000007" class="node">
<title>Node7</title>
<g id="a_Node000007"><a xlink:href="qpalm__fortran_8c.html#abec01161fcee665e126347b862c404c4" target="_top" xlink:title=" ">
<polygon fill="white" stroke="#666666" points="106,-75 10,-75 10,-56 106,-56 106,-75"/>
<text text-anchor="middle" x="58" y="-63" font-family="Helvetica,sans-Serif" font-size="10.00">qpalm_fortran_c</text>
</a>
</g>
</g>
<!-- Node6&#45;&gt;Node7 -->
<g id="edge6_Node000006_Node000007" class="edge">
<title>Node6&#45;&gt;Node7</title>
<g id="a_edge6_Node000006_Node000007"><a xlink:title=" ">
<path fill="none" stroke="#63b8ff" d="M141.8,-53.54C130.2,-55.21 117.85,-57 106.31,-58.66"/>
<polygon fill="#63b8ff" stroke="#63b8ff" points="142.36,-56.99 151.76,-52.1 141.36,-50.06 142.36,-56.99"/>
</a>
</g>
</g>
<!-- Node8 -->
<g id="Node000008" class="node">
<title>Node8</title>
<g id="a_Node000008"><a xlink:href="classqpalm_1_1Solver.html#a7d723d189a812ffa19d688b7aa38ccca" target="_top" xlink:title="Solve the problem.">
<polygon fill="white" stroke="#666666" points="116,-38 0,-38 0,-19 116,-19 116,-38"/>
<text text-anchor="middle" x="58" y="-26" font-family="Helvetica,sans-Serif" font-size="10.00">qpalm::Solver::solve</text>
</a>
</g>
</g>
<!-- Node6&#45;&gt;Node8 -->
<g id="edge7_Node000006_Node000008" class="edge">
<title>Node6&#45;&gt;Node8</title>
<g id="a_edge7_Node000006_Node000008"><a xlink:title=" ">
<path fill="none" stroke="#63b8ff" d="M141.62,-39.81C133.43,-38.69 124.86,-37.52 116.47,-36.37"/>
<polygon fill="#63b8ff" stroke="#63b8ff" points="141.37,-43.31 151.76,-41.2 142.32,-36.37 141.37,-43.31"/>
</a>
</g>
</g>
</g>
</svg>
