<?xml version="1.0" encoding="UTF-8" standalone="no"?>
<!DOCTYPE svg PUBLIC "-//W3C//DTD SVG 1.1//EN"
 "http://www.w3.org/Graphics/SVG/1.1/DTD/svg11.dtd">
<!-- Generated by graphviz version 2.43.0 (0)
 -->
<!-- Title: QPALM/include/qpalm/solver_interface.h Pages: 1 -->
<svg width="344pt" height="203pt"
 viewBox="0.00 0.00 343.98 203.00" xmlns="http://www.w3.org/2000/svg" xmlns:xlink="http://www.w3.org/1999/xlink">
<g id="graph0" class="graph" transform="scale(1 1) rotate(0) translate(4 199)">
<title>QPALM/include/qpalm/solver_interface.h</title>
<!-- Node1 -->
<g id="Node000001" class="node">
<title>Node1</title>
<g id="a_Node000001"><a xlink:title="Interface and wrapper to matrix/factorization (ladel) functions.">
<polygon fill="#999999" stroke="#666666" points="187.98,-195 65.98,-195 65.98,-165 187.98,-165 187.98,-195"/>
<text text-anchor="start" x="73.98" y="-183" font-family="Helvetica,sans-Serif" font-size="10.00">QPALM/include/qpalm</text>
<text text-anchor="middle" x="126.98" y="-172" font-family="Helvetica,sans-Serif" font-size="10.00">/solver_interface.h</text>
</a>
</g>
</g>
<!-- Node2 -->
<g id="Node000002" class="node">
<title>Node2</title>
<g id="a_Node000002"><a xlink:href="global__opts_8h.html" target="_top" xlink:title="Custom memory allocation, print and utility functions, and data types for floats and ints.">
<polygon fill="white" stroke="#666666" points="335.98,-74 219.98,-74 219.98,-55 335.98,-55 335.98,-74"/>
<text text-anchor="middle" x="277.98" y="-62" font-family="Helvetica,sans-Serif" font-size="10.00">qpalm/global_opts.h</text>
</a>
</g>
</g>
<!-- Node1&#45;&gt;Node2 -->
<g id="edge1_Node000001_Node000002" class="edge">
<title>Node1&#45;&gt;Node2</title>
<g id="a_edge1_Node000001_Node000002"><a xlink:title=" ">
<path fill="none" stroke="#63b8ff" d="M172.62,-164.97C193.83,-156.86 218.4,-145.04 236.98,-129 251.53,-116.44 262.85,-97.47 269.88,-83.53"/>
<polygon fill="#63b8ff" stroke="#63b8ff" points="273.07,-84.97 274.22,-74.44 266.75,-81.96 273.07,-84.97"/>
</a>
</g>
</g>
<!-- Node3 -->
<g id="Node000003" class="node">
<title>Node3</title>
<g id="a_Node000003"><a xlink:title=" ">
<polygon fill="#e0e0e0" stroke="#999999" points="105.98,-19 55.98,-19 55.98,0 105.98,0 105.98,-19"/>
<text text-anchor="middle" x="80.98" y="-7" font-family="Helvetica,sans-Serif" font-size="10.00">ladel.h</text>
</a>
</g>
</g>
<!-- Node1&#45;&gt;Node3 -->
<g id="edge10_Node000001_Node000003" class="edge">
<title>Node1&#45;&gt;Node3</title>
<g id="a_edge10_Node000001_Node000003"><a xlink:title=" ">
<path fill="none" stroke="#63b8ff" d="M65.96,-168.32C43.54,-161.12 20.38,-149.09 6.98,-129 -17.51,-92.26 30.24,-47.86 59.88,-25.26"/>
<polygon fill="#63b8ff" stroke="#63b8ff" points="62.08,-27.99 68.05,-19.24 57.92,-22.36 62.08,-27.99"/>
</a>
</g>
</g>
<!-- Node5 -->
<g id="Node000005" class="node">
<title>Node5</title>
<g id="a_Node000005"><a xlink:href="constants_8h.html" target="_top" xlink:title="Constants used in QPALM.">
<polygon fill="white" stroke="#666666" points="123.48,-129 16.48,-129 16.48,-110 123.48,-110 123.48,-129"/>
<text text-anchor="middle" x="69.98" y="-117" font-family="Helvetica,sans-Serif" font-size="10.00">qpalm/constants.h</text>
</a>
</g>
</g>
<!-- Node1&#45;&gt;Node5 -->
<g id="edge4_Node000001_Node000005" class="edge">
<title>Node1&#45;&gt;Node5</title>
<g id="a_edge4_Node000001_Node000005"><a xlink:title=" ">
<path fill="none" stroke="#63b8ff" d="M113.18,-164.84C104.91,-156.35 94.36,-145.52 85.76,-136.69"/>
<polygon fill="#63b8ff" stroke="#63b8ff" points="88.01,-133.99 78.52,-129.27 83,-138.87 88.01,-133.99"/>
</a>
</g>
</g>
<!-- Node6 -->
<g id="Node000006" class="node">
<title>Node6</title>
<g id="a_Node000006"><a xlink:href="types_8h.html" target="_top" xlink:title="Internal data structures used in QPALM.">
<polygon fill="white" stroke="#666666" points="227.98,-129 141.98,-129 141.98,-110 227.98,-110 227.98,-129"/>
<text text-anchor="middle" x="184.98" y="-117" font-family="Helvetica,sans-Serif" font-size="10.00">qpalm/types.h</text>
</a>
</g>
</g>
<!-- Node1&#45;&gt;Node6 -->
<g id="edge6_Node000001_Node000006" class="edge">
<title>Node1&#45;&gt;Node6</title>
<g id="a_edge6_Node000001_Node000006"><a xlink:title=" ">
<path fill="none" stroke="#63b8ff" d="M141.02,-164.84C149.53,-156.26 160.4,-145.3 169.2,-136.42"/>
<polygon fill="#63b8ff" stroke="#63b8ff" points="171.74,-138.83 176.29,-129.27 166.76,-133.9 171.74,-138.83"/>
</a>
</g>
</g>
<!-- Node2&#45;&gt;Node3 -->
<g id="edge2_Node000002_Node000003" class="edge">
<title>Node2&#45;&gt;Node3</title>
<g id="a_edge2_Node000002_Node000003"><a xlink:title=" ">
<path fill="none" stroke="#63b8ff" d="M246.33,-54.98C210.64,-45.38 152.78,-29.82 115.83,-19.87"/>
<polygon fill="#63b8ff" stroke="#63b8ff" points="116.56,-16.45 105.99,-17.23 114.74,-23.21 116.56,-16.45"/>
</a>
</g>
</g>
<!-- Node4 -->
<g id="Node000004" class="node">
<title>Node4</title>
<g id="a_Node000004"><a xlink:title=" ">
<polygon fill="#e0e0e0" stroke="#999999" points="303.48,-19 252.48,-19 252.48,0 303.48,0 303.48,-19"/>
<text text-anchor="middle" x="277.98" y="-7" font-family="Helvetica,sans-Serif" font-size="10.00">math.h</text>
</a>
</g>
</g>
<!-- Node2&#45;&gt;Node4 -->
<g id="edge3_Node000002_Node000004" class="edge">
<title>Node2&#45;&gt;Node4</title>
<g id="a_edge3_Node000002_Node000004"><a xlink:title=" ">
<path fill="none" stroke="#63b8ff" d="M277.98,-54.75C277.98,-47.8 277.98,-37.85 277.98,-29.13"/>
<polygon fill="#63b8ff" stroke="#63b8ff" points="281.48,-29.09 277.98,-19.09 274.48,-29.09 281.48,-29.09"/>
</a>
</g>
</g>
<!-- Node5&#45;&gt;Node3 -->
<g id="edge5_Node000005_Node000003" class="edge">
<title>Node5&#45;&gt;Node3</title>
<g id="a_edge5_Node000005_Node000003"><a xlink:title=" ">
<path fill="none" stroke="#63b8ff" d="M70.88,-109.66C72.66,-92.17 76.67,-52.8 79.07,-29.27"/>
<polygon fill="#63b8ff" stroke="#63b8ff" points="82.57,-29.46 80.1,-19.16 75.6,-28.75 82.57,-29.46"/>
</a>
</g>
</g>
<!-- Node6&#45;&gt;Node2 -->
<g id="edge8_Node000006_Node000002" class="edge">
<title>Node6&#45;&gt;Node2</title>
<g id="a_edge8_Node000006_Node000002"><a xlink:title=" ">
<path fill="none" stroke="#63b8ff" d="M199.92,-109.98C214.48,-101.69 236.85,-88.94 253.92,-79.22"/>
<polygon fill="#63b8ff" stroke="#63b8ff" points="255.81,-82.16 262.77,-74.17 252.35,-76.08 255.81,-82.16"/>
</a>
</g>
</g>
<!-- Node6&#45;&gt;Node3 -->
<g id="edge9_Node000006_Node000003" class="edge">
<title>Node6&#45;&gt;Node3</title>
<g id="a_edge9_Node000006_Node000003"><a xlink:title=" ">
<path fill="none" stroke="#63b8ff" d="M168.31,-109.98C153.99,-102.08 133.43,-89.25 118.98,-74 106.17,-60.47 95.68,-41.89 88.99,-28.33"/>
<polygon fill="#63b8ff" stroke="#63b8ff" points="92.07,-26.65 84.64,-19.1 85.74,-29.63 92.07,-26.65"/>
</a>
</g>
</g>
<!-- Node7 -->
<g id="Node000007" class="node">
<title>Node7</title>
<g id="a_Node000007"><a xlink:title=" ">
<polygon fill="#e0e0e0" stroke="#999999" points="201.98,-74 127.98,-74 127.98,-55 201.98,-55 201.98,-74"/>
<text text-anchor="middle" x="164.98" y="-62" font-family="Helvetica,sans-Serif" font-size="10.00">stdatomic.h</text>
</a>
</g>
</g>
<!-- Node6&#45;&gt;Node7 -->
<g id="edge7_Node000006_Node000007" class="edge">
<title>Node6&#45;&gt;Node7</title>
<g id="a_edge7_Node000006_Node000007"><a xlink:title=" ">
<path fill="none" stroke="#63b8ff" d="M181.68,-109.75C179,-102.65 175.13,-92.4 171.8,-83.56"/>
<polygon fill="#63b8ff" stroke="#63b8ff" points="175.03,-82.21 168.22,-74.09 168.48,-84.68 175.03,-82.21"/>
</a>
</g>
</g>
</g>
</svg>
