<?xml version="1.0" encoding="UTF-8" standalone="no"?>
<!DOCTYPE svg PUBLIC "-//W3C//DTD SVG 1.1//EN"
 "http://www.w3.org/Graphics/SVG/1.1/DTD/svg11.dtd">
<!-- Generated by graphviz version 2.43.0 (0)
 -->
<!-- Title: QPALMScaling Pages: 1 -->
<svg width="88pt" height="132pt"
 viewBox="0.00 0.00 88.00 132.00" xmlns="http://www.w3.org/2000/svg" xmlns:xlink="http://www.w3.org/1999/xlink">
<g id="graph0" class="graph" transform="scale(1 1) rotate(0) translate(4 128)">
<title>QPALMScaling</title>
<!-- Node1 -->
<g id="Node000001" class="node">
<title>Node1</title>
<g id="a_Node000001"><a xlink:title="Problem scaling matrices stored as vectors.">
<polygon fill="#999999" stroke="transparent" points="80,-124 0,-124 0,0 80,0 80,-124"/>
<text text-anchor="start" x="5" y="-112" font-family="Helvetica,sans-Serif" font-size="10.00">QPALMScaling</text>
<text text-anchor="start" x="13" y="-97" font-family="Helvetica,sans-Serif" font-size="10.00">+</text>
<text text-anchor="start" x="35" y="-97" font-family="Helvetica,sans-Serif" font-size="10.00">D</text>
<text text-anchor="start" x="13" y="-82" font-family="Helvetica,sans-Serif" font-size="10.00">+</text>
<text text-anchor="start" x="35" y="-82" font-family="Helvetica,sans-Serif" font-size="10.00">Dinv</text>
<text text-anchor="start" x="13" y="-67" font-family="Helvetica,sans-Serif" font-size="10.00">+</text>
<text text-anchor="start" x="35" y="-67" font-family="Helvetica,sans-Serif" font-size="10.00">E</text>
<text text-anchor="start" x="13" y="-52" font-family="Helvetica,sans-Serif" font-size="10.00">+</text>
<text text-anchor="start" x="35" y="-52" font-family="Helvetica,sans-Serif" font-size="10.00">Einv</text>
<text text-anchor="start" x="13" y="-37" font-family="Helvetica,sans-Serif" font-size="10.00">+</text>
<text text-anchor="start" x="35" y="-37" font-family="Helvetica,sans-Serif" font-size="10.00">c</text>
<text text-anchor="start" x="13" y="-22" font-family="Helvetica,sans-Serif" font-size="10.00">+</text>
<text text-anchor="start" x="35" y="-22" font-family="Helvetica,sans-Serif" font-size="10.00">cinv</text>
<text text-anchor="start" x="38" y="-7" font-family="Helvetica,sans-Serif" font-size="10.00"> </text>
<polygon fill="#666666" stroke="#666666" points="0,-107 0,-107 80,-107 80,-107 0,-107"/>
<polygon fill="#666666" stroke="#666666" points="0,-17 0,-17 33,-17 33,-17 0,-17"/>
<polygon fill="#666666" stroke="#666666" points="33,-17 33,-17 80,-17 80,-17 33,-17"/>
<polygon fill="none" stroke="#666666" points="0,0 0,-124 80,-124 80,0 0,0"/>
</a>
</g>
</g>
</g>
</svg>
