<?xml version="1.0" encoding="UTF-8" standalone="no"?>
<!DOCTYPE svg PUBLIC "-//W3C//DTD SVG 1.1//EN"
 "http://www.w3.org/Graphics/SVG/1.1/DTD/svg11.dtd">
<!-- Generated by graphviz version 2.43.0 (0)
 -->
<!-- Title: QPALM/include/qpalm/termination.h Pages: 1 -->
<svg width="511pt" height="225pt"
 viewBox="0.00 0.00 511.00 225.00" xmlns="http://www.w3.org/2000/svg" xmlns:xlink="http://www.w3.org/1999/xlink">
<g id="graph0" class="graph" transform="scale(1 1) rotate(0) translate(4 221)">
<title>QPALM/include/qpalm/termination.h</title>
<!-- Node1 -->
<g id="Node000001" class="node">
<title>Node1</title>
<g id="a_Node000001"><a xlink:title="Routines to check the termination and infeasibility criteria.">
<polygon fill="#999999" stroke="#666666" points="400,-217 278,-217 278,-187 400,-187 400,-217"/>
<text text-anchor="start" x="286" y="-205" font-family="Helvetica,sans-Serif" font-size="10.00">QPALM/include/qpalm</text>
<text text-anchor="middle" x="339" y="-194" font-family="Helvetica,sans-Serif" font-size="10.00">/termination.h</text>
</a>
</g>
</g>
<!-- Node2 -->
<g id="Node000002" class="node">
<title>Node2</title>
<g id="a_Node000002"><a xlink:href="qpalm_8h.html" target="_top" xlink:title="QPALM main solver API.">
<polygon fill="white" stroke="#666666" points="298.5,-151 167.5,-151 167.5,-132 298.5,-132 298.5,-151"/>
<text text-anchor="middle" x="233" y="-139" font-family="Helvetica,sans-Serif" font-size="10.00">QPALM/include/qpalm.h</text>
</a>
</g>
</g>
<!-- Node1&#45;&gt;Node2 -->
<g id="edge1_Node000001_Node000002" class="edge">
<title>Node1&#45;&gt;Node2</title>
<g id="a_edge1_Node000001_Node000002"><a xlink:title=" ">
<path fill="none" stroke="#63b8ff" d="M304.69,-182.07C285.83,-171.66 263.35,-159.25 248.65,-151.14"/>
<polygon fill="#63b8ff" stroke="#63b8ff" points="303.16,-185.22 313.61,-186.99 306.55,-179.09 303.16,-185.22"/>
</a>
</g>
</g>
<!-- Node6 -->
<g id="Node000006" class="node">
<title>Node6</title>
<g id="a_Node000006"><a xlink:href="qpalm_8c.html" target="_top" xlink:title="QPALM main solver API.">
<polygon fill="white" stroke="#666666" points="406,-90.5 296,-90.5 296,-71.5 406,-71.5 406,-90.5"/>
<text text-anchor="middle" x="351" y="-78.5" font-family="Helvetica,sans-Serif" font-size="10.00">QPALM/src/qpalm.c</text>
</a>
</g>
</g>
<!-- Node1&#45;&gt;Node6 -->
<g id="edge6_Node000001_Node000006" class="edge">
<title>Node1&#45;&gt;Node6</title>
<g id="a_edge6_Node000001_Node000006"><a xlink:title=" ">
<path fill="none" stroke="#63b8ff" d="M341.44,-176.8C344.13,-150.12 348.32,-108.62 350.12,-90.71"/>
<polygon fill="#63b8ff" stroke="#63b8ff" points="337.94,-176.58 340.42,-186.88 344.91,-177.28 337.94,-176.58"/>
</a>
</g>
</g>
<!-- Node7 -->
<g id="Node000007" class="node">
<title>Node7</title>
<g id="a_Node000007"><a xlink:href="termination_8c.html" target="_top" xlink:title="Routines to check the termination and infeasibility criteria.">
<polygon fill="white" stroke="#666666" points="503,-151 367,-151 367,-132 503,-132 503,-151"/>
<text text-anchor="middle" x="435" y="-139" font-family="Helvetica,sans-Serif" font-size="10.00">QPALM/src/termination.c</text>
</a>
</g>
</g>
<!-- Node1&#45;&gt;Node7 -->
<g id="edge7_Node000001_Node000007" class="edge">
<title>Node1&#45;&gt;Node7</title>
<g id="a_edge7_Node000001_Node000007"><a xlink:title=" ">
<path fill="none" stroke="#63b8ff" d="M370.78,-181.64C387.74,-171.3 407.77,-159.09 420.9,-151.09"/>
<polygon fill="#63b8ff" stroke="#63b8ff" points="368.96,-178.65 362.24,-186.84 372.6,-184.62 368.96,-178.65"/>
</a>
</g>
</g>
<!-- Node3 -->
<g id="Node000003" class="node">
<title>Node3</title>
<g id="a_Node000003"><a xlink:href="qpalm_8cpp.html" target="_top" xlink:title=" ">
<polygon fill="white" stroke="#666666" points="122,-96 0,-96 0,-66 122,-66 122,-96"/>
<text text-anchor="start" x="8" y="-84" font-family="Helvetica,sans-Serif" font-size="10.00">QPALM/interfaces/cxx</text>
<text text-anchor="middle" x="61" y="-73" font-family="Helvetica,sans-Serif" font-size="10.00">/src/qpalm.cpp</text>
</a>
</g>
</g>
<!-- Node2&#45;&gt;Node3 -->
<g id="edge2_Node000002_Node000003" class="edge">
<title>Node2&#45;&gt;Node3</title>
<g id="a_edge2_Node000002_Node000003"><a xlink:title=" ">
<path fill="none" stroke="#63b8ff" d="M198.33,-128.71C170.61,-119.28 131.69,-106.04 102.35,-96.06"/>
<polygon fill="#63b8ff" stroke="#63b8ff" points="197.4,-132.09 207.99,-131.99 199.65,-125.46 197.4,-132.09"/>
</a>
</g>
</g>
<!-- Node4 -->
<g id="Node000004" class="node">
<title>Node4</title>
<g id="a_Node000004"><a xlink:href="qpalm__fortran_8h.html" target="_top" xlink:title=" ">
<polygon fill="white" stroke="#666666" points="278,-96 140,-96 140,-66 278,-66 278,-96"/>
<text text-anchor="start" x="148" y="-84" font-family="Helvetica,sans-Serif" font-size="10.00">QPALM/interfaces/fortran</text>
<text text-anchor="middle" x="209" y="-73" font-family="Helvetica,sans-Serif" font-size="10.00">/qpalm_fortran.h</text>
</a>
</g>
</g>
<!-- Node2&#45;&gt;Node4 -->
<g id="edge3_Node000002_Node000004" class="edge">
<title>Node2&#45;&gt;Node4</title>
<g id="a_edge3_Node000002_Node000004"><a xlink:title=" ">
<path fill="none" stroke="#63b8ff" d="M225.61,-122.5C222.13,-114.01 218.04,-104.04 214.79,-96.11"/>
<polygon fill="#63b8ff" stroke="#63b8ff" points="222.42,-123.94 229.46,-131.87 228.9,-121.29 222.42,-123.94"/>
</a>
</g>
</g>
<!-- Node2&#45;&gt;Node6 -->
<g id="edge5_Node000002_Node000006" class="edge">
<title>Node2&#45;&gt;Node6</title>
<g id="a_edge5_Node000002_Node000006"><a xlink:title=" ">
<path fill="none" stroke="#63b8ff" d="M259.26,-127.48C282,-116.21 314.24,-100.23 333.82,-90.52"/>
<polygon fill="#63b8ff" stroke="#63b8ff" points="257.56,-124.42 250.16,-131.99 260.67,-130.69 257.56,-124.42"/>
</a>
</g>
</g>
<!-- Node5 -->
<g id="Node000005" class="node">
<title>Node5</title>
<g id="a_Node000005"><a xlink:href="qpalm__fortran_8c.html" target="_top" xlink:title=" ">
<polygon fill="white" stroke="#666666" points="278,-30 140,-30 140,0 278,0 278,-30"/>
<text text-anchor="start" x="148" y="-18" font-family="Helvetica,sans-Serif" font-size="10.00">QPALM/interfaces/fortran</text>
<text text-anchor="middle" x="209" y="-7" font-family="Helvetica,sans-Serif" font-size="10.00">/qpalm_fortran.c</text>
</a>
</g>
</g>
<!-- Node4&#45;&gt;Node5 -->
<g id="edge4_Node000004_Node000005" class="edge">
<title>Node4&#45;&gt;Node5</title>
<g id="a_edge4_Node000004_Node000005"><a xlink:title=" ">
<path fill="none" stroke="#63b8ff" d="M209,-55.54C209,-46.96 209,-37.61 209,-30.16"/>
<polygon fill="#63b8ff" stroke="#63b8ff" points="205.5,-55.8 209,-65.8 212.5,-55.8 205.5,-55.8"/>
</a>
</g>
</g>
</g>
</svg>
