<?xml version="1.0" encoding="UTF-8" standalone="no"?>
<!DOCTYPE svg PUBLIC "-//W3C//DTD SVG 1.1//EN"
 "http://www.w3.org/Graphics/SVG/1.1/DTD/svg11.dtd">
<!-- Generated by graphviz version 2.43.0 (0)
 -->
<!-- Title: QPALM/include/qpalm/types.h Pages: 1 -->
<svg width="2204pt" height="423pt"
 viewBox="0.00 0.00 2204.46 423.00" xmlns="http://www.w3.org/2000/svg" xmlns:xlink="http://www.w3.org/1999/xlink">
<g id="graph0" class="graph" transform="scale(1 1) rotate(0) translate(4 419)">
<title>QPALM/include/qpalm/types.h</title>
<!-- Node1 -->
<g id="Node000001" class="node">
<title>Node1</title>
<g id="a_Node000001"><a xlink:title="Internal data structures used in QPALM.">
<polygon fill="#999999" stroke="#666666" points="1475.46,-415 1353.46,-415 1353.46,-385 1475.46,-385 1475.46,-415"/>
<text text-anchor="start" x="1361.46" y="-403" font-family="Helvetica,sans-Serif" font-size="10.00">QPALM/include/qpalm</text>
<text text-anchor="middle" x="1414.46" y="-392" font-family="Helvetica,sans-Serif" font-size="10.00">/types.h</text>
</a>
</g>
</g>
<!-- Node2 -->
<g id="Node000002" class="node">
<title>Node2</title>
<g id="a_Node000002"><a xlink:href="qpalm_8h.html" target="_top" xlink:title="QPALM main solver API.">
<polygon fill="white" stroke="#666666" points="1605.96,-151 1474.96,-151 1474.96,-132 1605.96,-132 1605.96,-151"/>
<text text-anchor="middle" x="1540.46" y="-139" font-family="Helvetica,sans-Serif" font-size="10.00">QPALM/include/qpalm.h</text>
</a>
</g>
</g>
<!-- Node1&#45;&gt;Node2 -->
<g id="edge1_Node000001_Node000002" class="edge">
<title>Node1&#45;&gt;Node2</title>
<g id="a_edge1_Node000001_Node000002"><a xlink:title=" ">
<path fill="none" stroke="#63b8ff" d="M1485.8,-396.63C1632.07,-390.09 1957.74,-366.29 2023.46,-283 2056.7,-240.86 1980.09,-193.67 1967.46,-187 1906.4,-154.78 1710.11,-145.89 1606.28,-143.44"/>
<polygon fill="#63b8ff" stroke="#63b8ff" points="1485.43,-393.14 1475.59,-397.07 1485.73,-400.14 1485.43,-393.14"/>
</a>
</g>
</g>
<!-- Node7 -->
<g id="Node000007" class="node">
<title>Node7</title>
<g id="a_Node000007"><a xlink:href="iteration_8h.html" target="_top" xlink:title="QPALM main solver routines.">
<polygon fill="white" stroke="#666666" points="1874.46,-283 1752.46,-283 1752.46,-253 1874.46,-253 1874.46,-283"/>
<text text-anchor="start" x="1760.46" y="-271" font-family="Helvetica,sans-Serif" font-size="10.00">QPALM/include/qpalm</text>
<text text-anchor="middle" x="1813.46" y="-260" font-family="Helvetica,sans-Serif" font-size="10.00">/iteration.h</text>
</a>
</g>
</g>
<!-- Node1&#45;&gt;Node7 -->
<g id="edge6_Node000001_Node000007" class="edge">
<title>Node1&#45;&gt;Node7</title>
<g id="a_edge6_Node000001_Node000007"><a xlink:title=" ">
<path fill="none" stroke="#63b8ff" d="M1485.44,-385.87C1527.78,-377.21 1582.3,-364.59 1629.46,-349 1686.34,-330.19 1749.85,-300.54 1785.4,-283.11"/>
<polygon fill="#63b8ff" stroke="#63b8ff" points="1484.62,-382.47 1475.51,-387.88 1486,-389.33 1484.62,-382.47"/>
</a>
</g>
</g>
<!-- Node10 -->
<g id="Node000010" class="node">
<title>Node10</title>
<g id="a_Node000010"><a xlink:href="lin__alg_8h.html" target="_top" xlink:title="Linear algebra with vectors.">
<polygon fill="white" stroke="#666666" points="887.46,-283 765.46,-283 765.46,-253 887.46,-253 887.46,-283"/>
<text text-anchor="start" x="773.46" y="-271" font-family="Helvetica,sans-Serif" font-size="10.00">QPALM/include/qpalm</text>
<text text-anchor="middle" x="826.46" y="-260" font-family="Helvetica,sans-Serif" font-size="10.00">/lin_alg.h</text>
</a>
</g>
</g>
<!-- Node1&#45;&gt;Node10 -->
<g id="edge11_Node000001_Node000010" class="edge">
<title>Node1&#45;&gt;Node10</title>
<g id="a_edge11_Node000001_Node000010"><a xlink:title=" ">
<path fill="none" stroke="#63b8ff" d="M1343.12,-399.74C1216.1,-399.85 956.88,-394.31 880.46,-349 855.09,-333.96 839.08,-301.79 831.55,-283.15"/>
<polygon fill="#63b8ff" stroke="#63b8ff" points="1343.15,-403.24 1353.14,-399.72 1343.13,-396.24 1343.15,-403.24"/>
</a>
</g>
</g>
<!-- Node11 -->
<g id="Node000011" class="node">
<title>Node11</title>
<g id="a_Node000011"><a xlink:href="scaling_8h.html" target="_top" xlink:title="Problem data scaling during setup.">
<polygon fill="white" stroke="#666666" points="400.46,-217 278.46,-217 278.46,-187 400.46,-187 400.46,-217"/>
<text text-anchor="start" x="286.46" y="-205" font-family="Helvetica,sans-Serif" font-size="10.00">QPALM/include/qpalm</text>
<text text-anchor="middle" x="339.46" y="-194" font-family="Helvetica,sans-Serif" font-size="10.00">/scaling.h</text>
</a>
</g>
</g>
<!-- Node1&#45;&gt;Node11 -->
<g id="edge43_Node000001_Node000011" class="edge">
<title>Node1&#45;&gt;Node11</title>
<g id="a_edge43_Node000001_Node000011"><a xlink:title=" ">
<path fill="none" stroke="#63b8ff" d="M1342.97,-397.09C1234.86,-393.21 1023.69,-381.78 847.46,-349 669.05,-315.82 463.15,-246.78 378.68,-217.08"/>
<polygon fill="#63b8ff" stroke="#63b8ff" points="1342.99,-400.59 1353.1,-397.44 1343.23,-393.59 1342.99,-400.59"/>
</a>
</g>
</g>
<!-- Node16 -->
<g id="Node000016" class="node">
<title>Node16</title>
<g id="a_Node000016"><a xlink:href="nonconvex_8c.html" target="_top" xlink:title="Routines to deal with nonconvex QPs.">
<polygon fill="white" stroke="#666666" points="1691.46,-211.5 1559.46,-211.5 1559.46,-192.5 1691.46,-192.5 1691.46,-211.5"/>
<text text-anchor="middle" x="1625.46" y="-199.5" font-family="Helvetica,sans-Serif" font-size="10.00">QPALM/src/nonconvex.c</text>
</a>
</g>
</g>
<!-- Node1&#45;&gt;Node16 -->
<g id="edge67_Node000001_Node000016" class="edge">
<title>Node1&#45;&gt;Node16</title>
<g id="a_edge67_Node000001_Node000016"><a xlink:title=" ">
<path fill="none" stroke="#63b8ff" d="M1444.94,-379.25C1476.9,-357.74 1527.64,-321.25 1565.46,-283 1588.64,-259.54 1610.46,-226.84 1620.17,-211.53"/>
<polygon fill="#63b8ff" stroke="#63b8ff" points="1442.83,-376.45 1436.45,-384.91 1446.71,-382.28 1442.83,-376.45"/>
</a>
</g>
</g>
<!-- Node18 -->
<g id="Node000018" class="node">
<title>Node18</title>
<g id="a_Node000018"><a xlink:href="util_8c.html" target="_top" xlink:title="Utility functions.">
<polygon fill="white" stroke="#666666" points="1136.96,-211.5 1041.96,-211.5 1041.96,-192.5 1136.96,-192.5 1136.96,-211.5"/>
<text text-anchor="middle" x="1089.46" y="-199.5" font-family="Helvetica,sans-Serif" font-size="10.00">QPALM/src/util.c</text>
</a>
</g>
</g>
<!-- Node1&#45;&gt;Node18 -->
<g id="edge68_Node000001_Node000018" class="edge">
<title>Node1&#45;&gt;Node18</title>
<g id="a_edge68_Node000001_Node000018"><a xlink:title=" ">
<path fill="none" stroke="#63b8ff" d="M1343.19,-398.27C1261.35,-393.1 1130.53,-370.62 1069.46,-283 1053.82,-260.57 1072.65,-227.08 1083.22,-211.51"/>
<polygon fill="#63b8ff" stroke="#63b8ff" points="1343.24,-401.78 1353.42,-398.84 1343.63,-394.79 1343.24,-401.78"/>
</a>
</g>
</g>
<!-- Node20 -->
<g id="Node000020" class="node">
<title>Node20</title>
<g id="a_Node000020"><a xlink:href="linesearch_8h.html" target="_top" xlink:title="Routines to perform exact linesearch.">
<polygon fill="white" stroke="#666666" points="1200.46,-283 1078.46,-283 1078.46,-253 1200.46,-253 1200.46,-283"/>
<text text-anchor="start" x="1086.46" y="-271" font-family="Helvetica,sans-Serif" font-size="10.00">QPALM/include/qpalm</text>
<text text-anchor="middle" x="1139.46" y="-260" font-family="Helvetica,sans-Serif" font-size="10.00">/linesearch.h</text>
</a>
</g>
</g>
<!-- Node1&#45;&gt;Node20 -->
<g id="edge28_Node000001_Node000020" class="edge">
<title>Node1&#45;&gt;Node20</title>
<g id="a_edge28_Node000001_Node000020"><a xlink:title=" ">
<path fill="none" stroke="#63b8ff" d="M1375.61,-380.64C1320.17,-354.43 1219.53,-306.85 1169.44,-283.17"/>
<polygon fill="#63b8ff" stroke="#63b8ff" points="1374.23,-383.85 1384.76,-384.96 1377.22,-377.53 1374.23,-383.85"/>
</a>
</g>
</g>
<!-- Node21 -->
<g id="Node000021" class="node">
<title>Node21</title>
<g id="a_Node000021"><a xlink:href="newton_8h.html" target="_top" xlink:title="Functions to calculate the semismooth Newton direction.">
<polygon fill="white" stroke="#666666" points="1340.46,-283 1218.46,-283 1218.46,-253 1340.46,-253 1340.46,-283"/>
<text text-anchor="start" x="1226.46" y="-271" font-family="Helvetica,sans-Serif" font-size="10.00">QPALM/include/qpalm</text>
<text text-anchor="middle" x="1279.46" y="-260" font-family="Helvetica,sans-Serif" font-size="10.00">/newton.h</text>
</a>
</g>
</g>
<!-- Node1&#45;&gt;Node21 -->
<g id="edge33_Node000001_Node000021" class="edge">
<title>Node1&#45;&gt;Node21</title>
<g id="a_edge33_Node000001_Node000021"><a xlink:title=" ">
<path fill="none" stroke="#63b8ff" d="M1392.48,-377.84C1364.76,-351.15 1317.87,-305.99 1294.14,-283.14"/>
<polygon fill="#63b8ff" stroke="#63b8ff" points="1390.12,-380.42 1399.75,-384.84 1394.98,-375.38 1390.12,-380.42"/>
</a>
</g>
</g>
<!-- Node22 -->
<g id="Node000022" class="node">
<title>Node22</title>
<g id="a_Node000022"><a xlink:href="nonconvex_8h.html" target="_top" xlink:title="Routines to deal with nonconvex QPs.">
<polygon fill="white" stroke="#666666" points="1556.46,-283 1434.46,-283 1434.46,-253 1556.46,-253 1556.46,-283"/>
<text text-anchor="start" x="1442.46" y="-271" font-family="Helvetica,sans-Serif" font-size="10.00">QPALM/include/qpalm</text>
<text text-anchor="middle" x="1495.46" y="-260" font-family="Helvetica,sans-Serif" font-size="10.00">/nonconvex.h</text>
</a>
</g>
</g>
<!-- Node1&#45;&gt;Node22 -->
<g id="edge38_Node000001_Node000022" class="edge">
<title>Node1&#45;&gt;Node22</title>
<g id="a_edge38_Node000001_Node000022"><a xlink:title=" ">
<path fill="none" stroke="#63b8ff" d="M1428.72,-376.1C1445.47,-349.23 1472.71,-305.5 1486.64,-283.14"/>
<polygon fill="#63b8ff" stroke="#63b8ff" points="1425.6,-374.5 1423.28,-384.84 1431.54,-378.2 1425.6,-374.5"/>
</a>
</g>
</g>
<!-- Node23 -->
<g id="Node000023" class="node">
<title>Node23</title>
<g id="a_Node000023"><a xlink:href="solver__interface_8h.html" target="_top" xlink:title="Interface and wrapper to matrix/factorization (ladel) functions.">
<polygon fill="white" stroke="#666666" points="1011.46,-349 889.46,-349 889.46,-319 1011.46,-319 1011.46,-349"/>
<text text-anchor="start" x="897.46" y="-337" font-family="Helvetica,sans-Serif" font-size="10.00">QPALM/include/qpalm</text>
<text text-anchor="middle" x="950.46" y="-326" font-family="Helvetica,sans-Serif" font-size="10.00">/solver_interface.h</text>
</a>
</g>
</g>
<!-- Node1&#45;&gt;Node23 -->
<g id="edge44_Node000001_Node000023" class="edge">
<title>Node1&#45;&gt;Node23</title>
<g id="a_edge44_Node000001_Node000023"><a xlink:title=" ">
<path fill="none" stroke="#63b8ff" d="M1343.21,-390.22C1267.16,-380.7 1143.16,-364.74 1036.46,-349 1028.37,-347.81 1019.88,-346.5 1011.5,-345.17"/>
<polygon fill="#63b8ff" stroke="#63b8ff" points="1342.81,-393.7 1353.16,-391.46 1343.67,-386.75 1342.81,-393.7"/>
</a>
</g>
</g>
<!-- Node24 -->
<g id="Node000024" class="node">
<title>Node24</title>
<g id="a_Node000024"><a xlink:href="termination_8h.html" target="_top" xlink:title="Routines to check the termination and infeasibility criteria.">
<polygon fill="white" stroke="#666666" points="2014.46,-283 1892.46,-283 1892.46,-253 2014.46,-253 2014.46,-283"/>
<text text-anchor="start" x="1900.46" y="-271" font-family="Helvetica,sans-Serif" font-size="10.00">QPALM/include/qpalm</text>
<text text-anchor="middle" x="1953.46" y="-260" font-family="Helvetica,sans-Serif" font-size="10.00">/termination.h</text>
</a>
</g>
</g>
<!-- Node1&#45;&gt;Node24 -->
<g id="edge50_Node000001_Node000024" class="edge">
<title>Node1&#45;&gt;Node24</title>
<g id="a_edge50_Node000001_Node000024"><a xlink:title=" ">
<path fill="none" stroke="#63b8ff" d="M1485.7,-387.67C1539.72,-378.59 1615.65,-364.8 1681.46,-349 1763.3,-329.35 1857.17,-300.26 1910.48,-283.1"/>
<polygon fill="#63b8ff" stroke="#63b8ff" points="1484.82,-384.27 1475.53,-389.37 1485.97,-391.17 1484.82,-384.27"/>
</a>
</g>
</g>
<!-- Node25 -->
<g id="Node000025" class="node">
<title>Node25</title>
<g id="a_Node000025"><a xlink:href="util_8h.html" target="_top" xlink:title="Utility functions.">
<polygon fill="white" stroke="#666666" points="1734.46,-283 1612.46,-283 1612.46,-253 1734.46,-253 1734.46,-283"/>
<text text-anchor="start" x="1620.46" y="-271" font-family="Helvetica,sans-Serif" font-size="10.00">QPALM/include/qpalm</text>
<text text-anchor="middle" x="1673.46" y="-260" font-family="Helvetica,sans-Serif" font-size="10.00">/util.h</text>
</a>
</g>
</g>
<!-- Node1&#45;&gt;Node25 -->
<g id="edge54_Node000001_Node000025" class="edge">
<title>Node1&#45;&gt;Node25</title>
<g id="a_edge54_Node000001_Node000025"><a xlink:title=" ">
<path fill="none" stroke="#63b8ff" d="M1485.66,-389.11C1521.39,-381.87 1564.23,-369.59 1598.46,-349 1626.84,-331.93 1651.29,-301.1 1664.04,-283.11"/>
<polygon fill="#63b8ff" stroke="#63b8ff" points="1484.94,-385.69 1475.79,-391.02 1486.27,-392.56 1484.94,-385.69"/>
</a>
</g>
</g>
<!-- Node26 -->
<g id="Node000026" class="node">
<title>Node26</title>
<g id="a_Node000026"><a xlink:href="validate_8h.html" target="_top" xlink:title="Validation of the user provided settings and data.">
<polygon fill="white" stroke="#666666" points="189.46,-283 67.46,-283 67.46,-253 189.46,-253 189.46,-283"/>
<text text-anchor="start" x="75.46" y="-271" font-family="Helvetica,sans-Serif" font-size="10.00">QPALM/include/qpalm</text>
<text text-anchor="middle" x="128.46" y="-260" font-family="Helvetica,sans-Serif" font-size="10.00">/validate.h</text>
</a>
</g>
</g>
<!-- Node1&#45;&gt;Node26 -->
<g id="edge61_Node000001_Node000026" class="edge">
<title>Node1&#45;&gt;Node26</title>
<g id="a_edge61_Node000001_Node000026"><a xlink:title=" ">
<path fill="none" stroke="#63b8ff" d="M1342.81,-399.28C1185.91,-398.99 800.48,-393.37 481.46,-349 371.76,-333.74 245.79,-301.57 177.95,-283.01"/>
<polygon fill="#63b8ff" stroke="#63b8ff" points="1343.25,-402.78 1353.26,-399.29 1343.26,-395.78 1343.25,-402.78"/>
</a>
</g>
</g>
<!-- Node27 -->
<g id="Node000027" class="node">
<title>Node27</title>
<g id="a_Node000027"><a xlink:href="qpalm_8hpp.html" target="_top" xlink:title=" ">
<polygon fill="white" stroke="#666666" points="2196.46,-349 2074.46,-349 2074.46,-319 2196.46,-319 2196.46,-349"/>
<text text-anchor="start" x="2082.46" y="-337" font-family="Helvetica,sans-Serif" font-size="10.00">QPALM/interfaces/cxx</text>
<text text-anchor="middle" x="2135.46" y="-326" font-family="Helvetica,sans-Serif" font-size="10.00">/include/qpalm.hpp</text>
</a>
</g>
</g>
<!-- Node1&#45;&gt;Node27 -->
<g id="edge65_Node000001_Node000027" class="edge">
<title>Node1&#45;&gt;Node27</title>
<g id="a_edge65_Node000001_Node000027"><a xlink:title=" ">
<path fill="none" stroke="#63b8ff" d="M1485.79,-395.72C1604.54,-389.76 1850.09,-375.26 2056.46,-349 2062.26,-348.26 2068.28,-347.39 2074.3,-346.45"/>
<polygon fill="#63b8ff" stroke="#63b8ff" points="1485.55,-392.23 1475.74,-396.22 1485.9,-399.22 1485.55,-392.23"/>
</a>
</g>
</g>
<!-- Node3 -->
<g id="Node000003" class="node">
<title>Node3</title>
<g id="a_Node000003"><a xlink:href="qpalm_8cpp.html" target="_top" xlink:title=" ">
<polygon fill="white" stroke="#666666" points="1979.46,-96 1857.46,-96 1857.46,-66 1979.46,-66 1979.46,-96"/>
<text text-anchor="start" x="1865.46" y="-84" font-family="Helvetica,sans-Serif" font-size="10.00">QPALM/interfaces/cxx</text>
<text text-anchor="middle" x="1918.46" y="-73" font-family="Helvetica,sans-Serif" font-size="10.00">/src/qpalm.cpp</text>
</a>
</g>
</g>
<!-- Node2&#45;&gt;Node3 -->
<g id="edge2_Node000002_Node000003" class="edge">
<title>Node2&#45;&gt;Node3</title>
<g id="a_edge2_Node000002_Node000003"><a xlink:title=" ">
<path fill="none" stroke="#63b8ff" d="M1605.53,-130.43C1676.15,-119.5 1788.05,-102.18 1857.15,-91.49"/>
<polygon fill="#63b8ff" stroke="#63b8ff" points="1604.77,-127.01 1595.42,-131.99 1605.84,-133.92 1604.77,-127.01"/>
</a>
</g>
</g>
<!-- Node4 -->
<g id="Node000004" class="node">
<title>Node4</title>
<g id="a_Node000004"><a xlink:href="qpalm__fortran_8h.html" target="_top" xlink:title=" ">
<polygon fill="white" stroke="#666666" points="1609.46,-96 1471.46,-96 1471.46,-66 1609.46,-66 1609.46,-96"/>
<text text-anchor="start" x="1479.46" y="-84" font-family="Helvetica,sans-Serif" font-size="10.00">QPALM/interfaces/fortran</text>
<text text-anchor="middle" x="1540.46" y="-73" font-family="Helvetica,sans-Serif" font-size="10.00">/qpalm_fortran.h</text>
</a>
</g>
</g>
<!-- Node2&#45;&gt;Node4 -->
<g id="edge3_Node000002_Node000004" class="edge">
<title>Node2&#45;&gt;Node4</title>
<g id="a_edge3_Node000002_Node000004"><a xlink:title=" ">
<path fill="none" stroke="#63b8ff" d="M1540.46,-121.65C1540.46,-113.36 1540.46,-103.78 1540.46,-96.11"/>
<polygon fill="#63b8ff" stroke="#63b8ff" points="1536.96,-121.87 1540.46,-131.87 1543.96,-121.87 1536.96,-121.87"/>
</a>
</g>
</g>
<!-- Node6 -->
<g id="Node000006" class="node">
<title>Node6</title>
<g id="a_Node000006"><a xlink:href="qpalm_8c.html" target="_top" xlink:title="QPALM main solver API.">
<polygon fill="white" stroke="#666666" points="1258.46,-90.5 1148.46,-90.5 1148.46,-71.5 1258.46,-71.5 1258.46,-90.5"/>
<text text-anchor="middle" x="1203.46" y="-78.5" font-family="Helvetica,sans-Serif" font-size="10.00">QPALM/src/qpalm.c</text>
</a>
</g>
</g>
<!-- Node2&#45;&gt;Node6 -->
<g id="edge5_Node000002_Node000006" class="edge">
<title>Node2&#45;&gt;Node6</title>
<g id="a_edge5_Node000002_Node000006"><a xlink:title=" ">
<path fill="none" stroke="#63b8ff" d="M1481.37,-130.24C1416.4,-118.96 1313.19,-101.05 1252.52,-90.52"/>
<polygon fill="#63b8ff" stroke="#63b8ff" points="1481,-133.73 1491.45,-131.99 1482.2,-126.83 1481,-133.73"/>
</a>
</g>
</g>
<!-- Node5 -->
<g id="Node000005" class="node">
<title>Node5</title>
<g id="a_Node000005"><a xlink:href="qpalm__fortran_8c.html" target="_top" xlink:title=" ">
<polygon fill="white" stroke="#666666" points="1609.46,-30 1471.46,-30 1471.46,0 1609.46,0 1609.46,-30"/>
<text text-anchor="start" x="1479.46" y="-18" font-family="Helvetica,sans-Serif" font-size="10.00">QPALM/interfaces/fortran</text>
<text text-anchor="middle" x="1540.46" y="-7" font-family="Helvetica,sans-Serif" font-size="10.00">/qpalm_fortran.c</text>
</a>
</g>
</g>
<!-- Node4&#45;&gt;Node5 -->
<g id="edge4_Node000004_Node000005" class="edge">
<title>Node4&#45;&gt;Node5</title>
<g id="a_edge4_Node000004_Node000005"><a xlink:title=" ">
<path fill="none" stroke="#63b8ff" d="M1540.46,-55.54C1540.46,-46.96 1540.46,-37.61 1540.46,-30.16"/>
<polygon fill="#63b8ff" stroke="#63b8ff" points="1536.96,-55.8 1540.46,-65.8 1543.96,-55.8 1536.96,-55.8"/>
</a>
</g>
</g>
<!-- Node7&#45;&gt;Node2 -->
<g id="edge7_Node000007_Node000002" class="edge">
<title>Node7&#45;&gt;Node2</title>
<g id="a_edge7_Node000007_Node000002"><a xlink:title=" ">
<path fill="none" stroke="#63b8ff" d="M1875.12,-249.45C1914.44,-235.25 1953.94,-213.32 1930.46,-187 1909.27,-163.26 1711.45,-150.48 1605.98,-145.3"/>
<polygon fill="#63b8ff" stroke="#63b8ff" points="1873.48,-246.32 1865.17,-252.89 1875.77,-252.93 1873.48,-246.32"/>
</a>
</g>
</g>
<!-- Node7&#45;&gt;Node6 -->
<g id="edge9_Node000007_Node000006" class="edge">
<title>Node7&#45;&gt;Node6</title>
<g id="a_edge9_Node000007_Node000006"><a xlink:title=" ">
<path fill="none" stroke="#63b8ff" d="M1884.45,-251.07C1928.3,-237.91 1971.9,-216.57 1947.46,-187 1903.46,-133.77 1423.22,-96.76 1258.51,-85.56"/>
<polygon fill="#63b8ff" stroke="#63b8ff" points="1883.47,-247.71 1874.82,-253.83 1885.4,-254.44 1883.47,-247.71"/>
</a>
</g>
</g>
<!-- Node8 -->
<g id="Node000008" class="node">
<title>Node8</title>
<g id="a_Node000008"><a xlink:href="iteration_8c.html" target="_top" xlink:title="QPALM main solver routines.">
<polygon fill="white" stroke="#666666" points="1427.46,-211.5 1307.46,-211.5 1307.46,-192.5 1427.46,-192.5 1427.46,-211.5"/>
<text text-anchor="middle" x="1367.46" y="-199.5" font-family="Helvetica,sans-Serif" font-size="10.00">QPALM/src/iteration.c</text>
</a>
</g>
</g>
<!-- Node7&#45;&gt;Node8 -->
<g id="edge8_Node000007_Node000008" class="edge">
<title>Node7&#45;&gt;Node8</title>
<g id="a_edge8_Node000007_Node000008"><a xlink:title=" ">
<path fill="none" stroke="#63b8ff" d="M1742.55,-252.91C1625.28,-233.65 1499.89,-218.19 1427.55,-209.77"/>
<polygon fill="#63b8ff" stroke="#63b8ff" points="1741.98,-256.37 1752.42,-254.55 1743.12,-249.46 1741.98,-256.37"/>
</a>
</g>
</g>
<!-- Node9 -->
<g id="Node000009" class="node">
<title>Node9</title>
<g id="a_Node000009"><a xlink:href="termination_8c.html" target="_top" xlink:title="Routines to check the termination and infeasibility criteria.">
<polygon fill="white" stroke="#666666" points="1921.46,-211.5 1785.46,-211.5 1785.46,-192.5 1921.46,-192.5 1921.46,-211.5"/>
<text text-anchor="middle" x="1853.46" y="-199.5" font-family="Helvetica,sans-Serif" font-size="10.00">QPALM/src/termination.c</text>
</a>
</g>
</g>
<!-- Node7&#45;&gt;Node9 -->
<g id="edge10_Node000007_Node000009" class="edge">
<title>Node7&#45;&gt;Node9</title>
<g id="a_edge10_Node000007_Node000009"><a xlink:title=" ">
<path fill="none" stroke="#63b8ff" d="M1827.66,-244.28C1834.66,-233.07 1842.71,-220.19 1847.93,-211.84"/>
<polygon fill="#63b8ff" stroke="#63b8ff" points="1824.66,-242.46 1822.33,-252.8 1830.6,-246.17 1824.66,-242.46"/>
</a>
</g>
</g>
<!-- Node10&#45;&gt;Node2 -->
<g id="edge12_Node000010_Node000002" class="edge">
<title>Node10&#45;&gt;Node2</title>
<g id="a_edge12_Node000010_Node000002"><a xlink:title=" ">
<path fill="none" stroke="#63b8ff" d="M789,-247.9C761.81,-231.62 732.93,-207.66 752.46,-187 777.12,-160.91 1289.75,-147.71 1474.67,-143.78"/>
<polygon fill="#63b8ff" stroke="#63b8ff" points="787.3,-250.95 797.71,-252.9 790.78,-244.88 787.3,-250.95"/>
</a>
</g>
</g>
<!-- Node10&#45;&gt;Node6 -->
<g id="edge22_Node000010_Node000006" class="edge">
<title>Node10&#45;&gt;Node6</title>
<g id="a_edge22_Node000010_Node000006"><a xlink:title=" ">
<path fill="none" stroke="#63b8ff" d="M755.18,-264.86C611.7,-259.97 298.35,-246.06 259.46,-217 227.81,-193.35 206.25,-160.64 233.46,-132 265.12,-98.66 947.04,-85.84 1148.12,-82.77"/>
<polygon fill="#63b8ff" stroke="#63b8ff" points="755.1,-268.36 765.21,-265.2 755.33,-261.37 755.1,-268.36"/>
</a>
</g>
</g>
<!-- Node10&#45;&gt;Node8 -->
<g id="edge17_Node000010_Node000008" class="edge">
<title>Node10&#45;&gt;Node8</title>
<g id="a_edge17_Node000010_Node000008"><a xlink:title=" ">
<path fill="none" stroke="#63b8ff" d="M897.55,-258.59C1004.89,-245.89 1206.45,-222.05 1307.08,-210.14"/>
<polygon fill="#63b8ff" stroke="#63b8ff" points="896.98,-255.13 887.46,-259.78 897.81,-262.08 896.98,-255.13"/>
</a>
</g>
</g>
<!-- Node10&#45;&gt;Node9 -->
<g id="edge25_Node000010_Node000009" class="edge">
<title>Node10&#45;&gt;Node9</title>
<g id="a_edge25_Node000010_Node000009"><a xlink:title=" ">
<path fill="none" stroke="#63b8ff" d="M897.69,-262.89C946.12,-260.09 1011.66,-256.31 1069.46,-253 1349.9,-236.92 1420.33,-237.8 1700.46,-217 1728.25,-214.94 1758.85,-212.22 1785.33,-209.74"/>
<polygon fill="#63b8ff" stroke="#63b8ff" points="897.41,-259.4 887.62,-263.47 897.81,-266.38 897.41,-259.4"/>
</a>
</g>
</g>
<!-- Node10&#45;&gt;Node11 -->
<g id="edge13_Node000010_Node000011" class="edge">
<title>Node10&#45;&gt;Node11</title>
<g id="a_edge13_Node000010_Node000011"><a xlink:title=" ">
<path fill="none" stroke="#63b8ff" d="M755.02,-260.15C671.79,-251.77 530.24,-236.29 409.46,-217 406.52,-216.53 403.52,-216.03 400.49,-215.5"/>
<polygon fill="#63b8ff" stroke="#63b8ff" points="754.83,-263.65 765.13,-261.16 755.52,-256.68 754.83,-263.65"/>
</a>
</g>
</g>
<!-- Node12 -->
<g id="Node000012" class="node">
<title>Node12</title>
<g id="a_Node000012"><a xlink:href="scaling_8c.html" target="_top" xlink:title="Problem data scaling during setup.">
<polygon fill="white" stroke="#666666" points="355.96,-151 242.96,-151 242.96,-132 355.96,-132 355.96,-151"/>
<text text-anchor="middle" x="299.46" y="-139" font-family="Helvetica,sans-Serif" font-size="10.00">QPALM/src/scaling.c</text>
</a>
</g>
</g>
<!-- Node10&#45;&gt;Node12 -->
<g id="edge23_Node000010_Node000012" class="edge">
<title>Node10&#45;&gt;Node12</title>
<g id="a_edge23_Node000010_Node000012"><a xlink:title=" ">
<path fill="none" stroke="#63b8ff" d="M755.03,-265.85C612.07,-262.8 301.61,-252.17 269.46,-217 251.77,-197.65 276.24,-166.54 290.49,-151.38"/>
<polygon fill="#63b8ff" stroke="#63b8ff" points="755.38,-269.36 765.45,-266.06 755.52,-262.36 755.38,-269.36"/>
</a>
</g>
</g>
<!-- Node13 -->
<g id="Node000013" class="node">
<title>Node13</title>
<g id="a_Node000013"><a xlink:href="lin__alg_8c.html" target="_top" xlink:title="Linear algebra with vectors.">
<polygon fill="white" stroke="#666666" points="704.96,-211.5 593.96,-211.5 593.96,-192.5 704.96,-192.5 704.96,-211.5"/>
<text text-anchor="middle" x="649.46" y="-199.5" font-family="Helvetica,sans-Serif" font-size="10.00">QPALM/src/lin_alg.c</text>
</a>
</g>
</g>
<!-- Node10&#45;&gt;Node13 -->
<g id="edge18_Node000010_Node000013" class="edge">
<title>Node10&#45;&gt;Node13</title>
<g id="a_edge18_Node000010_Node000013"><a xlink:title=" ">
<path fill="none" stroke="#63b8ff" d="M777.83,-249.42C743.73,-237.09 699.64,-221.15 673.01,-211.52"/>
<polygon fill="#63b8ff" stroke="#63b8ff" points="777.02,-252.85 787.61,-252.95 779.4,-246.26 777.02,-252.85"/>
</a>
</g>
</g>
<!-- Node14 -->
<g id="Node000014" class="node">
<title>Node14</title>
<g id="a_Node000014"><a xlink:href="linesearch_8c.html" target="_top" xlink:title="Routines to perform exact or backtracking linesearch.">
<polygon fill="white" stroke="#666666" points="890.96,-211.5 761.96,-211.5 761.96,-192.5 890.96,-192.5 890.96,-211.5"/>
<text text-anchor="middle" x="826.46" y="-199.5" font-family="Helvetica,sans-Serif" font-size="10.00">QPALM/src/linesearch.c</text>
</a>
</g>
</g>
<!-- Node10&#45;&gt;Node14 -->
<g id="edge19_Node000010_Node000014" class="edge">
<title>Node10&#45;&gt;Node14</title>
<g id="a_edge19_Node000010_Node000014"><a xlink:title=" ">
<path fill="none" stroke="#63b8ff" d="M826.46,-242.6C826.46,-231.8 826.46,-219.78 826.46,-211.84"/>
<polygon fill="#63b8ff" stroke="#63b8ff" points="822.96,-242.8 826.46,-252.8 829.96,-242.8 822.96,-242.8"/>
</a>
</g>
</g>
<!-- Node15 -->
<g id="Node000015" class="node">
<title>Node15</title>
<g id="a_Node000015"><a xlink:href="newton_8c.html" target="_top" xlink:title="Functions to calculate the semismooth Newton direction.">
<polygon fill="white" stroke="#666666" points="1023.96,-211.5 908.96,-211.5 908.96,-192.5 1023.96,-192.5 1023.96,-211.5"/>
<text text-anchor="middle" x="966.46" y="-199.5" font-family="Helvetica,sans-Serif" font-size="10.00">QPALM/src/newton.c</text>
</a>
</g>
</g>
<!-- Node10&#45;&gt;Node15 -->
<g id="edge20_Node000010_Node000015" class="edge">
<title>Node10&#45;&gt;Node15</title>
<g id="a_edge20_Node000010_Node000015"><a xlink:title=" ">
<path fill="none" stroke="#63b8ff" d="M866.31,-248.78C893.08,-236.54 927.12,-220.98 947.82,-211.52"/>
<polygon fill="#63b8ff" stroke="#63b8ff" points="864.82,-245.61 857.18,-252.95 867.73,-251.98 864.82,-245.61"/>
</a>
</g>
</g>
<!-- Node10&#45;&gt;Node16 -->
<g id="edge21_Node000010_Node000016" class="edge">
<title>Node10&#45;&gt;Node16</title>
<g id="a_edge21_Node000010_Node000016"><a xlink:title=" ">
<path fill="none" stroke="#63b8ff" d="M897.74,-261.29C1051.14,-249 1410.7,-220.2 1559.35,-208.3"/>
<polygon fill="#63b8ff" stroke="#63b8ff" points="897.18,-257.82 887.5,-262.11 897.74,-264.8 897.18,-257.82"/>
</a>
</g>
</g>
<!-- Node17 -->
<g id="Node000017" class="node">
<title>Node17</title>
<g id="a_Node000017"><a xlink:href="solver__interface_8c.html" target="_top" xlink:title="Interface and wrapper to matrix/factorization (ladel) functions.">
<polygon fill="white" stroke="#666666" points="576.46,-211.5 418.46,-211.5 418.46,-192.5 576.46,-192.5 576.46,-211.5"/>
<text text-anchor="middle" x="497.46" y="-199.5" font-family="Helvetica,sans-Serif" font-size="10.00">QPALM/src/solver_interface.c</text>
</a>
</g>
</g>
<!-- Node10&#45;&gt;Node17 -->
<g id="edge24_Node000010_Node000017" class="edge">
<title>Node10&#45;&gt;Node17</title>
<g id="a_edge24_Node000010_Node000017"><a xlink:title=" ">
<path fill="none" stroke="#63b8ff" d="M755.17,-253.13C690.13,-240.48 596.08,-222.18 541.41,-211.55"/>
<polygon fill="#63b8ff" stroke="#63b8ff" points="754.86,-256.64 765.34,-255.11 756.2,-249.77 754.86,-256.64"/>
</a>
</g>
</g>
<!-- Node10&#45;&gt;Node18 -->
<g id="edge26_Node000010_Node000018" class="edge">
<title>Node10&#45;&gt;Node18</title>
<g id="a_edge26_Node000010_Node000018"><a xlink:title=" ">
<path fill="none" stroke="#63b8ff" d="M894.57,-250.52C934.71,-240.79 986.48,-228.23 1032.46,-217 1039.68,-215.24 1047.42,-213.34 1054.79,-211.53"/>
<polygon fill="#63b8ff" stroke="#63b8ff" points="893.52,-247.17 884.63,-252.93 895.17,-253.97 893.52,-247.17"/>
</a>
</g>
</g>
<!-- Node19 -->
<g id="Node000019" class="node">
<title>Node19</title>
<g id="a_Node000019"><a xlink:href="validate_8c.html" target="_top" xlink:title="Validation of the user provided settings and data.">
<polygon fill="white" stroke="#666666" points="145.96,-211.5 26.96,-211.5 26.96,-192.5 145.96,-192.5 145.96,-211.5"/>
<text text-anchor="middle" x="86.46" y="-199.5" font-family="Helvetica,sans-Serif" font-size="10.00">QPALM/src/validate.c</text>
</a>
</g>
</g>
<!-- Node10&#45;&gt;Node19 -->
<g id="edge27_Node000010_Node000019" class="edge">
<title>Node10&#45;&gt;Node19</title>
<g id="a_edge27_Node000010_Node000019"><a xlink:title=" ">
<path fill="none" stroke="#63b8ff" d="M754.81,-264.26C632.5,-258.98 375.76,-245.36 160.46,-217 149.57,-215.57 137.86,-213.57 127.04,-211.52"/>
<polygon fill="#63b8ff" stroke="#63b8ff" points="755.02,-267.77 765.16,-264.7 755.32,-260.77 755.02,-267.77"/>
</a>
</g>
</g>
<!-- Node11&#45;&gt;Node2 -->
<g id="edge14_Node000011_Node000002" class="edge">
<title>Node11&#45;&gt;Node2</title>
<g id="a_edge14_Node000011_Node000002"><a xlink:title=" ">
<path fill="none" stroke="#63b8ff" d="M410.98,-186.99C637.4,-161.78 1269.18,-147.75 1474.88,-143.72"/>
<polygon fill="#63b8ff" stroke="#63b8ff" points="410.36,-183.53 400.83,-188.16 411.16,-190.49 410.36,-183.53"/>
</a>
</g>
</g>
<!-- Node11&#45;&gt;Node6 -->
<g id="edge15_Node000011_Node000006" class="edge">
<title>Node11&#45;&gt;Node6</title>
<g id="a_edge15_Node000011_Node000006"><a xlink:title=" ">
<path fill="none" stroke="#63b8ff" d="M410.55,-186.88C693.64,-140.23 1020.57,-102.25 1148.4,-88.01"/>
<polygon fill="#63b8ff" stroke="#63b8ff" points="409.79,-183.46 400.5,-188.55 410.93,-190.37 409.79,-183.46"/>
</a>
</g>
</g>
<!-- Node11&#45;&gt;Node12 -->
<g id="edge16_Node000011_Node000012" class="edge">
<title>Node11&#45;&gt;Node12</title>
<g id="a_edge16_Node000011_Node000012"><a xlink:title=" ">
<path fill="none" stroke="#63b8ff" d="M324.08,-178.51C317.57,-168.99 310.37,-158.47 305.45,-151.27"/>
<polygon fill="#63b8ff" stroke="#63b8ff" points="321.24,-180.56 329.77,-186.84 327.02,-176.61 321.24,-180.56"/>
</a>
</g>
</g>
<!-- Node20&#45;&gt;Node2 -->
<g id="edge29_Node000020_Node000002" class="edge">
<title>Node20&#45;&gt;Node2</title>
<g id="a_edge29_Node000020_Node000002"><a xlink:title=" ">
<path fill="none" stroke="#63b8ff" d="M1167.51,-247.01C1194.79,-228.56 1238.08,-201.82 1279.46,-187 1343.61,-164.02 1420.99,-152.73 1474.76,-147.3"/>
<polygon fill="#63b8ff" stroke="#63b8ff" points="1165.5,-244.15 1159.23,-252.69 1169.46,-249.92 1165.5,-244.15"/>
</a>
</g>
</g>
<!-- Node20&#45;&gt;Node6 -->
<g id="edge32_Node000020_Node000006" class="edge">
<title>Node20&#45;&gt;Node6</title>
<g id="a_edge32_Node000020_Node000006"><a xlink:title=" ">
<path fill="none" stroke="#63b8ff" d="M1147.69,-243.19C1162.09,-201.58 1191.18,-117.49 1200.5,-90.53"/>
<polygon fill="#63b8ff" stroke="#63b8ff" points="1144.33,-242.2 1144.37,-252.79 1150.95,-244.48 1144.33,-242.2"/>
</a>
</g>
</g>
<!-- Node20&#45;&gt;Node8 -->
<g id="edge30_Node000020_Node000008" class="edge">
<title>Node20&#45;&gt;Node8</title>
<g id="a_edge30_Node000020_Node000008"><a xlink:title=" ">
<path fill="none" stroke="#63b8ff" d="M1199.28,-250.21C1243.57,-237.78 1302.07,-221.35 1337.11,-211.52"/>
<polygon fill="#63b8ff" stroke="#63b8ff" points="1198.17,-246.88 1189.49,-252.95 1200.06,-253.62 1198.17,-246.88"/>
</a>
</g>
</g>
<!-- Node20&#45;&gt;Node14 -->
<g id="edge31_Node000020_Node000014" class="edge">
<title>Node20&#45;&gt;Node14</title>
<g id="a_edge31_Node000020_Node000014"><a xlink:title=" ">
<path fill="none" stroke="#63b8ff" d="M1068.31,-252.45C1006.64,-239.84 919.48,-222.02 868.38,-211.57"/>
<polygon fill="#63b8ff" stroke="#63b8ff" points="1067.86,-255.93 1078.36,-254.51 1069.27,-249.08 1067.86,-255.93"/>
</a>
</g>
</g>
<!-- Node21&#45;&gt;Node2 -->
<g id="edge34_Node000021_Node000002" class="edge">
<title>Node21&#45;&gt;Node2</title>
<g id="a_edge34_Node000021_Node000002"><a xlink:title=" ">
<path fill="none" stroke="#63b8ff" d="M1278.61,-242.88C1279.36,-224.95 1283.47,-201.23 1298.46,-187 1323.31,-163.39 1412.12,-151.89 1474.93,-146.6"/>
<polygon fill="#63b8ff" stroke="#63b8ff" points="1275.11,-242.86 1278.51,-252.9 1282.11,-242.94 1275.11,-242.86"/>
</a>
</g>
</g>
<!-- Node21&#45;&gt;Node6 -->
<g id="edge37_Node000021_Node000006" class="edge">
<title>Node21&#45;&gt;Node6</title>
<g id="a_edge37_Node000021_Node000006"><a xlink:title=" ">
<path fill="none" stroke="#63b8ff" d="M1269.78,-243.45C1252.73,-201.93 1218.06,-117.55 1206.96,-90.53"/>
<polygon fill="#63b8ff" stroke="#63b8ff" points="1266.58,-244.87 1273.62,-252.79 1273.06,-242.21 1266.58,-244.87"/>
</a>
</g>
</g>
<!-- Node21&#45;&gt;Node8 -->
<g id="edge35_Node000021_Node000008" class="edge">
<title>Node21&#45;&gt;Node8</title>
<g id="a_edge35_Node000021_Node000008"><a xlink:title=" ">
<path fill="none" stroke="#63b8ff" d="M1307.13,-246.87C1323.42,-235.03 1343.19,-220.65 1355.55,-211.66"/>
<polygon fill="#63b8ff" stroke="#63b8ff" points="1305.01,-244.08 1298.99,-252.8 1309.13,-249.75 1305.01,-244.08"/>
</a>
</g>
</g>
<!-- Node21&#45;&gt;Node15 -->
<g id="edge36_Node000021_Node000015" class="edge">
<title>Node21&#45;&gt;Node15</title>
<g id="a_edge36_Node000021_Node000015"><a xlink:title=" ">
<path fill="none" stroke="#63b8ff" d="M1208.42,-252.7C1147.8,-240.48 1065.38,-223.82 1032.46,-217 1024.08,-215.26 1015.12,-213.38 1006.58,-211.57"/>
<polygon fill="#63b8ff" stroke="#63b8ff" points="1207.83,-256.15 1218.32,-254.69 1209.21,-249.29 1207.83,-256.15"/>
</a>
</g>
</g>
<!-- Node22&#45;&gt;Node2 -->
<g id="edge39_Node000022_Node000002" class="edge">
<title>Node22&#45;&gt;Node2</title>
<g id="a_edge39_Node000022_Node000002"><a xlink:title=" ">
<path fill="none" stroke="#63b8ff" d="M1504.05,-243.23C1514.2,-215.13 1530.57,-169.84 1537.36,-151.07"/>
<polygon fill="#63b8ff" stroke="#63b8ff" points="1500.73,-242.12 1500.62,-252.72 1507.31,-244.5 1500.73,-242.12"/>
</a>
</g>
</g>
<!-- Node22&#45;&gt;Node6 -->
<g id="edge42_Node000022_Node000006" class="edge">
<title>Node22&#45;&gt;Node6</title>
<g id="a_edge42_Node000022_Node000006"><a xlink:title=" ">
<path fill="none" stroke="#63b8ff" d="M1482.8,-243.83C1472.29,-226.34 1455.94,-202.74 1436.46,-187 1373.63,-136.26 1282.37,-104.6 1234.86,-90.53"/>
<polygon fill="#63b8ff" stroke="#63b8ff" points="1479.98,-245.94 1488.03,-252.84 1486.04,-242.43 1479.98,-245.94"/>
</a>
</g>
</g>
<!-- Node22&#45;&gt;Node8 -->
<g id="edge40_Node000022_Node000008" class="edge">
<title>Node22&#45;&gt;Node8</title>
<g id="a_edge40_Node000022_Node000008"><a xlink:title=" ">
<path fill="none" stroke="#63b8ff" d="M1458.37,-248.46C1434,-236.27 1403.25,-220.9 1384.49,-211.52"/>
<polygon fill="#63b8ff" stroke="#63b8ff" points="1456.86,-251.61 1467.37,-252.95 1459.99,-245.35 1456.86,-251.61"/>
</a>
</g>
</g>
<!-- Node22&#45;&gt;Node16 -->
<g id="edge41_Node000022_Node000016" class="edge">
<title>Node22&#45;&gt;Node16</title>
<g id="a_edge41_Node000022_Node000016"><a xlink:title=" ">
<path fill="none" stroke="#63b8ff" d="M1533.12,-248.46C1557.87,-236.27 1589.1,-220.9 1608.15,-211.52"/>
<polygon fill="#63b8ff" stroke="#63b8ff" points="1531.41,-245.4 1523.98,-252.95 1534.5,-251.68 1531.41,-245.4"/>
</a>
</g>
</g>
<!-- Node23&#45;&gt;Node2 -->
<g id="edge45_Node000023_Node000002" class="edge">
<title>Node23&#45;&gt;Node2</title>
<g id="a_edge45_Node000023_Node000002"><a xlink:title=" ">
<path fill="none" stroke="#63b8ff" d="M1021.79,-329.37C1124.76,-323.32 1309.37,-309.16 1370.46,-283 1444.72,-251.2 1512.05,-176.37 1533.43,-151.05"/>
<polygon fill="#63b8ff" stroke="#63b8ff" points="1021.57,-325.88 1011.79,-329.95 1021.97,-332.87 1021.57,-325.88"/>
</a>
</g>
</g>
<!-- Node23&#45;&gt;Node6 -->
<g id="edge48_Node000023_Node000006" class="edge">
<title>Node23&#45;&gt;Node6</title>
<g id="a_edge48_Node000023_Node000006"><a xlink:title=" ">
<path fill="none" stroke="#63b8ff" d="M879.21,-332.42C680.5,-330.33 130.07,-321.13 58.46,-283 15.99,-260.39 -15.67,-228.62 8.46,-187 33.11,-144.46 57.24,-145.72 104.46,-132 204.98,-102.78 939.43,-86.94 1148.23,-82.99"/>
<polygon fill="#63b8ff" stroke="#63b8ff" points="879.21,-335.92 889.25,-332.52 879.28,-328.92 879.21,-335.92"/>
</a>
</g>
</g>
<!-- Node23&#45;&gt;Node8 -->
<g id="edge47_Node000023_Node000008" class="edge">
<title>Node23&#45;&gt;Node8</title>
<g id="a_edge47_Node000023_Node000008"><a xlink:title=" ">
<path fill="none" stroke="#63b8ff" d="M1021.84,-333.57C1123.48,-332.84 1302.79,-325.36 1349.46,-283 1369.9,-264.44 1369.7,-228.07 1368.4,-211.54"/>
<polygon fill="#63b8ff" stroke="#63b8ff" points="1021.64,-330.07 1011.65,-333.62 1021.67,-337.07 1021.64,-330.07"/>
</a>
</g>
</g>
<!-- Node23&#45;&gt;Node10 -->
<g id="edge46_Node000023_Node000010" class="edge">
<title>Node23&#45;&gt;Node10</title>
<g id="a_edge46_Node000023_Node000010"><a xlink:title=" ">
<path fill="none" stroke="#63b8ff" d="M914.11,-314.24C894.76,-304.25 871.36,-292.18 853.6,-283.01"/>
<polygon fill="#63b8ff" stroke="#63b8ff" points="912.75,-317.48 923.24,-318.95 915.96,-311.26 912.75,-317.48"/>
</a>
</g>
</g>
<!-- Node23&#45;&gt;Node17 -->
<g id="edge49_Node000023_Node000017" class="edge">
<title>Node23&#45;&gt;Node17</title>
<g id="a_edge49_Node000023_Node000017"><a xlink:title=" ">
<path fill="none" stroke="#63b8ff" d="M883.18,-316.49C845.75,-307.1 798.39,-294.87 756.46,-283 670.87,-258.77 570.49,-226.71 523.8,-211.59"/>
<polygon fill="#63b8ff" stroke="#63b8ff" points="882.41,-319.91 892.96,-318.94 884.11,-313.12 882.41,-319.91"/>
</a>
</g>
</g>
<!-- Node24&#45;&gt;Node2 -->
<g id="edge51_Node000024_Node000002" class="edge">
<title>Node24&#45;&gt;Node2</title>
<g id="a_edge51_Node000024_Node000002"><a xlink:title=" ">
<path fill="none" stroke="#63b8ff" d="M1958.98,-243.03C1961.55,-225.18 1961.47,-201.5 1947.46,-187 1924.21,-162.95 1715.07,-150.21 1606,-145.15"/>
<polygon fill="#63b8ff" stroke="#63b8ff" points="1955.51,-242.54 1957.19,-253 1962.4,-243.77 1955.51,-242.54"/>
</a>
</g>
</g>
<!-- Node24&#45;&gt;Node6 -->
<g id="edge52_Node000024_Node000006" class="edge">
<title>Node24&#45;&gt;Node6</title>
<g id="a_edge52_Node000024_Node000006"><a xlink:title=" ">
<path fill="none" stroke="#63b8ff" d="M1964.78,-243.54C1971.27,-226.38 1976.05,-203.35 1964.46,-187 1921.68,-126.69 1879.77,-147.4 1807.46,-132 1703.51,-109.87 1387.54,-91.53 1258.87,-84.78"/>
<polygon fill="#63b8ff" stroke="#63b8ff" points="1961.51,-242.29 1960.88,-252.87 1967.97,-244.99 1961.51,-242.29"/>
</a>
</g>
</g>
<!-- Node24&#45;&gt;Node9 -->
<g id="edge53_Node000024_Node000009" class="edge">
<title>Node24&#45;&gt;Node9</title>
<g id="a_edge53_Node000024_Node000009"><a xlink:title=" ">
<path fill="none" stroke="#63b8ff" d="M1922.77,-247.36C1904.12,-235.42 1881.22,-220.77 1866.98,-211.66"/>
<polygon fill="#63b8ff" stroke="#63b8ff" points="1920.95,-250.35 1931.26,-252.8 1924.73,-244.46 1920.95,-250.35"/>
</a>
</g>
</g>
<!-- Node25&#45;&gt;Node2 -->
<g id="edge55_Node000025_Node000002" class="edge">
<title>Node25&#45;&gt;Node2</title>
<g id="a_edge55_Node000025_Node000002"><a xlink:title=" ">
<path fill="none" stroke="#63b8ff" d="M1691.39,-244.69C1702.86,-227.54 1713.37,-204 1700.46,-187 1687.85,-170.41 1638.5,-158.37 1597.9,-151.03"/>
<polygon fill="#63b8ff" stroke="#63b8ff" points="1688.41,-242.83 1685.42,-253 1694.1,-246.91 1688.41,-242.83"/>
</a>
</g>
</g>
<!-- Node25&#45;&gt;Node6 -->
<g id="edge58_Node000025_Node000006" class="edge">
<title>Node25&#45;&gt;Node6</title>
<g id="a_edge58_Node000025_Node000006"><a xlink:title=" ">
<path fill="none" stroke="#63b8ff" d="M1697.76,-245.51C1713.1,-229.24 1728.01,-206.46 1716.46,-187 1690.35,-143.06 1664.14,-147.58 1615.46,-132 1492.1,-92.53 1338.85,-83.83 1258.5,-82.16"/>
<polygon fill="#63b8ff" stroke="#63b8ff" points="1694.93,-243.39 1690.31,-252.92 1699.87,-248.35 1694.93,-243.39"/>
</a>
</g>
</g>
<!-- Node25&#45;&gt;Node8 -->
<g id="edge56_Node000025_Node000008" class="edge">
<title>Node25&#45;&gt;Node8</title>
<g id="a_edge56_Node000025_Node000008"><a xlink:title=" ">
<path fill="none" stroke="#63b8ff" d="M1602.45,-252.15C1542.26,-239.56 1458.05,-221.95 1408.49,-211.58"/>
<polygon fill="#63b8ff" stroke="#63b8ff" points="1601.76,-255.58 1612.27,-254.2 1603.2,-248.73 1601.76,-255.58"/>
</a>
</g>
</g>
<!-- Node25&#45;&gt;Node9 -->
<g id="edge59_Node000025_Node000009" class="edge">
<title>Node25&#45;&gt;Node9</title>
<g id="a_edge59_Node000025_Node000009"><a xlink:title=" ">
<path fill="none" stroke="#63b8ff" d="M1722.46,-249.58C1757.2,-237.23 1802.3,-221.19 1829.5,-211.52"/>
<polygon fill="#63b8ff" stroke="#63b8ff" points="1721.21,-246.31 1712.96,-252.95 1723.55,-252.9 1721.21,-246.31"/>
</a>
</g>
</g>
<!-- Node25&#45;&gt;Node16 -->
<g id="edge57_Node000025_Node000016" class="edge">
<title>Node25&#45;&gt;Node16</title>
<g id="a_edge57_Node000025_Node000016"><a xlink:title=" ">
<path fill="none" stroke="#63b8ff" d="M1656.66,-244.61C1648.2,-233.32 1638.41,-220.28 1632.09,-211.84"/>
<polygon fill="#63b8ff" stroke="#63b8ff" points="1654,-246.9 1662.8,-252.8 1659.6,-242.7 1654,-246.9"/>
</a>
</g>
</g>
<!-- Node25&#45;&gt;Node18 -->
<g id="edge60_Node000025_Node000018" class="edge">
<title>Node25&#45;&gt;Node18</title>
<g id="a_edge60_Node000025_Node000018"><a xlink:title=" ">
<path fill="none" stroke="#63b8ff" d="M1602.19,-257.51C1589.95,-255.95 1577.34,-254.39 1565.46,-253 1408.86,-234.63 1222.89,-216.02 1137.13,-207.62"/>
<polygon fill="#63b8ff" stroke="#63b8ff" points="1602.01,-261.02 1612.37,-258.82 1602.9,-254.08 1602.01,-261.02"/>
</a>
</g>
</g>
<!-- Node26&#45;&gt;Node2 -->
<g id="edge62_Node000026_Node000002" class="edge">
<title>Node26&#45;&gt;Node2</title>
<g id="a_edge62_Node000026_Node000002"><a xlink:title=" ">
<path fill="none" stroke="#63b8ff" d="M154.93,-246.75C182.04,-227.34 226.2,-199.23 269.46,-187 385.65,-154.15 1231.3,-144.95 1474.94,-142.97"/>
<polygon fill="#63b8ff" stroke="#63b8ff" points="152.77,-244 146.76,-252.72 156.9,-249.65 152.77,-244"/>
</a>
</g>
</g>
<!-- Node26&#45;&gt;Node6 -->
<g id="edge63_Node000026_Node000006" class="edge">
<title>Node26&#45;&gt;Node6</title>
<g id="a_edge63_Node000026_Node000006"><a xlink:title=" ">
<path fill="none" stroke="#63b8ff" d="M69.36,-249.3C33.06,-235.3 -2.92,-213.7 17.46,-187 86.9,-96 924.05,-83.87 1148.42,-82.25"/>
<polygon fill="#63b8ff" stroke="#63b8ff" points="68.47,-252.7 79.06,-252.87 70.89,-246.13 68.47,-252.7"/>
</a>
</g>
</g>
<!-- Node26&#45;&gt;Node19 -->
<g id="edge64_Node000026_Node000019" class="edge">
<title>Node26&#45;&gt;Node19</title>
<g id="a_edge64_Node000026_Node000019"><a xlink:title=" ">
<path fill="none" stroke="#63b8ff" d="M113.55,-244.28C106.19,-233.07 97.74,-220.19 92.26,-211.84"/>
<polygon fill="#63b8ff" stroke="#63b8ff" points="110.72,-246.36 119.13,-252.8 116.57,-242.52 110.72,-246.36"/>
</a>
</g>
</g>
<!-- Node27&#45;&gt;Node3 -->
<g id="edge66_Node000027_Node000003" class="edge">
<title>Node27&#45;&gt;Node3</title>
<g id="a_edge66_Node000027_Node000003"><a xlink:title=" ">
<path fill="none" stroke="#63b8ff" d="M2116.5,-311.07C2072.92,-260.66 1966.61,-137.7 1930.61,-96.06"/>
<polygon fill="#63b8ff" stroke="#63b8ff" points="2113.98,-313.51 2123.17,-318.79 2119.27,-308.93 2113.98,-313.51"/>
</a>
</g>
</g>
</g>
</svg>
