<?xml version="1.0" encoding="UTF-8" standalone="no"?>
<!DOCTYPE svg PUBLIC "-//W3C//DTD SVG 1.1//EN"
 "http://www.w3.org/Graphics/SVG/1.1/DTD/svg11.dtd">
<!-- Generated by graphviz version 2.43.0 (0)
 -->
<!-- Title: QPALM/src/util.c Pages: 1 -->
<svg width="510pt" height="302pt"
 viewBox="0.00 0.00 509.50 302.00" xmlns="http://www.w3.org/2000/svg" xmlns:xlink="http://www.w3.org/1999/xlink">
<g id="graph0" class="graph" transform="scale(1 1) rotate(0) translate(4 298)">
<title>QPALM/src/util.c</title>
<!-- Node1 -->
<g id="Node000001" class="node">
<title>Node1</title>
<g id="a_Node000001"><a xlink:title="Utility functions.">
<polygon fill="#999999" stroke="#666666" points="380,-294 285,-294 285,-275 380,-275 380,-294"/>
<text text-anchor="middle" x="332.5" y="-282" font-family="Helvetica,sans-Serif" font-size="10.00">QPALM/src/util.c</text>
</a>
</g>
</g>
<!-- Node2 -->
<g id="Node000002" class="node">
<title>Node2</title>
<g id="a_Node000002"><a xlink:href="util_8h.html" target="_top" xlink:title="Utility functions.">
<polygon fill="white" stroke="#666666" points="91,-184 16,-184 16,-165 91,-165 91,-184"/>
<text text-anchor="middle" x="53.5" y="-172" font-family="Helvetica,sans-Serif" font-size="10.00">qpalm/util.h</text>
</a>
</g>
</g>
<!-- Node1&#45;&gt;Node2 -->
<g id="edge1_Node000001_Node000002" class="edge">
<title>Node1&#45;&gt;Node2</title>
<g id="a_edge1_Node000001_Node000002"><a xlink:title=" ">
<path fill="none" stroke="#63b8ff" d="M298.48,-274.93C268.14,-266.89 222.75,-253.91 184.5,-239 146.5,-224.19 104.35,-202.81 78.38,-189.04"/>
<polygon fill="#63b8ff" stroke="#63b8ff" points="79.74,-185.79 69.27,-184.16 76.43,-191.97 79.74,-185.79"/>
</a>
</g>
</g>
<!-- Node3 -->
<g id="Node000003" class="node">
<title>Node3</title>
<g id="a_Node000003"><a xlink:href="types_8h.html" target="_top" xlink:title="Internal data structures used in QPALM.">
<polygon fill="white" stroke="#666666" points="285.5,-129 199.5,-129 199.5,-110 285.5,-110 285.5,-129"/>
<text text-anchor="middle" x="242.5" y="-117" font-family="Helvetica,sans-Serif" font-size="10.00">qpalm/types.h</text>
</a>
</g>
</g>
<!-- Node1&#45;&gt;Node3 -->
<g id="edge18_Node000001_Node000003" class="edge">
<title>Node1&#45;&gt;Node3</title>
<g id="a_edge18_Node000001_Node000003"><a xlink:title=" ">
<path fill="none" stroke="#63b8ff" d="M328.36,-274.71C318.91,-254.83 294.75,-205.01 271.5,-165 266.11,-155.73 259.64,-145.7 254.18,-137.52"/>
<polygon fill="#63b8ff" stroke="#63b8ff" points="257.05,-135.52 248.55,-129.2 251.25,-139.44 257.05,-135.52"/>
</a>
</g>
</g>
<!-- Node5 -->
<g id="Node000005" class="node">
<title>Node5</title>
<g id="a_Node000005"><a xlink:href="global__opts_8h.html" target="_top" xlink:title="Custom memory allocation, print and utility functions, and data types for floats and ints.">
<polygon fill="white" stroke="#666666" points="409.5,-74 293.5,-74 293.5,-55 409.5,-55 409.5,-74"/>
<text text-anchor="middle" x="351.5" y="-62" font-family="Helvetica,sans-Serif" font-size="10.00">qpalm/global_opts.h</text>
</a>
</g>
</g>
<!-- Node1&#45;&gt;Node5 -->
<g id="edge17_Node000001_Node000005" class="edge">
<title>Node1&#45;&gt;Node5</title>
<g id="a_edge17_Node000001_Node000005"><a xlink:title=" ">
<path fill="none" stroke="#63b8ff" d="M333.24,-274.95C336.03,-242.95 345.91,-129.68 349.85,-84.4"/>
<polygon fill="#63b8ff" stroke="#63b8ff" points="353.36,-84.49 350.74,-74.22 346.38,-83.88 353.36,-84.49"/>
</a>
</g>
</g>
<!-- Node9 -->
<g id="Node000009" class="node">
<title>Node9</title>
<g id="a_Node000009"><a xlink:href="lin__alg_8h.html" target="_top" xlink:title="Linear algebra with vectors.">
<polygon fill="white" stroke="#666666" points="285.5,-239 193.5,-239 193.5,-220 285.5,-220 285.5,-239"/>
<text text-anchor="middle" x="239.5" y="-227" font-family="Helvetica,sans-Serif" font-size="10.00">qpalm/lin_alg.h</text>
</a>
</g>
</g>
<!-- Node1&#45;&gt;Node9 -->
<g id="edge10_Node000001_Node000009" class="edge">
<title>Node1&#45;&gt;Node9</title>
<g id="a_edge10_Node000001_Node000009"><a xlink:title=" ">
<path fill="none" stroke="#63b8ff" d="M317.56,-274.98C303,-266.69 280.63,-253.94 263.57,-244.22"/>
<polygon fill="#63b8ff" stroke="#63b8ff" points="265.14,-241.08 254.71,-239.17 261.67,-247.16 265.14,-241.08"/>
</a>
</g>
</g>
<!-- Node11 -->
<g id="Node000011" class="node">
<title>Node11</title>
<g id="a_Node000011"><a xlink:title=" ">
<polygon fill="#e0e0e0" stroke="#999999" points="433,-239 380,-239 380,-220 433,-220 433,-239"/>
<text text-anchor="middle" x="406.5" y="-227" font-family="Helvetica,sans-Serif" font-size="10.00">string.h</text>
</a>
</g>
</g>
<!-- Node1&#45;&gt;Node11 -->
<g id="edge19_Node000001_Node000011" class="edge">
<title>Node1&#45;&gt;Node11</title>
<g id="a_edge19_Node000001_Node000011"><a xlink:title=" ">
<path fill="none" stroke="#63b8ff" d="M344.39,-274.98C355.65,-266.92 372.79,-254.65 386.21,-245.03"/>
<polygon fill="#63b8ff" stroke="#63b8ff" points="388.3,-247.84 394.39,-239.17 384.23,-242.15 388.3,-247.84"/>
</a>
</g>
</g>
<!-- Node12 -->
<g id="Node000012" class="node">
<title>Node12</title>
<g id="a_Node000012"><a xlink:title=" ">
<polygon fill="#e0e0e0" stroke="#999999" points="501.5,-239 451.5,-239 451.5,-220 501.5,-220 501.5,-239"/>
<text text-anchor="middle" x="476.5" y="-227" font-family="Helvetica,sans-Serif" font-size="10.00">stdio.h</text>
</a>
</g>
</g>
<!-- Node1&#45;&gt;Node12 -->
<g id="edge20_Node000001_Node000012" class="edge">
<title>Node1&#45;&gt;Node12</title>
<g id="a_edge20_Node000001_Node000012"><a xlink:title=" ">
<path fill="none" stroke="#63b8ff" d="M355.64,-274.98C379.32,-266.27 416.37,-252.63 443.21,-242.75"/>
<polygon fill="#63b8ff" stroke="#63b8ff" points="444.77,-245.91 452.94,-239.17 442.35,-239.34 444.77,-245.91"/>
</a>
</g>
</g>
<!-- Node2&#45;&gt;Node3 -->
<g id="edge2_Node000002_Node000003" class="edge">
<title>Node2&#45;&gt;Node3</title>
<g id="a_edge2_Node000002_Node000003"><a xlink:title=" ">
<path fill="none" stroke="#63b8ff" d="M83.87,-164.98C115.87,-156.01 166.46,-141.82 201.88,-131.89"/>
<polygon fill="#63b8ff" stroke="#63b8ff" points="203.21,-135.15 211.9,-129.08 201.32,-128.41 203.21,-135.15"/>
</a>
</g>
</g>
<!-- Node8 -->
<g id="Node000008" class="node">
<title>Node8</title>
<g id="a_Node000008"><a xlink:href="constants_8h.html" target="_top" xlink:title="Constants used in QPALM.">
<polygon fill="white" stroke="#666666" points="107,-129 0,-129 0,-110 107,-110 107,-129"/>
<text text-anchor="middle" x="53.5" y="-117" font-family="Helvetica,sans-Serif" font-size="10.00">qpalm/constants.h</text>
</a>
</g>
</g>
<!-- Node2&#45;&gt;Node8 -->
<g id="edge8_Node000002_Node000008" class="edge">
<title>Node2&#45;&gt;Node8</title>
<g id="a_edge8_Node000002_Node000008"><a xlink:title=" ">
<path fill="none" stroke="#63b8ff" d="M53.5,-164.75C53.5,-157.8 53.5,-147.85 53.5,-139.13"/>
<polygon fill="#63b8ff" stroke="#63b8ff" points="57,-139.09 53.5,-129.09 50,-139.09 57,-139.09"/>
</a>
</g>
</g>
<!-- Node4 -->
<g id="Node000004" class="node">
<title>Node4</title>
<g id="a_Node000004"><a xlink:title=" ">
<polygon fill="#e0e0e0" stroke="#999999" points="237.5,-74 163.5,-74 163.5,-55 237.5,-55 237.5,-74"/>
<text text-anchor="middle" x="200.5" y="-62" font-family="Helvetica,sans-Serif" font-size="10.00">stdatomic.h</text>
</a>
</g>
</g>
<!-- Node3&#45;&gt;Node4 -->
<g id="edge3_Node000003_Node000004" class="edge">
<title>Node3&#45;&gt;Node4</title>
<g id="a_edge3_Node000003_Node000004"><a xlink:title=" ">
<path fill="none" stroke="#63b8ff" d="M235.56,-109.75C229.63,-102.26 220.93,-91.28 213.68,-82.13"/>
<polygon fill="#63b8ff" stroke="#63b8ff" points="216.26,-79.75 207.31,-74.09 210.77,-84.1 216.26,-79.75"/>
</a>
</g>
</g>
<!-- Node3&#45;&gt;Node5 -->
<g id="edge4_Node000003_Node000005" class="edge">
<title>Node3&#45;&gt;Node5</title>
<g id="a_edge4_Node000003_Node000005"><a xlink:title=" ">
<path fill="none" stroke="#63b8ff" d="M260.01,-109.98C277.47,-101.5 304.51,-88.35 324.67,-78.54"/>
<polygon fill="#63b8ff" stroke="#63b8ff" points="326.21,-81.69 333.67,-74.17 323.14,-75.4 326.21,-81.69"/>
</a>
</g>
</g>
<!-- Node6 -->
<g id="Node000006" class="node">
<title>Node6</title>
<g id="a_Node000006"><a xlink:title=" ">
<polygon fill="#e0e0e0" stroke="#999999" points="225.5,-19 175.5,-19 175.5,0 225.5,0 225.5,-19"/>
<text text-anchor="middle" x="200.5" y="-7" font-family="Helvetica,sans-Serif" font-size="10.00">ladel.h</text>
</a>
</g>
</g>
<!-- Node3&#45;&gt;Node6 -->
<g id="edge7_Node000003_Node000006" class="edge">
<title>Node3&#45;&gt;Node6</title>
<g id="a_edge7_Node000003_Node000006"><a xlink:title=" ">
<path fill="none" stroke="#63b8ff" d="M245.4,-109.87C249.13,-97.26 254.26,-73.31 246.5,-55 241.52,-43.25 231.75,-33.09 222.49,-25.45"/>
<polygon fill="#63b8ff" stroke="#63b8ff" points="224.35,-22.47 214.28,-19.18 220.1,-28.03 224.35,-22.47"/>
</a>
</g>
</g>
<!-- Node5&#45;&gt;Node6 -->
<g id="edge5_Node000005_Node000006" class="edge">
<title>Node5&#45;&gt;Node6</title>
<g id="a_edge5_Node000005_Node000006"><a xlink:title=" ">
<path fill="none" stroke="#63b8ff" d="M327.24,-54.98C302.18,-46.19 262.87,-32.39 234.67,-22.49"/>
<polygon fill="#63b8ff" stroke="#63b8ff" points="235.8,-19.18 225.2,-19.17 233.48,-25.78 235.8,-19.18"/>
</a>
</g>
</g>
<!-- Node7 -->
<g id="Node000007" class="node">
<title>Node7</title>
<g id="a_Node000007"><a xlink:title=" ">
<polygon fill="#e0e0e0" stroke="#999999" points="377,-19 326,-19 326,0 377,0 377,-19"/>
<text text-anchor="middle" x="351.5" y="-7" font-family="Helvetica,sans-Serif" font-size="10.00">math.h</text>
</a>
</g>
</g>
<!-- Node5&#45;&gt;Node7 -->
<g id="edge6_Node000005_Node000007" class="edge">
<title>Node5&#45;&gt;Node7</title>
<g id="a_edge6_Node000005_Node000007"><a xlink:title=" ">
<path fill="none" stroke="#63b8ff" d="M351.5,-54.75C351.5,-47.8 351.5,-37.85 351.5,-29.13"/>
<polygon fill="#63b8ff" stroke="#63b8ff" points="355,-29.09 351.5,-19.09 348,-29.09 355,-29.09"/>
</a>
</g>
</g>
<!-- Node8&#45;&gt;Node6 -->
<g id="edge9_Node000008_Node000006" class="edge">
<title>Node8&#45;&gt;Node6</title>
<g id="a_edge9_Node000008_Node000006"><a xlink:title=" ">
<path fill="none" stroke="#63b8ff" d="M61.72,-109.58C73.95,-96.59 98.04,-72.18 121.5,-55 137.8,-43.06 157.62,-31.91 173.32,-23.75"/>
<polygon fill="#63b8ff" stroke="#63b8ff" points="175.18,-26.74 182.5,-19.08 172,-20.5 175.18,-26.74"/>
</a>
</g>
</g>
<!-- Node9&#45;&gt;Node3 -->
<g id="edge11_Node000009_Node000003" class="edge">
<title>Node9&#45;&gt;Node3</title>
<g id="a_edge11_Node000009_Node000003"><a xlink:title=" ">
<path fill="none" stroke="#63b8ff" d="M243.87,-219.91C248.06,-211.14 254.1,-197.01 256.5,-184 259.35,-168.56 254.97,-151.16 250.38,-138.48"/>
<polygon fill="#63b8ff" stroke="#63b8ff" points="253.59,-137.07 246.62,-129.09 247.09,-139.67 253.59,-137.07"/>
</a>
</g>
</g>
<!-- Node10 -->
<g id="Node000010" class="node">
<title>Node10</title>
<g id="a_Node000010"><a xlink:href="solver__interface_8h.html" target="_top" xlink:title="Interface and wrapper to matrix/factorization (ladel) functions.">
<polygon fill="white" stroke="#666666" points="247.5,-184 109.5,-184 109.5,-165 247.5,-165 247.5,-184"/>
<text text-anchor="middle" x="178.5" y="-172" font-family="Helvetica,sans-Serif" font-size="10.00">qpalm/solver_interface.h</text>
</a>
</g>
</g>
<!-- Node9&#45;&gt;Node10 -->
<g id="edge12_Node000009_Node000010" class="edge">
<title>Node9&#45;&gt;Node10</title>
<g id="a_edge12_Node000009_Node000010"><a xlink:title=" ">
<path fill="none" stroke="#63b8ff" d="M229.7,-219.98C220.68,-212.15 207.09,-200.34 196.18,-190.86"/>
<polygon fill="#63b8ff" stroke="#63b8ff" points="198.32,-188.09 188.48,-184.17 193.73,-193.37 198.32,-188.09"/>
</a>
</g>
</g>
<!-- Node10&#45;&gt;Node3 -->
<g id="edge15_Node000010_Node000003" class="edge">
<title>Node10&#45;&gt;Node3</title>
<g id="a_edge15_Node000010_Node000003"><a xlink:title=" ">
<path fill="none" stroke="#63b8ff" d="M188.78,-164.98C198.34,-157.07 212.78,-145.11 224.28,-135.58"/>
<polygon fill="#63b8ff" stroke="#63b8ff" points="226.56,-138.24 232.03,-129.17 222.1,-132.85 226.56,-138.24"/>
</a>
</g>
</g>
<!-- Node10&#45;&gt;Node5 -->
<g id="edge13_Node000010_Node000005" class="edge">
<title>Node10&#45;&gt;Node5</title>
<g id="a_edge13_Node000010_Node000005"><a xlink:title=" ">
<path fill="none" stroke="#63b8ff" d="M212.79,-164.99C237.03,-157.91 269.54,-146.18 294.5,-129 312.92,-116.32 329.43,-96.52 339.89,-82.4"/>
<polygon fill="#63b8ff" stroke="#63b8ff" points="342.87,-84.25 345.84,-74.08 337.17,-80.18 342.87,-84.25"/>
</a>
</g>
</g>
<!-- Node10&#45;&gt;Node6 -->
<g id="edge16_Node000010_Node000006" class="edge">
<title>Node10&#45;&gt;Node6</title>
<g id="a_edge16_Node000010_Node000006"><a xlink:title=" ">
<path fill="none" stroke="#63b8ff" d="M173.37,-164.82C162.22,-144.74 138.03,-93.84 154.5,-55 159.48,-43.25 169.25,-33.09 178.51,-25.45"/>
<polygon fill="#63b8ff" stroke="#63b8ff" points="180.9,-28.03 186.72,-19.18 176.65,-22.47 180.9,-28.03"/>
</a>
</g>
</g>
<!-- Node10&#45;&gt;Node8 -->
<g id="edge14_Node000010_Node000008" class="edge">
<title>Node10&#45;&gt;Node8</title>
<g id="a_edge14_Node000010_Node000008"><a xlink:title=" ">
<path fill="none" stroke="#63b8ff" d="M158.42,-164.98C138.13,-156.38 106.54,-142.99 83.33,-133.15"/>
<polygon fill="#63b8ff" stroke="#63b8ff" points="84.52,-129.85 73.95,-129.17 81.79,-136.3 84.52,-129.85"/>
</a>
</g>
</g>
</g>
</svg>
